<?xml version="1.0" encoding="utf-8" ?>
<svg baseProfile="full" height="300mm" version="1.1" viewBox="0,0,200,300" width="200mm" xmlns="http://www.w3.org/2000/svg" xmlns:ev="http://www.w3.org/2001/xml-events" xmlns:xlink="http://www.w3.org/1999/xlink"><defs /><rect fill="#222222" height="300" width="200" x="0" y="0" /><text fill="#FFFFFF" style="font-size:12px; font-family:Arial; font-weight:bold;" x="10" y="20">Over 10km Runs</text><text fill="#FFFFFF" style="font-size:4px; font-family:Arial" x="10" y="280">Runner</text><text fill="#FFFFFF" style="font-size:9px; font-family:Arial" x="10" y="290">keep</text><text fill="#FFFFFF" style="font-size:4px; font-family:Arial" x="65" y="280">SPECIAL TRACKS</text><rect fill="yellow" height="2.6" width="2.6" x="65" y="283" /><text fill="#FFFFFF" style="font-size:3px; font-family:Arial" x="70" y="285.5">Over 20.0 km</text><rect fill="red" height="2.6" width="2.6" x="65" y="287" /><text fill="#FFFFFF" style="font-size:3px; font-family:Arial" x="70" y="289.5">Over 40.0 km</text><text fill="#FFFFFF" style="font-size:4px; font-family:Arial" x="120" y="280">STATISTICS</text><text fill="#FFFFFF" style="font-size:3px; font-family:Arial" x="120" y="285">Number: 15</text><text fill="#FFFFFF" style="font-size:3px; font-family:Arial" x="120" y="290">Weekly: 1.2</text><text fill="#FFFFFF" style="font-size:3px; font-family:Arial" x="141" y="285">Total: 163.6 km</text><text fill="#FFFFFF" style="font-size:3px; font-family:Arial" x="141" y="290">Avg: 10.9 km</text><text fill="#FFFFFF" style="font-size:3px; font-family:Arial" x="167" y="285">Min: 10.2 km</text><text fill="#FFFFFF" style="font-size:3px; font-family:Arial" x="167" y="290">Max: 14.0 km</text><polyline fill="none" opacity="1" points="26.353992198128253,75.59999999999854 26.3450442662579,75.34097853935964 26.33609633438755,75.02564699300274 26.33609633438755,74.77788566617528 26.3450442662579,74.54138553950179 26.353992198128253,74.21478903742536 26.371888061927166,73.98954933437926 26.371888061927166,73.74178496698732 26.470315312733874,73.53906812558853 26.667169814405497,73.43770952236082 26.89981604355853,73.42644744781865 27.0071912262938,73.38139913463965 26.998243294423446,73.2237298492546 27.06982674956089,73.07732239202596 27.06982674956089,72.85207965438894 27.087722613301594,72.58178757602582 27.01613915816415,72.28897018123098 26.78349292895291,72.16508559312933 26.595586359268054,72.05246308251662 26.631378086807672,71.70333234489226 26.676117746217642,71.39924955832976 26.711909473815467,71.12895282858517 26.765597065212205,70.8248679731987 26.79244086088147,70.56583186208445 26.84612845222,70.26174497836473 26.872972247947473,70.02523220045259 26.881920179759618,69.81124387802993 26.96245156682562,69.72114336946834 27.0071912262938,69.5747298379938 27.0071912262938,69.43957866045093 26.95350363495527,69.36074037365324 27.01613915816415,69.23685148851655 27.06982674956089,69.03412382971874 27.12351434089942,68.80887030450685 27.1861498641083,68.57235345616209 27.23983745550504,68.32457319006062 27.329316774441395,68.0204782331275 27.383004365779925,67.79522200320207 27.463535752845928,67.5249137339124 27.57091093552299,67.36723351046385 27.73197370953858,67.3897592746871 27.893036483612377,67.46859940217837 28.089890985225793,67.42354790979152 28.30464135063812,67.28839328825416 28.438860328984447,67.06313510489417 28.528339647920802,66.87166517642618 28.671506558195688,66.61261693487177 28.79677760472987,66.34230487878813 28.948892446875107,66.08325501276704 29.08311142527964,65.85799361353565 29.217330403684173,65.61020538012235 29.342601450160146,65.39620586589444 29.47682042850647,65.1146267311924 29.602091475040652,64.86683631562482 29.772102180984803,64.55146564388997 29.960008750727866,64.23609379390837 30.14791532041272,63.886930728389416 30.344769822084345,63.54902961247717 30.47898880043067,63.32376145037415 30.64005157450447,63.05343886232731 30.801114348578267,62.79437890306144 30.953229190781713,62.569108726987906 31.060604373458773,62.40015570041578 31.20377128373366,62.17488447223877 31.38272992154816,61.89329459158034 31.516948899952695,61.63423107169365 31.606428218830843,61.3751667566612 31.722751333436463,61.1048379280619 31.89276203943882,60.85703574123909 32.09856447292259,60.65428795639309 32.31331483833492,60.507858697768825 32.483325544337276,60.2825824192405 32.617544522625394,60.05730553945614 32.73386763728922,59.89961136585771 32.82334695622558,59.809500277231564 32.91282627516193,59.60674997611932 33.00230559404008,59.392735240959155 33.05599318537861,59.24630379371956 33.20810802752385,59.13366404603585 33.35127493785694,59.09987209243263 33.458650120534,59.111136078456184 33.56602530321106,59.02102414805995 33.67340048594633,58.897120086643554 33.807619464350864,58.73942374542821 33.96868223842466,58.57046305285621 34.13869294436881,58.33391751504678 34.29080778651405,58.16495601072529 34.29080778651405,57.973465896931884 34.26396399078658,57.7031261731172 34.27291192271514,57.45531399893662 34.362391241651494,57.2412938083944 34.541349879524205,57.03853733785945 34.711360585468356,56.84704466837866 34.83663163194433,56.63302293539891 34.935058882751036,56.3401502107954 35.07822579302592,56.081069645733805 35.266132362768985,55.86704597037897 35.489830660109874,55.66428619828366 35.65984136599582,55.450261465979565 35.767216548731085,55.23623619094724 35.87459173146635,54.96588769931259 35.990914846013766,54.706802915476146 36.151977620087564,54.47024654868437 36.41146764496807,54.38012966309907 36.608322146581486,54.335071184221306 36.76043698878493,54.08724912044272 36.84096837579273,53.81689694814122 36.90360389900161,53.55780863702239 36.95729149039835,53.29871953048132 37.01097908173688,53.039629628518014 37.08256253687432,52.72421476126328 37.163093923882116,52.43132847182278 37.20783358335029,52.28488494591147 37.225729447149206,52.13844116588734 37.29731290228665,51.87934770175343 37.324156697955914,51.5977234689708 37.40468808502192,51.293568241955654 37.48521947202971,50.955616703991836 37.57469879096607,50.61766381268535 37.610490518505685,50.324770212093426 37.673126041772775,50.00934519765724 37.75365742878057,49.72771472419845 37.81629295204766,49.43481803476607 37.896824339055456,49.10812437412824 37.941563998523634,48.815225534119236 37.98630365799181,48.499794877148815 38.07578297686996,48.1956284841508 38.1294705682667,47.913991957495455 38.21000195527449,47.56476135903358 38.25474161474267,47.32818497111293 38.32632506988011,47.02401435493812 38.37106472934829,46.776170819983236 38.42475232074503,46.50579522434418 38.47843991208356,46.38187278682017 38.496335775824264,46.23541876234958 38.54107543529244,45.96504143400671 38.60371095855953,45.68339746240963 38.666346481768414,45.367955098139646 38.728982005035505,45.086309133555915 38.79161752824439,44.75959863689059 38.845305119641125,44.60187587541441 38.845305119641125,44.48921657958272 38.87214891531039,44.28642946797481 38.92583650664892,44.027311893914884 38.99741996178636,43.68933125365584 39.05110755312489,43.362615347854444 39.11374307645019,43.09222881394817 39.167430667730514,42.88943834484235 39.21217032719869,42.742978258494986 39.25690998666687,42.58525172737427 39.274805850407574,42.49512214864808 39.31954550993396,42.416258688273956 39.32849344180431,42.29233024443238 39.292701714264695,42.078271594582475 39.3105975780054,41.86421240166237 39.33744137373287,41.63888634871546 39.3911289650714,41.41355969401047 39.44481655640993,41.26709704575478 39.516400011547375,41.165699678778765 39.74904624075862,41.210765190277016 39.99958833371056,41.31216250304715 40.250130426720716,41.40229334546166 40.49172458780231,41.469891414104495 40.59015183860902,41.40229334546166 40.62594356620684,41.199498814647086 40.634891498077195,40.98543739222805 40.62594356620684,40.748842556611635 40.634891498077195,40.444648221666284 40.65278736187611,40.106653229864605 40.679631157487165,39.77992345072562 40.751214612682816,39.532058636257716 40.65278736187611,39.32925961010187 40.527516315400135,39.25039319053758 40.27697422238998,39.29545972502092 40.00853626563912,39.340526235464495 39.77589003642788,39.39685933964938 39.793785900226794,39.1827933436216 39.82957762782462,38.90112673181284 39.8922131510335,38.61945917968842 39.94590074237203,38.34905744496791 39.99064040184021,38.056121254317986 40.08011972071836,37.751917210589454 40.14275524398545,37.458978946568095 40.17854697158327,37.18857349239261 40.22328663099324,36.92943411883607 40.250130426720716,36.670293949318875 40.294870086188894,36.45622103496862 40.294870086188894,36.30974978062295 40.25907835859107,36.23088053829997 40.37540147319669,36.14074417111988 40.54541217919905,36.050607707642484 40.65278736187611,35.94920407105383 40.55436011101119,35.81399903273268 40.455932860204484,35.72386222011119 40.4738287240034,35.554855436930666 40.464880792133044,35.44218406001892 40.61699563427828,35.453451204484736 40.74226668081246,35.48725262883818 40.90332945488626,35.464718347458984 41.03754843317438,35.498519767257676 41.15387154783821,35.464718347458984 41.29703845811309,35.43091691405425 41.467049164057244,35.40838261760655 41.50284089159686,35.21684085478773 41.538632619194686,34.845023250170925 41.5565284829936,34.52954036110896 41.61021607433213,34.20278898226388 41.637059870001394,33.96617512481316 41.628111938072834,33.76336271868786 41.64600780187175,33.61688678886276 41.66390366567066,33.447875784571806 41.65495573380031,33.31266673731443 41.49389295972651,33.256329570336675 41.29703845811309,33.24506213241693 41.14492361590965,33.21125980965735 40.99280877376441,33.12112021608482 40.79595427215099,33.087317843644996 40.54541217919905,33.04224799267104 40.26802629051963,32.9746431711028 40.017484197509475,32.940840739946 39.784837968298234,32.873235837098036 39.48955621587811,32.805630880036915 39.19427446345799,32.749293374465196 38.9705761661171,32.659153287233494 38.845305119641125,32.55774557400582 38.64845061802771,32.58028063193342 38.3889605931472,32.56901310368994 38.111574704467785,32.55774557400582 37.86998054338619,32.54647804279375 37.59259465470677,32.52394297583669 37.31520876608556,32.50140790286969 37.09151046874467,32.45633773888403 36.81412458012346,32.445070194109576 36.563582487171516,32.4225351000714 36.52779075957369,32.400000000001455 36.47410316817695,32.52394297583669 36.42041557689663,32.6929558312404 36.375675917370245,32.88450332466891 36.330936257960275,33.04224799267104 36.30409246229101,33.23379469300562 36.2861965984921,33.42534095841984 36.268300734693184,33.58308461510023 36.18776934768539,33.752095348536386 36.1251338244183,33.887303691466514 36.02670657361159,34.04504648434522 35.9640710503445,34.22532360074547 35.937227254675236,34.337996602895146 35.87459173146635,34.50700582387071 35.78511241247179,34.65348020821693 35.73142482119147,34.799954338232055 35.650893434125464,34.968962633756746 35.57930997898802,35.11543621601595 35.51667445577914,35.25064237393963 35.382455477374606,35.44218406001892 35.33771581790643,35.678793777718965 35.25718443089863,35.88160157898528 35.13191338442266,36.15201122227154 35.01559026981704,36.43368701241707 34.881371291412506,36.71536186207959 34.756100244878326,36.96323495184333 34.63082919840235,37.24490803347726 34.51450608379673,37.48151269531809 34.39818296919111,37.72938353406789 34.27291192271514,37.99978725490655 34.13869294436881,38.24765657096577 34.031317761633545,38.48425842065626 33.923942578956485,38.70959289866005 33.85235912381904,38.85605998664687 33.807619464350864,38.92366009535908 33.753931873012334,39.00252682038263 33.66445255407598,39.07012681174092 33.637608758406714,39.29545972502092 33.592869098938536,39.554591831307334 33.44970218866365,39.79119001587969 33.33337907405803,39.993987931688025 33.26179561892059,40.18551884905901 33.20810802752385,40.30945038745267 33.360222869727295,40.39958230101183 33.56602530321106,40.41084878342372 33.83446326002013,40.41084878342372 34.11184914869955,40.455914698090055 34.40713090111967,40.500980588672974 34.67556885792874,40.53477999084134 34.94400681462139,40.56857937940367 35.22139270330081,40.613645209843526 35.480882728181314,40.64744456681365 35.73142482119147,40.681243910308694 35.90143552707741,40.65871101616358 35.97301898227306,40.52351352494588 36.008810709870886,40.33198337486101 36.044602437410504,40.174252336568316 36.03565450548194,40.08412018229865 36.13408175628865,40.106653229864605 36.24145693896571,40.208051869572955 36.25040487089427,40.41084878342372 36.17882141575683,40.73757611932524 36.1251338244183,41.05303579484462 36.07144623307977,41.3234288636304 35.999862777942326,41.672685295008705 35.946175186603796,41.976875202468364 35.87459173146635,42.3035964741357 35.81195620819926,42.5739855353022 35.776164480659645,42.84437372999673 35.713528957392555,43.09222881394817 35.650893434125464,43.34008316978725 35.69563309359364,43.62173496313335 35.61510170658585,43.89211980027903 35.427195136784576,44.11743983602355 35.37350754550425,44.32022735375358 35.3019240903086,44.590609952596424 35.24823649897007,44.84972579682653 35.24823649897007,45.097574990213616 35.24823649897007,45.266562659184274 35.41824720491422,45.41301836523053 35.37350754550425,45.70592901472992 35.319819954107516,46.02137011551531 35.23928856709972,46.35934141497273 35.158757180091925,46.70857700227498 35.11401752062375,46.99021755212016 35.06032992922701,47.316919412282004 35.0424340654281,47.60982345294178 35.03348613361595,47.89146099476784 35.02453820168739,48.18436304115312 35.02453820168739,48.477264070861565 35.01559026981704,48.770164083915006 34.99769440601813,49.08559373018943 34.99769440601813,49.367226346672396 34.9619026784203,49.66012327073258 34.95295474654995,49.91922354838607 34.917163018952124,50.2008533827393 34.85452749574324,50.49374741342763 34.80083990440471,50.809170617270865 34.73820438107941,51.06826736702351 34.80083990440471,51.34989336669969 34.765048176806886,51.64278340938472 34.711360585468356,51.91314254655299 34.621881266532,52.25109024998528 34.45187056058785,52.48765283717512 34.29080778651405,52.70168508277857 34.05816155730281,52.87065752479248 33.84341119189048,53.050894423387945 33.66445255407598,53.231130937085254 33.43180632486474,53.422631811081374 33.27074355084915,53.6253969687823 33.199160095711704,53.73804406806448 33.10073284484679,53.861955703665444 32.99335766216973,53.99713182589767 32.89493041136302,54.154837028218026 32.82334695622558,54.41392350645765 32.71597177349031,54.68427376624459 32.572804863215424,54.96588769931259 32.420690021070186,55.23623619094724 32.26857517886674,55.495319349487545 32.17014792806003,55.68681508591544 32.12540826865006,55.91210363132268 32.14330413239077,56.11486280797544 32.31331483833492,56.204977841283835 32.295418974536005,56.4753223638254 32.188043791858945,56.700608804450894 32.21488758752821,56.813251799263526 32.20593965565786,56.79072321230342 32.08961654105224,56.82451609046984 31.94644963077735,57.00474454538926 31.785386856703553,57.28635073573241 31.615376150759403,57.489106610977615 31.42746958101634,57.68059782371711 31.25745887507219,57.89461690028111 31.167979556135833,58.13116366927716 31.09639610099839,58.37897385906399 30.962177122593857,58.57046305285621 30.86374987178715,58.6831035521318 30.666895370173734,58.660575464316935 30.470040868560318,58.67183950897743 30.237394639407285,58.62678332130599 29.97790461446857,58.59299116473994 29.709466657717712,58.59299116473994 29.47682042850647,58.60425521842262 29.351549382088706,58.60425521842262 29.208382471755613,58.64931141813577 29.172590744215995,58.6831035521318 29.101007289020345,58.87459205593041 28.957840378803667,59.066080125303415 28.92204865120584,59.26883172522503 28.877308991737664,59.53916643415141 28.778881740930956,59.708125187542464 28.6894024219946,59.87708360272518 28.680454490124248,59.93340299928968 28.528339647920802,60.09109710974735 28.3493810101063,60.26005475832062 28.17937030416215,60.42901206868555 28.089890985225793,60.62049661154742 28.206214099831413,60.778189438336994 28.24200582742924,60.83450823361636 28.29569341876777,60.98093692556722 28.313589282508474,61.18368392583943 28.35832894203486,61.38643043907359 28.331485146307386,61.52159451064654" stroke="#4DD2FF" stroke-dasharray="none" stroke-linecap="round" stroke-linejoin="round" stroke-width="0.5"><title>2017-12-17 14.0km</title><desc>9223370523376934807</desc></polyline><polyline fill="none" opacity="1" points="100.61824617761886,32.40000000000873 100.6757574499934,32.725679578172276 100.8051578127197,32.99707862953073 100.86266908503603,33.35894318704959 100.92018035741057,33.702713622915326 100.934558175446,34.100762513291556 100.94893599359784,34.516903286625165 101.0208250839496,34.82448477720027 101.09271417435957,35.15015853673685 101.17898108286317,35.457738591954694 101.20773671905044,35.80150371103082 101.25087017338956,36.14526795927668 101.36589271802222,36.32619616120064 101.62469344347483,36.434752966611995 101.66782689775573,36.5794952387223 101.5240487169358,36.760422861756524 101.35151489992859,36.85088658280438 101.42340399039676,37.158462783292634 101.53842653502943,37.429852969478816 101.68220471590757,37.791705706942594 101.7828494424466,38.09927977513871 101.88349416904384,38.42494567576796 102.04165016795741,38.75061079481384 102.21418398502283,39.058182689754176 102.35796216584276,39.3476614834799 102.19980616687099,39.600954921450466 101.91224980523111,39.54667779598094 101.696582533943,39.383846289274516 101.43778180843219,39.184829737991095 101.22211453714408,39.22101458719408 100.96331381157506,39.27529184296145 100.70451308606425,39.31147666806646 100.63262399571249,39.52858541601745 100.64700181374792,39.799970862513874 100.53197926911525,39.980894192063715 100.24442290741717,40.08944807398075 99.92811090959003,40.198001869081054 99.61179891170468,40.234186448156834 99.45364291279111,40.08944807398075 99.51115418510744,39.83615554773132 99.61179891170468,39.49240064879996 99.71244363830192,39.184829737991095 99.78433272865368,38.804888238722924 99.85622181912186,38.38876061423798 99.81308836484095,37.990724301256705 99.76995491067646,37.6469647277554 99.66931018402101,37.33938963442051 99.33862036804203,37.33938963442051 99.06544182449579,37.24892623904452 98.97917491599219,37.086091975317686 98.96479709784035,36.868979319755454 98.96479709784035,36.63377355094417 98.86415237130132,36.470938549085986 98.67724073620047,36.470938549085986 98.475951283006,36.434752966611995 98.33217310218606,36.48903133676504 98.36092873831512,36.796608357384684 98.37530655640876,37.10418468093849 98.3896843745024,37.466038286700496 98.40406219259603,37.73742785784998 98.43281782872509,38.11737234565953 98.41844001068966,38.47922324988758 98.41844001068966,38.804888238722924 98.41844001068966,39.148644879154745 98.43281782872509,39.47430826156051 98.43281782872509,39.781878516310826 98.43281782872509,40.14372498240846 98.44719564681873,40.39701693461393 98.44719564681873,40.61412394598301 98.44719564681873,40.849322816342465 98.41844001068966,41.1387977895065 98.40406219259603,41.41018001610064 98.37530655640876,41.554916981753195 98.34655092022149,41.826298376268824 98.31779528409243,42.07958718818554 98.31779528409243,42.29669150787231 98.31779528409243,42.58616339387663 98.31779528409243,42.893726596274064 98.33217310218606,43.25556476555357 98.30341746599879,43.617401970142964 98.31779528409243,43.96114642093016 98.31779528409243,44.26870650732599 98.33217310218606,44.576265896772384 98.34655092022149,44.93809958026395 98.34655092022149,45.245657452818705 98.34655092022149,45.55321462835127 98.33217310218606,45.788404939405154 98.33217310218606,46.05977786880976 98.27466182981152,46.33115025557345 98.33217310218606,46.602522099768976 98.36092873831512,46.89198480216146 98.40406219259603,47.199538247077726 98.44719564681873,47.52518231145223 98.49032910109963,47.90509939903859 98.59097382763866,48.30310663599812 98.67724073620047,48.70111270567577 98.80664109892678,49.008662051157444 98.90728582558222,49.298119621977094 99.02230837021489,49.641849685649504 99.13733091490576,49.91321491044073 99.25235345959663,50.11221573052171 99.29548691381933,50.29312531375035 99.45364291279111,50.564489236465306 99.52553200320108,50.83585261667031 99.55428763938835,50.98057953090756 99.62617672974011,51.17957878604648 99.81308836484095,51.30621452376363 99.88497745530913,51.46903172724706 100.02875563618727,51.66803026625712 100.15815599891357,51.848937775794184 100.25880072551081,52.10220788413426 100.40257890633075,52.265024132764665 100.61824617761886,52.50020281379693 100.8051578127197,52.75347170686291 101.00644726591418,53.02483071075403 101.17898108286317,53.29618917212065 101.27962580951862,53.459003988595214 101.36589271802222,53.65799961009179 101.53842653502943,53.92935680566006 101.71096035203664,54.1645326030266 101.92662762332475,54.4901599574514 102.09916144033195,54.797696185996756 102.25731743924553,55.032870478898985 102.4154734381591,55.322315203084145 102.57362943707267,55.593669071487966 102.77491889032535,55.91929299751064 102.94745270733256,56.22682598819665 103.16311997862067,56.534358282078756 103.35003161372151,56.82379980459518 103.53694324882235,57.13133074599318 103.75261052005226,57.47504097368801 103.95389997324673,57.80066038655059 104.15518942649942,58.10818911489332 104.34210106154205,58.415717146432144 104.48587924236199,58.70515465737844 104.6584130593692,58.958411973231705 104.80219124024734,59.17548929639452 104.97472505725455,59.464925187363406 105.16163669235539,59.7724501452758 105.2910370551399,59.97143651153601 105.49232650827616,60.24278108627186 105.69361596147064,60.532214701597695 105.86614977853606,60.821647699718596 106.00992795935599,61.09299057502358 106.19683959445683,61.41860130948771 106.38375122955767,61.762300681875786 106.59941850084579,62.124088554803166 106.74319668166572,62.34116081573302 106.97324177104747,62.72103643715673 107.17453122418374,63.010464768492966 107.34706504124915,63.281803268779186 107.50522104016272,63.57123040454462 107.7065104933572,63.87874606027617 107.90779994649347,64.20435011283553 108.09471158159431,64.54804243221588 108.25286758056609,64.8555558752123 108.39664576138603,65.18115758495696 108.56917957839323,65.52484743141395 108.69857994111953,65.85044753592229 108.79922466771677,66.23031333746621 108.84235812199768,66.4292902379384 108.78484684973955,66.61017807613825 108.6842021230841,66.75488817322184 108.71295775927138,66.70062190487806 108.85673594009131,66.6644443806581 108.98613630287582,66.84533190552611 109.08678102947306,67.11666274099844 109.18742575601209,67.406081701105 109.30244830070296,67.74976591485029 109.4462264815229,68.11153783147165 109.56124902621377,68.47330878402863 109.67627157096285,68.79890181710653 109.74816066131461,69.0521403029561 109.89193884219276,69.35964354357566 110.00696138688363,69.667146087726 110.1219839315745,69.9565596106695 110.23700647620717,70.24597251667001 110.28013993048808,70.46303179128154 110.35202902089804,70.7705318362714 110.46705156564713,71.07803118483571 110.58207411027979,71.4036179711984 110.68271883681882,71.71111588583153 110.78336356347427,72.01861310401 110.89838610810693,72.34419763468031 110.99903083476238,72.61551748058992 111.12843119748868,72.94110057984653 111.24345374212135,73.23050712379336 111.35847628687043,73.53800090072036 111.48787664965494,73.8816695920541 111.6028991942876,74.15298636539956 111.73229955707211,74.46047805315175 111.78981082933024,74.65944289177423 111.91921119211474,74.91267044650158 112.01985591871198,75.05737169430358 112.06298937299289,75.22016041369352 112.01985591871198,75.45529933051148 111.87607773783384,75.60000000000582 111.70354392088484,75.4010365397553 111.53101010381943,75.16589752896107 111.32972065068316,74.85840743883455 111.08529774326598,74.56900436492288 110.78336356347427,74.22533741343068 110.48142938362435,73.95402078464394 110.22262865817174,73.70079144189367 109.96382793266093,73.42947376483062 109.71940502518555,73.15815554565052 109.48935993586201,72.92301265038259 109.18742575601209,72.63360545100295 108.91424721240764,72.3803736455011 108.6410686688032,72.09096528938971 108.36789012525696,71.83773247177305 108.10908939968795,71.56641107158794 107.77839958370896,71.2950891291548 107.51959885825636,71.09611936006695 107.21766467846464,70.95141389033233 106.84384140826296,70.80670826639107 106.47001813806128,70.73435539654747 106.12495050410507,70.69817894716107 105.76550505193882,70.60773778156727 105.4635708720889,70.53538480569841 105.10412542003905,70.46303179128154 104.75905778602464,70.39067873831664 104.42836797004566,70.37259046908002 104.05454469984397,70.2640608028305 103.70947706582956,70.17361934798828 103.55132106685778,70.13744274924102 103.35003161372151,70.08317783294478 103.1343643424334,70.0470012100559 102.90431925305165,70.01082457759185 102.70302979985718,69.99273625765636 102.50174034672091,69.97464793534891 102.31482871162007,69.92038295403472 102.07040580414468,69.8480296118505 101.8259828966693,69.79376457992475 101.6534490797203,69.72141117026331 101.3946483542095,69.667146087726 101.12146981060505,69.54052747743845 100.74764654040337,69.39582034961495 100.35944545204984,69.2511130675557 100.10064472653903,69.1787593687477 99.71244363830192,69.07022874813993 99.38175382232293,68.96169804081728 99.02230837021489,68.85316724669246 98.63410728191957,68.74463636579458 98.24590619368246,68.67228239699034 97.91521637770347,68.5275743437669 97.55577092565363,68.45522025928949 97.1675698373001,68.31051197470515 96.83688002132112,68.18389209907036 96.63559056818485,68.09344925852201 96.29052293417044,67.98491777032905 95.97421093622688,67.87638619533391 95.62914330221247,67.71358867015806 95.26969785016263,67.51461365207797 94.93900803424185,67.2975496633444 94.60831821820466,67.06239661727159 94.33513967460021,66.73679941953742 94.13385022140574,66.4292902379384 94.00444985862123,66.13986919543822 93.9469385863631,65.94089187083591 93.7744047693559,65.70573647480342 93.63062658847775,65.43440281931544 93.51560404384509,65.27160236574127 93.37182586296694,64.9640898652433 93.19929204595974,64.62039859917422 92.99800259276526,64.25861737906234 92.82546877575805,63.84256778394047 92.60980150441173,63.42651691379433 92.40851205127547,62.97428626084002 92.22160041623283,62.64867925787985 92.04906659916742,62.30498212965904 91.87653278216021,61.90701594672282 91.68962114705937,61.49095914440113 91.4883316938649,61.05681155632192 91.28704224072862,60.64075214818877 91.05699715128867,60.20660184096778 90.88446333433967,59.8267191832274 90.65441824495792,59.410656004809425 90.46750660991529,58.99459155120712 90.29497279284988,58.57852582228952 90.0936833397136,58.16245881812938 89.93552734080004,57.81875033103279 89.77737134182826,57.47504097368801 89.63359316095011,57.239870911915204 89.51857061631745,56.89616008879966 89.38917025353294,56.498178048364935 89.25976989074843,56.0821046675992 89.17350298224483,55.6660300114163 89.11599170987029,55.34040547788027 89.05848043755395,54.96050920138077 89.00096916517941,54.50825034311856 88.95783571095672,54.05598997793277 88.92908007476944,53.69418060082535 88.88594662054675,53.332370259362506 88.79967971198494,52.93437776972132 88.82843534823041,52.57256540285016 88.79967971198494,52.15647998866916 88.78530189400772,51.794665548266494 88.81405753013678,51.41475934779737 88.82843534823041,51.0348520839907 88.81405753013678,50.6006710518559 88.7421684396686,50.22076150942303 88.67027934931684,49.8408509035653 88.62714589503594,49.388574986340245 88.6127680769423,49.02675316743262 88.59839025884867,48.61065688326198 88.55525680462597,48.32119784622046 88.4833677141578,47.977464438037714 88.45461207802873,47.52518231145223 88.5696346227196,47.07289867771033 88.59839025884867,46.71107068551646 88.59839025884867,46.38542466785293 88.6127680769423,46.150235391338356 88.65590153122321,45.98741180734942 88.59839025884867,45.697947175693116 88.55525680462597,45.390390328131616 88.5265011684387,45.046649497235194 88.49774553230964,44.684816103137564 88.46898989612237,44.30489000110538 88.4402342599351,43.99732999668049 88.35396735143149,43.563126450928394 88.32521171524422,43.14701341604814 88.31083389715059,42.71280714984459 88.26770044286968,42.332875527397846 88.22456698864698,42.007219004430226 88.18143353442429,41.66346960463852 88.16705571633065,41.446364271992934 88.18143353442429,41.06642910411756 88.18143353442429,40.68649287255539 88.16705571633065,40.32464785363118 88.13830008008517,40.01707882901246 88.08078880782705,39.637139659767854 88.03765535354614,39.27529184296145 88.05203317163978,38.89535059691116 88.08078880782705,38.569685825146735 88.05203317163978,38.15355747951253 87.9801440811716,37.82789092762687 87.96576626313617,37.39366764272563 87.93701062700711,37.049906556800124" stroke="#4DD2FF" stroke-dasharray="none" stroke-linecap="round" stroke-linejoin="round" stroke-width="0.5"><title>2017-11-19 11.8km</title><desc>9223370525802103807</desc></polyline><polyline fill="none" opacity="0.5" points="165.0179428011179,72.92188469867688 163.8394741625525,72.5725648063235 162.66100552445278,72.10680476890411 161.18791972659528,72.22324479778763 159.91124536842108,72.80544474744238 157.75071953097358,72.10680476890411 156.57225089287385,71.40816432458814 155.983016573824,70.12732229894027 155.19737081509084,68.84647870704066 155.09916509501636,66.98343068640679 155.29557653469965,65.35326094890479 155.29557653469965,63.490206713438965 155.09916509501636,61.86003153875936 155.09916509501636,59.64764688548166 154.8045479352586,58.48323203262407 154.60813649604097,56.7366073258454 155.00095937540755,55.10642163804732 155.00095937540755,53.70911760011222 155.39378225477412,52.54469614417758 155.09916509501636,51.03094631573185 155.59019369399175,49.4007517460268 155.4919879748486,47.6541118909372 155.7866051341407,46.6061265792232 155.88481085421517,44.51015281013679 155.7866051341407,42.64706149313133 155.88481085421517,41.01685387187172 155.983016573824,39.735974674928 156.27763373358175,38.22220633132383 156.57225089287385,36.591991821769625 156.27763373358175,34.96177477389574 156.27763373358175,33.79733247170225 156.0812222934328,32.40000000002328 156.27763373358175,33.79733247170225 156.27763373358175,34.96177477389574 156.57225089287385,36.591991821769625 156.27763373358175,38.22220633132383 155.983016573824,39.735974674928 155.88481085421517,41.01685387187172 155.7866051341407,42.64706149313133 155.88481085421517,44.51015281013679 155.7866051341407,46.6061265792232 155.4919879748486,47.6541118909372 155.59019369399175,49.4007517460268 155.09916509501636,51.03094631573185 155.39378225477412,52.54469614417758 155.00095937540755,53.70911760011222 155.00095937540755,55.10642163804732 154.60813649604097,56.7366073258454 154.8045479352586,58.48323203262407 155.09916509501636,59.64764688548166 155.09916509501636,61.86003153875936 155.29557653469965,63.490206713438965 155.29557653469965,65.35326094890479 155.09916509501636,66.98343068640679 155.19737081509084,68.84647870704066 155.983016573824,70.12732229894027 156.57225089287385,71.40816432458814 157.75071953097358,72.10680476890411 159.91124536842108,72.80544474744238 161.18791972659528,72.22324479778763 162.66100552445278,72.10680476890411 163.8394741625525,72.5725648063235 165.0179428011179,72.92188469867688 166.1964114396833,72.68900478316937 167.66949723707512,72.92188469867688 169.3389944746159,73.50408425950445 170.81208027293906,73.15476456168108 172.48157751047984,74.55204265448265 174.83851478714496,75.59999999997672 176.70442346436903,75.13424130936619 177.39186350349337,75.01780160400085" stroke="#4DD2FF" stroke-dasharray="1,0.5" stroke-linecap="round" stroke-linejoin="round" stroke-width="0.5"><title>2014-03-22 10.5km</title><desc>9223370641410674807</desc></polyline><polyline fill="none" opacity="1" points="55.600000000034925,102.42430629800947 55.53755721519701,102.42430629800947 55.48552156111691,102.43697209724633 55.39185738383094,102.43697209724633 55.3190074681188,102.43697209724633 55.235750421648845,102.42430629800947 55.173307636752725,102.43697209724633 55.11086485191481,102.43697209724633 55.05882919783471,102.43697209724633 54.9963864129968,102.43697209724633 54.90272223565262,102.43697209724633 54.8402794507565,102.4496378949625 54.76742953516077,102.42430629800947 54.725801011838485,102.43697209724633 54.64254396536853,102.41164049717918 54.59050831134664,102.39897469486459 54.5176583956345,102.39897469486459 54.45521561073838,102.37364308555698 54.39277282584226,102.38630889098567 54.31992291024653,102.39897469486459 54.25748012535041,102.42430629800947 54.18463020963827,102.42430629800947 54.12218742480036,102.42430629800947 54.08055890153628,102.42430629800947 53.9868947241921,102.41164049717918 53.914044808538165,102.38630889098567 53.851602023642045,102.38630889098567 53.78915923880413,102.37364308555698 53.71630932309199,102.36097727864399 53.67468079988612,102.37364308555698 53.62264514580602,102.36097727864399 53.549795230152085,102.36097727864399 53.466538183623925,102.36097727864399 53.39368826796999,102.37364308555698 53.32083835225785,102.38630889098567 53.23758130572969,102.37364308555698 53.1855456517078,102.38630889098567 53.112695736053865,102.39897469486459 53.050252951157745,102.37364308555698 52.96699590468779,102.36097727864399 52.90455311979167,102.33564566020505 52.85251746571157,102.36097727864399 52.77966755005764,102.36097727864399 52.7068176343455,102.36097727864399 52.64437484944938,102.36097727864399 52.581932064611465,102.34831147019577 52.47786075650947,102.34831147019577 52.42582510248758,102.32297984865727 52.36338231759146,102.31031403560337 52.29053240187932,102.29764822099241 52.19686822453514,102.29764822099241 52.113611178065185,102.32297984865727 52.04076126241125,102.33564566020505 51.9575042159413,102.32297984865727 51.87424716941314,102.33564566020505 51.811804384575225,102.34831147019577 51.749361599679105,102.34831147019577 51.64529029157711,102.33564566020505 51.59325463749701,102.33564566020505 51.52040472178487,102.33564566020505 51.46836906776298,102.33564566020505 51.40592628286686,102.32297984865727 51.322669236396905,102.34831147019577 51.270633582316805,102.34831147019577 51.20819079747889,102.33564566020505 51.14574801258277,102.33564566020505 51.07289809687063,102.32297984865727 51.01045531197451,102.32297984865727 50.937605396378785,102.34831147019577 50.864755480666645,102.33564566020505 50.802312695770524,102.33564566020505 50.75027704174863,102.33564566020505 50.66701999522047,102.33564566020505 50.60457721038256,102.33564566020505 50.55254155630246,102.36097727864399 50.469284509832505,102.37364308555698 50.40684172499459,102.37364308555698 50.34439894009847,102.36097727864399 50.29236328601837,102.37364308555698 50.21951337030623,102.37364308555698 50.15707058546832,102.37364308555698 50.073813538998365,102.36097727864399 49.980149361654185,102.36097727864399 49.92811370763229,102.36097727864399 49.86567092273617,102.36097727864399 49.80322813784005,102.36097727864399 49.69915682973806,102.36097727864399 49.65752830647398,102.36097727864399 49.605492652452085,102.36097727864399 49.543049867555965,102.36097727864399 49.470199951843824,102.36097727864399 49.41816429782193,102.36097727864399 49.33490725135198,102.34831147019577 49.29327872802969,102.36097727864399 49.199614550801925,102.36097727864399 49.137171765905805,102.33564566020505 49.053914719377644,102.32297984865727 49.00187906535575,102.29764822099241 48.92902914964361,102.32297984865727 48.8665863648057,102.32297984865727 48.772922187519725,102.31031403560337 48.720886533439625,102.31031403560337 48.62722235615365,102.31031403560337 48.56477957125753,102.29764822099241 48.49192965554539,102.29764822099241 48.42948687070748,102.31031403560337 48.37745121662738,102.29764822099241 48.294194170157425,102.31031403560337 48.231751385261305,102.33564566020505 48.15890146960737,102.34831147019577 48.0652372923214,102.36097727864399 48.02360876899911,102.33564566020505 47.94035172252916,102.33564566020505 47.877908937691245,102.32297984865727 47.794651891163085,102.32297984865727 47.73220910632517,102.31031403560337 47.65935919061303,102.31031403560337 47.59691640577512,102.31031403560337 47.534473620879,102.28498240483168 47.46162370516686,102.28498240483168 47.367959527880885,102.31031403560337 47.29510961222695,102.29764822099241 47.24307395814685,102.28498240483168 47.18063117325073,102.27231658718665 47.08696699596476,102.27231658718665 47.02452421106864,102.28498240483168 46.941267164598685,102.27231658718665 46.868417248886544,102.28498240483168 46.795567333174404,102.31031403560337 46.73312454833649,102.31031403560337 46.66027463268256,102.29764822099241 46.577017586212605,102.27231658718665 46.493760539684445,102.2596507680064 46.420910623972304,102.23431912500382 46.33765357750235,102.23431912500382 46.26480366184842,102.23431912500382 46.2023608769523,102.2216533011815 46.11910383042414,102.20898747586034 46.056661045586225,102.18365582058323 45.98381112993229,102.19632164897484 45.91096121422015,102.19632164897484 45.83811129856622,102.20898747586034 45.78607564448612,102.20898747586034 45.73403999040602,102.20898747586034 45.650782943936065,102.23431912500382 45.588340159039944,102.23431912500382 45.525897374143824,102.24698494728364 45.46345458930591,102.27231658718665 45.39060467365198,102.29764822099241 45.33856901957188,102.29764822099241 45.25531197304372,102.29764822099241 45.182462057389785,102.29764822099241 45.109612141677644,102.28498240483168 45.04716935683973,102.29764822099241 44.9743194411858,102.27231658718665 44.91187665628968,102.27231658718665 44.859841002267785,102.2596507680064 44.786991086555645,102.27231658718665 44.724548301659524,102.28498240483168 44.67251264763763,102.29764822099241 44.58925560110947,102.27231658718665 44.50599855458131,102.28498240483168 44.46437003137544,102.29764822099241 44.381112984905485,102.27231658718665 44.308263069193345,102.2596507680064 44.245820284297224,102.29764822099241 44.15215610701125,102.28498240483168 44.11052758374717,102.27231658718665 44.03767766809324,102.2596507680064 43.97523488319712,102.24698494728364 43.89197783666896,102.2596507680064 43.81912792107323,102.24698494728364 43.75668513617711,102.2596507680064 43.69424235128099,102.23431912500382 43.6422066972591,102.2216533011815 43.56935678154696,102.2216533011815 43.49650686583482,102.19632164897484 43.40284268860705,102.18365582058323 43.34039990371093,102.20898747586034 43.26754998799879,102.23431912500382 43.18429294147063,102.2216533011815 43.10103589500068,102.20898747586034 43.028185979346745,102.19632164897484 42.965743194450624,102.19632164897484 42.90330040961271,102.20898747586034 42.84085762471659,102.20898747586034 42.75760057824664,102.20898747586034 42.6847506625345,102.20898747586034 42.601493616064545,102.19632164897484 42.539050831168424,102.19632164897484 42.466200915456284,102.19632164897484 42.40375813061837,102.19632164897484 42.33090821496444,102.20898747586034 42.23724403762026,102.20898747586034 42.17480125272414,102.2216533011815 42.122765598702244,102.2216533011815 42.02910142141627,102.24698494728364 41.96665863652015,102.24698494728364 41.90421585162403,102.20898747586034 41.85218019760214,102.17098999066366 41.768923151132185,102.17098999066366 41.69607323536184,102.17098999066366 41.62322331976611,102.18365582058323 41.57118766568601,102.17098999066366 41.48793061921606,102.15832415917248 41.42548783431994,102.15832415917248 41.34223078779178,102.17098999066366 41.279788002953865,102.17098999066366 41.217345218057744,102.19632164897484 41.15490243321983,102.19632164897484 41.09245964838192,102.17098999066366 41.00920260185376,102.15832415917248 40.946759817015845,102.14565832619701 40.873909901303705,102.17098999066366 40.790652854775544,102.14565832619701 40.72821006993763,102.14565832619701 40.66576728504151,102.14565832619701 40.58251023857156,102.14565832619701 40.50966032285942,102.12032665558945 40.45762466877932,102.13299249167176 40.405589014757425,102.09499497885554 40.343146229861304,102.08232913819666 40.270296314149164,102.09499497885554 40.20785352931125,102.08232913819666 40.1245964828413,102.09499497885554 40.0725608287612,102.09499497885554 40.020525174739305,102.12032665558945 39.916453866579104,102.12032665558945 39.864418212499004,102.10766081797192 39.78116116602905,102.10766081797192 39.71871838119114,102.12032665558945 39.65627559629502,102.15832415917248 39.58342568058288,102.15832415917248 39.520982895744964,102.15832415917248 39.42731871845899,102.15832415917248 39.35446880274685,102.15832415917248 39.28161888709292,102.17098999066366 39.2191761021968,102.17098999066366 39.17754757893272,102.13299249167176 39.083883401646744,102.13299249167176 39.031847747566644,102.13299249167176 38.95899783191271,102.13299249167176 38.8965550470748,102.13299249167176 38.8445193929947,102.14565832619701 38.782076608156785,102.10766081797192 38.69881956157042,102.13299249167176 38.615562515100464,102.13299249167176 38.542712599388324,102.14565832619701 38.48026981455041,102.12032665558945 38.40741989883827,102.10766081797192 38.3137557215523,102.10766081797192 38.240905805898365,102.09499497885554 38.178463021002244,102.12032665558945 38.136834497738164,102.10766081797192 38.07439171290025,102.10766081797192 37.99113466637209,102.10766081797192 37.81421344255796,102.12032665558945 37.67892074206611,102.12032665558945 37.512406649068,102.10766081797192 37.377113948517945,102.09499497885554 37.283449771173764,102.069663295988 37.20019272470381,102.03166576015792 37.04408576252172,102.069663295988 36.79431462305365,102.14565832619701 36.57576487597544,102.13299249167176 36.450879306241404,102.12032665558945 36.28436521324329,102.05699745226593 36.20110816677334,102.04433160697226 36.09703685861314,102.03166576015792 35.972151288879104,102.04433160697226 35.73278728022706,102.05699745226593 35.701565887779,101.99366821059812 35.555866056412924,102.00633406197448 35.503830402332824,102.00633406197448 35.38935196341481,101.99366821059812 35.20202360878466,102.00633406197448 35.07713803910883,102.04433160697226 34.92103107692674,102.14565832619701 34.77533124550246,102.08232913819666 34.65044567582663,102.069663295988 34.50474584446056,102.19632164897484 34.327824620646425,102.2216533011815 34.286196097382344,102.17098999066366 30.341893519682344,101.99366821059812 30.17537942674244,101.94300478961668 30.081715249398258,101.90500720783893 29.936015418032184,101.94300478961668 29.84235124074621,101.95567064716306 29.675837147748098,101.90500720783893 29.488508793117944,101.99366821059812 29.33240183093585,101.99366821059812 29.197109130385797,101.90500720783893 29.061816429777537,101.91767306996917 28.86408094438957,101.85434374392935 28.780823897919618,101.86700961221504 28.614309804921504,101.81634612993366 28.406167188717518,101.86700961221504 25.221585160237737,101.85434374392935 25.034256805607583,101.82901200282504 24.91977836668957,101.82901200282504 24.784485666139517,101.85434374392935 24.57634304993553,101.80368025550706 24.451457480201498,101.82901200282504 24.326571910467464,101.8416778741448 24.21209347154945,101.79101437958161 24.08720790175721,101.76568262311048 23.941508070391137,101.68968731687346 23.754179715760984,101.7276849769114 23.618887015269138,101.7783485020991 23.441965791455004,101.7783485020991 23.27545169845689,101.79101437958161 23.140158997906838,101.76568262311048 23.036087689746637,101.80368025550706 20.527969164133538,101.74035086049116 20.340640809445176,101.76568262311048 20.14290532405721,101.76568262311048 19.986798361875117,101.76568262311048 19.934762707853224,101.76568262311048 19.809877138060983,101.76568262311048 19.73702722240705,101.75301674258662 19.63295591424685,101.79101437958161 19.66417730669491,101.74035086049116 19.580920260224957,101.7276849769114 19.476848952122964,101.68968731687346 19.424813298042864,101.74035086049116 19.25829920504475,101.74035086049116 19.070970850414596,101.75301674258662 19.029342327150516,101.7276849769114 18.935678149864543,101.67702142714552 18.83160684176255,101.6516896430985 18.654685617948417,101.6516896430985 18.592242833110504,101.63902374875761 18.42572874011239,101.67702142714552 18.332064562826417,101.63902374875761 18.207178993034177,101.67702142714552 18.061479161668103,101.71501909178915 18.051072030852083,101.63902374875761 17.95740785356611,101.58836015604174 16.937509034003597,101.66435553588963 16.750180679373443,101.70235320509528 16.614887978881598,101.67702142714552 16.490002409089357,101.6516896430985 16.365116839355323,101.58836015604174 16.28185979288537,101.6516896430985 16.12575283064507,101.63902374875761 15.969645868521184,101.63902374875761 15.75109612144297,101.62635785285238 15.67824620573083,101.66435553588963 15.501324981916696,101.66435553588963 15.40766080468893,101.66435553588963 15.261960973322857,101.71501909178915 15.105854011082556,101.67702142714552 14.98096844140673,101.6516896430985 14.845675740856677,101.601026056509 14.689568778616376,101.62635785285238 14.585497470514383,101.63902374875761 14.43979763914831,101.61369195547013 14.34613346180413,101.601026056509 14.106769453152083,101.58836015604174 14.00269814505009,101.61369195547013 13.909033967764117,101.58836015604174 13.804962659662124,101.56302835050883 13.68007708992809,101.601026056509 13.430305950401817,101.62635785285238 13.18053481093375,101.62635785285238 13.066056372015737,101.57569425406837 12.972392194671556,101.51236472100572 12.941170802281704,101.6516896430985 12.951577933039516,101.80368025550706 13.003613587119617,101.93033893054962 12.982799325487576,102.03166576015792 12.993206456303596,102.10766081797192 13.024427848751657,102.2216533011815 13.034834979567677,102.39897469486459 12.930763671465684,102.43697209724633 12.868320886569563,102.48763527899428 12.80587810173165,102.46230369117984 12.80587810173165,102.27231658718665 12.826692363305483,102.13299249167176 12.71221392438747,102.10766081797192 12.608142616285477,102.14565832619701 12.535292700631544,102.17098999066366 12.431221392471343,102.33564566020505 12.400000000023283,102.42430629800947" stroke="#4DD2FF" stroke-dasharray="none" stroke-linecap="round" stroke-linejoin="round" stroke-width="0.5"><title>2013-12-10 10.9km</title><desc>9223370650177580807</desc></polyline><polyline fill="none" opacity="0.5" points="89.27664157282561,108.17152088950388 88.58481199666858,114.34292484284379 90.66030072513968,119.39224314200692 96.88676690869033,122.75844923895784 103.11323309037834,123.03896619309671 108.4172598393634,117.98965582833625 110.26213870756328,110.97670653951354 110.49274856690317,104.52477447572164 110.49274856690317,97.79230450256728 111.64579785987735,91.62085653445683 109.80091899074614,85.72991361888126 105.88055139407516,82.92469745082781 99.88469506986439,82.08313193893991 94.81127818115056,84.32730595883913 91.12152044288814,88.5351263966877 89.96847114898264,95.5481435037218 89.73786129057407,102.56113941781223 89.27664157282561,109.01307694031857 109.80091899074614,93.02345978678204 110.49274856690317,89.37668956816196 106.80299082957208,83.7662626572419 101.96018379833549,80.4000000001397 94.11944860499352,86.01043504965492 89.96847114898264,91.05981499678455 91.35213030129671,99.75594359473325 88.58481199666858,105.92736992868595 88.35420214012265,111.25722491787747 88.58481199666858,117.98965582833625 93.42761902883649,121.35586395906284 99.88469506986439,123.60000000009313 105.88055139407516,120.79482960957102 110.03152885008603,114.0624068370089 110.49274856690317,107.89100213861093 109.80091899074614,101.15854193037376 110.72335842624307,94.98710291530006 111.18457814306021,88.5351263966877 107.95604012254626,83.7662626572419 102.6520133735612,82.08313193893991 96.65615704935044,83.7662626572419 92.73578945267946,86.57147780805826 90.89091058447957,91.62085653445683 90.42969086673111,98.63386431708932 89.73786129057407,104.52477447572164 87.89298242237419,112.94033447606489 112.10701757762581,90.49877332313918 108.87847955711186,86.8519991368521 104.95811196044087,83.20521922083572 97.34798662550747,82.64417564729229 91.12152044288814,89.09616854530759 89.73786129057407,95.5481435037218 89.5072514321655,103.40269750310108 89.27664157282561,108.17152088950388 88.58481199666858,114.34292484284379 90.66030072513968,119.39224314200692 96.88676690869033,122.75844923895784 103.11323309037834,123.03896619309671 108.4172598393634,117.98965582833625 110.26213870756328,110.97670653951354 110.49274856690317,104.52477447572164 110.49274856690317,97.79230450256728 111.64579785987735,91.62085653445683 109.80091899074614,85.72991361888126 105.88055139407516,82.92469745082781 99.88469506986439,82.08313193893991 94.81127818115056,84.32730595883913 91.12152044288814,88.5351263966877 89.96847114898264,95.5481435037218 89.73786129057407,102.56113941781223 89.27664157282561,109.01307694031857 109.80091899074614,93.02345978678204 110.49274856690317,89.37668956816196 106.80299082957208,83.7662626572419 101.96018379833549,80.4000000001397 94.11944860499352,86.01043504965492 89.96847114898264,91.05981499678455 91.35213030129671,99.75594359473325 88.58481199666858,105.92736992868595 88.35420214012265,111.25722491787747 88.58481199666858,117.98965582833625 93.42761902883649,121.35586395906284 99.88469506986439,123.60000000009313 105.88055139407516,120.79482960957102 110.03152885008603,114.0624068370089 110.49274856690317,107.89100213861093 109.80091899074614,101.15854193037376 110.72335842624307,94.98710291530006 111.18457814306021,88.5351263966877 107.95604012254626,83.7662626572419 102.6520133735612,82.08313193893991 96.65615704935044,83.7662626572419 92.73578945267946,86.57147780805826 90.89091058447957,91.62085653445683 90.42969086673111,98.63386431708932 89.73786129057407,104.52477447572164 87.89298242237419,112.94033447606489 112.10701757762581,90.49877332313918 108.87847955711186,86.8519991368521 104.95811196044087,83.20521922083572 97.34798662550747,82.64417564729229 91.12152044288814,89.09616854530759 89.73786129057407,95.5481435037218 89.5072514321655,103.40269750310108 89.27664157282561,108.17152088950388 88.58481199666858,114.34292484284379 90.66030072513968,119.39224314200692 96.88676690869033,122.75844923895784 103.11323309037834,123.03896619309671 108.4172598393634,117.98965582833625 110.26213870756328,110.97670653951354 110.49274856690317,104.52477447572164 110.49274856690317,97.79230450256728 111.64579785987735,91.62085653445683 109.80091899074614,85.72991361888126 105.88055139407516,82.92469745082781 99.88469506986439,82.08313193893991 94.81127818115056,84.32730595883913 91.12152044288814,88.5351263966877 89.96847114898264,95.5481435037218 89.73786129057407,102.56113941781223 89.27664157282561,109.01307694031857 109.80091899074614,93.02345978678204 110.49274856690317,89.37668956816196 106.80299082957208,83.7662626572419 101.96018379833549,80.4000000001397 94.11944860499352,86.01043504965492 89.96847114898264,91.05981499678455 91.35213030129671,99.75594359473325 88.58481199666858,105.92736992868595 88.35420214012265,111.25722491787747 88.58481199666858,117.98965582833625 93.42761902883649,121.35586395906284 99.88469506986439,123.60000000009313 105.88055139407516,120.79482960957102 110.03152885008603,114.0624068370089 110.49274856690317,107.89100213861093 109.80091899074614,101.15854193037376 110.72335842624307,94.98710291530006 111.18457814306021,88.5351263966877 107.95604012254626,83.7662626572419 102.6520133735612,82.08313193893991 96.65615704935044,83.7662626572419 92.73578945267946,86.57147780805826 90.89091058447957,91.62085653445683 90.42969086673111,98.63386431708932 89.73786129057407,104.52477447572164 87.89298242237419,112.94033447606489 112.10701757762581,90.49877332313918 108.87847955711186,86.8519991368521 104.95811196044087,83.20521922083572 97.34798662550747,82.64417564729229 91.12152044288814,89.09616854530759 89.73786129057407,95.5481435037218 89.5072514321655,103.40269750310108 89.27664157282561,108.17152088950388 88.58481199666858,114.34292484284379 90.66030072513968,119.39224314200692 96.88676690869033,122.75844923895784 103.11323309037834,123.03896619309671 108.4172598393634,117.98965582833625 110.26213870756328,110.97670653951354 110.49274856690317,104.52477447572164 110.49274856690317,97.79230450256728 111.64579785987735,91.62085653445683 109.80091899074614,85.72991361888126 105.88055139407516,82.92469745082781 99.88469506986439,82.08313193893991 94.81127818115056,84.32730595883913 91.12152044288814,88.5351263966877 89.96847114898264,95.5481435037218 89.73786129057407,102.56113941781223 89.27664157282561,109.01307694031857 109.80091899074614,93.02345978678204 110.49274856690317,89.37668956816196 106.80299082957208,83.7662626572419 101.96018379833549,80.4000000001397 94.11944860499352,86.01043504965492 89.96847114898264,91.05981499678455 91.35213030129671,99.75594359473325 88.58481199666858,105.92736992868595 88.35420214012265,111.25722491787747 88.58481199666858,117.98965582833625 93.42761902883649,121.35586395906284 99.88469506986439,123.60000000009313 105.88055139407516,120.79482960957102 110.03152885008603,114.0624068370089 110.49274856690317,107.89100213861093 109.80091899074614,101.15854193037376 110.72335842624307,94.98710291530006 111.18457814306021,88.5351263966877 107.95604012254626,83.7662626572419 102.6520133735612,82.08313193893991 96.65615704935044,83.7662626572419 92.73578945267946,86.57147780805826 90.89091058447957,91.62085653445683 90.42969086673111,98.63386431708932 89.73786129057407,104.52477447572164 87.89298242237419,112.94033447606489 112.10701757762581,90.49877332313918 108.87847955711186,86.8519991368521 104.95811196044087,83.20521922083572 97.34798662550747,82.64417564729229 91.12152044288814,89.09616854530759 89.73786129057407,95.5481435037218 89.5072514321655,103.40269750310108 89.27664157282561,108.17152088950388 88.58481199666858,114.34292484284379 90.66030072513968,119.39224314200692 96.88676690869033,122.75844923895784 103.11323309037834,123.03896619309671 108.4172598393634,117.98965582833625 110.26213870756328,110.97670653951354 110.49274856690317,104.52477447572164 110.49274856690317,97.79230450256728 111.64579785987735,91.62085653445683 109.80091899074614,85.72991361888126 105.88055139407516,82.92469745082781 99.88469506986439,82.08313193893991 94.81127818115056,84.32730595883913 91.12152044288814,88.5351263966877 89.96847114898264,95.5481435037218 89.73786129057407,102.56113941781223 89.27664157282561,109.01307694031857 109.80091899074614,93.02345978678204 110.49274856690317,89.37668956816196 106.80299082957208,83.7662626572419 101.96018379833549,80.4000000001397 94.11944860499352,86.01043504965492 89.96847114898264,91.05981499678455 91.35213030129671,99.75594359473325 88.58481199666858,105.92736992868595 88.35420214012265,111.25722491787747 88.58481199666858,117.98965582833625 93.42761902883649,121.35586395906284 99.88469506986439,123.60000000009313 105.88055139407516,120.79482960957102 110.03152885008603,114.0624068370089 110.49274856690317,107.89100213861093 109.80091899074614,101.15854193037376 110.72335842624307,94.98710291530006 111.18457814306021,88.5351263966877 107.95604012254626,83.7662626572419 102.6520133735612,82.08313193893991 96.65615704935044,83.7662626572419 92.73578945267946,86.57147780805826 90.89091058447957,91.62085653445683 90.42969086673111,98.63386431708932 89.73786129057407,104.52477447572164 87.89298242237419,112.94033447606489 112.10701757762581,90.49877332313918 108.87847955711186,86.8519991368521 104.95811196044087,83.20521922083572 97.34798662550747,82.64417564729229 91.12152044288814,89.09616854530759 89.73786129057407,95.5481435037218 89.5072514321655,103.40269750310108 89.27664157282561,108.17152088950388 88.58481199666858,114.34292484284379 90.66030072513968,119.39224314200692 96.88676690869033,122.75844923895784 103.11323309037834,123.03896619309671 108.4172598393634,117.98965582833625 110.26213870756328,110.97670653951354 110.49274856690317,104.52477447572164 110.49274856690317,97.79230450256728 111.64579785987735,91.62085653445683 109.80091899074614,85.72991361888126 105.88055139407516,82.92469745082781 99.88469506986439,82.08313193893991 94.81127818115056,84.32730595883913 91.12152044288814,88.5351263966877 89.96847114898264,95.5481435037218 89.73786129057407,102.56113941781223 89.27664157282561,109.01307694031857 109.80091899074614,93.02345978678204 110.49274856690317,89.37668956816196 106.80299082957208,83.7662626572419 101.96018379833549,80.4000000001397 94.11944860499352,86.01043504965492 89.96847114898264,91.05981499678455 91.35213030129671,99.75594359473325 88.58481199666858,105.92736992868595 88.35420214012265,111.25722491787747 88.58481199666858,117.98965582833625 93.42761902883649,121.35586395906284 99.88469506986439,123.60000000009313 105.88055139407516,120.79482960957102 110.03152885008603,114.0624068370089 110.49274856690317,107.89100213861093 109.80091899074614,101.15854193037376 110.72335842624307,94.98710291530006 111.18457814306021,88.5351263966877 107.95604012254626,83.7662626572419 102.6520133735612,82.08313193893991 96.65615704935044,83.7662626572419 92.73578945267946,86.57147780805826 90.89091058447957,91.62085653445683 90.42969086673111,98.63386431708932 89.73786129057407,104.52477447572164 87.89298242237419,112.94033447606489 112.10701757762581,90.49877332313918 108.87847955711186,86.8519991368521 104.95811196044087,83.20521922083572 97.34798662550747,82.64417564729229 91.12152044288814,89.09616854530759 89.73786129057407,95.5481435037218 89.5072514321655,103.40269750310108 89.27664157282561,108.17152088950388 88.58481199666858,114.34292484284379 90.66030072513968,119.39224314200692 96.88676690869033,122.75844923895784 103.11323309037834,123.03896619309671 108.4172598393634,117.98965582833625 110.26213870756328,110.97670653951354 110.49274856690317,104.52477447572164 110.49274856690317,97.79230450256728 111.64579785987735,91.62085653445683 109.80091899074614,85.72991361888126 105.88055139407516,82.92469745082781 99.88469506986439,82.08313193893991 94.81127818115056,84.32730595883913 91.12152044288814,88.5351263966877 89.96847114898264,95.5481435037218 89.73786129057407,102.56113941781223 89.27664157282561,109.01307694031857" stroke="#4DD2FF" stroke-dasharray="1,0.5" stroke-linecap="round" stroke-linejoin="round" stroke-width="0.5"><title>2013-11-30 10.3km</title><desc>9223370651086224807</desc></polyline><polyline fill="none" opacity="1" points="152.78879926167428,104.59208041895181 151.65235188789666,108.39367444510572 151.93646373040974,112.19526341627352 151.93646373040974,116.68804386514239 154.4934703251347,118.41603446449153 157.9028124511242,120.83521955134347 162.16449010930955,122.56320764520206 165.85794407781214,123.60000000009313 169.83550989069045,122.90880513819866 173.24485201667994,120.14402402122505 176.3700822982937,116.68804386514239 178.35886520612985,111.84966462710872 178.64297704864293,108.04807519726455 178.92708889301866,104.24648071220145 178.92708889301866,100.09928096202202 178.07475336175412,95.95207519712858 178.92708889301866,91.80486341682263 179.2112007373944,88.34884900366887 180.34764811210334,84.20162619324401 179.7794244242832,80.4000000001397" stroke="#4DD2FF" stroke-dasharray="none" stroke-linecap="round" stroke-linejoin="round" stroke-width="0.5"><title>2013-11-16 10.4km</title><desc>9223370652294258807</desc></polyline><polyline fill="none" opacity="1" points="22.655274749733508,165.60004496737383 25.121519370004535,167.7000308786519 29.807384146377444,171.60000000009313 33.7533755376935,171.60000000009313 37.45274246670306,170.40001015365124 39.672362624667585,169.20001972699538 42.38523170631379,165.90004306309856 43.12510509137064,163.20005889236927 42.878480629995465,159.000077677425 43.371729554608464,154.2000904425513 44.35822740197182,151.20009370637126 45.09810078702867,147.60009283619002 45.09810078702867,144.00008674431592 45.34472524933517,139.80007303715684 44.85147632565349,135.90005394420587 42.63185616862029,132.6000330010429 39.918987086974084,130.50001738895662 35.72637123428285,128.4000000001397 32.02700430434197,129.00000514974818 28.574261837638915,130.50001738895662 25.368143832311034,132.0000287219882 22.655274749733508,135.00004866719246" stroke="#4DD2FF" stroke-dasharray="none" stroke-linecap="round" stroke-linejoin="round" stroke-width="0.5"><title>2013-11-03 10.7km</title><desc>9223370653417861807</desc></polyline><polyline fill="none" opacity="0.5" points="90.39559482969344,144.158586763544 90.17223657015711,150.67934896843508 88.83208701107651,155.0265132614877 88.38537049200386,157.47178948204964 94.19268524646759,166.1660833877977 101.11679129954427,167.52456377167255 105.80731475353241,168.3396516093053 108.71097213122994,162.90572711406276 109.60440516937524,159.101972151082 108.93433039076626,158.01518383715302 110.05112169031054,150.67934896843508 109.82776342984289,146.06047769379802 109.82776342984289,136.55100694834255 107.59418083168566,129.48680263455026 99.77664174046367,128.94340138346888 93.7459687255323,132.4755071690306 90.39559482969344,137.36610601702705 89.94887830968946,143.8868879280053 89.27880353014916,151.49444291344844 88.83208701107651,159.101972151082 92.40581916645169,165.62269100314006 100.44671652000397,169.96982639585622 107.37082257214934,167.79625975061208 109.60440516937524,159.64536611153744 109.15768865030259,153.12462991802022 109.38104691077024,146.06047769379802 111.16791298892349,138.72460380825214 108.48761387076229,134.10570796765387 104.2438069358468,129.75850321073085 95.97955132462084,130.30190426576883 90.84231134969741,132.4755071690306 88.60872875060886,138.18120479094796 88.16201223153621,142.52839325624518 88.83208701107651,147.4189702309668 88.83208701107651,153.6680253231898 88.83208701107651,161.27554720430635 95.7561930641532,168.61134748952463 100.0,169.96982639585622 105.13723997492343,171.32830448099412 108.93433039076626,162.36233394173905 109.15768865030259,151.2227449649945 108.93433039076626,145.51708045019768 111.83798776753247,140.62649933691137 109.38104691077024,131.9321066401899 104.02044867537916,128.4000000001397 95.0861182846129,130.30190426576883 90.61895308922976,133.29060771595687 95.97955132462084,130.57360474346206 92.62917742691934,135.46420772955753 91.73574438877404,141.4415969287511 89.94887830968946,146.60387480724603 91.73574438877404,154.21142059750855 89.05544527154416,156.11330302152783 88.83208701107651,163.17742365039885 99.77664174046367,167.52456377167255 103.12701563630253,167.52456377167255 108.04089735168964,163.99251306336373 108.93433039076626,160.46045680507086 107.59418083168566,158.83027512137778 110.27447994984686,155.84160563116893 110.27447994984686,149.32085840264335 110.27447994984686,141.98499515815638 109.38104691077024,133.01890756678768 103.5737321563065,129.21510202554055 96.64962610416114,130.30190426576883 90.61895308922976,133.01890756678768 90.17223657015711,140.3548000745941 88.83208701107651,147.4189702309668 89.05544527154416,155.0265132614877 88.83208701107651,161.54724393785 97.98977566231042,168.61134748952463 103.35037389583886,171.60000000009313 109.15768865030259,162.6340305446647 109.60440516937524,158.55857805884443 108.93433039076626,148.77746194624342 109.60440516937524,142.80009225662798 109.82776342984289,135.73590758326463 106.92410605214536,130.57360474346206 100.0,129.48680263455026 93.7459687255323,130.57360474346206 88.83208701107651,135.46420772955753 89.27880353014916,139.53970208973624 88.60872875060886,145.788779088296 88.38537049200386,150.13595284055918 88.60872875060886,156.92839499609545 91.51238612923771,166.1660833877977 97.09634262230247,168.3396516093053 102.01022433675826,169.15473914984614 107.37082257214934,168.61134748952463 108.04089735168964,158.28688096394762 108.93433039076626,146.87557331495918 110.49783820938319,142.80009225662798 111.16791298892349,136.55100694834255 107.14746431168169,129.48680263455026 100.0,128.67170070810243 91.06566960923374,131.9321066401899 99.3299252204597,129.21510202554055 93.7459687255323,132.20380692067556 92.18246090784669,137.90950523223728 90.39559482969344,144.158586763544 90.17223657015711,150.67934896843508 88.83208701107651,155.0265132614877 88.38537049200386,157.47178948204964 94.19268524646759,166.1660833877977 101.11679129954427,167.52456377167255 105.80731475353241,168.3396516093053 108.71097213122994,162.90572711406276 109.60440516937524,159.101972151082 108.93433039076626,158.01518383715302 110.05112169031054,150.67934896843508 109.82776342984289,146.06047769379802 109.82776342984289,136.55100694834255 107.59418083168566,129.48680263455026 99.77664174046367,128.94340138346888 93.7459687255323,132.4755071690306 90.39559482969344,137.36610601702705 89.94887830968946,143.8868879280053 89.27880353014916,151.49444291344844 88.83208701107651,159.101972151082 92.40581916645169,165.62269100314006 100.44671652000397,169.96982639585622 107.37082257214934,167.79625975061208 109.60440516937524,159.64536611153744 109.15768865030259,153.12462991802022 109.38104691077024,146.06047769379802 111.16791298892349,138.72460380825214 108.48761387076229,134.10570796765387 104.2438069358468,129.75850321073085 95.97955132462084,130.30190426576883 90.84231134969741,132.4755071690306 88.60872875060886,138.18120479094796 88.16201223153621,142.52839325624518 88.83208701107651,147.4189702309668 88.83208701107651,153.6680253231898 88.83208701107651,161.27554720430635 95.7561930641532,168.61134748952463 100.0,169.96982639585622 105.13723997492343,171.32830448099412 108.93433039076626,162.36233394173905 109.15768865030259,151.2227449649945 108.93433039076626,145.51708045019768 111.83798776753247,140.62649933691137 109.38104691077024,131.9321066401899 104.02044867537916,128.4000000001397 95.0861182846129,130.30190426576883 90.61895308922976,133.29060771595687 95.97955132462084,130.57360474346206 92.62917742691934,135.46420772955753 91.73574438877404,141.4415969287511 89.94887830968946,146.60387480724603 91.73574438877404,154.21142059750855 89.05544527154416,156.11330302152783 88.83208701107651,163.17742365039885 99.77664174046367,167.52456377167255 103.12701563630253,167.52456377167255 108.04089735168964,163.99251306336373 108.93433039076626,160.46045680507086 107.59418083168566,158.83027512137778 110.27447994984686,155.84160563116893 110.27447994984686,149.32085840264335 110.27447994984686,141.98499515815638 109.38104691077024,133.01890756678768 103.5737321563065,129.21510202554055 96.64962610416114,130.30190426576883 90.61895308922976,133.01890756678768 90.17223657015711,140.3548000745941 88.83208701107651,147.4189702309668 89.05544527154416,155.0265132614877 88.83208701107651,161.54724393785 97.98977566231042,168.61134748952463 103.35037389583886,171.60000000009313 109.15768865030259,162.6340305446647 109.60440516937524,158.55857805884443 108.93433039076626,148.77746194624342 109.60440516937524,142.80009225662798 109.82776342984289,135.73590758326463 106.92410605214536,130.57360474346206 100.0,129.48680263455026 93.7459687255323,130.57360474346206 88.83208701107651,135.46420772955753 89.27880353014916,139.53970208973624 88.60872875060886,145.788779088296 88.38537049200386,150.13595284055918 88.60872875060886,156.92839499609545 91.51238612923771,166.1660833877977 97.09634262230247,168.3396516093053 102.01022433675826,169.15473914984614 107.37082257214934,168.61134748952463 108.04089735168964,158.28688096394762 108.93433039076626,146.87557331495918 110.49783820938319,142.80009225662798 111.16791298892349,136.55100694834255 107.14746431168169,129.48680263455026 100.0,128.67170070810243 91.06566960923374,131.9321066401899 99.3299252204597,129.21510202554055 93.7459687255323,132.20380692067556 92.18246090784669,137.90950523223728 90.39559482969344,144.158586763544 90.17223657015711,150.67934896843508 88.83208701107651,155.0265132614877 88.38537049200386,157.47178948204964 94.19268524646759,166.1660833877977 101.11679129954427,167.52456377167255 105.80731475353241,168.3396516093053 108.71097213122994,162.90572711406276 109.60440516937524,159.101972151082 108.93433039076626,158.01518383715302 110.05112169031054,150.67934896843508 109.82776342984289,146.06047769379802 109.82776342984289,136.55100694834255 107.59418083168566,129.48680263455026 99.77664174046367,128.94340138346888 93.7459687255323,132.4755071690306 90.39559482969344,137.36610601702705 89.94887830968946,143.8868879280053 89.27880353014916,151.49444291344844 88.83208701107651,159.101972151082 92.40581916645169,165.62269100314006 100.44671652000397,169.96982639585622 107.37082257214934,167.79625975061208 109.60440516937524,159.64536611153744 109.15768865030259,153.12462991802022 109.38104691077024,146.06047769379802 111.16791298892349,138.72460380825214 108.48761387076229,134.10570796765387 104.2438069358468,129.75850321073085 95.97955132462084,130.30190426576883 90.84231134969741,132.4755071690306 88.60872875060886,138.18120479094796 88.16201223153621,142.52839325624518 88.83208701107651,147.4189702309668 88.83208701107651,153.6680253231898 88.83208701107651,161.27554720430635 95.7561930641532,168.61134748952463 100.0,169.96982639585622 105.13723997492343,171.32830448099412 108.93433039076626,162.36233394173905 109.15768865030259,151.2227449649945 108.93433039076626,145.51708045019768 111.83798776753247,140.62649933691137 109.38104691077024,131.9321066401899 104.02044867537916,128.4000000001397 95.0861182846129,130.30190426576883 90.61895308922976,133.29060771595687 95.97955132462084,130.57360474346206 92.62917742691934,135.46420772955753 91.73574438877404,141.4415969287511 89.94887830968946,146.60387480724603 91.73574438877404,154.21142059750855 89.05544527154416,156.11330302152783 88.83208701107651,163.17742365039885 99.77664174046367,167.52456377167255 103.12701563630253,167.52456377167255 108.04089735168964,163.99251306336373 108.93433039076626,160.46045680507086 107.59418083168566,158.83027512137778 110.27447994984686,155.84160563116893 110.27447994984686,149.32085840264335 110.27447994984686,141.98499515815638 109.38104691077024,133.01890756678768 103.5737321563065,129.21510202554055 96.64962610416114,130.30190426576883 90.61895308922976,133.01890756678768 90.17223657015711,140.3548000745941 88.83208701107651,147.4189702309668 89.05544527154416,155.0265132614877 88.83208701107651,161.54724393785 97.98977566231042,168.61134748952463 103.35037389583886,171.60000000009313 109.15768865030259,162.6340305446647 109.60440516937524,158.55857805884443 108.93433039076626,148.77746194624342 109.60440516937524,142.80009225662798 109.82776342984289,135.73590758326463 106.92410605214536,130.57360474346206 100.0,129.48680263455026 93.7459687255323,130.57360474346206 88.83208701107651,135.46420772955753 89.27880353014916,139.53970208973624 88.60872875060886,145.788779088296 88.38537049200386,150.13595284055918 88.60872875060886,156.92839499609545 91.51238612923771,166.1660833877977 97.09634262230247,168.3396516093053 102.01022433675826,169.15473914984614 107.37082257214934,168.61134748952463 108.04089735168964,158.28688096394762 108.93433039076626,146.87557331495918 110.49783820938319,142.80009225662798 111.16791298892349,136.55100694834255 107.14746431168169,129.48680263455026 100.0,128.67170070810243 91.06566960923374,131.9321066401899 99.3299252204597,129.21510202554055 93.7459687255323,132.20380692067556 92.18246090784669,137.90950523223728 90.39559482969344,144.158586763544 90.17223657015711,150.67934896843508 88.83208701107651,155.0265132614877 88.38537049200386,157.47178948204964 94.19268524646759,166.1660833877977 101.11679129954427,167.52456377167255 105.80731475353241,168.3396516093053 108.71097213122994,162.90572711406276 109.60440516937524,159.101972151082 108.93433039076626,158.01518383715302 110.05112169031054,150.67934896843508 109.82776342984289,146.06047769379802 109.82776342984289,136.55100694834255 107.59418083168566,129.48680263455026 99.77664174046367,128.94340138346888 93.7459687255323,132.4755071690306 90.39559482969344,137.36610601702705 89.94887830968946,143.8868879280053 89.27880353014916,151.49444291344844 88.83208701107651,159.101972151082 92.40581916645169,165.62269100314006 100.44671652000397,169.96982639585622 107.37082257214934,167.79625975061208 109.60440516937524,159.64536611153744 109.15768865030259,153.12462991802022 109.38104691077024,146.06047769379802 111.16791298892349,138.72460380825214 108.48761387076229,134.10570796765387 104.2438069358468,129.75850321073085 95.97955132462084,130.30190426576883 90.84231134969741,132.4755071690306 88.60872875060886,138.18120479094796 88.16201223153621,142.52839325624518 88.83208701107651,147.4189702309668 88.83208701107651,153.6680253231898 88.83208701107651,161.27554720430635 95.7561930641532,168.61134748952463 100.0,169.96982639585622 105.13723997492343,171.32830448099412 108.93433039076626,162.36233394173905 109.15768865030259,151.2227449649945 108.93433039076626,145.51708045019768 111.83798776753247,140.62649933691137 109.38104691077024,131.9321066401899 104.02044867537916,128.4000000001397 95.0861182846129,130.30190426576883 90.61895308922976,133.29060771595687 95.97955132462084,130.57360474346206 92.62917742691934,135.46420772955753 91.73574438877404,141.4415969287511 89.94887830968946,146.60387480724603 91.73574438877404,154.21142059750855 89.05544527154416,156.11330302152783 88.83208701107651,163.17742365039885 99.77664174046367,167.52456377167255 103.12701563630253,167.52456377167255 108.04089735168964,163.99251306336373 108.93433039076626,160.46045680507086 107.59418083168566,158.83027512137778 110.27447994984686,155.84160563116893" stroke="#4DD2FF" stroke-dasharray="1,0.5" stroke-linecap="round" stroke-linejoin="round" stroke-width="0.5"><title>2013-11-02 10.5km</title><desc>9223370653505000807</desc></polyline><polyline fill="none" opacity="1" points="156.27324454393238,143.80901126051322 155.8208373133093,146.28544976958074 156.0470409290865,150.4128412983846 157.63046623580158,153.98990790266544 154.6898192372173,154.81538401241414 154.9160228529945,155.91601836122572 154.23741200659424,157.2918105481658 154.6898192372173,163.07012865273282 160.1187060046941,166.09686085488647 165.77379638515413,167.472646887647 167.13101807702333,167.472646887647 169.16685061436146,167.472646887647 171.88129399716854,168.29811810934916 174.14333015028387,163.8956014700234 174.82194099668413,162.7949709808454 175.04814461153,160.31855043233372 175.72675545606762,158.94276007497683 173.6909229196608,158.667601903202 175.04814461153,157.84212719067 176.4053663033992,155.64085982437246 176.17916268855333,150.4128412983846 176.4053663033992,149.0370449537877 175.95295907184482,145.7351303335745 176.4053663033992,141.60773032391444 175.95295907184482,136.10451866895892 175.50055184215307,132.5274239582941 173.6909229196608,128.95032362639904 169.61925784498453,128.67516182991676 165.77379638515413,128.39999999990687 162.60694577172399,129.775808817707 159.6662987722084,131.97710119606927 156.49944815877825,132.5274239582941 156.27324454393238,136.93000126513653 156.0470409290865,139.9567682244815 155.8208373133093,143.53385126008652 154.6898192372173,147.11092867446132 155.14222646690905,151.23831870546564 154.9160228529945,154.81538401241414 154.6898192372173,158.94276007497683 154.6898192372173,161.41918212012388 158.3090770803392,165.54654620750807 163.96416746359318,168.57327511697076 166.4524072315544,169.94905965332873 169.39305422920734,171.60000000009313 173.46471930481493,167.7478039949201 175.27434822637588,162.51981327543035 175.72675545606762,159.49307631794363 175.72675545606762,158.39244369836524 175.27434822637588,152.8892726227641 175.04814461153,148.4867261829786 175.50055184215307,145.7351303335745 175.72675545606762,142.43321092473343 177.31018076371402,138.3058049271349 175.95295907184482,135.27903577289544 174.59573737997562,133.6280690834392 173.01231207326055,130.05097048124298 170.2978686913848,129.22548538981937 166.00000000093132,128.95032362639904 161.92833492625505,129.775808817707 159.6662987722084,130.05097048124298 156.72565177455544,131.97710119606927 154.6898192372173,135.00387474126182 154.4636156214401,137.75548356282525 155.14222646690905,139.13128672586754 154.01120839081705,142.15805075713433 154.4636156214401,145.45997056597844 154.6898192372173,147.11092867446132 154.23741200659424,149.86252286005765 154.6898192372173,153.43959032930434 154.4636156214401,156.74149377294816 154.6898192372173,161.14402424846776 157.4042626209557,166.09686085488647 161.70213131047785,168.57327511697076 163.05935300234705,168.29811810934916 166.00000000093132,169.94905965332873 168.03583253733814,169.1235890306998 171.2026831516996,171.32484335824847 173.46471930481493,168.57327511697076 175.04814461153,162.24465553602204 174.14333015028387,158.11728546093218 175.27434822637588,150.96315960306674 175.04814461153,146.56060943822376 175.04814461153,145.18481076532044 176.63156991824508,142.43321092473343 177.98879161011428,140.23192865704186 177.31018076371402,136.10451866895892" stroke="#4DD2FF" stroke-dasharray="none" stroke-linecap="round" stroke-linejoin="round" stroke-width="0.5"><title>2013-10-26 11.1km</title><desc>9223370654110301807</desc></polyline><polyline fill="none" opacity="1" points="28.48094247095287,179.02704909769818 25.841393218375742,181.65409533679485 25.36147517338395,184.86492574820295 25.36147517338395,188.65953800245188 24.881557127460837,191.87035909784026 24.4016390806064,196.2487446211744 21.52213080599904,199.45955562591553 22.002048851922154,203.2541449451819 21.762089828029275,207.63250982784666 22.24200787395239,210.84330569510348 22.24200787395239,213.7622073253151 24.4016390806064,216.68110542627983 27.52110637910664,219.0162213675212 30.88053270149976,219.60000000009313 34.95983609277755,219.0162213675212 37.599385344423354,217.55677416920662 41.438729711808264,215.80543636647053 42.398565804585814,213.47031732136384 44.07827896531671,209.96763451839797 44.55819701123983,206.4649466353003 44.55819701123983,202.67036236193962 45.03811505623162,199.16766389319673 45.75799212604761,194.78928366210312 45.997951148077846,191.28657376184128 46.47786919493228,188.36764496355318 46.2379101710394,184.57303225039504 45.2780740801245,180.7784135742113 43.118442873470485,178.15136638237163 39.99897557403892,176.98378893523477 36.39959023054689,176.4000000001397 32.800204885192215,176.4000000001397 29.44077856373042,177.8594720736146 25.841393218375742,180.1946255567018" stroke="#4DD2FF" stroke-dasharray="none" stroke-linecap="round" stroke-linejoin="round" stroke-width="0.5"><title>2013-10-20 10.7km</title><desc>9223370654628121807</desc></polyline><polyline fill="none" opacity="0.5" points="111.55419131275266,186.164450250566 106.68926865514368,177.87946466286667 98.90539240278304,176.6958930043038 93.31073134578764,181.4301762059331 91.12151614949107,189.12336687906645 89.6620393525809,197.11242390889674 88.44580868817866,204.50967568764463 88.20256255567074,211.31512758042663 98.66214626841247,219.00822432828136 104.98654572386295,218.1205605531577 109.36497611645609,212.79457114078104 110.09471451491117,203.6220066549722 110.09471451491117,197.11242390889674 111.79743744432926,190.60282385186292 109.36497611645609,179.95071368920617 101.82434599753469,176.4000000001397 95.98643880710006,179.35892843198963 92.58099294733256,184.38909855671227 89.6620393525809,193.56173511454836 88.20256255567074,200.66310755256563 88.68905482254922,207.76445938879624 95.01345427706838,219.00822432828136 101.58109986409545,219.60000000009313 107.66225318517536,216.34523203712888 109.85146838147193,208.35623777774163 110.09471451491117,200.66310755256563 111.06769904587418,194.1535169375129 111.55419131275266,186.164450250566 106.68926865514368,177.87946466286667 98.90539240278304,176.6958930043038 93.31073134578764,181.4301762059331 91.12151614949107,189.12336687906645 89.6620393525809,197.11242390889674 88.44580868817866,204.50967568764463 88.20256255567074,211.31512758042663 98.66214626841247,219.00822432828136 104.98654572386295,218.1205605531577 109.36497611645609,212.79457114078104 110.09471451491117,203.6220066549722 110.09471451491117,197.11242390889674 111.79743744432926,190.60282385186292 109.36497611645609,179.95071368920617 101.82434599753469,176.4000000001397 95.98643880710006,179.35892843198963 92.58099294733256,184.38909855671227 89.6620393525809,193.56173511454836 88.20256255567074,200.66310755256563 88.68905482254922,207.76445938879624 95.01345427706838,219.00822432828136 101.58109986409545,219.60000000009313 107.66225318517536,216.34523203712888 109.85146838147193,208.35623777774163 110.09471451491117,200.66310755256563 111.06769904587418,194.1535169375129 111.55419131275266,186.164450250566 106.68926865514368,177.87946466286667 98.90539240278304,176.6958930043038 93.31073134578764,181.4301762059331 91.12151614949107,189.12336687906645 89.6620393525809,197.11242390889674 88.44580868817866,204.50967568764463 88.20256255567074,211.31512758042663 98.66214626841247,219.00822432828136 104.98654572386295,218.1205605531577 109.36497611645609,212.79457114078104 110.09471451491117,203.6220066549722 110.09471451491117,197.11242390889674 111.79743744432926,190.60282385186292 109.36497611645609,179.95071368920617 101.82434599753469,176.4000000001397 95.98643880710006,179.35892843198963 92.58099294733256,184.38909855671227 89.6620393525809,193.56173511454836 88.20256255567074,200.66310755256563 88.68905482254922,207.76445938879624 95.01345427706838,219.00822432828136 101.58109986409545,219.60000000009313 107.66225318517536,216.34523203712888 109.85146838147193,208.35623777774163 110.09471451491117,200.66310755256563 111.06769904587418,194.1535169375129 111.55419131275266,186.164450250566 106.68926865514368,177.87946466286667 98.90539240278304,176.6958930043038 93.31073134578764,181.4301762059331 91.12151614949107,189.12336687906645 89.6620393525809,197.11242390889674 88.44580868817866,204.50967568764463 88.20256255567074,211.31512758042663 98.66214626841247,219.00822432828136 104.98654572386295,218.1205605531577 109.36497611645609,212.79457114078104 110.09471451491117,203.6220066549722 110.09471451491117,197.11242390889674 111.79743744432926,190.60282385186292 109.36497611645609,179.95071368920617 101.82434599753469,176.4000000001397 95.98643880710006,179.35892843198963 92.58099294733256,184.38909855671227 89.6620393525809,193.56173511454836 88.20256255567074,200.66310755256563 88.68905482254922,207.76445938879624 95.01345427706838,219.00822432828136 101.58109986409545,219.60000000009313 107.66225318517536,216.34523203712888 109.85146838147193,208.35623777774163 110.09471451491117,200.66310755256563 111.06769904587418,194.1535169375129 111.55419131275266,186.164450250566 106.68926865514368,177.87946466286667 98.90539240278304,176.6958930043038 93.31073134578764,181.4301762059331 91.12151614949107,189.12336687906645 89.6620393525809,197.11242390889674 88.44580868817866,204.50967568764463 88.20256255567074,211.31512758042663 98.66214626841247,219.00822432828136 104.98654572386295,218.1205605531577 109.36497611645609,212.79457114078104 110.09471451491117,203.6220066549722 110.09471451491117,197.11242390889674 111.79743744432926,190.60282385186292 109.36497611645609,179.95071368920617 101.82434599753469,176.4000000001397 95.98643880710006,179.35892843198963 92.58099294733256,184.38909855671227 89.6620393525809,193.56173511454836 88.20256255567074,200.66310755256563 88.68905482254922,207.76445938879624 95.01345427706838,219.00822432828136 101.58109986409545,219.60000000009313 107.66225318517536,216.34523203712888 109.85146838147193,208.35623777774163 110.09471451491117,200.66310755256563 111.06769904587418,194.1535169375129 111.55419131275266,186.164450250566 106.68926865514368,177.87946466286667 98.90539240278304,176.6958930043038 93.31073134578764,181.4301762059331 91.12151614949107,189.12336687906645 89.6620393525809,197.11242390889674 88.44580868817866,204.50967568764463 88.20256255567074,211.31512758042663 98.66214626841247,219.00822432828136 104.98654572386295,218.1205605531577 109.36497611645609,212.79457114078104 110.09471451491117,203.6220066549722 110.09471451491117,197.11242390889674 111.79743744432926,190.60282385186292 109.36497611645609,179.95071368920617 101.82434599753469,176.4000000001397 95.98643880710006,179.35892843198963 92.58099294733256,184.38909855671227 89.6620393525809,193.56173511454836 88.20256255567074,200.66310755256563 88.68905482254922,207.76445938879624 95.01345427706838,219.00822432828136 101.58109986409545,219.60000000009313 107.66225318517536,216.34523203712888 109.85146838147193,208.35623777774163 110.09471451491117,200.66310755256563 111.06769904587418,194.1535169375129 111.55419131275266,186.164450250566 106.68926865514368,177.87946466286667 98.90539240278304,176.6958930043038 93.31073134578764,181.4301762059331 91.12151614949107,189.12336687906645 89.6620393525809,197.11242390889674 88.44580868817866,204.50967568764463 88.20256255567074,211.31512758042663 98.66214626841247,219.00822432828136 104.98654572386295,218.1205605531577 109.36497611645609,212.79457114078104 110.09471451491117,203.6220066549722 110.09471451491117,197.11242390889674 111.79743744432926,190.60282385186292 109.36497611645609,179.95071368920617 101.82434599753469,176.4000000001397 95.98643880710006,179.35892843198963 92.58099294733256,184.38909855671227 89.6620393525809,193.56173511454836 88.20256255567074,200.66310755256563 88.68905482254922,207.76445938879624 95.01345427706838,219.00822432828136 101.58109986409545,219.60000000009313 107.66225318517536,216.34523203712888 109.85146838147193,208.35623777774163 110.09471451491117,200.66310755256563 111.06769904587418,194.1535169375129 111.55419131275266,186.164450250566 106.68926865514368,177.87946466286667 98.90539240278304,176.6958930043038 93.31073134578764,181.4301762059331 91.12151614949107,189.12336687906645 89.6620393525809,197.11242390889674 88.44580868817866,204.50967568764463 88.20256255567074,211.31512758042663 98.66214626841247,219.00822432828136 104.98654572386295,218.1205605531577 109.36497611645609,212.79457114078104 110.09471451491117,203.6220066549722 110.09471451491117,197.11242390889674 111.79743744432926,190.60282385186292 109.36497611645609,179.95071368920617 101.82434599753469,176.4000000001397 95.98643880710006,179.35892843198963 92.58099294733256,184.38909855671227 89.6620393525809,193.56173511454836 88.20256255567074,200.66310755256563 88.68905482254922,207.76445938879624 95.01345427706838,219.00822432828136 101.58109986409545,219.60000000009313 107.66225318517536,216.34523203712888 109.85146838147193,208.35623777774163 110.09471451491117,200.66310755256563 111.06769904587418,194.1535169375129 111.55419131275266,186.164450250566 106.68926865514368,177.87946466286667 98.90539240278304,176.6958930043038 93.31073134578764,181.4301762059331 91.12151614949107,189.12336687906645 89.6620393525809,197.11242390889674 88.44580868817866,204.50967568764463 88.20256255567074,211.31512758042663 98.66214626841247,219.00822432828136 104.98654572386295,218.1205605531577 109.36497611645609,212.79457114078104 110.09471451491117,203.6220066549722 110.09471451491117,197.11242390889674 111.79743744432926,190.60282385186292 109.36497611645609,179.95071368920617 101.82434599753469,176.4000000001397 95.98643880710006,179.35892843198963 92.58099294733256,184.38909855671227 89.6620393525809,193.56173511454836 88.20256255567074,200.66310755256563 88.68905482254922,207.76445938879624 95.01345427706838,219.00822432828136 101.58109986409545,219.60000000009313 107.66225318517536,216.34523203712888 109.85146838147193,208.35623777774163 110.09471451491117,200.66310755256563 111.06769904587418,194.1535169375129 111.55419131275266,186.164450250566 106.68926865514368,177.87946466286667 98.90539240278304,176.6958930043038 93.31073134578764,181.4301762059331 91.12151614949107,189.12336687906645 89.6620393525809,197.11242390889674 88.44580868817866,204.50967568764463 88.20256255567074,211.31512758042663 98.66214626841247,219.00822432828136 104.98654572386295,218.1205605531577 109.36497611645609,212.79457114078104 110.09471451491117,203.6220066549722 110.09471451491117,197.11242390889674 111.79743744432926,190.60282385186292 109.36497611645609,179.95071368920617 101.82434599753469,176.4000000001397 95.98643880710006,179.35892843198963 92.58099294733256,184.38909855671227 89.6620393525809,193.56173511454836 88.20256255567074,200.66310755256563 88.68905482254922,207.76445938879624 95.01345427706838,219.00822432828136 101.58109986409545,219.60000000009313 107.66225318517536,216.34523203712888 109.85146838147193,208.35623777774163 110.09471451491117,200.66310755256563 111.06769904587418,194.1535169375129 111.55419131275266,186.164450250566 106.68926865514368,177.87946466286667 98.90539240278304,176.6958930043038 93.31073134578764,181.4301762059331 91.12151614949107,189.12336687906645 89.6620393525809,197.11242390889674 88.44580868817866,204.50967568764463 88.20256255567074,211.31512758042663 98.66214626841247,219.00822432828136 104.98654572386295,218.1205605531577 109.36497611645609,212.79457114078104 110.09471451491117,203.6220066549722 110.09471451491117,197.11242390889674 111.79743744432926,190.60282385186292 109.36497611645609,179.95071368920617 101.82434599753469,176.4000000001397 95.98643880710006,179.35892843198963 92.58099294733256,184.38909855671227 89.6620393525809,193.56173511454836 88.20256255567074,200.66310755256563 88.68905482254922,207.76445938879624 95.01345427706838,219.00822432828136 101.58109986409545,219.60000000009313 107.66225318517536,216.34523203712888 109.85146838147193,208.35623777774163 110.09471451491117,200.66310755256563 111.06769904587418,194.1535169375129 111.55419131275266,186.164450250566 106.68926865514368,177.87946466286667 98.90539240278304,176.6958930043038 93.31073134578764,181.4301762059331 91.12151614949107,189.12336687906645 89.6620393525809,197.11242390889674 88.44580868817866,204.50967568764463 88.20256255567074,211.31512758042663 98.66214626841247,219.00822432828136 104.98654572386295,218.1205605531577 109.36497611645609,212.79457114078104 110.09471451491117,203.6220066549722 110.09471451491117,197.11242390889674 111.79743744432926,190.60282385186292 109.36497611645609,179.95071368920617 101.82434599753469,176.4000000001397 95.98643880710006,179.35892843198963 92.58099294733256,184.38909855671227 89.6620393525809,193.56173511454836 88.20256255567074,200.66310755256563 88.68905482254922,207.76445938879624 95.01345427706838,219.00822432828136" stroke="#4DD2FF" stroke-dasharray="1,0.5" stroke-linecap="round" stroke-linejoin="round" stroke-width="0.5"><title>2013-10-19 10.2km</title><desc>9223370654714312807</desc></polyline><polyline fill="none" opacity="1" points="173.61008255928755,219.59999999962747 158.38991744071245,176.39999999850988" stroke="#4DD2FF" stroke-dasharray="none" stroke-linecap="round" stroke-linejoin="round" stroke-width="0.5"><title>2013-10-12 10.6km</title><desc>9223370655320152807</desc></polyline><polyline fill="none" opacity="1" points="34.66381279937923,224.4000000001397 34.99571919813752,230.05236821994185 34.99571919813752,234.89724765298888 35.327625596895814,239.33838095888495 34.99571919813752,244.58698543324135 32.67237440124154,248.22062985482626 31.676655201241374,252.25800790730864 31.344748802483082,256.29538107919507 32.67237440124154,260.33274937211536 34.33190639875829,263.5626404916402 36.65525119751692,267.60000000009313" stroke="#4DD2FF" stroke-dasharray="none" stroke-linecap="round" stroke-linejoin="round" stroke-width="0.5"><title>2013-10-06 10.6km</title><desc>9223370655838244807</desc></polyline><polyline fill="none" opacity="1" points="109.74891814030707,258.2824205197394 109.51680104155093,255.17655243421905 110.44526943657547,251.22362344246358 110.44526943657547,247.55304053169675 110.21315233688802,243.8824518523179 109.9810352390632,239.08244256977923 110.44526943657547,235.6941947832238 111.14162073191255,234.28242342197336 110.44526943657547,231.45887813949957 108.12409844994545,228.91768446704373 105.10657616890967,226.09413269883953 103.0175222819671,225.24706650385633 99.76788290217519,225.8117773346603 96.28612642269582,225.8117773346603 94.42918963450938,226.65884332545102 93.26860414259136,229.76474933116697 91.64378445129842,232.5882966623176 91.4116673534736,235.6941947832238 90.7153160572052,239.3647963295225 90.01896476279944,243.3177453908138 89.55473056435585,245.85892339702696 88.85837926901877,248.9648038719315 88.85837926901877,252.35303240828216 87.92991087492555,255.7412560300436 87.46567667741328,258.2824205197394 87.6977937752381,261.3882844764739 88.85837926901877,263.92944282339886 91.87590155098587,266.4705984061584 95.58977512735873,267.3176496522501 99.76788290217519,267.60000000009313 103.48175647854805,267.03529927134514 106.03504456300288,265.0588456459809 108.82044974528253,262.80003945482895 109.9810352390632,258.56477195979096 110.44526943657547,255.7412560300436 110.90950363315642,252.63538456498645 111.14162073191255,249.81186146731488 111.6058549284935,245.85892339702696 111.83797202818096,243.60009863856249 112.07008912600577,240.4942110304255 112.3022062247619,237.6706732562743 112.53432332258672,234.56477776309475 111.83797202818096,231.7412328212522 110.67738653440028,229.20003945659846 108.35621554870158,226.65884332545102 105.80292746517807,225.24706650385633 103.0175222819671,224.39999999990687 100.6963512962684,224.9647110356018 96.75036062020808,225.52942193625495 93.96495543792844,227.2235538160894 92.57225284632295,230.89416867331602 90.94743315596133,235.41184057947248 90.01896476279944,238.23538108426146 89.78684766311198,240.4942110304255 89.55473056435585,243.60009863856249 89.78684766311198,246.70598211791366 90.01896476279944,250.09421393065713 89.78684766311198,253.2000887740869 89.55473056435585,256.58831116743386 90.01896476279944,259.97652864456177 91.4116673534736,263.0823903486598 93.96495543792844,264.7764949919656 96.75036062020808,267.60000000009313 100.6963512962684,267.60000000009313 103.0175222819671,267.3176496522501 106.49927876051515,265.6235468524974 108.58833264745772,263.64709203201346 109.74891814030707,260.2588798790239 110.21315233688802,257.4353659977205" stroke="#4DD2FF" stroke-dasharray="none" stroke-linecap="round" stroke-linejoin="round" stroke-width="0.5"><title>2013-09-29 10.5km</title><desc>9223370656443428807</desc></polyline><polyline fill="none" opacity="1" points="174.6508262353018,262.3385051046498 176.69970613345504,258.1846848104615 177.38266609888524,253.75393486139365 175.78909284621477,250.98471179115586 174.19551959168166,249.6000990010798 176.01674616802484,245.1693324483931 177.61031942162663,239.9077860370744 178.06562606524676,237.96931852330454 177.38266609888524,234.92315197433345 178.5209327088669,231.04620687034912 175.78909284621477,228.27695635100827 173.0572529817,225.23077691276558 171.23602640628815,224.67692567128688 165.77234667818993,225.23077691276558 164.17877342551947,225.50770248495974 161.21928023919463,228.00003111502156 158.71509369742125,230.21543206623755 158.03213373105973,232.7077555754222 157.57682708837092,236.3077736343257 156.43856047838926,241.0154810224194 156.8938671220094,244.33856276632287 157.12152044381946,246.55394791672006 156.43856047838926,250.98471179115586 156.8938671220094,254.30777907301672 155.52794719021767,258.46160639752634 156.21090715564787,261.7846628346015 156.43856047838926,263.7231101964135 160.30866695195436,265.1077144506853 163.95112010277808,267.60000000009313 166.2276533227414,267.04615900083445 169.1871465081349,266.21539725200273 172.14663969445974,265.1077144506853 175.10613287985325,261.7846628346015 175.33378620166332,259.56929241190664 176.01674616802484,256.8000763715245 176.9273594552651,254.03085698350333 178.06562606524676,250.98471179115586 177.1550127780065,247.3847167957574 176.01674616802484,243.5077927815728 176.24439948890358,240.4616335972678 176.69970613345504,237.1385462298058 177.83797274436802,236.3077736343257 178.74858603067696,232.7077555754222 177.38266609888524,229.93850706424564 178.5209327088669,230.21543206623755 178.06562606524676,227.44618054293096 174.87847955711186,226.0615535255056 171.4636797280982,224.95385130890645 168.27653322089463,224.39999999990687 164.17877342551947,225.50770248495974 160.99162691738456,228.00003111502156 158.25978705380112,229.93850706424564 158.03213373105973,233.26160487625748 155.75560051295906,237.1385462298058 154.38968058023602,241.56932831485756 155.9832538338378,241.56932831485756 156.666213799268,243.23086938727647 156.21090715564787,246.83087090961635 155.52794719021767,250.98471179115586 153.25141397025436,253.20009051519446 155.3002938684076,256.2462327624671 155.52794719021767,258.7385279517621 157.12152044381946,263.1692682595458 159.1704003419727,265.6615559181664" stroke="#4DD2FF" stroke-dasharray="none" stroke-linecap="round" stroke-linejoin="round" stroke-width="0.5"><title>2013-09-22 10.9km</title><desc>9223370657048162807</desc></polyline></svg>