<?xml version="1.0" encoding="utf-8" ?>
<svg baseProfile="full" height="300mm" version="1.1" viewBox="0,0,200,300" width="200mm" xmlns="http://www.w3.org/2000/svg" xmlns:ev="http://www.w3.org/2001/xml-events" xmlns:xlink="http://www.w3.org/1999/xlink"><defs /><rect fill="#222222" height="300" width="200" x="0" y="0" /><text fill="#FFFFFF" style="font-size:12px; font-family:Arial; font-weight:bold;" x="10" y="20">Over 10km Runs</text><text fill="#FFFFFF" style="font-size:4px; font-family:Arial" x="10" y="280">Runner</text><text fill="#FFFFFF" style="font-size:9px; font-family:Arial" x="10" y="290">keep</text><text fill="#FFFFFF" style="font-size:4px; font-family:Arial" x="65" y="280">SPECIAL TRACKS</text><rect fill="yellow" height="2.6" width="2.6" x="65" y="283" /><text fill="#FFFFFF" style="font-size:3px; font-family:Arial" x="70" y="285.5">Over 20.0 km</text><rect fill="red" height="2.6" width="2.6" x="65" y="287" /><text fill="#FFFFFF" style="font-size:3px; font-family:Arial" x="70" y="289.5">Over 40.0 km</text><text fill="#FFFFFF" style="font-size:4px; font-family:Arial" x="120" y="280">STATISTICS</text><text fill="#FFFFFF" style="font-size:3px; font-family:Arial" x="120" y="285">Number: 15</text><text fill="#FFFFFF" style="font-size:3px; font-family:Arial" x="120" y="290">Weekly: 1.2</text><text fill="#FFFFFF" style="font-size:3px; font-family:Arial" x="141" y="285">Total: 163.6 km</text><text fill="#FFFFFF" style="font-size:3px; font-family:Arial" x="141" y="290">Avg: 10.9 km</text><text fill="#FFFFFF" style="font-size:3px; font-family:Arial" x="167" y="285">Min: 10.2 km</text><text fill="#FFFFFF" style="font-size:3px; font-family:Arial" x="167" y="290">Max: 14.0 km</text><polyline fill="none" opacity="1" points="26.673372987192124,75.59999999999854 26.58641005528625,75.3920463867471 26.5255360029405,75.1293673851469 26.53423229616601,74.80101745067805 26.58641005528625,74.47266620231676 26.595106348453555,74.17714895540848 26.577713762118947,73.82690491425456 26.58641005528625,73.52044015195133 26.58641005528625,73.22491947567323 26.603802641679067,72.89656192040275 26.61249893484637,72.62292962063657 26.708158159977756,72.38213244198414 26.942958076077048,72.28362430159905 27.21254316496197,72.26173358767846 27.229935751354787,72.10849842667812 27.28211351047503,71.96620837808587 27.29080980370054,71.71446384147566 27.30820239003515,71.38610024171794 27.151669112674426,71.12340841576952 26.86469143733848,70.981116658877 26.855995144171175,70.64180455049791 26.908172903291415,70.30249103891401 26.95165436930256,69.98506745129271 27.0038321284228,69.64575122378301 27.05600988754304,69.30643359304668 27.090795060328674,69.02184353036864 27.108187646663282,68.75914413483406 27.195150578627363,68.67157748272439 27.229935751354787,68.46360630945128 27.195150578627363,68.32130993978353 27.229935751354787,68.22279692391021 27.29080980370054,68.00387868739926 27.360380149213597,67.74117603244667 27.42125420155935,67.46752653917792 27.508217133465223,67.13914594238304 27.595180065371096,66.8217101161863 27.673446704109665,66.53711143469263 27.81258739513578,66.372919438596 27.977816965722013,66.42765014046017 28.203920588654,66.48238080582087 28.447416797978804,66.32913485082827 28.62134266179055,66.08831920031662 28.73439447331475,65.84750284293114 28.89092775073368,65.54100827490038 29.056157321319915,65.23451256185217 29.212690598797053,64.96085470756952 29.377920169383287,64.67624957084627 29.525757153634913,64.413536260603 29.67359413782833,64.10703633536468 29.85621629486559,63.778642287688854 30.056231038237456,63.4174073168906 30.282334661111236,63.0014378043561 30.499741990934126,62.61830612425547 30.673667854687665,62.32274617701478 30.856290011724923,62.038131888104544 31.038912168703973,61.764463371335296 31.169356566562783,61.556474688062735 31.34328243037453,61.282804564529215 31.560689760139212,60.96534607745707 31.647652692045085,60.680727079066855 31.7867933830712,60.35231931538874 31.97811183327576,60.056751203970634 32.221608042600565,59.82686415882927 32.46510425192537,59.629817607376026 32.6303338225116,59.35614105626155 32.769474513595924,59.1481462667507 32.88252632506192,59.03867511309363 32.9868818433024,58.797838060760114 33.082541068433784,58.55700030137814 33.18689658673247,58.403739540874085 33.38691133010434,58.34900348555675 33.499963141512126,58.3599506995306 33.63040753942914,58.239531265426194 33.75215564406244,58.09721716080821 33.9347778010997,57.91111372836167 34.126096251246054,57.6483787520192 34.30871840828331,57.44037963227311 34.282629528664984,57.17764314818487 34.27393323549768,56.91490582248662 34.32611099461792,56.64122021339426 34.51742944482248,56.378481169522274 34.71744418819435,56.159531323421106 34.86528117238777,55.8967907366241 34.98702927707927,55.557416233110416 35.16095514094923,55.30562133927015 35.439236523001455,55.04287801724422 35.63925126637332,54.802029232690984 35.76969566423213,54.5392842975416 35.89144376886543,54.221799711282074 36.021888166782446,53.93715731329576 36.31756213522749,53.772940095899685 36.56105834455229,53.71820095035946 36.71759162197122,53.42260893325874 36.82194714026991,53.10512002462929 36.874124899390154,52.82047375134425 36.94369524490321,52.5139305061457 37.02196188358357,52.152645924878016 37.11762110871496,51.82420401545096 37.13501369510777,51.692826883430826 37.20458404062083,51.43007198807754 37.24806550657377,51.10162718508218 37.33502843847964,50.76223284021398 37.43068766355282,50.36809570947662 37.51765059545869,50.00680167572136 37.57852464780444,49.601712533141836 37.65679128654301,49.30610567982512 37.73505792528158,48.955755436945765 37.83071715029655,48.583506663970184 37.87419861624949,48.21125620140083 37.952465254988056,47.87184989533125 38.03942818689393,47.488647538935766 38.11769482557429,47.13828953191114 38.17856887797825,46.853622549075226 38.24813922349131,46.49231303250417 38.291620689386036,46.218592642006115 38.37858362135012,45.98866680797801 38.395976207684726,45.84633144478721 38.45685026003048,45.52881320595043 38.51772431237623,45.1893957980501 38.604687244282104,44.81712992892426 38.67425758979516,44.46676050838141 38.735131642082706,44.258727956650546 38.74382793530822,44.11638959086122 38.77861310803564,43.86455956927239 38.85687974677421,43.503236883138015 38.917753799119964,43.12001411266829 38.99602043785853,42.79153602687438 39.05689449014608,42.57254990532965 39.100375956099015,42.364512548199855 39.126464835659135,42.255018990370445 39.18733888800489,42.13457590787584 39.204731474339496,42.014132648437226 39.16994630167028,41.795144450850785 39.19603518117219,41.51045891967806 39.239516647183336,41.23672189995705 39.309086992638186,41.06152972773998 39.387353631376754,40.91918581222126 39.66563501348719,40.98488303470367 39.95261268876493,41.0943782885588 40.248286657209974,41.17102487922966 40.42221252102172,41.19292389198381 40.46569398697466,40.952034430047206 40.45699769380735,40.68924511907244 40.47439028014196,40.393606137513416 40.49178286653478,40.021318496343156 40.50917545292759,39.63807945312874 40.58744209166616,39.33148692888062 40.48308657336747,39.10154178340599 40.274375536770094,39.079642212098406 39.970005275157746,39.134391129380674 39.683027599880006,39.20008978185069 39.65693872026168,38.9920438684494 39.700420186214615,38.66354924618645 39.76999053172767,38.33505330791377 39.830864584073424,38.01750598323997 39.9265238091466,37.65615753168822 39.996094154717866,37.31670753565413 40.0395756206708,36.99915626712027 40.08305708662374,36.69255387537851 40.117842259351164,36.44070105301216 40.14393113896949,36.232648138051445 40.10914596618386,36.1231463917502 40.248286657209974,36.00269430197659 40.45699769380735,35.92604287995346 40.439605107414536,35.76178959151002 40.300464416330215,35.66323746049602 40.31785700272303,35.46613284310297 40.30916070955573,35.356630073125416 40.50917545292759,35.37853063883813 40.674405023572035,35.37853063883813 40.83963459415827,35.400431198657316 40.97877528524259,35.37853063883813 41.15270114905434,35.33472950156283 41.300538133247755,35.27997804713959 41.31793071964057,34.99526989459264 41.36141218559351,34.524404241892626 41.42228623793926,34.15208995093417 41.44837511749938,33.86737788173923 41.44837511749938,33.67026894700393 41.46576770383399,33.484110073513875 41.483160290226806,33.31985189290572 41.30923442641506,33.2322473953609 41.07443451031577,33.22129682657396 40.89181235333672,33.14464280419634 40.71788648952497,33.07893929939746 40.44830140058184,33.03513693363493 40.117842259351164,32.958482737223676 39.82216829090612,32.90372969589225 39.517798029235564,32.80517412936024 39.18733888800489,32.76137161731458 38.900361212785356,32.673766523039376 38.735131642082706,32.55330936550308 38.4916354327579,32.575210680035525 38.187265171145555,32.564260023471434 37.882894909475,32.55330936550308 37.56982835457893,32.5314080451426 37.24806550657377,32.49855605359335 36.96978412446333,32.454753377744055 36.64802127645817,32.42190135548299 36.482791705813725,32.4109506784589 36.43931023986079,32.47665471858636 36.37843618757324,32.684717164920585 36.31756213522749,32.914680307076196 36.28277696244186,33.100840473533026 36.26538437610725,33.31985189290572 36.23059920326341,33.50601113936864 36.15233256458305,33.71407097346673 36.065369632677175,33.87832836424059 35.97840670082951,34.075436798797455 35.92622894170927,34.239693465635355 35.86535488930531,34.414900214185764 35.76099937100662,34.5901065883445 35.69142902549356,34.76531258811883 35.6131623868132,34.940518213457835 35.50880686851451,35.159524718648754 35.387058763823006,35.290928340946266 35.32618471153546,35.586585721153824 35.22182919323677,35.838441167070414 35.08268850221066,36.14504675270291 34.94354781112634,36.47355146503105 34.7783182405401,36.80205486117484 34.63917754951399,37.10865684346936 34.50873315165518,37.38240764456714 34.36089616740355,37.689007456712716 34.20436288998462,37.98465618984483 34.08261478529312,38.25840406628413 33.952170387492515,38.53215102877584 33.88260004192125,38.685448928619735 33.821725989633705,38.74019810907339 33.717370471335016,38.83874654185638 33.67388900538208,39.04679284420854 33.63040753942914,39.35338643292198 33.4564816756174,39.63807945312874 33.3434298641514,39.889922454734915 33.273859518638346,40.05416747385607 33.3434298641514,40.15271432741429 33.604318659810815,40.185563252271095 33.91738521470688,40.19651289095782 34.24784435593756,40.240311431152804 34.56091091077542,40.28410994792648 34.891370052006096,40.3388580609826 35.21313290001126,40.382656525151106 35.491414282121696,40.426454965876474 35.778391957399435,40.43740457239619 35.91753264848376,40.371706911297224 35.97840670082951,40.15271432741429 36.013191873556934,39.955620501874364 36.013191873556934,39.86802309402992 36.15233256458305,39.91182180963369 36.20451032370329,40.10891574045672 36.16102885780856,40.44835417747527 36.0914585122955,40.80969032449502 36.021888166782446,41.149125860625645 35.94362152804388,41.543307300671586 35.882747475698125,41.90463862276374 35.79578454379225,42.2331202612113 35.75230307789752,42.550651261015446 35.674036439158954,42.8462824658709 35.65664385276614,43.15286184887373 35.66534014593344,43.45944008569495 35.44793281616876,43.73316968578729 35.360969884262886,43.9850001108789 35.27400695241522,44.302524327184074 35.23922177962959,44.565302059214446 35.22182919323677,44.87187501565495 35.37836247071391,45.00326307470823 35.360969884262886,45.331732301434386 35.308792125142645,45.68209802646015 35.20443660690216,46.109104230010416 35.11747367493808,46.48136423443066 35.073992208985146,46.831725047915825 35.039207036199514,47.18208436462737 35.03051074309042,47.51054486468638 35.021814449864905,47.8390040492086 35.021814449864905,48.18935906275874 35.00442186347209,48.561609624703124 34.995725570304785,48.89006459977827 34.96094039751915,49.229466692086135 34.93485151795903,49.5141254284099 34.87397746561328,49.86447328605573 34.82179970649304,50.22576794678025 34.74353306775447,50.54326800140552 34.79571082687471,50.87171504037542 34.74353306775447,51.22205709888658 34.67396272224141,51.5723976608715 34.50003685842967,51.87894442502147 34.30871840828331,52.13074983849947 34.03913331939839,52.32781440541294 33.795637110073585,52.54677448004077 33.560837193916086,52.75478600952192 33.3434298641514,52.98469287568878 33.247770639078226,53.13796376178652 33.13471882761223,53.25839068566711 33.004274429695215,53.46640041044884 32.90861520462204,53.685357445516274 32.80425968632335,54.002844108203135 32.639030115737114,54.33127729364787 32.46510425192537,54.63781374687096 32.30857097450644,54.91150604061113 32.23030433582608,55.16330214430491 32.21291174937505,55.404149868038076 32.3868376131868,55.53552105562994 32.352052440459374,55.842053008462244 32.265089508495294,56.09384625562234 32.30857097450644,56.18142633430398 32.20421545620775,56.071951221325435 32.030289592396,56.31279627705226 31.838971142249648,56.64122021339426 31.647652692045085,56.84922135959641 31.412852775887586,57.09006413310999 31.273712084803265,57.396590276686766 31.204141739348415,57.6483787520192 31.038912168703973,57.88921917916741 30.917164064070676,57.93300827174244 30.66497156152036,57.93300827174244 30.412779059028253,57.90016645449941 30.117105090525,57.856377344360226 29.80403853574535,57.856377344360226 29.560542326362338,57.86732462407963 29.41270534216892,57.92206100079056 29.343134996597655,57.92206100079056 29.264868357859086,58.130058899150754 29.108335080440156,58.34900348555675 29.082246200938243,58.6117362178702 29.003979562199675,58.863520963343035 28.873535164340865,59.071516474527016 28.85614257794805,59.15909337409539 28.69960930052912,59.32329980878421 28.46480938437162,59.54224121037987 28.28218722739257,59.77212905313354 28.377846452465747,59.936334260688454 28.430024211644195,60.03485722740152 28.482201970764436,60.22095584181079 28.516987143550068,60.46178871602024 28.508290850324556,60.7026208831885 28.473505677538924,60.54936413135874 28.290883520559873,60.63693945320847 28.134350243140943,60.89966485778132 27.986513258947525,61.162389420947875" stroke="#4DD2FF" stroke-dasharray="none" stroke-linecap="round" stroke-linejoin="round" stroke-width="0.5"><title>2017-12-17 14.0km</title><desc>9223370523376934807</desc></polyline><polyline fill="none" opacity="1" points="100.66733928432222,32.39999999999418 100.66733928432222,32.67422269261442 100.65372011525324,33.034139088820666 100.62648177711526,33.39405447720492 100.51752842456335,33.71969134117535 100.62648177711526,33.87394009406853 100.68095845339121,34.62804244362633 100.64010094624246,34.90226038293622 100.8171501441393,35.21075486538757 100.87162682029884,35.50211008568294 100.926103496633,35.810603128455114 100.93972266570199,36.22192603390431 100.96696100383997,36.5818324964348 101.02143768011592,36.87318460906681 101.07591435639188,37.198812659233226 101.1712485398748,37.49016337338253 101.18486770888558,37.79865164507646 101.25296355428873,38.141415523103205 101.36191690684063,38.398487831727834 101.53896610467928,38.44990223181958 101.64791945717297,38.62128341678181 101.59344278101344,38.75838820026547 101.3891552449204,38.861216691861046 101.3891552449204,39.1011495191633 101.49810859753052,39.35821990855038 101.6343002882204,39.70097962804721 101.7432536407141,40.00946259414195 101.81134948605904,40.300806937986636 101.96116034581792,40.609288464678684 102.12459037458757,40.90063144908345 102.27440123434644,41.174836007659906 102.23354372719768,41.46617771025922 101.93392200767994,41.48331543694076 101.67515779536916,41.29480031810817 101.48448942840332,41.1576982398401 101.2802018924267,41.106284922832856 101.06229518732289,41.174836007659906 100.78991180588491,41.191973773165955 100.66733928432222,41.3462135597365 100.68095845339121,41.603279459508485 100.62648177711526,41.843207168829395 100.34047922672471,41.94603319290036 100.06809584534494,42.065996783654555 99.78209329483798,42.08313443037332 99.55056742078159,42.065996783654555 99.59142492793035,41.79179412596568 99.67313994234428,41.48331543694076 99.7684741258854,41.191973773165955 99.85018914029934,40.83208021800965 99.91828498558607,40.45504779386101 99.90466581651708,40.09515217560693 99.85018914029934,39.75239350715128 99.80933163303416,39.42677192555857 99.50970991351642,39.35821990855038 99.23732653219486,39.323943886338384 99.11475401063217,39.152563638141146 99.10113484150497,38.98118316150794 99.08751567237778,38.741250110280816 99.03303899621824,38.56986908528779 98.85598979826318,38.535592852844275 98.66532143129734,38.50131661129126 98.50189140246948,38.535592852844275 98.50189140246948,38.75838820026547 98.51551057159668,39.03259732849256 98.54274890973466,39.39249592163833 98.54274890973466,39.683841663761996 98.56998724787263,40.00946259414195 98.58360641688341,40.352220577173284 98.56998724787263,40.677839814539766 98.56998724787263,40.98632043645193 98.58360641688341,41.31193806763622 98.56998724787263,41.58614174887771 98.58360641688341,41.92889552794804 98.59722558601061,42.168822629522765 98.61084475502139,42.40874928330595 98.59722558601061,42.614400344420574 98.58360641688341,42.888601247541374 98.55636807880364,43.145664063005825 98.52912974060746,43.31703898770502 98.50189140246948,43.55696349851496 98.4882722334587,43.79688756153337 98.4746530643315,44.036811176818446 98.4746530643315,44.24245963347494 98.4746530643315,44.550931701640366 98.4882722334587,44.859403029695386 98.4746530643315,45.21928531018784 98.4746530643315,45.544892219724716 98.4746530643315,45.83622401866887 98.4882722334587,46.11041804989509 98.50189140246948,46.47029682833818 98.50189140246948,46.830174599352176 98.50189140246948,47.052955571823986 98.4882722334587,47.361420896384516 98.4882722334587,47.54992711923842 98.44741472625174,47.82411749546009 98.4746530643315,48.06403359491378 98.50189140246948,48.32108606182737 98.54274890973466,48.62954834368429 98.59722558601061,48.92087315254321 98.62446392409038,49.280744063842576 98.69255976949353,49.65775060468877 98.78789395291824,50.03475604012783 98.89684730547015,50.326077664794866 99.00580065802205,50.60026212033699 99.11475401063217,50.925855401714216 99.22370736312587,51.21717500730301 99.31904154655058,51.388539172767196 99.38713739189552,51.594175869831815 99.49609074450564,51.7998122380377 99.60504409699934,52.022584599093534 99.64590160426451,52.26249286388338 99.67313994234428,52.41671936912462 99.83656997117214,52.553809440811165 99.93190415465506,52.69089936619275 100.05447667621775,52.879397774944664 100.17704919783864,53.05075972495251 100.28600255044876,53.27352991848602 100.42219424113864,53.46202747308416 100.59924343903549,53.65052475129778 100.78991180588491,53.89042997843353 100.98058017285075,54.16460683279729 101.14401020167861,54.40451110069989 101.2665827232995,54.610142974051996 101.32105939963367,54.74723070692562 101.49810859753052,55.03854165392113 101.67515779536916,55.26130840333644 101.83858782419702,55.51834648079239 102.00201785296667,55.8096556806704 102.15182871272555,56.04955687910842 102.30163957248442,56.30659338073747 102.46506960131228,56.58076508277736 102.64211879926734,56.87207187562308 102.81916799710598,57.18051364272833 103.00983636401361,57.47181907680351 103.18688556196867,57.745988294132985 103.3775539289345,58.02015692691202 103.56822229584213,58.34573141900182 103.77250983193517,58.67130508668197 103.9495590297156,58.94547174643958 104.12660822767066,59.23677318182308 104.27641908737132,59.51093863585265 104.4262299471302,59.750832928562886 104.57604080688907,59.97359151390265 104.73947083571693,60.247755396791035 104.91652003355557,60.521918695187196 105.05271172430366,60.74467594464659 105.2297609221423,60.98456793563673 105.42042928910814,61.258729662920814 105.583859317936,61.55002585775219 105.73367017763667,61.77278132617357 105.89710020652274,62.08121133770328 106.07414940441959,62.406775547235156 106.26481777132722,62.73233893251745 106.44186696922407,63.023631789081264 106.61891616706271,63.31492398571572 106.85044204123551,63.6404850717081 107.01387207006337,63.914641136390856 107.15006376081146,64.15452721348265 107.3271129586501,64.41154751379509 107.50416215654695,64.71997119602747 107.6812113544438,65.06266330872313 107.85826055234065,65.38821996979823 107.98083307390334,65.62810329794593 108.1442631027312,65.97079299048346 108.2668356243521,66.27921293290274 108.375788976904,66.63903526420472 108.43026565317996,66.86178191710496 108.43026565317996,67.03312523369095 108.29407396249007,67.22160261825775 108.30769313150086,67.1873340234306 108.43026565317996,67.13593111408409 108.56645734381163,67.27300549337815 108.64817235822557,67.49575104813266 108.74350654170848,67.769898893559 108.8524598943186,68.07831452105893 108.97503241588129,68.42099768410844 109.09760493750218,68.76367993395252 109.22017745906487,69.123495313499 109.27465413539903,69.29483561661618 109.39722665701993,69.62038156355266 109.51979917858262,69.92879275302403 109.62875253119273,70.16866761133133 109.72408671461744,70.45994362338388 109.80580172903137,70.71695132147579 109.86027840530733,70.9568247096031 109.95561258873204,71.2480989365722 110.06456594134215,71.53937250377203 110.17351929383585,71.86491276882589 110.25523430824978,72.12191765912576 110.3641876608599,72.44745644950308 110.45952184428461,72.70446017563518 110.56847519689472,72.99573044433782 110.69104771845741,73.26986656527151 110.78638190194033,73.56113555340562 110.92257359257201,73.88667070066731 111.01790777611313,74.14367155070067 111.14048029773403,74.43493855987617 111.22219531208975,74.64053840446286 111.31752949557267,74.89753774802375 111.44010201719357,75.06887035843101 111.48095952440053,75.18880304985214 111.46734035533154,75.4115348944033 111.4128636791138,75.60000000000582 111.22219531208975,75.4972008857003 111.03152694518212,75.24020274047507 110.84085857821628,74.96607081955881 110.62295187311247,74.69193831423763 110.35056849179091,74.36640520530636 110.06456594134215,74.09227142180316 109.81942089810036,73.86953729242668 109.57427585485857,73.61253589463013 109.34274998068577,73.3898009343975 109.0839857684332,73.08139804487291 108.8388407251914,72.87579570770322 108.59369568200782,72.63592589882319 108.32131230062805,72.34465481522784 108.07616725738626,72.10478401572618 107.81740304507548,71.86491276882589 107.51778132555773,71.59077365307894 107.25901711330516,71.38516893271299 106.93215705570765,71.19669765031722 106.6325353361899,71.09389501625265 106.2920561094652,71.0082260917552 105.96519605180947,70.9739585059433 105.61109765601577,70.8882895015413 105.27061842934927,70.80262044003757 104.98461587895872,70.75121897575445 104.657755821303,70.66554982296657 104.34451493271627,70.66554982296657 103.96317819878459,70.56274676426256 103.59546063398011,70.45994362338388 103.472888112301,70.4256758915435 103.2686005763826,70.37427427656075 103.09155137842754,70.35714040037419 102.87364467332372,70.32287264107435 102.6829763064161,70.28860487265047 102.49230793945026,70.271470984997 102.31525874155341,70.22006930844509 102.0837328673806,70.16866761133133 101.85220699326601,70.13439980181283 101.68877696443815,70.06586415541824 101.49810859753052,70.01446239666257 101.21210604702355,69.89452487959352 100.85800765128806,69.75745329463098 100.50390925555257,69.62038156355266 100.19066836696584,69.51757766933588 99.89104664744809,69.43190769472858 99.56418658979237,69.34623766300501 99.22370736312587,69.24343354960729 98.86960896733217,69.14062935410766 98.4882722334587,69.05495912837796 98.12055466859601,68.90075257823628 97.84817128721625,68.84935035376111 97.46683455334278,68.74654584318341 97.16721283388324,68.59233892319025 96.89482945250347,68.50666833220748 96.63606524013449,68.42099768410844 96.33644352067495,68.31819283105142 96.00958346301923,68.18111956586654 95.66910423629452,67.99264358764049 95.35586334770778,67.769898893559 95.04262245917926,67.58142231259262 94.7702390778577,67.2901397804817 94.56595154182287,66.98172226270253 94.4161406821222,66.7247070994199 94.33442566770827,66.46769142251287 94.22547231509816,66.29634735250147 94.0620422863285,66.03933081938885 93.96670810278738,65.86798617863678 93.8305164120975,65.59383427847933 93.65346721420065,65.28541269220295 93.476418016362,64.94272117316723 93.32660715666134,64.5657594473887 93.12231962062651,64.1716619161889 92.91803208453348,63.76042842194147 92.72736371762585,63.38346323023143 92.57755285786698,63.10930603306042 92.42774199816631,62.73233893251745 92.23707363114227,62.33823578215379 92.06002443330362,61.94413142389385 91.855736897327,61.532890805756324 91.65144936129218,61.121648872387595 91.47440016333712,60.72754078533035 91.2701126273023,60.350566702196375 91.07944426045287,59.95645625177713 90.9160142315668,59.57947990797402 90.73896503366996,59.20250245895295 90.5755350048421,58.859794728050474 90.42572414514143,58.517086083695176 90.24867494724458,58.208647522798856 90.15334076376166,57.91734375814849 90.04438741120975,57.59176818134438 89.92181488958886,57.2319205320091 89.84009987523314,56.837800522422185 89.758384860761,56.44367930482258 89.71752735361224,56.152371541407774 89.66305067727808,55.72397657275724 89.60857400106033,55.31271605998336 89.58133566286415,54.95286203213618 89.54047815565718,54.524463066787575 89.48600147938123,54.21601492786431 89.48600147938123,53.89042997843353 89.47238231037045,53.496299726029974 89.44514397223247,53.170712954044575 89.47238231037045,52.8108529310266 89.48600147938123,52.36531055462547 89.47238231037045,52.022584599093534 89.44514397223247,51.662721362445154 89.34980978874955,51.31999353397987 89.28171394340461,50.874445991110406 89.2953331124736,50.5317160612467 89.26809477427742,50.13757551241724 89.22723726712866,49.81198023464822 89.18637975986348,49.50352078981814 89.13190308364574,49.12651379661111 89.19999892899068,48.73236893984722 89.26809477427742,48.32108606182737 89.26809477427742,47.99548618364497 89.26809477427742,47.772706844465574 89.30895228154259,47.601337859319756 89.28171394340461,47.361420896384516 89.22723726712866,47.052955571823986 89.21361809805967,46.7444895071676 89.17276059091091,46.40174856723752 89.14552225271473,46.041869596912875 89.13190308364574,45.75053826397925 89.05018806923181,45.35638305678731 89.02294973109383,44.96222664123343 88.99571139295585,44.550931701640366 88.96847305481788,44.20818491349928 88.92761554761091,43.882574618415674 88.88675804040395,43.4884136840119 88.85951970232418,43.33417646760063 88.87313887133496,42.974288909797906 88.88675804040395,42.614400344420574 88.85951970232418,42.27164839308534 88.83228136406979,41.99744617410761 88.79142385692103,41.637554873974295 88.73694718070328,41.27766256635368 88.73694718070328,40.91776925110025 88.76418551884126,40.609288464678684 88.76418551884126,40.23225538707629 88.68247050436912,39.820945313957054 88.66885133530013,39.512461895428714 88.64161299722036,39.16970167327963 88.68247050436912,38.94690703875676 88.68247050436912,38.80980245638057 88.65523216623114,38.552730970230186 88.64161299722036,38.27852081836318 88.62799382815138,37.97003369832237 88.54627881373744,37.64440760175057" stroke="#4DD2FF" stroke-dasharray="none" stroke-linecap="round" stroke-linejoin="round" stroke-width="0.5"><title>2017-11-19 11.8km</title><desc>9223370525802103807</desc></polyline><polyline fill="none" opacity="0.5" points="179.44635761575773,69.6464682490332 178.44503311254084,69.56166545592714 177.30066225142218,69.6464682490332 176.2993377482053,69.39205984165892 175.22649006615393,69.56166545592714 174.08211920503527,69.73127103241859 172.86622516531497,69.30725702043856 171.86490066186525,69.1376513496507 171.00662251608446,68.96804564114427 170.0052980131004,68.96804564114427 169.07549668871798,68.62883411115035 168.00264900643378,68.62883411115035 167.00132450298406,68.4592282892554 166.14304635720327,68.71363700769143 164.64105960261077,68.0352135701105 163.42516556265764,67.86560761643341 162.2807947017718,67.78080462559592 160.99337748321705,67.86560761643341 160.4927152316086,67.9504105981323 159.13377483421937,68.28962242975831 157.41721854289062,67.52639559615636 156.20132450317033,66.5087586294976 155.12847682088614,66.76316799828783 153.91258278116584,66.33915233658627 152.8397350993473,66.1695460054907 151.98145695356652,66.33915233658627 151.12317880778573,66.08474282606039 150.26490066200495,65.74553001351887 149.1920529799536,65.83033323090058 148.26225165533833,66.25434917578241 146.6887417214457,65.74553001351887 145.83046357589774,65.2367105120793 145.40132450312376,64.30387387739029 144.82913907268085,63.37103610194754 144.75761589361355,62.01417911949102 144.9006622515153,60.8269272792968 144.9006622515153,59.470065770612564 144.75761589361355,58.28280997055117 144.75761589361355,56.67153128562495 144.54304635734297,55.823488505149726 144.39999999990687,54.5514225664665 144.6860927150119,53.36415910971118 144.6860927150119,52.34650324709946 144.97218543011695,51.498455657681916 144.75761589361355,50.395992381556425 145.11523178755306,49.20872245612554 145.04370860918425,47.93664548493689 145.25827814568765,47.17339828360127 145.3298013242893,45.64690158999292 145.25827814568765,44.29001307481667 145.3298013242893,43.10273364390014 145.40132450312376,42.1698699372937 145.61589403962716,41.067393176606856 145.83046357589774,39.88010872894665 145.61589403962716,38.692822432669345 145.61589403962716,37.84475966083119 145.4728476817254,36.827083089970984 145.61589403962716,37.84475966083119 145.61589403962716,38.692822432669345 145.83046357589774,39.88010872894665 145.61589403962716,41.067393176606856 145.40132450312376,42.1698699372937 145.3298013242893,43.10273364390014 145.25827814568765,44.29001307481667 145.3298013242893,45.64690158999292 145.25827814568765,47.17339828360127 145.04370860918425,47.93664548493689 145.11523178755306,49.20872245612554 144.75761589361355,50.395992381556425 144.97218543011695,51.498455657681916 144.6860927150119,52.34650324709946 144.6860927150119,53.36415910971118 144.39999999990687,54.5514225664665 144.54304635734297,55.823488505149726 144.75761589361355,56.67153128562495 144.75761589361355,58.28280997055117 144.9006622515153,59.470065770612564 144.9006622515153,60.8269272792968 144.75761589361355,62.01417911949102 144.82913907268085,63.37103610194754 145.40132450312376,64.30387387739029 145.83046357589774,65.2367105120793 146.6887417214457,65.74553001351887 148.26225165533833,66.25434917578241 149.1920529799536,65.83033323090058 150.26490066200495,65.74553001351887 151.12317880778573,66.08474282606039 151.98145695356652,66.33915233658627 152.8397350993473,66.1695460054907 153.91258278116584,66.33915233658627 155.12847682088614,66.76316799828783 156.20132450317033,66.5087586294976 157.41721854289062,67.52639559615636 159.13377483421937,68.28962242975831 160.4927152316086,67.9504105981323 160.99337748321705,67.86560761643341 162.2807947017718,67.78080462559592 163.42516556265764,67.86560761643341 164.64105960261077,68.0352135701105 166.14304635720327,68.71363700769143 167.00132450298406,68.4592282892554 168.00264900643378,68.62883411115035 169.07549668871798,68.62883411115035 170.0052980131004,68.96804564114427 171.00662251608446,68.96804564114427 171.86490066186525,69.1376513496507 172.86622516531497,69.30725702043856 174.08211920503527,69.73127103241859 175.22649006615393,69.56166545592714 176.2993377482053,69.39205984165892 177.30066225142218,69.6464682490332 178.44503311254084,69.56166545592714 179.44635761575773,69.6464682490332 180.37615894014016,69.47686265356606 181.52052980125882,69.81607380660716 182.4503311254084,69.90087657124968 183.59470198652707,69.98567932634614 184.5960264899768,70.91850901214639 185.66887417226098,71.17291691008722 186.5986754966434,71.17291691008722 187.5999999998603,71.17291691008722" stroke="#4DD2FF" stroke-dasharray="1,0.5" stroke-linecap="round" stroke-linejoin="round" stroke-width="0.5"><title>2014-03-22 10.5km</title><desc>9223370641410674807</desc></polyline><polyline fill="none" opacity="1" points="55.600000000034925,100.9229557402432 55.50000000005821,100.9229557402432 55.36999999999534,100.91078544354241 55.22000000003027,100.91078544354241 55.0800000000163,100.88644484570978 54.98000000003958,100.8012527067549 54.87000000005355,100.8012527067549 54.76000000000931,100.8012527067549 54.61000000004424,100.83776363226934 54.47000000003027,100.83776363226934 54.34000000002561,100.83776363226934 54.210000000020955,100.82559332524397 54.05999999999767,100.8012527067549 53.93000000005122,100.81342301676341 53.79000000003725,100.82559332524397 53.64000000001397,100.81342301676341 53.52000000001863,100.82559332524397 53.410000000032596,100.82559332524397 53.26000000000931,100.83776363226934 53.15000000002328,100.82559332524397 53.020000000076834,100.78908239531302 52.89000000001397,100.76474176795455 52.76000000006752,100.78908239531302 52.630000000062864,100.81342301676341 52.53000000002794,100.81342301676341 52.36999999999534,100.77691208237957 52.25,100.76474176795455 52.14000000001397,100.76474176795455 52.02000000001863,100.75257145209616 51.86999999999534,100.76474176795455 51.71999999997206,100.76474176795455 51.600000000034925,100.78908239531302 51.460000000020955,100.75257145209616 51.34999999997672,100.75257145209616 51.210000000020955,100.75257145209616 51.09000000002561,100.74040113476076 50.940000000060536,100.71606049563707 50.80999999999767,100.69171985062712 50.64000000001397,100.71606049563707 50.490000000048894,100.71606049563707 50.350000000034925,100.74040113476076 50.19000000000233,100.72823081594834 50.070000000006985,100.72823081594834 49.960000000020955,100.71606049563707 49.8300000000163,100.74040113476076 49.710000000020955,100.72823081594834 49.5800000000163,100.71606049563707 49.440000000060536,100.72823081594834 49.3300000000163,100.72823081594834 49.19000000000233,100.72823081594834 49.05999999999767,100.76474176795455 48.940000000060536,100.75257145209616 48.820000000006985,100.76474176795455 48.68000000005122,100.75257145209616 48.54000000003725,100.75257145209616 48.42000000004191,100.75257145209616 48.28000000002794,100.75257145209616 48.17000000004191,100.75257145209616 48.050000000046566,100.75257145209616 47.929999999993015,100.75257145209616 47.78000000002794,100.72823081594834 47.65000000002328,100.69171985062712 47.52000000001863,100.71606049563707 47.38000000000466,100.70389017389243 47.23000000003958,100.69171985062712 47.100000000034925,100.70389017389243 46.97000000003027,100.70389017389243 46.84000000002561,100.74040113476076 46.710000000020955,100.72823081594834 46.570000000006985,100.71606049563707 46.43000000005122,100.70389017389243 46.300000000046566,100.70389017389243 46.17000000004191,100.67954952589207 46.01000000006752,100.69171985062712 45.90000000002328,100.66737919972365 45.75,100.67954952589207 45.600000000034925,100.67954952589207 45.47000000003027,100.70389017389243 45.32000000006519,100.66737919972365 45.17000000004191,100.63086821233446 45.02000000001863,100.63086821233446 44.88000000000466,100.6065275466899 44.75000000005821,100.59435721163754 44.61000000004424,100.6065275466899 44.51000000000931,100.6065275466899 44.36999999999534,100.63086821233446 44.25,100.66737919972365 44.13000000000466,100.69171985062712 43.98000000003958,100.69171985062712 43.850000000034925,100.69171985062712 43.72000000003027,100.66737919972365 43.600000000034925,100.66737919972365 43.490000000048894,100.69171985062712 43.3300000000163,100.67954952589207 43.210000000020955,100.66737919972365 43.0800000000163,100.69171985062712 42.95000000001164,100.66737919972365 42.820000000006985,100.64303854295576 42.67000000004191,100.64303854295576 42.550000000046566,100.63086821233446 42.429999999993015,100.61869788022886 42.27000000001863,100.58218687515182 42.14000000001397,100.63086821233446 41.98000000003958,100.6065275466899 41.850000000034925,100.59435721163754 41.73000000003958,100.6065275466899 41.5800000000163,100.6065275466899 41.44000000000233,100.59435721163754 41.30999999999767,100.59435721163754 41.15000000002328,100.6065275466899 41.04000000003725,100.61869788022886 40.89000000001397,100.64303854295576 40.78000000002794,100.5700165371818 40.63000000000466,100.5700165371818 40.51000000000931,100.5700165371818 40.37000000005355,100.55784619772021 40.23000000003958,100.5700165371818 40.11000000004424,100.59435721163754 39.97000000003027,100.55784619772021 39.84000000002561,100.5700165371818 39.70000000001164,100.5456758568107 39.56000000005588,100.5456758568107 39.44000000000233,100.53350551443145 39.3300000000163,100.4848241301006 39.20000000001164,100.4848241301006 39.070000000006985,100.49699447838066 38.9199999999837,100.52133517054608 38.79000000003725,100.50916482518369 38.67000000004191,100.55784619772021 38.54000000003725,100.55784619772021 38.38000000000466,100.55784619772021 38.25000000005821,100.5700165371818 38.12000000005355,100.53350551443145 38.00000000005821,100.53350551443145 37.89000000001397,100.5456758568107 37.75,100.53350551443145 37.600000000034925,100.5456758568107 37.47000000003027,100.50916482518369 37.31000000005588,100.49699447838066 37.210000000020955,100.50916482518369 37.070000000006985,100.50916482518369 36.77000000001863,100.52133517054608 36.48000000003958,100.49699447838066 36.31000000005588,100.4361427221811 35.92000000004191,100.5456758568107 35.59000000002561,100.52133517054608 35.350000000034925,100.44831307637651 35.13000000000466,100.44831307637651 34.86999999999534,100.39963165083464 34.679999999993015,100.41180200941744 34.39000000001397,100.41180200941744 34.12000000005355,100.5456758568107 33.86000000004424,100.47265378033626 33.550000000046566,100.61869788022886 29.720000000030268,100.39963165083464 29.470000000030268,100.31443909934023 29.240000000048894,100.36312056614406 28.900000000023283,100.39963165083464 28.62000000005355,100.31443909934023 28.300000000046566,100.2657576089041 28.06000000005588,100.22924647563195 24.79999999998836,100.2657576089041 24.510000000009313,100.24141685488576 24.180000000051223,100.2170760949084 23.940000000060536,100.25358723263344 23.710000000020955,100.18056494397024 23.39000000001397,100.14405377975345 23.09000000002561,100.19273532908119 22.800000000046566,100.18056494397024 20.290000000037253,100.1562241692809 19.92000000004191,100.18056494397024 19.720000000030268,100.18056494397024 19.53000000002794,100.16839455738227 19.460000000020955,100.1562241692809 19.28000000002794,100.10754260225804 19.070000000006985,100.1562241692809 18.849999999976717,100.14405377975345 18.660000000032596,100.07103141155676 18.429999999993015,100.0588610116829 18.180000000051223,100.0588610116829 17.92000000004191,100.13188338874897 17.820000000006985,100.01017939748999 16.660000000032596,100.11971299623838 16.410000000032596,100.07103141155676 16.210000000020955,100.07103141155676 15.910000000032596,100.0588610116829 15.630000000004657,100.0832018099245 15.369999999995343,100.0832018099245 15.080000000016298,100.0953722068225 14.830000000016298,100.02234980322828 14.580000000016298,100.0588610116829 14.349999999976717,100.02234980322828 14.020000000018626,100.0345202075332 13.830000000016298,99.98583858156053 13.470000000030268,100.04669061031746 13.120000000053551,99.99800899028196 13.000000000058208,100.07103141155676 13.059999999997672,100.338779835678 13.050000000046566,100.50916482518369 13.090000000025611,100.78908239531302 12.929999999993015,100.87427454456338 12.870000000053551,100.66737919972365 12.78000000002794,100.50916482518369 12.610000000044238,100.5700165371818 12.480000000039581,100.81342301676341 12.400000000023283,100.94729632930103 12.430000000051223,101.26372345022537 12.480000000039581,101.5558091393832 12.540000000037253,101.8357237950986 12.600000000034925,102.13997797165939 12.650000000023283,102.43206111485779 12.720000000030268,102.65112291533296 12.740000000048894,102.85801417744369 12.760000000009313,103.08924508421478 12.790000000037253,103.39349546704034 12.840000000025611,103.63689511028497 12.850000000034925,103.90463403720787" stroke="#4DD2FF" stroke-dasharray="none" stroke-linecap="round" stroke-linejoin="round" stroke-width="0.5"><title>2013-12-10 10.9km</title><desc>9223370650177580807</desc></polyline><polyline fill="none" opacity="1" points="100.98649748973548,123.60000000009313 102.95949247013777,120.90002202941105 105.67236056830734,118.50003914698027 107.39873117487878,114.30006351554766 107.39873117487878,111.000077677425 108.63185303844512,106.80008935462683 109.12510178331286,103.50009354273789 109.86497490108013,99.60009283642285 110.85147239174694,95.10008440492675 110.85147239174694,92.40007542958483 110.6048480188474,87.90005394280888 109.37172615621239,84.30003087897785 107.89197992067784,81.90001260116696 104.43923870567232,81.00000514904968 101.97299498040229,80.4000000001397 98.02700501959771,80.70000259252265 94.82088817749172,82.50001738872379 91.61477133538574,85.5000391472131 89.14852760918438,88.80005889339373" stroke="#4DD2FF" stroke-dasharray="none" stroke-linecap="round" stroke-linejoin="round" stroke-width="0.5"><title>2013-11-30 10.3km</title><desc>9223370651086224807</desc></polyline><polyline fill="none" opacity="1" points="167.0377443637699,122.47793225129135 170.7275021020323,120.51431238441728 174.4172598393634,116.58706766623072 175.339699273929,115.18447865638882 177.1845781430602,112.65981630119495 176.49274856690317,107.32996453368105 175.80091899074614,106.20788891729899 176.03152885008603,102.28061998845078 177.41518800146878,97.2312644557096 177.41518800146878,96.10918395733461 175.80091899074614,93.02345978678204 178.1070175776258,90.49877332313918 176.49274856690317,89.37668956816196 174.87847955711186,86.8519991368521 172.80299082957208,83.7662626572419 170.95811196044087,83.20521922083572 167.9601837983355,80.4000000001397 163.34798662550747,82.64417564729229 160.11944860499352,86.01043504965492 157.12152044288814,89.09616854530759 155.96847114898264,91.05981499678455 155.73786129057407,95.5481435037218 157.3521303012967,99.75594359473325 155.5072514321655,103.40269750310108 154.58481199666858,105.92736992868595 155.2766415728256,108.17152088950388 154.35420214012265,111.25722491787747 154.58481199666858,114.34292484284379 154.58481199666858,117.98965582833625 156.66030072513968,119.39224314200692 159.4276190288365,121.35586395906284 162.88676690869033,122.75844923895784 165.8846950698644,123.60000000009313 169.11323309037834,123.03896619309671 171.88055139407516,120.79482960957102 174.4172598393634,117.98965582833625 176.03152885008603,114.0624068370089 176.26213870756328,110.97670653951354 176.49274856690317,107.89100213861093 176.49274856690317,104.52477447572164 175.80091899074614,101.15854193037376 176.49274856690317,97.79230450256728 176.72335842624307,94.98710291530006 177.64579785987735,91.62085653445683 177.1845781430602,88.5351263966877 175.80091899074614,85.72991361888126 173.95604012254626,83.7662626572419 171.88055139407516,82.92469745082781 168.6520133735612,82.08313193893991 165.8846950698644,82.08313193893991 162.65615704935044,83.7662626572419 160.81127818115056,84.32730595883913 158.73578945267946,86.57147780805826 157.12152044288814,88.5351263966877 156.89091058447957,91.62085653445683 155.96847114898264,95.5481435037218 156.4296908667311,98.63386431708932 155.73786129057407,102.56113941781223 155.73786129057407,104.52477447572164 155.2766415728256,109.01307694031857 153.8929824223742,112.94033447606489 154.35420214012265,116.86758536635898 155.73786129057407,118.83120831870474 159.65822888724506,119.95327783143148 162.88676690869033,122.19741522870027 166.11530492920429,122.19741522870027 169.5744528081268,120.51431238441728 171.88055139407516,118.83120831870474 173.72543026320636,115.74551436118782 175.339699273929,111.81826157215983" stroke="#4DD2FF" stroke-dasharray="none" stroke-linecap="round" stroke-linejoin="round" stroke-width="0.5"><title>2013-11-16 10.4km</title><desc>9223370652294258807</desc></polyline><polyline fill="none" opacity="1" points="37.91877789516002,171.60000000009313 38.898472368717194,169.81242881086655 41.59263217076659,167.4289985424839 41.837555789388716,163.25799002568237 41.837555789388716,160.57662368076853 42.81725026294589,155.51181262545288 44.77663921099156,150.4469911607448 45.02156282868236,146.2759539054241 45.51141006499529,142.99870539549738 45.26648644730449,138.82765553472564 45.51141006499529,135.84832988446578 44.28679197281599,132.5710675085429 40.12309045996517,129.8896677782759 36.44923618528992,128.9958672192879 32.775381908752024,128.9958672192879 28.856604014523327,130.4855346365366 26.16244421247393,132.27313434891403 24.93782612029463,136.44419530197047 23.223360791802406,141.21111346269026 23.223360791802406,144.19043263047934 22.978437173180282,146.87181680253707 22.243666318245232,151.04285304970108 22.488589935936034,154.9159518161323 22.243666318245232,157.8952544182539 22.488589935936034,162.9600605755113 23.468284409493208,165.3434951666277 25.917520594783127,167.4289985424839 30.57106934301555,171.3020715592429 34.48984723817557,171.3020715592429 38.16370151285082,170.11035743285902 40.368014079518616,168.9186427302193 43.062173881568015,165.64142432785593 43.796944736503065,162.9600605755113 43.55202111881226,158.78904449613765 44.04186835605651,154.02216033334844 45.02156282868236,151.04285304970108 45.75633368361741,147.4676795557607 45.75633368361741,143.8925008759834 46.00125730223954,139.721452528378 45.51141006499529,135.84832988446578 43.30709750019014,132.5710675085429 40.61293769814074,130.4855346365366 36.44923618528992,128.4000000001397 32.775381908752024,128.9958672192879 29.346451251767576,130.4855346365366 26.16244421247393,131.9752011538949 23.468284409493208,134.9545314866118 22.733513554558158,140.31731700943783 22.978437173180282,143.8925008759834 22.488589935936034,147.4676795557607 23.958131646737456,151.04285304970108 22.243666318245232,156.70353380939923 21.50889546237886,160.57662368076853 22.243666318245232,164.44970746454783 22.488589935936034,166.53521159733646 26.16244421247393,168.9186427302193 29.10152763314545,170.40828601876274 34.00000000093132,171.00414308113977 37.42893065791577,170.40828601876274 40.61293769814074,168.9186427302193 42.81725026294589,165.93935345299542 43.55202111881226,162.3642015676014 44.531715591438115,158.78904449613765 45.02156282868236,155.21388223860413 45.26648644730449,151.9366456135176 45.75633368361741,148.9573358085472 46.00125730223954,145.3821592896711 46.49110453855246,139.42352023301646 46.00125730223954,135.84832988446578 44.28679197281599,133.1669337186031 41.102784934453666,130.4855346365366 38.40862513240427,129.2938007749617" stroke="#4DD2FF" stroke-dasharray="none" stroke-linecap="round" stroke-linejoin="round" stroke-width="0.5"><title>2013-11-03 10.7km</title><desc>9223370653417861807</desc></polyline><polyline fill="none" opacity="1" points="91.59503732062876,143.37608870584518 90.88475878350437,145.96809450211003 90.1744802473113,149.712097896263 89.46420171111822,153.4560954067856 88.51716366223991,155.7600909504108 88.28040415141732,159.2160800890997 88.28040415141732,162.96006266516633 89.70096122287214,167.28003524802625 92.77883488032967,169.5840174248442 97.27726561017334,171.31200259411708 100.59189877938479,171.60000000009313 104.3800509730354,170.16001262003556 107.69468414224684,167.28003524802625 108.16820316575468,162.6720642137807 110.29903877526522,158.06408426584676 110.53579828795046,154.60809345706366 110.53579828795046,151.44009747868404 110.77255779877305,147.1200961722061 111.00931731145829,142.80008703446947 112.19311487209052,139.0560727783013 112.42987438477576,135.3120526385028 110.29903877526522,132.7200352489017 108.87848170287907,130.41601742454804 105.80060804635286,128.9760051521007 102.01245585177094,128.4000000001397 98.22430365905166,129.2640076763928 94.90967048984021,129.84001261997037 89.70096122287214,133.8720433257986 88.99068268761039,135.0240508459974 88.99068268761039,136.46405946207233 90.1744802473113,139.63207535468973 89.93772073462605,143.66408948926255 88.51716366223991,147.69609680003487 88.51716366223991,150.57609784416854 87.57012561522424,154.32009399705566 87.57012561522424,157.48808614653535" stroke="#4DD2FF" stroke-dasharray="none" stroke-linecap="round" stroke-linejoin="round" stroke-width="0.5"><title>2013-11-02 10.5km</title><desc>9223370653505000807</desc></polyline><polyline fill="none" opacity="1" points="157.5654342258349,164.85005507571623 160.67290582694113,167.0100396713242 164.22430194169283,168.3600289823953 167.7756980592385,168.3600289823953 169.77335837297142,167.82003335561603 172.65886771772057,165.66004954348318 174.6565280323848,162.96006684168242 175.54437706060708,159.18008557590656 175.54437706060708,155.94009654247202 175.7663393188268,152.70010280935094 175.54437706060708,149.46010437584482 175.54437706060708,146.49010168295354 176.43222609069198,142.98009340977296 176.87615060433745,140.01008210144937 176.43222609069198,137.31006839242764 175.32241480425,134.34004954481497 173.99064126145095,132.72003759886138 170.4392451448366,130.56001984444447 167.7756980592385,128.4000000001397 165.3341132281348,129.48001018329524 162.0046793706715,130.8300221778918 159.78505679685622,132.45003549358808 158.67524551134557,135.69005860155448 158.2313209977001,138.12007284793071 157.7873964831233,141.63008875912055 156.45562293939292,144.33009724435396 156.01169842481613,146.76010209089145 156.23366068210453,150.81010429398157 157.7873964831233,154.32010026299395 154.90188713837415,155.13009854895063 155.12384939659387,156.21009580790997 154.45796262472868,157.56009164638817 154.90188713837415,163.23006525845267 160.22898131329566,166.20004569296725 165.77803774364293,167.55003549298272 167.1098112873733,167.55003549298272 169.10747160110623,167.55003549298272 171.77101868763566,168.3600289823953 173.99064126145095,164.0400603134185 174.6565280323848,162.96006684168242 174.8784902896732,160.5300796192605 175.54437706060708,159.18008557590656 173.54671674594283,158.91008666879497 174.8784902896732,158.10008975397795 176.2102638334036,155.94009654247202 175.9883015761152,150.81010429398157 176.2102638334036,149.46010437584482 175.7663393188268,146.2201012421865 176.2102638334036,142.1700907170307 175.7663393188268,136.7700652598869 175.32241480425,133.26004171161912 173.54671674594283,129.75001264712773 169.55139611661434,129.48001018329524 165.77803774364293,129.21000768686645 162.6705661425367,130.56001984444447 159.78505679685622,132.72003759886138 156.67758519575,133.26004171161912 156.45562293939292,137.58006991050206 156.23366068210453,140.55008445074782 156.01169842481613,144.0600965428166 154.90188713837415,147.57010311936028 155.34581165295094,151.62010385282338 155.12384939659387,155.13009854895063 154.90188713837415,159.18008557590656 154.90188713837415,161.61007426702417 158.45328325405717,165.66004954348318 164.00233968626708,168.63002674723975 166.44392451550812,169.98001507879235 169.32943385839462,171.60000000009313 173.32475448958576,167.82003335561603 175.1004525469616,162.69006839231588 175.54437706060708,159.7200832911767 175.54437706060708,158.6400877290871 175.1004525469616,153.24010209064 174.8784902896732,148.92010417976417 175.32241480425,146.2201012421865 175.54437706060708,142.98009340977296 177.09811286255717,138.93007700890303 175.7663393188268,135.96006031497382 174.43456577509642,134.34004954481497 172.88082997407764,130.8300221778918 170.21728288847953,130.02001507859677 166.0,129.75001264712773 162.0046793706715,130.56001984444447 159.78505679685622,130.8300221778918 156.89954745396972,132.72003759886138 154.90188713837415,135.69005860155448 154.67992488108575,138.39007426798344 155.34581165295094,139.7400808769744 154.23600036650896,142.71009254432283 154.67992488108575,145.95010076928884 154.90188713837415,147.57010311936028 154.45796262472868,150.27010442432947 154.90188713837415,153.78010124200955 154.67992488108575,157.02009340864606 154.90188713837415,161.34007565444335 157.5654342258349,166.20004569296725 161.7827171124518,168.63002674723975 163.11449065618217,168.3600289823953 166.0,169.98001507879235 167.99766031466424,169.1700221770443 171.1051319167018,171.33000259427354 173.32475448958576,168.63002674723975 174.8784902896732,162.42006990942173 173.99064126145095,158.37008875748143 175.1004525469616,151.35010403278284 174.8784902896732,147.0301024664659 174.8784902896732,145.68010026379488 176.43222609069198,142.98009340977296 177.76399963349104,140.82008557626978 177.09811286255717,136.7700652598869 175.32241480425,132.1800333559513 173.10279223136604,129.75001264712773 169.9953206302598,128.6700025945902 166.0,128.94000515691005 161.1168303405866,130.56001984444447 157.1215097112581,132.1800333559513 156.67758519575,133.53004371840507 155.56777391023934,134.61005142168142 155.78973616752774,137.04006684245542 156.01169842481613,138.6600756549742 156.23366068210453,142.1700907170307 156.23366068210453,143.5200950417202 156.23366068210453,147.84010339644738 156.01169842481613,149.19010429433547 155.12384939659387,151.62010385282338 155.78973616752774,155.13009854895063 154.90188713837415,156.21009580790997 155.12384939659387,161.07007700833492 156.23366068210453,162.15007139416412 156.23366068210453,163.50006364332512 158.45328325405717,165.66004954348318 162.6705661425367,168.63002674723975 167.1098112873733,170.52001018356532 170.4392451448366,169.710017477395 171.99298094585538,168.09003118495457" stroke="#4DD2FF" stroke-dasharray="none" stroke-linecap="round" stroke-linejoin="round" stroke-width="0.5"><title>2013-10-26 11.1km</title><desc>9223370654110301807</desc></polyline><polyline fill="none" opacity="1" points="24.07011914718896,199.9895720607601 23.602830636315048,203.68430287321098 23.36918638087809,206.81060902611353 24.30376340262592,208.23165590292774 23.602830636315048,212.77900013769977 25.705628934316337,215.62108581862412 28.042071488685906,217.89475188939832 30.845802552998066,218.46316806343384 34.11682212725282,217.89475188939832 38.08877446874976,216.18950254260562 41.359794043935835,213.91583482245915 42.29437106475234,209.93691102182493 42.06072680931538,206.52639954793267 42.52801532112062,202.26325324806385 42.52801532112062,198.85273064253852 42.52801532112062,195.1579922370147 43.92988085281104,191.4632480267901 45.565390639938414,189.18955639493652 46.49996766168624,186.63165068160743 46.26632340531796,184.07374218595214 43.92988085281104,181.23161837016232 40.8925055321306,179.81055517448112 37.855130213312805,177.25263925665058 34.58411063905805,176.4000000001397 31.0794468075037,177.82106525660492 28.27571574319154,180.09476788225584 25.705628934316337,182.6526807071641 25.238340424373746,185.77901482582092 25.238340424373746,189.4737679695245 24.771051913499832,192.60009301709943 24.30376340262592,196.86325683817267 21.50003233831376,199.9895720607601 21.967320849187672,203.68430287321098 21.733676593750715,207.94744659680873 22.200965103693306,211.07374708005227 22.200965103693306,213.91583482245915 24.30376340262592,216.75791912851855 27.341138722375035,219.0315841003321 30.61215829756111,219.60000000009313 34.58411063905805,219.0315841003321 37.154197447001934,217.610543750925 40.8925055321306,215.90529419737868 41.82708255480975,213.6316262029577 43.462592341937125,210.22112008789554 43.92988085281104,206.81060902611353 43.92988085281104,203.1158831268549 44.39716936368495,199.70536175812595 45.0981021290645,195.4422030900605 45.33174638450146,192.0316705906298 45.79903489537537,189.18955639493652 45.565390639938414,185.49480280443095 44.63081361912191,181.80004340759479 42.52801532112062,179.24212965508923 39.4906400013715,178.10527820512652 35.98597617074847,177.53685227409005 32.48131234012544,177.53685227409005 29.21029276587069,178.95791684417054 25.705628934316337,181.23161837016232 24.30376340262592,184.07374218595214 25.004696168005466,188.33692146651447 23.602830636315048,191.74745932617225 23.36918638087809,194.58957042940892 23.36918638087809,198.28430972713977 21.733676593750715,201.69483315735124 22.200965103693306,206.52639954793267 21.967320849187672,209.3684927856084 23.36918638087809,212.21058258996345 24.30376340262592,215.90529419737868 25.238340424373746,217.610543750925 30.845802552998066,219.0315841003321 34.81775489356369,218.46316806343384 37.38784170243889,216.18950254260562 41.59343829844147,212.77900013769977 43.22894808650017,211.9263737637084 43.92988085281104,209.08428361662664 43.462592341937125,205.95798048726283 43.462592341937125,202.26325324806385 43.462592341937125,199.13694104878232 43.92988085281104,195.72641390911303 45.33174638450146,192.31588182109408 45.565390639938414,189.18955639493652 45.565390639938414,186.34743876405992 45.565390639938414,183.78952995873988" stroke="#4DD2FF" stroke-dasharray="none" stroke-linecap="round" stroke-linejoin="round" stroke-width="0.5"><title>2013-10-20 10.7km</title><desc>9223370654628121807</desc></polyline><polyline fill="none" opacity="1" points="111.68813346326351,182.68865890684538 110.11473088152707,179.4076216588728 107.19269751571119,177.49368106550537 104.0458923522383,176.4000000001397 101.12385898642242,176.4000000001397 97.52751022856683,177.2202608489897 94.15593326836824,179.4076216588728 91.68344349600375,182.68865890684538 90.78435630816966,185.69627220346592 90.78435630816966,188.7038815007545 90.11004091519862,191.98490526387468 89.88526911754161,196.08617827505805 88.76141013111919,199.3671913293656 89.2109537255019,202.3747824486345 88.08709473907948,206.20261990721337 90.55958450958133,208.6633691387251 91.45867170020938,211.9443639498204 93.25684607867151,215.49876962439157 95.50456405244768,217.41267805802636 99.1009128112346,218.77975451922975 102.92203336581588,219.60000000009313 105.84406673163176,217.95950874243863 108.31655650213361,215.22535400115885 110.33950267918408,212.76461190870032 111.91290526092052,209.75703460443765" stroke="#4DD2FF" stroke-dasharray="none" stroke-linecap="round" stroke-linejoin="round" stroke-width="0.5"><title>2013-10-19 10.2km</title><desc>9223370654714312807</desc></polyline><polyline fill="none" opacity="1" points="163.3242925386876,177.2876789055299 160.162092811428,179.0630357505288 158.4593698810786,182.31785328662954 157.24313921760768,185.27677456499077 156.9998930832371,187.93980065686628 156.51340081822127,191.7863887855783 155.54041628632694,195.33708015549928 154.81067788787186,198.59187605278566 154.56743175629526,201.8466676226817 154.56743175629526,205.98912336095236 155.0539240213111,209.83568312670104 156.7566469507292,213.68223684793338 157.97287761606276,215.75345557858236 160.89183121081442,219.00822432828136 164.5405232021585,219.00822432828136 167.4594767978415,219.60000000009313 170.864922657609,218.1205605531577 173.5406301189214,216.34523203712888 175.24335305020213,212.79457114078104 175.72984531521797,208.35623777774163 175.97309144865721,203.6220066549722 175.97309144865721,200.66310755256563 175.97309144865721,197.11242390889674 176.94607597962022,194.1535169375129 177.6758143780753,190.60282385186292 177.4325682464987,186.164450250566 175.24335305020213,179.95071368920617 172.56764558888972,177.87946466286667 167.70272293128073,176.4000000001397 164.78376933652908,176.6958930043038 161.8648157408461,179.35892843198963 159.18910827953368,181.4301762059331 158.4593698810786,184.38909855671227 156.9998930832371,189.12336687906645 155.54041628632694,193.56173511454836 155.54041628632694,197.11242390889674 154.08093948941678,200.66310755256563 154.3241856219247,204.50967568764463 154.56743175629526,207.76445938879624 154.08093948941678,211.31512758042663 156.0269085522741,215.4575672952924 158.70261601451784,218.1205605531577 161.37832347583026,218.41644851467572 166.48649226594716,219.00822432828136 169.4054458597675,217.52878452464938 172.56764558888972,214.86579062230885 173.5406301189214,212.20279382448643 174.75686078332365,208.35623777774163 176.21633758116513,204.80556529434398 177.4325682464987,201.55077765812166 177.91906051151454,197.4083144092001 177.4325682464987,192.67406211141497" stroke="#4DD2FF" stroke-dasharray="none" stroke-linecap="round" stroke-linejoin="round" stroke-width="0.5"><title>2013-10-12 10.6km</title><desc>9223370655320152807</desc></polyline><polyline fill="none" opacity="1" points="24.292860004119575,254.92808118532412 23.81934098061174,258.6720642137807 22.635543420910835,262.41604135814123 24.76637902855873,263.28003524802625 28.317771709524095,265.5840174248442 31.632404879666865,267.60000000009313 34.710278537124395,267.60000000009313 38.97194975428283,265.8720150399022 41.57630438823253,263.8560310017783 43.943899508565664,260.6880526384339 44.890937557443976,256.9440727783367 45.12769706826657,252.33608948835172 43.943899508565664,248.59209650335833 44.180659021250904,243.40809650346637 45.36445658095181,239.37608870584518 45.60121609363705,236.2080777916126 46.54825414158404,233.32806421397254 45.837975605390966,231.0240508459974 43.23362097237259,227.28002436971292 38.97194975428283,225.84001261997037 35.42055707331747,224.9760051521007 32.57944292854518,224.9760051521007 30.21184780728072,226.12801503995433 26.1869361018762,228.14403100241907 24.76637902855873,231.0240508459974 23.81934098061174,234.48007006268017 24.05610049236566,238.5120861462783 24.05610049236566,241.96809450211003 24.292860004119575,245.13609775714576 24.05610049236566,248.88009617221542 22.398783908225596,251.47209162986837 21.6885053711012,254.3520832741633 21.451745859347284,257.2320714369416 22.398783908225596,260.1120561193675 23.582581467926502,262.41604135814123 25.239898052997887,265.296019774396 28.317771709524095,266.7360076766927 31.632404879666865,266.7360076766927 36.6043546339497,267.60000000009313 39.68222829140723,264.72002436965704 41.57630438823253,262.1280433256179 43.943899508565664,258.3840657279361 44.180659021250904,254.3520832741633 44.180659021250904,250.89609288284555 45.36445658095181,247.15209763497114 46.07473511714488,243.69609680003487 45.837975605390966,240.52809162950143 45.837975605390966,237.93608426721767 46.31149462983012,234.48007006268017 45.60121609363705,231.6000543970149 44.65417804475874,229.00803732057102 43.23362097237259,226.12801503995433 40.155747315846384,224.4000000001397 36.6043546339497,224.4000000001397 32.57944292854518,224.4000000001397 28.791290735825896,224.9760051521007 26.660455126315355,227.28002436971292 24.292860004119575,231.0240508459974 24.76637902855873,233.6160657289438 24.76637902855873,237.07208118587732 23.345821957103908,241.68009399762377" stroke="#4DD2FF" stroke-dasharray="none" stroke-linecap="round" stroke-linejoin="round" stroke-width="0.5"><title>2013-10-06 10.6km</title><desc>9223370655838244807</desc></polyline><polyline fill="none" opacity="1" points="109.6856140634045,230.2909564457368 108.07134505175054,228.04678432480432 105.30402674898505,226.9246974508278 102.30609858687967,227.48574095615186 97.69390141405165,228.04678432480432 95.38780282903463,228.6078275591135 93.77353381738067,230.2909564457368 93.54292395804077,231.97408411232755 92.62048452533782,234.77929417719133 92.38987466599792,237.86502133100294 91.69804508984089,242.07282447465695 91.00621551368386,245.15854193037376 91.69804508984089,248.80529363360256 90.77560565527529,251.89100213861093 90.31438593752682,255.53774326271378 89.39194650482386,258.3429248428438 89.39194650482386,260.3065499314107 90.31438593752682,263.3922431420069 91.92865494918078,265.6363810834009 96.07963240426034,266.75844923895784 99.30817042570561,267.60000000009313 102.30609858687967,266.75844923895784 105.30402674898505,266.47793225129135 107.37951547559351,264.23379512433894 108.76317462790757,261.98965582833625 109.6856140634045,258.0624068370089 109.45500420406461,254.97670653951354 110.37744363863021,251.04944568034261 110.37744363863021,247.40269750310108 110.14683377929032,243.75594359473325 109.91622392181307,238.98710291530006 110.37744363863021,235.62085653445683 111.06927321478724,234.21825243486091 110.37744363863021,231.41304169245996 108.07134505175054,228.88834912492894 105.07341689057648,226.0831319389399 102.9979281630367,225.2415661229752 99.76939014159143,225.80261003412306 96.31024226266891,225.80261003412306 94.4653633935377,226.6441756472923 93.31231410056353,229.72991361888126 91.69804508984089,232.5351263966877 91.46743523143232,235.62085653445683 90.77560565527529,239.26762322615832 90.08377608004957,243.19490402424708 89.62255636136979,245.7195810272824 88.9307267870754,248.80529363360256 88.9307267870754,252.17152088950388 88.0082873525098,255.53774326271378 87.54706763476133,258.0624068370089 87.7776774931699,261.14810303226113 88.9307267870754,263.6727605035994 91.92865494918078,266.19741522870027 95.61841268651187,267.0389661930967 99.76939014159143,267.319483113708 103.45914787892252,266.75844923895784 105.99585632514209,264.794829609571 108.76317462790757,262.55069085536525 109.91622392181307,258.3429248428438 110.37744363863021,255.53774326271378 110.83866335544735,252.4520396075677 111.06927321478724,249.6468509058468 111.53049293160439,245.7195810272824 111.76110279094428,243.4754238263704 111.99171264935285,240.3897041331511 112.22232250776142,237.5845008501783 112.45293236616999,234.49877332313918 111.76110279094428,231.69356291904114 110.60805349703878,229.1688706574496 108.30195491109043,226.6441756472923 105.76524646673352,225.2415661229752 102.9979281630367,224.4000000001397 100.69182957615703,224.96104411478154 96.77146197948605,225.52208809531294 94.00414367672056,227.20521922083572 92.62048452533782,230.8519991368521 91.00621551368386,235.34033578261733 90.08377608004957,238.14554177806713 89.85316622070968,240.3897041331511 89.62255636136979,243.4754238263704 89.85316622070968,246.56113941781223 90.08377608004957,249.92736992868595 89.85316622070968,253.01307694031857 89.62255636136979,256.3792980927974 90.08377608004957,259.7455143611878 91.46743523143232,262.83120831870474 94.00414367672056,264.5143123844173 96.77146197948605,267.319483113708 100.69182957615703,267.319483113708 102.9979281630367,267.0389661930967 106.45707604289055,265.35586395906284 108.532564769499,263.3922431420069 109.6856140634045,260.0260321632959 110.14683377929032,257.2208526181057 111.06927321478724,254.13515119976364 111.06927321478724,250.76892679347657 111.76110279094428,247.96373605774716 111.76110279094428,244.8780223308131 111.53049293160439,241.79230450256728 112.68354222457856,238.14554177806713 111.76110279094428,235.34033578261733 110.83866335544735,231.97408411232755 110.14683377929032,229.44939215504564 107.6101253349334,227.7662626572419 104.38158731441945,226.0831319389399 101.38365915231407,226.6441756472923 97.23268169723451,226.9246974508278 94.23475353512913,228.88834912492894 92.85109438374639,230.8519991368521 90.77560565527529,234.21825243486091 90.31438593752682,236.46241858764552 89.39194650482386,240.1091839573346 89.62255636136979,243.19490402424708 88.46950706932694,246.28061998845078 88.46950706932694,249.6468509058468 87.7776774931699,253.01307694031857 87.31645777635276,256.3792980927974 88.0082873525098,259.7455143611878 89.16133664548397,262.83120831870474" stroke="#4DD2FF" stroke-dasharray="none" stroke-linecap="round" stroke-linejoin="round" stroke-width="0.5"><title>2013-09-29 10.5km</title><desc>9223370656443428807</desc></polyline><polyline fill="none" opacity="1" points="178.36243989039212,238.8912312053144 177.68812498729676,237.25071912514977 176.78903844952583,234.51652968092822 175.66518027801067,230.68865890661255 173.86700720340014,227.95446153078228 171.39451922569424,225.49368106527254 170.0458894195035,225.76710125035606 166.00000000093132,224.94684059894644 163.30274038854986,226.5873616025783 160.83025241084397,228.22788141667843 159.7063942393288,232.055756355403 158.35776443313807,233.6962722032331 157.6834495300427,238.6178126083687 157.00913462694734,240.80516046099365 156.78436299227178,244.9064319843892 156.78436299227178,247.09377375710756 156.55959135852754,249.28111341316253 156.55959135852754,253.38236956926994 155.2109615523368,255.56970314332284 155.6605048207566,261.0380278278608 156.55959135852754,263.4987696236931 161.95411058235914,265.4126780577935 164.2018269263208,265.95950874197297 167.5734014417976,265.95950874197297 171.61929085943848,264.86584724183194 174.5413221064955,262.1316911787726 176.5642668157816,258.0304508882109 177.23858171794564,253.65578638156876 175.66518027801067,250.92161676776595 174.09177883714437,249.55453072185628 175.88995191268623,245.17984982184134 177.4633533526212,239.98490526387468 177.91289662197232,238.07097531366162 177.23858171794564,235.06336783478037 178.36243989039212,231.235497985268 175.66518027801067,228.50130126997828 172.9679206656292,225.49368106527254 171.16974759101868,224.94684059894644 165.77522836625576,225.49368106527254 164.2018269263208,225.76710125035606 161.27979567926377,228.22788141667843 158.80730770155787,230.41523931804113 158.1329927984625,232.87601442844607 157.6834495300427,236.43046263838187 156.55959135852754,241.07857879367657 157.00913462694734,244.35959621169604 157.23390626069158,246.54693851224147 156.55959135852754,250.92161676776595 157.00913462694734,254.20261990698054 155.6605048207566,258.3038671386894 156.33481972385198,261.5848595700227 156.55959135852754,263.4987696236931 160.38070914242417,264.86584724183194 163.97705529164523,267.3265848727897 166.22477163467556,266.77975451922975 169.14680288173258,265.95950874197297 172.0688341287896,264.86584724183194 174.9908653749153,261.5848595700227 175.21563700959086,259.3975318111479 175.88995191268623,256.66336913825944 176.78903844952583,253.92920316033997 177.91289662197232,250.92161676776595 177.0138100842014,247.3671913293656 175.88995191268623,243.53934230282903 176.11472354643047,240.5317420954816 176.5642668157816,237.25071912514977 177.68812498729676,236.43046263838187 178.58721152413636,232.87601442844607 177.23858171794564,230.14181969570927 178.36243989039212,230.41523931804113 177.91289662197232,227.68104161159135 174.76609374023974,226.31394151831046 171.39451922569424,225.22026084875688 168.24771634489298,224.6734203158412 164.2018269263208,225.76710125035606 161.0550240445882,228.22788141667843 158.35776443313807,230.14181969570927 158.1329927984625,233.42285297834314 155.88527645543218,237.25071912514977 154.53664664924145,241.62541536078788 156.11004808917642,241.62541536078788 156.78436299227178,243.2659242679365 156.33481972385198,246.8203561506234 155.6605048207566,250.92161676776595 153.41278847679496,253.10895272321068 155.43573318701237,256.11653620772995 155.6605048207566,258.57728335657157 157.23390626069158,262.9519383441657 159.256850970909,265.4126780577935 161.95411058235914,266.23292403365485 165.77522836625576,266.23292403365485 169.37157451640815,267.60000000009313 172.9679206656292,266.23292403365485 174.09177883714437,264.0456007702742 174.31655047181994,260.49119595531374 175.66518027801067,259.3975318111479 175.88995191268623,255.29628656315617 177.91289662197232,248.73427869705483 177.91289662197232,244.08617827459238 175.88995191268623,241.35199709353037 176.5642668157816,238.07097531366162 177.0138100842014,235.61020585522056 177.4633533526212,232.055756355403 177.23858171794564,230.14181969570927 175.66518027801067,227.1342016728595 172.0688341287896,225.76710125035606 168.69725961331278,224.4000000001397 166.00000000093132,225.76710125035606 163.52751202322543,226.8607816544827 160.38070914242417,229.04814087809063 157.45867789536715,232.055756355403 155.6605048207566,235.61020585522056 156.78436299227178,239.16464976919815 157.00913462694734,243.53934230282903" stroke="#4DD2FF" stroke-dasharray="none" stroke-linecap="round" stroke-linejoin="round" stroke-width="0.5"><title>2013-09-22 10.9km</title><desc>9223370657048162807</desc></polyline></svg>