<?xml version="1.0" encoding="utf-8" ?>
<svg baseProfile="full" height="300mm" version="1.1" viewBox="0,0,200,300" width="200mm" xmlns="http://www.w3.org/2000/svg" xmlns:ev="http://www.w3.org/2001/xml-events" xmlns:xlink="http://www.w3.org/1999/xlink"><defs /><rect fill="#222222" height="300" width="200" x="0" y="0" /><text fill="#FFFFFF" style="font-size:12px; font-family:Arial; font-weight:bold;" x="10" y="20">Over 10km Runs</text><text fill="#FFFFFF" style="font-size:4px; font-family:Arial" x="10" y="280">Runner</text><text fill="#FFFFFF" style="font-size:9px; font-family:Arial" x="10" y="290">keep</text><text fill="#FFFFFF" style="font-size:4px; font-family:Arial" x="65" y="280">SPECIAL TRACKS</text><rect fill="yellow" height="2.6" width="2.6" x="65" y="283" /><text fill="#FFFFFF" style="font-size:3px; font-family:Arial" x="70" y="285.5">Over 20.0 km</text><rect fill="red" height="2.6" width="2.6" x="65" y="287" /><text fill="#FFFFFF" style="font-size:3px; font-family:Arial" x="70" y="289.5">Over 40.0 km</text><text fill="#FFFFFF" style="font-size:4px; font-family:Arial" x="120" y="280">STATISTICS</text><text fill="#FFFFFF" style="font-size:3px; font-family:Arial" x="120" y="285">Number: 15</text><text fill="#FFFFFF" style="font-size:3px; font-family:Arial" x="120" y="290">Weekly: 1.2</text><text fill="#FFFFFF" style="font-size:3px; font-family:Arial" x="141" y="285">Total: 163.6 km</text><text fill="#FFFFFF" style="font-size:3px; font-family:Arial" x="141" y="290">Avg: 10.9 km</text><text fill="#FFFFFF" style="font-size:3px; font-family:Arial" x="167" y="285">Min: 10.2 km</text><text fill="#FFFFFF" style="font-size:3px; font-family:Arial" x="167" y="290">Max: 14.0 km</text><polyline fill="none" opacity="1" points="26.869983267300995,75.59999999999854 26.78361116873566,75.46955373542733 26.705876280087978,75.27388394708396 26.628141391440295,75.05647252019116 26.56768092245329,74.78470742096397 26.602229761891067,74.45858810574282 26.63677860124153,74.16507960630406 26.63677860124153,73.84982855914859 26.61950418158085,73.48022233024676 26.63677860124153,73.18671030731639 26.63677860124153,72.88232635220629 26.654053021018626,72.59968309021497 26.662690230819862,72.30616789601481 26.80088558845455,72.07787756968901 27.04272746431525,72.01265164469805 27.258657710597618,71.99090965811047 27.267294920486165,71.81697355651704 27.336392599274404,71.6647791630894 27.336392599274404,71.41474489977554 27.345029809162952,71.06686986592831 27.155011192371603,70.81683376811998 26.878620477131335,70.67550867784303 26.913169316540007,70.33850170428923 26.964992575638462,69.9797508138945 27.01681583476602,69.67535488053545 27.051364674174692,69.32747242155165 27.11182514313259,68.99045987321006 27.146373982570367,68.7186745448198 27.16364840226015,68.4903741684393 27.250020500738174,68.40340242826642 27.275932130316505,68.21858717215218 27.23274608104839,68.0772575758383 27.28456934017595,67.95767080292717 27.345029809162952,67.71849673051474 27.41412748795119,67.44670715983375 27.474587956879986,67.1857883190969 27.56959726527566,66.84876691331738 27.638694944122108,66.56610272402759 27.72506704260013,66.26169403896347 27.889174029842252,66.1421046015821 28.05328101699706,66.21820699114323 28.27784847316798,66.23995051796373 28.52832755880081,66.07687392537628 28.666522916493705,65.84856614750606 28.787443854409503,65.56589848859585 28.951550841564313,65.27235795881279 29.115657828806434,64.96794444062834 29.279764815961244,64.69614569549594 29.443871803145157,64.40260203245998 29.582067160779843,64.15254548543453 29.737536938104313,63.8372557018738 29.91028113514767,63.50022044622165 30.126211381459143,63.130567272492044 30.342141627741512,62.72829573672061 30.540797454304993,62.39125589397008 30.7221788612369,62.075959295005305 30.912197477940936,61.79327854832809 31.084941675013397,61.521469213141245 31.214499822759535,61.314893511989794 31.387244019802893,61.04308258093806 31.60317426614347,60.727780764893396 31.69818357451004,60.4233502674615 31.827741722256178,60.10804605316662 32.02639754884876,59.82535847877443 32.28551384442835,59.618778477204614 32.51871851042961,59.390452602965524 32.656913868064294,59.14038067319052 32.80374643552932,58.94467167098628 32.90739295378444,58.814198741689324 33.01103947198135,58.5749978285894 33.10604878034792,58.34666902918252 33.21833250840427,58.21619514221675 33.399713915307075,58.17270380012633 33.51199764336343,58.17270380012633 33.65019300102722,58.05310248966998 33.79702556852135,57.86826375545206 33.9697697655356,57.70517040640698 34.15978838229785,57.43334743246669 34.341169789171545,57.21588840033655 34.28070932018454,56.97668279457139 34.2720721103251,56.693984354998975 34.341169789171545,56.422158007262624 34.548462825623574,56.18295007102279 34.74711865221616,55.95461456756311 34.8766767999623,55.6827857528333 35.00623494776664,55.34571676298219 35.19625356452889,55.09563241764408 35.46400706990971,54.85642058636586 35.636751266923966,54.63895467569091 35.77494662455865,54.334501425517374 35.904504772363,54.03004703752231 36.051337339828024,53.73646494290733 36.35363968467573,53.61685711955215 36.578207140788436,53.52986950139166 36.72503970831167,53.225412106236035 36.81141180678969,52.8992064916456 36.86323506591725,52.62736748161842 36.9323327447637,52.32290671351075 37.018704843270825,51.953202822427556 37.113714151637396,51.64873953460483 37.113714151637396,51.54000237034052 37.19144904028508,51.28990634166257 37.234635089553194,50.93107156804763 37.329644397919765,50.572235213759996 37.424653706286335,50.16990166404139 37.50238859496312,49.800188001470815 37.562849063950125,49.46309467014362 37.64922116242815,49.12599994388438 37.726956051104935,48.77802973095095 37.80469093975262,48.40830975095014 37.85651419890928,48.038588092786085 37.942886297387304,47.701487471334985 38.01198397620465,47.37525973509764 38.10699328460032,46.97291039436095 38.15881654369878,46.690177236181626 38.22791422251612,46.331322199046554 38.27973748164368,46.081210177559115 38.34883516046102,45.89634427679266 38.38338399984059,45.68972894993931 38.435207258939045,45.39611679442896 38.50430493778549,45.03725605588261 38.59067703629262,44.66751909584855 38.65113750522141,44.33040452232672 38.70296076434897,44.167284066512366 38.71159797423752,43.993288553530874 38.763421233335976,43.710545052214 38.84115612198366,43.362551703125064 38.90161659094156,42.98193227506272 38.970714269788004,42.66656054433406 39.039811948576244,42.449062087493076 39.074360787984915,42.29681282213278 39.10027241753414,42.1554382494287 39.160732886521146,42.0684383904445 39.1520956766617,41.92706342132442 39.14345846683136,41.65518779095146 39.160732886521146,41.405061409474 39.2125561456196,41.14405914892268 39.28165382446605,40.959182041624445 39.37666313283262,40.8613057560724 39.670328267791774,40.93743176611315 39.96399340275093,41.05705820955336 40.24902132785064,41.13318403658195 40.38721668548533,41.089683572688955 40.421765524894,40.883056051934545 40.41312831506366,40.61117693644337 40.43040273475344,40.29579602541344 40.44767715447233,39.90428698849428 40.473588783992454,39.523651398201764 40.5426864628098,39.21914164502232 40.43040273475344,39.04513556063466 40.1799236490333,39.04513556063466 39.8776213042147,39.08863711657614 39.60123058894533,39.15388940695266 39.62714221855276,38.892879931758216 39.670328267791774,38.56661691143381 39.74806315646856,38.24035258400545 39.799886415567016,37.92496249167016 39.89489572390448,37.566068831853045 39.96399340275093,37.228924862196436 40.015816661849385,36.90265517545777 40.04172829142772,36.61988705625117 40.08491434066673,36.35886945940001 40.102188760385616,36.17398148874054 40.09355155052617,36.08697523964656 40.24902132785064,35.96734149538679 40.44767715447233,35.880335025518434 40.37857947565499,35.7280734795786 40.257658537710086,35.608439208052005 40.274932957370766,35.42354953363974 40.29220737714786,35.32566659488657 40.473588783992454,35.35829425423435 40.663607400725596,35.35829425423435 40.819077178050065,35.39092190044903 40.9659097455733,35.34741836923058 41.13001673272811,35.30391481474362 41.259574880532455,35.216907636066026 41.27684930025134,34.94500960345613 41.320035349490354,34.4555908570328 41.37185860861791,34.11843400946964 41.39777023816714,33.80302795278112 41.39777023816714,33.650762522636796 41.415044657856924,33.44411612636759 41.415044657856924,33.28097386412264 41.24230046081357,33.22659303741966 40.99182137509342,33.20484069655504 40.82771438793861,33.12870745782129 40.654970190895256,33.07432652940042 40.344030636246316,33.01994556468708 40.02445387170883,32.9438121530693 39.73078873674967,32.878554886476195 39.454398021509405,32.80242134266882 39.0916352077038,32.75891642853094 38.82388170226477,32.65015404146834 38.65977471510996,32.55226776894415 38.417932839278365,32.57402028412616 38.09835607474088,32.55226776894415 37.80469093975262,32.55226776894415 37.493751385074575,32.519638985279016 37.182811830425635,32.48701018856809 36.88914669546648,32.45438137875317 36.569569930958096,32.42175255586335 36.46592341273208,32.400000000001455 36.41410015360452,32.519638985279016 36.34500247478718,32.726287727644376 36.30181642554817,32.92205973666569 36.258630376309156,33.139583639123884 36.241355956561165,33.34623080824531 36.21544432701194,33.54200132682308 36.12043501864537,33.73777137474099 36.042700129997684,33.87916056107497 35.94769082160201,34.09668190683442 35.913141982251545,34.238070470011735 35.835407093545655,34.43383884445939 35.74039778520819,34.57522682224226 35.6626628965314,34.78187034816801 35.57629079799517,34.95588554218557 35.489918699488044,35.15165219103801 35.3603605516837,35.33654248278617 35.30853729255614,35.597563356488536 35.18761635464034,35.869459210261994 35.0580582068942,36.17398148874054 34.90258842956973,36.500254094891716 34.7557558620465,36.80477401454118 34.60892329461058,37.131044093403034 34.48800235663657,37.392059215315385 34.341169789171545,37.707451371476054 34.17706280195853,38.00109124647861 34.05614186404273,38.27297907555476 33.93522092612693,38.51223961429787 33.86612324733869,38.66449595477752 33.82293719804147,38.729748584992194 33.702016260125674,38.79500116294366 33.67610463057645,39.056010951790086 33.60700695173,39.349645964364754 33.43426275474485,39.632404605501506 33.330616236518836,39.86078586820804 33.26151855767239,40.03479020993109 33.40835112516652,40.12179224136344 33.66746742074611,40.13266748873866 33.9697697655356,40.154417979181744 34.30662094976287,40.19791894262016 34.61756050441181,40.241419882833725 34.937137268920196,40.28492079978605 35.25671403345768,40.3284216935499 35.5417419585865,40.37192256403068 35.7835838344472,40.38279777801654 35.92177919205278,40.28492079978605 35.96496524135,40.05654072649486 35.99951408072957,39.84991058448213 36.01678850041935,39.8172847247115 36.172258277772926,39.90428698849428 36.19816990732215,40.078291237252415 36.129072228533914,40.44804903148906 36.06861175951781,40.82868030145619 35.99951408072957,41.15493425982277 35.92177919205278,41.557312341887155 35.85268151323544,41.89443839358864 35.77494662455865,42.22068808271433 35.74039778520819,42.492561825332814 35.64538847681251,42.82968400580285 35.65402568664285,43.13418025972351 35.628114057093626,43.44955017977918 35.40354660092271,43.710545052214 35.33444892213447,43.96066435347893 35.24807682359824,44.27603107336472 35.24807682359824,44.53702329738735 35.22216519404901,44.819763929684996 35.39490939109237,44.96113387778314 35.32581171224592,45.29824584072048 35.28262566300691,45.65710542938177 35.1789791447809,46.081210177559115 35.109881465963554,46.41831750472193 35.049420997005654,46.798920874680334 35.03214657728677,47.125150919186126 35.02350936748553,47.4622539258271 35.01487215759698,47.79935553742689 35.01487215759698,48.147329931132845 34.988960528047755,48.50617696776317 34.980323318217415,48.84327425911761 34.945774478808744,49.16949611596647 34.919862849259516,49.46309467014362 34.85940238024341,49.81106195665052 34.798941911314614,50.16990166404139 34.73848144232761,50.46349661248678 34.79030470145517,50.81145962557639 34.729844232526375,51.13767360044585 34.65210934384959,51.49650746399129 34.46209072708734,51.79009763117938 34.26343490052386,52.02931846657157 33.99568139508483,52.23591771363135 33.77111393897212,52.4425164366985 33.52063485325198,52.659988210740266 33.32197902665939,52.88833294866345 33.23560692809406,53.02968889422482 33.11468599017826,53.14929757966456 32.985127842461225,53.355893986336014 32.89875574389589,53.595110223744996 32.78647201581043,53.91043964518758 32.613727818767074,54.23664121056936 32.44962083158316,54.541094826527114 32.29415105425869,54.81292745067185 32.23369058530079,55.06301266383525 32.23369058530079,55.29135066620074 32.40643478234415,55.43270244223095 32.33733710352681,55.72627842413931 32.28551384442835,55.943741432376555 32.31142547397758,55.99810709375015 32.18186732617323,55.976360833563376 32.01776033901842,56.19382317426789 31.819104512425838,56.5308886551793 31.620448685833253,56.72660345580516 31.404518439550884,56.95493679558422 31.292234711436322,57.23763432967098 31.19722540306975,57.52033088279131 31.03311841591494,57.74866199807002 30.894923058280256,57.759534892356896 30.644443972589215,57.759534892356896 30.39396488686907,57.716043306507345 30.091662542021368,57.68342460185522 29.780722987401532,57.68342460185522 29.5734299509204,57.69429750485142 29.435234593314817,57.74866199807002 29.36613691446837,57.770407785181305 29.26249039627146,57.99873819961067 29.132932248467114,58.205322308866016 29.098383409087546,58.48801550427743 29.00337410069187,58.72721667272708 28.899727582436753,58.922926197279594 28.87381595291663,58.999035329863545 28.657885706605157,59.205616902792826 28.467867089872016,59.401325278158765 28.32103452240699,59.640523765207035 28.433318250492448,59.79274061861361 28.4851415095618,59.868848938669544 28.502415929280687,60.06455572091363 28.571513608127134,60.32549736604415 28.545601978548802,60.51033052562707 28.4851415095618,60.32549736604415 28.303760102717206,60.49945799844136 28.148290325363632,60.76039825073531 28.010094967699843,60.98872028588812 27.820076350995805,61.23878654269356 27.69051820319146,61.51059682088089" stroke="#4DD2FF" stroke-dasharray="none" stroke-linecap="round" stroke-linejoin="round" stroke-width="0.5"><title>2017-12-17 14.0km</title><desc>9223370523376934807</desc></polyline><polyline fill="none" opacity="1" points="100.56066094757989,32.39999999999418 100.6541044388432,32.70238428284938 100.66745350905694,32.93757155662752 100.66745350905694,33.256753583060345 100.66745350905694,33.52553782025643 100.6541044388432,33.87831626131083 100.62740629847394,34.23109371455212 100.52061373699689,34.55027246393729 100.62740629847394,34.70146211562678 100.68080257921247,35.44060891219124 100.64075536868768,35.70938849032973 100.81429328105878,36.0117648303567 100.8676895617391,36.29734181848471 100.92108584247762,36.599716747383354 100.93443491269136,37.002882190499804 100.96113305306062,37.355650894896826 101.01452933374094,37.64122483700339 101.06792561447946,37.96039494739671 101.16136910580099,38.24596751874196 101.1747181758983,38.548337771193474 101.24146352690877,38.8843038672494 101.34825608832762,39.13627785129938 101.52179400064051,39.18667258770438 101.62858656205935,39.35465489664057 101.57519028143724,39.48904058255721 101.37495422863867,39.58982975290564 101.37495422863867,39.82500417025585 101.48174679017393,40.0769762731361 101.61523749196203,40.41293829315691 101.72203005338088,40.71530334520503 101.78877540427493,41.00086967259995 101.93561517633498,41.30323331379623 102.09580401849234,41.58879830871592 102.24264379043598,41.85756477150426 102.2025965799694,42.1431285100407 101.9089170359075,42.159926356893266 101.65528470248682,41.97514991869684 101.46839771990199,41.840766884342884 101.26816166721983,41.79037320954376 101.05457654432394,41.85756477150426 100.78759514063131,41.874362656410085 100.66745350905694,42.02554351960134 100.68080257921247,42.27751122190966 100.62740629847394,42.512680622792686 100.347075824684,42.6134673745255 100.08009442104958,42.73105181629944 99.79976394720143,42.747849584775395 99.57282975415,42.73105181629944 99.6128769646748,42.462287216694676 99.69297138578258,42.159926356893266 99.78641487710411,41.874362656410085 99.86650929815369,41.52160660340451 99.93325464904774,41.1520515838929 99.919905578834,40.799293508709525 99.86650929815369,40.46333251889155 99.82646208757069,40.1441687487968 99.53278254356701,40.0769762731361 99.2658011399908,40.04338002187433 99.14565950835822,39.87539863112033 99.13231043814449,39.70741701645602 99.11896136793075,39.472242379619274 99.06556508730864,39.30426022747997 98.89202717487933,39.27066377014853 98.7051401923527,39.237067303896765 98.54495135013713,39.27066377014853 98.54495135013713,39.48904058255721 98.55830042035086,39.757811524381395 98.58499856072012,40.11057251546299 98.58499856072012,40.39614021340094 98.61169670108939,40.71530334520503 98.62504577124491,41.05126366317563 98.61169670108939,41.37042513555207 98.61169670108939,41.67278788991098 98.62504577124491,41.99194778793026 98.61169670108939,42.260713390787714 98.62504577124491,42.596669588194345 98.63839484145865,42.83183839338017 98.65174391161418,43.06700675963657 98.63839484145865,43.26857929567632 98.62504577124491,43.53734217550664 98.59834763087565,43.78930685468367 98.57164949050639,43.95728302751377 98.54495135013713,44.19244929330307 98.5316022800398,44.42761512019206 98.51825320976786,44.66278050823894 98.51825320976786,44.8643504914653 98.51825320976786,45.16670486170915 98.5316022800398,45.46905850654002 98.51825320976786,45.82180350848648 98.51825320976786,46.140952897505485 98.51825320976786,46.42650692880852 98.5316022800398,46.69526307302294 98.54495135013713,47.04800464237633 98.54495135013713,47.40074522426585 98.54495135013713,47.61910794681171 98.5316022800398,47.92145570721186 98.5316022800398,48.106223425857024 98.49155506945681,48.37497598754999 98.51825320976786,48.6101340088353 98.54495135013713,48.862088544658036 98.58499856072012,49.16443332270137 98.63839484145865,49.44998050254071 98.6650929817697,49.802714360761456 98.73183833278017,50.172244010303984 98.82528182398528,50.54177257634001 98.93207438540412,50.82731663514278 99.03886694688117,51.09606339359016 99.14565950835822,51.41519942470768 99.25245206983527,51.70074150446453 99.34589556104038,51.8687071314489 99.41264091193443,52.07026558830694 99.51943347346969,52.2718237228255 99.62622603488853,52.490178004751215 99.66627324541332,52.72532834672893 99.69297138578258,52.8764961919951 99.85316022793995,53.01086745788052 99.94660371920327,53.14523858038592 100.06674535083584,53.32999863989244 100.18688698246842,53.497962095352705 100.29367954394547,53.71631425274245 100.42717024579179,53.90107347503363 100.60070815816289,54.0858324264409 100.78759514063131,54.3209797909949 100.97448212315794,54.58971909902175 101.13467096537352,54.8248655233765 101.2548125970061,55.02641925217176 101.30820887780283,55.16078822565032 101.48174679017393,55.446321818526485 101.65528470248682,55.66467060010473 101.81547354464419,55.916611031861976 101.97566238680156,56.20214291228331 102.1225021588034,56.43728632804414 102.26934193080524,56.68922521524655 102.42953077296261,56.957959473118535 102.60306868539192,57.24348899423785 102.77660659770481,57.54581366437196 102.96349358023144,57.83134185367089 103.13703149266075,58.10007367610524 103.32391847518738,58.36880492558703 103.51080545771401,58.68792254006257 103.71104151051259,59.00703934649937 103.88457942282548,59.27576866207528 104.05811733519658,59.561292931990465 104.20495710714022,59.830021065761684 104.35179687920026,60.065157712757355 104.4986366511439,60.283498492164654 104.65882549335947,60.55222508595034 104.83236340567237,60.820951106841676 104.96585410757689,61.03929057686764 105.13939201988978,61.274424967792584 105.32627900241641,61.54314944874204 105.48646784457378,61.82866858202033 105.63330761657562,62.047006306340336 105.7934964587912,62.34931945403514 105.9670343711623,62.6684269898833 106.15392135368893,62.98753371782368 106.32745926606003,63.27304957904562 106.50099717837293,63.558564793434925 106.72793137142435,63.87766926769109 106.88812021363992,64.14638819833635 107.02161091554444,64.38151679263683 107.19514882785734,64.63343979982892 107.36868674022844,64.93574674375122 107.54222465254134,65.27164249775524 107.71576256491244,65.59074263485672 107.83590419654502,65.82586853473913 107.99609303876059,66.16176191657723 108.11623467039317,66.46406519487209 108.22302723181201,66.81675143654866 108.27642351260874,67.03508052017423 108.27642351260874,67.20302571174398 108.14293281070422,67.38776516403595 108.15628188085975,67.35417619284999 108.27642351260874,67.30379271930724 108.40991421433864,67.43814860402199 108.49000863544643,67.6564766112715 108.58345212670974,67.92518748565635 108.6902446881868,68.22748653459712 108.81038631981937,68.5633735164447 108.93052795145195,68.89925960320397 109.05066958302632,69.25193903100444 109.10406586382305,69.41988126887009 109.22420749545563,69.73897090430546 109.34434912708821,70.04126560324221 109.45114168856526,70.27638320125698 109.54458517977037,70.56188255203597 109.62467960087815,70.81379320693668 109.67807588161668,71.04890936393349 109.77151937288,71.33440696503385 109.87831193435704,71.61990391943255 109.98510449577589,71.93898798568989 110.06519891688367,72.19089588847419 110.17199147836072,72.5099785092898 110.26543496956583,72.76188527098566 110.37222753110109,73.04737899232714 110.49236916267546,73.3160783747444 110.58581265399698,73.60157084091043 110.71930335572688,73.92064989086066 110.8127468470484,74.17255383351585 110.93288847868098,74.45804435995524 111.01298289973056,74.65956669520529 111.10642639099387,74.91146916124853 111.22656802268466,75.07940385896654 111.26661523320945,75.19695801421767 111.25326616299571,75.41527258316637 111.1998698823154,75.60000000000582 111.01298289973056,75.49923962434696 110.82609591726214,75.2473383328761 110.6392089346773,74.97864306716656 110.4256238117814,74.70994722866453 110.1586424082052,74.39087017660495 109.87831193435704,74.12217308527033 109.63802867109189,73.90385627681098 109.39774540776853,73.65195179724833 109.1708112147171,73.43363417442015 108.91717888129642,73.13134761083347 108.67689561797306,72.92982283243327 108.4366123547079,72.6947101836995 108.16963095107349,72.4092156636325 107.92934768786654,72.17410204392218 107.67571535432944,71.93898798568989 107.38203581038397,71.67028566784575 107.12840347696329,71.46875855352846 106.80802579259034,71.28402508239378 106.51434624858666,71.1832612567814 106.18061949399998,71.09929134056438 105.86024180968525,71.06570335839933 105.51316598494304,70.9817333638639 105.17943923041457,70.89776331334724 104.89910875662463,70.84738125622971 104.57873107225168,70.76341111623333 104.27170245809248,70.76341111623333 103.89792849298101,70.66264687442163 103.53750359808328,70.56188255203597 103.41736196639249,70.52829442672373 103.21712591376854,70.47791222187516 103.04358800133923,70.46111814916367 102.83000287844334,70.42752999694494 102.64311589591671,70.39394183576223 102.45622891339008,70.37714775181666 102.28269100101897,70.32676548660675 102.05575680790935,70.27638320125698 101.82882261485793,70.24279499980912 101.66863377264235,70.17561857009423 101.48174679017393,70.12523622432491 101.20141631626757,70.00767733914836 100.85434049158357,69.87332419333688 100.50726466689957,69.73897090430546 100.20023605268216,69.63820584354107 99.90655650867848,69.55423489805253 99.58617882430553,69.47026389656821 99.25245206983527,69.3694986209739 98.90537624509307,69.26873326487839 98.5316022800398,69.1847620732442 98.17117738508387,69.0336137873237 97.90419598144945,68.98323098507535 97.53042201633798,68.8824653201591 97.2367424723925,68.73131667172129 96.96976106875809,68.64734512208088 96.71612873522099,68.5633735164447 96.42244919127552,68.46260751584487 96.10207150690258,68.32825272313494 95.7683447523741,68.14351464930223 95.46131613815669,67.92518748565635 95.15428752405569,67.74044882103044 94.88730612042127,67.45494307951594 94.68707006773911,67.15264217778167 94.54023029573727,66.90072420575598 94.46013587462949,66.64880573027767 94.35334331315244,66.48085980021278 94.19315447099507,66.22894048552553 94.09971097967355,66.06099399604136 93.96622027788544,65.79227914733929 93.79268236551434,65.48997425779817 93.61914445320144,65.15407908568159 93.4723046811996,64.78459336243395 93.27206862845924,64.3983116754971 93.07183257566066,63.99523387035879 92.88494559313403,63.625744749908336 92.7381058211904,63.35702470924298 92.59126604918856,62.98753371782368 92.40437906660372,62.601246523161535 92.23084115429083,62.21495814455557 92.03060510160867,61.8118733568117 91.8303690488683,61.40878727992822 91.656831136439,61.02249524646322 91.45659508369863,60.65299741092895 91.26970810123021,60.26670306100277 91.10951925901463,59.89720300961926 90.93598134664353,59.52770187497663 90.77579250448616,59.19179081248876 90.62895273248432,58.85587885469431 90.45541482011322,58.55355732717726 90.3619713288499,58.26803077419754 90.25517876743106,57.948912096515414 90.13503713579848,57.59620103890484 90.0549427147489,57.20989731939335 89.97484829358291,56.82359241579252 89.93480108305812,56.538061943341745 89.8814048023196,56.118163014616584 89.82800852158107,55.715058726797 89.8013103812118,55.36234141718887 89.76126317062881,54.94243857101537 89.70786688994849,54.640107655432075 89.70786688994849,54.3209797909949 89.69451781979296,53.93466603179695 89.6678196794237,53.615536380937556 89.69451781979296,53.262813195062336 89.70786688994849,52.826106930413516 89.69451781979296,52.490178004751215 89.6678196794237,52.137451668968424 89.57437618810218,51.80152090750926 89.50763083726633,51.364809578852146 89.52097990742186,51.028876757685794 89.49428176699439,50.64255290625442 89.45423455652781,50.323414918311755 89.41418734594481,50.02107292103756 89.3607910652645,49.651542828127276 89.42753641615855,49.26521475419577 89.49428176699439,48.862088544658036 89.49428176699439,48.54294604755705 89.49428176699439,48.32458492589649 89.5343289776356,48.156614574822015 89.50763083726633,47.92145570721186 89.45423455652781,47.61910794681171 89.44088548631407,47.31675946099858 89.40083827578928,46.980815848117345 89.37414013542002,46.62807409069501 89.3607910652645,46.34252051617659 89.2806966441567,45.95618229708634 89.25399850378744,45.56984289360116 89.22730036335997,45.16670486170915 89.20060222304892,44.830755516610225 89.16055501252413,44.511602809187025 89.12050780194113,44.1252589764772 89.09380966163008,43.9740806324553 89.1071587317856,43.6213304578705 89.12050780194113,43.26857929567632 89.09380966163008,42.932624889785075 89.0671115212026,42.663860720189405 89.02706431067782,42.31110687748878 88.9736680299975,41.95835204726609 88.9736680299975,41.60559622940491 89.00036617036676,41.30323331379623 89.00036617036676,40.93367765379662 88.92027174920077,40.530524788526236 88.90692267904524,40.2281592930085 88.88022453873418,39.89219678030349 88.92027174920077,39.67382066664868 88.92027174920077,39.53943517785228 88.89357360888971,39.28746199996385 88.88022453873418,39.018690054814215 88.86687546852045,38.71632093118387 88.78678104741266,38.39715273564798 88.73338476667413,38.0107901540905 88.72003569651861,37.67482172878226 88.72003569651861,37.305255426239455" stroke="#4DD2FF" stroke-dasharray="none" stroke-linecap="round" stroke-linejoin="round" stroke-width="0.5"><title>2017-11-19 11.8km</title><desc>9223370525802103807</desc></polyline><polyline fill="none" opacity="0.5" points="182.55902306665666,68.10861900402233 181.62116689281538,68.17811800987693 180.56607869756408,68.10861900402233 179.8040705563035,67.96962096903007 178.9834464045707,67.96962096903007 178.22143826354295,67.96962096903007 177.3421981006395,67.76112385862507 176.52157394844107,66.99663385830354 175.5837177745998,66.92713472119067 174.82170963380486,66.85763557621976 173.88385345996358,66.57963891886175 173.1218453189358,66.7186372630531 172.3012211669702,66.64913809474092 171.36336499336176,66.7186372630531 170.54274084139615,66.51013973512454 169.6635006784927,66.64913809474092 168.72564450465143,66.78813642339082 167.72917232010514,66.44064054382034 166.90854816813953,66.30164213792887 166.20515603781678,66.16264370107092 165.384531886084,66.16264370107092 164.62252374505624,65.88464673480485 163.7432835821528,65.88464673480485 162.9226594301872,65.74564820510568 162.21926729986444,65.95414598792559 160.98833107203245,65.39815174596151 159.99185888725333,65.25915310822893 159.05400271364488,65.18965377786662 157.99891451839358,65.25915310822893 157.58860244229436,65.32865243108245 156.47489823610522,65.60664964455646 155.0681139754597,64.98115574021358 154.07164179091342,64.14716289372882 153.19240162800997,64.35566120949807 152.19592944346368,64.00816397793824 151.3166892810259,63.869165030890144 150.61329715070315,64.00816397793824 149.9099050203804,63.7996655459865 149.20651289005764,63.52166752866469 148.3272727271542,63.59116704465123 147.56526458612643,63.938664508285 146.27571234712377,63.52166752866469 145.57232021703385,63.1046702710446 145.22062415187247,62.34017457580194 144.75169606506824,61.575677945744246 144.6930800541304,60.463681178574916 144.81031207600608,59.49068238417385 144.81031207600608,58.378681907604914 144.6930800541304,57.40567986789392 144.6930800541304,56.0851746769622 144.51723202154972,55.39017082436476 144.39999999990687,54.34766359644709 144.6344640434254,53.37465528177563 144.6344640434254,52.540646949375514 144.8689280867111,51.845639155537356 144.6930800541304,50.942127868242096 144.98616010835394,49.96911425224971 144.92754409764893,48.92659798276145 145.10339213022962,48.30108738626586 145.16200814116746,47.05006431584479 145.10339213022962,45.93804170633666 145.16200814116746,44.9650203002966 145.22062415187247,44.20050241862191 145.39647218445316,43.296980080136564 145.57232021703385,42.32395456265658 145.39647218445316,41.3509275301476 145.39647218445316,40.65590729378164 145.27924016257748,39.821881990123075 145.39647218445316,40.65590729378164 145.39647218445316,41.3509275301476 145.57232021703385,42.32395456265658 145.39647218445316,43.296980080136564 145.22062415187247,44.20050241862191 145.16200814116746,44.9650203002966 145.10339213022962,45.93804170633666 145.16200814116746,47.05006431584479 145.10339213022962,48.30108738626586 144.92754409764893,48.92659798276145 144.98616010835394,49.96911425224971 144.6930800541304,50.942127868242096 144.8689280867111,51.845639155537356 144.6344640434254,52.540646949375514 144.6344640434254,53.37465528177563 144.39999999990687,54.34766359644709 144.51723202154972,55.39017082436476 144.6930800541304,56.0851746769622 144.6930800541304,57.40567986789392 144.81031207600608,58.378681907604914 144.81031207600608,59.49068238417385 144.6930800541304,60.463681178574916 144.75169606506824,61.575677945744246 145.22062415187247,62.34017457580194 145.57232021703385,63.1046702710446 146.27571234712377,63.52166752866469 147.56526458612643,63.938664508285 148.3272727271542,63.59116704465123 149.20651289005764,63.52166752866469 149.9099050203804,63.7996655459865 150.61329715070315,64.00816397793824 151.3166892810259,63.869165030890144 152.19592944346368,64.00816397793824 153.19240162800997,64.35566120949807 154.07164179091342,64.14716289372882 155.0681139754597,64.98115574021358 156.47489823610522,65.60664964455646 157.58860244229436,65.32865243108245 157.99891451839358,65.25915310822893 159.05400271364488,65.18965377786662 159.99185888725333,65.25915310822893 160.98833107203245,65.39815174596151 162.21926729986444,65.95414598792559 162.9226594301872,65.74564820510568 163.7432835821528,65.88464673480485 164.62252374505624,65.88464673480485 165.384531886084,66.16264370107092 166.20515603781678,66.16264370107092 166.90854816813953,66.30164213792887 167.72917232010514,66.44064054382034 168.72564450465143,66.78813642339082 169.6635006784927,66.64913809474092 170.54274084139615,66.51013973512454 171.36336499336176,66.7186372630531 172.3012211669702,66.64913809474092 173.1218453189358,66.7186372630531 173.88385345996358,66.57963891886175 174.82170963380486,66.85763557621976 175.5837177745998,66.92713472119067 176.52157394844107,66.99663385830354 177.3421981006395,67.76112385862507 178.22143826354295,67.96962096903007 178.9834464045707,67.96962096903007 179.8040705563035,67.96962096903007 180.56607869756408,68.10861900402233 181.62116689281538,68.17811800987693 182.55902306665666,68.10861900402233 183.49687924026512,68.10861900402233 184.4933514248114,67.96962096903007 185.255359566072,68.17811800987693 185.95875169616193,68.10861900402233 187.07245590235107,67.90012193983421 187.36553595680743,66.92713472119067 187.5999999998603,66.0236452333047 187.5999999998603,65.53715035278583" stroke="#4DD2FF" stroke-dasharray="1,0.5" stroke-linecap="round" stroke-linejoin="round" stroke-width="0.5"><title>2014-03-22 10.5km</title><desc>9223370641410674807</desc></polyline><polyline fill="none" opacity="1" points="55.59999999997672,100.0928869961208 55.47227655223105,100.1765872351607 55.324903343222104,100.20050157613878 55.18735501478659,100.16463006250706 55.03998180577764,100.14071571284876 54.91225835797377,100.12875853585138 54.80418467137497,100.18854440635914 54.66663634299766,100.16463006250706 54.54873777576722,100.14071571284876 54.411189447389916,100.16463006250706 54.2736411189544,100.14071571284876 54.175392312929034,100.06897262908024 54.067318626330234,100.05701544340263 53.93959517852636,100.06897262908024 53.81187173072249,100.10484417746193 53.66449852171354,100.10484417746193 53.54659995454131,100.1168013573697 53.41887650673743,100.06897262908024 53.261678417096846,100.08092981335358 53.153604730498046,100.0928869961208 52.996406640915666,100.0928869961208 52.85885831248015,100.0928869961208 52.75078462588135,100.0928869961208 52.603411416872405,100.0928869961208 52.47568796912674,100.08092981335358 52.3577894018963,100.06897262908024 52.23989083466586,100.05701544340263 52.12199226743542,100.04505825625529 51.99426881968975,100.08092981335358 51.86654537182767,100.08092981335358 51.738821924023796,100.06897262908024 51.61109847621992,100.04505825625529 51.48337502841605,100.0211438776314 51.39495110302232,100.0211438776314 51.247577894013375,100.0211438776314 51.11002956563607,100.04505825625529 50.982306117832195,100.04505825625529 50.85458267002832,100.03310106764548 50.71703434159281,99.99722949324496 50.599135774420574,100.0211438776314 50.47141232655849,100.0211438776314 50.31421423697611,100.00918668616214 50.20614055037731,99.97331510304502 50.048942460736725,99.961357905755 49.901569251785986,99.99722949324496 49.7443711621454,99.99722949324496 49.626472594973166,100.00918668616214 49.47909938596422,99.99722949324496 49.36120081873378,99.99722949324496 49.22365249035647,100.00918668616214 49.11557880375767,99.99722949324496 48.98785535589559,99.98527229885076 48.860131908149924,100.00918668616214 48.73240846028784,99.99722949324496 48.60468501254218,99.99722949324496 48.49661132594338,100.0211438776314 48.35906299750786,100.03310106764548 48.25098931090906,100.03310106764548 48.12326586310519,100.03310106764548 47.95624289289117,100.0211438776314 47.84816920629237,100.0211438776314 47.69097111665178,100.0211438776314 47.60254719131626,100.0211438776314 47.47482374345418,100.0211438776314 47.34710029565031,100.00918668616214 47.21937684784643,100.0211438776314 47.08182851941092,99.98527229885076 46.963929952238686,99.98527229885076 46.81655674328795,99.97331510304502 46.67900841485243,99.97331510304502 46.55128496699035,99.961357905755 46.44321128039155,99.961357905755 46.305662952014245,99.99722949324496 46.148464862431865,100.0211438776314 46.030566295201425,99.99722949324496 45.89301796682412,99.98527229885076 45.76529451896204,99.97331510304502 45.647395951789804,99.94940070701705 45.490197862149216,99.97331510304502 45.37229929497698,99.94940070701705 45.224926085968036,99.93744350686757 45.08737775759073,99.93744350686757 44.949829429155216,99.97331510304502 44.82210598135134,99.961357905755 44.66490789176896,99.92548630527017 44.517534682760015,99.90157189769525 44.38981123495614,99.88961469171772 44.25226290652063,99.85374306517042 44.11471457808511,99.86570027545531 43.99681601091288,99.87765748432867 43.86909256310901,99.90157189769525 43.751193995878566,99.91352910221758 43.6234705481329,99.961357905755 43.49574710027082,99.961357905755 43.35819877189351,99.94940070701705 43.23047532408964,99.93744350686757 43.12240163749084,99.92548630527017 42.994678189686965,99.94940070701705 42.86695474188309,99.93744350686757 42.74905617465265,99.961357905755 42.601682965643704,99.92548630527017 42.45430975663476,99.94940070701705 42.34623607003596,99.92548630527017 42.20868774160044,99.92548630527017 42.08096429385478,99.92548630527017 41.97289060725598,99.88961469171772 41.83534227882046,99.86570027545531 41.687969069811516,99.87765748432867 41.54059586080257,99.88961469171772 41.39322265179362,99.86570027545531 41.27532408462139,99.87765748432867 41.137775756185874,99.87765748432867 40.990402547235135,99.86570027545531 40.862679099373054,99.86570027545531 40.73495565156918,99.87765748432867 40.58758244256023,99.88961469171772 40.45003411418293,99.91352910221758 40.332135546952486,99.87765748432867 40.20441209914861,99.84178585343034 40.066863770771306,99.85374306517042 39.93914032296743,99.82982864021324 39.80159199453192,99.84178585343034 39.683693427359685,99.86570027545531 39.56579486018745,99.84178585343034 39.42824653175194,99.81787142559187 39.28087332274299,99.81787142559187 39.16297475551255,99.81787142559187 39.0156015465036,99.79395699196175 38.917352740536444,99.77004255253996 38.78962929267436,99.77004255253996 38.652080964297056,99.77004255253996 38.5538321583299,99.79395699196175 38.40645894926274,99.78199977295299 38.268910620885435,99.79395699196175 38.14118717308156,99.82982864021324 37.993813964072615,99.82982864021324 37.85626563569531,99.84178585343034 37.75801682966994,99.80591420950805 37.62046850123443,99.80591420950805 37.49274505348876,99.80591420950805 37.38467136688996,99.78199977295299 37.22747327724937,99.80591420950805 37.0997498294455,99.79395699196175 36.94255173980491,99.78199977295299 36.81482829205925,99.79395699196175 36.71657948603388,99.78199977295299 36.470957470999565,99.79395699196175 36.18603593361331,99.78199977295299 35.969888560357504,99.74612810733379 35.74391630658647,99.74612810733379 35.30179667955963,99.80591420950805 35.02670002274681,99.73417088256247 34.849852171959355,99.71025642863242 34.50598135095788,99.73417088256247 34.33895838074386,99.68634196896892 34.181760291103274,99.67438473697985 33.88701387314359,99.72221365631412 33.602092335699126,99.75808533066447 33.34664544009138,99.86570027545531 33.14032294746721,99.84178585343034 29.259495110309217,99.62655579439888 29.033522856538184,99.62655579439888 28.78790084150387,99.5906840723328 28.46367978164926,99.67438473697985 28.208232886041515,99.60264131447184 27.942961109860335,99.55481233718456 27.589265408285428,99.55481233718456 24.406004093703814,99.51894058904145 24.17020695930114,99.54285508923203 23.85581078013638,99.51894058904145 23.62983852630714,99.48306882781617 23.374391630699392,99.38741073427809 23.069820332049858,99.47111157118343 22.745599272253457,99.48306882781617 22.519627018424217,99.49502608298644 19.974982942920178,99.45915431313188 19.640937002492137,99.45915431313188 19.473914032278117,99.45915431313188 19.306891062122304,99.48306882781617 19.257766659138724,99.42328253023152 19.11039345007157,99.43523979262682 18.776347509701736,99.44719705361786 18.648624061839655,99.37545346608385 18.383352285658475,99.35153892535891 18.167204912460875,99.37545346608385 17.960882419836707,99.37545346608385 17.81350921082776,99.33958165280637 16.762246986618266,99.3634961964417 16.45767568796873,99.37545346608385 16.221878553566057,99.2917525481098 15.995906299736816,99.33958165280637 15.64221059816191,99.32762437877682 15.406413463701028,99.3634961964417 15.180441209929995,99.4113252663883 14.915169433748815,99.35153892535891 14.640072776877787,99.32762437877682 14.404275642475113,99.31566710335028 14.089879463252146,99.2917525481098 13.90320673189126,99.2917525481098 13.68705935869366,99.30370982643944 13.215465089830104,99.32762437877682 13.018967477837577,99.22000884766749 12.999317716632504,99.49502608298644 13.02879235841101,99.71025642863242 13.068091880879365,99.88961469171772 12.97966795542743,100.0928869961208 12.861769388255198,100.1168013573697 12.881419149460271,99.80591420950805 12.675096656836104,99.81787142559187 12.508073686622083,99.99722949324496 12.439299522375222,100.14071571284876 12.419649761228357,100.33203034804319 12.468774164211936,100.66683006790845 12.48842392541701,100.9179291130713 12.60632249264745,101.27664092729538 12.616147373220883,101.51578141302889 12.675096656836104,101.79079225578607 12.70457129861461,102.0299314966469 12.76352058222983,102.19732862072851 12.792995224008337,102.43646687729051 12.792995224008337,102.71147515654593 12.81264498521341,102.98648267013778 12.861769388255198,103.2734462157241 12.861769388255198,103.5484521646431 12.87159426882863,103.82345734783303 12.891244030033704,104.09846176540304 12.87159426882863,104.34955208662723 12.87159426882863,104.66042493336136" stroke="#4DD2FF" stroke-dasharray="none" stroke-linecap="round" stroke-linejoin="round" stroke-width="0.5"><title>2013-12-10 10.9km</title><desc>9223370650177580807</desc></polyline><polyline fill="none" opacity="1" points="90.16168481484056,95.87035909830593 89.68176699988544,98.49739136477001 88.72193137276918,102.58388032088988 88.96189028024673,106.37847101641819 88.2420135596767,109.29738287813962 88.2420135596767,113.09196302411146 88.2420135596767,116.01086677075364 89.4418080933392,118.34598722797818 91.84139716345817,121.84866367932409 94.72090404573828,123.01622136775404 98.56024655792862,123.60000000009313 102.15963016077876,122.43244259478524 104.07930141687393,119.80543636670336 106.71884939447045,117.47031732159667 108.39856174215674,113.38385355728678 108.39856174215674,110.17305574938655 109.59835627768189,106.08657963620499 110.07827409170568,102.87577212415636 110.79815081227571,99.08117592497729 111.7579864403233,94.70278828428127 111.7579864403233,92.07575188926421 111.51802753377706,87.69735154649243 110.31823299825191,84.19462555623613 108.87847955618054,81.85947207268327 105.51905485894531,80.98378893476911 103.11946578975767,80.4000000001397 99.28012327849865,80.6918944849167 96.16065748780966,82.44326065597124 93.04119169805199,85.36220145085827 90.64160262793303,88.57303225062788 90.40164372138679,92.36764496355318 89.92172590643167,95.87035909830593 89.4418080933392,99.37306815129705 88.72193137276918,102.58388032088988 88.72193137276918,106.37847101641819 88.2420135596767,110.17305574938655 88.72193137276918,113.96763451839797 89.20184918586165,117.47031732159667 91.36147934850305,119.80543636670336 94.24098623264581,121.55677416943945 97.60041092988104,122.43244259478524" stroke="#4DD2FF" stroke-dasharray="none" stroke-linecap="round" stroke-linejoin="round" stroke-width="0.5"><title>2013-11-30 10.3km</title><desc>9223370651086224807</desc></polyline><polyline fill="none" opacity="1" points="156.27325630094856,100.76188558526337 156.49945964291692,104.06379581429064 153.55881619919091,107.36570125445724 154.46362956706434,109.8421271899715 155.82084961794317,112.31855043233372 155.82084961794317,116.17075901036151 156.49945964291692,118.37201812700368 157.40427300985903,119.47264688764699 159.44010308664292,122.22421646025032 162.83315321430564,122.22421646025032 166.67861002590507,123.60000000009313 167.58342339284718,121.6739028126467 171.20267686247826,119.74780399515294 174.8219303302467,115.89560147118755 175.72674369905144,114.51981327589601 177.53637043293566,112.04339242749847 176.85776040703058,106.8153840135783 176.17915038205683,105.71474913298152 176.4053537240252,101.86252286075614 177.762573774904,96.90965093066916 177.762573774904,95.80901126144454 176.17915038205683,92.78224942437373 178.44118379987776,90.30580492829904 176.85776040703058,89.20516206463799 175.2743370141834,86.72871367656626 173.23850693926215,83.7019397658296 171.4288802035153,83.15161680453457 168.4882367597893,80.4000000001397 163.9641699232161,82.6012937091291 160.79732313752174,85.90323028201237 157.85667969379574,88.93000126630068 156.72566298395395,90.85612616012804 156.49945964291692,95.25869122636504 158.0828830357641,99.38608824228868 156.27325630094856,102.96315960329957 155.36844293307513,105.43959032977 156.0470529589802,107.64085982413962 155.1422395920381,110.6676019039005 155.36844293307513,113.69433995871805 155.36844293307513,117.27138883504085 157.40427300985903,118.64717536675744 160.118713112548,120.57327511627227 163.5117632402107,121.94905965286307 166.4524066830054,122.77452997583896 169.61925346869975,122.22421646025032 172.3336935704574,120.02296106843278 174.8219303302467,117.27138883504085 176.4053537240252,113.41918211965822 176.63155706506222,110.3924436995294 176.85776040703058,107.36570125445724 176.85776040703058,104.06379581429064 176.17915038205683,100.76188558526337 176.85776040703058,97.45997056690976 177.08396374993026,94.70837105903774 177.98877711594105,91.40644725854509 177.53637043293566,88.37967956834473 176.17915038205683,85.62806908367202 174.3695236472413,83.7019397658296 172.3336935704574,82.87645527347922 169.16684678569436,82.05097048147582 166.4524066830054,82.05097048147582 163.28555989731103,83.7019397658296 161.47593316342682,84.25226259441115 159.44010308664292,86.45355257811025 157.85667969379574,88.37967956834473 157.63047635182738,91.40644725854509 156.72566298395395,95.25869122636504 157.17806966789067,98.28544977051206 156.49945964291692,102.13768209633417 156.49945964291692,104.06379581429064 156.0470529589802,108.46633533574641 154.68983290810138,112.31855043233372 155.1422395920381,116.17075901036151 156.49945964291692,118.09686085442081 160.34491645358503,119.19748974777758 163.5117632402107,121.3987459379714 166.67861002590507,121.3987459379714 170.07166015263647,119.74780399515294 172.3336935704574,118.09686085442081 174.14332030527294,115.07012865296565 175.72674369905144,111.21791821252555 175.50054035615176,107.64085982413962 176.17915038205683,104.33895478351042 176.17915038205683,100.76188558526337 176.85776040703058,97.45997056690976 177.08396374993026,93.6077303243801 178.21498045884073,89.48032283014618 177.08396374993026,87.55419677193277 175.04813367314637,85.62806908367202 172.3336935704574,83.97710119653493 168.2620334168896,82.87645527347922 164.64277994912118,83.15161680453457" stroke="#4DD2FF" stroke-dasharray="none" stroke-linecap="round" stroke-linejoin="round" stroke-width="0.5"><title>2013-11-16 10.4km</title><desc>9223370652294258807</desc></polyline><polyline fill="none" opacity="1" points="22.324188444763422,138.16445025079884 23.783664888702333,141.12336687929928 22.810680591501296,144.6740621116478 22.810680591501296,150.88776637450792 22.324188444763422,154.43844744330272 22.567434517666698,160.06034860108048 22.0809423699975,163.6110163643025 23.053926666267216,166.5699022328481 24.51340311113745,168.64112021238543 28.648586370050907,170.71233643963933 33.51350785139948,171.60000000009313 37.89193718507886,171.30411218269728 38.86492148041725,169.52878452418372 41.5406282953918,167.1616789775435 41.78387437015772,163.01923876185901 41.78387437015772,160.35623777890578 42.75685866642743,155.32611690624617 44.70282725896686,150.29598569567315 44.94607333280146,146.1535169382114 45.43256548047066,142.89871513913386 45.18931940663606,138.75623386260122 45.43256548047066,135.7973143735435 44.21633510943502,132.5424988034647 40.081151850521564,129.879464663798 36.43246074113995,128.99178597261198 32.78376962989569,128.99178597261198 28.891832443885505,130.4712502779439 26.21612562984228,132.24660626379773 24.999895258806646,136.38909855671227 23.297172740101814,141.12336687929928 23.297172740101814,144.08227993012406 23.053926666267216,146.74529861821793 22.324188444763422,150.88776637450792 22.567434517666698,154.73433729959652 22.324188444763422,157.69323389837518 22.567434517666698,162.72334990650415 23.540418813936412,165.09045974630862 25.972879556007683,167.1616789775435 30.594554962590337,171.00822432967834 34.486492147669196,171.00822432967834 38.135183257982135,169.82467255694792 40.324397925287485,168.64112021238543 43.00010474026203,165.38634831481613 43.729842961765826,162.72334990650415 43.48659688793123,158.58090218016878 43.973089036531746,153.8466676226817 44.94607333280146,150.88776637450792 45.675811554305255,147.33708015549928 45.675811554305255,143.7863887862768 45.919057629071176,139.64390901243314 45.43256548047066,135.7973143735435 43.24335081502795,132.5424988034647 40.567644000053406,130.4712502779439 36.43246074113995,128.4000000001397 32.78376962989569,128.99178597261198 29.378324592486024,130.4712502779439 26.21612562984228,131.95071368920617 23.540418813936412,134.90963782859035 22.810680591501296,140.23569226590917 23.053926666267216,143.7863887862768 22.567434517666698,147.33708015549928 24.02691096253693,150.88776637450792 22.324188444763422,156.50967568787746 21.594450222328305,160.35623777890578 22.324188444763422,164.2027938242536 22.567434517666698,166.27401380729862 26.21612562984228,168.64112021238543 29.135078517720103,170.12056055432186 33.99999999906868,170.71233643963933 37.40544503647834,170.12056055432186 40.567644000053406,168.64112021238543 42.75685866642743,165.68223684746772 43.48659688793123,162.13157208892517 44.45958118420094,158.58090218016878 44.94607333280146,155.0302271207329 45.18931940663606,151.77543712500483 45.675811554305255,148.81653337273747 45.919057629071176,145.26584414974786 46.40554977674037,139.3480173314456 45.919057629071176,135.7973143735435 44.21633510943502,133.13428377383389 41.0541361477226,130.4712502779439 38.378429332748055,129.2876789055299 33.51350785139948,128.69589300476946 30.594554962590337,129.58357180282474 27.91884814761579,130.76714303181507 25.486387406475842,133.13428377383389 24.51340311113745,134.31785328662954 23.783664888702333,135.7973143735435 24.999895258806646,139.3480173314456 24.756649184972048,140.82747537712567 24.27015703637153,144.9699531486258 22.810680591501296,149.1124239093624 22.0809423699975,152.3672174452804" stroke="#4DD2FF" stroke-dasharray="none" stroke-linecap="round" stroke-linejoin="round" stroke-width="0.5"><title>2013-11-03 10.7km</title><desc>9223370653417861807</desc></polyline><polyline fill="none" opacity="1" points="111.71959584765136,142.5120861462783 111.9563553603366,138.48007006268017 111.48283633589745,133.2960393568501 109.35200072731823,129.84001261997037 106.98440560605377,129.2640076763928 103.90653194859624,130.41601742454804 100.35513926763088,130.12801503995433 97.51402512192726,130.41601742454804 94.67291097715497,132.14403100241907 92.77883488032967,135.3120526385028 91.35827780794352,138.1920686531812 91.59503732062876,143.37608870584518 90.88475878350437,145.96809450211003 90.1744802473113,149.712097896263 89.46420171111822,153.4560954067856 88.51716366223991,155.7600909504108 88.28040415141732,159.2160800890997 88.28040415141732,162.96006266516633 89.70096122287214,167.28003524802625 92.77883488032967,169.5840174248442 97.27726561017334,171.31200259411708 100.59189877938479,171.60000000009313 104.3800509730354,170.16001262003556 107.69468414224684,167.28003524802625 108.16820316575468,162.6720642137807 110.29903877526522,158.06408426584676 110.53579828795046,154.60809345706366 110.53579828795046,151.44009747868404 110.77255779877305,147.1200961722061 111.00931731145829,142.80008703446947 112.19311487209052,139.0560727783013 112.42987438477576,135.3120526385028 110.29903877526522,132.7200352489017 108.87848170287907,130.41601742454804 105.80060804635286,128.9760051521007 102.01245585177094,128.4000000001397 98.22430365905166,129.2640076763928 94.90967048984021,129.84001261997037 89.70096122287214,133.8720433257986 88.99068268761039,135.0240508459974 88.99068268761039,136.46405946207233 90.1744802473113,139.63207535468973 89.93772073462605,143.66408948926255 88.51716366223991,147.69609680003487 88.51716366223991,150.57609784416854 87.57012561522424,154.32009399705566 87.57012561522424,157.48808614653535 87.80688512697816,160.65607408294454 87.57012561522424,163.5360594613012 89.22744219843298,166.7040393569041 91.35827780794352,169.00802208902314 94.19939195271581,169.87201503990218 97.9875441454351,169.5840174248442 102.01245585177094,168.72002436965704 106.51088658254594,166.99203731981106 108.40496267937124,164.4000543965958 110.29903877526522,160.65607408294454 109.82551975175738,156.62408870481886" stroke="#4DD2FF" stroke-dasharray="none" stroke-linecap="round" stroke-linejoin="round" stroke-width="0.5"><title>2013-11-02 10.5km</title><desc>9223370653505000807</desc></polyline><polyline fill="none" opacity="1" points="159.78505679685622,132.45003549358808 157.5654342258349,135.15005507646129 156.01169842481613,138.12007284793071 156.45562293939292,142.98009340977296 156.67758519575,145.68010026379488 156.23366068210453,149.19010429433547 156.01169842481613,151.35010403278284 156.01169842481613,152.97010246641003 155.56777391023934,155.67009724397212 155.12384939659387,158.6400877290871 156.23366068210453,162.15007139416412 157.5654342258349,164.85005507571623 160.67290582694113,167.0100396713242 164.22430194169283,168.3600289823953 167.7756980592385,168.3600289823953 169.77335837297142,167.82003335561603 172.65886771772057,165.66004954348318 174.6565280323848,162.96006684168242 175.54437706060708,159.18008557590656 175.54437706060708,155.94009654247202 175.7663393188268,152.70010280935094 175.54437706060708,149.46010437584482 175.54437706060708,146.49010168295354 176.43222609069198,142.98009340977296 176.87615060433745,140.01008210144937 176.43222609069198,137.31006839242764 175.32241480425,134.34004954481497 173.99064126145095,132.72003759886138 170.4392451448366,130.56001984444447 167.7756980592385,128.4000000001397 165.3341132281348,129.48001018329524 162.0046793706715,130.8300221778918 159.78505679685622,132.45003549358808 158.67524551134557,135.69005860155448 158.2313209977001,138.12007284793071 157.7873964831233,141.63008875912055 156.45562293939292,144.33009724435396 156.01169842481613,146.76010209089145 156.23366068210453,150.81010429398157 157.7873964831233,154.32010026299395 154.90188713837415,155.13009854895063 155.12384939659387,156.21009580790997 154.45796262472868,157.56009164638817 154.90188713837415,163.23006525845267 160.22898131329566,166.20004569296725 165.77803774364293,167.55003549298272 167.1098112873733,167.55003549298272 169.10747160110623,167.55003549298272 171.77101868763566,168.3600289823953 173.99064126145095,164.0400603134185 174.6565280323848,162.96006684168242 174.8784902896732,160.5300796192605 175.54437706060708,159.18008557590656 173.54671674594283,158.91008666879497 174.8784902896732,158.10008975397795 176.2102638334036,155.94009654247202 175.9883015761152,150.81010429398157 176.2102638334036,149.46010437584482 175.7663393188268,146.2201012421865 176.2102638334036,142.1700907170307 175.7663393188268,136.7700652598869 175.32241480425,133.26004171161912 173.54671674594283,129.75001264712773 169.55139611661434,129.48001018329524 165.77803774364293,129.21000768686645 162.6705661425367,130.56001984444447 159.78505679685622,132.72003759886138 156.67758519575,133.26004171161912 156.45562293939292,137.58006991050206 156.23366068210453,140.55008445074782 156.01169842481613,144.0600965428166 154.90188713837415,147.57010311936028 155.34581165295094,151.62010385282338 155.12384939659387,155.13009854895063 154.90188713837415,159.18008557590656 154.90188713837415,161.61007426702417 158.45328325405717,165.66004954348318 164.00233968626708,168.63002674723975 166.44392451550812,169.98001507879235 169.32943385839462,171.60000000009313 173.32475448958576,167.82003335561603 175.1004525469616,162.69006839231588 175.54437706060708,159.7200832911767 175.54437706060708,158.6400877290871 175.1004525469616,153.24010209064 174.8784902896732,148.92010417976417 175.32241480425,146.2201012421865 175.54437706060708,142.98009340977296 177.09811286255717,138.93007700890303 175.7663393188268,135.96006031497382 174.43456577509642,134.34004954481497 172.88082997407764,130.8300221778918 170.21728288847953,130.02001507859677 166.0,129.75001264712773 162.0046793706715,130.56001984444447 159.78505679685622,130.8300221778918 156.89954745396972,132.72003759886138 154.90188713837415,135.69005860155448 154.67992488108575,138.39007426798344 155.34581165295094,139.7400808769744 154.23600036650896,142.71009254432283 154.67992488108575,145.95010076928884 154.90188713837415,147.57010311936028 154.45796262472868,150.27010442432947 154.90188713837415,153.78010124200955 154.67992488108575,157.02009340864606 154.90188713837415,161.34007565444335 157.5654342258349,166.20004569296725 161.7827171124518,168.63002674723975 163.11449065618217,168.3600289823953 166.0,169.98001507879235 167.99766031466424,169.1700221770443 171.1051319167018,171.33000259427354 173.32475448958576,168.63002674723975 174.8784902896732,162.42006990942173 173.99064126145095,158.37008875748143 175.1004525469616,151.35010403278284 174.8784902896732,147.0301024664659 174.8784902896732,145.68010026379488 176.43222609069198,142.98009340977296 177.76399963349104,140.82008557626978 177.09811286255717,136.7700652598869 175.32241480425,132.1800333559513 173.10279223136604,129.75001264712773 169.9953206302598,128.6700025945902 166.0,128.94000515691005 161.1168303405866,130.56001984444447 157.1215097112581,132.1800333559513 156.67758519575,133.53004371840507 155.56777391023934,134.61005142168142 155.78973616752774,137.04006684245542 156.01169842481613,138.6600756549742 156.23366068210453,142.1700907170307 156.23366068210453,143.5200950417202 156.23366068210453,147.84010339644738 156.01169842481613,149.19010429433547 155.12384939659387,151.62010385282338 155.78973616752774,155.13009854895063 154.90188713837415,156.21009580790997 155.12384939659387,161.07007700833492 156.23366068210453,162.15007139416412 156.23366068210453,163.50006364332512 158.45328325405717,165.66004954348318 162.6705661425367,168.63002674723975 167.1098112873733,170.52001018356532 170.4392451448366,169.710017477395 171.99298094585538,168.09003118495457 175.32241480425,163.77006199466996 174.8784902896732,159.18008557590656 174.43456577509642,152.97010246641003 176.2102638334036,152.1601033960469 176.65418834704906,147.3001028096769 176.87615060433745,146.49010168295354 175.9883015761152,142.71009254432283 176.87615060433745,138.93007700890303 175.54437706060708,134.34004954481497 173.54671674594283,132.1800333559513 172.21494320314378,128.94000515691005" stroke="#4DD2FF" stroke-dasharray="none" stroke-linecap="round" stroke-linejoin="round" stroke-width="0.5"><title>2013-10-26 11.1km</title><desc>9223370654110301807</desc></polyline><polyline fill="none" opacity="1" points="42.29437106475234,183.78952995873988 40.8925055321306,180.3789805562701 36.68690893705934,178.67370399925858 33.41588936187327,178.10527820512652 29.443937020376325,180.66319319489412 27.341138722375035,181.51583090610802 24.771051913499832,184.3579543782398 22.901897870004177,187.76849800907075 24.30376340262592,190.32640248560347 25.004696168005466,193.1685153071303 25.004696168005466,196.86325683817267 24.07011914718896,199.9895720607601 23.602830636315048,203.68430287321098 23.36918638087809,206.81060902611353 24.30376340262592,208.23165590292774 23.602830636315048,212.77900013769977 25.705628934316337,215.62108581862412 28.042071488685906,217.89475188939832 30.845802552998066,218.46316806343384 34.11682212725282,217.89475188939832 38.08877446874976,216.18950254260562 41.359794043935835,213.91583482245915 42.29437106475234,209.93691102182493 42.06072680931538,206.52639954793267 42.52801532112062,202.26325324806385 42.52801532112062,198.85273064253852 42.52801532112062,195.1579922370147 43.92988085281104,191.4632480267901 45.565390639938414,189.18955639493652 46.49996766168624,186.63165068160743 46.26632340531796,184.07374218595214 43.92988085281104,181.23161837016232 40.8925055321306,179.81055517448112 37.855130213312805,177.25263925665058 34.58411063905805,176.4000000001397 31.0794468075037,177.82106525660492 28.27571574319154,180.09476788225584 25.705628934316337,182.6526807071641 25.238340424373746,185.77901482582092 25.238340424373746,189.4737679695245 24.771051913499832,192.60009301709943 24.30376340262592,196.86325683817267 21.50003233831376,199.9895720607601 21.967320849187672,203.68430287321098 21.733676593750715,207.94744659680873 22.200965103693306,211.07374708005227 22.200965103693306,213.91583482245915 24.30376340262592,216.75791912851855 27.341138722375035,219.0315841003321 30.61215829756111,219.60000000009313 34.58411063905805,219.0315841003321 37.154197447001934,217.610543750925 40.8925055321306,215.90529419737868 41.82708255480975,213.6316262029577 43.462592341937125,210.22112008789554 43.92988085281104,206.81060902611353 43.92988085281104,203.1158831268549 44.39716936368495,199.70536175812595 45.0981021290645,195.4422030900605 45.33174638450146,192.0316705906298 45.79903489537537,189.18955639493652 45.565390639938414,185.49480280443095 44.63081361912191,181.80004340759479 42.52801532112062,179.24212965508923 39.4906400013715,178.10527820512652 35.98597617074847,177.53685227409005 32.48131234012544,177.53685227409005 29.21029276587069,178.95791684417054 25.705628934316337,181.23161837016232 24.30376340262592,184.07374218595214 25.004696168005466,188.33692146651447 23.602830636315048,191.74745932617225 23.36918638087809,194.58957042940892 23.36918638087809,198.28430972713977 21.733676593750715,201.69483315735124 22.200965103693306,206.52639954793267 21.967320849187672,209.3684927856084 23.36918638087809,212.21058258996345 24.30376340262592,215.90529419737868 25.238340424373746,217.610543750925 30.845802552998066,219.0315841003321 34.81775489356369,218.46316806343384 37.38784170243889,216.18950254260562 41.59343829844147,212.77900013769977 43.22894808650017,211.9263737637084 43.92988085281104,209.08428361662664 43.462592341937125,205.95798048726283 43.462592341937125,202.26325324806385 43.462592341937125,199.13694104878232 43.92988085281104,195.72641390911303 45.33174638450146,192.31588182109408 45.565390639938414,189.18955639493652 45.565390639938414,186.34743876405992 45.565390639938414,183.78952995873988 43.22894808650017,181.23161837016232 41.359794043935835,178.10527820512652 37.855130213312805,176.96842620545067 33.6495336163789,178.10527820512652 29.67758127581328,180.09476788225584 27.341138722375035,183.22110540163703 25.238340424373746,186.34743876405992 23.836474891752005,188.33692146651447 23.602830636315048,192.0316705906298 22.668253615498543,195.4422030900605 22.200965103693306,199.13694104878232" stroke="#4DD2FF" stroke-dasharray="none" stroke-linecap="round" stroke-linejoin="round" stroke-width="0.5"><title>2013-10-20 10.7km</title><desc>9223370654628121807</desc></polyline><polyline fill="none" opacity="1" points="106.03066936973482,216.06795569579117 109.15768311638385,213.8943872116506 110.72118998877704,211.17742365039885 110.94454811420292,208.18875993951224 111.39126436412334,205.20009225560352 111.83798061311245,201.1246299177874 112.50805498752743,198.13595284009352 112.95477123744786,195.41897022980265 113.17812936194241,192.70198433613405 112.73141311202198,188.89819856663235 112.50805498752743,186.1812047897838 110.27447373978794,182.92080792272463 108.71096686646342,179.6604063261766 105.80731124430895,177.75850321003236 102.68029749765992,176.67170070740394 99.77664187457412,176.67170070740394 96.20291187800467,177.48680263385177 92.85254000686109,179.6604063261766 90.39560063369572,182.92080792272463 89.50216813571751,185.90950523177162 89.50216813571751,188.89819856663235 88.83209376130253,192.15858676331118 88.60873563587666,196.23406535829417 87.49194501247257,199.49444291344844 87.93866126146168,202.4831181843765 86.82187063805759,206.2868809637148 89.27881001029164,208.73215363710187 90.17224251013249,211.9925130638294 91.95910750795156,215.52456377237104 94.19268875569105,217.42643493087962 97.7664187522605,218.7849133447744 101.56350687332451,219.60000000009313 104.46716249547899,217.96982639585622 106.92410186771303,215.25286776060238 108.93432499095798,212.8076021813322 110.49783186521381,209.81894063809887 110.27447373978794,207.64536611060612 110.94454811420292,204.65669770352542 111.16790623962879,201.6680253231898 111.39126436412334,198.67934896820225 112.061338737607,196.23406535829417 112.50805498752743,191.88688792707399 112.50805498752743,188.62649933667853 111.16790623962879,183.19250784208998 109.3810412408784,179.6604063261766 106.47738561872393,178.03020375361666 102.01022312324494,176.4000000001397" stroke="#4DD2FF" stroke-dasharray="none" stroke-linecap="round" stroke-linejoin="round" stroke-width="0.5"><title>2013-10-19 10.2km</title><desc>9223370654714312807</desc></polyline><polyline fill="none" opacity="1" points="174.93888115882874,211.07761180168018 175.90524668991566,206.66946825268678 175.4220639243722,202.55519372876734 175.66365530714393,198.1470347265713 175.90524668991566,195.2082576181274 176.63002083823085,191.09396369801834 177.59638636745512,187.27354168030433 176.1468380726874,183.15923433192074 174.93888115882874,180.22043910529464 171.31501041911542,177.5755203643348 167.20795691385865,176.4000000001397 163.3424947904423,177.5755203643348 160.20180681534111,179.33879984519444 158.51066713687032,182.57147557032295 157.302710223943,185.51026795455255 157.06111884023994,188.15517806308344 156.5779360756278,191.9755986945238 155.61157054454088,195.5021354884375 154.8867963962257,198.73478972166777 154.64520501438528,201.96743965684436 154.64520501438528,206.08171517541632 155.12838777899742,209.90210763714276 156.81952745839953,213.72249409533106 158.0274843722582,215.7796227785293 160.92658096458763,219.0122500488069 164.55045170336962,219.0122500488069 167.44954829569906,219.60000000009313 170.83182765357196,218.13062485610135 173.48933286219835,216.36737351119518 175.18047254160047,212.84086698386818 175.66365530714393,208.43272663117386 175.90524668991566,203.73070144630037 175.90524668991566,200.79193108691834 175.90524668991566,197.26540196686983 176.87161222100258,194.32662379206158 177.59638636745512,190.80008529429324 177.35479498654604,186.39190497691743 175.18047254160047,180.22043910529464 172.52296733297408,178.16328033292666 167.6911396794021,176.69388014404103 164.79204308707267,176.9877602532506 161.8929464938119,179.63267963356338 159.23544128518552,181.6898371623829 158.51066713687032,184.62863061204553 157.06111884023994,189.33069274341688 155.61157054454088,193.73886773106642 155.61157054454088,197.26540196686983 154.16202224884182,200.79193108691834 154.40361363161355,204.6123318609316 154.64520501438528,207.8449739809148 154.16202224884182,211.37148775416426 156.09475331008434,215.48574735829607 158.75225852057338,218.13062485610135 161.40976372919977,218.42449995642528 166.48318276554346,219.0122500488069 169.38227935694158,217.54287455044687 172.52296733297408,214.89799641259015 173.48933286219835,212.25311539904214 174.697289776057,208.43272663117386 176.1468380726874,204.9062085954938 177.35479498654604,201.67356256698258 177.83797775115818,197.55927958874963 177.35479498654604,192.85723337321542 177.35479498654604,188.44905678625219 176.3884294545278,184.92250976222567 174.93888115882874,180.22043910529464 172.03978456743062,178.16328033292666 168.89909659232944,177.28164032683708 164.79204308707267,176.9877602532506 161.40976372919977,179.04492002003826 158.51066713687032,181.6898371623829 157.06111884023994,184.33475142717361 157.78589298855513,187.8612993035931 156.5779360756278,192.5633551827632" stroke="#4DD2FF" stroke-dasharray="none" stroke-linecap="round" stroke-linejoin="round" stroke-width="0.5"><title>2013-10-12 10.6km</title><desc>9223370655320152807</desc></polyline><polyline fill="none" opacity="1" points="38.64234253298491,225.81177733442746 34.00000000093132,224.4000000001397 30.98247735388577,225.2470665036235 27.96495470777154,226.65884332591668 26.34013482183218,230.6118138891179 25.411666315048933,234.0000690475572 25.643783441744745,236.25890308944508 24.251080681569874,240.77656461950392 24.251080681569874,243.31774539034814 23.55472930241376,247.83539326884784 24.251080681569874,250.94127111579292 24.483197808265686,255.17655243445188 24.018963554874063,258.8471233653836 22.858377922326326,262.51768852747045 24.94743206165731,263.3647412073333 28.42918896023184,265.6235468534287 31.678828733973205,267.60000000009313 34.696351380087435,267.60000000009313 38.874459659680724,265.90589740499854 41.42774805333465,263.92944282409735 43.748919318430126,260.8235822466668 44.677387826144695,257.1530144221615 44.90950495097786,252.63538456475362 43.748919318430126,248.96480387263 43.98103644605726,243.8824518530164 45.141622078604996,239.92950374865904 45.37373920623213,236.82361125876196 46.30220771115273,234.0000690475572 45.60585633199662,231.74123282171786 43.05256793834269,228.07061929488555 38.874459659680724,226.65884332591668 35.39270276017487,225.81177733442746 32.60729724075645,225.81177733442746 30.286125973798335,226.94119858834893 26.34013482183218,228.91768446774222 24.94743206165731,231.74123282171786 24.018963554874063,235.12948634149507 24.251080681569874,239.0824425695464 24.251080681569874,242.47068544104695 24.483197808265686,245.57657042192295 24.251080681569874,249.24715643795207 22.626260795630515,251.78832799429074 21.92990941554308,254.61184870218858 21.697792288847268,257.435365997022 22.626260795630515,260.25887987948954 23.78684642817825,262.51768852747045 25.411666315048933,265.34119626670144 28.42918896023184,266.75294885598123 31.678828733973205,266.75294885598123 36.55328839365393,267.60000000009313 39.57081103976816,264.7764949919656 41.42774805333465,262.2353375663515 43.748919318430126,258.56477195979096 43.98103644605726,254.61184870218858 43.98103644605726,251.22362344292924 45.141622078604996,247.55304053192958 45.83797345869243,244.16480503370985 45.60585633199662,241.05891817482188 45.60585633199662,238.5177349471487 46.07009058445692,235.12948634149507 45.37373920623213,232.30594208301045 44.44527069851756,229.76474933186546 43.05256793834269,226.94119858834893 40.03504529315978,225.2470665036235 36.55328839365393,225.2470665036235 32.60729724075645,225.2470665036235 28.89342321548611,225.81177733442746 26.804369075223804,228.07061929488555 24.483197808265686,231.74123282171786 24.94743206165731,234.28242342267185 24.94743206165731,237.6706732562743 23.55472930241376,242.18833205639385 23.55472930241376,246.14127633837052 24.251080681569874,247.55304053192958 23.32261217571795,251.22362344292924 22.626260795630515,253.2000887747854 23.090495048090816,256.588311167201 23.78684642817825,259.6941773761064 24.251080681569874,262.80003945552744 25.875900567509234,265.34119626670144 27.73283758200705,266.4705984070897 34.00000000093132,266.4705984070897 38.17810827959329,266.4705984070897" stroke="#4DD2FF" stroke-dasharray="none" stroke-linecap="round" stroke-linejoin="round" stroke-width="0.5"><title>2013-10-06 10.6km</title><desc>9223370655838244807</desc></polyline><polyline fill="none" opacity="1" points="106.22646618355066,265.0753468009643 108.76317462790757,260.867585366359 109.91622392181307,257.2208526181057 110.14683377929032,253.85463268659078 110.60805349703878,250.76892679347657 111.76110279094428,247.68321679718792 111.06927321478724,244.03646333003417 111.06927321478724,240.67022427427582 111.76110279094428,237.5845008501783 111.99171264935285,234.77929417719133 111.76110279094428,231.97408411232755 109.6856140634045,230.2909564457368 108.07134505175054,228.04678432480432 105.30402674898505,226.9246974508278 102.30609858687967,227.48574095615186 97.69390141405165,228.04678432480432 95.38780282903463,228.6078275591135 93.77353381738067,230.2909564457368 93.54292395804077,231.97408411232755 92.62048452533782,234.77929417719133 92.38987466599792,237.86502133100294 91.69804508984089,242.07282447465695 91.00621551368386,245.15854193037376 91.69804508984089,248.80529363360256 90.77560565527529,251.89100213861093 90.31438593752682,255.53774326271378 89.39194650482386,258.3429248428438 89.39194650482386,260.3065499314107 90.31438593752682,263.3922431420069 91.92865494918078,265.6363810834009 96.07963240426034,266.75844923895784 99.30817042570561,267.60000000009313 102.30609858687967,266.75844923895784 105.30402674898505,266.47793225129135 107.37951547559351,264.23379512433894 108.76317462790757,261.98965582833625 109.6856140634045,258.0624068370089 109.45500420406461,254.97670653951354 110.37744363863021,251.04944568034261 110.37744363863021,247.40269750310108 110.14683377929032,243.75594359473325 109.91622392181307,238.98710291530006 110.37744363863021,235.62085653445683 111.06927321478724,234.21825243486091 110.37744363863021,231.41304169245996 108.07134505175054,228.88834912492894 105.07341689057648,226.0831319389399 102.9979281630367,225.2415661229752 99.76939014159143,225.80261003412306 96.31024226266891,225.80261003412306 94.4653633935377,226.6441756472923 93.31231410056353,229.72991361888126 91.69804508984089,232.5351263966877 91.46743523143232,235.62085653445683 90.77560565527529,239.26762322615832 90.08377608004957,243.19490402424708 89.62255636136979,245.7195810272824 88.9307267870754,248.80529363360256 88.9307267870754,252.17152088950388 88.0082873525098,255.53774326271378 87.54706763476133,258.0624068370089 87.7776774931699,261.14810303226113 88.9307267870754,263.6727605035994 91.92865494918078,266.19741522870027 95.61841268651187,267.0389661930967 99.76939014159143,267.319483113708 103.45914787892252,266.75844923895784 105.99585632514209,264.794829609571 108.76317462790757,262.55069085536525 109.91622392181307,258.3429248428438 110.37744363863021,255.53774326271378 110.83866335544735,252.4520396075677 111.06927321478724,249.6468509058468 111.53049293160439,245.7195810272824 111.76110279094428,243.4754238263704 111.99171264935285,240.3897041331511 112.22232250776142,237.5845008501783 112.45293236616999,234.49877332313918 111.76110279094428,231.69356291904114 110.60805349703878,229.1688706574496 108.30195491109043,226.6441756472923 105.76524646673352,225.2415661229752 102.9979281630367,224.4000000001397 100.69182957615703,224.96104411478154 96.77146197948605,225.52208809531294 94.00414367672056,227.20521922083572 92.62048452533782,230.8519991368521 91.00621551368386,235.34033578261733 90.08377608004957,238.14554177806713 89.85316622070968,240.3897041331511 89.62255636136979,243.4754238263704 89.85316622070968,246.56113941781223 90.08377608004957,249.92736992868595 89.85316622070968,253.01307694031857 89.62255636136979,256.3792980927974 90.08377608004957,259.7455143611878 91.46743523143232,262.83120831870474 94.00414367672056,264.5143123844173 96.77146197948605,267.319483113708 100.69182957615703,267.319483113708 102.9979281630367,267.0389661930967 106.45707604289055,265.35586395906284 108.532564769499,263.3922431420069 109.6856140634045,260.0260321632959 110.14683377929032,257.2208526181057 111.06927321478724,254.13515119976364 111.06927321478724,250.76892679347657 111.76110279094428,247.96373605774716 111.76110279094428,244.8780223308131 111.53049293160439,241.79230450256728 112.68354222457856,238.14554177806713 111.76110279094428,235.34033578261733 110.83866335544735,231.97408411232755 110.14683377929032,229.44939215504564 107.6101253349334,227.7662626572419 104.38158731441945,226.0831319389399 101.38365915231407,226.6441756472923 97.23268169723451,226.9246974508278 94.23475353512913,228.88834912492894 92.85109438374639,230.8519991368521 90.77560565527529,234.21825243486091 90.31438593752682,236.46241858764552 89.39194650482386,240.1091839573346 89.62255636136979,243.19490402424708 88.46950706932694,246.28061998845078 88.46950706932694,249.6468509058468 87.7776774931699,253.01307694031857 87.31645777635276,256.3792980927974 88.0082873525098,259.7455143611878 89.16133664548397,262.83120831870474 92.62048452533782,264.794829609571 96.31024226266891,266.47793225129135 98.84695070702583,265.9168981728144 102.30609858687967,265.0753468009643 104.84280703123659,262.270173358731 108.07134505175054,260.3065499314107 109.6856140634045,257.7818887971807 110.37744363863021,255.53774326271378 110.60805349703878,252.17152088950388 111.06927321478724,248.80529363360256 111.29988307226449,246.28061998845078" stroke="#4DD2FF" stroke-dasharray="none" stroke-linecap="round" stroke-linejoin="round" stroke-width="0.5"><title>2013-09-29 10.5km</title><desc>9223370656443428807</desc></polyline><polyline fill="none" opacity="1" points="163.752283657901,265.13926266669296 166.89908653870225,265.13926266669296 169.37157451640815,264.0456007702742 172.29360576253384,263.22535400046036 174.31655047181994,261.0380278278608 175.66518027801067,258.3038671386894 176.5642668157816,255.29628656315617 176.5642668157816,251.7418679993134 176.5642668157816,248.73427869705483 177.23858171794564,246.00010313582607 177.23858171794564,242.17225179541856 178.36243989039212,238.8912312053144 177.68812498729676,237.25071912514977 176.78903844952583,234.51652968092822 175.66518027801067,230.68865890661255 173.86700720340014,227.95446153078228 171.39451922569424,225.49368106527254 170.0458894195035,225.76710125035606 166.00000000093132,224.94684059894644 163.30274038854986,226.5873616025783 160.83025241084397,228.22788141667843 159.7063942393288,232.055756355403 158.35776443313807,233.6962722032331 157.6834495300427,238.6178126083687 157.00913462694734,240.80516046099365 156.78436299227178,244.9064319843892 156.78436299227178,247.09377375710756 156.55959135852754,249.28111341316253 156.55959135852754,253.38236956926994 155.2109615523368,255.56970314332284 155.6605048207566,261.0380278278608 156.55959135852754,263.4987696236931 161.95411058235914,265.4126780577935 164.2018269263208,265.95950874197297 167.5734014417976,265.95950874197297 171.61929085943848,264.86584724183194 174.5413221064955,262.1316911787726 176.5642668157816,258.0304508882109 177.23858171794564,253.65578638156876 175.66518027801067,250.92161676776595 174.09177883714437,249.55453072185628 175.88995191268623,245.17984982184134 177.4633533526212,239.98490526387468 177.91289662197232,238.07097531366162 177.23858171794564,235.06336783478037 178.36243989039212,231.235497985268 175.66518027801067,228.50130126997828 172.9679206656292,225.49368106527254 171.16974759101868,224.94684059894644 165.77522836625576,225.49368106527254 164.2018269263208,225.76710125035606 161.27979567926377,228.22788141667843 158.80730770155787,230.41523931804113 158.1329927984625,232.87601442844607 157.6834495300427,236.43046263838187 156.55959135852754,241.07857879367657 157.00913462694734,244.35959621169604 157.23390626069158,246.54693851224147 156.55959135852754,250.92161676776595 157.00913462694734,254.20261990698054 155.6605048207566,258.3038671386894 156.33481972385198,261.5848595700227 156.55959135852754,263.4987696236931 160.38070914242417,264.86584724183194 163.97705529164523,267.3265848727897 166.22477163467556,266.77975451922975 169.14680288173258,265.95950874197297 172.0688341287896,264.86584724183194 174.9908653749153,261.5848595700227 175.21563700959086,259.3975318111479 175.88995191268623,256.66336913825944 176.78903844952583,253.92920316033997 177.91289662197232,250.92161676776595 177.0138100842014,247.3671913293656 175.88995191268623,243.53934230282903 176.11472354643047,240.5317420954816 176.5642668157816,237.25071912514977 177.68812498729676,236.43046263838187 178.58721152413636,232.87601442844607 177.23858171794564,230.14181969570927 178.36243989039212,230.41523931804113 177.91289662197232,227.68104161159135 174.76609374023974,226.31394151831046 171.39451922569424,225.22026084875688 168.24771634489298,224.6734203158412 164.2018269263208,225.76710125035606 161.0550240445882,228.22788141667843 158.35776443313807,230.14181969570927 158.1329927984625,233.42285297834314 155.88527645543218,237.25071912514977 154.53664664924145,241.62541536078788 156.11004808917642,241.62541536078788 156.78436299227178,243.2659242679365 156.33481972385198,246.8203561506234 155.6605048207566,250.92161676776595 153.41278847679496,253.10895272321068 155.43573318701237,256.11653620772995 155.6605048207566,258.57728335657157 157.23390626069158,262.9519383441657 159.256850970909,265.4126780577935 161.95411058235914,266.23292403365485 165.77522836625576,266.23292403365485 169.37157451640815,267.60000000009313 172.9679206656292,266.23292403365485 174.09177883714437,264.0456007702742 174.31655047181994,260.49119595531374 175.66518027801067,259.3975318111479 175.88995191268623,255.29628656315617 177.91289662197232,248.73427869705483 177.91289662197232,244.08617827459238 175.88995191268623,241.35199709353037 176.5642668157816,238.07097531366162 177.0138100842014,235.61020585522056 177.4633533526212,232.055756355403 177.23858171794564,230.14181969570927 175.66518027801067,227.1342016728595 172.0688341287896,225.76710125035606 168.69725961331278,224.4000000001397 166.00000000093132,225.76710125035606 163.52751202322543,226.8607816544827 160.38070914242417,229.04814087809063 157.45867789536715,232.055756355403 155.6605048207566,235.61020585522056 156.78436299227178,239.16464976919815 157.00913462694734,243.53934230282903 157.00913462694734,246.8203561506234 156.33481972385198,250.64819962508045 154.761418283917,253.10895272321068 156.33481972385198,256.66336913825944 155.6605048207566,259.3975318111479 156.78436299227178,262.4051069342531 157.6834495300427,264.86584724183194 161.7293389486149,264.31901629362255 164.2018269263208,265.95950874197297 167.5734014417976,265.13926266669296 170.72020432259887,264.592431783909" stroke="#4DD2FF" stroke-dasharray="none" stroke-linecap="round" stroke-linejoin="round" stroke-width="0.5"><title>2013-09-22 10.9km</title><desc>9223370657048162807</desc></polyline></svg>