<?xml version="1.0" encoding="utf-8" ?>
<svg baseProfile="full" height="300mm" version="1.1" viewBox="0,0,200,300" width="200mm" xmlns="http://www.w3.org/2000/svg" xmlns:ev="http://www.w3.org/2001/xml-events" xmlns:xlink="http://www.w3.org/1999/xlink"><defs /><rect fill="#222222" height="300" width="200" x="0" y="0" /><text fill="#FFFFFF" style="font-size:12px; font-family:Arial; font-weight:bold;" x="10" y="20">Over 10km Runs</text><text fill="#FFFFFF" style="font-size:4px; font-family:Arial" x="10" y="280">Runner</text><text fill="#FFFFFF" style="font-size:9px; font-family:Arial" x="10" y="290">keep</text><text fill="#FFFFFF" style="font-size:4px; font-family:Arial" x="65" y="280">SPECIAL TRACKS</text><rect fill="yellow" height="2.6" width="2.6" x="65" y="283" /><text fill="#FFFFFF" style="font-size:3px; font-family:Arial" x="70" y="285.5">Over 20.0 km</text><rect fill="red" height="2.6" width="2.6" x="65" y="287" /><text fill="#FFFFFF" style="font-size:3px; font-family:Arial" x="70" y="289.5">Over 40.0 km</text><text fill="#FFFFFF" style="font-size:4px; font-family:Arial" x="120" y="280">STATISTICS</text><text fill="#FFFFFF" style="font-size:3px; font-family:Arial" x="120" y="285">Number: 15</text><text fill="#FFFFFF" style="font-size:3px; font-family:Arial" x="120" y="290">Weekly: 1.2</text><text fill="#FFFFFF" style="font-size:3px; font-family:Arial" x="141" y="285">Total: 163.6 km</text><text fill="#FFFFFF" style="font-size:3px; font-family:Arial" x="141" y="290">Avg: 10.9 km</text><text fill="#FFFFFF" style="font-size:3px; font-family:Arial" x="167" y="285">Min: 10.2 km</text><text fill="#FFFFFF" style="font-size:3px; font-family:Arial" x="167" y="290">Max: 14.0 km</text><polyline fill="none" opacity="1" points="26.68762714631157,75.59999999999854 26.600730261561694,75.40314103099809 26.53990244222223,75.1406616704844 26.53121275373269,74.82349798877112 26.59204057304305,74.5172698216993 26.600730261561694,74.21104051094153 26.59204057304305,73.8610627553062 26.58335088461172,73.55483099380217 26.59204057304305,73.25953499764728 26.609419950051233,72.88767926747096 26.618109638482565,72.62519185430574 26.70500652329065,72.36270360081107 26.904869358288124,72.25333324719395 27.174249701056397,72.24239620379376 27.235077520395862,72.10021450700151 27.269836274295812,71.96896964495681 27.287215651245788,71.75022774135869 27.313284716685303,71.42211379177024 27.20031876649591,71.1049357256561 26.922248735208996,70.96275205632992 26.84404153889045,70.70025848055957 26.913559046719456,70.28464193350374 26.94831780064851,70.01120884564443 27.00045593152754,69.68308793647884 27.043904373887926,69.3330908526259 27.096042504766956,69.0159047047855 27.104732193256496,68.79715492232936 27.191629078006372,68.64402972732205 27.235077520395862,68.50184179018834 27.217698143445887,68.30496577779559 27.226387831935426,68.2284027564092 27.287215651245788,68.03152608739038 27.348043470614357,67.75808548498026 27.417560978414258,67.4955816486181 27.495768174732802,67.16745067122247 27.573975371022243,66.86119390738168 27.66087225577212,66.5658738015918 27.782527894480154,66.35805531167716 27.938942287059035,66.37993096698483 28.17356387595646,66.46743352990597 28.408185464824783,66.33617965047597 28.62542767674313,66.12836057828827 28.71232456152211,65.87678941762715 28.86873895410099,65.57052783222753 29.03384303522762,65.26426510266174 29.198947116266936,64.97987725788698 29.34667182038538,64.70642647674686 29.503086212993367,64.44391286871542 29.659500605572248,64.11576967655856 29.82460468664067,63.820439680537675 30.024467521638144,63.426664697472006 30.25039942204603,63.054764365522715 30.476331322424812,62.65004738132848 30.641435403522337,62.365650467327214 30.83260855000117,62.070314166157914 31.006402319588233,61.78591524083458 31.1367476467276,61.57808463296533 31.310541416256456,61.31556100668968 31.51040425125393,61.00928238007327 31.614680512982886,60.713941192072525 31.762405217072228,60.38578306843556 31.944888675090624,60.079500967760396 32.179510263958946,59.838849942992965 32.431511229864554,59.652891849007574 32.59661531090387,59.40130081508687 32.77040908046183,59.12783142405533 32.857305965182604,59.06219863447768 32.9702719154302,58.821544623009686 33.07454817715916,58.58088990492979 33.152755373419495,58.41680673755036 33.352618208446074,58.3292955806246 33.50034291250631,58.351173378614476 33.60461917426437,58.252723241675994 33.726274812972406,58.099578349196236 33.9087582709908,57.92455526453705 34.0912417290383,57.672958925628336 34.28241487548803,57.44323985475057 34.30848394095665,57.235398235876346 34.26503549856716,56.9072261856345 34.299794252438005,56.666565847044694 34.473588021995965,56.404026489981334 34.68214054548298,56.18524305001483 34.83855493806186,55.93364137208846 34.96021057671169,55.594524845073465 35.11662496931967,55.3319820540637 35.39469500060659,55.06943842206965 35.6032475240645,54.85065141967061 35.742282539693406,54.577166845367174 35.86393817837234,54.259923595920554 35.99428350554081,53.975497569663275 36.26366384833818,53.7676471570594 36.515664814185584,53.74576813558815 36.70683796069352,53.461340325069614 36.802424533932935,53.14409275652724 36.863252353301505,52.85966285793984 36.92408017258276,52.55335263246525 37.00228736890131,52.19234268272703 37.09787394214072,51.853210675333685 37.13263269606978,51.70005382488307 37.18477082694881,51.51407726456091 37.23690895779873,51.185882305122504 37.31511615405907,50.792046618917084 37.41070272732759,50.42008895521576 37.514978989056544,50.01530957951036 37.55842743147514,49.6652285071541 37.63663462776458,49.347966243607516 37.72353151254356,49.008822465722915 37.810428397293435,48.62591651355615 37.86256652814336,48.2758295059175 37.932084035972366,47.936681291103014 38.018980920751346,47.54282998987037 38.09718811706989,47.19273835528293 38.158015936409356,46.89734737523395 38.2362231326988,46.54725298305857 38.28836126354872,46.25185967626021 38.36656845983816,45.98928695407085 38.39263752527768,45.858000277454266 38.43608596766717,45.57354508995195 38.50560347546707,45.234385691226635 38.58381067175651,44.873343498504255 38.662017868075054,44.523240459100634 38.72284568741452,44.249721418753325 38.731535375874955,44.140313547002734 38.77498381829355,43.866793228495226 38.835811637633014,43.5604493878418 38.905329145432916,43.17751797645906 38.974846653291024,42.8492896281241 39.04436416106182,42.58670600280311 39.087812603480415,42.40070875910169 39.1312610458408,42.25847528784652 39.174709488259396,42.16000581696426 39.209468242159346,42.02871300507104 39.166019799769856,41.79895007798768 39.18339917671983,41.54730422818102 39.22684761908022,41.27377525394695 39.296365126938326,41.07683382715186 39.35719294627779,40.912715609840234 39.60919391212519,40.956480499953614 39.90464332033298,41.06589262288617 40.191403040109435,41.16436340860673 40.3912658750487,41.21906934957224 40.45209369441727,40.989304152157274 40.46947307136725,40.73765581577754 40.46078338287771,40.45318285268877 40.47816275985679,40.081178256827116 40.5042318252963,39.68728919674322 40.5737493330962,39.380929729792115 40.48685244831722,39.129276453575585 40.31305867873016,39.063627645729866 40.01760927052237,39.107393523459905 39.72215986228548,39.18398375328252 39.65264235448558,39.01986174457852 39.68740110841463,38.71349978204671 39.75691861624364,38.38525355101592 39.8177464355831,38.0679476109799 39.90464332033298,37.70687383960467 39.982850516651524,37.37862357569975 40.02629895901191,37.05037199668732 40.0697474014014,36.74400266975135 40.11319584379089,36.45951584032446 40.13057522076997,36.273504686992965 40.08712677832227,36.13126057889167 40.21747210549074,36.03278374400543 40.41733494051732,35.934306790761184 40.46078338287771,35.79206209375843 40.29567930180929,35.67170100338262 40.304368990298826,35.49663001088629 40.304368990298826,35.354384553967975 40.46078338287771,35.36532652096503 40.65195652941475,35.38721045055718 40.79968123350409,35.37626848650689 40.938716249132995,35.37626848650689 41.11251001866185,35.34344258551573 41.277614099759376,35.32155864423112 41.312372853659326,35.048008884892624 41.355821296048816,34.59938530232466 41.40795942689874,34.22735412666225 41.4427181808278,33.92097424293752 41.43402849233826,33.71307295495353 41.46009755777777,33.516113353347464 41.47747693472775,33.33009551707801 41.34713160758838,33.24255756560888 41.11251001866185,33.22067306312965 40.93002656067256,33.1769040406507 40.7562327911146,33.08936592548707 40.5042318252963,33.045596832853334 40.174023663130356,32.96900086444657 39.86988456643303,32.92523170745699 39.574435158167034,32.82675101884524 39.23553730759886,32.78298178588011 38.957467276311945,32.69544324979506 38.748914752854034,32.56413527028781 38.54036222939612,32.575077609981236 38.22753344420926,32.56413527028781 37.9407737244328,32.55319292919012 37.62794493927504,32.531308242578234 37.30642646562774,32.49848120164825 37.02835643434082,32.45471179332526 36.698148272174876,32.43282708035986 36.48090606025653,32.41094236157369 36.46352668333566,32.43282708035986 36.385319487017114,32.66261627464701 36.333181356138084,32.870520228396344 36.2897329137777,33.05653910819092 36.26366384833818,33.286326553039544 36.23759478289867,33.46140226888383 36.16807727506966,33.68024638755014 36.08987007880933,33.84437909292319 35.98559381705127,34.03039576151059 35.93345568617224,34.194527765357634 35.87262786683277,34.38054363887932 35.777041293593356,34.55561701642728 35.707523785793455,34.73069001980912 35.629316589504015,34.89482062069874 35.525040327745955,35.11366091042146 35.38600531211705,35.26684876543004 35.3512465582462,35.540397794073215 35.24697029648814,35.781120183753956 35.0992455923697,36.09843498042028 34.951520888280356,36.44857401945774 34.80379618416191,36.74400266975135 34.6647611684748,37.05037199668732 34.525726152874995,37.334856774497894 34.38669113724609,37.630282228994474 34.230276744638104,37.93664824185544 34.0912417290383,38.221129942343396 33.96958609033027,38.48372755840683 33.88268920555129,38.66973369387415 33.82186138621182,38.72444130045915 33.74365418989328,38.81197339492792 33.68282637055381,38.99797878524987 33.6567573051143,39.29339824312774 33.49165322407498,39.57787523291336 33.36130789690651,39.82952713131817 33.283100700587966,40.02647155614977 33.335238831466995,40.14682624939451 33.55248104338534,40.17965022596036 33.86530982860131,40.17965022596036 34.18682830227772,40.23435682436684 34.49965708743548,40.27812207677198 34.83855493806186,40.32188730580674 35.1687631001987,40.3656525114784 35.46421250840649,40.40941769373603 35.75966191664338,40.44224156513519 35.916076309251366,40.3765938092547 35.95952475161175,40.17965022596036 36.01166288249078,39.96082346712501 36.002973194030346,39.86235123501683 36.15069789811969,39.90611668611382 36.19414634053828,40.081178256827116 36.1767669635592,40.3656525114784 36.1072494557302,40.72671456621174 36.0377319479303,41.06589262288617 35.95952475161175,41.47071620742645 35.89000724381185,41.83177339274698 35.81180004749331,42.16000581696426 35.75966191664338,42.47729591058305 35.69014440884348,42.783643800714344 35.646695966424886,43.089990545471665 35.664075343403965,43.41821792965493 35.481591885356465,43.680798890396545 35.377315623656614,43.921497365234245 35.29041873884853,44.23878063815209 35.23828060802771,44.556062682582706 35.22090123104863,44.807699292541656 35.34255686972756,44.96086902462412 35.377315623656614,45.26720762988407 35.30779811582761,45.628248087312386 35.22090123104863,46.03304913286411 35.14269403475919,46.383145721840265 35.08186621544883,46.744181262700295 35.03841777300113,47.127096007308865 35.0297280845698,47.4443668688109 35.02103839608026,47.783517121119075 35.0297280845698,48.12266596979316 35.00365901913028,48.494634060931276 34.99496933064074,48.822839798100176 34.96021057671169,49.161984345671954 34.94283119976171,49.47924732919637 34.89069306888268,49.79650908453186 34.83855493806186,50.14658959609369 34.75165805328288,50.48572866559698 34.80379618416191,50.80298652462807 34.76034774174332,51.14212287787814 34.690830233943416,51.492197641513485 34.525726152874995,51.8203913743273 34.3432426948566,52.07200567943073 34.08255204051966,52.279860392307455 33.8392407631909,52.4877145780556 33.60461917426437,52.70650788830244 33.36999758539605,52.925300614464504 33.274411012156634,53.089394775786786 33.152755373419495,53.24254902989924 33.031099734740565,53.41758211276465 32.91813378458028,53.62543341312994 32.82254721134086,53.93173963188747 32.66613281870377,54.259923595920554 32.492339049174916,54.577166845367174 32.34461434505647,54.83971205423586 32.23164839486708,55.10225642205478 32.22295870637754,55.3319820540637 32.38806278741686,55.507010674838966 32.370683410495985,55.78049214652856 32.25771746024839,56.0539727057112 32.30985559115652,56.1524254836404 32.22295870637754,56.075851111032534 32.075234002259094,56.25087814330618 31.875371167290723,56.56811368668423 31.692887709272327,56.786896104662446 31.44957643188536,57.027556089960854 31.30185172779602,57.311971525181434 31.22364453150658,57.57450797411002 31.07591982735903,57.81516564686899 30.96295387716964,57.92455526453705 30.710952911322238,57.90267735269299 30.45895194550394,57.891738394566346 30.17219222575659,57.837043582083425 29.85936344054062,57.837043582083425 29.589983097772347,57.8479825474933 29.450948082114337,57.88079943500634 29.364051197335357,57.88079943500634 29.277154312556377,58.08863941737218 29.129429608467035,58.29647887270403 29.094670854508877,58.548073297737574 29.03384303522762,58.81060578749748 28.886118331109174,59.040321026259335 28.86873895410099,59.12783142405533 28.71232456152211,59.29191316814831 28.5037720380642,59.48881082749722 28.30390920312493,59.696646732605586 28.356047333945753,59.89354341974831 28.425564841774758,60.00293026377767 28.486392661143327,60.15607160021318 28.521151415043278,60.40766031755629 28.538530792022357,60.63737108071655 28.512461726582842,60.56080089785246 28.329978268535342,60.57173949979915 28.16487418746692,60.84520407367381 28.01714948337758,61.09679067588877 27.84335571381962,61.31556100668968" stroke="#4DD2FF" stroke-dasharray="none" stroke-linecap="round" stroke-linejoin="round" stroke-width="0.5"><title>2017-12-17 14.0km</title><desc>9223370523376934807</desc></polyline><polyline fill="none" opacity="1" points="100.66601812152658,32.40000000000873 100.67961032805033,32.67367998366535 100.65242591494462,33.0328840760194 100.65242591494462,33.39208716263238 100.54368826246355,33.717079564681626 100.57087267556926,33.888127866754076 100.720386947738,34.65784240329231 100.6252415018389,34.9144128892367 100.7883479805314,35.222296794949216 100.86990121990675,35.495970757547184 100.91067783965264,35.803853267541854 100.93786225275835,36.19725762165035 100.95145445934031,36.556451847951394 100.99223107902799,36.847227389749605 101.04659990529763,37.18931541866914 101.14174535119673,37.46298518496042 101.18252197088441,37.78796727427107 101.23689079721225,38.130052794658695 101.27766741689993,38.45503319417185 101.4815505152801,38.48924160934985 101.65824920061277,38.64317936493899 101.6174725809251,38.81422109891719 101.44077389559243,38.91684602989699 101.35922065627528,39.104991523432545 101.45436610217439,39.36155311539187 101.59028816781938,39.686530395338195 101.71261802694062,39.99440284854791 101.78057905973401,40.302274562913226 101.93009333190275,40.59304161480395 102.0796076040715,40.88380800766754 102.25630628940416,41.22588527324842 102.2427140828222,41.51665023190435 101.98446215817239,41.56796162677347 101.73980244004633,41.41402738055331 101.5495115480735,41.260092949698446 101.34562844969332,41.14036604241119 101.0873765249271,41.242989112623036 100.856309013383,41.242989112623036 100.65242591494462,41.3969235640252 100.66601812152658,41.56796162677347 100.67961032805033,41.8416220529034 100.43495060998248,41.97845204702753 100.13592206552858,42.098178172193 99.8640779342968,42.149489334537066 99.55145718337735,42.149489334537066 99.57864159648307,41.92714081633312 99.64660262933467,41.61927300115349 99.74174807523377,41.345612100776634 99.83689352119109,41.00353515440656 99.89126234740252,40.61014553853602 99.91844676056644,40.268066631178954 99.8640779342968,39.92598681169329 99.80970910802716,39.515489824232645 99.59223380300682,39.42996945325285 99.29320525866933,39.42996945325285 99.13009877986042,39.25892854016274 99.1029143667547,39.13919976534089 99.08932216017274,38.88263772873324 99.07572995364899,38.66028354862647 98.91262347489828,38.60897099073918 98.72233258304186,38.57476260747353 98.5456338977092,38.59186680027051 98.50485727796331,38.762908602686366 98.51844948454527,39.05367914347153 98.53204169112723,39.37865720325499 98.5456338977092,39.686530395338195 98.57281831087312,39.99440284854791 98.57281831087312,40.336482485581655 98.57281831087312,40.6614572959661 98.57281831087312,40.95222353380814 98.58641051733866,41.29430061698076 98.57281831087312,41.61927300115349 98.58641051733866,41.910037068184465 98.60000272397883,42.166593050715164 98.61359493050259,42.406044838236994 98.60000272397883,42.611288871776196 98.58641051733866,42.88494707242353 98.55922610423295,43.14150110546325 98.5456338977092,43.3638475190528 98.51844948454527,43.55198649120575 98.50485727796331,43.79143569301232 98.46408065833384,44.030884447929566 98.4776728648576,44.23612588227843 98.4776728648576,44.52688401876367 98.4776728648576,44.85184821509756 98.4776728648576,45.19391490101407 98.46408065833384,45.51887740788516 98.4776728648576,45.826735865775845 98.49126507149776,46.151696769869886 98.49126507149776,46.442450565329636 98.50485727796331,46.78451301061432 98.50485727796331,47.04105924615578 98.50485727796331,47.34891405158851 98.4776728648576,47.55415017825726 98.4776728648576,47.810694874831825 98.45048845175188,48.05013612890616 98.50485727796331,48.34088562235411 98.5456338977092,48.61453160257952 98.58641051733866,48.905279817132396 98.62718713702634,49.247335696651135 98.68155596335419,49.6235961108905 98.76310920272954,49.98275274972548 98.8718468552106,50.30770312814275 98.96699230110971,50.56424231924757 99.08932216017274,50.90629377623554 99.18446760618826,51.19703679769009 99.32038967177505,51.43647173255158 99.37475849804468,51.573291494714795 99.48349615052575,51.81272572741727 99.59223380300682,52.0521595133323 99.6330104226945,52.240285745981964 99.66019483585842,52.42841170282918 99.79611690150341,52.56523040725733 99.91844676056644,52.70204896583164 100.02718441304751,52.87307195887843 100.13592206552858,53.04409472399857 100.25825192464981,53.266423977853265 100.36698957713088,53.471650639534346 100.55728046904551,53.625570420364966 100.74757136090193,53.882102978168405 100.9242700462346,54.138635023031384 101.0873765249271,54.3780644688959 101.25048300379422,54.61749346804572 101.31844403658761,54.7714118744334 101.44077389559243,54.99373813549755 101.6174725809251,55.250267958064796 101.79417126619956,55.48969532967021 101.98446215817239,55.81463176246325 102.10679201723542,56.0198543486913 102.26989849592792,56.276382119889604 102.41941276815487,56.53290937823476 102.59611145348754,56.84074141140445 102.7728101388202,57.13147098684567 102.94950882415287,57.439301584105124 103.13979971600929,57.730029803482466 103.31649840128375,57.9694525484083 103.52038149978034,58.294382701977156 103.66989577194909,58.56800745631335 103.88737107696943,58.910037578767515 104.07766196882585,59.16655957233161 104.2271762410528,59.45728387852432 104.36309830663959,59.71380477819184 104.5262047854485,59.953223821896245 104.6893112641992,60.20974373019999 104.86600994947366,60.483364400526625 104.9883398085949,60.70568076558993 105.16503849386936,60.945097958741826 105.35532938578399,61.21871706120146 105.5184358645347,61.492335580231156 105.66795013670344,61.71465019736206 105.83105661545414,62.03957086808805 106.00775530084502,62.34738969209138 106.2116383992252,62.67230876078247 106.36115267145215,62.945924180574366 106.55144356336677,63.25374083053612 106.78251107491087,63.59575846456573 106.94561755366158,63.85227109192056 107.09513182583032,64.09168241485895 107.25823830458103,64.36529480847821 107.44852919649566,64.6731080540194 107.61163567518815,64.99802123449626 107.80192656704457,65.32293359238247 107.95144083938794,65.61364395210694 108.10095511149848,65.90435365338635 108.20969276403775,66.19506269608974 108.34561482962454,66.55417295737425 108.41357586247614,66.84488052813685 108.44076027558185,66.99878426965734 108.31843041651882,67.15268782657222 108.27765379683115,67.238189722877 108.37279924278846,67.15268782657222 108.53590572153917,67.22108934818243 108.60386675439076,67.44339404163475 108.69901220023166,67.69989897866617 108.80774985282915,68.00770422643109 108.93007971189218,68.34970919146144 109.052409570897,68.6917132450908 109.17473942996003,69.0337163873919 109.25629266939359,69.29021814603766 109.33784590876894,69.54671939201944 109.47376797441393,69.85452021058882 109.582505626895,70.12812031838985 109.69124327937607,70.40171984302287 109.77279651875142,70.65821886772756 109.81357313838089,70.89761749489116 109.90871858439641,71.171215379145 110.01745623687748,71.47901230181742 110.12619388941675,71.78680848634394 110.22133933531586,72.09460393269546 110.31648478127318,72.36819926537282 110.39803802059032,72.62469436005631 110.52036787971156,72.93248779707938 110.62910553219263,73.18898176413495 110.75143539125565,73.51387338656059 110.86017304379493,73.82166469127696 110.99609510943992,74.12945525786199 111.09124055533903,74.36884741054382 111.17279379477259,74.55694093152124 111.2679392406717,74.84763037638913 111.41745351289865,75.05282252929464 111.44463792594615,75.17251780031074 111.45823013258632,75.36061014360166 111.40386130631668,75.58290073934768 111.22716262098402,75.53160294378176 111.05046393565135,75.29221295974276 110.87376525037689,75.03572319571686 110.65628994535655,74.76213354918582 110.41163022723049,74.45434449969616 110.12619388941675,74.1636541641783 109.84075755160302,73.90716214492568 109.59609783341875,73.66776913117792 109.3514381152927,73.41127612092532 109.13396281027235,73.15478259812517 108.88930309214629,72.93248779707938 108.6582355806022,72.71019261106267 108.3592070362065,72.40239864091564 108.10095511149848,72.16300282055454 107.88347980647814,71.94070630177157 107.57085905550048,71.65001027322432 107.31260713085067,71.42771286594507 107.01357858651318,71.25671459837758 106.71455004205927,71.11991582029441 106.36115267145215,71.03441650989407 106.00775530084502,70.98311689635739 105.6815423432854,70.91471737971005 105.35532938578399,70.82921793269634 105.06989304797025,70.77791823714506 104.73008788388688,70.69241869891994 104.3902827197453,70.67531878444424 104.0640697623021,70.60691910379683 103.69708018511301,70.50431951440987 103.50678929319838,70.45301968901185 103.31649840128375,70.40171984302287 103.12620750942733,70.36751993439975 102.92232441093074,70.33332001659437 102.7048491059686,70.31622005430108 102.50096600753022,70.28202012277325 102.32426732225576,70.23072020850668 102.13397643028293,70.1965202542633 101.91650112526258,70.16232029088133 101.69902582030045,70.07682034262689 101.5495115480735,70.04262034736166 101.27766741689993,69.94002030689444 100.93786225275835,69.78612009242352 100.59805708873319,69.66641979804263 100.20388309838017,69.52961932490871 99.97281558689428,69.47831910985406 99.64660262933467,69.37571861827746 99.32038967177505,69.27311804471537 98.95340009458596,69.17051738912414 98.58641051733866,69.10211690647702 98.23301314667333,68.96531583182514 97.96116901549976,68.8798150861403 97.553402818623,68.7943142834556 97.26796648080926,68.64041269515292 96.91456911014393,68.52071133221034 96.7242782182293,68.45231050319853 96.4252496738336,68.34970919146144 96.09903671627399,68.2471077976079 95.77282375883078,68.05900502931036 95.44661080127116,67.8538016948296 95.12039784376975,67.64859803224681 94.84855371253798,67.37499263852078 94.63107840757584,67.0842862684949 94.42719530913746,66.75937836985395 94.37282648280961,66.57127342095191 94.2776810368523,66.38316819639294 94.1145745581598,66.12666062767676 94.01942911220249,65.95565529698797 93.86991484003374,65.68204629402317 93.72040056780679,65.39133608917473 93.53010967595037,65.04932324039692 93.36700319719967,64.69020876821014 93.190304511867,64.29689176479587 92.98642141342862,63.88647273679089 92.80972272803774,63.510254141525365 92.61943183618132,63.18533719434345 92.48350977059454,62.843318466533674 92.30681108520366,62.4670968131104 92.1301123999292,62.05667193325644 91.92622930149082,61.64624574080517 91.72234620305244,61.25291940798343 91.54564751771977,60.84249064493633 91.34176441928139,60.483364400526625 91.15147352736676,60.090034503431525 90.9747748420341,59.71380477819184 90.79807615675963,59.33757394985878 90.62137747142697,58.97844349386287 90.49904761236394,58.61931203282438 90.32234892708948,58.345687387831276 90.20001906802645,58.03785896487534 90.10487362201093,57.712928161767195 89.9825437630061,57.370894848543685 89.88739831704879,56.9946571510518 89.80584507767344,56.6013165605691 89.73788404488005,56.20797476438747 89.69710742519237,55.865937439812114 89.64273859886453,55.45549144683173 89.61555418581702,55.113452116493136 89.57477756612934,54.68590167145885 89.5204087398015,54.360962380465935 89.5204087398015,53.98471585768857 89.49322432669578,53.64267260686029 89.46603991364827,53.232219502315274 89.49322432669578,52.87307195887843 89.50681653327774,52.531025744843646 89.50681653327774,52.171876238731784 89.47963212011382,51.79562329700275 89.38448667421471,51.38516428414732 89.31652564136311,51.02601157074969 89.31652564136311,50.70106301148189 89.2893412282574,50.290600497159176 89.26215681515168,49.9656500754063 89.22138019546401,49.640698830757174 89.15341916267062,49.247335696651135 89.20778798882384,48.8368685318128 89.2893412282574,48.46060581049824 89.2893412282574,48.15275367238792 89.2893412282574,47.87910670731799 89.33011784800328,47.673871100501856 89.30293343483936,47.46863516533631 89.26215681515168,47.19498674120405 89.23497240198776,46.887131566385506 89.19419578235829,46.54506939469138 89.16701136919437,46.203006311057834 89.16701136919437,45.91225197294261 89.09905033634277,45.51887740788516 89.04468151013134,45.10839831504563 89.03108930360759,44.71502128534485 89.00390489050187,44.372953322628746 88.96312827075599,44.04798791333451 88.92235165106831,43.65460763243027 88.88157503138063,43.41515817519394 88.88157503138063,43.12439751920465 88.90875944448635,42.76522168147494 88.8951672379626,42.42314852021809 88.85439061821671,42.08107444689085 88.827206205111,41.79031076745014 88.7592451723176,41.43113119484042 88.7592451723176,41.08905447649886 88.77283737884136,40.78118465017178 88.80002179200528,40.40489830354636 88.73206075909548,39.99440284854791 88.70487634604797,39.669426348482375 88.66409972636029,39.29313674103469 88.691284139466,39.05367914347153 88.70487634604797,38.89974188046472 88.691284139466,38.677387730029295 88.66409972636029,38.420824769797036 88.66409972636029,38.11294854033622 88.58254648698494,37.82217586734623 88.52817766077351,37.44588084168208" stroke="#4DD2FF" stroke-dasharray="none" stroke-linecap="round" stroke-linejoin="round" stroke-width="0.5"><title>2017-11-19 11.8km</title><desc>9223370525802103807</desc></polyline><polyline fill="none" opacity="0.5" points="179.61815234995447,69.06775407906389 178.7079416529741,69.23378613690147 177.72771474858746,69.15077011252288 176.6074554293882,69.23378613690147 175.62722852500156,68.98473803634988 174.5769854132086,69.15077011252288 173.4567260935437,69.31680215173401 172.26645056693815,68.90172198449727 171.2862236625515,68.73568985291058 170.44602917297743,68.56965768442024 169.4658022688236,68.56965768442024 168.55559157207608,68.2375932369032 167.5053484600503,68.2375932369032 166.52512155566365,68.07156095746905 165.68492706608959,68.32060936256312 164.21458670985885,67.65648009785218 163.02431118278764,67.49044768942986 161.9040518635884,67.40743147151079 160.64376012934372,67.49044768942986 160.1536466772668,67.57346389838494 158.82333873561583,67.90552864124766 157.14294975670055,67.15838276199065 155.95267422986217,66.16218709282111 154.9024311178364,66.41123613459058 153.71215559123084,65.99615435226588 152.66191247990355,65.83012157434132 151.82171799009666,65.99615435226588 150.9815235005226,65.74710517178755 150.14132901094854,65.41503946878947 149.09108589938842,65.49805590847973 148.18087520240806,65.91313796798931 146.64051863830537,65.41503946878947 145.80032414896414,64.91694063757313 145.3802269040607,64.00375858345069 144.82009724457748,63.09057541267248 144.75008103693835,61.76230698899599 144.89011345198378,60.600070179556496 144.89011345198378,59.27179732499644 144.75008103693835,58.10955663904315 144.75008103693835,56.53222709981492 144.54003241448663,55.70205231959699 144.39999999990687,54.4567884185235 144.68006482953206,53.29454023716971 144.68006482953206,52.29832607024582 144.96012965939008,51.46814658230869 144.75008103693835,50.388911867979914 145.10016207420267,49.226657354214694 145.0301458670292,47.98138265311718 145.24019448948093,47.23421683529159 145.31021069688722,45.739882956957445 145.24019448948093,44.411583664885256 145.31021069688722,43.24931984604336 145.3802269040607,42.336111290438566 145.59027552651241,41.256863375601824 145.80032414896414,40.09459464560496 145.59027552651241,38.93232410599012 145.59027552651241,38.10212975559989 145.450243111467,37.10589531669393 145.59027552651241,38.10212975559989 145.59027552651241,38.93232410599012 145.80032414896414,40.09459464560496 145.59027552651241,41.256863375601824 145.3802269040607,42.336111290438566 145.31021069688722,43.24931984604336 145.24019448948093,44.411583664885256 145.31021069688722,45.739882956957445 145.24019448948093,47.23421683529159 145.0301458670292,47.98138265311718 145.10016207420267,49.226657354214694 144.75008103693835,50.388911867979914 144.96012965939008,51.46814658230869 144.68006482953206,52.29832607024582 144.68006482953206,53.29454023716971 144.39999999990687,54.4567884185235 144.54003241448663,55.70205231959699 144.75008103693835,56.53222709981492 144.75008103693835,58.10955663904315 144.89011345198378,59.27179732499644 144.89011345198378,60.600070179556496 144.75008103693835,61.76230698899599 144.82009724457748,63.09057541267248 145.3802269040607,64.00375858345069 145.80032414896414,64.91694063757313 146.64051863830537,65.41503946878947 148.18087520240806,65.91313796798931 149.09108589938842,65.49805590847973 150.14132901094854,65.41503946878947 150.9815235005226,65.74710517178755 151.82171799009666,65.99615435226588 152.66191247990355,65.83012157434132 153.71215559123084,65.99615435226588 154.9024311178364,66.41123613459058 155.95267422986217,66.16218709282111 157.14294975670055,67.15838276199065 158.82333873561583,67.90552864124766 160.1536466772668,67.57346389838494 160.64376012934372,67.49044768942986 161.9040518635884,67.40743147151079 163.02431118278764,67.49044768942986 164.21458670985885,67.65648009785218 165.68492706608959,68.32060936256312 166.52512155566365,68.07156095746905 167.5053484600503,68.2375932369032 168.55559157207608,68.2375932369032 169.4658022688236,68.56965768442024 170.44602917297743,68.56965768442024 171.2862236625515,68.73568985291058 172.26645056693815,68.90172198449727 173.4567260935437,69.31680215173401 174.5769854132086,69.15077011252288 175.62722852500156,68.98473803634988 176.6074554293882,69.23378613690147 177.72771474858746,69.15077011252288 178.7079416529741,69.23378613690147 179.61815234995447,69.06775407906389 180.73841166915372,69.39981815766077 181.64862236590125,69.4828341541579 182.76888168533333,69.56585014128359 183.7491085899528,70.47902539285133 184.7993517019786,70.72807299473789 185.7095623984933,70.72807299473789 186.68978930287994,70.72807299473789 187.5999999998603,70.89410468324786" stroke="#4DD2FF" stroke-dasharray="1,0.5" stroke-linecap="round" stroke-linejoin="round" stroke-width="0.5"><title>2014-03-22 10.5km</title><desc>9223370641410674807</desc></polyline><polyline fill="none" opacity="1" points="55.600000000034925,100.79711886218138 55.490177952393424,100.85787191802228 55.35040443728212,100.83357070010243 55.23059856717009,100.80926947629632 55.09082505205879,100.83357070010243 54.95105153683107,100.80926947629632 54.85121331177652,100.73636576949502 54.741391264193226,100.72421514656162 54.611601571552455,100.73636576949502 54.481811878911685,100.77281762949133 54.33205454121344,100.77281762949133 54.212248671159614,100.78496824656759 54.082458978518844,100.73636576949502 53.922717818350065,100.74851639099506 53.81289577076677,100.76066701097443 53.653154610597994,100.76066701097443 53.513381095428485,100.76066701097443 53.40355904784519,100.76066701097443 53.25380171020515,100.76066701097443 53.12401201756438,100.74851639099506 53.00420614745235,100.73636576949502 52.88440027734032,100.72421514656162 52.76459440717008,100.71206452213664 52.63480471458752,100.74851639099506 52.50501502194675,100.74851639099506 52.37522532930598,100.73636576949502 52.245435636723414,100.71206452213664 52.115645944082644,100.68776326888474 52.02579154144041,100.68776326888474 51.87603420385858,100.68776326888474 51.73626068868907,100.71206452213664 51.6064709960483,100.71206452213664 51.47668130346574,100.69991389622737 51.33690778829623,100.66346200978296 51.2171019181842,100.68776326888474 51.08731222554343,100.68776326888474 50.92757106543286,100.67561264007236 50.81774901779136,100.63916074477311 50.65800785762258,100.6270101100381 50.50825052004075,100.66346200978296 50.34850935981376,100.66346200978296 50.22870348970173,100.67561264007236 50.0789461521199,100.66346200978296 49.95914028194966,100.66346200978296 49.81936676683836,100.67561264007236 49.709544719255064,100.66346200978296 49.579755026556086,100.65131137799472 49.44996533397352,100.67561264007236 49.320175641274545,100.66346200978296 49.19038594869198,100.66346200978296 49.08056390110869,100.68776326888474 48.94079038599739,100.69991389622737 48.83096833835589,100.69991389622737 48.70117864571512,100.69991389622737 48.5314536630176,100.68776326888474 48.42163161543431,100.68776326888474 48.26189045526553,100.68776326888474 48.17203605273971,100.68776326888474 48.042246360040735,100.68776326888474 47.91245666745817,100.67561264007236 47.7826669748174,100.68776326888474 47.642893459647894,100.65131137799472 47.52308758953586,100.65131137799472 47.37333025195403,100.63916074477311 47.23355673678452,100.63916074477311 47.10376704414375,100.6270101100381 46.99394499650225,100.6270101100381 46.85417148139095,100.66346200978296 46.69443032128038,100.68776326888474 46.57462445116835,100.66346200978296 46.43485093599884,100.65131137799472 46.30506124335807,100.63916074477311 46.18525537324604,100.61485947383335 46.02551421307726,100.63916074477311 45.90570834296523,100.61485947383335 45.75595100532519,100.60270883619523 45.61617749015568,100.60270883619523 45.47640397498617,100.63916074477311 45.34661428240361,100.6270101100381 45.18687312223483,100.59055819708738 45.037115784653,100.56625691441877 44.90732609201223,100.55410627085803 44.76755257684272,100.51765433142282 44.62777906167321,100.52980497936369 44.507973191619385,100.54195562586392 44.378183498978615,100.56625691441877 44.258377628808375,100.5784075565025 44.12858793622581,100.6270101100381 43.99879824358504,100.6270101100381 43.859024728415534,100.61485947383335 43.72923503583297,100.60270883619523 43.61941298824968,100.59055819708738 43.4896232955507,100.61485947383335 43.35983360296814,100.60270883619523 43.240027732856106,100.6270101100381 43.09027039515786,100.59055819708738 42.94051305757603,100.61485947383335 42.830691009934526,100.59055819708738 42.69091749476502,100.59055819708738 42.561127802182455,100.59055819708738 42.45130575459916,100.55410627085803 42.31153223942965,100.52980497936369 42.16177490178961,100.54195562586392 42.01201756414957,100.55410627085803 41.862260226509534,100.52980497936369 41.7424543563975,100.54195562586392 41.60268084122799,100.54195562586392 41.452923503587954,100.52980497936369 41.32313381094718,100.52980497936369 41.19334411836462,100.54195562586392 41.043586780666374,100.55410627085803 40.90381326555507,100.5784075565025 40.78400739538483,100.54195562586392 40.65421770280227,100.50550368200493 40.51444418769097,100.51765433142282 40.3846544950502,100.49335303109547 40.24488097988069,100.50550368200493 40.12507510976866,100.52980497936369 40.005269239714835,100.50550368200493 39.865495724545326,100.48120237874537 39.71573838690529,100.48120237874537 39.59593251673505,100.48120237874537 39.44617517909501,100.45690106959955 39.34633695404045,100.43259975457477 39.216547261341475,100.43259975457477 39.07677374628838,100.43259975457477 38.97693552117562,100.45690106959955 38.82717818347737,100.44475041280384 38.68740466836607,100.45690106959955 38.5576149757253,100.49335303109547 38.40785763814347,100.49335303109547 38.26808412297396,100.50550368200493 38.1682458978612,100.46905172492552 38.02847238269169,100.46905172492552 37.898682690109126,100.46905172492552 37.78886064252583,100.44475041280384 37.62911948229885,100.46905172492552 37.499329789716285,100.45690106959955 37.33958862954751,100.44475041280384 37.209798936906736,100.45690106959955 37.10996071185218,100.44475041280384 36.86036514904117,100.45690106959955 36.57083429628983,100.44475041280384 36.35119020106504,100.40829843366373 36.12156228336971,100.40829843366373 35.672290270391386,100.46905172492552 35.392743240168784,100.39614777101087 35.21303443494253,100.37184644123772 34.86360064713517,100.39614777101087 34.693875664437655,100.34754510563653 34.534134504327085,100.33539443564223 34.234619829047006,100.3839971068519 33.94508897617925,100.4204490948614 33.68550959095592,100.52980497936369 33.47584931825986,100.50550368200493 29.53223942691693,100.2867917408148 29.3026115091634,100.2867917408148 29.053015946410596,100.25033970431105 28.7235498035443,100.33539443564223 28.46397041832097,100.26249038462265 28.194407210568897,100.21388765452139 27.834989600232802,100.21388765452139 24.600231107033323,100.17743559152586 24.36061936680926,100.20173696830898 24.04113704652991,100.17743559152586 23.81150912877638,100.14098351524444 23.55192974349484,100.0437779138374 23.24243124574423,100.1288328202063 22.912965102877934,100.14098351524444 22.6833371851244,100.15313420879102 20.097527155070566,100.11668212372751 19.75807718973374,100.11668212372751 19.58835220709443,100.11668212372751 19.418627224455122,100.14098351524444 19.368708111927845,100.0802300254145 19.218950774229597,100.09238072630251 18.87950080889277,100.10453142577171 18.749711116252,100.03162720704859 18.48014790849993,100.00732578907628 18.260503813333344,100.03162720704859 18.05084354057908,100.03162720704859 17.90108620293904,99.99517507786368 16.832817194401287,100.0194764987973 16.52331869659247,100.03162720704859 16.283706956310198,99.94657221829402 16.054079038614873,99.99517507786368 15.694661428278778,99.98302436515223 15.455049687996507,100.0194764987973 15.225421770301182,100.06807932304946 14.95585856254911,100.00732578907628 14.6763115322683,99.98302436515223 14.436699792044237,99.97087365102198 14.117217471706681,99.94657221829402 13.927524844009895,99.94657221829402 13.707880748843309,99.95872293537832 13.228657268336974,99.98302436515223 13.028980818169657,99.8736678848436 13.00901317311218,100.15313420879102 13.038964640640188,100.37184644123772 13.078899930696934,100.55410627085803 12.98904552811291,100.76066701097443 12.869239658000879,100.78496824656759 12.889207303000148,100.46905172492552 12.679547030304093,100.48120237874537 12.509822047664784,100.66346200978296 12.43993529008003,100.80926947629632 12.41996764508076,101.00367910211935 12.469886757608037,101.34389504116552 12.489854402607307,101.59905623866507 12.609660272777546,101.9635711097435 12.619644095248077,102.20658028832986 12.679547030304093,102.48604011629504 12.7094984978321,102.72904802987614 12.769401432946324,102.89915321928856 12.799352900416125,103.14216013264377 12.799352900416125,103.4216173556415 12.819320545473602,103.70107380057743 12.869239658000879,103.9926796961081" stroke="#4DD2FF" stroke-dasharray="none" stroke-linecap="round" stroke-linejoin="round" stroke-width="0.5"><title>2013-12-10 10.9km</title><desc>9223370650177580807</desc></polyline><polyline fill="none" opacity="1" points="97.48043147660792,123.60000000009313 101.07981507945806,122.43244259478524 102.99948633555323,119.80543636670336 105.63903431314975,117.47031732159667 107.31874666083604,113.38385355728678 107.31874666083604,110.17305574938655 108.51854119636118,106.08657963620499 108.99845901038498,102.87577212415636 109.718335730955,99.08117592497729 110.67817135900259,94.70278828428127 110.67817135900259,92.07575188926421 110.43821245245636,87.69735154649243 109.23841791693121,84.19462555623613 107.79866447485983,81.85947207268327 104.4392397776246,80.98378893476911 102.03965070843697,80.4000000001397 98.20030819717795,80.6918944849167 95.08084240648896,82.44326065597124 91.96137661673129,85.36220145085827 89.56178754661232,88.57303225062788 89.32182864006609,92.36764496355318" stroke="#4DD2FF" stroke-dasharray="none" stroke-linecap="round" stroke-linejoin="round" stroke-width="0.5"><title>2013-11-30 10.3km</title><desc>9223370651086224807</desc></polyline><polyline fill="none" opacity="1" points="166.11310167238116,123.60000000009313 167.01791503932327,121.6739028126467 170.63716850895435,119.74780399515294 174.25642197672278,115.89560147118755 175.16123534552753,114.51981327589601 176.97086207941175,112.04339242749847 176.29225205350667,106.8153840135783 175.61364202853292,105.71474913298152 175.83984537050128,101.86252286075614 177.1970654213801,96.90965093066916 177.1970654213801,95.80901126144454 175.61364202853292,92.78224942437373 177.87567544635385,90.30580492829904 176.29225205350667,89.20516206463799 174.7088286606595,86.72871367656626 172.67299858573824,83.7019397658296 170.86337184999138,83.15161680453457 167.92272840626538,80.4000000001397 163.3986615696922,82.6012937091291 160.23181478399783,85.90323028201237 157.29117134027183,88.93000126630068 156.16015463043004,90.85612616012804 155.933951289393,95.25869122636504 157.5173746822402,99.38608824228868 155.70774794742465,102.96315960329957 154.80293457955122,105.43959032977 155.4815446054563,107.64085982413962 154.57673123851418,110.6676019039005 154.80293457955122,113.69433995871805 154.80293457955122,117.27138883504085 156.83876465633512,118.64717536675744 159.55320475902408,120.57327511627227 162.9462548866868,121.94905965286307 165.88689832948148,122.77452997583896 169.05374511517584,122.22421646025032 171.7681852169335,120.02296106843278 174.25642197672278,117.27138883504085 175.83984537050128,113.41918211965822 176.06604871153831,110.3924436995294 176.29225205350667,107.36570125445724 176.29225205350667,104.06379581429064 175.61364202853292,100.76188558526337 176.29225205350667,97.45997056690976 176.51845539640635,94.70837105903774 177.42326876241714,91.40644725854509 176.97086207941175,88.37967956834473 175.61364202853292,85.62806908367202 173.80401529371738,83.7019397658296 171.7681852169335,82.87645527347922 168.60133843217045,82.05097048147582 165.88689832948148,82.05097048147582 162.72005154378712,83.7019397658296 160.9104248099029,84.25226259441115 158.874594733119,86.45355257811025 157.29117134027183,88.37967956834473 157.06496799830347,91.40644725854509 156.16015463043004,95.25869122636504 156.61256131436676,98.28544977051206 155.933951289393,102.13768209633417 155.933951289393,104.06379581429064 155.4815446054563,108.46633533574641 154.12432455457747,112.31855043233372 154.57673123851418,116.17075901036151 155.933951289393,118.09686085442081 159.77940810006112,119.19748974777758 162.9462548866868,121.3987459379714 166.11310167238116,121.3987459379714 169.50615179911256,119.74780399515294 171.7681852169335,118.09686085442081 173.57781195174903,115.07012865296565 175.16123534552753,111.21791821252555 174.93503200262785,107.64085982413962" stroke="#4DD2FF" stroke-dasharray="none" stroke-linecap="round" stroke-linejoin="round" stroke-width="0.5"><title>2013-11-16 10.4km</title><desc>9223370652294258807</desc></polyline><polyline fill="none" opacity="1" points="33.51350785139948,171.60000000009313 37.89193718507886,171.30411218269728 38.86492148041725,169.52878452418372 41.5406282953918,167.1616789775435 41.78387437015772,163.01923876185901 41.78387437015772,160.35623777890578 42.75685866642743,155.32611690624617 44.70282725896686,150.29598569567315 44.94607333280146,146.1535169382114 45.43256548047066,142.89871513913386 45.18931940663606,138.75623386260122 45.43256548047066,135.7973143735435 44.21633510943502,132.5424988034647 40.081151850521564,129.879464663798 36.43246074113995,128.99178597261198 32.78376962989569,128.99178597261198 28.891832443885505,130.4712502779439 26.21612562984228,132.24660626379773 24.999895258806646,136.38909855671227 23.297172740101814,141.12336687929928 23.297172740101814,144.08227993012406 23.053926666267216,146.74529861821793 22.324188444763422,150.88776637450792 22.567434517666698,154.73433729959652 22.324188444763422,157.69323389837518 22.567434517666698,162.72334990650415 23.540418813936412,165.09045974630862 25.972879556007683,167.1616789775435 30.594554962590337,171.00822432967834 34.486492147669196,171.00822432967834 38.135183257982135,169.82467255694792 40.324397925287485,168.64112021238543 43.00010474026203,165.38634831481613 43.729842961765826,162.72334990650415 43.48659688793123,158.58090218016878 43.973089036531746,153.8466676226817 44.94607333280146,150.88776637450792 45.675811554305255,147.33708015549928 45.675811554305255,143.7863887862768 45.919057629071176,139.64390901243314 45.43256548047066,135.7973143735435 43.24335081502795,132.5424988034647 40.567644000053406,130.4712502779439 36.43246074113995,128.4000000001397 32.78376962989569,128.99178597261198 29.378324592486024,130.4712502779439 26.21612562984228,131.95071368920617 23.540418813936412,134.90963782859035 22.810680591501296,140.23569226590917 23.053926666267216,143.7863887862768 22.567434517666698,147.33708015549928 24.02691096253693,150.88776637450792 22.324188444763422,156.50967568787746 21.594450222328305,160.35623777890578 22.324188444763422,164.2027938242536 22.567434517666698,166.27401380729862 26.21612562984228,168.64112021238543 29.135078517720103,170.12056055432186 33.99999999906868,170.71233643963933 37.40544503647834,170.12056055432186 40.567644000053406,168.64112021238543 42.75685866642743,165.68223684746772 43.48659688793123,162.13157208892517 44.45958118420094,158.58090218016878 44.94607333280146,155.0302271207329 45.18931940663606,151.77543712500483 45.675811554305255,148.81653337273747 45.919057629071176,145.26584414974786 46.40554977674037,139.3480173314456 45.919057629071176,135.7973143735435 44.21633510943502,133.13428377383389 41.0541361477226,130.4712502779439 38.378429332748055,129.2876789055299 33.51350785139948,128.69589300476946" stroke="#4DD2FF" stroke-dasharray="none" stroke-linecap="round" stroke-linejoin="round" stroke-width="0.5"><title>2013-11-03 10.7km</title><desc>9223370653417861807</desc></polyline><polyline fill="none" opacity="1" points="91.35827780794352,138.1920686531812 91.59503732062876,143.37608870584518 90.88475878350437,145.96809450211003 90.1744802473113,149.712097896263 89.46420171111822,153.4560954067856 88.51716366223991,155.7600909504108 88.28040415141732,159.2160800890997 88.28040415141732,162.96006266516633 89.70096122287214,167.28003524802625 92.77883488032967,169.5840174248442 97.27726561017334,171.31200259411708 100.59189877938479,171.60000000009313 104.3800509730354,170.16001262003556 107.69468414224684,167.28003524802625 108.16820316575468,162.6720642137807 110.29903877526522,158.06408426584676 110.53579828795046,154.60809345706366 110.53579828795046,151.44009747868404 110.77255779877305,147.1200961722061 111.00931731145829,142.80008703446947 112.19311487209052,139.0560727783013 112.42987438477576,135.3120526385028 110.29903877526522,132.7200352489017 108.87848170287907,130.41601742454804 105.80060804635286,128.9760051521007 102.01245585177094,128.4000000001397 98.22430365905166,129.2640076763928 94.90967048984021,129.84001261997037 89.70096122287214,133.8720433257986 88.99068268761039,135.0240508459974 88.99068268761039,136.46405946207233 90.1744802473113,139.63207535468973 89.93772073462605,143.66408948926255 88.51716366223991,147.69609680003487 88.51716366223991,150.57609784416854 87.57012561522424,154.32009399705566 87.57012561522424,157.48808614653535 87.80688512697816,160.65607408294454" stroke="#4DD2FF" stroke-dasharray="none" stroke-linecap="round" stroke-linejoin="round" stroke-width="0.5"><title>2013-11-02 10.5km</title><desc>9223370653505000807</desc></polyline><polyline fill="none" opacity="1" points="156.23366068210453,162.15007139416412 157.5654342258349,164.85005507571623 160.67290582694113,167.0100396713242 164.22430194169283,168.3600289823953 167.7756980592385,168.3600289823953 169.77335837297142,167.82003335561603 172.65886771772057,165.66004954348318 174.6565280323848,162.96006684168242 175.54437706060708,159.18008557590656 175.54437706060708,155.94009654247202 175.7663393188268,152.70010280935094 175.54437706060708,149.46010437584482 175.54437706060708,146.49010168295354 176.43222609069198,142.98009340977296 176.87615060433745,140.01008210144937 176.43222609069198,137.31006839242764 175.32241480425,134.34004954481497 173.99064126145095,132.72003759886138 170.4392451448366,130.56001984444447 167.7756980592385,128.4000000001397 165.3341132281348,129.48001018329524 162.0046793706715,130.8300221778918 159.78505679685622,132.45003549358808 158.67524551134557,135.69005860155448 158.2313209977001,138.12007284793071 157.7873964831233,141.63008875912055 156.45562293939292,144.33009724435396 156.01169842481613,146.76010209089145 156.23366068210453,150.81010429398157 157.7873964831233,154.32010026299395 154.90188713837415,155.13009854895063 155.12384939659387,156.21009580790997 154.45796262472868,157.56009164638817 154.90188713837415,163.23006525845267 160.22898131329566,166.20004569296725 165.77803774364293,167.55003549298272 167.1098112873733,167.55003549298272 169.10747160110623,167.55003549298272 171.77101868763566,168.3600289823953 173.99064126145095,164.0400603134185 174.6565280323848,162.96006684168242 174.8784902896732,160.5300796192605 175.54437706060708,159.18008557590656 173.54671674594283,158.91008666879497 174.8784902896732,158.10008975397795 176.2102638334036,155.94009654247202 175.9883015761152,150.81010429398157 176.2102638334036,149.46010437584482 175.7663393188268,146.2201012421865 176.2102638334036,142.1700907170307 175.7663393188268,136.7700652598869 175.32241480425,133.26004171161912 173.54671674594283,129.75001264712773 169.55139611661434,129.48001018329524 165.77803774364293,129.21000768686645 162.6705661425367,130.56001984444447 159.78505679685622,132.72003759886138 156.67758519575,133.26004171161912 156.45562293939292,137.58006991050206 156.23366068210453,140.55008445074782 156.01169842481613,144.0600965428166 154.90188713837415,147.57010311936028 155.34581165295094,151.62010385282338 155.12384939659387,155.13009854895063 154.90188713837415,159.18008557590656 154.90188713837415,161.61007426702417 158.45328325405717,165.66004954348318 164.00233968626708,168.63002674723975 166.44392451550812,169.98001507879235 169.32943385839462,171.60000000009313 173.32475448958576,167.82003335561603 175.1004525469616,162.69006839231588 175.54437706060708,159.7200832911767 175.54437706060708,158.6400877290871 175.1004525469616,153.24010209064 174.8784902896732,148.92010417976417 175.32241480425,146.2201012421865 175.54437706060708,142.98009340977296 177.09811286255717,138.93007700890303 175.7663393188268,135.96006031497382 174.43456577509642,134.34004954481497 172.88082997407764,130.8300221778918 170.21728288847953,130.02001507859677 166.0,129.75001264712773 162.0046793706715,130.56001984444447 159.78505679685622,130.8300221778918 156.89954745396972,132.72003759886138 154.90188713837415,135.69005860155448 154.67992488108575,138.39007426798344 155.34581165295094,139.7400808769744 154.23600036650896,142.71009254432283 154.67992488108575,145.95010076928884 154.90188713837415,147.57010311936028 154.45796262472868,150.27010442432947 154.90188713837415,153.78010124200955 154.67992488108575,157.02009340864606 154.90188713837415,161.34007565444335 157.5654342258349,166.20004569296725 161.7827171124518,168.63002674723975 163.11449065618217,168.3600289823953 166.0,169.98001507879235 167.99766031466424,169.1700221770443 171.1051319167018,171.33000259427354 173.32475448958576,168.63002674723975 174.8784902896732,162.42006990942173 173.99064126145095,158.37008875748143 175.1004525469616,151.35010403278284 174.8784902896732,147.0301024664659 174.8784902896732,145.68010026379488 176.43222609069198,142.98009340977296 177.76399963349104,140.82008557626978 177.09811286255717,136.7700652598869 175.32241480425,132.1800333559513 173.10279223136604,129.75001264712773 169.9953206302598,128.6700025945902 166.0,128.94000515691005 161.1168303405866,130.56001984444447 157.1215097112581,132.1800333559513 156.67758519575,133.53004371840507 155.56777391023934,134.61005142168142 155.78973616752774,137.04006684245542 156.01169842481613,138.6600756549742 156.23366068210453,142.1700907170307 156.23366068210453,143.5200950417202 156.23366068210453,147.84010339644738 156.01169842481613,149.19010429433547 155.12384939659387,151.62010385282338 155.78973616752774,155.13009854895063 154.90188713837415,156.21009580790997 155.12384939659387,161.07007700833492 156.23366068210453,162.15007139416412 156.23366068210453,163.50006364332512 158.45328325405717,165.66004954348318 162.6705661425367,168.63002674723975 167.1098112873733,170.52001018356532 170.4392451448366,169.710017477395 171.99298094585538,168.09003118495457 175.32241480425,163.77006199466996" stroke="#4DD2FF" stroke-dasharray="none" stroke-linecap="round" stroke-linejoin="round" stroke-width="0.5"><title>2013-10-26 11.1km</title><desc>9223370654110301807</desc></polyline><polyline fill="none" opacity="1" points="25.004696168005466,196.86325683817267 24.07011914718896,199.9895720607601 23.602830636315048,203.68430287321098 23.36918638087809,206.81060902611353 24.30376340262592,208.23165590292774 23.602830636315048,212.77900013769977 25.705628934316337,215.62108581862412 28.042071488685906,217.89475188939832 30.845802552998066,218.46316806343384 34.11682212725282,217.89475188939832 38.08877446874976,216.18950254260562 41.359794043935835,213.91583482245915 42.29437106475234,209.93691102182493 42.06072680931538,206.52639954793267 42.52801532112062,202.26325324806385 42.52801532112062,198.85273064253852 42.52801532112062,195.1579922370147 43.92988085281104,191.4632480267901 45.565390639938414,189.18955639493652 46.49996766168624,186.63165068160743 46.26632340531796,184.07374218595214 43.92988085281104,181.23161837016232 40.8925055321306,179.81055517448112 37.855130213312805,177.25263925665058 34.58411063905805,176.4000000001397 31.0794468075037,177.82106525660492 28.27571574319154,180.09476788225584 25.705628934316337,182.6526807071641 25.238340424373746,185.77901482582092 25.238340424373746,189.4737679695245 24.771051913499832,192.60009301709943 24.30376340262592,196.86325683817267 21.50003233831376,199.9895720607601 21.967320849187672,203.68430287321098 21.733676593750715,207.94744659680873 22.200965103693306,211.07374708005227 22.200965103693306,213.91583482245915 24.30376340262592,216.75791912851855 27.341138722375035,219.0315841003321 30.61215829756111,219.60000000009313 34.58411063905805,219.0315841003321 37.154197447001934,217.610543750925 40.8925055321306,215.90529419737868 41.82708255480975,213.6316262029577 43.462592341937125,210.22112008789554 43.92988085281104,206.81060902611353 43.92988085281104,203.1158831268549 44.39716936368495,199.70536175812595 45.0981021290645,195.4422030900605 45.33174638450146,192.0316705906298 45.79903489537537,189.18955639493652 45.565390639938414,185.49480280443095 44.63081361912191,181.80004340759479 42.52801532112062,179.24212965508923 39.4906400013715,178.10527820512652 35.98597617074847,177.53685227409005 32.48131234012544,177.53685227409005 29.21029276587069,178.95791684417054 25.705628934316337,181.23161837016232 24.30376340262592,184.07374218595214 25.004696168005466,188.33692146651447 23.602830636315048,191.74745932617225 23.36918638087809,194.58957042940892 23.36918638087809,198.28430972713977 21.733676593750715,201.69483315735124 22.200965103693306,206.52639954793267 21.967320849187672,209.3684927856084 23.36918638087809,212.21058258996345 24.30376340262592,215.90529419737868 25.238340424373746,217.610543750925 30.845802552998066,219.0315841003321 34.81775489356369,218.46316806343384 37.38784170243889,216.18950254260562 41.59343829844147,212.77900013769977 43.22894808650017,211.9263737637084 43.92988085281104,209.08428361662664 43.462592341937125,205.95798048726283 43.462592341937125,202.26325324806385 43.462592341937125,199.13694104878232 43.92988085281104,195.72641390911303 45.33174638450146,192.31588182109408 45.565390639938414,189.18955639493652 45.565390639938414,186.34743876405992 45.565390639938414,183.78952995873988 43.22894808650017,181.23161837016232" stroke="#4DD2FF" stroke-dasharray="none" stroke-linecap="round" stroke-linejoin="round" stroke-width="0.5"><title>2013-10-20 10.7km</title><desc>9223370654628121807</desc></polyline><polyline fill="none" opacity="1" points="112.92437834851444,185.96969139552675 110.67666037473828,182.68865890684538 109.10325779300183,179.4076216588728 106.18122442718595,177.49368106550537 103.03441926371306,176.4000000001397 100.11238589789718,176.4000000001397 96.51603714004159,177.2202608489897 93.14446017984301,179.4076216588728 90.67197040747851,182.68865890684538 89.77288321964443,185.69627220346592 89.77288321964443,188.7038815007545 89.09856782667339,191.98490526387468 88.87379602901638,196.08617827505805 87.74993704259396,199.3671913293656 88.19948063697666,202.3747824486345 87.07562165055424,206.20261990721337 89.54811142105609,208.6633691387251 90.44719861168414,211.9443639498204 92.24537299014628,215.49876962439157 94.49309096392244,217.41267805802636 98.08943972270936,218.77975451922975 101.91056027729064,219.60000000009313 104.83259364310652,217.95950874243863 107.30508341360837,215.22535400115885 109.32802959065884,212.76461190870032 110.90143217239529,209.75703460443765 110.67666037473828,207.5697031437885" stroke="#4DD2FF" stroke-dasharray="none" stroke-linecap="round" stroke-linejoin="round" stroke-width="0.5"><title>2013-10-19 10.2km</title><desc>9223370654714312807</desc></polyline><polyline fill="none" opacity="1" points="167.20795691385865,176.4000000001397 163.3424947904423,177.5755203643348 160.20180681534111,179.33879984519444 158.51066713687032,182.57147557032295 157.302710223943,185.51026795455255 157.06111884023994,188.15517806308344 156.5779360756278,191.9755986945238 155.61157054454088,195.5021354884375 154.8867963962257,198.73478972166777 154.64520501438528,201.96743965684436 154.64520501438528,206.08171517541632 155.12838777899742,209.90210763714276 156.81952745839953,213.72249409533106 158.0274843722582,215.7796227785293 160.92658096458763,219.0122500488069 164.55045170336962,219.0122500488069 167.44954829569906,219.60000000009313 170.83182765357196,218.13062485610135 173.48933286219835,216.36737351119518 175.18047254160047,212.84086698386818 175.66365530714393,208.43272663117386 175.90524668991566,203.73070144630037 175.90524668991566,200.79193108691834 175.90524668991566,197.26540196686983 176.87161222100258,194.32662379206158 177.59638636745512,190.80008529429324 177.35479498654604,186.39190497691743 175.18047254160047,180.22043910529464 172.52296733297408,178.16328033292666 167.6911396794021,176.69388014404103 164.79204308707267,176.9877602532506 161.8929464938119,179.63267963356338 159.23544128518552,181.6898371623829 158.51066713687032,184.62863061204553 157.06111884023994,189.33069274341688 155.61157054454088,193.73886773106642 155.61157054454088,197.26540196686983 154.16202224884182,200.79193108691834 154.40361363161355,204.6123318609316 154.64520501438528,207.8449739809148 154.16202224884182,211.37148775416426 156.09475331008434,215.48574735829607 158.75225852057338,218.13062485610135 161.40976372919977,218.42449995642528 166.48318276554346,219.0122500488069 169.38227935694158,217.54287455044687 172.52296733297408,214.89799641259015 173.48933286219835,212.25311539904214 174.697289776057,208.43272663117386 176.1468380726874,204.9062085954938 177.35479498654604,201.67356256698258 177.83797775115818,197.55927958874963 177.35479498654604,192.85723337321542 177.35479498654604,188.44905678625219" stroke="#4DD2FF" stroke-dasharray="none" stroke-linecap="round" stroke-linejoin="round" stroke-width="0.5"><title>2013-10-12 10.6km</title><desc>9223370655320152807</desc></polyline><polyline fill="none" opacity="1" points="24.05610049236566,250.60809345706366 24.292860004119575,254.92808118532412 23.81934098061174,258.6720642137807 22.635543420910835,262.41604135814123 24.76637902855873,263.28003524802625 28.317771709524095,265.5840174248442 31.632404879666865,267.60000000009313 34.710278537124395,267.60000000009313 38.97194975428283,265.8720150399022 41.57630438823253,263.8560310017783 43.943899508565664,260.6880526384339 44.890937557443976,256.9440727783367 45.12769706826657,252.33608948835172 43.943899508565664,248.59209650335833 44.180659021250904,243.40809650346637 45.36445658095181,239.37608870584518 45.60121609363705,236.2080777916126 46.54825414158404,233.32806421397254 45.837975605390966,231.0240508459974 43.23362097237259,227.28002436971292 38.97194975428283,225.84001261997037 35.42055707331747,224.9760051521007 32.57944292854518,224.9760051521007 30.21184780728072,226.12801503995433 26.1869361018762,228.14403100241907 24.76637902855873,231.0240508459974 23.81934098061174,234.48007006268017 24.05610049236566,238.5120861462783 24.05610049236566,241.96809450211003 24.292860004119575,245.13609775714576 24.05610049236566,248.88009617221542 22.398783908225596,251.47209162986837 21.6885053711012,254.3520832741633 21.451745859347284,257.2320714369416 22.398783908225596,260.1120561193675 23.582581467926502,262.41604135814123 25.239898052997887,265.296019774396 28.317771709524095,266.7360076766927 31.632404879666865,266.7360076766927 36.6043546339497,267.60000000009313 39.68222829140723,264.72002436965704 41.57630438823253,262.1280433256179 43.943899508565664,258.3840657279361 44.180659021250904,254.3520832741633 44.180659021250904,250.89609288284555 45.36445658095181,247.15209763497114 46.07473511714488,243.69609680003487 45.837975605390966,240.52809162950143 45.837975605390966,237.93608426721767 46.31149462983012,234.48007006268017 45.60121609363705,231.6000543970149 44.65417804475874,229.00803732057102 43.23362097237259,226.12801503995433 40.155747315846384,224.4000000001397 36.6043546339497,224.4000000001397 32.57944292854518,224.4000000001397 28.791290735825896,224.9760051521007 26.660455126315355,227.28002436971292 24.292860004119575,231.0240508459974 24.76637902855873,233.6160657289438 24.76637902855873,237.07208118587732 23.345821957103908,241.68009399762377 23.345821957103908,245.712097896263" stroke="#4DD2FF" stroke-dasharray="none" stroke-linecap="round" stroke-linejoin="round" stroke-width="0.5"><title>2013-10-06 10.6km</title><desc>9223370655838244807</desc></polyline><polyline fill="none" opacity="1" points="111.76110279094428,231.97408411232755 109.6856140634045,230.2909564457368 108.07134505175054,228.04678432480432 105.30402674898505,226.9246974508278 102.30609858687967,227.48574095615186 97.69390141405165,228.04678432480432 95.38780282903463,228.6078275591135 93.77353381738067,230.2909564457368 93.54292395804077,231.97408411232755 92.62048452533782,234.77929417719133 92.38987466599792,237.86502133100294 91.69804508984089,242.07282447465695 91.00621551368386,245.15854193037376 91.69804508984089,248.80529363360256 90.77560565527529,251.89100213861093 90.31438593752682,255.53774326271378 89.39194650482386,258.3429248428438 89.39194650482386,260.3065499314107 90.31438593752682,263.3922431420069 91.92865494918078,265.6363810834009 96.07963240426034,266.75844923895784 99.30817042570561,267.60000000009313 102.30609858687967,266.75844923895784 105.30402674898505,266.47793225129135 107.37951547559351,264.23379512433894 108.76317462790757,261.98965582833625 109.6856140634045,258.0624068370089 109.45500420406461,254.97670653951354 110.37744363863021,251.04944568034261 110.37744363863021,247.40269750310108 110.14683377929032,243.75594359473325 109.91622392181307,238.98710291530006 110.37744363863021,235.62085653445683 111.06927321478724,234.21825243486091 110.37744363863021,231.41304169245996 108.07134505175054,228.88834912492894 105.07341689057648,226.0831319389399 102.9979281630367,225.2415661229752 99.76939014159143,225.80261003412306 96.31024226266891,225.80261003412306 94.4653633935377,226.6441756472923 93.31231410056353,229.72991361888126 91.69804508984089,232.5351263966877 91.46743523143232,235.62085653445683 90.77560565527529,239.26762322615832 90.08377608004957,243.19490402424708 89.62255636136979,245.7195810272824 88.9307267870754,248.80529363360256 88.9307267870754,252.17152088950388 88.0082873525098,255.53774326271378 87.54706763476133,258.0624068370089 87.7776774931699,261.14810303226113 88.9307267870754,263.6727605035994 91.92865494918078,266.19741522870027 95.61841268651187,267.0389661930967 99.76939014159143,267.319483113708 103.45914787892252,266.75844923895784 105.99585632514209,264.794829609571 108.76317462790757,262.55069085536525 109.91622392181307,258.3429248428438 110.37744363863021,255.53774326271378 110.83866335544735,252.4520396075677 111.06927321478724,249.6468509058468 111.53049293160439,245.7195810272824 111.76110279094428,243.4754238263704 111.99171264935285,240.3897041331511 112.22232250776142,237.5845008501783 112.45293236616999,234.49877332313918 111.76110279094428,231.69356291904114 110.60805349703878,229.1688706574496 108.30195491109043,226.6441756472923 105.76524646673352,225.2415661229752 102.9979281630367,224.4000000001397 100.69182957615703,224.96104411478154 96.77146197948605,225.52208809531294 94.00414367672056,227.20521922083572 92.62048452533782,230.8519991368521 91.00621551368386,235.34033578261733 90.08377608004957,238.14554177806713 89.85316622070968,240.3897041331511 89.62255636136979,243.4754238263704 89.85316622070968,246.56113941781223 90.08377608004957,249.92736992868595 89.85316622070968,253.01307694031857 89.62255636136979,256.3792980927974 90.08377608004957,259.7455143611878 91.46743523143232,262.83120831870474 94.00414367672056,264.5143123844173 96.77146197948605,267.319483113708 100.69182957615703,267.319483113708 102.9979281630367,267.0389661930967 106.45707604289055,265.35586395906284 108.532564769499,263.3922431420069 109.6856140634045,260.0260321632959 110.14683377929032,257.2208526181057 111.06927321478724,254.13515119976364 111.06927321478724,250.76892679347657 111.76110279094428,247.96373605774716 111.76110279094428,244.8780223308131 111.53049293160439,241.79230450256728 112.68354222457856,238.14554177806713 111.76110279094428,235.34033578261733 110.83866335544735,231.97408411232755 110.14683377929032,229.44939215504564 107.6101253349334,227.7662626572419 104.38158731441945,226.0831319389399 101.38365915231407,226.6441756472923 97.23268169723451,226.9246974508278 94.23475353512913,228.88834912492894 92.85109438374639,230.8519991368521 90.77560565527529,234.21825243486091 90.31438593752682,236.46241858764552 89.39194650482386,240.1091839573346 89.62255636136979,243.19490402424708 88.46950706932694,246.28061998845078 88.46950706932694,249.6468509058468 87.7776774931699,253.01307694031857 87.31645777635276,256.3792980927974 88.0082873525098,259.7455143611878 89.16133664548397,262.83120831870474 92.62048452533782,264.794829609571" stroke="#4DD2FF" stroke-dasharray="none" stroke-linecap="round" stroke-linejoin="round" stroke-width="0.5"><title>2013-09-29 10.5km</title><desc>9223370656443428807</desc></polyline><polyline fill="none" opacity="1" points="177.23858171794564,242.17225179541856 178.36243989039212,238.8912312053144 177.68812498729676,237.25071912514977 176.78903844952583,234.51652968092822 175.66518027801067,230.68865890661255 173.86700720340014,227.95446153078228 171.39451922569424,225.49368106527254 170.0458894195035,225.76710125035606 166.00000000093132,224.94684059894644 163.30274038854986,226.5873616025783 160.83025241084397,228.22788141667843 159.7063942393288,232.055756355403 158.35776443313807,233.6962722032331 157.6834495300427,238.6178126083687 157.00913462694734,240.80516046099365 156.78436299227178,244.9064319843892 156.78436299227178,247.09377375710756 156.55959135852754,249.28111341316253 156.55959135852754,253.38236956926994 155.2109615523368,255.56970314332284 155.6605048207566,261.0380278278608 156.55959135852754,263.4987696236931 161.95411058235914,265.4126780577935 164.2018269263208,265.95950874197297 167.5734014417976,265.95950874197297 171.61929085943848,264.86584724183194 174.5413221064955,262.1316911787726 176.5642668157816,258.0304508882109 177.23858171794564,253.65578638156876 175.66518027801067,250.92161676776595 174.09177883714437,249.55453072185628 175.88995191268623,245.17984982184134 177.4633533526212,239.98490526387468 177.91289662197232,238.07097531366162 177.23858171794564,235.06336783478037 178.36243989039212,231.235497985268 175.66518027801067,228.50130126997828 172.9679206656292,225.49368106527254 171.16974759101868,224.94684059894644 165.77522836625576,225.49368106527254 164.2018269263208,225.76710125035606 161.27979567926377,228.22788141667843 158.80730770155787,230.41523931804113 158.1329927984625,232.87601442844607 157.6834495300427,236.43046263838187 156.55959135852754,241.07857879367657 157.00913462694734,244.35959621169604 157.23390626069158,246.54693851224147 156.55959135852754,250.92161676776595 157.00913462694734,254.20261990698054 155.6605048207566,258.3038671386894 156.33481972385198,261.5848595700227 156.55959135852754,263.4987696236931 160.38070914242417,264.86584724183194 163.97705529164523,267.3265848727897 166.22477163467556,266.77975451922975 169.14680288173258,265.95950874197297 172.0688341287896,264.86584724183194 174.9908653749153,261.5848595700227 175.21563700959086,259.3975318111479 175.88995191268623,256.66336913825944 176.78903844952583,253.92920316033997 177.91289662197232,250.92161676776595 177.0138100842014,247.3671913293656 175.88995191268623,243.53934230282903 176.11472354643047,240.5317420954816 176.5642668157816,237.25071912514977 177.68812498729676,236.43046263838187 178.58721152413636,232.87601442844607 177.23858171794564,230.14181969570927 178.36243989039212,230.41523931804113 177.91289662197232,227.68104161159135 174.76609374023974,226.31394151831046 171.39451922569424,225.22026084875688 168.24771634489298,224.6734203158412 164.2018269263208,225.76710125035606 161.0550240445882,228.22788141667843 158.35776443313807,230.14181969570927 158.1329927984625,233.42285297834314 155.88527645543218,237.25071912514977 154.53664664924145,241.62541536078788 156.11004808917642,241.62541536078788 156.78436299227178,243.2659242679365 156.33481972385198,246.8203561506234 155.6605048207566,250.92161676776595 153.41278847679496,253.10895272321068 155.43573318701237,256.11653620772995 155.6605048207566,258.57728335657157 157.23390626069158,262.9519383441657 159.256850970909,265.4126780577935 161.95411058235914,266.23292403365485 165.77522836625576,266.23292403365485 169.37157451640815,267.60000000009313 172.9679206656292,266.23292403365485 174.09177883714437,264.0456007702742 174.31655047181994,260.49119595531374 175.66518027801067,259.3975318111479 175.88995191268623,255.29628656315617 177.91289662197232,248.73427869705483 177.91289662197232,244.08617827459238 175.88995191268623,241.35199709353037 176.5642668157816,238.07097531366162 177.0138100842014,235.61020585522056 177.4633533526212,232.055756355403 177.23858171794564,230.14181969570927 175.66518027801067,227.1342016728595 172.0688341287896,225.76710125035606 168.69725961331278,224.4000000001397 166.00000000093132,225.76710125035606 163.52751202322543,226.8607816544827 160.38070914242417,229.04814087809063 157.45867789536715,232.055756355403 155.6605048207566,235.61020585522056 156.78436299227178,239.16464976919815 157.00913462694734,243.53934230282903 157.00913462694734,246.8203561506234" stroke="#4DD2FF" stroke-dasharray="none" stroke-linecap="round" stroke-linejoin="round" stroke-width="0.5"><title>2013-09-22 10.9km</title><desc>9223370657048162807</desc></polyline></svg>