<?xml version="1.0" encoding="utf-8" ?>
<svg baseProfile="full" height="300mm" version="1.1" viewBox="0,0,200,300" width="200mm" xmlns="http://www.w3.org/2000/svg" xmlns:ev="http://www.w3.org/2001/xml-events" xmlns:xlink="http://www.w3.org/1999/xlink"><defs /><rect fill="#222222" height="300" width="200" x="0" y="0" /><text fill="#FFFFFF" style="font-size:12px; font-family:Arial; font-weight:bold;" x="10" y="20">Over 10km Runs</text><text fill="#FFFFFF" style="font-size:4px; font-family:Arial" x="10" y="280">Runner</text><text fill="#FFFFFF" style="font-size:9px; font-family:Arial" x="10" y="290">keep</text><text fill="#FFFFFF" style="font-size:4px; font-family:Arial" x="65" y="280">SPECIAL TRACKS</text><rect fill="yellow" height="2.6" width="2.6" x="65" y="283" /><text fill="#FFFFFF" style="font-size:3px; font-family:Arial" x="70" y="285.5">Over 20.0 km</text><rect fill="red" height="2.6" width="2.6" x="65" y="287" /><text fill="#FFFFFF" style="font-size:3px; font-family:Arial" x="70" y="289.5">Over 40.0 km</text><text fill="#FFFFFF" style="font-size:4px; font-family:Arial" x="120" y="280">STATISTICS</text><text fill="#FFFFFF" style="font-size:3px; font-family:Arial" x="120" y="285">Number: 15</text><text fill="#FFFFFF" style="font-size:3px; font-family:Arial" x="120" y="290">Weekly: 1.2</text><text fill="#FFFFFF" style="font-size:3px; font-family:Arial" x="141" y="285">Total: 163.6 km</text><text fill="#FFFFFF" style="font-size:3px; font-family:Arial" x="141" y="290">Avg: 10.9 km</text><text fill="#FFFFFF" style="font-size:3px; font-family:Arial" x="167" y="285">Min: 10.2 km</text><text fill="#FFFFFF" style="font-size:3px; font-family:Arial" x="167" y="290">Max: 14.0 km</text><polyline fill="none" opacity="1" points="27.04191388451727,75.59999999999854 26.96493444382213,75.27705490784865 26.905061545432545,75.11558187720948 26.810975562315434,74.94334362175141 26.725442850438412,74.7603400726075 26.665569952048827,74.51274637503957 26.648463409685064,74.22209193480376 26.708336307987338,73.85608115071955 26.725442850438412,73.5761894311363 26.708336307987338,73.26400136803568 26.69978303683456,72.9625772646832 26.708336307987338,72.68268244641513 26.725442850438412,72.31666468088952 26.73399612159119,72.04753291197994 26.785315748740686,71.77840024549369 26.96493444382213,71.63845090424729 27.23863912196248,71.61692021482304 27.341278376290575,71.53079739968962 27.366938189865323,71.35855149370036 27.39259800344007,71.14324359423335 27.40970454586204,70.8633424661457 27.349831647472456,70.52961292928376 27.08468024051399,70.38966142248682 26.947827901429264,70.15281985799811 27.016254070971627,69.75449384121748 27.05046715575736,69.47458789642405 27.110340054088738,69.13008693932352 27.144553138903575,68.81788167663035 27.195872765994864,68.50567520609184 27.212979308416834,68.2365307275686 27.26429893556633,68.08580942750268 27.341278376290575,67.93508784592268 27.332725105108693,67.76283426513692 27.324171833897708,67.69823907753016 27.38404473225819,67.4936873090337 27.443917630589567,67.25683724514238 27.512343800161034,66.97692263696081 27.589323240914382,66.6862410546455 27.67485595284961,66.34172819377272 27.74328212236287,66.08334258285322 27.86302791905473,65.82495614462823 28.03409334292519,65.84648837939312 28.22226530915941,65.93261726107448 28.453203631390352,65.82495614462823 28.69269522477407,65.65269805943535 28.7782279367093,65.39431024224177 28.93218681815779,65.10362295887171 29.0775924284535,64.80216837378248 29.240104581112973,64.52224525062775 29.394063462590566,64.2530874857257 29.54802234406816,63.98392882297776 29.70198122554575,63.6717036493792 29.85594010699424,63.38101016032306 30.06121861562133,63.00418370845 30.275050395459402,62.638122041520546 30.488882175268373,62.23975892877206 30.65994759913883,61.959826916143356 30.84811956543126,61.647593910187425 31.027738260425394,61.36765984315571 31.156037328357343,61.173858766269404 31.327102752198698,60.90468983169558 31.523827989643905,60.59245274262503 31.65212705754675,60.28021444524347 31.77187285423861,60.011042529382394 31.934385006898083,59.698801982041914 32.16532332909992,59.44039509797585 32.41336819366552,59.26812338216405 32.61009343113983,58.998948089792975 32.75549904140644,58.75130602770514 32.86669156694552,58.65440240519092 32.96933082124451,58.43906060513109 33.07197007557261,58.20218396123528 33.131842973903986,58.02990960156603 33.32856821134919,57.94377228378289 33.49108036400867,57.93300511257985 33.59371961833676,57.868402055304614 33.71346541502862,57.7284285870046 33.867424296506215,57.55615321573714 34.05559626274044,57.31927397961408 34.252321500185644,57.07162676185544 34.3207476696989,56.88858267752221 34.27798131373129,56.587097398063634 34.295087856124155,56.2856109919594 34.440493466419866,56.070262869252474 34.62866543265409,55.85491417172307 34.79973085652455,55.62879742068617 34.91947665321641,55.28423734327953 35.06488226354122,55.02581631951762 35.33003367049969,54.74585927629232 35.569525263883406,54.508971788629424 35.689271060575265,54.28285126513947 35.817570128507214,53.97058854794159 35.954422467562836,53.65832462200342 36.185360789793776,53.44296948611009 36.476172010356095,53.410666166149895 36.638684162986465,53.17377475785179 36.74132341731456,52.872275595706014 36.809749586856924,52.592311079075444 36.869622485217405,52.30157766800403 36.93804865475977,51.94623540937755 37.03213463787688,51.61242761935864 37.09200753620826,51.40783506533626 37.12622062099399,51.214010061798035 37.18609351935447,50.90173546548613 37.254519688896835,50.56792335328646 37.34005240080296,50.201805254830106 37.44269165513106,49.81414898648654 37.49401128230966,49.45879577060259 37.5709907230339,49.12497768726462 37.65652343496913,48.81269500383496 37.74205614690436,48.435800499988545 37.79337577408296,48.0912096983011 37.86180194359622,47.72508035853389 37.94733465553145,47.3697179394876 38.015760825102916,47.025122583487246 38.084186994616175,46.73436910675082 38.16116643534042,46.379002323010354 38.203932791308034,46.08824651725445 38.289465503243264,45.81902724409156 38.31512531678891,45.700570479217276 38.35789167278563,45.44211875200563 38.42631784232799,45.09751516086544 38.49474401187035,44.731372232075955 38.58027672380558,44.39753458375344 38.64014962213696,44.063695553602884 38.64870289331884,43.99908138817409 38.682915978104575,43.76216233876039 38.742788876465056,43.439089786181285 38.819768317218404,43.07293932887114 38.88819448676077,42.739094816141005 38.94806738506304,42.46986436384759 39.007940283452626,42.28678714292619 39.05070663939114,42.13601735486009 39.084919724205974,42.01755518079881 39.13623935135547,41.88832351973542 39.084919724205974,41.71601431621093 39.10202626656974,41.446780448743084 39.13623935135547,41.188315090403194 39.213218792079715,40.951387784283725 39.255985148018226,40.78984604013385 39.4698169278563,40.811384958040435 39.76062814841862,40.91907946131687 40.042886097799055,41.016004391341994 40.27382442000089,41.08062094664638 40.35080386075424,40.86523222768301 40.37646367432899,40.66061241186253 40.35935713193612,40.38060550685623 40.367910403118,40.025210727457306 40.39357021669275,39.62673593060754 40.45344311508234,39.314416470318974 40.410676759056514,39.066713969361444 40.26527114881901,38.94824728694948 39.97445992822759,39.00209580050432 39.66654216530151,39.066713969361444 39.546796368580544,38.980556399401394 39.58956272454816,38.65746469225269 39.65798889409052,38.34514147829759 39.71786179248011,38.04358688266075 39.79484123317525,37.688181804463966 39.88037394511048,37.33277516003727 39.92314030104899,37.03121677885065 39.97445992822759,36.729657270050666 40.00867301301332,36.44963671647565 40.042886097799055,36.2234655594948 39.99156647059135,36.09422461360373 40.09420572494855,35.99729376824689 40.28237769121188,35.88959269232873 40.367910403118,35.74958107856946 40.22250479282229,35.641879671791685 40.20539825045853,35.491097460682795 40.22250479282229,35.32954477878957 40.35080386075424,35.318774588478846 40.521869284595596,35.35108515505999 40.692934708466055,35.32954477878957 40.812680505157914,35.36185534102697 40.975192657788284,35.30800439673476 41.16336462405161,35.275693812887766 41.19757770883734,35.04951936345606 41.24034406480496,34.61870913344319 41.28311042080168,34.23097795860667 41.3173235055292,33.950948728466756 41.3173235055292,33.70322975272575 41.334430047892965,33.53090305996011 41.36008986149682,33.33703509035695 41.24034406480496,33.22933046139951 41.04361882735975,33.20778951835382 40.855446861096425,33.1754780929914 40.67582816607319,33.0785437391969 40.43633657263126,33.046232262044214 40.15407862330903,32.98160926888522 39.8205010467791,32.92775673504366 39.55534963979153,32.852363127225544 39.213218792079715,32.78773997868848 38.88819448676077,32.701575700099056 38.682915978104575,32.56155855100951 38.511850554234115,32.58309966672823 38.2210393336718,32.56155855100951 37.90456829953473,32.550787991036486 37.63086362139438,32.52924686673941 37.30583931604633,32.5077057366434 37.01502809548401,32.453852886326786 36.71566360373981,32.44308231193281 36.43340565438848,32.421541158844775 36.424852383177495,32.4323117360982 36.36497948481701,32.61541132945422 36.29655331527465,32.80928103395854 36.25378695933614,33.013920771933044 36.22812714576139,33.240100930786866 36.20246733215754,33.43396913341712 36.15114770500804,33.63860728609143 36.06561499307281,33.80016335561231 35.96297573877382,33.9724894730025 35.903102840384236,34.15558556924225 35.85178321326384,34.30637027749617 35.766250501328614,34.50023591669742 35.689271060575265,34.66179026001919 35.60373834866914,34.85565504473925 35.51820563673391,35.03874913576146 35.415566382405814,35.12491091708216 35.33858694168157,35.41570624940505 35.23594768735347,35.70650053311692 35.10764861947973,35.986523667110305 34.962243009213125,36.32039613304369 34.80828412770643,36.6327271884511 34.67143178865081,36.934287059732014 34.54313272074796,37.20353599185182 34.40628038163413,37.494323828934284 34.26087477139663,37.79588047839934 34.10691588991904,38.08666617964627 33.98717009316897,38.35591126442159 33.90163738123374,38.5389974086429 33.84176448293147,38.63592519907252 33.773338313389104,38.711313399988285 33.68780560142477,38.872859307492035 33.67069905906101,39.14210176756751 33.5252934487944,39.422112972570176 33.38844110968057,39.6590447712515 33.302908397774445,39.87443671152141 33.302908397774445,39.99290203347482 33.49963363521965,40.057519408474036 33.80755139814573,40.057519408474036 34.132575703493785,40.1005976297165 34.43194019517978,40.14367582793784 34.76551777176792,40.186754003159876 35.09909534826875,40.229832155353506 35.389906568831066,40.2836798132339 35.680717789393384,40.31598839073558 35.85178321326384,40.29444934051571 35.92876265398809,40.08982807655411 35.980082281137584,39.88520629345294 35.96297573877382,39.74520161643886 36.06561499307281,39.766740813312936 36.15970097621903,39.906745452972245 36.15114770500804,40.19752354335651 36.074168264254695,40.5636870547678 36.00574209471233,40.91907946131687 35.93731592519907,41.26370090547425 35.87744302680949,41.61909022746113 35.791910314932466,41.98524728494522 35.73203741654288,42.297556402743794 35.680717789393384,42.56678743020893 35.60373834866914,42.857555930444505 35.646504704636754,43.18063081240689 35.49254582315916,43.460627996617404 35.364246755227214,43.72985514172615 35.28726731453207,43.99908138817409 35.21884114498971,44.300613717328815 35.210287873778725,44.54830014442268 35.30437385692494,44.75291009742068 35.364246755227214,45.011364033016434 35.27871404335019,45.35596799222549 35.210287873778725,45.7436456865762 35.124755161843495,46.12055276968749 35.06488226354122,46.4866893924991 35.0221159075154,46.842055701818026 35.01356263636262,47.16511462441849 35.005009365151636,47.48817225312814 35.01356263636262,47.82199711020803 34.98790282278787,48.1773575367406 34.97934955157689,48.500411111395806 34.953689737973036,48.84500016506354 34.93658319560927,49.14651437944849 34.88526356845978,49.469564072853245 34.83394394128118,49.81414898648654 34.74841122937505,50.14796421785286 34.78262431413168,50.44947356208286 34.75696450058604,50.79405428990867 34.69709160219645,51.12786546633288 34.55168599195895,51.47244329633395 34.38062056808849,51.709339700661076 34.132575703493785,51.935467437702755 33.875977567688096,52.14005865355284 33.66214578785002,52.34464935056894 33.41410092328442,52.56000741846947 33.29435512656346,52.743061324144946 33.19171587226447,52.8830434423362 33.06341680439073,53.044560969181475 32.95222427882254,53.23838157454156 32.86669156694552,53.53987936843623 32.71273268543882,53.86291146862641 32.54166726159747,54.1751746026348 32.37060183772701,54.47666889552056 32.259409312246135,54.70278887574386 32.25085604103515,54.97197850204975 32.37060183772701,55.1119567527785 32.41336819366552,55.3596099859642 32.29362239697366,55.62879742068617 32.3278354817885,55.76877453178167 32.2765158546099,55.682634799835796 32.13966351552517,55.82261181753711 31.934385006898083,56.12409995384223 31.746213040634757,56.38251745962771 31.523827989643905,56.608632098243106 31.352762565773446,56.87781536552211 31.284336396231083,57.125463178199425 31.138930785964476,57.394644721091026 31.027738260425394,57.52385154266085 30.796799938223558,57.502317086786206 30.56586161602172,57.502317086786206 30.283603666641284,57.43771368460875 29.984239174897084,57.43771368460875 29.70198122554575,57.44848092189204 29.54802234406816,57.47001539218036 29.43682981855818,57.47001539218036 29.376956920226803,57.63152373593766 29.240104581112973,57.846867691361695 29.17167841157061,58.08374537848431 29.128912055602996,58.34215660760674 28.98350644533639,58.589799925532134 28.95784663176164,58.70823776539328 28.855207377433544,58.815908378062886 28.62426905526081,59.031249172316166 28.4275438177865,59.23582239451207 28.410437275393633,59.429628126497846 28.48741671614698,59.56959864343662 28.555842885689344,59.68803504504467 28.590055970445974,59.91414041988901 28.632822326442692,60.151012037691544 28.62426905526081,60.151012037691544 28.453203631390352,60.08641075635387 28.273584936308907,60.344815571428626 28.1281793260423,60.613986373769876 27.965667173382826,60.81855558296229 27.811708291905234,61.098491555101646 27.70051576642436,61.36765984315571 27.589323240914382,61.615293875103816" stroke="#4DD2FF" stroke-dasharray="none" stroke-linecap="round" stroke-linejoin="round" stroke-width="0.5"><title>2017-12-17 14.0km</title><desc>9223370523376934807</desc></polyline><polyline fill="none" opacity="1" points="100.6519062356092,32.400000000001455 100.48069853737252,32.64860450914421 100.53337782918243,32.913782104129496 100.66507605859078,33.17895913335815 100.69141570443753,33.44413559685199 100.69141570443753,33.74245844197867 100.7045855273609,34.00763370330969 100.67824588151416,34.35567537513998 100.67824588151416,34.703716072501265 100.57288729801076,35.018609196922625 100.5992269438575,35.1843420999794 100.74409499618923,35.93013742870971 100.6519062356092,36.17873487727047 100.80994411086431,36.477051159185066 100.88896304852096,36.74222058656596 100.92847251734929,37.040535516120144 100.95481216325425,37.4217146619776 100.96798198617762,37.76974677436374 101.00749145500595,38.051486342075805 101.06017074681586,38.38294383944594 101.15235950733768,38.648109200934414 101.191868976166,38.962992333079455 101.24454826797592,39.294447399894125 101.28405773686245,39.609328894744976 101.48160508094588,39.642474268825026 101.65281277918257,39.79162834293675 101.61330331035424,39.95735488201899 101.44209561211755,40.056790699462 101.3630766745191,40.239089491464256 101.45526543504093,40.48767832243175 101.5869636645075,40.80255679467518 101.70549207099248,41.10086197996134 101.77134118566755,41.39916644938057 101.91620923799928,41.6808977910041 102.06107729033101,41.96262849408231 102.2322849886259,42.294075562596845 102.21911516570253,42.575804876032635 101.96888852980919,42.62552174740267 101.73183171683922,42.47637107360788 101.54745419562096,42.327220220904564 101.34990685153753,42.21121387837775 101.09968021558598,42.31064789286029 100.87579322559759,42.31064789286029 100.67824588151416,42.4597987654779 100.69141570443753,42.62552174740267 100.7045855273609,42.89067805897503 100.46752871450735,43.023256002605194 100.17779260966927,43.13926158733375 99.91439615085255,43.18897823339648 99.61149022326572,43.18897823339648 99.63782986911247,42.97353929032397 99.70367898384575,42.6752385989239 99.79586774442578,42.41008182785299 99.8880565050058,42.07863506862486 99.94073579675751,41.697470202998375 99.96707544266246,41.3660215437194 99.91439615085255,41.03457200065168 99.86171685910085,40.63683138232591 99.65099969203584,40.55396859339089 99.36126358731417,40.55396859339089 99.20322571200086,40.38824284968723 99.17688606615411,40.272234697651584 99.16371624317253,40.02364543585281 99.15054642024916,39.8082010068174 98.99250854499405,39.75848300857615 98.808131023834,39.725337665426196 98.63692332559731,39.74191033811803 98.59741385671077,39.90763694352063 98.61058367969235,40.18937166561227 98.62375350261573,40.50425089345663 98.63692332559731,40.80255679467518 98.66326297150226,41.10086197996134 98.66326297150226,41.432311346245115 98.66326297150226,41.7471874256662 98.66326297150226,42.02891797853226 98.67643279436743,42.360364870321064 98.66326297150226,42.6752385989239 98.67643279436743,42.95696704844886 98.68960261734901,43.205550444290566 98.70277244027238,43.43756116529403 98.68960261734901,43.63642715288006 98.67643279436743,43.90158130812051 98.65009314852068,44.150162815065414 98.63692332559731,44.36559971891984 98.61058367969235,44.54789219219674 98.59741385671077,44.779900407840614 98.55790438788245,45.0119081904777 98.57107421086403,45.21077165963652 98.57107421086403,45.492494362908474 98.57107421086403,45.807360158112715 98.57107421086403,46.138796975748846 98.55790438788245,46.453661133986316 98.57107421086403,46.75195275886654 98.5842440337874,47.06681536414544 98.5842440337874,47.34853386129544 98.59741385671077,47.679966570052784 98.59741385671077,47.928540521810646 98.59741385671077,48.22682860774512 98.57107421086403,48.42568693416251 98.57107421086403,48.67425939477107 98.54473456495907,48.906259909665096 98.59741385671077,49.18797423847718 98.63692332559731,49.45311655305704 98.67643279436743,49.734829642722616 98.71594226319576,50.0662559897537 98.76862155500567,50.430823950999184 98.84764049266232,50.77881964395783 98.95299907616572,51.09367205065064 99.04518783668755,51.34223917687632 99.16371624317253,51.67366123881948 99.25590500381077,51.95536929676746 99.38760323316092,52.18736368880491 99.44028252497083,52.31993171844806 99.54564110853244,52.551925430161646 99.65099969203584,52.78391870896303 99.69050916086417,52.966198838621494 99.71684880676912,53.14847870104131 99.84854703617748,53.281045705829456 99.96707544266246,53.4136125692894 100.07243402616587,53.579320949815155 100.17779260966927,53.74502910950105 100.29632101615425,53.96044938687555 100.40167959971586,54.15929854243586 100.58605712093413,54.30843520037888 100.77043464209419,54.55699589943106 100.94164234033087,54.8055561014844 101.09968021558598,55.03754517510242 101.2577180909575,55.26953381589556 101.32356720569078,55.418669142098224 101.44209561211755,55.634086519690754 101.61330331035424,55.88264456851175 101.78451100853272,56.11463163233566 101.96888852980919,56.42947052676027 102.08741693623597,56.62831573351286 102.24545481154928,56.87687179470231 102.39032286393922,57.12542735898751 102.5615305621759,57.423693380311306 102.73273826041259,57.70538841009693 102.90394595864927,58.003653040126665 103.08832347986754,58.28534675597621 103.25953117804602,58.51732933688618 103.45707852218766,58.83216214722779 103.60194657451939,59.0972838955131 103.8126637415844,59.42868528590043 103.99704126280267,59.67723574900447 104.1419093151926,59.95892567327246 104.27360754454276,60.20747507648048 104.43164541985607,60.43945407119463 104.58968329516938,60.688002513838 104.76089099340606,60.95312030502828 104.87941939989105,61.16852809413831 105.05062709812773,61.400505295809126 105.23500461928779,61.66562156785221 105.3930424946011,61.930737274589774 105.53791054693284,62.14614337009698 105.69594842224615,62.460966992272006 105.86715612054104,62.7592202149026 106.06470346462447,63.0740422848321 106.2095715169562,63.33915498864371 106.39394903817447,63.637406104797265 106.61783602822106,63.968795394845074 106.77587390347617,64.21733678279998 106.9207419558079,64.4493082966801 107.07877983112121,64.71441806836083 107.26315735228127,65.01266588589351 107.42119522759458,65.32748225058458 107.60557274875464,65.64229781823815 107.75044080120279,65.92397422943031 107.89530885347631,66.20565000263741 108.00066743703792,66.4873251377503 108.13236566638807,66.83527589435835 108.19821478117956,67.11694960325258 108.2245544270263,67.2660707203031 108.10602602054132,67.41519165849604 108.066516551713,67.49803654686548 108.15870531235123,67.41519165849604 108.31674318760633,67.48146757361974 108.38259230239782,67.69686405381071 108.47478106291965,67.94539799042104 108.58013964653946,68.2436380587169 108.69866805296624,68.57501507345296 108.81719645939302,68.9063912051206 108.935724865878,69.23776645377802 109.01474380353466,69.48629731076653 109.09376274119131,69.73482767102541 109.22546097059967,70.03306344775774 109.33081955416128,70.29816131541884 109.43617813766468,70.56325861802907 109.51519707532134,70.81178682603786 109.55470654409146,71.04374603866017 109.6468953047297,71.30884175187384 109.7522538882331,71.6070737537666 109.85761247179471,71.90530504045455 109.94980123237474,72.20353561192314 110.04198999295477,72.4686288528319 110.12100893061142,72.71715325295372 110.23953733709641,73.01538187752885 110.34489592059981,73.26390518506378 110.4634243270848,73.57870066161558 110.5687829106464,73.87692722014617 110.70048114005476,74.17515306347923 110.79266990057658,74.40710600282182 110.87168883829145,74.58935443734663 110.96387759887148,74.8710105836144 111.10874565126142,75.06982630276616 111.13508529710816,75.18580199214921 111.14825512008974,75.36804928557103 111.09557582833804,75.58343210615567 110.92436813004315,75.53372841149394 110.75316043180646,75.30177757339698 110.58195273356978,75.05325833828829 110.37123556656297,74.78817060682195 110.134178753593,74.48994623343606 109.85761247179471,74.20828922418877 109.58104619005462,73.95976780392812 109.34398937708465,73.72781403028057 109.10693256411469,73.47929164981906 108.89621539704967,73.23076877272979 108.6591585840797,73.01538187752885 108.43527159414953,72.7999946093114 108.14553548936965,72.50176546818693 107.89530885347631,72.26980897514295 107.6845916864113,72.05442041558126 107.38168575876625,71.77275789021223 107.13145912287291,71.55736846976652 106.84172301820945,71.39168404635711 106.55198691342957,71.25913634870813 106.2095715169562,71.1762939658729 105.86715612054104,71.12658850973094 105.55108036985621,71.0603145372661 105.23500461928779,70.9774720220521 104.9584383375477,70.9277664864494 104.62919276399771,70.84492388287617 104.2999471903895,70.82835535554477 103.9838714398793,70.76208122416574 103.62828622042434,70.66266996082413 103.44390869926428,70.6129642993983 103.25953117804602,70.56325861802907 103.07515365688596,70.53012148616108 102.87760631268611,70.4969843453946 102.6668891456793,70.48041577174445 102.46934180153767,70.44727861767024 102.29813410335919,70.397572870148 102.11375658214092,70.36443569407857 101.9030394150177,70.33129850916885 101.6923222480109,70.24845550829923 101.54745419562096,70.21531829248852 101.28405773686245,70.11590659207286 100.95481216325425,69.96678889246687 100.62556658976246,69.85080833584652 100.24364172440255,69.71825899581017 100.01975473447237,69.6685529568349 99.70367898384575,69.56914081933792 99.38760323316092,69.46972860239475 99.03201801382238,69.37031630598358 98.67643279436743,69.30404139753227 98.33401739783585,69.17149147466989 98.07062093907734,69.08864770115906 97.67552625079406,69.00580387241644 97.39895996905398,68.856684841674 97.0565445725806,68.74070324968488 96.87216705136234,68.67442800563003 96.58243094664067,68.57501507345296 96.26635519601405,68.47560206172056 95.95027944550384,68.29334466723958 95.634203694819,68.09451811399049 95.31812794425059,67.89569124281843 95.05473148543388,67.63058825350163 94.84401431836886,67.34891570802574 94.64646697428543,67.03410446103953 94.59378768247552,66.8518449537296 94.50159892183729,66.66958517931926 94.34356104664039,66.42104869280593 94.25137228600215,66.25535742577631 94.10650423361221,65.99025093937962 93.96163618128048,65.70857467825408 93.77725866012042,65.37719002475933 93.61922078480711,65.02923518809257 93.44801308657043,64.648140678466 93.25046574242879,64.25047559696395 93.0792580441339,63.88594815514807 92.89488052297384,63.57112814080028 92.76318229362369,63.23973779097287 92.5919745953288,62.875207386030525 92.42076689715032,62.47753663454205 92.22321955295047,62.07986461122346 92.02567220886704,61.69876106210722 91.85446451063035,61.301086548075546 91.65691716654692,60.95312030502828 91.47253964532865,60.57201330240059 91.30133194703376,60.20747507648048 91.13012424879707,59.842935781751294 90.95891655056039,59.494965457990475 90.84038814413361,59.14699416041549 90.66918044589693,58.8818725180754 90.55065203941194,58.583609994770086 90.4584632787737,58.26877655507269 90.33993487234693,57.93737207308004 90.2477461117669,57.57282612265408 90.16872717411024,57.19170875893178 90.10287805943517,56.81059022698173 90.06336859060684,56.47918185828894 90.01068929879693,56.081490649754414 89.98434965295019,55.750080337616964 89.94484018412186,55.335816205188166 89.89216089231195,55.02097454138129 89.89216089231195,54.65642003990797 89.8658212464652,54.325005929131294 89.83948160061846,53.9273078300248 89.8658212464652,53.579320949815155 89.87899106938858,53.24790396790195 89.87899106938858,52.899915186018916 89.85265142348362,52.53535446507158 89.76046266290359,52.13765064126346 89.69461354817031,51.789658751760726 89.69461354817031,51.47480810769048 89.66827390226535,51.07710089121974 89.64193425641861,50.76224844254466 89.60242478759028,50.44739519654104 89.5365756729152,50.0662559897537 89.5892549646087,49.66854426728969 89.66827390226535,49.303974070673576 89.66827390226535,49.0056885691738 89.66827390226535,48.74054530035937 89.70778337115189,48.54168747764197 89.68144372524694,48.342829336783325 89.64193425641861,48.07768465423578 89.61559461051365,47.77939621040423 89.57608514174353,47.44796376672457 89.54974549583858,47.116530439438066 89.54974549583858,46.834811416505545 89.4838963811053,46.453661133986316 89.4312170893536,46.055937854187505 89.41804726643022,45.674785183611675 89.39170762058347,45.343347128873575 89.35219815169694,45.02848015839845 89.31268868292682,44.64732433765312 89.27317921409849,44.41531587452482 89.27317921409849,44.13359073003812 89.29951885994524,43.78557643480599 89.28634903702186,43.45413334306795 89.24683956813533,43.1226893675921 89.22049992228858,42.84096129362297 89.1546508076135,42.49294337955507 89.1546508076135,42.16149684127595 89.16782063053688,41.86319420122891 89.19416027644183,41.49860111346061 89.12831116165034,41.10086197996134 89.1019715158036,40.78598426336248 89.06246204703348,40.421388016104174 89.08880169288022,40.18937166561227 89.1019715158036,40.04021806876699 89.08880169288022,39.82477366847888 89.06246204703348,39.57618351176643 89.06246204703348,39.277874667575816 88.98344310937682,38.99613787952694 88.93076381762512,38.63153638242511 88.90442417172017,38.28350668303756 88.90442417172017,37.952048920495145 88.89125434873858,37.570871400879696 88.87808452581521,37.23941173803905" stroke="#4DD2FF" stroke-dasharray="none" stroke-linecap="round" stroke-linejoin="round" stroke-width="0.5"><title>2017-11-19 11.8km</title><desc>9223370525802103807</desc></polyline><polyline fill="none" opacity="0.5" points="187.5999999998603,64.425160632818 187.5999999998603,65.53715035278583 187.5999999998603,66.0236452333047 187.36553595680743,66.92713472119067 187.07245590235107,67.90012193983421 185.95875169616193,68.10861900402233 185.255359566072,68.17811800987693 184.4933514248114,67.96962096903007 183.49687924026512,68.10861900402233 182.55902306665666,68.10861900402233 181.62116689281538,68.17811800987693 180.56607869756408,68.10861900402233 179.8040705563035,67.96962096903007 178.9834464045707,67.96962096903007 178.22143826354295,67.96962096903007 177.3421981006395,67.76112385862507 176.52157394844107,66.99663385830354 175.5837177745998,66.92713472119067 174.82170963380486,66.85763557621976 173.88385345996358,66.57963891886175 173.1218453189358,66.7186372630531 172.3012211669702,66.64913809474092 171.36336499336176,66.7186372630531 170.54274084139615,66.51013973512454 169.6635006784927,66.64913809474092 168.72564450465143,66.78813642339082 167.72917232010514,66.44064054382034 166.90854816813953,66.30164213792887 166.20515603781678,66.16264370107092 165.384531886084,66.16264370107092 164.62252374505624,65.88464673480485 163.7432835821528,65.88464673480485 162.9226594301872,65.74564820510568 162.21926729986444,65.95414598792559 160.98833107203245,65.39815174596151 159.99185888725333,65.25915310822893 159.05400271364488,65.18965377786662 157.99891451839358,65.25915310822893 157.58860244229436,65.32865243108245 156.47489823610522,65.60664964455646 155.0681139754597,64.98115574021358 154.07164179091342,64.14716289372882 153.19240162800997,64.35566120949807 152.19592944346368,64.00816397793824 151.3166892810259,63.869165030890144 150.61329715070315,64.00816397793824 149.9099050203804,63.7996655459865 149.20651289005764,63.52166752866469 148.3272727271542,63.59116704465123 147.56526458612643,63.938664508285 146.27571234712377,63.52166752866469 145.57232021703385,63.1046702710446 145.22062415187247,62.34017457580194 144.75169606506824,61.575677945744246 144.6930800541304,60.463681178574916 144.81031207600608,59.49068238417385 144.81031207600608,58.378681907604914 144.6930800541304,57.40567986789392 144.6930800541304,56.0851746769622 144.51723202154972,55.39017082436476 144.39999999990687,54.34766359644709 144.6344640434254,53.37465528177563 144.6344640434254,52.540646949375514 144.8689280867111,51.845639155537356 144.6930800541304,50.942127868242096 144.98616010835394,49.96911425224971 144.92754409764893,48.92659798276145 145.10339213022962,48.30108738626586 145.16200814116746,47.05006431584479 145.10339213022962,45.93804170633666 145.16200814116746,44.9650203002966 145.22062415187247,44.20050241862191 145.39647218445316,43.296980080136564 145.57232021703385,42.32395456265658 145.39647218445316,41.3509275301476 145.39647218445316,40.65590729378164 145.27924016257748,39.821881990123075 145.39647218445316,40.65590729378164 145.39647218445316,41.3509275301476 145.57232021703385,42.32395456265658 145.39647218445316,43.296980080136564 145.22062415187247,44.20050241862191 145.16200814116746,44.9650203002966 145.10339213022962,45.93804170633666 145.16200814116746,47.05006431584479 145.10339213022962,48.30108738626586 144.92754409764893,48.92659798276145 144.98616010835394,49.96911425224971 144.6930800541304,50.942127868242096 144.8689280867111,51.845639155537356 144.6344640434254,52.540646949375514 144.6344640434254,53.37465528177563 144.39999999990687,54.34766359644709 144.51723202154972,55.39017082436476 144.6930800541304,56.0851746769622 144.6930800541304,57.40567986789392 144.81031207600608,58.378681907604914 144.81031207600608,59.49068238417385 144.6930800541304,60.463681178574916 144.75169606506824,61.575677945744246 145.22062415187247,62.34017457580194 145.57232021703385,63.1046702710446 146.27571234712377,63.52166752866469 147.56526458612643,63.938664508285 148.3272727271542,63.59116704465123 149.20651289005764,63.52166752866469 149.9099050203804,63.7996655459865 150.61329715070315,64.00816397793824 151.3166892810259,63.869165030890144 152.19592944346368,64.00816397793824 153.19240162800997,64.35566120949807 154.07164179091342,64.14716289372882 155.0681139754597,64.98115574021358 156.47489823610522,65.60664964455646 157.58860244229436,65.32865243108245 157.99891451839358,65.25915310822893 159.05400271364488,65.18965377786662 159.99185888725333,65.25915310822893 160.98833107203245,65.39815174596151 162.21926729986444,65.95414598792559 162.9226594301872,65.74564820510568 163.7432835821528,65.88464673480485 164.62252374505624,65.88464673480485 165.384531886084,66.16264370107092 166.20515603781678,66.16264370107092 166.90854816813953,66.30164213792887 167.72917232010514,66.44064054382034 168.72564450465143,66.78813642339082 169.6635006784927,66.64913809474092 170.54274084139615,66.51013973512454 171.36336499336176,66.7186372630531 172.3012211669702,66.64913809474092 173.1218453189358,66.7186372630531 173.88385345996358,66.57963891886175 174.82170963380486,66.85763557621976 175.5837177745998,66.92713472119067 176.52157394844107,66.99663385830354 177.3421981006395,67.76112385862507 178.22143826354295,67.96962096903007 178.9834464045707,67.96962096903007 179.8040705563035,67.96962096903007 180.56607869756408,68.10861900402233 181.62116689281538,68.17811800987693 182.55902306665666,68.10861900402233 183.49687924026512,68.10861900402233 184.4933514248114,67.96962096903007 185.255359566072,68.17811800987693 185.95875169616193,68.10861900402233 187.07245590235107,67.90012193983421 187.36553595680743,66.92713472119067 187.5999999998603,66.0236452333047 187.5999999998603,65.53715035278583 187.5999999998603,64.425160632818 187.54138398938812,63.73016605316661 187.5999999998603,62.8266719445819 187.5999999998603,62.06217590958113 187.48276797845028,61.08917960344115 187.42415196751244,60.3941813147394 187.5999999998603,59.83818212756887 187.36553595680743,59.00418241909938 187.42415196751244,58.309181812102906" stroke="#4DD2FF" stroke-dasharray="1,0.5" stroke-linecap="round" stroke-linejoin="round" stroke-width="0.5"><title>2014-03-22 10.5km</title><desc>9223370641410674807</desc></polyline><polyline fill="none" opacity="1" points="55.600000000034925,99.51331693890097 55.46442501677666,99.51331693890097 55.30948217888363,99.48974564931996 55.18359112308826,99.53688822276308 55.03833221248351,99.54867386258411 54.912441156688146,99.61938767138054 54.77686617348809,99.654744556472 54.64129119028803,99.66653018201032 54.50571620708797,99.60760204013786 54.360457296599634,99.57224513785332 54.23456624074606,99.654744556472 54.137726967048366,99.654744556472 54.011835911194794,99.64295892953669 53.86657700064825,99.64295892953669 53.7310020175064,99.61938767138054 53.634162743750494,99.53688822276308 53.52763954270631,99.53688822276308 53.42111634160392,99.53688822276308 53.275857431057375,99.57224513785332 53.140282447915524,99.57224513785332 53.01439139206195,99.57224513785332 52.88850033626659,99.56045950092084 52.743241425661836,99.53688822276308 52.61735036986647,99.54867386258411 52.48177538672462,99.56045950092084 52.33651647611987,99.54867386258411 52.22030934767099,99.56045950092084 52.11378614662681,99.56045950092084 51.968527236022055,99.57224513785332 51.86200403497787,99.56045950092084 51.73611297918251,99.52510258155962 51.610221923328936,99.50153129480168 51.48433086753357,99.52510258155962 51.35843981168,99.54867386258411 51.261600537982304,99.54867386258411 51.10665770008927,99.51331693890097 50.99045057158219,99.50153129480168 50.883927370538004,99.50153129480168 50.767720242089126,99.48974564931996 50.62246133154258,99.50153129480168 50.47720242093783,99.50153129480168 50.36099529254716,99.52510258155962 50.2254203093471,99.48974564931996 50.11889710824471,99.48974564931996 49.98332212504465,99.48974564931996 49.86711499665398,99.47796000240487 49.72185608610744,99.45438870426005 49.595965030253865,99.43081740041816 49.43133826495614,99.45438870426005 49.286079354409594,99.45438870426005 49.150504371209536,99.47796000240487 48.995561533316504,99.4661743540637 48.87935440480942,99.4661743540637 48.772831203765236,99.45438870426005 48.646940147911664,99.47796000240487 48.530733019520994,99.4661743540637 48.40484196366742,99.45438870426005 48.26926698052557,99.4661743540637 48.16274377942318,99.4661743540637 48.02716879622312,99.4661743540637 47.90127774042776,99.50153129480168 47.78507061197888,99.48974564931996 47.668863483530004,99.50153129480168 47.533288500329945,99.48974564931996 47.397713517188095,99.48974564931996 47.28150638868101,99.48974564931996 47.14593140553916,99.48974564931996 47.03940820443677,99.48974564931996 46.92320107598789,99.48974564931996 46.80699394753901,99.48974564931996 46.66173503699247,99.4661743540637 46.535843981138896,99.43081740041816 46.40995292534353,99.45438870426005 46.274377942143474,99.44260305307398 46.12911903159693,99.43081740041816 46.003227975801565,99.44260305307398 45.8773369200062,99.44260305307398 45.75144586415263,99.47796000240487 45.625554808357265,99.4661743540637 45.48997982515721,99.45438870426005 45.35440484195715,99.44260305307398 45.228513786161784,99.44260305307398 45.10262273030821,99.41903174633626 44.94767989241518,99.43081740041816 44.84115669131279,99.40724609087192 44.695897780766245,99.41903174633626 44.5506388702197,99.41903174633626 44.42474781436613,99.44260305307398 44.27948890387779,99.40724609087192 44.13422999327304,99.3718891158569 43.98897108272649,99.3718891158569 43.853396099526435,99.34831779202796 43.72750504373107,99.33653212796344 43.59193006053101,99.34831779202796 43.49509078677511,99.34831779202796 43.35951580363326,99.3718891158569 43.24330867518438,99.40724609087192 43.1271015467355,99.43081740041816 42.98184263618896,99.43081740041816 42.855951580393594,99.43081740041816 42.73006052454002,99.40724609087192 42.613853396091145,99.40724609087192 42.50733019504696,99.43081740041816 42.35238735709572,99.41903174633626 42.236180228646845,99.40724609087192 42.11028917279327,99.43081740041816 41.98439811699791,99.40724609087192 41.858507061202545,99.38367477563588 41.713248150656,99.38367477563588 41.59704102220712,99.3718891158569 41.480833893758245,99.36010345463728 41.325891055807006,99.32474646250193 41.199999999953434,99.3718891158569 41.0450571620604,99.34831779202796 40.91916610626504,99.33653212796344 40.80295897781616,99.34831779202796 40.657700067269616,99.34831779202796 40.52212508406956,99.33653212796344 40.39623402827419,99.33653212796344 40.241291190322954,99.34831779202796 40.13476798922056,99.36010345463728 39.98950907867402,99.38367477563588 39.882985877629835,99.31296079560707 39.73772696702508,99.31296079560707 39.621519838576205,99.31296079560707 39.485944855434354,99.30117512725701 39.350369872234296,99.31296079560707 39.23416274378542,99.33653212796344 39.09858776058536,99.30117512725701 38.972696704789996,99.31296079560707 38.83712172158994,99.28938945751725 38.70154673838988,99.28938945751725 38.585339609941,99.27760378634412 38.47881640889682,99.23046108733979 38.35292535304325,99.23046108733979 38.22703429724788,99.24224676421727 38.08177538664313,99.26581811372307 37.955884330905974,99.25403243966866 37.83967720239889,99.30117512725701 37.713786146603525,99.30117512725701 37.558843308652285,99.30117512725701 37.43295225285692,99.31296079560707 37.30706119706156,99.27760378634412 37.19085406861268,99.27760378634412 37.08433086751029,99.28938945751725 36.94875588431023,99.27760378634412 36.803496973763686,99.28938945751725 36.67760591796832,99.25403243966866 36.52266308007529,99.24224676421727 36.425823806319386,99.25403243966866 36.29024882311933,99.25403243966866 35.99973100202624,99.26581811372307 35.718897108279634,99.24224676421727 35.55427034298191,99.1833183654744 35.17659717553761,99.28938945751725 34.857027572288644,99.26581811372307 34.62461331539089,99.19510404807806 34.411566913244314,99.19510404807806 34.15978480159538,99.14796130915784 33.97579018160468,99.15974699601793 33.69495628779987,99.15974699601793 33.433490248862654,99.28938945751725 33.18170813721372,99.2186754090144 32.881506388715934,99.36010345463728 29.172562205814756,99.14796130915784 28.930464021570515,99.06546146103938 28.707733692019247,99.11260423992644 28.378480161423795,99.14796130915784 28.107330195081886,99.06546146103938 27.797444519179408,99.01831865926943 27.565030262281653,98.98296154299169 24.408069939468987,99.01831865926943 24.12723604578059,98.99474724986794 23.807666442531627,98.97117583469662 23.57525218563387,99.006532955289 23.35252185614081,98.93581870129856 23.042636180238333,98.90046155505843 22.752118359145243,98.94760441385006 22.47128446539864,98.93581870129856 20.040618695376907,98.91224727188091 19.682313382683787,98.93581870129856 19.488634835288394,98.93581870129856 19.304640215239488,98.92403298732097 19.23685272363946,98.91224727188091 19.062542030995246,98.86510439593985 18.85917955613695,98.91224727188091 18.646133153990377,98.90046155505843 18.462138533999678,98.8297472240447 18.23940820444841,98.81796149721049 17.997310020204168,98.81796149721049 17.745527908555232,98.88867583680258 17.648688634857535,98.77081857559097 16.525353059871122,98.87689011708426 16.28325487562688,98.8297472240447 16.08957632817328,98.8297472240447 15.79905850708019,98.81796149721049 15.527908540680073,98.84153294943098 15.276126429089345,98.84153294943098 14.995292535342742,98.85331867339846 14.7531943510985,98.78260430811497 14.511096166796051,98.81796149721049 14.288365837244783,98.78260430811497 13.968796234054025,98.79439003924927 13.784801614005119,98.74724710623559 13.436180228658486,98.80617576891382 13.097242770716548,98.75903284164815 12.98103564226767,98.8297472240447 13.039139206463005,99.08903285332781 13.029455279116519,99.25403243966866 13.06819098861888,99.52510258155962 12.913248150667641,99.60760204013786 12.855144586472306,99.40724609087192 12.767989240121096,99.25403243966866 12.60336247482337,99.31296079560707 12.477471419028006,99.54867386258411 12.400000000023283,99.67831580612983 12.429051782179158,99.98474153183633 12.477471419028006,100.2675951918136 12.535574983223341,100.53866251140425 12.593678547476884,100.83330004620075 12.642098184325732,101.11615124069795 12.709885675867554,101.32828909723321 12.729253530618735,101.52864109282382 12.748621385369916,101.75256342352804 12.777673167467583,102.04719728450436 12.826092804316431,102.28290373121854 12.835776731721126,102.54218016348023 12.826092804316431,102.82502639304585 12.884196368569974,103.09608659188962 12.855144586472306,103.37893121216621 12.913248150667641,103.6382047255247 12.855144586472306,103.92104777082568 12.89388029591646,104.18031984049594 12.797041022218764,104.43959121970693 12.845460659067612,104.6870768921217 12.855144586472306,104.91099195841525 12.816408876969945,105.15847643257439" stroke="#4DD2FF" stroke-dasharray="none" stroke-linecap="round" stroke-linejoin="round" stroke-width="0.5"><title>2013-12-10 10.9km</title><desc>9223370650177580807</desc></polyline><polyline fill="none" opacity="1" points="110.55819190572947,88.2811387181282 109.1184384636581,85.07030752976425 105.99897267390043,83.02704909676686 102.1596301626414,80.6918944849167 98.80020546540618,80.6918944849167 96.40061639528722,81.85947207268327 93.28115060459822,83.90273149451241 91.12152044195682,88.2811387181282 91.12152044195682,91.78385877958499 89.92172590829432,95.87035909830593 89.4418080933392,98.49739136477001 88.48197246622294,102.58388032088988 88.7219313737005,106.37847101641819 88.00205465313047,109.29738287813962 88.00205465313047,113.09196302411146 88.00205465313047,116.01086677075364 89.20184918679297,118.34598722797818 91.60143825691193,121.84866367932409 94.48094513919204,123.01622136775404 98.32028765138239,123.60000000009313 101.91967125423253,122.43244259478524 103.8393425103277,119.80543636670336 106.47889048792422,117.47031732159667 108.15860283561051,113.38385355728678 108.15860283561051,110.17305574938655 109.35839737113565,106.08657963620499 109.83831518515944,102.87577212415636 110.55819190572947,99.08117592497729 111.51802753377706,94.70278828428127 111.51802753377706,92.07575188926421 111.27806862723082,87.69735154649243 110.07827409170568,84.19462555623613 108.6385206496343,81.85947207268327 105.27909595239908,80.98378893476911 102.87950688321143,80.4000000001397 99.04016437195241,80.6918944849167 95.92069858126342,82.44326065597124 92.80123279150575,85.36220145085827 90.40164372138679,88.57303225062788 90.16168481484056,92.36764496355318 89.68176699988544,95.87035909830593 89.20184918679297,99.37306815129705 88.48197246622294,102.58388032088988 88.48197246622294,106.37847101641819 88.00205465313047,110.17305574938655 88.48197246622294,113.96763451839797 88.96189027931541,117.47031732159667 91.12152044195682,119.80543636670336 94.00102732609957,121.55677416943945 97.3604520233348,122.43244259478524 101.19979453459382,122.1405531547498 105.03913704585284,119.51354661001824 107.43872611504048,117.17842728225514 108.15860283561051,112.80007245577872 108.87847955618054,108.71360078873113 109.35839737113565,104.33523061382584 109.83831518515944,100.83252875739709 110.55819190572947,97.62171426019631 111.99794534686953,93.53521690587513" stroke="#4DD2FF" stroke-dasharray="none" stroke-linecap="round" stroke-linejoin="round" stroke-width="0.5"><title>2013-11-30 10.3km</title><desc>9223370651086224807</desc></polyline><polyline fill="none" opacity="1" points="170.2978634936735,83.15161680453457 168.2620334168896,83.15161680453457 165.32138997409493,82.6012937091291 162.1545431893319,82.6012937091291 162.38074653036892,83.7019397658296 160.34491645358503,85.07774658850394 156.27325630094856,88.93000126630068 157.17806966789067,92.23192865797319 156.49945964291692,95.80901126144454 156.27325630094856,100.76188558526337 156.49945964291692,104.06379581429064 153.55881619919091,107.36570125445724 154.46362956706434,109.8421271899715 155.82084961794317,112.31855043233372 155.82084961794317,116.17075901036151 156.49945964291692,118.37201812700368 157.40427300985903,119.47264688764699 159.44010308664292,122.22421646025032 162.83315321430564,122.22421646025032 166.67861002590507,123.60000000009313 167.58342339284718,121.6739028126467 171.20267686247826,119.74780399515294 174.8219303302467,115.89560147118755 175.72674369905144,114.51981327589601 177.53637043293566,112.04339242749847 176.85776040703058,106.8153840135783 176.17915038205683,105.71474913298152 176.4053537240252,101.86252286075614 177.762573774904,96.90965093066916 177.762573774904,95.80901126144454 176.17915038205683,92.78224942437373 178.44118379987776,90.30580492829904 176.85776040703058,89.20516206463799 175.2743370141834,86.72871367656626 173.23850693926215,83.7019397658296 171.4288802035153,83.15161680453457 168.4882367597893,80.4000000001397 163.9641699232161,82.6012937091291 160.79732313752174,85.90323028201237 157.85667969379574,88.93000126630068 156.72566298395395,90.85612616012804 156.49945964291692,95.25869122636504 158.0828830357641,99.38608824228868 156.27325630094856,102.96315960329957 155.36844293307513,105.43959032977 156.0470529589802,107.64085982413962 155.1422395920381,110.6676019039005 155.36844293307513,113.69433995871805 155.36844293307513,117.27138883504085 157.40427300985903,118.64717536675744 160.118713112548,120.57327511627227 163.5117632402107,121.94905965286307 166.4524066830054,122.77452997583896 169.61925346869975,122.22421646025032 172.3336935704574,120.02296106843278 174.8219303302467,117.27138883504085 176.4053537240252,113.41918211965822 176.63155706506222,110.3924436995294 176.85776040703058,107.36570125445724 176.85776040703058,104.06379581429064 176.17915038205683,100.76188558526337 176.85776040703058,97.45997056690976 177.08396374993026,94.70837105903774 177.98877711594105,91.40644725854509 177.53637043293566,88.37967956834473 176.17915038205683,85.62806908367202 174.3695236472413,83.7019397658296 172.3336935704574,82.87645527347922 169.16684678569436,82.05097048147582 166.4524066830054,82.05097048147582 163.28555989731103,83.7019397658296 161.47593316342682,84.25226259441115 159.44010308664292,86.45355257811025 157.85667969379574,88.37967956834473 157.63047635182738,91.40644725854509 156.72566298395395,95.25869122636504 157.17806966789067,98.28544977051206 156.49945964291692,102.13768209633417 156.49945964291692,104.06379581429064 156.0470529589802,108.46633533574641 154.68983290810138,112.31855043233372 155.1422395920381,116.17075901036151 156.49945964291692,118.09686085442081 160.34491645358503,119.19748974777758 163.5117632402107,121.3987459379714 166.67861002590507,121.3987459379714 170.07166015263647,119.74780399515294 172.3336935704574,118.09686085442081 174.14332030527294,115.07012865296565 175.72674369905144,111.21791821252555 175.50054035615176,107.64085982413962 176.17915038205683,104.33895478351042 176.17915038205683,100.76188558526337 176.85776040703058,97.45997056690976 177.08396374993026,93.6077303243801 178.21498045884073,89.48032283014618 177.08396374993026,87.55419677193277 175.04813367314637,85.62806908367202 172.3336935704574,83.97710119653493 168.2620334168896,82.87645527347922 164.64277994912118,83.15161680453457 161.9283398464322,84.80258529004641 159.21389974374324,87.27903577359393 158.0828830357641,90.0306442619767 157.63047635182738,92.78224942437373 156.49945964291692,96.90965093066916 156.72566298395395,100.21156674809754 156.72566298395395,102.41284129838459 156.27325630094856,105.9899079024326 156.27325630094856,110.11728546163067" stroke="#4DD2FF" stroke-dasharray="none" stroke-linecap="round" stroke-linejoin="round" stroke-width="0.5"><title>2013-11-16 10.4km</title><desc>9223370652294258807</desc></polyline><polyline fill="none" opacity="1" points="46.162303702905774,144.08227993012406 45.43256548140198,139.3480173314456 45.67581155523658,135.7973143735435 43.48659688886255,134.31785328662954 40.810890073888004,130.4712502779439 38.37842933367938,129.58357180282474 30.59455496352166,128.99178597261198 27.675602074712515,131.06303575029597 25.97287955507636,134.61374557600357 22.81068059336394,138.16445025079884 24.27015703730285,141.12336687929928 23.297172740101814,144.6740621116478 23.297172740101814,150.88776637450792 22.81068059336394,154.43844744330272 23.053926666267216,160.06034860108048 22.56743451859802,163.6110163643025 23.540418814867735,166.5699022328481 24.99989525973797,168.64112021238543 29.135078518651426,170.71233643963933 34.0,171.60000000009313 38.37842933367938,171.30411218269728 39.35141362901777,169.52878452418372 42.02712044399232,167.1616789775435 42.27036651875824,163.01923876185901 42.27036651875824,160.35623777890578 43.24335081502795,155.32611690624617 45.18931940756738,150.29598569567315 45.43256548140198,146.1535169382114 45.919057629071176,142.89871513913386 45.67581155523658,138.75623386260122 45.919057629071176,135.7973143735435 44.70282725803554,132.5424988034647 40.56764399912208,129.879464663798 36.91895288974047,128.99178597261198 33.270261778496206,128.99178597261198 29.378324592486024,130.4712502779439 26.7026177784428,132.24660626379773 25.486387407407165,136.38909855671227 23.783664888702333,141.12336687929928 23.783664888702333,144.08227993012406 23.540418814867735,146.74529861821793 22.81068059336394,150.88776637450792 23.053926666267216,154.73433729959652 22.81068059336394,157.69323389837518 23.053926666267216,162.72334990650415 24.02691096253693,165.09045974630862 26.459371704608202,167.1616789775435 31.081047111190856,171.00822432967834 34.972984296269715,171.00822432967834 38.62167540658265,169.82467255694792 40.810890073888004,168.64112021238543 43.48659688886255,165.38634831481613 44.216335110366344,162.72334990650415 43.973089036531746,158.58090218016878 44.459581185132265,153.8466676226817 45.43256548140198,150.88776637450792 46.162303702905774,147.33708015549928 46.162303702905774,143.7863887862768 46.405549777671695,139.64390901243314 45.919057629071176,135.7973143735435 43.72984296362847,132.5424988034647 41.054136148653924,130.4712502779439 36.91895288974047,128.4000000001397 33.270261778496206,128.99178597261198 29.864816741086543,130.4712502779439 26.7026177784428,131.95071368920617 24.02691096253693,134.90963782859035 23.297172740101814,140.23569226590917 23.540418814867735,143.7863887862768 23.053926666267216,147.33708015549928 24.51340311113745,150.88776637450792 22.81068059336394,156.50967568787746 22.080942370928824,160.35623777890578 22.81068059336394,164.2027938242536 23.053926666267216,166.27401380729862 26.7026177784428,168.64112021238543 29.621570666320622,170.12056055432186 34.486492147669196,170.71233643963933 37.89193718507886,170.12056055432186 41.054136148653924,168.64112021238543 43.24335081502795,165.68223684746772 43.973089036531746,162.13157208892517 44.94607333280146,158.58090218016878 45.43256548140198,155.0302271207329 45.67581155523658,151.77543712500483 46.162303702905774,148.81653337273747 46.405549777671695,145.26584414974786 46.89204192534089,139.3480173314456 46.405549777671695,135.7973143735435 44.70282725803554,133.13428377383389 41.54062829632312,130.4712502779439 38.864921481348574,129.2876789055299 34.0,128.69589300476946 31.081047111190856,129.58357180282474 28.40534029621631,130.76714303181507 25.97287955507636,133.13428377383389 24.99989525973797,134.31785328662954 24.27015703730285,135.7973143735435 25.486387407407165,139.3480173314456 25.243141333572567,140.82747537712567 24.756649184972048,144.9699531486258 23.297172740101814,149.1124239093624 22.56743451859802,152.3672174452804 22.080942370928824,157.39734439994209 21.10795807465911,159.46857014065608 21.837696296162903,160.94801602489315 23.297172740101814,163.90690511232242 25.97287955507636,165.68223684746772 28.40534029621631,168.93700835271738 31.56753925886005,169.82467255694792 32.78376962989569,170.41644851467572 37.64869111124426,171.60000000009313" stroke="#4DD2FF" stroke-dasharray="none" stroke-linecap="round" stroke-linejoin="round" stroke-width="0.5"><title>2013-11-03 10.7km</title><desc>9223370653417861807</desc></polyline><polyline fill="none" opacity="1" points="102.01245585177094,170.73600767669268 105.09032951015979,169.5840174248442 106.74764609336853,167.28003524802625 107.93144365400076,163.24806107999757 109.58876023907214,160.0800765901804 109.82551975175738,155.7600909504108 109.58876023907214,152.01609706040472 110.77255779877305,148.27209728653543 111.48283633589745,145.39209345774725 111.71959584765136,142.5120861462783 111.9563553603366,138.48007006268017 111.48283633589745,133.2960393568501 109.35200072731823,129.84001261997037 106.98440560605377,129.2640076763928 103.90653194859624,130.41601742454804 100.35513926763088,130.12801503995433 97.51402512192726,130.41601742454804 94.67291097715497,132.14403100241907 92.77883488032967,135.3120526385028 91.35827780794352,138.1920686531812 91.59503732062876,143.37608870584518 90.88475878350437,145.96809450211003 90.1744802473113,149.712097896263 89.46420171111822,153.4560954067856 88.51716366223991,155.7600909504108 88.28040415141732,159.2160800890997 88.28040415141732,162.96006266516633 89.70096122287214,167.28003524802625 92.77883488032967,169.5840174248442 97.27726561017334,171.31200259411708 100.59189877938479,171.60000000009313 104.3800509730354,170.16001262003556 107.69468414224684,167.28003524802625 108.16820316575468,162.6720642137807 110.29903877526522,158.06408426584676 110.53579828795046,154.60809345706366 110.53579828795046,151.44009747868404 110.77255779877305,147.1200961722061 111.00931731145829,142.80008703446947 112.19311487209052,139.0560727783013 112.42987438477576,135.3120526385028 110.29903877526522,132.7200352489017 108.87848170287907,130.41601742454804 105.80060804635286,128.9760051521007 102.01245585177094,128.4000000001397 98.22430365905166,129.2640076763928 94.90967048984021,129.84001261997037 89.70096122287214,133.8720433257986 88.99068268761039,135.0240508459974 88.99068268761039,136.46405946207233 90.1744802473113,139.63207535468973 89.93772073462605,143.66408948926255 88.51716366223991,147.69609680003487 88.51716366223991,150.57609784416854 87.57012561522424,154.32009399705566 87.57012561522424,157.48808614653535 87.80688512697816,160.65607408294454 87.57012561522424,163.5360594613012 89.22744219843298,166.7040393569041 91.35827780794352,169.00802208902314 94.19939195271581,169.87201503990218 97.9875441454351,169.5840174248442 102.01245585177094,168.72002436965704 106.51088658254594,166.99203731981106 108.40496267937124,164.4000543965958 110.29903877526522,160.65607408294454 109.82551975175738,156.62408870481886 110.29903877526522,152.59209650335833 110.53579828795046,149.13609775714576 110.77255779877305,145.39209345774725 111.00931731145829,141.93608426721767 112.19311487209052,139.34407408325933 111.9563553603366,135.3120526385028 109.35200072731823,132.7200352489017 106.74764609336853,130.70401977421716 102.72273438796401,129.55201016529463" stroke="#4DD2FF" stroke-dasharray="none" stroke-linecap="round" stroke-linejoin="round" stroke-width="0.5"><title>2013-11-02 10.5km</title><desc>9223370653505000807</desc></polyline><polyline fill="none" opacity="1" points="176.65418834704906,144.33009724435396 176.87615060433745,142.4400916469749 176.2102638334036,139.20007833116688 175.54437706060708,134.88005326571874 173.32475448958576,131.1000244792085 172.21494320314378,130.29001747770235 168.88550934474915,128.94000515691005 166.2219622572884,128.94000515691005 162.6705661425367,130.56001984444447 159.78505679685622,132.45003549358808 157.5654342258349,135.15005507646129 156.01169842481613,138.12007284793071 156.45562293939292,142.98009340977296 156.67758519575,145.68010026379488 156.23366068210453,149.19010429433547 156.01169842481613,151.35010403278284 156.01169842481613,152.97010246641003 155.56777391023934,155.67009724397212 155.12384939659387,158.6400877290871 156.23366068210453,162.15007139416412 157.5654342258349,164.85005507571623 160.67290582694113,167.0100396713242 164.22430194169283,168.3600289823953 167.7756980592385,168.3600289823953 169.77335837297142,167.82003335561603 172.65886771772057,165.66004954348318 174.6565280323848,162.96006684168242 175.54437706060708,159.18008557590656 175.54437706060708,155.94009654247202 175.7663393188268,152.70010280935094 175.54437706060708,149.46010437584482 175.54437706060708,146.49010168295354 176.43222609069198,142.98009340977296 176.87615060433745,140.01008210144937 176.43222609069198,137.31006839242764 175.32241480425,134.34004954481497 173.99064126145095,132.72003759886138 170.4392451448366,130.56001984444447 167.7756980592385,128.4000000001397 165.3341132281348,129.48001018329524 162.0046793706715,130.8300221778918 159.78505679685622,132.45003549358808 158.67524551134557,135.69005860155448 158.2313209977001,138.12007284793071 157.7873964831233,141.63008875912055 156.45562293939292,144.33009724435396 156.01169842481613,146.76010209089145 156.23366068210453,150.81010429398157 157.7873964831233,154.32010026299395 154.90188713837415,155.13009854895063 155.12384939659387,156.21009580790997 154.45796262472868,157.56009164638817 154.90188713837415,163.23006525845267 160.22898131329566,166.20004569296725 165.77803774364293,167.55003549298272 167.1098112873733,167.55003549298272 169.10747160110623,167.55003549298272 171.77101868763566,168.3600289823953 173.99064126145095,164.0400603134185 174.6565280323848,162.96006684168242 174.8784902896732,160.5300796192605 175.54437706060708,159.18008557590656 173.54671674594283,158.91008666879497 174.8784902896732,158.10008975397795 176.2102638334036,155.94009654247202 175.9883015761152,150.81010429398157 176.2102638334036,149.46010437584482 175.7663393188268,146.2201012421865 176.2102638334036,142.1700907170307 175.7663393188268,136.7700652598869 175.32241480425,133.26004171161912 173.54671674594283,129.75001264712773 169.55139611661434,129.48001018329524 165.77803774364293,129.21000768686645 162.6705661425367,130.56001984444447 159.78505679685622,132.72003759886138 156.67758519575,133.26004171161912 156.45562293939292,137.58006991050206 156.23366068210453,140.55008445074782 156.01169842481613,144.0600965428166 154.90188713837415,147.57010311936028 155.34581165295094,151.62010385282338 155.12384939659387,155.13009854895063 154.90188713837415,159.18008557590656 154.90188713837415,161.61007426702417 158.45328325405717,165.66004954348318 164.00233968626708,168.63002674723975 166.44392451550812,169.98001507879235 169.32943385839462,171.60000000009313 173.32475448958576,167.82003335561603 175.1004525469616,162.69006839231588 175.54437706060708,159.7200832911767 175.54437706060708,158.6400877290871 175.1004525469616,153.24010209064 174.8784902896732,148.92010417976417 175.32241480425,146.2201012421865 175.54437706060708,142.98009340977296 177.09811286255717,138.93007700890303 175.7663393188268,135.96006031497382 174.43456577509642,134.34004954481497 172.88082997407764,130.8300221778918 170.21728288847953,130.02001507859677 166.0,129.75001264712773 162.0046793706715,130.56001984444447 159.78505679685622,130.8300221778918 156.89954745396972,132.72003759886138 154.90188713837415,135.69005860155448 154.67992488108575,138.39007426798344 155.34581165295094,139.7400808769744 154.23600036650896,142.71009254432283 154.67992488108575,145.95010076928884 154.90188713837415,147.57010311936028 154.45796262472868,150.27010442432947 154.90188713837415,153.78010124200955 154.67992488108575,157.02009340864606 154.90188713837415,161.34007565444335 157.5654342258349,166.20004569296725 161.7827171124518,168.63002674723975 163.11449065618217,168.3600289823953 166.0,169.98001507879235 167.99766031466424,169.1700221770443 171.1051319167018,171.33000259427354 173.32475448958576,168.63002674723975 174.8784902896732,162.42006990942173 173.99064126145095,158.37008875748143 175.1004525469616,151.35010403278284 174.8784902896732,147.0301024664659 174.8784902896732,145.68010026379488 176.43222609069198,142.98009340977296 177.76399963349104,140.82008557626978 177.09811286255717,136.7700652598869 175.32241480425,132.1800333559513 173.10279223136604,129.75001264712773 169.9953206302598,128.6700025945902 166.0,128.94000515691005 161.1168303405866,130.56001984444447 157.1215097112581,132.1800333559513 156.67758519575,133.53004371840507 155.56777391023934,134.61005142168142 155.78973616752774,137.04006684245542 156.01169842481613,138.6600756549742 156.23366068210453,142.1700907170307 156.23366068210453,143.5200950417202 156.23366068210453,147.84010339644738 156.01169842481613,149.19010429433547 155.12384939659387,151.62010385282338 155.78973616752774,155.13009854895063 154.90188713837415,156.21009580790997 155.12384939659387,161.07007700833492 156.23366068210453,162.15007139416412 156.23366068210453,163.50006364332512 158.45328325405717,165.66004954348318 162.6705661425367,168.63002674723975 167.1098112873733,170.52001018356532 170.4392451448366,169.710017477395 171.99298094585538,168.09003118495457 175.32241480425,163.77006199466996 174.8784902896732,159.18008557590656 174.43456577509642,152.97010246641003 176.2102638334036,152.1601033960469 176.65418834704906,147.3001028096769 176.87615060433745,146.49010168295354 175.9883015761152,142.71009254432283 176.87615060433745,138.93007700890303 175.54437706060708,134.34004954481497 173.54671674594283,132.1800333559513 172.21494320314378,128.94000515691005 166.2219622572884,129.21000768686645 162.0046793706715,130.02001507859677 159.34113228321075,132.1800333559513 157.3434719676152,134.34004954481497 156.23366068210453,136.50006364448927 156.89954745396972,138.39007426798344 157.1215097112581,140.01008210144937 156.89954745396972,143.5200950417202 156.01169842481613,144.6000979137607" stroke="#4DD2FF" stroke-dasharray="none" stroke-linecap="round" stroke-linejoin="round" stroke-width="0.5"><title>2013-10-26 11.1km</title><desc>9223370654110301807</desc></polyline><polyline fill="none" opacity="1" points="42.5280153201893,209.6527019208297 43.462592341937125,206.52639954793267 44.163525108247995,202.26325324806385 44.63081361912191,199.13694104878232 43.92988085281104,197.14746748516336 44.39716936275363,193.1685153071303 44.163525108247995,191.17903669271618 43.462592341937125,189.75797950988635 43.22894808650017,187.76849800907075 42.5280153201893,183.78952995873988 41.126149787567556,180.3789805562701 36.9205531924963,178.67370399925858 33.649533617310226,178.10527820512652 29.67758127581328,180.66319319489412 27.574782977811992,181.51583090610802 25.00469616893679,184.3579543782398 23.135542125441134,187.76849800907075 24.537407658062875,190.32640248560347 25.238340423442423,193.1685153071303 25.238340423442423,196.86325683817267 24.30376340262592,199.9895720607601 23.836474891752005,203.68430287321098 23.602830636315048,206.81060902611353 24.537407658062875,208.23165590292774 23.836474891752005,212.77900013769977 25.939273189753294,215.62108581862412 28.275715744122863,217.89475188939832 31.079446808435023,218.46316806343384 34.350466382689774,217.89475188939832 38.32241872418672,216.18950254260562 41.59343829937279,213.91583482245915 42.5280153201893,209.93691102182493 42.29437106475234,206.52639954793267 42.76165957655758,202.26325324806385 42.76165957655758,198.85273064253852 42.76165957655758,195.1579922370147 44.163525108247995,191.4632480267901 45.79903489537537,189.18955639493652 46.7336119171232,186.63165068160743 46.49996766075492,184.07374218595214 44.163525108247995,181.23161837016232 41.126149787567556,179.81055517448112 38.08877446874976,177.25263925665058 34.81775489449501,176.4000000001397 31.313091062940657,177.82106525660492 28.509359998628497,180.09476788225584 25.939273189753294,182.6526807071641 25.471984679810703,185.77901482582092 25.471984679810703,189.4737679695245 25.00469616893679,192.60009301709943 24.537407658062875,196.86325683817267 21.733676593750715,199.9895720607601 22.20096510462463,203.68430287321098 21.967320849187672,207.94744659680873 22.434609359130263,211.07374708005227 22.434609359130263,213.91583482245915 24.537407658062875,216.75791912851855 27.574782977811992,219.0315841003321 30.845802552998066,219.60000000009313 34.81775489449501,219.0315841003321 37.38784170243889,217.610543750925 41.126149787567556,215.90529419737868 42.060726810246706,213.6316262029577 43.69623659737408,210.22112008789554 44.163525108247995,206.81060902611353 44.163525108247995,203.1158831268549 44.63081361912191,199.70536175812595 45.33174638450146,195.4422030900605 45.565390639938414,192.0316705906298 46.03267915081233,189.18955639493652 45.79903489537537,185.49480280443095 44.864457874558866,181.80004340759479 42.76165957655758,179.24212965508923 39.72428425680846,178.10527820512652 36.21962042618543,177.53685227409005 32.7149565955624,177.53685227409005 29.443937021307647,178.95791684417054 25.939273189753294,181.23161837016232 24.537407658062875,184.07374218595214 25.238340423442423,188.33692146651447 23.836474891752005,191.74745932617225 23.602830636315048,194.58957042940892 23.602830636315048,198.28430972713977 21.967320849187672,201.69483315735124 22.434609359130263,206.52639954793267 22.20096510462463,209.3684927856084 23.602830636315048,212.21058258996345 24.537407658062875,215.90529419737868 25.471984679810703,217.610543750925 31.079446808435023,219.0315841003321 35.051399149000645,218.46316806343384 37.62148595787585,216.18950254260562 41.82708255387843,212.77900013769977 43.462592341937125,211.9263737637084 44.163525108247995,209.08428361662664 43.69623659737408,205.95798048726283 43.69623659737408,202.26325324806385 43.69623659737408,199.13694104878232 44.163525108247995,195.72641390911303 45.565390639938414,192.31588182109408 45.79903489537537,189.18955639493652 45.79903489537537,186.34743876405992 45.79903489537537,183.78952995873988 43.462592341937125,181.23161837016232 41.59343829937279,178.10527820512652 38.08877446874976,176.96842620545067 33.88317787181586,178.10527820512652 29.91122553125024,180.09476788225584 27.574782977811992,183.22110540163703 25.471984679810703,186.34743876405992 24.07011914718896,188.33692146651447 23.836474891752005,192.0316705906298 22.9018978709355,195.4422030900605 22.434609359130263,199.13694104878232 23.135542125441134,202.26325324806385 21.733676593750715,205.38956129038706 21.2663880828768,208.51586517505348 22.434609359130263,213.6316262029577 24.537407658062875,215.90529419737868 26.873850212432444,217.89475188939832 28.97664850950241,219.31579206697643 33.18224510550499,219.60000000009313 36.9205531924963,217.89475188939832" stroke="#4DD2FF" stroke-dasharray="none" stroke-linecap="round" stroke-linejoin="round" stroke-width="0.5"><title>2013-10-20 10.7km</title><desc>9223370654628121807</desc></polyline><polyline fill="none" opacity="1" points="87.3802659502253,200.58123438083567 86.71019157581031,203.84160563116893 86.71019157581031,207.37366914795712 87.3802659502253,210.36233394150622 89.83720532245934,213.0792984876316 92.51750282011926,214.9811717160046 95.42115844320506,217.42643493087962 99.21824656426907,217.6981306800153 102.56861843541265,217.42643493087962 106.14234843291342,216.06795569579117 109.26936217956245,213.8943872116506 110.83286905195564,211.17742365039885 111.05622717738152,208.18875993951224 111.50294342730194,205.20009225560352 111.94965967629105,201.1246299177874 112.61973405070603,198.13595284009352 113.06645030062646,195.41897022980265 113.28980842512101,192.70198433613405 112.84309217520058,188.89819856663235 112.61973405070603,186.1812047897838 110.38615280296654,182.92080792272463 108.82264592964202,179.6604063261766 105.91899030748755,177.75850321003236 102.79197656083852,176.67170070740394 99.88832093775272,176.67170070740394 96.31459094118327,177.48680263385177 92.96421907003969,179.6604063261766 90.50727969687432,182.92080792272463 89.61384719889611,185.90950523177162 89.61384719889611,188.89819856663235 88.94377282448113,192.15858676331118 88.72041469905525,196.23406535829417 87.60362407565117,199.49444291344844 88.05034032464027,202.4831181843765 86.93354970123619,206.2868809637148 89.39048907347023,208.73215363710187 90.28392157331109,211.9925130638294 92.07078657113016,215.52456377237104 94.30436781886965,217.42643493087962 97.8780978154391,218.7849133447744 101.67518593650311,219.60000000009313 104.57884155865759,217.96982639585622 107.03578093089163,215.25286776060238 109.04600405413657,212.8076021813322 110.60951092839241,209.81894063809887 110.38615280296654,207.64536611060612 111.05622717738152,204.65669770352542 111.27958530280739,201.6680253231898 111.50294342730194,198.67934896820225 112.1730178007856,196.23406535829417 112.61973405070603,191.88688792707399 112.61973405070603,188.62649933667853 111.27958530280739,183.19250784208998 109.492720304057,179.6604063261766 106.58906468190253,178.03020375361666 102.12190218642354,176.4000000001397 98.54817218892276,176.67170070740394 95.64451656676829,178.03020375361666 92.51750282011926,179.9321066394914 90.95399594679475,183.19250784208998 90.7306378223002,186.72460380778648 90.28392157331109,191.07179122348316 89.61384719889611,195.69066863902844 86.93354970123619,198.40765092079528 87.3802659502253,201.1246299177874" stroke="#4DD2FF" stroke-dasharray="none" stroke-linecap="round" stroke-linejoin="round" stroke-width="0.5"><title>2013-10-19 10.2km</title><desc>9223370654714312807</desc></polyline><polyline fill="none" opacity="1" points="155.1090584937483,206.64008224592544 154.3987797005102,210.38406572700478 154.87229889724404,213.26404901687056 157.23989487532526,215.856031000847 161.5015676394105,217.87201503897086 165.0529616093263,219.60000000009313 168.36759597994387,218.16001261910424 171.20871115475893,216.14402882475406 174.049826329574,213.55204715393484 174.76010512374341,210.38406572700478 175.70714351627976,206.06408426584676 175.23362432047725,202.03209450119175 175.47038391791284,197.71209789603017 175.70714351627976,194.83209580741823 176.41742231044918,190.8000870347023 177.36446070112288,187.05607277853414 175.94390311371535,183.0240508459974 174.76010512374341,180.14403100172058 171.20871115475893,177.55201016599312 167.18379798997194,176.39999999990687 163.39564442262053,177.55201016599312 160.31776964943856,179.2800243704114 158.66045246366411,182.44804715528153 157.4766544746235,185.32806421420537 157.23989487532526,187.92007659026422 156.76637568045408,191.6640894880984 155.81933728791773,195.12009617267177 155.1090584937483,198.28809789568186 154.87229889724404,201.45609540655278 154.87229889724404,205.48808614583686 155.34581809211522,209.23207143694162 157.00313527788967,212.97605084488168 158.1869332678616,214.99203731981106 161.028048443608,218.16001261910424 164.57944241166115,218.16001261910424 167.42055758740753,218.73600767576136 170.73519195895642,217.29601977346465 173.33954753633589,215.56803314224817 174.99686472211033,212.11205611890182 175.47038391791284,207.79207779001445 175.70714351627976,203.18409227347001 175.70714351627976,200.30409679887816 175.70714351627976,196.84809763496742 176.65418190788478,193.9680945011787 177.36446070112288,190.51208614674397 177.1277011046186,186.19206865271553 174.99686472211033,180.14403100172058 172.3925091456622,178.12801503925584 167.65731718577445,176.68800259334967 164.81620201002806,176.97600515233353 161.97508683428168,179.56802661530674 159.37073125783354,181.58404135890305 158.66045246366411,184.4640594618395 157.23989487532526,189.07208118587732 155.81933728791773,193.39209345704876 155.81933728791773,196.84809763496742 154.3987797005102,200.30409679887816 154.6355392979458,204.04809023649432 154.87229889724404,207.2160800884012 154.3987797005102,210.67206421284936 156.29285648372024,214.70403935597278 158.89721206203103,217.29601977346465 161.5015676394105,217.5840174241457 166.4735191958025,218.16001261910424 169.31463437061757,216.72002436965704 172.3925091456622,214.12804332445376 173.33954753633589,211.53605946153402 174.52334552630782,207.79207779001445 175.94390311371535,204.33608948858455 177.1277011046186,201.1680958061479 177.6012202994898,197.13609775644727 177.1277011046186,192.52809162973426 177.1277011046186,188.20807779114693 176.18066271208227,184.75206108111888 174.76010512374341,180.14403100172058 171.91898994892836,178.12801503925584 168.84111517574638,177.26400767685845 164.81620201002806,176.97600515233353 161.5015676394105,178.99202208942734 158.66045246366411,181.58404135890305 157.23989487532526,184.176057808334 157.9501736694947,187.63207535399124 156.76637568045408,192.24009095085785 157.23989487532526,196.27209728676826 156.76637568045408,200.01609705970623 155.81933728791773,203.47209162893705 156.05609688628465,207.5040789565537 155.34581809211522,210.0960672076326 156.52961608115584,212.68805263726972 157.9501736694947,215.856031000847 161.7383272368461,217.87201503897086 163.86916361842304,217.87201503897086" stroke="#4DD2FF" stroke-dasharray="none" stroke-linecap="round" stroke-linejoin="round" stroke-width="0.5"><title>2013-10-12 10.6km</title><desc>9223370655320152807</desc></polyline><polyline fill="none" opacity="1" points="43.748919318430126,247.27068776125088 43.516802191734314,243.8824518530164 44.44527069851756,242.18833205639385 45.141622078604996,237.38831929140724 44.677387826144695,234.28242342267185 43.284685065969825,231.45887813949957 42.58833368588239,228.63532944396138 42.58833368588239,226.65884332591668 41.19563092570752,227.2235538160894 38.64234253298491,225.81177733442746 34.00000000093132,224.4000000001397 30.98247735388577,225.2470665036235 27.96495470777154,226.65884332591668 26.34013482183218,230.6118138891179 25.411666315048933,234.0000690475572 25.643783441744745,236.25890308944508 24.251080681569874,240.77656461950392 24.251080681569874,243.31774539034814 23.55472930241376,247.83539326884784 24.251080681569874,250.94127111579292 24.483197808265686,255.17655243445188 24.018963554874063,258.8471233653836 22.858377922326326,262.51768852747045 24.94743206165731,263.3647412073333 28.42918896023184,265.6235468534287 31.678828733973205,267.60000000009313 34.696351380087435,267.60000000009313 38.874459659680724,265.90589740499854 41.42774805333465,263.92944282409735 43.748919318430126,260.8235822466668 44.677387826144695,257.1530144221615 44.90950495097786,252.63538456475362 43.748919318430126,248.96480387263 43.98103644605726,243.8824518530164 45.141622078604996,239.92950374865904 45.37373920623213,236.82361125876196 46.30220771115273,234.0000690475572 45.60585633199662,231.74123282171786 43.05256793834269,228.07061929488555 38.874459659680724,226.65884332591668 35.39270276017487,225.81177733442746 32.60729724075645,225.81177733442746 30.286125973798335,226.94119858834893 26.34013482183218,228.91768446774222 24.94743206165731,231.74123282171786 24.018963554874063,235.12948634149507 24.251080681569874,239.0824425695464 24.251080681569874,242.47068544104695 24.483197808265686,245.57657042192295 24.251080681569874,249.24715643795207 22.626260795630515,251.78832799429074 21.92990941554308,254.61184870218858 21.697792288847268,257.435365997022 22.626260795630515,260.25887987948954 23.78684642817825,262.51768852747045 25.411666315048933,265.34119626670144 28.42918896023184,266.75294885598123 31.678828733973205,266.75294885598123 36.55328839365393,267.60000000009313 39.57081103976816,264.7764949919656 41.42774805333465,262.2353375663515 43.748919318430126,258.56477195979096 43.98103644605726,254.61184870218858 43.98103644605726,251.22362344292924 45.141622078604996,247.55304053192958 45.83797345869243,244.16480503370985 45.60585633199662,241.05891817482188 45.60585633199662,238.5177349471487 46.07009058445692,235.12948634149507 45.37373920623213,232.30594208301045 44.44527069851756,229.76474933186546 43.05256793834269,226.94119858834893 40.03504529315978,225.2470665036235 36.55328839365393,225.2470665036235 32.60729724075645,225.2470665036235 28.89342321548611,225.81177733442746 26.804369075223804,228.07061929488555 24.483197808265686,231.74123282171786 24.94743206165731,234.28242342267185 24.94743206165731,237.6706732562743 23.55472930241376,242.18833205639385 23.55472930241376,246.14127633837052 24.251080681569874,247.55304053192958 23.32261217571795,251.22362344292924 22.626260795630515,253.2000887747854 23.090495048090816,256.588311167201 23.78684642817825,259.6941773761064 24.251080681569874,262.80003945552744 25.875900567509234,265.34119626670144 27.73283758200705,266.4705984070897 34.00000000093132,266.4705984070897 38.17810827959329,266.4705984070897 40.267162419855595,265.34119626670144 43.98103644605726,261.95298657077365 43.284685065969825,257.1530144221615 43.05256793834269,252.63538456475362 44.21315357182175,249.81186146754771 43.05256793834269,246.14127633837052 44.44527069851756,243.8824518530164 45.37373920623213,241.9059786372818 46.07009058445692,237.6706732562743" stroke="#4DD2FF" stroke-dasharray="none" stroke-linecap="round" stroke-linejoin="round" stroke-width="0.5"><title>2013-10-06 10.6km</title><desc>9223370655838244807</desc></polyline><polyline fill="none" opacity="1" points="89.7555992724374,251.261634249473 88.84498587623239,255.69238901790231 88.16202582698315,258.46160639775917 89.0726392250508,261.50774164893664 90.43855932168663,263.1692682597786 93.39805286563933,265.9384766018484 95.67458635941148,267.3230795171112 97.95111985504627,267.60000000009313 102.27653349470347,266.49231786769815 106.14664043672383,264.5538728488609 108.65082728024572,260.4000565716997 109.78909402806312,256.800076372223 110.01674737781286,253.47701270505786 110.47205407731235,250.4308667758014 111.61032082512975,247.3847167957574 110.92736077588052,243.78471614304 110.92736077588052,240.46163359680213 111.61032082512975,237.41547036124393 111.83797417394817,234.64622754161246 111.61032082512975,231.8769813736435 109.5614406792447,230.21543206600472 107.96786723192781,228.00003111502156 105.23602703865618,226.89232983626425 102.27653349470347,227.44618054293096 97.72346650529653,228.00003111502156 95.44693301152438,228.55388155416586 93.8533595642075,230.21543206600472 93.62570621352643,231.8769813736435 92.71509281732142,234.64622754161246 92.48743946664035,237.69239445892163 91.80447941832244,241.84625191055238 91.12151937000453,244.89240925433114 91.80447941832244,248.49240816570818 90.89386602025479,251.5385566733312 90.43855932168663,255.1385451410897 89.5279459245503,257.90776318963617 89.5279459245503,259.84621383203194 90.43855932168663,262.8923472412862 92.03213276807219,265.10771445115097 96.12989305891097,266.21539725130424 99.31703995261341,267.0461590006016 102.27653349470347,266.21539725130424 105.23602703865618,265.9384766018484 107.2849071836099,263.7231101959478 108.65082728024572,261.50774164893664 109.5614406792447,257.6308415350504 109.33378732949495,254.58470112946816 110.2444007275626,250.7077893000096 110.2444007275626,247.1077938694507 110.01674737781286,243.50779278133996 109.78909402806312,238.80009051598608 110.2444007275626,235.47700073826127 110.92736077588052,234.09237857535481 110.2444007275626,231.32313173846342 107.96786723192781,228.83080672309734 105.00837368983775,226.06155352527276 102.9594935439527,225.23077691416256 99.77234665118158,225.78462802176364 96.35754640772939,225.78462802176364 94.5363196125254,226.61540443263948 93.39805286563933,229.66158202895895 91.80447941832244,232.4308308751788 91.57682606950402,235.47700073826127 90.89386602025479,239.07701444602571 90.2109059728682,242.95394595898688 89.7555992724374,245.4462556091603 89.0726392250508,248.49240816570818 89.0726392250508,251.81547906342894 88.16202582698315,255.1385451410897 87.70671912748367,257.6308415350504 87.93437247723341,260.67697789077647 89.0726392250508,263.1692682597786 92.03213276807219,265.6615559179336 95.67458635941148,266.49231786769815 99.77234665118158,266.76923845126294 103.41480024252087,266.21539725130424 105.91898708697408,264.2769519982394 108.65082728024572,262.0615839860402 109.78909402806312,257.90776318963617 110.2444007275626,255.1385451410897 110.69970742613077,252.09240142116323 110.92736077588052,249.3231763425283 111.38266747444868,245.4462556091603 111.61032082512975,243.23086938657798 111.83797417394817,240.18470983416773 112.06562752369791,237.41547036124393 112.29328087251633,234.36930307536386 111.61032082512975,231.6000565723516 110.47205407731235,229.1077318591997 108.19552058167756,226.61540443263948 105.69133373815566,225.23077691416256 102.9594935439527,224.4000000001397 100.68296004924923,224.95385130867362 96.81285310722888,225.50770248449408 94.08101291395724,227.16925520659424 92.71509281732142,230.76928196917288 91.12151937000453,235.20007637282833 90.2109059728682,237.9693185237702 89.98325262311846,240.18470983416773 89.7555992724374,243.23086938657798 89.98325262311846,246.27702489006333 90.2109059728682,249.6000990010798 89.98325262311846,252.64624603441916 89.7555992724374,255.96931090718135 90.2109059728682,259.2923709584866 91.57682606950402,262.3385051051155 94.08101291395724,264.00003111432306 96.81285310722888,266.76923845126294 100.68296004924923,266.76923845126294 102.9594935439527,266.49231786769815 106.37429378647357,264.83079366665334 108.4231739314273,262.8923472412862 109.5614406792447,259.56929241190664 110.01674737781286,256.800076372223 110.92736077588052,253.75393486046232 110.92736077588052,250.4308667758014 111.61032082512975,247.6616396890022 111.61032082512975,244.61548602650873 111.38266747444868,241.56932831485756 112.52093422133476,237.9693185237702 111.61032082512975,235.20007637282833 110.69970742613077,231.8769813736435 110.01674737781286,229.3846569606103 107.51256053335965,227.72310584550723 104.32541364058852,226.06155352527276 101.36592009756714,226.61540443263948 97.26815980672836,226.89232983626425 94.30866626370698,228.83080672309734 92.94274616613984,230.76928196917288 90.89386602025479,234.09237857535481 90.43855932168663,236.30777363479137 89.5279459245503,239.90778603730723 89.7555992724374,242.95394595898688 88.61733252555132,246.00010183011182 88.61733252555132,249.3231763425283 87.93437247723341,252.64624603441916 87.47906577866524,255.96931090718135 88.16202582698315,259.2923709584866 89.30029257386923,262.3385051051155 92.71509281732142,264.2769519982394 96.35754640772939,265.9384766018484 98.8617332521826,265.38463520118967 102.27653349470347,264.5538728488609 104.78072033915669,261.7846628341358 107.96786723192781,259.84621383203194 109.5614406792447,257.35391984693706 110.2444007275626,255.1385451410897 110.47205407731235,251.81547906342894 110.92736077588052,248.49240816570818 111.15501412469894,246.00010183011182 111.61032082512975,242.12317547295243 111.15501412469894,239.35393834323622 111.38266747444868,235.20007637282833 111.61032082512975,231.8769813736435 110.92736077588052,229.9385070647113 109.10613397974521,228.55388155416586 105.91898708697408,226.61540443263948 102.73184019327164,226.06155352527276 99.54469330050051,226.89232983626425" stroke="#4DD2FF" stroke-dasharray="none" stroke-linecap="round" stroke-linejoin="round" stroke-width="0.5"><title>2013-09-29 10.5km</title><desc>9223370656443428807</desc></polyline><polyline fill="none" opacity="1" points="158.35776443220675,239.43806830001995 157.90822116378695,242.7190880975686 157.23390626069158,245.72668539732695 156.55959135759622,248.46086128987372 155.88527645450085,251.7418679993134 155.88527645450085,255.29628656315617 155.88527645450085,258.57728335657157 157.23390626069158,261.8582753909286 159.93116587307304,263.22535400046036 163.30274038854986,265.13926266669296 166.44954326935112,265.13926266669296 168.92203124705702,264.0456007702742 171.84406249318272,263.22535400046036 173.8670072024688,261.0380278278608 175.21563700865954,258.3038671386894 176.11472354643047,255.29628656315617 176.11472354643047,251.7418679993134 176.11472354643047,248.73427869705483 176.7890384485945,246.00010313582607 176.7890384485945,242.17225179541856 177.912896621041,238.8912312053144 177.23858171794564,237.25071912514977 176.3394951801747,234.51652968092822 175.21563700865954,230.68865890661255 173.417463934049,227.95446153078228 170.94497595634311,225.49368106527254 169.59634615015239,225.76710125035606 165.5504567315802,224.94684059894644 162.85319711919874,226.5873616025783 160.38070914149284,228.22788141667843 159.25685096997768,232.055756355403 157.90822116378695,233.6962722032331 157.23390626069158,238.6178126083687 156.55959135759622,240.80516046099365 156.33481972292066,244.9064319843892 156.33481972292066,247.09377375710756 156.11004808917642,249.28111341316253 156.11004808917642,253.38236956926994 154.7614182829857,255.56970314332284 155.2109615514055,261.0380278278608 156.11004808917642,263.4987696236931 161.504567313008,265.4126780577935 163.75228365696967,265.95950874197297 167.1238581724465,265.95950874197297 171.16974759008735,264.86584724183194 174.09177883714437,262.1316911787726 176.11472354643047,258.0304508882109 176.7890384485945,253.65578638156876 175.21563700865954,250.92161676776595 173.64223556779325,249.55453072185628 175.4404086433351,245.17984982184134 177.01381008327007,239.98490526387468 177.4633533526212,238.07097531366162 176.7890384485945,235.06336783478037 177.912896621041,231.235497985268 175.21563700865954,228.50130126997828 172.51837739627808,225.49368106527254 170.72020432166755,224.94684059894644 165.32568509690464,225.49368106527254 163.75228365696967,225.76710125035606 160.83025240991265,228.22788141667843 158.35776443220675,230.41523931804113 157.68344952911139,232.87601442844607 157.23390626069158,236.43046263838187 156.11004808917642,241.07857879367657 156.55959135759622,244.35959621169604 156.78436299134046,246.54693851224147 156.11004808917642,250.92161676776595 156.55959135759622,254.20261990698054 155.2109615514055,258.3038671386894 155.88527645450085,261.5848595700227 156.11004808917642,263.4987696236931 159.93116587307304,264.86584724183194 163.5275120222941,267.3265848727897 165.77522836532444,266.77975451922975 168.69725961238146,265.95950874197297 171.61929085943848,264.86584724183194 174.54132210556418,261.5848595700227 174.76609374023974,259.3975318111479 175.4404086433351,256.66336913825944 176.3394951801747,253.92920316033997 177.4633533526212,250.92161676776595 176.56426681485027,247.3671913293656 175.4404086433351,243.53934230282903 175.66518027707934,240.5317420954816 176.11472354643047,237.25071912514977 177.23858171794564,236.43046263838187 178.13766825478524,232.87601442844607 176.7890384485945,230.14181969570927 177.912896621041,230.41523931804113 177.4633533526212,227.68104161159135 174.31655047088861,226.31394151831046 170.94497595634311,225.22026084875688 167.79817307554185,224.6734203158412 163.75228365696967,225.76710125035606 160.60548077523708,228.22788141667843 157.90822116378695,230.14181969570927 157.68344952911139,233.42285297834314 155.43573318608105,237.25071912514977 154.08710337989032,241.62541536078788 155.6605048198253,241.62541536078788 156.33481972292066,243.2659242679365 155.88527645450085,246.8203561506234 155.2109615514055,250.92161676776595 152.96324520744383,253.10895272321068 154.98618991766125,256.11653620772995 155.2109615514055,258.57728335657157 156.78436299134046,262.9519383441657 158.80730770155787,265.4126780577935 161.504567313008,266.23292403365485 165.32568509690464,266.23292403365485 168.92203124705702,267.60000000009313 172.51837739627808,266.23292403365485 173.64223556779325,264.0456007702742 173.8670072024688,260.49119595531374 175.21563700865954,259.3975318111479 175.4404086433351,255.29628656315617 177.4633533526212,248.73427869705483 177.4633533526212,244.08617827459238 175.4404086433351,241.35199709353037 176.11472354643047,238.07097531366162 176.56426681485027,235.61020585522056 177.01381008327007,232.055756355403 176.7890384485945,230.14181969570927 175.21563700865954,227.1342016728595 171.61929085943848,225.76710125035606 168.24771634396166,224.4000000001397 165.5504567315802,225.76710125035606 163.0779687538743,226.8607816544827 159.93116587307304,229.04814087809063 157.00913462601602,232.055756355403 155.2109615514055,235.61020585522056 156.33481972292066,239.16464976919815 156.55959135759622,243.53934230282903 156.55959135759622,246.8203561506234 155.88527645450085,250.64819962508045 154.31187501456589,253.10895272321068 155.88527645450085,256.66336913825944 155.2109615514055,259.3975318111479 156.33481972292066,262.4051069342531 157.23390626069158,264.86584724183194 161.27979567926377,264.31901629362255 163.75228365696967,265.95950874197297 167.1238581724465,265.13926266669296 170.27066105324775,264.592431783909 172.06883412785828,263.4987696236931 174.54132210556418,259.6709478965495 176.7890384485945,257.4836182866711 176.7890384485945,254.20261990698054 176.7890384485945,252.83553584385663 176.11472354643047,251.195033878088 177.23858171794564,247.91402637632564 177.4633533526212,243.53934230282903 179.03675479255617,240.25832369620912" stroke="#4DD2FF" stroke-dasharray="none" stroke-linecap="round" stroke-linejoin="round" stroke-width="0.5"><title>2013-09-22 10.9km</title><desc>9223370657048162807</desc></polyline></svg>