<?xml version="1.0" encoding="utf-8" ?>
<svg baseProfile="full" height="300mm" version="1.1" viewBox="0,0,200,300" width="200mm" xmlns="http://www.w3.org/2000/svg" xmlns:ev="http://www.w3.org/2001/xml-events" xmlns:xlink="http://www.w3.org/1999/xlink"><defs /><rect fill="#222222" height="300" width="200" x="0" y="0" /><text fill="#FFFFFF" style="font-size:12px; font-family:Arial; font-weight:bold;" x="10" y="20">Over 10km Runs</text><text fill="#FFFFFF" style="font-size:4px; font-family:Arial" x="10" y="280">Runner</text><text fill="#FFFFFF" style="font-size:9px; font-family:Arial" x="10" y="290">keep</text><text fill="#FFFFFF" style="font-size:4px; font-family:Arial" x="65" y="280">SPECIAL TRACKS</text><rect fill="yellow" height="2.6" width="2.6" x="65" y="283" /><text fill="#FFFFFF" style="font-size:3px; font-family:Arial" x="70" y="285.5">Over 20.0 km</text><rect fill="red" height="2.6" width="2.6" x="65" y="287" /><text fill="#FFFFFF" style="font-size:3px; font-family:Arial" x="70" y="289.5">Over 40.0 km</text><text fill="#FFFFFF" style="font-size:4px; font-family:Arial" x="120" y="280">STATISTICS</text><text fill="#FFFFFF" style="font-size:3px; font-family:Arial" x="120" y="285">Number: 15</text><text fill="#FFFFFF" style="font-size:3px; font-family:Arial" x="120" y="290">Weekly: 1.2</text><text fill="#FFFFFF" style="font-size:3px; font-family:Arial" x="141" y="285">Total: 163.6 km</text><text fill="#FFFFFF" style="font-size:3px; font-family:Arial" x="141" y="290">Avg: 10.9 km</text><text fill="#FFFFFF" style="font-size:3px; font-family:Arial" x="167" y="285">Min: 10.2 km</text><text fill="#FFFFFF" style="font-size:3px; font-family:Arial" x="167" y="290">Max: 14.0 km</text><polyline fill="none" opacity="1" points="26.738929930259474,75.59999999999854 26.660900520568248,75.40358878168627 26.582871110877022,75.17444176428398 26.539521438797237,74.90164685912168 26.582871110877022,74.5524680531671 26.617550848517567,74.25784727635619 26.608880914078327,73.9414015564762 26.591541045258055,73.62495461250364 26.608880914078327,73.27577035721333 26.617550848517567,72.97023291120422 26.634890717308735,72.69743065581133 26.634890717308735,72.40280319817248 26.78227960233926,72.21729647675966 27.05971750349272,72.15182341579202 27.241786126163788,72.12999905048491 27.241786126163788,71.9554039185532 27.311145601444878,71.76989618258085 27.311145601444878,71.48617765501695 27.311145601444878,71.15880890047993 27.08572730672313,70.94056233626907 26.851639077620348,70.82052647776436 26.9123286184913,70.3949433782982 26.93833842172171,70.1112200818825 26.999027962621767,69.75110832697828 27.033707700262312,69.40190753553179 27.09439724116237,69.08544303056988 27.120407044392778,68.83445306989597 27.16375671644346,68.58346233905468 27.233116191724548,68.50707370290183 27.250456060573924,68.29973275946395 27.198436454084003,68.21243115234392 27.27646586377523,68.03782765863434 27.337155404675286,67.81957276734465 27.406514879956376,67.53584053802479 27.458534486446297,67.2630201586071 27.562573699397035,66.91380874520837 27.631933174678124,66.63007337397721 27.718632518779486,66.34633701852727 27.87469133819104,66.26994629311957 28.065429895214038,66.35724997348734 28.299518124375027,66.33542406213382 28.550946222327184,66.17172954134003 28.654985435219714,65.95346967069781 28.80237432019203,65.64790487338178 28.95843313963269,65.34233893449709 29.13183182789362,65.03677185405104 29.287890647276072,64.77485630511364 29.43527953227749,64.50202671642182 29.591338351689046,64.21828297878528 29.73005730228033,63.92362497861177 29.929465793742565,63.552572653541574 30.146214154025074,63.18151864512765 30.37163244871772,62.77772266441025 30.57104094020906,62.4394055781886 30.744439628440887,62.14474116924248 30.926508251111954,61.85007569870504 31.10857687369571,61.588149944764154 31.229955955495825,61.38079146131349 31.420694512547925,61.08612323835405 31.628772938420298,60.76962655706302 31.706802348111523,60.47495613211504 31.836851364321774,60.169370866286044 32.05359972460428,59.885612097074045 32.32236769134761,59.68916314165108 32.54778598604025,59.4381443452221 32.68650493660243,59.198038688569795 32.833893821632955,59.023415950054186 32.92059316576342,58.87062074800633 33.02463237871416,58.630513425137906 33.102661788405385,58.42314744261239 33.258720607787836,58.30309321241657 33.42344936160953,58.270351119055704 33.5361585089704,58.248523049551295 33.674877459561685,58.117554510019545 33.80492647574283,57.953843540672096 33.99566503279493,57.75738994486164 34.186403589876136,57.48453694555792 34.35113234366872,57.29899638605275 34.273102933948394,56.982485048232775 34.28177286835853,56.73145794377342 34.37714214689913,56.469515795812185 34.59389050718164,56.229401423166564 34.77595912985271,56.00020068245067 34.89733821162372,55.70551307193091 35.027387227804866,55.41082439945603 35.25280552246841,55.13796357072715 35.504233620420564,54.90875977092219 35.67763230862329,54.65772630072024 35.807681324804435,54.36303385238716 35.937730341014685,54.057425747203524 36.11112902924651,53.784560402462375 36.41457673363038,53.697243299830006 36.622655159502756,53.56626747108385 36.752704175713006,53.24974168550398 36.83073358540423,52.9659589050716 36.89142312630429,52.64943079579825 36.96078260158538,52.33290146123909 37.04748194568674,51.97271141771489 37.1341812897881,51.699839116343355 37.1341812897881,51.59068994088011 37.22088063391857,51.27415650794137 37.26423030596925,50.93579182812391 37.35959958448075,50.5755956303401 37.45496886305045,50.16082228550658 37.51565840392141,49.83336815869552 37.585017879202496,49.46225189629331 37.6803871577431,49.12387971845601 37.74974663302419,48.7855061402588 37.81910610830528,48.40346977223089 37.8711257148243,48.07600860747334 37.97516492771683,47.70488436859887 38.03585446861689,47.355589428516396 38.122553812747356,47.017208532313816 38.18324335361831,46.68974181544763 38.2526028288994,46.373189409132465 38.313292369799456,46.067551440093666 38.36531197628938,45.936563389303046 38.39999171390082,45.72916521305888 38.460681254800875,45.37986183226167 38.530040730081964,45.03055695912917 38.608070139802294,44.692166440116125 38.68609954952262,44.310110945036286 38.71210935272393,44.2009519042258 38.7294492215442,44.00446526346059 38.79013876238605,43.72065039315203 38.86816817210638,43.33859035804926 38.92885771303554,43.011108906866866 39.006887122726766,42.639961676395615 39.05890672918758,42.476219715565094 39.1109263356484,42.30156126251677 39.136936138849705,42.1814833595854 39.188955745339626,42.07232147658215 39.154276007728186,41.88674594101758 39.16294594213832,41.67933749096119 39.188955745339626,41.39551454871253 39.249645286239684,41.13352326592576 39.31033482711064,40.94794559929869 39.449053777731024,40.904280204718816 39.752501482114894,41.00252730966167 40.029939383268356,41.11169062113186 40.31604721889016,41.18810485241556 40.4200864318118,41.07894164300524 40.45476616945234,40.87153114353714 40.43742630066117,40.56587260618835 40.45476616945234,40.24929648771649 40.47210603830172,39.86722022933827 40.515455710323295,39.48514218525088 40.54146551361191,39.20131162503094 40.42875636622193,39.015729572070995 40.15131846503937,39.0812291682887 39.847870760655496,39.12489553660998 39.62245246593375,39.17947846418974 39.657132203603396,38.86289697683969 39.70915181003511,38.53539759630803 39.7785112853162,38.20789690371021 39.830530891835224,37.880394899060775 39.93457010475686,37.52014117849467 39.99525964562781,37.17080272112071 40.038609317707596,36.908797898366174 40.08195898975828,36.59220761714096 40.12530866180896,36.33020093983214 40.116638727427926,36.17736332361528 40.142648530658334,36.09002741462609 40.29870735001168,35.969940387389215 40.47210603830172,35.88260425676708 40.37673675973201,35.707931715594896 40.281367481220514,35.57692706477246 40.30737728445092,35.402253870379354 40.35939689094084,35.34766842061799 40.55013544796384,35.39133678335929 40.71486420184374,35.36950260492449 40.879592955636326,35.413170955980604 41.018311906198505,35.34766842061799 41.19171059443033,35.31491713325522 41.29574980738107,35.17299473633466 41.33042954505072,34.769060411861574 41.356439348252025,34.38695853797981 41.408458954741945,34.048523958081205 41.42579882356222,33.78650912735611 41.42579882356222,33.6227494316845 41.45180862682173,33.415320012849406 41.41712888915208,33.27339431770088 41.20038052886957,33.22972482345358 40.974962234147824,33.19697268746677 40.83624328355654,33.12055098579731 40.610824988893,33.06596401225397 40.333387087710435,33.011377002294466 40.01259951447719,32.94587254219368 39.70048187565408,32.869450605758175 39.414374040061375,32.793028597850935 39.05890672918758,32.738441405621415 38.79013876238605,32.61834945434384 38.6340799430327,32.57467961013754 38.373981910641305,32.57467961013754 38.0618642718473,32.55284467928141 37.775756436254596,32.54192721167783 37.44629892864032,32.52009227206872 37.1341812897881,32.47642237536638 36.839403519785265,32.44366993753647 36.561965618660906,32.42183497168298 36.47526627450134,32.39999999999418 36.41457673363038,32.53100974261906 36.345217258349294,32.749358846995165 36.30186758626951,32.96770736807957 36.25851791424793,33.164220538346854 36.241178045398556,33.39348530655843 36.20649830775801,33.58999745316396 36.11112902924651,33.77559182456025 36.02442968508694,33.91751664773619 35.94640027542482,34.13586204832245 35.90305060334504,34.277786245969764 35.83369112806395,34.46337905564724 35.73832184955245,34.62713706721115 35.66029243983212,34.82364624801994 35.56492316129152,34.99832067880925 35.49556368603953,35.16207761869737 35.36551466982928,35.36950260492449 35.29615519454819,35.653346469924145 35.166106178367045,35.926272333745146 35.036057162156794,36.253782167441386 34.87999834277434,36.58129068900598 34.73260945780203,36.886964125253144 34.60256044162088,37.17080272112071 34.472511425439734,37.46555714296119 34.30778267161804,37.78214404182654 34.16039378664573,38.06597952944139 34.03901470487472,38.349814031600545 33.91763562313281,38.58998091750982 33.86561601664289,38.69914745056303 33.81359641015297,38.77556393699342 33.7008872628212,38.86289697683969 33.674877459561685,39.12489553660998 33.57950818102108,39.43055946172535 33.39743955837912,39.71438922599191 33.319410148717,39.91088617782225 33.258720607787836,40.06371681384189 33.414779427228495,40.15104847754992 33.7008872628212,40.15104847754992 34.02167483602534,40.19471427441022 34.35980227807886,40.23838004795107 34.68058985134121,40.28204579822341 35.00137742457446,40.32571152510354 35.313495063368464,40.36937722868606 35.59960289893206,40.41304290892731 35.82502119365381,40.41304290892731 35.937730341014685,40.27112936283811 35.981080013065366,40.06371681384189 36.007089816295775,39.85630373857566 36.04176955396542,39.84538724637969 36.19782837331877,39.93271914332581 36.20649830775801,40.161964928942325 36.12846889803768,40.54403980977804 36.05910942275659,40.89336385241768 35.9897499474755,41.264519012285746 35.92039047219441,41.613839976344025 35.84236106250319,41.99590807178174 35.773001587192994,42.312477426748956 35.72965191511321,42.596297185598814 35.64295257098274,42.93469637951057 35.66029243983212,43.2294300200665 35.59093296455103,43.53507859911042 35.40886434187996,43.75339831310703 35.33083493215963,44.05904493327398 35.244135588087374,44.37560629953805 35.244135588087374,44.64850304531137 35.23546565367724,44.86681978609704 35.400194407469826,45.07422014988697 35.313495063368464,45.41260908761615 35.27014539131778,45.78374373149563 35.166106178367045,46.20945492493047 35.10541663749609,46.536923565399775 35.044727096596034,46.90805310571159 35.036057162156794,47.24643445372203 35.018717293365626,47.57389894093649 35.018717293365626,47.923192948401265 35.01004735895549,48.261570095215575 34.99270749013522,48.610861164961534 34.975367621314945,48.960150742575934 34.949357818084536,49.27669313345541 34.91467808041489,49.58231910669565 34.85398853957304,49.931604534445796 34.784629064262845,50.30271866655676 34.7499493266223,50.597425748070236 34.784629064262845,50.93579182812391 34.72393952336279,51.27415650794137 34.62857024485129,51.634349628540804 34.42916175338905,51.918137030283106 34.22108332748758,52.13643436149869 33.952315360773355,52.343816286280344 33.744236934842775,52.54028288779227 33.47546896809945,52.76949332628283 33.31074021427776,52.9659589050716 33.215370935737155,53.12967986012518 33.09399185399525,53.26065638815635 32.97261277222424,53.446206110435014 32.885913428122876,53.72998722422926 32.75586441197083,54.04651115091838 32.5824657236808,54.3739484064572 32.40906703544897,54.67955532872293 32.27901801929693,54.90875977092219 32.20965854401584,55.181621364477905 32.26167815041845,55.39990998379653 32.40906703544897,55.574540459754644 32.305027822527336,55.869228542207566 32.287687953707064,56.04385801593162 32.287687953707064,56.032943684731435 32.16630887193605,56.076601000735536 31.966900380444713,56.3494586976376 31.802171626652125,56.622315484069986 31.576753331930377,56.86242870312708 31.368674906058004,57.10254121715843 31.273305627546506,57.34265302614949 31.16059648018563,57.6591629699833 31.021877529623453,57.85561680175306 30.848478841391625,57.85561680175306 30.605720677849604,57.85561680175306 30.328282776696142,57.80104634027521 30.024835072254064,57.77921814547881 29.721387367870193,57.77921814547881 29.53931874522823,57.79013224359369 29.383259925816674,57.83378862152313 29.331240319326753,57.899273144728795 29.235871040815255,58.106640455604065 29.114491959044244,58.32492126740544 29.071142287022667,58.64142740963143 28.96710307407193,58.85970679406455 28.8890736643516,59.0561577419212 28.81971418907051,59.13255520531675 28.637645566399442,59.30717771081254 28.403557337325765,59.54728304702439 28.299518124375027,59.743732343267766 28.403557337325765,59.94018116760708 28.464246878167614,60.01657780519599 28.481586746987887,60.223939747513214 28.559616156708216,60.47495613211504 28.533606353477808,60.61683461737266 28.420897206116933,60.43130116407701 28.256168452324346,60.649575771378295 28.100109632883687,60.91150453117734 27.952720747882267,61.14069150789874 27.770652125269407,61.39170507882227" stroke="#4DD2FF" stroke-dasharray="none" stroke-linecap="round" stroke-linejoin="round" stroke-width="0.5"><title>2017-12-17 14.0km</title><desc>9223370523376934807</desc></polyline><polyline fill="none" opacity="1" points="100.66910517559154,32.40000000000873 100.66910517559154,32.72320390670211 100.66910517559154,32.995374982536305 100.65558789932402,33.35259863831743 100.62855334673077,33.70982129385811 100.52041513653239,34.0330218822055 100.62855334673077,34.18611661196337 100.68262245185906,34.934577090563835 100.6420706230565,35.20674344863801 100.81779521465069,35.51292990743241 100.87186431966256,35.802105332695646 100.92593342484906,36.108290362593834 100.93945070105838,36.51653592614457 100.96648525365163,36.873749722581124 101.02055435872171,37.16292206343496 101.07462346385,37.48611390392762 101.16924439783907,37.77528485674702 101.18276167399017,38.08146515126282 101.2503480555024,38.421664616675116 101.35848626564257,38.676813620346365 101.53421085717855,38.72784335989854 101.64234906737693,38.897942344192415 101.58827996230684,39.03402136838122 101.38552081817761,39.13608054124052 101.38552081817761,39.37421829382947 101.4936590284342,39.629365392625914 101.62883179116761,39.96956073062029 101.73697000136599,40.27573575921997 101.8045563827036,40.56490038940683 101.95324642176274,40.871073989372235 102.1154537370312,41.16023727027641 102.26414377603214,41.43239034773433 102.22359194728779,41.721552356437314 101.92621186916949,41.73856186599005 101.66938361997018,41.55145713656384 101.48014175210847,41.41538079736347 101.27738260797923,41.36435213279037 101.06110618758248,41.43239034773433 100.79076066199923,41.449399895820534 100.66910517559154,41.60248572634009 100.68262245185906,41.85762836909271 100.62855334673077,42.09576104200096 100.34469054499641,42.197817765772925 100.07434501947137,42.316883840292576 99.79048221762059,42.333893270479166 99.56068852101453,42.316883840292576 99.60124034981709,42.04473264950502 99.68234400748042,41.73856186599005 99.77696494141128,41.449399895820534 99.85806859907461,41.0921989101771 99.92565498047043,40.71798728121212 99.9121377041447,40.36078424791049 99.85806859907461,40.02058995308471 99.81751677021384,39.697404532766086 99.52013669215376,39.629365392625914 99.24979116668692,39.595345808935235 99.12813568022102,39.42524775439233 99.1146184039535,39.25514947310148 99.10110112762777,39.01701149826113 99.04703202255769,38.84691267272865 98.8713074309635,38.81289288037806 98.68206556310179,38.77887307900528 98.51985824777512,38.81289288037806 98.51985824777512,39.03402136838122 98.53337552410085,39.30617898130731 98.56041007663589,39.66338496725075 98.56041007663589,39.952550985253765 98.58744462922914,40.27573575921997 98.60096190543845,40.61592937374371 98.58744462922914,40.93911246737116 98.58744462922914,41.245285169337876 98.60096190543845,41.56846666878846 98.58744462922914,41.84061887547432 98.60096190543845,42.180808317498304 98.61447918176418,42.418940387200564 98.6279964580317,42.65707201247278 98.61447918176418,42.86118448038178 98.60096190543845,43.13333392972709 98.57392735290341,43.388473511251505 98.54689280036837,43.55856628213951 98.51985824777512,43.79669578046014 98.5063409715658,44.03482483433618 98.49282369524008,44.27295344385493 98.49282369524008,44.47706332679081 98.49282369524008,44.78322753898101 98.5063409715658,45.08939101661963 98.49282369524008,45.446580811956665 98.49282369524008,45.769751669984544 98.49282369524008,46.05890384913073 98.5063409715658,46.331046477978816 98.51985824777512,46.688232797474484 98.51985824777512,47.0454181170644 98.51985824777512,47.26653233765683 98.5063409715658,47.572689856708166 98.5063409715658,47.7597857567016 98.46578914270503,48.03192475790274 98.49282369524008,48.27004590781871 98.51985824777512,48.52517521820846 98.56041007663589,48.831329717315384 98.61447918176418,49.12047495867591 98.64151373424102,49.47765346986125 98.70910011569504,49.85183940916613 98.80372104956768,50.22602425132936 98.91185925976606,50.51516633230494 99.01999747002264,50.787299457137124 99.12813568022102,51.11045678895607 99.2362738904194,51.3995968659583 99.33089482429205,51.56967895809794 99.39848120568786,51.77377716943738 99.50661941594444,51.97787505436281 99.61475762608461,52.19898072797514 99.65530945494538,52.437094101827824 99.68234400748042,52.59016675037856 99.84455132280709,52.726231172826374 99.93917225673795,52.86229545008973 100.06082774314564,53.04938359442167 100.18248322966974,53.219463487694156 100.29062143986812,53.440567010009545 100.42579420265974,53.62765430659056 100.60151879419573,53.81474132886797 100.79076066199923,54.052851687782095 100.98000252986094,54.32497726829024 101.14220984518761,54.56308667517442 101.2638653316535,54.76718009886099 101.31793443684,54.90324220001639 101.4936590284342,55.19237368319591 101.66938361997018,55.41347378716455 101.83159093529684,55.66858881575172 101.9937982505653,55.957718564910465 102.14248828956624,56.19582492527843 102.29117832862539,56.4509383898403 102.45338564389385,56.72305885657261 102.62911023554625,57.012186216699774 102.80483482708223,57.31832035453408 102.99407669488573,57.607446366062504 103.16980128653813,57.87956436666718 103.35904315439984,58.151681787116104 103.54828502226155,58.47482047021913 103.75104416639078,58.797958335097064 103.92676875792677,59.07007379726565 104.10249334957916,59.35919584002113 104.2511833885219,59.63131010548386 104.39987342758104,59.86940961179789 104.54856346658198,60.09050161275081 104.71077078190865,60.36261431883031 104.88649537344463,60.63472644479771 105.02166813629447,60.855817119881976 105.19739272783045,61.093914341690834 105.38663459563395,61.3660249083041 105.54884191096062,61.65514174969576 105.69753194996156,61.876230657071574 105.85973926528823,62.18235312728211 106.03546385688242,62.50548160476319 106.22470572474413,62.8286092641647 106.40043031633832,63.117722792274435 106.5761549078743,63.40683566540247 106.80594860453857,63.72996104271442 106.96815591986524,64.00206598908699 107.10332868265687,64.24015734123532 107.27905327419285,64.49525472569803 107.45477786578704,64.80137091396318 107.63050245738123,65.14149915096641 107.80622704897542,65.46462013648124 107.9278825353831,65.70270876024733 108.09008985070977,66.04283459520957 108.21174533723388,66.3489470716595 108.31988354743225,66.70607736631064 108.37395265256055,66.92715752410004 108.37395265256055,67.09721892334346 108.23877988976892,67.28428620081104 108.25229716597823,67.25027398893144 108.37395265256055,67.19925565415178 108.50912541523576,67.33530450161197 108.59022907289909,67.55638356949203 108.68485000682995,67.82848035807547 108.79298821708653,68.13458855188219 108.91464370349422,68.47470790620719 109.03629919001833,68.81482635416614 109.15795467642602,69.17194974907034 109.21202378161252,69.34200815738586 109.33367926807841,69.66511850891402 109.45533475454431,69.9712222978851 109.56347296474269,70.20930251519894 109.65809389861533,70.498399324817 109.73919755627867,70.75348420134105 109.79326666146517,70.99156295946159 109.88788759533782,71.28065799735487 109.99602580553619,71.5697523803974 110.10416401573457,71.89285709256364 110.1852676733979,72.14793918229407 110.29340588365449,72.47104243078502 110.38802681746893,72.72612336506427 110.49616502778372,73.01521447431878 110.61782051424962,73.28729962614307 110.71244144812226,73.57638946438965 110.84761421085568,73.89948909703526 110.94223514484474,74.15456717673806 111.06389063131064,74.44365505082533 111.14499428891577,74.64771668538742 111.23961522284662,74.90279326988093 111.36127070937073,75.07284404303937 111.40182253817329,75.19187944941223 111.38830526184756,75.41294490965083 111.33423615683569,75.60000000000582 111.14499428891577,75.49796998467355 110.95575242111227,75.24289458955172 110.76651055325055,74.97081360631273 110.5502341327956,74.69873204304895 110.27988860738697,74.37563443348336 109.99602580553619,74.10355160159816 109.7527148326044,73.88248387361818 109.5094038596144,73.62740525025583 109.27961016295012,73.40633669766248 109.0227819137508,73.1002411465306 108.7794709407608,72.89617703802651 108.53615996782901,72.65810183237772 108.26581444230396,72.36900991434231 108.02250346937217,72.13093372547883 107.76567522005644,71.89285709256364 107.46829514205456,71.62076896830695 107.21146689285524,71.41670249446179 106.88705226226011,71.22964127351588 106.58967218420003,71.12760776474897 106.25174027727917,71.0425797784701 105.92732564668404,71.00856856806786 105.57587646349566,70.92354050248105 105.23794455663301,70.83851238021452 104.95408175484044,70.78749547970074 104.62966712424532,70.70246726681944 104.31876976991771,70.70246726681944 103.94028603419429,70.60043333659996 103.57531957473839,70.498399324817 103.45366408827249,70.46438796946313 103.25090494420147,70.41337091937021 103.07518035254907,70.39636523151421 102.85890393215232,70.36235384891916 102.6696620642906,70.32834245727281 102.4804201964871,70.31133675802266 102.30469560489291,70.2603196468117 102.07490190822864,70.20930251519894 101.84510821150616,70.17529108274903 101.68290089617949,70.10726819072443 101.4936590284342,70.05625099792087 101.20979622658342,69.93721080201794 100.85834704339504,69.80116472797818 100.50689786032308,69.66511850891402 100.19600050593726,69.56308374942455 99.89862042787718,69.47805472089385 99.57420579728205,69.39302563566889 99.2362738904194,69.29099065864284 98.88482470723102,69.18895560012606 98.5063409715658,69.10392632235016 98.1413745120517,68.95087347959634 97.87102898658486,68.89985582456575 97.49254525086144,68.79782045331376 97.19516517285956,68.64476724348788 96.92481964733452,68.55973760319466 96.66799139801878,68.47470790620719 96.3706113200169,68.37267219505156 96.04619668942178,68.23662445336231 95.70826478250092,68.04955857171444 95.39736742817331,67.82848035807547 95.08647007390391,67.64141387821292 94.81612454837887,67.3523105973145 94.61336540424963,67.046200527373 94.4646753652487,66.79110824152303 94.38357170758536,66.53601544589037 94.27543349732878,66.36595329885313 94.11322618206032,66.11085965341772 94.01860524812946,65.94079693991807 93.88343248533783,65.66869612691517 93.70770789374365,65.36258201891906 93.53198330220766,65.02245437112288 93.38329326320672,64.64831291160954 93.18053411907749,64.25716384942643 92.97777497489005,63.84900702814048 92.78853310708655,63.474862128612585 92.6398430680274,63.202756058235536 92.49115302902646,62.8286092641647 92.30191116116475,62.43745462487277 92.12618656962877,62.04629878670676 91.92342742549954,61.638134894819814 91.72066828137031,61.229969697553315 91.54494368971791,60.83881015848601 91.34218454558868,60.464656434065546 91.15294267778518,60.07349454933137 90.99073536245851,59.699338581151096 90.81501077086432,59.3251815160329 90.65280345559586,58.98503777766018 90.50411341653671,58.64489313267404 90.32838882494252,58.33876217703801 90.23376789106987,58.04963782246341 90.1256296808715,57.72649806275149 90.00397419434739,57.36934263947478 89.92287053674227,56.978171267095604 89.84176687902072,56.58699869571137 89.80121505027637,56.29787037227652 89.74714594514808,55.872680471409694 89.69307684001978,55.46449683372339 89.66604228748474,55.107335079679615 89.62549045862397,54.6821412119898 89.57142135355389,54.37600075000955 89.57142135355389,54.052851687782095 89.55790407728637,53.66167014921666 89.53086952475132,53.338519278069725 89.55790407728637,52.98135157370416 89.57142135355389,52.53914255462587 89.55790407728637,52.19898072797514 89.53086952475132,51.84180983401893 89.43624859076226,51.501646148448344 89.36866220942466,51.05943200155161 89.38217948569218,50.719266230313224 89.35514493309893,50.32807447234518 89.31459310435457,50.004915159064694 89.2740412754356,49.69876347575337 89.21997217042372,49.32457708747825 89.28755855176132,48.93338105380826 89.35514493309893,48.52517521820846 89.35514493309893,48.20201133892988 89.35514493309893,47.980898739391705 89.3956967620179,47.81081186363008 89.36866220942466,47.572689856708166 89.31459310435457,47.26653233765683 89.30107582802884,46.96037408403936 89.26052399922628,46.62019738511299 89.23348944669124,46.263010875176406 89.21997217042372,45.973859158562846 89.13886851276038,45.5826528519101 89.11183396016713,45.1914453459176 89.08479940763209,44.78322753898101 89.05776485509705,44.443045035601244 89.01721302623628,44.119870817361516 88.97666119743371,43.728658826323226 88.94962664489867,43.575575546739856 88.96314392116619,43.2183805135719 88.97666119743371,42.86118448038178 88.94962664489867,42.52099685242865 88.92259209230542,42.248846097063506 88.88204026350286,41.8916473495774 88.82797115843277,41.53444760214188 88.82797115843277,41.17724685461144 88.85500571096782,40.871073989372235 88.85500571096782,40.49686171184294 88.77390205324627,40.088628884623176 88.76038477703696,39.782453406980494 88.73335022450192,39.44225757007371 88.77390205324627,39.22112978962832 88.77390205324627,39.08505096506269 88.74686750076944,38.82990277771023 88.73335022450192,38.557744148827624 88.7198329482344,38.251564997350215 88.63872929057106,37.928375095827505 88.58466018544277,37.53714411970577" stroke="#4DD2FF" stroke-dasharray="none" stroke-linecap="round" stroke-linejoin="round" stroke-width="0.5"><title>2017-11-19 11.8km</title><desc>9223370525802103807</desc></polyline><polyline fill="none" opacity="0.5" points="179.89265367295593,68.36059843102703 178.8563718139194,68.28380553139141 178.01439280365594,68.20701262308285 176.97811094438657,67.89984090422513 176.13613193389028,68.05342678079614 175.22938530729152,67.9766338467598 174.193103448255,68.05342678079614 173.2863568214234,67.82304795313394 172.31484257872216,67.9766338467598 171.2785607194528,68.13021970610134 170.17751124408096,67.74625499366084 169.2707646174822,67.59266904887045 168.49355322308838,67.43908306991216 167.58680659672245,67.43908306991216 166.74482758622617,67.13191100978293 165.77331334305927,67.13191100978293 164.8665667164605,66.97832492820453 164.0893553220667,67.20870403753361 162.7292353825178,66.59435957530513 161.62818590691313,66.44077337440103 160.5919040478766,66.36398026125971 159.4260869564023,66.44077337440103 158.9727136429865,66.51756647921866 157.7421289354097,66.82473881257465 156.1877061468549,66.13360087026376 155.08665667148307,65.2120825376478 154.115142428549,65.442462235922 153.01409295317717,65.05849602952367 152.04257871070877,64.90490948682418 151.26536731631495,65.05849602952367 150.48815592192113,64.82811620290158 149.71094452752732,64.52094298135489 148.73943028482608,64.59773629967822 147.8974512743298,64.98170276248129 146.47256371797994,64.52094298135489 145.69535232381895,64.06018289312487 145.30674662650563,63.21545526589034 144.7886056972202,62.37072660564445 144.7238380808849,61.14202852855669 144.85337331332266,60.06691591773415 144.85337331332266,58.83821374189574 144.7238380808849,57.76309754513204 144.7238380808849,56.30400860105874 144.5295352321118,55.53606581338681 144.39999999990687,54.384150030848105 144.6590704645496,53.30902690056246 144.6590704645496,52.387491456756834 144.91814092942514,51.619544314278755 144.7238380808849,50.62121175247012 145.04767616163008,49.546082764456514 144.98290854576044,48.39415699150413 145.17721139430068,47.70300060528098 145.24197901040316,46.32068575825542 145.17721139430068,45.09195912681753 145.24197901040316,44.01682153122965 145.30674662650563,43.17206938914023 145.5010494752787,42.17372461629566 145.69535232381895,41.09858247777447 145.5010494752787,40.023438665259164 145.5010494752787,39.255477774422616 145.3715142426081,38.333923578378744 145.5010494752787,39.255477774422616 145.5010494752787,40.023438665259164 145.69535232381895,41.09858247777447 145.5010494752787,42.17372461629566 145.30674662650563,43.17206938914023 145.24197901040316,44.01682153122965 145.17721139430068,45.09195912681753 145.24197901040316,46.32068575825542 145.17721139430068,47.70300060528098 144.98290854576044,48.39415699150413 145.04767616163008,49.546082764456514 144.7238380808849,50.62121175247012 144.91814092942514,51.619544314278755 144.6590704645496,52.387491456756834 144.6590704645496,53.30902690056246 144.39999999990687,54.384150030848105 144.5295352321118,55.53606581338681 144.7238380808849,56.30400860105874 144.7238380808849,57.76309754513204 144.85337331332266,58.83821374189574 144.85337331332266,60.06691591773415 144.7238380808849,61.14202852855669 144.7886056972202,62.37072660564445 145.30674662650563,63.21545526589034 145.69535232381895,64.06018289312487 146.47256371797994,64.52094298135489 147.8974512743298,64.98170276248129 148.73943028482608,64.59773629967822 149.71094452752732,64.52094298135489 150.48815592192113,64.82811620290158 151.26536731631495,65.05849602952367 152.04257871070877,64.90490948682418 153.01409295317717,65.05849602952367 154.115142428549,65.442462235922 155.08665667148307,65.2120825376478 156.1877061468549,66.13360087026376 157.7421289354097,66.82473881257465 158.9727136429865,66.51756647921866 159.4260869564023,66.44077337440103 160.5919040478766,66.36398026125971 161.62818590691313,66.44077337440103 162.7292353825178,66.59435957530513 164.0893553220667,67.20870403753361 164.8665667164605,66.97832492820453 165.77331334305927,67.13191100978293 166.74482758622617,67.13191100978293 167.58680659672245,67.43908306991216 168.49355322308838,67.43908306991216 169.2707646174822,67.59266904887045 170.17751124408096,67.74625499366084 171.2785607194528,68.13021970610134 172.31484257872216,67.9766338467598 173.2863568214234,67.82304795313394 174.193103448255,68.05342678079614 175.22938530729152,67.9766338467598 176.13613193389028,68.05342678079614 176.97811094438657,67.89984090422513 178.01439280365594,68.20701262308285 178.8563718139194,68.28380553139141 179.89265367295593,68.36059843102703 180.79940029978752,69.20531976572238 181.77091454295442,69.43569813208887 182.61289355321787,69.43569813208887 183.51964017981663,69.43569813208887 184.36161919031292,69.58928366703913 185.52743628178723,69.66607642162126 186.56371814082377,69.58928366703913 187.5999999998603,69.58928366703913" stroke="#4DD2FF" stroke-dasharray="1,0.5" stroke-linecap="round" stroke-linejoin="round" stroke-width="0.5"><title>2014-03-22 10.5km</title><desc>9223370641410674807</desc></polyline><polyline fill="none" opacity="1" points="55.600000000034925,100.60341917170445 55.4509659614414,100.56714338027814 55.32180312788114,100.65178687302978 55.22244710219093,100.65178687302978 55.09328426863067,100.63969494990306 54.94425023003714,100.63969494990306 54.80515179398935,100.61551109924767 54.705795768182725,100.530867575726 54.596504139888566,100.530867575726 54.4872125115362,100.530867575726 54.338178472884465,100.56714338027814 54.199080036836676,100.56714338027814 54.069917203334626,100.56714338027814 53.94075436989078,100.5550514468996 53.79172033118084,100.530867575726 53.662557497737,100.54295951207314 53.52345906168921,100.5550514468996 53.374425023037475,100.54295951207314 53.25519779213937,100.5550514468996 53.145906163787004,100.5550514468996 52.99687212513527,100.56714338027814 52.8875804967829,100.5550514468996 52.75841766333906,100.51877563795279 52.62925482983701,100.49459175796073 52.50009199639317,100.51877563795279 52.370929162891116,100.54295951207314 52.271573137142695,100.54295951207314 52.112603495887015,100.50668369869527 51.99337626498891,100.49459175796073 51.884084636636544,100.49459175796073 51.76485740573844,100.48249981580739 51.615823367086705,100.49459175796073 51.46678932843497,100.49459175796073 51.34756209759507,100.51877563795279 51.20846366148908,100.48249981580739 51.09917203313671,100.48249981580739 50.96007359708892,100.48249981580739 50.84084636619082,100.4704078721843 50.69181232759729,100.44622398049978 50.56264949403703,100.42204008297995 50.39374425023561,100.44622398049978 50.24471021164209,100.44622398049978 50.1056117755943,100.4704078721843 49.94664213433862,100.45831592708419 49.82741490344051,100.45831592708419 49.718123275088146,100.44622398049978 49.588960441586096,100.4704078721843 49.4697332107462,100.45831592708419 49.34057037718594,100.44622398049978 49.20147194119636,100.45831592708419 49.092180312785786,100.45831592708419 48.953081876738,100.45831592708419 48.823919043235946,100.49459175796073 48.70469181239605,100.48249981580739 48.58546458143974,100.49459175796073 48.44636614539195,100.48249981580739 48.30726770934416,100.48249981580739 48.18804047838785,100.48249981580739 48.04894204234006,100.48249981580739 47.9396504140459,100.48249981580739 47.82042318308959,100.48249981580739 47.70119595219148,100.48249981580739 47.55216191353975,100.45831592708419 47.4229990800377,100.42204008297995 47.293836246593855,100.44622398049978 47.15473781054607,100.43413203248929 47.00570377189433,100.42204008297995 46.87654093839228,100.43413203248929 46.74737810489023,100.43413203248929 46.61821527144639,100.4704078721843 46.48905243794434,100.45831592708419 46.34995400189655,100.44622398049978 46.21085556584876,100.43413203248929 46.08169273234671,100.43413203248929 45.95252989884466,100.40994813199359 45.79356025764719,100.42204008297995 45.68426862929482,100.39785617959569 45.535234590643086,100.40994813199359 45.38620055199135,100.40994813199359 45.25703771854751,100.43413203248929 45.10800367989577,100.39785617959569 44.95896964124404,100.36158031355444 44.80993560265051,100.36158031355444 44.670837166544516,100.33739639553096 44.54167433310067,100.32530443430005 44.402575896994676,100.33739639553096 44.303219871246256,100.33739639553096 44.16412143514026,100.36158031355444 44.044894204242155,100.39785617959569 43.92566697334405,100.42204008297995 43.77663293475052,100.42204008297995 43.64747010124847,100.42204008297995 43.51830726774642,100.39785617959569 43.39908003684832,100.39785617959569 43.28978840849595,100.42204008297995 43.13081876729848,100.40994813199359 43.011591536400374,100.39785617959569 42.882428702840116,100.42204008297995 42.75326586939627,100.39785617959569 42.62410303589422,100.3736722703834 42.475068997300696,100.3736722703834 42.35584176634438,100.36158031355444 42.23661453544628,100.34948835525574 42.077644894248806,100.31321247164306 41.948482060746755,100.36158031355444 41.78951241954928,100.33739639553096 41.66034958604723,100.32530443430005 41.54112235514913,100.33739639553096 41.39208831649739,100.33739639553096 41.252989880449604,100.32530443430005 41.123827046947554,100.32530443430005 40.96485740575008,100.33739639553096 40.855565777397715,100.34948835525574 40.70653173874598,100.3736722703834 40.597240110393614,100.30112050751632 40.44820607174188,100.30112050751632 40.32897884090198,100.30112050751632 40.189880404795986,100.28902854190528 40.0507819687482,100.30112050751632 39.93155473785009,100.32530443430005 39.792456301802304,100.28902854190528 39.66329346830025,100.30112050751632 39.524195032252464,100.27693657486088 39.385096596204676,100.27693657486088 39.26586936524836,100.26484460634674 39.156577736954205,100.21647671760002 39.027414903452154,100.21647671760002 38.898252069950104,100.2285686919713 38.74921803129837,100.25275263634103 38.620055197854526,100.24066066487285 38.500827966898214,100.28902854190528 38.371665133396164,100.28902854190528 38.21269549219869,100.28902854190528 38.08353265875485,100.30112050751632 37.9543698252528,100.26484460634674 37.83514259435469,100.26484460634674 37.72585096600233,100.27693657486088 37.58675252989633,100.26484460634674 37.4377184913028,100.27693657486088 37.30855565780075,100.24066066487285 37.14958601660328,100.2285686919713 37.05022999079665,100.24066066487285 36.91113155474886,100.24066066487285 36.6130634775036,100.25275263634103 36.32493100280408,100.2285686919713 36.15602575900266,100.16810880540288 35.768537258554716,100.27693657486088 35.44066237349762,100.25275263634103 35.20220791170141,100.18020078564587 34.983624654996675,100.18020078564587 34.72529898805078,100.13183285595005 34.53652253909968,100.14392484055134 34.248390064400155,100.14392484055134 33.980128794908524,100.27693657486088 33.72180312790442,100.20438474174443 33.413799448055215,100.34948835525574 29.608463661454152,100.13183285595005 29.360073597112205,100.04718892254459 29.131554737861734,100.09555689324043 28.793744250258896,100.13183285595005 28.51554737816332,100.04718892254459 28.197608095710166,99.99882092836197 27.959153633913957,99.96254491739091 24.720147194107994,99.99882092836197 24.43201471946668,99.97463692253223 24.104139834467787,99.95045291077986 23.86568537261337,99.98672892618197 23.6371665133629,99.91417688224465 23.319227230909746,99.8779008405254 23.021159153664485,99.926268893214 22.73302667896496,99.91417688224465 20.239190432417672,99.88999285588216 19.871573137119412,99.91417688224465 19.672861085564364,99.91417688224465 19.48408463661326,99.90208486981282 19.41453541861847,99.88999285588216 19.235694572271314,99.84162478560029 19.02704691811232,99.88999285588216 18.808463661465794,99.8779008405254 18.61968721251469,99.8053487175639 18.39116835326422,99.79325669194077 18.142778288922273,99.79325669194077 17.88445262191817,99.86580882370617 17.78509659616975,99.74488857479446 16.63256669731345,99.85371680538083 16.384176632971503,99.8053487175639 16.185464581416454,99.8053487175639 15.887396504171193,99.79325669194077 15.609199632017408,99.81744074170274 15.350873965071514,99.81744074170274 15.062741490371991,99.82953276438639 14.814351425971836,99.75698060626019 14.56596136157168,99.79325669194077 14.33744250232121,99.75698060626019 14.009567617322318,99.76907263629255 13.820791168371215,99.72070450745377 13.463109475618694,99.78116466481879 13.115363385470118,99.73279654188082 12.996136154630221,99.8053487175639 13.055749770021066,100.07137291080289 13.045814167475328,100.24066066487285 13.085556577774696,100.51877563795279 12.926586936519016,100.60341917170445 12.866973321128171,100.39785617959569 12.777552897925489,100.24066066487285 12.60864765412407,100.30112050751632 12.47948482062202,100.54295951207314 12.400000000023283,100.6759707149613 12.429806807776913,100.99036012673605 12.47948482062202,101.28056485929119 12.53909843612928,101.5586769367219 12.598712051578332,101.86097179476201 12.648390064423438,102.15117399775772 12.717939282476436,102.36882509665884 12.73781048762612,102.57438403234119 12.757681692775805,102.804125871633 12.787488500471227,103.10641696037055 12.837166513316333,103.34824917260266 12.84710211592028,103.6142639298123 12.837166513316333,103.9044610388446 12.896780128823593,104.18256581047171" stroke="#4DD2FF" stroke-dasharray="none" stroke-linecap="round" stroke-linejoin="round" stroke-width="0.5"><title>2013-12-10 10.9km</title><desc>9223370650177580807</desc></polyline><polyline fill="none" opacity="1" points="89.20184918679297,118.34598722797818 91.60143825691193,121.84866367932409 94.48094513919204,123.01622136775404 98.32028765138239,123.60000000009313 101.91967125423253,122.43244259478524 103.8393425103277,119.80543636670336 106.47889048792422,117.47031732159667 108.15860283561051,113.38385355728678 108.15860283561051,110.17305574938655 109.35839737113565,106.08657963620499 109.83831518515944,102.87577212415636 110.55819190572947,99.08117592497729 111.51802753377706,94.70278828428127 111.51802753377706,92.07575188926421 111.27806862723082,87.69735154649243 110.07827409170568,84.19462555623613 108.6385206496343,81.85947207268327 105.27909595239908,80.98378893476911 102.87950688321143,80.4000000001397 99.04016437195241,80.6918944849167 95.92069858126342,82.44326065597124 92.80123279150575,85.36220145085827 90.40164372138679,88.57303225062788 90.16168481484056,92.36764496355318 89.68176699988544,95.87035909830593 89.20184918679297,99.37306815129705 88.48197246622294,102.58388032088988" stroke="#4DD2FF" stroke-dasharray="none" stroke-linecap="round" stroke-linejoin="round" stroke-width="0.5"><title>2013-11-30 10.3km</title><desc>9223370651086224807</desc></polyline><polyline fill="none" opacity="1" points="156.83876465633512,119.47264688764699 158.874594733119,122.22421646025032 162.26764486078173,122.22421646025032 166.11310167238116,123.60000000009313 167.01791503932327,121.6739028126467 170.63716850895435,119.74780399515294 174.25642197672278,115.89560147118755 175.16123534552753,114.51981327589601 176.97086207941175,112.04339242749847 176.29225205350667,106.8153840135783 175.61364202853292,105.71474913298152 175.83984537050128,101.86252286075614 177.1970654213801,96.90965093066916 177.1970654213801,95.80901126144454 175.61364202853292,92.78224942437373 177.87567544635385,90.30580492829904 176.29225205350667,89.20516206463799 174.7088286606595,86.72871367656626 172.67299858573824,83.7019397658296 170.86337184999138,83.15161680453457 167.92272840626538,80.4000000001397 163.3986615696922,82.6012937091291 160.23181478399783,85.90323028201237 157.29117134027183,88.93000126630068 156.16015463043004,90.85612616012804 155.933951289393,95.25869122636504 157.5173746822402,99.38608824228868 155.70774794742465,102.96315960329957 154.80293457955122,105.43959032977 155.4815446054563,107.64085982413962 154.57673123851418,110.6676019039005 154.80293457955122,113.69433995871805 154.80293457955122,117.27138883504085 156.83876465633512,118.64717536675744 159.55320475902408,120.57327511627227 162.9462548866868,121.94905965286307 165.88689832948148,122.77452997583896 169.05374511517584,122.22421646025032 171.7681852169335,120.02296106843278 174.25642197672278,117.27138883504085 175.83984537050128,113.41918211965822 176.06604871153831,110.3924436995294 176.29225205350667,107.36570125445724 176.29225205350667,104.06379581429064 175.61364202853292,100.76188558526337 176.29225205350667,97.45997056690976 176.51845539640635,94.70837105903774 177.42326876241714,91.40644725854509 176.97086207941175,88.37967956834473 175.61364202853292,85.62806908367202 173.80401529371738,83.7019397658296 171.7681852169335,82.87645527347922 168.60133843217045,82.05097048147582 165.88689832948148,82.05097048147582 162.72005154378712,83.7019397658296 160.9104248099029,84.25226259441115 158.874594733119,86.45355257811025 157.29117134027183,88.37967956834473 157.06496799830347,91.40644725854509 156.16015463043004,95.25869122636504 156.61256131436676,98.28544977051206 155.933951289393,102.13768209633417 155.933951289393,104.06379581429064 155.4815446054563,108.46633533574641 154.12432455457747,112.31855043233372 154.57673123851418,116.17075901036151 155.933951289393,118.09686085442081 159.77940810006112,119.19748974777758 162.9462548866868,121.3987459379714 166.11310167238116,121.3987459379714 169.50615179911256,119.74780399515294 171.7681852169335,118.09686085442081 173.57781195174903,115.07012865296565 175.16123534552753,111.21791821252555 174.93503200262785,107.64085982413962 175.61364202853292,104.33895478351042 175.61364202853292,100.76188558526337 176.29225205350667,97.45997056690976" stroke="#4DD2FF" stroke-dasharray="none" stroke-linecap="round" stroke-linejoin="round" stroke-width="0.5"><title>2013-11-16 10.4km</title><desc>9223370652294258807</desc></polyline><polyline fill="none" opacity="1" points="23.053926666267216,166.5699022328481 24.51340311113745,168.64112021238543 28.648586370050907,170.71233643963933 33.51350785139948,171.60000000009313 37.89193718507886,171.30411218269728 38.86492148041725,169.52878452418372 41.5406282953918,167.1616789775435 41.78387437015772,163.01923876185901 41.78387437015772,160.35623777890578 42.75685866642743,155.32611690624617 44.70282725896686,150.29598569567315 44.94607333280146,146.1535169382114 45.43256548047066,142.89871513913386 45.18931940663606,138.75623386260122 45.43256548047066,135.7973143735435 44.21633510943502,132.5424988034647 40.081151850521564,129.879464663798 36.43246074113995,128.99178597261198 32.78376962989569,128.99178597261198 28.891832443885505,130.4712502779439 26.21612562984228,132.24660626379773 24.999895258806646,136.38909855671227 23.297172740101814,141.12336687929928 23.297172740101814,144.08227993012406 23.053926666267216,146.74529861821793 22.324188444763422,150.88776637450792 22.567434517666698,154.73433729959652 22.324188444763422,157.69323389837518 22.567434517666698,162.72334990650415 23.540418813936412,165.09045974630862 25.972879556007683,167.1616789775435 30.594554962590337,171.00822432967834 34.486492147669196,171.00822432967834 38.135183257982135,169.82467255694792 40.324397925287485,168.64112021238543 43.00010474026203,165.38634831481613 43.729842961765826,162.72334990650415 43.48659688793123,158.58090218016878 43.973089036531746,153.8466676226817 44.94607333280146,150.88776637450792 45.675811554305255,147.33708015549928 45.675811554305255,143.7863887862768 45.919057629071176,139.64390901243314 45.43256548047066,135.7973143735435 43.24335081502795,132.5424988034647 40.567644000053406,130.4712502779439 36.43246074113995,128.4000000001397 32.78376962989569,128.99178597261198 29.378324592486024,130.4712502779439 26.21612562984228,131.95071368920617 23.540418813936412,134.90963782859035 22.810680591501296,140.23569226590917 23.053926666267216,143.7863887862768 22.567434517666698,147.33708015549928 24.02691096253693,150.88776637450792 22.324188444763422,156.50967568787746 21.594450222328305,160.35623777890578 22.324188444763422,164.2027938242536 22.567434517666698,166.27401380729862 26.21612562984228,168.64112021238543 29.135078517720103,170.12056055432186 33.99999999906868,170.71233643963933 37.40544503647834,170.12056055432186 40.567644000053406,168.64112021238543 42.75685866642743,165.68223684746772 43.48659688793123,162.13157208892517 44.45958118420094,158.58090218016878 44.94607333280146,155.0302271207329 45.18931940663606,151.77543712500483 45.675811554305255,148.81653337273747 45.919057629071176,145.26584414974786 46.40554977674037,139.3480173314456 45.919057629071176,135.7973143735435 44.21633510943502,133.13428377383389 41.0541361477226,130.4712502779439 38.378429332748055,129.2876789055299 33.51350785139948,128.69589300476946 30.594554962590337,129.58357180282474 27.91884814761579,130.76714303181507 25.486387406475842,133.13428377383389" stroke="#4DD2FF" stroke-dasharray="none" stroke-linecap="round" stroke-linejoin="round" stroke-width="0.5"><title>2013-11-03 10.7km</title><desc>9223370653417861807</desc></polyline><polyline fill="none" opacity="1" points="97.51402512192726,130.41601742454804 94.67291097715497,132.14403100241907 92.77883488032967,135.3120526385028 91.35827780794352,138.1920686531812 91.59503732062876,143.37608870584518 90.88475878350437,145.96809450211003 90.1744802473113,149.712097896263 89.46420171111822,153.4560954067856 88.51716366223991,155.7600909504108 88.28040415141732,159.2160800890997 88.28040415141732,162.96006266516633 89.70096122287214,167.28003524802625 92.77883488032967,169.5840174248442 97.27726561017334,171.31200259411708 100.59189877938479,171.60000000009313 104.3800509730354,170.16001262003556 107.69468414224684,167.28003524802625 108.16820316575468,162.6720642137807 110.29903877526522,158.06408426584676 110.53579828795046,154.60809345706366 110.53579828795046,151.44009747868404 110.77255779877305,147.1200961722061 111.00931731145829,142.80008703446947 112.19311487209052,139.0560727783013 112.42987438477576,135.3120526385028 110.29903877526522,132.7200352489017 108.87848170287907,130.41601742454804 105.80060804635286,128.9760051521007 102.01245585177094,128.4000000001397 98.22430365905166,129.2640076763928 94.90967048984021,129.84001261997037 89.70096122287214,133.8720433257986 88.99068268761039,135.0240508459974 88.99068268761039,136.46405946207233 90.1744802473113,139.63207535468973 89.93772073462605,143.66408948926255 88.51716366223991,147.69609680003487 88.51716366223991,150.57609784416854 87.57012561522424,154.32009399705566 87.57012561522424,157.48808614653535 87.80688512697816,160.65607408294454 87.57012561522424,163.5360594613012 89.22744219843298,166.7040393569041 91.35827780794352,169.00802208902314" stroke="#4DD2FF" stroke-dasharray="none" stroke-linecap="round" stroke-linejoin="round" stroke-width="0.5"><title>2013-11-02 10.5km</title><desc>9223370653505000807</desc></polyline><polyline fill="none" opacity="1" points="156.01169842481613,152.97010246641003 155.56777391023934,155.67009724397212 155.12384939659387,158.6400877290871 156.23366068210453,162.15007139416412 157.5654342258349,164.85005507571623 160.67290582694113,167.0100396713242 164.22430194169283,168.3600289823953 167.7756980592385,168.3600289823953 169.77335837297142,167.82003335561603 172.65886771772057,165.66004954348318 174.6565280323848,162.96006684168242 175.54437706060708,159.18008557590656 175.54437706060708,155.94009654247202 175.7663393188268,152.70010280935094 175.54437706060708,149.46010437584482 175.54437706060708,146.49010168295354 176.43222609069198,142.98009340977296 176.87615060433745,140.01008210144937 176.43222609069198,137.31006839242764 175.32241480425,134.34004954481497 173.99064126145095,132.72003759886138 170.4392451448366,130.56001984444447 167.7756980592385,128.4000000001397 165.3341132281348,129.48001018329524 162.0046793706715,130.8300221778918 159.78505679685622,132.45003549358808 158.67524551134557,135.69005860155448 158.2313209977001,138.12007284793071 157.7873964831233,141.63008875912055 156.45562293939292,144.33009724435396 156.01169842481613,146.76010209089145 156.23366068210453,150.81010429398157 157.7873964831233,154.32010026299395 154.90188713837415,155.13009854895063 155.12384939659387,156.21009580790997 154.45796262472868,157.56009164638817 154.90188713837415,163.23006525845267 160.22898131329566,166.20004569296725 165.77803774364293,167.55003549298272 167.1098112873733,167.55003549298272 169.10747160110623,167.55003549298272 171.77101868763566,168.3600289823953 173.99064126145095,164.0400603134185 174.6565280323848,162.96006684168242 174.8784902896732,160.5300796192605 175.54437706060708,159.18008557590656 173.54671674594283,158.91008666879497 174.8784902896732,158.10008975397795 176.2102638334036,155.94009654247202 175.9883015761152,150.81010429398157 176.2102638334036,149.46010437584482 175.7663393188268,146.2201012421865 176.2102638334036,142.1700907170307 175.7663393188268,136.7700652598869 175.32241480425,133.26004171161912 173.54671674594283,129.75001264712773 169.55139611661434,129.48001018329524 165.77803774364293,129.21000768686645 162.6705661425367,130.56001984444447 159.78505679685622,132.72003759886138 156.67758519575,133.26004171161912 156.45562293939292,137.58006991050206 156.23366068210453,140.55008445074782 156.01169842481613,144.0600965428166 154.90188713837415,147.57010311936028 155.34581165295094,151.62010385282338 155.12384939659387,155.13009854895063 154.90188713837415,159.18008557590656 154.90188713837415,161.61007426702417 158.45328325405717,165.66004954348318 164.00233968626708,168.63002674723975 166.44392451550812,169.98001507879235 169.32943385839462,171.60000000009313 173.32475448958576,167.82003335561603 175.1004525469616,162.69006839231588 175.54437706060708,159.7200832911767 175.54437706060708,158.6400877290871 175.1004525469616,153.24010209064 174.8784902896732,148.92010417976417 175.32241480425,146.2201012421865 175.54437706060708,142.98009340977296 177.09811286255717,138.93007700890303 175.7663393188268,135.96006031497382 174.43456577509642,134.34004954481497 172.88082997407764,130.8300221778918 170.21728288847953,130.02001507859677 166.0,129.75001264712773 162.0046793706715,130.56001984444447 159.78505679685622,130.8300221778918 156.89954745396972,132.72003759886138 154.90188713837415,135.69005860155448 154.67992488108575,138.39007426798344 155.34581165295094,139.7400808769744 154.23600036650896,142.71009254432283 154.67992488108575,145.95010076928884 154.90188713837415,147.57010311936028 154.45796262472868,150.27010442432947 154.90188713837415,153.78010124200955 154.67992488108575,157.02009340864606 154.90188713837415,161.34007565444335 157.5654342258349,166.20004569296725 161.7827171124518,168.63002674723975 163.11449065618217,168.3600289823953 166.0,169.98001507879235 167.99766031466424,169.1700221770443 171.1051319167018,171.33000259427354 173.32475448958576,168.63002674723975 174.8784902896732,162.42006990942173 173.99064126145095,158.37008875748143 175.1004525469616,151.35010403278284 174.8784902896732,147.0301024664659 174.8784902896732,145.68010026379488 176.43222609069198,142.98009340977296 177.76399963349104,140.82008557626978 177.09811286255717,136.7700652598869 175.32241480425,132.1800333559513 173.10279223136604,129.75001264712773 169.9953206302598,128.6700025945902 166.0,128.94000515691005 161.1168303405866,130.56001984444447 157.1215097112581,132.1800333559513 156.67758519575,133.53004371840507 155.56777391023934,134.61005142168142 155.78973616752774,137.04006684245542 156.01169842481613,138.6600756549742 156.23366068210453,142.1700907170307 156.23366068210453,143.5200950417202 156.23366068210453,147.84010339644738 156.01169842481613,149.19010429433547 155.12384939659387,151.62010385282338 155.78973616752774,155.13009854895063 154.90188713837415,156.21009580790997 155.12384939659387,161.07007700833492 156.23366068210453,162.15007139416412 156.23366068210453,163.50006364332512 158.45328325405717,165.66004954348318 162.6705661425367,168.63002674723975 167.1098112873733,170.52001018356532 170.4392451448366,169.710017477395 171.99298094585538,168.09003118495457 175.32241480425,163.77006199466996 174.8784902896732,159.18008557590656 174.43456577509642,152.97010246641003 176.2102638334036,152.1601033960469" stroke="#4DD2FF" stroke-dasharray="none" stroke-linecap="round" stroke-linejoin="round" stroke-width="0.5"><title>2013-10-26 11.1km</title><desc>9223370654110301807</desc></polyline><polyline fill="none" opacity="1" points="22.901897870004177,187.76849800907075 24.30376340262592,190.32640248560347 25.004696168005466,193.1685153071303 25.004696168005466,196.86325683817267 24.07011914718896,199.9895720607601 23.602830636315048,203.68430287321098 23.36918638087809,206.81060902611353 24.30376340262592,208.23165590292774 23.602830636315048,212.77900013769977 25.705628934316337,215.62108581862412 28.042071488685906,217.89475188939832 30.845802552998066,218.46316806343384 34.11682212725282,217.89475188939832 38.08877446874976,216.18950254260562 41.359794043935835,213.91583482245915 42.29437106475234,209.93691102182493 42.06072680931538,206.52639954793267 42.52801532112062,202.26325324806385 42.52801532112062,198.85273064253852 42.52801532112062,195.1579922370147 43.92988085281104,191.4632480267901 45.565390639938414,189.18955639493652 46.49996766168624,186.63165068160743 46.26632340531796,184.07374218595214 43.92988085281104,181.23161837016232 40.8925055321306,179.81055517448112 37.855130213312805,177.25263925665058 34.58411063905805,176.4000000001397 31.0794468075037,177.82106525660492 28.27571574319154,180.09476788225584 25.705628934316337,182.6526807071641 25.238340424373746,185.77901482582092 25.238340424373746,189.4737679695245 24.771051913499832,192.60009301709943 24.30376340262592,196.86325683817267 21.50003233831376,199.9895720607601 21.967320849187672,203.68430287321098 21.733676593750715,207.94744659680873 22.200965103693306,211.07374708005227 22.200965103693306,213.91583482245915 24.30376340262592,216.75791912851855 27.341138722375035,219.0315841003321 30.61215829756111,219.60000000009313 34.58411063905805,219.0315841003321 37.154197447001934,217.610543750925 40.8925055321306,215.90529419737868 41.82708255480975,213.6316262029577 43.462592341937125,210.22112008789554 43.92988085281104,206.81060902611353 43.92988085281104,203.1158831268549 44.39716936368495,199.70536175812595 45.0981021290645,195.4422030900605 45.33174638450146,192.0316705906298 45.79903489537537,189.18955639493652 45.565390639938414,185.49480280443095 44.63081361912191,181.80004340759479 42.52801532112062,179.24212965508923 39.4906400013715,178.10527820512652 35.98597617074847,177.53685227409005 32.48131234012544,177.53685227409005 29.21029276587069,178.95791684417054 25.705628934316337,181.23161837016232 24.30376340262592,184.07374218595214 25.004696168005466,188.33692146651447 23.602830636315048,191.74745932617225 23.36918638087809,194.58957042940892 23.36918638087809,198.28430972713977 21.733676593750715,201.69483315735124 22.200965103693306,206.52639954793267 21.967320849187672,209.3684927856084 23.36918638087809,212.21058258996345 24.30376340262592,215.90529419737868 25.238340424373746,217.610543750925 30.845802552998066,219.0315841003321 34.81775489356369,218.46316806343384 37.38784170243889,216.18950254260562 41.59343829844147,212.77900013769977 43.22894808650017,211.9263737637084 43.92988085281104,209.08428361662664 43.462592341937125,205.95798048726283 43.462592341937125,202.26325324806385 43.462592341937125,199.13694104878232 43.92988085281104,195.72641390911303 45.33174638450146,192.31588182109408 45.565390639938414,189.18955639493652 45.565390639938414,186.34743876405992 45.565390639938414,183.78952995873988 43.22894808650017,181.23161837016232 41.359794043935835,178.10527820512652 37.855130213312805,176.96842620545067 33.6495336163789,178.10527820512652" stroke="#4DD2FF" stroke-dasharray="none" stroke-linecap="round" stroke-linejoin="round" stroke-width="0.5"><title>2013-10-20 10.7km</title><desc>9223370654628121807</desc></polyline><polyline fill="none" opacity="1" points="113.03676424827427,195.265924267238 113.26153604499996,192.53174209501594 112.81199244968593,188.7038815007545 112.58722065296024,185.96969139552675 110.33950267918408,182.68865890684538 108.76610009744763,179.4076216588728 105.84406673163176,177.49368106550537 102.69726156815886,176.4000000001397 99.77522820234299,176.4000000001397 96.1788794444874,177.2202608489897 92.80730248428881,179.4076216588728 90.33481271192431,182.68865890684538 89.43572552409023,185.69627220346592 89.43572552409023,188.7038815007545 88.76141013111919,191.98490526387468 88.53663833346218,196.08617827505805 87.41277934703976,199.3671913293656 87.86232294142246,202.3747824486345 86.73846395500004,206.20261990721337 89.2109537255019,208.6633691387251 90.11004091612995,211.9443639498204 91.90821529459208,215.49876962439157 94.15593326836824,217.41267805802636 97.75228202715516,218.77975451922975 101.57340258173645,219.60000000009313 104.49543594755232,217.95950874243863 106.96792571805418,215.22535400115885 108.99087189510465,212.76461190870032 110.56427447684109,209.75703460443765 110.33950267918408,207.5697031437885 111.0138180712238,204.56211893237196 111.23858986981213,201.5545307220891 111.46336166653782,198.54693851224147" stroke="#4DD2FF" stroke-dasharray="none" stroke-linecap="round" stroke-linejoin="round" stroke-width="0.5"><title>2013-10-19 10.2km</title><desc>9223370654714312807</desc></polyline><polyline fill="none" opacity="1" points="176.1468380726874,183.15923433192074 174.93888115882874,180.22043910529464 171.31501041911542,177.5755203643348 167.20795691385865,176.4000000001397 163.3424947904423,177.5755203643348 160.20180681534111,179.33879984519444 158.51066713687032,182.57147557032295 157.302710223943,185.51026795455255 157.06111884023994,188.15517806308344 156.5779360756278,191.9755986945238 155.61157054454088,195.5021354884375 154.8867963962257,198.73478972166777 154.64520501438528,201.96743965684436 154.64520501438528,206.08171517541632 155.12838777899742,209.90210763714276 156.81952745839953,213.72249409533106 158.0274843722582,215.7796227785293 160.92658096458763,219.0122500488069 164.55045170336962,219.0122500488069 167.44954829569906,219.60000000009313 170.83182765357196,218.13062485610135 173.48933286219835,216.36737351119518 175.18047254160047,212.84086698386818 175.66365530714393,208.43272663117386 175.90524668991566,203.73070144630037 175.90524668991566,200.79193108691834 175.90524668991566,197.26540196686983 176.87161222100258,194.32662379206158 177.59638636745512,190.80008529429324 177.35479498654604,186.39190497691743 175.18047254160047,180.22043910529464 172.52296733297408,178.16328033292666 167.6911396794021,176.69388014404103 164.79204308707267,176.9877602532506 161.8929464938119,179.63267963356338 159.23544128518552,181.6898371623829 158.51066713687032,184.62863061204553 157.06111884023994,189.33069274341688 155.61157054454088,193.73886773106642 155.61157054454088,197.26540196686983 154.16202224884182,200.79193108691834 154.40361363161355,204.6123318609316 154.64520501438528,207.8449739809148 154.16202224884182,211.37148775416426 156.09475331008434,215.48574735829607 158.75225852057338,218.13062485610135 161.40976372919977,218.42449995642528 166.48318276554346,219.0122500488069 169.38227935694158,217.54287455044687 172.52296733297408,214.89799641259015 173.48933286219835,212.25311539904214 174.697289776057,208.43272663117386 176.1468380726874,204.9062085954938 177.35479498654604,201.67356256698258 177.83797775115818,197.55927958874963 177.35479498654604,192.85723337321542 177.35479498654604,188.44905678625219 176.3884294545278,184.92250976222567 174.93888115882874,180.22043910529464 172.03978456743062,178.16328033292666" stroke="#4DD2FF" stroke-dasharray="none" stroke-linecap="round" stroke-linejoin="round" stroke-width="0.5"><title>2013-10-12 10.6km</title><desc>9223370655320152807</desc></polyline><polyline fill="none" opacity="1" points="24.05610049236566,240.24009095085785 24.05610049236566,242.83209580695257 23.345821957103908,247.44009747868404 24.05610049236566,250.60809345706366 24.292860004119575,254.92808118532412 23.81934098061174,258.6720642137807 22.635543420910835,262.41604135814123 24.76637902855873,263.28003524802625 28.317771709524095,265.5840174248442 31.632404879666865,267.60000000009313 34.710278537124395,267.60000000009313 38.97194975428283,265.8720150399022 41.57630438823253,263.8560310017783 43.943899508565664,260.6880526384339 44.890937557443976,256.9440727783367 45.12769706826657,252.33608948835172 43.943899508565664,248.59209650335833 44.180659021250904,243.40809650346637 45.36445658095181,239.37608870584518 45.60121609363705,236.2080777916126 46.54825414158404,233.32806421397254 45.837975605390966,231.0240508459974 43.23362097237259,227.28002436971292 38.97194975428283,225.84001261997037 35.42055707331747,224.9760051521007 32.57944292854518,224.9760051521007 30.21184780728072,226.12801503995433 26.1869361018762,228.14403100241907 24.76637902855873,231.0240508459974 23.81934098061174,234.48007006268017 24.05610049236566,238.5120861462783 24.05610049236566,241.96809450211003 24.292860004119575,245.13609775714576 24.05610049236566,248.88009617221542 22.398783908225596,251.47209162986837 21.6885053711012,254.3520832741633 21.451745859347284,257.2320714369416 22.398783908225596,260.1120561193675 23.582581467926502,262.41604135814123 25.239898052997887,265.296019774396 28.317771709524095,266.7360076766927 31.632404879666865,266.7360076766927 36.6043546339497,267.60000000009313 39.68222829140723,264.72002436965704 41.57630438823253,262.1280433256179 43.943899508565664,258.3840657279361 44.180659021250904,254.3520832741633 44.180659021250904,250.89609288284555 45.36445658095181,247.15209763497114 46.07473511714488,243.69609680003487 45.837975605390966,240.52809162950143 45.837975605390966,237.93608426721767 46.31149462983012,234.48007006268017 45.60121609363705,231.6000543970149 44.65417804475874,229.00803732057102 43.23362097237259,226.12801503995433 40.155747315846384,224.4000000001397 36.6043546339497,224.4000000001397 32.57944292854518,224.4000000001397 28.791290735825896,224.9760051521007 26.660455126315355,227.28002436971292 24.292860004119575,231.0240508459974 24.76637902855873,233.6160657289438 24.76637902855873,237.07208118587732 23.345821957103908,241.68009399762377 23.345821957103908,245.712097896263 24.05610049236566,247.15209763497114 23.10906244441867,250.89609288284555 22.398783908225596,252.9120878870599" stroke="#4DD2FF" stroke-dasharray="none" stroke-linecap="round" stroke-linejoin="round" stroke-width="0.5"><title>2013-10-06 10.6km</title><desc>9223370655838244807</desc></polyline><polyline fill="none" opacity="1" points="111.06927321478724,240.67022427427582 111.76110279094428,237.5845008501783 111.99171264935285,234.77929417719133 111.76110279094428,231.97408411232755 109.6856140634045,230.2909564457368 108.07134505175054,228.04678432480432 105.30402674898505,226.9246974508278 102.30609858687967,227.48574095615186 97.69390141405165,228.04678432480432 95.38780282903463,228.6078275591135 93.77353381738067,230.2909564457368 93.54292395804077,231.97408411232755 92.62048452533782,234.77929417719133 92.38987466599792,237.86502133100294 91.69804508984089,242.07282447465695 91.00621551368386,245.15854193037376 91.69804508984089,248.80529363360256 90.77560565527529,251.89100213861093 90.31438593752682,255.53774326271378 89.39194650482386,258.3429248428438 89.39194650482386,260.3065499314107 90.31438593752682,263.3922431420069 91.92865494918078,265.6363810834009 96.07963240426034,266.75844923895784 99.30817042570561,267.60000000009313 102.30609858687967,266.75844923895784 105.30402674898505,266.47793225129135 107.37951547559351,264.23379512433894 108.76317462790757,261.98965582833625 109.6856140634045,258.0624068370089 109.45500420406461,254.97670653951354 110.37744363863021,251.04944568034261 110.37744363863021,247.40269750310108 110.14683377929032,243.75594359473325 109.91622392181307,238.98710291530006 110.37744363863021,235.62085653445683 111.06927321478724,234.21825243486091 110.37744363863021,231.41304169245996 108.07134505175054,228.88834912492894 105.07341689057648,226.0831319389399 102.9979281630367,225.2415661229752 99.76939014159143,225.80261003412306 96.31024226266891,225.80261003412306 94.4653633935377,226.6441756472923 93.31231410056353,229.72991361888126 91.69804508984089,232.5351263966877 91.46743523143232,235.62085653445683 90.77560565527529,239.26762322615832 90.08377608004957,243.19490402424708 89.62255636136979,245.7195810272824 88.9307267870754,248.80529363360256 88.9307267870754,252.17152088950388 88.0082873525098,255.53774326271378 87.54706763476133,258.0624068370089 87.7776774931699,261.14810303226113 88.9307267870754,263.6727605035994 91.92865494918078,266.19741522870027 95.61841268651187,267.0389661930967 99.76939014159143,267.319483113708 103.45914787892252,266.75844923895784 105.99585632514209,264.794829609571 108.76317462790757,262.55069085536525 109.91622392181307,258.3429248428438 110.37744363863021,255.53774326271378 110.83866335544735,252.4520396075677 111.06927321478724,249.6468509058468 111.53049293160439,245.7195810272824 111.76110279094428,243.4754238263704 111.99171264935285,240.3897041331511 112.22232250776142,237.5845008501783 112.45293236616999,234.49877332313918 111.76110279094428,231.69356291904114 110.60805349703878,229.1688706574496 108.30195491109043,226.6441756472923 105.76524646673352,225.2415661229752 102.9979281630367,224.4000000001397 100.69182957615703,224.96104411478154 96.77146197948605,225.52208809531294 94.00414367672056,227.20521922083572 92.62048452533782,230.8519991368521 91.00621551368386,235.34033578261733 90.08377608004957,238.14554177806713 89.85316622070968,240.3897041331511 89.62255636136979,243.4754238263704 89.85316622070968,246.56113941781223 90.08377608004957,249.92736992868595 89.85316622070968,253.01307694031857 89.62255636136979,256.3792980927974 90.08377608004957,259.7455143611878 91.46743523143232,262.83120831870474 94.00414367672056,264.5143123844173 96.77146197948605,267.319483113708 100.69182957615703,267.319483113708 102.9979281630367,267.0389661930967 106.45707604289055,265.35586395906284 108.532564769499,263.3922431420069 109.6856140634045,260.0260321632959 110.14683377929032,257.2208526181057 111.06927321478724,254.13515119976364 111.06927321478724,250.76892679347657 111.76110279094428,247.96373605774716 111.76110279094428,244.8780223308131 111.53049293160439,241.79230450256728 112.68354222457856,238.14554177806713 111.76110279094428,235.34033578261733 110.83866335544735,231.97408411232755 110.14683377929032,229.44939215504564 107.6101253349334,227.7662626572419 104.38158731441945,226.0831319389399 101.38365915231407,226.6441756472923 97.23268169723451,226.9246974508278 94.23475353512913,228.88834912492894 92.85109438374639,230.8519991368521 90.77560565527529,234.21825243486091 90.31438593752682,236.46241858764552 89.39194650482386,240.1091839573346 89.62255636136979,243.19490402424708 88.46950706932694,246.28061998845078 88.46950706932694,249.6468509058468 87.7776774931699,253.01307694031857 87.31645777635276,256.3792980927974 88.0082873525098,259.7455143611878 89.16133664548397,262.83120831870474 92.62048452533782,264.794829609571 96.31024226266891,266.47793225129135 98.84695070702583,265.9168981728144 102.30609858687967,265.0753468009643" stroke="#4DD2FF" stroke-dasharray="none" stroke-linecap="round" stroke-linejoin="round" stroke-width="0.5"><title>2013-09-29 10.5km</title><desc>9223370656443428807</desc></polyline><polyline fill="none" opacity="1" points="176.5642668157816,251.7418679993134 176.5642668157816,248.73427869705483 177.23858171794564,246.00010313582607 177.23858171794564,242.17225179541856 178.36243989039212,238.8912312053144 177.68812498729676,237.25071912514977 176.78903844952583,234.51652968092822 175.66518027801067,230.68865890661255 173.86700720340014,227.95446153078228 171.39451922569424,225.49368106527254 170.0458894195035,225.76710125035606 166.00000000093132,224.94684059894644 163.30274038854986,226.5873616025783 160.83025241084397,228.22788141667843 159.7063942393288,232.055756355403 158.35776443313807,233.6962722032331 157.6834495300427,238.6178126083687 157.00913462694734,240.80516046099365 156.78436299227178,244.9064319843892 156.78436299227178,247.09377375710756 156.55959135852754,249.28111341316253 156.55959135852754,253.38236956926994 155.2109615523368,255.56970314332284 155.6605048207566,261.0380278278608 156.55959135852754,263.4987696236931 161.95411058235914,265.4126780577935 164.2018269263208,265.95950874197297 167.5734014417976,265.95950874197297 171.61929085943848,264.86584724183194 174.5413221064955,262.1316911787726 176.5642668157816,258.0304508882109 177.23858171794564,253.65578638156876 175.66518027801067,250.92161676776595 174.09177883714437,249.55453072185628 175.88995191268623,245.17984982184134 177.4633533526212,239.98490526387468 177.91289662197232,238.07097531366162 177.23858171794564,235.06336783478037 178.36243989039212,231.235497985268 175.66518027801067,228.50130126997828 172.9679206656292,225.49368106527254 171.16974759101868,224.94684059894644 165.77522836625576,225.49368106527254 164.2018269263208,225.76710125035606 161.27979567926377,228.22788141667843 158.80730770155787,230.41523931804113 158.1329927984625,232.87601442844607 157.6834495300427,236.43046263838187 156.55959135852754,241.07857879367657 157.00913462694734,244.35959621169604 157.23390626069158,246.54693851224147 156.55959135852754,250.92161676776595 157.00913462694734,254.20261990698054 155.6605048207566,258.3038671386894 156.33481972385198,261.5848595700227 156.55959135852754,263.4987696236931 160.38070914242417,264.86584724183194 163.97705529164523,267.3265848727897 166.22477163467556,266.77975451922975 169.14680288173258,265.95950874197297 172.0688341287896,264.86584724183194 174.9908653749153,261.5848595700227 175.21563700959086,259.3975318111479 175.88995191268623,256.66336913825944 176.78903844952583,253.92920316033997 177.91289662197232,250.92161676776595 177.0138100842014,247.3671913293656 175.88995191268623,243.53934230282903 176.11472354643047,240.5317420954816 176.5642668157816,237.25071912514977 177.68812498729676,236.43046263838187 178.58721152413636,232.87601442844607 177.23858171794564,230.14181969570927 178.36243989039212,230.41523931804113 177.91289662197232,227.68104161159135 174.76609374023974,226.31394151831046 171.39451922569424,225.22026084875688 168.24771634489298,224.6734203158412 164.2018269263208,225.76710125035606 161.0550240445882,228.22788141667843 158.35776443313807,230.14181969570927 158.1329927984625,233.42285297834314 155.88527645543218,237.25071912514977 154.53664664924145,241.62541536078788 156.11004808917642,241.62541536078788 156.78436299227178,243.2659242679365 156.33481972385198,246.8203561506234 155.6605048207566,250.92161676776595 153.41278847679496,253.10895272321068 155.43573318701237,256.11653620772995 155.6605048207566,258.57728335657157 157.23390626069158,262.9519383441657 159.256850970909,265.4126780577935 161.95411058235914,266.23292403365485 165.77522836625576,266.23292403365485 169.37157451640815,267.60000000009313 172.9679206656292,266.23292403365485 174.09177883714437,264.0456007702742 174.31655047181994,260.49119595531374 175.66518027801067,259.3975318111479 175.88995191268623,255.29628656315617 177.91289662197232,248.73427869705483 177.91289662197232,244.08617827459238 175.88995191268623,241.35199709353037 176.5642668157816,238.07097531366162 177.0138100842014,235.61020585522056 177.4633533526212,232.055756355403 177.23858171794564,230.14181969570927 175.66518027801067,227.1342016728595 172.0688341287896,225.76710125035606 168.69725961331278,224.4000000001397 166.00000000093132,225.76710125035606 163.52751202322543,226.8607816544827 160.38070914242417,229.04814087809063 157.45867789536715,232.055756355403 155.6605048207566,235.61020585522056 156.78436299227178,239.16464976919815 157.00913462694734,243.53934230282903 157.00913462694734,246.8203561506234 156.33481972385198,250.64819962508045 154.761418283917,253.10895272321068 156.33481972385198,256.66336913825944" stroke="#4DD2FF" stroke-dasharray="none" stroke-linecap="round" stroke-linejoin="round" stroke-width="0.5"><title>2013-09-22 10.9km</title><desc>9223370657048162807</desc></polyline></svg>