<?xml version="1.0" encoding="utf-8" ?>
<svg baseProfile="full" height="300mm" version="1.1" viewBox="0,0,200,300" width="200mm" xmlns="http://www.w3.org/2000/svg" xmlns:ev="http://www.w3.org/2001/xml-events" xmlns:xlink="http://www.w3.org/1999/xlink"><defs /><rect fill="#222222" height="300" width="200" x="0" y="0" /><text fill="#FFFFFF" style="font-size:12px; font-family:Arial; font-weight:bold;" x="10" y="20">Over 10km Runs</text><text fill="#FFFFFF" style="font-size:4px; font-family:Arial" x="10" y="280">Runner</text><text fill="#FFFFFF" style="font-size:9px; font-family:Arial" x="10" y="290">keep</text><text fill="#FFFFFF" style="font-size:4px; font-family:Arial" x="65" y="280">SPECIAL TRACKS</text><rect fill="yellow" height="2.6" width="2.6" x="65" y="283" /><text fill="#FFFFFF" style="font-size:3px; font-family:Arial" x="70" y="285.5">Over 20.0 km</text><rect fill="red" height="2.6" width="2.6" x="65" y="287" /><text fill="#FFFFFF" style="font-size:3px; font-family:Arial" x="70" y="289.5">Over 40.0 km</text><text fill="#FFFFFF" style="font-size:4px; font-family:Arial" x="120" y="280">STATISTICS</text><text fill="#FFFFFF" style="font-size:3px; font-family:Arial" x="120" y="285">Number: 15</text><text fill="#FFFFFF" style="font-size:3px; font-family:Arial" x="120" y="290">Weekly: 1.2</text><text fill="#FFFFFF" style="font-size:3px; font-family:Arial" x="141" y="285">Total: 163.6 km</text><text fill="#FFFFFF" style="font-size:3px; font-family:Arial" x="141" y="290">Avg: 10.9 km</text><text fill="#FFFFFF" style="font-size:3px; font-family:Arial" x="167" y="285">Min: 10.2 km</text><text fill="#FFFFFF" style="font-size:3px; font-family:Arial" x="167" y="290">Max: 14.0 km</text><polyline fill="none" opacity="1" points="27.1172886332497,75.59999999999854 27.083278941514436,75.28967663560616 26.998254712176276,74.9900529379156 26.930235328676645,74.85094155505794 26.845211099338485,74.66902630582626 26.76018686997122,74.47640971001238 26.700669909419958,74.21958686292055 26.692167486500693,73.9092581590885 26.75168444699375,73.60962930609094 26.76018686997122,73.3099993340511 26.75168444699375,72.96756370999356 26.74318202410359,72.66793134002364 26.75168444699375,72.37899906618986 26.76868929291959,72.0151569448717 26.77719171580975,71.75832621867448 26.862215945206117,71.5014946702504 27.057771672756644,71.39448128241929 27.321346783748595,71.38377993577888 27.38086374429986,71.24466229962127 27.414873436035123,71.11624580595526 27.431878281902755,70.90221785972244 27.457385550718755,70.58117486975243 27.346854052564595,70.27083209150442 27.074776518595172,70.13171252533357 26.998254712176276,69.87487576932472 27.066274095646804,69.4682158906071 27.100283787411172,69.20067537246359 27.15129832504317,68.87962557290302 27.1938104396977,68.5371710371619 27.2448249773297,68.22682035135222 27.253327400278067,68.01278469604586 27.338351629616227,67.86295939753472 27.38086374429986,67.72383565551718 27.363858898432227,67.53120238360134 27.372361321380595,67.456289319598 27.431878281902755,67.26365540520055 27.491395242483122,66.9961075344545 27.55941462595365,66.73926073897746 27.63593643240165,66.41820108816319 27.712458238820545,66.118544254663 27.797482468158705,65.82958839077037 27.916516389290337,65.62624845519167 28.069560002128128,65.64765268319024 28.299125421384815,65.73326953814103 28.528690840670606,65.60484422142326 28.74125141405966,65.40150371611526 28.82627564339782,65.15535399370856 28.979319256235613,64.85569244256476 29.14086529207998,64.55602977189847 29.302411327837035,64.2777705753324 29.446952517755562,64.0102127452119 29.599996130622458,63.75335638864635 29.75303974346025,63.43228478630044 29.91458577924641,63.14331924531143 30.110141506796936,62.75803023795743 30.33120450313436,62.394144476049405 30.552267499442678,61.99814927115949 30.713813535228837,61.71988120080641 30.900866839801893,61.43090949054749 31.070915298565524,61.152639452215226 31.198451642587315,60.94928765983059 31.368500101321843,60.69242150091304 31.564055828843266,60.39274327579187 31.666084904107265,60.103766784013715 31.810626093967585,59.78268057196692 31.989176975621376,59.48299894764932 32.21874239490717,59.247534028749214 32.465312660089694,59.065583390634856 32.62685869584675,58.81941422325326 32.79690715458128,58.55183818428486 32.88193138389033,58.48761980213021 32.9924628821027,58.25215196089266 33.09449195730849,58.016683428279066 33.17101376372739,57.85613630517037 33.366569491277914,57.77051104140992 33.51111068116734,57.79191736591747 33.613139756402234,57.69558886064624 33.732173677533865,57.545744289134745 33.910724559187656,57.374493007439014 34.08927544087055,57.12831864938926 34.2763287454145,56.903550097304105 34.30183601425961,56.7001875312053 34.25932389960508,56.37908769267233 34.29333359131124,56.143613660664414 34.46338205001666,55.88673210997513 34.66744020051556,55.67266352249135 34.82048381335335,55.42648394047865 34.93951773442677,55.09467548211978 35.09256134729367,54.83779057148058 35.36463888126309,54.58090483798151 35.56869703170378,54.36683276484109 35.70473579870304,54.099241869807884 35.82376971980557,53.78883531295287 35.951306063856464,53.5105387577205 36.21488117487752,53.30716758739436 36.46145144003094,53.2857600657735 36.648504744604,53.00746176473331 36.742031396890525,52.697050981849316 36.80154835747089,52.41875063774205 36.86106531799305,52.11904149473412 36.93758712441195,51.76581142385112 37.031113776698476,51.433987818709284 37.06512346849195,51.28413154694135 37.11613800609484,51.10216284044873 37.16715254369774,50.78104058642202 37.24367435008753,50.39569218410179 37.33720100240316,50.031750325957546 37.43923007763806,49.635694074117055 37.481742192350794,49.293157359839824 37.55826399876969,48.98273219864495 37.64328822810785,48.65089707667357 37.72831245747511,48.27624286916398 37.77932699507801,47.93370034750842 37.84734637857764,47.601860884235066 37.932370607944904,47.216497203393374 38.0088924143638,46.87395015450602 38.06840937491506,46.58492494371603 38.14493118136306,46.24237519666349 38.195945718936855,45.95334770927002 38.272467525384855,45.696433512479416 38.297974794200854,45.567976105361595 38.34048690885538,45.289651017323195 38.40850629232591,44.95780061114783 38.48502809877391,44.604538992127345 38.561549905192805,44.26198078420566 38.62106686574407,43.99435616588016 38.62956928869244,43.88730606844911 38.67208140337607,43.619680199510185 38.73159836392733,43.319938165725034 38.79961774739786,42.945259047650325 38.8676371309557,42.62410412426834 38.935656514397124,42.367179259308614 38.978168629080756,42.185190315169166 39.02068074376439,42.046022020309465 39.06319285844802,41.94967459773761 39.09720255018328,41.82121118755458 39.054690435528755,41.5963997243889 39.07169528136728,41.350176922409446 39.114207396050915,41.082542584284965 39.18222677955055,40.889845307661744 39.24174374010181,40.72926388995984 39.48831400525523,40.772085632816015 39.777396385063184,40.87913988981745 40.057976341980975,40.97548859888775 40.253532069473295,41.029015609485214 40.31304903005366,40.80420192491874 40.33005387589219,40.55797668995365 40.321551452972926,40.27963420939341 40.33855629886966,39.91564643050515 40.36406356768566,39.53024580451893 40.43208295115619,39.23048848119652 40.347058721788926,38.984258412856434 40.177010263025295,38.92002435762697 39.887927883217344,38.96284706681763 39.59884550338029,39.0377867529096 39.53082611990976,38.877201625517046 39.56483581167413,38.57744186039781 39.63285519517376,38.256269439691096 39.692372155725025,37.945801543253765 39.777396385063184,37.59250902610802 39.853918191511184,37.27133265944576 39.89643030616571,36.95015500600857 39.938942420849344,36.65038803519565 39.981454535532976,36.37203198712086 39.99845938142971,36.19002943310625 39.95594726668787,36.05085073062219 40.08348361073877,35.954496102749545 40.2790393383184,35.85814135905821 40.321551452972926,35.71896208036924 40.16000541718677,35.601194809649314 40.168507840135135,35.42989665253117 40.168507840135135,35.290716630304814 40.321551452972926,35.30142279444408 40.508604757575085,35.32283511842252 40.65314594749361,35.31212895716453 40.78918471443467,35.31212895716453 40.959233173169196,35.28001046473946 41.120779208955355,35.25859812932322 41.15478890069062,34.990943454016815 41.197301015403355,34.551987851868034 41.24831555297715,34.1879740659715 41.28232524477062,33.8881967658599 41.273822821793146,33.684775816538604 41.299330090609146,33.49206075677648 41.31633493650588,33.310051663844206 41.18879859248409,33.22440018298221 40.959233173169196,33.20298729847127 40.780682291515404,33.160161512299965 40.61063383280998,33.074509871265036 40.36406356768566,33.031684016452346 40.04097149608424,32.95673871544568 39.74338669332792,32.91391279766685 39.454304313490866,32.81755439910921 39.12270981899928,32.774728406991926 38.85063228502986,32.68907635410869 38.64657413456007,32.560598103176744 38.44251598411938,32.571304631987005 38.136428758414695,32.560598103176744 37.855848801496904,32.549891572998604 37.54976157582132,32.528478508320404 37.23517192719737,32.49635890053469 36.96309439322795,32.45353273683577 36.640002321626525,32.432119646371575 36.427441748266574,32.41070655021031 36.41043690239894,32.432119646371575 36.333915095980046,32.65695681067882 36.28290055834805,32.860380368321785 36.240388443664415,33.04239048228919 36.21488117487752,33.26722593485465 36.18937390606152,33.43852871352283 36.12135452253278,33.65265667206404 36.04483271614299,33.81325226560875 35.942803640908096,33.99526021602651 35.891789103276096,34.155855123150104 35.83227214272483,34.337862295637024 35.738745490438305,34.50916278640216 35.67072610696778,34.68046291106293 35.59420430051978,34.84105644547526 35.49217522528488,35.05518065758224 35.35613645828562,35.20506726575695 35.32212676657946,35.472721226120484 35.22009769134456,35.70825597199291 35.075556501426036,36.0187325342049 34.93101531153661,36.36132596596144 34.786474121618085,36.65038803519565 34.65043535458972,36.95015500600857 34.51439658764866,37.22850904668303 34.378357820707606,37.51756798898714 34.22531420781161,37.81733171715314 34.08927544087055,38.095682746818056 33.97024151973892,38.35262130101182 33.885217290371656,38.53461894529755 33.82570032982039,38.588147585614934 33.7491785234015,38.67379333570716 33.68966156285023,38.85579025090556 33.66415429403423,39.14484332581196 33.50260825827718,39.423189746295975 33.37507191422628,39.66941846651753 33.29855010777828,39.862118676559476 33.34956464541028,39.979879688020446 33.56212521879934,40.01199629747862 33.86821244453313,40.01199629747862 34.18280209315708,40.06552395135077 34.48888931883266,40.1083460486916 34.82048381335335,40.151168123171374 35.14357588489656,40.19399017478281 35.43265826473362,40.23681220349681 35.72174064454157,40.26892871005839 35.874784257408464,40.20469568412227 35.917296372092096,40.01199629747862 35.968310909724096,39.79788532466773 35.95980848677573,39.701535200372746 36.104349676694255,39.744357492127165 36.14686179137789,39.91564643050515 36.129856945510255,40.19399017478281 36.06183756201062,40.54727122778422 35.99381817851099,40.87913988981745 35.917296372092096,41.27523939778621 35.84927698862157,41.62851568631595 35.77275518217357,41.94967459773761 35.72174064454157,42.26012698926206 35.65372126107104,42.55987298524997 35.61120914638741,42.85961786054395 35.62821399225504,43.18077184055437 35.449663110572146,43.43769409834931 35.34763403539546,43.673205444756604 35.26260980599909,43.983651162569004 35.2115952684253,44.2940956783641 35.19459042252856,44.540309439616976 35.31362434363109,44.69017831540987 35.34763403539546,44.98991522662254 35.27961465189583,45.34317514774739 35.19459042252856,45.73925260244869 35.11806861610967,46.08180449895008 35.05855165558751,46.43505960945913 35.01603954084567,46.809722419937316 35.00753711795551,47.12015599380538 34.99903469500714,47.451997450669296 35.00753711795551,47.783837534138 34.98202984913951,48.147789595001086 34.97352742619114,48.468922394495166 34.93951773442677,48.80075826956454 34.92251288855914,49.1111841352249 34.87149835092714,49.421608799159 34.82048381335335,49.76414496471989 34.735459583986085,50.09597547977319 34.786474121618085,50.40639633137471 34.74396200690535,50.738224188709864 34.67594262343482,51.08075473021745 34.51439658764866,51.40187578404584 34.33584570599487,51.64806772112206 34.08077301792218,51.851443099047174 33.84270517571713,52.05481796120148 33.613139756402234,52.268896206252975 33.38357433717465,52.482973879807105 33.29004768488812,52.643531759938924 33.17101376372739,52.79338549132808 33.05197984262486,52.964646555767104 32.9414483444707,53.16801859472616 32.84792169218417,53.467723817368096 32.69487807931728,53.78883531295287 32.524829620611854,54.099241869807884 32.38028843069333,54.3561291461956 32.26975693253917,54.61301559966523 32.2612545095908,54.83779057148058 32.422800545347854,55.00904726999579 32.405795699509326,55.2766351292812 32.29526420129696,55.544222095719306 32.34627873895806,55.64055318506871 32.2612545095908,55.56562901446887 32.11671331967227,55.73688415871584 31.92115759215085,56.04728317556874 31.742606710497057,56.26135076308856 31.504538868262898,56.496824449415726 31.35999767840258,56.775110641850915 31.28347587195458,57.0319893470878 31.138934682006948,57.26746077070129 31.028403183881892,57.374493007439014 30.78183291872847,57.353086571529275 30.53526265360415,57.342383351417084 30.25468269668636,57.288867229479365 29.948595470981672,57.288867229479365 29.68502035998972,57.299570456721995 29.548981592990458,57.33168012990063 29.463957363623194,57.33168012990063 29.378933134285035,57.53504109476489 29.234391944366507,57.73840154395293 29.20038225260214,57.98457402936765 29.14086529207998,58.241448860753735 28.996324102161452,58.4662136633051 28.979319256235613,58.55183818428486 28.82627564339782,58.71238391478255 28.622217492957134,58.90503836715652 28.42666176543571,59.1083953426205 28.477676303038606,59.30104884375032 28.545695686509134,59.40807836661406 28.605212647089502,59.55791945870442 28.639222338824766,59.80408635943604 28.6562271847215,60.02884678282862 28.6307199159055,59.9539267116852 28.452169034222607,59.964629583286296 28.29062299846555,60.23220090891118 28.146081808547024,60.47836574009125 27.9760333498416,60.69242150091304 27.831492159923073,60.97069313591783 27.712458238820545,61.23826110531081 27.601926740637282,61.48442284877092 27.491395242483122,61.78409699502663" stroke="#4DD2FF" stroke-dasharray="none" stroke-linecap="round" stroke-linejoin="round" stroke-width="0.5"><title>2017-12-17 14.0km</title><desc>9223370523376934807</desc></polyline><polyline fill="none" opacity="1" points="100.73730617697584,32.400000000001455 100.68510750954738,32.728449399000965 100.52851150737843,32.991208287457994 100.5024121736642,33.23754423631908 100.64595850900514,33.483879692532355 100.67205784271937,33.74663696927746 100.68510750954738,34.058660507405875 100.69815717637539,34.35426102483325 100.67205784271937,34.649860832782 100.67205784271937,34.994726378696214 100.59375984163489,35.30674675483897 100.54156117414823,35.503811848233454 100.68510750954738,35.700876626346144 100.64595850900514,36.45628868814674 100.75035584380385,36.735461538424715 100.86780284548877,37.01463375594176 100.90695184608921,37.3102271788739 100.94610084657324,37.67150706570828 100.95915051340126,38.016364150942536 100.98524984711548,38.361220270584454 101.03744851454394,38.68965377256245 101.14184584934264,38.9688215606875 101.18099484988488,39.26441029374837 101.22014385042712,39.54357677912776 101.24624318419956,39.85558563165978 101.40283918636851,39.95411457873706 101.59858418913791,40.06906491747213 101.61163385602413,40.233279500942444 101.4811371875112,40.34822957912547 101.33759085211204,40.496022379084025 101.41588885319652,40.725921937708335 101.54638552170945,41.037927795230644 101.67688219022239,41.349932862423884 101.74213052447885,41.62909462099924 101.85957752610557,41.924676969865686 102.00312386144651,42.22025860949361 102.17276953055989,42.515839539744775 102.25106753164437,42.79499865590333 102.02922319516074,42.942788520100294 101.78127952502109,42.827840863275924 101.58553452225169,42.68005086116318 101.35064051899826,42.515839539744775 101.15489551622886,42.59794522776792 100.92000151285902,42.61436635885184 100.69815717637539,42.696471981253126 100.68510750954738,42.92636743281764 100.69815717637539,43.172683511940704 100.47631283994997,43.320472922961926 100.24141883663833,43.40257807473972 99.96737583278446,43.48468317173683 99.69333282893058,43.50110418453551 99.64113416150212,43.287630846993125 99.69333282893058,43.057736069647945 99.78468049690127,42.72931421489193 99.87602816487197,42.46657610061084 99.92822683224222,42.10531027834077 99.98042549967067,41.727622149432136 99.94127649907023,41.44846061417775 99.88907783169998,41.0543491342396 99.73248182947282,40.857292921420594 99.43233949196292,40.890135645466216 99.2235448223073,40.7423433183576 99.18439582176507,40.610972212023626 99.15829648805084,40.39749386544281 99.15829648805084,40.184015148894105 99.04084948642412,40.08548638564389 98.87120381731074,40.06906491747213 98.68850848142756,40.05264344708121 98.59716081351507,40.13475077714975 98.6232601471711,40.41391528987151 98.6363098139991,40.725921937708335 98.6363098139991,41.037927795230644 98.66240914771333,41.33351156277058 98.67545881459955,41.66193713922985 98.67545881459955,42.00678305204201 98.67545881459955,42.30236449459335 98.67545881459955,42.59794522776792 98.67545881459955,42.87710415790207 98.68850848142756,43.172683511940704 98.70155814831378,43.48468317173683 98.71460781514179,43.71457715217548 98.70155814831378,43.92804974984756 98.68850848142756,44.12510105007823 98.67545881459955,44.387835626723245 98.64935948088532,44.617727921569895 98.6363098139991,44.76551559877407 98.61021048028488,45.0118280001916 98.58411114662886,45.225298349665536 98.58411114662886,45.455189081520075 98.58411114662886,45.70150010384532 98.58411114662886,45.99707268047496 98.58411114662886,46.325485822715564 98.57106147980085,46.637477496798965 98.58411114662886,46.93304782757332 98.58411114662886,47.22861744916736 98.61021048028488,47.5241863615156 98.6232601471711,47.85259543236316 98.61021048028488,48.098901660880074 98.61021048028488,48.394468485079415 98.58411114662886,48.62435330248991 98.59716081351507,48.85423769088811 98.54496214608662,49.10054191665404 98.59716081351507,49.363265881329426 98.6363098139991,49.60956908935623 98.67545881459955,49.905132288906316 98.71460781514179,50.20069477931975 98.75375681568403,50.561936860132846 98.84510448365472,50.923177881602896 98.936452151509,51.267997868490056 99.04084948642412,51.497877323527064 99.14524682122283,51.80985589783813 99.24964415602153,52.10541381834628 99.36709115764825,52.351711543764395 99.43233949196292,52.46665031376324 99.51063749298919,52.68010774499999 99.62808449467411,52.90998456498346 99.68028316210257,53.15628068178921 99.71943216264481,53.28763840945612 99.8107798305573,53.45183537205594 99.95432616589824,53.56677311559906 100.03262416704092,53.74738935320056 100.15007116872584,53.89516607784026 100.26751817035256,54.09220143502898 100.35886583826505,54.28923647708143 100.54156117414823,54.469851655383536 100.72425651020603,54.68330561569746 100.893902179203,54.929598187191004 101.06354784825817,55.17589026641508 101.22014385042712,55.405762429363676 101.28539218468359,55.52069834998838 101.38978951948229,55.75056986958225 101.55943518853746,56.01327965247765 101.71603119076462,56.21031162200234 101.89872652670601,56.52227826264425 102.02922319516074,56.71930941815663 102.18581919744611,56.998436349058466 102.34241519961506,57.261143470990646 102.485961534956,57.507430889039824 102.6817065377254,57.81939424511802 102.83830253995256,58.082099616513005 103.02099787583575,58.361223459818575 103.20369321177714,58.640346670705185 103.3733388807741,58.91946924926742 103.5690838835435,59.24784794385778 103.72567988577066,59.49413139036915 103.93447455536807,59.806089715930284 104.07802089070901,60.052372046564415 104.19546789239394,60.2658163348533 104.3520638946211,60.49567900106922 104.50865989684826,60.758378665850614 104.67830556590343,61.02107777052879 104.80880223441636,61.23452038063988 104.96539823664352,61.48079985591903 105.1480935724685,61.72707883890689 105.33078890840989,61.989775878093496 105.47433524375083,62.252472357264196 105.60483191220555,62.498749797727214 105.77447758131893,62.81070051565621 105.95717291720212,63.1062320462006 106.11376891948748,63.3689261449108 106.28341458848445,63.66445633648982 106.50525892490987,63.99282238463638 106.67490459402325,64.25551459307462 106.81845092936419,64.46895160003623 106.97504693153314,64.74806097436522 107.14469260064652,65.0271697163771 107.31433826964349,65.33911403278762 107.49703360558487,65.65105755950208 107.64057994092582,65.93016425601672 107.78412627632497,66.22568830441014 107.92767261166591,66.53762958656444 108.03206994646462,66.8331521780492 108.1103679475491,67.1615097816466 108.14951694814954,67.34210609066213 108.04511961335083,67.47344869458175 107.99292094592238,67.58837335822318 108.07121894700686,67.5062843236883 108.20171561546158,67.48986651025916 108.29306328349048,67.703297914617 108.37136128457496,67.96598221242311 108.47575861937366,68.24508366532973 108.59320562105859,68.55701983511972 108.71065262274351,68.88537284491758 108.815049957484,69.21372497975244 108.9063976254547,69.4599885066782 108.9977452934254,69.7390865755151 109.11519229505211,70.0181840121586 109.21958962985082,70.28086337514833 109.32398696464952,70.5435421781076 109.402284965734,70.77338567135303 109.45448363322066,71.0032287358772 109.53278163430514,71.28232330932951 109.63717896910384,71.56141725060297 109.74157630390255,71.87334502518934 109.83292397187324,72.15243762789032 109.92427163978573,72.41511244117282 110.02866897458443,72.72703805475612 110.10696697566891,72.95687747528427 110.23746364424005,73.26880171748053 110.34186097903876,73.53147415108106 110.44625831383746,73.810562998362 110.56370531546418,74.1060681476738 110.66810265026288,74.35232189743692 110.75945031829178,74.58215828659013 110.83774831937626,74.81199424704391 110.96824498783099,75.02541296937852 111.02044365525944,75.14033058984205 111.05959265585989,75.30449843313545 111.02044365525944,75.53433304642385 110.86384765303228,75.56716652755131 110.70725165080512,75.37016550925182 110.55065564857796,75.15674738399684 110.34186097903876,74.8612447542182 110.10696697566891,74.58215828659013 109.83292397187324,74.27023736885894 109.55888096796116,74.05681733864913 109.33703663153574,73.810562998362 109.07604329450987,73.56430816595821 108.86724862497067,73.3016358022578 108.64540428842884,73.10463116211031 108.38441095146118,72.85837491896382 108.13646728126332,72.61211818372249 107.87547394423746,72.36586095633538 107.64057994092582,72.11960323684616 107.39263627078617,71.87334502518934 107.13164293381851,71.65992084368918 106.85759992990643,71.46291357882001 106.57050725922454,71.33157522723923 106.2312159211142,71.23307137167285 105.89192458294565,71.16740209094132 105.57873257854953,71.13456743743154 105.26554057415342,71.05248076539283 104.97844790341333,70.98681138834945 104.66525589901721,70.92114197633782 104.3520638946211,70.87188989436254 104.03887189016677,70.83905516211962 103.6604315515724,70.72413353033335 103.43858721503057,70.65846397833229 103.28199121286161,70.62562918913318 103.09929587697843,70.59279439130478 102.90355087420903,70.5435421781076 102.69475620455341,70.52712476935994 102.51206086867023,70.49428994516347 102.32936553272884,70.46145511231589 102.14667019678745,70.42862027070805 101.93787552724825,70.37936799184536 101.74213052447885,70.3301156933303 101.54638552170945,70.26444593134511 101.37673985265428,70.21519358688965 101.02439884771593,70.05101896317501 100.69815717637539,69.91967910672975 100.34581617149524,69.80475661747914 100.1109221681254,69.75550408930576 99.78468049690127,69.65699897383456 99.47148849244695,69.5584937796084 99.13219715433661,69.4599885066782 98.79290581628447,69.36148315495666 98.44056481128791,69.26297772450198 98.19262114109006,69.16447221528506 97.78808146872325,69.09880183210771 97.4487901306129,68.9346257209254 97.16169745987281,68.83611994922103 96.96595245716162,68.77044939104235 96.69190945330774,68.65552582995588 96.36566778202541,68.57343750637665 96.06552544451552,68.40926069523994 95.73928377317498,68.21224823311059 95.43914143560687,68.01523545594682 95.15204876486678,67.76896904156456 94.93020442849956,67.48986651025916 94.72140975884395,67.21076334664394 94.65616142458748,66.98091320793174 94.56481375661679,66.76748055225471 94.43431708804565,66.55404752689356 94.31687008647714,66.35703209843632 94.1863734179642,66.16001635495195 94.05587674950948,65.86449214902677 93.88623108045431,65.55254916268314 93.71658541134093,65.20776915375609 93.55998940911377,64.83015184642863 93.36424440640258,64.4525333818383 93.16849940363318,64.04207721637795 92.998853734578,63.74654793055379 92.85530739917886,63.43459958208405 92.6987113969517,63.08981364640931 92.52906572795473,62.69577139570174 92.34637039207155,62.30172788467462 92.15062538930215,61.92410167082562 91.96793005336076,61.53005569184461 91.78523471747758,61.16884577078599 91.58948971470818,60.807634790638986 91.43289371248102,60.43000399733137 91.25019837653963,60.052372046564415 91.10665204119869,59.740414344647434 90.93700637214351,59.36278028014931 90.78041036997456,59.06723977014917 90.66296336828964,58.837374438859115 90.58466536720516,58.525413660485356 90.44111903186422,58.14777587181743 90.34977136383532,57.78655603432708 90.27147336286725,57.39249682186346 90.20622502849437,57.09695158540126 90.16707602801034,56.768567157800135 90.1148773606401,56.35808539240679 90.08877802686766,56.02969899534219 90.04962902632542,55.619214768077654 89.99743035895517,55.29082640150591 89.95828135841293,54.9460176744833 89.97133102524094,54.6012079823704 89.9321820246987,54.223558164689166 89.94523169152671,53.878746450543986 89.97133102524094,53.55035344452335 89.95828135841293,53.205539846094325 89.95828135841293,52.860725282538624 89.86693369050045,52.46665031376324 89.81473502307199,52.10541381834628 89.78863568929955,51.71133643338544 89.76253635558533,51.39935760958906 89.74948668881552,51.021697976393625 89.71033768821508,50.742557503246644 89.64508935395861,50.43057622602646 89.65813902078662,50.003653197869426 89.7364370219293,49.65882967184734 89.76253635558533,49.28116470255918 89.76253635558533,49.05128111090016 89.77558602247154,48.804976786610496 89.80168535618577,48.69003460006934 89.74948668881552,48.42730919953465 89.71033768821508,48.11532205858384 89.68423835450085,47.786913688229106 89.65813902078662,47.45850444227108 89.64508935395861,47.19577641511569 89.60594035341637,46.81810389432212 89.5276423523319,46.424009594658855 89.51459268544568,46.04633470761473 89.48849335178966,45.65223793876066 89.46239401801722,45.38950605908758 89.42324501747498,45.0118280001916 89.37104635010473,44.71625305945054 89.37104635010473,44.50278182778129 89.38409601699095,44.15794290278427 89.38409601699095,43.829523981497914 89.37104635010473,43.50110418453551 89.3318973495625,43.22194666862924 89.27969868219225,42.87710415790207 89.25359934847802,42.54868182152131 89.26664901530603,42.187416240114544 89.29274834902026,41.89183452173165 89.25359934847802,41.51414573819784 89.20140068099136,41.20214108701475 89.17530134733533,40.840871556138154 89.17530134733533,40.54528660637152 89.20140068099136,40.4303367121247 89.21445034787757,40.21685805244488 89.17530134733533,39.98695754366781 89.16225168050732,39.69137054464227 89.11005301307887,39.41220439421886 89.03175501199439,39.05092961328046 89.01870534510817,38.68965377256245 89.00565567828016,38.34479857249971 89.00565567828016,38.032785892806714 88.97955634456594,37.60581989237107 88.9404073440819,37.35949268036347 88.9404073440819,37.01463375594176" stroke="#4DD2FF" stroke-dasharray="none" stroke-linecap="round" stroke-linejoin="round" stroke-width="0.5"><title>2017-11-19 11.8km</title><desc>9223370525802103807</desc></polyline><polyline fill="none" opacity="0.5" points="187.42415196751244,60.3941813147394 187.48276797845028,61.08917960344115 187.5999999998603,62.06217590958113 187.5999999998603,62.8266719445819 187.54138398938812,63.73016605316661 187.5999999998603,64.425160632818 187.5999999998603,65.53715035278583 187.5999999998603,66.0236452333047 187.36553595680743,66.92713472119067 187.07245590235107,67.90012193983421 185.95875169616193,68.10861900402233 185.255359566072,68.17811800987693 184.4933514248114,67.96962096903007 183.49687924026512,68.10861900402233 182.55902306665666,68.10861900402233 181.62116689281538,68.17811800987693 180.56607869756408,68.10861900402233 179.8040705563035,67.96962096903007 178.9834464045707,67.96962096903007 178.22143826354295,67.96962096903007 177.3421981006395,67.76112385862507 176.52157394844107,66.99663385830354 175.5837177745998,66.92713472119067 174.82170963380486,66.85763557621976 173.88385345996358,66.57963891886175 173.1218453189358,66.7186372630531 172.3012211669702,66.64913809474092 171.36336499336176,66.7186372630531 170.54274084139615,66.51013973512454 169.6635006784927,66.64913809474092 168.72564450465143,66.78813642339082 167.72917232010514,66.44064054382034 166.90854816813953,66.30164213792887 166.20515603781678,66.16264370107092 165.384531886084,66.16264370107092 164.62252374505624,65.88464673480485 163.7432835821528,65.88464673480485 162.9226594301872,65.74564820510568 162.21926729986444,65.95414598792559 160.98833107203245,65.39815174596151 159.99185888725333,65.25915310822893 159.05400271364488,65.18965377786662 157.99891451839358,65.25915310822893 157.58860244229436,65.32865243108245 156.47489823610522,65.60664964455646 155.0681139754597,64.98115574021358 154.07164179091342,64.14716289372882 153.19240162800997,64.35566120949807 152.19592944346368,64.00816397793824 151.3166892810259,63.869165030890144 150.61329715070315,64.00816397793824 149.9099050203804,63.7996655459865 149.20651289005764,63.52166752866469 148.3272727271542,63.59116704465123 147.56526458612643,63.938664508285 146.27571234712377,63.52166752866469 145.57232021703385,63.1046702710446 145.22062415187247,62.34017457580194 144.75169606506824,61.575677945744246 144.6930800541304,60.463681178574916 144.81031207600608,59.49068238417385 144.81031207600608,58.378681907604914 144.6930800541304,57.40567986789392 144.6930800541304,56.0851746769622 144.51723202154972,55.39017082436476 144.39999999990687,54.34766359644709 144.6344640434254,53.37465528177563 144.6344640434254,52.540646949375514 144.8689280867111,51.845639155537356 144.6930800541304,50.942127868242096 144.98616010835394,49.96911425224971 144.92754409764893,48.92659798276145 145.10339213022962,48.30108738626586 145.16200814116746,47.05006431584479 145.10339213022962,45.93804170633666 145.16200814116746,44.9650203002966 145.22062415187247,44.20050241862191 145.39647218445316,43.296980080136564 145.57232021703385,42.32395456265658 145.39647218445316,41.3509275301476 145.39647218445316,40.65590729378164 145.27924016257748,39.821881990123075 145.39647218445316,40.65590729378164 145.39647218445316,41.3509275301476 145.57232021703385,42.32395456265658 145.39647218445316,43.296980080136564 145.22062415187247,44.20050241862191 145.16200814116746,44.9650203002966 145.10339213022962,45.93804170633666 145.16200814116746,47.05006431584479 145.10339213022962,48.30108738626586 144.92754409764893,48.92659798276145 144.98616010835394,49.96911425224971 144.6930800541304,50.942127868242096 144.8689280867111,51.845639155537356 144.6344640434254,52.540646949375514 144.6344640434254,53.37465528177563 144.39999999990687,54.34766359644709 144.51723202154972,55.39017082436476 144.6930800541304,56.0851746769622 144.6930800541304,57.40567986789392 144.81031207600608,58.378681907604914 144.81031207600608,59.49068238417385 144.6930800541304,60.463681178574916 144.75169606506824,61.575677945744246 145.22062415187247,62.34017457580194 145.57232021703385,63.1046702710446 146.27571234712377,63.52166752866469 147.56526458612643,63.938664508285 148.3272727271542,63.59116704465123 149.20651289005764,63.52166752866469 149.9099050203804,63.7996655459865 150.61329715070315,64.00816397793824 151.3166892810259,63.869165030890144 152.19592944346368,64.00816397793824 153.19240162800997,64.35566120949807 154.07164179091342,64.14716289372882 155.0681139754597,64.98115574021358 156.47489823610522,65.60664964455646 157.58860244229436,65.32865243108245 157.99891451839358,65.25915310822893 159.05400271364488,65.18965377786662 159.99185888725333,65.25915310822893 160.98833107203245,65.39815174596151 162.21926729986444,65.95414598792559 162.9226594301872,65.74564820510568 163.7432835821528,65.88464673480485 164.62252374505624,65.88464673480485 165.384531886084,66.16264370107092 166.20515603781678,66.16264370107092 166.90854816813953,66.30164213792887 167.72917232010514,66.44064054382034 168.72564450465143,66.78813642339082 169.6635006784927,66.64913809474092 170.54274084139615,66.51013973512454 171.36336499336176,66.7186372630531 172.3012211669702,66.64913809474092 173.1218453189358,66.7186372630531 173.88385345996358,66.57963891886175 174.82170963380486,66.85763557621976 175.5837177745998,66.92713472119067 176.52157394844107,66.99663385830354 177.3421981006395,67.76112385862507 178.22143826354295,67.96962096903007 178.9834464045707,67.96962096903007 179.8040705563035,67.96962096903007 180.56607869756408,68.10861900402233 181.62116689281538,68.17811800987693 182.55902306665666,68.10861900402233 183.49687924026512,68.10861900402233 184.4933514248114,67.96962096903007 185.255359566072,68.17811800987693 185.95875169616193,68.10861900402233 187.07245590235107,67.90012193983421 187.36553595680743,66.92713472119067 187.5999999998603,66.0236452333047 187.5999999998603,65.53715035278583 187.5999999998603,64.425160632818 187.54138398938812,63.73016605316661 187.5999999998603,62.8266719445819 187.5999999998603,62.06217590958113 187.48276797845028,61.08917960344115 187.42415196751244,60.3941813147394 187.5999999998603,59.83818212756887 187.36553595680743,59.00418241909938 187.42415196751244,58.309181812102906 187.42415196751244,57.127679006778635 187.42415196751244,56.36317600152688 187.42415196751244,55.04266860813368 187.36553595680743,54.55616518104216 187.36553595680743,53.72215842513833" stroke="#4DD2FF" stroke-dasharray="1,0.5" stroke-linecap="round" stroke-linejoin="round" stroke-width="0.5"><title>2014-03-22 10.5km</title><desc>9223370641410674807</desc></polyline><polyline fill="none" opacity="1" points="55.600000000034925,99.26836357555294 55.46542056079488,99.26836357555294 55.350066755723674,99.25666447490221 55.205874499399215,99.26836357555294 55.061682243074756,99.24496537287632 54.927102803776506,99.26836357555294 54.792523364536464,99.31515996388771 54.66755674238084,99.31515996388771 54.54259012022521,99.39705358895299 54.398397863900755,99.42045175479143 54.263818424602505,99.38535450390918 54.119626168278046,99.36195632958697 53.99465954612242,99.35025724029401 53.88891855813563,99.40875267256342 53.75433911889559,99.38535450390918 53.63898531382438,99.36195632958697 53.504405874584336,99.38535450390918 53.369826435286086,99.36195632958697 53.27369826438371,99.29176177254703 53.16795727645513,99.2800626747703 53.042990654241294,99.29176177254703 52.91802403208567,99.32685905742255 52.77383177576121,99.32685905742255 52.65847797069,99.33855814956041 52.533511348534375,99.29176177254703 52.37970627506729,99.3034608689486 52.2739652870805,99.31515996388771 52.120160213671625,99.31515996388771 51.98558077443158,99.31515996388771 51.87983978644479,99.31515996388771 51.735647530062124,99.31515996388771 51.610680907964706,99.3034608689486 51.49532710283529,99.29176177254703 51.37997329776408,99.2800626747703 51.26461949269287,99.26836357555294 51.13965287053725,99.3034608689486 51.01468624838162,99.3034608689486 50.889719626226,99.29176177254703 50.76475300407037,99.26836357555294 50.63978638185654,99.24496537287632 50.55327102803858,99.24496537287632 50.40907877177233,99.24496537287632 50.27449933247408,99.26836357555294 50.149532710318454,99.26836357555294 50.02456608816283,99.25666447490221 49.889986648922786,99.22156716456084 49.77463284385158,99.24496537287632 49.649666221637744,99.24496537287632 49.49586114828708,99.23326626943162 49.390120160300285,99.19816895056283 49.2363150868332,99.18646984142833 49.09212283050874,99.22156716456084 48.93831775704166,99.22156716456084 48.82296395197045,99.23326626943162 48.67877169564599,99.22156716456084 48.56341789057478,99.22156716456084 48.42883845133474,99.23326626943162 48.32309746334795,99.22156716456084 48.198130841134116,99.20986805825669 48.0731642190367,99.23326626943162 47.948197596822865,99.22156716456084 47.82323097466724,99.22156716456084 47.717489986738656,99.24496537287632 47.582910547498614,99.25666447490221 47.477169559453614,99.25666447490221 47.35220293729799,99.25666447490221 47.188785046804696,99.24496537287632 47.083044058817904,99.24496537287632 46.92923898535082,99.24496537287632 46.84272363159107,99.24496537287632 46.71775700937724,99.24496537287632 46.59279038722161,99.23326626943162 46.46782376506599,99.24496537287632 46.333244325825945,99.20986805825669 46.217890520754736,99.20986805825669 46.07369826443028,99.19816895056283 45.939118825190235,99.19816895056283 45.8141522029764,99.18646984142833 45.70841121498961,99.18646984142833 45.57383177574957,99.22156716456084 45.42002670234069,99.24496537287632 45.304672897269484,99.22156716456084 45.17009345802944,99.20986805825669 45.04512683581561,99.19816895056283 44.9297730307444,99.17477073086047 44.775967957335524,99.19816895056283 44.660614152264316,99.17477073086047 44.51642189588165,99.16307161892473 44.38184245664161,99.16307161892473 44.247263017401565,99.19816895056283 44.12229639524594,99.18646984142833 43.968491321778856,99.15137250557018 43.824299065512605,99.12797427456826 43.69933244329877,99.11627515692817 43.56475300405873,99.08117779556778 43.43017356476048,99.09287691742793 43.31481975974748,99.10457603790564 43.189853137591854,99.12797427456826 43.07449933246244,99.13967339078954 42.94953271036502,99.18646984142833 42.82456608815119,99.18646984142833 42.689986648911145,99.17477073086047 42.56502002675552,99.16307161892473 42.45927903876873,99.15137250557018 42.3343124166131,99.17477073086047 42.20934579445748,99.16307161892473 42.09399198938627,99.18646984142833 41.9497997330036,99.15137250557018 41.80560747667914,99.17477073086047 41.69986648869235,99.15137250557018 41.56528704945231,99.15137250557018 41.44032042729668,99.15137250557018 41.33457943930989,99.11627515692817 41.20000000006985,99.09287691742793 41.05580774374539,99.10457603790564 40.911615487362724,99.11627515692817 40.767423231038265,99.09287691742793 40.652069425967056,99.10457603790564 40.517489986727014,99.10457603790564 40.373297730402555,99.09287691742793 40.24833110818872,99.09287691742793 40.1233644860331,99.10457603790564 39.97917222965043,99.11627515692817 39.84459279041039,99.13967339078954 39.72923898533918,99.10457603790564 39.60427236324176,99.06947867228882 39.46969292394351,99.08117779556778 39.34472630178789,99.05777954756923 39.21014686248964,99.06947867228882 39.094793057476636,99.09287691742793 38.97943925240543,99.06947867228882 38.844859813165385,99.0460804214672 38.70066755678272,99.0460804214672 38.58531375171151,99.0460804214672 38.441121495328844,99.0226821649776 38.344993324484676,98.99928390282003 38.22002670227084,98.99928390282003 38.08544726308901,98.99928390282003 37.98931909218663,99.0226821649776 37.84512683580397,99.01098303459003 37.710547396563925,99.0226821649776 37.5855807744083,99.05777954756923 37.44138851808384,99.05777954756923 37.3068090788438,99.06947867228882 37.21068090794142,99.03438129393908 37.076101468643174,99.03438129393908 36.951134846545756,99.03438129393908 36.845393858558964,99.01098303459003 36.69158878509188,99.03438129393908 36.566622162936255,99.0226821649776 36.41281708946917,99.01098303459003 36.287850467371754,99.0226821649776 36.19172229646938,99.01098303459003 35.95140186918434,99.0226821649776 35.67263017361984,99.01098303459003 35.46114819764625,98.97588563500176 35.24005340458825,98.97588563500176 34.80747663555667,99.03438129393908 34.538317757076584,98.96418649897532 34.36528704944067,98.94078822262236 34.02883845131146,98.96418649897532 33.865420560818166,98.91738994065963 33.71161548735108,98.90569079756096 33.423230974702165,98.95248736150097 33.144459279079456,98.98758476962394 32.894526034768205,99.09287691742793 32.69265687587904,99.06947867228882 28.895594125555363,98.85889421089087 28.674499332497362,98.85889421089087 28.434178905270528,98.8237967560708 28.116955941310152,98.90569079756096 27.867022696940694,98.83549590910116 27.607476635603234,98.78869928845961 27.26141522038961,98.78869928845961 24.14686248335056,98.75360180813732 23.916154873208143,98.77700012974674 23.60854472639039,98.75360180813732 23.38744993333239,98.71850431501662 23.137516688962933,98.62491093778226 22.839519359229598,98.7068051478127 22.522296395269223,98.71850431501662 22.301201602153014,98.73020348078717 19.81148197600851,98.6951059792118 19.484646194963716,98.6951059792118 19.321228304470424,98.6951059792118 19.157810413918924,98.71850431501662 19.10974632849684,98.66000846488168 18.96555407217238,98.67170763772447 18.63871829112759,98.68340680919209 18.513751668971963,98.61321175926423 18.254205607518088,98.58981339798629 18.042723631602712,98.61321175926423 17.840854472655337,98.61321175926423 17.69666221633088,98.57811421520455 16.668090787774418,98.60151257932739 16.370093458041083,98.61321175926423 16.139385847840458,98.5313174699113 15.918291054782458,98.57811421520455 15.572229639568832,98.56641503098217 15.341522029426415,98.60151257932739 15.120427236368414,98.64830929062009 14.860881174972747,98.58981339798629 14.591722296434455,98.56641503098217 14.361014686292037,98.55471584539191 14.053404539416078,98.5313174699113 13.870761014753953,98.5313174699113 13.659279038780369,98.54301665834646 13.197863818495534,98.56641503098217 13.005607476690784,98.46112230951258 12.986381842463743,98.73020348078717 13.0152202937752,98.94078822262236 13.053671562171075,99.11627515692817 12.967156208353117,99.31515996388771 12.851802403281908,99.33855814956041 12.871028037450742,99.03438129393908 12.669158878561575,99.0460804214672 12.505740988068283,99.22156716456084 12.438451268419158,99.36195632958697 12.419225634250324,99.5491415656652 12.467289719672408,99.87671485633473 12.486515353841241,100.12239409566246 12.601869158970658,100.47336335404543 12.611481976055074,100.7073421515015 12.669158878561575,100.97641706818831 12.697997329873033,101.21039464764908 12.755674232379533,101.37417861617723 12.784512683632784,101.60815523257043 12.784512683632784,101.8772276410964 12.803738317801617,102.14629930047522 12.851802403281908,102.42706892886054 12.851802403281908,102.69613905733422 12.861415220366325,102.96520843662438 12.880640854535159,103.23427706680377 12.861415220366325,103.47994777050917 12.861415220366325,103.78411063367093 12.813351134944241,104.00638288982009 12.832576769113075,104.31054409612261 12.813351134944241,104.49771974732721 12.851802403281908,104.76678411078319 12.842189586197492,105.01245091883902 12.813351134944241,105.21132359182957 12.82296395197045,105.4101958555475" stroke="#4DD2FF" stroke-dasharray="none" stroke-linecap="round" stroke-linejoin="round" stroke-width="0.5"><title>2013-12-10 10.9km</title><desc>9223370650177580807</desc></polyline><polyline fill="none" opacity="1" points="109.94389590155333,104.30409679980949 110.41741475462914,101.42409784393385 110.18065532762557,96.81609227391891 110.41741475462914,94.51208614767529 110.65417417977005,91.34407408395782 110.41741475462914,88.75206108158454 108.99685819726437,85.58404135890305 105.91898565553129,83.56802661530674 102.13083483558148,81.26400767685845 98.81620286870748,81.26400767685845 96.44860860612243,82.41601742431521 93.37073606532067,84.43203314347193 91.23990122880787,88.75206108158454 91.23990122880787,92.20807779114693 90.05610409844667,96.24009095155634 89.58258524537086,98.83209580765106 88.63554754015058,102.86409775703214 88.87230696715415,106.60809345706366 88.16202868893743,109.48808614583686 88.16202868893743,113.23207143717445 88.16202868893743,116.11205611890182 89.34582581929862,118.41604135814123 91.71342008188367,121.87201503920369 94.55453319568187,123.0240051522851 98.342684016563,123.60000000009313 101.89407540857792,122.44801016617566 103.78815081901848,119.85603100107983 106.39250450860709,117.55204715509899 108.04982049111277,113.5200700617861 108.04982049111277,110.35208327439614 109.23361762333661,106.32009399682283 109.7071364754811,103.15209763473831 110.41741475462914,99.40809650393203 111.3644524589181,95.08808788773604 111.3644524589181,92.49607895803638 111.12769303377718,88.17605780856684 109.94389590155333,84.72003524936736 108.52333934418857,82.41601742431521 105.20870737731457,81.55201016599312 102.84111311472952,80.97600515326485 99.05296229477972,81.26400767685845 95.97508975397795,82.99202209012583 92.89721721317619,85.87204332626425 90.52962294965982,89.04006266547367 90.2928635245189,92.7840800897684 89.8193446714431,96.24009095155634 89.34582581929862,99.69609679933637 88.63554754015058,102.86409775703214 88.63554754015058,106.60809345706366 88.16202868893743,110.35208327439614 88.63554754015058,114.09606720716693 89.10906639229506,117.55204715509899 91.23990122880787,119.85603100107983 94.08101434446871,121.58401742414571 97.39564631134272,122.44801016617566 101.18379713129252,122.16001262003556 104.97194795124233,119.56803314271383 107.33954221289605,117.26404901780188 108.04982049111277,112.94407277810387 108.76009877026081,108.91208788729273 109.23361762333661,104.592096503824 109.7071364754811,101.13609775644727 110.41741475462914,97.96809450234286 111.83797131106257,93.93608426698484 111.3644524589181,90.48007006337866 111.3644524589181,87.02405084599741 109.94389590155333,84.14403100195341 107.57630163896829,81.84001261997037 104.49842909816653,80.39999999990687" stroke="#4DD2FF" stroke-dasharray="none" stroke-linecap="round" stroke-linejoin="round" stroke-width="0.5"><title>2013-11-30 10.3km</title><desc>9223370651086224807</desc></polyline><polyline fill="none" opacity="1" points="178.44118379987776,94.98353115888312 177.762573774904,89.48032283014618 175.72674369905144,86.45355257811025 174.8219303302467,83.42677830182947 173.01230359636247,82.6012937091291 170.2978634936735,83.15161680453457 168.2620334168896,83.15161680453457 165.32138997409493,82.6012937091291 162.1545431893319,82.6012937091291 162.38074653036892,83.7019397658296 160.34491645358503,85.07774658850394 156.27325630094856,88.93000126630068 157.17806966789067,92.23192865797319 156.49945964291692,95.80901126144454 156.27325630094856,100.76188558526337 156.49945964291692,104.06379581429064 153.55881619919091,107.36570125445724 154.46362956706434,109.8421271899715 155.82084961794317,112.31855043233372 155.82084961794317,116.17075901036151 156.49945964291692,118.37201812700368 157.40427300985903,119.47264688764699 159.44010308664292,122.22421646025032 162.83315321430564,122.22421646025032 166.67861002590507,123.60000000009313 167.58342339284718,121.6739028126467 171.20267686247826,119.74780399515294 174.8219303302467,115.89560147118755 175.72674369905144,114.51981327589601 177.53637043293566,112.04339242749847 176.85776040703058,106.8153840135783 176.17915038205683,105.71474913298152 176.4053537240252,101.86252286075614 177.762573774904,96.90965093066916 177.762573774904,95.80901126144454 176.17915038205683,92.78224942437373 178.44118379987776,90.30580492829904 176.85776040703058,89.20516206463799 175.2743370141834,86.72871367656626 173.23850693926215,83.7019397658296 171.4288802035153,83.15161680453457 168.4882367597893,80.4000000001397 163.9641699232161,82.6012937091291 160.79732313752174,85.90323028201237 157.85667969379574,88.93000126630068 156.72566298395395,90.85612616012804 156.49945964291692,95.25869122636504 158.0828830357641,99.38608824228868 156.27325630094856,102.96315960329957 155.36844293307513,105.43959032977 156.0470529589802,107.64085982413962 155.1422395920381,110.6676019039005 155.36844293307513,113.69433995871805 155.36844293307513,117.27138883504085 157.40427300985903,118.64717536675744 160.118713112548,120.57327511627227 163.5117632402107,121.94905965286307 166.4524066830054,122.77452997583896 169.61925346869975,122.22421646025032 172.3336935704574,120.02296106843278 174.8219303302467,117.27138883504085 176.4053537240252,113.41918211965822 176.63155706506222,110.3924436995294 176.85776040703058,107.36570125445724 176.85776040703058,104.06379581429064 176.17915038205683,100.76188558526337 176.85776040703058,97.45997056690976 177.08396374993026,94.70837105903774 177.98877711594105,91.40644725854509 177.53637043293566,88.37967956834473 176.17915038205683,85.62806908367202 174.3695236472413,83.7019397658296 172.3336935704574,82.87645527347922 169.16684678569436,82.05097048147582 166.4524066830054,82.05097048147582 163.28555989731103,83.7019397658296 161.47593316342682,84.25226259441115 159.44010308664292,86.45355257811025 157.85667969379574,88.37967956834473 157.63047635182738,91.40644725854509 156.72566298395395,95.25869122636504 157.17806966789067,98.28544977051206 156.49945964291692,102.13768209633417 156.49945964291692,104.06379581429064 156.0470529589802,108.46633533574641 154.68983290810138,112.31855043233372 155.1422395920381,116.17075901036151 156.49945964291692,118.09686085442081 160.34491645358503,119.19748974777758 163.5117632402107,121.3987459379714 166.67861002590507,121.3987459379714 170.07166015263647,119.74780399515294 172.3336935704574,118.09686085442081 174.14332030527294,115.07012865296565 175.72674369905144,111.21791821252555 175.50054035615176,107.64085982413962 176.17915038205683,104.33895478351042 176.17915038205683,100.76188558526337 176.85776040703058,97.45997056690976 177.08396374993026,93.6077303243801 178.21498045884073,89.48032283014618 177.08396374993026,87.55419677193277 175.04813367314637,85.62806908367202 172.3336935704574,83.97710119653493 168.2620334168896,82.87645527347922 164.64277994912118,83.15161680453457 161.9283398464322,84.80258529004641 159.21389974374324,87.27903577359393 158.0828830357641,90.0306442619767 157.63047635182738,92.78224942437373 156.49945964291692,96.90965093066916 156.72566298395395,100.21156674809754 156.72566298395395,102.41284129838459 156.27325630094856,105.9899079024326 156.27325630094856,110.11728546163067 155.5946462759748,113.41918211965822 156.72566298395395,116.17075901036151 158.0828830357641,119.19748974777758 161.02352648042142,121.6739028126467 163.73796658124775,122.77452997583896" stroke="#4DD2FF" stroke-dasharray="none" stroke-linecap="round" stroke-linejoin="round" stroke-width="0.5"><title>2013-11-16 10.4km</title><desc>9223370652294258807</desc></polyline><polyline fill="none" opacity="1" points="43.973089036531746,161.53979412838817 44.459581185132265,157.69323389837518 45.18931940756738,154.73433729959652 45.43256548140198,150.88776637450792 46.162303702905774,147.04118940443732 46.162303702905774,144.08227993012406 45.43256548140198,139.3480173314456 45.67581155523658,135.7973143735435 43.48659688886255,134.31785328662954 40.810890073888004,130.4712502779439 38.37842933367938,129.58357180282474 30.59455496352166,128.99178597261198 27.675602074712515,131.06303575029597 25.97287955507636,134.61374557600357 22.81068059336394,138.16445025079884 24.27015703730285,141.12336687929928 23.297172740101814,144.6740621116478 23.297172740101814,150.88776637450792 22.81068059336394,154.43844744330272 23.053926666267216,160.06034860108048 22.56743451859802,163.6110163643025 23.540418814867735,166.5699022328481 24.99989525973797,168.64112021238543 29.135078518651426,170.71233643963933 34.0,171.60000000009313 38.37842933367938,171.30411218269728 39.35141362901777,169.52878452418372 42.02712044399232,167.1616789775435 42.27036651875824,163.01923876185901 42.27036651875824,160.35623777890578 43.24335081502795,155.32611690624617 45.18931940756738,150.29598569567315 45.43256548140198,146.1535169382114 45.919057629071176,142.89871513913386 45.67581155523658,138.75623386260122 45.919057629071176,135.7973143735435 44.70282725803554,132.5424988034647 40.56764399912208,129.879464663798 36.91895288974047,128.99178597261198 33.270261778496206,128.99178597261198 29.378324592486024,130.4712502779439 26.7026177784428,132.24660626379773 25.486387407407165,136.38909855671227 23.783664888702333,141.12336687929928 23.783664888702333,144.08227993012406 23.540418814867735,146.74529861821793 22.81068059336394,150.88776637450792 23.053926666267216,154.73433729959652 22.81068059336394,157.69323389837518 23.053926666267216,162.72334990650415 24.02691096253693,165.09045974630862 26.459371704608202,167.1616789775435 31.081047111190856,171.00822432967834 34.972984296269715,171.00822432967834 38.62167540658265,169.82467255694792 40.810890073888004,168.64112021238543 43.48659688886255,165.38634831481613 44.216335110366344,162.72334990650415 43.973089036531746,158.58090218016878 44.459581185132265,153.8466676226817 45.43256548140198,150.88776637450792 46.162303702905774,147.33708015549928 46.162303702905774,143.7863887862768 46.405549777671695,139.64390901243314 45.919057629071176,135.7973143735435 43.72984296362847,132.5424988034647 41.054136148653924,130.4712502779439 36.91895288974047,128.4000000001397 33.270261778496206,128.99178597261198 29.864816741086543,130.4712502779439 26.7026177784428,131.95071368920617 24.02691096253693,134.90963782859035 23.297172740101814,140.23569226590917 23.540418814867735,143.7863887862768 23.053926666267216,147.33708015549928 24.51340311113745,150.88776637450792 22.81068059336394,156.50967568787746 22.080942370928824,160.35623777890578 22.81068059336394,164.2027938242536 23.053926666267216,166.27401380729862 26.7026177784428,168.64112021238543 29.621570666320622,170.12056055432186 34.486492147669196,170.71233643963933 37.89193718507886,170.12056055432186 41.054136148653924,168.64112021238543 43.24335081502795,165.68223684746772 43.973089036531746,162.13157208892517 44.94607333280146,158.58090218016878 45.43256548140198,155.0302271207329 45.67581155523658,151.77543712500483 46.162303702905774,148.81653337273747 46.405549777671695,145.26584414974786 46.89204192534089,139.3480173314456 46.405549777671695,135.7973143735435 44.70282725803554,133.13428377383389 41.54062829632312,130.4712502779439 38.864921481348574,129.2876789055299 34.0,128.69589300476946 31.081047111190856,129.58357180282474 28.40534029621631,130.76714303181507 25.97287955507636,133.13428377383389 24.99989525973797,134.31785328662954 24.27015703730285,135.7973143735435 25.486387407407165,139.3480173314456 25.243141333572567,140.82747537712567 24.756649184972048,144.9699531486258 23.297172740101814,149.1124239093624 22.56743451859802,152.3672174452804 22.080942370928824,157.39734439994209 21.10795807465911,159.46857014065608 21.837696296162903,160.94801602489315 23.297172740101814,163.90690511232242 25.97287955507636,165.68223684746772 28.40534029621631,168.93700835271738 31.56753925886005,169.82467255694792 32.78376962989569,170.41644851467572 37.64869111124426,171.60000000009313 40.56764399912208,170.71233643963933 42.513612592592835,168.04934382555075 43.973089036531746,166.27401380729862 44.459581185132265,163.31512758182362 43.973089036531746,159.46857014065608" stroke="#4DD2FF" stroke-dasharray="none" stroke-linecap="round" stroke-linejoin="round" stroke-width="0.5"><title>2013-11-03 10.7km</title><desc>9223370653417861807</desc></polyline><polyline fill="none" opacity="1" points="88.04364463873208,161.23207143694162 88.99068268761039,164.68805263843387 91.1215182961896,167.85603100177832 93.48911341652274,169.5840174248442 97.27726561017334,170.73600767669268 102.01245585177094,170.73600767669268 105.09032951015979,169.5840174248442 106.74764609336853,167.28003524802625 107.93144365400076,163.24806107999757 109.58876023907214,160.0800765901804 109.82551975175738,155.7600909504108 109.58876023907214,152.01609706040472 110.77255779877305,148.27209728653543 111.48283633589745,145.39209345774725 111.71959584765136,142.5120861462783 111.9563553603366,138.48007006268017 111.48283633589745,133.2960393568501 109.35200072731823,129.84001261997037 106.98440560605377,129.2640076763928 103.90653194859624,130.41601742454804 100.35513926763088,130.12801503995433 97.51402512192726,130.41601742454804 94.67291097715497,132.14403100241907 92.77883488032967,135.3120526385028 91.35827780794352,138.1920686531812 91.59503732062876,143.37608870584518 90.88475878350437,145.96809450211003 90.1744802473113,149.712097896263 89.46420171111822,153.4560954067856 88.51716366223991,155.7600909504108 88.28040415141732,159.2160800890997 88.28040415141732,162.96006266516633 89.70096122287214,167.28003524802625 92.77883488032967,169.5840174248442 97.27726561017334,171.31200259411708 100.59189877938479,171.60000000009313 104.3800509730354,170.16001262003556 107.69468414224684,167.28003524802625 108.16820316575468,162.6720642137807 110.29903877526522,158.06408426584676 110.53579828795046,154.60809345706366 110.53579828795046,151.44009747868404 110.77255779877305,147.1200961722061 111.00931731145829,142.80008703446947 112.19311487209052,139.0560727783013 112.42987438477576,135.3120526385028 110.29903877526522,132.7200352489017 108.87848170287907,130.41601742454804 105.80060804635286,128.9760051521007 102.01245585177094,128.4000000001397 98.22430365905166,129.2640076763928 94.90967048984021,129.84001261997037 89.70096122287214,133.8720433257986 88.99068268761039,135.0240508459974 88.99068268761039,136.46405946207233 90.1744802473113,139.63207535468973 89.93772073462605,143.66408948926255 88.51716366223991,147.69609680003487 88.51716366223991,150.57609784416854 87.57012561522424,154.32009399705566 87.57012561522424,157.48808614653535 87.80688512697816,160.65607408294454 87.57012561522424,163.5360594613012 89.22744219843298,166.7040393569041 91.35827780794352,169.00802208902314 94.19939195271581,169.87201503990218 97.9875441454351,169.5840174248442 102.01245585177094,168.72002436965704 106.51088658254594,166.99203731981106 108.40496267937124,164.4000543965958 110.29903877526522,160.65607408294454 109.82551975175738,156.62408870481886 110.29903877526522,152.59209650335833 110.53579828795046,149.13609775714576 110.77255779877305,145.39209345774725 111.00931731145829,141.93608426721767 112.19311487209052,139.34407408325933 111.9563553603366,135.3120526385028 109.35200072731823,132.7200352489017 106.74764609336853,130.70401977421716 102.72273438796401,129.55201016529463 99.6448607314378,129.2640076763928 95.8567085377872,130.41601742454804 92.77883488032967,131.56802661553957 91.59503732062876,135.6000543970149 90.64799927081913,139.34407408325933" stroke="#4DD2FF" stroke-dasharray="none" stroke-linecap="round" stroke-linejoin="round" stroke-width="0.5"><title>2013-11-02 10.5km</title><desc>9223370653505000807</desc></polyline><polyline fill="none" opacity="1" points="174.8784902896732,161.61007426702417 175.54437706060708,157.83009071601555 175.54437706060708,152.97010246641003 175.54437706060708,150.540104374988 176.65418834704906,147.0301024664659 176.65418834704906,144.33009724435396 176.87615060433745,142.4400916469749 176.2102638334036,139.20007833116688 175.54437706060708,134.88005326571874 173.32475448958576,131.1000244792085 172.21494320314378,130.29001747770235 168.88550934474915,128.94000515691005 166.2219622572884,128.94000515691005 162.6705661425367,130.56001984444447 159.78505679685622,132.45003549358808 157.5654342258349,135.15005507646129 156.01169842481613,138.12007284793071 156.45562293939292,142.98009340977296 156.67758519575,145.68010026379488 156.23366068210453,149.19010429433547 156.01169842481613,151.35010403278284 156.01169842481613,152.97010246641003 155.56777391023934,155.67009724397212 155.12384939659387,158.6400877290871 156.23366068210453,162.15007139416412 157.5654342258349,164.85005507571623 160.67290582694113,167.0100396713242 164.22430194169283,168.3600289823953 167.7756980592385,168.3600289823953 169.77335837297142,167.82003335561603 172.65886771772057,165.66004954348318 174.6565280323848,162.96006684168242 175.54437706060708,159.18008557590656 175.54437706060708,155.94009654247202 175.7663393188268,152.70010280935094 175.54437706060708,149.46010437584482 175.54437706060708,146.49010168295354 176.43222609069198,142.98009340977296 176.87615060433745,140.01008210144937 176.43222609069198,137.31006839242764 175.32241480425,134.34004954481497 173.99064126145095,132.72003759886138 170.4392451448366,130.56001984444447 167.7756980592385,128.4000000001397 165.3341132281348,129.48001018329524 162.0046793706715,130.8300221778918 159.78505679685622,132.45003549358808 158.67524551134557,135.69005860155448 158.2313209977001,138.12007284793071 157.7873964831233,141.63008875912055 156.45562293939292,144.33009724435396 156.01169842481613,146.76010209089145 156.23366068210453,150.81010429398157 157.7873964831233,154.32010026299395 154.90188713837415,155.13009854895063 155.12384939659387,156.21009580790997 154.45796262472868,157.56009164638817 154.90188713837415,163.23006525845267 160.22898131329566,166.20004569296725 165.77803774364293,167.55003549298272 167.1098112873733,167.55003549298272 169.10747160110623,167.55003549298272 171.77101868763566,168.3600289823953 173.99064126145095,164.0400603134185 174.6565280323848,162.96006684168242 174.8784902896732,160.5300796192605 175.54437706060708,159.18008557590656 173.54671674594283,158.91008666879497 174.8784902896732,158.10008975397795 176.2102638334036,155.94009654247202 175.9883015761152,150.81010429398157 176.2102638334036,149.46010437584482 175.7663393188268,146.2201012421865 176.2102638334036,142.1700907170307 175.7663393188268,136.7700652598869 175.32241480425,133.26004171161912 173.54671674594283,129.75001264712773 169.55139611661434,129.48001018329524 165.77803774364293,129.21000768686645 162.6705661425367,130.56001984444447 159.78505679685622,132.72003759886138 156.67758519575,133.26004171161912 156.45562293939292,137.58006991050206 156.23366068210453,140.55008445074782 156.01169842481613,144.0600965428166 154.90188713837415,147.57010311936028 155.34581165295094,151.62010385282338 155.12384939659387,155.13009854895063 154.90188713837415,159.18008557590656 154.90188713837415,161.61007426702417 158.45328325405717,165.66004954348318 164.00233968626708,168.63002674723975 166.44392451550812,169.98001507879235 169.32943385839462,171.60000000009313 173.32475448958576,167.82003335561603 175.1004525469616,162.69006839231588 175.54437706060708,159.7200832911767 175.54437706060708,158.6400877290871 175.1004525469616,153.24010209064 174.8784902896732,148.92010417976417 175.32241480425,146.2201012421865 175.54437706060708,142.98009340977296 177.09811286255717,138.93007700890303 175.7663393188268,135.96006031497382 174.43456577509642,134.34004954481497 172.88082997407764,130.8300221778918 170.21728288847953,130.02001507859677 166.0,129.75001264712773 162.0046793706715,130.56001984444447 159.78505679685622,130.8300221778918 156.89954745396972,132.72003759886138 154.90188713837415,135.69005860155448 154.67992488108575,138.39007426798344 155.34581165295094,139.7400808769744 154.23600036650896,142.71009254432283 154.67992488108575,145.95010076928884 154.90188713837415,147.57010311936028 154.45796262472868,150.27010442432947 154.90188713837415,153.78010124200955 154.67992488108575,157.02009340864606 154.90188713837415,161.34007565444335 157.5654342258349,166.20004569296725 161.7827171124518,168.63002674723975 163.11449065618217,168.3600289823953 166.0,169.98001507879235 167.99766031466424,169.1700221770443 171.1051319167018,171.33000259427354 173.32475448958576,168.63002674723975 174.8784902896732,162.42006990942173 173.99064126145095,158.37008875748143 175.1004525469616,151.35010403278284 174.8784902896732,147.0301024664659 174.8784902896732,145.68010026379488 176.43222609069198,142.98009340977296 177.76399963349104,140.82008557626978 177.09811286255717,136.7700652598869 175.32241480425,132.1800333559513 173.10279223136604,129.75001264712773 169.9953206302598,128.6700025945902 166.0,128.94000515691005 161.1168303405866,130.56001984444447 157.1215097112581,132.1800333559513 156.67758519575,133.53004371840507 155.56777391023934,134.61005142168142 155.78973616752774,137.04006684245542 156.01169842481613,138.6600756549742 156.23366068210453,142.1700907170307 156.23366068210453,143.5200950417202 156.23366068210453,147.84010339644738 156.01169842481613,149.19010429433547 155.12384939659387,151.62010385282338 155.78973616752774,155.13009854895063 154.90188713837415,156.21009580790997 155.12384939659387,161.07007700833492 156.23366068210453,162.15007139416412 156.23366068210453,163.50006364332512 158.45328325405717,165.66004954348318 162.6705661425367,168.63002674723975 167.1098112873733,170.52001018356532 170.4392451448366,169.710017477395 171.99298094585538,168.09003118495457 175.32241480425,163.77006199466996 174.8784902896732,159.18008557590656 174.43456577509642,152.97010246641003 176.2102638334036,152.1601033960469 176.65418834704906,147.3001028096769 176.87615060433745,146.49010168295354 175.9883015761152,142.71009254432283 176.87615060433745,138.93007700890303 175.54437706060708,134.34004954481497 173.54671674594283,132.1800333559513 172.21494320314378,128.94000515691005 166.2219622572884,129.21000768686645 162.0046793706715,130.02001507859677 159.34113228321075,132.1800333559513 157.3434719676152,134.34004954481497 156.23366068210453,136.50006364448927 156.89954745396972,138.39007426798344 157.1215097112581,140.01008210144937 156.89954745396972,143.5200950417202 156.01169842481613,144.6000979137607 155.56777391023934,147.0301024664659 156.23366068210453,148.65010403259657 156.23366068210453,150.540104374988 154.90188713837415,152.43010311899707 155.56777391023934,153.78010124200955" stroke="#4DD2FF" stroke-dasharray="none" stroke-linecap="round" stroke-linejoin="round" stroke-width="0.5"><title>2013-10-26 11.1km</title><desc>9223370654110301807</desc></polyline><polyline fill="none" opacity="1" points="30.144869786687195,219.0315841003321 32.24766808561981,219.31579206697643 35.51868766080588,218.7473760987632 37.855130213312805,216.47371085267514 40.19157276768237,213.6316262029577 42.5280153201893,209.6527019208297 43.462592341937125,206.52639954793267 44.163525108247995,202.26325324806385 44.63081361912191,199.13694104878232 43.92988085281104,197.14746748516336 44.39716936275363,193.1685153071303 44.163525108247995,191.17903669271618 43.462592341937125,189.75797950988635 43.22894808650017,187.76849800907075 42.5280153201893,183.78952995873988 41.126149787567556,180.3789805562701 36.9205531924963,178.67370399925858 33.649533617310226,178.10527820512652 29.67758127581328,180.66319319489412 27.574782977811992,181.51583090610802 25.00469616893679,184.3579543782398 23.135542125441134,187.76849800907075 24.537407658062875,190.32640248560347 25.238340423442423,193.1685153071303 25.238340423442423,196.86325683817267 24.30376340262592,199.9895720607601 23.836474891752005,203.68430287321098 23.602830636315048,206.81060902611353 24.537407658062875,208.23165590292774 23.836474891752005,212.77900013769977 25.939273189753294,215.62108581862412 28.275715744122863,217.89475188939832 31.079446808435023,218.46316806343384 34.350466382689774,217.89475188939832 38.32241872418672,216.18950254260562 41.59343829937279,213.91583482245915 42.5280153201893,209.93691102182493 42.29437106475234,206.52639954793267 42.76165957655758,202.26325324806385 42.76165957655758,198.85273064253852 42.76165957655758,195.1579922370147 44.163525108247995,191.4632480267901 45.79903489537537,189.18955639493652 46.7336119171232,186.63165068160743 46.49996766075492,184.07374218595214 44.163525108247995,181.23161837016232 41.126149787567556,179.81055517448112 38.08877446874976,177.25263925665058 34.81775489449501,176.4000000001397 31.313091062940657,177.82106525660492 28.509359998628497,180.09476788225584 25.939273189753294,182.6526807071641 25.471984679810703,185.77901482582092 25.471984679810703,189.4737679695245 25.00469616893679,192.60009301709943 24.537407658062875,196.86325683817267 21.733676593750715,199.9895720607601 22.20096510462463,203.68430287321098 21.967320849187672,207.94744659680873 22.434609359130263,211.07374708005227 22.434609359130263,213.91583482245915 24.537407658062875,216.75791912851855 27.574782977811992,219.0315841003321 30.845802552998066,219.60000000009313 34.81775489449501,219.0315841003321 37.38784170243889,217.610543750925 41.126149787567556,215.90529419737868 42.060726810246706,213.6316262029577 43.69623659737408,210.22112008789554 44.163525108247995,206.81060902611353 44.163525108247995,203.1158831268549 44.63081361912191,199.70536175812595 45.33174638450146,195.4422030900605 45.565390639938414,192.0316705906298 46.03267915081233,189.18955639493652 45.79903489537537,185.49480280443095 44.864457874558866,181.80004340759479 42.76165957655758,179.24212965508923 39.72428425680846,178.10527820512652 36.21962042618543,177.53685227409005 32.7149565955624,177.53685227409005 29.443937021307647,178.95791684417054 25.939273189753294,181.23161837016232 24.537407658062875,184.07374218595214 25.238340423442423,188.33692146651447 23.836474891752005,191.74745932617225 23.602830636315048,194.58957042940892 23.602830636315048,198.28430972713977 21.967320849187672,201.69483315735124 22.434609359130263,206.52639954793267 22.20096510462463,209.3684927856084 23.602830636315048,212.21058258996345 24.537407658062875,215.90529419737868 25.471984679810703,217.610543750925 31.079446808435023,219.0315841003321 35.051399149000645,218.46316806343384 37.62148595787585,216.18950254260562 41.82708255387843,212.77900013769977 43.462592341937125,211.9263737637084 44.163525108247995,209.08428361662664 43.69623659737408,205.95798048726283 43.69623659737408,202.26325324806385 43.69623659737408,199.13694104878232 44.163525108247995,195.72641390911303 45.565390639938414,192.31588182109408 45.79903489537537,189.18955639493652 45.79903489537537,186.34743876405992 45.79903489537537,183.78952995873988 43.462592341937125,181.23161837016232 41.59343829937279,178.10527820512652 38.08877446874976,176.96842620545067 33.88317787181586,178.10527820512652 29.91122553125024,180.09476788225584 27.574782977811992,183.22110540163703 25.471984679810703,186.34743876405992 24.07011914718896,188.33692146651447 23.836474891752005,192.0316705906298 22.9018978709355,195.4422030900605 22.434609359130263,199.13694104878232 23.135542125441134,202.26325324806385 21.733676593750715,205.38956129038706 21.2663880828768,208.51586517505348 22.434609359130263,213.6316262029577 24.537407658062875,215.90529419737868 26.873850212432444,217.89475188939832 28.97664850950241,219.31579206697643 33.18224510550499,219.60000000009313 36.9205531924963,217.89475188939832 39.25699574500322,215.62108581862412 41.126149787567556,213.6316262029577 42.29437106475234,209.6527019208297 42.060726810246706,206.52639954793267 43.22894808650017,202.26325324806385" stroke="#4DD2FF" stroke-dasharray="none" stroke-linecap="round" stroke-linejoin="round" stroke-width="0.5"><title>2013-10-20 10.7km</title><desc>9223370654628121807</desc></polyline><polyline fill="none" opacity="1" points="90.28392157331109,184.82270667003468 90.06056344788522,187.53970208903775 88.94377282448113,191.3434901572764 88.27369845006615,195.14727178867906 88.05034032464027,198.13595284009352 87.3802659502253,200.58123438083567 86.71019157581031,203.84160563116893 86.71019157581031,207.37366914795712 87.3802659502253,210.36233394150622 89.83720532245934,213.0792984876316 92.51750282011926,214.9811717160046 95.42115844320506,217.42643493087962 99.21824656426907,217.6981306800153 102.56861843541265,217.42643493087962 106.14234843291342,216.06795569579117 109.26936217956245,213.8943872116506 110.83286905195564,211.17742365039885 111.05622717738152,208.18875993951224 111.50294342730194,205.20009225560352 111.94965967629105,201.1246299177874 112.61973405070603,198.13595284009352 113.06645030062646,195.41897022980265 113.28980842512101,192.70198433613405 112.84309217520058,188.89819856663235 112.61973405070603,186.1812047897838 110.38615280296654,182.92080792272463 108.82264592964202,179.6604063261766 105.91899030748755,177.75850321003236 102.79197656083852,176.67170070740394 99.88832093775272,176.67170070740394 96.31459094118327,177.48680263385177 92.96421907003969,179.6604063261766 90.50727969687432,182.92080792272463 89.61384719889611,185.90950523177162 89.61384719889611,188.89819856663235 88.94377282448113,192.15858676331118 88.72041469905525,196.23406535829417 87.60362407565117,199.49444291344844 88.05034032464027,202.4831181843765 86.93354970123619,206.2868809637148 89.39048907347023,208.73215363710187 90.28392157331109,211.9925130638294 92.07078657113016,215.52456377237104 94.30436781886965,217.42643493087962 97.8780978154391,218.7849133447744 101.67518593650311,219.60000000009313 104.57884155865759,217.96982639585622 107.03578093089163,215.25286776060238 109.04600405413657,212.8076021813322 110.60951092839241,209.81894063809887 110.38615280296654,207.64536611060612 111.05622717738152,204.65669770352542 111.27958530280739,201.6680253231898 111.50294342730194,198.67934896820225 112.1730178007856,196.23406535829417 112.61973405070603,191.88688792707399 112.61973405070603,188.62649933667853 111.27958530280739,183.19250784208998 109.492720304057,179.6604063261766 106.58906468190253,178.03020375361666 102.12190218642354,176.4000000001397 98.54817218892276,176.67170070740394 95.64451656676829,178.03020375361666 92.51750282011926,179.9321066394914 90.95399594679475,183.19250784208998 90.7306378223002,186.72460380778648 90.28392157331109,191.07179122348316 89.61384719889611,195.69066863902844 86.93354970123619,198.40765092079528 87.3802659502253,201.1246299177874 87.3802659502253,204.3850003783591 86.93354970123619,207.64536611060612 88.05034032464027,210.36233394150622 90.95399594679475,214.16608338686638 94.0810096943751,217.6981306800153" stroke="#4DD2FF" stroke-dasharray="none" stroke-linecap="round" stroke-linejoin="round" stroke-width="0.5"><title>2013-10-19 10.2km</title><desc>9223370654714312807</desc></polyline><polyline fill="none" opacity="1" points="155.81933728791773,189.36008224752732 155.1090584937483,193.10409288294613 155.1090584937483,195.98409706004895 155.81933728791773,199.72809728630818 155.1090584937483,203.47209162893705 155.1090584937483,206.64008224592544 154.3987797005102,210.38406572700478 154.87229889724404,213.26404901687056 157.23989487532526,215.856031000847 161.5015676394105,217.87201503897086 165.0529616093263,219.60000000009313 168.36759597994387,218.16001261910424 171.20871115475893,216.14402882475406 174.049826329574,213.55204715393484 174.76010512374341,210.38406572700478 175.70714351627976,206.06408426584676 175.23362432047725,202.03209450119175 175.47038391791284,197.71209789603017 175.70714351627976,194.83209580741823 176.41742231044918,190.8000870347023 177.36446070112288,187.05607277853414 175.94390311371535,183.0240508459974 174.76010512374341,180.14403100172058 171.20871115475893,177.55201016599312 167.18379798997194,176.39999999990687 163.39564442262053,177.55201016599312 160.31776964943856,179.2800243704114 158.66045246366411,182.44804715528153 157.4766544746235,185.32806421420537 157.23989487532526,187.92007659026422 156.76637568045408,191.6640894880984 155.81933728791773,195.12009617267177 155.1090584937483,198.28809789568186 154.87229889724404,201.45609540655278 154.87229889724404,205.48808614583686 155.34581809211522,209.23207143694162 157.00313527788967,212.97605084488168 158.1869332678616,214.99203731981106 161.028048443608,218.16001261910424 164.57944241166115,218.16001261910424 167.42055758740753,218.73600767576136 170.73519195895642,217.29601977346465 173.33954753633589,215.56803314224817 174.99686472211033,212.11205611890182 175.47038391791284,207.79207779001445 175.70714351627976,203.18409227347001 175.70714351627976,200.30409679887816 175.70714351627976,196.84809763496742 176.65418190788478,193.9680945011787 177.36446070112288,190.51208614674397 177.1277011046186,186.19206865271553 174.99686472211033,180.14403100172058 172.3925091456622,178.12801503925584 167.65731718577445,176.68800259334967 164.81620201002806,176.97600515233353 161.97508683428168,179.56802661530674 159.37073125783354,181.58404135890305 158.66045246366411,184.4640594618395 157.23989487532526,189.07208118587732 155.81933728791773,193.39209345704876 155.81933728791773,196.84809763496742 154.3987797005102,200.30409679887816 154.6355392979458,204.04809023649432 154.87229889724404,207.2160800884012 154.3987797005102,210.67206421284936 156.29285648372024,214.70403935597278 158.89721206203103,217.29601977346465 161.5015676394105,217.5840174241457 166.4735191958025,218.16001261910424 169.31463437061757,216.72002436965704 172.3925091456622,214.12804332445376 173.33954753633589,211.53605946153402 174.52334552630782,207.79207779001445 175.94390311371535,204.33608948858455 177.1277011046186,201.1680958061479 177.6012202994898,197.13609775644727 177.1277011046186,192.52809162973426 177.1277011046186,188.20807779114693 176.18066271208227,184.75206108111888 174.76010512374341,180.14403100172058 171.91898994892836,178.12801503925584 168.84111517574638,177.26400767685845 164.81620201002806,176.97600515233353 161.5015676394105,178.99202208942734 158.66045246366411,181.58404135890305 157.23989487532526,184.176057808334 157.9501736694947,187.63207535399124 156.76637568045408,192.24009095085785 157.23989487532526,196.27209728676826 156.76637568045408,200.01609705970623 155.81933728791773,203.47209162893705 156.05609688628465,207.5040789565537 155.34581809211522,210.0960672076326 156.52961608115584,212.68805263726972 157.9501736694947,215.856031000847 161.7383272368461,217.87201503897086 163.86916361842304,217.87201503897086 168.84111517574638,218.44801016524434 171.91898994892836,216.72002436965704 174.52334552630782,213.84004525723867 175.70714351627976,209.8080686519388 175.70714351627976,206.35208327393048" stroke="#4DD2FF" stroke-dasharray="none" stroke-linecap="round" stroke-linejoin="round" stroke-width="0.5"><title>2013-10-12 10.6km</title><desc>9223370655320152807</desc></polyline><polyline fill="none" opacity="1" points="39.49892894178629,263.41939021321014 41.33190525602549,262.0258519339841 42.93575953040272,256.4516903918702 43.623125648126006,252.54976929398254 43.85224768798798,249.48396951239556 43.623125648126006,247.5330038932152 43.39400360919535,244.18848756235093 44.31049176584929,242.5162275780458 44.99785788357258,237.77815103437752 44.53961380571127,234.71233161212876 43.1648815702647,231.9252195081208 42.47751545254141,229.13810403598472 42.47751545254141,227.18712120037526 41.102783216163516,227.74454503622837 38.58244078513235,226.35098519385792 34.00000000093132,224.95742450957187 31.0214134901762,225.79356102156453 28.0428269803524,227.18712120037526 26.438972705975175,231.08908522012644 25.522484549321234,234.43362055299804 25.75160658825189,236.6633080795873 24.376874351873994,241.1226766637992 24.376874351873994,243.63106770208105 23.68950823508203,248.0904228107538 24.376874351873994,251.1562244440429 24.60599639080465,255.33685646601953 24.14775231294334,258.9600647534244 23.002142117358744,262.5832673464902 25.06424046959728,263.41939021321014 28.50107105821371,265.64904971048236 31.708779607899487,267.60000000009313 34.68736611865461,267.60000000009313 38.811562824063,265.92775699542835 41.33190525602549,263.97680529020727 43.623125648126006,260.9110207038466 44.53961380571127,257.2878154825885 44.7687358437106,252.82847816240974 43.623125648126006,249.20526023977436 43.85224768798798,244.18848756235093 44.99785788357258,240.28654571180232 45.226979923434556,237.22072962438688 46.143468079157174,234.43362055299804 45.45610196236521,232.20393087039702 42.93575953040272,228.58068053680472 38.811562824063,227.18712120037526 35.374732236377895,226.35098519385792 32.62526776455343,226.35098519385792 30.334047372452915,227.46583313541487 26.438972705975175,229.41681573539972 25.06424046959728,232.20393087039702 24.14775231294334,235.54846458579414 24.376874351873994,239.45041445526294 24.376874351873994,242.79493765952066 24.60599639080465,245.86074633477256 24.376874351873994,249.48396951239556 22.773020077496767,251.99235145538114 22.08565395977348,254.77943930099718 21.856531920842826,257.5665237775538 22.773020077496767,260.35360488598235 23.918630273081362,262.5832673464902 25.522484549321234,265.3703423908446 28.50107105821371,266.7638786493335 31.708779607899487,266.7638786493335 36.52034243196249,267.60000000009313 39.49892894178629,264.8129276514519 41.33190525602549,262.3045596573502 43.623125648126006,258.6813566253986 43.85224768798798,254.77943930099718 43.85224768798798,251.43493348150514 44.99785788357258,247.81171336886473 45.685224001295865,244.4671974426601 45.45610196236521,241.40138691361062 45.45610196236521,238.8929934501648 45.91434604022652,235.54846458579414 45.226979923434556,232.7613534934353 44.31049176584929,230.2529506292194 42.93575953040272,227.46583313541487 39.95717302057892,225.79356102156453 36.52034243196249,225.79356102156453 32.62526776455343,225.79356102156453 28.959315137937665,226.35098519385792 26.897216784767807,228.58068053680472 24.60599639080465,232.20393087039702 25.06424046959728,234.71233161212876 25.06424046959728,238.05686168861575 23.68950823508203,242.5162275780458 23.68950823508203,246.41816565580666 24.376874351873994,247.81171336886473 23.460386195220053,251.43493348150514 22.773020077496767,253.38589579914697 23.231264155358076,256.73039878858253 23.918630273081362,259.79618893377483 24.376874351873994,262.8619750030339 25.980728627182543,265.3703423908446 27.813704941421747,266.485171465436 34.00000000093132,266.485171465436 38.12419670633972,266.485171465436 40.186295059509575,265.3703423908446 43.85224768798798,262.0258519339841 43.1648815702647,257.2878154825885 42.93575953040272,252.82847816240974 44.08136972691864,250.04138795821927 42.93575953040272,246.41816565580666 44.31049176584929,244.18848756235093 45.226979923434556,242.23751746257767 45.91434604022652,238.05686168861575 46.143468079157174,234.43362055299804 45.45610196236521,231.08908522012644 42.93575953040272,228.30196873680688 38.58244078513235,225.79356102156453 36.29122039210051,224.4000000001397" stroke="#4DD2FF" stroke-dasharray="none" stroke-linecap="round" stroke-linejoin="round" stroke-width="0.5"><title>2013-10-06 10.6km</title><desc>9223370655838244807</desc></polyline><polyline fill="none" opacity="1" points="91.12151937000453,236.03084936900996 90.2109059728682,238.80009051598608 90.43855932168663,241.01548102218658 89.5279459245503,244.3385627658572 89.98325262311846,247.6616396890022 89.7555992724374,251.261634249473 88.84498587623239,255.69238901790231 88.16202582698315,258.46160639775917 89.0726392250508,261.50774164893664 90.43855932168663,263.1692682597786 93.39805286563933,265.9384766018484 95.67458635941148,267.3230795171112 97.95111985504627,267.60000000009313 102.27653349470347,266.49231786769815 106.14664043672383,264.5538728488609 108.65082728024572,260.4000565716997 109.78909402806312,256.800076372223 110.01674737781286,253.47701270505786 110.47205407731235,250.4308667758014 111.61032082512975,247.3847167957574 110.92736077588052,243.78471614304 110.92736077588052,240.46163359680213 111.61032082512975,237.41547036124393 111.83797417394817,234.64622754161246 111.61032082512975,231.8769813736435 109.5614406792447,230.21543206600472 107.96786723192781,228.00003111502156 105.23602703865618,226.89232983626425 102.27653349470347,227.44618054293096 97.72346650529653,228.00003111502156 95.44693301152438,228.55388155416586 93.8533595642075,230.21543206600472 93.62570621352643,231.8769813736435 92.71509281732142,234.64622754161246 92.48743946664035,237.69239445892163 91.80447941832244,241.84625191055238 91.12151937000453,244.89240925433114 91.80447941832244,248.49240816570818 90.89386602025479,251.5385566733312 90.43855932168663,255.1385451410897 89.5279459245503,257.90776318963617 89.5279459245503,259.84621383203194 90.43855932168663,262.8923472412862 92.03213276807219,265.10771445115097 96.12989305891097,266.21539725130424 99.31703995261341,267.0461590006016 102.27653349470347,266.21539725130424 105.23602703865618,265.9384766018484 107.2849071836099,263.7231101959478 108.65082728024572,261.50774164893664 109.5614406792447,257.6308415350504 109.33378732949495,254.58470112946816 110.2444007275626,250.7077893000096 110.2444007275626,247.1077938694507 110.01674737781286,243.50779278133996 109.78909402806312,238.80009051598608 110.2444007275626,235.47700073826127 110.92736077588052,234.09237857535481 110.2444007275626,231.32313173846342 107.96786723192781,228.83080672309734 105.00837368983775,226.06155352527276 102.9594935439527,225.23077691416256 99.77234665118158,225.78462802176364 96.35754640772939,225.78462802176364 94.5363196125254,226.61540443263948 93.39805286563933,229.66158202895895 91.80447941832244,232.4308308751788 91.57682606950402,235.47700073826127 90.89386602025479,239.07701444602571 90.2109059728682,242.95394595898688 89.7555992724374,245.4462556091603 89.0726392250508,248.49240816570818 89.0726392250508,251.81547906342894 88.16202582698315,255.1385451410897 87.70671912748367,257.6308415350504 87.93437247723341,260.67697789077647 89.0726392250508,263.1692682597786 92.03213276807219,265.6615559179336 95.67458635941148,266.49231786769815 99.77234665118158,266.76923845126294 103.41480024252087,266.21539725130424 105.91898708697408,264.2769519982394 108.65082728024572,262.0615839860402 109.78909402806312,257.90776318963617 110.2444007275626,255.1385451410897 110.69970742613077,252.09240142116323 110.92736077588052,249.3231763425283 111.38266747444868,245.4462556091603 111.61032082512975,243.23086938657798 111.83797417394817,240.18470983416773 112.06562752369791,237.41547036124393 112.29328087251633,234.36930307536386 111.61032082512975,231.6000565723516 110.47205407731235,229.1077318591997 108.19552058167756,226.61540443263948 105.69133373815566,225.23077691416256 102.9594935439527,224.4000000001397 100.68296004924923,224.95385130867362 96.81285310722888,225.50770248449408 94.08101291395724,227.16925520659424 92.71509281732142,230.76928196917288 91.12151937000453,235.20007637282833 90.2109059728682,237.9693185237702 89.98325262311846,240.18470983416773 89.7555992724374,243.23086938657798 89.98325262311846,246.27702489006333 90.2109059728682,249.6000990010798 89.98325262311846,252.64624603441916 89.7555992724374,255.96931090718135 90.2109059728682,259.2923709584866 91.57682606950402,262.3385051051155 94.08101291395724,264.00003111432306 96.81285310722888,266.76923845126294 100.68296004924923,266.76923845126294 102.9594935439527,266.49231786769815 106.37429378647357,264.83079366665334 108.4231739314273,262.8923472412862 109.5614406792447,259.56929241190664 110.01674737781286,256.800076372223 110.92736077588052,253.75393486046232 110.92736077588052,250.4308667758014 111.61032082512975,247.6616396890022 111.61032082512975,244.61548602650873 111.38266747444868,241.56932831485756 112.52093422133476,237.9693185237702 111.61032082512975,235.20007637282833 110.69970742613077,231.8769813736435 110.01674737781286,229.3846569606103 107.51256053335965,227.72310584550723 104.32541364058852,226.06155352527276 101.36592009756714,226.61540443263948 97.26815980672836,226.89232983626425 94.30866626370698,228.83080672309734 92.94274616613984,230.76928196917288 90.89386602025479,234.09237857535481 90.43855932168663,236.30777363479137 89.5279459245503,239.90778603730723 89.7555992724374,242.95394595898688 88.61733252555132,246.00010183011182 88.61733252555132,249.3231763425283 87.93437247723341,252.64624603441916 87.47906577866524,255.96931090718135 88.16202582698315,259.2923709584866 89.30029257386923,262.3385051051155 92.71509281732142,264.2769519982394 96.35754640772939,265.9384766018484 98.8617332521826,265.38463520118967 102.27653349470347,264.5538728488609 104.78072033915669,261.7846628341358 107.96786723192781,259.84621383203194 109.5614406792447,257.35391984693706 110.2444007275626,255.1385451410897 110.47205407731235,251.81547906342894 110.92736077588052,248.49240816570818 111.15501412469894,246.00010183011182 111.61032082512975,242.12317547295243 111.15501412469894,239.35393834323622 111.38266747444868,235.20007637282833 111.61032082512975,231.8769813736435 110.92736077588052,229.9385070647113 109.10613397974521,228.55388155416586 105.91898708697408,226.61540443263948 102.73184019327164,226.06155352527276 99.54469330050051,226.89232983626425 95.67458635941148,228.83080672309734 94.30866626370698,231.32313173846342 93.8533595642075,234.64622754161246 92.94274616613984,238.523166552186 92.71509281732142,241.2924046854023" stroke="#4DD2FF" stroke-dasharray="none" stroke-linecap="round" stroke-linejoin="round" stroke-width="0.5"><title>2013-09-29 10.5km</title><desc>9223370656443428807</desc></polyline><polyline fill="none" opacity="1" points="166.0,226.04052140074782 163.30274038854986,227.40762165863998 160.83025240991265,229.3215606319718 159.70639423839748,232.3291757463012 158.80730770155787,235.88362481584772 158.35776443220675,239.43806830001995 157.90822116378695,242.7190880975686 157.23390626069158,245.72668539732695 156.55959135759622,248.46086128987372 155.88527645450085,251.7418679993134 155.88527645450085,255.29628656315617 155.88527645450085,258.57728335657157 157.23390626069158,261.8582753909286 159.93116587307304,263.22535400046036 163.30274038854986,265.13926266669296 166.44954326935112,265.13926266669296 168.92203124705702,264.0456007702742 171.84406249318272,263.22535400046036 173.8670072024688,261.0380278278608 175.21563700865954,258.3038671386894 176.11472354643047,255.29628656315617 176.11472354643047,251.7418679993134 176.11472354643047,248.73427869705483 176.7890384485945,246.00010313582607 176.7890384485945,242.17225179541856 177.912896621041,238.8912312053144 177.23858171794564,237.25071912514977 176.3394951801747,234.51652968092822 175.21563700865954,230.68865890661255 173.417463934049,227.95446153078228 170.94497595634311,225.49368106527254 169.59634615015239,225.76710125035606 165.5504567315802,224.94684059894644 162.85319711919874,226.5873616025783 160.38070914149284,228.22788141667843 159.25685096997768,232.055756355403 157.90822116378695,233.6962722032331 157.23390626069158,238.6178126083687 156.55959135759622,240.80516046099365 156.33481972292066,244.9064319843892 156.33481972292066,247.09377375710756 156.11004808917642,249.28111341316253 156.11004808917642,253.38236956926994 154.7614182829857,255.56970314332284 155.2109615514055,261.0380278278608 156.11004808917642,263.4987696236931 161.504567313008,265.4126780577935 163.75228365696967,265.95950874197297 167.1238581724465,265.95950874197297 171.16974759008735,264.86584724183194 174.09177883714437,262.1316911787726 176.11472354643047,258.0304508882109 176.7890384485945,253.65578638156876 175.21563700865954,250.92161676776595 173.64223556779325,249.55453072185628 175.4404086433351,245.17984982184134 177.01381008327007,239.98490526387468 177.4633533526212,238.07097531366162 176.7890384485945,235.06336783478037 177.912896621041,231.235497985268 175.21563700865954,228.50130126997828 172.51837739627808,225.49368106527254 170.72020432166755,224.94684059894644 165.32568509690464,225.49368106527254 163.75228365696967,225.76710125035606 160.83025240991265,228.22788141667843 158.35776443220675,230.41523931804113 157.68344952911139,232.87601442844607 157.23390626069158,236.43046263838187 156.11004808917642,241.07857879367657 156.55959135759622,244.35959621169604 156.78436299134046,246.54693851224147 156.11004808917642,250.92161676776595 156.55959135759622,254.20261990698054 155.2109615514055,258.3038671386894 155.88527645450085,261.5848595700227 156.11004808917642,263.4987696236931 159.93116587307304,264.86584724183194 163.5275120222941,267.3265848727897 165.77522836532444,266.77975451922975 168.69725961238146,265.95950874197297 171.61929085943848,264.86584724183194 174.54132210556418,261.5848595700227 174.76609374023974,259.3975318111479 175.4404086433351,256.66336913825944 176.3394951801747,253.92920316033997 177.4633533526212,250.92161676776595 176.56426681485027,247.3671913293656 175.4404086433351,243.53934230282903 175.66518027707934,240.5317420954816 176.11472354643047,237.25071912514977 177.23858171794564,236.43046263838187 178.13766825478524,232.87601442844607 176.7890384485945,230.14181969570927 177.912896621041,230.41523931804113 177.4633533526212,227.68104161159135 174.31655047088861,226.31394151831046 170.94497595634311,225.22026084875688 167.79817307554185,224.6734203158412 163.75228365696967,225.76710125035606 160.60548077523708,228.22788141667843 157.90822116378695,230.14181969570927 157.68344952911139,233.42285297834314 155.43573318608105,237.25071912514977 154.08710337989032,241.62541536078788 155.6605048198253,241.62541536078788 156.33481972292066,243.2659242679365 155.88527645450085,246.8203561506234 155.2109615514055,250.92161676776595 152.96324520744383,253.10895272321068 154.98618991766125,256.11653620772995 155.2109615514055,258.57728335657157 156.78436299134046,262.9519383441657 158.80730770155787,265.4126780577935 161.504567313008,266.23292403365485 165.32568509690464,266.23292403365485 168.92203124705702,267.60000000009313 172.51837739627808,266.23292403365485 173.64223556779325,264.0456007702742 173.8670072024688,260.49119595531374 175.21563700865954,259.3975318111479 175.4404086433351,255.29628656315617 177.4633533526212,248.73427869705483 177.4633533526212,244.08617827459238 175.4404086433351,241.35199709353037 176.11472354643047,238.07097531366162 176.56426681485027,235.61020585522056 177.01381008327007,232.055756355403 176.7890384485945,230.14181969570927 175.21563700865954,227.1342016728595 171.61929085943848,225.76710125035606 168.24771634396166,224.4000000001397 165.5504567315802,225.76710125035606 163.0779687538743,226.8607816544827 159.93116587307304,229.04814087809063 157.00913462601602,232.055756355403 155.2109615514055,235.61020585522056 156.33481972292066,239.16464976919815 156.55959135759622,243.53934230282903 156.55959135759622,246.8203561506234 155.88527645450085,250.64819962508045 154.31187501456589,253.10895272321068 155.88527645450085,256.66336913825944 155.2109615514055,259.3975318111479 156.33481972292066,262.4051069342531 157.23390626069158,264.86584724183194 161.27979567926377,264.31901629362255 163.75228365696967,265.95950874197297 167.1238581724465,265.13926266669296 170.27066105324775,264.592431783909 172.06883412785828,263.4987696236931 174.54132210556418,259.6709478965495 176.7890384485945,257.4836182866711 176.7890384485945,254.20261990698054 176.7890384485945,252.83553584385663 176.11472354643047,251.195033878088 177.23858171794564,247.91402637632564 177.4633533526212,243.53934230282903 179.03675479255617,240.25832369620912 177.68812498636544,239.98490526387468 177.4633533526212,236.43046263838187 178.8119831578806,233.6962722032331 177.4633533526212,231.235497985268 176.11472354643047,227.1342016728595" stroke="#4DD2FF" stroke-dasharray="none" stroke-linecap="round" stroke-linejoin="round" stroke-width="0.5"><title>2013-09-22 10.9km</title><desc>9223370657048162807</desc></polyline></svg>