<?xml version="1.0" encoding="utf-8" ?>
<svg baseProfile="full" height="300mm" version="1.1" viewBox="0,0,200,300" width="200mm" xmlns="http://www.w3.org/2000/svg" xmlns:ev="http://www.w3.org/2001/xml-events" xmlns:xlink="http://www.w3.org/1999/xlink"><defs /><rect fill="#222222" height="300" width="200" x="0" y="0" /><text fill="#FFFFFF" style="font-size:12px; font-family:Arial; font-weight:bold;" x="10" y="20">Over 10km Runs</text><text fill="#FFFFFF" style="font-size:4px; font-family:Arial" x="10" y="280">Runner</text><text fill="#FFFFFF" style="font-size:9px; font-family:Arial" x="10" y="290">keep</text><text fill="#FFFFFF" style="font-size:4px; font-family:Arial" x="65" y="280">SPECIAL TRACKS</text><rect fill="yellow" height="2.6" width="2.6" x="65" y="283" /><text fill="#FFFFFF" style="font-size:3px; font-family:Arial" x="70" y="285.5">Over 20.0 km</text><rect fill="red" height="2.6" width="2.6" x="65" y="287" /><text fill="#FFFFFF" style="font-size:3px; font-family:Arial" x="70" y="289.5">Over 40.0 km</text><text fill="#FFFFFF" style="font-size:4px; font-family:Arial" x="120" y="280">STATISTICS</text><text fill="#FFFFFF" style="font-size:3px; font-family:Arial" x="120" y="285">Number: 15</text><text fill="#FFFFFF" style="font-size:3px; font-family:Arial" x="120" y="290">Weekly: 1.2</text><text fill="#FFFFFF" style="font-size:3px; font-family:Arial" x="141" y="285">Total: 163.6 km</text><text fill="#FFFFFF" style="font-size:3px; font-family:Arial" x="141" y="290">Avg: 10.9 km</text><text fill="#FFFFFF" style="font-size:3px; font-family:Arial" x="167" y="285">Min: 10.2 km</text><text fill="#FFFFFF" style="font-size:3px; font-family:Arial" x="167" y="290">Max: 14.0 km</text><polyline fill="none" opacity="1" points="27.04099964685156,75.59999999999854 27.13429520308273,75.34381566884986 27.049481061083497,75.01290969409456 26.99011116163456,74.79942124235095 26.896815605432494,74.6606534433231 26.82048287760699,74.46851301671995 26.74415014978149,74.24434860259498 26.701743078767322,73.9774853862109 26.74415014978149,73.63589917073841 26.778075806592824,73.34768466735841 26.769594392360887,73.03811978537851 26.752631563984323,72.72855370592151 26.769594392360887,72.38696215960954 26.778075806592824,72.0880683605501 26.795038634969387,71.82119795374456 26.795038634969387,71.53297691480111 26.93922267644666,71.35150387626345 27.21062793090823,71.28745447025722 27.38873762919684,71.26610465686099 27.38873762919684,71.095305944742 27.456588942790404,70.91383191369823 27.456588942790404,70.63628259960387 27.456588942790404,70.31603219489625 27.23607217351673,70.10253121305868 27.00707399006933,69.98510543025623 27.06644388946006,69.56877626640926 27.09188813206856,69.29122228716733 27.151258031488396,68.93894085024658 27.18518368829973,68.5973331273417 27.24455358774867,68.28774986875214 27.26999783035717,68.0422174672276 27.312404901342234,67.79668431227765 27.380256214964902,67.7219566808053 27.39721904337057,67.51912418648135 27.346330558153568,67.43372087713942 27.422663285949966,67.26291398506146 27.482033185398905,67.04940485720726 27.549884499021573,66.77184213929286 27.600772984238574,66.50495400256477 27.702549954672577,66.16333588866837 27.770401268295245,65.88577009716391 27.855215410294477,65.60820334283198 28.00788086594548,65.53347366753587 28.194471978378715,65.61887900504371 28.423470161884325,65.597527679216 28.669431173766498,65.43739255390392 28.771208144171396,65.22387855496345 28.91539218556136,64.92495799932658 29.068057641241467,64.62603632693208 29.23768592532724,64.32711353780178 29.39035138094914,64.07089311546588 29.534535422397312,63.803995969705284 29.687200878019212,63.52642199370894 29.82290350526455,63.23817107635841 30.01797603192972,62.87518696249026 30.230011386971455,62.51220120187645 30.450528156245127,62.11718541477603 30.6456006829103,61.786224740353646 30.81522896696697,61.49796755358693 30.993338665226474,61.20970932830096 31.171448363456875,60.953478922863724 31.290188162296545,60.75062926991086 31.47677927472978,60.46236835205491 31.680333215597784,60.15275361677777 31.756665943423286,59.86449054481636 31.883887156494893,59.56554996572959 32.09592251153663,59.287961285001074 32.358846351795364,59.09578394184791 32.579363121069036,58.85022333157394 32.71506574828527,58.615338564319245 32.85924978976254,58.44451284589741 32.94406393179088,58.295040043085464 33.04584090222488,58.06015364584164 33.12217363002128,57.857296656875405 33.27483908564318,57.73985290185374 33.43598595552612,57.707822756936366 33.54624434013385,57.68646931988769 33.681946967408294,57.55834857773152 33.80916818042169,57.398197361515486 33.99575929288403,57.20601547887054 34.18235040534637,56.939095431545866 34.3434972751711,56.75758929068252 34.2671645473456,56.44796021757065 34.275645961548435,56.20239147992106 34.368941517779604,55.94614503693447 34.58097687282134,55.71125174320332 34.75908657110995,55.48703477393428 34.87782636994962,55.198754890087 35.00504758299212,54.91047396737849 35.22556435223669,54.64354626086424 35.47152536411886,54.41932629903022 35.641153648117324,54.17375133405585 35.76837486118893,53.88546671758377 35.895596074231435,53.58650379577011 36.065224358288106,53.31957167144719 36.362073855358176,53.23415320352069 36.56562779622618,53.10602533065685 36.692849009268684,52.796382123931835 36.769181737094186,52.51876995409839 36.82855163651402,52.209124474204145 36.89640295013669,51.8994777956832 36.98121709213592,51.54711977246188 37.06603123413515,51.280180842775735 37.06603123413515,51.17340502152365 37.15084537619259,50.86375433373178 37.19325244720676,50.53274710060214 37.286548003408825,50.18038305694063 37.3798435596691,49.77462859899242 37.43921345908893,49.45429467834765 37.5070647726825,49.09124801740836 37.60036032894277,48.76023344929854 37.668211642536335,48.42921751127142 37.736062956159,48.05548819293472 37.78695144140511,47.73514738738595 37.8887284117809,47.37209292341868 37.94809831122984,47.0303930990558 38.03291245325818,46.699370002155774 38.09228235267801,46.37902376522106 38.16013366627158,46.069354516606836 38.219503565720515,45.77036238029541 38.27039205093752,45.64222255113418 38.30431770771975,45.439334068476455 38.363687607168686,45.097625986927596 38.43153892076225,44.755916445508774 38.50787164858775,44.424883935032994 38.58420437644236,44.051135905552655 38.609648619021755,43.94435043347039 38.62661144742742,43.7521362244006 38.68598134681815,43.474492662455305 38.762314074643655,43.100740191664954 38.82168397409259,42.780379540796275 38.898016701918095,42.41730258516327 38.94890518710599,42.257121051348804 38.999793672322994,42.086260394979035 39.02523791490239,41.96879348197399 39.07612640011939,41.86200522950094 39.042200743366266,41.68046487310494 39.050682157539995,41.477566340028716 39.07612640011939,41.19991488165397 39.13549629956833,40.94362037223618 39.19486619895906,40.762077931118256 39.3305688262335,40.71936200269556 39.62741832330357,40.815472809495986 39.89882357776514,40.922262459374906 40.17871024648775,40.99701512943284 40.28048721689265,40.89022557939461 40.314412873703986,40.687325041464646 40.29745004532742,40.38831278408179 40.314412873703986,40.07862033892161 40.33137570210965,39.70485199761606 40.37378277312382,39.331081909433124 40.399227015761426,39.053422998738824 40.288968631095486,38.87187626666855 40.01756337660481,38.93595163094142 39.720713879563846,38.97866851192521 39.50019711026107,39.03206458105706 39.53412276710151,38.72236688375415 39.585011252289405,38.401988693389285 39.65286256588297,38.08160921949457 39.70375105115818,37.76122846207727 39.80552802156308,37.40880814641423 39.86489792098291,37.067065751012706 39.90730499199708,36.8107579960415 39.949712062982144,36.50105169607559 39.992119134025415,36.24474212687346 39.98363771982258,36.09522783214925 40.00908196243108,36.00979096680385 40.16174741805298,35.89231512788683 40.33137570210965,35.80687804573245 40.238080145878484,35.63600360756391 40.144784589647315,35.507847539331124 40.170228832255816,35.33697246215161 40.22111731750192,35.28357392568432 40.407708429935155,35.3262927577307 40.5688552998181,35.304933344581514 40.73000216964283,35.347652165190084 40.86570479685906,35.28357392568432 41.035333080915734,35.25153478667926 41.13711005134974,35.11269836926658 41.171035708190175,34.71754724657512 41.19647995076957,34.343753846755135 41.24736843598657,34.01267823346279 41.26433126439224,33.75636068813037 41.26433126439224,33.59616180510784 41.28977550700074,33.39324275919353 41.2558498501603,33.254403115272 41.04381449511857,33.211683176326915 40.823297725844895,33.17964320714964 40.68759509859956,33.104883229141706 40.467078329384094,33.05148320202716 40.19567307486432,32.998083139282244 39.88186074938858,32.934003016896895 39.57652983808657,32.859242809230636 39.296643169393064,32.784482531642425 38.94890518710599,32.73108229060017 38.68598134681815,32.61360163471545 38.53331589122536,32.57088135342201 38.278873465111246,32.57088135342201 37.97354255383834,32.54952120420785 37.693655885144835,32.53884112747619 37.371362145466264,32.51748096969823 37.06603123413515,32.47476063705108 36.777663151267916,32.44272037259361 36.50625789683545,32.42136018915335 36.42144375477801,32.39999999999418 36.362073855358176,32.52816104931844 36.29422254176461,32.74176234166953 36.25181547072134,32.95536306341819 36.209408399736276,33.14760322512302 36.192445571301505,33.37188282966963 36.158519914519275,33.56412198996986 36.065224358288106,33.74568077261938 35.980410216230666,33.884519563529466 35.90407748843427,34.09811723262828 35.861670417391,34.236955411608506 35.79381910379743,34.4185126664961 35.70052354756626,34.578709902045375 35.62419081974076,34.77094616103568 35.530895263538696,34.941822447726736 35.46304394991603,35.102018634890555 35.335822736873524,35.304933344581514 35.267971423250856,35.582605270756176 35.14075021020835,35.84959659822198 35.01352899716585,36.1699850144505 34.860863541514846,36.490372147076414 34.71667950012488,36.789398979402904 34.589458287053276,37.067065751012706 34.46223707401077,37.35541099343391 34.30109020418604,37.665113984578056 34.15690616273787,37.94277771552879 34.0381663639273,38.220440482444246 33.91942656508763,38.45538514758664 33.86853807987063,38.56217794899567 33.81764959465363,38.636932825167605 33.707391210016795,38.72236688375415 33.681946967408294,38.97866851192521 33.58865141114802,39.27768603991717 33.41054171288852,39.555344171974866 33.33420898509212,39.74756846790115 33.27483908564318,39.89707593420462 33.42750454132329,39.982508646578935 33.707391210016795,39.982508646578935 34.02120353549253,40.02522496852907 34.35197868937394,40.06794126767636 34.66579101487878,40.110657544057176 34.97960334038362,40.15337379754783 35.28493425165652,40.19609002825746 35.564820920320926,40.23880623612786 35.7853376895946,40.23880623612786 35.895596074231435,40.09997847709019 35.9380031452456,39.89707593420462 35.9634473878541,39.694172876486846 35.99737304469454,39.68349375395337 36.15003850028734,39.76892669449444 36.158519914519275,39.99318772919651 36.08218718666467,40.36695472291467 36.014335873071104,40.70868301702285 35.946484559448436,41.07176772962703 35.87863324585487,41.413493012099934 35.80230051802937,41.78725336795469 35.7344492043776,42.096939196686435 35.69204213336343,42.374587540878565 35.607227991335094,42.70562853762385 35.62419081974076,42.9939534506193 35.5563395061472,43.29295596623706 35.37822980785859,43.50652850727056 35.301897080033086,43.80552910660481 35.217082938033855,44.11520712033234 35.217082938033855,44.3821699629043 35.208601523860125,44.595739595388295 35.36974839368486,44.79863021802885 35.28493425165652,45.129661181606934 35.242527180642355,45.49272582433332 35.14075021020835,45.9091802968469 35.08138031078852,46.22952841556253 35.02201041136868,46.592588065694144 35.01352899716585,46.92361160457949 34.99656616876018,47.24395566034946 34.99656616876018,47.585654572365456 34.98808475458645,47.91667400141159 34.97112192615168,48.25837003959168 34.95415909777512,48.60006461808371 34.92871485516662,48.90972406903893 34.89478919832618,49.2087044703876 34.83541929893545,49.550394989259075 34.76756798531278,49.91343956622586 34.733642328501446,50.20173849767889 34.76756798531278,50.53274710060214 34.708198085892946,50.86375433373178 34.61490252966178,51.21611536711862 34.419830002996605,51.49373205778829 34.2162760621286,51.70728270273685 33.95335222189897,51.91015528731077 33.74979828100186,52.10234989286255 33.48687444074312,52.326576349027164 33.325727570889285,52.51876995409839 33.232432014658116,52.678930938891426 33.113692215818446,52.80705949583353 32.99495241700788,52.98857460023282 32.910138274979545,53.26618513966969 32.782917061966145,53.57582652792189 32.61328877788037,53.89614394414093 32.4436604938237,54.19510570876446 32.3164392808103,54.41932629903022 32.24858796718763,54.68625475373847 32.299476452346426,54.8997968762269 32.4436604938237,55.070630163842 32.3418835234188,55.35891050936334 32.32492069498403,55.52974281654315 32.32492069498403,55.51906580801733 32.206180896173464,55.56177383352042 32.01110836947919,55.82869847629627 31.849961499654455,56.09562222841487 31.629444730380783,56.33051439363771 31.425890789512778,56.56540586916526 31.332595233310713,56.80029665498296 31.222336848673876,57.10992436442757 31.086634221457643,57.302106477894995 30.917005937400972,57.302106477894995 30.679526339721633,57.302106477894995 30.408121085260063,57.24872260380653 30.11127158816089,57.227369044179795 29.81442209109082,57.227369044179795 29.636312392831314,57.23804582469893 29.48364693718031,57.280752932521864 29.432758451934205,57.344813551528205 29.33946289573214,57.547671839965915 29.22072309689247,57.76120632470702 29.178316025907407,58.07083031520597 29.076539055473404,58.28436340361077 29.0002063276188,58.47654269587656 28.932355014025234,58.55127896265185 28.754245315736625,58.722104453117936 28.525247132318327,58.95698890690255 28.423470161884325,59.149166583469196 28.525247132318327,59.34134379839816 28.584617031709058,59.416079257316596 28.601579860114725,59.618932293924445 28.677912587940227,59.86449054481636 28.652468345331727,60.00328400538274 28.54220996069489,59.82178481621668 28.381063090870157,60.03531323136849 28.228397635219153,60.29154657731851 28.084213593770983,60.51575008187501 27.906103895540582,60.76130558025761 27.77888268249808,61.03888914916752 27.677105712034972,61.273766801459715 27.558365913224407,61.55134859246027 27.46507035702234,61.850281751918374" stroke="#4DD2FF" stroke-dasharray="none" stroke-linecap="round" stroke-linejoin="round" stroke-width="0.5"><title>2017-12-17 14.0km</title><desc>9223370523376934807</desc></polyline><polyline fill="none" opacity="1" points="100.73368035961175,32.39999999999418 100.73368035961175,32.69415132746508 100.64278190798359,33.004643629392376 100.47397049778374,33.249768575275084 100.52591247018427,33.51123464378907 100.65576740109827,33.77270015446993 100.68173838726943,34.03416510733223 100.68173838726943,34.328312512465345 100.69472388032591,34.589776279986836 100.66875289415475,34.93294662822154 100.66875289415475,35.276116015615116 100.56486894947011,35.58660177611455 100.59083993564127,35.7500150184278 100.73368035961175,36.48537191210198 100.64278190798359,36.73048989623203 100.79860782506876,37.02463083001203 100.87652078358224,37.28608884523419 100.91547726286808,37.58022844558582 100.94144824909745,37.95607246315194 100.95443374215392,38.299233385732805 100.99339022143977,38.57702961930045 101.0453321938403,38.90384791148972 101.13623064541025,39.165301917731995 101.1751871246961,39.47577782580629 101.22712909709662,39.80259372144792 101.26608557638247,40.11306801514729 101.46086797275348,40.14574947395886 101.62967938289512,40.292815930930374 101.59072290366748,40.456222898341366 101.42191149346763,40.554266974264465 101.34399853495415,40.73401424304757 101.43489698652411,40.9791237301979 101.56475191749632,41.28959504359227 101.68162135535385,41.58372503605642 101.74654882075265,41.87785432267265 101.88938924472313,42.15564244529378 102.03222966875182,42.43342993831175 102.20104107889347,42.76023794760113 102.18805558583699,43.03802407041803 101.94133121712366,43.087045085550926 101.7075923414668,42.939981981311576 101.52579543815227,42.79291870065936 101.33101304183947,42.678536027022346 101.08428867306793,42.77657832522527 100.86353529052576,42.77657832522527 100.66875289415475,42.923641625508026 100.68173838726943,43.087045085550926 100.69472388032591,43.34849016854423 100.46098500478547,43.479212500853464 100.17530415666988,43.59359442730056 99.91559429484187,43.64261522027664 99.61692795378622,43.64261522027664 99.64289893995738,43.43019164258294 99.70782640547259,43.136066081111494 99.79872485710075,42.874620545051584 99.88962330872891,42.54781284071214 99.94156528107123,42.17198290350643 99.9675362672424,41.84517332571704 99.91559429484187,41.518362876508036 99.86365232249955,41.12618918713997 99.65588443301385,41.044486177313956 99.37020358507289,41.044486177313956 99.21437766792951,40.881079994142056 99.18840668181656,40.76669553632382 99.17542118864367,40.52158562438126 99.16243569558719,40.309156637500564 99.00660977856023,40.26013451127801 98.8248128752457,40.22745308295271 98.65600146510405,40.243793798217666 98.61704498576,40.40720083101769 98.63003047887469,40.684992286791385 98.64301597193116,40.995464345214714 98.65600146510405,41.28959504359227 98.68197245127521,41.58372503605642 98.68197245127521,41.91053531095531 98.68197245127521,42.221004265018564 98.68197245127521,42.49879160992714 98.69495794433169,42.825599444957334 98.68197245127521,43.136066081111494 98.69495794433169,43.413851352110214 98.70794343744637,43.658955480204895 98.72092893050285,43.88771889092459 98.70794343744637,44.083801474516804 98.69495794433169,44.34524443135888 98.66898695816053,44.59034669699031 98.65600146510405,44.8027682640095 98.63003047887469,44.98250930249924 98.61704498576,45.21127024292218 98.57808850653237,45.44003075639921 98.59107399958884,45.63611085681623 98.59107399958884,45.91389046199038 98.59107399958884,46.22434927577706 98.59107399958884,46.55114717766264 98.57808850653237,46.86160437740182 98.59107399958884,47.15572099925339 98.60405949270353,47.46617666776001 98.60405949270353,47.74395212568925 98.61704498576,48.07074597620522 98.61704498576,48.315840792398376 98.61704498576,48.609953924846195 98.59107399958884,48.80602895449556 98.59107399958884,49.051122300414136 98.56510301341768,49.27987564785872 98.61704498576,49.55764699578867 98.65600146510405,49.81907827770192 98.69495794433169,50.09684840382397 98.73391442355933,50.423635981656844 98.78585639595985,50.78310131106991 98.86376935453154,51.126226323969604 98.96765329927439,51.436671936629864 99.05855175084434,51.681760022824164 99.17542118864367,52.00854337554483 99.26631964033004,52.286308540373284 99.39617457124405,52.51505585067207 99.44811654364457,52.645768407754076 99.55200048832921,52.874515047253226 99.65588443301385,53.10326125989377 99.6948409122997,53.28299012753996 99.72081189852906,53.46271873168007 99.85066682944307,53.59343027824798 99.9675362672424,53.724141685474024 100.07142021198524,53.887530748485005 100.17530415666988,54.050919593748404 100.29217359452741,54.26332476699463 100.39605753921205,54.459390754149354 100.57785444252659,54.6064400387113 100.75965134584112,54.851521787692036 100.92846275598276,55.09660304662248 101.08428867306793,55.32534511294216 101.2401145902113,55.55408675249055 101.30504205566831,55.70113472394587 101.42191149346763,55.91353703799541 101.59072290366748,56.1586161738378 101.75953431380913,56.38735625849222 101.94133121712366,56.69778854800825 102.05820065492298,56.89385064162343 102.21402657200815,57.13892781765753 102.35686699603684,57.38400450373592 102.5256784062367,57.67809588039381 102.69448981643654,57.95584819940268 102.8633012266364,58.24993820423697 103.04509812989272,58.52768922771793 103.21390954003436,58.75642489219899 103.40869193640538,59.06685118278983 103.55153236037586,59.32826218625996 103.75930024986155,59.65502515674598 103.94109715311788,59.90009681304946 104.08393757714657,60.17784409800515 104.21379250800237,60.42291470924101 104.36961842514575,60.651646837715816 104.52544434228912,60.896716501833 104.69425575237256,61.158123603592685 104.81112519023009,61.370516463364766 104.97993660042994,61.599246823898284 105.16173350368626,61.86065242777113 105.31755942082964,62.12205747424741 105.46039984480012,62.33444866412174 105.61622576188529,62.64486589515582 105.78503717208514,62.93894465225458 105.97981956845615,63.24936035276187 106.12265999242663,63.51076243834541 106.30445689574117,63.80483911844931 106.52521027828334,64.13159015795827 106.6810361953685,64.376652866129 106.82387661933899,64.60537761847809 106.97970253648236,64.86677681296715 107.16149943973869,65.16085024061613 107.31732535676565,65.47126031573862 107.49912226008018,65.78166960498493 107.64196268416708,66.05940356600331 107.78480310807936,66.33713689796423 107.8886870528222,66.61486960075854 108.018541983678,66.95795030624868 108.08346944925142,67.23568160278955 108.10944043536438,67.38271556397376 107.99257099756505,67.5297493488033 107.95361451827921,67.61143470861134 108.04451296996558,67.5297493488033 108.20033888699254,67.59509764101676 108.26526635250775,67.80747935015097 108.35616480407771,68.05253471127071 108.46004874887876,68.34660049814556 108.57691818667809,68.67333943415724 108.69378762447741,69.00007749946235 108.81065706227673,69.32681469410454 108.88857002084842,69.57186701870523 108.9664829794201,69.81691885352484 109.09633791033411,70.11098040890647 109.20022185501875,70.37236786599533 109.3041057997616,70.63375476592773 109.38201875827508,70.87880447862699 109.42097523750272,71.10751710188924 109.51187368918909,71.36890243468224 109.61575763393193,71.66296026805503 109.71964157867478,71.95701739623473 109.81054003030295,72.2510738192068 109.90143848193111,72.51245671429933 109.97935144044459,72.75750267240073 110.09622087830212,73.0515571757278 110.20010482298676,73.29660205652908 110.31697426084429,73.60699153587484 110.42085820558714,73.90104400207201 110.55071313650114,74.19509576308337 110.6416115880711,74.42380220087944 110.719524546701,74.60349981699983 110.81042299832916,74.8812137967252 110.95326342229964,75.07724681546097 110.9792344084708,75.19159926498833 110.99221990158549,75.37129575598374 110.94027792924317,75.58366399669467 110.77146651904332,75.53465597384638 110.60265510884346,75.3059516078938 110.43384369864361,75.06091074251162 110.22607580927433,74.7995332797509 109.99233693355927,74.50548296811758 109.71964157867478,74.22776813749078 109.44694622379029,73.98272511753748 109.21320734813344,73.75401785712165 108.97946847247658,73.50897389041347 108.7717005830491,73.26392943402607 108.53796170733403,73.0515571757278 108.31720832485007,72.83918454962986 108.0315274768509,72.5451295369785 107.78480310807936,72.31641959522676 107.57703521859366,72.10404569585808 107.2783688774798,71.82632542631472 107.03164450882468,71.613950678111 106.74596366082551,71.45058523691114 106.46028281282634,71.31989272724604 106.12265999242663,71.2382098379021 105.78503717208514,71.1892000782318 105.4733853378566,71.12385370148695 105.16173350368626,71.04217068162689 104.88903814880177,70.9931608436018 104.56440082151676,70.91147773661214 104.23976349417353,70.89514110868913 103.9281116600614,70.82979457525653 103.57750334660523,70.73177470976225 103.3957064433489,70.68276474768209 103.21390954003436,70.63375476592773 103.03211263671983,70.60108143396064 102.83733024034882,70.56840809321875 102.62956235092133,70.55207141962455 102.43477995455032,70.51939806577138 102.26596854440868,70.47038801879535 102.08417164109414,70.437714643238 101.87640375160845,70.40504125897132 101.66863586218096,70.32335776025138 101.52579543815227,70.290684345513 101.26608557638247,70.19266404906375 100.94144824909745,70.04563345749193 100.61681092181243,69.93127620884479 100.24023162218509,69.80058207979164 100.01947823970113,69.7515717454371 99.70782640547259,69.65355101801833 99.39617457124405,69.55553021227388 99.04556625778787,69.45750932817464 98.69495794433169,69.39216202854732 98.35733512393199,69.2614673248172 98.09762526216218,69.17978306426085 97.70806046942016,69.09809874925122 97.43536511453567,68.95106684518396 97.09774229413597,68.83670857565448 96.91594539082143,68.77136094512389 96.63026454282226,68.67333943415724 96.31861270859372,68.57531784474122 96.00696087448159,68.39561139407306 95.69530904025305,68.19956769287091 95.38365720608272,68.00352367820597 95.1239473442547,67.74213117115141 94.91617945482722,67.46440102174529 94.72139705851441,67.15399599269585 94.66945508611389,66.97428745876823 94.57855663442751,66.79457866147277 94.42273071740055,66.54952078614588 94.33183226571418,66.38614859710651 94.1889918417437,66.12475264191016 94.04615141771501,65.84701882886293 93.86435451445868,65.52027236100548 93.70852859737352,65.17718763256562 93.53971718717366,64.80142706662446 93.34493479080265,64.40932785684709 93.1761233806028,64.04990247973183 92.99432647728827,63.73948880604439 92.86447154643247,63.412736721584224 92.69566013623262,63.05330842282274 92.52684872609098,62.661203622403264 92.33206632966176,62.26909756796522 92.13728393334895,61.89332808905601 91.9684725231491,61.50121957877127 91.77369012677809,61.158123603592685 91.59189322346356,60.78235071950621 91.4230818132637,60.42291470924101 91.25427040312206,60.06347764511156 91.08545899292221,59.72037764634297 90.96858955512289,59.377276687388076 90.79977814498125,59.11586578837887 90.68290870712372,58.82177786077955 90.59201025543734,58.51135094964411 90.47514081769623,58.18458493082289 90.38424236606807,57.825141304158024 90.30632940749638,57.44935820400133 90.24140194203937,57.07357395195868 90.20244546275353,56.74680410083238 90.150503490353,56.35467912970489 90.12453250424005,56.02790736233146 90.08557602495421,55.619441428250866 90.03363405255368,55.309006408104324 90.03363405255368,54.9495543500816 90.00766306638252,54.622778837234364 89.98169208021136,54.23064707197773 90.00766306638252,53.887530748485005 90.020648559439,53.56075240469363 90.020648559439,53.217634206142975 89.99467757326784,52.858176015688514 89.90377912169788,52.4660386058531 89.83885165618267,52.122917343178415 89.83885165618267,51.81247346846794 89.81288067001151,51.42033271345281 89.78690968384035,51.10988705938507 89.7479532045545,50.799440619157394 89.68302573915571,50.423635981656844 89.73496771143982,50.031490783716436 89.81288067001151,49.672023250219354 89.81288067001151,49.377912666037446 89.81288067001151,49.11648044324829 89.85183714929735,48.92040591024852 89.8258661631262,48.724331063560385 89.78690968384035,48.46289744682872 89.76093869766919,48.168783961496956 89.72198221844155,47.84199037234794 89.69601123221219,47.515195911953924 89.69601123221219,47.23741993561271 89.63108376675518,46.86160437740182 89.57914179435465,46.4694477838857 89.56615630129818,46.09362987103668 89.54018531512702,45.76683074936591 89.50122883584118,45.45637077675201 89.46227235661354,45.080549757840345 89.4233158773277,44.851788573396334 89.4233158773277,44.57400656116806 89.44928686344065,44.23086320636503 89.43630137038417,43.90405911819107 89.39734489104012,43.57725415864843 89.37137390492717,43.29946925794502 89.30644643947016,42.956322334954166 89.30644643947016,42.629514848486 89.31943193252664,42.335387365630595 89.34540291875601,41.97589726137812 89.2804754532408,41.58372503605642 89.25450446706964,41.27325446773466 89.215547987842,40.913761248208175 89.24151897401316,40.684992286791385 89.25450446706964,40.53792630042153 89.24151897401316,40.32549734189524 89.215547987842,40.08038654754637 89.215547987842,39.78625294739322 89.13763502927031,39.50845945458423 89.085693056928,39.14896105868684 89.05972207069863,38.80580251532956 89.05972207069863,38.47898396170058 89.04673657758394,38.103141547609994 89.03375108452747,37.77632112026913 88.99479460529983,37.433158733620076 88.99479460529983,37.10633651966782" stroke="#4DD2FF" stroke-dasharray="none" stroke-linecap="round" stroke-linejoin="round" stroke-width="0.5"><title>2017-11-19 11.8km</title><desc>9223370525802103807</desc></polyline><polyline fill="none" opacity="0.5" points="187.42415196751244,58.309181812102906 187.36553595680743,59.00418241909938 187.5999999998603,59.83818212756887 187.42415196751244,60.3941813147394 187.48276797845028,61.08917960344115 187.5999999998603,62.06217590958113 187.5999999998603,62.8266719445819 187.54138398938812,63.73016605316661 187.5999999998603,64.425160632818 187.5999999998603,65.53715035278583 187.5999999998603,66.0236452333047 187.36553595680743,66.92713472119067 187.07245590235107,67.90012193983421 185.95875169616193,68.10861900402233 185.255359566072,68.17811800987693 184.4933514248114,67.96962096903007 183.49687924026512,68.10861900402233 182.55902306665666,68.10861900402233 181.62116689281538,68.17811800987693 180.56607869756408,68.10861900402233 179.8040705563035,67.96962096903007 178.9834464045707,67.96962096903007 178.22143826354295,67.96962096903007 177.3421981006395,67.76112385862507 176.52157394844107,66.99663385830354 175.5837177745998,66.92713472119067 174.82170963380486,66.85763557621976 173.88385345996358,66.57963891886175 173.1218453189358,66.7186372630531 172.3012211669702,66.64913809474092 171.36336499336176,66.7186372630531 170.54274084139615,66.51013973512454 169.6635006784927,66.64913809474092 168.72564450465143,66.78813642339082 167.72917232010514,66.44064054382034 166.90854816813953,66.30164213792887 166.20515603781678,66.16264370107092 165.384531886084,66.16264370107092 164.62252374505624,65.88464673480485 163.7432835821528,65.88464673480485 162.9226594301872,65.74564820510568 162.21926729986444,65.95414598792559 160.98833107203245,65.39815174596151 159.99185888725333,65.25915310822893 159.05400271364488,65.18965377786662 157.99891451839358,65.25915310822893 157.58860244229436,65.32865243108245 156.47489823610522,65.60664964455646 155.0681139754597,64.98115574021358 154.07164179091342,64.14716289372882 153.19240162800997,64.35566120949807 152.19592944346368,64.00816397793824 151.3166892810259,63.869165030890144 150.61329715070315,64.00816397793824 149.9099050203804,63.7996655459865 149.20651289005764,63.52166752866469 148.3272727271542,63.59116704465123 147.56526458612643,63.938664508285 146.27571234712377,63.52166752866469 145.57232021703385,63.1046702710446 145.22062415187247,62.34017457580194 144.75169606506824,61.575677945744246 144.6930800541304,60.463681178574916 144.81031207600608,59.49068238417385 144.81031207600608,58.378681907604914 144.6930800541304,57.40567986789392 144.6930800541304,56.0851746769622 144.51723202154972,55.39017082436476 144.39999999990687,54.34766359644709 144.6344640434254,53.37465528177563 144.6344640434254,52.540646949375514 144.8689280867111,51.845639155537356 144.6930800541304,50.942127868242096 144.98616010835394,49.96911425224971 144.92754409764893,48.92659798276145 145.10339213022962,48.30108738626586 145.16200814116746,47.05006431584479 145.10339213022962,45.93804170633666 145.16200814116746,44.9650203002966 145.22062415187247,44.20050241862191 145.39647218445316,43.296980080136564 145.57232021703385,42.32395456265658 145.39647218445316,41.3509275301476 145.39647218445316,40.65590729378164 145.27924016257748,39.821881990123075 145.39647218445316,40.65590729378164 145.39647218445316,41.3509275301476 145.57232021703385,42.32395456265658 145.39647218445316,43.296980080136564 145.22062415187247,44.20050241862191 145.16200814116746,44.9650203002966 145.10339213022962,45.93804170633666 145.16200814116746,47.05006431584479 145.10339213022962,48.30108738626586 144.92754409764893,48.92659798276145 144.98616010835394,49.96911425224971 144.6930800541304,50.942127868242096 144.8689280867111,51.845639155537356 144.6344640434254,52.540646949375514 144.6344640434254,53.37465528177563 144.39999999990687,54.34766359644709 144.51723202154972,55.39017082436476 144.6930800541304,56.0851746769622 144.6930800541304,57.40567986789392 144.81031207600608,58.378681907604914 144.81031207600608,59.49068238417385 144.6930800541304,60.463681178574916 144.75169606506824,61.575677945744246 145.22062415187247,62.34017457580194 145.57232021703385,63.1046702710446 146.27571234712377,63.52166752866469 147.56526458612643,63.938664508285 148.3272727271542,63.59116704465123 149.20651289005764,63.52166752866469 149.9099050203804,63.7996655459865 150.61329715070315,64.00816397793824 151.3166892810259,63.869165030890144 152.19592944346368,64.00816397793824 153.19240162800997,64.35566120949807 154.07164179091342,64.14716289372882 155.0681139754597,64.98115574021358 156.47489823610522,65.60664964455646 157.58860244229436,65.32865243108245 157.99891451839358,65.25915310822893 159.05400271364488,65.18965377786662 159.99185888725333,65.25915310822893 160.98833107203245,65.39815174596151 162.21926729986444,65.95414598792559 162.9226594301872,65.74564820510568 163.7432835821528,65.88464673480485 164.62252374505624,65.88464673480485 165.384531886084,66.16264370107092 166.20515603781678,66.16264370107092 166.90854816813953,66.30164213792887 167.72917232010514,66.44064054382034 168.72564450465143,66.78813642339082 169.6635006784927,66.64913809474092 170.54274084139615,66.51013973512454 171.36336499336176,66.7186372630531 172.3012211669702,66.64913809474092 173.1218453189358,66.7186372630531 173.88385345996358,66.57963891886175 174.82170963380486,66.85763557621976 175.5837177745998,66.92713472119067 176.52157394844107,66.99663385830354 177.3421981006395,67.76112385862507 178.22143826354295,67.96962096903007 178.9834464045707,67.96962096903007 179.8040705563035,67.96962096903007 180.56607869756408,68.10861900402233 181.62116689281538,68.17811800987693 182.55902306665666,68.10861900402233 183.49687924026512,68.10861900402233 184.4933514248114,67.96962096903007 185.255359566072,68.17811800987693 185.95875169616193,68.10861900402233 187.07245590235107,67.90012193983421 187.36553595680743,66.92713472119067 187.5999999998603,66.0236452333047 187.5999999998603,65.53715035278583 187.5999999998603,64.425160632818 187.54138398938812,63.73016605316661 187.5999999998603,62.8266719445819 187.5999999998603,62.06217590958113 187.48276797845028,61.08917960344115 187.42415196751244,60.3941813147394 187.5999999998603,59.83818212756887 187.36553595680743,59.00418241909938 187.42415196751244,58.309181812102906 187.42415196751244,57.127679006778635 187.42415196751244,56.36317600152688 187.42415196751244,55.04266860813368 187.36553595680743,54.55616518104216 187.36553595680743,53.72215842513833 187.36553595680743,54.55616518104216 187.42415196751244,55.04266860813368 187.42415196751244,56.36317600152688" stroke="#4DD2FF" stroke-dasharray="1,0.5" stroke-linecap="round" stroke-linejoin="round" stroke-width="0.5"><title>2014-03-22 10.5km</title><desc>9223370641410674807</desc></polyline><polyline fill="none" opacity="1" points="55.600000000034925,99.04039913523593 55.48510638298467,99.0753564297047 55.37021276593441,99.0986612856941 55.236170212738216,99.08700885841245 55.1117021276732,99.08700885841245 54.977659574477,99.08700885841245 54.82446808513487,99.06370399962907 54.70000000001164,99.11031371153513 54.55638297868427,99.12196613601554 54.43191489361925,99.19188065308845 54.297872340423055,99.22683789253642 54.16382978722686,99.2384903028942 54.029787234030664,99.18022823709907 53.8861702127615,99.14527098064718 53.76170212763827,99.22683789253642 53.66595744685037,99.22683789253642 53.54148936166894,99.21518548080348 53.39787234039977,99.21518548080348 53.263829787261784,99.19188065308845 53.168085106357466,99.11031371153513 53.06276595743839,99.11031371153513 52.95744680851931,99.11031371153513 52.81382978725014,99.14527098064718 52.67978723405395,99.14527098064718 52.55531914893072,99.14527098064718 52.430851063807495,99.13361855902622 52.28723404253833,99.11031371153513 52.16276595747331,99.12196613601554 52.028723404277116,99.13361855902622 51.88510638300795,99.12196613601554 51.770212765957695,99.13361855902622 51.664893617038615,99.13361855902622 51.52127659571124,99.14527098064718 51.41595744679216,99.13361855902622 51.291489361727145,99.0986612856941 51.16702127654571,99.0753564297047 51.04255319148069,99.0986612856941 50.918085106415674,99.12196613601554 50.822340425511356,99.12196613601554 50.66914893616922,99.08700885841245 50.554255319118965,99.0753564297047 50.448936170199886,99.0753564297047 50.33404255320784,99.06370399962907 50.190425531880464,99.0753564297047 50.0468085106113,99.0753564297047 49.93191489367746,99.0986612856941 49.797872340423055,99.06370399962907 49.69255319144577,99.06370399962907 49.55851063830778,99.06370399962907 49.44361702125752,99.0520515681419 49.300000000046566,99.02874670089659 49.17553191486513,99.00544182801241 49.01276595745003,99.02874670089659 48.86914893618086,99.02874670089659 48.73510638298467,99.0520515681419 48.581914893642534,99.04039913523593 48.46702127659228,99.04039913523593 48.3617021276732,99.02874670089659 48.23723404254997,99.0520515681419 48.12234042555792,99.04039913523593 47.99787234037649,99.02874670089659 47.8638297872385,99.04039913523593 47.758510638261214,99.04039913523593 47.624468085123226,99.04039913523593 47.5,99.0753564297047 47.38510638300795,99.06370399962907 47.270212765957695,99.0753564297047 47.1361702127615,99.06370399962907 47.0021276595653,99.06370399962907 46.887234042573255,99.06370399962907 46.75319148937706,99.06370399962907 46.64787234045798,99.06370399962907 46.53297872340772,99.06370399962907 46.418085106357466,99.06370399962907 46.2744680850883,99.04039913523593 46.149999999965075,99.00544182801241 46.02553191490006,99.02874670089659 45.89148936170386,99.01709426517482 45.7478723404347,99.00544182801241 45.62340425531147,99.01709426517482 45.49893617024645,99.01709426517482 45.374468085123226,99.0520515681419 45.25,99.04039913523593 45.115957446803804,99.02874670089659 44.98191489360761,99.01709426517482 44.85744680854259,99.01709426517482 44.732978723419365,98.99378938943846 44.57978723407723,99.00544182801241 44.47446808509994,98.98213694948936 44.33085106383078,98.99378938943846 44.18723404256161,98.99378938943846 44.06276595743839,99.01709426517482 43.91914893616922,98.98213694948936 43.77553191490006,98.94717962112918 43.63191489363089,98.94717962112918 43.4978723404347,98.92387472849805 43.37340425531147,98.91222228004335 43.23936170217348,98.92387472849805 43.143617021269165,98.92387472849805 43.00957446807297,98.94717962112918 42.89468085102271,98.98213694948936 42.779787234030664,99.00544182801241 42.6361702127615,99.00544182801241 42.51170212769648,99.00544182801241 42.387234042573255,98.98213694948936 42.272340425523,98.98213694948936 42.16702127660392,99.00544182801241 42.013829787203576,98.99378938943846 41.89893617021153,98.98213694948936 41.7744680850883,99.00544182801241 41.65000000002328,98.98213694948936 41.52553191490006,98.95883206534927 41.38191489363089,98.95883206534927 41.267021276580635,98.94717962112918 41.15212765958859,98.93552717550483 40.99893617024645,98.9005698302135 40.87446808506502,98.94717962112918 40.721276595722884,98.92387472849805 40.596808510657866,98.91222228004335 40.48191489366582,98.92387472849805 40.338297872338444,98.92387472849805 40.20425531914225,98.91222228004335 40.07978723401902,98.91222228004335 39.92659574467689,98.92387472849805 39.82127659575781,98.93552717550483 39.677659574430436,98.95883206534927 39.572340425511356,98.88891737897211 39.42872340424219,98.88891737897211 39.31382978725014,98.88891737897211 39.17978723405395,98.87726492629008 39.04574468085775,98.88891737897211 38.930851063807495,98.91222228004335 38.79680851066951,98.87726492629008 38.67234042554628,98.88891737897211 38.538297872350086,98.8656124722329 38.40425531915389,98.8656124722329 38.28936170210363,98.8539600167569 38.184042553184554,98.80735018070118 38.05957446806133,98.80735018070118 37.93510638299631,98.81900264182332 37.79148936166894,98.84230755984754 37.66702127660392,98.83065510151937 37.55212765955366,98.87726492629008 37.427659574488644,98.87726492629008 37.2744680850883,98.87726492629008 37.15000000002328,98.88891737897211 37.02553191490006,98.8539600167569 36.91063829790801,98.8539600167569 36.80531914893072,98.8656124722329 36.671276595734525,98.8539600167569 36.52765957446536,98.8656124722329 36.403191489342134,98.83065510151937 36.25,98.81900264182332 36.15425531915389,98.83065510151937 36.020212765957695,98.83065510151937 35.732978723419365,98.84230755984754 35.455319148954004,98.81900264182332 35.29255319148069,98.7607403220536 34.91914893622743,98.8656124722329 34.603191489353776,98.84230755984754 34.37340425531147,98.77239278882917 34.162765957415104,98.77239278882917 33.91382978722686,98.72578291331592 33.73191489360761,98.73743538429699 33.45425531914225,98.73743538429699 33.195744680881035,98.8656124722329 32.94680851063458,98.79569771816023 32.65000000002328,98.93552717550483 28.982978723419365,98.72578291331592 28.74361702130409,98.64421557677997 28.523404255334754,98.69082549180894 28.197872340446338,98.72578291331592 27.929787234053947,98.64421557677997 27.62340425531147,98.59760563912278 27.393617021327373,98.56264817110059 24.272340425522998,98.59760563912278 23.994680851115845,98.57430066187953 23.6787234043004,98.55099567892466 23.448936170258094,98.58595315121056 23.228723404288758,98.5160381939786 22.92234042554628,98.48108069632872 22.63510638300795,98.52769069036003 22.35744680854259,98.5160381939786 19.954255319200456,98.49273319693748 19.600000000034925,98.5160381939786 19.408510638342705,98.5160381939786 19.226595744665246,98.50438569617836 19.159574468096253,98.49273319693748 18.98723404260818,98.44612318595318 18.786170212784782,98.49273319693748 18.575531914888415,98.48108069632872 18.393617021269165,98.41116566293931 18.17340425529983,98.39951315242797 17.93404255324276,98.39951315242797 17.68510638299631,98.46942819430114 17.5893617021502,98.3529030962818 16.47872340423055,98.45777569083293 16.239361702173483,98.41116566293931 16.047872340423055,98.41116566293931 15.760638297884725,98.39951315242797 15.492553191492334,98.42281817201729 15.24361702130409,98.42281817201729 14.965957446838729,98.434470679691 14.726595744723454,98.36455561241746 14.487234042549971,98.39951315242797 14.267021276580635,98.36455561241746 13.951063829823397,98.37620812717796 13.769148936204147,98.32959805976134 13.424468085111585,98.38786064048327 13.0893617021502,98.34125057874917 12.97446808515815,98.41116566293931 13.031914893654175,98.66752053709934 13.022340425581206,98.83065510151937 13.060638297873084,99.0986612856941 12.907446808530949,99.18022823709907 12.850000000034925,98.98213694948936 12.763829787261784,98.83065510151937 12.60106382984668,98.88891737897211 12.476595744723454,99.12196613601554 12.400000000023283,99.25014271184773 12.4287234043004,99.55310484890651 12.476595744723454,99.83276135979395 12.534042553219479,100.10076475356618 12.59148936177371,100.39207194389019 12.639361702138558,100.67172601717175 12.70638297876576,100.88146603889618 12.725531914911699,101.07955341751222 12.744680851057637,101.30094471123448 12.773404255334754,101.59224826925492 12.821276595757809,101.82529048086872 12.830851063830778,102.08163626197347 12.821276595757809,102.36128542644292 12.878723404253833,102.62928177995491 12.850000000034925,102.90892935332522 12.907446808530949,103.1652722485087 12.850000000034925,103.44491826471494 12.88829787238501,103.70125973253016 12.792553191480692,103.95760051770048 12.840425531903747,104.20228881216462 12.850000000034925,104.4236729235854 12.811702127684839,104.66836003334174 12.830851063830778,104.88974307284661 12.830851063830778,105.09947390379966 12.811702127684839,105.33250762448006 12.792553191480692,105.5888440656563" stroke="#4DD2FF" stroke-dasharray="none" stroke-linecap="round" stroke-linejoin="round" stroke-width="0.5"><title>2013-12-10 10.9km</title><desc>9223370650177580807</desc></polyline><polyline fill="none" opacity="1" points="107.33954221289605,115.53605946153402 109.23361762333661,111.79207779094577 109.47037704847753,107.76009095064364 109.94389590155333,104.30409679980949 110.41741475462914,101.42409784393385 110.18065532762557,96.81609227391891 110.41741475462914,94.51208614767529 110.65417417977005,91.34407408395782 110.41741475462914,88.75206108158454 108.99685819726437,85.58404135890305 105.91898565553129,83.56802661530674 102.13083483558148,81.26400767685845 98.81620286870748,81.26400767685845 96.44860860612243,82.41601742431521 93.37073606532067,84.43203314347193 91.23990122880787,88.75206108158454 91.23990122880787,92.20807779114693 90.05610409844667,96.24009095155634 89.58258524537086,98.83209580765106 88.63554754015058,102.86409775703214 88.87230696715415,106.60809345706366 88.16202868893743,109.48808614583686 88.16202868893743,113.23207143717445 88.16202868893743,116.11205611890182 89.34582581929862,118.41604135814123 91.71342008188367,121.87201503920369 94.55453319568187,123.0240051522851 98.342684016563,123.60000000009313 101.89407540857792,122.44801016617566 103.78815081901848,119.85603100107983 106.39250450860709,117.55204715509899 108.04982049111277,113.5200700617861 108.04982049111277,110.35208327439614 109.23361762333661,106.32009399682283 109.7071364754811,103.15209763473831 110.41741475462914,99.40809650393203 111.3644524589181,95.08808788773604 111.3644524589181,92.49607895803638 111.12769303377718,88.17605780856684 109.94389590155333,84.72003524936736 108.52333934418857,82.41601742431521 105.20870737731457,81.55201016599312 102.84111311472952,80.97600515326485 99.05296229477972,81.26400767685845 95.97508975397795,82.99202209012583 92.89721721317619,85.87204332626425 90.52962294965982,89.04006266547367 90.2928635245189,92.7840800897684 89.8193446714431,96.24009095155634 89.34582581929862,99.69609679933637 88.63554754015058,102.86409775703214 88.63554754015058,106.60809345706366 88.16202868893743,110.35208327439614 88.63554754015058,114.09606720716693 89.10906639229506,117.55204715509899 91.23990122880787,119.85603100107983 94.08101434446871,121.58401742414571 97.39564631134272,122.44801016617566 101.18379713129252,122.16001262003556 104.97194795124233,119.56803314271383 107.33954221289605,117.26404901780188 108.04982049111277,112.94407277810387 108.76009877026081,108.91208788729273 109.23361762333661,104.592096503824 109.7071364754811,101.13609775644727 110.41741475462914,97.96809450234286 111.83797131106257,93.93608426698484 111.3644524589181,90.48007006337866 111.3644524589181,87.02405084599741 109.94389590155333,84.14403100195341 107.57630163896829,81.84001261997037 104.49842909816653,80.39999999990687 102.13083483558148,80.68800259311683 99.76324057392776,81.55201016599312 95.73833032790571,82.99202209012583" stroke="#4DD2FF" stroke-dasharray="none" stroke-linecap="round" stroke-linejoin="round" stroke-width="0.5"><title>2013-11-30 10.3km</title><desc>9223370651086224807</desc></polyline><polyline fill="none" opacity="1" points="176.4053537240252,104.33895478351042 176.85776040703058,101.31220428971574 177.53637043293566,97.45997056690976 178.44118379987776,94.98353115888312 177.762573774904,89.48032283014618 175.72674369905144,86.45355257811025 174.8219303302467,83.42677830182947 173.01230359636247,82.6012937091291 170.2978634936735,83.15161680453457 168.2620334168896,83.15161680453457 165.32138997409493,82.6012937091291 162.1545431893319,82.6012937091291 162.38074653036892,83.7019397658296 160.34491645358503,85.07774658850394 156.27325630094856,88.93000126630068 157.17806966789067,92.23192865797319 156.49945964291692,95.80901126144454 156.27325630094856,100.76188558526337 156.49945964291692,104.06379581429064 153.55881619919091,107.36570125445724 154.46362956706434,109.8421271899715 155.82084961794317,112.31855043233372 155.82084961794317,116.17075901036151 156.49945964291692,118.37201812700368 157.40427300985903,119.47264688764699 159.44010308664292,122.22421646025032 162.83315321430564,122.22421646025032 166.67861002590507,123.60000000009313 167.58342339284718,121.6739028126467 171.20267686247826,119.74780399515294 174.8219303302467,115.89560147118755 175.72674369905144,114.51981327589601 177.53637043293566,112.04339242749847 176.85776040703058,106.8153840135783 176.17915038205683,105.71474913298152 176.4053537240252,101.86252286075614 177.762573774904,96.90965093066916 177.762573774904,95.80901126144454 176.17915038205683,92.78224942437373 178.44118379987776,90.30580492829904 176.85776040703058,89.20516206463799 175.2743370141834,86.72871367656626 173.23850693926215,83.7019397658296 171.4288802035153,83.15161680453457 168.4882367597893,80.4000000001397 163.9641699232161,82.6012937091291 160.79732313752174,85.90323028201237 157.85667969379574,88.93000126630068 156.72566298395395,90.85612616012804 156.49945964291692,95.25869122636504 158.0828830357641,99.38608824228868 156.27325630094856,102.96315960329957 155.36844293307513,105.43959032977 156.0470529589802,107.64085982413962 155.1422395920381,110.6676019039005 155.36844293307513,113.69433995871805 155.36844293307513,117.27138883504085 157.40427300985903,118.64717536675744 160.118713112548,120.57327511627227 163.5117632402107,121.94905965286307 166.4524066830054,122.77452997583896 169.61925346869975,122.22421646025032 172.3336935704574,120.02296106843278 174.8219303302467,117.27138883504085 176.4053537240252,113.41918211965822 176.63155706506222,110.3924436995294 176.85776040703058,107.36570125445724 176.85776040703058,104.06379581429064 176.17915038205683,100.76188558526337 176.85776040703058,97.45997056690976 177.08396374993026,94.70837105903774 177.98877711594105,91.40644725854509 177.53637043293566,88.37967956834473 176.17915038205683,85.62806908367202 174.3695236472413,83.7019397658296 172.3336935704574,82.87645527347922 169.16684678569436,82.05097048147582 166.4524066830054,82.05097048147582 163.28555989731103,83.7019397658296 161.47593316342682,84.25226259441115 159.44010308664292,86.45355257811025 157.85667969379574,88.37967956834473 157.63047635182738,91.40644725854509 156.72566298395395,95.25869122636504 157.17806966789067,98.28544977051206 156.49945964291692,102.13768209633417 156.49945964291692,104.06379581429064 156.0470529589802,108.46633533574641 154.68983290810138,112.31855043233372 155.1422395920381,116.17075901036151 156.49945964291692,118.09686085442081 160.34491645358503,119.19748974777758 163.5117632402107,121.3987459379714 166.67861002590507,121.3987459379714 170.07166015263647,119.74780399515294 172.3336935704574,118.09686085442081 174.14332030527294,115.07012865296565 175.72674369905144,111.21791821252555 175.50054035615176,107.64085982413962 176.17915038205683,104.33895478351042 176.17915038205683,100.76188558526337 176.85776040703058,97.45997056690976 177.08396374993026,93.6077303243801 178.21498045884073,89.48032283014618 177.08396374993026,87.55419677193277 175.04813367314637,85.62806908367202 172.3336935704574,83.97710119653493 168.2620334168896,82.87645527347922 164.64277994912118,83.15161680453457 161.9283398464322,84.80258529004641 159.21389974374324,87.27903577359393 158.0828830357641,90.0306442619767 157.63047635182738,92.78224942437373 156.49945964291692,96.90965093066916 156.72566298395395,100.21156674809754 156.72566298395395,102.41284129838459 156.27325630094856,105.9899079024326 156.27325630094856,110.11728546163067 155.5946462759748,113.41918211965822 156.72566298395395,116.17075901036151 158.0828830357641,119.19748974777758 161.02352648042142,121.6739028126467 163.73796658124775,122.77452997583896 167.13101670891047,122.77452997583896 170.2978634936735,121.1235890306998 172.10749022942036,118.9223325739149" stroke="#4DD2FF" stroke-dasharray="none" stroke-linecap="round" stroke-linejoin="round" stroke-width="0.5"><title>2013-11-16 10.4km</title><desc>9223370652294258807</desc></polyline><polyline fill="none" opacity="1" points="37.64869111124426,170.12056055432186 40.810890073888004,168.04934382555075 43.24335081502795,164.79457114171237 43.973089036531746,161.53979412838817 44.459581185132265,157.69323389837518 45.18931940756738,154.73433729959652 45.43256548140198,150.88776637450792 46.162303702905774,147.04118940443732 46.162303702905774,144.08227993012406 45.43256548140198,139.3480173314456 45.67581155523658,135.7973143735435 43.48659688886255,134.31785328662954 40.810890073888004,130.4712502779439 38.37842933367938,129.58357180282474 30.59455496352166,128.99178597261198 27.675602074712515,131.06303575029597 25.97287955507636,134.61374557600357 22.81068059336394,138.16445025079884 24.27015703730285,141.12336687929928 23.297172740101814,144.6740621116478 23.297172740101814,150.88776637450792 22.81068059336394,154.43844744330272 23.053926666267216,160.06034860108048 22.56743451859802,163.6110163643025 23.540418814867735,166.5699022328481 24.99989525973797,168.64112021238543 29.135078518651426,170.71233643963933 34.0,171.60000000009313 38.37842933367938,171.30411218269728 39.35141362901777,169.52878452418372 42.02712044399232,167.1616789775435 42.27036651875824,163.01923876185901 42.27036651875824,160.35623777890578 43.24335081502795,155.32611690624617 45.18931940756738,150.29598569567315 45.43256548140198,146.1535169382114 45.919057629071176,142.89871513913386 45.67581155523658,138.75623386260122 45.919057629071176,135.7973143735435 44.70282725803554,132.5424988034647 40.56764399912208,129.879464663798 36.91895288974047,128.99178597261198 33.270261778496206,128.99178597261198 29.378324592486024,130.4712502779439 26.7026177784428,132.24660626379773 25.486387407407165,136.38909855671227 23.783664888702333,141.12336687929928 23.783664888702333,144.08227993012406 23.540418814867735,146.74529861821793 22.81068059336394,150.88776637450792 23.053926666267216,154.73433729959652 22.81068059336394,157.69323389837518 23.053926666267216,162.72334990650415 24.02691096253693,165.09045974630862 26.459371704608202,167.1616789775435 31.081047111190856,171.00822432967834 34.972984296269715,171.00822432967834 38.62167540658265,169.82467255694792 40.810890073888004,168.64112021238543 43.48659688886255,165.38634831481613 44.216335110366344,162.72334990650415 43.973089036531746,158.58090218016878 44.459581185132265,153.8466676226817 45.43256548140198,150.88776637450792 46.162303702905774,147.33708015549928 46.162303702905774,143.7863887862768 46.405549777671695,139.64390901243314 45.919057629071176,135.7973143735435 43.72984296362847,132.5424988034647 41.054136148653924,130.4712502779439 36.91895288974047,128.4000000001397 33.270261778496206,128.99178597261198 29.864816741086543,130.4712502779439 26.7026177784428,131.95071368920617 24.02691096253693,134.90963782859035 23.297172740101814,140.23569226590917 23.540418814867735,143.7863887862768 23.053926666267216,147.33708015549928 24.51340311113745,150.88776637450792 22.81068059336394,156.50967568787746 22.080942370928824,160.35623777890578 22.81068059336394,164.2027938242536 23.053926666267216,166.27401380729862 26.7026177784428,168.64112021238543 29.621570666320622,170.12056055432186 34.486492147669196,170.71233643963933 37.89193718507886,170.12056055432186 41.054136148653924,168.64112021238543 43.24335081502795,165.68223684746772 43.973089036531746,162.13157208892517 44.94607333280146,158.58090218016878 45.43256548140198,155.0302271207329 45.67581155523658,151.77543712500483 46.162303702905774,148.81653337273747 46.405549777671695,145.26584414974786 46.89204192534089,139.3480173314456 46.405549777671695,135.7973143735435 44.70282725803554,133.13428377383389 41.54062829632312,130.4712502779439 38.864921481348574,129.2876789055299 34.0,128.69589300476946 31.081047111190856,129.58357180282474 28.40534029621631,130.76714303181507 25.97287955507636,133.13428377383389 24.99989525973797,134.31785328662954 24.27015703730285,135.7973143735435 25.486387407407165,139.3480173314456 25.243141333572567,140.82747537712567 24.756649184972048,144.9699531486258 23.297172740101814,149.1124239093624 22.56743451859802,152.3672174452804 22.080942370928824,157.39734439994209 21.10795807465911,159.46857014065608 21.837696296162903,160.94801602489315 23.297172740101814,163.90690511232242 25.97287955507636,165.68223684746772 28.40534029621631,168.93700835271738 31.56753925886005,169.82467255694792 32.78376962989569,170.41644851467572 37.64869111124426,171.60000000009313 40.56764399912208,170.71233643963933 42.513612592592835,168.04934382555075 43.973089036531746,166.27401380729862 44.459581185132265,163.31512758182362 43.973089036531746,159.46857014065608 44.459581185132265,153.55077765905298 46.162303702905774,150.00009530293755 45.67581155523658,146.44940779660828" stroke="#4DD2FF" stroke-dasharray="none" stroke-linecap="round" stroke-linejoin="round" stroke-width="0.5"><title>2013-11-03 10.7km</title><desc>9223370653417861807</desc></polyline><polyline fill="none" opacity="1" points="88.99068268761039,150.57609784416854 88.51716366223991,154.32009399705566 88.04364463873208,157.77608522307128 88.04364463873208,161.23207143694162 88.99068268761039,164.68805263843387 91.1215182961896,167.85603100177832 93.48911341652274,169.5840174248442 97.27726561017334,170.73600767669268 102.01245585177094,170.73600767669268 105.09032951015979,169.5840174248442 106.74764609336853,167.28003524802625 107.93144365400076,163.24806107999757 109.58876023907214,160.0800765901804 109.82551975175738,155.7600909504108 109.58876023907214,152.01609706040472 110.77255779877305,148.27209728653543 111.48283633589745,145.39209345774725 111.71959584765136,142.5120861462783 111.9563553603366,138.48007006268017 111.48283633589745,133.2960393568501 109.35200072731823,129.84001261997037 106.98440560605377,129.2640076763928 103.90653194859624,130.41601742454804 100.35513926763088,130.12801503995433 97.51402512192726,130.41601742454804 94.67291097715497,132.14403100241907 92.77883488032967,135.3120526385028 91.35827780794352,138.1920686531812 91.59503732062876,143.37608870584518 90.88475878350437,145.96809450211003 90.1744802473113,149.712097896263 89.46420171111822,153.4560954067856 88.51716366223991,155.7600909504108 88.28040415141732,159.2160800890997 88.28040415141732,162.96006266516633 89.70096122287214,167.28003524802625 92.77883488032967,169.5840174248442 97.27726561017334,171.31200259411708 100.59189877938479,171.60000000009313 104.3800509730354,170.16001262003556 107.69468414224684,167.28003524802625 108.16820316575468,162.6720642137807 110.29903877526522,158.06408426584676 110.53579828795046,154.60809345706366 110.53579828795046,151.44009747868404 110.77255779877305,147.1200961722061 111.00931731145829,142.80008703446947 112.19311487209052,139.0560727783013 112.42987438477576,135.3120526385028 110.29903877526522,132.7200352489017 108.87848170287907,130.41601742454804 105.80060804635286,128.9760051521007 102.01245585177094,128.4000000001397 98.22430365905166,129.2640076763928 94.90967048984021,129.84001261997037 89.70096122287214,133.8720433257986 88.99068268761039,135.0240508459974 88.99068268761039,136.46405946207233 90.1744802473113,139.63207535468973 89.93772073462605,143.66408948926255 88.51716366223991,147.69609680003487 88.51716366223991,150.57609784416854 87.57012561522424,154.32009399705566 87.57012561522424,157.48808614653535 87.80688512697816,160.65607408294454 87.57012561522424,163.5360594613012 89.22744219843298,166.7040393569041 91.35827780794352,169.00802208902314 94.19939195271581,169.87201503990218 97.9875441454351,169.5840174248442 102.01245585177094,168.72002436965704 106.51088658254594,166.99203731981106 108.40496267937124,164.4000543965958 110.29903877526522,160.65607408294454 109.82551975175738,156.62408870481886 110.29903877526522,152.59209650335833 110.53579828795046,149.13609775714576 110.77255779877305,145.39209345774725 111.00931731145829,141.93608426721767 112.19311487209052,139.34407408325933 111.9563553603366,135.3120526385028 109.35200072731823,132.7200352489017 106.74764609336853,130.70401977421716 102.72273438796401,129.55201016529463 99.6448607314378,129.2640076763928 95.8567085377872,130.41601742454804 92.77883488032967,131.56802661553957 91.59503732062876,135.6000543970149 90.64799927081913,139.34407408325933 90.41123975906521,142.5120861462783 90.41123975906521,145.96809450211003 89.22744219843298,149.712097896263" stroke="#4DD2FF" stroke-dasharray="none" stroke-linecap="round" stroke-linejoin="round" stroke-width="0.5"><title>2013-11-02 10.5km</title><desc>9223370653505000807</desc></polyline><polyline fill="none" opacity="1" points="168.88550934474915,168.09003118495457 171.3270941739902,167.82003335561603 173.99064126145095,166.47004371811636 174.8784902896732,161.61007426702417 175.54437706060708,157.83009071601555 175.54437706060708,152.97010246641003 175.54437706060708,150.540104374988 176.65418834704906,147.0301024664659 176.65418834704906,144.33009724435396 176.87615060433745,142.4400916469749 176.2102638334036,139.20007833116688 175.54437706060708,134.88005326571874 173.32475448958576,131.1000244792085 172.21494320314378,130.29001747770235 168.88550934474915,128.94000515691005 166.2219622572884,128.94000515691005 162.6705661425367,130.56001984444447 159.78505679685622,132.45003549358808 157.5654342258349,135.15005507646129 156.01169842481613,138.12007284793071 156.45562293939292,142.98009340977296 156.67758519575,145.68010026379488 156.23366068210453,149.19010429433547 156.01169842481613,151.35010403278284 156.01169842481613,152.97010246641003 155.56777391023934,155.67009724397212 155.12384939659387,158.6400877290871 156.23366068210453,162.15007139416412 157.5654342258349,164.85005507571623 160.67290582694113,167.0100396713242 164.22430194169283,168.3600289823953 167.7756980592385,168.3600289823953 169.77335837297142,167.82003335561603 172.65886771772057,165.66004954348318 174.6565280323848,162.96006684168242 175.54437706060708,159.18008557590656 175.54437706060708,155.94009654247202 175.7663393188268,152.70010280935094 175.54437706060708,149.46010437584482 175.54437706060708,146.49010168295354 176.43222609069198,142.98009340977296 176.87615060433745,140.01008210144937 176.43222609069198,137.31006839242764 175.32241480425,134.34004954481497 173.99064126145095,132.72003759886138 170.4392451448366,130.56001984444447 167.7756980592385,128.4000000001397 165.3341132281348,129.48001018329524 162.0046793706715,130.8300221778918 159.78505679685622,132.45003549358808 158.67524551134557,135.69005860155448 158.2313209977001,138.12007284793071 157.7873964831233,141.63008875912055 156.45562293939292,144.33009724435396 156.01169842481613,146.76010209089145 156.23366068210453,150.81010429398157 157.7873964831233,154.32010026299395 154.90188713837415,155.13009854895063 155.12384939659387,156.21009580790997 154.45796262472868,157.56009164638817 154.90188713837415,163.23006525845267 160.22898131329566,166.20004569296725 165.77803774364293,167.55003549298272 167.1098112873733,167.55003549298272 169.10747160110623,167.55003549298272 171.77101868763566,168.3600289823953 173.99064126145095,164.0400603134185 174.6565280323848,162.96006684168242 174.8784902896732,160.5300796192605 175.54437706060708,159.18008557590656 173.54671674594283,158.91008666879497 174.8784902896732,158.10008975397795 176.2102638334036,155.94009654247202 175.9883015761152,150.81010429398157 176.2102638334036,149.46010437584482 175.7663393188268,146.2201012421865 176.2102638334036,142.1700907170307 175.7663393188268,136.7700652598869 175.32241480425,133.26004171161912 173.54671674594283,129.75001264712773 169.55139611661434,129.48001018329524 165.77803774364293,129.21000768686645 162.6705661425367,130.56001984444447 159.78505679685622,132.72003759886138 156.67758519575,133.26004171161912 156.45562293939292,137.58006991050206 156.23366068210453,140.55008445074782 156.01169842481613,144.0600965428166 154.90188713837415,147.57010311936028 155.34581165295094,151.62010385282338 155.12384939659387,155.13009854895063 154.90188713837415,159.18008557590656 154.90188713837415,161.61007426702417 158.45328325405717,165.66004954348318 164.00233968626708,168.63002674723975 166.44392451550812,169.98001507879235 169.32943385839462,171.60000000009313 173.32475448958576,167.82003335561603 175.1004525469616,162.69006839231588 175.54437706060708,159.7200832911767 175.54437706060708,158.6400877290871 175.1004525469616,153.24010209064 174.8784902896732,148.92010417976417 175.32241480425,146.2201012421865 175.54437706060708,142.98009340977296 177.09811286255717,138.93007700890303 175.7663393188268,135.96006031497382 174.43456577509642,134.34004954481497 172.88082997407764,130.8300221778918 170.21728288847953,130.02001507859677 166.0,129.75001264712773 162.0046793706715,130.56001984444447 159.78505679685622,130.8300221778918 156.89954745396972,132.72003759886138 154.90188713837415,135.69005860155448 154.67992488108575,138.39007426798344 155.34581165295094,139.7400808769744 154.23600036650896,142.71009254432283 154.67992488108575,145.95010076928884 154.90188713837415,147.57010311936028 154.45796262472868,150.27010442432947 154.90188713837415,153.78010124200955 154.67992488108575,157.02009340864606 154.90188713837415,161.34007565444335 157.5654342258349,166.20004569296725 161.7827171124518,168.63002674723975 163.11449065618217,168.3600289823953 166.0,169.98001507879235 167.99766031466424,169.1700221770443 171.1051319167018,171.33000259427354 173.32475448958576,168.63002674723975 174.8784902896732,162.42006990942173 173.99064126145095,158.37008875748143 175.1004525469616,151.35010403278284 174.8784902896732,147.0301024664659 174.8784902896732,145.68010026379488 176.43222609069198,142.98009340977296 177.76399963349104,140.82008557626978 177.09811286255717,136.7700652598869 175.32241480425,132.1800333559513 173.10279223136604,129.75001264712773 169.9953206302598,128.6700025945902 166.0,128.94000515691005 161.1168303405866,130.56001984444447 157.1215097112581,132.1800333559513 156.67758519575,133.53004371840507 155.56777391023934,134.61005142168142 155.78973616752774,137.04006684245542 156.01169842481613,138.6600756549742 156.23366068210453,142.1700907170307 156.23366068210453,143.5200950417202 156.23366068210453,147.84010339644738 156.01169842481613,149.19010429433547 155.12384939659387,151.62010385282338 155.78973616752774,155.13009854895063 154.90188713837415,156.21009580790997 155.12384939659387,161.07007700833492 156.23366068210453,162.15007139416412 156.23366068210453,163.50006364332512 158.45328325405717,165.66004954348318 162.6705661425367,168.63002674723975 167.1098112873733,170.52001018356532 170.4392451448366,169.710017477395 171.99298094585538,168.09003118495457 175.32241480425,163.77006199466996 174.8784902896732,159.18008557590656 174.43456577509642,152.97010246641003 176.2102638334036,152.1601033960469 176.65418834704906,147.3001028096769 176.87615060433745,146.49010168295354 175.9883015761152,142.71009254432283 176.87615060433745,138.93007700890303 175.54437706060708,134.34004954481497 173.54671674594283,132.1800333559513 172.21494320314378,128.94000515691005 166.2219622572884,129.21000768686645 162.0046793706715,130.02001507859677 159.34113228321075,132.1800333559513 157.3434719676152,134.34004954481497 156.23366068210453,136.50006364448927 156.89954745396972,138.39007426798344 157.1215097112581,140.01008210144937 156.89954745396972,143.5200950417202 156.01169842481613,144.6000979137607 155.56777391023934,147.0301024664659 156.23366068210453,148.65010403259657 156.23366068210453,150.540104374988 154.90188713837415,152.43010311899707 155.56777391023934,153.78010124200955 154.90188713837415,157.83009071601555 154.90188713837415,161.07007700833492 155.78973616752774,162.15007139416412" stroke="#4DD2FF" stroke-dasharray="none" stroke-linecap="round" stroke-linejoin="round" stroke-width="0.5"><title>2013-10-26 11.1km</title><desc>9223370654110301807</desc></polyline><polyline fill="none" opacity="1" points="22.434609359130263,211.9263737637084 24.07011914718896,214.20004340726882 27.574782977811992,217.89475188939832 30.144869786687195,219.0315841003321 32.24766808561981,219.31579206697643 35.51868766080588,218.7473760987632 37.855130213312805,216.47371085267514 40.19157276768237,213.6316262029577 42.5280153201893,209.6527019208297 43.462592341937125,206.52639954793267 44.163525108247995,202.26325324806385 44.63081361912191,199.13694104878232 43.92988085281104,197.14746748516336 44.39716936275363,193.1685153071303 44.163525108247995,191.17903669271618 43.462592341937125,189.75797950988635 43.22894808650017,187.76849800907075 42.5280153201893,183.78952995873988 41.126149787567556,180.3789805562701 36.9205531924963,178.67370399925858 33.649533617310226,178.10527820512652 29.67758127581328,180.66319319489412 27.574782977811992,181.51583090610802 25.00469616893679,184.3579543782398 23.135542125441134,187.76849800907075 24.537407658062875,190.32640248560347 25.238340423442423,193.1685153071303 25.238340423442423,196.86325683817267 24.30376340262592,199.9895720607601 23.836474891752005,203.68430287321098 23.602830636315048,206.81060902611353 24.537407658062875,208.23165590292774 23.836474891752005,212.77900013769977 25.939273189753294,215.62108581862412 28.275715744122863,217.89475188939832 31.079446808435023,218.46316806343384 34.350466382689774,217.89475188939832 38.32241872418672,216.18950254260562 41.59343829937279,213.91583482245915 42.5280153201893,209.93691102182493 42.29437106475234,206.52639954793267 42.76165957655758,202.26325324806385 42.76165957655758,198.85273064253852 42.76165957655758,195.1579922370147 44.163525108247995,191.4632480267901 45.79903489537537,189.18955639493652 46.7336119171232,186.63165068160743 46.49996766075492,184.07374218595214 44.163525108247995,181.23161837016232 41.126149787567556,179.81055517448112 38.08877446874976,177.25263925665058 34.81775489449501,176.4000000001397 31.313091062940657,177.82106525660492 28.509359998628497,180.09476788225584 25.939273189753294,182.6526807071641 25.471984679810703,185.77901482582092 25.471984679810703,189.4737679695245 25.00469616893679,192.60009301709943 24.537407658062875,196.86325683817267 21.733676593750715,199.9895720607601 22.20096510462463,203.68430287321098 21.967320849187672,207.94744659680873 22.434609359130263,211.07374708005227 22.434609359130263,213.91583482245915 24.537407658062875,216.75791912851855 27.574782977811992,219.0315841003321 30.845802552998066,219.60000000009313 34.81775489449501,219.0315841003321 37.38784170243889,217.610543750925 41.126149787567556,215.90529419737868 42.060726810246706,213.6316262029577 43.69623659737408,210.22112008789554 44.163525108247995,206.81060902611353 44.163525108247995,203.1158831268549 44.63081361912191,199.70536175812595 45.33174638450146,195.4422030900605 45.565390639938414,192.0316705906298 46.03267915081233,189.18955639493652 45.79903489537537,185.49480280443095 44.864457874558866,181.80004340759479 42.76165957655758,179.24212965508923 39.72428425680846,178.10527820512652 36.21962042618543,177.53685227409005 32.7149565955624,177.53685227409005 29.443937021307647,178.95791684417054 25.939273189753294,181.23161837016232 24.537407658062875,184.07374218595214 25.238340423442423,188.33692146651447 23.836474891752005,191.74745932617225 23.602830636315048,194.58957042940892 23.602830636315048,198.28430972713977 21.967320849187672,201.69483315735124 22.434609359130263,206.52639954793267 22.20096510462463,209.3684927856084 23.602830636315048,212.21058258996345 24.537407658062875,215.90529419737868 25.471984679810703,217.610543750925 31.079446808435023,219.0315841003321 35.051399149000645,218.46316806343384 37.62148595787585,216.18950254260562 41.82708255387843,212.77900013769977 43.462592341937125,211.9263737637084 44.163525108247995,209.08428361662664 43.69623659737408,205.95798048726283 43.69623659737408,202.26325324806385 43.69623659737408,199.13694104878232 44.163525108247995,195.72641390911303 45.565390639938414,192.31588182109408 45.79903489537537,189.18955639493652 45.79903489537537,186.34743876405992 45.79903489537537,183.78952995873988 43.462592341937125,181.23161837016232 41.59343829937279,178.10527820512652 38.08877446874976,176.96842620545067 33.88317787181586,178.10527820512652 29.91122553125024,180.09476788225584 27.574782977811992,183.22110540163703 25.471984679810703,186.34743876405992 24.07011914718896,188.33692146651447 23.836474891752005,192.0316705906298 22.9018978709355,195.4422030900605 22.434609359130263,199.13694104878232 23.135542125441134,202.26325324806385 21.733676593750715,205.38956129038706 21.2663880828768,208.51586517505348 22.434609359130263,213.6316262029577 24.537407658062875,215.90529419737868 26.873850212432444,217.89475188939832 28.97664850950241,219.31579206697643 33.18224510550499,219.60000000009313 36.9205531924963,217.89475188939832 39.25699574500322,215.62108581862412 41.126149787567556,213.6316262029577 42.29437106475234,209.6527019208297 42.060726810246706,206.52639954793267 43.22894808650017,202.26325324806385 43.462592341937125,198.0000992184505 43.92988085281104,194.87378135020845 45.09810212999582,191.4632480267901" stroke="#4DD2FF" stroke-dasharray="none" stroke-linecap="round" stroke-linejoin="round" stroke-width="0.5"><title>2013-10-20 10.7km</title><desc>9223370654628121807</desc></polyline><polyline fill="none" opacity="1" points="96.31459094118327,178.30190426507033 94.0810096943751,179.38870597910136 91.62407032120973,181.56230783159845 90.28392157331109,184.82270667003468 90.06056344788522,187.53970208903775 88.94377282448113,191.3434901572764 88.27369845006615,195.14727178867906 88.05034032464027,198.13595284009352 87.3802659502253,200.58123438083567 86.71019157581031,203.84160563116893 86.71019157581031,207.37366914795712 87.3802659502253,210.36233394150622 89.83720532245934,213.0792984876316 92.51750282011926,214.9811717160046 95.42115844320506,217.42643493087962 99.21824656426907,217.6981306800153 102.56861843541265,217.42643493087962 106.14234843291342,216.06795569579117 109.26936217956245,213.8943872116506 110.83286905195564,211.17742365039885 111.05622717738152,208.18875993951224 111.50294342730194,205.20009225560352 111.94965967629105,201.1246299177874 112.61973405070603,198.13595284009352 113.06645030062646,195.41897022980265 113.28980842512101,192.70198433613405 112.84309217520058,188.89819856663235 112.61973405070603,186.1812047897838 110.38615280296654,182.92080792272463 108.82264592964202,179.6604063261766 105.91899030748755,177.75850321003236 102.79197656083852,176.67170070740394 99.88832093775272,176.67170070740394 96.31459094118327,177.48680263385177 92.96421907003969,179.6604063261766 90.50727969687432,182.92080792272463 89.61384719889611,185.90950523177162 89.61384719889611,188.89819856663235 88.94377282448113,192.15858676331118 88.72041469905525,196.23406535829417 87.60362407565117,199.49444291344844 88.05034032464027,202.4831181843765 86.93354970123619,206.2868809637148 89.39048907347023,208.73215363710187 90.28392157331109,211.9925130638294 92.07078657113016,215.52456377237104 94.30436781886965,217.42643493087962 97.8780978154391,218.7849133447744 101.67518593650311,219.60000000009313 104.57884155865759,217.96982639585622 107.03578093089163,215.25286776060238 109.04600405413657,212.8076021813322 110.60951092839241,209.81894063809887 110.38615280296654,207.64536611060612 111.05622717738152,204.65669770352542 111.27958530280739,201.6680253231898 111.50294342730194,198.67934896820225 112.1730178007856,196.23406535829417 112.61973405070603,191.88688792707399 112.61973405070603,188.62649933667853 111.27958530280739,183.19250784208998 109.492720304057,179.6604063261766 106.58906468190253,178.03020375361666 102.12190218642354,176.4000000001397 98.54817218892276,176.67170070740394 95.64451656676829,178.03020375361666 92.51750282011926,179.9321066394914 90.95399594679475,183.19250784208998 90.7306378223002,186.72460380778648 90.28392157331109,191.07179122348316 89.61384719889611,195.69066863902844 86.93354970123619,198.40765092079528 87.3802659502253,201.1246299177874 87.3802659502253,204.3850003783591 86.93354970123619,207.64536611060612 88.05034032464027,210.36233394150622 90.95399594679475,214.16608338686638 94.0810096943751,217.6981306800153 98.10145593993366,218.7849133447744 101.67518593650311,217.15473914984614 104.35548343416303,215.25286776060238" stroke="#4DD2FF" stroke-dasharray="none" stroke-linecap="round" stroke-linejoin="round" stroke-width="0.5"><title>2013-10-19 10.2km</title><desc>9223370654714312807</desc></polyline><polyline fill="none" opacity="1" points="160.31776964943856,179.8560288255103 157.4766544746235,182.44804715528153 157.00313527788967,185.6160657282453 155.81933728791773,189.36008224752732 155.1090584937483,193.10409288294613 155.1090584937483,195.98409706004895 155.81933728791773,199.72809728630818 155.1090584937483,203.47209162893705 155.1090584937483,206.64008224592544 154.3987797005102,210.38406572700478 154.87229889724404,213.26404901687056 157.23989487532526,215.856031000847 161.5015676394105,217.87201503897086 165.0529616093263,219.60000000009313 168.36759597994387,218.16001261910424 171.20871115475893,216.14402882475406 174.049826329574,213.55204715393484 174.76010512374341,210.38406572700478 175.70714351627976,206.06408426584676 175.23362432047725,202.03209450119175 175.47038391791284,197.71209789603017 175.70714351627976,194.83209580741823 176.41742231044918,190.8000870347023 177.36446070112288,187.05607277853414 175.94390311371535,183.0240508459974 174.76010512374341,180.14403100172058 171.20871115475893,177.55201016599312 167.18379798997194,176.39999999990687 163.39564442262053,177.55201016599312 160.31776964943856,179.2800243704114 158.66045246366411,182.44804715528153 157.4766544746235,185.32806421420537 157.23989487532526,187.92007659026422 156.76637568045408,191.6640894880984 155.81933728791773,195.12009617267177 155.1090584937483,198.28809789568186 154.87229889724404,201.45609540655278 154.87229889724404,205.48808614583686 155.34581809211522,209.23207143694162 157.00313527788967,212.97605084488168 158.1869332678616,214.99203731981106 161.028048443608,218.16001261910424 164.57944241166115,218.16001261910424 167.42055758740753,218.73600767576136 170.73519195895642,217.29601977346465 173.33954753633589,215.56803314224817 174.99686472211033,212.11205611890182 175.47038391791284,207.79207779001445 175.70714351627976,203.18409227347001 175.70714351627976,200.30409679887816 175.70714351627976,196.84809763496742 176.65418190788478,193.9680945011787 177.36446070112288,190.51208614674397 177.1277011046186,186.19206865271553 174.99686472211033,180.14403100172058 172.3925091456622,178.12801503925584 167.65731718577445,176.68800259334967 164.81620201002806,176.97600515233353 161.97508683428168,179.56802661530674 159.37073125783354,181.58404135890305 158.66045246366411,184.4640594618395 157.23989487532526,189.07208118587732 155.81933728791773,193.39209345704876 155.81933728791773,196.84809763496742 154.3987797005102,200.30409679887816 154.6355392979458,204.04809023649432 154.87229889724404,207.2160800884012 154.3987797005102,210.67206421284936 156.29285648372024,214.70403935597278 158.89721206203103,217.29601977346465 161.5015676394105,217.5840174241457 166.4735191958025,218.16001261910424 169.31463437061757,216.72002436965704 172.3925091456622,214.12804332445376 173.33954753633589,211.53605946153402 174.52334552630782,207.79207779001445 175.94390311371535,204.33608948858455 177.1277011046186,201.1680958061479 177.6012202994898,197.13609775644727 177.1277011046186,192.52809162973426 177.1277011046186,188.20807779114693 176.18066271208227,184.75206108111888 174.76010512374341,180.14403100172058 171.91898994892836,178.12801503925584 168.84111517574638,177.26400767685845 164.81620201002806,176.97600515233353 161.5015676394105,178.99202208942734 158.66045246366411,181.58404135890305 157.23989487532526,184.176057808334 157.9501736694947,187.63207535399124 156.76637568045408,192.24009095085785 157.23989487532526,196.27209728676826 156.76637568045408,200.01609705970623 155.81933728791773,203.47209162893705 156.05609688628465,207.5040789565537 155.34581809211522,210.0960672076326 156.52961608115584,212.68805263726972 157.9501736694947,215.856031000847 161.7383272368461,217.87201503897086 163.86916361842304,217.87201503897086 168.84111517574638,218.44801016524434 171.91898994892836,216.72002436965704 174.52334552630782,213.84004525723867 175.70714351627976,209.8080686519388 175.70714351627976,206.35208327393048 175.70714351627976,202.89609288214706 176.41742231044918,199.15209763427265 176.41742231044918,195.69609679910354" stroke="#4DD2FF" stroke-dasharray="none" stroke-linecap="round" stroke-linejoin="round" stroke-width="0.5"><title>2013-10-12 10.6km</title><desc>9223370655320152807</desc></polyline><polyline fill="none" opacity="1" points="30.334047372452915,266.20646424684674 34.22912203986198,265.64904971048236 36.9785865098238,265.92775699542835 39.49892894178629,263.41939021321014 41.33190525602549,262.0258519339841 42.93575953040272,256.4516903918702 43.623125648126006,252.54976929398254 43.85224768798798,249.48396951239556 43.623125648126006,247.5330038932152 43.39400360919535,244.18848756235093 44.31049176584929,242.5162275780458 44.99785788357258,237.77815103437752 44.53961380571127,234.71233161212876 43.1648815702647,231.9252195081208 42.47751545254141,229.13810403598472 42.47751545254141,227.18712120037526 41.102783216163516,227.74454503622837 38.58244078513235,226.35098519385792 34.00000000093132,224.95742450957187 31.0214134901762,225.79356102156453 28.0428269803524,227.18712120037526 26.438972705975175,231.08908522012644 25.522484549321234,234.43362055299804 25.75160658825189,236.6633080795873 24.376874351873994,241.1226766637992 24.376874351873994,243.63106770208105 23.68950823508203,248.0904228107538 24.376874351873994,251.1562244440429 24.60599639080465,255.33685646601953 24.14775231294334,258.9600647534244 23.002142117358744,262.5832673464902 25.06424046959728,263.41939021321014 28.50107105821371,265.64904971048236 31.708779607899487,267.60000000009313 34.68736611865461,267.60000000009313 38.811562824063,265.92775699542835 41.33190525602549,263.97680529020727 43.623125648126006,260.9110207038466 44.53961380571127,257.2878154825885 44.7687358437106,252.82847816240974 43.623125648126006,249.20526023977436 43.85224768798798,244.18848756235093 44.99785788357258,240.28654571180232 45.226979923434556,237.22072962438688 46.143468079157174,234.43362055299804 45.45610196236521,232.20393087039702 42.93575953040272,228.58068053680472 38.811562824063,227.18712120037526 35.374732236377895,226.35098519385792 32.62526776455343,226.35098519385792 30.334047372452915,227.46583313541487 26.438972705975175,229.41681573539972 25.06424046959728,232.20393087039702 24.14775231294334,235.54846458579414 24.376874351873994,239.45041445526294 24.376874351873994,242.79493765952066 24.60599639080465,245.86074633477256 24.376874351873994,249.48396951239556 22.773020077496767,251.99235145538114 22.08565395977348,254.77943930099718 21.856531920842826,257.5665237775538 22.773020077496767,260.35360488598235 23.918630273081362,262.5832673464902 25.522484549321234,265.3703423908446 28.50107105821371,266.7638786493335 31.708779607899487,266.7638786493335 36.52034243196249,267.60000000009313 39.49892894178629,264.8129276514519 41.33190525602549,262.3045596573502 43.623125648126006,258.6813566253986 43.85224768798798,254.77943930099718 43.85224768798798,251.43493348150514 44.99785788357258,247.81171336886473 45.685224001295865,244.4671974426601 45.45610196236521,241.40138691361062 45.45610196236521,238.8929934501648 45.91434604022652,235.54846458579414 45.226979923434556,232.7613534934353 44.31049176584929,230.2529506292194 42.93575953040272,227.46583313541487 39.95717302057892,225.79356102156453 36.52034243196249,225.79356102156453 32.62526776455343,225.79356102156453 28.959315137937665,226.35098519385792 26.897216784767807,228.58068053680472 24.60599639080465,232.20393087039702 25.06424046959728,234.71233161212876 25.06424046959728,238.05686168861575 23.68950823508203,242.5162275780458 23.68950823508203,246.41816565580666 24.376874351873994,247.81171336886473 23.460386195220053,251.43493348150514 22.773020077496767,253.38589579914697 23.231264155358076,256.73039878858253 23.918630273081362,259.79618893377483 24.376874351873994,262.8619750030339 25.980728627182543,265.3703423908446 27.813704941421747,266.485171465436 34.00000000093132,266.485171465436 38.12419670633972,266.485171465436 40.186295059509575,265.3703423908446 43.85224768798798,262.0258519339841 43.1648815702647,257.2878154825885 42.93575953040272,252.82847816240974 44.08136972691864,250.04138795821927 42.93575953040272,246.41816565580666 44.31049176584929,244.18848756235093 45.226979923434556,242.23751746257767 45.91434604022652,238.05686168861575 46.143468079157174,234.43362055299804 45.45610196236521,231.08908522012644 42.93575953040272,228.30196873680688 38.58244078513235,225.79356102156453 36.29122039210051,224.4000000001397 33.312633882276714,224.95742450957187 32.854389804415405,226.07227312470786 30.334047372452915,227.74454503622837" stroke="#4DD2FF" stroke-dasharray="none" stroke-linecap="round" stroke-linejoin="round" stroke-width="0.5"><title>2013-10-06 10.6km</title><desc>9223370655838244807</desc></polyline><polyline fill="none" opacity="1" points="95.44693301152438,228.55388155416586 93.39805286563933,230.21543206600472 92.48743946664035,232.4308308751788 91.12151937000453,236.03084936900996 90.2109059728682,238.80009051598608 90.43855932168663,241.01548102218658 89.5279459245503,244.3385627658572 89.98325262311846,247.6616396890022 89.7555992724374,251.261634249473 88.84498587623239,255.69238901790231 88.16202582698315,258.46160639775917 89.0726392250508,261.50774164893664 90.43855932168663,263.1692682597786 93.39805286563933,265.9384766018484 95.67458635941148,267.3230795171112 97.95111985504627,267.60000000009313 102.27653349470347,266.49231786769815 106.14664043672383,264.5538728488609 108.65082728024572,260.4000565716997 109.78909402806312,256.800076372223 110.01674737781286,253.47701270505786 110.47205407731235,250.4308667758014 111.61032082512975,247.3847167957574 110.92736077588052,243.78471614304 110.92736077588052,240.46163359680213 111.61032082512975,237.41547036124393 111.83797417394817,234.64622754161246 111.61032082512975,231.8769813736435 109.5614406792447,230.21543206600472 107.96786723192781,228.00003111502156 105.23602703865618,226.89232983626425 102.27653349470347,227.44618054293096 97.72346650529653,228.00003111502156 95.44693301152438,228.55388155416586 93.8533595642075,230.21543206600472 93.62570621352643,231.8769813736435 92.71509281732142,234.64622754161246 92.48743946664035,237.69239445892163 91.80447941832244,241.84625191055238 91.12151937000453,244.89240925433114 91.80447941832244,248.49240816570818 90.89386602025479,251.5385566733312 90.43855932168663,255.1385451410897 89.5279459245503,257.90776318963617 89.5279459245503,259.84621383203194 90.43855932168663,262.8923472412862 92.03213276807219,265.10771445115097 96.12989305891097,266.21539725130424 99.31703995261341,267.0461590006016 102.27653349470347,266.21539725130424 105.23602703865618,265.9384766018484 107.2849071836099,263.7231101959478 108.65082728024572,261.50774164893664 109.5614406792447,257.6308415350504 109.33378732949495,254.58470112946816 110.2444007275626,250.7077893000096 110.2444007275626,247.1077938694507 110.01674737781286,243.50779278133996 109.78909402806312,238.80009051598608 110.2444007275626,235.47700073826127 110.92736077588052,234.09237857535481 110.2444007275626,231.32313173846342 107.96786723192781,228.83080672309734 105.00837368983775,226.06155352527276 102.9594935439527,225.23077691416256 99.77234665118158,225.78462802176364 96.35754640772939,225.78462802176364 94.5363196125254,226.61540443263948 93.39805286563933,229.66158202895895 91.80447941832244,232.4308308751788 91.57682606950402,235.47700073826127 90.89386602025479,239.07701444602571 90.2109059728682,242.95394595898688 89.7555992724374,245.4462556091603 89.0726392250508,248.49240816570818 89.0726392250508,251.81547906342894 88.16202582698315,255.1385451410897 87.70671912748367,257.6308415350504 87.93437247723341,260.67697789077647 89.0726392250508,263.1692682597786 92.03213276807219,265.6615559179336 95.67458635941148,266.49231786769815 99.77234665118158,266.76923845126294 103.41480024252087,266.21539725130424 105.91898708697408,264.2769519982394 108.65082728024572,262.0615839860402 109.78909402806312,257.90776318963617 110.2444007275626,255.1385451410897 110.69970742613077,252.09240142116323 110.92736077588052,249.3231763425283 111.38266747444868,245.4462556091603 111.61032082512975,243.23086938657798 111.83797417394817,240.18470983416773 112.06562752369791,237.41547036124393 112.29328087251633,234.36930307536386 111.61032082512975,231.6000565723516 110.47205407731235,229.1077318591997 108.19552058167756,226.61540443263948 105.69133373815566,225.23077691416256 102.9594935439527,224.4000000001397 100.68296004924923,224.95385130867362 96.81285310722888,225.50770248449408 94.08101291395724,227.16925520659424 92.71509281732142,230.76928196917288 91.12151937000453,235.20007637282833 90.2109059728682,237.9693185237702 89.98325262311846,240.18470983416773 89.7555992724374,243.23086938657798 89.98325262311846,246.27702489006333 90.2109059728682,249.6000990010798 89.98325262311846,252.64624603441916 89.7555992724374,255.96931090718135 90.2109059728682,259.2923709584866 91.57682606950402,262.3385051051155 94.08101291395724,264.00003111432306 96.81285310722888,266.76923845126294 100.68296004924923,266.76923845126294 102.9594935439527,266.49231786769815 106.37429378647357,264.83079366665334 108.4231739314273,262.8923472412862 109.5614406792447,259.56929241190664 110.01674737781286,256.800076372223 110.92736077588052,253.75393486046232 110.92736077588052,250.4308667758014 111.61032082512975,247.6616396890022 111.61032082512975,244.61548602650873 111.38266747444868,241.56932831485756 112.52093422133476,237.9693185237702 111.61032082512975,235.20007637282833 110.69970742613077,231.8769813736435 110.01674737781286,229.3846569606103 107.51256053335965,227.72310584550723 104.32541364058852,226.06155352527276 101.36592009756714,226.61540443263948 97.26815980672836,226.89232983626425 94.30866626370698,228.83080672309734 92.94274616613984,230.76928196917288 90.89386602025479,234.09237857535481 90.43855932168663,236.30777363479137 89.5279459245503,239.90778603730723 89.7555992724374,242.95394595898688 88.61733252555132,246.00010183011182 88.61733252555132,249.3231763425283 87.93437247723341,252.64624603441916 87.47906577866524,255.96931090718135 88.16202582698315,259.2923709584866 89.30029257386923,262.3385051051155 92.71509281732142,264.2769519982394 96.35754640772939,265.9384766018484 98.8617332521826,265.38463520118967 102.27653349470347,264.5538728488609 104.78072033915669,261.7846628341358 107.96786723192781,259.84621383203194 109.5614406792447,257.35391984693706 110.2444007275626,255.1385451410897 110.47205407731235,251.81547906342894 110.92736077588052,248.49240816570818 111.15501412469894,246.00010183011182 111.61032082512975,242.12317547295243 111.15501412469894,239.35393834323622 111.38266747444868,235.20007637282833 111.61032082512975,231.8769813736435 110.92736077588052,229.9385070647113 109.10613397974521,228.55388155416586 105.91898708697408,226.61540443263948 102.73184019327164,226.06155352527276 99.54469330050051,226.89232983626425 95.67458635941148,228.83080672309734 94.30866626370698,231.32313173846342 93.8533595642075,234.64622754161246 92.94274616613984,238.523166552186 92.71509281732142,241.2924046854023 91.80447941832244,244.61548602650873 91.12151937000453,248.21548537374474 90.89386602025479,251.5385566733312" stroke="#4DD2FF" stroke-dasharray="none" stroke-linecap="round" stroke-linejoin="round" stroke-width="0.5"><title>2013-09-29 10.5km</title><desc>9223370656443428807</desc></polyline><polyline fill="none" opacity="1" points="175.4404086433351,227.68104161159135 172.51837739627808,226.04052140074782 169.37157451547682,225.76710125035606 166.0,226.04052140074782 163.30274038854986,227.40762165863998 160.83025240991265,229.3215606319718 159.70639423839748,232.3291757463012 158.80730770155787,235.88362481584772 158.35776443220675,239.43806830001995 157.90822116378695,242.7190880975686 157.23390626069158,245.72668539732695 156.55959135759622,248.46086128987372 155.88527645450085,251.7418679993134 155.88527645450085,255.29628656315617 155.88527645450085,258.57728335657157 157.23390626069158,261.8582753909286 159.93116587307304,263.22535400046036 163.30274038854986,265.13926266669296 166.44954326935112,265.13926266669296 168.92203124705702,264.0456007702742 171.84406249318272,263.22535400046036 173.8670072024688,261.0380278278608 175.21563700865954,258.3038671386894 176.11472354643047,255.29628656315617 176.11472354643047,251.7418679993134 176.11472354643047,248.73427869705483 176.7890384485945,246.00010313582607 176.7890384485945,242.17225179541856 177.912896621041,238.8912312053144 177.23858171794564,237.25071912514977 176.3394951801747,234.51652968092822 175.21563700865954,230.68865890661255 173.417463934049,227.95446153078228 170.94497595634311,225.49368106527254 169.59634615015239,225.76710125035606 165.5504567315802,224.94684059894644 162.85319711919874,226.5873616025783 160.38070914149284,228.22788141667843 159.25685096997768,232.055756355403 157.90822116378695,233.6962722032331 157.23390626069158,238.6178126083687 156.55959135759622,240.80516046099365 156.33481972292066,244.9064319843892 156.33481972292066,247.09377375710756 156.11004808917642,249.28111341316253 156.11004808917642,253.38236956926994 154.7614182829857,255.56970314332284 155.2109615514055,261.0380278278608 156.11004808917642,263.4987696236931 161.504567313008,265.4126780577935 163.75228365696967,265.95950874197297 167.1238581724465,265.95950874197297 171.16974759008735,264.86584724183194 174.09177883714437,262.1316911787726 176.11472354643047,258.0304508882109 176.7890384485945,253.65578638156876 175.21563700865954,250.92161676776595 173.64223556779325,249.55453072185628 175.4404086433351,245.17984982184134 177.01381008327007,239.98490526387468 177.4633533526212,238.07097531366162 176.7890384485945,235.06336783478037 177.912896621041,231.235497985268 175.21563700865954,228.50130126997828 172.51837739627808,225.49368106527254 170.72020432166755,224.94684059894644 165.32568509690464,225.49368106527254 163.75228365696967,225.76710125035606 160.83025240991265,228.22788141667843 158.35776443220675,230.41523931804113 157.68344952911139,232.87601442844607 157.23390626069158,236.43046263838187 156.11004808917642,241.07857879367657 156.55959135759622,244.35959621169604 156.78436299134046,246.54693851224147 156.11004808917642,250.92161676776595 156.55959135759622,254.20261990698054 155.2109615514055,258.3038671386894 155.88527645450085,261.5848595700227 156.11004808917642,263.4987696236931 159.93116587307304,264.86584724183194 163.5275120222941,267.3265848727897 165.77522836532444,266.77975451922975 168.69725961238146,265.95950874197297 171.61929085943848,264.86584724183194 174.54132210556418,261.5848595700227 174.76609374023974,259.3975318111479 175.4404086433351,256.66336913825944 176.3394951801747,253.92920316033997 177.4633533526212,250.92161676776595 176.56426681485027,247.3671913293656 175.4404086433351,243.53934230282903 175.66518027707934,240.5317420954816 176.11472354643047,237.25071912514977 177.23858171794564,236.43046263838187 178.13766825478524,232.87601442844607 176.7890384485945,230.14181969570927 177.912896621041,230.41523931804113 177.4633533526212,227.68104161159135 174.31655047088861,226.31394151831046 170.94497595634311,225.22026084875688 167.79817307554185,224.6734203158412 163.75228365696967,225.76710125035606 160.60548077523708,228.22788141667843 157.90822116378695,230.14181969570927 157.68344952911139,233.42285297834314 155.43573318608105,237.25071912514977 154.08710337989032,241.62541536078788 155.6605048198253,241.62541536078788 156.33481972292066,243.2659242679365 155.88527645450085,246.8203561506234 155.2109615514055,250.92161676776595 152.96324520744383,253.10895272321068 154.98618991766125,256.11653620772995 155.2109615514055,258.57728335657157 156.78436299134046,262.9519383441657 158.80730770155787,265.4126780577935 161.504567313008,266.23292403365485 165.32568509690464,266.23292403365485 168.92203124705702,267.60000000009313 172.51837739627808,266.23292403365485 173.64223556779325,264.0456007702742 173.8670072024688,260.49119595531374 175.21563700865954,259.3975318111479 175.4404086433351,255.29628656315617 177.4633533526212,248.73427869705483 177.4633533526212,244.08617827459238 175.4404086433351,241.35199709353037 176.11472354643047,238.07097531366162 176.56426681485027,235.61020585522056 177.01381008327007,232.055756355403 176.7890384485945,230.14181969570927 175.21563700865954,227.1342016728595 171.61929085943848,225.76710125035606 168.24771634396166,224.4000000001397 165.5504567315802,225.76710125035606 163.0779687538743,226.8607816544827 159.93116587307304,229.04814087809063 157.00913462601602,232.055756355403 155.2109615514055,235.61020585522056 156.33481972292066,239.16464976919815 156.55959135759622,243.53934230282903 156.55959135759622,246.8203561506234 155.88527645450085,250.64819962508045 154.31187501456589,253.10895272321068 155.88527645450085,256.66336913825944 155.2109615514055,259.3975318111479 156.33481972292066,262.4051069342531 157.23390626069158,264.86584724183194 161.27979567926377,264.31901629362255 163.75228365696967,265.95950874197297 167.1238581724465,265.13926266669296 170.27066105324775,264.592431783909 172.06883412785828,263.4987696236931 174.54132210556418,259.6709478965495 176.7890384485945,257.4836182866711 176.7890384485945,254.20261990698054 176.7890384485945,252.83553584385663 176.11472354643047,251.195033878088 177.23858171794564,247.91402637632564 177.4633533526212,243.53934230282903 179.03675479255617,240.25832369620912 177.68812498636544,239.98490526387468 177.4633533526212,236.43046263838187 178.8119831578806,233.6962722032331 177.4633533526212,231.235497985268 176.11472354643047,227.1342016728595 172.74314903095365,224.6734203158412 169.37157451547682,226.04052140074782 167.1238581724465,226.31394151831046" stroke="#4DD2FF" stroke-dasharray="none" stroke-linecap="round" stroke-linejoin="round" stroke-width="0.5"><title>2013-09-22 10.9km</title><desc>9223370657048162807</desc></polyline></svg>