<?xml version="1.0" encoding="utf-8" ?>
<svg baseProfile="full" height="300mm" version="1.1" viewBox="0,0,200,300" width="200mm" xmlns="http://www.w3.org/2000/svg" xmlns:ev="http://www.w3.org/2001/xml-events" xmlns:xlink="http://www.w3.org/1999/xlink"><defs /><rect fill="#222222" height="300" width="200" x="0" y="0" /><text fill="#FFFFFF" style="font-size:12px; font-family:Arial; font-weight:bold;" x="10" y="20">Over 10km Runs</text><text fill="#FFFFFF" style="font-size:4px; font-family:Arial" x="10" y="280">Runner</text><text fill="#FFFFFF" style="font-size:9px; font-family:Arial" x="10" y="290">keep</text><text fill="#FFFFFF" style="font-size:4px; font-family:Arial" x="65" y="280">SPECIAL TRACKS</text><rect fill="yellow" height="2.6" width="2.6" x="65" y="283" /><text fill="#FFFFFF" style="font-size:3px; font-family:Arial" x="70" y="285.5">Over 20.0 km</text><rect fill="red" height="2.6" width="2.6" x="65" y="287" /><text fill="#FFFFFF" style="font-size:3px; font-family:Arial" x="70" y="289.5">Over 40.0 km</text><text fill="#FFFFFF" style="font-size:4px; font-family:Arial" x="120" y="280">STATISTICS</text><text fill="#FFFFFF" style="font-size:3px; font-family:Arial" x="120" y="285">Number: 15</text><text fill="#FFFFFF" style="font-size:3px; font-family:Arial" x="120" y="290">Weekly: 1.2</text><text fill="#FFFFFF" style="font-size:3px; font-family:Arial" x="141" y="285">Total: 163.6 km</text><text fill="#FFFFFF" style="font-size:3px; font-family:Arial" x="141" y="290">Avg: 10.9 km</text><text fill="#FFFFFF" style="font-size:3px; font-family:Arial" x="167" y="285">Min: 10.2 km</text><text fill="#FFFFFF" style="font-size:3px; font-family:Arial" x="167" y="290">Max: 14.0 km</text><polyline fill="none" opacity="1" points="26.89798026601784,75.59999999999854 26.82898675315664,75.45889635432104 26.74274486201466,75.27437583309802 26.656502970901784,75.07900070757023 26.596133647108218,74.81849981054984 26.587509458011482,74.50372678068379 26.64787878174684,74.19980683795438 26.656502970901784,73.89588576016104 26.64787878174684,73.54854599562532 26.639254592679208,73.2446224855521 26.64787878174684,72.95155231145327 26.665127160027623,72.58249947970762 26.673751349095255,72.32199059074628 26.75999324026634,72.06148086778558 26.95834958984051,71.95293490374752 27.22569945230498,71.94208029937727 27.286068776098546,71.80097031083278 27.320565532543696,71.67071471959935 27.337813910737168,71.45362160419609 27.363686478085583,71.12798084515089 27.251572019653395,70.81319353930303 26.975597968063084,70.67208159310394 26.89798026601784,70.41156658797263 26.96697377890814,69.99908279073134 27.001470535382396,69.72771073114563 27.053215670079226,69.40206306497566 27.096336615621112,69.05470411790884 27.14808175028884,68.73990879124904 27.156705939443782,68.5228078563814 27.242947830527555,68.37083685729885 27.286068776098546,68.22972067545925 27.268820397846866,68.03432863500348 27.27744458700181,67.95834271477361 27.337813910737168,67.76295002263214 27.398183234559838,67.49157050513895 27.46717674745014,67.23104531676654 27.54479444946628,66.90538765826204 27.622412151482422,66.60143933431391 27.708654042566195,66.3083452323117 27.82939269018243,66.10209319431306 27.98462809418561,66.12380395975924 28.21748120020493,66.21064696367102 28.450334306253353,66.080382423017 28.665939034020994,65.8741298071327 28.752180925162975,65.6244548883551 28.907416329166153,65.32050177919882 29.07127592235338,65.01654753449111 29.235135515453294,64.73430329053372 29.381746730359737,64.4629136710355 29.53698213439202,64.20237878464832 29.692217538424302,63.876709003445285 29.85607713155332,63.58360508575424 30.05443348112749,63.19279821960663 30.278662398079177,62.82370112228091 30.502891314972658,62.42203473139671 30.666750908101676,62.13978148657043 30.856483068550006,61.84667131125752 31.028966850833967,61.564416070265 31.158329687517835,61.35815200564684 31.33081346974359,61.097607176525344 31.529169819346862,60.79363715460204 31.632660088711418,60.50052212928858 31.779271303559653,60.174837529164506 31.960379274911247,59.87086405936134 32.19323238095967,59.63202696490771 32.443333865259774,59.447470547987905 32.60719345835969,59.19777590575541 32.77967724061455,58.92636781663896 32.86591913169832,58.8612297405416 32.978033590188716,58.62238968189922 33.08152385952417,58.38354892197094 33.159141561511206,58.22070254729624 33.35749791111448,58.13385101415042 33.50410912599182,58.15556390612619 33.607599395356374,58.05785584660043 33.72833804297261,57.905865298511344 33.9094460142951,57.7321614672328 34.0905539856758,57.48246156000096 34.28028614609502,57.254474018780456 34.30615871347254,57.04819902615418 34.263037767930655,56.72250060438819 34.2975345243467,56.4836542663179 34.47001830660156,56.22309382498497 34.67699884530157,56.0059594862978 34.83223424933385,55.756254280291614 34.952972896862775,55.41969387680729 35.10820830089506,55.15913002740854 35.38418235251447,54.89856534336286 35.59116289118538,54.68142746909871 35.729149916995084,54.4100043111539 35.84988856455311,54.09515231329715 35.97925140126608,53.81287017565046 36.246601263730554,53.60658645557851 36.49670274800155,53.58487234934 36.68643490844988,53.3025884408853 36.7813009886886,52.987732156485436 36.841670312482165,52.70544617569249 36.90203963624663,52.40144479308947 36.97965733826277,52.04315599067195 37.074523418501485,51.706580223486526 37.10902017497574,51.5545778075757 37.160765309643466,51.37000306351547 37.21251044428209,51.044281905240496 37.290128146269126,50.653414793509 37.384994226536946,50.2842607965722 37.4884844958724,49.88253248445835 37.53160544147249,49.53509018194745 37.60922314345953,49.22021931331983 37.69546503460151,48.88363186436618 37.78170692571439,48.503612102751504 37.83345206035301,48.15616390969808 37.902445573272416,47.8195720572694 37.98868746438529,47.42868944820657 38.06630516643054,47.08123666308529 38.126674490195,46.78807222103933 38.20429219221114,46.44061669911025 38.25603732687887,46.14744994785724 38.33365502889501,45.88685639289179 38.359527596243424,45.75655930225912 38.40264854178531,45.47424822317407 38.47164205467561,45.137645271133806 38.549259756691754,44.77932446876366 38.626877458707895,44.43186036478437 38.68724678247236,44.160403000583756 38.6958709715982,44.05181980122143 38.73899191716919,43.78036116850126 38.79936124096275,43.476326424090075 38.86835475382395,43.096281395162805 38.937348266801564,42.770527099659375 39.00634177963366,42.50992272374424 39.04946272520465,42.32532745219942 39.09258367077564,42.18416607945983 39.13570461634663,42.08643883171317 39.17020137279178,41.95613565204985 39.12708042724989,41.72810458519234 39.144328805443365,41.47835554024641 39.18744975098525,41.206888317043195 39.25644326390466,41.01143135524762 39.31681258769822,40.84855019483075 39.56691407196922,40.891985202863 39.86013650178211,41.00057262136397 40.144734742469154,41.09830117403908 40.34309109204332,41.15259476369829 40.40346041583689,40.9245614436295 40.420708794059465,40.67480993085337 40.41208460496273,40.39248121016135 40.429332983185304,40.02328063482855 40.45520555053372,39.63236055152811 40.52419906342402,39.328310298602446 40.43795717228204,39.078553883235145 40.26547338999808,39.01339990960696 39.97225096018519,39.05683589781256 39.67902853037231,39.13284882138396 39.61003501751111,38.969963898154674 39.64453177398536,38.66591116847121 39.713525286875665,38.34013912505907 39.77389461064013,38.02522490915726 39.86013650178211,37.66687276615994 39.93775420379825,37.34109672027989 39.980875149340136,37.015319369209465 40.02399609488202,36.71125933063013 40.06711704045301,36.428916848119115 40.08436541870469,36.24430777179805 40.041244473075494,36.10313584237883 40.170607309788465,36.005401286136475 40.36896365939174,35.90766661242378 40.41208460496273,35.76649409854144 40.24822501180461,35.64704024149978 40.256849200930446,35.473288863497146 40.256849200930446,35.33211559542542 40.41208460496273,35.34297508629243 40.60181676544016,35.36469406366086 40.748427980346605,35.35383457571879 40.886415006098105,35.35383457571879 41.05889878835296,35.321256103117776 41.222758381511085,35.29953711415146 41.257255137956236,35.02804926250974 41.300376083527226,34.58280722347263 41.35212121816585,34.21358026868256 41.3866179746401,33.90950975287706 41.37799378551426,33.703175540911616 41.403866352833575,33.5077005412968 41.421114731085254,33.32308483240922 41.29175189443049,33.23620670669334 41.05889878835296,33.21448716076702 40.87779081700137,33.1710480515103 40.70530703474651,33.084169763329555 40.45520555053372,33.04073058445647 40.12748636424658,32.96471196554921 39.82563974533696,32.92127272280777 39.532417315465864,32.82353434187826 39.19607394011109,32.78009502373607 38.92009988852078,32.69321631780622 38.71311934982077,32.56289808485599 38.50613881114987,32.57375794561085 38.1956680030853,32.56289808485599 37.91106976236915,32.55203822271142 37.600598954362795,32.53031849403487 37.281503957201494,32.497738890095206 37.00552990561118,32.45429939790483 36.67781071932404,32.4325796430785 36.4622059915273,32.410859882467776 36.44495761333383,32.4325796430785 36.36733991128858,32.66063677915372 36.315594776620856,32.86697363679559 36.27247383107897,33.051590381342976 36.246601263730554,33.27964578115643 36.22072869638214,33.45340184690576 36.15173518346273,33.67059640692605 36.074117481475696,33.8334919461995 35.97062721211114,34.01810649620165 35.91888207744341,34.18100133923144 35.85851275364985,34.365615100170544 35.763646673440235,34.53936884524592 35.69465316054993,34.71312221897824 35.61703545853379,34.87601566962985 35.513545189169236,35.093206429563 35.37555816335953,35.24523961634259 35.34106140694348,35.516726742789615 35.23757113760803,35.75563466424501 35.090959922701586,36.07055767002021 34.94434870779514,36.41805750228377 34.7977374928887,36.71125933063013 34.65975046704989,37.015319369209465 34.521763441269286,37.29765981556557 34.38377641548868,37.59085847220558 34.2285410114564,37.89491522168828 34.0905539856758,38.17725261392479 33.969815338088665,38.437870875124645 33.88357344697579,38.62247497140197 33.82320412318222,38.67677021412965 33.74558642116608,38.76364252699568 33.685217097372515,38.948245883744676 33.659344530053204,39.24143858896423 33.495484936924186,39.523771306005074 33.36612210024032,39.77352635394345 33.28850439819507,39.96898629118368 33.3402495328919,40.08843379931932 33.55585426068865,40.12101036198874 33.86632506875321,40.12101036198874 34.18542006591451,40.175304604134 34.49589087392087,40.21873997172952 34.83223424933385,40.26217531612929 35.159953435562784,40.30561063734058 35.45317586537567,40.34904593531974 35.746398295188555,40.381622393615544 35.90163369924994,40.31646946402907 35.94475464479183,40.12101036198874 35.996499779459555,39.90383303096314 35.98787559036282,39.806103042799805 36.13448680526926,39.84953860758833 36.17760775084025,40.02328063482855 36.16035937261768,40.30561063734058 36.09136585969827,40.66395115201158 36.02237234680797,41.00057262136397 35.94475464479183,41.402344809095666 35.87576113190153,41.76068049105379 35.798143429885386,42.08643883171317 35.746398295188555,42.401337320647144 35.67740478232736,42.705376084006275 35.63428383672726,43.009413710627996 35.65153221497894,43.335167049241136 35.470424243598245,43.595768780658545 35.3669339742919,43.83465296752547 35.280692083149916,44.14954468717042 35.22894694848219,44.464435187590425 35.211698570259614,44.71417506233411 35.33243721781764,44.86619026277913 35.3669339742919,45.170219811254356 35.29794046137249,45.528538891419885 35.211698570259614,45.93028871004208 35.13408086824347,46.27774641220458 35.07371154447901,46.63606061285827 35.030590598878916,47.016089100638055 35.021966409811284,47.330968502421456 35.01334222065634,47.667562376991555 35.021966409811284,48.00415485849953 34.99609384246287,48.37331920427823 34.98746965333703,48.69905105904763 34.952972896862775,49.03563927187497 34.9357245186402,49.35051085505984 34.88397938397247,49.6653812193108 34.83223424933385,50.012822965247324 34.74599235819187,50.34940574130451 34.7977374928887,50.66427223862411 34.754616547288606,51.000852318902616 34.68562303442741,51.348288360240986 34.521763441269286,51.674008301131835 34.34065546991769,51.92372603914555 34.08192979654996,52.13001402707596 33.8404525014339,52.33630149185046 33.607599395356374,52.55344562641403 33.37474628936616,52.77058918129478 33.27988020912744,52.93344646704645 33.159141561511206,53.08544630619872 33.03840291395318,53.25916006031912 32.92628845552099,53.465444661458605 32.83142237528227,53.76944206754706 32.67618697124999,54.09515231329715 32.50370318899513,54.4100043111539 32.35709197408869,54.6705705601853 32.2449775156565,54.93113597451156 32.23635332653066,55.15913002740854 32.400212919630576,55.33283935307554 32.382964541437104,55.604259431791434 32.27085008294671,55.87567860487616 32.32259521764354,55.973389285492885 32.23635332653066,55.897392099606805 32.08974211162422,56.07109984874114 31.891385762020946,56.38594419861329 31.710277790698456,56.60307752301014 31.468800495524192,56.84192351045931 31.322189280646853,57.12419513690111 31.244571578630712,57.384752692029 31.097960363695165,57.62359638435737 30.985845905262977,57.7321614672328 30.735744420991978,57.71044846226869 30.485642936750082,57.69959195758565 30.201044696033932,57.64530941252451 29.89057388799847,57.64530941252451 29.623224025534,57.65616592443257 29.485236999724293,57.688735451491084 29.398995108611416,57.688735451491084 29.312753217469435,57.89500881994172 29.166142002562992,58.10128166533832 29.131645246088738,58.35097967312322 29.07127592235338,58.611533298913855 28.924664707446937,58.839517036911275 28.907416329166153,58.92636781663896 28.752180925162975,59.08921277875925 28.545200386462966,59.284626303007826 28.3468440369179,59.49089562493464 28.398589171556523,59.6863081843112 28.467582684446825,59.79487051445176 28.527952008269494,59.946857533286675 28.562448764714645,60.196549876411154 28.57969714293722,60.42452917253104 28.55382457561791,60.34853614481108 28.372716604237212,60.35939229599171 28.208857011108194,60.630795604265586 28.06224579620175,60.88048584818898 27.889762013946893,61.097607176525344 27.743150799069554,61.379864037058724 27.622412151482422,61.65126394103572" stroke="#4DD2FF" stroke-dasharray="none" stroke-linecap="round" stroke-linejoin="round" stroke-width="0.5"><title>2017-12-17 14.0km</title><desc>9223370523376934807</desc></polyline><polyline fill="none" opacity="1" points="100.48572997760493,32.40000000000873 100.63211435440462,32.651205731977825 100.65872969571501,32.91915795879322 100.672037366312,33.237350485738716 100.68534503690898,33.53879529394908 100.65872969571501,33.84023937865277 100.65872969571501,34.191923229722306 100.57888367195847,34.51011253216711 100.5256529894541,34.71107378149463 100.672037366312,34.912034709297586 100.63211435440462,35.68238195384038 100.73857571935514,35.96707430499373 100.85834475496085,36.251766010871506 100.89826776686823,36.55320358433528 100.9381907787174,36.921626302733785 100.95149844931439,37.27330152585637 100.97811379050836,37.62497576427995 101.03134447301272,37.9599026949727 101.13780583796324,38.24458988389233 101.17772884981241,38.5460226747382 101.21765186171979,38.83070853515528 101.24426720303018,39.14888608615729 101.40395925042685,39.249363040027674 101.6035743096727,39.36658605138655 101.61688198032789,39.53404730636976 101.48380527412519,39.65127005202521 101.3374208972673,39.801984849909786 101.41726692102384,40.03642973167007 101.55034362722654,40.35460422844335 101.68342033342924,40.67277791927336 101.74995868647238,40.95745895942673 101.8697277220781,41.25888523986214 102.01611209887778,41.560310797038255 102.18911181692965,41.86173563080956 102.2689578406862,42.14641397631203 102.04272744007176,42.297125780401984 101.78988169832155,42.179905503973714 101.5902666390175,42.0291935592395 101.35072856792249,41.86173563080956 101.15111350861844,41.945464622884174 100.91157543740701,41.96221041465469 100.68534503690898,42.045939339805045 100.672037366312,42.280380033291294 100.68534503690898,42.53156600508373 100.45911463635275,42.68227734701941 100.21957656525774,42.766005792233045 99.94011548225535,42.84973418159643 99.66065439919475,42.866479852746124 99.60742371669039,42.648785953380866 99.66065439919475,42.414345947428956 99.75380809354829,42.0794308942277 99.84696178790182,41.81149820872815 99.90019247034797,41.44308983295923 99.95342315285234,41.05793446660391 99.91350014094496,40.77325365418801 99.8602694584988,40.371350232249824 99.70057741104392,40.170398039073916 99.39450098684756,40.20389009361679 99.18157825688832,40.05317577793903 99.14165524503915,39.919207345476025 99.11503990378696,39.701508338039275 99.11503990378696,39.48380895331502 98.99527086823946,39.38333218690241 98.82227115012938,39.36658605138655 98.63596376148053,39.34983991361514 98.5428100671852,39.43357058019319 98.56942540837917,39.718254428953514 98.58273307897616,40.03642973167007 98.58273307897616,40.35460422844335 98.60934842022834,40.656031955601065 98.62265609088354,40.99095080408733 98.62265609088354,41.3426146338752 98.62265609088354,41.64403999008937 98.62265609088354,41.945464622884174 98.62265609088354,42.230142778673326 98.63596376148053,42.53156600508373 98.64927143213572,42.84973418159643 98.6625791027327,43.084173374882084 98.64927143213572,43.30186651974509 98.63596376148053,43.5028137032059 98.62265609088354,43.77074278112559 98.59604074963136,44.00518025549536 98.58273307897616,44.15588982934423 98.55611773772398,44.407072050715215 98.52950239653,44.624762902923976 98.52950239653,44.85919878340792 98.52950239653,45.110379598409054 98.52950239653,45.411795913401875 98.52950239653,45.746702081829426 98.51619472593302,46.06486211475567 98.52950239653,46.36627613948076 98.52950239653,46.66768944101932 98.55611773772398,46.96910201929859 98.56942540837917,47.304004035831895 98.55611773772398,47.555179962248076 98.55611773772398,47.85659041107283 98.52950239653,48.09102026018081 98.5428100671852,48.325449671785464 98.48957938468084,48.576623555854894 98.5428100671852,48.84454181199544 98.58273307897616,49.095714658207726 98.62265609088354,49.397121410729596 98.6625791027327,49.69852744009404 98.70250211458188,50.06691160502669 98.79565580893541,50.43529468968336 98.88880950317252,50.786932080969564 98.99527086823946,51.02135646168608 99.10173223318998,51.33950313582318 99.2081935981405,51.64090450493677 99.327962633688,51.892071760157705 99.39450098684756,52.00928297404607 99.47434701048769,52.22696065262426 99.5941160460934,52.46138234618411 99.64734672865598,52.71254796098219 99.68726974044694,52.84650275025342 99.78042343480047,53.013946035978734 99.92680781160016,53.13115620313329 100.0066538352985,53.31534338784695 100.12642287090421,53.466041792577016 100.24619190650992,53.66697271777957 100.33934560074704,53.86790332161763 100.5256529894541,54.05208942608442 100.71196037821937,54.26976356511295 100.88496009621304,54.52092556450225 101.0579598142649,54.772087061879574 101.21765186171979,55.00650400633458 101.28419021482114,55.12371231452562 101.39065157977166,55.35812860290753 101.56365129782353,55.62603239687451 101.72334334527841,55.826959867437836 101.90965073392726,56.14509437198285 102.04272744007176,56.346021012432175 102.20241948758485,56.63066653635178 102.36211153498152,56.89856761675037 102.50849591178121,57.14972436080279 102.70811097114347,57.46785551584617 102.86780301859835,57.735754811088555 103.05411040724721,58.02039718636661 103.24041779595427,58.30503891670378 103.41341751394793,58.589680002231034 103.61303257325199,58.92455104194232 103.77272462070687,59.175703735949355 103.9856473506079,59.493829761006054 104.1320317274076,59.74498131706787 104.2518007630133,59.96264559283736 104.41149281046819,60.19705285280361 104.57118485792307,60.46494632861868 104.74418457597494,60.73283923325653 104.87726128217764,60.950501797677134 105.03695332963252,61.20165044191526 105.22326071822317,61.45279858414142 105.40956810698844,61.7206893824623 105.55595248378813,61.98857960967871 105.68902918993263,62.23972617887193 105.8620289080427,62.55784444590972 106.04833629663335,62.85921890329337 106.20802834414644,63.127106702988385 106.3810280621401,63.42847979495127 106.60725846269634,63.76333793818776 106.7802581807482,64.03122381023422 106.9266425576061,64.2488806607289 107.08633460494457,64.53350828094699 107.25933432305465,64.81813525636971 107.43233404110651,65.13624699531647 107.61864142981358,65.45435792894568 107.76502580661327,65.73898281840957 107.91141018347116,66.0403496457293 108.05779456027085,66.35845829042955 108.16425592522137,66.65982363201329 108.2441019489197,66.99467316374648 108.28402496082708,67.17884002586652 108.17756359587656,67.31277939239226 108.12433291331399,67.42997622104303 108.20417893707054,67.34626421170833 108.33725564321503,67.3295218031999 108.43040933762677,67.54717294032162 108.51025536132511,67.81505074533925 108.61671672627563,68.09967028752726 108.73648576188134,68.41777371878561 108.85625479748705,68.7526185658935 108.96271616237937,69.08746252073615 109.0558698567329,69.33859490131726 109.14902355108643,69.62321099253313 109.26879258663394,69.9078264390555 109.37525395158445,70.1756992117007 109.48171531653497,70.44357141322689 109.56156134023331,70.67795912115253 109.61479202279588,70.91234639186587 109.69463804649422,71.1969589185901 109.80109941144474,71.48157080063538 109.90756077639526,71.79966567071097 110.00071447074879,72.08427618771384 110.09386816504411,72.35214432069915 110.20032952999463,72.67023698704725 110.28017555369297,72.90462054172531 110.41325225995388,73.22271180957614 110.5197136249044,73.49057751581131 110.62617498985492,73.77518420315755 110.74594402546063,74.07653175774612 110.85240539035294,74.32765416784969 110.94555908476468,74.56203463122074 111.02540510852123,74.79641465742316 111.15848181466572,75.0140528617776 111.21171249711188,75.13124250799592 111.25163550901925,75.29865609870467 111.21171249711188,75.53303475110442 111.0520204497152,75.5665173799789 110.89232840226032,75.36562147257791 110.73263635480544,75.14798387709016 110.5197136249044,74.8466388918605 110.28017555369297,74.56203463122074 110.00071447074879,74.24394675357325 109.7212533877464,74.02630721547757 109.49502298719017,73.77518420315755 109.22886957478477,73.52406068900018 109.01594684494194,73.25619505404029 108.7897164443275,73.05529545317404 108.5235630319803,72.80417050037067 108.27071729017189,72.55304504575906 108.00456387776649,72.30191908926645 107.76502580661327,72.05079263093648 107.51218006486306,71.79966567071097 107.24602665245766,71.58202189924486 106.96656556939706,71.38111962177209 106.67379681579769,71.24718459167343 106.32779737969395,71.14673322538147 105.98179794359021,71.07976560331008 105.66241384868044,71.0462817788648 105.34302975382889,70.96257217875973 105.0502610001713,70.89560445846291 104.73087690531975,70.8286367025139 104.41149281046819,70.77841086214175 104.09210871555842,70.74492695741355 103.70618626766372,70.62773322056455 103.47995586704928,70.5607653218467 103.32026381965261,70.52728135904181 103.13395643100375,70.493797387433 102.9343413716415,70.44357141322689 102.72141864174046,70.42682941739622 102.5351112530916,70.39334541889548 102.34880386432633,70.35986141157628 102.16249647567747,70.3263773953222 101.94957374583464,70.27615135416272 101.74995868647238,70.2259252929507 101.55034362722654,70.15895718011598 101.37734390917467,70.10873107206135 101.01803680241574,69.94131056689366 100.68534503690898,69.80737400215003 100.32603793020826,69.69017939089099 100.08649985905504,69.639953095495 99.75380809354829,69.53950044439989 99.43442399863852,69.43904771299276 99.08842456253478,69.33859490131726 98.74242512648925,69.23814200930065 98.38311801973032,69.13768903700111 98.1302722779219,69.037235984375 97.71773448871681,68.97026723805175 97.37173505261308,68.80284521600697 97.07896629895549,68.70239189569838 96.87935123965144,68.63542297092499 96.59989015664905,68.5182272666425 96.2671983911423,68.43451598231331 95.96112196694594,68.267093246468 95.62843020143919,68.06618566898396 95.32235377718462,67.8652777702373 95.02958502352703,67.61414244510524 94.80335462302901,67.3295218031999 94.59043189306976,67.04490051647008 94.52389353996841,66.81050603170297 94.43073984561488,66.5928536185238 94.29766313941218,66.37520082834817 94.17789410386467,66.17429022588476 94.04481739766197,65.97337930215872 93.91174069151748,65.6720123142004 93.73874097346561,65.35390193162311 93.56574125535553,65.00230530869158 93.40604920790065,64.61722216413182 93.20643414865481,64.23213783944084 93.00681908929255,63.81356658269942 92.83381937129889,63.5121944144048 92.68743499444099,63.19407856368343 92.52774294698611,62.84247589681763 92.35474322899245,62.44064307282679 92.16843584034359,62.03880896361079 91.96882078098133,61.65371673644404 91.78251339233248,61.2518801104743 91.59620600368362,60.883528741120244 91.39659094432136,60.51517629173759 91.23689889686648,60.1300793945702 91.05059150821762,59.74498131706787 90.90420713141793,59.42685592797352 90.73120741336606,59.04175569493964 90.57151536596939,58.74037208055961 90.45174633036368,58.50596210283402 90.37190030660713,58.18783357646316 90.22551592980744,57.80272954564134 90.13236223545391,57.43436806378304 90.05251621181378,57.032517942701816 89.98597785865422,56.73112950840732 89.94605484680505,56.396252622347674 89.8928241643589,55.97765525952855 89.86620882310672,55.642776365057216 89.82628581119934,55.22417649169802 89.77305512875319,54.8892955887859 89.73313211690402,54.537669679979444 89.746439787501,54.18604278699786 89.70651677565183,53.800926489318954 89.71982444624882,53.44929753433098 89.746439787501,53.114411900241976 89.73313211690402,52.7627810237027 89.73313211690402,52.41114916297374 89.63997842260869,52.00928297404607 89.58674774010433,51.64090450493677 89.56013239885215,51.23903585206426 89.53351705754176,50.92088892348693 89.52020938700298,50.53576261624403 89.4802863750956,50.25110328235314 89.41374802199425,49.93295385185047 89.42705569264945,49.49759016756434 89.50690171634778,49.14594916717033 89.53351705754176,48.76081741832604 89.53351705754176,48.526388819213025 89.54682472819695,48.27521483467717 89.57344006950734,48.15800013668195 89.52020938700298,47.89008041629859 89.4802863750956,47.57192500612291 89.45367103384342,47.23702370394312 89.42705569264945,46.902121508828714 89.41374802199425,46.63419910988887 89.37382501014508,46.2490596602438 89.29397898644675,45.84717375825858 89.28067131584976,45.46203189557127 89.25405597459758,45.06014347556629 89.22744063328719,44.79221714794403 89.18751762143802,44.407072050715215 89.13428693905007,44.10565332486294 89.13428693905007,43.887961573011125 89.14759460964706,43.53630486917973 89.14759460964706,43.20139280745934 89.13428693905007,42.866479852746124 89.0943639271427,42.58180313913908 89.04113324469654,42.230142778673326 89.01451790344436,41.89522723434493 89.02782557404134,41.52681910418323 89.05444091529353,41.225393466695095 89.01451790344436,40.840237432785216 88.96128722088179,40.52206416618719 88.93467187968781,40.15365200849192 88.93467187968781,39.85222307572258 88.96128722088179,39.73500051764131 88.97459489153698,39.51730119090644 88.93467187968781,39.28285534020688 88.92136420909083,38.98142431768065 88.86813352658646,38.69673879884067 88.78828750288812,38.32832128726295 88.77497983223293,37.9599026949727 88.76167216163594,37.608229394303635 88.76167216163594,37.29004794047796" stroke="#4DD2FF" stroke-dasharray="none" stroke-linecap="round" stroke-linejoin="round" stroke-width="0.5"><title>2017-11-19 11.8km</title><desc>9223370525802103807</desc></polyline><polyline fill="none" opacity="0.5" points="184.4933514248114,67.96962096903007 183.49687924026512,68.10861900402233 182.55902306665666,68.10861900402233 181.62116689281538,68.17811800987693 180.56607869756408,68.10861900402233 179.8040705563035,67.96962096903007 178.9834464045707,67.96962096903007 178.22143826354295,67.96962096903007 177.3421981006395,67.76112385862507 176.52157394844107,66.99663385830354 175.5837177745998,66.92713472119067 174.82170963380486,66.85763557621976 173.88385345996358,66.57963891886175 173.1218453189358,66.7186372630531 172.3012211669702,66.64913809474092 171.36336499336176,66.7186372630531 170.54274084139615,66.51013973512454 169.6635006784927,66.64913809474092 168.72564450465143,66.78813642339082 167.72917232010514,66.44064054382034 166.90854816813953,66.30164213792887 166.20515603781678,66.16264370107092 165.384531886084,66.16264370107092 164.62252374505624,65.88464673480485 163.7432835821528,65.88464673480485 162.9226594301872,65.74564820510568 162.21926729986444,65.95414598792559 160.98833107203245,65.39815174596151 159.99185888725333,65.25915310822893 159.05400271364488,65.18965377786662 157.99891451839358,65.25915310822893 157.58860244229436,65.32865243108245 156.47489823610522,65.60664964455646 155.0681139754597,64.98115574021358 154.07164179091342,64.14716289372882 153.19240162800997,64.35566120949807 152.19592944346368,64.00816397793824 151.3166892810259,63.869165030890144 150.61329715070315,64.00816397793824 149.9099050203804,63.7996655459865 149.20651289005764,63.52166752866469 148.3272727271542,63.59116704465123 147.56526458612643,63.938664508285 146.27571234712377,63.52166752866469 145.57232021703385,63.1046702710446 145.22062415187247,62.34017457580194 144.75169606506824,61.575677945744246 144.6930800541304,60.463681178574916 144.81031207600608,59.49068238417385 144.81031207600608,58.378681907604914 144.6930800541304,57.40567986789392 144.6930800541304,56.0851746769622 144.51723202154972,55.39017082436476 144.39999999990687,54.34766359644709 144.6344640434254,53.37465528177563 144.6344640434254,52.540646949375514 144.8689280867111,51.845639155537356 144.6930800541304,50.942127868242096 144.98616010835394,49.96911425224971 144.92754409764893,48.92659798276145 145.10339213022962,48.30108738626586 145.16200814116746,47.05006431584479 145.10339213022962,45.93804170633666 145.16200814116746,44.9650203002966 145.22062415187247,44.20050241862191 145.39647218445316,43.296980080136564 145.57232021703385,42.32395456265658 145.39647218445316,41.3509275301476 145.39647218445316,40.65590729378164 145.27924016257748,39.821881990123075 145.39647218445316,40.65590729378164 145.39647218445316,41.3509275301476 145.57232021703385,42.32395456265658 145.39647218445316,43.296980080136564 145.22062415187247,44.20050241862191 145.16200814116746,44.9650203002966 145.10339213022962,45.93804170633666 145.16200814116746,47.05006431584479 145.10339213022962,48.30108738626586 144.92754409764893,48.92659798276145 144.98616010835394,49.96911425224971 144.6930800541304,50.942127868242096 144.8689280867111,51.845639155537356 144.6344640434254,52.540646949375514 144.6344640434254,53.37465528177563 144.39999999990687,54.34766359644709 144.51723202154972,55.39017082436476 144.6930800541304,56.0851746769622 144.6930800541304,57.40567986789392 144.81031207600608,58.378681907604914 144.81031207600608,59.49068238417385 144.6930800541304,60.463681178574916 144.75169606506824,61.575677945744246 145.22062415187247,62.34017457580194 145.57232021703385,63.1046702710446 146.27571234712377,63.52166752866469 147.56526458612643,63.938664508285 148.3272727271542,63.59116704465123 149.20651289005764,63.52166752866469 149.9099050203804,63.7996655459865 150.61329715070315,64.00816397793824 151.3166892810259,63.869165030890144 152.19592944346368,64.00816397793824 153.19240162800997,64.35566120949807 154.07164179091342,64.14716289372882 155.0681139754597,64.98115574021358 156.47489823610522,65.60664964455646 157.58860244229436,65.32865243108245 157.99891451839358,65.25915310822893 159.05400271364488,65.18965377786662 159.99185888725333,65.25915310822893 160.98833107203245,65.39815174596151 162.21926729986444,65.95414598792559 162.9226594301872,65.74564820510568 163.7432835821528,65.88464673480485 164.62252374505624,65.88464673480485 165.384531886084,66.16264370107092 166.20515603781678,66.16264370107092 166.90854816813953,66.30164213792887 167.72917232010514,66.44064054382034 168.72564450465143,66.78813642339082 169.6635006784927,66.64913809474092 170.54274084139615,66.51013973512454 171.36336499336176,66.7186372630531 172.3012211669702,66.64913809474092 173.1218453189358,66.7186372630531 173.88385345996358,66.57963891886175 174.82170963380486,66.85763557621976 175.5837177745998,66.92713472119067 176.52157394844107,66.99663385830354 177.3421981006395,67.76112385862507 178.22143826354295,67.96962096903007 178.9834464045707,67.96962096903007 179.8040705563035,67.96962096903007 180.56607869756408,68.10861900402233 181.62116689281538,68.17811800987693 182.55902306665666,68.10861900402233 183.49687924026512,68.10861900402233 184.4933514248114,67.96962096903007 185.255359566072,68.17811800987693 185.95875169616193,68.10861900402233 187.07245590235107,67.90012193983421 187.36553595680743,66.92713472119067 187.5999999998603,66.0236452333047 187.5999999998603,65.53715035278583 187.5999999998603,64.425160632818 187.54138398938812,63.73016605316661" stroke="#4DD2FF" stroke-dasharray="1,0.5" stroke-linecap="round" stroke-linejoin="round" stroke-width="0.5"><title>2014-03-22 10.5km</title><desc>9223370641410674807</desc></polyline><polyline fill="none" opacity="1" points="55.600000000034925,99.96737399334233 55.47265306126792,99.96737399334233 55.345306122500915,100.0508274969834 55.19836734700948,100.07467134216859 55.06122448988026,100.03890557222621 54.91428571433062,100.01506171838992 54.78693877556361,100.00313978930353 54.67918367352104,100.06274942027812 54.54204081639182,100.03890557222621 54.42448979598703,100.01506171838992 54.28734693885781,100.03890557222621 54.15020408167038,100.01506171838992 54.05224489799002,99.94353012216743 53.944489796005655,99.93160818442993 53.81714285718044,99.94353012216743 53.68979591841344,99.97929592675064 53.542857142922,99.97929592675064 53.42530612251721,99.99121785874013 53.29795918375021,99.94353012216743 53.14122448983835,99.95545205850067 53.033469387795776,99.96737399334233 52.876734693942126,99.96737399334233 52.739591836812906,99.96737399334233 52.63183673477033,99.96737399334233 52.48489795922069,99.96737399334233 52.35755102051189,99.95545205850067 52.240000000048894,99.94353012216743 52.122448979644105,99.93160818442993 52.004897959239315,99.91968624522997 51.87755102047231,99.95545205850067 51.750204081705306,99.95545205850067 51.6228571429383,99.94353012216743 51.49551020411309,99.91968624522997 51.368163265346084,99.89584236250084 51.28000000002794,99.89584236250084 51.133061224536505,99.89584236250084 50.995918367407285,99.91968624522997 50.86857142864028,99.91968624522997 50.741224489873275,99.90776430456754 50.60408163268585,99.87199847403099 50.486530612339266,99.89584236250084 50.35918367351405,99.89584236250084 50.2024489796604,99.88392041899351 50.09469387761783,99.84815457976947 49.93795918370597,99.83623263045592 49.79102040827274,99.87199847403099 49.63428571430268,99.87199847403099 49.516734693956096,99.88392041899351 49.36979591846466,99.87199847403099 49.25224489800166,99.87199847403099 49.11510204087244,99.88392041899351 49.00734693882987,99.87199847403099 48.880000000062864,99.860076527606 48.75265306129586,99.88392041899351 48.62530612247065,99.87199847403099 48.49795918376185,99.87199847403099 48.390204081719276,99.89584236250084 48.253061224590056,99.90776430456754 48.14530612248927,99.90776430456754 48.01795918372227,99.90776430456754 47.8514285715064,99.89584236250084 47.74367346946383,99.89584236250084 47.58693877555197,99.89584236250084 47.498775510292035,99.89584236250084 47.37142857146682,99.89584236250084 47.24408163269982,99.88392041899351 47.11673469393281,99.89584236250084 46.979591836745385,99.860076527606 46.8620408163988,99.860076527606 46.71510204090737,99.84815457976947 46.57795918377815,99.84815457976947 46.450612244952936,99.83623263045592 46.34285714291036,99.83623263045592 46.20571428578114,99.87199847403099 46.04897959192749,99.89584236250084 45.9314285715227,99.87199847403099 45.794285714335274,99.860076527606 45.66693877556827,99.84815457976947 45.54938775516348,99.82431067968719 45.39265306125162,99.84815457976947 45.27510204090504,99.82431067968719 45.1281632653554,99.81238872752874 44.99102040822618,99.81238872752874 44.85387755103875,99.84815457976947 44.72653061232995,99.83623263045592 44.569795918418095,99.8004667739151 44.42285714292666,99.77662286232226 44.295510204159655,99.76470090435032 44.15836734697223,99.72893502181978 44.02122448984301,99.7408569840918 43.90367346943822,99.75277894495957 43.77632653067121,99.77662286232226 43.65877551026642,99.78854481885355 43.53142857149942,99.83623263045592 43.404081632674206,99.83623263045592 43.266938775544986,99.82431067968719 43.13959183677798,99.81238872752874 43.031836734793615,99.8004667739151 42.9044897959684,99.82431067968719 42.7771428572014,99.81238872752874 42.65959183679661,99.83623263045592 42.512653061246965,99.8004667739151 42.36571428575553,99.82431067968719 42.257959183712956,99.8004667739151 42.120816326583736,99.8004667739151 41.99346938781673,99.8004667739151 41.88571428577416,99.76470090435032 41.74857142864494,99.7408569840918 41.6016326531535,99.75277894495957 41.45469387760386,99.76470090435032 41.307755102112424,99.7408569840918 41.190204081707634,99.75277894495957 41.05306122452021,99.75277894495957 40.90612244902877,99.7408569840918 40.77877551026177,99.7408569840918 40.65142857149476,99.75277894495957 40.50448979594512,99.76470090435032 40.3673469388159,99.78854481885355 40.24979591841111,99.75277894495957 40.122448979644105,99.71701305809984 39.985306122514885,99.72893502181978 39.85795918374788,99.70509109290288 39.72081632656045,99.71701305809984 39.60326530615566,99.7408569840918 39.48571428580908,99.71701305809984 39.34857142867986,99.69316912630165 39.20163265313022,99.69316912630165 39.08408163272543,99.69316912630165 38.937142857175786,99.66932518874091 38.839183673553634,99.64548124539579 38.71183673472842,99.64548124539579 38.5746938775992,99.64548124539579 38.47673469397705,99.66932518874091 38.32979591842741,99.65740321777412 38.19265306129819,99.66932518874091 38.06530612253118,99.70509109290288 37.91836734703975,99.70509109290288 37.78122448985232,99.71701305809984 37.68326530617196,99.68124715825252 37.54612244904274,99.68124715825252 37.41877551027574,99.68124715825252 37.31102040823316,99.65740321777412 37.154285714321304,99.68124715825252 37.02693877561251,99.66932518874091 36.87020408164244,99.65740321777412 36.742857142933644,99.66932518874091 36.644897959253285,99.65740321777412 36.40000000002328,99.66932518874091 36.11591836740263,99.65740321777412 35.90040816331748,99.6216372962881 35.675102040870115,99.6216372962881 35.2342857143376,99.68124715825252 34.96000000007916,99.6097153195733 34.783673469442874,99.58587136176357 34.44081632659072,99.6097153195733 34.274285714374855,99.56202739824221 34.117551020463,99.55010541432421 33.82367346948013,99.59779334138875 33.539591836801264,99.63355927156954 33.284897959267255,99.7408569840918 33.07918367354432,99.71701305809984 29.209795918432064,99.50241746410029 28.9844897959847,99.50241746410029 28.739591836812906,99.46665148633474 28.416326530685183,99.55010541432421 28.161632653092965,99.47857348036632 27.89714285725495,99.43088549553067 27.544489795982372,99.43088549553067 24.370612244936638,99.39511949176813 24.13551020412706,99.41896349570015 23.822040816419758,99.39511949176813 23.596734693972394,99.35935347496707 23.342040816380177,99.26397736673971 23.03836734703509,99.34743146648543 22.715102040907368,99.35935347496707 22.489795918401796,99.37127548199351 19.952653061249293,99.33550945657771 19.619591836759355,99.33550945657771 19.45306122454349,99.33550945657771 19.286530612327624,99.35935347496707 19.23755102045834,99.29974341816705 19.090612244966906,99.3116654323967 18.757551020476967,99.32358744522935 18.630204081709962,99.25205534672568 18.36571428575553,99.22821130237571 18.15020408172859,99.25205534672568 17.944489795947447,99.25205534672568 17.797551020456012,99.21628927801794 16.74938775517512,99.24013332527102 16.445714285771828,99.25205534672568 16.21061224496225,99.16860116615135 15.985306122514885,99.21628927801794 15.632653061300516,99.20436725219042 15.39755102043273,99.24013332527102 15.172244898043573,99.2878214024895 14.90775510208914,99.22821130237571 14.6334693878307,99.20436725219042 14.398367347021122,99.1924452249732 14.084897959197406,99.16860116615135 13.89877551025711,99.16860116615135 13.683265306230169,99.1805231962644 13.213061224552803,99.20436725219042 13.017142857192084,99.09706895507406 12.997551020467654,99.37127548199351 13.0269387755543,99.58587136176357 13.066122449061368,99.76470090435032 12.977959183743224,99.96737399334233 12.860408163338434,99.99121785874013 12.880000000062864,99.68124715825252 12.67428571433993,99.69316912630165 12.507755102124065,99.87199847403099 12.439183673530351,100.01506171838992 12.419591836805921,100.2058123875322 12.468571428616997,100.53962516945467 12.488163265341427,100.78998401334684 12.605714285804424,101.14763840045634 12.61551020416664,101.386073936912 12.67428571433993,101.66027409010712 12.703673469484784,101.89870838536444 12.762448979658075,102.06561204853642 12.79183673474472,102.30404536238348 12.79183673474472,102.57824295964383 12.81142857146915,102.85243979348888 12.860408163338434,103.13855741479347 12.860408163338434,103.41275268857135 12.87020408170065,103.68694719889027 12.88979591842508,103.96114094583754 12.87020408170065,104.21149109151884 12.87020408170065,104.52144753302855 12.821224489889573,104.7479535464372" stroke="#4DD2FF" stroke-dasharray="none" stroke-linecap="round" stroke-linejoin="round" stroke-width="0.5"><title>2013-12-10 10.9km</title><desc>9223370650177580807</desc></polyline><polyline fill="none" opacity="1" points="91.36147934850305,88.2811387181282 91.36147934850305,91.78385877958499 90.16168481484056,95.87035909830593 89.68176699988544,98.49739136477001 88.72193137276918,102.58388032088988 88.96189028024673,106.37847101641819 88.2420135596767,109.29738287813962 88.2420135596767,113.09196302411146 88.2420135596767,116.01086677075364 89.4418080933392,118.34598722797818 91.84139716345817,121.84866367932409 94.72090404573828,123.01622136775404 98.56024655792862,123.60000000009313 102.15963016077876,122.43244259478524 104.07930141687393,119.80543636670336 106.71884939447045,117.47031732159667 108.39856174215674,113.38385355728678 108.39856174215674,110.17305574938655 109.59835627768189,106.08657963620499 110.07827409170568,102.87577212415636 110.79815081227571,99.08117592497729 111.7579864403233,94.70278828428127 111.7579864403233,92.07575188926421 111.51802753377706,87.69735154649243 110.31823299825191,84.19462555623613 108.87847955618054,81.85947207268327 105.51905485894531,80.98378893476911 103.11946578975767,80.4000000001397 99.28012327849865,80.6918944849167 96.16065748780966,82.44326065597124 93.04119169805199,85.36220145085827 90.64160262793303,88.57303225062788 90.40164372138679,92.36764496355318 89.92172590643167,95.87035909830593 89.4418080933392,99.37306815129705 88.72193137276918,102.58388032088988 88.72193137276918,106.37847101641819 88.2420135596767,110.17305574938655 88.72193137276918,113.96763451839797 89.20184918586165,117.47031732159667 91.36147934850305,119.80543636670336 94.24098623264581,121.55677416943945 97.60041092988104,122.43244259478524 101.43975344114006,122.1405531547498 105.27909595239908,119.51354661001824" stroke="#4DD2FF" stroke-dasharray="none" stroke-linecap="round" stroke-linejoin="round" stroke-width="0.5"><title>2013-11-30 10.3km</title><desc>9223370651086224807</desc></polyline><polyline fill="none" opacity="1" points="157.17806966789067,92.23192865797319 156.49945964291692,95.80901126144454 156.27325630094856,100.76188558526337 156.49945964291692,104.06379581429064 153.55881619919091,107.36570125445724 154.46362956706434,109.8421271899715 155.82084961794317,112.31855043233372 155.82084961794317,116.17075901036151 156.49945964291692,118.37201812700368 157.40427300985903,119.47264688764699 159.44010308664292,122.22421646025032 162.83315321430564,122.22421646025032 166.67861002590507,123.60000000009313 167.58342339284718,121.6739028126467 171.20267686247826,119.74780399515294 174.8219303302467,115.89560147118755 175.72674369905144,114.51981327589601 177.53637043293566,112.04339242749847 176.85776040703058,106.8153840135783 176.17915038205683,105.71474913298152 176.4053537240252,101.86252286075614 177.762573774904,96.90965093066916 177.762573774904,95.80901126144454 176.17915038205683,92.78224942437373 178.44118379987776,90.30580492829904 176.85776040703058,89.20516206463799 175.2743370141834,86.72871367656626 173.23850693926215,83.7019397658296 171.4288802035153,83.15161680453457 168.4882367597893,80.4000000001397 163.9641699232161,82.6012937091291 160.79732313752174,85.90323028201237 157.85667969379574,88.93000126630068 156.72566298395395,90.85612616012804 156.49945964291692,95.25869122636504 158.0828830357641,99.38608824228868 156.27325630094856,102.96315960329957 155.36844293307513,105.43959032977 156.0470529589802,107.64085982413962 155.1422395920381,110.6676019039005 155.36844293307513,113.69433995871805 155.36844293307513,117.27138883504085 157.40427300985903,118.64717536675744 160.118713112548,120.57327511627227 163.5117632402107,121.94905965286307 166.4524066830054,122.77452997583896 169.61925346869975,122.22421646025032 172.3336935704574,120.02296106843278 174.8219303302467,117.27138883504085 176.4053537240252,113.41918211965822 176.63155706506222,110.3924436995294 176.85776040703058,107.36570125445724 176.85776040703058,104.06379581429064 176.17915038205683,100.76188558526337 176.85776040703058,97.45997056690976 177.08396374993026,94.70837105903774 177.98877711594105,91.40644725854509 177.53637043293566,88.37967956834473 176.17915038205683,85.62806908367202 174.3695236472413,83.7019397658296 172.3336935704574,82.87645527347922 169.16684678569436,82.05097048147582 166.4524066830054,82.05097048147582 163.28555989731103,83.7019397658296 161.47593316342682,84.25226259441115 159.44010308664292,86.45355257811025 157.85667969379574,88.37967956834473 157.63047635182738,91.40644725854509 156.72566298395395,95.25869122636504 157.17806966789067,98.28544977051206 156.49945964291692,102.13768209633417 156.49945964291692,104.06379581429064 156.0470529589802,108.46633533574641 154.68983290810138,112.31855043233372 155.1422395920381,116.17075901036151 156.49945964291692,118.09686085442081 160.34491645358503,119.19748974777758 163.5117632402107,121.3987459379714 166.67861002590507,121.3987459379714 170.07166015263647,119.74780399515294 172.3336935704574,118.09686085442081 174.14332030527294,115.07012865296565 175.72674369905144,111.21791821252555 175.50054035615176,107.64085982413962 176.17915038205683,104.33895478351042 176.17915038205683,100.76188558526337 176.85776040703058,97.45997056690976 177.08396374993026,93.6077303243801 178.21498045884073,89.48032283014618 177.08396374993026,87.55419677193277 175.04813367314637,85.62806908367202 172.3336935704574,83.97710119653493 168.2620334168896,82.87645527347922 164.64277994912118,83.15161680453457 161.9283398464322,84.80258529004641 159.21389974374324,87.27903577359393" stroke="#4DD2FF" stroke-dasharray="none" stroke-linecap="round" stroke-linejoin="round" stroke-width="0.5"><title>2013-11-16 10.4km</title><desc>9223370652294258807</desc></polyline><polyline fill="none" opacity="1" points="27.675602074712515,131.06303575029597 25.97287955507636,134.61374557600357 22.81068059336394,138.16445025079884 24.27015703730285,141.12336687929928 23.297172740101814,144.6740621116478 23.297172740101814,150.88776637450792 22.81068059336394,154.43844744330272 23.053926666267216,160.06034860108048 22.56743451859802,163.6110163643025 23.540418814867735,166.5699022328481 24.99989525973797,168.64112021238543 29.135078518651426,170.71233643963933 34.0,171.60000000009313 38.37842933367938,171.30411218269728 39.35141362901777,169.52878452418372 42.02712044399232,167.1616789775435 42.27036651875824,163.01923876185901 42.27036651875824,160.35623777890578 43.24335081502795,155.32611690624617 45.18931940756738,150.29598569567315 45.43256548140198,146.1535169382114 45.919057629071176,142.89871513913386 45.67581155523658,138.75623386260122 45.919057629071176,135.7973143735435 44.70282725803554,132.5424988034647 40.56764399912208,129.879464663798 36.91895288974047,128.99178597261198 33.270261778496206,128.99178597261198 29.378324592486024,130.4712502779439 26.7026177784428,132.24660626379773 25.486387407407165,136.38909855671227 23.783664888702333,141.12336687929928 23.783664888702333,144.08227993012406 23.540418814867735,146.74529861821793 22.81068059336394,150.88776637450792 23.053926666267216,154.73433729959652 22.81068059336394,157.69323389837518 23.053926666267216,162.72334990650415 24.02691096253693,165.09045974630862 26.459371704608202,167.1616789775435 31.081047111190856,171.00822432967834 34.972984296269715,171.00822432967834 38.62167540658265,169.82467255694792 40.810890073888004,168.64112021238543 43.48659688886255,165.38634831481613 44.216335110366344,162.72334990650415 43.973089036531746,158.58090218016878 44.459581185132265,153.8466676226817 45.43256548140198,150.88776637450792 46.162303702905774,147.33708015549928 46.162303702905774,143.7863887862768 46.405549777671695,139.64390901243314 45.919057629071176,135.7973143735435 43.72984296362847,132.5424988034647 41.054136148653924,130.4712502779439 36.91895288974047,128.4000000001397 33.270261778496206,128.99178597261198 29.864816741086543,130.4712502779439 26.7026177784428,131.95071368920617 24.02691096253693,134.90963782859035 23.297172740101814,140.23569226590917 23.540418814867735,143.7863887862768 23.053926666267216,147.33708015549928 24.51340311113745,150.88776637450792 22.81068059336394,156.50967568787746 22.080942370928824,160.35623777890578 22.81068059336394,164.2027938242536 23.053926666267216,166.27401380729862 26.7026177784428,168.64112021238543 29.621570666320622,170.12056055432186 34.486492147669196,170.71233643963933 37.89193718507886,170.12056055432186 41.054136148653924,168.64112021238543 43.24335081502795,165.68223684746772 43.973089036531746,162.13157208892517 44.94607333280146,158.58090218016878 45.43256548140198,155.0302271207329 45.67581155523658,151.77543712500483 46.162303702905774,148.81653337273747 46.405549777671695,145.26584414974786 46.89204192534089,139.3480173314456 46.405549777671695,135.7973143735435 44.70282725803554,133.13428377383389 41.54062829632312,130.4712502779439 38.864921481348574,129.2876789055299 34.0,128.69589300476946 31.081047111190856,129.58357180282474 28.40534029621631,130.76714303181507 25.97287955507636,133.13428377383389 24.99989525973797,134.31785328662954 24.27015703730285,135.7973143735435 25.486387407407165,139.3480173314456 25.243141333572567,140.82747537712567 24.756649184972048,144.9699531486258 23.297172740101814,149.1124239093624 22.56743451859802,152.3672174452804 22.080942370928824,157.39734439994209 21.10795807465911,159.46857014065608" stroke="#4DD2FF" stroke-dasharray="none" stroke-linecap="round" stroke-linejoin="round" stroke-width="0.5"><title>2013-11-03 10.7km</title><desc>9223370653417861807</desc></polyline><polyline fill="none" opacity="1" points="110.77255779877305,148.27209728653543 111.48283633589745,145.39209345774725 111.71959584765136,142.5120861462783 111.9563553603366,138.48007006268017 111.48283633589745,133.2960393568501 109.35200072731823,129.84001261997037 106.98440560605377,129.2640076763928 103.90653194859624,130.41601742454804 100.35513926763088,130.12801503995433 97.51402512192726,130.41601742454804 94.67291097715497,132.14403100241907 92.77883488032967,135.3120526385028 91.35827780794352,138.1920686531812 91.59503732062876,143.37608870584518 90.88475878350437,145.96809450211003 90.1744802473113,149.712097896263 89.46420171111822,153.4560954067856 88.51716366223991,155.7600909504108 88.28040415141732,159.2160800890997 88.28040415141732,162.96006266516633 89.70096122287214,167.28003524802625 92.77883488032967,169.5840174248442 97.27726561017334,171.31200259411708 100.59189877938479,171.60000000009313 104.3800509730354,170.16001262003556 107.69468414224684,167.28003524802625 108.16820316575468,162.6720642137807 110.29903877526522,158.06408426584676 110.53579828795046,154.60809345706366 110.53579828795046,151.44009747868404 110.77255779877305,147.1200961722061 111.00931731145829,142.80008703446947 112.19311487209052,139.0560727783013 112.42987438477576,135.3120526385028 110.29903877526522,132.7200352489017 108.87848170287907,130.41601742454804 105.80060804635286,128.9760051521007 102.01245585177094,128.4000000001397 98.22430365905166,129.2640076763928 94.90967048984021,129.84001261997037 89.70096122287214,133.8720433257986 88.99068268761039,135.0240508459974 88.99068268761039,136.46405946207233 90.1744802473113,139.63207535468973 89.93772073462605,143.66408948926255 88.51716366223991,147.69609680003487 88.51716366223991,150.57609784416854 87.57012561522424,154.32009399705566 87.57012561522424,157.48808614653535 87.80688512697816,160.65607408294454 87.57012561522424,163.5360594613012 89.22744219843298,166.7040393569041 91.35827780794352,169.00802208902314 94.19939195271581,169.87201503990218 97.9875441454351,169.5840174248442 102.01245585177094,168.72002436965704 106.51088658254594,166.99203731981106 108.40496267937124,164.4000543965958 110.29903877526522,160.65607408294454 109.82551975175738,156.62408870481886 110.29903877526522,152.59209650335833 110.53579828795046,149.13609775714576" stroke="#4DD2FF" stroke-dasharray="none" stroke-linecap="round" stroke-linejoin="round" stroke-width="0.5"><title>2013-11-02 10.5km</title><desc>9223370653505000807</desc></polyline><polyline fill="none" opacity="1" points="166.2219622572884,128.94000515691005 162.6705661425367,130.56001984444447 159.78505679685622,132.45003549358808 157.5654342258349,135.15005507646129 156.01169842481613,138.12007284793071 156.45562293939292,142.98009340977296 156.67758519575,145.68010026379488 156.23366068210453,149.19010429433547 156.01169842481613,151.35010403278284 156.01169842481613,152.97010246641003 155.56777391023934,155.67009724397212 155.12384939659387,158.6400877290871 156.23366068210453,162.15007139416412 157.5654342258349,164.85005507571623 160.67290582694113,167.0100396713242 164.22430194169283,168.3600289823953 167.7756980592385,168.3600289823953 169.77335837297142,167.82003335561603 172.65886771772057,165.66004954348318 174.6565280323848,162.96006684168242 175.54437706060708,159.18008557590656 175.54437706060708,155.94009654247202 175.7663393188268,152.70010280935094 175.54437706060708,149.46010437584482 175.54437706060708,146.49010168295354 176.43222609069198,142.98009340977296 176.87615060433745,140.01008210144937 176.43222609069198,137.31006839242764 175.32241480425,134.34004954481497 173.99064126145095,132.72003759886138 170.4392451448366,130.56001984444447 167.7756980592385,128.4000000001397 165.3341132281348,129.48001018329524 162.0046793706715,130.8300221778918 159.78505679685622,132.45003549358808 158.67524551134557,135.69005860155448 158.2313209977001,138.12007284793071 157.7873964831233,141.63008875912055 156.45562293939292,144.33009724435396 156.01169842481613,146.76010209089145 156.23366068210453,150.81010429398157 157.7873964831233,154.32010026299395 154.90188713837415,155.13009854895063 155.12384939659387,156.21009580790997 154.45796262472868,157.56009164638817 154.90188713837415,163.23006525845267 160.22898131329566,166.20004569296725 165.77803774364293,167.55003549298272 167.1098112873733,167.55003549298272 169.10747160110623,167.55003549298272 171.77101868763566,168.3600289823953 173.99064126145095,164.0400603134185 174.6565280323848,162.96006684168242 174.8784902896732,160.5300796192605 175.54437706060708,159.18008557590656 173.54671674594283,158.91008666879497 174.8784902896732,158.10008975397795 176.2102638334036,155.94009654247202 175.9883015761152,150.81010429398157 176.2102638334036,149.46010437584482 175.7663393188268,146.2201012421865 176.2102638334036,142.1700907170307 175.7663393188268,136.7700652598869 175.32241480425,133.26004171161912 173.54671674594283,129.75001264712773 169.55139611661434,129.48001018329524 165.77803774364293,129.21000768686645 162.6705661425367,130.56001984444447 159.78505679685622,132.72003759886138 156.67758519575,133.26004171161912 156.45562293939292,137.58006991050206 156.23366068210453,140.55008445074782 156.01169842481613,144.0600965428166 154.90188713837415,147.57010311936028 155.34581165295094,151.62010385282338 155.12384939659387,155.13009854895063 154.90188713837415,159.18008557590656 154.90188713837415,161.61007426702417 158.45328325405717,165.66004954348318 164.00233968626708,168.63002674723975 166.44392451550812,169.98001507879235 169.32943385839462,171.60000000009313 173.32475448958576,167.82003335561603 175.1004525469616,162.69006839231588 175.54437706060708,159.7200832911767 175.54437706060708,158.6400877290871 175.1004525469616,153.24010209064 174.8784902896732,148.92010417976417 175.32241480425,146.2201012421865 175.54437706060708,142.98009340977296 177.09811286255717,138.93007700890303 175.7663393188268,135.96006031497382 174.43456577509642,134.34004954481497 172.88082997407764,130.8300221778918 170.21728288847953,130.02001507859677 166.0,129.75001264712773 162.0046793706715,130.56001984444447 159.78505679685622,130.8300221778918 156.89954745396972,132.72003759886138 154.90188713837415,135.69005860155448 154.67992488108575,138.39007426798344 155.34581165295094,139.7400808769744 154.23600036650896,142.71009254432283 154.67992488108575,145.95010076928884 154.90188713837415,147.57010311936028 154.45796262472868,150.27010442432947 154.90188713837415,153.78010124200955 154.67992488108575,157.02009340864606 154.90188713837415,161.34007565444335 157.5654342258349,166.20004569296725 161.7827171124518,168.63002674723975 163.11449065618217,168.3600289823953 166.0,169.98001507879235 167.99766031466424,169.1700221770443 171.1051319167018,171.33000259427354 173.32475448958576,168.63002674723975 174.8784902896732,162.42006990942173 173.99064126145095,158.37008875748143 175.1004525469616,151.35010403278284 174.8784902896732,147.0301024664659 174.8784902896732,145.68010026379488 176.43222609069198,142.98009340977296 177.76399963349104,140.82008557626978 177.09811286255717,136.7700652598869 175.32241480425,132.1800333559513 173.10279223136604,129.75001264712773 169.9953206302598,128.6700025945902 166.0,128.94000515691005 161.1168303405866,130.56001984444447 157.1215097112581,132.1800333559513 156.67758519575,133.53004371840507 155.56777391023934,134.61005142168142 155.78973616752774,137.04006684245542 156.01169842481613,138.6600756549742 156.23366068210453,142.1700907170307 156.23366068210453,143.5200950417202 156.23366068210453,147.84010339644738 156.01169842481613,149.19010429433547 155.12384939659387,151.62010385282338 155.78973616752774,155.13009854895063 154.90188713837415,156.21009580790997 155.12384939659387,161.07007700833492 156.23366068210453,162.15007139416412 156.23366068210453,163.50006364332512 158.45328325405717,165.66004954348318 162.6705661425367,168.63002674723975 167.1098112873733,170.52001018356532 170.4392451448366,169.710017477395 171.99298094585538,168.09003118495457 175.32241480425,163.77006199466996 174.8784902896732,159.18008557590656 174.43456577509642,152.97010246641003 176.2102638334036,152.1601033960469 176.65418834704906,147.3001028096769 176.87615060433745,146.49010168295354 175.9883015761152,142.71009254432283 176.87615060433745,138.93007700890303 175.54437706060708,134.34004954481497 173.54671674594283,132.1800333559513 172.21494320314378,128.94000515691005 166.2219622572884,129.21000768686645 162.0046793706715,130.02001507859677" stroke="#4DD2FF" stroke-dasharray="none" stroke-linecap="round" stroke-linejoin="round" stroke-width="0.5"><title>2013-10-26 11.1km</title><desc>9223370654110301807</desc></polyline><polyline fill="none" opacity="1" points="43.22894808650017,189.75797950988635 42.99530383106321,187.76849800907075 42.29437106475234,183.78952995873988 40.8925055321306,180.3789805562701 36.68690893705934,178.67370399925858 33.41588936187327,178.10527820512652 29.443937020376325,180.66319319489412 27.341138722375035,181.51583090610802 24.771051913499832,184.3579543782398 22.901897870004177,187.76849800907075 24.30376340262592,190.32640248560347 25.004696168005466,193.1685153071303 25.004696168005466,196.86325683817267 24.07011914718896,199.9895720607601 23.602830636315048,203.68430287321098 23.36918638087809,206.81060902611353 24.30376340262592,208.23165590292774 23.602830636315048,212.77900013769977 25.705628934316337,215.62108581862412 28.042071488685906,217.89475188939832 30.845802552998066,218.46316806343384 34.11682212725282,217.89475188939832 38.08877446874976,216.18950254260562 41.359794043935835,213.91583482245915 42.29437106475234,209.93691102182493 42.06072680931538,206.52639954793267 42.52801532112062,202.26325324806385 42.52801532112062,198.85273064253852 42.52801532112062,195.1579922370147 43.92988085281104,191.4632480267901 45.565390639938414,189.18955639493652 46.49996766168624,186.63165068160743 46.26632340531796,184.07374218595214 43.92988085281104,181.23161837016232 40.8925055321306,179.81055517448112 37.855130213312805,177.25263925665058 34.58411063905805,176.4000000001397 31.0794468075037,177.82106525660492 28.27571574319154,180.09476788225584 25.705628934316337,182.6526807071641 25.238340424373746,185.77901482582092 25.238340424373746,189.4737679695245 24.771051913499832,192.60009301709943 24.30376340262592,196.86325683817267 21.50003233831376,199.9895720607601 21.967320849187672,203.68430287321098 21.733676593750715,207.94744659680873 22.200965103693306,211.07374708005227 22.200965103693306,213.91583482245915 24.30376340262592,216.75791912851855 27.341138722375035,219.0315841003321 30.61215829756111,219.60000000009313 34.58411063905805,219.0315841003321 37.154197447001934,217.610543750925 40.8925055321306,215.90529419737868 41.82708255480975,213.6316262029577 43.462592341937125,210.22112008789554 43.92988085281104,206.81060902611353 43.92988085281104,203.1158831268549 44.39716936368495,199.70536175812595 45.0981021290645,195.4422030900605 45.33174638450146,192.0316705906298 45.79903489537537,189.18955639493652 45.565390639938414,185.49480280443095 44.63081361912191,181.80004340759479 42.52801532112062,179.24212965508923 39.4906400013715,178.10527820512652 35.98597617074847,177.53685227409005 32.48131234012544,177.53685227409005 29.21029276587069,178.95791684417054 25.705628934316337,181.23161837016232 24.30376340262592,184.07374218595214 25.004696168005466,188.33692146651447 23.602830636315048,191.74745932617225 23.36918638087809,194.58957042940892 23.36918638087809,198.28430972713977 21.733676593750715,201.69483315735124 22.200965103693306,206.52639954793267 21.967320849187672,209.3684927856084 23.36918638087809,212.21058258996345 24.30376340262592,215.90529419737868 25.238340424373746,217.610543750925 30.845802552998066,219.0315841003321 34.81775489356369,218.46316806343384 37.38784170243889,216.18950254260562 41.59343829844147,212.77900013769977 43.22894808650017,211.9263737637084 43.92988085281104,209.08428361662664 43.462592341937125,205.95798048726283 43.462592341937125,202.26325324806385 43.462592341937125,199.13694104878232 43.92988085281104,195.72641390911303 45.33174638450146,192.31588182109408 45.565390639938414,189.18955639493652 45.565390639938414,186.34743876405992 45.565390639938414,183.78952995873988 43.22894808650017,181.23161837016232 41.359794043935835,178.10527820512652 37.855130213312805,176.96842620545067 33.6495336163789,178.10527820512652 29.67758127581328,180.09476788225584 27.341138722375035,183.22110540163703 25.238340424373746,186.34743876405992 23.836474891752005,188.33692146651447 23.602830636315048,192.0316705906298 22.668253615498543,195.4422030900605 22.200965103693306,199.13694104878232 22.901897870004177,202.26325324806385 21.50003233831376,205.38956129038706" stroke="#4DD2FF" stroke-dasharray="none" stroke-linecap="round" stroke-linejoin="round" stroke-width="0.5"><title>2013-10-20 10.7km</title><desc>9223370654628121807</desc></polyline><polyline fill="none" opacity="1" points="99.10656750109047,217.6981306800153 102.45693937223405,217.42643493087962 106.03066936973482,216.06795569579117 109.15768311638385,213.8943872116506 110.72118998877704,211.17742365039885 110.94454811420292,208.18875993951224 111.39126436412334,205.20009225560352 111.83798061311245,201.1246299177874 112.50805498752743,198.13595284009352 112.95477123744786,195.41897022980265 113.17812936194241,192.70198433613405 112.73141311202198,188.89819856663235 112.50805498752743,186.1812047897838 110.27447373978794,182.92080792272463 108.71096686646342,179.6604063261766 105.80731124430895,177.75850321003236 102.68029749765992,176.67170070740394 99.77664187457412,176.67170070740394 96.20291187800467,177.48680263385177 92.85254000686109,179.6604063261766 90.39560063369572,182.92080792272463 89.50216813571751,185.90950523177162 89.50216813571751,188.89819856663235 88.83209376130253,192.15858676331118 88.60873563587666,196.23406535829417 87.49194501247257,199.49444291344844 87.93866126146168,202.4831181843765 86.82187063805759,206.2868809637148 89.27881001029164,208.73215363710187 90.17224251013249,211.9925130638294 91.95910750795156,215.52456377237104 94.19268875569105,217.42643493087962 97.7664187522605,218.7849133447744 101.56350687332451,219.60000000009313 104.46716249547899,217.96982639585622 106.92410186771303,215.25286776060238 108.93432499095798,212.8076021813322 110.49783186521381,209.81894063809887 110.27447373978794,207.64536611060612 110.94454811420292,204.65669770352542 111.16790623962879,201.6680253231898 111.39126436412334,198.67934896820225 112.061338737607,196.23406535829417 112.50805498752743,191.88688792707399 112.50805498752743,188.62649933667853 111.16790623962879,183.19250784208998 109.3810412408784,179.6604063261766 106.47738561872393,178.03020375361666 102.01022312324494,176.4000000001397 98.43649312574416,176.67170070740394 95.53283750358969,178.03020375361666" stroke="#4DD2FF" stroke-dasharray="none" stroke-linecap="round" stroke-linejoin="round" stroke-width="0.5"><title>2013-10-19 10.2km</title><desc>9223370654714312807</desc></polyline><polyline fill="none" opacity="1" points="171.31501041911542,216.95512410113588 174.21410701051354,214.3102453246247 174.93888115882874,211.07761180168018 175.90524668991566,206.66946825268678 175.4220639243722,202.55519372876734 175.66365530714393,198.1470347265713 175.90524668991566,195.2082576181274 176.63002083823085,191.09396369801834 177.59638636745512,187.27354168030433 176.1468380726874,183.15923433192074 174.93888115882874,180.22043910529464 171.31501041911542,177.5755203643348 167.20795691385865,176.4000000001397 163.3424947904423,177.5755203643348 160.20180681534111,179.33879984519444 158.51066713687032,182.57147557032295 157.302710223943,185.51026795455255 157.06111884023994,188.15517806308344 156.5779360756278,191.9755986945238 155.61157054454088,195.5021354884375 154.8867963962257,198.73478972166777 154.64520501438528,201.96743965684436 154.64520501438528,206.08171517541632 155.12838777899742,209.90210763714276 156.81952745839953,213.72249409533106 158.0274843722582,215.7796227785293 160.92658096458763,219.0122500488069 164.55045170336962,219.0122500488069 167.44954829569906,219.60000000009313 170.83182765357196,218.13062485610135 173.48933286219835,216.36737351119518 175.18047254160047,212.84086698386818 175.66365530714393,208.43272663117386 175.90524668991566,203.73070144630037 175.90524668991566,200.79193108691834 175.90524668991566,197.26540196686983 176.87161222100258,194.32662379206158 177.59638636745512,190.80008529429324 177.35479498654604,186.39190497691743 175.18047254160047,180.22043910529464 172.52296733297408,178.16328033292666 167.6911396794021,176.69388014404103 164.79204308707267,176.9877602532506 161.8929464938119,179.63267963356338 159.23544128518552,181.6898371623829 158.51066713687032,184.62863061204553 157.06111884023994,189.33069274341688 155.61157054454088,193.73886773106642 155.61157054454088,197.26540196686983 154.16202224884182,200.79193108691834 154.40361363161355,204.6123318609316 154.64520501438528,207.8449739809148 154.16202224884182,211.37148775416426 156.09475331008434,215.48574735829607 158.75225852057338,218.13062485610135 161.40976372919977,218.42449995642528 166.48318276554346,219.0122500488069 169.38227935694158,217.54287455044687 172.52296733297408,214.89799641259015 173.48933286219835,212.25311539904214 174.697289776057,208.43272663117386 176.1468380726874,204.9062085954938 177.35479498654604,201.67356256698258 177.83797775115818,197.55927958874963 177.35479498654604,192.85723337321542 177.35479498654604,188.44905678625219 176.3884294545278,184.92250976222567 174.93888115882874,180.22043910529464 172.03978456743062,178.16328033292666 168.89909659232944,177.28164032683708 164.79204308707267,176.9877602532506 161.40976372919977,179.04492002003826 158.51066713687032,181.6898371623829 157.06111884023994,184.33475142717361 157.78589298855513,187.8612993035931 156.5779360756278,192.5633551827632 157.06111884023994,196.67764661624096 156.5779360756278,200.49805385502987" stroke="#4DD2FF" stroke-dasharray="none" stroke-linecap="round" stroke-linejoin="round" stroke-width="0.5"><title>2013-10-12 10.6km</title><desc>9223370655320152807</desc></polyline><polyline fill="none" opacity="1" points="42.58833368588239,226.65884332591668 41.19563092570752,227.2235538160894 38.64234253298491,225.81177733442746 34.00000000093132,224.4000000001397 30.98247735388577,225.2470665036235 27.96495470777154,226.65884332591668 26.34013482183218,230.6118138891179 25.411666315048933,234.0000690475572 25.643783441744745,236.25890308944508 24.251080681569874,240.77656461950392 24.251080681569874,243.31774539034814 23.55472930241376,247.83539326884784 24.251080681569874,250.94127111579292 24.483197808265686,255.17655243445188 24.018963554874063,258.8471233653836 22.858377922326326,262.51768852747045 24.94743206165731,263.3647412073333 28.42918896023184,265.6235468534287 31.678828733973205,267.60000000009313 34.696351380087435,267.60000000009313 38.874459659680724,265.90589740499854 41.42774805333465,263.92944282409735 43.748919318430126,260.8235822466668 44.677387826144695,257.1530144221615 44.90950495097786,252.63538456475362 43.748919318430126,248.96480387263 43.98103644605726,243.8824518530164 45.141622078604996,239.92950374865904 45.37373920623213,236.82361125876196 46.30220771115273,234.0000690475572 45.60585633199662,231.74123282171786 43.05256793834269,228.07061929488555 38.874459659680724,226.65884332591668 35.39270276017487,225.81177733442746 32.60729724075645,225.81177733442746 30.286125973798335,226.94119858834893 26.34013482183218,228.91768446774222 24.94743206165731,231.74123282171786 24.018963554874063,235.12948634149507 24.251080681569874,239.0824425695464 24.251080681569874,242.47068544104695 24.483197808265686,245.57657042192295 24.251080681569874,249.24715643795207 22.626260795630515,251.78832799429074 21.92990941554308,254.61184870218858 21.697792288847268,257.435365997022 22.626260795630515,260.25887987948954 23.78684642817825,262.51768852747045 25.411666315048933,265.34119626670144 28.42918896023184,266.75294885598123 31.678828733973205,266.75294885598123 36.55328839365393,267.60000000009313 39.57081103976816,264.7764949919656 41.42774805333465,262.2353375663515 43.748919318430126,258.56477195979096 43.98103644605726,254.61184870218858 43.98103644605726,251.22362344292924 45.141622078604996,247.55304053192958 45.83797345869243,244.16480503370985 45.60585633199662,241.05891817482188 45.60585633199662,238.5177349471487 46.07009058445692,235.12948634149507 45.37373920623213,232.30594208301045 44.44527069851756,229.76474933186546 43.05256793834269,226.94119858834893 40.03504529315978,225.2470665036235 36.55328839365393,225.2470665036235 32.60729724075645,225.2470665036235 28.89342321548611,225.81177733442746 26.804369075223804,228.07061929488555 24.483197808265686,231.74123282171786 24.94743206165731,234.28242342267185 24.94743206165731,237.6706732562743 23.55472930241376,242.18833205639385 23.55472930241376,246.14127633837052 24.251080681569874,247.55304053192958 23.32261217571795,251.22362344292924 22.626260795630515,253.2000887747854 23.090495048090816,256.588311167201 23.78684642817825,259.6941773761064 24.251080681569874,262.80003945552744 25.875900567509234,265.34119626670144 27.73283758200705,266.4705984070897 34.00000000093132,266.4705984070897 38.17810827959329,266.4705984070897 40.267162419855595,265.34119626670144 43.98103644605726,261.95298657077365" stroke="#4DD2FF" stroke-dasharray="none" stroke-linecap="round" stroke-linejoin="round" stroke-width="0.5"><title>2013-10-06 10.6km</title><desc>9223370655838244807</desc></polyline><polyline fill="none" opacity="1" points="97.95111985504627,267.60000000009313 102.27653349470347,266.49231786769815 106.14664043672383,264.5538728488609 108.65082728024572,260.4000565716997 109.78909402806312,256.800076372223 110.01674737781286,253.47701270505786 110.47205407731235,250.4308667758014 111.61032082512975,247.3847167957574 110.92736077588052,243.78471614304 110.92736077588052,240.46163359680213 111.61032082512975,237.41547036124393 111.83797417394817,234.64622754161246 111.61032082512975,231.8769813736435 109.5614406792447,230.21543206600472 107.96786723192781,228.00003111502156 105.23602703865618,226.89232983626425 102.27653349470347,227.44618054293096 97.72346650529653,228.00003111502156 95.44693301152438,228.55388155416586 93.8533595642075,230.21543206600472 93.62570621352643,231.8769813736435 92.71509281732142,234.64622754161246 92.48743946664035,237.69239445892163 91.80447941832244,241.84625191055238 91.12151937000453,244.89240925433114 91.80447941832244,248.49240816570818 90.89386602025479,251.5385566733312 90.43855932168663,255.1385451410897 89.5279459245503,257.90776318963617 89.5279459245503,259.84621383203194 90.43855932168663,262.8923472412862 92.03213276807219,265.10771445115097 96.12989305891097,266.21539725130424 99.31703995261341,267.0461590006016 102.27653349470347,266.21539725130424 105.23602703865618,265.9384766018484 107.2849071836099,263.7231101959478 108.65082728024572,261.50774164893664 109.5614406792447,257.6308415350504 109.33378732949495,254.58470112946816 110.2444007275626,250.7077893000096 110.2444007275626,247.1077938694507 110.01674737781286,243.50779278133996 109.78909402806312,238.80009051598608 110.2444007275626,235.47700073826127 110.92736077588052,234.09237857535481 110.2444007275626,231.32313173846342 107.96786723192781,228.83080672309734 105.00837368983775,226.06155352527276 102.9594935439527,225.23077691416256 99.77234665118158,225.78462802176364 96.35754640772939,225.78462802176364 94.5363196125254,226.61540443263948 93.39805286563933,229.66158202895895 91.80447941832244,232.4308308751788 91.57682606950402,235.47700073826127 90.89386602025479,239.07701444602571 90.2109059728682,242.95394595898688 89.7555992724374,245.4462556091603 89.0726392250508,248.49240816570818 89.0726392250508,251.81547906342894 88.16202582698315,255.1385451410897 87.70671912748367,257.6308415350504 87.93437247723341,260.67697789077647 89.0726392250508,263.1692682597786 92.03213276807219,265.6615559179336 95.67458635941148,266.49231786769815 99.77234665118158,266.76923845126294 103.41480024252087,266.21539725130424 105.91898708697408,264.2769519982394 108.65082728024572,262.0615839860402 109.78909402806312,257.90776318963617 110.2444007275626,255.1385451410897 110.69970742613077,252.09240142116323 110.92736077588052,249.3231763425283 111.38266747444868,245.4462556091603 111.61032082512975,243.23086938657798 111.83797417394817,240.18470983416773 112.06562752369791,237.41547036124393 112.29328087251633,234.36930307536386 111.61032082512975,231.6000565723516 110.47205407731235,229.1077318591997 108.19552058167756,226.61540443263948 105.69133373815566,225.23077691416256 102.9594935439527,224.4000000001397 100.68296004924923,224.95385130867362 96.81285310722888,225.50770248449408 94.08101291395724,227.16925520659424 92.71509281732142,230.76928196917288 91.12151937000453,235.20007637282833 90.2109059728682,237.9693185237702 89.98325262311846,240.18470983416773 89.7555992724374,243.23086938657798 89.98325262311846,246.27702489006333 90.2109059728682,249.6000990010798 89.98325262311846,252.64624603441916 89.7555992724374,255.96931090718135 90.2109059728682,259.2923709584866 91.57682606950402,262.3385051051155 94.08101291395724,264.00003111432306 96.81285310722888,266.76923845126294 100.68296004924923,266.76923845126294 102.9594935439527,266.49231786769815 106.37429378647357,264.83079366665334 108.4231739314273,262.8923472412862 109.5614406792447,259.56929241190664 110.01674737781286,256.800076372223 110.92736077588052,253.75393486046232 110.92736077588052,250.4308667758014 111.61032082512975,247.6616396890022 111.61032082512975,244.61548602650873 111.38266747444868,241.56932831485756 112.52093422133476,237.9693185237702 111.61032082512975,235.20007637282833 110.69970742613077,231.8769813736435 110.01674737781286,229.3846569606103 107.51256053335965,227.72310584550723 104.32541364058852,226.06155352527276 101.36592009756714,226.61540443263948 97.26815980672836,226.89232983626425 94.30866626370698,228.83080672309734 92.94274616613984,230.76928196917288 90.89386602025479,234.09237857535481 90.43855932168663,236.30777363479137 89.5279459245503,239.90778603730723 89.7555992724374,242.95394595898688 88.61733252555132,246.00010183011182 88.61733252555132,249.3231763425283 87.93437247723341,252.64624603441916 87.47906577866524,255.96931090718135 88.16202582698315,259.2923709584866 89.30029257386923,262.3385051051155 92.71509281732142,264.2769519982394 96.35754640772939,265.9384766018484 98.8617332521826,265.38463520118967 102.27653349470347,264.5538728488609 104.78072033915669,261.7846628341358 107.96786723192781,259.84621383203194 109.5614406792447,257.35391984693706 110.2444007275626,255.1385451410897 110.47205407731235,251.81547906342894 110.92736077588052,248.49240816570818 111.15501412469894,246.00010183011182 111.61032082512975,242.12317547295243 111.15501412469894,239.35393834323622" stroke="#4DD2FF" stroke-dasharray="none" stroke-linecap="round" stroke-linejoin="round" stroke-width="0.5"><title>2013-09-29 10.5km</title><desc>9223370656443428807</desc></polyline><polyline fill="none" opacity="1" points="157.6834495300427,261.8582753909286 160.38070914242417,263.22535400046036 163.752283657901,265.13926266669296 166.89908653870225,265.13926266669296 169.37157451640815,264.0456007702742 172.29360576253384,263.22535400046036 174.31655047181994,261.0380278278608 175.66518027801067,258.3038671386894 176.5642668157816,255.29628656315617 176.5642668157816,251.7418679993134 176.5642668157816,248.73427869705483 177.23858171794564,246.00010313582607 177.23858171794564,242.17225179541856 178.36243989039212,238.8912312053144 177.68812498729676,237.25071912514977 176.78903844952583,234.51652968092822 175.66518027801067,230.68865890661255 173.86700720340014,227.95446153078228 171.39451922569424,225.49368106527254 170.0458894195035,225.76710125035606 166.00000000093132,224.94684059894644 163.30274038854986,226.5873616025783 160.83025241084397,228.22788141667843 159.7063942393288,232.055756355403 158.35776443313807,233.6962722032331 157.6834495300427,238.6178126083687 157.00913462694734,240.80516046099365 156.78436299227178,244.9064319843892 156.78436299227178,247.09377375710756 156.55959135852754,249.28111341316253 156.55959135852754,253.38236956926994 155.2109615523368,255.56970314332284 155.6605048207566,261.0380278278608 156.55959135852754,263.4987696236931 161.95411058235914,265.4126780577935 164.2018269263208,265.95950874197297 167.5734014417976,265.95950874197297 171.61929085943848,264.86584724183194 174.5413221064955,262.1316911787726 176.5642668157816,258.0304508882109 177.23858171794564,253.65578638156876 175.66518027801067,250.92161676776595 174.09177883714437,249.55453072185628 175.88995191268623,245.17984982184134 177.4633533526212,239.98490526387468 177.91289662197232,238.07097531366162 177.23858171794564,235.06336783478037 178.36243989039212,231.235497985268 175.66518027801067,228.50130126997828 172.9679206656292,225.49368106527254 171.16974759101868,224.94684059894644 165.77522836625576,225.49368106527254 164.2018269263208,225.76710125035606 161.27979567926377,228.22788141667843 158.80730770155787,230.41523931804113 158.1329927984625,232.87601442844607 157.6834495300427,236.43046263838187 156.55959135852754,241.07857879367657 157.00913462694734,244.35959621169604 157.23390626069158,246.54693851224147 156.55959135852754,250.92161676776595 157.00913462694734,254.20261990698054 155.6605048207566,258.3038671386894 156.33481972385198,261.5848595700227 156.55959135852754,263.4987696236931 160.38070914242417,264.86584724183194 163.97705529164523,267.3265848727897 166.22477163467556,266.77975451922975 169.14680288173258,265.95950874197297 172.0688341287896,264.86584724183194 174.9908653749153,261.5848595700227 175.21563700959086,259.3975318111479 175.88995191268623,256.66336913825944 176.78903844952583,253.92920316033997 177.91289662197232,250.92161676776595 177.0138100842014,247.3671913293656 175.88995191268623,243.53934230282903 176.11472354643047,240.5317420954816 176.5642668157816,237.25071912514977 177.68812498729676,236.43046263838187 178.58721152413636,232.87601442844607 177.23858171794564,230.14181969570927 178.36243989039212,230.41523931804113 177.91289662197232,227.68104161159135 174.76609374023974,226.31394151831046 171.39451922569424,225.22026084875688 168.24771634489298,224.6734203158412 164.2018269263208,225.76710125035606 161.0550240445882,228.22788141667843 158.35776443313807,230.14181969570927 158.1329927984625,233.42285297834314 155.88527645543218,237.25071912514977 154.53664664924145,241.62541536078788 156.11004808917642,241.62541536078788 156.78436299227178,243.2659242679365 156.33481972385198,246.8203561506234 155.6605048207566,250.92161676776595 153.41278847679496,253.10895272321068 155.43573318701237,256.11653620772995 155.6605048207566,258.57728335657157 157.23390626069158,262.9519383441657 159.256850970909,265.4126780577935 161.95411058235914,266.23292403365485 165.77522836625576,266.23292403365485 169.37157451640815,267.60000000009313 172.9679206656292,266.23292403365485 174.09177883714437,264.0456007702742 174.31655047181994,260.49119595531374 175.66518027801067,259.3975318111479 175.88995191268623,255.29628656315617 177.91289662197232,248.73427869705483 177.91289662197232,244.08617827459238 175.88995191268623,241.35199709353037 176.5642668157816,238.07097531366162 177.0138100842014,235.61020585522056 177.4633533526212,232.055756355403 177.23858171794564,230.14181969570927 175.66518027801067,227.1342016728595 172.0688341287896,225.76710125035606 168.69725961331278,224.4000000001397 166.00000000093132,225.76710125035606 163.52751202322543,226.8607816544827 160.38070914242417,229.04814087809063 157.45867789536715,232.055756355403 155.6605048207566,235.61020585522056 156.78436299227178,239.16464976919815 157.00913462694734,243.53934230282903 157.00913462694734,246.8203561506234 156.33481972385198,250.64819962508045 154.761418283917,253.10895272321068 156.33481972385198,256.66336913825944 155.6605048207566,259.3975318111479 156.78436299227178,262.4051069342531 157.6834495300427,264.86584724183194 161.7293389486149,264.31901629362255 164.2018269263208,265.95950874197297 167.5734014417976,265.13926266669296 170.72020432259887,264.592431783909 172.5183773972094,263.4987696236931 174.9908653749153,259.6709478965495" stroke="#4DD2FF" stroke-dasharray="none" stroke-linecap="round" stroke-linejoin="round" stroke-width="0.5"><title>2013-09-22 10.9km</title><desc>9223370657048162807</desc></polyline></svg>