<?xml version="1.0" encoding="utf-8" ?>
<svg baseProfile="full" height="300mm" version="1.1" viewBox="0,0,200,300" width="200mm" xmlns="http://www.w3.org/2000/svg" xmlns:ev="http://www.w3.org/2001/xml-events" xmlns:xlink="http://www.w3.org/1999/xlink"><defs /><rect fill="#222222" height="300" width="200" x="0" y="0" /><text fill="#FFFFFF" style="font-size:12px; font-family:Arial; font-weight:bold;" x="10" y="20">Over 10km Runs</text><text fill="#FFFFFF" style="font-size:4px; font-family:Arial" x="10" y="280">Runner</text><text fill="#FFFFFF" style="font-size:9px; font-family:Arial" x="10" y="290">keep</text><text fill="#FFFFFF" style="font-size:4px; font-family:Arial" x="65" y="280">SPECIAL TRACKS</text><rect fill="yellow" height="2.6" width="2.6" x="65" y="283" /><text fill="#FFFFFF" style="font-size:3px; font-family:Arial" x="70" y="285.5">Over 20.0 km</text><rect fill="red" height="2.6" width="2.6" x="65" y="287" /><text fill="#FFFFFF" style="font-size:3px; font-family:Arial" x="70" y="289.5">Over 40.0 km</text><text fill="#FFFFFF" style="font-size:4px; font-family:Arial" x="120" y="280">STATISTICS</text><text fill="#FFFFFF" style="font-size:3px; font-family:Arial" x="120" y="285">Number: 15</text><text fill="#FFFFFF" style="font-size:3px; font-family:Arial" x="120" y="290">Weekly: 1.2</text><text fill="#FFFFFF" style="font-size:3px; font-family:Arial" x="141" y="285">Total: 163.6 km</text><text fill="#FFFFFF" style="font-size:3px; font-family:Arial" x="141" y="290">Avg: 10.9 km</text><text fill="#FFFFFF" style="font-size:3px; font-family:Arial" x="167" y="285">Min: 10.2 km</text><text fill="#FFFFFF" style="font-size:3px; font-family:Arial" x="167" y="290">Max: 14.0 km</text><polyline fill="none" opacity="1" points="27.033233795053093,75.59999999999854 26.94759438256733,75.29820840920729 26.879082852596184,75.15809050180542 26.793443440110423,74.97485902553308 26.707804027653765,74.78084877430229 26.64785643891082,74.52216771479289 26.639292497682618,74.20959366301395 26.699240086367354,73.90779687961185 26.707804027653765,73.60599896907661 26.699240086367354,73.26108569111238 26.690676145168254,72.95928536529391 26.699240086367354,72.6682625549438 26.716367968911072,72.30178789545607 26.724931910110172,72.0430988998196 26.810571322625037,71.78440907601907 27.00754197133938,71.67662140502216 27.273024149995763,71.6658426300055 27.332971738738706,71.5257184240545 27.367227503709728,71.39637278749433 27.38435538619524,71.18079626646067 27.410047209938057,70.85743040655507 27.29871597373858,70.54484217851859 27.024669853795785,70.40471602859179 26.94759438256733,70.14602095952432 27.016105912538478,69.73641873962333 27.050361677567707,69.46694246257539 27.101745325053344,69.14356974379916 27.144565031281672,68.79863741731242 27.19594867876731,68.4860412245107 27.204512620024616,68.27045693862601 27.290152032481274,68.11954759625223 27.332971738738706,67.97941724026896 27.31584385622409,67.78539019227901 27.3244077974814,67.70993510333938 27.38435538619524,67.51590740822576 27.444302974967286,67.24642372536618 27.512814504938433,66.98771854419465 27.589889976166887,66.66433590288216 27.66696544739534,66.36251093653846 27.752604859852,66.07146436544281 27.872500037337886,65.86665318694577 28.026650979794795,65.88821228279994 28.257877393480157,65.97444860873657 28.48910380716552,65.84509408528538 28.70320233833627,65.64028233294084 28.788841750792926,65.39235162229306 28.942992693249835,65.09052190415969 29.105707576993154,64.78869105841295 29.268422460678266,64.50841854916507 29.414009461877868,64.23892483486998 29.56816040436388,63.98021002343012 29.72231134682079,63.65681534411851 29.885026230535004,63.36575902590994 30.08199687922024,62.97768230387737 30.3046593516774,62.61116368803778 30.527321824105456,62.21230330499384 30.690036707819672,61.9320218577559 30.878443415247602,61.640959325639415 31.049722240219126,61.36067589618324 31.178181358933216,61.15585277508217 31.349460183875635,60.89712809037155 31.546430832589976,60.59528157762543 31.64919812756125,60.30421422939253 31.794785128731746,59.98080483467493 31.974627894931473,59.67895489813964 32.205854308616836,59.44178629967064 32.45420860484592,59.25851917846012 32.61692348853103,59.01056888214225 32.78820231347345,58.74105682725349 32.873841725930106,58.67637380031374 32.98517296218779,58.43920225837064 33.08794025712996,58.202030020038364 33.16501572832931,58.04032127652317 33.36198637707275,57.95407648093533 33.50757337824325,57.975637688461575 33.61034067321452,57.8786122092788 33.730235850729514,57.72768345446093 33.91007861692924,57.555193103638885 34.08992138312897,57.30723757909436 34.27832809052779,57.08084273978602 34.30401991432882,56.87600876702345 34.26120020810049,56.552585647230444 34.29545597304241,56.31540786971891 34.46673479798483,56.0566676818562 34.672269387956476,55.84105022552103 34.826420330413384,55.593089439214964 34.946315507841064,55.2588802186001 35.100466450327076,55.000136646478495 35.37451257026987,54.74139224555256 35.580047160212416,54.525771278335014 35.71707022015471,54.25624425989372 35.8369653976406,53.94359179179446 35.96542451635469,53.663281653571175 36.230906695040176,53.45843901432818 36.47926099121105,53.436876601030235 36.66766769863898,53.156564704368066 36.761871052352944,52.843907979666255 36.82181864112499,52.56359402515227 36.88176622983883,52.26171637081279 36.958841701067286,51.905930544031435 37.05304505478125,51.571706067043124 37.08730081981048,51.420765527305775 37.138684467296116,51.23748020698986 37.19006811475265,50.91403450951475 37.267143585952,50.525897962768795 37.36134693969507,50.15932284481096 37.46411423466634,49.76040097312216 37.50693394095288,49.41538587350806 37.58400941215223,49.102714666463726 37.66964882463799,48.76847858930705 37.755288237094646,48.39111361400137 37.80667188455118,48.04609266499756 37.87518341458053,47.711852215121326 37.96082282703719,47.32370027931029 38.03789829829475,46.97867477031832 38.09784588700859,46.68755835057527 38.17492135826615,46.34253012389672 38.22630500572268,46.05141141107015 38.30338047695113,45.792638340906706 38.32907230069395,45.66325149486511 38.37189200692228,45.38291261739505 38.44040353689343,45.04866114544711 38.51747900812188,44.69284354226693 38.59455447937944,44.347806793492055 38.65450206809328,44.07824580775923 38.66306600932148,43.97042116156081 38.705885715578916,43.70085891616327 38.76583330432186,43.3989481330791 38.834344834293006,43.02155806696828 38.90285636432236,42.69807946376386 38.971367894264404,42.43929564824066 39.014187600521836,42.255989943841996 39.05700730672106,42.115814712655265 39.099827012978494,42.01877017929655 39.13408277797862,41.889377286759554 39.09126307175029,41.66293922589102 39.1083909542358,41.41493490690482 39.15121066046413,41.14536413104361 39.21972219046438,40.9512726152534 39.27966977917822,40.78952932901302 39.5280240753782,40.83266090371035 39.8191980777774,40.94048973957251 40.1018081389775,41.03753556875017 40.29877878763364,41.09144986792671 40.358726376405684,40.86500956957752 40.37585425886209,40.61700280000514 40.36729031763389,40.33664640416828 40.3844182001485,39.97002503320982 40.41011002389132,39.581835884950124 40.47862155386247,39.279909701690485 40.392982141376706,39.031898063767585 40.22170331640518,38.967199250357226 39.930529313976876,39.01033179838123 39.639355311577674,39.085813702025916 39.57084378160653,38.92406667926116 39.60509954660665,38.62213803653867 39.6736110765778,38.298641809407854 39.73355866532074,37.98592755790742 39.8191980777774,37.6300788330409 39.89627354903496,37.30657863140368 39.93909325526329,36.98307713368558 39.98191296146251,36.68114123312989 40.024732667719945,36.40077117161127 40.04186055023456,36.21745175887918 39.99904084394802,36.07726604476193 40.12749996269122,35.98021425396291 40.32447061140556,35.883162346515746 40.36729031763389,35.74297605202446 40.20457543391967,35.624356689651904 40.21313937517698,35.451819124253234 40.21313937517698,35.311632080840354 40.36729031763389,35.3224157082077 40.55569702509092,35.343982958613196 40.70128402631963,35.33319933414896 40.83830708623282,35.33319933414896 41.00958591120434,35.300848452039645 41.172300794918556,35.27928119011631 41.20655655988958,35.00968992992421 41.24937626614701,34.567558314571215 41.30075991360354,34.20091074843367 41.33501567863277,33.89896444385522 41.32645173734636,33.69407166544988 41.35214356111828,33.49996223785274 41.36927144360379,33.31663623888744 41.24081232491881,33.23036503649928 41.00958591120434,33.2087972215013 40.82974314500461,33.16566157423949 40.658464320062194,33.079390210521524 40.41011002389132,33.03625449412357 40.08468025646289,32.960766934935236 39.78494231280638,32.91763115511276 39.49376831034897,32.82057556635118 39.15977460172144,32.77743971165182 38.88572848177864,32.691167933102406 38.6801938918361,32.56176009244518 38.47465930189355,32.57254408711742 38.166357416979736,32.56176009244518 37.88374735580874,32.55097609638324 37.57544547092402,32.529408099922875 37.2585796447529,32.49705609436933 36.984533524810104,32.45392006684415 36.65910375738167,32.43235204440862 36.445005226210924,32.410784016232355 36.42787734372541,32.43235204440862 36.35080187249696,32.658815992384916 36.29941822501132,32.86371139797848 36.256598518782994,33.047038425371284 36.230906695040176,33.27350064921484 36.20521487129736,33.44604286960384 36.136703341268,33.661720126576256 36.05962787006865,33.82347769122134 35.95686057509738,34.006802539406635 35.905476927611744,34.1685594126684 35.8455293388688,34.35188347729854 35.751325985154836,34.524423393224424 35.68281445518369,34.696962940404774 35.605738983955234,34.85871843102359 35.50297168895486,35.07439191445155 35.36594862898346,35.225363010089495 35.33169286404154,35.49495355015824 35.22892556904117,35.73219248082751 35.083338567841565,36.04491546079953 34.937751566641964,36.38998768826423 34.79216456544236,36.68114123312989 34.65514150541276,36.98307713368558 34.51811844549957,37.263445173273794 34.38109538555727,37.55459556859569 34.22694444307126,37.856528203024936 34.08992138312897,38.13689320982667 33.97002620564308,38.39569081363152 33.88438679315732,38.579005281113496 33.82443920444348,38.63292122181156 33.74736373318592,38.71918665195699 33.68741614447208,38.90250038508384 33.66172432072926,39.193644870552816 33.49900943704415,39.47400523482065 33.37055031830096,39.72201551486796 33.2934748470725,39.91610998530814 33.34485849455814,40.03472304313618 33.55895702572889,40.067072028658 33.86725891070091,40.067072028658 34.18412473684293,40.120986975765845 34.49242662175675,40.16411890751624 34.826420330413384,40.20725081622368 35.15185009781271,40.250382701909984 35.44302410024102,40.29351456452423 35.73419810264022,40.32586344640731 35.88834904512623,40.261165669740876 35.93116875135456,40.067072028658 35.9825523988402,39.85141188032139 35.973988457611995,39.75436462568905 36.119575458811596,39.797496753250016 36.16239516506903,39.97002503320982 36.145267282554414,40.250382701909984 36.07675575255416,40.60621987968625 36.008244222583016,40.94048973957251 35.93116875135456,41.33945518037217 35.862657221383415,41.695287559196004 35.78558175012586,42.01877017929655 35.73419810264022,42.33146881369612 35.665686572669074,42.63338358765759 35.62286686641164,42.93529723281972 35.639994748926256,43.258774885827734 35.460151982697425,43.517556075326866 35.35738468778436,43.75477143721946 35.271745275269495,44.067463349616446 35.22036162781296,44.38015405130864 35.20323374529835,44.628149264150125 35.32312892275513,44.779102499109285 35.35738468778436,45.08100812255725 35.28887315778411,45.43682401555998 35.20323374529835,45.835767243515875 35.126158274069894,46.18079763519927 35.06621068538516,46.5366086827853 35.02339097906952,46.913982323298114 35.01482703787042,47.22666200389358 35.00626309661311,47.560904461774044 35.01482703787042,47.89514553632762 34.9891352141276,48.26173093082616 34.98057127287029,48.58518725007161 34.946315507841064,48.919424085768696 34.92918762535555,49.23209600237897 34.87780397786992,49.54476670857548 34.826420330413384,49.889781255500566 34.74078091792762,50.224012692407996 34.79216456544236,50.5366795586815 34.74934485918493,50.870908318633155 34.68083332921378,51.215917200817785 34.51811844549957,51.53936168941436 34.33827567929984,51.78733492016909 34.08135744187166,51.99218179745367 33.841567086958094,52.1970281552276 33.61034067321452,52.412655339016055 33.37911425958737,52.628281947167125 33.2849109058734,52.7900015255218 33.16501572832931,52.94093950650131 33.045120550872525,53.113439710839884 32.93378931467305,53.31828322499496 32.839585960959084,53.620156930606754 32.685435018502176,53.94359179179446 32.51415619353065,54.25624425989372 32.36856919233105,54.51499021487689 32.257237956131576,54.77373534099024 32.24867401487427,55.000136646478495 32.41138889855938,55.172632453308324 32.39426101607387,55.44215641403571 32.282929779816186,55.711679475447454 32.33431342736003,55.80870755741489 32.24867401487427,55.73324128152308 32.10308701367467,55.90573552283604 31.906116364960326,56.21838039637805 31.7262735987606,56.43399684551696 31.48648324381793,56.67117427485209 31.340896242647432,56.951473975292174 31.263820771389874,57.21021129711153 31.11823377016117,57.44738644736208 31.006902533961693,57.555193103638885 30.75854823779082,57.53363178390282 30.510193941619946,57.522851121859276 30.227583880448947,57.46894779012655 29.919281995506026,57.46894779012655 29.65379981684964,57.47972845935146 29.516776756878244,57.51207045841147 29.431137344392482,57.51207045841147 29.345497931935824,57.71690281834162 29.19991093070712,57.921734658870264 29.165655165706994,58.16968829723919 29.105707576993154,58.4284217171662 28.960120575793553,58.654812779815984 28.942992693249835,58.74105682725349 28.788841750792926,58.902764168080466 28.583307160879485,59.09681254976749 28.386336512194248,59.30164089144819 28.43772015965078,59.49568831500801 28.506231689621927,59.6034922377803 28.566179278393975,59.75441748800222 28.600435043364996,60.00236550127738 28.61756292587961,60.22875215308159 28.591871102136793,60.153290006302996 28.412028335907962,60.164070317317965 28.24931345222285,60.433577624753525 28.10372645102325,60.681523553495936 27.93244762608083,60.89712809037155 27.786860624852125,61.177413128061744 27.66696544739534,61.44691705497826 27.555634211166762,61.69485987366352" stroke="#4DD2FF" stroke-dasharray="none" stroke-linecap="round" stroke-linejoin="round" stroke-width="0.5"><title>2017-12-17 14.0km</title><desc>9223370523376934807</desc></polyline><polyline fill="none" opacity="1" points="100.60674296115758,32.39999999999418 100.44846218865132,32.64898647039081 100.58036283240654,32.91457148986228 100.67269328300608,33.213353959501546 100.6858833473525,33.44573982896691 100.6858833473525,33.76111995793326 100.6858833473525,34.02670260472951 100.67269328300608,34.37527896874235 100.64631315425504,34.72385435671458 100.54079263919266,35.03923124765424 100.64631315425504,35.18862002239621 100.69907341169892,35.91896256274049 100.65950321865967,36.184540605980146 100.83097405551234,36.48331522739318 100.88373431289801,36.76549060034449 100.93649457045831,37.06426382744394 100.94968463480473,37.46262701493106 100.97606476355577,37.811193758272566 101.02882502105786,38.09336612147308 101.08158527855994,38.40873447631748 101.1739157292177,38.69090548509121 101.1871057935059,38.989674091440975 101.25305611547083,39.321638368644926 101.35857663041679,39.57061099555722 101.53004746721126,39.620405461246264 101.63556798215723,39.78638686956401 101.58280772477156,39.91917183691112 101.38495675910963,40.01876046943653 101.38495675910963,40.25113363562559 101.49047727417201,40.500104403778096 101.62237791786902,40.83206465348485 101.72789843281498,41.130828121386 101.79384875466349,41.41299296056968 101.93893946282333,41.71175503442646 102.09722023527138,41.99391855700378 102.24231094337301,42.25948364110809 102.20274075027555,42.54164592228335 101.91255933407228,42.558243683641194 101.66194811096648,42.37566818727646 101.47728720970917,42.24288583991438 101.27943624416366,42.19309242318559 101.06839521421352,42.25948364110809 100.80459392670309,42.27608144007536 100.6858833473525,42.42546153100557 100.69907341169892,42.67442795099487 100.64631315425504,42.906796160459635 100.36932180239819,43.00638240319677 100.10552051494597,43.12256625233567 99.82852916308912,43.139163936262776 99.60429806879256,43.12256625233567 99.64386826189002,42.85700300923054 99.72300864808494,42.558243683641194 99.8153390988009,42.27608144007536 99.89447948499583,41.92752719744021 99.96042980684433,41.562374087108765 99.9472397424397,41.21381784637197 99.89447948499583,40.88185861459351 99.85490929184016,40.56649652451597 99.56472787563689,40.500104403778096 99.30092658818467,40.4669083301269 99.18221600889228,40.30092782906286 99.16902594448766,40.13494710675877 99.15583588008303,39.90257372370252 99.10307562263915,39.736592470311734 98.93160478572827,39.70339619305014 98.74694388452917,39.670199906984635 98.58866311202291,39.70339619305014 98.58866311202291,39.91917183691112 98.60185317642754,40.18474134669668 98.62823330517858,40.533300468589005 98.62823330517858,40.81546666200302 98.65461343398783,41.130828121386 98.66780349827604,41.46278668932791 98.65461343398783,41.778146509044745 98.65461343398783,42.076907706628845 98.66780349827604,42.39226597076049 98.65461343398783,42.65783020517847 98.66780349827604,42.98978470162547 98.68099356268067,43.22215232249437 98.69418362702709,43.45451950967254 98.68099356268067,43.65369103922421 98.66780349827604,43.919252583044 98.641423369525,44.16821601591073 98.61504324077396,44.33419136120938 98.58866311202291,44.56655647293519 98.5754730477347,44.798921150984825 98.56228298333008,45.03128539541649 98.56228298333008,45.230454402568284 98.56228298333008,45.52920731589984 98.5754730477347,45.827959512447705 98.56228298333008,46.176502835667634 98.56228298333008,46.4918507159673 98.56228298333008,46.77400340552413 98.5754730477347,47.03955829396 98.58866311202291,47.38809822547046 98.58866311202291,47.736637181282276 98.58866311202291,47.9523989031004 98.5754730477347,48.25114528530685 98.5754730477347,48.43371216599189 98.53590285457904,48.6992635145798 98.56228298333008,48.93162047999067 98.58866311202291,49.1805738903422 98.62823330517858,49.479317325713055 98.68099356268067,49.7614632454206 98.7073736913735,50.10999555765011 98.77332401333842,50.47512360019027 98.86565446387976,50.84025057214603 98.97117497882573,51.1223934079826 99.07669549388811,51.38793902244652 99.18221600889228,51.7032737039699 99.28773652383825,51.985414584341925 99.38006697437959,52.1513795093997 99.4460172962863,52.35053712748049 99.55153781129047,52.54969442704896 99.65705832629465,52.76544780878612 99.6966285193921,52.997797186377284 99.72300864808494,53.147164414433064 99.8812894205912,53.27993513349793 99.97361987119075,53.412705710892624 100.09233045054134,53.5952650236577 100.21104102989193,53.76122780307196 100.31656154495431,53.97697908557893 100.44846218865132,54.15953757110401 100.619933025504,54.342095788968436 100.80459392670309,54.5744422245989 100.98925482790219,54.839980477387144 101.14753560040845,55.07232598401606 101.26624617975904,55.271478930349986 101.31900643731933,55.40424738430738 101.49047727417201,55.68637987889815 101.66194811096648,55.90212782580784 101.82022888347274,56.151067300081195 101.97850965592079,56.43319810259709 102.12360036396421,56.66554063647345 102.26869107212406,56.914478584585595 102.42697184457211,57.18001184737659 102.598442681483,57.46214031870477 102.76991351827746,57.76086388568365 102.95457441947656,58.042991041060304 103.12604525638744,58.30852189741563 103.31070615758654,58.5740521876578 103.49536705884384,58.88936867190205 103.69321802444756,59.20468435771181 103.86468886124203,59.470212737083784 104.03615969815291,59.752336019751965 104.18125040619634,60.01786323139095 104.32634111435618,60.250199077112484 104.47143182239961,60.46593911716627 104.62971259490587,60.73146480716241 104.80118343170034,60.99698993108905 104.93308407551376,61.212728677361156 105.10455491230823,61.44506229388935 105.28921581350733,61.71058589620952 105.44749658601359,61.992704103431606 105.59258729411522,62.20844112478517 105.75086806662148,62.5071533065784 105.92233890347416,62.82245983224129 106.10699980467325,63.13776555961522 106.27847064152593,63.41988053375826 106.4499414783204,63.70199486876663 106.67417257267516,64.01729836930463 106.83245334518142,64.28281648742995 106.96435398893664,64.5151443763898 107.1358248257311,64.76406663364469 107.30729566258378,65.06277268556732 107.47876649943646,65.39466745857499 107.65023733628914,65.70996667362488 107.76894791563973,65.94229190025362 107.92722868814599,66.27418432936247 108.04593926749658,66.5728867593134 108.15145978250075,66.92137202217418 108.20422004000284,67.13710050575173 108.20422004000284,67.30304523881932 108.07231939624762,67.48558418983157 108.08550946059404,67.45239530954859 108.20422004000284,67.40261197255313 108.33612068369985,67.53536749366322 108.41526106995298,67.75109491369949 108.50759152055252,68.01660507152701 108.6131120355567,68.31530332250259 108.73182261484908,68.6471894278584 108.85053319425788,68.9790746487779 108.96924377355026,69.32755317892588 109.02200403111055,69.49349499346863 109.14071461046115,69.80878383194795 109.25942518981174,70.10747778472432 109.36494570481591,70.33979480837297 109.45727615535725,70.62189346873492 109.53641654161038,70.87080352083285 109.58917679917067,71.10311912062025 109.68150724971201,71.38521605214191 109.78702776471619,71.66731234465988 109.89254827966215,71.98259568028152 109.97168866591528,72.2315030130485 110.07720918097766,72.54678492044332 110.169539631519,72.79569112572062 110.27506014658138,73.07778422369302 110.39377072587376,73.3432830264428 110.48610117647331,73.62537488418457 110.61800182017032,73.94065326324926 110.71033227082808,74.18955668305716 110.82904285023687,74.471646624188 110.9081832364318,74.67076855091 111.00051368703134,74.91967051169922 111.11922426638193,75.08560487590876 111.1587944595376,75.20175879928865 111.14560439507477,75.41747294108063 111.0928441376891,75.59999999999854 110.9081832364318,75.50043981916679 110.7235223352327,75.25153901896556 110.5388614339754,74.9860442838908 110.32782040402526,74.72054898284114 110.06401911657304,74.40527257787471 109.78702776471619,74.13977603890817 109.549606606015,73.92405968427192 109.31218544725562,73.67515573396668 109.08795435295906,73.45943857465318 108.83734312991146,73.1607526603184 108.59992197115207,72.9616283195428 108.36250081245089,72.72931618622533 108.09869952499866,72.44722229904437 107.86127836629748,72.21490920631913 107.61066714313347,71.98259568028152 107.32048572698841,71.71709397706582 107.06987450394081,71.51796732820367 106.7533129589865,71.33543428709527 106.46313154272502,71.23587069741188 106.13337993336609,71.15290097852994 105.81681838846998,71.11971307548083 105.47387671470642,71.03674327921908 105.14412510540569,70.95377342763823 104.86713375360705,70.90399149019504 104.55057220865274,70.8210215502113 104.24720072810305,70.8210215502113 103.87787892558845,70.72145754927624 103.52174718753668,70.62189346873492 103.40303660818608,70.5887054242412 103.20518564264057,70.53892334083503 103.03371480572969,70.52232930865284 102.82267377577955,70.48914123758004 102.63801287452225,70.45595315765968 102.45335197332315,70.43935911436711 102.28188113647047,70.38957697131991 102.05765004211571,70.33979480837297 101.83341894781915,70.3066066886604 101.6751381753129,70.24023042272893 101.49047727417201,70.19044820007548 101.21348592225695,70.07428960311518 100.8705442485516,69.94153678829025 100.52760257490445,69.80878383194795 100.22423109429656,69.70921902180999 99.93404967809329,69.62624828591652 99.61748813313898,69.54327749468939 99.28773652383825,69.44371247228992 98.9447948501329,69.34414737035695 98.5754730477347,69.26117639125005 98.21934130956652,69.11182848954923 97.95554002211429,69.06204581585916 97.5862182197161,68.96248040877254 97.29603680351283,68.8131321488836 97.03223551606061,68.73016081603419 96.7816242928966,68.6471894278584 96.49144287675153,68.54762368908996 96.17488133179722,68.41486924698256 95.84512972243829,68.23233165800775 95.5417582418304,68.01660507152701 95.23838676133892,67.8340668988094 94.97458547388669,67.55196192382573 94.77673450828297,67.25326184212463 94.63164380018134,67.00434456005314 94.5525034139282,66.75542678053898 94.44698289892403,66.58948131778016 94.28870212647598,66.34056270903238 94.19637167581823,66.17461669352633 94.06447103212122,65.90910260871169 93.89300019526854,65.6103985867012 93.72152935841586,65.2785043886397 93.57643865037244,64.91341974915849 93.37858768471051,64.53173920905829 93.18073671910679,64.13346261564584 92.9960758179077,63.768374619437964 92.85098510980606,63.50285540451296 92.70589440170443,63.13776555961522 92.52123350044712,62.75607957739703 92.34976266365265,62.374392425321275 92.15191169810714,61.976108932489296 91.95406073244521,61.57782416584814 91.78258989553433,61.19613340246724 91.58473892998882,60.831036794988904 91.40007802884793,60.44934374271543 91.24179725634167,60.08424494578503 91.07032641943078,59.71914507848123 90.91204564698273,59.38723517933249 90.7669549388811,59.05532439552917 90.59548410202842,58.75660393372527 90.50315365142887,58.474478395182814 90.39763313648291,58.159160860399425 90.27892255707411,57.810651077204966 90.19978217087919,57.428948766959365 90.12064178456785,57.047245286732505 90.0810715915286,56.765115875416086 90.0283113339683,56.35021852116188 89.97555107652443,55.95191576051002 89.94917094771517,55.60339979978744 89.90960075461771,55.18849857474561 89.85684049711563,54.889768836706935 89.85684049711563,54.5744422245989 89.84365043276921,54.19272999425448 89.81727030407637,53.877401617013675 89.84365043276921,53.528879850011435 89.85684049711563,53.097375358345744 89.84365043276921,52.76544780878612 89.81727030407637,52.416922929398424 89.72493985341862,52.08499356592074 89.65898953157011,51.65348407057172 89.67217959591653,51.32155267190683 89.64579946716549,50.93983046954236 89.60622927406803,50.624493854513275 89.56665908091236,50.325753166784125 89.51389882346848,49.960624686144 89.57984914531698,49.57889831157809 89.64579946716549,49.1805738903422 89.64579946716549,48.86523281986592 89.64579946716549,48.64947267986281 89.68536966032116,48.48350308697991 89.65898953157011,48.25114528530685 89.60622927406803,47.9523989031004 89.5930392096634,47.65365180411027 89.55346901656594,47.32170974228211 89.5270888878149,46.97316962493642 89.51389882346848,46.69101738671452 89.43475843721535,46.30928098784352 89.40837830846431,45.92754341867112 89.38199817965506,45.52920731589984 89.35561805096222,45.197259590124304 89.31604785786476,44.881908430950716 89.27647766470909,44.50016648530436 89.25009753601626,44.35078888355201 89.26328760036267,44.00224044929928 89.27647766470909,43.65369103922421 89.25009753601626,43.32173831293767 89.223717407207,43.0561754947048 89.18414721410954,42.7076234360502 89.13138695660746,42.35907040163147 89.13138695660746,42.0105163913322 89.15776708541671,41.71175503442646 89.15776708541671,41.346601291239494 89.07862669910537,40.94825053177192 89.06543663475895,40.64948662569077 89.03905650600791,40.31752588915697 89.07862669910537,40.101750935733435 89.07862669910537,39.96896616317099 89.05224657041254,39.719994332815986 89.03905650600791,39.45442383165209 89.02586644166149,39.15565634067025 88.94672605540836,38.84028987786587 88.89396579790628,38.458529406707385 88.88077573350165,38.12656282799435 88.88077573350165,37.761398569040466 88.86758566909702,37.41283168622613 88.85439560475061,37.08086231906054" stroke="#4DD2FF" stroke-dasharray="none" stroke-linecap="round" stroke-linejoin="round" stroke-width="0.5"><title>2017-11-19 11.8km</title><desc>9223370525802103807</desc></polyline><polyline fill="none" opacity="0.5" points="187.5999999998603,65.53715035278583 187.5999999998603,66.0236452333047 187.36553595680743,66.92713472119067 187.07245590235107,67.90012193983421 185.95875169616193,68.10861900402233 185.255359566072,68.17811800987693 184.4933514248114,67.96962096903007 183.49687924026512,68.10861900402233 182.55902306665666,68.10861900402233 181.62116689281538,68.17811800987693 180.56607869756408,68.10861900402233 179.8040705563035,67.96962096903007 178.9834464045707,67.96962096903007 178.22143826354295,67.96962096903007 177.3421981006395,67.76112385862507 176.52157394844107,66.99663385830354 175.5837177745998,66.92713472119067 174.82170963380486,66.85763557621976 173.88385345996358,66.57963891886175 173.1218453189358,66.7186372630531 172.3012211669702,66.64913809474092 171.36336499336176,66.7186372630531 170.54274084139615,66.51013973512454 169.6635006784927,66.64913809474092 168.72564450465143,66.78813642339082 167.72917232010514,66.44064054382034 166.90854816813953,66.30164213792887 166.20515603781678,66.16264370107092 165.384531886084,66.16264370107092 164.62252374505624,65.88464673480485 163.7432835821528,65.88464673480485 162.9226594301872,65.74564820510568 162.21926729986444,65.95414598792559 160.98833107203245,65.39815174596151 159.99185888725333,65.25915310822893 159.05400271364488,65.18965377786662 157.99891451839358,65.25915310822893 157.58860244229436,65.32865243108245 156.47489823610522,65.60664964455646 155.0681139754597,64.98115574021358 154.07164179091342,64.14716289372882 153.19240162800997,64.35566120949807 152.19592944346368,64.00816397793824 151.3166892810259,63.869165030890144 150.61329715070315,64.00816397793824 149.9099050203804,63.7996655459865 149.20651289005764,63.52166752866469 148.3272727271542,63.59116704465123 147.56526458612643,63.938664508285 146.27571234712377,63.52166752866469 145.57232021703385,63.1046702710446 145.22062415187247,62.34017457580194 144.75169606506824,61.575677945744246 144.6930800541304,60.463681178574916 144.81031207600608,59.49068238417385 144.81031207600608,58.378681907604914 144.6930800541304,57.40567986789392 144.6930800541304,56.0851746769622 144.51723202154972,55.39017082436476 144.39999999990687,54.34766359644709 144.6344640434254,53.37465528177563 144.6344640434254,52.540646949375514 144.8689280867111,51.845639155537356 144.6930800541304,50.942127868242096 144.98616010835394,49.96911425224971 144.92754409764893,48.92659798276145 145.10339213022962,48.30108738626586 145.16200814116746,47.05006431584479 145.10339213022962,45.93804170633666 145.16200814116746,44.9650203002966 145.22062415187247,44.20050241862191 145.39647218445316,43.296980080136564 145.57232021703385,42.32395456265658 145.39647218445316,41.3509275301476 145.39647218445316,40.65590729378164 145.27924016257748,39.821881990123075 145.39647218445316,40.65590729378164 145.39647218445316,41.3509275301476 145.57232021703385,42.32395456265658 145.39647218445316,43.296980080136564 145.22062415187247,44.20050241862191 145.16200814116746,44.9650203002966 145.10339213022962,45.93804170633666 145.16200814116746,47.05006431584479 145.10339213022962,48.30108738626586 144.92754409764893,48.92659798276145 144.98616010835394,49.96911425224971 144.6930800541304,50.942127868242096 144.8689280867111,51.845639155537356 144.6344640434254,52.540646949375514 144.6344640434254,53.37465528177563 144.39999999990687,54.34766359644709 144.51723202154972,55.39017082436476 144.6930800541304,56.0851746769622 144.6930800541304,57.40567986789392 144.81031207600608,58.378681907604914 144.81031207600608,59.49068238417385 144.6930800541304,60.463681178574916 144.75169606506824,61.575677945744246 145.22062415187247,62.34017457580194 145.57232021703385,63.1046702710446 146.27571234712377,63.52166752866469 147.56526458612643,63.938664508285 148.3272727271542,63.59116704465123 149.20651289005764,63.52166752866469 149.9099050203804,63.7996655459865 150.61329715070315,64.00816397793824 151.3166892810259,63.869165030890144 152.19592944346368,64.00816397793824 153.19240162800997,64.35566120949807 154.07164179091342,64.14716289372882 155.0681139754597,64.98115574021358 156.47489823610522,65.60664964455646 157.58860244229436,65.32865243108245 157.99891451839358,65.25915310822893 159.05400271364488,65.18965377786662 159.99185888725333,65.25915310822893 160.98833107203245,65.39815174596151 162.21926729986444,65.95414598792559 162.9226594301872,65.74564820510568 163.7432835821528,65.88464673480485 164.62252374505624,65.88464673480485 165.384531886084,66.16264370107092 166.20515603781678,66.16264370107092 166.90854816813953,66.30164213792887 167.72917232010514,66.44064054382034 168.72564450465143,66.78813642339082 169.6635006784927,66.64913809474092 170.54274084139615,66.51013973512454 171.36336499336176,66.7186372630531 172.3012211669702,66.64913809474092 173.1218453189358,66.7186372630531 173.88385345996358,66.57963891886175 174.82170963380486,66.85763557621976 175.5837177745998,66.92713472119067 176.52157394844107,66.99663385830354 177.3421981006395,67.76112385862507 178.22143826354295,67.96962096903007 178.9834464045707,67.96962096903007 179.8040705563035,67.96962096903007 180.56607869756408,68.10861900402233 181.62116689281538,68.17811800987693 182.55902306665666,68.10861900402233 183.49687924026512,68.10861900402233 184.4933514248114,67.96962096903007 185.255359566072,68.17811800987693 185.95875169616193,68.10861900402233 187.07245590235107,67.90012193983421 187.36553595680743,66.92713472119067 187.5999999998603,66.0236452333047 187.5999999998603,65.53715035278583 187.5999999998603,64.425160632818 187.54138398938812,63.73016605316661 187.5999999998603,62.8266719445819 187.5999999998603,62.06217590958113 187.48276797845028,61.08917960344115 187.42415196751244,60.3941813147394 187.5999999998603,59.83818212756887 187.36553595680743,59.00418241909938" stroke="#4DD2FF" stroke-dasharray="1,0.5" stroke-linecap="round" stroke-linejoin="round" stroke-width="0.5"><title>2014-03-22 10.5km</title><desc>9223370641410674807</desc></polyline><polyline fill="none" opacity="1" points="55.59999999997672,99.57968625065405 55.45448012580164,99.55607261426485 55.318661576427985,99.57968625065405 55.18284302717075,99.62691350625391 55.05672580283135,99.62691350625391 54.930608578491956,99.70956114852743 54.78508870425867,99.73317474773648 54.649270154943224,99.69775434678013 54.50375028070994,99.674140739 54.37763305637054,99.66233393297443 54.27091848192504,99.72136794882681 54.13509993260959,99.69775434678013 54.018684033246245,99.674140739 53.88286548398901,99.69775434678013 53.74704693467356,99.674140739 53.6500336851459,99.60329988130252 53.543319110700395,99.59149306670588 53.417201886361,99.60329988130252 53.2910846620216,99.63872031656501 53.14556478778832,99.63872031656501 53.02914888842497,99.65052712547913 52.90303166402737,99.60329988130252 52.74781046487624,99.61510669451673 52.641095890430734,99.62691350625391 52.4858746912214,99.62691350625391 52.35005614190595,99.62691350625391 52.243341567518655,99.62691350625391 52.09782169322716,99.62691350625391 51.97170446894597,99.61510669451673 51.85528856952442,99.60329988130252 51.738872670102865,99.59149306670588 51.62245677068131,99.57968625065405 51.49633954640012,99.61510669451673 51.37022232206073,99.61510669451673 51.24410509766312,99.60329988130252 51.11798787332373,99.57968625065405 50.99187064898433,99.55607261426485 50.90455872443272,99.55607261426485 50.75903885019943,99.55607261426485 50.623220300942194,99.57968625065405 50.4971030766028,99.57968625065405 50.370985852205195,99.5678794331543 50.23516730294796,99.53245897219313 50.11875140358461,99.55607261426485 49.99263417918701,99.55607261426485 49.83741298003588,99.54426579394931 49.730698405590374,99.50884532438067 49.57547720638104,99.49703849831712 49.42995733214775,99.53245897219313 49.274736132938415,99.53245897219313 49.15832023357507,99.54426579394931 49.01280035934178,99.53245897219313 48.89638445992023,99.53245897219313 48.76056591066299,99.54426579394931 48.653851336217485,99.53245897219313 48.52773411181988,99.52065214898903 48.401616887538694,99.54426579394931 48.27549966314109,99.53245897219313 48.149382438801695,99.53245897219313 48.04266786435619,99.55607261426485 47.90684931509895,99.5678794331543 47.80013474065345,99.5678794331543 47.674017516255844,99.5678794331543 47.50909499212867,99.55607261426485 47.40238041768316,99.55607261426485 47.24715921853203,99.55607261426485 47.15984729398042,99.55607261426485 47.033730069582816,99.55607261426485 46.90761284530163,99.54426579394931 46.78149562096223,99.55607261426485 46.64567707164679,99.52065214898903 46.52926117222523,99.52065214898903 46.383741298050154,99.50884532438067 46.24792274873471,99.50884532438067 46.121805524337105,99.49703849831712 46.0150909498916,99.49703849831712 45.87927240063436,99.53245897219313 45.724051201483235,99.55607261426485 45.60763530206168,99.53245897219313 45.47181675280444,99.52065214898903 45.34569952840684,99.50884532438067 45.22928362904349,99.48523167081294 45.07406242983416,99.50884532438067 44.95764653047081,99.48523167081294 44.812126656179316,99.47342484192632 44.67630810692208,99.47342484192632 44.540489557548426,99.50884532438067 44.41437233326724,99.49703849831712 44.2591511340579,99.46161801159906 44.113631259824615,99.4380043466299 43.98751403548522,99.42619751198072 43.851695486169774,99.39077699953486 43.71587693691254,99.4025838384332 43.59946103749098,99.41439067594183 43.47334381315159,99.4380043466299 43.35692791373003,99.44981117984571 43.230810689448845,99.49703849831712 43.10469346505124,99.49703849831712 42.968874915794004,99.48523167081294 42.84275769145461,99.47342484192632 42.7360431170091,99.46161801159906 42.60992589266971,99.48523167081294 42.48380866833031,99.47342484192632 42.36739276890876,99.49703849831712 42.22187289467547,99.46161801159906 42.076353020442184,99.48523167081294 41.96963844599668,99.46161801159906 41.833819896681234,99.46161801159906 41.707702672400046,99.46161801159906 41.60098809795454,99.42619751198072 41.465169548639096,99.4025838384332 41.31964967440581,99.41439067594183 41.174129800114315,99.42619751198072 41.02860992588103,99.4025838384332 40.91219402651768,99.41439067594183 40.77637547720224,99.41439067594183 40.63085560296895,99.4025838384332 40.504738378629554,99.4025838384332 40.37862115429016,99.41439067594183 40.23310128005687,99.42619751198072 40.097282730741426,99.44981117984571 39.98086683131987,99.41439067594183 39.854749607038684,99.37897015919589 39.71893105772324,99.39077699953486 39.59281383338384,99.367163317409 39.4569952840684,99.37897015919589 39.34057938470505,99.4025838384332 39.224163485341705,99.37897015919589 39.08834493602626,99.35535647421784 38.94282506179297,99.35535647421784 38.82640916237142,99.35535647421784 38.680889288079925,99.3317427835209 38.58387603866868,99.30812908710504 38.457758814271074,99.30812908710504 38.321940265013836,99.30812908710504 38.22492701554438,99.3317427835209 38.07940714125289,99.3199359360151 37.94358859199565,99.3317427835209 37.817471367598046,99.367163317409 37.67195149342297,99.367163317409 37.53613294410752,99.37897015919589 37.43911969457986,99.3435496296006 37.30330114532262,99.3435496296006 37.177183920983225,99.3435496296006 37.07046934653772,99.3199359360151 36.915248147328384,99.3435496296006 36.78913092298899,99.3317427835209 36.63390972377965,99.3199359360151 36.50779249944026,99.3317427835209 36.4107792499708,99.3199359360151 36.16824612620985,99.3317427835209 35.88690770271933,99.3199359360151 35.67347855377011,99.28451538498484 35.45034807996126,99.28451538498484 35.0137884572614,99.3435496296006 34.742151358688716,99.27270853178197 34.56752750952728,99.24909482103976 34.22798113635508,99.27270853178197 34.0630586121697,99.22548110463686 33.90783741301857,99.21367424430355 33.616797664551996,99.26090167711664 33.335459240945056,99.2963222367689 33.08322479232447,99.4025838384332 32.879496968351305,99.37897015919589 29.047473613347393,99.16644678854209 28.824343139480334,99.16644678854209 28.581810015719384,99.13102618177072 28.26166629238287,99.21367424430355 28.00943184370408,99.1428330521303 27.747496070107445,99.0956055620918 27.39824837190099,99.0956055620918 24.25501908827573,99.06018492957082 24.02218728949083,99.0837986859915 23.711744891130365,99.06018492957082 23.488614417263307,99.02476428414957 23.236379968584515,98.9303091668553 22.935638895141892,99.01295739947818 22.615495171805378,99.02476428414957 22.39236469793832,99.03657116736576 19.879721536068246,99.00115051340981 19.549876487755682,99.00115051340981 19.384953963628504,99.00115051340981 19.220031439501327,99.02476428414957 19.171524814737495,98.96572984658269 19.026004940504208,98.9775367369366 18.696159892249852,98.98934362590808 18.57004266785225,98.9185022707752 18.308106894255616,98.89488847432949 18.094677745364606,98.9185022707752 17.89094992139144,98.9185022707752 17.745430047158152,98.88308157394204 16.707388277573045,98.90669537326175 16.40664720418863,98.9185022707752 16.173815405345522,98.83585395810223 15.950684931478463,98.88308157394204 15.601437233330216,98.87127467209939 15.368605434545316,98.90669537326175 15.145474960736465,98.95392295478814 14.883539187081624,98.89488847432949 14.611902088508941,98.87127467209939 14.37907028972404,98.85946776888159 14.068627891305368,98.83585395810223 13.8843027172843,98.83585395810223 13.67087356839329,98.84766086418676 13.20520997082349,98.87127467209939 13.01118347182637,98.76501249147987 12.99178082193248,99.03657116736576 13.020884796744213,99.24909482103976 13.059690096590202,99.42619751198072 12.972378172038589,99.62691350625391 12.855962272675242,99.65052712547913 12.875364922569133,99.3435496296006 12.671637098595966,99.35535647421784 12.506714574468788,99.53245897219313 12.438805299811065,99.674140739 12.419402649917174,99.86304944121366 12.467909274622798,100.19363878957665 12.487311924574897,100.44158006547514 12.60372782399645,100.79578079468047 12.613429148914292,101.03191389949643 12.671637098595966,101.30346626321261 12.700741073465906,101.53959813881374 12.75894902314758,101.7048901115486 12.788052997959312,101.9410210152273 12.788052997959312,102.21257084768149 12.80745564791141,102.48411992409092 12.855962272675242,102.7674746759294 12.855962272675242,103.03902220734017 12.865663597593084,103.31056898266252 12.885066247486975,103.58211500198377 12.865663597593084,103.83004766366503 12.865663597593084,104.13701103825588 12.81715697288746,104.36132981641276 12.836559622723144,104.66829151888669 12.81715697288746,104.85719054796937 12.855962272675242,105.12873226127704" stroke="#4DD2FF" stroke-dasharray="none" stroke-linecap="round" stroke-linejoin="round" stroke-width="0.5"><title>2013-12-10 10.9km</title><desc>9223370650177580807</desc></polyline><polyline fill="none" opacity="1" points="109.35839737020433,85.07030752976425 106.23893158044666,83.02704909676686 102.39958906918764,80.6918944849167 99.04016437195241,80.6918944849167 96.64057530183345,81.85947207268327 93.52110951114446,83.90273149451241 91.36147934850305,88.2811387181282 91.36147934850305,91.78385877958499 90.16168481484056,95.87035909830593 89.68176699988544,98.49739136477001 88.72193137276918,102.58388032088988 88.96189028024673,106.37847101641819 88.2420135596767,109.29738287813962 88.2420135596767,113.09196302411146 88.2420135596767,116.01086677075364 89.4418080933392,118.34598722797818 91.84139716345817,121.84866367932409 94.72090404573828,123.01622136775404 98.56024655792862,123.60000000009313 102.15963016077876,122.43244259478524 104.07930141687393,119.80543636670336 106.71884939447045,117.47031732159667 108.39856174215674,113.38385355728678 108.39856174215674,110.17305574938655 109.59835627768189,106.08657963620499 110.07827409170568,102.87577212415636 110.79815081227571,99.08117592497729 111.7579864403233,94.70278828428127 111.7579864403233,92.07575188926421 111.51802753377706,87.69735154649243 110.31823299825191,84.19462555623613 108.87847955618054,81.85947207268327 105.51905485894531,80.98378893476911 103.11946578975767,80.4000000001397 99.28012327849865,80.6918944849167 96.16065748780966,82.44326065597124 93.04119169805199,85.36220145085827 90.64160262793303,88.57303225062788 90.40164372138679,92.36764496355318 89.92172590643167,95.87035909830593 89.4418080933392,99.37306815129705 88.72193137276918,102.58388032088988 88.72193137276918,106.37847101641819 88.2420135596767,110.17305574938655 88.72193137276918,113.96763451839797 89.20184918586165,117.47031732159667 91.36147934850305,119.80543636670336 94.24098623264581,121.55677416943945 97.60041092988104,122.43244259478524 101.43975344114006,122.1405531547498 105.27909595239908,119.51354661001824 107.67868502158672,117.17842728225514 108.39856174215674,112.80007245577872 109.11843846272677,108.71360078873113 109.59835627768189,104.33523061382584 110.07827409170568,100.83252875739709 110.79815081227571,97.62171426019631" stroke="#4DD2FF" stroke-dasharray="none" stroke-linecap="round" stroke-linejoin="round" stroke-width="0.5"><title>2013-11-30 10.3km</title><desc>9223370651086224807</desc></polyline><polyline fill="none" opacity="1" points="168.2620334168896,83.15161680453457 165.32138997409493,82.6012937091291 162.1545431893319,82.6012937091291 162.38074653036892,83.7019397658296 160.34491645358503,85.07774658850394 156.27325630094856,88.93000126630068 157.17806966789067,92.23192865797319 156.49945964291692,95.80901126144454 156.27325630094856,100.76188558526337 156.49945964291692,104.06379581429064 153.55881619919091,107.36570125445724 154.46362956706434,109.8421271899715 155.82084961794317,112.31855043233372 155.82084961794317,116.17075901036151 156.49945964291692,118.37201812700368 157.40427300985903,119.47264688764699 159.44010308664292,122.22421646025032 162.83315321430564,122.22421646025032 166.67861002590507,123.60000000009313 167.58342339284718,121.6739028126467 171.20267686247826,119.74780399515294 174.8219303302467,115.89560147118755 175.72674369905144,114.51981327589601 177.53637043293566,112.04339242749847 176.85776040703058,106.8153840135783 176.17915038205683,105.71474913298152 176.4053537240252,101.86252286075614 177.762573774904,96.90965093066916 177.762573774904,95.80901126144454 176.17915038205683,92.78224942437373 178.44118379987776,90.30580492829904 176.85776040703058,89.20516206463799 175.2743370141834,86.72871367656626 173.23850693926215,83.7019397658296 171.4288802035153,83.15161680453457 168.4882367597893,80.4000000001397 163.9641699232161,82.6012937091291 160.79732313752174,85.90323028201237 157.85667969379574,88.93000126630068 156.72566298395395,90.85612616012804 156.49945964291692,95.25869122636504 158.0828830357641,99.38608824228868 156.27325630094856,102.96315960329957 155.36844293307513,105.43959032977 156.0470529589802,107.64085982413962 155.1422395920381,110.6676019039005 155.36844293307513,113.69433995871805 155.36844293307513,117.27138883504085 157.40427300985903,118.64717536675744 160.118713112548,120.57327511627227 163.5117632402107,121.94905965286307 166.4524066830054,122.77452997583896 169.61925346869975,122.22421646025032 172.3336935704574,120.02296106843278 174.8219303302467,117.27138883504085 176.4053537240252,113.41918211965822 176.63155706506222,110.3924436995294 176.85776040703058,107.36570125445724 176.85776040703058,104.06379581429064 176.17915038205683,100.76188558526337 176.85776040703058,97.45997056690976 177.08396374993026,94.70837105903774 177.98877711594105,91.40644725854509 177.53637043293566,88.37967956834473 176.17915038205683,85.62806908367202 174.3695236472413,83.7019397658296 172.3336935704574,82.87645527347922 169.16684678569436,82.05097048147582 166.4524066830054,82.05097048147582 163.28555989731103,83.7019397658296 161.47593316342682,84.25226259441115 159.44010308664292,86.45355257811025 157.85667969379574,88.37967956834473 157.63047635182738,91.40644725854509 156.72566298395395,95.25869122636504 157.17806966789067,98.28544977051206 156.49945964291692,102.13768209633417 156.49945964291692,104.06379581429064 156.0470529589802,108.46633533574641 154.68983290810138,112.31855043233372 155.1422395920381,116.17075901036151 156.49945964291692,118.09686085442081 160.34491645358503,119.19748974777758 163.5117632402107,121.3987459379714 166.67861002590507,121.3987459379714 170.07166015263647,119.74780399515294 172.3336935704574,118.09686085442081 174.14332030527294,115.07012865296565 175.72674369905144,111.21791821252555 175.50054035615176,107.64085982413962 176.17915038205683,104.33895478351042 176.17915038205683,100.76188558526337 176.85776040703058,97.45997056690976 177.08396374993026,93.6077303243801 178.21498045884073,89.48032283014618 177.08396374993026,87.55419677193277 175.04813367314637,85.62806908367202 172.3336935704574,83.97710119653493 168.2620334168896,82.87645527347922 164.64277994912118,83.15161680453457 161.9283398464322,84.80258529004641 159.21389974374324,87.27903577359393 158.0828830357641,90.0306442619767 157.63047635182738,92.78224942437373 156.49945964291692,96.90965093066916 156.72566298395395,100.21156674809754 156.72566298395395,102.41284129838459 156.27325630094856,105.9899079024326" stroke="#4DD2FF" stroke-dasharray="none" stroke-linecap="round" stroke-linejoin="round" stroke-width="0.5"><title>2013-11-16 10.4km</title><desc>9223370652294258807</desc></polyline><polyline fill="none" opacity="1" points="45.43256548140198,139.3480173314456 45.67581155523658,135.7973143735435 43.48659688886255,134.31785328662954 40.810890073888004,130.4712502779439 38.37842933367938,129.58357180282474 30.59455496352166,128.99178597261198 27.675602074712515,131.06303575029597 25.97287955507636,134.61374557600357 22.81068059336394,138.16445025079884 24.27015703730285,141.12336687929928 23.297172740101814,144.6740621116478 23.297172740101814,150.88776637450792 22.81068059336394,154.43844744330272 23.053926666267216,160.06034860108048 22.56743451859802,163.6110163643025 23.540418814867735,166.5699022328481 24.99989525973797,168.64112021238543 29.135078518651426,170.71233643963933 34.0,171.60000000009313 38.37842933367938,171.30411218269728 39.35141362901777,169.52878452418372 42.02712044399232,167.1616789775435 42.27036651875824,163.01923876185901 42.27036651875824,160.35623777890578 43.24335081502795,155.32611690624617 45.18931940756738,150.29598569567315 45.43256548140198,146.1535169382114 45.919057629071176,142.89871513913386 45.67581155523658,138.75623386260122 45.919057629071176,135.7973143735435 44.70282725803554,132.5424988034647 40.56764399912208,129.879464663798 36.91895288974047,128.99178597261198 33.270261778496206,128.99178597261198 29.378324592486024,130.4712502779439 26.7026177784428,132.24660626379773 25.486387407407165,136.38909855671227 23.783664888702333,141.12336687929928 23.783664888702333,144.08227993012406 23.540418814867735,146.74529861821793 22.81068059336394,150.88776637450792 23.053926666267216,154.73433729959652 22.81068059336394,157.69323389837518 23.053926666267216,162.72334990650415 24.02691096253693,165.09045974630862 26.459371704608202,167.1616789775435 31.081047111190856,171.00822432967834 34.972984296269715,171.00822432967834 38.62167540658265,169.82467255694792 40.810890073888004,168.64112021238543 43.48659688886255,165.38634831481613 44.216335110366344,162.72334990650415 43.973089036531746,158.58090218016878 44.459581185132265,153.8466676226817 45.43256548140198,150.88776637450792 46.162303702905774,147.33708015549928 46.162303702905774,143.7863887862768 46.405549777671695,139.64390901243314 45.919057629071176,135.7973143735435 43.72984296362847,132.5424988034647 41.054136148653924,130.4712502779439 36.91895288974047,128.4000000001397 33.270261778496206,128.99178597261198 29.864816741086543,130.4712502779439 26.7026177784428,131.95071368920617 24.02691096253693,134.90963782859035 23.297172740101814,140.23569226590917 23.540418814867735,143.7863887862768 23.053926666267216,147.33708015549928 24.51340311113745,150.88776637450792 22.81068059336394,156.50967568787746 22.080942370928824,160.35623777890578 22.81068059336394,164.2027938242536 23.053926666267216,166.27401380729862 26.7026177784428,168.64112021238543 29.621570666320622,170.12056055432186 34.486492147669196,170.71233643963933 37.89193718507886,170.12056055432186 41.054136148653924,168.64112021238543 43.24335081502795,165.68223684746772 43.973089036531746,162.13157208892517 44.94607333280146,158.58090218016878 45.43256548140198,155.0302271207329 45.67581155523658,151.77543712500483 46.162303702905774,148.81653337273747 46.405549777671695,145.26584414974786 46.89204192534089,139.3480173314456 46.405549777671695,135.7973143735435 44.70282725803554,133.13428377383389 41.54062829632312,130.4712502779439 38.864921481348574,129.2876789055299 34.0,128.69589300476946 31.081047111190856,129.58357180282474 28.40534029621631,130.76714303181507 25.97287955507636,133.13428377383389 24.99989525973797,134.31785328662954 24.27015703730285,135.7973143735435 25.486387407407165,139.3480173314456 25.243141333572567,140.82747537712567 24.756649184972048,144.9699531486258 23.297172740101814,149.1124239093624 22.56743451859802,152.3672174452804 22.080942370928824,157.39734439994209 21.10795807465911,159.46857014065608 21.837696296162903,160.94801602489315 23.297172740101814,163.90690511232242 25.97287955507636,165.68223684746772 28.40534029621631,168.93700835271738 31.56753925886005,169.82467255694792 32.78376962989569,170.41644851467572" stroke="#4DD2FF" stroke-dasharray="none" stroke-linecap="round" stroke-linejoin="round" stroke-width="0.5"><title>2013-11-03 10.7km</title><desc>9223370653417861807</desc></polyline><polyline fill="none" opacity="1" points="105.09032951015979,169.5840174248442 106.74764609336853,167.28003524802625 107.93144365400076,163.24806107999757 109.58876023907214,160.0800765901804 109.82551975175738,155.7600909504108 109.58876023907214,152.01609706040472 110.77255779877305,148.27209728653543 111.48283633589745,145.39209345774725 111.71959584765136,142.5120861462783 111.9563553603366,138.48007006268017 111.48283633589745,133.2960393568501 109.35200072731823,129.84001261997037 106.98440560605377,129.2640076763928 103.90653194859624,130.41601742454804 100.35513926763088,130.12801503995433 97.51402512192726,130.41601742454804 94.67291097715497,132.14403100241907 92.77883488032967,135.3120526385028 91.35827780794352,138.1920686531812 91.59503732062876,143.37608870584518 90.88475878350437,145.96809450211003 90.1744802473113,149.712097896263 89.46420171111822,153.4560954067856 88.51716366223991,155.7600909504108 88.28040415141732,159.2160800890997 88.28040415141732,162.96006266516633 89.70096122287214,167.28003524802625 92.77883488032967,169.5840174248442 97.27726561017334,171.31200259411708 100.59189877938479,171.60000000009313 104.3800509730354,170.16001262003556 107.69468414224684,167.28003524802625 108.16820316575468,162.6720642137807 110.29903877526522,158.06408426584676 110.53579828795046,154.60809345706366 110.53579828795046,151.44009747868404 110.77255779877305,147.1200961722061 111.00931731145829,142.80008703446947 112.19311487209052,139.0560727783013 112.42987438477576,135.3120526385028 110.29903877526522,132.7200352489017 108.87848170287907,130.41601742454804 105.80060804635286,128.9760051521007 102.01245585177094,128.4000000001397 98.22430365905166,129.2640076763928 94.90967048984021,129.84001261997037 89.70096122287214,133.8720433257986 88.99068268761039,135.0240508459974 88.99068268761039,136.46405946207233 90.1744802473113,139.63207535468973 89.93772073462605,143.66408948926255 88.51716366223991,147.69609680003487 88.51716366223991,150.57609784416854 87.57012561522424,154.32009399705566 87.57012561522424,157.48808614653535 87.80688512697816,160.65607408294454 87.57012561522424,163.5360594613012 89.22744219843298,166.7040393569041 91.35827780794352,169.00802208902314 94.19939195271581,169.87201503990218 97.9875441454351,169.5840174248442 102.01245585177094,168.72002436965704 106.51088658254594,166.99203731981106 108.40496267937124,164.4000543965958 110.29903877526522,160.65607408294454 109.82551975175738,156.62408870481886 110.29903877526522,152.59209650335833 110.53579828795046,149.13609775714576 110.77255779877305,145.39209345774725 111.00931731145829,141.93608426721767 112.19311487209052,139.34407408325933 111.9563553603366,135.3120526385028 109.35200072731823,132.7200352489017 106.74764609336853,130.70401977421716" stroke="#4DD2FF" stroke-dasharray="none" stroke-linecap="round" stroke-linejoin="round" stroke-width="0.5"><title>2013-11-02 10.5km</title><desc>9223370653505000807</desc></polyline><polyline fill="none" opacity="1" points="176.87615060433745,142.4400916469749 176.2102638334036,139.20007833116688 175.54437706060708,134.88005326571874 173.32475448958576,131.1000244792085 172.21494320314378,130.29001747770235 168.88550934474915,128.94000515691005 166.2219622572884,128.94000515691005 162.6705661425367,130.56001984444447 159.78505679685622,132.45003549358808 157.5654342258349,135.15005507646129 156.01169842481613,138.12007284793071 156.45562293939292,142.98009340977296 156.67758519575,145.68010026379488 156.23366068210453,149.19010429433547 156.01169842481613,151.35010403278284 156.01169842481613,152.97010246641003 155.56777391023934,155.67009724397212 155.12384939659387,158.6400877290871 156.23366068210453,162.15007139416412 157.5654342258349,164.85005507571623 160.67290582694113,167.0100396713242 164.22430194169283,168.3600289823953 167.7756980592385,168.3600289823953 169.77335837297142,167.82003335561603 172.65886771772057,165.66004954348318 174.6565280323848,162.96006684168242 175.54437706060708,159.18008557590656 175.54437706060708,155.94009654247202 175.7663393188268,152.70010280935094 175.54437706060708,149.46010437584482 175.54437706060708,146.49010168295354 176.43222609069198,142.98009340977296 176.87615060433745,140.01008210144937 176.43222609069198,137.31006839242764 175.32241480425,134.34004954481497 173.99064126145095,132.72003759886138 170.4392451448366,130.56001984444447 167.7756980592385,128.4000000001397 165.3341132281348,129.48001018329524 162.0046793706715,130.8300221778918 159.78505679685622,132.45003549358808 158.67524551134557,135.69005860155448 158.2313209977001,138.12007284793071 157.7873964831233,141.63008875912055 156.45562293939292,144.33009724435396 156.01169842481613,146.76010209089145 156.23366068210453,150.81010429398157 157.7873964831233,154.32010026299395 154.90188713837415,155.13009854895063 155.12384939659387,156.21009580790997 154.45796262472868,157.56009164638817 154.90188713837415,163.23006525845267 160.22898131329566,166.20004569296725 165.77803774364293,167.55003549298272 167.1098112873733,167.55003549298272 169.10747160110623,167.55003549298272 171.77101868763566,168.3600289823953 173.99064126145095,164.0400603134185 174.6565280323848,162.96006684168242 174.8784902896732,160.5300796192605 175.54437706060708,159.18008557590656 173.54671674594283,158.91008666879497 174.8784902896732,158.10008975397795 176.2102638334036,155.94009654247202 175.9883015761152,150.81010429398157 176.2102638334036,149.46010437584482 175.7663393188268,146.2201012421865 176.2102638334036,142.1700907170307 175.7663393188268,136.7700652598869 175.32241480425,133.26004171161912 173.54671674594283,129.75001264712773 169.55139611661434,129.48001018329524 165.77803774364293,129.21000768686645 162.6705661425367,130.56001984444447 159.78505679685622,132.72003759886138 156.67758519575,133.26004171161912 156.45562293939292,137.58006991050206 156.23366068210453,140.55008445074782 156.01169842481613,144.0600965428166 154.90188713837415,147.57010311936028 155.34581165295094,151.62010385282338 155.12384939659387,155.13009854895063 154.90188713837415,159.18008557590656 154.90188713837415,161.61007426702417 158.45328325405717,165.66004954348318 164.00233968626708,168.63002674723975 166.44392451550812,169.98001507879235 169.32943385839462,171.60000000009313 173.32475448958576,167.82003335561603 175.1004525469616,162.69006839231588 175.54437706060708,159.7200832911767 175.54437706060708,158.6400877290871 175.1004525469616,153.24010209064 174.8784902896732,148.92010417976417 175.32241480425,146.2201012421865 175.54437706060708,142.98009340977296 177.09811286255717,138.93007700890303 175.7663393188268,135.96006031497382 174.43456577509642,134.34004954481497 172.88082997407764,130.8300221778918 170.21728288847953,130.02001507859677 166.0,129.75001264712773 162.0046793706715,130.56001984444447 159.78505679685622,130.8300221778918 156.89954745396972,132.72003759886138 154.90188713837415,135.69005860155448 154.67992488108575,138.39007426798344 155.34581165295094,139.7400808769744 154.23600036650896,142.71009254432283 154.67992488108575,145.95010076928884 154.90188713837415,147.57010311936028 154.45796262472868,150.27010442432947 154.90188713837415,153.78010124200955 154.67992488108575,157.02009340864606 154.90188713837415,161.34007565444335 157.5654342258349,166.20004569296725 161.7827171124518,168.63002674723975 163.11449065618217,168.3600289823953 166.0,169.98001507879235 167.99766031466424,169.1700221770443 171.1051319167018,171.33000259427354 173.32475448958576,168.63002674723975 174.8784902896732,162.42006990942173 173.99064126145095,158.37008875748143 175.1004525469616,151.35010403278284 174.8784902896732,147.0301024664659 174.8784902896732,145.68010026379488 176.43222609069198,142.98009340977296 177.76399963349104,140.82008557626978 177.09811286255717,136.7700652598869 175.32241480425,132.1800333559513 173.10279223136604,129.75001264712773 169.9953206302598,128.6700025945902 166.0,128.94000515691005 161.1168303405866,130.56001984444447 157.1215097112581,132.1800333559513 156.67758519575,133.53004371840507 155.56777391023934,134.61005142168142 155.78973616752774,137.04006684245542 156.01169842481613,138.6600756549742 156.23366068210453,142.1700907170307 156.23366068210453,143.5200950417202 156.23366068210453,147.84010339644738 156.01169842481613,149.19010429433547 155.12384939659387,151.62010385282338 155.78973616752774,155.13009854895063 154.90188713837415,156.21009580790997 155.12384939659387,161.07007700833492 156.23366068210453,162.15007139416412 156.23366068210453,163.50006364332512 158.45328325405717,165.66004954348318 162.6705661425367,168.63002674723975 167.1098112873733,170.52001018356532 170.4392451448366,169.710017477395 171.99298094585538,168.09003118495457 175.32241480425,163.77006199466996 174.8784902896732,159.18008557590656 174.43456577509642,152.97010246641003 176.2102638334036,152.1601033960469 176.65418834704906,147.3001028096769 176.87615060433745,146.49010168295354 175.9883015761152,142.71009254432283 176.87615060433745,138.93007700890303 175.54437706060708,134.34004954481497 173.54671674594283,132.1800333559513 172.21494320314378,128.94000515691005 166.2219622572884,129.21000768686645 162.0046793706715,130.02001507859677 159.34113228321075,132.1800333559513 157.3434719676152,134.34004954481497 156.23366068210453,136.50006364448927 156.89954745396972,138.39007426798344 157.1215097112581,140.01008210144937 156.89954745396972,143.5200950417202" stroke="#4DD2FF" stroke-dasharray="none" stroke-linecap="round" stroke-linejoin="round" stroke-width="0.5"><title>2013-10-26 11.1km</title><desc>9223370654110301807</desc></polyline><polyline fill="none" opacity="1" points="43.462592341937125,206.52639954793267 44.163525108247995,202.26325324806385 44.63081361912191,199.13694104878232 43.92988085281104,197.14746748516336 44.39716936275363,193.1685153071303 44.163525108247995,191.17903669271618 43.462592341937125,189.75797950988635 43.22894808650017,187.76849800907075 42.5280153201893,183.78952995873988 41.126149787567556,180.3789805562701 36.9205531924963,178.67370399925858 33.649533617310226,178.10527820512652 29.67758127581328,180.66319319489412 27.574782977811992,181.51583090610802 25.00469616893679,184.3579543782398 23.135542125441134,187.76849800907075 24.537407658062875,190.32640248560347 25.238340423442423,193.1685153071303 25.238340423442423,196.86325683817267 24.30376340262592,199.9895720607601 23.836474891752005,203.68430287321098 23.602830636315048,206.81060902611353 24.537407658062875,208.23165590292774 23.836474891752005,212.77900013769977 25.939273189753294,215.62108581862412 28.275715744122863,217.89475188939832 31.079446808435023,218.46316806343384 34.350466382689774,217.89475188939832 38.32241872418672,216.18950254260562 41.59343829937279,213.91583482245915 42.5280153201893,209.93691102182493 42.29437106475234,206.52639954793267 42.76165957655758,202.26325324806385 42.76165957655758,198.85273064253852 42.76165957655758,195.1579922370147 44.163525108247995,191.4632480267901 45.79903489537537,189.18955639493652 46.7336119171232,186.63165068160743 46.49996766075492,184.07374218595214 44.163525108247995,181.23161837016232 41.126149787567556,179.81055517448112 38.08877446874976,177.25263925665058 34.81775489449501,176.4000000001397 31.313091062940657,177.82106525660492 28.509359998628497,180.09476788225584 25.939273189753294,182.6526807071641 25.471984679810703,185.77901482582092 25.471984679810703,189.4737679695245 25.00469616893679,192.60009301709943 24.537407658062875,196.86325683817267 21.733676593750715,199.9895720607601 22.20096510462463,203.68430287321098 21.967320849187672,207.94744659680873 22.434609359130263,211.07374708005227 22.434609359130263,213.91583482245915 24.537407658062875,216.75791912851855 27.574782977811992,219.0315841003321 30.845802552998066,219.60000000009313 34.81775489449501,219.0315841003321 37.38784170243889,217.610543750925 41.126149787567556,215.90529419737868 42.060726810246706,213.6316262029577 43.69623659737408,210.22112008789554 44.163525108247995,206.81060902611353 44.163525108247995,203.1158831268549 44.63081361912191,199.70536175812595 45.33174638450146,195.4422030900605 45.565390639938414,192.0316705906298 46.03267915081233,189.18955639493652 45.79903489537537,185.49480280443095 44.864457874558866,181.80004340759479 42.76165957655758,179.24212965508923 39.72428425680846,178.10527820512652 36.21962042618543,177.53685227409005 32.7149565955624,177.53685227409005 29.443937021307647,178.95791684417054 25.939273189753294,181.23161837016232 24.537407658062875,184.07374218595214 25.238340423442423,188.33692146651447 23.836474891752005,191.74745932617225 23.602830636315048,194.58957042940892 23.602830636315048,198.28430972713977 21.967320849187672,201.69483315735124 22.434609359130263,206.52639954793267 22.20096510462463,209.3684927856084 23.602830636315048,212.21058258996345 24.537407658062875,215.90529419737868 25.471984679810703,217.610543750925 31.079446808435023,219.0315841003321 35.051399149000645,218.46316806343384 37.62148595787585,216.18950254260562 41.82708255387843,212.77900013769977 43.462592341937125,211.9263737637084 44.163525108247995,209.08428361662664 43.69623659737408,205.95798048726283 43.69623659737408,202.26325324806385 43.69623659737408,199.13694104878232 44.163525108247995,195.72641390911303 45.565390639938414,192.31588182109408 45.79903489537537,189.18955639493652 45.79903489537537,186.34743876405992 45.79903489537537,183.78952995873988 43.462592341937125,181.23161837016232 41.59343829937279,178.10527820512652 38.08877446874976,176.96842620545067 33.88317787181586,178.10527820512652 29.91122553125024,180.09476788225584 27.574782977811992,183.22110540163703 25.471984679810703,186.34743876405992 24.07011914718896,188.33692146651447 23.836474891752005,192.0316705906298 22.9018978709355,195.4422030900605 22.434609359130263,199.13694104878232 23.135542125441134,202.26325324806385 21.733676593750715,205.38956129038706 21.2663880828768,208.51586517505348 22.434609359130263,213.6316262029577 24.537407658062875,215.90529419737868 26.873850212432444,217.89475188939832 28.97664850950241,219.31579206697643 33.18224510550499,219.60000000009313" stroke="#4DD2FF" stroke-dasharray="none" stroke-linecap="round" stroke-linejoin="round" stroke-width="0.5"><title>2013-10-20 10.7km</title><desc>9223370654628121807</desc></polyline><polyline fill="none" opacity="1" points="86.71019157581031,203.84160563116893 86.71019157581031,207.37366914795712 87.3802659502253,210.36233394150622 89.83720532245934,213.0792984876316 92.51750282011926,214.9811717160046 95.42115844320506,217.42643493087962 99.21824656426907,217.6981306800153 102.56861843541265,217.42643493087962 106.14234843291342,216.06795569579117 109.26936217956245,213.8943872116506 110.83286905195564,211.17742365039885 111.05622717738152,208.18875993951224 111.50294342730194,205.20009225560352 111.94965967629105,201.1246299177874 112.61973405070603,198.13595284009352 113.06645030062646,195.41897022980265 113.28980842512101,192.70198433613405 112.84309217520058,188.89819856663235 112.61973405070603,186.1812047897838 110.38615280296654,182.92080792272463 108.82264592964202,179.6604063261766 105.91899030748755,177.75850321003236 102.79197656083852,176.67170070740394 99.88832093775272,176.67170070740394 96.31459094118327,177.48680263385177 92.96421907003969,179.6604063261766 90.50727969687432,182.92080792272463 89.61384719889611,185.90950523177162 89.61384719889611,188.89819856663235 88.94377282448113,192.15858676331118 88.72041469905525,196.23406535829417 87.60362407565117,199.49444291344844 88.05034032464027,202.4831181843765 86.93354970123619,206.2868809637148 89.39048907347023,208.73215363710187 90.28392157331109,211.9925130638294 92.07078657113016,215.52456377237104 94.30436781886965,217.42643493087962 97.8780978154391,218.7849133447744 101.67518593650311,219.60000000009313 104.57884155865759,217.96982639585622 107.03578093089163,215.25286776060238 109.04600405413657,212.8076021813322 110.60951092839241,209.81894063809887 110.38615280296654,207.64536611060612 111.05622717738152,204.65669770352542 111.27958530280739,201.6680253231898 111.50294342730194,198.67934896820225 112.1730178007856,196.23406535829417 112.61973405070603,191.88688792707399 112.61973405070603,188.62649933667853 111.27958530280739,183.19250784208998 109.492720304057,179.6604063261766 106.58906468190253,178.03020375361666 102.12190218642354,176.4000000001397 98.54817218892276,176.67170070740394 95.64451656676829,178.03020375361666 92.51750282011926,179.9321066394914 90.95399594679475,183.19250784208998 90.7306378223002,186.72460380778648 90.28392157331109,191.07179122348316 89.61384719889611,195.69066863902844 86.93354970123619,198.40765092079528" stroke="#4DD2FF" stroke-dasharray="none" stroke-linecap="round" stroke-linejoin="round" stroke-width="0.5"><title>2013-10-19 10.2km</title><desc>9223370654714312807</desc></polyline><polyline fill="none" opacity="1" points="154.3987797005102,210.38406572700478 154.87229889724404,213.26404901687056 157.23989487532526,215.856031000847 161.5015676394105,217.87201503897086 165.0529616093263,219.60000000009313 168.36759597994387,218.16001261910424 171.20871115475893,216.14402882475406 174.049826329574,213.55204715393484 174.76010512374341,210.38406572700478 175.70714351627976,206.06408426584676 175.23362432047725,202.03209450119175 175.47038391791284,197.71209789603017 175.70714351627976,194.83209580741823 176.41742231044918,190.8000870347023 177.36446070112288,187.05607277853414 175.94390311371535,183.0240508459974 174.76010512374341,180.14403100172058 171.20871115475893,177.55201016599312 167.18379798997194,176.39999999990687 163.39564442262053,177.55201016599312 160.31776964943856,179.2800243704114 158.66045246366411,182.44804715528153 157.4766544746235,185.32806421420537 157.23989487532526,187.92007659026422 156.76637568045408,191.6640894880984 155.81933728791773,195.12009617267177 155.1090584937483,198.28809789568186 154.87229889724404,201.45609540655278 154.87229889724404,205.48808614583686 155.34581809211522,209.23207143694162 157.00313527788967,212.97605084488168 158.1869332678616,214.99203731981106 161.028048443608,218.16001261910424 164.57944241166115,218.16001261910424 167.42055758740753,218.73600767576136 170.73519195895642,217.29601977346465 173.33954753633589,215.56803314224817 174.99686472211033,212.11205611890182 175.47038391791284,207.79207779001445 175.70714351627976,203.18409227347001 175.70714351627976,200.30409679887816 175.70714351627976,196.84809763496742 176.65418190788478,193.9680945011787 177.36446070112288,190.51208614674397 177.1277011046186,186.19206865271553 174.99686472211033,180.14403100172058 172.3925091456622,178.12801503925584 167.65731718577445,176.68800259334967 164.81620201002806,176.97600515233353 161.97508683428168,179.56802661530674 159.37073125783354,181.58404135890305 158.66045246366411,184.4640594618395 157.23989487532526,189.07208118587732 155.81933728791773,193.39209345704876 155.81933728791773,196.84809763496742 154.3987797005102,200.30409679887816 154.6355392979458,204.04809023649432 154.87229889724404,207.2160800884012 154.3987797005102,210.67206421284936 156.29285648372024,214.70403935597278 158.89721206203103,217.29601977346465 161.5015676394105,217.5840174241457 166.4735191958025,218.16001261910424 169.31463437061757,216.72002436965704 172.3925091456622,214.12804332445376 173.33954753633589,211.53605946153402 174.52334552630782,207.79207779001445 175.94390311371535,204.33608948858455 177.1277011046186,201.1680958061479 177.6012202994898,197.13609775644727 177.1277011046186,192.52809162973426 177.1277011046186,188.20807779114693 176.18066271208227,184.75206108111888 174.76010512374341,180.14403100172058 171.91898994892836,178.12801503925584 168.84111517574638,177.26400767685845 164.81620201002806,176.97600515233353 161.5015676394105,178.99202208942734 158.66045246366411,181.58404135890305 157.23989487532526,184.176057808334 157.9501736694947,187.63207535399124 156.76637568045408,192.24009095085785 157.23989487532526,196.27209728676826 156.76637568045408,200.01609705970623 155.81933728791773,203.47209162893705 156.05609688628465,207.5040789565537 155.34581809211522,210.0960672076326 156.52961608115584,212.68805263726972 157.9501736694947,215.856031000847 161.7383272368461,217.87201503897086" stroke="#4DD2FF" stroke-dasharray="none" stroke-linecap="round" stroke-linejoin="round" stroke-width="0.5"><title>2013-10-12 10.6km</title><desc>9223370655320152807</desc></polyline><polyline fill="none" opacity="1" points="43.516802191734314,243.8824518530164 44.44527069851756,242.18833205639385 45.141622078604996,237.38831929140724 44.677387826144695,234.28242342267185 43.284685065969825,231.45887813949957 42.58833368588239,228.63532944396138 42.58833368588239,226.65884332591668 41.19563092570752,227.2235538160894 38.64234253298491,225.81177733442746 34.00000000093132,224.4000000001397 30.98247735388577,225.2470665036235 27.96495470777154,226.65884332591668 26.34013482183218,230.6118138891179 25.411666315048933,234.0000690475572 25.643783441744745,236.25890308944508 24.251080681569874,240.77656461950392 24.251080681569874,243.31774539034814 23.55472930241376,247.83539326884784 24.251080681569874,250.94127111579292 24.483197808265686,255.17655243445188 24.018963554874063,258.8471233653836 22.858377922326326,262.51768852747045 24.94743206165731,263.3647412073333 28.42918896023184,265.6235468534287 31.678828733973205,267.60000000009313 34.696351380087435,267.60000000009313 38.874459659680724,265.90589740499854 41.42774805333465,263.92944282409735 43.748919318430126,260.8235822466668 44.677387826144695,257.1530144221615 44.90950495097786,252.63538456475362 43.748919318430126,248.96480387263 43.98103644605726,243.8824518530164 45.141622078604996,239.92950374865904 45.37373920623213,236.82361125876196 46.30220771115273,234.0000690475572 45.60585633199662,231.74123282171786 43.05256793834269,228.07061929488555 38.874459659680724,226.65884332591668 35.39270276017487,225.81177733442746 32.60729724075645,225.81177733442746 30.286125973798335,226.94119858834893 26.34013482183218,228.91768446774222 24.94743206165731,231.74123282171786 24.018963554874063,235.12948634149507 24.251080681569874,239.0824425695464 24.251080681569874,242.47068544104695 24.483197808265686,245.57657042192295 24.251080681569874,249.24715643795207 22.626260795630515,251.78832799429074 21.92990941554308,254.61184870218858 21.697792288847268,257.435365997022 22.626260795630515,260.25887987948954 23.78684642817825,262.51768852747045 25.411666315048933,265.34119626670144 28.42918896023184,266.75294885598123 31.678828733973205,266.75294885598123 36.55328839365393,267.60000000009313 39.57081103976816,264.7764949919656 41.42774805333465,262.2353375663515 43.748919318430126,258.56477195979096 43.98103644605726,254.61184870218858 43.98103644605726,251.22362344292924 45.141622078604996,247.55304053192958 45.83797345869243,244.16480503370985 45.60585633199662,241.05891817482188 45.60585633199662,238.5177349471487 46.07009058445692,235.12948634149507 45.37373920623213,232.30594208301045 44.44527069851756,229.76474933186546 43.05256793834269,226.94119858834893 40.03504529315978,225.2470665036235 36.55328839365393,225.2470665036235 32.60729724075645,225.2470665036235 28.89342321548611,225.81177733442746 26.804369075223804,228.07061929488555 24.483197808265686,231.74123282171786 24.94743206165731,234.28242342267185 24.94743206165731,237.6706732562743 23.55472930241376,242.18833205639385 23.55472930241376,246.14127633837052 24.251080681569874,247.55304053192958 23.32261217571795,251.22362344292924 22.626260795630515,253.2000887747854 23.090495048090816,256.588311167201 23.78684642817825,259.6941773761064 24.251080681569874,262.80003945552744 25.875900567509234,265.34119626670144 27.73283758200705,266.4705984070897 34.00000000093132,266.4705984070897 38.17810827959329,266.4705984070897 40.267162419855595,265.34119626670144 43.98103644605726,261.95298657077365 43.284685065969825,257.1530144221615 43.05256793834269,252.63538456475362 44.21315357182175,249.81186146754771 43.05256793834269,246.14127633837052 44.44527069851756,243.8824518530164 45.37373920623213,241.9059786372818" stroke="#4DD2FF" stroke-dasharray="none" stroke-linecap="round" stroke-linejoin="round" stroke-width="0.5"><title>2013-10-06 10.6km</title><desc>9223370655838244807</desc></polyline><polyline fill="none" opacity="1" points="88.84498587623239,255.69238901790231 88.16202582698315,258.46160639775917 89.0726392250508,261.50774164893664 90.43855932168663,263.1692682597786 93.39805286563933,265.9384766018484 95.67458635941148,267.3230795171112 97.95111985504627,267.60000000009313 102.27653349470347,266.49231786769815 106.14664043672383,264.5538728488609 108.65082728024572,260.4000565716997 109.78909402806312,256.800076372223 110.01674737781286,253.47701270505786 110.47205407731235,250.4308667758014 111.61032082512975,247.3847167957574 110.92736077588052,243.78471614304 110.92736077588052,240.46163359680213 111.61032082512975,237.41547036124393 111.83797417394817,234.64622754161246 111.61032082512975,231.8769813736435 109.5614406792447,230.21543206600472 107.96786723192781,228.00003111502156 105.23602703865618,226.89232983626425 102.27653349470347,227.44618054293096 97.72346650529653,228.00003111502156 95.44693301152438,228.55388155416586 93.8533595642075,230.21543206600472 93.62570621352643,231.8769813736435 92.71509281732142,234.64622754161246 92.48743946664035,237.69239445892163 91.80447941832244,241.84625191055238 91.12151937000453,244.89240925433114 91.80447941832244,248.49240816570818 90.89386602025479,251.5385566733312 90.43855932168663,255.1385451410897 89.5279459245503,257.90776318963617 89.5279459245503,259.84621383203194 90.43855932168663,262.8923472412862 92.03213276807219,265.10771445115097 96.12989305891097,266.21539725130424 99.31703995261341,267.0461590006016 102.27653349470347,266.21539725130424 105.23602703865618,265.9384766018484 107.2849071836099,263.7231101959478 108.65082728024572,261.50774164893664 109.5614406792447,257.6308415350504 109.33378732949495,254.58470112946816 110.2444007275626,250.7077893000096 110.2444007275626,247.1077938694507 110.01674737781286,243.50779278133996 109.78909402806312,238.80009051598608 110.2444007275626,235.47700073826127 110.92736077588052,234.09237857535481 110.2444007275626,231.32313173846342 107.96786723192781,228.83080672309734 105.00837368983775,226.06155352527276 102.9594935439527,225.23077691416256 99.77234665118158,225.78462802176364 96.35754640772939,225.78462802176364 94.5363196125254,226.61540443263948 93.39805286563933,229.66158202895895 91.80447941832244,232.4308308751788 91.57682606950402,235.47700073826127 90.89386602025479,239.07701444602571 90.2109059728682,242.95394595898688 89.7555992724374,245.4462556091603 89.0726392250508,248.49240816570818 89.0726392250508,251.81547906342894 88.16202582698315,255.1385451410897 87.70671912748367,257.6308415350504 87.93437247723341,260.67697789077647 89.0726392250508,263.1692682597786 92.03213276807219,265.6615559179336 95.67458635941148,266.49231786769815 99.77234665118158,266.76923845126294 103.41480024252087,266.21539725130424 105.91898708697408,264.2769519982394 108.65082728024572,262.0615839860402 109.78909402806312,257.90776318963617 110.2444007275626,255.1385451410897 110.69970742613077,252.09240142116323 110.92736077588052,249.3231763425283 111.38266747444868,245.4462556091603 111.61032082512975,243.23086938657798 111.83797417394817,240.18470983416773 112.06562752369791,237.41547036124393 112.29328087251633,234.36930307536386 111.61032082512975,231.6000565723516 110.47205407731235,229.1077318591997 108.19552058167756,226.61540443263948 105.69133373815566,225.23077691416256 102.9594935439527,224.4000000001397 100.68296004924923,224.95385130867362 96.81285310722888,225.50770248449408 94.08101291395724,227.16925520659424 92.71509281732142,230.76928196917288 91.12151937000453,235.20007637282833 90.2109059728682,237.9693185237702 89.98325262311846,240.18470983416773 89.7555992724374,243.23086938657798 89.98325262311846,246.27702489006333 90.2109059728682,249.6000990010798 89.98325262311846,252.64624603441916 89.7555992724374,255.96931090718135 90.2109059728682,259.2923709584866 91.57682606950402,262.3385051051155 94.08101291395724,264.00003111432306 96.81285310722888,266.76923845126294 100.68296004924923,266.76923845126294 102.9594935439527,266.49231786769815 106.37429378647357,264.83079366665334 108.4231739314273,262.8923472412862 109.5614406792447,259.56929241190664 110.01674737781286,256.800076372223 110.92736077588052,253.75393486046232 110.92736077588052,250.4308667758014 111.61032082512975,247.6616396890022 111.61032082512975,244.61548602650873 111.38266747444868,241.56932831485756 112.52093422133476,237.9693185237702 111.61032082512975,235.20007637282833 110.69970742613077,231.8769813736435 110.01674737781286,229.3846569606103 107.51256053335965,227.72310584550723 104.32541364058852,226.06155352527276 101.36592009756714,226.61540443263948 97.26815980672836,226.89232983626425 94.30866626370698,228.83080672309734 92.94274616613984,230.76928196917288 90.89386602025479,234.09237857535481 90.43855932168663,236.30777363479137 89.5279459245503,239.90778603730723 89.7555992724374,242.95394595898688 88.61733252555132,246.00010183011182 88.61733252555132,249.3231763425283 87.93437247723341,252.64624603441916 87.47906577866524,255.96931090718135 88.16202582698315,259.2923709584866 89.30029257386923,262.3385051051155 92.71509281732142,264.2769519982394 96.35754640772939,265.9384766018484 98.8617332521826,265.38463520118967 102.27653349470347,264.5538728488609 104.78072033915669,261.7846628341358 107.96786723192781,259.84621383203194 109.5614406792447,257.35391984693706 110.2444007275626,255.1385451410897 110.47205407731235,251.81547906342894 110.92736077588052,248.49240816570818 111.15501412469894,246.00010183011182 111.61032082512975,242.12317547295243 111.15501412469894,239.35393834323622 111.38266747444868,235.20007637282833 111.61032082512975,231.8769813736435 110.92736077588052,229.9385070647113 109.10613397974521,228.55388155416586 105.91898708697408,226.61540443263948 102.73184019327164,226.06155352527276" stroke="#4DD2FF" stroke-dasharray="none" stroke-linecap="round" stroke-linejoin="round" stroke-width="0.5"><title>2013-09-29 10.5km</title><desc>9223370656443428807</desc></polyline><polyline fill="none" opacity="1" points="158.35776443313807,242.7190880975686 157.6834495300427,245.72668539732695 157.00913462694734,248.46086128987372 156.33481972385198,251.7418679993134 156.33481972385198,255.29628656315617 156.33481972385198,258.57728335657157 157.6834495300427,261.8582753909286 160.38070914242417,263.22535400046036 163.752283657901,265.13926266669296 166.89908653870225,265.13926266669296 169.37157451640815,264.0456007702742 172.29360576253384,263.22535400046036 174.31655047181994,261.0380278278608 175.66518027801067,258.3038671386894 176.5642668157816,255.29628656315617 176.5642668157816,251.7418679993134 176.5642668157816,248.73427869705483 177.23858171794564,246.00010313582607 177.23858171794564,242.17225179541856 178.36243989039212,238.8912312053144 177.68812498729676,237.25071912514977 176.78903844952583,234.51652968092822 175.66518027801067,230.68865890661255 173.86700720340014,227.95446153078228 171.39451922569424,225.49368106527254 170.0458894195035,225.76710125035606 166.00000000093132,224.94684059894644 163.30274038854986,226.5873616025783 160.83025241084397,228.22788141667843 159.7063942393288,232.055756355403 158.35776443313807,233.6962722032331 157.6834495300427,238.6178126083687 157.00913462694734,240.80516046099365 156.78436299227178,244.9064319843892 156.78436299227178,247.09377375710756 156.55959135852754,249.28111341316253 156.55959135852754,253.38236956926994 155.2109615523368,255.56970314332284 155.6605048207566,261.0380278278608 156.55959135852754,263.4987696236931 161.95411058235914,265.4126780577935 164.2018269263208,265.95950874197297 167.5734014417976,265.95950874197297 171.61929085943848,264.86584724183194 174.5413221064955,262.1316911787726 176.5642668157816,258.0304508882109 177.23858171794564,253.65578638156876 175.66518027801067,250.92161676776595 174.09177883714437,249.55453072185628 175.88995191268623,245.17984982184134 177.4633533526212,239.98490526387468 177.91289662197232,238.07097531366162 177.23858171794564,235.06336783478037 178.36243989039212,231.235497985268 175.66518027801067,228.50130126997828 172.9679206656292,225.49368106527254 171.16974759101868,224.94684059894644 165.77522836625576,225.49368106527254 164.2018269263208,225.76710125035606 161.27979567926377,228.22788141667843 158.80730770155787,230.41523931804113 158.1329927984625,232.87601442844607 157.6834495300427,236.43046263838187 156.55959135852754,241.07857879367657 157.00913462694734,244.35959621169604 157.23390626069158,246.54693851224147 156.55959135852754,250.92161676776595 157.00913462694734,254.20261990698054 155.6605048207566,258.3038671386894 156.33481972385198,261.5848595700227 156.55959135852754,263.4987696236931 160.38070914242417,264.86584724183194 163.97705529164523,267.3265848727897 166.22477163467556,266.77975451922975 169.14680288173258,265.95950874197297 172.0688341287896,264.86584724183194 174.9908653749153,261.5848595700227 175.21563700959086,259.3975318111479 175.88995191268623,256.66336913825944 176.78903844952583,253.92920316033997 177.91289662197232,250.92161676776595 177.0138100842014,247.3671913293656 175.88995191268623,243.53934230282903 176.11472354643047,240.5317420954816 176.5642668157816,237.25071912514977 177.68812498729676,236.43046263838187 178.58721152413636,232.87601442844607 177.23858171794564,230.14181969570927 178.36243989039212,230.41523931804113 177.91289662197232,227.68104161159135 174.76609374023974,226.31394151831046 171.39451922569424,225.22026084875688 168.24771634489298,224.6734203158412 164.2018269263208,225.76710125035606 161.0550240445882,228.22788141667843 158.35776443313807,230.14181969570927 158.1329927984625,233.42285297834314 155.88527645543218,237.25071912514977 154.53664664924145,241.62541536078788 156.11004808917642,241.62541536078788 156.78436299227178,243.2659242679365 156.33481972385198,246.8203561506234 155.6605048207566,250.92161676776595 153.41278847679496,253.10895272321068 155.43573318701237,256.11653620772995 155.6605048207566,258.57728335657157 157.23390626069158,262.9519383441657 159.256850970909,265.4126780577935 161.95411058235914,266.23292403365485 165.77522836625576,266.23292403365485 169.37157451640815,267.60000000009313 172.9679206656292,266.23292403365485 174.09177883714437,264.0456007702742 174.31655047181994,260.49119595531374 175.66518027801067,259.3975318111479 175.88995191268623,255.29628656315617 177.91289662197232,248.73427869705483 177.91289662197232,244.08617827459238 175.88995191268623,241.35199709353037 176.5642668157816,238.07097531366162 177.0138100842014,235.61020585522056 177.4633533526212,232.055756355403 177.23858171794564,230.14181969570927 175.66518027801067,227.1342016728595 172.0688341287896,225.76710125035606 168.69725961331278,224.4000000001397 166.00000000093132,225.76710125035606 163.52751202322543,226.8607816544827 160.38070914242417,229.04814087809063 157.45867789536715,232.055756355403 155.6605048207566,235.61020585522056 156.78436299227178,239.16464976919815 157.00913462694734,243.53934230282903 157.00913462694734,246.8203561506234 156.33481972385198,250.64819962508045 154.761418283917,253.10895272321068 156.33481972385198,256.66336913825944 155.6605048207566,259.3975318111479 156.78436299227178,262.4051069342531 157.6834495300427,264.86584724183194 161.7293389486149,264.31901629362255 164.2018269263208,265.95950874197297 167.5734014417976,265.13926266669296 170.72020432259887,264.592431783909 172.5183773972094,263.4987696236931 174.9908653749153,259.6709478965495 177.23858171794564,257.4836182866711 177.23858171794564,254.20261990698054 177.23858171794564,252.83553584385663 176.5642668157816,251.195033878088 177.68812498729676,247.91402637632564 177.91289662197232,243.53934230282903" stroke="#4DD2FF" stroke-dasharray="none" stroke-linecap="round" stroke-linejoin="round" stroke-width="0.5"><title>2013-09-22 10.9km</title><desc>9223370657048162807</desc></polyline></svg>