<?xml version="1.0" encoding="utf-8" ?>
<svg baseProfile="full" height="300mm" version="1.1" viewBox="0,0,200,300" width="200mm" xmlns="http://www.w3.org/2000/svg" xmlns:ev="http://www.w3.org/2001/xml-events" xmlns:xlink="http://www.w3.org/1999/xlink"><defs /><rect fill="#222222" height="300" width="200" x="0" y="0" /><text fill="#FFFFFF" style="font-size:12px; font-family:Arial; font-weight:bold;" x="10" y="20">Over 10km Runs</text><text fill="#FFFFFF" style="font-size:4px; font-family:Arial" x="10" y="280">Runner</text><text fill="#FFFFFF" style="font-size:9px; font-family:Arial" x="10" y="290">keep</text><text fill="#FFFFFF" style="font-size:4px; font-family:Arial" x="65" y="280">SPECIAL TRACKS</text><rect fill="yellow" height="2.6" width="2.6" x="65" y="283" /><text fill="#FFFFFF" style="font-size:3px; font-family:Arial" x="70" y="285.5">Over 20.0 km</text><rect fill="red" height="2.6" width="2.6" x="65" y="287" /><text fill="#FFFFFF" style="font-size:3px; font-family:Arial" x="70" y="289.5">Over 40.0 km</text><text fill="#FFFFFF" style="font-size:4px; font-family:Arial" x="120" y="280">STATISTICS</text><text fill="#FFFFFF" style="font-size:3px; font-family:Arial" x="120" y="285">Number: 15</text><text fill="#FFFFFF" style="font-size:3px; font-family:Arial" x="120" y="290">Weekly: 1.2</text><text fill="#FFFFFF" style="font-size:3px; font-family:Arial" x="141" y="285">Total: 163.6 km</text><text fill="#FFFFFF" style="font-size:3px; font-family:Arial" x="141" y="290">Avg: 10.9 km</text><text fill="#FFFFFF" style="font-size:3px; font-family:Arial" x="167" y="285">Min: 10.2 km</text><text fill="#FFFFFF" style="font-size:3px; font-family:Arial" x="167" y="290">Max: 14.0 km</text><polyline fill="none" opacity="1" points="26.95372176374076,75.59999999999854 26.893533908121753,75.3835702564902 26.79895299221971,75.24289061360469 26.721568606502842,75.04810301311227 26.644184220727766,74.82085022141837 26.601192895293934,74.55031035379216 26.644184220727766,74.2040180068434 26.678577281039907,73.91183268940222 26.66997901594732,73.59800284305675 26.65278248579125,73.28417178273958 26.66997901594732,72.93787403150782 26.678577281039907,72.63486228665715 26.695773811195977,72.36431512954732 26.695773811195977,72.07212318650272 26.841944317653542,71.88814994174027 27.11708880032529,71.82321810866415 27.2976523671241,71.8015741527488 27.2976523671241,71.62842229767557 27.366438487777486,71.44444804674276 27.366438487777486,71.16307485596917 27.366438487777486,70.83841226937511 27.14288359557395,70.62196982314344 26.910730438306928,70.50292623157293 26.97091829389683,70.08086118117353 26.996713089145487,69.79948326096928 27.05690094473539,69.44234834142844 27.091294005076634,69.09603419073392 27.15148186069564,68.78218571459729 27.177276655944297,68.53327054260444 27.220267981349025,68.28435460679611 27.28905410200241,68.20859743126493 27.306250632187584,68.0029704553599 27.254661041661166,67.91639052007667 27.332045427407138,67.74323037235445 27.392233283026144,67.52677966787451 27.46101940367953,67.24539288860251 27.512608994205948,66.9748277572944 27.615788175200578,66.6285030724539 27.684574295883067,66.34711317724577 27.770556946721626,66.06572230596066 27.92532571821357,65.98996305844776 28.11448755004676,66.07654504983657 28.346640707342885,66.05489956065867 28.595990394765977,65.89255820769176 28.699169575760607,65.67610256501212 28.845340082159964,65.37306369495491 29.000108853681013,65.07002369275142 29.172074155387236,64.76698255843075 29.326842926908284,64.5072321136904 29.473013433307642,64.23665784922923 29.62778220482869,63.95525965678098 29.765354446164565,63.66303742368473 29.96311454309034,63.29505237333797 30.17807117017219,62.92706565356639 30.401626062375726,62.526607620413415 30.599386159301503,62.191087205654185 30.77135146097862,61.89885861676157 30.95191502777743,61.60662897504517 31.13247859448893,61.34686840965878 31.252854305697838,61.1412240387217 31.442016137531027,60.84899166734249 31.648374499520287,60.53511128086393 31.725758885295363,60.24287672569335 31.854732861567754,59.93981755632558 32.0696894886496,59.6584044565534 32.33623570625787,59.46357943089242 32.5597905984323,59.21463566151215 32.697362839768175,58.976514819296426 32.84353334622574,58.80333558584971 32.9295159970643,58.651803453270986 33.03269517805893,58.41368095861253 33.1100795638049,58.20802915059903 33.26484833529685,58.08896733920119 33.42821537191048,58.05649590577377 33.5399928179977,58.03484827628563 33.67756505936268,57.904962377833726 33.806539035605965,57.74260471227899 33.99570086746826,57.547775084589375 34.18486269933055,57.277177603049495 34.34822973588598,57.093170799911604 34.2708453501109,56.77927587805607 34.27944361520349,56.53032386932318 34.37402453113464,56.27054704542388 34.588981158216484,56.03241755927593 34.769544725015294,55.805111488363764 34.889920436165994,55.512859889691754 35.01889441246749,55.22060723784671 35.24244930461282,54.950001991594036 35.491798992065014,54.72269288689131 35.66376429371303,54.47373456502828 35.79273826998542,54.18147816853161 35.92171224625781,53.87839634860575 36.09367754793493,53.607786623673746 36.39461682585534,53.52119132097141 36.6009751878737,53.39129819356458 36.72994916414609,53.07738894337672 36.807333549892064,52.79595203087956 36.867521405481966,52.48204047620675 36.93630752613535,52.16812770638353 37.02229017697391,51.81091514539003 37.10827282778337,51.54029852133681 37.10827282778337,51.43205161890364 37.194255478680134,51.118134784577705 37.23724680405576,50.782567169648246 37.331827719986904,50.42534850526863 37.42640863591805,50.01400385152374 37.48659649150795,49.68925659837987 37.55538261216134,49.32120813923393 37.64996352812159,48.98563308826124 37.718749648774974,48.65005664851196 37.78753576942836,48.2711783539271 37.83912535998388,47.9464241210153 37.942304540920304,47.5783677513391 38.00249239653931,47.2319602302814 38.08847504737787,46.896376533019065 38.14866290296777,46.5716167938881 38.21744902362116,46.257681143026275 38.27763687924016,45.954569706111215 38.32922646976658,45.824664457686595 38.36361953004962,45.61898072207987 38.423807385668624,45.27256483007659 38.49259350632201,44.92614745807805 38.569977892097086,44.59055421755329 38.64736227787216,44.21165695403033 38.673157073091716,44.10340026780614 38.69035360327689,43.90853786833031 38.750541458808584,43.627069131223834 38.82792584458366,43.24816736520734 38.888113700202666,42.92339301355969 38.96549808597774,42.55531384234928 39.01708767644595,42.39292544149794 39.06867726694327,42.21971078874776 39.09447206216282,42.1006255003158 39.14606165268924,41.9923659953929 39.111668592406204,41.80832450532762 39.12026685746969,41.60263058083365 39.14606165268924,41.3211538385076 39.20624950830825,41.0613282859631 39.266437363869045,40.87728468245041 39.40400960523402,40.83398024440248 39.70494888315443,40.93141519741039 39.98009336582618,41.039676118998614 40.26383611364872,41.11545867808309 40.36701529461425,41.00719785771071 40.40140835495549,40.80150190074346 40.38421182479942,40.498370065542986 40.40140835495549,40.18441089853877 40.41860488514067,39.80549304336455 40.461596210545395,39.42657341722952 40.487391005823156,39.14508911991288 40.375613559706835,38.96104116633069 40.10046907700598,39.02599931530858 39.79952979911468,39.069304719050706 39.57597490688204,39.12343644117209 39.61036796725239,38.809471949673025 39.6619575577206,38.484679816887365 39.73074367837398,38.159886382884 39.782333268929506,37.83509164768475 39.885512449924136,37.47781593602849 39.945700305484934,37.131365257409925 39.98869163094787,36.87152627681644 40.03168295632349,36.5575530641363 40.07467428178643,36.29771224431897 40.06607601669384,36.146138048185094 40.0918708119425,36.05952409458405 40.24663958340534,35.94042975726916 40.41860488514067,35.85381558386871 40.324023969180416,35.68058695945365 40.229443053278374,35.55066524822905 40.25523784852703,35.377435975999106 40.306827439024346,35.32330175254174 40.495989270857535,35.366609134209284 40.659356307500275,35.344955446285894 40.82272334408481,35.388262816370116 40.96029558539158,35.32330175254174 41.132260887068696,35.29082120110252 41.23544006809243,35.15007199445972 41.26983312846278,34.749476761171536 41.29562792368233,34.37053350223141 41.34721751417965,34.03489656504826 41.36441404436482,33.77504765921185 41.36441404436482,33.61264167012996 41.39020883961348,33.40692695019243 41.355815779272234,33.26617447258468 41.14085915219039,33.22286596876802 40.91730425998685,33.19038457572606 40.779732018650975,33.11459460800688 40.55617712647654,33.0604588733695 40.28103264377569,33.00632310261426 39.96289683567011,32.94136012996023 39.653359292657115,32.86556992941769 39.369616544863675,32.78977965800004 39.01708767644595,32.73564370648819 38.750541458808584,32.61654448583431 38.59577268734574,32.573235634947196 38.33782473480096,32.573235634947196 38.02828719181707,32.551581200816145 37.74454444402363,32.5407539815933 37.41781037085457,32.519099538789305 37.10827282778337,32.47579063583544 36.81593181495555,32.44330894344603 36.5407873323129,32.421654474615934 36.45480468144524,32.39999999999418 36.39461682585534,32.52992676092981 36.32583070520195,32.74647089969221 36.28283937976812,32.963014459979604 36.23984805436339,33.157903169652855 36.22265152417822,33.38527273877844 36.18825846383697,33.5801604332446 36.09367754793493,33.76422060344339 36.00769489706727,33.90497221628175 35.930310511321295,34.12151268186426 35.88731918588746,34.262263674347196 35.81853306523408,34.44632229572744 35.723952149332035,34.60872661462781 35.64656776355696,34.80361136781721 35.551986847654916,34.97684186623519 35.48320072697243,35.139245122314605 35.354226750700036,35.344955446285894 35.28544063004665,35.626452938406146 35.15646665377426,35.897122682137706 35.02749267750187,36.221925181671395 34.872723906009924,36.54672637992189 34.726553399610566,36.84987299086788 34.597579423338175,37.131365257409925 34.468605447065784,37.42368311511382 34.30523841048125,37.7376529733956 34.15906790405279,38.01914215738361 34.03869219290209,38.30063036405045 33.918316481722286,38.538811929378426 33.86672689122497,38.6470760459124 33.81513730069855,38.72286084150255 33.703359854611335,38.809471949673025 33.67756505936268,39.069304719050706 33.58298414340243,39.372441897474346 33.402420576661825,39.65392540542962 33.32503619091585,39.84879803073272 33.26484833529685,40.00036530437501 33.419617106847,40.08697504778684 33.703359854611335,40.08697504778684 34.021495662716916,40.130279884782794 34.35682800094946,40.173584698663035 34.67496380908415,40.21688948946394 34.99309961718973,40.26019425706181 35.30263716020272,40.303499001551245 35.58637990796706,40.34680372290313 35.809934800170595,40.34680372290313 35.92171224625781,40.20606329392467 35.96470357166254,40.00036530437501 35.9904983669112,39.794666792906355 36.024891427281545,39.783840541036625 36.179660198744386,39.870450515751145 36.18825846383697,40.097801259194966 36.110874078091,40.476717748220835 36.042087957437616,40.82315413127071 35.97330183675513,41.19124116633611 35.90451571610174,41.537674496248655 35.82713133035577,41.91658425596688 35.758345209644176,42.23053671537491 35.715353884210344,42.51201030061202 35.629371233371785,42.847612144330924 35.64656776355696,43.13990939252835 35.577781642903574,43.443031351751415 35.397218076104764,43.659546343078546 35.31983369032969,43.962666359620926 35.233851039549336,44.27661089635512 35.233851039549336,44.54725176274951 35.22525277445675,44.76376380545116 35.38861981104128,44.96944971051562 35.30263716020272,45.30504138283868 35.25964583479799,45.67310807150352 35.15646665377426,46.095300157001475 35.09627879818436,46.42006180383032 35.036090942594456,46.788123431120766 35.02749267750187,47.1237075764584 35.0102961473458,47.44846510436764 35.0102961473458,47.794871700512886 35.001697882282315,48.13045167938253 34.98450135209714,48.47685536210338 34.96730482194107,48.823257565025415 34.94151002669241,49.13718328324467 34.907116966322064,49.44028282351792 34.84692911079037,49.78668091088912 34.77814299007878,50.154727257351624 34.743749929766636,50.44699816605862 34.77814299007878,50.782567169648246 34.717955134488875,51.118134784577705 34.62337421858683,51.475350397209695 34.425614121661056,51.75679189282528 34.21925575961359,51.97328468639898 33.95270954206353,52.17895230488648 33.74635118001606,52.373794830760744 33.4798049624078,52.60111051926651 33.316437925823266,52.79595203087956 33.22185700989212,52.95831959959469 33.10148129874142,53.08821342050214 32.981105587561615,53.27222931067081 32.895122936723055,53.553664570303226 32.76614896047977,53.867571976967156 32.594183658773545,54.19230249830434 32.422218357096426,54.49538314509846 32.29324438085314,54.72269288689131 32.224458260199754,54.99329889164801 32.27604785063886,55.20978304534219 32.422218357096426,55.38296995226119 32.319039176101796,55.67522201897373 32.30184264591662,55.84840793195326 32.30184264591662,55.83758382320957 32.18146693473682,55.880880249453185 31.983706837781938,56.1514823897669 31.820339801197406,56.42208362714155 31.596784909022972,56.66021196924703 31.39042654700461,56.89833961214754 31.295845631102566,57.13646655584307 31.18406818501535,57.45036009524483 31.046495943679474,57.645189956929244 30.874530642002355,57.645189956929244 30.633779219642747,57.645189956929244 30.358634736971,57.591070597867656 30.057695459021488,57.56942284410616 29.756756181101082,57.56942284410616 29.576192614331376,57.58024672169995 29.421423842810327,57.62354221762507 29.369834252313012,57.6884854181917 29.275253336381866,57.89413854358281 29.154877625231165,58.110614954304765 29.111886299826438,58.42450472351629 29.008707118802704,58.64097971866431 28.931322733027628,58.835806720278924 28.862536612374242,58.911572650082235 28.681973045575432,59.08475165243726 28.44981988836662,59.32287217686098 28.346640707342885,59.51769754051929 28.44981988836662,59.71252243617346 28.510007743898313,59.78828754699498 28.527204274083488,59.99393534819683 28.604588659858564,60.24287672569335 28.578793864609906,60.38358238366345 28.467016418493586,60.19958262799628 28.303649381938158,60.41605288550636 28.148880610388005,60.67581643191079 28.002710103988647,60.9031088526026 27.82214653721894,61.15204743967479 27.693172560975654,61.433455357204366 27.589993379922817,61.67156898642861" stroke="#4DD2FF" stroke-dasharray="none" stroke-linecap="round" stroke-linejoin="round" stroke-width="0.5"><title>2017-12-17 14.0km</title><desc>9223370523376934807</desc></polyline><polyline fill="none" opacity="1" points="100.4636117653572,32.40000000000873 100.51659596717218,32.66671245422913 100.649056471535,32.93342433941143 100.67554857238429,33.200135655584745 100.67554857238429,33.50018520606682 100.68879462277982,33.766895313121495 100.66230252193054,34.11695146499551 100.66230252193054,34.46700663675438 100.5563341184752,34.78372237601434 100.58282621932449,34.950414548191475 100.72853277414106,35.70052657207998 100.63581042108126,35.95056291327637 100.79476302629337,36.25060586255859 100.87423932895763,36.517310101902694 100.91397748026066,36.81735169098829 100.94046958116814,37.200737118007964 100.95371563156368,37.55078365509689 100.99345378286671,37.834153943447745 101.04643798468169,38.167529930957244 101.13916033768328,38.43423008086393 101.17889848904451,38.75093577000371 101.23188269080129,39.08430931287876 101.27162084216252,39.401013355265604 101.47031159867765,39.434350576178986 101.64251025440171,39.58436796042952 101.60277210309869,39.75105373178667 101.43057344737463,39.85106508799072 101.35109714476857,40.03441903316707 101.44381949777016,40.284446706893505 101.5762800022494,40.60114770916698 101.6954944562167,40.90117949759588 101.761724708369,41.20121056599601 101.90743126318557,41.48457258065173 102.05313781800214,41.76793395305867 102.225336473668,42.10129945134395 102.21209042327246,42.384659426053986 101.96041546500055,42.43466406079824 101.72198655706597,42.284650096538826 101.53654185088817,42.13463595234498 101.33785109431483,42.0179581601551 101.08617613598472,42.117967702957685 100.86099327850388,42.117967702957685 100.66230252193054,42.26798186718952 100.67554857238429,42.43466406079824 100.68879462277982,42.70135510840919 100.45036571496166,42.83470041883993 100.15895260527031,42.95137744882959 99.89403159648646,43.00138185697142 99.58937243645778,43.00138185697142 99.61586453730706,42.784695944108535 99.68209478951758,42.48466867557727 99.77481714257738,42.217977165812044 99.86753949563717,41.88461197860306 99.92052369739395,41.501240914469236 99.94701579830144,41.16787381621543 99.89403159648646,40.83450582905789 99.84104739472969,40.43446307106933 99.6291105877026,40.351120668769 99.33769747806946,40.351120668769 99.17874487279914,40.184435697388835 99.15225277194986,40.067756085220026 99.13900672149612,39.81772797818121 99.12576067104237,39.60103654759587 98.96680806583026,39.55103077946114 98.78136335971067,39.51769358965976 98.60916470398661,39.534362185688224 98.56942655262537,39.701048023751355 98.58267260307912,39.984413438418414 98.59591865353286,40.301115200680215 98.60916470398661,40.60114770916698 98.6356568048941,40.90117949759588 98.6356568048941,41.23454730694357 98.6356568048941,41.551245902548544 98.6356568048941,41.834607123877504 98.64890285528963,42.16797244439658 98.6356568048941,42.48466867557727 98.64890285528963,42.76802778139245 98.66214890574338,43.01804998853186 98.67539495613892,43.251403597474564 98.66214890574338,43.4514206298918 98.64890285528963,43.7181095086853 98.62241075444035,43.96812981598487 98.60916470398661,44.18481367784261 98.58267260307912,44.36816126773192 98.56942655262537,44.60151235682133 98.52968840138055,44.83486301040102 98.54293445177609,45.03487750979548 98.54293445177609,45.318230836084695 98.54293445177609,45.634919087955495 98.54293445177609,45.968274276019656 98.52968840138055,46.28496088144311 98.54293445177609,46.584979030973045 98.55618050222984,46.901664074437576 98.55618050222984,47.18501317026676 98.56942655262537,47.518364225674304 98.56942655262537,47.7683769340656 98.56942655262537,48.068391524167964 98.54293445177609,48.26840085105505 98.54293445177609,48.518412059682305 98.51644235092681,48.751755403442075 98.56942655262537,49.03510030680627 98.60916470398661,49.301777276414214 98.64890285528963,49.58512093346508 98.68864100659266,49.91846559032274 98.74162520840764,50.28514368647302 98.8211015110137,50.63515359334997 98.92706991452724,50.95182837919856 99.01979226752883,51.20183422254922 99.13900672149612,51.53517456953705 99.23172907461412,51.818513165737386 99.36418957891874,52.05185035121394 99.41717378073372,52.185185690264916 99.52314218424726,52.418522191481316 99.6291105877026,52.65185825727531 99.66884873900563,52.835193432096276 99.69534083991311,53.01852833812882 99.82780134433415,53.151862646394875 99.94701579830144,53.285196812517825 100.05298420175677,53.45186432021728 100.15895260527031,53.618531605796306 100.2781670592376,53.835198744927766 100.38413546269294,54.035198847879656 100.56958016887074,54.18519871516037 100.75502487504855,54.435198094142834 100.9272235307144,54.68519697325246 101.08617613598472,54.91852880951774 101.24512874131324,55.15186021046247 101.31135899346555,55.3018587382976 101.43057344737463,55.518522960846894 101.60277210309869,55.768519674267736 101.77497075876454,56.00184948911192 101.96041546500055,56.31851068447577 102.07962991890963,56.518506815773435 102.23858252412174,56.76850153005216 102.38428907899652,57.01849574454536 102.55648773466237,57.31848814232217 102.72868639038643,57.60181363494485 102.90088504611049,57.90180463338038 103.08632975223009,58.18512880447088 103.25852840789594,58.418454110462335 103.45721916446928,58.73510918652755 103.60292571928585,59.001765470806276 103.81486252631294,59.335085026570596 104.00030723243253,59.585074110364076 104.14601378730731,59.86839446792146 104.27847429167014,60.11838248568529 104.43742689694045,60.35170418470807 104.59637950221077,60.60169123634114 104.76857815787662,60.86834354062739 104.8877926118439,61.08499811920046 105.05999126756797,61.31831801480439 105.24543597368756,61.584968791139545 105.40438857895788,61.85161899890227 105.55009513377445,62.0682718740718 105.70904773898656,62.38491770881228 105.88124639476882,62.684897233804804 106.07993715134216,63.00154150731396 106.22564370610053,63.26818869475392 106.41108841233654,63.568166101089446 106.63627126975916,63.90147348649043 106.79522387497127,64.15145344259508 106.94093042978784,64.38476761749189 107.09988303505816,64.6514118558407 107.28532774123596,64.95138594445598 107.44428034644807,65.26802447969385 107.62972505256766,65.58466221329581 107.77543160750065,65.8679689795681 107.92113816225901,66.15127510415914 108.02710656577256,66.43458058696706 108.15956707013538,66.78454529739975 108.2257973224041,67.06784934572352 108.25228942325339,67.21783358216635 108.1330749692861,67.36781763870385 108.09333681798307,67.4511420368217 108.18605917110108,67.36781763870385 108.34501177631319,67.43447716165974 108.4112420285237,67.6511203658738 108.5039643815253,67.90109282750927 108.60993278515525,68.20105912203144 108.72914723906433,68.53435416106367 108.84836169297341,68.86764831191977 108.9675761469407,69.20094157464337 109.04705244954675,69.45091093884548 109.12652875221102,69.70087980342214 109.25898925657384,70.00084178155521 109.36495766008738,70.26747404698108 109.47092606354272,70.5341057440819 109.55040236620698,70.7840724439593 109.5901405174518,71.01737424639578 109.6828628705698,71.2840043449105 109.78883127408335,71.58396252634702 109.8947996775969,71.88391998845327 109.98752203065669,72.18387673118559 110.0802443837747,72.4505043430836 110.15972068632254,72.70046721302788 110.27893514028983,73.00042199759628 110.38490354380338,73.25038376863813 110.50411799777066,73.56700129483943 110.6100864012842,73.86695400140889 110.74254690570524,74.16690598864807 110.83526925870683,74.40020148150506 110.91474556137109,74.58350477773638 111.00746791443089,74.86679116179585 111.15317446924746,75.06675763480598 111.17966657009674,75.18340459642059 111.1929126206087,75.3667067449569 111.13992841885192,75.5833362104895 110.96772976312786,75.53334482872742 110.7955311074038,75.30005144928873 110.62333245173795,75.05009377424722 110.41139564476907,74.78347170367488 110.1729667368345,74.48352119489573 109.8947996775969,74.20023394287273 109.6166326184175,73.95027407002635 109.37820371048292,73.71697773804772 109.13977480260655,73.46701689944894 108.92783799557947,73.21705556134111 108.68940908764489,73.00042199759628 108.46422623028047,72.78378805868851 108.17281312058913,72.48383275457309 107.92113816225901,72.25053368746012 107.70920135523193,72.03389844972116 107.40454219514504,71.75060564963496 107.15286723681493,71.5339695460425 106.86145412718179,71.36732613413187 106.57004101754865,71.2340112447564 106.22564370610053,71.15068936666648 105.88124639476882,71.10069621322327 105.56334118416999,71.03403864418215 105.24543597368756,70.95071663295676 104.96726891450817,70.90072339959443 104.636117653572,70.81740129950049 104.30496639251942,70.80073687282857 103.987061182037,70.7340791439492 103.62941782019334,70.63409248397511 103.44397311407374,70.58409912405477 103.25852840789594,70.5341057440819 103.07308370177634,70.50077681307448 102.87439294514479,70.46744787313219 102.66245613817591,70.45078339986503 102.46376538154436,70.41745444653498 102.29156672593672,70.36746100003074 102.1061220197007,70.33413202456723 101.89418521267362,70.30080304021249 101.68224840570474,70.21748054052296 101.53654185088817,70.18415152509988 101.27162084216252,70.08416442552698 100.94046958116814,69.93418362630473 100.60931832023198,69.81753176928032 100.22518285748083,69.68421522801509 100.00000000005821,69.63422148836253 99.68209478951758,69.53423394916172 99.36418957891874,69.43424633007089 99.00654621713329,69.3342586310464 98.64890285528963,69.26760012059822 98.30450554384151,69.13428299313819 98.03958453511586,69.05095971633273 97.64220302196918,68.96763638396806 97.36403596278979,68.81765424592595 97.01963865134167,68.70100134752283 96.83419394516386,68.63434249954298 96.54278083558893,68.53435416106367 96.22487562499009,68.43436574257794 95.90697041450767,68.2510534345347 95.58906520396704,68.05107606470119 95.27115999342641,67.85109837511845 95.00623898464255,67.5844609584019 94.79430217767367,67.30115808021219 94.59561142115854,66.98452469230688 94.54262721934356,66.80121025918925 94.44990486622555,66.61789555742871 94.29095226107165,66.36792053113459 94.19822990795365,66.20127023597888 94.05252335313708,65.93462930193346 93.9068167983205,65.65132268659363 93.72137209220091,65.31801996458671 93.56241948687239,64.96805115048483 93.39022083120653,64.584750849579 93.19153007463319,64.18478406562645 93.01933141885092,63.818146723424434 92.83388671273133,63.50150451740774 92.70142620842671,63.16819606610807 92.52922755264444,62.80155574363016 92.35702889697859,62.401583256869344 92.15833814040525,62.00160949092242 91.9596473838319,61.61830009819823 91.78744872810785,61.21832382712455 91.58875797159271,60.86834354062739 91.40331326541491,60.4850306744047 91.23111460969085,60.11838248568529 91.05891595396679,59.75173322195769 90.88671729830094,59.40174883112195 90.76750284439186,59.05176346084045 90.595304188726,58.7851072831254 90.47608973475872,58.485118403608794 90.38336738164071,58.168462694535265 90.26415292773163,57.835140029274044 90.17143057467183,57.46848407133075 90.09195427200757,57.08516078405955 90.02572401985526,56.70183632177941 89.98598586849403,56.368509747320786 89.93300166673725,55.96851668511226 89.90650956588797,55.635188155953074 89.86677141458495,55.21852624505118 89.81378721276997,54.90186226426158 89.81378721276997,54.53519770578714 89.78729511192068,54.201865355993505 89.7608030110714,53.80186536333349 89.78729511192068,53.45186432021728 89.80054116231622,53.11852908268338 89.80054116231622,52.76852612687799 89.77404906146694,52.40185531292809 89.68132670840714,52.00184956242447 89.61509645619662,51.651843481027754 89.61509645619662,51.33517046799534 89.58860435528914,50.93516130519856 89.56211225443985,50.618486477120314 89.52237410313683,50.30181084710057 89.45614385098452,49.91846559032274 89.50912805268308,49.51845189544838 89.58860435528914,49.15177155098354 89.58860435528914,48.85175956027524 89.58860435528914,48.58508163091028 89.62834250670858,48.385072810633574 89.60185040580109,48.1850636703748 89.56211225443985,47.91838431909855 89.53562015359057,47.61836936902546 89.49588200228754,47.28501858022355 89.46938990138005,46.951666902707075 89.46938990138005,46.66831727804674 89.40315964916954,46.28496088144311 89.35017544741277,45.884935562338796 89.33692939701723,45.501576763839694 89.31043729616795,45.16822033149947 89.27069914480671,44.851530897576595 89.23096099350369,44.46816893068899 89.19122284220066,44.23481759267452 89.19122284220066,43.95146181102609 89.21771494304994,43.601433194213314 89.2044688926544,43.268071695725666 89.16473074123496,42.93470930837793 89.13823864038568,42.65135058030137 89.07200838823337,42.301318323705345 89.07200838823337,41.96795335873321 89.08525443868712,41.66792413027724 89.1117465395364,41.30122076216503 89.04551628726767,40.90117949759588 89.01902418641839,40.58447925533983 88.97928603517357,40.21777270945313 89.00577813602285,39.984413438418414 89.01902418641839,39.83439653420646 89.00577813602285,39.617705132535775 88.97928603517357,39.36767612538824 88.97928603517357,39.06764065688185 88.89980973250931,38.78427316428861 88.84682553081075,38.417561338166706 88.82033342990326,38.06751722803165 88.82033342990326,37.7341409738292 88.8070873793913,37.3507571824739" stroke="#4DD2FF" stroke-dasharray="none" stroke-linecap="round" stroke-linejoin="round" stroke-width="0.5"><title>2017-11-19 11.8km</title><desc>9223370525802103807</desc></polyline><polyline fill="none" opacity="0.5" points="187.07245590235107,67.90012193983421 185.95875169616193,68.10861900402233 185.255359566072,68.17811800987693 184.4933514248114,67.96962096903007 183.49687924026512,68.10861900402233 182.55902306665666,68.10861900402233 181.62116689281538,68.17811800987693 180.56607869756408,68.10861900402233 179.8040705563035,67.96962096903007 178.9834464045707,67.96962096903007 178.22143826354295,67.96962096903007 177.3421981006395,67.76112385862507 176.52157394844107,66.99663385830354 175.5837177745998,66.92713472119067 174.82170963380486,66.85763557621976 173.88385345996358,66.57963891886175 173.1218453189358,66.7186372630531 172.3012211669702,66.64913809474092 171.36336499336176,66.7186372630531 170.54274084139615,66.51013973512454 169.6635006784927,66.64913809474092 168.72564450465143,66.78813642339082 167.72917232010514,66.44064054382034 166.90854816813953,66.30164213792887 166.20515603781678,66.16264370107092 165.384531886084,66.16264370107092 164.62252374505624,65.88464673480485 163.7432835821528,65.88464673480485 162.9226594301872,65.74564820510568 162.21926729986444,65.95414598792559 160.98833107203245,65.39815174596151 159.99185888725333,65.25915310822893 159.05400271364488,65.18965377786662 157.99891451839358,65.25915310822893 157.58860244229436,65.32865243108245 156.47489823610522,65.60664964455646 155.0681139754597,64.98115574021358 154.07164179091342,64.14716289372882 153.19240162800997,64.35566120949807 152.19592944346368,64.00816397793824 151.3166892810259,63.869165030890144 150.61329715070315,64.00816397793824 149.9099050203804,63.7996655459865 149.20651289005764,63.52166752866469 148.3272727271542,63.59116704465123 147.56526458612643,63.938664508285 146.27571234712377,63.52166752866469 145.57232021703385,63.1046702710446 145.22062415187247,62.34017457580194 144.75169606506824,61.575677945744246 144.6930800541304,60.463681178574916 144.81031207600608,59.49068238417385 144.81031207600608,58.378681907604914 144.6930800541304,57.40567986789392 144.6930800541304,56.0851746769622 144.51723202154972,55.39017082436476 144.39999999990687,54.34766359644709 144.6344640434254,53.37465528177563 144.6344640434254,52.540646949375514 144.8689280867111,51.845639155537356 144.6930800541304,50.942127868242096 144.98616010835394,49.96911425224971 144.92754409764893,48.92659798276145 145.10339213022962,48.30108738626586 145.16200814116746,47.05006431584479 145.10339213022962,45.93804170633666 145.16200814116746,44.9650203002966 145.22062415187247,44.20050241862191 145.39647218445316,43.296980080136564 145.57232021703385,42.32395456265658 145.39647218445316,41.3509275301476 145.39647218445316,40.65590729378164 145.27924016257748,39.821881990123075 145.39647218445316,40.65590729378164 145.39647218445316,41.3509275301476 145.57232021703385,42.32395456265658 145.39647218445316,43.296980080136564 145.22062415187247,44.20050241862191 145.16200814116746,44.9650203002966 145.10339213022962,45.93804170633666 145.16200814116746,47.05006431584479 145.10339213022962,48.30108738626586 144.92754409764893,48.92659798276145 144.98616010835394,49.96911425224971 144.6930800541304,50.942127868242096 144.8689280867111,51.845639155537356 144.6344640434254,52.540646949375514 144.6344640434254,53.37465528177563 144.39999999990687,54.34766359644709 144.51723202154972,55.39017082436476 144.6930800541304,56.0851746769622 144.6930800541304,57.40567986789392 144.81031207600608,58.378681907604914 144.81031207600608,59.49068238417385 144.6930800541304,60.463681178574916 144.75169606506824,61.575677945744246 145.22062415187247,62.34017457580194 145.57232021703385,63.1046702710446 146.27571234712377,63.52166752866469 147.56526458612643,63.938664508285 148.3272727271542,63.59116704465123 149.20651289005764,63.52166752866469 149.9099050203804,63.7996655459865 150.61329715070315,64.00816397793824 151.3166892810259,63.869165030890144 152.19592944346368,64.00816397793824 153.19240162800997,64.35566120949807 154.07164179091342,64.14716289372882 155.0681139754597,64.98115574021358 156.47489823610522,65.60664964455646 157.58860244229436,65.32865243108245 157.99891451839358,65.25915310822893 159.05400271364488,65.18965377786662 159.99185888725333,65.25915310822893 160.98833107203245,65.39815174596151 162.21926729986444,65.95414598792559 162.9226594301872,65.74564820510568 163.7432835821528,65.88464673480485 164.62252374505624,65.88464673480485 165.384531886084,66.16264370107092 166.20515603781678,66.16264370107092 166.90854816813953,66.30164213792887 167.72917232010514,66.44064054382034 168.72564450465143,66.78813642339082 169.6635006784927,66.64913809474092 170.54274084139615,66.51013973512454 171.36336499336176,66.7186372630531 172.3012211669702,66.64913809474092 173.1218453189358,66.7186372630531 173.88385345996358,66.57963891886175 174.82170963380486,66.85763557621976 175.5837177745998,66.92713472119067 176.52157394844107,66.99663385830354 177.3421981006395,67.76112385862507 178.22143826354295,67.96962096903007 178.9834464045707,67.96962096903007 179.8040705563035,67.96962096903007 180.56607869756408,68.10861900402233 181.62116689281538,68.17811800987693 182.55902306665666,68.10861900402233 183.49687924026512,68.10861900402233 184.4933514248114,67.96962096903007 185.255359566072,68.17811800987693 185.95875169616193,68.10861900402233 187.07245590235107,67.90012193983421 187.36553595680743,66.92713472119067 187.5999999998603,66.0236452333047 187.5999999998603,65.53715035278583 187.5999999998603,64.425160632818 187.54138398938812,63.73016605316661 187.5999999998603,62.8266719445819 187.5999999998603,62.06217590958113 187.48276797845028,61.08917960344115" stroke="#4DD2FF" stroke-dasharray="1,0.5" stroke-linecap="round" stroke-linejoin="round" stroke-width="0.5"><title>2014-03-22 10.5km</title><desc>9223370641410674807</desc></polyline><polyline fill="none" opacity="1" points="55.600000000034925,99.73377483277 55.473256601253524,99.78123658409459 55.32701421802631,99.79310201836779 55.200270819244906,99.86429459363717 55.0637779282406,99.89989086183778 54.92728503723629,99.91175628172641 54.79079214623198,99.8524291680078 54.64454976306297,99.81683288249769 54.51780636422336,99.89989086183778 54.42031144211069,99.89989086183778 54.29356804332929,99.88802544054488 54.14732566010207,99.88802544054488 54.01083276915597,99.86429459363717 53.91333784698509,99.78123658409459 53.806093432649504,99.78123658409459 53.698849018255714,99.78123658409459 53.552606635086704,99.81683288249769 53.416113744082395,99.81683288249769 53.289370345300995,99.81683288249769 53.162626946519595,99.80496745114215 53.01638456329238,99.78123658409459 52.889641164569184,99.79310201836779 52.753148273564875,99.80496745114215 52.60690589033766,99.79310201836779 52.48991198372096,99.80496745114215 52.382667569385376,99.80496745114215 52.23642518615816,99.81683288249769 52.129180771822575,99.80496745114215 52.00243737309938,99.76937114843895 51.875693974259775,99.74564027274027 51.748950575478375,99.76937114843895 51.622207176696975,99.79310201836779 51.5247122545843,99.79310201836779 51.368720379134174,99.75750571131357 51.25172647257568,99.74564027274027 51.1444820582401,99.74564027274027 51.02748815168161,99.73377483277 50.88124576845439,99.74564027274027 50.735003385227174,99.74564027274027 50.61800947872689,99.76937114843895 50.48151658766437,99.73377483277 50.37427217332879,99.73377483277 50.23777928232448,99.73377483277 50.12078537576599,99.72190939136635 49.97454299259698,99.69817850420077 49.84779959375737,99.67444761130173 49.682058226142544,99.69817850420077 49.535815842915326,99.69817850420077 49.399322951969225,99.72190939136635 49.2433310765191,99.7100439485148 49.1263371699024,99.7100439485148 49.01909275556682,99.69817850420077 48.89234935678542,99.72190939136635 48.775355450226925,99.7100439485148 48.648612051445525,99.69817850420077 48.512119160499424,99.7100439485148 48.404874746105634,99.7100439485148 48.268381855101325,99.7100439485148 48.141638456319924,99.74564027274027 48.02464454976143,99.73377483277 47.90765064320294,99.74564027274027 47.77115775219863,99.73377483277 47.634664861194324,99.73377483277 47.51767095463583,99.73377483277 47.38117806363152,99.73377483277 47.27393364929594,99.73377483277 47.15693974273745,99.73377483277 47.03994583612075,99.73377483277 46.89370345295174,99.7100439485148 46.76696005417034,99.67444761130173 46.64021665538894,99.69817850420077 46.50372376438463,99.68631305848976 46.35748138121562,99.67444761130173 46.23073798243422,99.68631305848976 46.10399458365282,99.68631305848976 45.97725118481321,99.72190939136635 45.85050778603181,99.7100439485148 45.71401489508571,99.69817850420077 45.5775220040814,99.68631305848976 45.4507786053,99.68631305848976 45.3240352065186,99.66258216267306 45.16804333112668,99.67444761130173 45.06079891673289,99.65071671265468 44.914556533505674,99.66258216267306 44.768314150336664,99.66258216267306 44.641570751497056,99.68631305848976 44.495328368328046,99.65071671265468 44.34908598510083,99.61512035391934 44.20284360193182,99.61512035391934 44.0663507108693,99.59138944090228 43.93960731214611,99.57952398222551 43.8031144211418,99.59138944090228 43.70561949897092,99.59138944090228 43.56912660796661,99.61512035391934 43.45213270140812,99.65071671265468 43.33513879484963,99.67444761130173 43.188896411680616,99.67444761130173 43.062153012899216,99.67444761130173 42.935409614117816,99.65071671265468 42.81841570750112,99.65071671265468 42.711171293165535,99.67444761130173 42.55517941771541,99.66258216267306 42.438185511215124,99.65071671265468 42.311442112375516,99.67444761130173 42.184698713594116,99.65071671265468 42.057955314812716,99.62698580828874 41.911712931643706,99.62698580828874 41.794719025085215,99.61512035391934 41.677725118468516,99.60325489811657 41.521733243076596,99.56765852213721 41.39498984423699,99.61512035391934 41.23899796884507,99.59138944090228 41.11225457006367,99.57952398222551 40.995260663563386,99.59138944090228 40.84901828027796,99.59138944090228 40.71252538933186,99.57952398222551 40.58578199055046,99.57952398222551 40.42979011510033,99.59138944090228 40.32254570076475,99.60325489811657 40.17630331753753,99.62698580828874 40.06905890320195,99.55579306061554 39.92281651997473,99.55579306061554 39.80582261341624,99.55579306061554 39.66932972241193,99.54392759763141 39.53283683140762,99.55579306061554 39.41584292484913,99.57952398222551 39.27935003384482,99.54392759763141 39.15260663506342,99.55579306061554 39.01611374411732,99.53206213323574 38.87962085311301,99.53206213323574 38.76262694649631,99.52019666740671 38.65538253216073,99.47273478966235 38.52863913337933,99.47273478966235 38.40189573459793,99.48460026124667 38.25565335137071,99.50833120011521 38.12890995264752,99.49646573138307 38.01191604603082,99.54392759763141 37.88517264724942,99.54392759763141 37.72918077179929,99.54392759763141 37.6024373730761,99.55579306061554 37.4756939742947,99.52019666740671 37.35870006773621,99.52019666740671 37.25145565334242,99.53206213323574 37.11496276233811,99.52019666740671 36.9687203791691,99.53206213323574 36.8419769803877,99.49646573138307 36.68598510499578,99.48460026124667 36.58849018276669,99.49646573138307 36.45199729182059,99.49646573138307 36.15951252542436,99.50833120011521 35.876777251192834,99.48460026124667 35.711035883578006,99.42527288891142 35.330805687233806,99.53206213323574 35.00907244416885,99.50833120011521 34.77508463099366,99.4371383662583 34.560595802322496,99.4371383662583 34.30710900470149,99.38967644832883 34.12186865269905,99.40154192995396 33.83913337846752,99.40154192995396 33.57589708874002,99.53206213323574 33.32241029117722,99.4608693166374 33.02017603255808,99.60325489811657 29.286120514560025,99.38967644832883 29.042383209220134,99.30661803658586 28.81814488832606,99.3540799947441 28.486662153038196,99.38967644832883 28.213676371087786,99.30661803658586 27.901692620187532,99.25915605538466 27.66770480707055,99.22355955443345 24.489370345312636,99.25915605538466 24.206635071139317,99.23542505621299 23.884901828074362,99.21169405122055 23.65091401495738,99.24729055651551 23.426675694005098,99.17609753303987 23.114691943163052,99.14050100191525 22.822207176766824,99.18796304052375 22.539471902535297,99.17609753303987 20.092349356855266,99.15236651371379 19.731618144898675,99.17609753303987 19.53662830067333,99.17609753303987 19.351387948554475,99.16423202410806 19.28314150305232,99.15236651371379 19.107650643214583,99.10490445783944 18.90291130670812,99.15236651371379 18.688422477978747,99.14050100191525 18.50318212597631,99.06930790089245 18.278943805024028,99.057442379024 18.035206499684136,99.057442379024 17.781719702121336,99.12863548868336 17.684224780008662,99.00998027715832 16.553283683140762,99.11676997398172 16.30954637780087,99.06930790089245 16.114556533517316,99.06930790089245 15.822071767121088,99.057442379024 15.54908598511247,99.081173421313 15.29559918754967,99.081173421313 15.01286391337635,99.0930389402929 14.769126608036458,99.02184580476023 14.52538930263836,99.057442379024 14.301150981744286,99.02184580476023 13.97941773867933,99.03371133096516 13.794177386618685,98.9862492176253 13.443195666885003,99.0455768556858 13.101963439432438,98.9981147481376 12.984969532873947,99.06930790089245 13.043466486153193,99.33034901852079 13.033716993930284,99.49646573138307 13.07271496282192,99.76937114843895 12.916723087371793,99.8524291680078 12.858226134092547,99.65071671265468 12.770480704144575,99.49646573138307 12.604739336529747,99.55579306061554 12.477995937748346,99.79310201836779 12.400000000023283,99.92362170018896 12.42924847669201,100.23212207535835 12.477995937748346,100.51689079058269 12.536492891027592,100.7897933662316 12.594989844365045,101.08642573877296 12.643737305363175,101.37119197181892 12.711983750865329,101.58476610362413 12.731482735311147,101.78647457853367 12.750981719756965,102.01191297105834 12.780230196367484,102.30854164490302 12.82897765742382,102.54584393756522 12.83872714964673,102.80687579591176 12.82897765742382,103.0916370304185 12.887474610703066,103.36453243710275 12.858226134092547,103.64929205142835 12.916723087371793,103.91032097110292 12.858226134092547,104.19507899978635 12.897224102984183,104.45610646600107 12.799729180755094,104.71713323708536 12.848476641869638,104.96629450647015" stroke="#4DD2FF" stroke-dasharray="none" stroke-linecap="round" stroke-linejoin="round" stroke-width="0.5"><title>2013-12-10 10.9km</title><desc>9223370650177580807</desc></polyline><polyline fill="none" opacity="1" points="99.04016437195241,80.6918944849167 96.64057530183345,81.85947207268327 93.52110951114446,83.90273149451241 91.36147934850305,88.2811387181282 91.36147934850305,91.78385877958499 90.16168481484056,95.87035909830593 89.68176699988544,98.49739136477001 88.72193137276918,102.58388032088988 88.96189028024673,106.37847101641819 88.2420135596767,109.29738287813962 88.2420135596767,113.09196302411146 88.2420135596767,116.01086677075364 89.4418080933392,118.34598722797818 91.84139716345817,121.84866367932409 94.72090404573828,123.01622136775404 98.56024655792862,123.60000000009313 102.15963016077876,122.43244259478524 104.07930141687393,119.80543636670336 106.71884939447045,117.47031732159667 108.39856174215674,113.38385355728678 108.39856174215674,110.17305574938655 109.59835627768189,106.08657963620499 110.07827409170568,102.87577212415636 110.79815081227571,99.08117592497729 111.7579864403233,94.70278828428127 111.7579864403233,92.07575188926421 111.51802753377706,87.69735154649243 110.31823299825191,84.19462555623613 108.87847955618054,81.85947207268327 105.51905485894531,80.98378893476911 103.11946578975767,80.4000000001397 99.28012327849865,80.6918944849167 96.16065748780966,82.44326065597124 93.04119169805199,85.36220145085827 90.64160262793303,88.57303225062788 90.40164372138679,92.36764496355318 89.92172590643167,95.87035909830593 89.4418080933392,99.37306815129705 88.72193137276918,102.58388032088988 88.72193137276918,106.37847101641819 88.2420135596767,110.17305574938655 88.72193137276918,113.96763451839797 89.20184918586165,117.47031732159667 91.36147934850305,119.80543636670336 94.24098623264581,121.55677416943945 97.60041092988104,122.43244259478524 101.43975344114006,122.1405531547498 105.27909595239908,119.51354661001824 107.67868502158672,117.17842728225514 108.39856174215674,112.80007245577872 109.11843846272677,108.71360078873113" stroke="#4DD2FF" stroke-dasharray="none" stroke-linecap="round" stroke-linejoin="round" stroke-width="0.5"><title>2013-11-30 10.3km</title><desc>9223370651086224807</desc></polyline><polyline fill="none" opacity="1" points="162.38074653036892,83.7019397658296 160.34491645358503,85.07774658850394 156.27325630094856,88.93000126630068 157.17806966789067,92.23192865797319 156.49945964291692,95.80901126144454 156.27325630094856,100.76188558526337 156.49945964291692,104.06379581429064 153.55881619919091,107.36570125445724 154.46362956706434,109.8421271899715 155.82084961794317,112.31855043233372 155.82084961794317,116.17075901036151 156.49945964291692,118.37201812700368 157.40427300985903,119.47264688764699 159.44010308664292,122.22421646025032 162.83315321430564,122.22421646025032 166.67861002590507,123.60000000009313 167.58342339284718,121.6739028126467 171.20267686247826,119.74780399515294 174.8219303302467,115.89560147118755 175.72674369905144,114.51981327589601 177.53637043293566,112.04339242749847 176.85776040703058,106.8153840135783 176.17915038205683,105.71474913298152 176.4053537240252,101.86252286075614 177.762573774904,96.90965093066916 177.762573774904,95.80901126144454 176.17915038205683,92.78224942437373 178.44118379987776,90.30580492829904 176.85776040703058,89.20516206463799 175.2743370141834,86.72871367656626 173.23850693926215,83.7019397658296 171.4288802035153,83.15161680453457 168.4882367597893,80.4000000001397 163.9641699232161,82.6012937091291 160.79732313752174,85.90323028201237 157.85667969379574,88.93000126630068 156.72566298395395,90.85612616012804 156.49945964291692,95.25869122636504 158.0828830357641,99.38608824228868 156.27325630094856,102.96315960329957 155.36844293307513,105.43959032977 156.0470529589802,107.64085982413962 155.1422395920381,110.6676019039005 155.36844293307513,113.69433995871805 155.36844293307513,117.27138883504085 157.40427300985903,118.64717536675744 160.118713112548,120.57327511627227 163.5117632402107,121.94905965286307 166.4524066830054,122.77452997583896 169.61925346869975,122.22421646025032 172.3336935704574,120.02296106843278 174.8219303302467,117.27138883504085 176.4053537240252,113.41918211965822 176.63155706506222,110.3924436995294 176.85776040703058,107.36570125445724 176.85776040703058,104.06379581429064 176.17915038205683,100.76188558526337 176.85776040703058,97.45997056690976 177.08396374993026,94.70837105903774 177.98877711594105,91.40644725854509 177.53637043293566,88.37967956834473 176.17915038205683,85.62806908367202 174.3695236472413,83.7019397658296 172.3336935704574,82.87645527347922 169.16684678569436,82.05097048147582 166.4524066830054,82.05097048147582 163.28555989731103,83.7019397658296 161.47593316342682,84.25226259441115 159.44010308664292,86.45355257811025 157.85667969379574,88.37967956834473 157.63047635182738,91.40644725854509 156.72566298395395,95.25869122636504 157.17806966789067,98.28544977051206 156.49945964291692,102.13768209633417 156.49945964291692,104.06379581429064 156.0470529589802,108.46633533574641 154.68983290810138,112.31855043233372 155.1422395920381,116.17075901036151 156.49945964291692,118.09686085442081 160.34491645358503,119.19748974777758 163.5117632402107,121.3987459379714 166.67861002590507,121.3987459379714 170.07166015263647,119.74780399515294 172.3336935704574,118.09686085442081 174.14332030527294,115.07012865296565 175.72674369905144,111.21791821252555 175.50054035615176,107.64085982413962 176.17915038205683,104.33895478351042 176.17915038205683,100.76188558526337 176.85776040703058,97.45997056690976 177.08396374993026,93.6077303243801 178.21498045884073,89.48032283014618 177.08396374993026,87.55419677193277 175.04813367314637,85.62806908367202 172.3336935704574,83.97710119653493 168.2620334168896,82.87645527347922 164.64277994912118,83.15161680453457 161.9283398464322,84.80258529004641 159.21389974374324,87.27903577359393 158.0828830357641,90.0306442619767 157.63047635182738,92.78224942437373 156.49945964291692,96.90965093066916" stroke="#4DD2FF" stroke-dasharray="none" stroke-linecap="round" stroke-linejoin="round" stroke-width="0.5"><title>2013-11-16 10.4km</title><desc>9223370652294258807</desc></polyline><polyline fill="none" opacity="1" points="40.810890073888004,130.4712502779439 38.37842933367938,129.58357180282474 30.59455496352166,128.99178597261198 27.675602074712515,131.06303575029597 25.97287955507636,134.61374557600357 22.81068059336394,138.16445025079884 24.27015703730285,141.12336687929928 23.297172740101814,144.6740621116478 23.297172740101814,150.88776637450792 22.81068059336394,154.43844744330272 23.053926666267216,160.06034860108048 22.56743451859802,163.6110163643025 23.540418814867735,166.5699022328481 24.99989525973797,168.64112021238543 29.135078518651426,170.71233643963933 34.0,171.60000000009313 38.37842933367938,171.30411218269728 39.35141362901777,169.52878452418372 42.02712044399232,167.1616789775435 42.27036651875824,163.01923876185901 42.27036651875824,160.35623777890578 43.24335081502795,155.32611690624617 45.18931940756738,150.29598569567315 45.43256548140198,146.1535169382114 45.919057629071176,142.89871513913386 45.67581155523658,138.75623386260122 45.919057629071176,135.7973143735435 44.70282725803554,132.5424988034647 40.56764399912208,129.879464663798 36.91895288974047,128.99178597261198 33.270261778496206,128.99178597261198 29.378324592486024,130.4712502779439 26.7026177784428,132.24660626379773 25.486387407407165,136.38909855671227 23.783664888702333,141.12336687929928 23.783664888702333,144.08227993012406 23.540418814867735,146.74529861821793 22.81068059336394,150.88776637450792 23.053926666267216,154.73433729959652 22.81068059336394,157.69323389837518 23.053926666267216,162.72334990650415 24.02691096253693,165.09045974630862 26.459371704608202,167.1616789775435 31.081047111190856,171.00822432967834 34.972984296269715,171.00822432967834 38.62167540658265,169.82467255694792 40.810890073888004,168.64112021238543 43.48659688886255,165.38634831481613 44.216335110366344,162.72334990650415 43.973089036531746,158.58090218016878 44.459581185132265,153.8466676226817 45.43256548140198,150.88776637450792 46.162303702905774,147.33708015549928 46.162303702905774,143.7863887862768 46.405549777671695,139.64390901243314 45.919057629071176,135.7973143735435 43.72984296362847,132.5424988034647 41.054136148653924,130.4712502779439 36.91895288974047,128.4000000001397 33.270261778496206,128.99178597261198 29.864816741086543,130.4712502779439 26.7026177784428,131.95071368920617 24.02691096253693,134.90963782859035 23.297172740101814,140.23569226590917 23.540418814867735,143.7863887862768 23.053926666267216,147.33708015549928 24.51340311113745,150.88776637450792 22.81068059336394,156.50967568787746 22.080942370928824,160.35623777890578 22.81068059336394,164.2027938242536 23.053926666267216,166.27401380729862 26.7026177784428,168.64112021238543 29.621570666320622,170.12056055432186 34.486492147669196,170.71233643963933 37.89193718507886,170.12056055432186 41.054136148653924,168.64112021238543 43.24335081502795,165.68223684746772 43.973089036531746,162.13157208892517 44.94607333280146,158.58090218016878 45.43256548140198,155.0302271207329 45.67581155523658,151.77543712500483 46.162303702905774,148.81653337273747 46.405549777671695,145.26584414974786 46.89204192534089,139.3480173314456 46.405549777671695,135.7973143735435 44.70282725803554,133.13428377383389 41.54062829632312,130.4712502779439 38.864921481348574,129.2876789055299 34.0,128.69589300476946 31.081047111190856,129.58357180282474 28.40534029621631,130.76714303181507 25.97287955507636,133.13428377383389 24.99989525973797,134.31785328662954 24.27015703730285,135.7973143735435 25.486387407407165,139.3480173314456 25.243141333572567,140.82747537712567 24.756649184972048,144.9699531486258 23.297172740101814,149.1124239093624 22.56743451859802,152.3672174452804 22.080942370928824,157.39734439994209 21.10795807465911,159.46857014065608 21.837696296162903,160.94801602489315 23.297172740101814,163.90690511232242 25.97287955507636,165.68223684746772" stroke="#4DD2FF" stroke-dasharray="none" stroke-linecap="round" stroke-linejoin="round" stroke-width="0.5"><title>2013-11-03 10.7km</title><desc>9223370653417861807</desc></polyline><polyline fill="none" opacity="1" points="109.58876023907214,160.0800765901804 109.82551975175738,155.7600909504108 109.58876023907214,152.01609706040472 110.77255779877305,148.27209728653543 111.48283633589745,145.39209345774725 111.71959584765136,142.5120861462783 111.9563553603366,138.48007006268017 111.48283633589745,133.2960393568501 109.35200072731823,129.84001261997037 106.98440560605377,129.2640076763928 103.90653194859624,130.41601742454804 100.35513926763088,130.12801503995433 97.51402512192726,130.41601742454804 94.67291097715497,132.14403100241907 92.77883488032967,135.3120526385028 91.35827780794352,138.1920686531812 91.59503732062876,143.37608870584518 90.88475878350437,145.96809450211003 90.1744802473113,149.712097896263 89.46420171111822,153.4560954067856 88.51716366223991,155.7600909504108 88.28040415141732,159.2160800890997 88.28040415141732,162.96006266516633 89.70096122287214,167.28003524802625 92.77883488032967,169.5840174248442 97.27726561017334,171.31200259411708 100.59189877938479,171.60000000009313 104.3800509730354,170.16001262003556 107.69468414224684,167.28003524802625 108.16820316575468,162.6720642137807 110.29903877526522,158.06408426584676 110.53579828795046,154.60809345706366 110.53579828795046,151.44009747868404 110.77255779877305,147.1200961722061 111.00931731145829,142.80008703446947 112.19311487209052,139.0560727783013 112.42987438477576,135.3120526385028 110.29903877526522,132.7200352489017 108.87848170287907,130.41601742454804 105.80060804635286,128.9760051521007 102.01245585177094,128.4000000001397 98.22430365905166,129.2640076763928 94.90967048984021,129.84001261997037 89.70096122287214,133.8720433257986 88.99068268761039,135.0240508459974 88.99068268761039,136.46405946207233 90.1744802473113,139.63207535468973 89.93772073462605,143.66408948926255 88.51716366223991,147.69609680003487 88.51716366223991,150.57609784416854 87.57012561522424,154.32009399705566 87.57012561522424,157.48808614653535 87.80688512697816,160.65607408294454 87.57012561522424,163.5360594613012 89.22744219843298,166.7040393569041 91.35827780794352,169.00802208902314 94.19939195271581,169.87201503990218 97.9875441454351,169.5840174248442 102.01245585177094,168.72002436965704 106.51088658254594,166.99203731981106 108.40496267937124,164.4000543965958 110.29903877526522,160.65607408294454 109.82551975175738,156.62408870481886 110.29903877526522,152.59209650335833 110.53579828795046,149.13609775714576 110.77255779877305,145.39209345774725 111.00931731145829,141.93608426721767 112.19311487209052,139.34407408325933" stroke="#4DD2FF" stroke-dasharray="none" stroke-linecap="round" stroke-linejoin="round" stroke-width="0.5"><title>2013-11-02 10.5km</title><desc>9223370653505000807</desc></polyline><polyline fill="none" opacity="1" points="173.32475448958576,131.1000244792085 172.21494320314378,130.29001747770235 168.88550934474915,128.94000515691005 166.2219622572884,128.94000515691005 162.6705661425367,130.56001984444447 159.78505679685622,132.45003549358808 157.5654342258349,135.15005507646129 156.01169842481613,138.12007284793071 156.45562293939292,142.98009340977296 156.67758519575,145.68010026379488 156.23366068210453,149.19010429433547 156.01169842481613,151.35010403278284 156.01169842481613,152.97010246641003 155.56777391023934,155.67009724397212 155.12384939659387,158.6400877290871 156.23366068210453,162.15007139416412 157.5654342258349,164.85005507571623 160.67290582694113,167.0100396713242 164.22430194169283,168.3600289823953 167.7756980592385,168.3600289823953 169.77335837297142,167.82003335561603 172.65886771772057,165.66004954348318 174.6565280323848,162.96006684168242 175.54437706060708,159.18008557590656 175.54437706060708,155.94009654247202 175.7663393188268,152.70010280935094 175.54437706060708,149.46010437584482 175.54437706060708,146.49010168295354 176.43222609069198,142.98009340977296 176.87615060433745,140.01008210144937 176.43222609069198,137.31006839242764 175.32241480425,134.34004954481497 173.99064126145095,132.72003759886138 170.4392451448366,130.56001984444447 167.7756980592385,128.4000000001397 165.3341132281348,129.48001018329524 162.0046793706715,130.8300221778918 159.78505679685622,132.45003549358808 158.67524551134557,135.69005860155448 158.2313209977001,138.12007284793071 157.7873964831233,141.63008875912055 156.45562293939292,144.33009724435396 156.01169842481613,146.76010209089145 156.23366068210453,150.81010429398157 157.7873964831233,154.32010026299395 154.90188713837415,155.13009854895063 155.12384939659387,156.21009580790997 154.45796262472868,157.56009164638817 154.90188713837415,163.23006525845267 160.22898131329566,166.20004569296725 165.77803774364293,167.55003549298272 167.1098112873733,167.55003549298272 169.10747160110623,167.55003549298272 171.77101868763566,168.3600289823953 173.99064126145095,164.0400603134185 174.6565280323848,162.96006684168242 174.8784902896732,160.5300796192605 175.54437706060708,159.18008557590656 173.54671674594283,158.91008666879497 174.8784902896732,158.10008975397795 176.2102638334036,155.94009654247202 175.9883015761152,150.81010429398157 176.2102638334036,149.46010437584482 175.7663393188268,146.2201012421865 176.2102638334036,142.1700907170307 175.7663393188268,136.7700652598869 175.32241480425,133.26004171161912 173.54671674594283,129.75001264712773 169.55139611661434,129.48001018329524 165.77803774364293,129.21000768686645 162.6705661425367,130.56001984444447 159.78505679685622,132.72003759886138 156.67758519575,133.26004171161912 156.45562293939292,137.58006991050206 156.23366068210453,140.55008445074782 156.01169842481613,144.0600965428166 154.90188713837415,147.57010311936028 155.34581165295094,151.62010385282338 155.12384939659387,155.13009854895063 154.90188713837415,159.18008557590656 154.90188713837415,161.61007426702417 158.45328325405717,165.66004954348318 164.00233968626708,168.63002674723975 166.44392451550812,169.98001507879235 169.32943385839462,171.60000000009313 173.32475448958576,167.82003335561603 175.1004525469616,162.69006839231588 175.54437706060708,159.7200832911767 175.54437706060708,158.6400877290871 175.1004525469616,153.24010209064 174.8784902896732,148.92010417976417 175.32241480425,146.2201012421865 175.54437706060708,142.98009340977296 177.09811286255717,138.93007700890303 175.7663393188268,135.96006031497382 174.43456577509642,134.34004954481497 172.88082997407764,130.8300221778918 170.21728288847953,130.02001507859677 166.0,129.75001264712773 162.0046793706715,130.56001984444447 159.78505679685622,130.8300221778918 156.89954745396972,132.72003759886138 154.90188713837415,135.69005860155448 154.67992488108575,138.39007426798344 155.34581165295094,139.7400808769744 154.23600036650896,142.71009254432283 154.67992488108575,145.95010076928884 154.90188713837415,147.57010311936028 154.45796262472868,150.27010442432947 154.90188713837415,153.78010124200955 154.67992488108575,157.02009340864606 154.90188713837415,161.34007565444335 157.5654342258349,166.20004569296725 161.7827171124518,168.63002674723975 163.11449065618217,168.3600289823953 166.0,169.98001507879235 167.99766031466424,169.1700221770443 171.1051319167018,171.33000259427354 173.32475448958576,168.63002674723975 174.8784902896732,162.42006990942173 173.99064126145095,158.37008875748143 175.1004525469616,151.35010403278284 174.8784902896732,147.0301024664659 174.8784902896732,145.68010026379488 176.43222609069198,142.98009340977296 177.76399963349104,140.82008557626978 177.09811286255717,136.7700652598869 175.32241480425,132.1800333559513 173.10279223136604,129.75001264712773 169.9953206302598,128.6700025945902 166.0,128.94000515691005 161.1168303405866,130.56001984444447 157.1215097112581,132.1800333559513 156.67758519575,133.53004371840507 155.56777391023934,134.61005142168142 155.78973616752774,137.04006684245542 156.01169842481613,138.6600756549742 156.23366068210453,142.1700907170307 156.23366068210453,143.5200950417202 156.23366068210453,147.84010339644738 156.01169842481613,149.19010429433547 155.12384939659387,151.62010385282338 155.78973616752774,155.13009854895063 154.90188713837415,156.21009580790997 155.12384939659387,161.07007700833492 156.23366068210453,162.15007139416412 156.23366068210453,163.50006364332512 158.45328325405717,165.66004954348318 162.6705661425367,168.63002674723975 167.1098112873733,170.52001018356532 170.4392451448366,169.710017477395 171.99298094585538,168.09003118495457 175.32241480425,163.77006199466996 174.8784902896732,159.18008557590656 174.43456577509642,152.97010246641003 176.2102638334036,152.1601033960469 176.65418834704906,147.3001028096769 176.87615060433745,146.49010168295354 175.9883015761152,142.71009254432283 176.87615060433745,138.93007700890303 175.54437706060708,134.34004954481497 173.54671674594283,132.1800333559513 172.21494320314378,128.94000515691005 166.2219622572884,129.21000768686645 162.0046793706715,130.02001507859677 159.34113228321075,132.1800333559513 157.3434719676152,134.34004954481497 156.23366068210453,136.50006364448927" stroke="#4DD2FF" stroke-dasharray="none" stroke-linecap="round" stroke-linejoin="round" stroke-width="0.5"><title>2013-10-26 11.1km</title><desc>9223370654110301807</desc></polyline><polyline fill="none" opacity="1" points="43.92988085281104,197.14746748516336 44.39716936275363,193.1685153071303 44.163525108247995,191.17903669271618 43.462592341937125,189.75797950988635 43.22894808650017,187.76849800907075 42.5280153201893,183.78952995873988 41.126149787567556,180.3789805562701 36.9205531924963,178.67370399925858 33.649533617310226,178.10527820512652 29.67758127581328,180.66319319489412 27.574782977811992,181.51583090610802 25.00469616893679,184.3579543782398 23.135542125441134,187.76849800907075 24.537407658062875,190.32640248560347 25.238340423442423,193.1685153071303 25.238340423442423,196.86325683817267 24.30376340262592,199.9895720607601 23.836474891752005,203.68430287321098 23.602830636315048,206.81060902611353 24.537407658062875,208.23165590292774 23.836474891752005,212.77900013769977 25.939273189753294,215.62108581862412 28.275715744122863,217.89475188939832 31.079446808435023,218.46316806343384 34.350466382689774,217.89475188939832 38.32241872418672,216.18950254260562 41.59343829937279,213.91583482245915 42.5280153201893,209.93691102182493 42.29437106475234,206.52639954793267 42.76165957655758,202.26325324806385 42.76165957655758,198.85273064253852 42.76165957655758,195.1579922370147 44.163525108247995,191.4632480267901 45.79903489537537,189.18955639493652 46.7336119171232,186.63165068160743 46.49996766075492,184.07374218595214 44.163525108247995,181.23161837016232 41.126149787567556,179.81055517448112 38.08877446874976,177.25263925665058 34.81775489449501,176.4000000001397 31.313091062940657,177.82106525660492 28.509359998628497,180.09476788225584 25.939273189753294,182.6526807071641 25.471984679810703,185.77901482582092 25.471984679810703,189.4737679695245 25.00469616893679,192.60009301709943 24.537407658062875,196.86325683817267 21.733676593750715,199.9895720607601 22.20096510462463,203.68430287321098 21.967320849187672,207.94744659680873 22.434609359130263,211.07374708005227 22.434609359130263,213.91583482245915 24.537407658062875,216.75791912851855 27.574782977811992,219.0315841003321 30.845802552998066,219.60000000009313 34.81775489449501,219.0315841003321 37.38784170243889,217.610543750925 41.126149787567556,215.90529419737868 42.060726810246706,213.6316262029577 43.69623659737408,210.22112008789554 44.163525108247995,206.81060902611353 44.163525108247995,203.1158831268549 44.63081361912191,199.70536175812595 45.33174638450146,195.4422030900605 45.565390639938414,192.0316705906298 46.03267915081233,189.18955639493652 45.79903489537537,185.49480280443095 44.864457874558866,181.80004340759479 42.76165957655758,179.24212965508923 39.72428425680846,178.10527820512652 36.21962042618543,177.53685227409005 32.7149565955624,177.53685227409005 29.443937021307647,178.95791684417054 25.939273189753294,181.23161837016232 24.537407658062875,184.07374218595214 25.238340423442423,188.33692146651447 23.836474891752005,191.74745932617225 23.602830636315048,194.58957042940892 23.602830636315048,198.28430972713977 21.967320849187672,201.69483315735124 22.434609359130263,206.52639954793267 22.20096510462463,209.3684927856084 23.602830636315048,212.21058258996345 24.537407658062875,215.90529419737868 25.471984679810703,217.610543750925 31.079446808435023,219.0315841003321 35.051399149000645,218.46316806343384 37.62148595787585,216.18950254260562 41.82708255387843,212.77900013769977 43.462592341937125,211.9263737637084 44.163525108247995,209.08428361662664 43.69623659737408,205.95798048726283 43.69623659737408,202.26325324806385 43.69623659737408,199.13694104878232 44.163525108247995,195.72641390911303 45.565390639938414,192.31588182109408 45.79903489537537,189.18955639493652 45.79903489537537,186.34743876405992 45.79903489537537,183.78952995873988 43.462592341937125,181.23161837016232 41.59343829937279,178.10527820512652 38.08877446874976,176.96842620545067 33.88317787181586,178.10527820512652 29.91122553125024,180.09476788225584 27.574782977811992,183.22110540163703 25.471984679810703,186.34743876405992 24.07011914718896,188.33692146651447 23.836474891752005,192.0316705906298 22.9018978709355,195.4422030900605 22.434609359130263,199.13694104878232 23.135542125441134,202.26325324806385 21.733676593750715,205.38956129038706 21.2663880828768,208.51586517505348 22.434609359130263,213.6316262029577 24.537407658062875,215.90529419737868" stroke="#4DD2FF" stroke-dasharray="none" stroke-linecap="round" stroke-linejoin="round" stroke-width="0.5"><title>2013-10-20 10.7km</title><desc>9223370654628121807</desc></polyline><polyline fill="none" opacity="1" points="89.72552625928074,213.0792984876316 92.40582375694066,214.9811717160046 95.30947938002646,217.42643493087962 99.10656750109047,217.6981306800153 102.45693937223405,217.42643493087962 106.03066936973482,216.06795569579117 109.15768311638385,213.8943872116506 110.72118998877704,211.17742365039885 110.94454811420292,208.18875993951224 111.39126436412334,205.20009225560352 111.83798061311245,201.1246299177874 112.50805498752743,198.13595284009352 112.95477123744786,195.41897022980265 113.17812936194241,192.70198433613405 112.73141311202198,188.89819856663235 112.50805498752743,186.1812047897838 110.27447373978794,182.92080792272463 108.71096686646342,179.6604063261766 105.80731124430895,177.75850321003236 102.68029749765992,176.67170070740394 99.77664187457412,176.67170070740394 96.20291187800467,177.48680263385177 92.85254000686109,179.6604063261766 90.39560063369572,182.92080792272463 89.50216813571751,185.90950523177162 89.50216813571751,188.89819856663235 88.83209376130253,192.15858676331118 88.60873563587666,196.23406535829417 87.49194501247257,199.49444291344844 87.93866126146168,202.4831181843765 86.82187063805759,206.2868809637148 89.27881001029164,208.73215363710187 90.17224251013249,211.9925130638294 91.95910750795156,215.52456377237104 94.19268875569105,217.42643493087962 97.7664187522605,218.7849133447744 101.56350687332451,219.60000000009313 104.46716249547899,217.96982639585622 106.92410186771303,215.25286776060238 108.93432499095798,212.8076021813322 110.49783186521381,209.81894063809887 110.27447373978794,207.64536611060612 110.94454811420292,204.65669770352542 111.16790623962879,201.6680253231898 111.39126436412334,198.67934896820225 112.061338737607,196.23406535829417 112.50805498752743,191.88688792707399 112.50805498752743,188.62649933667853 111.16790623962879,183.19250784208998 109.3810412408784,179.6604063261766 106.47738561872393,178.03020375361666 102.01022312324494,176.4000000001397 98.43649312574416,176.67170070740394 95.53283750358969,178.03020375361666 92.40582375694066,179.9321066394914 90.84231688361615,183.19250784208998 90.6189587591216,186.72460380778648" stroke="#4DD2FF" stroke-dasharray="none" stroke-linecap="round" stroke-linejoin="round" stroke-width="0.5"><title>2013-10-19 10.2km</title><desc>9223370654714312807</desc></polyline><polyline fill="none" opacity="1" points="161.5015676394105,217.87201503897086 165.0529616093263,219.60000000009313 168.36759597994387,218.16001261910424 171.20871115475893,216.14402882475406 174.049826329574,213.55204715393484 174.76010512374341,210.38406572700478 175.70714351627976,206.06408426584676 175.23362432047725,202.03209450119175 175.47038391791284,197.71209789603017 175.70714351627976,194.83209580741823 176.41742231044918,190.8000870347023 177.36446070112288,187.05607277853414 175.94390311371535,183.0240508459974 174.76010512374341,180.14403100172058 171.20871115475893,177.55201016599312 167.18379798997194,176.39999999990687 163.39564442262053,177.55201016599312 160.31776964943856,179.2800243704114 158.66045246366411,182.44804715528153 157.4766544746235,185.32806421420537 157.23989487532526,187.92007659026422 156.76637568045408,191.6640894880984 155.81933728791773,195.12009617267177 155.1090584937483,198.28809789568186 154.87229889724404,201.45609540655278 154.87229889724404,205.48808614583686 155.34581809211522,209.23207143694162 157.00313527788967,212.97605084488168 158.1869332678616,214.99203731981106 161.028048443608,218.16001261910424 164.57944241166115,218.16001261910424 167.42055758740753,218.73600767576136 170.73519195895642,217.29601977346465 173.33954753633589,215.56803314224817 174.99686472211033,212.11205611890182 175.47038391791284,207.79207779001445 175.70714351627976,203.18409227347001 175.70714351627976,200.30409679887816 175.70714351627976,196.84809763496742 176.65418190788478,193.9680945011787 177.36446070112288,190.51208614674397 177.1277011046186,186.19206865271553 174.99686472211033,180.14403100172058 172.3925091456622,178.12801503925584 167.65731718577445,176.68800259334967 164.81620201002806,176.97600515233353 161.97508683428168,179.56802661530674 159.37073125783354,181.58404135890305 158.66045246366411,184.4640594618395 157.23989487532526,189.07208118587732 155.81933728791773,193.39209345704876 155.81933728791773,196.84809763496742 154.3987797005102,200.30409679887816 154.6355392979458,204.04809023649432 154.87229889724404,207.2160800884012 154.3987797005102,210.67206421284936 156.29285648372024,214.70403935597278 158.89721206203103,217.29601977346465 161.5015676394105,217.5840174241457 166.4735191958025,218.16001261910424 169.31463437061757,216.72002436965704 172.3925091456622,214.12804332445376 173.33954753633589,211.53605946153402 174.52334552630782,207.79207779001445 175.94390311371535,204.33608948858455 177.1277011046186,201.1680958061479 177.6012202994898,197.13609775644727 177.1277011046186,192.52809162973426 177.1277011046186,188.20807779114693 176.18066271208227,184.75206108111888 174.76010512374341,180.14403100172058 171.91898994892836,178.12801503925584 168.84111517574638,177.26400767685845 164.81620201002806,176.97600515233353 161.5015676394105,178.99202208942734 158.66045246366411,181.58404135890305 157.23989487532526,184.176057808334 157.9501736694947,187.63207535399124 156.76637568045408,192.24009095085785 157.23989487532526,196.27209728676826 156.76637568045408,200.01609705970623 155.81933728791773,203.47209162893705 156.05609688628465,207.5040789565537 155.34581809211522,210.0960672076326" stroke="#4DD2FF" stroke-dasharray="none" stroke-linecap="round" stroke-linejoin="round" stroke-width="0.5"><title>2013-10-12 10.6km</title><desc>9223370655320152807</desc></polyline><polyline fill="none" opacity="1" points="44.677387826144695,234.28242342267185 43.284685065969825,231.45887813949957 42.58833368588239,228.63532944396138 42.58833368588239,226.65884332591668 41.19563092570752,227.2235538160894 38.64234253298491,225.81177733442746 34.00000000093132,224.4000000001397 30.98247735388577,225.2470665036235 27.96495470777154,226.65884332591668 26.34013482183218,230.6118138891179 25.411666315048933,234.0000690475572 25.643783441744745,236.25890308944508 24.251080681569874,240.77656461950392 24.251080681569874,243.31774539034814 23.55472930241376,247.83539326884784 24.251080681569874,250.94127111579292 24.483197808265686,255.17655243445188 24.018963554874063,258.8471233653836 22.858377922326326,262.51768852747045 24.94743206165731,263.3647412073333 28.42918896023184,265.6235468534287 31.678828733973205,267.60000000009313 34.696351380087435,267.60000000009313 38.874459659680724,265.90589740499854 41.42774805333465,263.92944282409735 43.748919318430126,260.8235822466668 44.677387826144695,257.1530144221615 44.90950495097786,252.63538456475362 43.748919318430126,248.96480387263 43.98103644605726,243.8824518530164 45.141622078604996,239.92950374865904 45.37373920623213,236.82361125876196 46.30220771115273,234.0000690475572 45.60585633199662,231.74123282171786 43.05256793834269,228.07061929488555 38.874459659680724,226.65884332591668 35.39270276017487,225.81177733442746 32.60729724075645,225.81177733442746 30.286125973798335,226.94119858834893 26.34013482183218,228.91768446774222 24.94743206165731,231.74123282171786 24.018963554874063,235.12948634149507 24.251080681569874,239.0824425695464 24.251080681569874,242.47068544104695 24.483197808265686,245.57657042192295 24.251080681569874,249.24715643795207 22.626260795630515,251.78832799429074 21.92990941554308,254.61184870218858 21.697792288847268,257.435365997022 22.626260795630515,260.25887987948954 23.78684642817825,262.51768852747045 25.411666315048933,265.34119626670144 28.42918896023184,266.75294885598123 31.678828733973205,266.75294885598123 36.55328839365393,267.60000000009313 39.57081103976816,264.7764949919656 41.42774805333465,262.2353375663515 43.748919318430126,258.56477195979096 43.98103644605726,254.61184870218858 43.98103644605726,251.22362344292924 45.141622078604996,247.55304053192958 45.83797345869243,244.16480503370985 45.60585633199662,241.05891817482188 45.60585633199662,238.5177349471487 46.07009058445692,235.12948634149507 45.37373920623213,232.30594208301045 44.44527069851756,229.76474933186546 43.05256793834269,226.94119858834893 40.03504529315978,225.2470665036235 36.55328839365393,225.2470665036235 32.60729724075645,225.2470665036235 28.89342321548611,225.81177733442746 26.804369075223804,228.07061929488555 24.483197808265686,231.74123282171786 24.94743206165731,234.28242342267185 24.94743206165731,237.6706732562743 23.55472930241376,242.18833205639385 23.55472930241376,246.14127633837052 24.251080681569874,247.55304053192958 23.32261217571795,251.22362344292924 22.626260795630515,253.2000887747854 23.090495048090816,256.588311167201 23.78684642817825,259.6941773761064 24.251080681569874,262.80003945552744 25.875900567509234,265.34119626670144 27.73283758200705,266.4705984070897 34.00000000093132,266.4705984070897 38.17810827959329,266.4705984070897 40.267162419855595,265.34119626670144 43.98103644605726,261.95298657077365 43.284685065969825,257.1530144221615 43.05256793834269,252.63538456475362 44.21315357182175,249.81186146754771" stroke="#4DD2FF" stroke-dasharray="none" stroke-linecap="round" stroke-linejoin="round" stroke-width="0.5"><title>2013-10-06 10.6km</title><desc>9223370655838244807</desc></polyline><polyline fill="none" opacity="1" points="90.43855932168663,263.1692682597786 93.39805286563933,265.9384766018484 95.67458635941148,267.3230795171112 97.95111985504627,267.60000000009313 102.27653349470347,266.49231786769815 106.14664043672383,264.5538728488609 108.65082728024572,260.4000565716997 109.78909402806312,256.800076372223 110.01674737781286,253.47701270505786 110.47205407731235,250.4308667758014 111.61032082512975,247.3847167957574 110.92736077588052,243.78471614304 110.92736077588052,240.46163359680213 111.61032082512975,237.41547036124393 111.83797417394817,234.64622754161246 111.61032082512975,231.8769813736435 109.5614406792447,230.21543206600472 107.96786723192781,228.00003111502156 105.23602703865618,226.89232983626425 102.27653349470347,227.44618054293096 97.72346650529653,228.00003111502156 95.44693301152438,228.55388155416586 93.8533595642075,230.21543206600472 93.62570621352643,231.8769813736435 92.71509281732142,234.64622754161246 92.48743946664035,237.69239445892163 91.80447941832244,241.84625191055238 91.12151937000453,244.89240925433114 91.80447941832244,248.49240816570818 90.89386602025479,251.5385566733312 90.43855932168663,255.1385451410897 89.5279459245503,257.90776318963617 89.5279459245503,259.84621383203194 90.43855932168663,262.8923472412862 92.03213276807219,265.10771445115097 96.12989305891097,266.21539725130424 99.31703995261341,267.0461590006016 102.27653349470347,266.21539725130424 105.23602703865618,265.9384766018484 107.2849071836099,263.7231101959478 108.65082728024572,261.50774164893664 109.5614406792447,257.6308415350504 109.33378732949495,254.58470112946816 110.2444007275626,250.7077893000096 110.2444007275626,247.1077938694507 110.01674737781286,243.50779278133996 109.78909402806312,238.80009051598608 110.2444007275626,235.47700073826127 110.92736077588052,234.09237857535481 110.2444007275626,231.32313173846342 107.96786723192781,228.83080672309734 105.00837368983775,226.06155352527276 102.9594935439527,225.23077691416256 99.77234665118158,225.78462802176364 96.35754640772939,225.78462802176364 94.5363196125254,226.61540443263948 93.39805286563933,229.66158202895895 91.80447941832244,232.4308308751788 91.57682606950402,235.47700073826127 90.89386602025479,239.07701444602571 90.2109059728682,242.95394595898688 89.7555992724374,245.4462556091603 89.0726392250508,248.49240816570818 89.0726392250508,251.81547906342894 88.16202582698315,255.1385451410897 87.70671912748367,257.6308415350504 87.93437247723341,260.67697789077647 89.0726392250508,263.1692682597786 92.03213276807219,265.6615559179336 95.67458635941148,266.49231786769815 99.77234665118158,266.76923845126294 103.41480024252087,266.21539725130424 105.91898708697408,264.2769519982394 108.65082728024572,262.0615839860402 109.78909402806312,257.90776318963617 110.2444007275626,255.1385451410897 110.69970742613077,252.09240142116323 110.92736077588052,249.3231763425283 111.38266747444868,245.4462556091603 111.61032082512975,243.23086938657798 111.83797417394817,240.18470983416773 112.06562752369791,237.41547036124393 112.29328087251633,234.36930307536386 111.61032082512975,231.6000565723516 110.47205407731235,229.1077318591997 108.19552058167756,226.61540443263948 105.69133373815566,225.23077691416256 102.9594935439527,224.4000000001397 100.68296004924923,224.95385130867362 96.81285310722888,225.50770248449408 94.08101291395724,227.16925520659424 92.71509281732142,230.76928196917288 91.12151937000453,235.20007637282833 90.2109059728682,237.9693185237702 89.98325262311846,240.18470983416773 89.7555992724374,243.23086938657798 89.98325262311846,246.27702489006333 90.2109059728682,249.6000990010798 89.98325262311846,252.64624603441916 89.7555992724374,255.96931090718135 90.2109059728682,259.2923709584866 91.57682606950402,262.3385051051155 94.08101291395724,264.00003111432306 96.81285310722888,266.76923845126294 100.68296004924923,266.76923845126294 102.9594935439527,266.49231786769815 106.37429378647357,264.83079366665334 108.4231739314273,262.8923472412862 109.5614406792447,259.56929241190664 110.01674737781286,256.800076372223 110.92736077588052,253.75393486046232 110.92736077588052,250.4308667758014 111.61032082512975,247.6616396890022 111.61032082512975,244.61548602650873 111.38266747444868,241.56932831485756 112.52093422133476,237.9693185237702 111.61032082512975,235.20007637282833 110.69970742613077,231.8769813736435 110.01674737781286,229.3846569606103 107.51256053335965,227.72310584550723 104.32541364058852,226.06155352527276 101.36592009756714,226.61540443263948 97.26815980672836,226.89232983626425 94.30866626370698,228.83080672309734 92.94274616613984,230.76928196917288 90.89386602025479,234.09237857535481 90.43855932168663,236.30777363479137 89.5279459245503,239.90778603730723 89.7555992724374,242.95394595898688 88.61733252555132,246.00010183011182 88.61733252555132,249.3231763425283 87.93437247723341,252.64624603441916 87.47906577866524,255.96931090718135 88.16202582698315,259.2923709584866 89.30029257386923,262.3385051051155 92.71509281732142,264.2769519982394 96.35754640772939,265.9384766018484 98.8617332521826,265.38463520118967 102.27653349470347,264.5538728488609 104.78072033915669,261.7846628341358 107.96786723192781,259.84621383203194 109.5614406792447,257.35391984693706 110.2444007275626,255.1385451410897 110.47205407731235,251.81547906342894 110.92736077588052,248.49240816570818 111.15501412469894,246.00010183011182 111.61032082512975,242.12317547295243 111.15501412469894,239.35393834323622 111.38266747444868,235.20007637282833 111.61032082512975,231.8769813736435 110.92736077588052,229.9385070647113" stroke="#4DD2FF" stroke-dasharray="none" stroke-linecap="round" stroke-linejoin="round" stroke-width="0.5"><title>2013-09-29 10.5km</title><desc>9223370656443428807</desc></polyline><polyline fill="none" opacity="1" points="156.33481972385198,251.7418679993134 156.33481972385198,255.29628656315617 156.33481972385198,258.57728335657157 157.6834495300427,261.8582753909286 160.38070914242417,263.22535400046036 163.752283657901,265.13926266669296 166.89908653870225,265.13926266669296 169.37157451640815,264.0456007702742 172.29360576253384,263.22535400046036 174.31655047181994,261.0380278278608 175.66518027801067,258.3038671386894 176.5642668157816,255.29628656315617 176.5642668157816,251.7418679993134 176.5642668157816,248.73427869705483 177.23858171794564,246.00010313582607 177.23858171794564,242.17225179541856 178.36243989039212,238.8912312053144 177.68812498729676,237.25071912514977 176.78903844952583,234.51652968092822 175.66518027801067,230.68865890661255 173.86700720340014,227.95446153078228 171.39451922569424,225.49368106527254 170.0458894195035,225.76710125035606 166.00000000093132,224.94684059894644 163.30274038854986,226.5873616025783 160.83025241084397,228.22788141667843 159.7063942393288,232.055756355403 158.35776443313807,233.6962722032331 157.6834495300427,238.6178126083687 157.00913462694734,240.80516046099365 156.78436299227178,244.9064319843892 156.78436299227178,247.09377375710756 156.55959135852754,249.28111341316253 156.55959135852754,253.38236956926994 155.2109615523368,255.56970314332284 155.6605048207566,261.0380278278608 156.55959135852754,263.4987696236931 161.95411058235914,265.4126780577935 164.2018269263208,265.95950874197297 167.5734014417976,265.95950874197297 171.61929085943848,264.86584724183194 174.5413221064955,262.1316911787726 176.5642668157816,258.0304508882109 177.23858171794564,253.65578638156876 175.66518027801067,250.92161676776595 174.09177883714437,249.55453072185628 175.88995191268623,245.17984982184134 177.4633533526212,239.98490526387468 177.91289662197232,238.07097531366162 177.23858171794564,235.06336783478037 178.36243989039212,231.235497985268 175.66518027801067,228.50130126997828 172.9679206656292,225.49368106527254 171.16974759101868,224.94684059894644 165.77522836625576,225.49368106527254 164.2018269263208,225.76710125035606 161.27979567926377,228.22788141667843 158.80730770155787,230.41523931804113 158.1329927984625,232.87601442844607 157.6834495300427,236.43046263838187 156.55959135852754,241.07857879367657 157.00913462694734,244.35959621169604 157.23390626069158,246.54693851224147 156.55959135852754,250.92161676776595 157.00913462694734,254.20261990698054 155.6605048207566,258.3038671386894 156.33481972385198,261.5848595700227 156.55959135852754,263.4987696236931 160.38070914242417,264.86584724183194 163.97705529164523,267.3265848727897 166.22477163467556,266.77975451922975 169.14680288173258,265.95950874197297 172.0688341287896,264.86584724183194 174.9908653749153,261.5848595700227 175.21563700959086,259.3975318111479 175.88995191268623,256.66336913825944 176.78903844952583,253.92920316033997 177.91289662197232,250.92161676776595 177.0138100842014,247.3671913293656 175.88995191268623,243.53934230282903 176.11472354643047,240.5317420954816 176.5642668157816,237.25071912514977 177.68812498729676,236.43046263838187 178.58721152413636,232.87601442844607 177.23858171794564,230.14181969570927 178.36243989039212,230.41523931804113 177.91289662197232,227.68104161159135 174.76609374023974,226.31394151831046 171.39451922569424,225.22026084875688 168.24771634489298,224.6734203158412 164.2018269263208,225.76710125035606 161.0550240445882,228.22788141667843 158.35776443313807,230.14181969570927 158.1329927984625,233.42285297834314 155.88527645543218,237.25071912514977 154.53664664924145,241.62541536078788 156.11004808917642,241.62541536078788 156.78436299227178,243.2659242679365 156.33481972385198,246.8203561506234 155.6605048207566,250.92161676776595 153.41278847679496,253.10895272321068 155.43573318701237,256.11653620772995 155.6605048207566,258.57728335657157 157.23390626069158,262.9519383441657 159.256850970909,265.4126780577935 161.95411058235914,266.23292403365485 165.77522836625576,266.23292403365485 169.37157451640815,267.60000000009313 172.9679206656292,266.23292403365485 174.09177883714437,264.0456007702742 174.31655047181994,260.49119595531374 175.66518027801067,259.3975318111479 175.88995191268623,255.29628656315617 177.91289662197232,248.73427869705483 177.91289662197232,244.08617827459238 175.88995191268623,241.35199709353037 176.5642668157816,238.07097531366162 177.0138100842014,235.61020585522056 177.4633533526212,232.055756355403 177.23858171794564,230.14181969570927 175.66518027801067,227.1342016728595 172.0688341287896,225.76710125035606 168.69725961331278,224.4000000001397 166.00000000093132,225.76710125035606 163.52751202322543,226.8607816544827 160.38070914242417,229.04814087809063 157.45867789536715,232.055756355403 155.6605048207566,235.61020585522056 156.78436299227178,239.16464976919815 157.00913462694734,243.53934230282903 157.00913462694734,246.8203561506234 156.33481972385198,250.64819962508045 154.761418283917,253.10895272321068 156.33481972385198,256.66336913825944 155.6605048207566,259.3975318111479 156.78436299227178,262.4051069342531 157.6834495300427,264.86584724183194 161.7293389486149,264.31901629362255 164.2018269263208,265.95950874197297 167.5734014417976,265.13926266669296 170.72020432259887,264.592431783909 172.5183773972094,263.4987696236931 174.9908653749153,259.6709478965495 177.23858171794564,257.4836182866711 177.23858171794564,254.20261990698054 177.23858171794564,252.83553584385663" stroke="#4DD2FF" stroke-dasharray="none" stroke-linecap="round" stroke-linejoin="round" stroke-width="0.5"><title>2013-09-22 10.9km</title><desc>9223370657048162807</desc></polyline></svg>