<?xml version="1.0" encoding="utf-8" ?>
<svg baseProfile="full" height="300mm" version="1.1" viewBox="0,0,200,300" width="200mm" xmlns="http://www.w3.org/2000/svg" xmlns:ev="http://www.w3.org/2001/xml-events" xmlns:xlink="http://www.w3.org/1999/xlink"><defs /><rect fill="#222222" height="300" width="200" x="0" y="0" /><text fill="#FFFFFF" style="font-size:12px; font-family:Arial; font-weight:bold;" x="10" y="20">Over 10km Runs</text><text fill="#FFFFFF" style="font-size:4px; font-family:Arial" x="10" y="280">Runner</text><text fill="#FFFFFF" style="font-size:9px; font-family:Arial" x="10" y="290">keep</text><text fill="#FFFFFF" style="font-size:4px; font-family:Arial" x="65" y="280">SPECIAL TRACKS</text><rect fill="yellow" height="2.6" width="2.6" x="65" y="283" /><text fill="#FFFFFF" style="font-size:3px; font-family:Arial" x="70" y="285.5">Over 20.0 km</text><rect fill="red" height="2.6" width="2.6" x="65" y="287" /><text fill="#FFFFFF" style="font-size:3px; font-family:Arial" x="70" y="289.5">Over 40.0 km</text><text fill="#FFFFFF" style="font-size:4px; font-family:Arial" x="120" y="280">STATISTICS</text><text fill="#FFFFFF" style="font-size:3px; font-family:Arial" x="120" y="285">Number: 15</text><text fill="#FFFFFF" style="font-size:3px; font-family:Arial" x="120" y="290">Weekly: 1.2</text><text fill="#FFFFFF" style="font-size:3px; font-family:Arial" x="141" y="285">Total: 163.6 km</text><text fill="#FFFFFF" style="font-size:3px; font-family:Arial" x="141" y="290">Avg: 10.9 km</text><text fill="#FFFFFF" style="font-size:3px; font-family:Arial" x="167" y="285">Min: 10.2 km</text><text fill="#FFFFFF" style="font-size:3px; font-family:Arial" x="167" y="290">Max: 14.0 km</text><polyline fill="none" opacity="1" points="26.459727999055758,75.59999999999854 26.45094492158387,75.27942772726237 26.51242646377068,74.96990849427675 26.52120954124257,74.66038810530881 26.51242646377068,74.30664910239284 26.503643386357,73.99712623634696 26.51242646377068,73.6986566634514 26.529992618772667,73.32280456112494 26.53877569618635,73.05749616847606 26.62660647078883,72.79218692646828 26.828617252467666,72.68164115829859 27.100892653746996,72.6705865733602 27.162374195992015,72.52687683510885 27.197506505821366,72.39422147090227 27.215072660706937,72.17312872534967 27.241421893122606,71.8414885010643 27.127241886162665,71.520901689335 26.846183407353237,71.37718995735486 26.76713571016444,71.11187533586781 26.837400329881348,70.69179211461596 26.8725326397107,70.41542041295907 26.925231104483828,70.08377315431426 26.969146491785068,69.73001461545209 27.021844956558198,69.40941963514342 27.030628034088295,69.18831892605522 27.118458808632568,69.03354807867436 27.162374195992015,68.88983203301905 27.144808041048236,68.69084017368004 27.153591118520126,68.61345432155213 27.215072660706937,68.4144617985221 27.276554203010164,68.13808250155853 27.346818822668865,67.87275750921253 27.425866519857664,67.54110007412237 27.504914216988254,67.2315519370386 27.592744991590735,66.93305799540394 27.715708076080773,66.72300605859346 27.873803470400162,66.7451168138432 28.11094656185014,66.83355977589235 28.34808965330012,66.70089529739198 28.56766658986453,66.49084277205111 28.65549736446701,66.23656794999988 28.8135927587864,65.92701493954519 28.980471230577677,65.61746077261341 29.14734970231075,65.33001658214198 29.296662019158248,65.05362699706166 29.454757413535845,64.78829212801793 29.612852807797026,64.45662234690099 29.779731279588304,64.15811840874085 29.981742061208934,63.7601114850404 30.21010207524523,63.38421430160088 30.43846208922332,62.97514778195182 30.6053405610146,62.687694424777874 30.79856826516334,62.389184113708325 30.974229814426508,62.10172872360272 31.105975976330228,61.891664538605255 31.281637525593396,61.62631954365497 31.483648307214025,61.316749308833096 31.589045236760285,61.01823405841424 31.738357553549577,60.68654918534594 31.922802180226427,60.37697543912509 32.159945271734614,60.13373811280326 32.41465451812837,59.94578150787129 32.58153298991965,59.69148659898201 32.75719453912461,59.415078204001475 32.84502531372709,59.34874005202437 32.95920532074524,59.105499706900446 33.0646022502915,58.8622586475758 33.14364994742209,58.696412061362935 33.34566072910093,58.60796041293361 33.49497304589022,58.63007333389396 33.60036997543648,58.53056514311902 33.72333305992652,58.375774386564444 33.907777686661575,58.198870310639904 34.092222313338425,57.944570039748214 34.285450017487165,57.712382154168154 34.31179924990283,57.502306839829544 34.26788386260159,57.17060789048264 34.303016172430944,56.92736115023581 34.478677721635904,56.662000255440944 34.68947158072842,56.440865527125425 34.84756697504781,56.18655985983787 34.97053005947964,55.84379881229688 35.12862545379903,55.57843444664468 35.40968393260846,55.31306923097145 35.62047779170098,55.0919309019373 35.76100703107659,54.815507160514244 35.883970115566626,54.494854464923264 36.01571627747035,54.20737168261985 36.287991678807884,53.99728748004418 36.54270092520164,53.97517332246207 36.73592862935038,53.68768873672525 36.83254248142475,53.36703167561791 36.89402402366977,53.07954497937317 36.95550556585658,52.76994280609506 37.03455326304538,52.40505304493854 37.13116711511975,52.06227635063988 37.1662994249491,51.90747350761376 37.21899788978044,51.719498237886 37.27169635449536,51.387776133138686 37.35074405162595,50.9897078539143 37.44735790375853,50.61375272256555 37.55275483324658,50.20462314088218 37.59667022060603,49.85077971088322 37.67571791773662,49.53010779683973 37.76354869239731,49.18731920555729 37.85137946699979,48.800298123358516 37.90407793171471,48.44644869428885 37.97434255143162,48.10365561839717 38.06217332609231,47.705571556325594 38.1412210232229,47.35171745058324 38.202702565467916,47.05315187299857 38.281750262656715,46.6992949800333 38.33444872737164,46.400727050691785 38.413496424560435,46.1353324321899 38.439845656917896,46.00263480402646 38.483761044219136,45.71512254708796 38.55402566387784,45.37231816707936 38.633073361066636,45.007395816421194 38.712121058255434,44.65353018329188 38.773602600442246,44.37707160541322 38.782385677914135,44.2664879159056 38.826301065215375,43.99002804612974 38.887782607460395,43.68039189639967 38.9580472271773,43.29334508137981 39.02831184689421,42.961589228900266 39.09857646655291,42.69618359008746 39.14249185385415,42.50818741468538 39.18640724115539,42.364425345549535 39.23032262851484,42.26489761303674 39.26545493834419,42.13219378366193 39.22153955104295,41.899961570539745 39.23910570592852,41.645611256652046 39.28302109322976,41.369142638126505 39.35328571294667,41.17008466136758 39.41476725519169,41.00420264852437 39.66947650158545,41.048437884463056 39.96810113528045,41.15902587083838 40.25794269150356,41.258554932319385 40.45995347312419,41.31384880371479 40.52143501536921,41.08161429586471 40.539001170312986,40.82726146867935 40.530218092841096,40.539731245116855 40.547784247784875,40.16372867723112 40.574133480142336,39.76560645051359 40.644398099859245,39.45595450654946 40.55656732519856,39.20159668644919 40.38090577593539,39.13524234404031 40.08228114224039,39.179478578204 39.78365650854539,39.2568919311816 39.71339188888669,39.091006086207926 39.74852419877425,38.78135161985119 39.81878881843295,38.4495776924814 39.88027036067797,38.12886163256189 39.96810113528045,37.76390736387111 40.04714883246925,37.43212936028431 40.09106421977049,37.10035002746736 40.13497960701352,36.7906881175586 40.17889499437297,36.50314387863182 40.19646114931675,36.3151336441224 40.1525457619573,36.1713608238133 40.28429192386102,36.07182564816321 40.486302705539856,35.972290352867276 40.530218092841096,35.828516937333916 40.36333962104982,35.706862313825695 40.37212269852171,35.52990981518815 40.37212269852171,35.3861356315756 40.530218092841096,35.39719519302889 40.723445796989836,35.41931431148987 40.872758113837335,35.40825475301244 41.013287353212945,35.40825475301244 41.18894890247611,35.37507606865256 41.35582737426739,35.35295693837543 41.39095968409674,35.07646731136629 41.43487507139798,34.62302232457296 41.48757353617111,34.24699289123237 41.52270584605867,33.93732031107356 41.51392276852857,33.727184686365945 41.54027200094424,33.52810833945841 41.55783815588802,33.34009135019005 41.4260919939843,33.25161261926405 41.18894890247611,33.229492921767815 41.00450427579926,33.18525350905111 40.828842726536095,33.09677461267711 40.574133480142336,33.05253512906347 40.24037653661799,32.97511597582343 39.9329688254511,32.93087642716273 39.63434419169789,32.831337356357835 39.29180417070165,32.78709773090668 39.01074569195043,32.698618409078335 38.799951832857914,32.56589924907894 38.589157973765396,32.57695918723766 38.27296718512662,32.56589924907894 37.98312562890351,32.5548393095014 37.66693484032294,32.53271942589345 37.34196097421227,32.4995395893493 37.06090249540284,32.45529978664854 36.727145551820286,32.4331798764033 36.507568615314085,32.41105996026454 36.490002460428514,32.4331798764033 36.410954763239715,32.665438639021886 36.358256298466586,32.875576958147576 36.314340911165345,33.06359500216786 36.287991678807884,33.295851996546844 36.261642446392216,33.47280926928943 36.19137782667531,33.69400532842701 36.112330129544716,33.859901985029865 36.00693319999846,34.04791779407242 35.95423473522533,34.2138137416041 35.89275319298031,34.40182874704624 35.79613934090594,34.57878365636134 35.72587472124724,34.75573818748671 35.64682702405844,34.92163271699246 35.54143009451218,35.14282490603364 35.40090085513657,35.29765908682748 35.36576854530722,35.57414797529054 35.26037161576096,35.817457433491654 35.11105929891346,36.138182445232815 34.96174698206596,36.49208446488046 34.81243466521846,36.7906881175586 34.671905425784644,37.10035002746736 34.531376186409034,37.387892192724394 34.390846947033424,37.68649261526298 34.232751552714035,37.99615117547364 34.092222313338425,38.28369023034611 33.96925922884839,38.54911001025903 33.881428454245906,38.73711517298216 33.81994691200089,38.79241072789591 33.740899214870296,38.88088353887724 33.67941767262528,39.06888794844417 33.65306844020961,39.36748230991361 33.48618996847654,39.65501660345035 33.35444380651461,39.909373030939605 33.27539610938402,40.10843403796025 33.32809457415715,40.23008219559415 33.54767151066335,40.2632589348359 33.863862299360335,40.2632589348359 34.188836165412795,40.31855347073724 34.50502695405157,40.36278907286032 34.84756697504781,40.40702465135837 35.18132391857216,40.45126020623866 35.47994855226716,40.49549573745753 35.77857318596216,40.52867237040482 35.936668580339756,40.462319091275276 35.98058396758279,40.2632589348359 36.033282432414126,40.042080422106665 36.024499354942236,39.94254989868932 36.173811671789736,39.98678570163611 36.217727059090976,40.16372867723112 36.2001609041472,40.45126020623866 36.12989628443029,40.81620263236982 36.05963166477159,41.15902587083838 35.98058396758279,41.56820013648394 35.91031934792409,41.93313764087361 35.83127165073529,42.26489761303674 35.77857318596216,42.58559765624523 35.70830856630346,42.89523789896339 35.66439317900222,43.204876983996655 35.68195933388779,43.53663186197082 35.49751470721094,43.80203480755881 35.39211777772289,44.045320093900955 35.3042870030622,44.366013243103225 35.25158853828907,44.6867051506124 35.23402238334529,44.94104612535739 35.35698546783533,45.095861988455 35.39211777772289,45.40549284651206 35.32185315800598,45.77041344323516 35.23402238334529,46.17956492766825 35.1549746862147,46.533424041037506 35.09349314402789,46.898339668347035 35.04957775666844,47.28536963748047 35.04079467925476,47.60605024188408 35.03201160172466,47.94884537717007 35.04079467925476,48.29163909373892 35.01444544683909,48.66760476458148 35.0056623693672,48.99933776289254 34.97053005947964,49.34212713213492 34.95296390459407,49.66279977389058 34.90026543982094,49.98347117425874 34.84756697504781,50.3373140374315 34.75973620044533,50.68009786973562 34.81243466521846,51.00076533192623 34.76851927785901,51.34354641878599 34.69825465820031,51.69738347225939 34.531376186409034,52.02910433719808 34.346931559732184,52.28342276737385 34.083439235866535,52.49351131643198 33.837513066944666,52.70359933270083 33.60036997543648,52.924744037372875 33.36322688404471,53.14588815168099 33.26661303197034,53.31174584999826 33.14364994742209,53.46654606878292 33.02068686299026,53.643460250365024 32.90650685597211,53.85354535024089 32.80989300389774,54.16314347374282 32.65179760957835,54.494854464923264 32.47613606037339,54.815507160514244 32.32682374352589,55.080873970007815 32.212643736507744,55.34623992941488 32.203860659035854,55.57843444664468 32.370739130768925,55.7553441181808 32.35317297588335,56.03176472365158 32.238992968865205,56.30818440680014 32.291691433638334,56.40769526695658 32.203860659035854,56.33029794161848 32.054548342188355,56.50720600758359 31.852537560567725,56.82785091429105 31.668092933890875,57.04898460963159 31.4221667649108,57.29223099278897 31.272854448121507,57.57970307022333 31.19380675093271,57.84506102564046 31.04449443408521,58.088305071389186 30.93031442706706,58.198870310639904 30.6756051806733,58.17675727461028 30.42089593433775,58.16570075436175 30.131054378056433,58.11041813105112 29.814863589417655,58.11041813105112 29.542588188138325,58.12147465866292 29.402058948762715,58.154644232665305 29.314228174102027,58.154644232665305 29.226397399499547,58.36471789290954 29.077085082652047,58.57479102045181 29.04195277276449,58.8290893568992 28.980471230577677,59.09444331059058 28.831158913730178,59.326627322880086 28.8135927587864,59.415078204001475 28.65549736446701,59.580923351641104 28.44470350537449,59.77993709058501 28.24269272381207,59.99000662974868 28.29539118852699,60.189019386038126 28.3656558082439,60.29958182184055 28.42713735048892,60.45436898411572 28.46226966031827,60.70866155153635 28.47983581526205,60.940841040122905 28.45348658284638,60.86344794955221 28.26904195616953,60.87450410978636 28.102163484378252,61.15090763584158" stroke="#4DD2FF" stroke-dasharray="none" stroke-linecap="round" stroke-linejoin="round" stroke-width="0.5"><title>2017-12-17 14.0km</title><desc>9223370523376934807</desc></polyline><polyline fill="none" opacity="1" points="100.59820259315893,32.39999999999418 100.4869090874563,32.73263127278187 100.5147324638674,32.9077000253601 100.6677610342158,33.69550652283942 100.57037921668962,33.95810763830377 100.73731947521446,34.27322828353499 100.82078960450599,34.55333488890028 100.86252466915175,34.868454105599085 100.89034804562107,35.27110533743689 100.90425973379752,35.638742340379395 100.94599479844328,35.936352493590675 101.00164155138191,36.286481221948634 101.09902336879168,36.566583532388904 101.14075843343744,36.8992042500322 101.19640518631786,37.249330410922994 101.23814025096362,37.58194939902751 101.44681557413423,37.61696187504276 101.62766752095195,37.774517901736544 101.58593245630618,37.94957993183925 101.40508050948847,38.05461703792389 101.32161038025515,38.24718484748155 101.41899219772313,38.50977685992257 101.55810907989508,38.84239265516226 101.68331427383237,39.15750157868024 101.75287271483103,39.47260974600795 101.90590128517943,39.770211209746776 102.05892985552782,40.06781199896068 102.23978180228733,40.41792971100949 102.22587011411088,40.715529032298946 101.96154803805985,40.768046489567496 101.71113765024347,40.6104940547375 101.5163740151911,40.45294143092178 101.3076986920205,40.330400370570715 101.04337661596946,40.43543557214434 100.80687791632954,40.43543557214434 100.59820259315893,40.59298821698758 100.61211428133538,40.768046489567496 100.62602596957004,41.04813924028713 100.37561558181187,41.188185391554725 100.06955844099866,41.31072565141949 99.79132467677118,41.36324287067691 99.47135584789794,41.36324287067691 99.49917922430905,41.135668102346244 99.56873766536592,40.820563925852184 99.6661194828921,40.54047068973887 99.76350130036008,40.1903533043951 99.81914805318229,39.78771715720359 99.8469714296516,39.43759776480147 99.79132467677118,39.08747743880667 99.73567792389076,38.66733181524614 99.5130909124855,38.57980130787473 99.20703377184691,38.57980130787473 99.04009351326386,38.4047401179414 99.01227013685275,38.28219714613806 98.99835844861809,38.019604678614996 98.98444676038343,37.792024115275126 98.81750650185859,37.73950546767446 98.62274286692264,37.70449302432826 98.44189092010492,37.721999247180065 98.40015585540095,37.897061347350245 98.41406754369382,38.194666381969 98.42797923187027,38.52728297538124 98.44189092010492,38.84239265516226 98.46971429657424,39.15750157868024 98.46971429657424,39.507621717930306 98.46971429657424,39.84023498556053 98.46971429657424,40.13783561610035 98.48362598469248,40.48795314146264 98.46971429657424,40.820563925852184 98.48362598469248,41.11816233457648 98.49753767298535,41.38074860571942 98.5114493611618,41.625828651755 98.49753767298535,41.835896898512146 98.48362598469248,42.11598737144959 98.45580260833958,42.37857164729212 98.44189092010492,42.60614426154643 98.41406754369382,42.798705396431615 98.40015585540095,43.04378279596858 98.3584207908134,43.28885973810975 98.37233247904805,43.498925324573065 98.37233247904805,43.79651766335883 98.37233247904805,44.12912006746046 98.37233247904805,44.47922695118177 98.3584207908134,44.81182762609387 98.37233247904805,45.12692222534679 98.38624416728271,45.459521259821486 98.38624416728271,45.75710915554373 98.40015585540095,46.107211698938045 98.40015585540095,46.369787994015496 98.40015585540095,46.6848788549687 98.37233247904805,46.894939008998335 98.37233247904805,47.157513728918275 98.34450910263695,47.40258299392008 98.40015585540095,47.70016648649471 98.44189092010492,47.98024445178453 98.48362598469248,48.277826635414385 98.52536104933824,48.627922458719695 98.58100780227687,49.013026786386035 98.6644779315684,49.38062531838659 98.77577143721282,49.713213579772855 98.8731532546808,49.97578266482742 98.99835844861809,50.325873961657635 99.09574026614428,50.62345083014225 99.23485714819981,50.868513627385255 99.29050390113844,51.008549306192435 99.40179740678286,51.25361138478911 99.5130909124855,51.4986730060773 99.55482597713126,51.69122110202443 99.58264935360057,51.883768915664405 99.72176623571431,52.02380351188185 99.8469714296516,52.16383795882575 99.95826493535424,52.338880807496025 100.06955844099866,52.513923422884545 100.19476363493595,52.741478474083124 100.30605714063859,52.95152894065541 100.50082077569095,53.109066570104915 100.6955844106269,53.371628865934326 100.87643635744462,53.63419063677429 101.04337661596946,53.879247816003044 101.21031687455252,54.12430453802517 101.27987531560939,54.28184076071193 101.40508050948847,54.50939274877601 101.58593245630618,54.771952245093416 101.76678440300748,55.01700730131415 101.96154803805985,55.34958128927974 102.08675323193893,55.55962758461828 102.25369349052198,55.82218498134171 102.40672206087038,56.084741853162996 102.58757400762988,56.399809406575514 102.7684259544476,56.697372513008304 102.9492779012071,57.012438596764696 103.14404153620126,57.31000031523581 103.32489348290255,57.5550506360305 103.53356880613137,57.887618197186384 103.68659737647977,58.167674437660025 103.90918438788503,58.51774389849743 104.1039480228792,58.780295381788164 104.25697659322759,59.077853095091996 104.39609347534133,59.34040345878748 104.56303373392439,59.585449991354835 104.72997399250744,59.84799934037437 104.91082593920873,60.12805140083947 105.03603113314603,60.355593260290334 105.21688307990553,60.60063789882406 105.41164671489969,60.880688354576705 105.57858697348274,61.160738213162404 105.73161554383114,61.388278283615364 105.89855580235599,61.720836139051244 106.0794077491737,62.035890172817744 106.2880830723443,62.36844638855837 106.4411116426927,62.64849307507393 106.63587527768686,62.963544883721625 106.87237397732679,63.31360156259325 107.03931423585163,63.57614345951879 107.19234280620003,63.82118208985776 107.35928306478309,64.10122567907092 107.55404669971904,64.41627400327707 107.72098695824388,64.7488241924002 107.91575059323804,65.08137353959319 108.06877916370286,65.37891697863233 108.22180773393484,65.67645974374318 108.33310123969568,65.97400183480931 108.47221812175121,66.34155289916089 108.5417765629245,66.63909348366724 108.5695999393356,66.79661469679559 108.44439474539831,66.95413572098187 108.40265968075255,67.04164731944911 108.50004149827873,66.95413572098187 108.66698175680358,67.02414500442683 108.73654019791866,67.251674917934 108.83392201532843,67.51420894377225 108.94521552114747,67.82924908222049 109.07042071502656,68.17929279430246 109.19562590890564,68.5293355735921 109.32083110284293,68.87937742010399 109.40430123213446,69.14190819286159 109.48777136142598,69.40443844089168 109.62688824353972,69.71947404602543 109.73818174924236,69.9995050606667 109.84947525488678,70.27953547840298 109.93294538417831,70.54206345295825 109.97468044876587,70.7870890891063 110.07206226635026,71.06711782791535 110.18335577199468,71.38214944557694 110.29464927775552,71.69718030774675 110.3920310952235,72.01221041439567 110.48941291274969,72.29223654164525 110.572883041983,72.55476049380377 110.6980882359203,72.86978854390327 110.80938174156472,73.13231134192029 110.93458693550201,73.46483946627995 111.04588044126285,73.77986533394142 111.18499732337659,74.0948904461111 111.28237914084457,74.339909455608 111.3658492701361,74.53242407100333 111.46323108766228,74.82994610357855 111.61625965795247,75.03996125025151 111.64408303436358,75.1624699307431 111.65799472259823,75.35498334075965 111.60234796977602,75.5824988251843 111.42149602301652,75.52999528689543 111.24064407625701,75.28497849701671 111.0597921294393,75.02246000082232 110.83720511809224,74.74243969336385 110.58679473021766,74.42741613392718 110.29464927775552,74.12989318976179 110.00250382529339,73.86737238532805 109.75209343741881,73.62235249453806 109.50168304960243,73.35983067580673 109.27909603819717,73.09730833247886 109.02868565032259,72.86978854390327 108.79218695074087,72.64226836130547 108.48612981004408,72.3272397655528 108.22180773393484,72.08221700218564 107.99922072252957,71.85469545549131 107.67925189359812,71.55716668447712 107.4149298176053,71.32964422841906 107.10887267696671,71.15462668638793 106.80281553621171,71.0146124848834 106.4411116426927,70.9271035330894 106.0794077491737,70.87459813409077 105.74552723200759,70.80459090274235 105.41164671489969,70.71708181111899 105.11950126243755,70.66457632817037 104.7717090571532,70.57706714321102 104.42391685169423,70.55956529923424 104.09003633464454,70.48955790001492 103.71442075289087,70.38454673117667 103.51965711795492,70.33204111532541 103.32489348290255,70.27953547840298 103.13012984790839,70.24453170888592 102.92145452473778,70.20952792996832 102.69886751333252,70.19202603706799 102.4901921901037,70.15702224409324 102.3093402434024,70.10451653729251 102.11457660835003,70.0695127210929 101.89198959694477,70.03450889553642 101.66940258559771,69.94699929089984 101.5163740151911,69.91199543271796 101.23814025096362,69.8069838021911 100.89034804562107,69.64946619901457 100.54255584033672,69.5269523770985 100.13911688211374,69.38693644070008 99.90261818253202,69.33443042602448 99.56873766536592,69.2294183337799 99.23485714819981,69.12440615762898 98.85924156650435,69.01939389752806 98.48362598469248,68.9493856774643 98.12192209117347,68.80936912540346 97.843688326946,68.72185870460817 97.42633768054657,68.63434822545969 97.13419222808443,68.47682921617525 96.77248833450722,68.35431430055178 96.57772469951306,68.28430572598882 96.27166755881626,68.17929279430246 95.93778704165015,68.07427977859334 95.60390652460046,67.88175569851592 95.27002600743435,67.67172910744557 94.93614549032645,67.46170218056068 94.65791172609897,67.1816657557647 94.4353247146937,66.88412640021124 94.2266493915231,66.5515816170664 94.17100263864268,66.3590553051472 94.07362082111649,66.1665287110809 93.90668056264985,65.9039919916977 93.80929874506546,65.72896722053702 93.65627017477527,65.4489271016646 93.50324160442688,65.15138382115401 93.30847796943272,64.80133204000595 93.14153771084966,64.43377666576998 92.96068576409016,64.03121483778523 92.75201044091955,63.611149006101186 92.57115849410184,63.226087480346905 92.37639485910768,62.893533435984864 92.23727797705214,62.54347563761985 92.05642603023443,62.158410981835914 91.87557408347493,61.73833916077274 91.66689876024611,61.318265996233094 91.4582234370755,60.9156946195435 91.277371490316,60.49561882398848 91.06869616714539,60.12805140083947 90.87393253209302,59.72547637610114 90.69308058533352,59.34040345878748 90.51222863857402,58.95532941243437 90.3313766917563,58.587757678702474 90.20617149787722,58.220184916310245 90.02531955117593,57.940128787755384 89.90011435723864,57.625064929394284 89.80273253971245,57.29249670340505 89.67752734583337,56.94242397681228 89.58014552830718,56.557342899861396 89.49667539901566,56.154756930380245 89.427116958017,55.75216972686758 89.38538189337123,55.4020928946411 89.3297351404326,54.981999464172986 89.3019117640797,54.631920579020516 89.26017669943394,54.19432066033187 89.20452994649531,53.86174374696566 89.20452994649531,53.476653637277195 89.17670657014241,53.12657073950686 89.14888319373131,52.70647003031627 89.17670657014241,52.338880807496025 89.19061825831886,51.98879487684462 89.19061825831886,51.621203645234345 89.16279488184955,51.236106965719955 89.06541306443978,50.81600020935002 88.9958546233247,50.4484056950605 88.9958546233247,50.11581929557724 88.9680312469136,49.695708955434384 88.94020787050249,49.36312064967933 88.89847280585673,49.03053150168853 88.82891436479986,48.627922458719695 88.88456111762207,48.20780735874723 88.9680312469136,47.822700669799815 88.9680312469136,47.507612538858666 88.9680312469136,47.227533565601334 89.00976631161757,47.01747394363338 88.98194293514825,46.80741398561804 88.94020787050249,46.52733351898496 88.91238449403318,46.212242279973 88.87064942944562,45.86214001660119 88.84282605303451,45.51203681982588 88.84282605303451,45.21444836871524 88.77326761191944,44.81182762609387 88.71762085909722,44.391700317763025 88.70370917086257,43.989077052581706 88.67588579450967,43.63896886205475 88.6341507298057,43.306365216485574 88.59241566521814,42.903738623688696 88.55068060057238,42.65866096272657 88.55068060057238,42.361066045210464 88.57850397692528,41.99344786306028 88.56459228874883,41.6433343518147 88.52285722404486,41.293219907034654 88.49503384763375,40.99562189502467 88.42547540663509,40.62799989018822 88.42547540663509,40.277882738257176 88.43938709481154,39.9627765033365 88.46721047128085,39.577645633762586 88.39765203010757,39.15750157868024 88.36982865369646,38.824886581656756 88.3280935891089,38.439752374601085 88.35591696552001,38.194666381969 88.36982865369646,38.03711085944087 88.35591696552001,37.8095303264854 88.3280935891089,37.54693691361172" stroke="#4DD2FF" stroke-dasharray="none" stroke-linecap="round" stroke-linejoin="round" stroke-width="0.5"><title>2017-11-19 11.8km</title><desc>9223370525802103807</desc></polyline><polyline fill="none" opacity="0.5" points="176.04761893255636,74.15260749531444 174.73297720309347,73.92993153934367 173.60614143498242,74.26394545444055 171.6341788410209,73.37324143352453 170.03782816929743,73.15056530456059 168.5353804784827,73.039227221685 166.84512682631612,73.15056530456059 166.1878059618175,73.2619033754454 164.40364932874218,73.70725553407101 162.14997779252008,72.70521289831959 160.55362712126225,71.36915449029766 159.1450824108906,71.70316925924271 157.54873173916712,71.1464779159287 156.1401870297268,70.92380129144294 155.01335126161575,71.1464779159287 153.88651549303904,70.81246296095196 152.759679724928,70.36710951454006 151.351135015022,70.4784478948568 150.1303962660022,71.03513960994314 148.06453069113195,70.36710951454006 146.9376949230209,69.69907897384837 146.37427703896537,68.47435515781399 145.62305319402367,67.2496298441547 145.52915021311492,65.46820853248937 145.71695617446676,63.909462284646 145.71695617446676,62.12803503050236 145.52915021311492,60.56928358366713 145.52915021311492,58.453831310151145 145.24744127085432,57.3404335816158 145.05963530950248,55.67033466754947 145.43524723220617,54.11157316813478 145.43524723220617,52.77548995165853 145.81085915490985,51.6620859093382 145.52915021311492,50.21465880336473 145.9986651162617,48.655888811219484 145.9047621358186,46.98577541258419 146.1864710780792,45.98370603600051 146.28037405852228,43.979564275126904 146.1864710780792,42.19810156407766 146.28037405852228,40.639319092268124 146.37427703896537,39.41455973347183 146.65598598122597,37.967114923521876 146.9376949230209,36.40832586516626 146.65598598122597,34.84953437978402 146.65598598122597,33.736110404424835 146.46818001987413,32.399999999965075 146.65598598122597,33.736110404424835 146.65598598122597,34.84953437978402 146.9376949230209,36.40832586516626 146.65598598122597,37.967114923521876 146.37427703896537,39.41455973347183 146.28037405852228,40.639319092268124 146.1864710780792,42.19810156407766 146.28037405852228,43.979564275126904 146.1864710780792,45.98370603600051 145.9047621358186,46.98577541258419 145.9986651162617,48.655888811219484 145.52915021311492,50.21465880336473 145.81085915490985,51.6620859093382 145.43524723220617,52.77548995165853 145.43524723220617,54.11157316813478 145.05963530950248,55.67033466754947 145.24744127085432,57.3404335816158 145.52915021311492,58.453831310151145 145.52915021311492,60.56928358366713 145.71695617446676,62.12803503050236 145.71695617446676,63.909462284646 145.52915021311492,65.46820853248937 145.62305319402367,67.2496298441547 146.37427703896537,68.47435515781399 146.9376949230209,69.69907897384837 148.06453069113195,70.36710951454006 150.1303962660022,71.03513960994314 151.351135015022,70.4784478948568 152.759679724928,70.36710951454006 153.88651549303904,70.81246296095196 155.01335126161575,71.1464779159287 156.1401870297268,70.92380129144294 157.54873173916712,71.1464779159287 159.1450824108906,71.70316925924271 160.55362712126225,71.36915449029766 162.14997779252008,72.70521289831959 164.40364932874218,73.70725553407101 166.1878059618175,73.2619033754454 166.84512682631612,73.15056530456059 168.5353804784827,73.039227221685 170.03782816929743,73.15056530456059 171.6341788410209,73.37324143352453 173.60614143498242,74.26394545444055 174.73297720309347,73.92993153934367 176.04761893255636,74.15260749531444 177.456163642928,74.15260749531444 178.67690239148214,74.59795925789513 179.99154412047938,74.59795925789513 181.1183798890561,74.82063506502891 182.43302161851898,75.04331082268618 184.0293722897768,75.59999999997672 185.5318199810572,75.37732436618535 186.94036469096318,75.15464868280105" stroke="#4DD2FF" stroke-dasharray="1,0.5" stroke-linecap="round" stroke-linejoin="round" stroke-width="0.5"><title>2014-03-22 10.5km</title><desc>9223370641410674807</desc></polyline><polyline fill="none" opacity="1" points="55.600000000034925,101.49923029702768 55.48824082792271,101.48686535219167 55.356161806266755,101.49923029702768 55.2240827846108,101.53632512257172 55.071683913469315,101.53632512257172 54.94976481661433,101.54869006144145 54.81768579495838,101.49923029702768 54.65512699907413,101.51159524040122 54.54336782696191,101.52396018222498 54.38080903107766,101.52396018222498 54.23857008473715,101.52396018222498 54.126810912566725,101.52396018222498 53.97441204142524,101.52396018222498 53.84233301982749,101.51159524040122 53.720413922914304,101.49923029702768 53.598494826001115,101.48686535219167 53.47657572908793,101.47450040584226 53.34449670749018,101.51159524040122 53.212417685834225,101.51159524040122 53.08033866417827,101.49923029702768 52.948259642580524,101.47450040584226 52.81618062092457,101.44977050866146 52.72474129823968,101.44977050866146 52.5723424271564,101.44977050866146 52.43010348075768,101.47450040584226 52.298024459101725,101.47450040584226 52.16594543750398,101.46213545797946 52.02370649110526,101.42504060552164 51.90178739425028,101.44977050866146 51.769708372536115,101.44977050866146 51.60714957671007,101.43740555784461 51.495390404597856,101.40031069637189 51.3328316086554,101.38794573953055 51.180432737630326,101.42504060552164 51.01787394168787,101.42504060552164 50.895954844832886,101.43740555784461 50.74355597374961,101.42504060552164 50.62163687683642,101.42504060552164 50.4793979304377,101.43740555784461 50.367638758325484,101.42504060552164 50.23555973661132,101.412675651678 50.103480715013575,101.43740555784461 49.97140169335762,101.42504060552164 49.839322671759874,101.42504060552164 49.72756349958945,101.44977050866146 49.58532455324894,101.46213545797946 49.47356538102031,101.46213545797946 49.34148635942256,101.46213545797946 49.16876763879554,101.44977050866146 49.05700846668333,101.44977050866146 48.89444967079908,101.44977050866146 48.803010348114185,101.44977050866146 48.67093132645823,101.44977050866146 48.538852304860484,101.43740555784461 48.40677328320453,101.44977050866146 48.26453433680581,101.412675651678 48.14261523995083,101.412675651678 47.99021636880934,101.40031069637189 47.84797742246883,101.40031069637189 47.71589840075467,101.38794573953055 47.60413922864245,101.38794573953055 47.46190028224373,101.42504060552164 47.29934148641769,101.44977050866146 47.1774223895045,101.42504060552164 47.03518344316399,101.412675651678 46.903104421449825,101.40031069637189 46.781185324594844,101.37558078119037 46.61862652871059,101.40031069637189 46.49670743185561,101.37558078119037 46.344308560714126,101.36321582139499 46.20206961437361,101.36321582139499 46.059830667916685,101.40031069637189 45.92775164631894,101.38794573953055 45.76519285043469,101.35085086010076 45.61279397935141,101.32612093297939 45.480714957695454,101.31375596715952 45.338476011296734,101.27666106077231 45.19623706495622,101.28902603105234 45.07431796804303,101.30139099986991 44.942238946445286,101.32612093297939 44.8203198495321,101.33848589730042 44.68824082793435,101.38794573953055 44.55616180622019,101.38794573953055 44.413922859879676,101.37558078119037 44.28184383828193,101.36321582139499 44.17008466611151,101.35085086010076 44.03800564445555,101.37558078119037 43.905926622857805,101.36321582139499 43.78400752594462,101.38794573953055 43.63160865480313,101.35085086010076 43.479209783661645,101.37558078119037 43.36745061154943,101.35085086010076 43.22521166515071,101.35085086010076 43.093132643494755,101.35085086010076 42.98137347138254,101.31375596715952 42.83913452498382,101.28902603105234 42.686735653842334,101.30139099986991 42.53433678270085,101.31375596715952 42.38193791161757,101.28902603105234 42.26001881476259,101.30139099986991 42.11777986836387,101.30139099986991 41.96538099722238,101.28902603105234 41.83330197556643,101.28902603105234 41.70122295396868,101.30139099986991 41.548824082827196,101.31375596715952 41.406585136428475,101.33848589730042 41.28466603951529,101.30139099986991 41.15258701791754,101.26429608899343 41.01034807157703,101.27666106077231 40.87826904992107,101.2519311156866 40.73603010352235,101.26429608899343 40.614111006609164,101.28902603105234 40.49219190975418,101.26429608899343 40.34995296341367,101.2395661409173 40.197554092272185,101.2395661409173 40.075634995358996,101.2395661409173 39.92323612421751,101.21483618686034 39.82163687684806,101.19010622680798 39.6895578551339,101.19010622680798 39.547318908793386,101.19010622680798 39.44571966142394,101.21483618686034 39.29332079028245,101.2024712075654 39.15108184388373,101.21483618686034 39.019002822227776,101.2519311156866 38.8666039511445,101.2519311156866 38.724365004803985,101.26429608899343 38.62276575731812,101.22720116464916 38.48052681097761,101.22720116464916 38.34844778932165,101.22720116464916 38.23668861720944,101.2024712075654 38.07412982132519,101.22720116464916 37.94205079966923,101.21483618686034 37.77949200378498,101.2024712075654 37.647412982187234,101.21483618686034 37.54581373475958,101.2024712075654 37.29181561619043,101.21483618686034 36.99717779876664,101.2024712075654 36.7736594544258,101.16537626077479 36.539981185342185,101.16537626077479 36.08278457203414,101.22720116464916 35.79830667929491,101.15301127552084 35.61542803392513,101.12828130046546 35.259830667986535,101.15301127552084 35.08711194735952,101.10355131948018 34.92455315153347,101.09118632675381 34.61975540930871,101.14064628873166 34.3251175917685,101.17774124454445 34.0609595485148,101.28902603105234 33.84760112891672,101.26429608899343 29.834430856164545,101.04172634074348 29.600752587080933,101.04172634074348 29.34675446851179,101.00463133558515 29.01147695205873,101.09118632675381 28.747318908805028,101.01699633881071 28.47300094080856,100.9675363169008 28.107243650127202,100.9675363169008 24.81542803393677,100.93044128477777 24.57158984011039,100.95517130767257 24.246472248458304,100.93044128477777 24.012793979374692,100.89334623913601 23.74863593612099,100.7944260516233 23.43367826915346,100.88098122092924 23.098400752642192,100.89334623913601 22.86472248355858,100.90571125582937 20.23330197558971,100.86861620124546 19.887864534393884,100.86861620124546 19.715145813766867,100.86861620124546 19.542427093198057,100.89334623913601 19.49162746948423,100.83152113318647 19.339228598342743,100.84388615735224 18.993791157146916,100.8562511800701 18.86171213549096,100.78206102146214 18.587394167494494,100.75733095665055 18.363875823211856,100.78206102146214 18.150517403613776,100.78206102146214 17.99811853247229,100.74496592197829 16.91100658517098,100.76969598980213 16.59604891820345,100.78206102146214 16.352210724377073,100.69550576832262 16.11853245535167,100.74496592197829 15.752775164670311,100.73260088578536 15.508936970843934,100.76969598980213 15.275258701876737,100.81915610752185 15.000940733822063,100.75733095665055 14.71646284108283,100.73260088578536 14.472624647256453,100.72023584814451 14.147507055546157,100.69550576832262 13.954468485491816,100.69550576832262 13.730950141209178,100.70787080896116 13.243273753556423,100.73260088578536 13.040075258759316,100.62131549295736 13.019755409273785,100.90571125582937 13.050235183502082,101.12828130046546 13.090874882473145,101.31375596715952 12.999435559788253,101.52396018222498 12.877516462933272,101.54869006144145 12.897836312360596,101.22720116464916 12.684477892820723,101.2395661409173 12.511759172251914,101.42504060552164 12.440639698994346,101.57341993468435 12.420319849567022,101.77125870489544 12.471119473222643,102.11747563063545 12.491439322708175,102.37713755480945 12.613358419621363,102.7480820155688 12.623518344364129,102.99537757430517 12.684477892820723,103.27976672661316" stroke="#4DD2FF" stroke-dasharray="none" stroke-linecap="round" stroke-linejoin="round" stroke-width="0.5"><title>2013-12-10 10.9km</title><desc>9223370650177580807</desc></polyline><polyline fill="none" opacity="0.5" points="112.10701757762581,90.49877332313918 108.87847955711186,86.8519991368521 104.95811196044087,83.20521922083572 97.34798662550747,82.64417564729229 91.12152044288814,89.09616854530759 89.73786129057407,95.5481435037218 89.5072514321655,103.40269750310108 89.27664157282561,108.17152088950388 88.58481199666858,114.34292484284379 90.66030072513968,119.39224314200692 96.88676690869033,122.75844923895784 103.11323309037834,123.03896619309671 108.4172598393634,117.98965582833625 110.26213870756328,110.97670653951354 110.49274856690317,104.52477447572164 110.49274856690317,97.79230450256728 111.64579785987735,91.62085653445683 109.80091899074614,85.72991361888126 105.88055139407516,82.92469745082781 99.88469506986439,82.08313193893991 94.81127818115056,84.32730595883913 91.12152044288814,88.5351263966877 89.96847114898264,95.5481435037218 89.73786129057407,102.56113941781223 89.27664157282561,109.01307694031857 109.80091899074614,93.02345978678204 110.49274856690317,89.37668956816196 106.80299082957208,83.7662626572419 101.96018379833549,80.4000000001397 94.11944860499352,86.01043504965492 89.96847114898264,91.05981499678455 91.35213030129671,99.75594359473325 88.58481199666858,105.92736992868595 88.35420214012265,111.25722491787747 88.58481199666858,117.98965582833625 93.42761902883649,121.35586395906284 99.88469506986439,123.60000000009313 105.88055139407516,120.79482960957102 110.03152885008603,114.0624068370089 110.49274856690317,107.89100213861093 109.80091899074614,101.15854193037376 110.72335842624307,94.98710291530006 111.18457814306021,88.5351263966877 107.95604012254626,83.7662626572419 102.6520133735612,82.08313193893991 96.65615704935044,83.7662626572419 92.73578945267946,86.57147780805826 90.89091058447957,91.62085653445683 90.42969086673111,98.63386431708932 89.73786129057407,104.52477447572164 87.89298242237419,112.94033447606489 112.10701757762581,90.49877332313918 108.87847955711186,86.8519991368521 104.95811196044087,83.20521922083572 97.34798662550747,82.64417564729229 91.12152044288814,89.09616854530759 89.73786129057407,95.5481435037218 89.5072514321655,103.40269750310108 89.27664157282561,108.17152088950388 88.58481199666858,114.34292484284379 90.66030072513968,119.39224314200692 96.88676690869033,122.75844923895784 103.11323309037834,123.03896619309671 108.4172598393634,117.98965582833625 110.26213870756328,110.97670653951354 110.49274856690317,104.52477447572164 110.49274856690317,97.79230450256728 111.64579785987735,91.62085653445683 109.80091899074614,85.72991361888126 105.88055139407516,82.92469745082781 99.88469506986439,82.08313193893991 94.81127818115056,84.32730595883913 91.12152044288814,88.5351263966877 89.96847114898264,95.5481435037218 89.73786129057407,102.56113941781223 89.27664157282561,109.01307694031857 109.80091899074614,93.02345978678204 110.49274856690317,89.37668956816196 106.80299082957208,83.7662626572419 101.96018379833549,80.4000000001397 94.11944860499352,86.01043504965492 89.96847114898264,91.05981499678455 91.35213030129671,99.75594359473325 88.58481199666858,105.92736992868595 88.35420214012265,111.25722491787747 88.58481199666858,117.98965582833625 93.42761902883649,121.35586395906284 99.88469506986439,123.60000000009313 105.88055139407516,120.79482960957102 110.03152885008603,114.0624068370089 110.49274856690317,107.89100213861093 109.80091899074614,101.15854193037376 110.72335842624307,94.98710291530006 111.18457814306021,88.5351263966877 107.95604012254626,83.7662626572419 102.6520133735612,82.08313193893991 96.65615704935044,83.7662626572419 92.73578945267946,86.57147780805826 90.89091058447957,91.62085653445683 90.42969086673111,98.63386431708932 89.73786129057407,104.52477447572164 87.89298242237419,112.94033447606489 112.10701757762581,90.49877332313918 108.87847955711186,86.8519991368521 104.95811196044087,83.20521922083572 97.34798662550747,82.64417564729229 91.12152044288814,89.09616854530759 89.73786129057407,95.5481435037218 89.5072514321655,103.40269750310108 89.27664157282561,108.17152088950388 88.58481199666858,114.34292484284379 90.66030072513968,119.39224314200692 96.88676690869033,122.75844923895784 103.11323309037834,123.03896619309671 108.4172598393634,117.98965582833625 110.26213870756328,110.97670653951354 110.49274856690317,104.52477447572164 110.49274856690317,97.79230450256728 111.64579785987735,91.62085653445683 109.80091899074614,85.72991361888126 105.88055139407516,82.92469745082781 99.88469506986439,82.08313193893991 94.81127818115056,84.32730595883913 91.12152044288814,88.5351263966877 89.96847114898264,95.5481435037218 89.73786129057407,102.56113941781223 89.27664157282561,109.01307694031857 109.80091899074614,93.02345978678204 110.49274856690317,89.37668956816196 106.80299082957208,83.7662626572419 101.96018379833549,80.4000000001397 94.11944860499352,86.01043504965492 89.96847114898264,91.05981499678455 91.35213030129671,99.75594359473325 88.58481199666858,105.92736992868595 88.35420214012265,111.25722491787747 88.58481199666858,117.98965582833625 93.42761902883649,121.35586395906284 99.88469506986439,123.60000000009313 105.88055139407516,120.79482960957102 110.03152885008603,114.0624068370089 110.49274856690317,107.89100213861093 109.80091899074614,101.15854193037376 110.72335842624307,94.98710291530006 111.18457814306021,88.5351263966877 107.95604012254626,83.7662626572419 102.6520133735612,82.08313193893991 96.65615704935044,83.7662626572419 92.73578945267946,86.57147780805826 90.89091058447957,91.62085653445683 90.42969086673111,98.63386431708932 89.73786129057407,104.52477447572164 87.89298242237419,112.94033447606489 112.10701757762581,90.49877332313918 108.87847955711186,86.8519991368521 104.95811196044087,83.20521922083572 97.34798662550747,82.64417564729229 91.12152044288814,89.09616854530759 89.73786129057407,95.5481435037218 89.5072514321655,103.40269750310108 89.27664157282561,108.17152088950388 88.58481199666858,114.34292484284379 90.66030072513968,119.39224314200692 96.88676690869033,122.75844923895784 103.11323309037834,123.03896619309671 108.4172598393634,117.98965582833625 110.26213870756328,110.97670653951354 110.49274856690317,104.52477447572164 110.49274856690317,97.79230450256728 111.64579785987735,91.62085653445683 109.80091899074614,85.72991361888126 105.88055139407516,82.92469745082781 99.88469506986439,82.08313193893991 94.81127818115056,84.32730595883913 91.12152044288814,88.5351263966877 89.96847114898264,95.5481435037218 89.73786129057407,102.56113941781223 89.27664157282561,109.01307694031857 109.80091899074614,93.02345978678204 110.49274856690317,89.37668956816196 106.80299082957208,83.7662626572419 101.96018379833549,80.4000000001397 94.11944860499352,86.01043504965492 89.96847114898264,91.05981499678455 91.35213030129671,99.75594359473325 88.58481199666858,105.92736992868595 88.35420214012265,111.25722491787747 88.58481199666858,117.98965582833625 93.42761902883649,121.35586395906284 99.88469506986439,123.60000000009313 105.88055139407516,120.79482960957102 110.03152885008603,114.0624068370089 110.49274856690317,107.89100213861093 109.80091899074614,101.15854193037376 110.72335842624307,94.98710291530006 111.18457814306021,88.5351263966877 107.95604012254626,83.7662626572419 102.6520133735612,82.08313193893991 96.65615704935044,83.7662626572419 92.73578945267946,86.57147780805826 90.89091058447957,91.62085653445683 90.42969086673111,98.63386431708932 89.73786129057407,104.52477447572164 87.89298242237419,112.94033447606489 112.10701757762581,90.49877332313918 108.87847955711186,86.8519991368521 104.95811196044087,83.20521922083572 97.34798662550747,82.64417564729229 91.12152044288814,89.09616854530759 89.73786129057407,95.5481435037218 89.5072514321655,103.40269750310108 89.27664157282561,108.17152088950388 88.58481199666858,114.34292484284379 90.66030072513968,119.39224314200692 96.88676690869033,122.75844923895784 103.11323309037834,123.03896619309671 108.4172598393634,117.98965582833625 110.26213870756328,110.97670653951354 110.49274856690317,104.52477447572164 110.49274856690317,97.79230450256728 111.64579785987735,91.62085653445683 109.80091899074614,85.72991361888126 105.88055139407516,82.92469745082781 99.88469506986439,82.08313193893991 94.81127818115056,84.32730595883913 91.12152044288814,88.5351263966877 89.96847114898264,95.5481435037218 89.73786129057407,102.56113941781223 89.27664157282561,109.01307694031857 109.80091899074614,93.02345978678204 110.49274856690317,89.37668956816196 106.80299082957208,83.7662626572419 101.96018379833549,80.4000000001397 94.11944860499352,86.01043504965492 89.96847114898264,91.05981499678455 91.35213030129671,99.75594359473325 88.58481199666858,105.92736992868595 88.35420214012265,111.25722491787747 88.58481199666858,117.98965582833625 93.42761902883649,121.35586395906284 99.88469506986439,123.60000000009313 105.88055139407516,120.79482960957102 110.03152885008603,114.0624068370089 110.49274856690317,107.89100213861093 109.80091899074614,101.15854193037376 110.72335842624307,94.98710291530006 111.18457814306021,88.5351263966877 107.95604012254626,83.7662626572419 102.6520133735612,82.08313193893991 96.65615704935044,83.7662626572419 92.73578945267946,86.57147780805826 90.89091058447957,91.62085653445683 90.42969086673111,98.63386431708932 89.73786129057407,104.52477447572164 87.89298242237419,112.94033447606489 112.10701757762581,90.49877332313918 108.87847955711186,86.8519991368521 104.95811196044087,83.20521922083572 97.34798662550747,82.64417564729229 91.12152044288814,89.09616854530759 89.73786129057407,95.5481435037218 89.5072514321655,103.40269750310108 89.27664157282561,108.17152088950388 88.58481199666858,114.34292484284379 90.66030072513968,119.39224314200692 96.88676690869033,122.75844923895784 103.11323309037834,123.03896619309671 108.4172598393634,117.98965582833625 110.26213870756328,110.97670653951354 110.49274856690317,104.52477447572164 110.49274856690317,97.79230450256728 111.64579785987735,91.62085653445683 109.80091899074614,85.72991361888126 105.88055139407516,82.92469745082781 99.88469506986439,82.08313193893991 94.81127818115056,84.32730595883913 91.12152044288814,88.5351263966877 89.96847114898264,95.5481435037218 89.73786129057407,102.56113941781223 89.27664157282561,109.01307694031857 109.80091899074614,93.02345978678204 110.49274856690317,89.37668956816196 106.80299082957208,83.7662626572419 101.96018379833549,80.4000000001397 94.11944860499352,86.01043504965492 89.96847114898264,91.05981499678455 91.35213030129671,99.75594359473325 88.58481199666858,105.92736992868595 88.35420214012265,111.25722491787747 88.58481199666858,117.98965582833625 93.42761902883649,121.35586395906284 99.88469506986439,123.60000000009313 105.88055139407516,120.79482960957102 110.03152885008603,114.0624068370089 110.49274856690317,107.89100213861093 109.80091899074614,101.15854193037376 110.72335842624307,94.98710291530006 111.18457814306021,88.5351263966877 107.95604012254626,83.7662626572419 102.6520133735612,82.08313193893991 96.65615704935044,83.7662626572419 92.73578945267946,86.57147780805826 90.89091058447957,91.62085653445683 90.42969086673111,98.63386431708932 89.73786129057407,104.52477447572164 87.89298242237419,112.94033447606489 112.10701757762581,90.49877332313918 108.87847955711186,86.8519991368521 104.95811196044087,83.20521922083572 97.34798662550747,82.64417564729229 91.12152044288814,89.09616854530759 89.73786129057407,95.5481435037218 89.5072514321655,103.40269750310108 89.27664157282561,108.17152088950388 88.58481199666858,114.34292484284379 90.66030072513968,119.39224314200692 96.88676690869033,122.75844923895784 103.11323309037834,123.03896619309671 108.4172598393634,117.98965582833625 110.26213870756328,110.97670653951354 110.49274856690317,104.52477447572164 110.49274856690317,97.79230450256728 111.64579785987735,91.62085653445683 109.80091899074614,85.72991361888126 105.88055139407516,82.92469745082781 99.88469506986439,82.08313193893991 94.81127818115056,84.32730595883913 91.12152044288814,88.5351263966877 89.96847114898264,95.5481435037218 89.73786129057407,102.56113941781223 89.27664157282561,109.01307694031857 109.80091899074614,93.02345978678204 110.49274856690317,89.37668956816196 106.80299082957208,83.7662626572419 101.96018379833549,80.4000000001397 94.11944860499352,86.01043504965492 89.96847114898264,91.05981499678455 91.35213030129671,99.75594359473325" stroke="#4DD2FF" stroke-dasharray="1,0.5" stroke-linecap="round" stroke-linejoin="round" stroke-width="0.5"><title>2013-11-30 10.3km</title><desc>9223370651086224807</desc></polyline><polyline fill="none" opacity="1" points="177.87640771828592,90.49877332313918 176.26213870756328,89.37668956816196 174.64786969777197,86.8519991368521 172.5723809702322,83.7662626572419 170.72750210110098,83.20521922083572 167.7295739389956,80.4000000001397 163.11737676616758,82.64417564729229 159.88883874565363,86.01043504965492 156.89091058354825,89.09616854530759 155.73786128964275,91.05981499678455 155.50725143123418,95.5481435037218 157.12152044195682,99.75594359473325 155.2766415728256,103.40269750310108 154.35420213732868,105.92736992868595 155.04603171348572,108.17152088950388 154.12359228078276,111.25722491787747 154.35420213732868,114.34292484284379 154.35420213732868,117.98965582833625 156.42969086579978,119.39224314200692 159.1970091694966,121.35586395906284 162.65615704935044,122.75844923895784 165.6540852105245,123.60000000009313 168.88262323103845,123.03896619309671 171.64994153473526,120.79482960957102 174.1866499800235,117.98965582833625 175.80091899074614,114.0624068370089 176.0315288482234,110.97670653951354 176.26213870756328,107.89100213861093 176.26213870756328,104.52477447572164 175.57030913140625,101.15854193037376 176.26213870756328,97.79230450256728 176.49274856690317,94.98710291530006 177.41518800053746,91.62085653445683 176.95396828372031,88.5351263966877 175.57030913140625,85.72991361888126 173.72543026320636,83.7662626572419 171.64994153473526,82.92469745082781 168.4214035142213,82.08313193893991 165.6540852105245,82.08313193893991 162.42554719001055,83.7662626572419 160.58066832181066,84.32730595883913 158.50517959333956,86.57147780805826 156.89091058354825,88.5351263966877 156.66030072513968,91.62085653445683 155.73786128964275,95.5481435037218 156.19908100739121,98.63386431708932 155.50725143123418,102.56113941781223 155.50725143123418,104.52477447572164" stroke="#4DD2FF" stroke-dasharray="none" stroke-linecap="round" stroke-linejoin="round" stroke-width="0.5"><title>2013-11-16 10.4km</title><desc>9223370652294258807</desc></polyline><polyline fill="none" opacity="1" points="44.60485186241567,132.6000330010429 40.41223600972444,129.90001260256395 36.712869081646204,129.00000514974818 33.013502151705325,129.00000514974818 29.06751076038927,130.50001738895662 26.354641679674387,132.30003087921068 25.121519369073212,136.50005727959797 23.395148135721684,141.30007874849252 23.395148135721684,144.30008745123632 23.148523674346507,147.0000921834726 22.40865028835833,151.20009370637126 22.655274749733508,155.10008875629865 22.40865028835833,158.10008077835664 22.655274749733508,163.20005889236927 23.64177259709686,165.60004496737383 26.108017217367887,167.7000308786519 30.793881993740797,171.60000000009313 34.73987338505685,171.60000000009313 38.43924031406641,170.40001015365124 40.65886047203094,169.20001972699538 43.37172955367714,165.90004306309856 44.111602938733995,163.20005889236927 43.86497847735882,159.000077677425 44.35822740197182,154.2000904425513 45.34472524933517,151.20009370637126 46.08459863439202,147.60009283619002 46.08459863439202,144.00008674431592 46.33122309669852,139.80007303715684 45.837974173016846,135.90005394420587 43.61835401598364,132.6000330010429 40.90548493433744,130.50001738895662 36.712869081646204,128.4000000001397 33.013502151705325,129.00000514974818 29.560759685002267,130.50001738895662 26.354641679674387,132.0000287219882 23.64177259709686,135.00004866719246 22.901899211108685,140.40007542981766 23.148523674346507,144.00008674431592 22.655274749733508,147.60009283619002 24.13502152170986,151.20009370637126 22.40865028835833,156.90008440450765 21.668776902370155,160.80007049744017 22.40865028835833,164.70005046087317 22.655274749733508,166.80003713420592 26.354641679674387,169.20001972699538 29.314135221764445,170.70000767009333 34.24662446137518,171.30000259238295 37.699366928078234,170.70000767009333 40.90548493433744,169.20001972699538 43.12510509137064,166.20004112226889" stroke="#4DD2FF" stroke-dasharray="none" stroke-linecap="round" stroke-linejoin="round" stroke-width="0.5"><title>2013-11-03 10.7km</title><desc>9223370653417861807</desc></polyline><polyline fill="none" opacity="1" points="97.06091729085892,171.60000000009313 100.48984711896628,168.62071396387182 100.97969423700124,163.85384881705977 103.1840062700212,159.08697444945574 103.42892982903868,155.51181262428872 103.42892982903868,152.2345763957128 103.67385338712484,147.76561087742448 103.91877694707364,143.29663725779392 105.14339474309236,139.42352023231797 105.38831830304116,135.55039712018333 103.1840062700212,132.8690006309189 101.71446491405368,130.4855346365366 98.53045864589512,128.9958672185894 94.61168169789016,128.4000000001397" stroke="#4DD2FF" stroke-dasharray="none" stroke-linecap="round" stroke-linejoin="round" stroke-width="0.5"><title>2013-11-02 10.5km</title><desc>9223370653505000807</desc></polyline><polyline fill="none" opacity="1" points="175.54437706060708,146.49010168295354 176.43222609069198,142.98009340977296 176.87615060433745,140.01008210144937 176.43222609069198,137.31006839242764 175.32241480425,134.34004954481497 173.99064126145095,132.72003759886138 170.4392451448366,130.56001984444447 167.7756980592385,128.4000000001397 165.3341132281348,129.48001018329524 162.0046793706715,130.8300221778918 159.78505679685622,132.45003549358808 158.67524551134557,135.69005860155448 158.2313209977001,138.12007284793071 157.7873964831233,141.63008875912055 156.45562293939292,144.33009724435396 156.01169842481613,146.76010209089145 156.23366068210453,150.81010429398157 157.7873964831233,154.32010026299395 154.90188713837415,155.13009854895063 155.12384939659387,156.21009580790997 154.45796262472868,157.56009164638817 154.90188713837415,163.23006525845267 160.22898131329566,166.20004569296725 165.77803774364293,167.55003549298272 167.1098112873733,167.55003549298272 169.10747160110623,167.55003549298272 171.77101868763566,168.3600289823953 173.99064126145095,164.0400603134185 174.6565280323848,162.96006684168242 174.8784902896732,160.5300796192605 175.54437706060708,159.18008557590656 173.54671674594283,158.91008666879497 174.8784902896732,158.10008975397795 176.2102638334036,155.94009654247202 175.9883015761152,150.81010429398157 176.2102638334036,149.46010437584482 175.7663393188268,146.2201012421865 176.2102638334036,142.1700907170307 175.7663393188268,136.7700652598869 175.32241480425,133.26004171161912 173.54671674594283,129.75001264712773 169.55139611661434,129.48001018329524 165.77803774364293,129.21000768686645 162.6705661425367,130.56001984444447 159.78505679685622,132.72003759886138 156.67758519575,133.26004171161912 156.45562293939292,137.58006991050206 156.23366068210453,140.55008445074782 156.01169842481613,144.0600965428166 154.90188713837415,147.57010311936028 155.34581165295094,151.62010385282338 155.12384939659387,155.13009854895063 154.90188713837415,159.18008557590656 154.90188713837415,161.61007426702417 158.45328325405717,165.66004954348318 164.00233968626708,168.63002674723975 166.44392451550812,169.98001507879235 169.32943385839462,171.60000000009313 173.32475448958576,167.82003335561603 175.1004525469616,162.69006839231588 175.54437706060708,159.7200832911767 175.54437706060708,158.6400877290871 175.1004525469616,153.24010209064 174.8784902896732,148.92010417976417 175.32241480425,146.2201012421865 175.54437706060708,142.98009340977296 177.09811286255717,138.93007700890303 175.7663393188268,135.96006031497382 174.43456577509642,134.34004954481497 172.88082997407764,130.8300221778918 170.21728288847953,130.02001507859677 166.0,129.75001264712773 162.0046793706715,130.56001984444447 159.78505679685622,130.8300221778918 156.89954745396972,132.72003759886138 154.90188713837415,135.69005860155448 154.67992488108575,138.39007426798344 155.34581165295094,139.7400808769744 154.23600036650896,142.71009254432283 154.67992488108575,145.95010076928884 154.90188713837415,147.57010311936028 154.45796262472868,150.27010442432947 154.90188713837415,153.78010124200955 154.67992488108575,157.02009340864606 154.90188713837415,161.34007565444335 157.5654342258349,166.20004569296725 161.7827171124518,168.63002674723975 163.11449065618217,168.3600289823953 166.0,169.98001507879235 167.99766031466424,169.1700221770443 171.1051319167018,171.33000259427354 173.32475448958576,168.63002674723975 174.8784902896732,162.42006990942173 173.99064126145095,158.37008875748143 175.1004525469616,151.35010403278284 174.8784902896732,147.0301024664659 174.8784902896732,145.68010026379488 176.43222609069198,142.98009340977296 177.76399963349104,140.82008557626978 177.09811286255717,136.7700652598869 175.32241480425,132.1800333559513 173.10279223136604,129.75001264712773 169.9953206302598,128.6700025945902 166.0,128.94000515691005 161.1168303405866,130.56001984444447 157.1215097112581,132.1800333559513 156.67758519575,133.53004371840507 155.56777391023934,134.61005142168142 155.78973616752774,137.04006684245542 156.01169842481613,138.6600756549742 156.23366068210453,142.1700907170307 156.23366068210453,143.5200950417202 156.23366068210453,147.84010339644738 156.01169842481613,149.19010429433547" stroke="#4DD2FF" stroke-dasharray="none" stroke-linecap="round" stroke-linejoin="round" stroke-width="0.5"><title>2013-10-26 11.1km</title><desc>9223370654110301807</desc></polyline><polyline fill="none" opacity="1" points="42.29437106475234,209.93691102182493 42.06072680931538,206.52639954793267 42.52801532112062,202.26325324806385 42.52801532112062,198.85273064253852 42.52801532112062,195.1579922370147 43.92988085281104,191.4632480267901 45.565390639938414,189.18955639493652 46.49996766168624,186.63165068160743 46.26632340531796,184.07374218595214 43.92988085281104,181.23161837016232 40.8925055321306,179.81055517448112 37.855130213312805,177.25263925665058 34.58411063905805,176.4000000001397 31.0794468075037,177.82106525660492 28.27571574319154,180.09476788225584 25.705628934316337,182.6526807071641 25.238340424373746,185.77901482582092 25.238340424373746,189.4737679695245 24.771051913499832,192.60009301709943 24.30376340262592,196.86325683817267 21.50003233831376,199.9895720607601 21.967320849187672,203.68430287321098 21.733676593750715,207.94744659680873 22.200965103693306,211.07374708005227 22.200965103693306,213.91583482245915 24.30376340262592,216.75791912851855 27.341138722375035,219.0315841003321 30.61215829756111,219.60000000009313 34.58411063905805,219.0315841003321 37.154197447001934,217.610543750925 40.8925055321306,215.90529419737868 41.82708255480975,213.6316262029577 43.462592341937125,210.22112008789554 43.92988085281104,206.81060902611353 43.92988085281104,203.1158831268549 44.39716936368495,199.70536175812595 45.0981021290645,195.4422030900605 45.33174638450146,192.0316705906298 45.79903489537537,189.18955639493652 45.565390639938414,185.49480280443095 44.63081361912191,181.80004340759479 42.52801532112062,179.24212965508923 39.4906400013715,178.10527820512652 35.98597617074847,177.53685227409005 32.48131234012544,177.53685227409005 29.21029276587069,178.95791684417054 25.705628934316337,181.23161837016232 24.30376340262592,184.07374218595214 25.004696168005466,188.33692146651447 23.602830636315048,191.74745932617225 23.36918638087809,194.58957042940892 23.36918638087809,198.28430972713977 21.733676593750715,201.69483315735124 22.200965103693306,206.52639954793267 21.967320849187672,209.3684927856084 23.36918638087809,212.21058258996345 24.30376340262592,215.90529419737868 25.238340424373746,217.610543750925 30.845802552998066,219.0315841003321 34.81775489356369,218.46316806343384 37.38784170243889,216.18950254260562" stroke="#4DD2FF" stroke-dasharray="none" stroke-linecap="round" stroke-linejoin="round" stroke-width="0.5"><title>2013-10-20 10.7km</title><desc>9223370654628121807</desc></polyline><polyline fill="none" opacity="1" points="103.86021339893341,176.40000000037253 96.13978660106659,198.93914541881531 99.22795731574297,219.59999999962747" stroke="#4DD2FF" stroke-dasharray="none" stroke-linecap="round" stroke-linejoin="round" stroke-width="0.5"><title>2013-10-19 10.2km</title><desc>9223370654714312807</desc></polyline><polyline fill="none" opacity="1" points="156.87827001698315,213.68223684793338 158.09450068231672,215.75345557858236 161.01345427706838,219.00822432828136 164.66214626841247,219.00822432828136 167.58109986409545,219.60000000009313 170.98654572386295,218.1205605531577 173.66225318517536,216.34523203712888 175.3649761164561,212.79457114078104 175.85146838147193,208.35623777774163 176.09471451491117,203.6220066549722 176.09471451491117,200.66310755256563 176.09471451491117,197.11242390889674 177.06769904587418,194.1535169375129 177.79743744432926,190.60282385186292 177.55419131275266,186.164450250566 175.3649761164561,179.95071368920617 172.68926865514368,177.87946466286667 167.8243459975347,176.4000000001397 164.90539240278304,176.6958930043038 161.98643880710006,179.35892843198963 159.31073134578764,181.4301762059331 158.58099294733256,184.38909855671227 157.12151614949107,189.12336687906645 155.6620393525809,193.56173511454836 155.6620393525809,197.11242390889674 154.20256255567074,200.66310755256563 154.44580868817866,204.50967568764463 154.68905482254922,207.76445938879624 154.20256255567074,211.31512758042663 156.14853161852807,215.4575672952924" stroke="#4DD2FF" stroke-dasharray="none" stroke-linecap="round" stroke-linejoin="round" stroke-width="0.5"><title>2013-10-12 10.6km</title><desc>9223370655320152807</desc></polyline><polyline fill="none" opacity="1" points="45.278072715736926,252.12981855729595 44.07827774621546,248.33523061382584 44.31823674123734,243.0811759249773 45.518031710758805,238.99468104168773 45.75799070484936,235.78385878098197 46.717826679348946,232.86492574820295 45.99794969893992,230.52977678203024 43.358400764875114,226.73515489464626 39.03913887310773,225.2756833503954 35.43975396454334,224.4000000001397 32.56024603638798,224.4000000001397 30.16065609641373,225.56757773039863 26.08135319966823,227.61083739856258 24.641599235124886,230.52977678203024 23.68176325969398,234.03249938460067 23.921722253784537,238.11900266609155 23.921722253784537,241.62171426066197 24.161681246943772,244.83252875856124 23.921722253784537,248.6271222056821 22.24200929608196,251.25414494634606 21.52213231381029,254.17305574938655 21.282173319719732,257.09196302411146 22.24200929608196,260.0108667712193 23.4418042646721,262.3459872279782 25.121517223306,265.26488462416455 28.240984144620597,266.72433199873194 31.600410060957074,266.72433199873194 36.639548934064806,267.60000000009313 39.7590158553794,264.68110542721115 41.67868780810386,262.0540972945746 44.07827774621546,258.25952494633384 44.31823674123734,254.17305574938655 44.31823674123734,250.67036236193962 45.518031710758805,246.87577212485485 46.237908692099154,243.37306815269403 45.99794969893992,240.16225171345286 45.99794969893992,237.53521690703928 46.47786768618971,234.03249938460067 45.75799070484936,231.1135642353911" stroke="#4DD2FF" stroke-dasharray="none" stroke-linecap="round" stroke-linejoin="round" stroke-width="0.5"><title>2013-10-06 10.6km</title><desc>9223370655838244807</desc></polyline><polyline fill="none" opacity="1" points="90.89091058447957,245.15854193037376 91.5827401606366,248.80529363360256 90.660300726071,251.89100213861093 90.19908100832254,255.53774326271378 89.27664157561958,258.3429248428438 89.27664157561958,260.3065499314107 90.19908100832254,263.3922431420069 91.8133500199765,265.6363810834009 95.96432747505605,266.75844923895784 99.19286549650133,267.60000000009313 102.19079365767539,266.75844923895784 105.18872181978077,266.47793225129135 107.26421054638922,264.23379512433894 108.64786969870329,261.98965582833625 109.57030913420022,258.0624068370089 109.33969927486032,254.97670653951354 110.26213870942593,251.04944568034261 110.26213870942593,247.40269750310108 110.03152885008603,243.75594359473325 109.80091899260879,238.98710291530006 110.26213870942593,235.62085653445683 110.95396828558296,234.21825243486091 110.26213870942593,231.41304169245996 107.95604012254626,228.88834912492894 104.9581119613722,226.0831319389399 102.88262323383242,225.2415661229752 99.65408521238714,225.80261003412306 96.19493733346462,225.80261003412306 94.35005846433342,226.6441756472923 93.19700917135924,229.72991361888126 91.5827401606366,232.5351263966877 91.35213030222803,235.62085653445683 90.660300726071,239.26762322615832 89.96847115084529,243.19490402424708 89.5072514321655,245.7195810272824 88.81542185787112,248.80529363360256 88.81542185787112,252.17152088950388 87.89298242330551,255.53774326271378 87.43176270555705,258.0624068370089 87.66237256396562,261.14810303226113 88.81542185787112,263.6727605035994 91.8133500199765,266.19741522870027 95.50310775730759,267.0389661930967 99.65408521238714,267.319483113708 103.34384294971824,266.75844923895784 105.8805513959378,264.794829609571 108.64786969870329,262.55069085536525 109.80091899260879,258.3429248428438 110.26213870942593,255.53774326271378 110.72335842624307,252.4520396075677 110.95396828558296,249.6468509058468 111.4151880024001,245.7195810272824 111.64579786174,243.4754238263704 111.87640772014856,240.3897041331511 112.10701757855713,237.5845008501783 112.3376274369657,234.49877332313918 111.64579786174,231.69356291904114 110.4927485678345,229.1688706574496 108.18664998188615,226.6441756472923 105.64994153752923,225.2415661229752 102.88262323383242,224.4000000001397 100.57652464695275,224.96104411478154 96.65615705028176,225.52208809531294 93.88883874751627,227.20521922083572 92.50517959613353,230.8519991368521 90.89091058447957,235.34033578261733 89.96847115084529,238.14554177806713 89.7378612915054,240.3897041331511 89.5072514321655,243.4754238263704 89.7378612915054,246.56113941781223 89.96847115084529,249.92736992868595 89.7378612915054,253.01307694031857 89.5072514321655,256.3792980927974 89.96847115084529,259.7455143611878 91.35213030222803,262.83120831870474 93.88883874751627,264.5143123844173 96.65615705028176,267.319483113708 100.57652464695275,267.319483113708 102.88262323383242,267.0389661930967 106.34177111368626,265.35586395906284 108.41725984029472,263.3922431420069 109.57030913420022,260.0260321632959 110.03152885008603,257.2208526181057 110.95396828558296,254.13515119976364 110.95396828558296,250.76892679347657 111.64579786174,247.96373605774716 111.64579786174,244.8780223308131 111.4151880024001,241.79230450256728 112.56823729537427,238.14554177806713 111.64579786174,235.34033578261733 110.72335842624307,231.97408411232755 110.03152885008603,229.44939215504564 107.49482040572912,227.7662626572419 104.26628238521516,226.0831319389399 101.26835422310978,226.6441756472923 97.11737676803023,226.9246974508278 94.11944860592484,228.88834912492894" stroke="#4DD2FF" stroke-dasharray="none" stroke-linecap="round" stroke-linejoin="round" stroke-width="0.5"><title>2013-09-29 10.5km</title><desc>9223370656443428807</desc></polyline><polyline fill="none" opacity="1" points="158.3090873081237,233.480322830379 157.63047736417502,238.4332109261304 156.95186742115766,240.63449106365442 156.72566410526633,244.76188558503054 156.72566410526633,246.96315960399806 156.49946079216897,249.16443149279803 156.49946079216897,253.29181054909714 155.14224090520293,255.49307631724514 155.5946475332603,260.99623142788187 156.49946079216897,263.4726468878798 161.92834033910185,265.3987459379714 164.1903734849766,265.94905965332873 167.58342320099473,265.94905965332873 171.65508286189288,264.8484320899006 174.59572594985366,262.0968608537223 176.6315557807684,257.96949776401743 177.31016572378576,253.5669688861817 175.72674252279103,250.81538401311263 174.14331932086498,249.43959032977 175.9529458368197,245.03704495402053 177.53636903874576,239.8090112612117 177.98877566773444,237.88289055787027 177.31016572378576,234.8561261605937 178.4411822957918,231.0038747417275 175.72674252279103,228.25226259441115 173.01230274885893,225.2254853900522 171.2026762329042,224.67516183038242 165.77379668504,225.2254853900522 164.1903734849766,225.50064712180756 161.24973039515316,227.97710119676776 158.76149393618107,230.17839144705795 158.08288399223238,232.6548404339701 157.63047736417502,236.23192865750752 156.49946079216897,240.909650930902 156.95186742115766,244.2115667485632 157.17807073518634,246.41284129861742 156.49946079216897,250.81538401311263 156.95186742115766,254.11728546093218 155.5946475332603,258.24465553602204 156.27325747720897,261.54654620797373 156.49946079216897,263.4726468878798 160.34491713810712,264.8484320899006 163.96417016908526,267.3248433584813 166.22620331402868,266.77452997583896 169.16684640292078,265.94905965332873 172.10748949088156,264.8484320899006 175.04813257977366,261.54654620797373 175.27433589380234,259.34528629202396 175.9529458368197,256.593708404107 176.85775909479707,253.84212718973868 177.98877566773444,250.81538401311263 177.08396240975708,247.2383187059313 175.9529458368197,243.38608824275434 176.1791491517797,240.35933116311207 176.6315557807684,237.05740975774825 177.76257235370576,236.23192865750752 178.6673856107518,232.6548404339701 177.31016572378576,229.90323028177954 178.4411822957918,230.17839144705795 177.98877566773444,227.42677830229513 174.82192926388234,226.05097048194148 171.4288795478642,224.95032362709753 168.26203314494342,224.4000000001397 164.1903734849766,225.50064712180756 161.02352708112448,227.97710119676776 158.3090873081237,229.90323028177954 158.08288399223238,233.20516206533648 155.8208508491516,237.05740975774825 154.46363096125424,241.45997056690976 156.04705416224897,241.45997056690976 156.72566410526633,243.11092867492698 156.27325747720897,246.68800046737306 155.5946475332603,250.81538401311263 153.3326143892482,253.01665217778645 155.3684442192316,256.04339242796414 155.5946475332603,258.5198132751975 157.17807073518634,262.92233257344924 159.21390056516975,265.3987459379714 161.92834033910185,266.2242164602503 165.77379668504,266.2242164602503 169.39304971788079,267.60000000009313 173.01230274885893,266.2242164602503 174.14331932086498,264.0229610686656 174.36952263582498,260.4459165164735 175.72674252279103,259.34528629202396 175.9529458368197,255.21791821345687 177.98877566773444,248.61411371990107 177.98877566773444,243.93640727945603 175.9529458368197,241.1848107650876 176.6315557807684,237.88289055787027 177.08396240975708,235.40644725901075 177.53636903874576,231.82935773720965" stroke="#4DD2FF" stroke-dasharray="none" stroke-linecap="round" stroke-linejoin="round" stroke-width="0.5"><title>2013-09-22 10.9km</title><desc>9223370657048162807</desc></polyline></svg>