<?xml version="1.0" encoding="utf-8" ?>
<svg baseProfile="full" height="300mm" version="1.1" viewBox="0,0,200,300" width="200mm" xmlns="http://www.w3.org/2000/svg" xmlns:ev="http://www.w3.org/2001/xml-events" xmlns:xlink="http://www.w3.org/1999/xlink"><defs /><rect fill="#222222" height="300" width="200" x="0" y="0" /><text fill="#FFFFFF" style="font-size:12px; font-family:Arial; font-weight:bold;" x="10" y="20">Over 10km Runs</text><text fill="#FFFFFF" style="font-size:4px; font-family:Arial" x="10" y="280">Runner</text><text fill="#FFFFFF" style="font-size:9px; font-family:Arial" x="10" y="290">keep</text><text fill="#FFFFFF" style="font-size:4px; font-family:Arial" x="65" y="280">SPECIAL TRACKS</text><rect fill="yellow" height="2.6" width="2.6" x="65" y="283" /><text fill="#FFFFFF" style="font-size:3px; font-family:Arial" x="70" y="285.5">Over 20.0 km</text><rect fill="red" height="2.6" width="2.6" x="65" y="287" /><text fill="#FFFFFF" style="font-size:3px; font-family:Arial" x="70" y="289.5">Over 40.0 km</text><text fill="#FFFFFF" style="font-size:4px; font-family:Arial" x="120" y="280">STATISTICS</text><text fill="#FFFFFF" style="font-size:3px; font-family:Arial" x="120" y="285">Number: 15</text><text fill="#FFFFFF" style="font-size:3px; font-family:Arial" x="120" y="290">Weekly: 1.2</text><text fill="#FFFFFF" style="font-size:3px; font-family:Arial" x="141" y="285">Total: 163.6 km</text><text fill="#FFFFFF" style="font-size:3px; font-family:Arial" x="141" y="290">Avg: 10.9 km</text><text fill="#FFFFFF" style="font-size:3px; font-family:Arial" x="167" y="285">Min: 10.2 km</text><text fill="#FFFFFF" style="font-size:3px; font-family:Arial" x="167" y="290">Max: 14.0 km</text><polyline fill="none" opacity="1" points="26.390082816942595,75.59999999999854 26.452024003257975,75.28816676029237 26.460872744210064,74.97633235596004 26.452024003257975,74.61994875348319 26.4431752624223,74.30811185354105 26.452024003257975,74.00741088265204 26.469721485162154,73.62874886030477 26.478570225997828,73.36145698701876 26.567057635169476,73.0941642580292 26.770578676078003,72.98279203507263 27.044889644312207,72.97165480459807 27.106830830685794,72.82687067333609 27.14222579431953,72.69322356008342 27.159923276107293,72.47047789592034 27.186469498847146,72.13635828546103 27.07143586705206,71.81337472432642 26.788276157923974,71.66858858443447 26.708637489704415,71.40129043574416 26.779427416971885,70.97806661677168 26.814822380663827,70.69962872372707 26.867914826085325,70.36550202631042 26.91215853067115,70.0090987418298 26.965250976092648,69.68610695104144 26.974099717044737,69.46335326381086 27.06258712609997,69.30742532911245 27.106830830685794,69.16263484329102 27.089133348839823,68.96215529448818 27.097982089791913,68.8841908954928 27.159923276107293,68.68371067804401 27.221864462539088,68.40526513291115 27.292654389806557,68.13795653582201 27.372293058026116,67.80381958588987 27.451931726245675,67.49195722598961 27.54041913530091,67.19123170417151 27.664301508048084,66.9796093913028 27.823578844428994,67.00188544948469 28.062494849029463,67.09098962281132 28.301410853629932,66.95733332712553 28.522629376326222,66.74571042132447 28.611116785439663,66.48953460707708 28.770394121820573,66.1776673373679 28.938520199153572,65.86579890254507 29.106646276428364,65.57620574129396 29.257074871915393,65.29774983111565 29.41635220835451,65.03043128350691 29.57562954473542,64.69628189523792 29.743755622010212,64.39554630215571 29.947276662976947,63.99456382605422 30.177343926683534,63.61585638555698 30.407411190331914,63.20373163050681 30.575537267606705,62.91412923402095 30.77020956762135,62.61338722038636 30.94718438584823,62.32378277576208 31.07991549948929,62.11214812313847 31.25689031771617,61.84481937390956 31.460411358682904,61.53293475107057 31.566596249642316,61.232187761161185 31.717024845071137,60.89802316811256 31.9028484041919,60.58613500762294 32.14176440873416,60.34107920688257 32.3983778951806,60.15171741350787 32.56650397245539,59.89552136225393 32.743478790682275,59.61704650156025 32.83196619973751,59.55021239677444 32.94699983164901,59.30515355466923 33.05318472255021,59.06009399301547 33.132823390711565,58.89300751578412 33.3363444316783,58.8038945911394 33.48677302716533,58.826172831213626 33.59295791806653,58.72592070404062 33.716840290871914,58.569972711324226 33.90266384999268,58.391746077133575 34.08848740911344,58.1355446237867 34.28315970906988,57.90162087085628 34.30970593186794,57.68997500569094 34.26546222734032,57.35579623112426 34.30085719091585,57.11073094608582 34.47783200914273,56.843386178137735 34.690201791003346,56.62059821734874 34.84947912738426,56.36439132726082 34.973361500073224,56.01906775279349 35.13263883651234,55.751719488049275 35.41579854564043,55.484370366932126 35.628168327501044,55.26157877850346 35.76974818209419,54.98308845662541 35.893630554841366,54.66003851906862 36.02636166848242,54.37040647747199 36.30067263671663,54.15875165761099 36.55728612316307,54.13647217165999 36.75195842317771,53.846838313140324 36.849294573185034,53.523783977434505 36.91123575955862,53.23414799262537 36.973176945874,52.92223119256232 37.05281561409356,52.55461346728407 37.15015176410088,52.2092741290835 37.185546727792826,52.053313959535444 37.23863917327253,51.86393336182664 37.29173161869403,51.52973125874996 37.37137028685538,51.12868696842634 37.46870643692091,50.749921146794804 37.574891327822115,50.33773285825009 37.61913503240794,49.98124404796545 37.69877370056929,49.65817474828509 37.78726110968273,49.31282342415216 37.87574851879617,48.9229089211658 37.92884096421767,48.56641406696872 37.99963089154335,48.221058224698936 38.08811830065679,47.81999803353392 38.16775696881814,47.4634984676959 38.22969815519173,47.162700774366385 38.309336823411286,46.80619840046711 38.362429268832784,46.50539833779476 38.44206793705234,46.23801959402772 38.468614159792196,46.10432990084519 38.51285786431981,45.81466816424654 38.58364779158728,45.46930093336414 38.66328645980684,45.10165037494153 38.7429251280264,44.745139195540105 38.80486631439999,44.46661377677083 38.81371505529387,44.35520334897592 38.85795875987969,44.07667662865424 38.91989994619507,43.764725598121004 38.99068987352075,43.37478516991541 39.06147980084643,43.0405490668054 39.13226972805569,42.77315922033449 39.176513432641514,42.5837575606638 39.22075713716913,42.43892070728907 39.265000841754954,42.338648892284255 39.30039580538869,42.20495295152796 39.25615210086107,41.97098453966464 39.273849582648836,41.71473266919202 39.31809328717645,41.4361971347098 39.38888321450213,41.23565097418759 39.45082440087572,41.06852880548104 39.70743788726395,41.11309474988957 40.00829507823801,41.22450950668281 40.300303528259974,41.324782660587516 40.5038245691685,41.38048991627875 40.565765755600296,41.14651919253811 40.58346323738806,40.890264789974026 40.57461449649418,40.60058495242993 40.59231197834015,40.221771339623956 40.61885820108,39.82067269847903 40.68964812834747,39.50870575563749 40.60116071923403,39.25244632282556 40.42418590100715,39.18559590657969 40.12332871003309,39.23016285668564 39.822471519059036,39.30815496212017 39.75168159179157,39.141028932630434 39.78707655548351,38.82905944852973 39.85786648275098,38.49480513540766 39.919807669124566,38.1716913597993 40.00829507823801,37.80400864472904 40.087933746457566,37.46975022491097 40.13217745098518,37.135490465923795 40.1764211555128,36.82351348262455 40.22066486009862,36.5338195249351 40.238362341886386,36.34440370104858 40.19411863730056,36.1995560161231 40.32684975099983,36.09927670232719 40.53037079196656,35.99899726800504 40.57461449649418,35.85414898340241 40.40648841916118,35.73158485384192 40.41533716011327,35.553309434922994 40.41533716011327,35.40846037649317 40.57461449649418,35.419602620691876 40.76928679656703,35.441887104607304 40.91971539199585,35.43074486340629 41.061295246589,35.43074486340629 41.23827006475767,35.39731813081016 41.40639614209067,35.375033634998545 41.441791105724405,35.09647693496663 41.48603481031023,34.63964193347783 41.53912725573173,34.260801254364196 41.57452221942367,33.9488135210413 41.56567347847158,33.73710689460859 41.592219701211434,33.536542226611346 41.609917183057405,33.347119597456185 41.47718606941635,33.25797938783944 41.23827006475767,33.23569432055956 41.05244650563691,33.1911241681446 40.875471687468234,33.101983791835664 40.61885820108,33.057413567992626 40.28260604647221,32.97941561892367 39.97290011460427,32.93484532954608 39.672042923630215,32.83456209148426 39.32694202812854,32.78999172474141 39.04378231894225,32.700850919805816 38.83141253713984,32.56713953380677 38.619042755279224,32.5782821575267 38.3004880824592,32.56713953380677 38.00847963243723,32.555996908660745 37.68992495967541,32.533711653879436 37.36252154601971,32.50028376048431 37.079361836833414,32.455713215167634 36.74310968222562,32.43342793354532 36.521891159471124,32.411142645993095 36.50419367768336,32.43342793354532 36.4245550094638,32.66742309340043 36.371462563984096,32.87913243439107 36.32721885945648,33.06855612617073 36.30067263671663,33.302549504558556 36.274126413976774,33.480829733271094 36.203336486709304,33.70367948340572 36.123697818489745,33.87081640535325 36.01751292758854,34.06023784544959 35.964420482108835,34.22737405302905 35.90247929573525,34.416794683515036 35.805143145727925,34.595072531134065 35.734353218460456,34.7733499977403 35.6547145502409,34.94048477668548 35.548529659281485,35.16333062778722 35.406949804746546,35.319322369396104 35.37155484111281,35.59787832535221 35.26536995021161,35.843006797244016 35.11494135472458,36.166129591591016 34.96451275923755,36.522677429544274 34.81408416375052,36.82351348262455 34.672504309157375,37.135490465923795 34.530924454622436,37.42518233443843 34.3893446000875,37.72601513322297 34.23006726364838,38.03798874178756 34.08848740911344,38.327677476663666 33.964605036366265,38.595081569954345 33.876117627252825,38.784492284132284 33.81417644087924,38.84020123592927 33.73453777265968,38.92933548134897 33.67259658628609,39.118745436746394 33.64605036354624,39.4195721291544 33.477924286271445,39.709256067100796 33.34519317257218,39.96551409687527 33.26555450441083,40.166063310309255 33.318646949890535,40.288620925661235 33.539865472586825,40.32204569859459 33.85842014540685,40.32204569859459 34.18582355912076,40.37775362376124 34.50437823188258,40.4223199370972 34.84947912738426,40.46688622662623 35.18573128199205,40.51145249236288 35.4865884729079,40.556018734270765 35.787445663881954,40.5894434001093 35.94672300032107,40.52259405508812 35.99096670484869,40.32204569859459 36.044059150328394,40.099213626053825 36.035210409376305,39.99893899928429 36.18563900486333,40.04350551493553 36.22988270944916,40.221771339623956 36.212185227603186,40.51145249236288 36.14139530033572,40.87912327633967 36.07060537306825,41.22450950668281 35.99096670484869,41.636742813258024 35.92017677758122,42.00440863869153 35.84053810936166,42.338648892284255 35.787445663881954,42.661746531426616 35.716655736614484,42.97370168555062 35.67241203202866,43.285655673338624 35.69010951387463,43.61989079465275 35.50428595475387,43.88727792776626 35.398101063852664,44.13238204708614 35.30961365473922,44.45547274068667 35.25652120925952,44.77856218330999 35.238823727471754,45.034804644819815 35.36270610021893,45.19077793177712 35.398101063852664,45.502723631085246 35.327311136585195,45.87037242245424 35.238823727471754,46.2825827774941 35.159185059252195,46.63908738839382 35.097243872936815,47.006731173198204 35.05300016829278,47.39665462956327 35.04415142745711,47.71973268457805 35.03530268650502,48.065090601638076 35.04415142745711,48.410447089365334 35.017605204717256,48.7892235292893 35.00875646376517,49.12343660736951 34.973361500073224,49.4687887152686 34.95566401828546,49.791858748110826 34.902571572805755,50.114927530274144 34.84947912738426,50.471415769490704 34.760991718270816,50.81676229905861 34.81408416375052,51.13982711360586 34.7698404591647,51.48517087720393 34.69905053189723,51.84165326329094 34.530924454622436,52.17585411728214 34.34510089550167,52.43207386567519 34.07963866816135,52.64373306452035 33.83187392272521,52.85539172658173 33.59295791806653,53.078189738313085 33.35404191352427,53.30098715526401 33.25670576351695,53.46808482766937 33.132823390711565,53.62404235336726 33.00894101796439,53.80227916876902 32.8939073861693,54.013934892638645 32.79657123616198,54.32584761265025 32.63729389972286,54.66003851906862 32.46031908155419,54.98308845662541 32.30989048606716,55.25043918348092 32.194856854272075,55.517789053898014 32.186008113319986,55.751719488049275 32.35413419059478,55.929951759688265 32.336436708807014,56.20843892216362 32.22140307689551,56.48692515541916 32.274495522433426,56.58717997192434 32.186008113319986,56.509204013949784 32.03557951783296,56.68743466801243 31.83205847692443,57.01047675844893 31.646234917803667,57.23326367854315 31.39847017225111,57.47832860382914 31.24804157682229,57.76794986053574 31.16840290860273,58.035291667118145 31.0179743131157,58.280354237533174 30.902940681320615,58.391746077133575 30.646327194874175,58.36946772112424 30.389713708485942,58.35832854086766 30.097705258463975,58.30263261734217 29.779150585643947,58.30263261734217 29.50483961746795,58.313771805020224 29.363259762874804,58.347189359148615 29.274772353761364,58.347189359148615 29.186284944647923,58.558833557857724 29.035856349160895,58.7704772198922 29.00046138552716,59.02667672433017 28.938520199153572,59.29401449927536 28.78809160372475,59.527934349949646 28.770394121820573,59.61704650156025 28.611116785439663,59.78413152945723 28.398747003637254,59.98463312142849 28.19522596267052,60.19627316825063 28.248318408150226,60.39677377022599 28.319108335417695,60.50816278541606 28.381049521791283,60.66410715699749 28.416444485425018,60.92030084927683 28.43414196727099,61.15421614242223 28.407595744531136,61.07624445088004 28.221772185410373,61.08738326843013" stroke="#4DD2FF" stroke-dasharray="none" stroke-linecap="round" stroke-linejoin="round" stroke-width="0.5"><title>2017-12-17 14.0km</title><desc>9223370523376934807</desc></polyline><polyline fill="none" opacity="1" points="100.46378445462324,32.40000000000873 100.618379272928,32.61223249998875 100.6043251985102,33.37272950302577 100.66054149612319,33.69107579103729 100.78702816553414,33.95636378072959 100.84324446308892,34.31008027502685 100.8994607605855,34.64611007095664 100.91351483494509,35.03519613957906 100.92756890936289,35.44196671829559 100.99783928127727,35.74262243132398 101.06810965319164,36.06096303171944 101.15243409952382,36.36161734171037 101.18054224830121,36.697641940569156 101.2227044714964,37.03366568819911 101.33513706654776,37.210519950298476 101.58811040542787,37.31663239444606 101.63027262856485,37.45811552120722 101.48973188479431,37.634969217469916 101.32108299212996,37.723395977169275 101.39135336410254,38.024046519203694 101.5037859591539,38.289325843332335 101.64432670298265,38.643030783729046 101.74270522367442,38.9436792415072 101.84108374436619,39.26201215996116 101.99567856261274,39.58034431443957 102.16432745521888,39.88099064788548 102.30486819904763,40.16395128042495 102.15027338080108,40.41154133877717 101.86919189314358,40.35848636517767 101.65838077734224,40.19932131704991 101.40540743846213,40.00478599888447 101.1945963226608,40.04015607795736 100.94162298372248,40.093211178900674 100.68864964478416,40.12858123439946 100.618379272928,40.34080136928242 100.63243334728759,40.60607606044505 100.52000075223623,40.78292555989174 100.23891926452052,40.88903514634876 99.92972962808562,40.995144647953566 99.62053999159252,41.0305144629674 99.46594517340418,40.88903514634876 99.52216147090076,40.64144597919949 99.62053999159252,40.30543137037603 99.71891851228429,40.00478599888447 99.78918888419867,39.63339959928999 99.85945925611304,39.226641873363405 99.81729703297606,38.837568098912016 99.77513480989728,38.50154892077262 99.6767562891473,38.200899460949586 99.35351257829461,38.200899460949586 99.0864851649967,38.112473019587924 99.00216071866453,37.95330527651822 98.98810664424673,37.7410813220049 98.98810664424673,37.511171654841746 98.88972812361317,37.35200319025898 98.70702515664743,37.35200319025898 98.51026811520569,37.31663239444606 98.36972737137694,37.369688584672986 98.39783552015433,37.67033992840152 98.41188959451392,37.97099059073662 98.42594366893172,38.324696379873785 98.43999774329131,38.58997510281915 98.4681058920105,38.961364423666964 98.45405181770911,39.31506757209718 98.45405181770911,39.63339959928999 98.45405181770911,39.969415910411044 98.4681058920105,40.28774636736489 98.4681058920105,40.58839109755354 98.4681058920105,40.94208990778134 98.4821599664865,41.18967851382331 98.4821599664865,41.40189695122535 98.4821599664865,41.63179987529293 98.45405181770911,41.91475677328708 98.43999774329131,42.18002831704507 98.41188959451392,42.32150625684881 98.38378144573653,42.58677698727115 98.35567329695914,42.83436252371757 98.35567329695914,43.04657833004603 98.35567329695914,43.329532210409525 98.35567329695914,43.63017004705034 98.36972737137694,43.983860747292056 98.34161922259955,44.33755050455511 98.35567329695914,44.67355490049522 98.35567329695914,44.97418969130376 98.36972737137694,45.27482380083529 98.38378144573653,45.62851011629391 98.38378144573653,45.92914274310169 98.38378144573653,46.22977468857425 98.36972737137694,46.45966924606182 98.36972737137694,46.72493170197413 98.31351107382216,46.99019362745457 98.36972737137694,47.25545502260502 98.39783552015433,47.53839992613939 98.43999774329131,47.839028224989306 98.4821599664865,48.157339798883186 98.52432218962349,48.52870233647991 98.62270071025705,48.91774768960022 98.70702515664743,49.30679190173396 98.83351182605838,49.607416193466634 98.93189034680836,49.89035608097038 99.04432294185972,50.226346413764986 99.15675553691108,50.49160133853729 99.26918813202064,50.68612127972301 99.31135035509942,50.862957342353184 99.46594517340418,51.12821099438588 99.53621554531856,51.393464116132236 99.56432369409595,51.53493223084661 99.63459406595211,51.72945064230589 99.81729703297606,51.853234937472735 99.88756740494864,52.012386004440486 100.02810814877739,52.20690371590899 100.15459481818834,52.38373775155924 100.25297333893832,52.631305005575996 100.39351408270886,52.79045513919846 100.6043251985102,53.02033832852612 100.78702816553414,53.26790439464094 100.98378520691767,53.53315323860443 101.15243409952382,53.79840155225247 101.25081262027379,53.957550285966136 101.33513706654776,54.1520651456085 101.5037859591539,54.4173122219654 101.67243485176004,54.647192592557985 101.88324596750317,54.96548783275648 102.05189486016752,55.26609930289851 102.20648967835587,55.495978202918195 102.36108449660242,55.77890553305042 102.51567931479076,56.04414935715613 102.7124363562325,56.36244124616496 102.88108524883864,56.66304955135274 103.09189636463998,56.96365717543813 103.27459933160571,57.24658137599181 103.45730229862966,57.54718767805025 103.66811341437278,57.88315862150921 103.86487045575632,58.20144609895942 104.06162749719806,58.50205023778835 104.2443304641638,58.80265369550034 104.38487120799255,59.08557397482218 104.55352010059869,59.333128724392736 104.69406084448565,59.545318142088945 104.86270973703358,59.82823683791503 105.04541270405753,60.12883729120949 105.17189937352668,60.323343104013475 105.36865641491022,60.588577843722305 105.56541345629375,60.871494315128075 105.7340623489581,61.15441018324054 105.87460309278686,61.41964326177549 106.0573060598108,61.73792225624493 106.24000902677653,62.073882588825654 106.45082014251966,62.427524125232594 106.59136088640662,62.639708594666445 106.81622607656755,63.0110305997805 107.01298311795108,63.293941906202235 107.18163201055722,63.559170708220336 107.33622682880377,63.842080845992314 107.5329838701291,64.14267220655165 107.72974091151264,64.46094466958311 107.91244387853658,64.79689810796117 108.06703869678313,65.09748730562569 108.20757944061188,65.4157574785786 108.37622833321802,65.75170849970891 108.50271500268718,66.06997710357246 108.60109352332074,66.44128950993763 108.64325574651593,66.63578607009549 108.58703944901936,66.81260087735427 108.48866092826938,66.95405255357036 108.51676907710498,66.90100819263898 108.65730982093373,66.86564527363225 108.78379649040289,67.04245977461687 108.88217501109466,67.3076810844068 108.98055353172822,67.59058323060162 109.09298612683779,67.92652874586929 109.23352687060833,68.280154685257 109.3459594657179,68.63377968227724 109.45839206088567,68.95204137393739 109.52866243274184,69.19957771751797 109.66920317657059,69.5001569425076 109.78163577173837,69.80073548672954 109.89406836678972,70.08363231818657 110.00650096184108,70.36652854659769 110.04866318497807,70.5787003221194 110.11893355695065,70.87927642345312 110.23136615206022,71.17985184404824 110.34379874711158,71.49810742965201 110.44217726774514,71.7986814485921 110.54055578849511,72.0992547867645 110.65298838354647,72.41750816747663 110.75136690429645,72.6827187351737 110.8778535737074,73.00097071667551 110.99028616875876,73.283860726282 111.10271876386832,73.58443070069188 111.22920543333748,73.92036104307044 111.34163802838884,74.18556860738317 111.468124697858,74.48613653965003 111.52434099535458,74.68062130955514 111.65082766482374,74.92814696813002 111.7492061855155,75.06958999435301 111.7913684087107,75.22871321860293 111.7492061855155,75.45855753908108 111.60866544168675,75.60000000000582 111.44001654908061,75.4055165774189 111.27136765647447,75.17567216508905 111.07461061509093,74.87510579447553 110.83569135057041,74.59221917676041 110.54055578849511,74.25629053506418 110.2454202263616,73.99108311205055 109.99244688748149,73.74355570570333 109.73947354854317,73.47834725801658 109.50055428402266,73.21313828042184 109.27568909386173,72.98329007107532 108.98055353172822,72.7003994208062 108.71352611843031,72.4528696071502 108.4464987051324,72.16997782619728 108.1794712918927,71.92244702322932 107.92649795289617,71.6572349362541 107.60325424204348,71.39202231923991 107.35028090316337,71.197532729886 107.05514534108806,71.05608557681262 106.68973940709839,70.91463827299594 106.3243334730505,70.84391456452431 105.98703568789642,70.80855269615131 105.63568382826634,70.72014798402961 105.34054826613283,70.64942417191924 104.98919640656095,70.5787003221194 104.65189862129046,70.50797643464466 104.32865491043776,70.4902954569261 103.96324897644809,70.38420954086178 103.6259511912358,70.29580454601091 103.47135637293104,70.26044253163855 103.27459933160571,70.2073994923121 103.06378821586259,70.17203745433653 102.83892302564345,70.13667540700408 102.64216598431813,70.1189943797217 102.44540894293459,70.10131335011101 102.26270597591065,70.04827024723636 102.02378671139013,69.97754607704701 101.7848674468114,69.92450292469584 101.61621855426347,69.85377868855721 101.36324521532515,69.80073548672954 101.09621780202724,69.67696793333744 100.73081186803756,69.53551915951539 100.35135185957188,69.39407023492095 100.09837852069177,69.32334571615502 99.71891851228429,69.21725886722561 99.3956748014316,69.1111719335313 99.04432294185972,69.00508491499932 98.66486293339403,68.89899781164422 98.28540292510297,68.82827302896476 97.96215921425028,68.686823350552 97.61080735462019,68.61609845480416 97.23134734621271,68.47464855025464 96.90810363536002,68.35087976000796 96.71134659397649,68.26247341065027 96.37404880882241,68.15638571366435 96.0648591722711,68.05029793185531 95.72756138705881,67.89116610008932 95.37620952742873,67.69667137994838 95.05296581663424,67.48449499643175 94.72972210572334,67.25463686484727 94.46269469242543,66.93637110230338 94.2659376510419,66.63578607009549 94.13945098157274,66.35288188839331 94.08323468407616,66.15838491365139 93.91458579147002,65.92852448501799 93.77404504758306,65.66330041870242 93.6616124525317,65.50416572447284 93.52107170870295,65.20357744810462 93.3524228160386,64.86762503930368 93.15566577471327,64.51399000591482 92.98701688204892,64.10730855236761 92.77620576624759,63.70062585249252 92.57944872486405,63.258578025895986 92.39674575789832,62.940302678907756 92.22809686529217,62.60434453997004 92.05944797262782,62.21533931646263 91.8767450057203,61.80865081799857 91.67998796427855,61.38427888194565 91.48323092295323,60.977587836343446 91.25836573273409,60.553213242368656 91.08971684012795,60.18188435937918 90.86485164996702,59.775189628388034 90.68214868300129,59.36849365092348 90.51349979039514,58.96179642685456 90.31674274901161,58.55509795626858 90.16214793076506,58.219128714205 90.00755311251851,57.88315862150921 89.86701236868976,57.65328385736211 89.7545797736384,57.31731233188475 89.62809310416924,56.92829160793917 89.50160643464187,56.52158690433134 89.4172819883679,56.11488095401728 89.36106569081312,55.79658847118844 89.30484939325834,55.425246276077814 89.24863309570355,54.983170879262616 89.20647087262478,54.54109400944435 89.17836272378918,54.18743145307235 89.1362005006522,53.833767954056384 89.05187605432002,53.444737016179715 89.07998420309741,53.09107153736113 89.05187605432002,52.6843550712947 89.03782198001863,52.33068756562716 89.06593012873782,51.959335670020664 89.07998420309741,51.58798273499997 89.06593012873782,51.16357810795307 88.99565975682344,50.79222294561623 88.92538938490907,50.42086674380698 88.88322716177208,49.9787746721413 88.86917308735428,49.62509995410801 88.85511901293648,49.21837286280061 88.81295678985771,48.93543154209328 88.74268641788512,48.599437940094504 88.71457826916594,48.157339798883186 88.8270108642173,47.715240184465074 88.85511901293648,47.36155943215999 88.85511901293648,47.04324594895297 88.86917308735428,46.81335240272165 88.91133531054948,46.65419509890489 88.85511901293648,46.37124830955872 88.81295678985771,46.070616684664856 88.78484864108032,45.734615827095695 88.75674049230292,45.38092979451176 88.72863234352553,45.00955844545388 88.70052419474814,44.70892373478273 88.61619974841597,44.284497101049055 88.58809159969678,43.877753636217676 88.57403752527898,43.453324343281565 88.53187530208379,43.08194759811158 88.4897130789468,42.763623846156406 88.44755085580982,42.42761461263581 88.43349678145023,42.21539781615138 88.44755085580982,41.84401760538458 88.44755085580982,41.472636354883434 88.43349678145023,41.11893895921821 88.40538863261463,40.81829543146887 88.34917233517626,40.44691130942374 88.30701011198107,40.093211178900674 88.32106418634066,39.721825026819715 88.34917233517626,39.40349321180838 88.32106418634066,38.99673478095792 88.25079381442629,38.678401225901325 88.23673974000849,38.25395529749221 88.2086315912893,37.91793464096554 88.25079381442629,37.75876666449767 88.25079381442629,37.56422776720137" stroke="#4DD2FF" stroke-dasharray="none" stroke-linecap="round" stroke-linejoin="round" stroke-width="0.5"><title>2017-11-19 11.8km</title><desc>9223370525802103807</desc></polyline><polyline fill="none" opacity="0.5" points="171.0950393890962,74.11823595536407 170.4221096583642,74.23221788124647 168.59558610385284,74.6881454566028 166.28839845582843,73.66230812645517 164.654140538536,72.29452342214063 163.21214825846255,72.63646976917516 161.57789034117013,72.06655912764836 160.135898062028,71.83859478181694 158.98230423778296,72.06655912764836 157.82871041400358,71.72461259015836 156.67511658975855,71.26868369639851 155.23312431015074,71.382665939047 153.98339766729623,71.95257696113549 151.86847565649077,71.26868369639851 150.71488183317706,70.58478997577913 150.13808492105454,69.33098363585304 149.36902237171307,68.07717576262075 149.2728895531036,66.25345248274971 149.46515519032255,64.6576919509098 149.46515519032255,62.83396258740686 149.2728895531036,61.23819673305843 149.2728895531036,59.07251052884385 148.9844910968095,57.9326738466043 148.79222545959055,56.22291644709185 149.17675673449412,54.627140301512554 149.17675673449412,53.259330199682154 149.56128800893202,52.11948705383111 149.2728895531036,50.63768906937912 149.75355364615098,49.04190422943793 149.65742082800716,47.33213200129103 149.9458192838356,46.30626729526557 150.04195210244507,44.254534804145806 149.9458192838356,42.43076914176345 150.04195210244507,40.834971525822766 150.13808492105454,39.581128799007274 150.42648337688297,38.09931269020308 150.71488183317706,36.503508331254125 150.42648337688297,34.90770148765296 150.42648337688297,33.767837935476564 150.23421773966402,32.40000000002328 150.42648337688297,33.767837935476564 150.42648337688297,34.90770148765296 150.71488183317706,36.503508331254125 150.42648337688297,38.09931269020308 150.13808492105454,39.581128799007274 150.04195210244507,40.834971525822766 149.9458192838356,42.43076914176345 150.04195210244507,44.254534804145806 149.9458192838356,46.30626729526557 149.65742082800716,47.33213200129103 149.75355364615098,49.04190422943793 149.2728895531036,50.63768906937912 149.56128800893202,52.11948705383111 149.17675673449412,53.259330199682154 149.17675673449412,54.627140301512554 148.79222545959055,56.22291644709185 148.9844910968095,57.9326738466043 149.2728895531036,59.07251052884385 149.2728895531036,61.23819673305843 149.46515519032255,62.83396258740686 149.46515519032255,64.6576919509098 149.2728895531036,66.25345248274971 149.36902237171307,68.07717576262075 150.13808492105454,69.33098363585304 150.71488183317706,70.58478997577913 151.86847565649077,71.26868369639851 153.98339766729623,71.95257696113549 155.23312431015074,71.382665939047 156.67511658975855,71.26868369639851 157.82871041400358,71.72461259015836 158.98230423778296,72.06655912764836 160.135898062028,71.83859478181694 161.57789034117013,72.06655912764836 163.21214825846255,72.63646976917516 164.654140538536,72.29452342214063 166.28839845582843,73.66230812645517 168.59558610385284,74.6881454566028 170.4221096583642,74.23221788124647 171.0950393890962,74.11823595536407 172.82543012453243,74.00425401725806 174.36355522321537,74.11823595536407 175.99781314097345,74.34619979397394 178.0166023322381,75.25805464142468 179.17019615648314,74.9161091685528 180.51605561748147,75.14407283009496 181.95804789755493,75.14407283009496 183.20777454040945,75.59999999997672" stroke="#4DD2FF" stroke-dasharray="1,0.5" stroke-linecap="round" stroke-linejoin="round" stroke-width="0.5"><title>2014-03-22 10.5km</title><desc>9223370641410674807</desc></polyline><polyline fill="none" opacity="1" points="55.600000000034925,101.95011068110034 55.446263345191255,101.95011068110034 55.32327402138617,101.9625841615416 55.19003558723489,101.9126902307471 55.02604982210323,101.92516371574311 54.91330960858613,101.93763719916751 54.749323843454476,101.93763719916751 54.605836298957,101.93763719916751 54.4930960854399,101.93763719916751 54.33935943065444,101.93763719916751 54.20612099650316,101.92516371574311 54.083131672639865,101.9126902307471 53.96014234877657,101.9002167442959 53.83715302491328,101.8877432563022 53.703914590820204,101.92516371574311 53.570676156610716,101.92516371574311 53.437437722459435,101.9126902307471 53.304199288308155,101.8877432563022 53.17096085409867,101.86279627579643 53.07871886121575,101.86279627579643 52.924982206430286,101.86279627579643 52.78149466199102,101.8877432563022 52.64825622778153,101.8877432563022 52.51501779363025,101.87526976678055 52.371530249132775,101.83784928928799 52.24854092532769,101.86279627579643 52.1153024911182,101.86279627579643 51.95131672604475,101.8503227832989 51.83857651252765,101.8129022967114 51.67459074733779,101.80042879813846 51.520854092610534,101.83784928928799 51.35686832742067,101.83784928928799 51.233879003615584,101.8503227832989 51.08014234883012,101.83784928928799 50.95715302496683,101.83784928928799 50.81366548046935,101.8503227832989 50.700925266952254,101.83784928928799 50.567686832742766,101.82537579373457 50.43444839864969,101.8503227832989 50.301209964440204,101.83784928928799 50.16797153028892,101.83784928928799 50.055231316771824,101.86279627579643 49.91174377233256,101.87526976678055 49.79900355875725,101.87526976678055 49.66576512460597,101.87526976678055 49.49153024912812,101.86279627579643 49.37879003561102,101.86279627579643 49.21480427047936,101.86279627579643 49.12256227765465,101.86279627579643 48.98932384344516,101.86279627579643 48.85608540929388,101.8503227832989 48.7228469751426,101.86279627579643 48.57935943064513,101.82537579373457 48.45637010678183,101.82537579373457 48.30263345199637,101.8129022967114 48.159145907557104,101.8129022967114 48.025907473347615,101.80042879813846 47.913167259830516,101.80042879813846 47.76967971533304,101.83784928928799 47.60569395025959,101.86279627579643 47.4827046263963,101.83784928928799 47.33921708189882,101.82537579373457 47.205978647689335,101.8129022967114 47.08298932388425,101.78795529805211 46.91900355875259,101.8129022967114 46.796014234947506,101.78795529805211 46.64227758010384,101.77548179649602 46.49879003560636,101.77548179649602 46.35530249110889,101.8129022967114 46.222064056957606,101.80042879813846 46.05807829182595,101.76300829343381 45.90434163704049,101.73806128273282 45.77110320288921,101.72558777509403 45.62761565839173,101.68816724319913 45.48412811389426,101.70064075532719 45.36113879008917,101.7131142659855 45.22790035593789,101.73806128273282 45.1049110320746,101.75053478885093 44.971672597923316,101.80042879813846 44.83843416371383,101.80042879813846 44.69494661921635,101.78795529805211 44.56170818512328,101.77548179649602 44.44896797160618,101.76300829343381 44.31572953739669,101.78795529805211 44.18249110324541,101.77548179649602 44.05950177938212,101.80042879813846 43.905765124596655,101.76300829343381 43.752028469811194,101.78795529805211 43.639288256294094,101.76300829343381 43.49580071173841,101.76300829343381 43.36256227764534,101.76300829343381 43.24982206412824,101.72558777509403 43.106334519630764,101.70064075532719 42.9525978648453,101.7131142659855 42.79886121000163,101.72558777509403 42.64512455521617,101.70064075532719 42.522135231411085,101.7131142659855 42.3786476868554,101.7131142659855 42.22491103206994,101.70064075532719 42.09167259786045,101.70064075532719 41.95843416376738,101.7131142659855 41.80469750892371,101.72558777509403 41.661209964426234,101.75053478885093 41.53822064056294,101.7131142659855 41.40498220646987,101.6756937295504 41.26149466197239,101.68816724319913 41.12825622782111,101.66322021436645 40.98476868332364,101.6756937295504 40.86177935946034,101.70064075532719 40.738790035655256,101.6756937295504 40.59530249115778,101.65074669771275 40.44156583637232,101.65074669771275 40.318576512509026,101.65074669771275 40.164839857665356,101.62579965982877 40.06234875449445,101.60085261590575 39.92911032028496,101.60085261590575 39.785622775845695,101.60085261590575 39.68313167267479,101.62579965982877 39.52939501783112,101.61332613860577 39.385907473333646,101.62579965982877 39.252669039182365,101.66322021436645 39.0989323843969,101.66322021436645 38.955444839957636,101.6756937295504 38.852953736670315,101.63827317953837 38.70946619223105,101.63827317953837 38.57622775807977,101.63827317953837 38.46348754456267,101.61332613860577 38.299501779372804,101.63827317953837 38.16626334527973,101.62579965982877 38.00227758008987,101.61332613860577 37.869039145938586,101.62579965982877 37.76654804276768,101.61332613860577 37.51032028475311,101.62579965982877 37.21309608547017,101.61332613860577 36.98761565837776,101.57590556595096 36.75188612105558,101.57590556595096 36.290676156640984,101.63827317953837 36.00370106770424,101.56343203871802 35.8192170818802,101.53848497965373 35.46049822069472,101.56343203871802 35.286263345275074,101.51353791461588 35.12227758014342,101.50106437983777 34.814804270572495,101.5509585099353 34.51758007123135,101.58837909169233 34.25110320292879,101.70064075532719 34.035871886182576,101.6756937295504 29.987473309680354,101.4511702255113 29.75174377229996,101.4511702255113 29.495516014285386,101.41374959397217 29.157295373734087,101.50106437983777 28.890818505373318,101.42622313932952 28.61409252678277,101.37632894879061 28.245124555251095,101.37632894879061 24.924412811466027,101.33890829004667 24.67843416373944,101.36385539736511 24.350462633534335,101.33890829004667 24.11473309615394,101.30148761766759 23.84825622785138,101.20169909161632 23.530533807934262,101.2890140571908 23.192313167324755,101.30148761766759 22.95658362994436,101.31396117661643 20.302064056973904,101.27654049522243 19.95359430607641,101.27654049522243 19.77935943065677,101.27654049522243 19.605124555237126,101.30148761766759 19.55387900362257,101.23911980022967 19.4001423487789,101.25159336672368 19.051672597939614,101.26406693174795 18.918434163730126,101.18922551907599 18.64170818508137,101.16427836947696 18.41622775810538,101.18922551907599 18.20099644130096,101.18922551907599 18.047259786515497,101.15180479238916 16.95060498226667,101.17675194502954 16.63288256234955,101.18922551907599 16.386903914622962,101.10191046894033 16.15117437724257,101.15180479238916 15.782206405769102,101.13933121376613 15.536227758042514,101.17675194502954 15.300498220720328,101.22664623222954 15.023772242071573,101.16427836947696 14.736797153076623,101.13933121376613 14.490818505408242,101.1268576336879 14.16284697514493,101.10191046894033 13.968113879032899,101.10191046894033 13.742633452056907,101.11438405204535 13.250676156661939,101.13933121376613 13.045693950203713,101.02706893848517 13.025195729569532,101.31396117661643 13.055943060549907,101.53848497965373 13.096939501876477,101.72558777509403 13.004697508935351,101.93763719916751 12.881708185130265,101.9625841615416 12.902206405764446,101.63827317953837 12.686975089018233,101.65074669771275 12.51274021359859,101.83784928928799 12.440996441291645,101.98753111789847 12.420498220715672,102.18710655110044 12.47174377227202,102.53636262897635 12.49224199296441,102.79830391048745" stroke="#4DD2FF" stroke-dasharray="none" stroke-linecap="round" stroke-linejoin="round" stroke-width="0.5"><title>2013-12-10 10.9km</title><desc>9223370650177580807</desc></polyline><polyline fill="none" opacity="0.5" points="97.34798662550747,82.64417564729229 91.12152044288814,89.09616854530759 89.73786129057407,95.5481435037218 89.5072514321655,103.40269750310108 89.27664157282561,108.17152088950388 88.58481199666858,114.34292484284379 90.66030072513968,119.39224314200692 96.88676690869033,122.75844923895784 103.11323309037834,123.03896619309671 108.4172598393634,117.98965582833625 110.26213870756328,110.97670653951354 110.49274856690317,104.52477447572164 110.49274856690317,97.79230450256728 111.64579785987735,91.62085653445683 109.80091899074614,85.72991361888126 105.88055139407516,82.92469745082781 99.88469506986439,82.08313193893991 94.81127818115056,84.32730595883913 91.12152044288814,88.5351263966877 89.96847114898264,95.5481435037218 89.73786129057407,102.56113941781223 89.27664157282561,109.01307694031857 109.80091899074614,93.02345978678204 110.49274856690317,89.37668956816196 106.80299082957208,83.7662626572419 101.96018379833549,80.4000000001397 94.11944860499352,86.01043504965492 89.96847114898264,91.05981499678455 91.35213030129671,99.75594359473325 88.58481199666858,105.92736992868595 88.35420214012265,111.25722491787747 88.58481199666858,117.98965582833625 93.42761902883649,121.35586395906284 99.88469506986439,123.60000000009313 105.88055139407516,120.79482960957102 110.03152885008603,114.0624068370089 110.49274856690317,107.89100213861093 109.80091899074614,101.15854193037376 110.72335842624307,94.98710291530006 111.18457814306021,88.5351263966877 107.95604012254626,83.7662626572419 102.6520133735612,82.08313193893991 96.65615704935044,83.7662626572419 92.73578945267946,86.57147780805826 90.89091058447957,91.62085653445683 90.42969086673111,98.63386431708932 89.73786129057407,104.52477447572164 87.89298242237419,112.94033447606489 112.10701757762581,90.49877332313918 108.87847955711186,86.8519991368521 104.95811196044087,83.20521922083572 97.34798662550747,82.64417564729229 91.12152044288814,89.09616854530759 89.73786129057407,95.5481435037218 89.5072514321655,103.40269750310108 89.27664157282561,108.17152088950388 88.58481199666858,114.34292484284379 90.66030072513968,119.39224314200692 96.88676690869033,122.75844923895784 103.11323309037834,123.03896619309671 108.4172598393634,117.98965582833625 110.26213870756328,110.97670653951354 110.49274856690317,104.52477447572164 110.49274856690317,97.79230450256728 111.64579785987735,91.62085653445683 109.80091899074614,85.72991361888126 105.88055139407516,82.92469745082781 99.88469506986439,82.08313193893991 94.81127818115056,84.32730595883913 91.12152044288814,88.5351263966877 89.96847114898264,95.5481435037218 89.73786129057407,102.56113941781223 89.27664157282561,109.01307694031857 109.80091899074614,93.02345978678204 110.49274856690317,89.37668956816196 106.80299082957208,83.7662626572419 101.96018379833549,80.4000000001397 94.11944860499352,86.01043504965492 89.96847114898264,91.05981499678455 91.35213030129671,99.75594359473325 88.58481199666858,105.92736992868595 88.35420214012265,111.25722491787747 88.58481199666858,117.98965582833625 93.42761902883649,121.35586395906284 99.88469506986439,123.60000000009313 105.88055139407516,120.79482960957102 110.03152885008603,114.0624068370089 110.49274856690317,107.89100213861093 109.80091899074614,101.15854193037376 110.72335842624307,94.98710291530006 111.18457814306021,88.5351263966877 107.95604012254626,83.7662626572419 102.6520133735612,82.08313193893991 96.65615704935044,83.7662626572419 92.73578945267946,86.57147780805826 90.89091058447957,91.62085653445683 90.42969086673111,98.63386431708932 89.73786129057407,104.52477447572164 87.89298242237419,112.94033447606489 112.10701757762581,90.49877332313918 108.87847955711186,86.8519991368521 104.95811196044087,83.20521922083572 97.34798662550747,82.64417564729229 91.12152044288814,89.09616854530759 89.73786129057407,95.5481435037218 89.5072514321655,103.40269750310108 89.27664157282561,108.17152088950388 88.58481199666858,114.34292484284379 90.66030072513968,119.39224314200692 96.88676690869033,122.75844923895784 103.11323309037834,123.03896619309671 108.4172598393634,117.98965582833625 110.26213870756328,110.97670653951354 110.49274856690317,104.52477447572164 110.49274856690317,97.79230450256728 111.64579785987735,91.62085653445683 109.80091899074614,85.72991361888126 105.88055139407516,82.92469745082781 99.88469506986439,82.08313193893991 94.81127818115056,84.32730595883913 91.12152044288814,88.5351263966877 89.96847114898264,95.5481435037218 89.73786129057407,102.56113941781223 89.27664157282561,109.01307694031857 109.80091899074614,93.02345978678204 110.49274856690317,89.37668956816196 106.80299082957208,83.7662626572419 101.96018379833549,80.4000000001397 94.11944860499352,86.01043504965492 89.96847114898264,91.05981499678455 91.35213030129671,99.75594359473325 88.58481199666858,105.92736992868595 88.35420214012265,111.25722491787747 88.58481199666858,117.98965582833625 93.42761902883649,121.35586395906284 99.88469506986439,123.60000000009313 105.88055139407516,120.79482960957102 110.03152885008603,114.0624068370089 110.49274856690317,107.89100213861093 109.80091899074614,101.15854193037376 110.72335842624307,94.98710291530006 111.18457814306021,88.5351263966877 107.95604012254626,83.7662626572419 102.6520133735612,82.08313193893991 96.65615704935044,83.7662626572419 92.73578945267946,86.57147780805826 90.89091058447957,91.62085653445683 90.42969086673111,98.63386431708932 89.73786129057407,104.52477447572164 87.89298242237419,112.94033447606489 112.10701757762581,90.49877332313918 108.87847955711186,86.8519991368521 104.95811196044087,83.20521922083572 97.34798662550747,82.64417564729229 91.12152044288814,89.09616854530759 89.73786129057407,95.5481435037218 89.5072514321655,103.40269750310108 89.27664157282561,108.17152088950388 88.58481199666858,114.34292484284379 90.66030072513968,119.39224314200692 96.88676690869033,122.75844923895784 103.11323309037834,123.03896619309671 108.4172598393634,117.98965582833625 110.26213870756328,110.97670653951354 110.49274856690317,104.52477447572164 110.49274856690317,97.79230450256728 111.64579785987735,91.62085653445683 109.80091899074614,85.72991361888126 105.88055139407516,82.92469745082781 99.88469506986439,82.08313193893991 94.81127818115056,84.32730595883913 91.12152044288814,88.5351263966877 89.96847114898264,95.5481435037218 89.73786129057407,102.56113941781223 89.27664157282561,109.01307694031857 109.80091899074614,93.02345978678204 110.49274856690317,89.37668956816196 106.80299082957208,83.7662626572419 101.96018379833549,80.4000000001397 94.11944860499352,86.01043504965492 89.96847114898264,91.05981499678455 91.35213030129671,99.75594359473325 88.58481199666858,105.92736992868595 88.35420214012265,111.25722491787747 88.58481199666858,117.98965582833625 93.42761902883649,121.35586395906284 99.88469506986439,123.60000000009313 105.88055139407516,120.79482960957102 110.03152885008603,114.0624068370089 110.49274856690317,107.89100213861093 109.80091899074614,101.15854193037376 110.72335842624307,94.98710291530006 111.18457814306021,88.5351263966877 107.95604012254626,83.7662626572419 102.6520133735612,82.08313193893991 96.65615704935044,83.7662626572419 92.73578945267946,86.57147780805826 90.89091058447957,91.62085653445683 90.42969086673111,98.63386431708932 89.73786129057407,104.52477447572164 87.89298242237419,112.94033447606489 112.10701757762581,90.49877332313918 108.87847955711186,86.8519991368521 104.95811196044087,83.20521922083572 97.34798662550747,82.64417564729229 91.12152044288814,89.09616854530759 89.73786129057407,95.5481435037218 89.5072514321655,103.40269750310108 89.27664157282561,108.17152088950388 88.58481199666858,114.34292484284379 90.66030072513968,119.39224314200692 96.88676690869033,122.75844923895784 103.11323309037834,123.03896619309671 108.4172598393634,117.98965582833625 110.26213870756328,110.97670653951354 110.49274856690317,104.52477447572164 110.49274856690317,97.79230450256728 111.64579785987735,91.62085653445683 109.80091899074614,85.72991361888126 105.88055139407516,82.92469745082781 99.88469506986439,82.08313193893991 94.81127818115056,84.32730595883913 91.12152044288814,88.5351263966877 89.96847114898264,95.5481435037218 89.73786129057407,102.56113941781223 89.27664157282561,109.01307694031857 109.80091899074614,93.02345978678204 110.49274856690317,89.37668956816196 106.80299082957208,83.7662626572419 101.96018379833549,80.4000000001397 94.11944860499352,86.01043504965492 89.96847114898264,91.05981499678455 91.35213030129671,99.75594359473325 88.58481199666858,105.92736992868595 88.35420214012265,111.25722491787747 88.58481199666858,117.98965582833625 93.42761902883649,121.35586395906284 99.88469506986439,123.60000000009313 105.88055139407516,120.79482960957102 110.03152885008603,114.0624068370089 110.49274856690317,107.89100213861093 109.80091899074614,101.15854193037376 110.72335842624307,94.98710291530006 111.18457814306021,88.5351263966877 107.95604012254626,83.7662626572419 102.6520133735612,82.08313193893991 96.65615704935044,83.7662626572419 92.73578945267946,86.57147780805826 90.89091058447957,91.62085653445683 90.42969086673111,98.63386431708932 89.73786129057407,104.52477447572164 87.89298242237419,112.94033447606489 112.10701757762581,90.49877332313918 108.87847955711186,86.8519991368521 104.95811196044087,83.20521922083572 97.34798662550747,82.64417564729229 91.12152044288814,89.09616854530759 89.73786129057407,95.5481435037218 89.5072514321655,103.40269750310108 89.27664157282561,108.17152088950388 88.58481199666858,114.34292484284379 90.66030072513968,119.39224314200692 96.88676690869033,122.75844923895784 103.11323309037834,123.03896619309671 108.4172598393634,117.98965582833625 110.26213870756328,110.97670653951354 110.49274856690317,104.52477447572164 110.49274856690317,97.79230450256728 111.64579785987735,91.62085653445683 109.80091899074614,85.72991361888126 105.88055139407516,82.92469745082781 99.88469506986439,82.08313193893991 94.81127818115056,84.32730595883913 91.12152044288814,88.5351263966877 89.96847114898264,95.5481435037218 89.73786129057407,102.56113941781223 89.27664157282561,109.01307694031857 109.80091899074614,93.02345978678204 110.49274856690317,89.37668956816196 106.80299082957208,83.7662626572419 101.96018379833549,80.4000000001397 94.11944860499352,86.01043504965492 89.96847114898264,91.05981499678455 91.35213030129671,99.75594359473325 88.58481199666858,105.92736992868595 88.35420214012265,111.25722491787747 88.58481199666858,117.98965582833625 93.42761902883649,121.35586395906284 99.88469506986439,123.60000000009313 105.88055139407516,120.79482960957102 110.03152885008603,114.0624068370089 110.49274856690317,107.89100213861093 109.80091899074614,101.15854193037376 110.72335842624307,94.98710291530006 111.18457814306021,88.5351263966877 107.95604012254626,83.7662626572419 102.6520133735612,82.08313193893991 96.65615704935044,83.7662626572419 92.73578945267946,86.57147780805826 90.89091058447957,91.62085653445683 90.42969086673111,98.63386431708932 89.73786129057407,104.52477447572164 87.89298242237419,112.94033447606489 112.10701757762581,90.49877332313918 108.87847955711186,86.8519991368521 104.95811196044087,83.20521922083572 97.34798662550747,82.64417564729229 91.12152044288814,89.09616854530759 89.73786129057407,95.5481435037218 89.5072514321655,103.40269750310108 89.27664157282561,108.17152088950388 88.58481199666858,114.34292484284379 90.66030072513968,119.39224314200692 96.88676690869033,122.75844923895784 103.11323309037834,123.03896619309671 108.4172598393634,117.98965582833625 110.26213870756328,110.97670653951354 110.49274856690317,104.52477447572164 110.49274856690317,97.79230450256728 111.64579785987735,91.62085653445683 109.80091899074614,85.72991361888126 105.88055139407516,82.92469745082781 99.88469506986439,82.08313193893991 94.81127818115056,84.32730595883913 91.12152044288814,88.5351263966877 89.96847114898264,95.5481435037218 89.73786129057407,102.56113941781223 89.27664157282561,109.01307694031857 109.80091899074614,93.02345978678204 110.49274856690317,89.37668956816196 106.80299082957208,83.7662626572419 101.96018379833549,80.4000000001397" stroke="#4DD2FF" stroke-dasharray="1,0.5" stroke-linecap="round" stroke-linejoin="round" stroke-width="0.5"><title>2013-11-30 10.3km</title><desc>9223370651086224807</desc></polyline><polyline fill="none" opacity="1" points="163.24047156888992,80.9837889354676 159.88104565348476,84.48651958373375 156.76157873217016,87.69735154765658 155.56178376171738,89.74060602881946 155.32182476855814,94.41089549311437 157.00153772626072,98.78928366210312 155.0818657744676,102.5838803211227 154.12202979810536,105.21090528415516 154.8419067794457,107.5460361847654 153.88207080494612,110.7568374867551 154.12202979810536,113.96763451909646 154.12202979810536,117.7622073260136 156.28166074398905,119.2216568167787 159.1611686721444,121.26488462416455 162.76055358164012,122.72433199873194 165.88002050295472,123.60000000009313 169.23944641742855,123.01622136752121 172.11895434558392,120.68110542721115 174.75850327964872,117.7622073260136 176.43821623828262,113.67574405577034 176.67817523051053,110.46494663599879 176.9181342255324,107.25414494634606 176.9181342255324,103.75144732417539 176.19825724326074,100.24874462164007 176.9181342255324,96.74603683850728 177.15809321962297,93.82710980414413 178.11792919412255,90.32439270522445 177.63801120687276,87.1135642353911 176.19825724326074,84.1946255567018 174.2785852914676,82.1513663828373 172.11895434558392,81.27568335039541 168.75952843017876,80.4000000001397 165.88002050295472,80.4000000001397 162.52059458754957,82.1513663828373 160.60092263575643,82.73515489464626 158.44129168987274,85.07030753046274" stroke="#4DD2FF" stroke-dasharray="none" stroke-linecap="round" stroke-linejoin="round" stroke-width="0.5"><title>2013-11-16 10.4km</title><desc>9223370652294258807</desc></polyline><polyline fill="none" opacity="1" points="25.121519369073212,136.50005727959797 23.395148135721684,141.30007874849252 23.395148135721684,144.30008745123632 23.148523674346507,147.0000921834726 22.40865028835833,151.20009370637126 22.655274749733508,155.10008875629865 22.40865028835833,158.10008077835664 22.655274749733508,163.20005889236927 23.64177259709686,165.60004496737383 26.108017217367887,167.7000308786519 30.793881993740797,171.60000000009313 34.73987338505685,171.60000000009313 38.43924031406641,170.40001015365124 40.65886047203094,169.20001972699538 43.37172955367714,165.90004306309856 44.111602938733995,163.20005889236927 43.86497847735882,159.000077677425 44.35822740197182,154.2000904425513 45.34472524933517,151.20009370637126 46.08459863439202,147.60009283619002 46.08459863439202,144.00008674431592 46.33122309669852,139.80007303715684 45.837974173016846,135.90005394420587 43.61835401598364,132.6000330010429 40.90548493433744,130.50001738895662 36.712869081646204,128.4000000001397 33.013502151705325,129.00000514974818 29.560759685002267,130.50001738895662 26.354641679674387,132.0000287219882 23.64177259709686,135.00004866719246 22.901899211108685,140.40007542981766 23.148523674346507,144.00008674431592 22.655274749733508,147.60009283619002 24.13502152170986,151.20009370637126 22.40865028835833,156.90008440450765 21.668776902370155,160.80007049744017 22.40865028835833,164.70005046087317 22.655274749733508,166.80003713420592" stroke="#4DD2FF" stroke-dasharray="none" stroke-linecap="round" stroke-linejoin="round" stroke-width="0.5"><title>2013-11-03 10.7km</title><desc>9223370653417861807</desc></polyline><polyline fill="none" opacity="1" points="98.81620493531227,171.59999999962747 101.18379504978657,128.40000000037253" stroke="#4DD2FF" stroke-dasharray="none" stroke-linecap="round" stroke-linejoin="round" stroke-width="0.5"><title>2013-11-02 10.5km</title><desc>9223370653505000807</desc></polyline><polyline fill="none" opacity="1" points="170.4392451448366,130.56001984444447 167.7756980592385,128.4000000001397 165.3341132281348,129.48001018329524 162.0046793706715,130.8300221778918 159.78505679685622,132.45003549358808 158.67524551134557,135.69005860155448 158.2313209977001,138.12007284793071 157.7873964831233,141.63008875912055 156.45562293939292,144.33009724435396 156.01169842481613,146.76010209089145 156.23366068210453,150.81010429398157 157.7873964831233,154.32010026299395 154.90188713837415,155.13009854895063 155.12384939659387,156.21009580790997 154.45796262472868,157.56009164638817 154.90188713837415,163.23006525845267 160.22898131329566,166.20004569296725 165.77803774364293,167.55003549298272 167.1098112873733,167.55003549298272 169.10747160110623,167.55003549298272 171.77101868763566,168.3600289823953 173.99064126145095,164.0400603134185 174.6565280323848,162.96006684168242 174.8784902896732,160.5300796192605 175.54437706060708,159.18008557590656 173.54671674594283,158.91008666879497 174.8784902896732,158.10008975397795 176.2102638334036,155.94009654247202 175.9883015761152,150.81010429398157 176.2102638334036,149.46010437584482 175.7663393188268,146.2201012421865 176.2102638334036,142.1700907170307 175.7663393188268,136.7700652598869 175.32241480425,133.26004171161912 173.54671674594283,129.75001264712773 169.55139611661434,129.48001018329524 165.77803774364293,129.21000768686645 162.6705661425367,130.56001984444447 159.78505679685622,132.72003759886138 156.67758519575,133.26004171161912 156.45562293939292,137.58006991050206 156.23366068210453,140.55008445074782 156.01169842481613,144.0600965428166 154.90188713837415,147.57010311936028 155.34581165295094,151.62010385282338 155.12384939659387,155.13009854895063 154.90188713837415,159.18008557590656 154.90188713837415,161.61007426702417 158.45328325405717,165.66004954348318 164.00233968626708,168.63002674723975 166.44392451550812,169.98001507879235 169.32943385839462,171.60000000009313 173.32475448958576,167.82003335561603 175.1004525469616,162.69006839231588 175.54437706060708,159.7200832911767 175.54437706060708,158.6400877290871 175.1004525469616,153.24010209064 174.8784902896732,148.92010417976417 175.32241480425,146.2201012421865 175.54437706060708,142.98009340977296 177.09811286255717,138.93007700890303 175.7663393188268,135.96006031497382 174.43456577509642,134.34004954481497 172.88082997407764,130.8300221778918 170.21728288847953,130.02001507859677 166.0,129.75001264712773 162.0046793706715,130.56001984444447 159.78505679685622,130.8300221778918 156.89954745396972,132.72003759886138 154.90188713837415,135.69005860155448 154.67992488108575,138.39007426798344 155.34581165295094,139.7400808769744 154.23600036650896,142.71009254432283 154.67992488108575,145.95010076928884 154.90188713837415,147.57010311936028 154.45796262472868,150.27010442432947 154.90188713837415,153.78010124200955 154.67992488108575,157.02009340864606 154.90188713837415,161.34007565444335 157.5654342258349,166.20004569296725 161.7827171124518,168.63002674723975 163.11449065618217,168.3600289823953 166.0,169.98001507879235 167.99766031466424,169.1700221770443 171.1051319167018,171.33000259427354 173.32475448958576,168.63002674723975 174.8784902896732,162.42006990942173 173.99064126145095,158.37008875748143 175.1004525469616,151.35010403278284 174.8784902896732,147.0301024664659 174.8784902896732,145.68010026379488 176.43222609069198,142.98009340977296 177.76399963349104,140.82008557626978 177.09811286255717,136.7700652598869 175.32241480425,132.1800333559513 173.10279223136604,129.75001264712773 169.9953206302598,128.6700025945902 166.0,128.94000515691005 161.1168303405866,130.56001984444447 157.1215097112581,132.1800333559513 156.67758519575,133.53004371840507 155.56777391023934,134.61005142168142" stroke="#4DD2FF" stroke-dasharray="none" stroke-linecap="round" stroke-linejoin="round" stroke-width="0.5"><title>2013-10-26 11.1km</title><desc>9223370654110301807</desc></polyline><polyline fill="none" opacity="1" points="45.565390639938414,189.18955639493652 46.49996766168624,186.63165068160743 46.26632340531796,184.07374218595214 43.92988085281104,181.23161837016232 40.8925055321306,179.81055517448112 37.855130213312805,177.25263925665058 34.58411063905805,176.4000000001397 31.0794468075037,177.82106525660492 28.27571574319154,180.09476788225584 25.705628934316337,182.6526807071641 25.238340424373746,185.77901482582092 25.238340424373746,189.4737679695245 24.771051913499832,192.60009301709943 24.30376340262592,196.86325683817267 21.50003233831376,199.9895720607601 21.967320849187672,203.68430287321098 21.733676593750715,207.94744659680873 22.200965103693306,211.07374708005227 22.200965103693306,213.91583482245915 24.30376340262592,216.75791912851855 27.341138722375035,219.0315841003321 30.61215829756111,219.60000000009313 34.58411063905805,219.0315841003321 37.154197447001934,217.610543750925 40.8925055321306,215.90529419737868 41.82708255480975,213.6316262029577 43.462592341937125,210.22112008789554 43.92988085281104,206.81060902611353 43.92988085281104,203.1158831268549 44.39716936368495,199.70536175812595 45.0981021290645,195.4422030900605 45.33174638450146,192.0316705906298 45.79903489537537,189.18955639493652 45.565390639938414,185.49480280443095 44.63081361912191,181.80004340759479 42.52801532112062,179.24212965508923 39.4906400013715,178.10527820512652 35.98597617074847,177.53685227409005 32.48131234012544,177.53685227409005 29.21029276587069,178.95791684417054 25.705628934316337,181.23161837016232 24.30376340262592,184.07374218595214 25.004696168005466,188.33692146651447 23.602830636315048,191.74745932617225 23.36918638087809,194.58957042940892 23.36918638087809,198.28430972713977 21.733676593750715,201.69483315735124 22.200965103693306,206.52639954793267 21.967320849187672,209.3684927856084" stroke="#4DD2FF" stroke-dasharray="none" stroke-linecap="round" stroke-linejoin="round" stroke-width="0.5"><title>2013-10-20 10.7km</title><desc>9223370654628121807</desc></polyline><polyline fill="none" opacity="0.5" points="107.66225318517536,216.34523203712888 109.85146838147193,208.35623777774163 110.09471451491117,200.66310755256563 111.06769904587418,194.1535169375129 111.55419131275266,186.164450250566 106.68926865514368,177.87946466286667 98.90539240278304,176.6958930043038 93.31073134578764,181.4301762059331 91.12151614949107,189.12336687906645 89.6620393525809,197.11242390889674 88.44580868817866,204.50967568764463 88.20256255567074,211.31512758042663 98.66214626841247,219.00822432828136 104.98654572386295,218.1205605531577 109.36497611645609,212.79457114078104 110.09471451491117,203.6220066549722 110.09471451491117,197.11242390889674 111.79743744432926,190.60282385186292 109.36497611645609,179.95071368920617 101.82434599753469,176.4000000001397 95.98643880710006,179.35892843198963 92.58099294733256,184.38909855671227 89.6620393525809,193.56173511454836 88.20256255567074,200.66310755256563 88.68905482254922,207.76445938879624 95.01345427706838,219.00822432828136 101.58109986409545,219.60000000009313 107.66225318517536,216.34523203712888 109.85146838147193,208.35623777774163 110.09471451491117,200.66310755256563 111.06769904587418,194.1535169375129 111.55419131275266,186.164450250566 106.68926865514368,177.87946466286667 98.90539240278304,176.6958930043038 93.31073134578764,181.4301762059331 91.12151614949107,189.12336687906645 89.6620393525809,197.11242390889674 88.44580868817866,204.50967568764463 88.20256255567074,211.31512758042663 98.66214626841247,219.00822432828136 104.98654572386295,218.1205605531577 109.36497611645609,212.79457114078104 110.09471451491117,203.6220066549722 110.09471451491117,197.11242390889674 111.79743744432926,190.60282385186292 109.36497611645609,179.95071368920617 101.82434599753469,176.4000000001397 95.98643880710006,179.35892843198963 92.58099294733256,184.38909855671227 89.6620393525809,193.56173511454836 88.20256255567074,200.66310755256563 88.68905482254922,207.76445938879624 95.01345427706838,219.00822432828136 101.58109986409545,219.60000000009313 107.66225318517536,216.34523203712888 109.85146838147193,208.35623777774163 110.09471451491117,200.66310755256563 111.06769904587418,194.1535169375129 111.55419131275266,186.164450250566 106.68926865514368,177.87946466286667 98.90539240278304,176.6958930043038 93.31073134578764,181.4301762059331 91.12151614949107,189.12336687906645 89.6620393525809,197.11242390889674 88.44580868817866,204.50967568764463 88.20256255567074,211.31512758042663 98.66214626841247,219.00822432828136 104.98654572386295,218.1205605531577 109.36497611645609,212.79457114078104 110.09471451491117,203.6220066549722 110.09471451491117,197.11242390889674 111.79743744432926,190.60282385186292 109.36497611645609,179.95071368920617 101.82434599753469,176.4000000001397 95.98643880710006,179.35892843198963 92.58099294733256,184.38909855671227 89.6620393525809,193.56173511454836 88.20256255567074,200.66310755256563 88.68905482254922,207.76445938879624 95.01345427706838,219.00822432828136 101.58109986409545,219.60000000009313 107.66225318517536,216.34523203712888 109.85146838147193,208.35623777774163 110.09471451491117,200.66310755256563 111.06769904587418,194.1535169375129 111.55419131275266,186.164450250566 106.68926865514368,177.87946466286667 98.90539240278304,176.6958930043038 93.31073134578764,181.4301762059331 91.12151614949107,189.12336687906645 89.6620393525809,197.11242390889674 88.44580868817866,204.50967568764463 88.20256255567074,211.31512758042663 98.66214626841247,219.00822432828136 104.98654572386295,218.1205605531577 109.36497611645609,212.79457114078104 110.09471451491117,203.6220066549722 110.09471451491117,197.11242390889674 111.79743744432926,190.60282385186292 109.36497611645609,179.95071368920617 101.82434599753469,176.4000000001397 95.98643880710006,179.35892843198963 92.58099294733256,184.38909855671227 89.6620393525809,193.56173511454836 88.20256255567074,200.66310755256563 88.68905482254922,207.76445938879624 95.01345427706838,219.00822432828136 101.58109986409545,219.60000000009313 107.66225318517536,216.34523203712888 109.85146838147193,208.35623777774163 110.09471451491117,200.66310755256563 111.06769904587418,194.1535169375129 111.55419131275266,186.164450250566 106.68926865514368,177.87946466286667 98.90539240278304,176.6958930043038 93.31073134578764,181.4301762059331 91.12151614949107,189.12336687906645 89.6620393525809,197.11242390889674 88.44580868817866,204.50967568764463 88.20256255567074,211.31512758042663 98.66214626841247,219.00822432828136 104.98654572386295,218.1205605531577 109.36497611645609,212.79457114078104 110.09471451491117,203.6220066549722 110.09471451491117,197.11242390889674 111.79743744432926,190.60282385186292 109.36497611645609,179.95071368920617 101.82434599753469,176.4000000001397 95.98643880710006,179.35892843198963 92.58099294733256,184.38909855671227 89.6620393525809,193.56173511454836 88.20256255567074,200.66310755256563 88.68905482254922,207.76445938879624 95.01345427706838,219.00822432828136 101.58109986409545,219.60000000009313 107.66225318517536,216.34523203712888 109.85146838147193,208.35623777774163 110.09471451491117,200.66310755256563 111.06769904587418,194.1535169375129 111.55419131275266,186.164450250566 106.68926865514368,177.87946466286667 98.90539240278304,176.6958930043038 93.31073134578764,181.4301762059331 91.12151614949107,189.12336687906645 89.6620393525809,197.11242390889674 88.44580868817866,204.50967568764463 88.20256255567074,211.31512758042663 98.66214626841247,219.00822432828136 104.98654572386295,218.1205605531577 109.36497611645609,212.79457114078104 110.09471451491117,203.6220066549722 110.09471451491117,197.11242390889674 111.79743744432926,190.60282385186292 109.36497611645609,179.95071368920617 101.82434599753469,176.4000000001397 95.98643880710006,179.35892843198963 92.58099294733256,184.38909855671227 89.6620393525809,193.56173511454836 88.20256255567074,200.66310755256563 88.68905482254922,207.76445938879624 95.01345427706838,219.00822432828136 101.58109986409545,219.60000000009313 107.66225318517536,216.34523203712888 109.85146838147193,208.35623777774163 110.09471451491117,200.66310755256563 111.06769904587418,194.1535169375129 111.55419131275266,186.164450250566 106.68926865514368,177.87946466286667 98.90539240278304,176.6958930043038 93.31073134578764,181.4301762059331 91.12151614949107,189.12336687906645 89.6620393525809,197.11242390889674 88.44580868817866,204.50967568764463 88.20256255567074,211.31512758042663 98.66214626841247,219.00822432828136 104.98654572386295,218.1205605531577 109.36497611645609,212.79457114078104 110.09471451491117,203.6220066549722 110.09471451491117,197.11242390889674 111.79743744432926,190.60282385186292 109.36497611645609,179.95071368920617 101.82434599753469,176.4000000001397 95.98643880710006,179.35892843198963 92.58099294733256,184.38909855671227 89.6620393525809,193.56173511454836 88.20256255567074,200.66310755256563 88.68905482254922,207.76445938879624 95.01345427706838,219.00822432828136 101.58109986409545,219.60000000009313 107.66225318517536,216.34523203712888 109.85146838147193,208.35623777774163 110.09471451491117,200.66310755256563 111.06769904587418,194.1535169375129 111.55419131275266,186.164450250566 106.68926865514368,177.87946466286667 98.90539240278304,176.6958930043038 93.31073134578764,181.4301762059331 91.12151614949107,189.12336687906645 89.6620393525809,197.11242390889674 88.44580868817866,204.50967568764463 88.20256255567074,211.31512758042663 98.66214626841247,219.00822432828136 104.98654572386295,218.1205605531577 109.36497611645609,212.79457114078104 110.09471451491117,203.6220066549722 110.09471451491117,197.11242390889674 111.79743744432926,190.60282385186292 109.36497611645609,179.95071368920617 101.82434599753469,176.4000000001397 95.98643880710006,179.35892843198963 92.58099294733256,184.38909855671227 89.6620393525809,193.56173511454836 88.20256255567074,200.66310755256563 88.68905482254922,207.76445938879624 95.01345427706838,219.00822432828136 101.58109986409545,219.60000000009313 107.66225318517536,216.34523203712888 109.85146838147193,208.35623777774163 110.09471451491117,200.66310755256563 111.06769904587418,194.1535169375129 111.55419131275266,186.164450250566 106.68926865514368,177.87946466286667 98.90539240278304,176.6958930043038 93.31073134578764,181.4301762059331 91.12151614949107,189.12336687906645 89.6620393525809,197.11242390889674 88.44580868817866,204.50967568764463 88.20256255567074,211.31512758042663 98.66214626841247,219.00822432828136 104.98654572386295,218.1205605531577 109.36497611645609,212.79457114078104 110.09471451491117,203.6220066549722 110.09471451491117,197.11242390889674 111.79743744432926,190.60282385186292 109.36497611645609,179.95071368920617 101.82434599753469,176.4000000001397 95.98643880710006,179.35892843198963 92.58099294733256,184.38909855671227 89.6620393525809,193.56173511454836 88.20256255567074,200.66310755256563 88.68905482254922,207.76445938879624 95.01345427706838,219.00822432828136 101.58109986409545,219.60000000009313 107.66225318517536,216.34523203712888 109.85146838147193,208.35623777774163 110.09471451491117,200.66310755256563 111.06769904587418,194.1535169375129 111.55419131275266,186.164450250566 106.68926865514368,177.87946466286667 98.90539240278304,176.6958930043038 93.31073134578764,181.4301762059331 91.12151614949107,189.12336687906645 89.6620393525809,197.11242390889674 88.44580868817866,204.50967568764463 88.20256255567074,211.31512758042663 98.66214626841247,219.00822432828136 104.98654572386295,218.1205605531577 109.36497611645609,212.79457114078104 110.09471451491117,203.6220066549722 110.09471451491117,197.11242390889674 111.79743744432926,190.60282385186292 109.36497611645609,179.95071368920617 101.82434599753469,176.4000000001397 95.98643880710006,179.35892843198963 92.58099294733256,184.38909855671227 89.6620393525809,193.56173511454836 88.20256255567074,200.66310755256563 88.68905482254922,207.76445938879624 95.01345427706838,219.00822432828136 101.58109986409545,219.60000000009313 107.66225318517536,216.34523203712888 109.85146838147193,208.35623777774163 110.09471451491117,200.66310755256563 111.06769904587418,194.1535169375129 111.55419131275266,186.164450250566 106.68926865514368,177.87946466286667 98.90539240278304,176.6958930043038 93.31073134578764,181.4301762059331 91.12151614949107,189.12336687906645 89.6620393525809,197.11242390889674 88.44580868817866,204.50967568764463 88.20256255567074,211.31512758042663 98.66214626841247,219.00822432828136 104.98654572386295,218.1205605531577 109.36497611645609,212.79457114078104 110.09471451491117,203.6220066549722 110.09471451491117,197.11242390889674 111.79743744432926,190.60282385186292 109.36497611645609,179.95071368920617 101.82434599753469,176.4000000001397 95.98643880710006,179.35892843198963 92.58099294733256,184.38909855671227 89.6620393525809,193.56173511454836 88.20256255567074,200.66310755256563 88.68905482254922,207.76445938879624 95.01345427706838,219.00822432828136 101.58109986409545,219.60000000009313 107.66225318517536,216.34523203712888 109.85146838147193,208.35623777774163 110.09471451491117,200.66310755256563 111.06769904587418,194.1535169375129 111.55419131275266,186.164450250566 106.68926865514368,177.87946466286667 98.90539240278304,176.6958930043038 93.31073134578764,181.4301762059331 91.12151614949107,189.12336687906645 89.6620393525809,197.11242390889674 88.44580868817866,204.50967568764463 88.20256255567074,211.31512758042663 98.66214626841247,219.00822432828136 104.98654572386295,218.1205605531577 109.36497611645609,212.79457114078104 110.09471451491117,203.6220066549722 110.09471451491117,197.11242390889674 111.79743744432926,190.60282385186292 109.36497611645609,179.95071368920617 101.82434599753469,176.4000000001397 95.98643880710006,179.35892843198963 92.58099294733256,184.38909855671227 89.6620393525809,193.56173511454836 88.20256255567074,200.66310755256563 88.68905482254922,207.76445938879624 95.01345427706838,219.00822432828136 101.58109986409545,219.60000000009313 107.66225318517536,216.34523203712888 109.85146838147193,208.35623777774163 110.09471451491117,200.66310755256563" stroke="#4DD2FF" stroke-dasharray="1,0.5" stroke-linecap="round" stroke-linejoin="round" stroke-width="0.5"><title>2013-10-19 10.2km</title><desc>9223370654714312807</desc></polyline><polyline fill="none" opacity="1" points="173.4973813779652,219.60000000009313 175.33884347137064,215.76002854667604 175.86497549712658,210.96005639713258 176.12804151140153,205.84007651288994 176.12804151140153,202.6400840554852 176.12804151140153,198.80008800141513 177.18030556384474,195.60008703405038 177.96950360294431,191.76008076849394 177.706437590532,186.96006510197185 175.33884347137064,180.24002854782157 172.445117325522,178.0000125716906 167.183797060512,176.4000000001397 164.02700490131974,176.72000259207562 160.87021274212748,179.6000241767615 157.97648659627885,181.84003879851662 157.18728855717927,185.04005639860407 155.60889247711748,190.1600765134208 154.03049639705569,194.96008637663908" stroke="#4DD2FF" stroke-dasharray="none" stroke-linecap="round" stroke-linejoin="round" stroke-width="0.5"><title>2013-10-12 10.6km</title><desc>9223370655320152807</desc></polyline><polyline fill="none" opacity="1" points="46.357888190075755,230.52977678203024 43.71833925601095,226.73515489464626 39.39907736424357,225.2756833503954 35.79969245567918,224.4000000001397 32.920184527523816,224.4000000001397 30.520594587549567,225.56757773039863 26.441291690804064,227.61083739856258 25.00153772626072,230.52977678203024 24.041701750829816,234.03249938460067 24.281660744920373,238.11900266609155 24.281660744920373,241.62171426066197 24.521619738079607,244.83252875856124 24.281660744920373,248.6271222056821 22.601947787217796,251.25414494634606 21.882070804946125,254.17305574938655 21.642111810855567,257.09196302411146 22.601947787217796,260.0108667712193 23.801742755807936,262.3459872279782 25.481455714441836,265.26488462416455 28.600922635756433,266.72433199873194 31.96034855209291,266.72433199873194 36.99948742520064,267.60000000009313 40.11895434651524,264.68110542721115 42.038626299239695,262.0540972945746 44.4382162373513,258.25952494633384 44.67817523237318,254.17305574938655 44.67817523237318,250.67036236193962" stroke="#4DD2FF" stroke-dasharray="none" stroke-linecap="round" stroke-linejoin="round" stroke-width="0.5"><title>2013-10-06 10.6km</title><desc>9223370655838244807</desc></polyline><polyline fill="none" opacity="1" points="90.19908100832254,263.3922431420069 91.8133500199765,265.6363810834009 95.96432747505605,266.75844923895784 99.19286549650133,267.60000000009313 102.19079365767539,266.75844923895784 105.18872181978077,266.47793225129135 107.26421054638922,264.23379512433894 108.64786969870329,261.98965582833625 109.57030913420022,258.0624068370089 109.33969927486032,254.97670653951354 110.26213870942593,251.04944568034261 110.26213870942593,247.40269750310108 110.03152885008603,243.75594359473325 109.80091899260879,238.98710291530006 110.26213870942593,235.62085653445683 110.95396828558296,234.21825243486091 110.26213870942593,231.41304169245996 107.95604012254626,228.88834912492894 104.9581119613722,226.0831319389399 102.88262323383242,225.2415661229752 99.65408521238714,225.80261003412306 96.19493733346462,225.80261003412306 94.35005846433342,226.6441756472923 93.19700917135924,229.72991361888126 91.5827401606366,232.5351263966877 91.35213030222803,235.62085653445683 90.660300726071,239.26762322615832 89.96847115084529,243.19490402424708 89.5072514321655,245.7195810272824 88.81542185787112,248.80529363360256 88.81542185787112,252.17152088950388 87.89298242330551,255.53774326271378 87.43176270555705,258.0624068370089 87.66237256396562,261.14810303226113 88.81542185787112,263.6727605035994 91.8133500199765,266.19741522870027 95.50310775730759,267.0389661930967 99.65408521238714,267.319483113708 103.34384294971824,266.75844923895784 105.8805513959378,264.794829609571 108.64786969870329,262.55069085536525 109.80091899260879,258.3429248428438 110.26213870942593,255.53774326271378 110.72335842624307,252.4520396075677 110.95396828558296,249.6468509058468 111.4151880024001,245.7195810272824 111.64579786174,243.4754238263704 111.87640772014856,240.3897041331511 112.10701757855713,237.5845008501783 112.3376274369657,234.49877332313918 111.64579786174,231.69356291904114 110.4927485678345,229.1688706574496 108.18664998188615,226.6441756472923 105.64994153752923,225.2415661229752 102.88262323383242,224.4000000001397 100.57652464695275,224.96104411478154 96.65615705028176,225.52208809531294 93.88883874751627,227.20521922083572 92.50517959613353,230.8519991368521 90.89091058447957,235.34033578261733 89.96847115084529,238.14554177806713 89.7378612915054,240.3897041331511 89.5072514321655,243.4754238263704 89.7378612915054,246.56113941781223 89.96847115084529,249.92736992868595 89.7378612915054,253.01307694031857 89.5072514321655,256.3792980927974 89.96847115084529,259.7455143611878 91.35213030222803,262.83120831870474 93.88883874751627,264.5143123844173 96.65615705028176,267.319483113708 100.57652464695275,267.319483113708 102.88262323383242,267.0389661930967 106.34177111368626,265.35586395906284 108.41725984029472,263.3922431420069 109.57030913420022,260.0260321632959 110.03152885008603,257.2208526181057 110.95396828558296,254.13515119976364 110.95396828558296,250.76892679347657 111.64579786174,247.96373605774716 111.64579786174,244.8780223308131 111.4151880024001,241.79230450256728 112.56823729537427,238.14554177806713 111.64579786174,235.34033578261733 110.72335842624307,231.97408411232755" stroke="#4DD2FF" stroke-dasharray="none" stroke-linecap="round" stroke-linejoin="round" stroke-width="0.5"><title>2013-09-29 10.5km</title><desc>9223370656443428807</desc></polyline><polyline fill="none" opacity="1" points="156.49946079216897,253.29181054909714 155.14224090520293,255.49307631724514 155.5946475332603,260.99623142788187 156.49946079216897,263.4726468878798 161.92834033910185,265.3987459379714 164.1903734849766,265.94905965332873 167.58342320099473,265.94905965332873 171.65508286189288,264.8484320899006 174.59572594985366,262.0968608537223 176.6315557807684,257.96949776401743 177.31016572378576,253.5669688861817 175.72674252279103,250.81538401311263 174.14331932086498,249.43959032977 175.9529458368197,245.03704495402053 177.53636903874576,239.8090112612117 177.98877566773444,237.88289055787027 177.31016572378576,234.8561261605937 178.4411822957918,231.0038747417275 175.72674252279103,228.25226259441115 173.01230274885893,225.2254853900522 171.2026762329042,224.67516183038242 165.77379668504,225.2254853900522 164.1903734849766,225.50064712180756 161.24973039515316,227.97710119676776 158.76149393618107,230.17839144705795 158.08288399223238,232.6548404339701 157.63047736417502,236.23192865750752 156.49946079216897,240.909650930902 156.95186742115766,244.2115667485632 157.17807073518634,246.41284129861742 156.49946079216897,250.81538401311263 156.95186742115766,254.11728546093218 155.5946475332603,258.24465553602204 156.27325747720897,261.54654620797373 156.49946079216897,263.4726468878798 160.34491713810712,264.8484320899006 163.96417016908526,267.3248433584813 166.22620331402868,266.77452997583896 169.16684640292078,265.94905965332873 172.10748949088156,264.8484320899006 175.04813257977366,261.54654620797373 175.27433589380234,259.34528629202396 175.9529458368197,256.593708404107 176.85775909479707,253.84212718973868 177.98877566773444,250.81538401311263 177.08396240975708,247.2383187059313 175.9529458368197,243.38608824275434 176.1791491517797,240.35933116311207 176.6315557807684,237.05740975774825 177.76257235370576,236.23192865750752 178.6673856107518,232.6548404339701 177.31016572378576,229.90323028177954 178.4411822957918,230.17839144705795 177.98877566773444,227.42677830229513 174.82192926388234,226.05097048194148 171.4288795478642,224.95032362709753 168.26203314494342,224.4000000001397 164.1903734849766,225.50064712180756 161.02352708112448,227.97710119676776 158.3090873081237,229.90323028177954 158.08288399223238,233.20516206533648 155.8208508491516,237.05740975774825 154.46363096125424,241.45997056690976 156.04705416224897,241.45997056690976 156.72566410526633,243.11092867492698 156.27325747720897,246.68800046737306 155.5946475332603,250.81538401311263 153.3326143892482,253.01665217778645 155.3684442192316,256.04339242796414 155.5946475332603,258.5198132751975 157.17807073518634,262.92233257344924 159.21390056516975,265.3987459379714 161.92834033910185,266.2242164602503 165.77379668504,266.2242164602503 169.39304971788079,267.60000000009313 173.01230274885893,266.2242164602503 174.14331932086498,264.0229610686656 174.36952263582498,260.4459165164735 175.72674252279103,259.34528629202396 175.9529458368197,255.21791821345687" stroke="#4DD2FF" stroke-dasharray="none" stroke-linecap="round" stroke-linejoin="round" stroke-width="0.5"><title>2013-09-22 10.9km</title><desc>9223370657048162807</desc></polyline></svg>