<?xml version="1.0" encoding="utf-8" ?>
<svg baseProfile="full" height="300mm" version="1.1" viewBox="0,0,200,300" width="200mm" xmlns="http://www.w3.org/2000/svg" xmlns:ev="http://www.w3.org/2001/xml-events" xmlns:xlink="http://www.w3.org/1999/xlink"><defs /><rect fill="#222222" height="300" width="200" x="0" y="0" /><text fill="#FFFFFF" style="font-size:12px; font-family:Arial; font-weight:bold;" x="10" y="20">Over 10km Runs</text><text fill="#FFFFFF" style="font-size:4px; font-family:Arial" x="10" y="280">Runner</text><text fill="#FFFFFF" style="font-size:9px; font-family:Arial" x="10" y="290">keep</text><text fill="#FFFFFF" style="font-size:4px; font-family:Arial" x="65" y="280">SPECIAL TRACKS</text><rect fill="yellow" height="2.6" width="2.6" x="65" y="283" /><text fill="#FFFFFF" style="font-size:3px; font-family:Arial" x="70" y="285.5">Over 20.0 km</text><rect fill="red" height="2.6" width="2.6" x="65" y="287" /><text fill="#FFFFFF" style="font-size:3px; font-family:Arial" x="70" y="289.5">Over 40.0 km</text><text fill="#FFFFFF" style="font-size:4px; font-family:Arial" x="120" y="280">STATISTICS</text><text fill="#FFFFFF" style="font-size:3px; font-family:Arial" x="120" y="285">Number: 15</text><text fill="#FFFFFF" style="font-size:3px; font-family:Arial" x="120" y="290">Weekly: 1.2</text><text fill="#FFFFFF" style="font-size:3px; font-family:Arial" x="141" y="285">Total: 163.6 km</text><text fill="#FFFFFF" style="font-size:3px; font-family:Arial" x="141" y="290">Avg: 10.9 km</text><text fill="#FFFFFF" style="font-size:3px; font-family:Arial" x="167" y="285">Min: 10.2 km</text><text fill="#FFFFFF" style="font-size:3px; font-family:Arial" x="167" y="290">Max: 14.0 km</text><polyline fill="none" opacity="1" points="26.42471627885243,75.59999999999854 26.45992968371138,75.26760760485195 26.49514308857033,74.96845331200893 26.49514308857033,74.64713824188948 26.47753638616996,74.27042243893811 26.49514308857033,73.97126455483522 26.49514308857033,73.66102561110165 26.51274979102891,73.37294555437984 26.521553142229095,73.07378443800553 26.662406761664897,72.84110282481561 26.90890059573576,72.77462224417104 27.128984376089647,72.7524620388067 27.13778772734804,72.57518018301926 27.208214537065942,72.42005824880471 27.208214537065942,72.1652144423424 27.217017888324335,71.81064784563932 27.023344161512796,71.55580216939416 26.74163692264119,71.41175861521333 26.776850327500142,71.06826913177792 26.829670434759464,70.70261747560289 26.882490542076994,70.39236632320535 26.917703946935944,70.03779215854593 26.97932740545366,69.69429699309694 27.01454081031261,69.41728372815123 27.03214751277119,69.18459187159169 27.12018102488946,69.09594718334847 27.146591078548227,68.90757690665487 27.102574322430883,68.76352875975863 27.155394429748412,68.64164167113631 27.217017888324335,68.39786695716612 27.28744469798403,68.1208493683298 27.349068156501744,67.8549116137583 27.44590501987841,67.51140742048301 27.51633182965452,67.2233060339131 27.60436534177279,66.91304188453068 27.771629014867358,66.79115208017902 27.938892687961925,66.86871834002523 28.167779819574207,66.89088011524291 28.423077004787046,66.72466665694083 28.563930624281056,66.49196725650836 28.687177541316487,66.20386233358295 28.854441214352846,65.90467539427482 29.02170488750562,65.59440631880716 29.188968560600188,65.31737937904109 29.356232233694755,65.0181892462133 29.497085853130557,64.76332272739819 29.655546175024938,64.44196817574993 29.83161319931969,64.09844986619282 30.051696979731787,63.72168621542369 30.271780760143884,63.31167677090707 30.474257838039193,62.96815378602332 30.65912821359234,62.64679228788009 30.85280194034567,62.35867402542499 31.02886896469863,62.08163629190676 31.16091923287604,61.871086996347 31.336986257170793,61.59404763625935 31.557070037641097,61.27268082067894 31.653906901017763,60.96239443936065 31.78595716919517,60.64102517940046 31.988434247206897,60.35289995789935 32.25253478367813,60.14234627920814 32.4902252664906,59.909628434324986 32.6310788859264,59.65474623686168 32.780735856620595,59.45527266703721 32.886376071197446,59.32229002096574 32.9920162857743,59.078487950020644 33.088853149150964,58.84576712369744 33.203296714928,58.71278350154171 33.38816709048115,58.66845558015484 33.502610656258184,58.66845558015484 33.643464275752194,58.546553674350434 33.79312124644639,58.35815946794901 33.96918827074114,58.19192893086438 34.162861997494474,57.91487729622895 34.34773237298941,57.69323532299313 34.2861089144717,57.44942846910999 34.27730556327151,57.16129217343405 34.34773237298941,56.88423710011557 34.559012802143116,56.64042787093058 34.76148988015484,56.40770021160279 34.89354014833225,56.13064262382977 35.02559041662607,55.78708993118198 35.219264143379405,55.532195079336816 35.492168031050824,55.2883818801929 35.668235055345576,55.06673289609171 35.80908867478138,54.756423324361094 35.941138943016995,54.44611259293015 36.09079591371119,54.1468832892715 36.39891320629977,54.02497474529082 36.62780033785384,53.93631387363712 36.77745730854804,53.62600007720175 36.86549082066631,53.293519722661586 36.91831092798384,53.01645174348232 36.98873773770174,52.706134509207914 37.07677124987822,52.329319165502966 37.173608113254886,52.01899936304835 37.173608113254886,51.908170581111335 37.25283827417297,51.65326382119383 37.29685503023211,51.28752666825312 37.393691893608775,50.92178790424077 37.49052875698544,50.511715252912836 37.569758917961735,50.13488994976069 37.63138237647945,49.79131244742166 37.71941588859772,49.44773352330958 37.79864604957402,49.093069916707464 37.877876210492104,48.71623817460204 37.930696317809634,48.33940472204995 38.018729829927906,47.99581978935021 38.08915663964581,47.66331688765058 38.18599350302247,47.253228141555155 38.23881361034,46.96505645943398 38.309240420057904,46.59929865320737 38.362060527375434,46.34437559284561 38.432487337093335,46.15595369732182 38.467700741952285,45.94536401384539 38.52052084921161,45.64610407105647 38.590947658987716,45.28034045374079 38.67898117110599,44.9034914049771 38.740604629623704,44.559892251832935 38.793424736883026,44.393634086569364 38.80222808814142,44.21629167658102 38.85504819545895,43.92810945236852 38.934278356377035,43.573422264584224 38.99590181489475,43.18548141768406 39.06632862461265,42.864043342575314 39.13675543433055,42.64236118626286 39.1719688391895,42.487183324636135 39.19837889284827,42.343089336201956 39.26000235136598,42.25441598826728 39.2511990001658,42.1103215957919 39.242395648907404,41.83321629185957 39.26000235136598,41.57827859529061 39.312822458625305,41.31225581627223 39.383249268401414,41.123822498666414 39.48008613177808,41.02406351026002 39.77940007310826,41.101653844933026 40.07871401443845,41.2235813671723 40.36922460451024,41.30117151531158 40.510078224004246,41.25683429666242 40.5452916288632,41.046232184737164 40.53648827766301,40.76912332863867 40.55409498006338,40.44767589664116 40.57170168252196,40.048635973427736 40.59811173612252,39.66067865341029 40.66853854584042,39.350311491813045 40.55409498006338,39.1729583070628 40.298797794792335,39.1729583070628 39.99068050226197,39.217296638773405 39.708973263332155,39.28380409194506 39.73538331704913,39.01777395951649 39.77940007310826,38.68523509500665 39.85863023402635,38.35269489826169 39.91145034134388,38.0312381083495 40.00828720466234,37.665440936507366 40.07871401443845,37.32181182177737 40.13153412169777,36.989266162629065 40.15794417535653,36.701058846992964 40.20196093141567,36.435020436678315 40.21956763387425,36.24657604674576 40.21076428267406,36.15789618578128 40.36922460451024,36.03596122228919 40.57170168252196,35.94728113630845 40.50127487280406,35.792090757873666 40.37802795576863,35.670155256972066 40.395634658169,35.48170913051581 40.41324136062758,35.38194336093875 40.59811173612252,35.41519863080612 40.79178546287585,35.41519863080612 40.95024578477023,35.448453887293 41.09990275546443,35.40411354232492 41.267166428500786,35.35977317363722 41.39921669679461,35.2710923652121 41.41682339919498,34.99396422812424 41.460840155312326,34.495131249626866 41.51366026257165,34.151489009273064 41.54007031623041,33.83001594792586 41.54007031623041,33.67482161056978 41.557677018630784,33.464200260037614 41.557677018630784,33.29791986888449 41.38160999433603,33.242492997815134 41.126312809064984,33.220322239008965 40.95904913597042,33.14272453659942 40.782982111675665,33.08729756184766 40.46606146794511,33.03187055011222 40.140337472897954,32.95427267149353 39.84102353156777,32.88776014637551 39.55931629269617,32.81016213302064 39.18957554164808,32.76582037852495 38.916671653918456,32.65496588862152 38.74940798082389,32.55519672114315 38.502914146811236,32.577367657620925 38.17719015182229,32.55519672114315 37.877876210492104,32.55519672114315 37.56095556670334,32.52194030532701 37.24403492297279,32.48868387621769 36.944720981642604,32.45542743374244 36.618996986653656,32.42217097793764 36.5133567720186,32.400000000001455 36.460536664759275,32.52194030532701 36.39010985504137,32.732564047080814 36.34609309898224,32.932101835693175 36.3020763429231,33.15380992707651 36.284469640406314,33.36443206532567 36.25805958680576,33.56396833481995 36.16122272342909,33.76350412460306 36.081992562511005,33.90761300777376 35.98515569907613,34.12931849328015 35.94994229427539,34.273426741296134 35.870712133299094,34.47296082542016 35.773875269980635,34.61706847678579 35.69464510900434,34.82768690176454 35.60661159682786,35.005049371364294 35.51857808470959,35.20458169670019 35.386527816415764,35.39302845236671 35.33370770915644,35.659070202571456 35.21046079212101,35.936196118920634 35.078410523885395,36.24657604674576 34.91995020204922,36.57912468145514 34.770293231355026,36.889502205078315 34.62063626071904,37.22204826390225 34.49738934368361,37.488084151664225 34.34773237298941,37.80954304509942 34.180468699894845,38.10883124058455 34.057221782859415,38.38594897787698 33.93397486588219,38.629811821403564 33.86354805616429,38.78499689424643 33.81953130004695,38.8515046938046 33.696284383011516,38.918012440088205 33.66987432941096,39.1840428922078 33.59944751963485,39.48332613173261 33.4233804953401,39.77152378697792 33.317740280763246,40.00429808575427 33.24731347098714,40.181649494312296 33.39697044168133,40.27032505648094 33.661070978152566,40.28140949508088 33.96918827074114,40.30357836786425 34.31251896813046,40.34791609567037 34.62943961186102,40.39225379980053 34.955163606849965,40.43659148021834 35.28088760183891,40.480929136996565 35.57139819202712,40.52526677005517 35.81789202603977,40.5363511746109 35.958745645475574,40.43659148021834 36.00276240159292,40.20381839372567 36.03797580639366,39.99321361011971 36.05558250879403,39.959960174433945 36.21404283068841,40.048635973427736 36.24045288434718,40.225987287230964 36.17002607462928,40.60285757094243 36.10840261611156,40.990810487528506 36.03797580639366,41.32334011576313 35.958745645475574,41.733458156042616 35.88831883575767,42.07706900815538 35.80908867478138,42.40959428502538 35.773875269980635,42.6866976648962 35.67703840654576,43.030304571315355 35.68584175774595,43.34065797398216 35.65943170414539,43.66209420358791 35.4305445724749,43.92810945236852 35.36011776281521,44.18303993254085 35.27208425063873,44.504472900422115 35.27208425063873,44.77048544985155 35.24567419697996,45.05866474984941 35.421741221274715,45.2027540247218 35.351314411556814,45.546350517070096 35.30729765549768,45.91211296237452 35.20165744086262,46.34437559284561 35.131230631202925,46.68796736024524 35.06960717268521,47.07589184014796 35.05200047022663,47.408397094521206 35.043197119026445,47.75198445829301 35.03439376782626,48.09557040018262 35.03439376782626,48.45023826797842 35.007983714167494,48.815987919821055 34.99918036296731,49.15956945835933 34.96396695810836,49.492066367580264 34.93755690444959,49.79131244742166 34.87593344593188,50.14597307130316 34.81430998741416,50.511715252912836 34.75268652889645,50.810957657660765 34.80550663621398,51.16561392592848 34.74388317769626,51.498102801553614 34.664653016778175,51.86383902691159 34.47097929002484,52.16307655842684 34.268502212071326,52.40689893488161 33.9955983243417,52.61747222927079 33.766711192787625,52.828044989575574 33.51141400751658,53.04969994982821 33.30893692956306,53.28243702124746 33.22090341738658,53.4265120242344 33.09765650035115,53.548421446888824 32.96560623217374,53.75899184623995 32.87757271993905,54.00280953627225 32.763129154162016,54.32420448825724 32.58706212986726,54.65668071569962 32.41979845671449,54.96699066024303 32.261338134878315,55.24405213070713 32.1997146763606,55.49894786706864 32.1997146763606,55.731678073374496 32.37578170065535,55.87574882662739 32.30535489093745,56.174971899999946 32.25253478367813,56.396617925820465 32.278944837336894,56.45202933985274 32.14689456904307,56.42986477868544 31.97963089600671,56.651510124145716 31.777153817994986,56.99505924035475 31.57467674004147,57.19453872014128 31.35459295968758,57.42726417416998 31.240149393852334,57.715399546941626 31.14331253047567,58.00353391988028 30.9760488573811,58.23625710661872 30.8351952379453,58.24733914685203 30.579898052674253,58.24733914685203 30.324600867403205,58.20301097702759 30.016483574872836,58.169764834099624 29.69956293114228,58.169764834099624 29.48828250193037,58.1808468832096 29.34742888249457,58.23625710661872 29.27700207271846,58.25842118560831 29.171361858199816,58.491143658007786 29.039311589905992,58.701701523401425 29.00409818504704,58.98983247404249 28.907261321670376,59.23363480525586 28.801621107093524,59.43310890747671 28.77521105343476,59.51068204004696 28.555127273022663,59.72123732032924 28.36145354632754,59.920710251251876 28.211796575633343,60.16450984949188 28.32624014146859,60.3196546757099 28.37906024872791,60.3972269801161 28.39666695118649,60.59669828728511 28.46709376090439,60.8626592849032 28.440683707245626,61.051047809443844 28.37906024872791,60.8626592849032 28.194189873232972,61.03996614336211" stroke="#4DD2FF" stroke-dasharray="none" stroke-linecap="round" stroke-linejoin="round" stroke-width="0.5"><title>2017-12-17 14.0km</title><desc>9223370523376934807</desc></polyline><polyline fill="none" opacity="1" points="100.55873180460185,32.40000000000873 100.46095373877324,32.663671893955325 100.61460498505039,32.874609029488056 100.60063668998191,33.63046432683768 100.65650987048866,33.946867583174026 100.78222452651244,34.21053638335434 100.83809770696098,34.56209396333725 100.89397088740952,34.8960727960075 100.907939182478,35.282784071576316 100.9219074776629,35.687071919528535 100.99174895317992,35.98589257556887 101.06159042875515,36.302290179010015 101.14540019945707,36.60110944058397 101.17333678971045,36.935083107906394 101.21524167509051,37.26905592919502 101.3269880360458,37.444830758468015 101.57841734803515,37.550295543609536 101.62032223341521,37.69091512582963 101.48063928226475,37.86668939272931 101.31301974086091,37.95457643826376 101.38286121649435,38.253391954887775 101.49460757739143,38.517052142400644 101.6342905285419,38.86859823901614 101.7320685943705,39.16741168410226 101.8298466601409,39.48380165247363 101.98349790641805,39.800190861540614 102.15111744782189,40.099002195260255 102.29080039897235,40.38023577303102 102.1371491526952,40.62631466148014 101.85778325039428,40.573583509773016 101.64825882366858,40.41538992806454 101.39682951156283,40.22204195933591 101.18730508483713,40.25719615655544 100.93587577267317,40.30992743484967 100.68444646062562,40.34508160864061 100.61460498505039,40.55600645452796 100.62857328017708,40.81966203734919 100.51682691927999,40.99543213302968 100.23746101692086,41.10089407792839 99.93015852442477,41.206355938484194 99.62285603187047,41.24150987327448 99.46920478559332,41.10089407792839 99.52507796604186,40.854816075239796 99.62285603187047,40.52085233696562 99.72063409764087,40.22204195933591 99.7904755732161,39.8529223226069 99.86031704884954,39.44864724899526 99.81841216346947,39.0619481925678 99.77650727814762,38.72797991287371 99.67872921231901,38.429165471869055 99.35745842463803,38.429165471869055 99.09206081746379,38.3412787427078 99.00825104676187,38.1830824825156 98.99428275163518,37.97215384031006 98.99428275163518,37.74364743049955 98.89650468586478,37.58545045318897 98.71491684933426,37.58545045318897 98.51936071767705,37.550295543609536 98.37967776658479,37.603027904522605 98.40761435677996,37.90184421793674 98.42158265184844,38.200659854133846 98.43555094703333,38.55220679430931 98.44951924210181,38.81586638430599 98.47745583229698,39.18498892446223 98.46348753728671,39.53653324003972 98.46348753728671,39.8529223226069 98.46348753728671,40.186887752774055 98.47745583229698,40.50327527466288 98.47745583229698,40.80208501490415 98.47745583229698,41.15362501877826 98.49142412748188,41.39970246377925 98.49142412748188,41.61062562254665 98.49142412748188,41.83912533041439 98.46348753728671,42.120355196428136 98.44951924210181,42.384007651067805 98.42158265184844,42.524622077995446 98.39364606159506,42.78827372424712 98.3657094713999,43.03434811840998 98.3657094713999,43.245268662140006 98.3657094713999,43.526495528945816 98.3657094713999,43.82529841772339 98.37967776658479,44.17683036108792 98.35174117633142,44.52836136723636 98.3657094713999,44.86231495496759 98.3657094713999,45.16111481649568 98.37967776658479,45.45991400090861 98.39364606159506,45.81144158626557 98.39364606159506,46.110239296991494 98.39364606159506,46.40903633055859 98.37967776658479,46.63752772292355 98.37967776658479,46.901171145174885 98.32380458607804,47.164814040239435 98.37967776658479,47.42845640818996 98.40761435677996,47.70967435296916 98.44951924210181,48.00846776217804 98.49142412748188,48.324836516258074 98.53332901286194,48.69393243663944 98.63110707857413,49.08060324519465 98.71491684933426,49.46727291973366 98.84063150535803,49.76606234625797 98.93840957118664,50.04727530562377 99.05015593214193,50.381214916022145 99.16190229303902,50.64485085310298 99.27364865399431,50.838183538697194 99.31555353925796,51.013940279590315 99.46920478559332,51.27757495170226 99.53904626122676,51.54120909674384 99.56698285142193,51.68181375855056 99.63682432693895,51.87514492376067 99.81841216346947,51.998173699495965 99.88825363910291,52.15635338537686 100.02793659025338,52.349683854874456 100.15365124621894,52.52543858112767 100.25142931210576,52.771494804444956 100.39111226319801,52.92967356267036 100.60063668998191,53.158153656258946 100.78222452651244,53.40420869890659 100.97778065811144,53.66783859228599 101.14540019945707,53.93146795859502 101.24317826534389,54.0896453254536 101.3269880360458,54.28297296052915 101.49460757739143,54.54660109709948 101.66222711873706,54.77507838915335 101.87175154552097,55.09143090924772 102.0393710869248,55.390207592441584 102.19302233320195,55.618683422901086 102.3466735794209,55.899883901525754 102.50032482569804,56.16350880569371 102.69588095735526,56.47985799504386 102.86350049870089,56.778631532608415 103.07302492548479,57.07740439323243 103.25461276201531,57.35860176139977 103.43620059854584,57.65737330804404 103.64572502521332,57.991293647457496 103.84128115681233,58.30763845218462 104.03683728852775,58.60640784881252 104.21842512494186,58.90517656849988 104.35810807615053,59.18637003934418 104.52572761749616,59.43241383454006 104.66541056870483,59.64330815071298 104.83303011005046,59.924500047723996 105.01461794658098,60.223265781329246 105.14033260260476,60.416584424776374 105.33588873426197,60.68020029999025 105.53144486586098,60.961389986172435 105.69906440726481,61.242579072742956 105.83874735841528,61.50619329692563 106.0203351949458,61.82252967043314 106.20192303147633,62.15643946372438 106.41144745814381,62.50792254334374 106.55113040935248,62.71881194144953 106.77462313120486,63.08786757674534 106.97017926280387,63.36905212944839 107.1377988042077,63.63266210323491 107.29145005048485,63.91384549443319 107.48700618208386,64.21260219078977 107.68256231368287,64.528932072717 107.86415015021339,64.86283501390426 108.01780139654875,65.16158956056461 108.157484347641,65.47791716639767 108.32510388904484,65.81181770507828 108.45081854506861,66.1281437514117 108.54859661083901,66.49718984653009 108.59050149621908,66.69049929380708 108.53462831582874,66.86623490905913 108.43685024994193,67.00682323270303 108.4647868401953,66.9541026288789 108.60446979134576,66.91895554801158 108.73018444742775,67.09469085885212 108.82796251325635,67.35829338611802 108.92574057896854,67.63946883451717 109.03748693992384,67.97336390093551 109.1771698910743,68.32483147871972 109.2889162520296,68.676298119899 109.40066261298489,68.99261729620048 109.47050408850191,69.23864279773261 109.61018703965237,69.53738743260328 109.72193340066588,69.83613139085355 109.83367976156296,70.11730155695113 109.94542612246005,70.39847112368443 109.9873310077819,70.60934790536703 110.05717248341534,70.9080894356448 110.16891884437064,71.20683028931671 110.28066520526772,71.5231433968438 110.37844327103812,71.82188285744633 110.47622133686673,72.12062164141389 110.58796769782202,72.43693255749531 110.68574576365063,72.70052440822474 110.8114604196744,73.01683393365238 110.92320678057149,73.297997319547 111.03495314152678,73.5967327602848 111.16066779760877,73.93061274642241 111.27241415850585,74.19420161210292 111.39812881452963,74.49293502316868 111.45400199497817,74.68623275216669 111.57971665100195,74.93224763390026 111.67749471683055,75.07282736033085 111.71939960221061,75.23097937343118 111.67749471683055,75.45942083541013 111.53781176568009,75.60000000000582 111.37019222427625,75.40670361011871 111.20257268287241,75.17826205684105 111.00701655127341,74.87953019789711 110.76955553435255,74.5983701832156 110.47622133686673,74.26449188737024 110.18288713943912,74.00090316211572 109.93145782739157,73.75488654326182 109.68002851528581,73.49129679960606 109.44256749830674,73.22770652927284 109.21907477645436,72.99926120215969 108.92574057896854,72.71809717951692 108.6603429717361,72.47207816806622 108.39494536462007,72.19091302163724 108.12954775744583,71.94489302689908 107.87811844534008,71.68129966616107 107.55684765765909,71.41770577861462 107.30541834555333,71.22440325959178 107.01208414818393,71.08381943148561 106.64890847512288,70.94323545356747 106.28573280212004,70.8729434083798 105.95049371937057,70.83779737174336 105.60128634143621,70.74993223919591 105.3079521440086,70.67964009100979 104.95874476613244,70.60934790536703 104.62350568332477,70.5390556822822 104.30223489564378,70.52148262067931 103.93905922264094,70.41604420171643 103.60382013989147,70.3281787881715 103.45016889355611,70.29303260642337 103.25461276201531,70.24031331614242 103.04508833523141,70.20516711092205 102.82159561337903,70.17002089641755 102.62603948178003,70.15244778557098 102.43048335012281,70.13487467241066 102.2488955136505,70.0821553189744 102.01143449667143,70.01186281489208 101.77397347963415,69.95914341227035 101.60635393834673,69.8888508426462 101.35492462624097,69.83613139085355 101.08952701906674,69.71311925470945 100.72635134600569,69.57253381574992 100.34920737787616,69.43194822693476 100.0977780657704,69.36165537640045 99.72063409764087,69.2562160302623 99.39936331001809,69.15077659986855 99.05015593214193,69.04533708516101 98.6730119639542,68.93989748613967 98.29586799588287,68.86960437330708 97.97459720820189,68.72901803528657 97.62538983032573,68.65872481006954 97.24824586213799,68.51813824728015 96.926975074457,68.39512488184846 96.731418942858,68.30725812204764 96.39617986016674,68.201817933048 96.08887736749602,68.09637765970547 95.75363828474656,67.93821709163603 95.4044309068704,67.74490947312734 95.08316011924762,67.53402811159322 94.76188933150843,67.30557292279263 94.49649172433419,66.9892497004621 94.30093559267698,66.69049929380708 94.1752209366532,66.40932182232791 94.11934775626287,66.21601196299889 93.95172821480082,65.98755449119199 93.81204526365036,65.7239492242079 93.70029890275327,65.56578581115173 93.56061595160281,65.2670321801561 93.39299641019898,64.93313026228861 93.19744027859997,64.58165364600427 93.02982073713792,64.17745437924168 92.82029631041223,63.77325387376186 92.62474017875502,63.33390409316053 92.44315234234091,63.01757134486979 92.27553280093707,62.68366373181925 92.10791325947503,62.297032807953656 91.92632542306092,61.89282653927512 91.7307692913455,61.47104476415552 91.5352131598047,61.066835963880294 91.31172043789411,60.64505154704966 91.14410089654848,60.27598907586071 90.92060817463789,59.87177661269379 90.73902033822378,59.46756291066413 90.57140079681994,59.063347969640745 90.37584466516273,58.6591317896964 90.22219341894379,58.32521314130281 90.06854217260843,57.991293647457496 89.92885922145797,57.76282192763756 89.81711286056088,57.42890100975637 89.6913982044789,57.04225468005461 89.56568354839692,56.638032305127126 89.481873777695,56.23380869111861 89.42600059724646,55.917458911571885 89.37012741679791,55.54838320951967 89.31425423629116,55.109006026992574 89.27234935102751,54.669627380455495 89.24441276077414,54.318123409175314 89.20250787539408,53.966618500999175 89.11869810469216,53.57996201970673 89.14663469494553,53.22845514382061 89.11869810469216,52.82422107823368 89.10472980962368,52.47271218786773 89.13266639981885,52.10362684451684 89.14663469494553,51.734540468110936 89.13266639981885,51.31272620150412 89.06282492424361,50.94363761137356 88.99298344866838,50.574547988100676 88.95107856334653,50.13515423249919 88.93711026821984,49.78363817380159 88.92314197309315,49.37939354783157 88.8812370877713,49.09817916402244 88.81139561219607,48.76423630435602 88.7834590220009,48.324836516258074 88.89520538289798,47.88543526393187 88.92314197309315,47.533913207778824 88.92314197309315,47.217542556041735 88.93711026821984,46.98905216876301 88.9790151535999,46.83086628410092 88.92314197309315,46.54964646502049 88.8812370877713,46.25084975009668 88.85330049751792,45.91689967914135 88.82536390732275,45.565372374941944 88.79742731706938,45.1962676968833 88.769490726816,44.89746791499783 88.68568095611408,44.47563177603297 88.65774436591892,44.071370876481524 88.64377607073402,43.64953209455416 88.60187118541216,43.280422053314396 88.5599663000321,42.9640411954897 88.51806141476845,42.630082799718366 88.50409311964177,42.41916127187142 88.51806141476845,42.050047786178766 88.51806141476845,41.68093326711096 88.50409311964177,41.329394669184694 88.47615652933018,41.030586124034016 88.42028334893985,40.66146875094273 88.37837846361799,40.30992743484967 88.39234675868647,39.940808044120786 88.42028334893985,39.62441917243996 88.39234675868647,39.2201433982118 88.32250528311124,38.90375279712316 88.30853698798455,38.48189748125151 88.28060039778939,38.14792773220688 88.32250528311124,37.9897312400426 88.32250528311124,37.796379714025534 88.29456869291607,37.49756316159619" stroke="#4DD2FF" stroke-dasharray="none" stroke-linecap="round" stroke-linejoin="round" stroke-width="0.5"><title>2017-11-19 11.8km</title><desc>9223370525802103807</desc></polyline><polyline fill="none" opacity="0.5" points="175.06163763534278,74.26394545444055 173.08967504138127,73.37324143352453 171.49332436965778,73.15056530456059 169.99087667884305,73.039227221685 168.30062302667648,73.15056530456059 167.64330216217786,73.2619033754454 165.85914552910253,73.70725553407101 163.60547399288043,72.70521289831959 162.0091233216226,71.36915449029766 160.60057861125097,71.70316925924271 159.00422793952748,71.1464779159287 157.59568323008716,70.92380129144294 156.4688474619761,71.1464779159287 155.3420116933994,70.81246296095196 154.21517592528835,70.36710951454006 152.80663121538237,70.4784478948568 151.58589246636257,71.03513960994314 149.5200268914923,70.36710951454006 148.39319112338126,69.69907897384837 147.82977323932573,68.47435515781399 147.07854939438403,67.2496298441547 146.98464641347528,65.46820853248937 147.17245237482712,63.909462284646 147.17245237482712,62.12803503050236 146.98464641347528,60.56928358366713 146.98464641347528,58.453831310151145 146.70293747121468,57.3404335816158 146.51513150986284,55.67033466754947 146.89074343256652,54.11157316813478 146.89074343256652,52.77548995165853 147.2663553552702,51.6620859093382 146.98464641347528,50.21465880336473 147.45416131662205,48.655888811219484 147.36025833617896,46.98577541258419 147.64196727843955,45.98370603600051 147.73587025888264,43.979564275126904 147.64196727843955,42.19810156407766 147.73587025888264,40.639319092268124 147.82977323932573,39.41455973347183 148.11148218158633,37.967114923521876 148.39319112338126,36.40832586516626 148.11148218158633,34.84953437978402 148.11148218158633,33.736110404424835 147.92367622023448,32.399999999965075 148.11148218158633,33.736110404424835 148.11148218158633,34.84953437978402 148.39319112338126,36.40832586516626 148.11148218158633,37.967114923521876 147.82977323932573,39.41455973347183 147.73587025888264,40.639319092268124 147.64196727843955,42.19810156407766 147.73587025888264,43.979564275126904 147.64196727843955,45.98370603600051 147.36025833617896,46.98577541258419 147.45416131662205,48.655888811219484 146.98464641347528,50.21465880336473 147.2663553552702,51.6620859093382 146.89074343256652,52.77548995165853 146.89074343256652,54.11157316813478 146.51513150986284,55.67033466754947 146.70293747121468,57.3404335816158 146.98464641347528,58.453831310151145 146.98464641347528,60.56928358366713 147.17245237482712,62.12803503050236 147.17245237482712,63.909462284646 146.98464641347528,65.46820853248937 147.07854939438403,67.2496298441547 147.82977323932573,68.47435515781399 148.39319112338126,69.69907897384837 149.5200268914923,70.36710951454006 151.58589246636257,71.03513960994314 152.80663121538237,70.4784478948568 154.21517592528835,70.36710951454006 155.3420116933994,70.81246296095196 156.4688474619761,71.1464779159287 157.59568323008716,70.92380129144294 159.00422793952748,71.1464779159287 160.60057861125097,71.70316925924271 162.0091233216226,71.36915449029766 163.60547399288043,72.70521289831959 165.85914552910253,73.70725553407101 167.64330216217786,73.2619033754454 168.30062302667648,73.15056530456059 169.99087667884305,73.039227221685 171.49332436965778,73.15056530456059 173.08967504138127,73.37324143352453 175.06163763534278,74.26394545444055 176.18847340345383,73.92993153934367 177.50311513291672,74.15260749531444 178.91165984328836,74.15260749531444 180.1323985918425,74.59795925789513 181.44704032083973,74.59795925789513 182.57387608941644,74.82063506502891 183.88851781887934,75.04331082268618 185.48486849013716,75.59999999997672" stroke="#4DD2FF" stroke-dasharray="1,0.5" stroke-linecap="round" stroke-linejoin="round" stroke-width="0.5"><title>2014-03-22 10.5km</title><desc>9223370641410674807</desc></polyline><polyline fill="none" opacity="1" points="55.600000000034925,101.59710562756663 55.46757840132341,101.60950264369603 55.3351568026701,101.64669368312752 55.18236265028827,101.64669368312752 55.06012732849922,101.65909069328336 54.927705729787704,101.60950264369603 54.76472530065803,101.62189965837024 54.652676255616825,101.63429667149467 54.48969582648715,101.63429667149467 54.34708795096958,101.63429667149467 54.23503890592838,101.63429667149467 54.082244753604755,101.63429667149467 53.949823154951446,101.62189965837024 53.82758783310419,101.60950264369603 53.705352511198726,101.59710562756663 53.58311718935147,101.58470860990928 53.45069559069816,101.62189965837024 53.31827399198664,101.62189965837024 53.185852393333334,101.60950264369603 53.05343079462182,101.58470860990928 52.92100919596851,101.55991457009804 52.82933270453941,101.55991457009804 52.67653855221579,101.55991457009804 52.53393067675643,101.58470860990928 52.40150907804491,101.58470860990928 52.2690874793916,101.57231159073126 52.12647960387403,101.53512052432052 52.004244282026775,101.55991457009804 51.87182268331526,101.55991457009804 51.70884225418558,101.54751754796598 51.59679320920259,101.5103264725185 51.433812780014705,101.49792944434012 51.28101862774929,101.53512052432052 51.11803819856141,101.53512052432052 50.99580287671415,101.54751754796598 50.84300872439053,101.53512052432052 50.72077340254327,101.53512052432052 50.5781655270257,101.54751754796598 50.4661164819845,101.53512052432052 50.33369488327298,101.52272349915438 50.201273284619674,101.54751754796598 50.06885168590816,101.53512052432052 49.93643008725485,101.53512052432052 49.824381042213645,101.55991457009804 49.68177316675428,101.57231159073126 49.56972412165487,101.57231159073126 49.43730252300156,101.57231159073126 49.26413581700763,101.55991457009804 49.15208677202463,101.55991457009804 48.98910634283675,101.55991457009804 48.89742985146586,101.55991457009804 48.76500825275434,101.55991457009804 48.63258665410103,101.54751754796598 48.500165055447724,101.55991457009804 48.357557179930154,101.52272349915438 48.2353218580829,101.52272349915438 48.082527705759276,101.5103264725185 47.939919830299914,101.5103264725185 47.80749823153019,101.49792944434012 47.695449186547194,101.49792944434012 47.552841311029624,101.53512052432052 47.38986088189995,101.55991457009804 47.26762556005269,101.53512052432052 47.12501768453512,101.52272349915438 46.99259608582361,101.5103264725185 46.87036076397635,101.48553241466288 46.707380334846675,101.5103264725185 46.58514501299942,101.48553241466288 46.4323508606758,101.47313538353046 46.28974298515823,101.47313538353046 46.14713510964066,101.5103264725185 46.01471351098735,101.49792944434012 45.851733081857674,101.46073835089192 45.69893892953405,101.43594428106735 45.566517330822535,101.4235472438886 45.423909455304965,101.38635612341022 45.281301579787396,101.3987531650564 45.15906625799835,101.41115020524012 45.02664465928683,101.43594428106735 44.904409337439574,101.44834131673997 44.771987738786265,101.49792944434012 44.63956614007475,101.49792944434012 44.49695826455718,101.48553241466288 44.36453666590387,101.47313538353046 44.25248762086267,101.46073835089192 44.12006602215115,101.48553241466288 43.98764442349784,101.47313538353046 43.865409101650584,101.49792944434012 43.71261494932696,101.46073835089192 43.55982079700334,101.48553241466288 43.44777175196214,101.46073835089192 43.30516387644457,101.46073835089192 43.17274227779126,101.46073835089192 43.060693232750054,101.4235472438886 42.918085357232485,101.3987531650564 42.76529120490886,101.41115020524012 42.61249705258524,101.4235472438886 42.45970290026162,101.3987531650564 42.33746757847257,101.41115020524012 42.19485970289679,101.41115020524012 42.04206555063138,101.3987531650564 41.90964395186165,101.3987531650564 41.77722235326655,101.41115020524012 41.62442820088472,101.4235472438886 41.48182032542536,101.44834131673997 41.359585003519896,101.41115020524012 41.22716340486659,101.37395908025792 41.084555529407226,101.38635612341022 40.95213393069571,101.36156203557766 40.80952605517814,101.37395908025792 40.68729073333088,101.3987531650564 40.56505541148363,101.37395908025792 40.422447536024265,101.34916498942766 40.269653383642435,101.34916498942766 40.14741806179518,101.34916498942766 39.99462390947156,101.32437089259474 39.89276114129461,101.29957678975916 39.76033954252489,101.29957678975916 39.617731667123735,101.29957678975916 39.515868898888584,101.32437089259474 39.36307474656496,101.31197384190455 39.22046687104739,101.32437089259474 39.088045272335876,101.36156203557766 38.93525112007046,101.36156203557766 38.79264324455289,101.37395908025792 38.69078047631774,101.33676794177154 38.54817260080017,101.33676794177154 38.41575100214686,101.33676794177154 38.30370195716387,101.31197384190455 38.140721527975984,101.33676794177154 38.008299929322675,101.32437089259474 37.84531950013479,101.31197384190455 37.71289790148148,101.32437089259474 37.61103513324633,101.31197384190455 37.35637821268756,101.32437089259474 37.060976184904575,101.31197384190455 36.83687809482217,101.27478268092091 36.60259372793371,101.27478268092091 36.14421127096284,101.33676794177154 35.85899551998591,101.26238562426443 35.67564253718592,101.23759150638216 35.319122848450206,101.26238562426443 35.14595614245627,101.21279738255544 34.982975713326596,101.20040031839744 34.67738740867935,101.24998856606544 34.38198538083816,101.28717973610037 34.117142183473334,101.3987531650564 33.90323037019698,101.37395908025792 29.879651025752537,101.15081204664602 29.645366658864077,101.15081204664602 29.390709738305304,101.11362082713458 29.054562603181694,101.20040031839744 28.789719405816868,101.12601790181361 28.51468993164599,101.07642959406803 28.14798396610422,101.07642959406803 24.847630275937263,101.0392383475264 24.603159632184543,101.06403251336451 24.277198773925193,101.0392383475264 24.042914407036733,101.0020470874224 23.778071209671907,100.90287032786728 23.46229662821861,100.98964999772579 23.126149493095,101.0020470874224 22.891865126148332,101.0144441756056 20.253619429422542,100.97725290655217 19.90728601749288,100.97725290655217 19.734119311498944,100.97725290655217 19.560952605563216,101.0020470874224 19.510021221474744,100.94006162398 19.357227069092914,100.95245871965017 19.01089365716325,100.96485581387242 18.878472058509942,100.89047322617989 18.603442584339064,100.86567901830858 18.379344494256657,100.89047322617989 18.165432680980302,100.89047322617989 18.01263852865668,100.85328191210283 16.92270690877922,100.87807612299366 16.60693232732592,100.89047322617989 16.3624616835732,100.80369347226952 16.12817731668474,100.85328191210283 15.761471351142973,100.84088480436913 15.517000707390253,100.87807612299366 15.28271634056,100.92766452679643 15.007686866330914,100.86567901830858 14.722471115295775,100.84088480436913 14.478000471601263,100.8284876951875 14.152039613283705,100.80369347226952 13.958500353735872,100.80369347226952 13.734402263653465,100.8160905844561 13.245460976206232,100.84088480436913 13.041735439794138,100.72931076751411 13.021362886123825,101.0144441756056 13.05192171660019,101.23759150638216 13.092666823940817,101.4235472438886 13.00099033251172,101.63429667149467 12.878755010664463,101.65909069328336 12.899127564276569,101.33676794177154 12.685215751058422,101.34916498942766 12.512049045064487,101.53512052432052 12.440745107305702,101.68388470909122 12.420372553693596,101.88223661923985 12.471303937782068,102.22935153747676 12.491676491452381,102.48968695402436 12.613911813299637,102.86159354378469 12.62409809010569,103.10953051990509" stroke="#4DD2FF" stroke-dasharray="none" stroke-linecap="round" stroke-linejoin="round" stroke-width="0.5"><title>2013-12-10 10.9km</title><desc>9223370650177580807</desc></polyline><polyline fill="none" opacity="0.5" points="108.87847955711186,86.8519991368521 104.95811196044087,83.20521922083572 97.34798662550747,82.64417564729229 91.12152044288814,89.09616854530759 89.73786129057407,95.5481435037218 89.5072514321655,103.40269750310108 89.27664157282561,108.17152088950388 88.58481199666858,114.34292484284379 90.66030072513968,119.39224314200692 96.88676690869033,122.75844923895784 103.11323309037834,123.03896619309671 108.4172598393634,117.98965582833625 110.26213870756328,110.97670653951354 110.49274856690317,104.52477447572164 110.49274856690317,97.79230450256728 111.64579785987735,91.62085653445683 109.80091899074614,85.72991361888126 105.88055139407516,82.92469745082781 99.88469506986439,82.08313193893991 94.81127818115056,84.32730595883913 91.12152044288814,88.5351263966877 89.96847114898264,95.5481435037218 89.73786129057407,102.56113941781223 89.27664157282561,109.01307694031857 109.80091899074614,93.02345978678204 110.49274856690317,89.37668956816196 106.80299082957208,83.7662626572419 101.96018379833549,80.4000000001397 94.11944860499352,86.01043504965492 89.96847114898264,91.05981499678455 91.35213030129671,99.75594359473325 88.58481199666858,105.92736992868595 88.35420214012265,111.25722491787747 88.58481199666858,117.98965582833625 93.42761902883649,121.35586395906284 99.88469506986439,123.60000000009313 105.88055139407516,120.79482960957102 110.03152885008603,114.0624068370089 110.49274856690317,107.89100213861093 109.80091899074614,101.15854193037376 110.72335842624307,94.98710291530006 111.18457814306021,88.5351263966877 107.95604012254626,83.7662626572419 102.6520133735612,82.08313193893991 96.65615704935044,83.7662626572419 92.73578945267946,86.57147780805826 90.89091058447957,91.62085653445683 90.42969086673111,98.63386431708932 89.73786129057407,104.52477447572164 87.89298242237419,112.94033447606489 112.10701757762581,90.49877332313918 108.87847955711186,86.8519991368521 104.95811196044087,83.20521922083572 97.34798662550747,82.64417564729229 91.12152044288814,89.09616854530759 89.73786129057407,95.5481435037218 89.5072514321655,103.40269750310108 89.27664157282561,108.17152088950388 88.58481199666858,114.34292484284379 90.66030072513968,119.39224314200692 96.88676690869033,122.75844923895784 103.11323309037834,123.03896619309671 108.4172598393634,117.98965582833625 110.26213870756328,110.97670653951354 110.49274856690317,104.52477447572164 110.49274856690317,97.79230450256728 111.64579785987735,91.62085653445683 109.80091899074614,85.72991361888126 105.88055139407516,82.92469745082781 99.88469506986439,82.08313193893991 94.81127818115056,84.32730595883913 91.12152044288814,88.5351263966877 89.96847114898264,95.5481435037218 89.73786129057407,102.56113941781223 89.27664157282561,109.01307694031857 109.80091899074614,93.02345978678204 110.49274856690317,89.37668956816196 106.80299082957208,83.7662626572419 101.96018379833549,80.4000000001397 94.11944860499352,86.01043504965492 89.96847114898264,91.05981499678455 91.35213030129671,99.75594359473325 88.58481199666858,105.92736992868595 88.35420214012265,111.25722491787747 88.58481199666858,117.98965582833625 93.42761902883649,121.35586395906284 99.88469506986439,123.60000000009313 105.88055139407516,120.79482960957102 110.03152885008603,114.0624068370089 110.49274856690317,107.89100213861093 109.80091899074614,101.15854193037376 110.72335842624307,94.98710291530006 111.18457814306021,88.5351263966877 107.95604012254626,83.7662626572419 102.6520133735612,82.08313193893991 96.65615704935044,83.7662626572419 92.73578945267946,86.57147780805826 90.89091058447957,91.62085653445683 90.42969086673111,98.63386431708932 89.73786129057407,104.52477447572164 87.89298242237419,112.94033447606489 112.10701757762581,90.49877332313918 108.87847955711186,86.8519991368521 104.95811196044087,83.20521922083572 97.34798662550747,82.64417564729229 91.12152044288814,89.09616854530759 89.73786129057407,95.5481435037218 89.5072514321655,103.40269750310108 89.27664157282561,108.17152088950388 88.58481199666858,114.34292484284379 90.66030072513968,119.39224314200692 96.88676690869033,122.75844923895784 103.11323309037834,123.03896619309671 108.4172598393634,117.98965582833625 110.26213870756328,110.97670653951354 110.49274856690317,104.52477447572164 110.49274856690317,97.79230450256728 111.64579785987735,91.62085653445683 109.80091899074614,85.72991361888126 105.88055139407516,82.92469745082781 99.88469506986439,82.08313193893991 94.81127818115056,84.32730595883913 91.12152044288814,88.5351263966877 89.96847114898264,95.5481435037218 89.73786129057407,102.56113941781223 89.27664157282561,109.01307694031857 109.80091899074614,93.02345978678204 110.49274856690317,89.37668956816196 106.80299082957208,83.7662626572419 101.96018379833549,80.4000000001397 94.11944860499352,86.01043504965492 89.96847114898264,91.05981499678455 91.35213030129671,99.75594359473325 88.58481199666858,105.92736992868595 88.35420214012265,111.25722491787747 88.58481199666858,117.98965582833625 93.42761902883649,121.35586395906284 99.88469506986439,123.60000000009313 105.88055139407516,120.79482960957102 110.03152885008603,114.0624068370089 110.49274856690317,107.89100213861093 109.80091899074614,101.15854193037376 110.72335842624307,94.98710291530006 111.18457814306021,88.5351263966877 107.95604012254626,83.7662626572419 102.6520133735612,82.08313193893991 96.65615704935044,83.7662626572419 92.73578945267946,86.57147780805826 90.89091058447957,91.62085653445683 90.42969086673111,98.63386431708932 89.73786129057407,104.52477447572164 87.89298242237419,112.94033447606489 112.10701757762581,90.49877332313918 108.87847955711186,86.8519991368521 104.95811196044087,83.20521922083572 97.34798662550747,82.64417564729229 91.12152044288814,89.09616854530759 89.73786129057407,95.5481435037218 89.5072514321655,103.40269750310108 89.27664157282561,108.17152088950388 88.58481199666858,114.34292484284379 90.66030072513968,119.39224314200692 96.88676690869033,122.75844923895784 103.11323309037834,123.03896619309671 108.4172598393634,117.98965582833625 110.26213870756328,110.97670653951354 110.49274856690317,104.52477447572164 110.49274856690317,97.79230450256728 111.64579785987735,91.62085653445683 109.80091899074614,85.72991361888126 105.88055139407516,82.92469745082781 99.88469506986439,82.08313193893991 94.81127818115056,84.32730595883913 91.12152044288814,88.5351263966877 89.96847114898264,95.5481435037218 89.73786129057407,102.56113941781223 89.27664157282561,109.01307694031857 109.80091899074614,93.02345978678204 110.49274856690317,89.37668956816196 106.80299082957208,83.7662626572419 101.96018379833549,80.4000000001397 94.11944860499352,86.01043504965492 89.96847114898264,91.05981499678455 91.35213030129671,99.75594359473325 88.58481199666858,105.92736992868595 88.35420214012265,111.25722491787747 88.58481199666858,117.98965582833625 93.42761902883649,121.35586395906284 99.88469506986439,123.60000000009313 105.88055139407516,120.79482960957102 110.03152885008603,114.0624068370089 110.49274856690317,107.89100213861093 109.80091899074614,101.15854193037376 110.72335842624307,94.98710291530006 111.18457814306021,88.5351263966877 107.95604012254626,83.7662626572419 102.6520133735612,82.08313193893991 96.65615704935044,83.7662626572419 92.73578945267946,86.57147780805826 90.89091058447957,91.62085653445683 90.42969086673111,98.63386431708932 89.73786129057407,104.52477447572164 87.89298242237419,112.94033447606489 112.10701757762581,90.49877332313918 108.87847955711186,86.8519991368521 104.95811196044087,83.20521922083572 97.34798662550747,82.64417564729229 91.12152044288814,89.09616854530759 89.73786129057407,95.5481435037218 89.5072514321655,103.40269750310108 89.27664157282561,108.17152088950388 88.58481199666858,114.34292484284379 90.66030072513968,119.39224314200692 96.88676690869033,122.75844923895784 103.11323309037834,123.03896619309671 108.4172598393634,117.98965582833625 110.26213870756328,110.97670653951354 110.49274856690317,104.52477447572164 110.49274856690317,97.79230450256728 111.64579785987735,91.62085653445683 109.80091899074614,85.72991361888126 105.88055139407516,82.92469745082781 99.88469506986439,82.08313193893991 94.81127818115056,84.32730595883913 91.12152044288814,88.5351263966877 89.96847114898264,95.5481435037218 89.73786129057407,102.56113941781223 89.27664157282561,109.01307694031857 109.80091899074614,93.02345978678204 110.49274856690317,89.37668956816196 106.80299082957208,83.7662626572419 101.96018379833549,80.4000000001397 94.11944860499352,86.01043504965492 89.96847114898264,91.05981499678455 91.35213030129671,99.75594359473325 88.58481199666858,105.92736992868595 88.35420214012265,111.25722491787747 88.58481199666858,117.98965582833625 93.42761902883649,121.35586395906284 99.88469506986439,123.60000000009313 105.88055139407516,120.79482960957102 110.03152885008603,114.0624068370089 110.49274856690317,107.89100213861093 109.80091899074614,101.15854193037376 110.72335842624307,94.98710291530006 111.18457814306021,88.5351263966877 107.95604012254626,83.7662626572419 102.6520133735612,82.08313193893991 96.65615704935044,83.7662626572419 92.73578945267946,86.57147780805826 90.89091058447957,91.62085653445683 90.42969086673111,98.63386431708932 89.73786129057407,104.52477447572164 87.89298242237419,112.94033447606489 112.10701757762581,90.49877332313918 108.87847955711186,86.8519991368521 104.95811196044087,83.20521922083572 97.34798662550747,82.64417564729229 91.12152044288814,89.09616854530759 89.73786129057407,95.5481435037218 89.5072514321655,103.40269750310108 89.27664157282561,108.17152088950388 88.58481199666858,114.34292484284379 90.66030072513968,119.39224314200692 96.88676690869033,122.75844923895784 103.11323309037834,123.03896619309671 108.4172598393634,117.98965582833625 110.26213870756328,110.97670653951354 110.49274856690317,104.52477447572164 110.49274856690317,97.79230450256728 111.64579785987735,91.62085653445683 109.80091899074614,85.72991361888126 105.88055139407516,82.92469745082781 99.88469506986439,82.08313193893991 94.81127818115056,84.32730595883913 91.12152044288814,88.5351263966877 89.96847114898264,95.5481435037218 89.73786129057407,102.56113941781223 89.27664157282561,109.01307694031857 109.80091899074614,93.02345978678204 110.49274856690317,89.37668956816196 106.80299082957208,83.7662626572419 101.96018379833549,80.4000000001397 94.11944860499352,86.01043504965492 89.96847114898264,91.05981499678455 91.35213030129671,99.75594359473325 88.58481199666858,105.92736992868595 88.35420214012265,111.25722491787747 88.58481199666858,117.98965582833625 93.42761902883649,121.35586395906284 99.88469506986439,123.60000000009313 105.88055139407516,120.79482960957102 110.03152885008603,114.0624068370089 110.49274856690317,107.89100213861093 109.80091899074614,101.15854193037376 110.72335842624307,94.98710291530006 111.18457814306021,88.5351263966877 107.95604012254626,83.7662626572419 102.6520133735612,82.08313193893991 96.65615704935044,83.7662626572419 92.73578945267946,86.57147780805826 90.89091058447957,91.62085653445683 90.42969086673111,98.63386431708932 89.73786129057407,104.52477447572164 87.89298242237419,112.94033447606489 112.10701757762581,90.49877332313918 108.87847955711186,86.8519991368521 104.95811196044087,83.20521922083572 97.34798662550747,82.64417564729229 91.12152044288814,89.09616854530759 89.73786129057407,95.5481435037218 89.5072514321655,103.40269750310108 89.27664157282561,108.17152088950388 88.58481199666858,114.34292484284379 90.66030072513968,119.39224314200692 96.88676690869033,122.75844923895784 103.11323309037834,123.03896619309671 108.4172598393634,117.98965582833625 110.26213870756328,110.97670653951354 110.49274856690317,104.52477447572164 110.49274856690317,97.79230450256728 111.64579785987735,91.62085653445683 109.80091899074614,85.72991361888126 105.88055139407516,82.92469745082781 99.88469506986439,82.08313193893991 94.81127818115056,84.32730595883913 91.12152044288814,88.5351263966877 89.96847114898264,95.5481435037218 89.73786129057407,102.56113941781223 89.27664157282561,109.01307694031857 109.80091899074614,93.02345978678204 110.49274856690317,89.37668956816196 106.80299082957208,83.7662626572419 101.96018379833549,80.4000000001397 94.11944860499352,86.01043504965492 89.96847114898264,91.05981499678455" stroke="#4DD2FF" stroke-dasharray="1,0.5" stroke-linecap="round" stroke-linejoin="round" stroke-width="0.5"><title>2013-11-30 10.3km</title><desc>9223370651086224807</desc></polyline><polyline fill="none" opacity="1" points="174.87847955711186,86.8519991368521 172.80299082957208,83.7662626572419 170.95811196044087,83.20521922083572 167.9601837983355,80.4000000001397 163.34798662550747,82.64417564729229 160.11944860499352,86.01043504965492 157.12152044288814,89.09616854530759 155.96847114898264,91.05981499678455 155.73786129057407,95.5481435037218 157.3521303012967,99.75594359473325 155.5072514321655,103.40269750310108 154.58481199666858,105.92736992868595 155.2766415728256,108.17152088950388 154.35420214012265,111.25722491787747 154.58481199666858,114.34292484284379 154.58481199666858,117.98965582833625 156.66030072513968,119.39224314200692 159.4276190288365,121.35586395906284 162.88676690869033,122.75844923895784 165.8846950698644,123.60000000009313 169.11323309037834,123.03896619309671 171.88055139407516,120.79482960957102 174.4172598393634,117.98965582833625 176.03152885008603,114.0624068370089 176.26213870756328,110.97670653951354 176.49274856690317,107.89100213861093 176.49274856690317,104.52477447572164 175.80091899074614,101.15854193037376 176.49274856690317,97.79230450256728 176.72335842624307,94.98710291530006 177.64579785987735,91.62085653445683 177.1845781430602,88.5351263966877 175.80091899074614,85.72991361888126 173.95604012254626,83.7662626572419 171.88055139407516,82.92469745082781 168.6520133735612,82.08313193893991 165.8846950698644,82.08313193893991 162.65615704935044,83.7662626572419 160.81127818115056,84.32730595883913 158.73578945267946,86.57147780805826 157.12152044288814,88.5351263966877 156.89091058447957,91.62085653445683 155.96847114898264,95.5481435037218 156.4296908667311,98.63386431708932" stroke="#4DD2FF" stroke-dasharray="none" stroke-linecap="round" stroke-linejoin="round" stroke-width="0.5"><title>2013-11-16 10.4km</title><desc>9223370652294258807</desc></polyline><polyline fill="none" opacity="1" points="36.712869081646204,129.00000514974818 33.013502151705325,129.00000514974818 29.06751076038927,130.50001738895662 26.354641679674387,132.30003087921068 25.121519369073212,136.50005727959797 23.395148135721684,141.30007874849252 23.395148135721684,144.30008745123632 23.148523674346507,147.0000921834726 22.40865028835833,151.20009370637126 22.655274749733508,155.10008875629865 22.40865028835833,158.10008077835664 22.655274749733508,163.20005889236927 23.64177259709686,165.60004496737383 26.108017217367887,167.7000308786519 30.793881993740797,171.60000000009313 34.73987338505685,171.60000000009313 38.43924031406641,170.40001015365124 40.65886047203094,169.20001972699538 43.37172955367714,165.90004306309856 44.111602938733995,163.20005889236927 43.86497847735882,159.000077677425 44.35822740197182,154.2000904425513 45.34472524933517,151.20009370637126 46.08459863439202,147.60009283619002 46.08459863439202,144.00008674431592 46.33122309669852,139.80007303715684 45.837974173016846,135.90005394420587 43.61835401598364,132.6000330010429 40.90548493433744,130.50001738895662 36.712869081646204,128.4000000001397 33.013502151705325,129.00000514974818 29.560759685002267,130.50001738895662 26.354641679674387,132.0000287219882 23.64177259709686,135.00004866719246 22.901899211108685,140.40007542981766 23.148523674346507,144.00008674431592 22.655274749733508,147.60009283619002 24.13502152170986,151.20009370637126 22.40865028835833,156.90008440450765 21.668776902370155,160.80007049744017 22.40865028835833,164.70005046087317 22.655274749733508,166.80003713420592 26.354641679674387,169.20001972699538 29.314135221764445,170.70000767009333 34.24662446137518,171.30000259238295 37.699366928078234,170.70000767009333" stroke="#4DD2FF" stroke-dasharray="none" stroke-linecap="round" stroke-linejoin="round" stroke-width="0.5"><title>2013-11-03 10.7km</title><desc>9223370653417861807</desc></polyline><polyline fill="none" opacity="1" points="97.14620644785464,171.60000000009313 100.0,165.4286072361283 100.31708817183971,160.80005483119749 100.31708817183971,156.55720922886394 100.63417634367943,150.77150158584118 100.95126451738179,144.9857834544964 102.53670537658036,139.97148592071608 102.85379355028272,134.95718050701544 100.0,131.4857336813584 98.09747096523643,128.39999999990687" stroke="#4DD2FF" stroke-dasharray="none" stroke-linecap="round" stroke-linejoin="round" stroke-width="0.5"><title>2013-11-02 10.5km</title><desc>9223370653505000807</desc></polyline><polyline fill="none" opacity="1" points="176.87615060433745,140.01008210144937 176.43222609069198,137.31006839242764 175.32241480425,134.34004954481497 173.99064126145095,132.72003759886138 170.4392451448366,130.56001984444447 167.7756980592385,128.4000000001397 165.3341132281348,129.48001018329524 162.0046793706715,130.8300221778918 159.78505679685622,132.45003549358808 158.67524551134557,135.69005860155448 158.2313209977001,138.12007284793071 157.7873964831233,141.63008875912055 156.45562293939292,144.33009724435396 156.01169842481613,146.76010209089145 156.23366068210453,150.81010429398157 157.7873964831233,154.32010026299395 154.90188713837415,155.13009854895063 155.12384939659387,156.21009580790997 154.45796262472868,157.56009164638817 154.90188713837415,163.23006525845267 160.22898131329566,166.20004569296725 165.77803774364293,167.55003549298272 167.1098112873733,167.55003549298272 169.10747160110623,167.55003549298272 171.77101868763566,168.3600289823953 173.99064126145095,164.0400603134185 174.6565280323848,162.96006684168242 174.8784902896732,160.5300796192605 175.54437706060708,159.18008557590656 173.54671674594283,158.91008666879497 174.8784902896732,158.10008975397795 176.2102638334036,155.94009654247202 175.9883015761152,150.81010429398157 176.2102638334036,149.46010437584482 175.7663393188268,146.2201012421865 176.2102638334036,142.1700907170307 175.7663393188268,136.7700652598869 175.32241480425,133.26004171161912 173.54671674594283,129.75001264712773 169.55139611661434,129.48001018329524 165.77803774364293,129.21000768686645 162.6705661425367,130.56001984444447 159.78505679685622,132.72003759886138 156.67758519575,133.26004171161912 156.45562293939292,137.58006991050206 156.23366068210453,140.55008445074782 156.01169842481613,144.0600965428166 154.90188713837415,147.57010311936028 155.34581165295094,151.62010385282338 155.12384939659387,155.13009854895063 154.90188713837415,159.18008557590656 154.90188713837415,161.61007426702417 158.45328325405717,165.66004954348318 164.00233968626708,168.63002674723975 166.44392451550812,169.98001507879235 169.32943385839462,171.60000000009313 173.32475448958576,167.82003335561603 175.1004525469616,162.69006839231588 175.54437706060708,159.7200832911767 175.54437706060708,158.6400877290871 175.1004525469616,153.24010209064 174.8784902896732,148.92010417976417 175.32241480425,146.2201012421865 175.54437706060708,142.98009340977296 177.09811286255717,138.93007700890303 175.7663393188268,135.96006031497382 174.43456577509642,134.34004954481497 172.88082997407764,130.8300221778918 170.21728288847953,130.02001507859677 166.0,129.75001264712773 162.0046793706715,130.56001984444447 159.78505679685622,130.8300221778918 156.89954745396972,132.72003759886138 154.90188713837415,135.69005860155448 154.67992488108575,138.39007426798344 155.34581165295094,139.7400808769744 154.23600036650896,142.71009254432283 154.67992488108575,145.95010076928884 154.90188713837415,147.57010311936028 154.45796262472868,150.27010442432947 154.90188713837415,153.78010124200955 154.67992488108575,157.02009340864606 154.90188713837415,161.34007565444335 157.5654342258349,166.20004569296725 161.7827171124518,168.63002674723975 163.11449065618217,168.3600289823953 166.0,169.98001507879235 167.99766031466424,169.1700221770443 171.1051319167018,171.33000259427354 173.32475448958576,168.63002674723975 174.8784902896732,162.42006990942173 173.99064126145095,158.37008875748143 175.1004525469616,151.35010403278284 174.8784902896732,147.0301024664659 174.8784902896732,145.68010026379488 176.43222609069198,142.98009340977296 177.76399963349104,140.82008557626978 177.09811286255717,136.7700652598869 175.32241480425,132.1800333559513 173.10279223136604,129.75001264712773 169.9953206302598,128.6700025945902 166.0,128.94000515691005 161.1168303405866,130.56001984444447 157.1215097112581,132.1800333559513 156.67758519575,133.53004371840507 155.56777391023934,134.61005142168142 155.78973616752774,137.04006684245542 156.01169842481613,138.6600756549742 156.23366068210453,142.1700907170307 156.23366068210453,143.5200950417202" stroke="#4DD2FF" stroke-dasharray="none" stroke-linecap="round" stroke-linejoin="round" stroke-width="0.5"><title>2013-10-26 11.1km</title><desc>9223370654110301807</desc></polyline><polyline fill="none" opacity="1" points="42.52801532112062,202.26325324806385 42.52801532112062,198.85273064253852 42.52801532112062,195.1579922370147 43.92988085281104,191.4632480267901 45.565390639938414,189.18955639493652 46.49996766168624,186.63165068160743 46.26632340531796,184.07374218595214 43.92988085281104,181.23161837016232 40.8925055321306,179.81055517448112 37.855130213312805,177.25263925665058 34.58411063905805,176.4000000001397 31.0794468075037,177.82106525660492 28.27571574319154,180.09476788225584 25.705628934316337,182.6526807071641 25.238340424373746,185.77901482582092 25.238340424373746,189.4737679695245 24.771051913499832,192.60009301709943 24.30376340262592,196.86325683817267 21.50003233831376,199.9895720607601 21.967320849187672,203.68430287321098 21.733676593750715,207.94744659680873 22.200965103693306,211.07374708005227 22.200965103693306,213.91583482245915 24.30376340262592,216.75791912851855 27.341138722375035,219.0315841003321 30.61215829756111,219.60000000009313 34.58411063905805,219.0315841003321 37.154197447001934,217.610543750925 40.8925055321306,215.90529419737868 41.82708255480975,213.6316262029577 43.462592341937125,210.22112008789554 43.92988085281104,206.81060902611353 43.92988085281104,203.1158831268549 44.39716936368495,199.70536175812595 45.0981021290645,195.4422030900605 45.33174638450146,192.0316705906298 45.79903489537537,189.18955639493652 45.565390639938414,185.49480280443095 44.63081361912191,181.80004340759479 42.52801532112062,179.24212965508923 39.4906400013715,178.10527820512652 35.98597617074847,177.53685227409005 32.48131234012544,177.53685227409005 29.21029276587069,178.95791684417054 25.705628934316337,181.23161837016232 24.30376340262592,184.07374218595214 25.004696168005466,188.33692146651447 23.602830636315048,191.74745932617225 23.36918638087809,194.58957042940892 23.36918638087809,198.28430972713977 21.733676593750715,201.69483315735124 22.200965103693306,206.52639954793267 21.967320849187672,209.3684927856084 23.36918638087809,212.21058258996345 24.30376340262592,215.90529419737868 25.238340424373746,217.610543750925 30.845802552998066,219.0315841003321" stroke="#4DD2FF" stroke-dasharray="none" stroke-linecap="round" stroke-linejoin="round" stroke-width="0.5"><title>2013-10-20 10.7km</title><desc>9223370654628121807</desc></polyline><polyline fill="none" opacity="0.5" points="95.01345427706838,219.00822432828136 101.58109986409545,219.60000000009313 107.66225318517536,216.34523203712888 109.85146838147193,208.35623777774163 110.09471451491117,200.66310755256563 111.06769904587418,194.1535169375129 111.55419131275266,186.164450250566 106.68926865514368,177.87946466286667 98.90539240278304,176.6958930043038 93.31073134578764,181.4301762059331 91.12151614949107,189.12336687906645 89.6620393525809,197.11242390889674 88.44580868817866,204.50967568764463 88.20256255567074,211.31512758042663 98.66214626841247,219.00822432828136 104.98654572386295,218.1205605531577 109.36497611645609,212.79457114078104 110.09471451491117,203.6220066549722 110.09471451491117,197.11242390889674 111.79743744432926,190.60282385186292 109.36497611645609,179.95071368920617 101.82434599753469,176.4000000001397 95.98643880710006,179.35892843198963 92.58099294733256,184.38909855671227 89.6620393525809,193.56173511454836 88.20256255567074,200.66310755256563 88.68905482254922,207.76445938879624 95.01345427706838,219.00822432828136 101.58109986409545,219.60000000009313 107.66225318517536,216.34523203712888 109.85146838147193,208.35623777774163 110.09471451491117,200.66310755256563 111.06769904587418,194.1535169375129 111.55419131275266,186.164450250566 106.68926865514368,177.87946466286667 98.90539240278304,176.6958930043038 93.31073134578764,181.4301762059331 91.12151614949107,189.12336687906645 89.6620393525809,197.11242390889674 88.44580868817866,204.50967568764463 88.20256255567074,211.31512758042663 98.66214626841247,219.00822432828136 104.98654572386295,218.1205605531577 109.36497611645609,212.79457114078104 110.09471451491117,203.6220066549722 110.09471451491117,197.11242390889674 111.79743744432926,190.60282385186292 109.36497611645609,179.95071368920617 101.82434599753469,176.4000000001397 95.98643880710006,179.35892843198963 92.58099294733256,184.38909855671227 89.6620393525809,193.56173511454836 88.20256255567074,200.66310755256563 88.68905482254922,207.76445938879624 95.01345427706838,219.00822432828136 101.58109986409545,219.60000000009313 107.66225318517536,216.34523203712888 109.85146838147193,208.35623777774163 110.09471451491117,200.66310755256563 111.06769904587418,194.1535169375129 111.55419131275266,186.164450250566 106.68926865514368,177.87946466286667 98.90539240278304,176.6958930043038 93.31073134578764,181.4301762059331 91.12151614949107,189.12336687906645 89.6620393525809,197.11242390889674 88.44580868817866,204.50967568764463 88.20256255567074,211.31512758042663 98.66214626841247,219.00822432828136 104.98654572386295,218.1205605531577 109.36497611645609,212.79457114078104 110.09471451491117,203.6220066549722 110.09471451491117,197.11242390889674 111.79743744432926,190.60282385186292 109.36497611645609,179.95071368920617 101.82434599753469,176.4000000001397 95.98643880710006,179.35892843198963 92.58099294733256,184.38909855671227 89.6620393525809,193.56173511454836 88.20256255567074,200.66310755256563 88.68905482254922,207.76445938879624 95.01345427706838,219.00822432828136 101.58109986409545,219.60000000009313 107.66225318517536,216.34523203712888 109.85146838147193,208.35623777774163 110.09471451491117,200.66310755256563 111.06769904587418,194.1535169375129 111.55419131275266,186.164450250566 106.68926865514368,177.87946466286667 98.90539240278304,176.6958930043038 93.31073134578764,181.4301762059331 91.12151614949107,189.12336687906645 89.6620393525809,197.11242390889674 88.44580868817866,204.50967568764463 88.20256255567074,211.31512758042663 98.66214626841247,219.00822432828136 104.98654572386295,218.1205605531577 109.36497611645609,212.79457114078104 110.09471451491117,203.6220066549722 110.09471451491117,197.11242390889674 111.79743744432926,190.60282385186292 109.36497611645609,179.95071368920617 101.82434599753469,176.4000000001397 95.98643880710006,179.35892843198963 92.58099294733256,184.38909855671227 89.6620393525809,193.56173511454836 88.20256255567074,200.66310755256563 88.68905482254922,207.76445938879624 95.01345427706838,219.00822432828136 101.58109986409545,219.60000000009313 107.66225318517536,216.34523203712888 109.85146838147193,208.35623777774163 110.09471451491117,200.66310755256563 111.06769904587418,194.1535169375129 111.55419131275266,186.164450250566 106.68926865514368,177.87946466286667 98.90539240278304,176.6958930043038 93.31073134578764,181.4301762059331 91.12151614949107,189.12336687906645 89.6620393525809,197.11242390889674 88.44580868817866,204.50967568764463 88.20256255567074,211.31512758042663 98.66214626841247,219.00822432828136 104.98654572386295,218.1205605531577 109.36497611645609,212.79457114078104 110.09471451491117,203.6220066549722 110.09471451491117,197.11242390889674 111.79743744432926,190.60282385186292 109.36497611645609,179.95071368920617 101.82434599753469,176.4000000001397 95.98643880710006,179.35892843198963 92.58099294733256,184.38909855671227 89.6620393525809,193.56173511454836 88.20256255567074,200.66310755256563 88.68905482254922,207.76445938879624 95.01345427706838,219.00822432828136 101.58109986409545,219.60000000009313 107.66225318517536,216.34523203712888 109.85146838147193,208.35623777774163 110.09471451491117,200.66310755256563 111.06769904587418,194.1535169375129 111.55419131275266,186.164450250566 106.68926865514368,177.87946466286667 98.90539240278304,176.6958930043038 93.31073134578764,181.4301762059331 91.12151614949107,189.12336687906645 89.6620393525809,197.11242390889674 88.44580868817866,204.50967568764463 88.20256255567074,211.31512758042663 98.66214626841247,219.00822432828136 104.98654572386295,218.1205605531577 109.36497611645609,212.79457114078104 110.09471451491117,203.6220066549722 110.09471451491117,197.11242390889674 111.79743744432926,190.60282385186292 109.36497611645609,179.95071368920617 101.82434599753469,176.4000000001397 95.98643880710006,179.35892843198963 92.58099294733256,184.38909855671227 89.6620393525809,193.56173511454836 88.20256255567074,200.66310755256563 88.68905482254922,207.76445938879624 95.01345427706838,219.00822432828136 101.58109986409545,219.60000000009313 107.66225318517536,216.34523203712888 109.85146838147193,208.35623777774163 110.09471451491117,200.66310755256563 111.06769904587418,194.1535169375129 111.55419131275266,186.164450250566 106.68926865514368,177.87946466286667 98.90539240278304,176.6958930043038 93.31073134578764,181.4301762059331 91.12151614949107,189.12336687906645 89.6620393525809,197.11242390889674 88.44580868817866,204.50967568764463 88.20256255567074,211.31512758042663 98.66214626841247,219.00822432828136 104.98654572386295,218.1205605531577 109.36497611645609,212.79457114078104 110.09471451491117,203.6220066549722 110.09471451491117,197.11242390889674 111.79743744432926,190.60282385186292 109.36497611645609,179.95071368920617 101.82434599753469,176.4000000001397 95.98643880710006,179.35892843198963 92.58099294733256,184.38909855671227 89.6620393525809,193.56173511454836 88.20256255567074,200.66310755256563 88.68905482254922,207.76445938879624 95.01345427706838,219.00822432828136 101.58109986409545,219.60000000009313 107.66225318517536,216.34523203712888 109.85146838147193,208.35623777774163 110.09471451491117,200.66310755256563 111.06769904587418,194.1535169375129 111.55419131275266,186.164450250566 106.68926865514368,177.87946466286667 98.90539240278304,176.6958930043038 93.31073134578764,181.4301762059331 91.12151614949107,189.12336687906645 89.6620393525809,197.11242390889674 88.44580868817866,204.50967568764463 88.20256255567074,211.31512758042663 98.66214626841247,219.00822432828136 104.98654572386295,218.1205605531577 109.36497611645609,212.79457114078104 110.09471451491117,203.6220066549722 110.09471451491117,197.11242390889674 111.79743744432926,190.60282385186292 109.36497611645609,179.95071368920617 101.82434599753469,176.4000000001397 95.98643880710006,179.35892843198963 92.58099294733256,184.38909855671227 89.6620393525809,193.56173511454836 88.20256255567074,200.66310755256563 88.68905482254922,207.76445938879624 95.01345427706838,219.00822432828136 101.58109986409545,219.60000000009313 107.66225318517536,216.34523203712888 109.85146838147193,208.35623777774163 110.09471451491117,200.66310755256563 111.06769904587418,194.1535169375129 111.55419131275266,186.164450250566 106.68926865514368,177.87946466286667 98.90539240278304,176.6958930043038 93.31073134578764,181.4301762059331 91.12151614949107,189.12336687906645 89.6620393525809,197.11242390889674 88.44580868817866,204.50967568764463 88.20256255567074,211.31512758042663 98.66214626841247,219.00822432828136 104.98654572386295,218.1205605531577 109.36497611645609,212.79457114078104 110.09471451491117,203.6220066549722 110.09471451491117,197.11242390889674 111.79743744432926,190.60282385186292 109.36497611645609,179.95071368920617 101.82434599753469,176.4000000001397 95.98643880710006,179.35892843198963 92.58099294733256,184.38909855671227 89.6620393525809,193.56173511454836 88.20256255567074,200.66310755256563 88.68905482254922,207.76445938879624 95.01345427706838,219.00822432828136 101.58109986409545,219.60000000009313 107.66225318517536,216.34523203712888 109.85146838147193,208.35623777774163 110.09471451491117,200.66310755256563 111.06769904587418,194.1535169375129 111.55419131275266,186.164450250566 106.68926865514368,177.87946466286667 98.90539240278304,176.6958930043038 93.31073134578764,181.4301762059331 91.12151614949107,189.12336687906645 89.6620393525809,197.11242390889674 88.44580868817866,204.50967568764463 88.20256255567074,211.31512758042663 98.66214626841247,219.00822432828136 104.98654572386295,218.1205605531577 109.36497611645609,212.79457114078104 110.09471451491117,203.6220066549722 110.09471451491117,197.11242390889674 111.79743744432926,190.60282385186292 109.36497611645609,179.95071368920617 101.82434599753469,176.4000000001397 95.98643880710006,179.35892843198963 92.58099294733256,184.38909855671227 89.6620393525809,193.56173511454836 88.20256255567074,200.66310755256563 88.68905482254922,207.76445938879624 95.01345427706838,219.00822432828136 101.58109986409545,219.60000000009313 107.66225318517536,216.34523203712888 109.85146838147193,208.35623777774163 110.09471451491117,200.66310755256563 111.06769904587418,194.1535169375129 111.55419131275266,186.164450250566 106.68926865514368,177.87946466286667 98.90539240278304,176.6958930043038 93.31073134578764,181.4301762059331 91.12151614949107,189.12336687906645 89.6620393525809,197.11242390889674 88.44580868817866,204.50967568764463 88.20256255567074,211.31512758042663 98.66214626841247,219.00822432828136 104.98654572386295,218.1205605531577 109.36497611645609,212.79457114078104 110.09471451491117,203.6220066549722 110.09471451491117,197.11242390889674 111.79743744432926,190.60282385186292 109.36497611645609,179.95071368920617 101.82434599753469,176.4000000001397 95.98643880710006,179.35892843198963 92.58099294733256,184.38909855671227 89.6620393525809,193.56173511454836 88.20256255567074,200.66310755256563 88.68905482254922,207.76445938879624 95.01345427706838,219.00822432828136 101.58109986409545,219.60000000009313 107.66225318517536,216.34523203712888 109.85146838147193,208.35623777774163 110.09471451491117,200.66310755256563 111.06769904587418,194.1535169375129 111.55419131275266,186.164450250566 106.68926865514368,177.87946466286667 98.90539240278304,176.6958930043038 93.31073134578764,181.4301762059331 91.12151614949107,189.12336687906645 89.6620393525809,197.11242390889674 88.44580868817866,204.50967568764463 88.20256255567074,211.31512758042663 98.66214626841247,219.00822432828136 104.98654572386295,218.1205605531577 109.36497611645609,212.79457114078104 110.09471451491117,203.6220066549722 110.09471451491117,197.11242390889674 111.79743744432926,190.60282385186292 109.36497611645609,179.95071368920617 101.82434599753469,176.4000000001397 95.98643880710006,179.35892843198963 92.58099294733256,184.38909855671227 89.6620393525809,193.56173511454836 88.20256255567074,200.66310755256563 88.68905482254922,207.76445938879624 95.01345427706838,219.00822432828136 101.58109986409545,219.60000000009313 107.66225318517536,216.34523203712888 109.85146838147193,208.35623777774163 110.09471451491117,200.66310755256563 111.06769904587418,194.1535169375129 111.55419131275266,186.164450250566" stroke="#4DD2FF" stroke-dasharray="1,0.5" stroke-linecap="round" stroke-linejoin="round" stroke-width="0.5"><title>2013-10-19 10.2km</title><desc>9223370654714312807</desc></polyline><polyline fill="none" opacity="1" points="161.01345427706838,219.00822432828136 164.66214626841247,219.00822432828136 167.58109986409545,219.60000000009313 170.98654572386295,218.1205605531577 173.66225318517536,216.34523203712888 175.3649761164561,212.79457114078104 175.85146838147193,208.35623777774163 176.09471451491117,203.6220066549722 176.09471451491117,200.66310755256563 176.09471451491117,197.11242390889674 177.06769904587418,194.1535169375129 177.79743744432926,190.60282385186292 177.55419131275266,186.164450250566 175.3649761164561,179.95071368920617 172.68926865514368,177.87946466286667 167.8243459975347,176.4000000001397 164.90539240278304,176.6958930043038 161.98643880710006,179.35892843198963 159.31073134578764,181.4301762059331 158.58099294733256,184.38909855671227 157.12151614949107,189.12336687906645 155.6620393525809,193.56173511454836 155.6620393525809,197.11242390889674 154.20256255567074,200.66310755256563 154.44580868817866,204.50967568764463 154.68905482254922,207.76445938879624" stroke="#4DD2FF" stroke-dasharray="none" stroke-linecap="round" stroke-linejoin="round" stroke-width="0.5"><title>2013-10-12 10.6km</title><desc>9223370655320152807</desc></polyline><polyline fill="none" opacity="1" points="44.31823674123734,243.0811759249773 45.518031710758805,238.99468104168773 45.75799070484936,235.78385878098197 46.717826679348946,232.86492574820295 45.99794969893992,230.52977678203024 43.358400764875114,226.73515489464626 39.03913887310773,225.2756833503954 35.43975396454334,224.4000000001397 32.56024603638798,224.4000000001397 30.16065609641373,225.56757773039863 26.08135319966823,227.61083739856258 24.641599235124886,230.52977678203024 23.68176325969398,234.03249938460067 23.921722253784537,238.11900266609155 23.921722253784537,241.62171426066197 24.161681246943772,244.83252875856124 23.921722253784537,248.6271222056821 22.24200929608196,251.25414494634606 21.52213231381029,254.17305574938655 21.282173319719732,257.09196302411146 22.24200929608196,260.0108667712193 23.4418042646721,262.3459872279782 25.121517223306,265.26488462416455 28.240984144620597,266.72433199873194 31.600410060957074,266.72433199873194 36.639548934064806,267.60000000009313 39.7590158553794,264.68110542721115 41.67868780810386,262.0540972945746 44.07827774621546,258.25952494633384 44.31823674123734,254.17305574938655 44.31823674123734,250.67036236193962 45.518031710758805,246.87577212485485 46.237908692099154,243.37306815269403 45.99794969893992,240.16225171345286 45.99794969893992,237.53521690703928" stroke="#4DD2FF" stroke-dasharray="none" stroke-linecap="round" stroke-linejoin="round" stroke-width="0.5"><title>2013-10-06 10.6km</title><desc>9223370655838244807</desc></polyline><polyline fill="none" opacity="1" points="90.660300726071,251.89100213861093 90.19908100832254,255.53774326271378 89.27664157561958,258.3429248428438 89.27664157561958,260.3065499314107 90.19908100832254,263.3922431420069 91.8133500199765,265.6363810834009 95.96432747505605,266.75844923895784 99.19286549650133,267.60000000009313 102.19079365767539,266.75844923895784 105.18872181978077,266.47793225129135 107.26421054638922,264.23379512433894 108.64786969870329,261.98965582833625 109.57030913420022,258.0624068370089 109.33969927486032,254.97670653951354 110.26213870942593,251.04944568034261 110.26213870942593,247.40269750310108 110.03152885008603,243.75594359473325 109.80091899260879,238.98710291530006 110.26213870942593,235.62085653445683 110.95396828558296,234.21825243486091 110.26213870942593,231.41304169245996 107.95604012254626,228.88834912492894 104.9581119613722,226.0831319389399 102.88262323383242,225.2415661229752 99.65408521238714,225.80261003412306 96.19493733346462,225.80261003412306 94.35005846433342,226.6441756472923 93.19700917135924,229.72991361888126 91.5827401606366,232.5351263966877 91.35213030222803,235.62085653445683 90.660300726071,239.26762322615832 89.96847115084529,243.19490402424708 89.5072514321655,245.7195810272824 88.81542185787112,248.80529363360256 88.81542185787112,252.17152088950388 87.89298242330551,255.53774326271378 87.43176270555705,258.0624068370089 87.66237256396562,261.14810303226113 88.81542185787112,263.6727605035994 91.8133500199765,266.19741522870027 95.50310775730759,267.0389661930967 99.65408521238714,267.319483113708 103.34384294971824,266.75844923895784 105.8805513959378,264.794829609571 108.64786969870329,262.55069085536525 109.80091899260879,258.3429248428438 110.26213870942593,255.53774326271378 110.72335842624307,252.4520396075677 110.95396828558296,249.6468509058468 111.4151880024001,245.7195810272824 111.64579786174,243.4754238263704 111.87640772014856,240.3897041331511 112.10701757855713,237.5845008501783 112.3376274369657,234.49877332313918 111.64579786174,231.69356291904114 110.4927485678345,229.1688706574496 108.18664998188615,226.6441756472923 105.64994153752923,225.2415661229752 102.88262323383242,224.4000000001397 100.57652464695275,224.96104411478154 96.65615705028176,225.52208809531294 93.88883874751627,227.20521922083572 92.50517959613353,230.8519991368521 90.89091058447957,235.34033578261733 89.96847115084529,238.14554177806713 89.7378612915054,240.3897041331511 89.5072514321655,243.4754238263704 89.7378612915054,246.56113941781223 89.96847115084529,249.92736992868595 89.7378612915054,253.01307694031857 89.5072514321655,256.3792980927974 89.96847115084529,259.7455143611878 91.35213030222803,262.83120831870474 93.88883874751627,264.5143123844173 96.65615705028176,267.319483113708 100.57652464695275,267.319483113708 102.88262323383242,267.0389661930967 106.34177111368626,265.35586395906284 108.41725984029472,263.3922431420069 109.57030913420022,260.0260321632959 110.03152885008603,257.2208526181057 110.95396828558296,254.13515119976364 110.95396828558296,250.76892679347657 111.64579786174,247.96373605774716 111.64579786174,244.8780223308131 111.4151880024001,241.79230450256728 112.56823729537427,238.14554177806713 111.64579786174,235.34033578261733 110.72335842624307,231.97408411232755 110.03152885008603,229.44939215504564 107.49482040572912,227.7662626572419 104.26628238521516,226.0831319389399 101.26835422310978,226.6441756472923" stroke="#4DD2FF" stroke-dasharray="none" stroke-linecap="round" stroke-linejoin="round" stroke-width="0.5"><title>2013-09-29 10.5km</title><desc>9223370656443428807</desc></polyline><polyline fill="none" opacity="1" points="156.95186742115766,240.63449106365442 156.72566410526633,244.76188558503054 156.72566410526633,246.96315960399806 156.49946079216897,249.16443149279803 156.49946079216897,253.29181054909714 155.14224090520293,255.49307631724514 155.5946475332603,260.99623142788187 156.49946079216897,263.4726468878798 161.92834033910185,265.3987459379714 164.1903734849766,265.94905965332873 167.58342320099473,265.94905965332873 171.65508286189288,264.8484320899006 174.59572594985366,262.0968608537223 176.6315557807684,257.96949776401743 177.31016572378576,253.5669688861817 175.72674252279103,250.81538401311263 174.14331932086498,249.43959032977 175.9529458368197,245.03704495402053 177.53636903874576,239.8090112612117 177.98877566773444,237.88289055787027 177.31016572378576,234.8561261605937 178.4411822957918,231.0038747417275 175.72674252279103,228.25226259441115 173.01230274885893,225.2254853900522 171.2026762329042,224.67516183038242 165.77379668504,225.2254853900522 164.1903734849766,225.50064712180756 161.24973039515316,227.97710119676776 158.76149393618107,230.17839144705795 158.08288399223238,232.6548404339701 157.63047736417502,236.23192865750752 156.49946079216897,240.909650930902 156.95186742115766,244.2115667485632 157.17807073518634,246.41284129861742 156.49946079216897,250.81538401311263 156.95186742115766,254.11728546093218 155.5946475332603,258.24465553602204 156.27325747720897,261.54654620797373 156.49946079216897,263.4726468878798 160.34491713810712,264.8484320899006 163.96417016908526,267.3248433584813 166.22620331402868,266.77452997583896 169.16684640292078,265.94905965332873 172.10748949088156,264.8484320899006 175.04813257977366,261.54654620797373 175.27433589380234,259.34528629202396 175.9529458368197,256.593708404107 176.85775909479707,253.84212718973868 177.98877566773444,250.81538401311263 177.08396240975708,247.2383187059313 175.9529458368197,243.38608824275434 176.1791491517797,240.35933116311207 176.6315557807684,237.05740975774825 177.76257235370576,236.23192865750752 178.6673856107518,232.6548404339701 177.31016572378576,229.90323028177954 178.4411822957918,230.17839144705795 177.98877566773444,227.42677830229513 174.82192926388234,226.05097048194148 171.4288795478642,224.95032362709753 168.26203314494342,224.4000000001397 164.1903734849766,225.50064712180756 161.02352708112448,227.97710119676776 158.3090873081237,229.90323028177954 158.08288399223238,233.20516206533648 155.8208508491516,237.05740975774825 154.46363096125424,241.45997056690976 156.04705416224897,241.45997056690976 156.72566410526633,243.11092867492698 156.27325747720897,246.68800046737306 155.5946475332603,250.81538401311263 153.3326143892482,253.01665217778645 155.3684442192316,256.04339242796414 155.5946475332603,258.5198132751975 157.17807073518634,262.92233257344924 159.21390056516975,265.3987459379714 161.92834033910185,266.2242164602503 165.77379668504,266.2242164602503 169.39304971788079,267.60000000009313 173.01230274885893,266.2242164602503 174.14331932086498,264.0229610686656 174.36952263582498,260.4459165164735 175.72674252279103,259.34528629202396 175.9529458368197,255.21791821345687 177.98877566773444,248.61411371990107 177.98877566773444,243.93640727945603 175.9529458368197,241.1848107650876 176.6315557807684,237.88289055787027" stroke="#4DD2FF" stroke-dasharray="none" stroke-linecap="round" stroke-linejoin="round" stroke-width="0.5"><title>2013-09-22 10.9km</title><desc>9223370657048162807</desc></polyline></svg>