<?xml version="1.0" encoding="utf-8" ?>
<svg baseProfile="full" height="300mm" version="1.1" viewBox="0,0,200,300" width="200mm" xmlns="http://www.w3.org/2000/svg" xmlns:ev="http://www.w3.org/2001/xml-events" xmlns:xlink="http://www.w3.org/1999/xlink"><defs /><rect fill="#222222" height="300" width="200" x="0" y="0" /><text fill="#FFFFFF" style="font-size:12px; font-family:Arial; font-weight:bold;" x="10" y="20">Over 10km Runs</text><text fill="#FFFFFF" style="font-size:4px; font-family:Arial" x="10" y="280">Runner</text><text fill="#FFFFFF" style="font-size:9px; font-family:Arial" x="10" y="290">keep</text><text fill="#FFFFFF" style="font-size:4px; font-family:Arial" x="65" y="280">SPECIAL TRACKS</text><rect fill="yellow" height="2.6" width="2.6" x="65" y="283" /><text fill="#FFFFFF" style="font-size:3px; font-family:Arial" x="70" y="285.5">Over 20.0 km</text><rect fill="red" height="2.6" width="2.6" x="65" y="287" /><text fill="#FFFFFF" style="font-size:3px; font-family:Arial" x="70" y="289.5">Over 40.0 km</text><text fill="#FFFFFF" style="font-size:4px; font-family:Arial" x="120" y="280">STATISTICS</text><text fill="#FFFFFF" style="font-size:3px; font-family:Arial" x="120" y="285">Number: 15</text><text fill="#FFFFFF" style="font-size:3px; font-family:Arial" x="120" y="290">Weekly: 1.2</text><text fill="#FFFFFF" style="font-size:3px; font-family:Arial" x="141" y="285">Total: 163.6 km</text><text fill="#FFFFFF" style="font-size:3px; font-family:Arial" x="141" y="290">Avg: 10.9 km</text><text fill="#FFFFFF" style="font-size:3px; font-family:Arial" x="167" y="285">Min: 10.2 km</text><text fill="#FFFFFF" style="font-size:3px; font-family:Arial" x="167" y="290">Max: 14.0 km</text><polyline fill="none" opacity="1" points="27.100326722778846,75.59999999999854 27.091834817169,75.29006070738251 27.015407667058753,74.96943259146792 26.955964328022674,74.80911805242067 26.86255336672184,74.63811552388506 26.77763431103085,74.45642493748892 26.718190971994773,74.2106076060154 26.7012071608915,73.92203847206838 26.760650499840267,73.55865363992052 26.77763431103085,73.28077000925987 26.760650499840267,72.9708217458683 26.752158594317734,72.67156021597475 26.760650499840267,72.3936735088646 26.77763431103085,72.03028174536303 26.78612621658249,71.76308086788777 26.837077650008723,71.49587909928232 27.015407667058753,71.35693382746831 27.287148645322304,71.33555761042226 27.389051512203878,71.25005268520908 27.41452722888789,71.07904256103211 27.440002945630113,70.86527939253574 27.456986756820697,70.58738642087701 27.397543417784618,70.25605123347486 27.1342943450436,70.11710381165176 26.998423855897272,69.88196147185954 27.066359100484988,69.48649325331644 27.100326722778846,69.20859549951274 27.159770061756717,68.86656617164408 27.19373768407968,68.55660083206021 27.244689117447706,68.24663429329667 27.26167292863829,67.97942079739005 27.312624362064525,67.82978085040668 27.389051512203878,67.68014062393195 27.38055960665224,67.50912288001564 27.372067701042397,67.44499113191705 27.431511040049372,67.24190692431148 27.490954379056348,67.00675614609645 27.558889623644063,66.72884979106311 27.63531677381252,66.44025370976306 27.720235829532612,66.09821256352734 27.788171074091224,65.84168074551417 27.907057752105175,65.58514810612542 28.07689586354536,65.60652585743082 28.263717786117923,65.69203680567443 28.492999236594187,65.58514810612542 28.730772592592984,65.41412589012907 28.815691648313077,65.15759188166703 28.968545948591782,64.86899014021765 29.11290834331885,64.56969834727352 29.274254549178295,64.29178353835596 29.427108849486103,64.02455685139284 29.57996314979391,63.75732927303761 29.732817450072616,63.447344165397226 29.88567175035132,63.15873626278335 30.089477484085364,62.78461336007604 30.301775123400148,62.421178010139556 30.514072762685828,62.02567296176858 30.683910874126013,61.74774932715809 30.870732796756784,61.437756443352555 31.0490628137195,61.15983076906559 31.176441397343297,60.96742012201139 31.346279508783482,60.70018234552117 31.541593336936785,60.39018540789402 31.668971920531476,60.08018727063609 31.787858598545427,59.812946534242656 31.949204804375768,59.502946163156594 32.17848625482293,59.246393224624626 32.42475151637336,59.07535747579823 32.62006534458487,58.80811338712374 32.76442773928284,58.56224803812074 32.87482251174515,58.4660396526524 32.97672537859762,58.25224282678391 33.078628245479194,58.017065659267246 33.138071584457066,57.84602728555183 33.33338541263947,57.760507961742405 33.494731618469814,57.749818039825186 33.59663448535139,57.68567847851955 33.71552116336534,57.5467092527615 33.868375463673146,57.375669874709274 34.05519738624571,57.140490133548155 34.25051121439901,56.8946196658726 34.318446458957624,56.71288883510715 34.275986931083025,56.413566568015085 34.292970742244506,56.11424318236095 34.437333136971574,55.900440079210966 34.62415505957324,55.68663640536397 34.793993171013426,55.46214193362539 34.91287984899827,55.12005390961713 35.057242243754445,54.86348693283071 35.32049131649546,54.58553844719427 35.55826467249426,54.35035051371233 35.67715135050821,54.12585229657998 35.8045299341029,53.8158299147035 35.940400423220126,53.5058063327524 36.16968187369639,53.29199626673653 36.45840666315053,53.25992470761412 36.61975286898087,53.02473288161127 36.72165573586244,52.72539683143259 36.78959098042105,52.44744092601468 36.84903431942803,52.158793387810874 36.916969564015744,51.806000539560046 37.01038052531658,51.47458766042837 37.069823864265345,51.27146295991406 37.10379148658831,51.07902855786233 37.16323482559528,50.76899438210239 37.231170070183,50.437577211792814 37.31608912587399,50.074085835200094 37.41799199275556,49.68921081476583 37.468943426181795,49.336407087866974 37.54537057635025,49.0049839892672 37.630289632070344,48.694941784400726 37.71520868779044,48.32075131795864 37.766160121245775,47.97863279010198 37.83409536580439,47.615130252852396 37.91901442152448,47.26231738882052 37.986949666112196,46.920194339320005 38.05488491067081,46.63152687940601 38.13131206081016,46.278709682002955 38.17377158868476,45.99003990978963 38.25869064440485,45.722752155852504 38.284166361088865,45.605145261492 38.32662588896346,45.34854780153546 38.39456113355118,45.00641657598317 38.46249637810979,44.642900547194586 38.54741543382988,44.31145802397805 38.60685877283686,43.980014128857874 38.6153506784176,43.91586353909224 38.64931830068235,43.68064427029458 38.70876163971843,43.35988960841496 38.78518878988689,42.99636610512971 38.8531240344455,42.66491676674923 38.91256737342337,42.39761791389901 38.97201071245945,42.21585418428731 39.01447024027584,42.06616609718185 39.0484378625988,41.94855383242975 39.09938929605414,41.82024934659421 39.0484378625988,41.649176379010896 39.06542167373118,41.381874135484395 39.09938929605414,41.12526314219576 39.17581644616439,40.89003567593318 39.218275974009885,40.729652916357736 39.43057361332467,40.75103730286355 39.719298402778804,40.8579591496964 39.9995312866522,40.95418868980778 40.22881273709936,41.01834165229957 40.30523988726782,40.804498244157 40.330715603980934,40.601346477429615 40.31373179281945,40.32334848774917 40.32222369837109,39.97050349554047 40.34769941511331,39.57488756435487 40.40714275414939,39.26480884648481 40.364683226216584,39.018883492237364 40.220320831547724,38.901266751490766 39.931596042064484,38.95472892776888 39.62588744147797,39.018883492237364 39.50700076346402,38.93334406154463 39.54946029133862,38.6125703825237 39.61739553589723,38.302487937922706 39.67683887493331,38.0030968519568 39.75326602504356,37.65024163484486 39.83818508076365,37.297384862729814 39.880644608609146,36.99799001838255 39.931596042064484,36.69859405450552 39.965563664387446,36.42058251418348 39.9995312866522,36.19603402683424 39.94857985319686,36.06772032278241 40.05048272010754,35.9714849097727 40.237304642709205,35.86455653745361 40.32222369837109,35.7255494399069 40.177861303673126,35.61862073910015 40.16087749254075,35.46892031808238 40.177861303673126,35.308526699242066 40.30523988726782,35.29783377988497 40.475077998708,35.32991253363434 40.64491611014819,35.308526699242066 40.763802788133034,35.34060544868407 40.92514899399248,35.28714085910178 41.111970916594146,35.255062088202976 41.1459385388589,35.03051033203519 41.1883980667335,34.60279095892474 41.2308575946372,34.217841569414304 41.26482521687285,33.93982141477318 41.26482521687285,33.69387970394018 41.28180902800523,33.52278937258234 41.30728474474745,33.330312312740716 41.1883980667335,33.22338041287003 40.993084238580195,33.201994015762466 40.80626231597853,33.169914409387275 40.62793229898671,33.073675513122 40.390158942958806,33.041595855327614 40.10992605908541,32.977436501168995 39.77874174178578,32.92397033344605 39.51549266904476,32.84911763861601 39.17581644616439,32.78495813019981 38.8531240344455,32.699412039008166 38.64931830068235,32.56039944584336 38.47948018924217,32.581786014387035 38.19075539978803,32.56039944584336 37.87655489364988,32.54970615947241 37.60481391535723,32.52831958242314 37.28212150358013,32.50693299961131 36.9933967141551,32.45346651768341 36.696180019149324,32.44277321699337 36.41594713527593,32.421386611356866 36.40745522969519,32.43207991487725 36.34801189065911,32.61386585641594 36.2800766461005,32.80634463872411 36.237617118255,33.00951618466934 36.212141401541885,33.23407360929559 36.18666568482877,33.42655090050539 36.13571425137343,33.629720872530015 36.050795195653336,33.790117854689015 35.948892328800866,33.961207614782325 35.88944898979389,34.14299008429953 35.838497556367656,34.29269298454892 35.75357850064756,34.48516773071606 35.67715135050821,34.6455629990669 35.59223229478812,34.8380368968792 35.50731323903892,35.01981737557071 35.40541037218645,35.10536098740704 35.3289832220471,35.394070002606895 35.227080355165526,35.68277797671908 35.09970177159994,35.96079207895673 34.95533937687287,36.29226916998596 34.80248507656506,36.602359399774286 34.66661458744784,36.901755723534734 34.53923600385315,37.16907292362157 34.403365514677716,37.457774497357605 34.259003120008856,37.757167622410634 34.106148819671944,38.04586707564158 33.98726214162889,38.31318045598891 33.9023430859088,38.49495304488664 33.84289974696003,38.591185424884316 33.77496450240142,38.666032751592866 33.69004544662312,38.8264196446471 33.67306163551984,39.09373041912477 33.528699240792776,39.37173267795151 33.39282875158824,39.60696460455074 33.30790969589725,39.82081121089141 33.30790969589725,39.93842660095106 33.50322352407966,40.002580377251434 33.80893212463707,40.002580377251434 34.13162453638506,40.045349532905675 34.42884123136173,40.08811866570613 34.76002554871957,40.13088777566736 35.0912098660192,40.17365686276753 35.37993465544423,40.22711818951939 35.66865944492747,40.259194968464726 35.838497556367656,40.23781045060605 35.91492470650701,40.03465724612761 35.96587613993324,39.83150352623488 35.948892328800866,39.69250331566582 36.050795195653336,39.71388797913096 36.14420615698327,39.85288815260719 36.13571425137343,40.14158004957426 36.05928710123408,40.50511651330453 35.99135185664636,40.8579591496964 35.92341661208775,41.20010810017993 35.86397327305167,41.552947674135794 35.77905421736068,41.91647773024306 35.7196108783246,42.226546179823345 35.66865944492747,42.49384560371982 35.59223229478812,42.78252797933965 35.63469182266272,43.10328495388967 35.481837522325804,43.381273292521655 35.35445893873111,43.648568861906824 35.278031788620865,43.91586353909224 35.21009654403315,44.215232518312405 35.20160463845241,44.461141914027394 35.295015599782346,44.66428388868371 35.35445893873111,44.920883541184594 35.269539883040125,45.26301513216458 35.20160463845241,45.64791142488684 35.116685582732316,46.02211438034283 35.057242243754445,46.38562414838816 35.01478271585074,46.738440874774824 35.00629081032821,47.059182004464674 34.997798904718366,47.37992184954055 35.00629081032821,47.71135167328612 34.98081509361509,48.06416255909426 34.97232318800525,48.38489837920497 34.94684747129213,48.72701517157839 34.929863660159754,49.02636616601376 34.87891222673352,49.34709813271911 34.82796079327818,49.68921081476583 34.74304173755809,50.02063108186121 34.777009359851945,50.319977241066226 34.75153364316793,50.66208576733334 34.69209030413185,50.99350200857589 34.54772790943389,51.33560765782022 34.3778897979937,51.57080444400344 34.13162453638506,51.79530982291908 33.87686736922478,51.998433194865356 33.66456972991,52.20155605170294 33.418304468359565,52.4153690286912 33.29941779031651,52.59710961033852 33.19751492346404,52.73608742393117 33.070136339898454,52.896446139937325 32.95974156743614,53.088876175359474 32.87482251174515,53.388210867102316 32.72196821143734,53.7089253668164 32.55213009999716,54.018948162520246 32.38229198855697,54.31827937837079 32.27189721612376,54.54277705612185 32.26340531054302,54.81003537589277 32.38229198855697,54.94900934976613 32.42475151637336,55.19488578972232 32.305864838388516,55.46214193362539 32.33983246071148,55.60111477605096 32.28888102725614,55.51559305538831 32.15301053810981,55.65456580508908 31.949204804375768,55.953890908524045 31.7623828817741,56.21045439257432 31.541593336936785,56.43494676704722 31.3717552254966,56.70219877341151 31.30381998087978,56.94806983174203 31.15945758621092,57.215320126088045 31.0490628137195,57.34359995064733 30.819781363301445,57.32221999417379 30.590499912854284,57.32221999417379 30.310267028951785,57.25808009043976 30.013050333946012,57.25808009043976 29.732817450072616,57.268770077957015 29.57996314979391,57.29015004874236 29.4695683773607,57.29015004874236 29.410125038353726,57.45049964754435 29.274254549178295,57.66429861331562 29.20631930459058,57.89947681657941 29.163859776745085,58.15603406899754 29.019497382018017,58.40190066482319 28.9940216653049,58.5194887699472 28.892118798423326,58.62638689758751 28.662837348034373,58.840182724859915 28.467523519822862,59.043288232249324 28.450539708690485,59.235703501006356 28.52696685885894,59.374669796583476 28.594902103417553,59.49225647377898 28.62886972571141,59.71673965093942 28.67132925358601,59.95191182842245 28.662837348034373,59.95191182842245 28.492999236594187,59.887774030314176 28.314669219544157,60.14432491470507 28.17030682481709,60.411564545560395 28.008960618986748,60.61466606873728 27.856106318649836,60.892593634460354 27.74571154624573,61.15983076906559 27.63531677381252,61.4056881455399 27.516430095769465,61.68361296686635" stroke="#4DD2FF" stroke-dasharray="none" stroke-linecap="round" stroke-linejoin="round" stroke-width="0.5"><title>2017-12-17 14.0km</title><desc>9223370523376934807</desc></polyline><polyline fill="none" opacity="1" points="100.73562828055583,32.400000000001455 100.70958834147314,32.744087292274344 100.56636867619818,33.022633442225924 100.44918895006413,33.25202391517087 100.60542858490953,33.49779894660605 100.67052843276178,33.75995843834244 100.68354840233224,34.071272108303674 100.69656837184448,34.39896985623636 100.68354840233224,34.6611274253446 100.67052843276178,35.00520838606462 100.63146852405043,35.33290364337881 100.54032873699907,35.57867451283528 100.68354840233224,35.775290854529885 100.67052843276178,36.4798301621704 100.72260831104359,36.77475239389605 100.83978803717764,37.02052037961403 100.89186791540124,37.34821026268037 100.94394779368304,37.65951484222023 100.95696776325349,38.019971791189164 100.96998773282394,38.39681201639905 101.03508758067619,38.67534535321465 101.10018742847024,38.970262315822765 101.17830724589294,39.24879435283947 101.20434718503384,39.56009411771083 101.2434070938034,39.87139309399208 101.347566850367,40.03523434370436 101.5819263025187,40.13353898873174 101.62098621123005,40.2646117264012 101.49078651558375,40.42845245190256 101.33454688073834,40.51037273272232 101.3996467285906,40.78890127904015 101.5038064851542,41.03466123682301 101.6340061808587,41.362340416126244 101.72514596779365,41.64086703153589 101.8162857547868,41.935776877428 101.95950542000355,42.230686015573156 102.11574505484896,42.509210662967234 102.24594475055346,42.771350930896006 102.10272508527851,43.00072320664913 101.8423256939277,42.95157204075076 101.64702615037095,42.80411842507601 101.41266669816105,42.62389709898707 101.21736715460429,42.65666463247908 100.98300770233618,42.705815916357096 100.74864825012628,42.73858342802123 100.68354840233224,42.93518831442634 100.69656837184448,43.18094398014364 100.59240861533908,43.34478081762063 100.33200922393007,43.44308281524718 100.04556989349658,43.54138473424973 99.75913056294667,43.57415202311677 99.61591089767171,43.44308281524718 99.66799077595351,43.2137113651188 99.75913056294667,42.902420855200035 99.85027034993982,42.62389709898707 99.91537019773386,42.27983746983227 99.98047004558612,41.903009151683364 99.94141013687477,41.54256359228748 99.90235022822162,41.23126884926751 99.81121044122847,40.95274130554026 99.5117511411081,40.95274130554026 99.26437171932776,40.87082131962234 99.18625190190505,40.723365207304596 99.1732319323346,40.52675678231026 99.1732319323346,40.31376396698033 99.08209214539966,40.16630718622764 98.9128325409838,40.16630718622764 98.7305529669975,40.13353898873174 98.6003532713512,40.18269128175598 98.62639321043389,40.461220570759906 98.63941318000434,40.7397492285163 98.652433149633,41.067429194125 98.66545311914524,41.31318859494786 98.69149305828614,41.657250930409646 98.6784730887739,41.984928449601284 98.6784730887739,42.27983746983227 98.6784730887739,42.59112955677847 98.69149305828614,42.88603712229087 98.69149305828614,43.16456028439279 98.69149305828614,43.49223378459283 98.70451302785659,43.721604714897694 98.70451302785659,43.918208028735535 98.70451302785659,44.131194597124704 98.6784730887739,44.393331405306526 98.66545311914524,44.63908415519836 98.63941318000434,44.770152087563474 98.61337324086344,45.015904083964415 98.58733330172254,45.245272170541284 98.58733330172254,45.441873046896944 98.58733330172254,45.70400705948123 98.58733330172254,45.98252383527142 98.6003532713512,46.31018982221576 98.5743133322103,46.637854935564974 98.58733330172254,46.94913598407584 98.58733330172254,47.22764993814053 98.6003532713512,47.50616326105228 98.61337324086344,47.833825185858586 98.61337324086344,48.11233713514957 98.61337324086344,48.390848453236686 98.6003532713512,48.603827270664624 98.6003532713512,48.849571601400385 98.54827339301119,49.09531544073252 98.6003532713512,49.34105878874834 98.62639321043389,49.60318448502949 98.66545311914524,49.881692424823996 98.70451302785659,50.176582496700576 98.74357293656794,50.5206200196335 98.83471272350289,50.88103924894676 98.9128325409838,51.24145742123801 99.03001226705965,51.51996164875163 99.12115205411101,51.78208269808965 99.2253118106164,52.09335071820533 99.32947156718001,52.3390880719453 99.43363132374361,52.51929515249503 99.47269123239676,52.68311954186356 99.61591089767171,52.92885571651277 99.68101074558217,53.17459139987477 99.70705068466486,53.30565023008967 99.77215053251712,53.48585589347931 99.94141013687477,53.60053208716272 100.00650998478523,53.74797275041783 100.13670968043152,53.9281777653232 100.25388940650737,54.092000276839826 100.34502919355873,54.32135142622428 100.47522888920503,54.468791224811866 100.67052843276178,54.68175951056037 100.83978803717764,54.91110955943441 101.02206761110574,55.15684127978602 101.17830724589294,55.40257250884315 101.2694470329443,55.550011010534945 101.347566850367,55.730213383445516 101.5038064851542,55.97594346625556 101.6600461199414,56.18890914067015 101.85534566349816,56.48378408069402 102.01158529834356,56.76227643003949 102.15480496356031,56.975240742074675 102.29802462883526,57.23735015801503 102.44124429405201,57.48307722788013 102.62352386809653,57.77794906328927 102.77976350288372,58.056438480562065 102.97506304644048,58.33492726684199 103.14432265079813,58.59703378348058 103.31358225521399,58.875521345005836 103.50888179871254,59.186771402470185 103.69116137269884,59.48163915093755 103.87344094668515,59.760124708402145 104.0427005510428,60.03860963488114 104.1729002467473,60.30071251880872 104.3291398815345,60.53005208382092 104.459339577239,60.726628513228206 104.6155792120262,60.988729930177215 104.78483881644206,61.26721207329683 104.90201854257612,61.447406065039104 105.08429811656242,61.693124718934996 105.26657769049052,61.95522407514363 105.42281732533593,62.21732287244231 105.55301702104043,62.46303998740041 105.72227662539808,62.7578998770623 105.89153622981394,63.069140104395046 106.08683577331249,63.3967605450016 106.21703546901699,63.59333239024272 106.4253549821442,63.93733236310072 106.6076345560723,64.1994269343486 106.7638741909177,64.44514008746773 106.90709385619266,64.70723357605311 107.08937343012076,64.98570729549829 107.27165300404886,65.28056113429193 107.44091260846471,65.59179497471632 107.58413227373967,65.87026669039187 107.71433196938597,66.16511840763269 107.87057160423137,66.47635000866285 107.98775133030722,66.77120027226192 108.07889111730037,67.11519135264825 108.11795102601172,67.29537677255576 108.06587114778813,67.45918147052726 107.97473136079498,67.59022507179179 108.00077129993588,67.54108373767667 108.13097099564038,67.50832283739874 108.24815072177444,67.67212725162972 108.33929050870938,67.91783346379088 108.43043029564433,68.17991954883473 108.53459005226614,68.49114604911301 108.66478974785423,68.81875204033713 108.76894950447604,69.1463571585482 108.87310926103964,69.4412010185406 108.93820910883369,69.67052353188046 109.0684088045382,69.94898600869055 109.1725685611018,70.22744785482791 109.2767283176654,70.48952901618759 109.3808880741708,70.75160961887013 109.41994798288215,70.94816970423562 109.48504783079261,71.22662928722275 109.58920758735621,71.50508823956625 109.69336734386161,71.79992644279264 109.78450713079656,72.07838409661781 109.87564691784792,72.3568411197557 109.97980667435331,72.65167728032975 110.07094646140467,72.89737354079989 110.18812618748052,73.19220840512571 110.29228594398592,73.45428324660315 110.39644570060773,73.7327371534775 110.51362542674178,74.04394959730416 110.61778518324718,74.28964307538263 110.73496490938123,74.56809509039886 110.78704478760483,74.74826958758058 110.90422451373888,74.97758220213291 110.99536430073204,75.10861778986146 111.03442420944339,75.25603265908285 110.99536430073204,75.4689649359716 110.86516460502753,75.59999999999854 110.70892497024033,75.41982675100007 110.55268533539493,75.206894389019 110.37040576140862,74.92844382075418 110.14906627882738,74.66637212161004 109.87564691784792,74.35516125331924 109.60222755686846,74.10946790614253 109.36786810465856,73.8801536724277 109.13350865239045,73.63445937597862 108.912169169751,73.38876458860614 108.70384965662379,73.17582870900515 108.43043029564433,72.91375327400601 108.18305087386398,72.68443681012286 107.93567145208362,72.42236032763321 107.68829203030327,72.19304294722679 107.45393257803516,71.9473452792663 107.1544732779148,71.70164712026599 106.9201138257049,71.52146815825108 106.64669446478365,71.39042874730512 106.30817525601014,71.25938919671898 105.96965604717843,71.19386936902447 105.65717677760404,71.16110944208776 105.33167753834277,71.07920958656905 105.05825817736331,71.013689662861 104.73275893816026,70.94816970423562 104.42027966852766,70.88264971070748 104.1208203684655,70.86626970690122 103.78230115963379,70.76798963800684 103.46982189000119,70.6860895205682 103.32660222472623,70.65332945836417 103.14432265079813,70.60418934860354 102.94902310724137,70.57142926453525 102.74070359417237,70.53866917179403 102.55842402018607,70.52228912207647 102.37614444625797,70.50590907019796 102.20688484184211,70.45676890157483 101.98554535920266,70.39124864613404 101.7642058764468,70.34210843165783 101.6079662417178,70.2765881151281 101.3736067894497,70.22744785482791 101.12622736766934,70.1127871710487 100.78770815889584,69.98174625862157 100.43616898049368,69.85070520651061 100.20180952828377,69.785184628141 99.85027034993982,69.68690369501564 99.55081104981946,69.58862268336816 99.2253118106164,69.4903415931185 98.87377263221424,69.3920604242885 98.5222334539285,69.32653960143216 98.22277415386634,69.19549785097479 97.89727491466329,69.12997692336648 97.54573573626112,68.99893496340519 97.24627643614076,68.88427313378634 97.06399686221266,68.80237176149967 96.75151759263827,68.70409004273097 96.46507826203015,68.60580824535282 96.15259899239754,68.45838540197292 95.82709975319449,68.27820168667677 95.52764045313234,68.0816373323978 95.22818115301197,67.86869226062845 94.98080173117341,67.57384462928894 94.79852215724532,67.29537677255576 94.68134243111126,67.03328880178015 94.62926255288767,66.85310299779667 94.47302291804226,66.64015579799889 94.34282322233776,66.39444703213667 94.23866346583236,66.2470215369176 94.10846377012786,65.96855067472643 93.95222413528245,65.6573177881437 93.76994456135435,65.32970337205188 93.61370492650894,64.95294571413979 93.41840538295219,64.57618690160598 93.23612580896588,64.16666514351527 93.06686620466644,63.871808632953616 92.91062656982103,63.56057043784676 92.75438693491742,63.200188385388174 92.58512733061798,62.82342420092755 92.40284775657346,62.43027773378708 92.22056818270357,62.05351118960243 92.01224866951816,61.660362260117836 91.85600903473096,61.31635591545637 91.64768952160375,60.939585957057716 91.47842991730431,60.562814843899105 91.3221902824589,60.18604257586412 91.1399107084726,59.8092691530328 90.99669104325585,59.49802067178098 90.85347137792269,59.186771402470185 90.72327168227639,58.973810921983386 90.61911192571279,58.662560325319646 90.50193219957873,58.30216391295835 90.38475247344468,57.92538471572334 90.30663265602197,57.548604363524646 90.25455277774017,57.25373197798035 90.20247289951658,56.9097133007308 90.15039302117657,56.50016600106028 90.11133311252343,56.090617336769355 90.08529317338252,55.76297742284805 90.04623326467117,55.435336635651765 89.96811344724847,55.074930760900315 89.99415338638937,54.74728813957336 89.96811344724847,54.37049804536946 89.95509347773623,54.04285354633612 89.98113341681892,53.69882588233304 89.99415338638937,53.354797255422454 89.98113341681892,52.96162050269777 89.91603356896667,52.61758981234743 89.85093372117262,52.27355815900228 89.81187381246127,51.863995411426004 89.79885384289082,51.53634423071344 89.78583387326216,51.159544293084764 89.74677396460902,50.89742191600817 89.68167411675677,50.586150867224205 89.65563417767407,50.176582496700576 89.75979393417947,49.76701276136009 89.78583387326216,49.4393559903765 89.78583387326216,49.14446414968552 89.79885384289082,48.93148626909533 89.83791375160217,48.78403982790769 89.78583387326216,48.52191238456726 89.74677396460902,48.243401363470184 89.72073402546812,47.93212359298195 89.69469408638543,47.60446193024109 89.66865414718632,47.260416244200314 89.64261420804542,46.98190236437222 89.56449439062271,46.5887052242324 89.53845445154002,46.211890117840085 89.52543448191136,45.81869051417016 89.48637457320001,45.474639829059015 89.44731466448866,45.17973847518442 89.40825475583551,44.86845294505474 89.39523478626506,44.67185115141183 89.40825475583551,44.32779725569708 89.40825475583551,43.98374239675468 89.39523478626506,43.65607020704192 89.36919484706596,43.37754815889639 89.31711496884236,43.03349063971109 89.27805506013101,42.705815916357096 89.29107502970146,42.36175651651138 89.31711496884236,42.066847692854935 89.29107502970146,41.690018721659726 89.225975181791,41.3951082860076 89.21295521227876,41.00189327089174 89.18691527313786,40.69059715827461 89.225975181791,40.54314082972269 89.225975181791,40.36291618786345 89.1999352427083,40.0843866760697 89.18691527313786,39.83862481783581 89.1478553643683,39.52732575854316 89.08275551657425,39.24879435283947 89.0436956078629,38.85557247001998 89.03067563829245,38.527886606498214 89.03067563829245,38.16743114737619 89.00463569915155,37.790590218733996 88.97859576006886,37.49567042502167 88.9655757904984,37.13521193807537" stroke="#4DD2FF" stroke-dasharray="none" stroke-linecap="round" stroke-linejoin="round" stroke-width="0.5"><title>2017-11-19 11.8km</title><desc>9223370525802103807</desc></polyline><polyline fill="none" opacity="0.5" points="187.5999999998603,59.83818212756887 187.42415196751244,60.3941813147394 187.48276797845028,61.08917960344115 187.5999999998603,62.06217590958113 187.5999999998603,62.8266719445819 187.54138398938812,63.73016605316661 187.5999999998603,64.425160632818 187.5999999998603,65.53715035278583 187.5999999998603,66.0236452333047 187.36553595680743,66.92713472119067 187.07245590235107,67.90012193983421 185.95875169616193,68.10861900402233 185.255359566072,68.17811800987693 184.4933514248114,67.96962096903007 183.49687924026512,68.10861900402233 182.55902306665666,68.10861900402233 181.62116689281538,68.17811800987693 180.56607869756408,68.10861900402233 179.8040705563035,67.96962096903007 178.9834464045707,67.96962096903007 178.22143826354295,67.96962096903007 177.3421981006395,67.76112385862507 176.52157394844107,66.99663385830354 175.5837177745998,66.92713472119067 174.82170963380486,66.85763557621976 173.88385345996358,66.57963891886175 173.1218453189358,66.7186372630531 172.3012211669702,66.64913809474092 171.36336499336176,66.7186372630531 170.54274084139615,66.51013973512454 169.6635006784927,66.64913809474092 168.72564450465143,66.78813642339082 167.72917232010514,66.44064054382034 166.90854816813953,66.30164213792887 166.20515603781678,66.16264370107092 165.384531886084,66.16264370107092 164.62252374505624,65.88464673480485 163.7432835821528,65.88464673480485 162.9226594301872,65.74564820510568 162.21926729986444,65.95414598792559 160.98833107203245,65.39815174596151 159.99185888725333,65.25915310822893 159.05400271364488,65.18965377786662 157.99891451839358,65.25915310822893 157.58860244229436,65.32865243108245 156.47489823610522,65.60664964455646 155.0681139754597,64.98115574021358 154.07164179091342,64.14716289372882 153.19240162800997,64.35566120949807 152.19592944346368,64.00816397793824 151.3166892810259,63.869165030890144 150.61329715070315,64.00816397793824 149.9099050203804,63.7996655459865 149.20651289005764,63.52166752866469 148.3272727271542,63.59116704465123 147.56526458612643,63.938664508285 146.27571234712377,63.52166752866469 145.57232021703385,63.1046702710446 145.22062415187247,62.34017457580194 144.75169606506824,61.575677945744246 144.6930800541304,60.463681178574916 144.81031207600608,59.49068238417385 144.81031207600608,58.378681907604914 144.6930800541304,57.40567986789392 144.6930800541304,56.0851746769622 144.51723202154972,55.39017082436476 144.39999999990687,54.34766359644709 144.6344640434254,53.37465528177563 144.6344640434254,52.540646949375514 144.8689280867111,51.845639155537356 144.6930800541304,50.942127868242096 144.98616010835394,49.96911425224971 144.92754409764893,48.92659798276145 145.10339213022962,48.30108738626586 145.16200814116746,47.05006431584479 145.10339213022962,45.93804170633666 145.16200814116746,44.9650203002966 145.22062415187247,44.20050241862191 145.39647218445316,43.296980080136564 145.57232021703385,42.32395456265658 145.39647218445316,41.3509275301476 145.39647218445316,40.65590729378164 145.27924016257748,39.821881990123075 145.39647218445316,40.65590729378164 145.39647218445316,41.3509275301476 145.57232021703385,42.32395456265658 145.39647218445316,43.296980080136564 145.22062415187247,44.20050241862191 145.16200814116746,44.9650203002966 145.10339213022962,45.93804170633666 145.16200814116746,47.05006431584479 145.10339213022962,48.30108738626586 144.92754409764893,48.92659798276145 144.98616010835394,49.96911425224971 144.6930800541304,50.942127868242096 144.8689280867111,51.845639155537356 144.6344640434254,52.540646949375514 144.6344640434254,53.37465528177563 144.39999999990687,54.34766359644709 144.51723202154972,55.39017082436476 144.6930800541304,56.0851746769622 144.6930800541304,57.40567986789392 144.81031207600608,58.378681907604914 144.81031207600608,59.49068238417385 144.6930800541304,60.463681178574916 144.75169606506824,61.575677945744246 145.22062415187247,62.34017457580194 145.57232021703385,63.1046702710446 146.27571234712377,63.52166752866469 147.56526458612643,63.938664508285 148.3272727271542,63.59116704465123 149.20651289005764,63.52166752866469 149.9099050203804,63.7996655459865 150.61329715070315,64.00816397793824 151.3166892810259,63.869165030890144 152.19592944346368,64.00816397793824 153.19240162800997,64.35566120949807 154.07164179091342,64.14716289372882 155.0681139754597,64.98115574021358 156.47489823610522,65.60664964455646 157.58860244229436,65.32865243108245 157.99891451839358,65.25915310822893 159.05400271364488,65.18965377786662 159.99185888725333,65.25915310822893 160.98833107203245,65.39815174596151 162.21926729986444,65.95414598792559 162.9226594301872,65.74564820510568 163.7432835821528,65.88464673480485 164.62252374505624,65.88464673480485 165.384531886084,66.16264370107092 166.20515603781678,66.16264370107092 166.90854816813953,66.30164213792887 167.72917232010514,66.44064054382034 168.72564450465143,66.78813642339082 169.6635006784927,66.64913809474092 170.54274084139615,66.51013973512454 171.36336499336176,66.7186372630531 172.3012211669702,66.64913809474092 173.1218453189358,66.7186372630531 173.88385345996358,66.57963891886175 174.82170963380486,66.85763557621976 175.5837177745998,66.92713472119067 176.52157394844107,66.99663385830354 177.3421981006395,67.76112385862507 178.22143826354295,67.96962096903007 178.9834464045707,67.96962096903007 179.8040705563035,67.96962096903007 180.56607869756408,68.10861900402233 181.62116689281538,68.17811800987693 182.55902306665666,68.10861900402233 183.49687924026512,68.10861900402233 184.4933514248114,67.96962096903007 185.255359566072,68.17811800987693 185.95875169616193,68.10861900402233 187.07245590235107,67.90012193983421 187.36553595680743,66.92713472119067 187.5999999998603,66.0236452333047 187.5999999998603,65.53715035278583 187.5999999998603,64.425160632818 187.54138398938812,63.73016605316661 187.5999999998603,62.8266719445819 187.5999999998603,62.06217590958113 187.48276797845028,61.08917960344115 187.42415196751244,60.3941813147394 187.5999999998603,59.83818212756887 187.36553595680743,59.00418241909938 187.42415196751244,58.309181812102906 187.42415196751244,57.127679006778635 187.42415196751244,56.36317600152688 187.42415196751244,55.04266860813368 187.36553595680743,54.55616518104216 187.36553595680743,53.72215842513833 187.36553595680743,54.55616518104216" stroke="#4DD2FF" stroke-dasharray="1,0.5" stroke-linecap="round" stroke-linejoin="round" stroke-width="0.5"><title>2014-03-22 10.5km</title><desc>9223370641410674807</desc></polyline><polyline fill="none" opacity="1" points="55.600000000034925,99.18438448548113 55.48480000003474,99.20775148774555 55.350400000053924,99.19606798733003 55.22560000006342,99.19606798733003 55.0912000000244,99.19606798733003 54.93760000006296,99.17270098225708 54.81280000007246,99.21943498672772 54.66880000004312,99.231118484342 54.54400000005262,99.30121944012353 54.4096000000136,99.33626989887853 54.27520000003278,99.3479533823338 54.14079999999376,99.28953595102212 53.99680000008084,99.25448547521955 53.87200000003213,99.33626989887853 53.77600000007078,99.33626989887853 53.65120000002207,99.3245864140481 53.50720000005094,99.3245864140481 53.37280000007013,99.30121944012353 53.27680000005057,99.21943498672772 53.1712000000407,99.21943498672772 53.06560000003083,99.21943498672772 52.9216000000597,99.25448547521955 52.78720000007888,99.25448547521955 52.662400000030175,99.25448547521955 52.537600000039674,99.24280198047927 52.39360000001034,99.21943498672772 52.268800000078045,99.231118484342 52.13440000003902,99.24280198047927 51.99040000006789,99.231118484342 51.8752000000095,99.24280198047927 51.769600000057835,99.24280198047927 51.6256000000285,99.25448547521955 51.52000000001863,99.24280198047927 51.395200000086334,99.20775148774555 51.270400000037625,99.18438448548113 51.145600000047125,99.20775148774555 51.020800000056624,99.231118484342 50.92480000003707,99.231118484342 50.771200000017416,99.19606798733003 50.65600000001723,99.18438448548113 50.55040000000736,99.18438448548113 50.43520000006538,99.17270098225708 50.29120000003604,99.18438448548113 50.147200000006706,99.18438448548113 50.03200000006473,99.20775148774555 49.897600000025705,99.17270098225708 49.79200000001583,99.17270098225708 49.65760000003502,99.17270098225708 49.54240000003483,99.1610174776215 49.3984000000637,99.13765046405751 49.273600000014994,99.11428344484739 49.11040000000503,99.13765046405751 48.9664000000339,99.13765046405751 48.832000000053085,99.1610174776215 48.678400000033434,99.14933397155983 48.56320000003325,99.14933397155983 48.457600000023376,99.13765046405751 48.332800000032876,99.1610174776215 48.21760000003269,99.14933397155983 48.09279999998398,99.13765046405751 47.958400000061374,99.14933397155983 47.8528000000515,99.14933397155983 47.71840000001248,99.14933397155983 47.59360000002198,99.18438448548113 47.47840000008,99.17270098225708 47.36320000002161,99.18438448548113 47.22880000004079,99.17270098225708 47.09440000005998,99.17270098225708 46.97920000005979,99.17270098225708 46.84480000002077,99.17270098225708 46.739200000069104,99.17270098225708 46.62400000001071,99.17270098225708 46.508800000010524,99.17270098225708 46.364800000039395,99.14933397155983 46.240000000048894,99.11428344484739 46.115200000058394,99.13765046405751 45.98080000001937,99.12596695518005 45.83680000004824,99.11428344484739 45.71200000005774,99.12596695518005 45.58720000006724,99.12596695518005 45.46240000001853,99.1610174776215 45.33760000002803,99.14933397155983 45.20320000004722,99.13765046405751 45.0688000000664,99.12596695518005 44.944000000017695,99.12596695518005 44.819200000027195,99.10259993310319 44.66560000006575,99.11428344484739 44.56000000005588,99.09091641998384 44.41600000002654,99.10259993310319 44.272000000055414,99.10259993310319 44.14720000006491,99.12596695518005 44.00320000003558,99.09091641998384 43.85920000000624,99.05586587208381 43.71520000003511,99.05586587208381 43.58079999999609,99.03249883306853 43.456000000063796,99.02081531142176 43.32160000008298,99.03249883306853 43.225600000005215,99.03249883306853 43.0912000000244,99.05586587208381 42.976000000024214,99.09091641998384 42.86080000002403,99.11428344484739 42.7168000000529,99.11428344484739 42.5920000000624,99.11428344484739 42.4672000000719,99.09091641998384 42.352000000013504,99.09091641998384 42.24640000006184,99.11428344484739 42.09280000004219,99.10259993310319 41.977600000042,99.09091641998384 41.852799999993294,99.11428344484739 41.728000000061,99.09091641998384 41.60320000001229,99.06754938948143 41.459200000041164,99.06754938948143 41.34400000004098,99.05586587208381 41.22880000004079,99.04418235326739 41.07520000007935,99.00913178839255 40.95040000003064,99.05586587208381 40.7968000000692,99.03249883306853 40.67200000002049,99.02081531142176 40.55680000007851,99.03249883306853 40.412800000049174,99.03249883306853 40.27840000006836,99.02081531142176 40.15360000001965,99.02081531142176 40.00000000005821,99.03249883306853 39.894400000048336,99.04418235326739 39.750400000019,99.06754938948143 39.64480000000913,98.99744826393726 39.500800000038,98.99744826393726 39.38560000003781,98.99744826393726 39.251200000057,98.98576473805588 39.11680000007618,98.99744826393726 39.00160000001779,99.02081531142176 38.86720000003697,98.98576473805588 38.74240000004647,98.99744826393726 38.60800000006566,98.97408121078479 38.473600000026636,98.97408121078479 38.35840000002645,98.96239768209489 38.252800000074785,98.91566355314717 38.12800000002608,98.91566355314717 38.00320000003558,98.92734708749049 37.85920000000624,98.95071415197162 37.73440000007395,98.93903062042227 37.61920000001555,98.98576473805588 37.49440000002505,98.98576473805588 37.3408000000054,98.98576473805588 37.21600000007311,98.99744826393726 37.0912000000244,98.96239768209489 36.97600000008242,98.96239768209489 36.87040000007255,98.97408121078479 36.73600000003353,98.96239768209489 36.59200000000419,98.97408121078479 36.46720000001369,98.93903062042227 36.31360000005225,98.92734708749049 36.21760000003269,98.93903062042227 36.083200000051875,98.93903062042227 35.79520000005141,98.95071415197162 35.51680000004126,98.92734708749049 35.35360000003129,98.86892940153484 34.97920000005979,98.97408121078479 34.662400000030175,98.95071415197162 34.4320000000298,98.88061294156068 34.22080000001006,98.88061294156068 33.97120000002906,98.83387877304631 33.788800000038464,98.84556231728493 33.51040000002831,98.84556231728493 33.251200000057,98.97408121078479 33.001600000075996,98.90398001737049 32.704000000085216,99.04418235326739 29.027200000011362,98.83387877304631 28.787200000078883,98.75209392361285 28.566400000068825,98.79882813174481 28.240000000048894,98.83387877304631 27.971200000087265,98.75209392361285 27.664000000047963,98.70535969278717 27.43360000004759,98.67030900485406 24.304000000003725,98.70535969278717 24.02560000005178,98.6819925689415 23.708800000080373,98.65862543936237 23.47840000008,98.69367613157374 23.257600000069942,98.62357473445445 22.95040000003064,98.58852401681361 22.662400000088383,98.63525830415892 22.38400000007823,98.62357473445445 19.974400000064634,98.60020759075996 19.61920000007376,98.62357473445445 19.427200000034645,98.62357473445445 19.24480000004405,98.61189116333117 19.177600000053644,98.60020759075996 19.004800000053365,98.55347328641074 18.803200000023935,98.60020759075996 18.59200000000419,98.58852401681361 18.409600000013597,98.51842254334042 18.188800000061747,98.50673895946238 17.94880000007106,98.50673895946238 17.69920000003185,98.57684044144844 17.6032000000705,98.46000460983487 16.489600000029895,98.56515686463536 16.24960000003921,98.51842254334042 16.0576000000583,98.51842254334042 15.769600000057835,98.50673895946238 15.500800000037998,98.53010612577054 15.251200000056997,98.53010612577054 14.972800000046846,98.54178970679641 14.732800000056159,98.4716881993445 14.492800000007264,98.50673895946238 14.272000000055414,98.4716881993445 13.955200000084005,98.48337178747897 13.772800000035204,98.43663742654462 13.427200000034645,98.49505537415098 13.091200000082608,98.44832101892098 12.976000000082422,98.51842254334042 13.033600000024308,98.77546103049099 13.024000000033993,98.93903062042227 13.062400000053458,99.20775148774555 12.908800000033807,99.28953595102212 12.851200000091922,99.09091641998384 12.764800000062678,98.93903062042227 12.601600000052713,98.99744826393726 12.476800000062212,99.231118484342 12.400000000023283,99.35963686437026 12.428800000052433,99.6634069004649 12.476800000062212,99.9438091620541 12.534400000062305,100.21252723153884 12.592000000062399,100.50461124103458 12.640000000072177,100.78501105851319 12.707200000062585,100.99531038696296 12.726400000043213,101.19392599858838 12.745600000023842,101.41590766909212 12.774400000052992,101.70798803660728 12.822400000004563,101.9416516941128 12.832000000053085,102.19868106396461 12.822400000004563,102.47907595954166 12.880000000062864,102.7477869699942 12.851200000091922,103.02818027023022 12.908800000033807,103.28520674647007 12.851200000091922,103.56559848538018 12.889600000053179,103.82262353044644 12.79360000003362,104.07964789104153 12.8416000000434,104.32498868762923 12.851200000091922,104.54696315668116 12.812800000072457,104.79230276539602 12.832000000053085,105.01427615967259 12.832000000053085,105.22456627283827 12.812800000072457,105.45822141678218" stroke="#4DD2FF" stroke-dasharray="none" stroke-linecap="round" stroke-linejoin="round" stroke-width="0.5"><title>2013-12-10 10.9km</title><desc>9223370650177580807</desc></polyline><polyline fill="none" opacity="1" points="109.47037704847753,107.76009095064364 109.94389590155333,104.30409679980949 110.41741475462914,101.42409784393385 110.18065532762557,96.81609227391891 110.41741475462914,94.51208614767529 110.65417417977005,91.34407408395782 110.41741475462914,88.75206108158454 108.99685819726437,85.58404135890305 105.91898565553129,83.56802661530674 102.13083483558148,81.26400767685845 98.81620286870748,81.26400767685845 96.44860860612243,82.41601742431521 93.37073606532067,84.43203314347193 91.23990122880787,88.75206108158454 91.23990122880787,92.20807779114693 90.05610409844667,96.24009095155634 89.58258524537086,98.83209580765106 88.63554754015058,102.86409775703214 88.87230696715415,106.60809345706366 88.16202868893743,109.48808614583686 88.16202868893743,113.23207143717445 88.16202868893743,116.11205611890182 89.34582581929862,118.41604135814123 91.71342008188367,121.87201503920369 94.55453319568187,123.0240051522851 98.342684016563,123.60000000009313 101.89407540857792,122.44801016617566 103.78815081901848,119.85603100107983 106.39250450860709,117.55204715509899 108.04982049111277,113.5200700617861 108.04982049111277,110.35208327439614 109.23361762333661,106.32009399682283 109.7071364754811,103.15209763473831 110.41741475462914,99.40809650393203 111.3644524589181,95.08808788773604 111.3644524589181,92.49607895803638 111.12769303377718,88.17605780856684 109.94389590155333,84.72003524936736 108.52333934418857,82.41601742431521 105.20870737731457,81.55201016599312 102.84111311472952,80.97600515326485 99.05296229477972,81.26400767685845 95.97508975397795,82.99202209012583 92.89721721317619,85.87204332626425 90.52962294965982,89.04006266547367 90.2928635245189,92.7840800897684 89.8193446714431,96.24009095155634 89.34582581929862,99.69609679933637 88.63554754015058,102.86409775703214 88.63554754015058,106.60809345706366 88.16202868893743,110.35208327439614 88.63554754015058,114.09606720716693 89.10906639229506,117.55204715509899 91.23990122880787,119.85603100107983 94.08101434446871,121.58401742414571 97.39564631134272,122.44801016617566 101.18379713129252,122.16001262003556 104.97194795124233,119.56803314271383 107.33954221289605,117.26404901780188 108.04982049111277,112.94407277810387 108.76009877026081,108.91208788729273 109.23361762333661,104.592096503824 109.7071364754811,101.13609775644727 110.41741475462914,97.96809450234286 111.83797131106257,93.93608426698484 111.3644524589181,90.48007006337866 111.3644524589181,87.02405084599741 109.94389590155333,84.14403100195341 107.57630163896829,81.84001261997037 104.49842909816653,80.39999999990687 102.13083483558148,80.68800259311683" stroke="#4DD2FF" stroke-dasharray="none" stroke-linecap="round" stroke-linejoin="round" stroke-width="0.5"><title>2013-11-30 10.3km</title><desc>9223370651086224807</desc></polyline><polyline fill="none" opacity="1" points="177.53637043293566,97.45997056690976 178.44118379987776,94.98353115888312 177.762573774904,89.48032283014618 175.72674369905144,86.45355257811025 174.8219303302467,83.42677830182947 173.01230359636247,82.6012937091291 170.2978634936735,83.15161680453457 168.2620334168896,83.15161680453457 165.32138997409493,82.6012937091291 162.1545431893319,82.6012937091291 162.38074653036892,83.7019397658296 160.34491645358503,85.07774658850394 156.27325630094856,88.93000126630068 157.17806966789067,92.23192865797319 156.49945964291692,95.80901126144454 156.27325630094856,100.76188558526337 156.49945964291692,104.06379581429064 153.55881619919091,107.36570125445724 154.46362956706434,109.8421271899715 155.82084961794317,112.31855043233372 155.82084961794317,116.17075901036151 156.49945964291692,118.37201812700368 157.40427300985903,119.47264688764699 159.44010308664292,122.22421646025032 162.83315321430564,122.22421646025032 166.67861002590507,123.60000000009313 167.58342339284718,121.6739028126467 171.20267686247826,119.74780399515294 174.8219303302467,115.89560147118755 175.72674369905144,114.51981327589601 177.53637043293566,112.04339242749847 176.85776040703058,106.8153840135783 176.17915038205683,105.71474913298152 176.4053537240252,101.86252286075614 177.762573774904,96.90965093066916 177.762573774904,95.80901126144454 176.17915038205683,92.78224942437373 178.44118379987776,90.30580492829904 176.85776040703058,89.20516206463799 175.2743370141834,86.72871367656626 173.23850693926215,83.7019397658296 171.4288802035153,83.15161680453457 168.4882367597893,80.4000000001397 163.9641699232161,82.6012937091291 160.79732313752174,85.90323028201237 157.85667969379574,88.93000126630068 156.72566298395395,90.85612616012804 156.49945964291692,95.25869122636504 158.0828830357641,99.38608824228868 156.27325630094856,102.96315960329957 155.36844293307513,105.43959032977 156.0470529589802,107.64085982413962 155.1422395920381,110.6676019039005 155.36844293307513,113.69433995871805 155.36844293307513,117.27138883504085 157.40427300985903,118.64717536675744 160.118713112548,120.57327511627227 163.5117632402107,121.94905965286307 166.4524066830054,122.77452997583896 169.61925346869975,122.22421646025032 172.3336935704574,120.02296106843278 174.8219303302467,117.27138883504085 176.4053537240252,113.41918211965822 176.63155706506222,110.3924436995294 176.85776040703058,107.36570125445724 176.85776040703058,104.06379581429064 176.17915038205683,100.76188558526337 176.85776040703058,97.45997056690976 177.08396374993026,94.70837105903774 177.98877711594105,91.40644725854509 177.53637043293566,88.37967956834473 176.17915038205683,85.62806908367202 174.3695236472413,83.7019397658296 172.3336935704574,82.87645527347922 169.16684678569436,82.05097048147582 166.4524066830054,82.05097048147582 163.28555989731103,83.7019397658296 161.47593316342682,84.25226259441115 159.44010308664292,86.45355257811025 157.85667969379574,88.37967956834473 157.63047635182738,91.40644725854509 156.72566298395395,95.25869122636504 157.17806966789067,98.28544977051206 156.49945964291692,102.13768209633417 156.49945964291692,104.06379581429064 156.0470529589802,108.46633533574641 154.68983290810138,112.31855043233372 155.1422395920381,116.17075901036151 156.49945964291692,118.09686085442081 160.34491645358503,119.19748974777758 163.5117632402107,121.3987459379714 166.67861002590507,121.3987459379714 170.07166015263647,119.74780399515294 172.3336935704574,118.09686085442081 174.14332030527294,115.07012865296565 175.72674369905144,111.21791821252555 175.50054035615176,107.64085982413962 176.17915038205683,104.33895478351042 176.17915038205683,100.76188558526337 176.85776040703058,97.45997056690976 177.08396374993026,93.6077303243801 178.21498045884073,89.48032283014618 177.08396374993026,87.55419677193277 175.04813367314637,85.62806908367202 172.3336935704574,83.97710119653493 168.2620334168896,82.87645527347922 164.64277994912118,83.15161680453457 161.9283398464322,84.80258529004641 159.21389974374324,87.27903577359393 158.0828830357641,90.0306442619767 157.63047635182738,92.78224942437373 156.49945964291692,96.90965093066916 156.72566298395395,100.21156674809754 156.72566298395395,102.41284129838459 156.27325630094856,105.9899079024326 156.27325630094856,110.11728546163067 155.5946462759748,113.41918211965822 156.72566298395395,116.17075901036151 158.0828830357641,119.19748974777758 161.02352648042142,121.6739028126467 163.73796658124775,122.77452997583896 167.13101670891047,122.77452997583896" stroke="#4DD2FF" stroke-dasharray="none" stroke-linecap="round" stroke-linejoin="round" stroke-width="0.5"><title>2013-11-16 10.4km</title><desc>9223370652294258807</desc></polyline><polyline fill="none" opacity="1" points="43.24335081502795,164.79457114171237 43.973089036531746,161.53979412838817 44.459581185132265,157.69323389837518 45.18931940756738,154.73433729959652 45.43256548140198,150.88776637450792 46.162303702905774,147.04118940443732 46.162303702905774,144.08227993012406 45.43256548140198,139.3480173314456 45.67581155523658,135.7973143735435 43.48659688886255,134.31785328662954 40.810890073888004,130.4712502779439 38.37842933367938,129.58357180282474 30.59455496352166,128.99178597261198 27.675602074712515,131.06303575029597 25.97287955507636,134.61374557600357 22.81068059336394,138.16445025079884 24.27015703730285,141.12336687929928 23.297172740101814,144.6740621116478 23.297172740101814,150.88776637450792 22.81068059336394,154.43844744330272 23.053926666267216,160.06034860108048 22.56743451859802,163.6110163643025 23.540418814867735,166.5699022328481 24.99989525973797,168.64112021238543 29.135078518651426,170.71233643963933 34.0,171.60000000009313 38.37842933367938,171.30411218269728 39.35141362901777,169.52878452418372 42.02712044399232,167.1616789775435 42.27036651875824,163.01923876185901 42.27036651875824,160.35623777890578 43.24335081502795,155.32611690624617 45.18931940756738,150.29598569567315 45.43256548140198,146.1535169382114 45.919057629071176,142.89871513913386 45.67581155523658,138.75623386260122 45.919057629071176,135.7973143735435 44.70282725803554,132.5424988034647 40.56764399912208,129.879464663798 36.91895288974047,128.99178597261198 33.270261778496206,128.99178597261198 29.378324592486024,130.4712502779439 26.7026177784428,132.24660626379773 25.486387407407165,136.38909855671227 23.783664888702333,141.12336687929928 23.783664888702333,144.08227993012406 23.540418814867735,146.74529861821793 22.81068059336394,150.88776637450792 23.053926666267216,154.73433729959652 22.81068059336394,157.69323389837518 23.053926666267216,162.72334990650415 24.02691096253693,165.09045974630862 26.459371704608202,167.1616789775435 31.081047111190856,171.00822432967834 34.972984296269715,171.00822432967834 38.62167540658265,169.82467255694792 40.810890073888004,168.64112021238543 43.48659688886255,165.38634831481613 44.216335110366344,162.72334990650415 43.973089036531746,158.58090218016878 44.459581185132265,153.8466676226817 45.43256548140198,150.88776637450792 46.162303702905774,147.33708015549928 46.162303702905774,143.7863887862768 46.405549777671695,139.64390901243314 45.919057629071176,135.7973143735435 43.72984296362847,132.5424988034647 41.054136148653924,130.4712502779439 36.91895288974047,128.4000000001397 33.270261778496206,128.99178597261198 29.864816741086543,130.4712502779439 26.7026177784428,131.95071368920617 24.02691096253693,134.90963782859035 23.297172740101814,140.23569226590917 23.540418814867735,143.7863887862768 23.053926666267216,147.33708015549928 24.51340311113745,150.88776637450792 22.81068059336394,156.50967568787746 22.080942370928824,160.35623777890578 22.81068059336394,164.2027938242536 23.053926666267216,166.27401380729862 26.7026177784428,168.64112021238543 29.621570666320622,170.12056055432186 34.486492147669196,170.71233643963933 37.89193718507886,170.12056055432186 41.054136148653924,168.64112021238543 43.24335081502795,165.68223684746772 43.973089036531746,162.13157208892517 44.94607333280146,158.58090218016878 45.43256548140198,155.0302271207329 45.67581155523658,151.77543712500483 46.162303702905774,148.81653337273747 46.405549777671695,145.26584414974786 46.89204192534089,139.3480173314456 46.405549777671695,135.7973143735435 44.70282725803554,133.13428377383389 41.54062829632312,130.4712502779439 38.864921481348574,129.2876789055299 34.0,128.69589300476946 31.081047111190856,129.58357180282474 28.40534029621631,130.76714303181507 25.97287955507636,133.13428377383389 24.99989525973797,134.31785328662954 24.27015703730285,135.7973143735435 25.486387407407165,139.3480173314456 25.243141333572567,140.82747537712567 24.756649184972048,144.9699531486258 23.297172740101814,149.1124239093624 22.56743451859802,152.3672174452804 22.080942370928824,157.39734439994209 21.10795807465911,159.46857014065608 21.837696296162903,160.94801602489315 23.297172740101814,163.90690511232242 25.97287955507636,165.68223684746772 28.40534029621631,168.93700835271738 31.56753925886005,169.82467255694792 32.78376962989569,170.41644851467572 37.64869111124426,171.60000000009313 40.56764399912208,170.71233643963933 42.513612592592835,168.04934382555075 43.973089036531746,166.27401380729862 44.459581185132265,163.31512758182362 43.973089036531746,159.46857014065608 44.459581185132265,153.55077765905298" stroke="#4DD2FF" stroke-dasharray="none" stroke-linecap="round" stroke-linejoin="round" stroke-width="0.5"><title>2013-11-03 10.7km</title><desc>9223370653417861807</desc></polyline><polyline fill="none" opacity="1" points="88.04364463873208,157.77608522307128 88.04364463873208,161.23207143694162 88.99068268761039,164.68805263843387 91.1215182961896,167.85603100177832 93.48911341652274,169.5840174248442 97.27726561017334,170.73600767669268 102.01245585177094,170.73600767669268 105.09032951015979,169.5840174248442 106.74764609336853,167.28003524802625 107.93144365400076,163.24806107999757 109.58876023907214,160.0800765901804 109.82551975175738,155.7600909504108 109.58876023907214,152.01609706040472 110.77255779877305,148.27209728653543 111.48283633589745,145.39209345774725 111.71959584765136,142.5120861462783 111.9563553603366,138.48007006268017 111.48283633589745,133.2960393568501 109.35200072731823,129.84001261997037 106.98440560605377,129.2640076763928 103.90653194859624,130.41601742454804 100.35513926763088,130.12801503995433 97.51402512192726,130.41601742454804 94.67291097715497,132.14403100241907 92.77883488032967,135.3120526385028 91.35827780794352,138.1920686531812 91.59503732062876,143.37608870584518 90.88475878350437,145.96809450211003 90.1744802473113,149.712097896263 89.46420171111822,153.4560954067856 88.51716366223991,155.7600909504108 88.28040415141732,159.2160800890997 88.28040415141732,162.96006266516633 89.70096122287214,167.28003524802625 92.77883488032967,169.5840174248442 97.27726561017334,171.31200259411708 100.59189877938479,171.60000000009313 104.3800509730354,170.16001262003556 107.69468414224684,167.28003524802625 108.16820316575468,162.6720642137807 110.29903877526522,158.06408426584676 110.53579828795046,154.60809345706366 110.53579828795046,151.44009747868404 110.77255779877305,147.1200961722061 111.00931731145829,142.80008703446947 112.19311487209052,139.0560727783013 112.42987438477576,135.3120526385028 110.29903877526522,132.7200352489017 108.87848170287907,130.41601742454804 105.80060804635286,128.9760051521007 102.01245585177094,128.4000000001397 98.22430365905166,129.2640076763928 94.90967048984021,129.84001261997037 89.70096122287214,133.8720433257986 88.99068268761039,135.0240508459974 88.99068268761039,136.46405946207233 90.1744802473113,139.63207535468973 89.93772073462605,143.66408948926255 88.51716366223991,147.69609680003487 88.51716366223991,150.57609784416854 87.57012561522424,154.32009399705566 87.57012561522424,157.48808614653535 87.80688512697816,160.65607408294454 87.57012561522424,163.5360594613012 89.22744219843298,166.7040393569041 91.35827780794352,169.00802208902314 94.19939195271581,169.87201503990218 97.9875441454351,169.5840174248442 102.01245585177094,168.72002436965704 106.51088658254594,166.99203731981106 108.40496267937124,164.4000543965958 110.29903877526522,160.65607408294454 109.82551975175738,156.62408870481886 110.29903877526522,152.59209650335833 110.53579828795046,149.13609775714576 110.77255779877305,145.39209345774725 111.00931731145829,141.93608426721767 112.19311487209052,139.34407408325933 111.9563553603366,135.3120526385028 109.35200072731823,132.7200352489017 106.74764609336853,130.70401977421716 102.72273438796401,129.55201016529463 99.6448607314378,129.2640076763928 95.8567085377872,130.41601742454804 92.77883488032967,131.56802661553957 91.59503732062876,135.6000543970149 90.64799927081913,139.34407408325933 90.41123975906521,142.5120861462783" stroke="#4DD2FF" stroke-dasharray="none" stroke-linecap="round" stroke-linejoin="round" stroke-width="0.5"><title>2013-11-02 10.5km</title><desc>9223370653505000807</desc></polyline><polyline fill="none" opacity="1" points="173.99064126145095,166.47004371811636 174.8784902896732,161.61007426702417 175.54437706060708,157.83009071601555 175.54437706060708,152.97010246641003 175.54437706060708,150.540104374988 176.65418834704906,147.0301024664659 176.65418834704906,144.33009724435396 176.87615060433745,142.4400916469749 176.2102638334036,139.20007833116688 175.54437706060708,134.88005326571874 173.32475448958576,131.1000244792085 172.21494320314378,130.29001747770235 168.88550934474915,128.94000515691005 166.2219622572884,128.94000515691005 162.6705661425367,130.56001984444447 159.78505679685622,132.45003549358808 157.5654342258349,135.15005507646129 156.01169842481613,138.12007284793071 156.45562293939292,142.98009340977296 156.67758519575,145.68010026379488 156.23366068210453,149.19010429433547 156.01169842481613,151.35010403278284 156.01169842481613,152.97010246641003 155.56777391023934,155.67009724397212 155.12384939659387,158.6400877290871 156.23366068210453,162.15007139416412 157.5654342258349,164.85005507571623 160.67290582694113,167.0100396713242 164.22430194169283,168.3600289823953 167.7756980592385,168.3600289823953 169.77335837297142,167.82003335561603 172.65886771772057,165.66004954348318 174.6565280323848,162.96006684168242 175.54437706060708,159.18008557590656 175.54437706060708,155.94009654247202 175.7663393188268,152.70010280935094 175.54437706060708,149.46010437584482 175.54437706060708,146.49010168295354 176.43222609069198,142.98009340977296 176.87615060433745,140.01008210144937 176.43222609069198,137.31006839242764 175.32241480425,134.34004954481497 173.99064126145095,132.72003759886138 170.4392451448366,130.56001984444447 167.7756980592385,128.4000000001397 165.3341132281348,129.48001018329524 162.0046793706715,130.8300221778918 159.78505679685622,132.45003549358808 158.67524551134557,135.69005860155448 158.2313209977001,138.12007284793071 157.7873964831233,141.63008875912055 156.45562293939292,144.33009724435396 156.01169842481613,146.76010209089145 156.23366068210453,150.81010429398157 157.7873964831233,154.32010026299395 154.90188713837415,155.13009854895063 155.12384939659387,156.21009580790997 154.45796262472868,157.56009164638817 154.90188713837415,163.23006525845267 160.22898131329566,166.20004569296725 165.77803774364293,167.55003549298272 167.1098112873733,167.55003549298272 169.10747160110623,167.55003549298272 171.77101868763566,168.3600289823953 173.99064126145095,164.0400603134185 174.6565280323848,162.96006684168242 174.8784902896732,160.5300796192605 175.54437706060708,159.18008557590656 173.54671674594283,158.91008666879497 174.8784902896732,158.10008975397795 176.2102638334036,155.94009654247202 175.9883015761152,150.81010429398157 176.2102638334036,149.46010437584482 175.7663393188268,146.2201012421865 176.2102638334036,142.1700907170307 175.7663393188268,136.7700652598869 175.32241480425,133.26004171161912 173.54671674594283,129.75001264712773 169.55139611661434,129.48001018329524 165.77803774364293,129.21000768686645 162.6705661425367,130.56001984444447 159.78505679685622,132.72003759886138 156.67758519575,133.26004171161912 156.45562293939292,137.58006991050206 156.23366068210453,140.55008445074782 156.01169842481613,144.0600965428166 154.90188713837415,147.57010311936028 155.34581165295094,151.62010385282338 155.12384939659387,155.13009854895063 154.90188713837415,159.18008557590656 154.90188713837415,161.61007426702417 158.45328325405717,165.66004954348318 164.00233968626708,168.63002674723975 166.44392451550812,169.98001507879235 169.32943385839462,171.60000000009313 173.32475448958576,167.82003335561603 175.1004525469616,162.69006839231588 175.54437706060708,159.7200832911767 175.54437706060708,158.6400877290871 175.1004525469616,153.24010209064 174.8784902896732,148.92010417976417 175.32241480425,146.2201012421865 175.54437706060708,142.98009340977296 177.09811286255717,138.93007700890303 175.7663393188268,135.96006031497382 174.43456577509642,134.34004954481497 172.88082997407764,130.8300221778918 170.21728288847953,130.02001507859677 166.0,129.75001264712773 162.0046793706715,130.56001984444447 159.78505679685622,130.8300221778918 156.89954745396972,132.72003759886138 154.90188713837415,135.69005860155448 154.67992488108575,138.39007426798344 155.34581165295094,139.7400808769744 154.23600036650896,142.71009254432283 154.67992488108575,145.95010076928884 154.90188713837415,147.57010311936028 154.45796262472868,150.27010442432947 154.90188713837415,153.78010124200955 154.67992488108575,157.02009340864606 154.90188713837415,161.34007565444335 157.5654342258349,166.20004569296725 161.7827171124518,168.63002674723975 163.11449065618217,168.3600289823953 166.0,169.98001507879235 167.99766031466424,169.1700221770443 171.1051319167018,171.33000259427354 173.32475448958576,168.63002674723975 174.8784902896732,162.42006990942173 173.99064126145095,158.37008875748143 175.1004525469616,151.35010403278284 174.8784902896732,147.0301024664659 174.8784902896732,145.68010026379488 176.43222609069198,142.98009340977296 177.76399963349104,140.82008557626978 177.09811286255717,136.7700652598869 175.32241480425,132.1800333559513 173.10279223136604,129.75001264712773 169.9953206302598,128.6700025945902 166.0,128.94000515691005 161.1168303405866,130.56001984444447 157.1215097112581,132.1800333559513 156.67758519575,133.53004371840507 155.56777391023934,134.61005142168142 155.78973616752774,137.04006684245542 156.01169842481613,138.6600756549742 156.23366068210453,142.1700907170307 156.23366068210453,143.5200950417202 156.23366068210453,147.84010339644738 156.01169842481613,149.19010429433547 155.12384939659387,151.62010385282338 155.78973616752774,155.13009854895063 154.90188713837415,156.21009580790997 155.12384939659387,161.07007700833492 156.23366068210453,162.15007139416412 156.23366068210453,163.50006364332512 158.45328325405717,165.66004954348318 162.6705661425367,168.63002674723975 167.1098112873733,170.52001018356532 170.4392451448366,169.710017477395 171.99298094585538,168.09003118495457 175.32241480425,163.77006199466996 174.8784902896732,159.18008557590656 174.43456577509642,152.97010246641003 176.2102638334036,152.1601033960469 176.65418834704906,147.3001028096769 176.87615060433745,146.49010168295354 175.9883015761152,142.71009254432283 176.87615060433745,138.93007700890303 175.54437706060708,134.34004954481497 173.54671674594283,132.1800333559513 172.21494320314378,128.94000515691005 166.2219622572884,129.21000768686645 162.0046793706715,130.02001507859677 159.34113228321075,132.1800333559513 157.3434719676152,134.34004954481497 156.23366068210453,136.50006364448927 156.89954745396972,138.39007426798344 157.1215097112581,140.01008210144937 156.89954745396972,143.5200950417202 156.01169842481613,144.6000979137607 155.56777391023934,147.0301024664659 156.23366068210453,148.65010403259657 156.23366068210453,150.540104374988 154.90188713837415,152.43010311899707 155.56777391023934,153.78010124200955 154.90188713837415,157.83009071601555" stroke="#4DD2FF" stroke-dasharray="none" stroke-linecap="round" stroke-linejoin="round" stroke-width="0.5"><title>2013-10-26 11.1km</title><desc>9223370654110301807</desc></polyline><polyline fill="none" opacity="1" points="27.574782977811992,217.89475188939832 30.144869786687195,219.0315841003321 32.24766808561981,219.31579206697643 35.51868766080588,218.7473760987632 37.855130213312805,216.47371085267514 40.19157276768237,213.6316262029577 42.5280153201893,209.6527019208297 43.462592341937125,206.52639954793267 44.163525108247995,202.26325324806385 44.63081361912191,199.13694104878232 43.92988085281104,197.14746748516336 44.39716936275363,193.1685153071303 44.163525108247995,191.17903669271618 43.462592341937125,189.75797950988635 43.22894808650017,187.76849800907075 42.5280153201893,183.78952995873988 41.126149787567556,180.3789805562701 36.9205531924963,178.67370399925858 33.649533617310226,178.10527820512652 29.67758127581328,180.66319319489412 27.574782977811992,181.51583090610802 25.00469616893679,184.3579543782398 23.135542125441134,187.76849800907075 24.537407658062875,190.32640248560347 25.238340423442423,193.1685153071303 25.238340423442423,196.86325683817267 24.30376340262592,199.9895720607601 23.836474891752005,203.68430287321098 23.602830636315048,206.81060902611353 24.537407658062875,208.23165590292774 23.836474891752005,212.77900013769977 25.939273189753294,215.62108581862412 28.275715744122863,217.89475188939832 31.079446808435023,218.46316806343384 34.350466382689774,217.89475188939832 38.32241872418672,216.18950254260562 41.59343829937279,213.91583482245915 42.5280153201893,209.93691102182493 42.29437106475234,206.52639954793267 42.76165957655758,202.26325324806385 42.76165957655758,198.85273064253852 42.76165957655758,195.1579922370147 44.163525108247995,191.4632480267901 45.79903489537537,189.18955639493652 46.7336119171232,186.63165068160743 46.49996766075492,184.07374218595214 44.163525108247995,181.23161837016232 41.126149787567556,179.81055517448112 38.08877446874976,177.25263925665058 34.81775489449501,176.4000000001397 31.313091062940657,177.82106525660492 28.509359998628497,180.09476788225584 25.939273189753294,182.6526807071641 25.471984679810703,185.77901482582092 25.471984679810703,189.4737679695245 25.00469616893679,192.60009301709943 24.537407658062875,196.86325683817267 21.733676593750715,199.9895720607601 22.20096510462463,203.68430287321098 21.967320849187672,207.94744659680873 22.434609359130263,211.07374708005227 22.434609359130263,213.91583482245915 24.537407658062875,216.75791912851855 27.574782977811992,219.0315841003321 30.845802552998066,219.60000000009313 34.81775489449501,219.0315841003321 37.38784170243889,217.610543750925 41.126149787567556,215.90529419737868 42.060726810246706,213.6316262029577 43.69623659737408,210.22112008789554 44.163525108247995,206.81060902611353 44.163525108247995,203.1158831268549 44.63081361912191,199.70536175812595 45.33174638450146,195.4422030900605 45.565390639938414,192.0316705906298 46.03267915081233,189.18955639493652 45.79903489537537,185.49480280443095 44.864457874558866,181.80004340759479 42.76165957655758,179.24212965508923 39.72428425680846,178.10527820512652 36.21962042618543,177.53685227409005 32.7149565955624,177.53685227409005 29.443937021307647,178.95791684417054 25.939273189753294,181.23161837016232 24.537407658062875,184.07374218595214 25.238340423442423,188.33692146651447 23.836474891752005,191.74745932617225 23.602830636315048,194.58957042940892 23.602830636315048,198.28430972713977 21.967320849187672,201.69483315735124 22.434609359130263,206.52639954793267 22.20096510462463,209.3684927856084 23.602830636315048,212.21058258996345 24.537407658062875,215.90529419737868 25.471984679810703,217.610543750925 31.079446808435023,219.0315841003321 35.051399149000645,218.46316806343384 37.62148595787585,216.18950254260562 41.82708255387843,212.77900013769977 43.462592341937125,211.9263737637084 44.163525108247995,209.08428361662664 43.69623659737408,205.95798048726283 43.69623659737408,202.26325324806385 43.69623659737408,199.13694104878232 44.163525108247995,195.72641390911303 45.565390639938414,192.31588182109408 45.79903489537537,189.18955639493652 45.79903489537537,186.34743876405992 45.79903489537537,183.78952995873988 43.462592341937125,181.23161837016232 41.59343829937279,178.10527820512652 38.08877446874976,176.96842620545067 33.88317787181586,178.10527820512652 29.91122553125024,180.09476788225584 27.574782977811992,183.22110540163703 25.471984679810703,186.34743876405992 24.07011914718896,188.33692146651447 23.836474891752005,192.0316705906298 22.9018978709355,195.4422030900605 22.434609359130263,199.13694104878232 23.135542125441134,202.26325324806385 21.733676593750715,205.38956129038706 21.2663880828768,208.51586517505348 22.434609359130263,213.6316262029577 24.537407658062875,215.90529419737868 26.873850212432444,217.89475188939832 28.97664850950241,219.31579206697643 33.18224510550499,219.60000000009313 36.9205531924963,217.89475188939832 39.25699574500322,215.62108581862412 41.126149787567556,213.6316262029577 42.29437106475234,209.6527019208297 42.060726810246706,206.52639954793267 43.22894808650017,202.26325324806385 43.462592341937125,198.0000992184505" stroke="#4DD2FF" stroke-dasharray="none" stroke-linecap="round" stroke-linejoin="round" stroke-width="0.5"><title>2013-10-20 10.7km</title><desc>9223370654628121807</desc></polyline><polyline fill="none" opacity="1" points="91.62407032120973,181.56230783159845 90.28392157331109,184.82270667003468 90.06056344788522,187.53970208903775 88.94377282448113,191.3434901572764 88.27369845006615,195.14727178867906 88.05034032464027,198.13595284009352 87.3802659502253,200.58123438083567 86.71019157581031,203.84160563116893 86.71019157581031,207.37366914795712 87.3802659502253,210.36233394150622 89.83720532245934,213.0792984876316 92.51750282011926,214.9811717160046 95.42115844320506,217.42643493087962 99.21824656426907,217.6981306800153 102.56861843541265,217.42643493087962 106.14234843291342,216.06795569579117 109.26936217956245,213.8943872116506 110.83286905195564,211.17742365039885 111.05622717738152,208.18875993951224 111.50294342730194,205.20009225560352 111.94965967629105,201.1246299177874 112.61973405070603,198.13595284009352 113.06645030062646,195.41897022980265 113.28980842512101,192.70198433613405 112.84309217520058,188.89819856663235 112.61973405070603,186.1812047897838 110.38615280296654,182.92080792272463 108.82264592964202,179.6604063261766 105.91899030748755,177.75850321003236 102.79197656083852,176.67170070740394 99.88832093775272,176.67170070740394 96.31459094118327,177.48680263385177 92.96421907003969,179.6604063261766 90.50727969687432,182.92080792272463 89.61384719889611,185.90950523177162 89.61384719889611,188.89819856663235 88.94377282448113,192.15858676331118 88.72041469905525,196.23406535829417 87.60362407565117,199.49444291344844 88.05034032464027,202.4831181843765 86.93354970123619,206.2868809637148 89.39048907347023,208.73215363710187 90.28392157331109,211.9925130638294 92.07078657113016,215.52456377237104 94.30436781886965,217.42643493087962 97.8780978154391,218.7849133447744 101.67518593650311,219.60000000009313 104.57884155865759,217.96982639585622 107.03578093089163,215.25286776060238 109.04600405413657,212.8076021813322 110.60951092839241,209.81894063809887 110.38615280296654,207.64536611060612 111.05622717738152,204.65669770352542 111.27958530280739,201.6680253231898 111.50294342730194,198.67934896820225 112.1730178007856,196.23406535829417 112.61973405070603,191.88688792707399 112.61973405070603,188.62649933667853 111.27958530280739,183.19250784208998 109.492720304057,179.6604063261766 106.58906468190253,178.03020375361666 102.12190218642354,176.4000000001397 98.54817218892276,176.67170070740394 95.64451656676829,178.03020375361666 92.51750282011926,179.9321066394914 90.95399594679475,183.19250784208998 90.7306378223002,186.72460380778648 90.28392157331109,191.07179122348316 89.61384719889611,195.69066863902844 86.93354970123619,198.40765092079528 87.3802659502253,201.1246299177874 87.3802659502253,204.3850003783591 86.93354970123619,207.64536611060612 88.05034032464027,210.36233394150622 90.95399594679475,214.16608338686638 94.0810096943751,217.6981306800153 98.10145593993366,218.7849133447744" stroke="#4DD2FF" stroke-dasharray="none" stroke-linecap="round" stroke-linejoin="round" stroke-width="0.5"><title>2013-10-19 10.2km</title><desc>9223370654714312807</desc></polyline><polyline fill="none" opacity="1" points="157.00313527788967,185.6160657282453 155.81933728791773,189.36008224752732 155.1090584937483,193.10409288294613 155.1090584937483,195.98409706004895 155.81933728791773,199.72809728630818 155.1090584937483,203.47209162893705 155.1090584937483,206.64008224592544 154.3987797005102,210.38406572700478 154.87229889724404,213.26404901687056 157.23989487532526,215.856031000847 161.5015676394105,217.87201503897086 165.0529616093263,219.60000000009313 168.36759597994387,218.16001261910424 171.20871115475893,216.14402882475406 174.049826329574,213.55204715393484 174.76010512374341,210.38406572700478 175.70714351627976,206.06408426584676 175.23362432047725,202.03209450119175 175.47038391791284,197.71209789603017 175.70714351627976,194.83209580741823 176.41742231044918,190.8000870347023 177.36446070112288,187.05607277853414 175.94390311371535,183.0240508459974 174.76010512374341,180.14403100172058 171.20871115475893,177.55201016599312 167.18379798997194,176.39999999990687 163.39564442262053,177.55201016599312 160.31776964943856,179.2800243704114 158.66045246366411,182.44804715528153 157.4766544746235,185.32806421420537 157.23989487532526,187.92007659026422 156.76637568045408,191.6640894880984 155.81933728791773,195.12009617267177 155.1090584937483,198.28809789568186 154.87229889724404,201.45609540655278 154.87229889724404,205.48808614583686 155.34581809211522,209.23207143694162 157.00313527788967,212.97605084488168 158.1869332678616,214.99203731981106 161.028048443608,218.16001261910424 164.57944241166115,218.16001261910424 167.42055758740753,218.73600767576136 170.73519195895642,217.29601977346465 173.33954753633589,215.56803314224817 174.99686472211033,212.11205611890182 175.47038391791284,207.79207779001445 175.70714351627976,203.18409227347001 175.70714351627976,200.30409679887816 175.70714351627976,196.84809763496742 176.65418190788478,193.9680945011787 177.36446070112288,190.51208614674397 177.1277011046186,186.19206865271553 174.99686472211033,180.14403100172058 172.3925091456622,178.12801503925584 167.65731718577445,176.68800259334967 164.81620201002806,176.97600515233353 161.97508683428168,179.56802661530674 159.37073125783354,181.58404135890305 158.66045246366411,184.4640594618395 157.23989487532526,189.07208118587732 155.81933728791773,193.39209345704876 155.81933728791773,196.84809763496742 154.3987797005102,200.30409679887816 154.6355392979458,204.04809023649432 154.87229889724404,207.2160800884012 154.3987797005102,210.67206421284936 156.29285648372024,214.70403935597278 158.89721206203103,217.29601977346465 161.5015676394105,217.5840174241457 166.4735191958025,218.16001261910424 169.31463437061757,216.72002436965704 172.3925091456622,214.12804332445376 173.33954753633589,211.53605946153402 174.52334552630782,207.79207779001445 175.94390311371535,204.33608948858455 177.1277011046186,201.1680958061479 177.6012202994898,197.13609775644727 177.1277011046186,192.52809162973426 177.1277011046186,188.20807779114693 176.18066271208227,184.75206108111888 174.76010512374341,180.14403100172058 171.91898994892836,178.12801503925584 168.84111517574638,177.26400767685845 164.81620201002806,176.97600515233353 161.5015676394105,178.99202208942734 158.66045246366411,181.58404135890305 157.23989487532526,184.176057808334 157.9501736694947,187.63207535399124 156.76637568045408,192.24009095085785 157.23989487532526,196.27209728676826 156.76637568045408,200.01609705970623 155.81933728791773,203.47209162893705 156.05609688628465,207.5040789565537 155.34581809211522,210.0960672076326 156.52961608115584,212.68805263726972 157.9501736694947,215.856031000847 161.7383272368461,217.87201503897086 163.86916361842304,217.87201503897086 168.84111517574638,218.44801016524434 171.91898994892836,216.72002436965704 174.52334552630782,213.84004525723867 175.70714351627976,209.8080686519388 175.70714351627976,206.35208327393048 175.70714351627976,202.89609288214706" stroke="#4DD2FF" stroke-dasharray="none" stroke-linecap="round" stroke-linejoin="round" stroke-width="0.5"><title>2013-10-12 10.6km</title><desc>9223370655320152807</desc></polyline><polyline fill="none" opacity="1" points="36.9785865098238,265.92775699542835 39.49892894178629,263.41939021321014 41.33190525602549,262.0258519339841 42.93575953040272,256.4516903918702 43.623125648126006,252.54976929398254 43.85224768798798,249.48396951239556 43.623125648126006,247.5330038932152 43.39400360919535,244.18848756235093 44.31049176584929,242.5162275780458 44.99785788357258,237.77815103437752 44.53961380571127,234.71233161212876 43.1648815702647,231.9252195081208 42.47751545254141,229.13810403598472 42.47751545254141,227.18712120037526 41.102783216163516,227.74454503622837 38.58244078513235,226.35098519385792 34.00000000093132,224.95742450957187 31.0214134901762,225.79356102156453 28.0428269803524,227.18712120037526 26.438972705975175,231.08908522012644 25.522484549321234,234.43362055299804 25.75160658825189,236.6633080795873 24.376874351873994,241.1226766637992 24.376874351873994,243.63106770208105 23.68950823508203,248.0904228107538 24.376874351873994,251.1562244440429 24.60599639080465,255.33685646601953 24.14775231294334,258.9600647534244 23.002142117358744,262.5832673464902 25.06424046959728,263.41939021321014 28.50107105821371,265.64904971048236 31.708779607899487,267.60000000009313 34.68736611865461,267.60000000009313 38.811562824063,265.92775699542835 41.33190525602549,263.97680529020727 43.623125648126006,260.9110207038466 44.53961380571127,257.2878154825885 44.7687358437106,252.82847816240974 43.623125648126006,249.20526023977436 43.85224768798798,244.18848756235093 44.99785788357258,240.28654571180232 45.226979923434556,237.22072962438688 46.143468079157174,234.43362055299804 45.45610196236521,232.20393087039702 42.93575953040272,228.58068053680472 38.811562824063,227.18712120037526 35.374732236377895,226.35098519385792 32.62526776455343,226.35098519385792 30.334047372452915,227.46583313541487 26.438972705975175,229.41681573539972 25.06424046959728,232.20393087039702 24.14775231294334,235.54846458579414 24.376874351873994,239.45041445526294 24.376874351873994,242.79493765952066 24.60599639080465,245.86074633477256 24.376874351873994,249.48396951239556 22.773020077496767,251.99235145538114 22.08565395977348,254.77943930099718 21.856531920842826,257.5665237775538 22.773020077496767,260.35360488598235 23.918630273081362,262.5832673464902 25.522484549321234,265.3703423908446 28.50107105821371,266.7638786493335 31.708779607899487,266.7638786493335 36.52034243196249,267.60000000009313 39.49892894178629,264.8129276514519 41.33190525602549,262.3045596573502 43.623125648126006,258.6813566253986 43.85224768798798,254.77943930099718 43.85224768798798,251.43493348150514 44.99785788357258,247.81171336886473 45.685224001295865,244.4671974426601 45.45610196236521,241.40138691361062 45.45610196236521,238.8929934501648 45.91434604022652,235.54846458579414 45.226979923434556,232.7613534934353 44.31049176584929,230.2529506292194 42.93575953040272,227.46583313541487 39.95717302057892,225.79356102156453 36.52034243196249,225.79356102156453 32.62526776455343,225.79356102156453 28.959315137937665,226.35098519385792 26.897216784767807,228.58068053680472 24.60599639080465,232.20393087039702 25.06424046959728,234.71233161212876 25.06424046959728,238.05686168861575 23.68950823508203,242.5162275780458 23.68950823508203,246.41816565580666 24.376874351873994,247.81171336886473 23.460386195220053,251.43493348150514 22.773020077496767,253.38589579914697 23.231264155358076,256.73039878858253 23.918630273081362,259.79618893377483 24.376874351873994,262.8619750030339 25.980728627182543,265.3703423908446 27.813704941421747,266.485171465436 34.00000000093132,266.485171465436 38.12419670633972,266.485171465436 40.186295059509575,265.3703423908446 43.85224768798798,262.0258519339841 43.1648815702647,257.2878154825885 42.93575953040272,252.82847816240974 44.08136972691864,250.04138795821927 42.93575953040272,246.41816565580666 44.31049176584929,244.18848756235093 45.226979923434556,242.23751746257767 45.91434604022652,238.05686168861575 46.143468079157174,234.43362055299804 45.45610196236521,231.08908522012644 42.93575953040272,228.30196873680688 38.58244078513235,225.79356102156453 36.29122039210051,224.4000000001397 33.312633882276714,224.95742450957187" stroke="#4DD2FF" stroke-dasharray="none" stroke-linecap="round" stroke-linejoin="round" stroke-width="0.5"><title>2013-10-06 10.6km</title><desc>9223370655838244807</desc></polyline><polyline fill="none" opacity="1" points="92.48743946664035,232.4308308751788 91.12151937000453,236.03084936900996 90.2109059728682,238.80009051598608 90.43855932168663,241.01548102218658 89.5279459245503,244.3385627658572 89.98325262311846,247.6616396890022 89.7555992724374,251.261634249473 88.84498587623239,255.69238901790231 88.16202582698315,258.46160639775917 89.0726392250508,261.50774164893664 90.43855932168663,263.1692682597786 93.39805286563933,265.9384766018484 95.67458635941148,267.3230795171112 97.95111985504627,267.60000000009313 102.27653349470347,266.49231786769815 106.14664043672383,264.5538728488609 108.65082728024572,260.4000565716997 109.78909402806312,256.800076372223 110.01674737781286,253.47701270505786 110.47205407731235,250.4308667758014 111.61032082512975,247.3847167957574 110.92736077588052,243.78471614304 110.92736077588052,240.46163359680213 111.61032082512975,237.41547036124393 111.83797417394817,234.64622754161246 111.61032082512975,231.8769813736435 109.5614406792447,230.21543206600472 107.96786723192781,228.00003111502156 105.23602703865618,226.89232983626425 102.27653349470347,227.44618054293096 97.72346650529653,228.00003111502156 95.44693301152438,228.55388155416586 93.8533595642075,230.21543206600472 93.62570621352643,231.8769813736435 92.71509281732142,234.64622754161246 92.48743946664035,237.69239445892163 91.80447941832244,241.84625191055238 91.12151937000453,244.89240925433114 91.80447941832244,248.49240816570818 90.89386602025479,251.5385566733312 90.43855932168663,255.1385451410897 89.5279459245503,257.90776318963617 89.5279459245503,259.84621383203194 90.43855932168663,262.8923472412862 92.03213276807219,265.10771445115097 96.12989305891097,266.21539725130424 99.31703995261341,267.0461590006016 102.27653349470347,266.21539725130424 105.23602703865618,265.9384766018484 107.2849071836099,263.7231101959478 108.65082728024572,261.50774164893664 109.5614406792447,257.6308415350504 109.33378732949495,254.58470112946816 110.2444007275626,250.7077893000096 110.2444007275626,247.1077938694507 110.01674737781286,243.50779278133996 109.78909402806312,238.80009051598608 110.2444007275626,235.47700073826127 110.92736077588052,234.09237857535481 110.2444007275626,231.32313173846342 107.96786723192781,228.83080672309734 105.00837368983775,226.06155352527276 102.9594935439527,225.23077691416256 99.77234665118158,225.78462802176364 96.35754640772939,225.78462802176364 94.5363196125254,226.61540443263948 93.39805286563933,229.66158202895895 91.80447941832244,232.4308308751788 91.57682606950402,235.47700073826127 90.89386602025479,239.07701444602571 90.2109059728682,242.95394595898688 89.7555992724374,245.4462556091603 89.0726392250508,248.49240816570818 89.0726392250508,251.81547906342894 88.16202582698315,255.1385451410897 87.70671912748367,257.6308415350504 87.93437247723341,260.67697789077647 89.0726392250508,263.1692682597786 92.03213276807219,265.6615559179336 95.67458635941148,266.49231786769815 99.77234665118158,266.76923845126294 103.41480024252087,266.21539725130424 105.91898708697408,264.2769519982394 108.65082728024572,262.0615839860402 109.78909402806312,257.90776318963617 110.2444007275626,255.1385451410897 110.69970742613077,252.09240142116323 110.92736077588052,249.3231763425283 111.38266747444868,245.4462556091603 111.61032082512975,243.23086938657798 111.83797417394817,240.18470983416773 112.06562752369791,237.41547036124393 112.29328087251633,234.36930307536386 111.61032082512975,231.6000565723516 110.47205407731235,229.1077318591997 108.19552058167756,226.61540443263948 105.69133373815566,225.23077691416256 102.9594935439527,224.4000000001397 100.68296004924923,224.95385130867362 96.81285310722888,225.50770248449408 94.08101291395724,227.16925520659424 92.71509281732142,230.76928196917288 91.12151937000453,235.20007637282833 90.2109059728682,237.9693185237702 89.98325262311846,240.18470983416773 89.7555992724374,243.23086938657798 89.98325262311846,246.27702489006333 90.2109059728682,249.6000990010798 89.98325262311846,252.64624603441916 89.7555992724374,255.96931090718135 90.2109059728682,259.2923709584866 91.57682606950402,262.3385051051155 94.08101291395724,264.00003111432306 96.81285310722888,266.76923845126294 100.68296004924923,266.76923845126294 102.9594935439527,266.49231786769815 106.37429378647357,264.83079366665334 108.4231739314273,262.8923472412862 109.5614406792447,259.56929241190664 110.01674737781286,256.800076372223 110.92736077588052,253.75393486046232 110.92736077588052,250.4308667758014 111.61032082512975,247.6616396890022 111.61032082512975,244.61548602650873 111.38266747444868,241.56932831485756 112.52093422133476,237.9693185237702 111.61032082512975,235.20007637282833 110.69970742613077,231.8769813736435 110.01674737781286,229.3846569606103 107.51256053335965,227.72310584550723 104.32541364058852,226.06155352527276 101.36592009756714,226.61540443263948 97.26815980672836,226.89232983626425 94.30866626370698,228.83080672309734 92.94274616613984,230.76928196917288 90.89386602025479,234.09237857535481 90.43855932168663,236.30777363479137 89.5279459245503,239.90778603730723 89.7555992724374,242.95394595898688 88.61733252555132,246.00010183011182 88.61733252555132,249.3231763425283 87.93437247723341,252.64624603441916 87.47906577866524,255.96931090718135 88.16202582698315,259.2923709584866 89.30029257386923,262.3385051051155 92.71509281732142,264.2769519982394 96.35754640772939,265.9384766018484 98.8617332521826,265.38463520118967 102.27653349470347,264.5538728488609 104.78072033915669,261.7846628341358 107.96786723192781,259.84621383203194 109.5614406792447,257.35391984693706 110.2444007275626,255.1385451410897 110.47205407731235,251.81547906342894 110.92736077588052,248.49240816570818 111.15501412469894,246.00010183011182 111.61032082512975,242.12317547295243 111.15501412469894,239.35393834323622 111.38266747444868,235.20007637282833 111.61032082512975,231.8769813736435 110.92736077588052,229.9385070647113 109.10613397974521,228.55388155416586 105.91898708697408,226.61540443263948 102.73184019327164,226.06155352527276 99.54469330050051,226.89232983626425 95.67458635941148,228.83080672309734 94.30866626370698,231.32313173846342 93.8533595642075,234.64622754161246 92.94274616613984,238.523166552186 92.71509281732142,241.2924046854023 91.80447941832244,244.61548602650873" stroke="#4DD2FF" stroke-dasharray="none" stroke-linecap="round" stroke-linejoin="round" stroke-width="0.5"><title>2013-09-29 10.5km</title><desc>9223370656443428807</desc></polyline><polyline fill="none" opacity="1" points="169.37157451547682,225.76710125035606 166.0,226.04052140074782 163.30274038854986,227.40762165863998 160.83025240991265,229.3215606319718 159.70639423839748,232.3291757463012 158.80730770155787,235.88362481584772 158.35776443220675,239.43806830001995 157.90822116378695,242.7190880975686 157.23390626069158,245.72668539732695 156.55959135759622,248.46086128987372 155.88527645450085,251.7418679993134 155.88527645450085,255.29628656315617 155.88527645450085,258.57728335657157 157.23390626069158,261.8582753909286 159.93116587307304,263.22535400046036 163.30274038854986,265.13926266669296 166.44954326935112,265.13926266669296 168.92203124705702,264.0456007702742 171.84406249318272,263.22535400046036 173.8670072024688,261.0380278278608 175.21563700865954,258.3038671386894 176.11472354643047,255.29628656315617 176.11472354643047,251.7418679993134 176.11472354643047,248.73427869705483 176.7890384485945,246.00010313582607 176.7890384485945,242.17225179541856 177.912896621041,238.8912312053144 177.23858171794564,237.25071912514977 176.3394951801747,234.51652968092822 175.21563700865954,230.68865890661255 173.417463934049,227.95446153078228 170.94497595634311,225.49368106527254 169.59634615015239,225.76710125035606 165.5504567315802,224.94684059894644 162.85319711919874,226.5873616025783 160.38070914149284,228.22788141667843 159.25685096997768,232.055756355403 157.90822116378695,233.6962722032331 157.23390626069158,238.6178126083687 156.55959135759622,240.80516046099365 156.33481972292066,244.9064319843892 156.33481972292066,247.09377375710756 156.11004808917642,249.28111341316253 156.11004808917642,253.38236956926994 154.7614182829857,255.56970314332284 155.2109615514055,261.0380278278608 156.11004808917642,263.4987696236931 161.504567313008,265.4126780577935 163.75228365696967,265.95950874197297 167.1238581724465,265.95950874197297 171.16974759008735,264.86584724183194 174.09177883714437,262.1316911787726 176.11472354643047,258.0304508882109 176.7890384485945,253.65578638156876 175.21563700865954,250.92161676776595 173.64223556779325,249.55453072185628 175.4404086433351,245.17984982184134 177.01381008327007,239.98490526387468 177.4633533526212,238.07097531366162 176.7890384485945,235.06336783478037 177.912896621041,231.235497985268 175.21563700865954,228.50130126997828 172.51837739627808,225.49368106527254 170.72020432166755,224.94684059894644 165.32568509690464,225.49368106527254 163.75228365696967,225.76710125035606 160.83025240991265,228.22788141667843 158.35776443220675,230.41523931804113 157.68344952911139,232.87601442844607 157.23390626069158,236.43046263838187 156.11004808917642,241.07857879367657 156.55959135759622,244.35959621169604 156.78436299134046,246.54693851224147 156.11004808917642,250.92161676776595 156.55959135759622,254.20261990698054 155.2109615514055,258.3038671386894 155.88527645450085,261.5848595700227 156.11004808917642,263.4987696236931 159.93116587307304,264.86584724183194 163.5275120222941,267.3265848727897 165.77522836532444,266.77975451922975 168.69725961238146,265.95950874197297 171.61929085943848,264.86584724183194 174.54132210556418,261.5848595700227 174.76609374023974,259.3975318111479 175.4404086433351,256.66336913825944 176.3394951801747,253.92920316033997 177.4633533526212,250.92161676776595 176.56426681485027,247.3671913293656 175.4404086433351,243.53934230282903 175.66518027707934,240.5317420954816 176.11472354643047,237.25071912514977 177.23858171794564,236.43046263838187 178.13766825478524,232.87601442844607 176.7890384485945,230.14181969570927 177.912896621041,230.41523931804113 177.4633533526212,227.68104161159135 174.31655047088861,226.31394151831046 170.94497595634311,225.22026084875688 167.79817307554185,224.6734203158412 163.75228365696967,225.76710125035606 160.60548077523708,228.22788141667843 157.90822116378695,230.14181969570927 157.68344952911139,233.42285297834314 155.43573318608105,237.25071912514977 154.08710337989032,241.62541536078788 155.6605048198253,241.62541536078788 156.33481972292066,243.2659242679365 155.88527645450085,246.8203561506234 155.2109615514055,250.92161676776595 152.96324520744383,253.10895272321068 154.98618991766125,256.11653620772995 155.2109615514055,258.57728335657157 156.78436299134046,262.9519383441657 158.80730770155787,265.4126780577935 161.504567313008,266.23292403365485 165.32568509690464,266.23292403365485 168.92203124705702,267.60000000009313 172.51837739627808,266.23292403365485 173.64223556779325,264.0456007702742 173.8670072024688,260.49119595531374 175.21563700865954,259.3975318111479 175.4404086433351,255.29628656315617 177.4633533526212,248.73427869705483 177.4633533526212,244.08617827459238 175.4404086433351,241.35199709353037 176.11472354643047,238.07097531366162 176.56426681485027,235.61020585522056 177.01381008327007,232.055756355403 176.7890384485945,230.14181969570927 175.21563700865954,227.1342016728595 171.61929085943848,225.76710125035606 168.24771634396166,224.4000000001397 165.5504567315802,225.76710125035606 163.0779687538743,226.8607816544827 159.93116587307304,229.04814087809063 157.00913462601602,232.055756355403 155.2109615514055,235.61020585522056 156.33481972292066,239.16464976919815 156.55959135759622,243.53934230282903 156.55959135759622,246.8203561506234 155.88527645450085,250.64819962508045 154.31187501456589,253.10895272321068 155.88527645450085,256.66336913825944 155.2109615514055,259.3975318111479 156.33481972292066,262.4051069342531 157.23390626069158,264.86584724183194 161.27979567926377,264.31901629362255 163.75228365696967,265.95950874197297 167.1238581724465,265.13926266669296 170.27066105324775,264.592431783909 172.06883412785828,263.4987696236931 174.54132210556418,259.6709478965495 176.7890384485945,257.4836182866711 176.7890384485945,254.20261990698054 176.7890384485945,252.83553584385663 176.11472354643047,251.195033878088 177.23858171794564,247.91402637632564 177.4633533526212,243.53934230282903 179.03675479255617,240.25832369620912 177.68812498636544,239.98490526387468 177.4633533526212,236.43046263838187 178.8119831578806,233.6962722032331 177.4633533526212,231.235497985268 176.11472354643047,227.1342016728595 172.74314903095365,224.6734203158412" stroke="#4DD2FF" stroke-dasharray="none" stroke-linecap="round" stroke-linejoin="round" stroke-width="0.5"><title>2013-09-22 10.9km</title><desc>9223370657048162807</desc></polyline></svg>