<?xml version="1.0" encoding="utf-8" ?>
<svg baseProfile="full" height="300mm" version="1.1" viewBox="0,0,200,300" width="200mm" xmlns="http://www.w3.org/2000/svg" xmlns:ev="http://www.w3.org/2001/xml-events" xmlns:xlink="http://www.w3.org/1999/xlink"><defs /><rect fill="#222222" height="300" width="200" x="0" y="0" /><text fill="#FFFFFF" style="font-size:12px; font-family:Arial; font-weight:bold;" x="10" y="20">Over 10km Runs</text><text fill="#FFFFFF" style="font-size:4px; font-family:Arial" x="10" y="280">Runner</text><text fill="#FFFFFF" style="font-size:9px; font-family:Arial" x="10" y="290">keep</text><text fill="#FFFFFF" style="font-size:4px; font-family:Arial" x="65" y="280">SPECIAL TRACKS</text><rect fill="yellow" height="2.6" width="2.6" x="65" y="283" /><text fill="#FFFFFF" style="font-size:3px; font-family:Arial" x="70" y="285.5">Over 20.0 km</text><rect fill="red" height="2.6" width="2.6" x="65" y="287" /><text fill="#FFFFFF" style="font-size:3px; font-family:Arial" x="70" y="289.5">Over 40.0 km</text><text fill="#FFFFFF" style="font-size:4px; font-family:Arial" x="120" y="280">STATISTICS</text><text fill="#FFFFFF" style="font-size:3px; font-family:Arial" x="120" y="285">Number: 15</text><text fill="#FFFFFF" style="font-size:3px; font-family:Arial" x="120" y="290">Weekly: 1.2</text><text fill="#FFFFFF" style="font-size:3px; font-family:Arial" x="141" y="285">Total: 163.6 km</text><text fill="#FFFFFF" style="font-size:3px; font-family:Arial" x="141" y="290">Avg: 10.9 km</text><text fill="#FFFFFF" style="font-size:3px; font-family:Arial" x="167" y="285">Min: 10.2 km</text><text fill="#FFFFFF" style="font-size:3px; font-family:Arial" x="167" y="290">Max: 14.0 km</text><polyline fill="none" opacity="1" points="26.805487402307335,75.59999999999854 26.718962897197343,75.4148748065636 26.632438392116455,75.21885943836969 26.571871238556923,74.95750488206977 26.563218788069207,74.64170034359995 26.623785941599635,74.33678445775149 26.632438392116455,74.03186743310653 26.623785941599635,73.68338943904382 26.615133491141023,73.37846997415909 26.623785941599635,73.08443941152655 26.64109084266238,72.71417719672172 26.64974329312099,72.45281462229468 26.736267798230983,72.19145121113252 26.93527415994322,72.08254954287258 27.2035001256736,72.0716593680554 27.26406727923313,71.93008696325705 27.298677081271308,71.79940452552546 27.315981982275844,71.58159999778582 27.3419393337972,71.25489211668173 27.22945747722406,70.93907325544569 26.952579060947755,70.79749888656806 26.874707006354583,70.53613017593307 26.94392661040183,70.1222946727139 26.97853641246911,69.85003332913766 27.030451115511823,69.52331851828058 27.073713368037716,69.17482127882249 27.12562807110953,68.85899437049375 27.13428052162635,68.64118199766381 27.220805026678136,68.48871299088205 27.26406727923313,68.34713437248865 27.24676237819949,68.15110203393851 27.255414828745415,68.07486710848025 27.315981982275844,67.87883411610528 27.37654913586448,67.60656529018888 27.445768739911728,67.34518636293797 27.5236407945049,67.01846152699 27.601512849068968,66.71351716691424 27.688037354120752,66.4194625979726 27.80917166126892,66.21253467375936 27.96491577042616,66.23431658519985 28.198531934147468,66.3214441729142 28.432148097868776,66.1907527564399 28.648459360556444,65.98382425244927 28.734983865637332,65.73333115103742 28.89072797476547,65.42838199007383 29.055124534468632,65.12343168982625 29.21952109411359,64.84026253382763 29.36661275275401,64.56798357280059 29.52235686191125,64.30659491574625 29.67810097106849,63.97985791738756 29.84249753074255,63.68579350059008 30.04150389242568,63.293705963587854 30.266467605659273,62.92339933814219 30.491431318834657,62.52041668982565 30.655827878508717,62.23723850346141 30.84618178967503,61.94316780853842 31.01923079986591,61.65998761946685 31.149017557501793,61.45304762922024 31.32206656766357,61.19164899685711 31.5210729293467,60.886682867698255 31.62490233546123,60.59260730688402 31.771993994072545,60.26585544103 31.95369545475114,59.96088585269172 32.18731161847245,59.721266091066354 32.4382326832565,59.53610488429695 32.602629242872354,59.28559199479787 32.775678253063234,59.01329450362391 32.86220275811502,58.94794297059707 32.974684614746366,58.708320235062274 33.07851402083179,58.468696795949654 33.156386075366754,58.30531677505496 33.355392437108094,58.21818063015962 33.50248409571941,58.239964675100055 33.60631350183394,58.14193642707687 33.727447808982106,57.98944780722377 33.9091492696316,57.81517474993598 34.0908507303393,57.56465657817898 34.281204641476506,57.33592192368087 34.307161993026966,57.128970969613874 34.263899740501074,56.80220523683238 34.298509542510146,56.56257620129327 34.47155855267192,56.30116190555418 34.67921736490098,56.08331601944519 34.834961474029114,55.83279253154615 34.956095781119075,55.49512922242138 35.111839890276315,55.233711507455155 35.38871830658172,54.97229295510624 35.59637711875257,54.75444352182967 35.734816326905275,54.4821309124527 35.85595063402434,54.16624714721547 35.98573739166022,53.88303997334151 36.25396335741971,53.676080263234326 36.504884422174655,53.654295000051206 36.69523833331186,53.371086049570295 36.79041528890957,53.05519798374007 36.85098244249821,52.77198695413972 36.911549596028635,52.46698936152825 36.9894216505927,52.107526449683064 37.08459860619041,51.76984772650758 37.11920840825769,51.617347199935466 37.1711231113004,51.43216760596988 37.22303781431401,51.10537906216632 37.30090986887808,50.71323108215438 37.39608682450489,50.34286737063667 37.49991623056121,49.939822598185856 37.543178483174415,49.59124173013697 37.62105053770938,49.27533903228323 37.70757504279027,48.9376485890607 37.79409954790026,48.55638350584195 37.84601425091387,48.207796727947425 37.91523385499022,47.870101866814366 38.00175836007111,47.47793833868491 38.07963041466428,47.12934695367585 38.14019756822381,46.83522181418812 38.218069622816984,46.4866276834 38.26998432583059,46.192500227138225 38.347856380423764,45.93105270925298 38.37381373194512,45.800328636141785 38.41707598447101,45.51709242599463 38.48629558851826,45.17938642887748 38.56416764311143,44.81989141221129 38.642039697704604,44.471288671251386 38.702606851264136,44.19894174352521 38.71125930175185,44.0900027179232 38.75452155430685,43.81765451751562 38.81508870786638,43.512623453767446 38.88430831191363,43.131333020435704 38.95352791604819,42.8045112308173 39.02274752006633,42.54305285651935 39.06600977262133,42.35785266781022 39.10927202514722,42.216228710422 39.152534277702216,42.11818121129909 39.18714407974039,41.98745102919929 39.1438818272145,41.758672706426296 39.16118672818993,41.508105235938274 39.204448980715824,41.23574841689697 39.27366858482128,41.039650944265304 39.33423573838081,40.87623602363601 39.58515680313576,40.91981336782919 39.879340120387496,41.028756626401446 40.16487098718062,41.12680543473107 40.36387734883465,41.18127694402938 40.424444502423285,40.95249636066001 40.44174940342782,40.701926414258196 40.433096952940105,40.41867250468931 40.450401853973744,40.048262062140566 40.4763592054951,39.65606093696988 40.54557880954235,39.35101431389194 40.45905430446146,39.100439448826364 40.28600529427058,39.03507196616556 39.99182197698974,39.07865029374807 39.6976386597089,39.15491231104534 39.62841905566165,38.99149361527088 39.66302885769983,38.68644450731517 39.73224846177618,38.35960491162405 39.79281561530661,38.04365872445487 39.879340120387496,37.68413226446137 39.95721217498067,37.35728865318379 40.00047442750656,37.03044373243756 40.04373668003245,36.7253872916408 40.08699893258745,36.44211957515654 40.10430383362109,36.25690553642926 40.06104158103699,36.11527098777151 40.19082833867287,36.01721615620045 40.38983470041421,35.919161206773424 40.433096952940105,35.7775260717317 40.268700393266045,35.657680765398254 40.277352843782865,35.483360005564464 40.277352843782865,35.34172411387408 40.433096952940105,35.35261919119512 40.62345086413552,35.37440934147162 40.77054252277594,35.36351426708279 40.90898173087044,35.36351426708279 41.08203074103221,35.33082903509785 41.24642730070627,35.309038873179816 41.28103710274445,35.03666135810636 41.324299355299445,34.58996026460227 41.37621405831305,34.2195233561506 41.41082386038033,33.91445640379243 41.40217140986351,33.7074460363292 41.42812876138487,33.51133046676114 41.44543366241851,33.32610977373406 41.31564690481173,33.238946949117235 41.08203074103221,33.21715622842021 40.90032928038272,33.17357476956386 40.727280270220945,33.086411781958304 40.4763592054951,33.042830253260036 40.14756608614698,32.96656252196408 39.844730318378424,32.922980929179175 39.55054700106848,32.82492226039176 39.21310143126175,32.781340591966 38.936223014985444,32.694177185236185 38.72856420278549,32.56343190052576 38.52090539058554,32.57432734894974 38.20941717227106,32.56343190052576 37.92388630550704,32.55253645069752 37.61239808722166,32.530745546653634 37.29225741841947,32.498059179619304 37.01537900214316,32.45447733657784 36.68658588279504,32.43268640629685 36.470274620107375,32.41089547020965 36.45296971910284,32.43268640629685 36.37509766450967,32.6614908837073 36.323182961466955,32.868503905512625 36.27992070894106,33.05372563760466 36.25396335741971,33.28252837307082 36.22800600586925,33.456853836003575 36.158786401792895,33.67476014079148 36.08091434722883,33.83818948738917 35.9770849411143,34.023409017747326 35.92517023807159,34.18683766582399 35.864603084512055,34.37205640452157 35.76942612894345,34.546379539176996 35.7002065248671,34.72070230126701 35.62233447030303,34.88412955241074 35.5185050641885,35.10203204465506 35.3800658560358,35.254563442926155 35.34545605405583,35.526940230432956 35.2416266479413,35.766631051155855 35.09453498930088,36.08258605701121 34.94744333066046,36.431224643332826 34.80035167202004,36.7253872916408 34.661912463838235,37.03044373243756 34.523473255714634,37.31370940609486 34.38503404762014,37.607868872291874 34.2292899384629,37.91292201322358 34.0908507303393,38.196184622742294 33.96971642319113,38.45765692782152 33.88319191811024,38.64286597019236 33.82262476455071,38.69733913797245 33.74475270998664,38.78449613069097 33.68418555642711,38.969704431110586 33.65822820487665,39.26385792638757 33.4938316452608,39.54711584539473 33.36404488759581,39.797689338556665 33.28617283303174,39.99378979638277 33.338087536074454,40.11362873300823 33.55439879876212,40.14631204880425 33.865887017105706,40.14631204880425 34.186027685937006,40.20078421272774 34.49751590419328,40.2443619176629 34.834961474029114,40.28793959932955 35.16375459334813,40.33151725772768 35.45793791062897,40.37509489281365 35.75212122790981,40.40777810389409 35.90786533706705,40.342411668694695 35.95112758959294,40.14631204880425 36.00304229266476,39.92842302946519 35.99438984214794,39.83037278094707 36.14148150078836,39.87395068371552 36.184743753343355,40.048262062140566 36.167438852309715,40.33151725772768 36.09821924823336,40.6910320512834 36.028999644186115,41.028756626401446 35.95112758959294,41.431845418250305 35.881907985545695,41.791355363260664 35.80403593095252,42.11818121129909 35.75212122790981,42.434111619964824 35.68290162383346,42.73914671582315 35.63963937127846,43.04418067121878 35.6569442723121,43.371001500825514 35.4752428116044,43.63245722195279 35.37141340557719,43.87212423031451 35.284888900467195,44.18804784750682 35.23297419742448,44.50397024147969 35.21566929639084,44.75452851172304 35.33680360350991,44.90704186471703 35.37141340557719,45.21206771549623 35.30219380147173,45.571561004304385 35.21566929639084,45.97462735375302 35.137797241826775,46.323223671912274 35.077230088296346,46.68271206523059 35.03396783571225,47.06398590320168 35.02531538522453,47.37989716217999 35.01666293470771,47.71759405207558 35.02531538522453,48.05528954435431 34.999358033703174,48.42566363861988 34.990705583186354,48.75246291397343 34.956095781119075,49.09015412357985 34.93879088011454,49.40605753832642 34.88687617707183,49.72195973014459 34.834961474029114,50.07054003980011 34.748436968948226,50.408225794817554 34.80035167202004,50.72412410702964 34.757089419465046,51.061807157435396 34.687869815388694,51.41038174379355 34.523473255714634,51.73716906622576 34.34177179506514,51.98770512719784 34.08219827982248,52.194669119147875 33.83992966558435,52.401632586232154 33.60631350183394,52.61948830031906 33.372697338141734,52.83734343282413 33.27752038257313,53.000734400549845 33.156386075366754,53.15323234191601 33.035251768276794,53.32751535456191 32.922769911703654,53.53447594863246 32.827592956105946,53.839469551690854 32.671848846948706,54.16624714721547 32.498799836757826,54.4821309124527 32.351708178117406,54.74355103491689 32.239226321544265,55.004970319940185 32.230573871027445,55.233711507455155 32.3949704306433,55.407990077132126 32.377665529667865,55.6802995971957 32.265183673007414,55.95260820865224 32.31709837610833,56.05063908636657 32.230573871027445,55.974392858333886 32.083482212387025,56.148669846319535 31.88447585067479,56.46454593850649 31.702774390025297,56.68239080700732 31.460505775758065,56.922019490768434 31.31341411714675,57.205216118985845 31.23554206258268,57.46662751906115 31.088450403884053,57.7062539001854 30.975968547310913,57.81517474993598 30.725047482555965,57.79339059162885 30.474126417859225,57.78249851027795 30.1885955510661,57.72803808176832 29.87710733275162,57.72803808176832 29.60888136702124,57.73893017037335 29.470442158868536,57.77160642749368 29.38391765378765,57.77160642749368 29.29739314870676,57.97855575206631 29.15030149006634,58.185504551860504 29.11569168799906,58.436020817942335 29.055124534468632,58.69742827580194 28.908032875828212,58.926159114613256 28.89072797476547,59.01329450362391 28.734983865637332,59.17667310733668 28.52732505343738,59.372727000081795 28.328318691783352,59.579672264859255 28.38023339479696,59.77572518956731 28.449452998844208,59.884643277560826 28.510020152432844,60.037128356605535 28.54462995447102,60.2876389394587 28.56193485550466,60.51636532184057 28.535977503983304,60.44012326559459 28.354276043275604,60.451014992293494 28.189879483630648,60.72330768695247 28.042787824990228,60.973816163736046 27.86973881482845,61.19164899685711 27.72264715618803,61.474830810780986" stroke="#4DD2FF" stroke-dasharray="none" stroke-linecap="round" stroke-linejoin="round" stroke-width="0.5"><title>2017-12-17 14.0km</title><desc>9223370523376934807</desc></polyline><polyline fill="none" opacity="1" points="100.65871520567453,32.40000000000873 100.67215837311232,32.63684510333405 100.67215837311232,32.95827703636314 100.67215837311232,33.22895592730492 100.65871520567453,33.58422109528328 100.63182887074072,33.939485268478165 100.5242835310055,34.26091390135116 100.63182887074072,34.4131692853407 100.68560154055012,35.1575263102568 100.64527203823673,35.428200509311864 100.82003321521915,35.73270829304238 100.87380588502856,36.02029830664105 100.92757855489617,36.32480466928973 100.94102172239218,36.73081201611785 100.96790805732599,37.08606737879745 101.02168072713539,37.3736543249106 101.075453397003,37.69507425787742 101.16955556930043,37.98265982356679 101.18299873668002,38.2871614767937 101.25021457410185,38.625495789950946 101.35775991377886,38.87924593267962 101.53252109070309,38.9299959003838 101.64006643043831,39.099162312661065 101.5862937606289,39.23449528012134 101.38464624865446,39.33599491095811 101.38464624865446,39.57282706724072 101.49219158838969,39.82657531554287 101.62662326300051,40.16490552392497 101.73416860267753,40.46940194010676 101.80138443998294,40.7569812178117 101.94925928214798,41.061476213202695 102.1105772916344,41.34905414903187 102.25845213374123,41.61971514028846 102.21812263136962,41.90729181090137 101.92237294715596,41.92420806537848 101.66695276537212,41.73812914242444 101.47874842089368,41.60279884521151 101.27710090897745,41.55204994659289 101.0620102295652,41.61971514028846 100.79314688022714,41.63663143309532 100.67215837311232,41.78887796663912 100.68560154055012,42.04262178334466 100.63182887074072,42.27944888778438 100.34952235402307,42.38094608296524 100.08065900474321,42.49935937469127 99.79835248796735,42.51627555023879 99.56981864117552,42.49935937469127 99.61014814348891,42.228700259758625 99.69080714829033,41.92420806537848 99.78490932058776,41.63663143309532 99.86556832538918,41.2813888109813 99.93278416269459,40.90922880683502 99.91934099519858,40.553984148282325 99.86556832538918,40.215654977364466 99.82523882295936,39.894241429370595 99.5294891387457,39.82657531554287 99.26062578952406,39.79274224508845 99.13963728240924,39.62357675746898 99.12619411491323,39.45441104436759 99.11275094741723,39.21757866705593 99.05897827760782,39.04841241266695 98.88421710050898,39.01457913470222 98.69601275603054,38.98074584775895 98.53469474648591,39.01457913470222 98.53469474648591,39.23449528012134 98.54813791398192,39.505160781991435 98.57502424891572,39.86040837698965 98.57502424891572,40.14798903490009 98.60191058384953,40.46940194010676 98.61535375128733,40.807730434447876 98.60191058384953,41.1291416685126 98.60191058384953,41.433635770808905 98.61535375128733,41.75504541944247 98.60191058384953,42.02570554470003 98.61535375128733,42.364029889417 98.62879691878334,42.60085639398312 98.64224008622114,42.83768245652027 98.62879691878334,43.0406758726167 98.61535375128733,43.31133325565315 98.58846741635352,43.56507402790885 98.56158108141972,43.73423426083173 98.53469474648591,43.971058208087925 98.52125157910632,44.2078817133588 98.50780841161031,44.44470477668801 98.50780841161031,44.647695621984894 98.50780841161031,44.952181281056255 98.52125157910632,45.25666620960692 98.50780841161031,45.61189770276542 98.50780841161031,45.933296768314904 98.50780841161031,46.22086366325675 98.52125157910632,46.491514263194404 98.53469474648591,46.84674229955999 98.53469474648591,47.20196934152045 98.53469474648591,47.42187129774538 98.52125157910632,47.72635030037782 98.52125157910632,47.91242044234241 98.4809220766765,48.18306743451103 98.50780841161031,48.41988307912834 98.53469474648591,48.673613636550726 98.57502424891572,48.978089635813376 98.62879691878334,49.26564963099372 98.65568325365894,49.62086990187527 98.72289909108076,49.99300435720943 98.81700126326177,50.365137721411884 98.92454660293879,50.65269457355316 99.03209194267401,50.923335721570766 99.13963728240924,51.24472133506788 99.24718262208626,51.532276194222504 99.34128479426727,51.70142580693937 99.40850063157268,51.90440504462458 99.5160459713079,52.10738395768567 99.62359131104313,52.32727741380222 99.66392081341473,52.56408532499336 99.69080714829033,52.7163187488477 99.85212515789317,52.85163719461707 99.94622733013239,52.98695549600234 100.0672158372472,53.173017924811575 100.18820434442023,53.34216535072483 100.29574968415545,53.56205666731694 100.43018135882448,53.74811825301731 100.60494253580691,53.93417956592748 100.79314688022714,54.170984478711034 100.98135122470558,54.44161812379025 101.14266923430841,54.67842208975344 101.26365774148144,54.88139656603744 101.31743041134905,55.01671270324732 101.49219158838969,55.304259015698335 101.66695276537212,55.524146932701115 101.82827077491675,55.77786328662478 101.98958878446138,56.06540787454287 102.13746362651,56.30220881071 102.28533846867504,56.555923609179445 102.44665647821967,56.82655216850981 102.6214176552603,57.114094380507595 102.79617883224273,57.418550130110816 102.98438317672117,57.70609100088768 103.1591443537618,57.97671710760915 103.34734869824024,58.247342637347174 103.53555304271867,58.56870970437012 103.73720055469312,58.89007595764997 103.91196173167555,59.16069953984697 104.08672290877439,59.44823646362056 104.2345977507648,59.718858855674625 104.38247259292984,59.95565297536086 104.53034743497847,60.17553283377492 104.6916654445813,60.44615367498773 104.86642662150552,60.7167739392753 105.00085829623276,60.93665247908211 105.17561947315698,61.17344432679238 105.36382381763542,61.444063040282344 105.52514182723826,61.73159479119931 105.67301666928688,61.95147157298925 105.83433467888972,62.255915718953474 106.00909585593035,62.57727263630659 106.19730020040879,62.89862874004757 106.37206137739122,63.18615719585796 106.54682255437365,63.473685000266414 106.77535640122369,63.79503883446159 106.93667441082653,64.06565195850271 107.07110608549556,64.30243796874129 107.24586726247799,64.55613677526708 107.42062843951862,64.8605746737303 107.59538961650105,65.19883814897912 107.77015079354169,65.5201876154315 107.8911393006565,65.7569709122472 108.05245731025934,66.09523199862451 108.17344581743237,66.39966620560153 108.28099115710938,66.75483852429898 108.3347638270352,66.97470660448016 108.3347638270352,67.14383563774754 108.20033215230796,67.32987731408502 108.21377531980397,67.29605157504557 108.3347638270352,67.24531294958433 108.46919550158782,67.38061590575671 108.54985450638924,67.60048290199484 108.64395667862846,67.87108791300852 108.75150201836368,68.17551786081458 108.8724905254785,68.51377250209043 108.99347903265152,68.85202624196245 109.11446753976634,69.20719169874792 109.16824020969216,69.37631775748741 109.28922871686518,69.69765664826264 109.41021722398,70.00208221540379 109.51776256371522,70.2388571518386 109.61186473589623,70.52636898080527 109.69252374069765,70.78005534797558 109.74629641062347,71.0168288332352 109.84039858280448,71.30433890019776 109.94794392253971,71.59184831590392 110.05548926221672,71.91318159822549 110.13614826701814,72.16686519388168 110.24369360675337,72.48819702057517 110.33779577893438,72.74187946711027 110.4453411186696,73.0293856269709 110.56632962584263,73.29997906500648 110.66043179808185,73.58748396082956 110.79486347263446,73.90881219149742 110.88896564493189,74.16249179909937 111.00995415210491,74.4499947415461 111.09061315684812,74.65293760297936 111.18471532908734,74.90661572359386 111.30570383626036,75.07573418904212 111.34603333863197,75.19411698075419 111.33259017113596,75.41397044395853 111.27881750138476,75.60000000000582 111.09061315684812,75.49852936682873 110.9024088124279,75.24485242908122 110.71420446789125,74.97426313678443 110.49911378847901,74.70367326764972 110.23025043925736,74.38234704895876 109.94794392253971,74.11175591815845 109.70596690819366,73.89190019965463 109.46398989384761,73.63822005136171 109.23545604699757,73.41836351274105 108.98003586521372,73.11394613828452 108.73805885086767,72.91100081647164 108.49608183652163,72.67423086421331 108.22721848729998,72.38672390001011 107.98524147295393,72.14995296992129 107.72982129111188,71.91318159822549 107.43407160695642,71.6425852040702 107.17865142517257,71.43963752986747 106.85601540608332,71.25360187684419 106.56026572186965,71.15212776941189 106.22418653528439,71.06756595121988 105.90155051619513,71.03374120815715 105.55202816211386,70.94917931112286 105.2159489755868,70.8646173576999 104.93364245886914,70.81388015863195 104.61100643977989,70.72931811511808 104.30181358812843,70.72931811511808 103.92540489911335,70.62784358853241 103.56243937765248,70.52636898080527 103.44145087042125,70.49254409359128 103.23980335856322,70.4418067457591 103.06504218152259,70.42489429202396 102.84995150211034,70.3910693777143 102.66174715763191,70.35724445438245 102.47354281315347,70.34033198932593 102.29878163611284,70.28959458072495 102.0702477892628,70.2388571518386 101.84171394241275,70.20503218793601 101.68039593280992,70.13738223315158 101.49219158838969,70.08664474340912 101.20988507161383,69.9682571884332 100.86036271759076,69.83295699045993 100.5108403635677,69.69765664826264 100.20164751191624,69.59618129694718 99.90589782770257,69.5116184422368 99.58326180861332,69.42705553113774 99.24718262208626,69.32557996349351 98.89766026800498,69.22410431478056 98.52125157910632,69.13954121219285 98.15828605752904,68.98732748556358 97.88942270824919,68.93658953612612 97.51301401935052,68.83511357640964 97.21726433519507,68.68289948471647 96.94840098591521,68.59833602159051 96.69298080407316,68.51377250209043 96.3972311199177,68.41229620433296 96.07459510077024,68.27699434784881 95.73851591418497,68.09095405969128 95.42932306253351,67.87108791300852 95.12013021094026,67.68504702989594 94.8512668616604,67.39752876511193 94.64961934974417,67.09309695144475 94.50174450769555,66.83940321556292 94.42108550289413,66.58570897269237 94.3135401631589,66.41657919572026 94.15222215361428,66.16288410771813 94.05811998137506,65.99375376738317 93.92368830670603,65.72314475405437 93.7489271297236,65.41870892446605 93.57416595274117,65.0804460351792 93.42629111063434,64.70835581577558 93.2246435986599,64.319351238315 93.02299608668545,63.91343214722292 92.83479174220702,63.541338506678585 92.6869169001584,63.27072426477389 92.53904205805156,62.89862874004757 92.35083771357313,62.50961861606629 92.1760765365907,62.120607299759286 91.97442902467446,61.71468117684708 91.77278151270002,61.30875375570031 91.59802033560118,60.91973875879194 91.39637282368494,60.54763634172559 91.20816847926471,60.15861901201424 91.04685046972008,59.78651436348446 90.87208929262124,59.41440862402669 90.71077128307661,59.076129732391564 90.56289644102799,58.73784993910522 90.38813526398735,58.43339735425252 90.29403309174813,58.145858131334535 90.18648775207112,57.82448999361077 90.06549924489809,57.469292684065294 89.98484024015488,57.08026591871749 89.90418123529525,56.69123796095664 89.86385173298186,56.403694790948066 89.81007906311424,55.980836004557204 89.75630639324663,55.57489024409733 89.72942005831283,55.21968663849111 89.68909055588301,54.796823907032376 89.63531788607361,54.492361867960426 89.63531788607361,54.170984478711034 89.62187471863581,53.78194760292536 89.594988383702,53.46056841468089 89.62187471863581,53.10535889137827 89.63531788607361,52.66557429454406 89.62187471863581,52.32727741380222 89.594988383702,51.97206471838581 89.50088621146278,51.633765988910454 89.43367037415737,51.1939762923721 89.44711354159517,50.85567548866675 89.42022720666137,50.46662844948878 89.37989770428976,50.14524086540041 89.33956820185995,49.84076766650833 89.28579553205054,49.4686327646632 89.35301136935595,49.07958147324098 89.42022720666137,48.673613636550726 89.42022720666137,48.352221511508105 89.42022720666137,48.13232116744621 89.46055670909118,47.963166797329905 89.43367037415737,47.72635030037782 89.37989770428976,47.42187129774538 89.36645453679375,47.1173915645777 89.32612503448036,46.77907989308005 89.29923869948834,46.42385166732129 89.28579553205054,46.13628523238003 89.20513652730733,45.74722372429096 89.17825019231532,45.35816102343961 89.15136385738151,44.952181281056255 89.12447752250591,44.6138638369448 89.0841480200761,44.29246142960619 89.0438185177045,43.90339426830178 89.0169321828289,43.751150271709776 89.0303753502667,43.395913569431286 89.0438185177045,43.0406758726167 89.0169321828289,42.70235333201708 88.99004584783688,42.431694650120335 88.94971634546528,42.07645425389637 88.89594367559766,41.72121286319452 88.89594367559766,41.36597047788382 88.92283001058968,41.061476213202695 88.92283001058968,40.68931556404277 88.84217100573005,40.28332088372554 88.82872783829225,39.97882402096002 88.80184150341665,39.640493316415814 88.84217100573005,39.42057787466911 88.84217100573005,39.28524510572606 88.81528467085445,39.031495774848736 88.80184150341665,38.760829262580955 88.78839833592065,38.45632874612056 88.70773933117744,38.13491074150079 88.65396666125162,37.745824699202785 88.64052349381382,37.40748804037867" stroke="#4DD2FF" stroke-dasharray="none" stroke-linecap="round" stroke-linejoin="round" stroke-width="0.5"><title>2017-11-19 11.8km</title><desc>9223370525802103807</desc></polyline><polyline fill="none" opacity="0.5" points="180.3492242593784,68.52131262922194 179.55712270829827,68.52131262922194 178.64315937948413,68.30458150035702 177.79012693907134,67.5099000754999 176.81523272185586,67.43765626160894 176.0231311705429,67.36541243951069 175.04823695332743,67.07643707073294 174.25613540178165,67.22092477127444 173.40310296183452,67.14868092496181 172.42820874461904,67.22092477127444 171.5751763046719,67.0041932084132 170.6612129760906,67.14868092496181 169.6863187586423,67.29316860926338 168.65049365279265,66.93194933817722 167.79746121284552,66.78746157349087 167.06629054970108,66.6429737766739 166.21325810998678,66.6429737766739 165.421156558441,66.35399808682268 164.50719322962686,66.35399808682268 163.65416078967974,66.20951019338099 162.92299012676813,66.42624202126171 161.64344146684743,65.84829031978734 160.60761636076495,65.70380231417948 159.63272214354947,65.63155829941388 158.53596614929847,65.70380231417948 158.1094499293249,65.77604632114526 156.9517630462069,66.0650222679833 155.48942172061652,65.4148262066301 154.45359661476687,64.54789711232297 153.53963328595273,64.76462949422421 152.5038081803359,64.40340881765587 151.58984485198744,64.25892049045069 150.858674188843,64.40340881765587 150.1275035259314,64.18667631503195 149.39633286301978,63.89769953256473 148.48236953443848,63.969943740346935 147.6902679828927,64.33116465812782 146.349788434105,63.89769953256473 145.61861777142622,63.46423411805881 145.253032439854,62.66954677342437 144.76558533124626,61.874858456954826 144.70465444261208,60.71894644369604 144.82651621988043,59.707521744887345 144.82651621988043,58.55160587572027 144.70465444261208,57.54017780342838 144.70465444261208,56.167522901145276 144.5218617769424,55.44507178774802 144.39999999990687,54.36139361152891 144.6437235539779,53.34995901642833 144.6437235539779,52.483013824617956 144.88744710828178,51.76055861444911 144.70465444261208,50.82136564014945 145.0093088853173,49.809925534413196 144.94837799714878,48.726237959519494 145.13117066281848,48.07602454681182 145.19210155145265,46.77559576975182 145.13117066281848,45.61965689359931 145.19210155145265,44.608208690129686 145.253032439854,43.813498282805085 145.4358251055237,42.87429382093251 145.61861777142622,41.862841343681794 145.4358251055237,40.851387291564606 145.4358251055237,40.128919147420675 145.31396332825534,39.26195631414885 145.4358251055237,40.128919147420675 145.4358251055237,40.851387291564606 145.61861777142622,41.862841343681794 145.4358251055237,42.87429382093251 145.253032439854,43.813498282805085 145.19210155145265,44.608208690129686 145.13117066281848,45.61965689359931 145.19210155145265,46.77559576975182 145.13117066281848,48.07602454681182 144.94837799714878,48.726237959519494 145.0093088853173,49.809925534413196 144.70465444261208,50.82136564014945 144.88744710828178,51.76055861444911 144.6437235539779,52.483013824617956 144.6437235539779,53.34995901642833 144.39999999990687,54.36139361152891 144.5218617769424,55.44507178774802 144.70465444261208,56.167522901145276 144.70465444261208,57.54017780342838 144.82651621988043,58.55160587572027 144.82651621988043,59.707521744887345 144.70465444261208,60.71894644369604 144.76558533124626,61.874858456954826 145.253032439854,62.66954677342437 145.61861777142622,63.46423411805881 146.349788434105,63.89769953256473 147.6902679828927,64.33116465812782 148.48236953443848,63.969943740346935 149.39633286301978,63.89769953256473 150.1275035259314,64.18667631503195 150.858674188843,64.40340881765587 151.58984485198744,64.25892049045069 152.5038081803359,64.40340881765587 153.53963328595273,64.76462949422421 154.45359661476687,64.54789711232297 155.48942172061652,65.4148262066301 156.9517630462069,66.0650222679833 158.1094499293249,65.77604632114526 158.53596614929847,65.70380231417948 159.63272214354947,65.63155829941388 160.60761636076495,65.70380231417948 161.64344146684743,65.84829031978734 162.92299012676813,66.42624202126171 163.65416078967974,66.20951019338099 164.50719322962686,66.35399808682268 165.421156558441,66.35399808682268 166.21325810998678,66.6429737766739 167.06629054970108,66.6429737766739 167.79746121284552,66.78746157349087 168.65049365279265,66.93194933817722 169.6863187586423,67.29316860926338 170.6612129760906,67.14868092496181 171.5751763046719,67.0041932084132 172.42820874461904,67.22092477127444 173.40310296183452,67.14868092496181 174.25613540178165,67.22092477127444 175.04823695332743,67.07643707073294 176.0231311705429,67.36541243951069 176.81523272185586,67.43765626160894 177.79012693907134,67.5099000754999 178.64315937948413,68.30458150035702 179.55712270829827,68.52131262922194 180.3492242593784,68.52131262922194 181.20225669955835,68.52131262922194 181.9943582508713,68.66580000834074 183.09111424535513,68.73804368585115 184.0660084625706,68.66580000834074 185.0409026797861,68.66580000834074 186.07672778563574,68.52131262922194 186.86882933718152,68.73804368585115 187.5999999998603,68.66580000834074" stroke="#4DD2FF" stroke-dasharray="1,0.5" stroke-linecap="round" stroke-linejoin="round" stroke-width="0.5"><title>2014-03-22 10.5km</title><desc>9223370641410674807</desc></polyline><polyline fill="none" opacity="1" points="55.600000000034925,100.4657343085928 55.46157015336212,100.42963290198531 55.31325246056076,100.40556529030437 55.18471046013292,100.3935314822811 55.075944152020384,100.45370050783094 54.93751430534758,100.42963290198531 54.81886015110649,100.40556529030437 54.68043030449189,100.42963290198531 54.542000457819086,100.40556529030437 54.44312199589331,100.33336242024234 54.33435568783898,100.32132860348065 54.20581368735293,100.33336242024234 54.07727168692509,100.3694638618108 53.92895399406552,100.3694638618108 53.81029983982444,100.38149767276627 53.68175783933839,100.33336242024234 53.52355230029207,100.34539623558521 53.41478599223774,100.35743004941469 53.25658045319142,100.35743004941469 53.11815060657682,100.35743004941469 53.00938429852249,100.35743004941469 52.86106660566293,100.35743004941469 52.732524605235085,100.34539623558521 52.61387045093579,100.33336242024234 52.4952162966365,100.32132860348065 52.376562142395414,100.30929478524195 52.24802014196757,100.34539623558521 52.11947814148152,100.34539623558521 51.99093614099547,100.33336242024234 51.86239414056763,100.30929478524195 51.73385214008158,100.28522714440624 51.64486152440077,100.28522714440624 51.4965438315412,100.28522714440624 51.358113984926604,100.30929478524195 51.229571984440554,100.30929478524195 51.10102998401271,100.2972609655335 50.962600137339905,100.26115949777159 50.84394598309882,100.28522714440624 50.71540398261277,100.28522714440624 50.55719844362466,100.2731933218165 50.44843213557033,100.23709184528707 50.2902265964658,100.2250580168402 50.14190890372265,100.26115949777159 49.98370336461812,100.26115949777159 49.86504921037704,100.2731933218165 49.71673151757568,100.26115949777159 49.59807736327639,100.26115949777159 49.45964751666179,100.2731933218165 49.350881208549254,100.26115949777159 49.222339208063204,100.2491256722351 49.09379720763536,100.2731933218165 48.96525520714931,100.26115949777159 48.83671320672147,100.26115949777159 48.72794689866714,100.28522714440624 48.589517051994335,100.2972609655335 48.4807507438818,100.2972609655335 48.35220874345396,100.2972609655335 48.18411535822088,100.28522714440624 48.07534905016655,100.28522714440624 47.91714351112023,100.28522714440624 47.828152895439416,100.28522714440624 47.699610894953366,100.28522714440624 47.571068894525524,100.2731933218165 47.442526894039474,100.28522714440624 47.30409704736667,100.2491256722351 47.18544289312558,100.2491256722351 47.037125200324226,100.23709184528707 46.89869535370963,100.23709184528707 46.77015335316537,100.2250580168402 46.66138704511104,100.2250580168402 46.52295719849644,100.26115949777159 46.36475165945012,100.28522714440624 46.246097505209036,100.26115949777159 46.10766765853623,100.2491256722351 45.97912565805018,100.23709184528707 45.860471503809094,100.21302418693085 45.70226596476277,100.23709184528707 45.58361181052169,100.21302418693085 45.435294117662124,100.20099035560997 45.296864271047525,100.20099035560997 45.15843442437472,100.23709184528707 45.029892423946876,100.2250580168402 44.871686884900555,100.18895652282663 44.7233691920992,100.16488885285071 44.59482719161315,100.15285501566541 44.45639734494034,100.11675349542202 44.317967498267535,100.12878733695106 44.19931334402645,100.14082117705402 44.07077134359861,100.16488885285071 43.952117189299315,100.17692268858082 43.82357518887147,100.2250580168402 43.69503318838542,100.2250580168402 43.556603341712616,100.21302418693085 43.428061341284774,100.20099035560997 43.319295033230446,100.18895652282663 43.1907530327444,100.21302418693085 43.062211032316554,100.20099035560997 42.94355687801726,100.2250580168402 42.7952391851577,100.18895652282663 42.64692149235634,100.21302418693085 42.53815518430201,100.18895652282663 42.39972533762921,100.18895652282663 42.271183337201364,100.18895652282663 42.162417029147036,100.15285501566541 42.02398718241602,100.12878733695106 41.875669489614666,100.14082117705402 41.7273517967551,100.15285501566541 41.579034103953745,100.12878733695106 41.46037994971266,100.14082117705402 41.32195010303985,100.14082117705402 41.1736324102385,100.12878733695106 41.04509040969424,100.12878733695106 40.9165484092664,100.14082117705402 40.76823071640683,100.15285501566541 40.629800869792234,100.17692268858082 40.51114671549294,100.14082117705402 40.3826047150651,100.1047196524305 40.2441748684505,100.11675349542202 40.11563286796445,100.09268580796197 39.97720302129164,100.1047196524305 39.85854886705056,100.12878733695106 39.73989471280947,100.1047196524305 39.601464866194874,100.08065196206735 39.45314717333531,100.08065196206735 39.33449301903602,100.08065196206735 39.18617532617645,100.05658426587615 39.08729686430888,100.03251656384964 38.95875486382283,100.03251656384964 38.82032501720823,100.03251656384964 38.72144655534066,100.05658426587615 38.5731288624811,100.0445504155723 38.43469901580829,100.05658426587615 38.30615701538045,100.09268580796197 38.157839322520886,100.09268580796197 38.019409475906286,100.1047196524305 37.92053101398051,100.06861811471026 37.78210116736591,100.06861811471026 37.65355916693807,100.06861811471026 37.54479285882553,100.0445504155723 37.38658731977921,100.06861811471026 37.25804531935137,100.05658426587615 37.09983978030505,100.0445504155723 36.971297779877204,100.05658426587615 36.872419317951426,100.0445504155723 36.62522316322429,100.05658426587615 36.33847562375013,100.0445504155723 36.120943007583264,100.00844885600964 35.893522545229644,100.00844885600964 35.44856946670916,100.06861811471026 35.17170977347996,99.99641499990685 34.99372854200192,99.97234728328476 34.64765392540721,99.99641499990685 34.47956054023234,99.94827956088557 34.32135500118602,99.9362456975141 34.0247196155251,99.98438114231249 33.73797207599273,100.02048271066451 33.480888075137045,100.12878733695106 33.27324330515694,100.1047196524305 29.367544060514774,99.88811022933078 29.140123598161153,99.88811022933078 28.89292744337581,99.85200861295016 28.56662851915462,99.9362456975141 28.309544518240727,99.86404248653707 28.04257267114008,99.8159069834146 27.686610208358616,99.8159069834146 24.48294804309262,99.77980534080416 24.245639734552242,99.8038731039851 23.929228656517807,99.77980534080416 23.701808194164187,99.74370368502423 23.444724193250295,99.64743253892811 23.138200961402617,99.7316697968563 22.811902037123218,99.74370368502423 22.584481574769598,99.75573757172242 20.023529411817435,99.719635907255 19.68734264135128,99.719635907255 19.51924925617641,99.719635907255 19.35115587094333,99.74370368502423 19.301716640009545,99.68353422966175 19.15339894714998,99.69556812362862 18.817212176742032,99.70760201619123 18.688670176255982,99.63539863911865 18.421698329155333,99.61133083514869 18.204165713046677,99.63539863911865 17.99652094306657,99.63539863911865 17.848203250207007,99.59929693095182 16.790203707991168,99.62336473786127 16.48368047614349,99.63539863911865 16.246372167544905,99.55116129960516 16.018951705191284,99.59929693095182 15.662989242409822,99.58726302527793 15.425680933869444,99.62336473786127 15.19826047157403,99.6715003342324 14.931288624473382,99.61133083514869 14.654428931127768,99.58726302527793 14.41712062258739,99.57522911819251 14.100709544552956,99.55116129960516 13.912840466946363,99.55116129960516 13.695307850837708,99.56319520961551 13.220691233756952,99.58726302527793 13.022934309963603,99.47895780891122 13.00315861753188,99.75573757172242 13.03282215615036,99.97234728328476 13.072373540897388,100.15285501566541 12.983382925216574,100.35743004941469 12.86472877097549,100.38149767276627 12.884504463290796,100.06861811471026 12.676859693368897,100.08065196206735 12.508766308135819,100.26115949777159 12.439551384770311,100.40556529030437 12.419775692396797,100.59810602066864 12.469214923330583,100.93505140136403 12.488990615762305,101.18775968736736 12.60764477000339,101.54877041000145 12.617532616190147,101.78944349668745 12.676859693368897,102.06621682596597 12.706523231929168,102.3068886598121 12.76585030904971,102.47535859677009 12.795513847609982,102.71602944000188 12.795513847609982,102.99280018935679 12.815289539983496,103.26957016812958 12.86472877097549,103.55837280258856 12.86472877097549,103.83514120665495 12.874616617104039,104.11190884009557 12.894392309477553,104.38867570300499" stroke="#4DD2FF" stroke-dasharray="none" stroke-linecap="round" stroke-linejoin="round" stroke-width="0.5"><title>2013-12-10 10.9km</title><desc>9223370650177580807</desc></polyline><polyline fill="none" opacity="1" points="88.2420135596767,109.29738287813962 88.2420135596767,113.09196302411146 88.2420135596767,116.01086677075364 89.4418080933392,118.34598722797818 91.84139716345817,121.84866367932409 94.72090404573828,123.01622136775404 98.56024655792862,123.60000000009313 102.15963016077876,122.43244259478524 104.07930141687393,119.80543636670336 106.71884939447045,117.47031732159667 108.39856174215674,113.38385355728678 108.39856174215674,110.17305574938655 109.59835627768189,106.08657963620499 110.07827409170568,102.87577212415636 110.79815081227571,99.08117592497729 111.7579864403233,94.70278828428127 111.7579864403233,92.07575188926421 111.51802753377706,87.69735154649243 110.31823299825191,84.19462555623613 108.87847955618054,81.85947207268327 105.51905485894531,80.98378893476911 103.11946578975767,80.4000000001397 99.28012327849865,80.6918944849167 96.16065748780966,82.44326065597124 93.04119169805199,85.36220145085827 90.64160262793303,88.57303225062788 90.40164372138679,92.36764496355318 89.92172590643167,95.87035909830593 89.4418080933392,99.37306815129705 88.72193137276918,102.58388032088988 88.72193137276918,106.37847101641819 88.2420135596767,110.17305574938655 88.72193137276918,113.96763451839797" stroke="#4DD2FF" stroke-dasharray="none" stroke-linecap="round" stroke-linejoin="round" stroke-width="0.5"><title>2013-11-30 10.3km</title><desc>9223370651086224807</desc></polyline><polyline fill="none" opacity="1" points="155.25534126441926,112.31855043233372 155.25534126441926,116.17075901036151 155.933951289393,118.37201812700368 156.83876465633512,119.47264688764699 158.874594733119,122.22421646025032 162.26764486078173,122.22421646025032 166.11310167238116,123.60000000009313 167.01791503932327,121.6739028126467 170.63716850895435,119.74780399515294 174.25642197672278,115.89560147118755 175.16123534552753,114.51981327589601 176.97086207941175,112.04339242749847 176.29225205350667,106.8153840135783 175.61364202853292,105.71474913298152 175.83984537050128,101.86252286075614 177.1970654213801,96.90965093066916 177.1970654213801,95.80901126144454 175.61364202853292,92.78224942437373 177.87567544635385,90.30580492829904 176.29225205350667,89.20516206463799 174.7088286606595,86.72871367656626 172.67299858573824,83.7019397658296 170.86337184999138,83.15161680453457 167.92272840626538,80.4000000001397 163.3986615696922,82.6012937091291 160.23181478399783,85.90323028201237 157.29117134027183,88.93000126630068 156.16015463043004,90.85612616012804 155.933951289393,95.25869122636504 157.5173746822402,99.38608824228868 155.70774794742465,102.96315960329957 154.80293457955122,105.43959032977 155.4815446054563,107.64085982413962 154.57673123851418,110.6676019039005 154.80293457955122,113.69433995871805 154.80293457955122,117.27138883504085 156.83876465633512,118.64717536675744 159.55320475902408,120.57327511627227 162.9462548866868,121.94905965286307 165.88689832948148,122.77452997583896 169.05374511517584,122.22421646025032 171.7681852169335,120.02296106843278 174.25642197672278,117.27138883504085 175.83984537050128,113.41918211965822 176.06604871153831,110.3924436995294 176.29225205350667,107.36570125445724 176.29225205350667,104.06379581429064 175.61364202853292,100.76188558526337 176.29225205350667,97.45997056690976 176.51845539640635,94.70837105903774 177.42326876241714,91.40644725854509 176.97086207941175,88.37967956834473 175.61364202853292,85.62806908367202 173.80401529371738,83.7019397658296 171.7681852169335,82.87645527347922 168.60133843217045,82.05097048147582 165.88689832948148,82.05097048147582 162.72005154378712,83.7019397658296 160.9104248099029,84.25226259441115 158.874594733119,86.45355257811025 157.29117134027183,88.37967956834473 157.06496799830347,91.40644725854509 156.16015463043004,95.25869122636504 156.61256131436676,98.28544977051206 155.933951289393,102.13768209633417 155.933951289393,104.06379581429064 155.4815446054563,108.46633533574641 154.12432455457747,112.31855043233372 154.57673123851418,116.17075901036151 155.933951289393,118.09686085442081 159.77940810006112,119.19748974777758 162.9462548866868,121.3987459379714 166.11310167238116,121.3987459379714 169.50615179911256,119.74780399515294 171.7681852169335,118.09686085442081 173.57781195174903,115.07012865296565 175.16123534552753,111.21791821252555 174.93503200262785,107.64085982413962 175.61364202853292,104.33895478351042 175.61364202853292,100.76188558526337 176.29225205350667,97.45997056690976 176.51845539640635,93.6077303243801 177.64947210531682,89.48032283014618 176.51845539640635,87.55419677193277" stroke="#4DD2FF" stroke-dasharray="none" stroke-linecap="round" stroke-linejoin="round" stroke-width="0.5"><title>2013-11-16 10.4km</title><desc>9223370652294258807</desc></polyline><polyline fill="none" opacity="1" points="22.324188444763422,154.43844744330272 22.567434517666698,160.06034860108048 22.0809423699975,163.6110163643025 23.053926666267216,166.5699022328481 24.51340311113745,168.64112021238543 28.648586370050907,170.71233643963933 33.51350785139948,171.60000000009313 37.89193718507886,171.30411218269728 38.86492148041725,169.52878452418372 41.5406282953918,167.1616789775435 41.78387437015772,163.01923876185901 41.78387437015772,160.35623777890578 42.75685866642743,155.32611690624617 44.70282725896686,150.29598569567315 44.94607333280146,146.1535169382114 45.43256548047066,142.89871513913386 45.18931940663606,138.75623386260122 45.43256548047066,135.7973143735435 44.21633510943502,132.5424988034647 40.081151850521564,129.879464663798 36.43246074113995,128.99178597261198 32.78376962989569,128.99178597261198 28.891832443885505,130.4712502779439 26.21612562984228,132.24660626379773 24.999895258806646,136.38909855671227 23.297172740101814,141.12336687929928 23.297172740101814,144.08227993012406 23.053926666267216,146.74529861821793 22.324188444763422,150.88776637450792 22.567434517666698,154.73433729959652 22.324188444763422,157.69323389837518 22.567434517666698,162.72334990650415 23.540418813936412,165.09045974630862 25.972879556007683,167.1616789775435 30.594554962590337,171.00822432967834 34.486492147669196,171.00822432967834 38.135183257982135,169.82467255694792 40.324397925287485,168.64112021238543 43.00010474026203,165.38634831481613 43.729842961765826,162.72334990650415 43.48659688793123,158.58090218016878 43.973089036531746,153.8466676226817 44.94607333280146,150.88776637450792 45.675811554305255,147.33708015549928 45.675811554305255,143.7863887862768 45.919057629071176,139.64390901243314 45.43256548047066,135.7973143735435 43.24335081502795,132.5424988034647 40.567644000053406,130.4712502779439 36.43246074113995,128.4000000001397 32.78376962989569,128.99178597261198 29.378324592486024,130.4712502779439 26.21612562984228,131.95071368920617 23.540418813936412,134.90963782859035 22.810680591501296,140.23569226590917 23.053926666267216,143.7863887862768 22.567434517666698,147.33708015549928 24.02691096253693,150.88776637450792 22.324188444763422,156.50967568787746 21.594450222328305,160.35623777890578 22.324188444763422,164.2027938242536 22.567434517666698,166.27401380729862 26.21612562984228,168.64112021238543 29.135078517720103,170.12056055432186 33.99999999906868,170.71233643963933 37.40544503647834,170.12056055432186 40.567644000053406,168.64112021238543 42.75685866642743,165.68223684746772 43.48659688793123,162.13157208892517 44.45958118420094,158.58090218016878 44.94607333280146,155.0302271207329 45.18931940663606,151.77543712500483 45.675811554305255,148.81653337273747 45.919057629071176,145.26584414974786 46.40554977674037,139.3480173314456 45.919057629071176,135.7973143735435 44.21633510943502,133.13428377383389 41.0541361477226,130.4712502779439 38.378429332748055,129.2876789055299 33.51350785139948,128.69589300476946 30.594554962590337,129.58357180282474 27.91884814761579,130.76714303181507 25.486387406475842,133.13428377383389 24.51340311113745,134.31785328662954 23.783664888702333,135.7973143735435 24.999895258806646,139.3480173314456" stroke="#4DD2FF" stroke-dasharray="none" stroke-linecap="round" stroke-linejoin="round" stroke-width="0.5"><title>2013-11-03 10.7km</title><desc>9223370653417861807</desc></polyline><polyline fill="none" opacity="1" points="106.98440560605377,129.2640076763928 103.90653194859624,130.41601742454804 100.35513926763088,130.12801503995433 97.51402512192726,130.41601742454804 94.67291097715497,132.14403100241907 92.77883488032967,135.3120526385028 91.35827780794352,138.1920686531812 91.59503732062876,143.37608870584518 90.88475878350437,145.96809450211003 90.1744802473113,149.712097896263 89.46420171111822,153.4560954067856 88.51716366223991,155.7600909504108 88.28040415141732,159.2160800890997 88.28040415141732,162.96006266516633 89.70096122287214,167.28003524802625 92.77883488032967,169.5840174248442 97.27726561017334,171.31200259411708 100.59189877938479,171.60000000009313 104.3800509730354,170.16001262003556 107.69468414224684,167.28003524802625 108.16820316575468,162.6720642137807 110.29903877526522,158.06408426584676 110.53579828795046,154.60809345706366 110.53579828795046,151.44009747868404 110.77255779877305,147.1200961722061 111.00931731145829,142.80008703446947 112.19311487209052,139.0560727783013 112.42987438477576,135.3120526385028 110.29903877526522,132.7200352489017 108.87848170287907,130.41601742454804 105.80060804635286,128.9760051521007 102.01245585177094,128.4000000001397 98.22430365905166,129.2640076763928 94.90967048984021,129.84001261997037 89.70096122287214,133.8720433257986 88.99068268761039,135.0240508459974 88.99068268761039,136.46405946207233 90.1744802473113,139.63207535468973 89.93772073462605,143.66408948926255 88.51716366223991,147.69609680003487 88.51716366223991,150.57609784416854 87.57012561522424,154.32009399705566 87.57012561522424,157.48808614653535 87.80688512697816,160.65607408294454 87.57012561522424,163.5360594613012 89.22744219843298,166.7040393569041 91.35827780794352,169.00802208902314 94.19939195271581,169.87201503990218 97.9875441454351,169.5840174248442 102.01245585177094,168.72002436965704" stroke="#4DD2FF" stroke-dasharray="none" stroke-linecap="round" stroke-linejoin="round" stroke-width="0.5"><title>2013-11-02 10.5km</title><desc>9223370653505000807</desc></polyline><polyline fill="none" opacity="1" points="156.67758519575,145.68010026379488 156.23366068210453,149.19010429433547 156.01169842481613,151.35010403278284 156.01169842481613,152.97010246641003 155.56777391023934,155.67009724397212 155.12384939659387,158.6400877290871 156.23366068210453,162.15007139416412 157.5654342258349,164.85005507571623 160.67290582694113,167.0100396713242 164.22430194169283,168.3600289823953 167.7756980592385,168.3600289823953 169.77335837297142,167.82003335561603 172.65886771772057,165.66004954348318 174.6565280323848,162.96006684168242 175.54437706060708,159.18008557590656 175.54437706060708,155.94009654247202 175.7663393188268,152.70010280935094 175.54437706060708,149.46010437584482 175.54437706060708,146.49010168295354 176.43222609069198,142.98009340977296 176.87615060433745,140.01008210144937 176.43222609069198,137.31006839242764 175.32241480425,134.34004954481497 173.99064126145095,132.72003759886138 170.4392451448366,130.56001984444447 167.7756980592385,128.4000000001397 165.3341132281348,129.48001018329524 162.0046793706715,130.8300221778918 159.78505679685622,132.45003549358808 158.67524551134557,135.69005860155448 158.2313209977001,138.12007284793071 157.7873964831233,141.63008875912055 156.45562293939292,144.33009724435396 156.01169842481613,146.76010209089145 156.23366068210453,150.81010429398157 157.7873964831233,154.32010026299395 154.90188713837415,155.13009854895063 155.12384939659387,156.21009580790997 154.45796262472868,157.56009164638817 154.90188713837415,163.23006525845267 160.22898131329566,166.20004569296725 165.77803774364293,167.55003549298272 167.1098112873733,167.55003549298272 169.10747160110623,167.55003549298272 171.77101868763566,168.3600289823953 173.99064126145095,164.0400603134185 174.6565280323848,162.96006684168242 174.8784902896732,160.5300796192605 175.54437706060708,159.18008557590656 173.54671674594283,158.91008666879497 174.8784902896732,158.10008975397795 176.2102638334036,155.94009654247202 175.9883015761152,150.81010429398157 176.2102638334036,149.46010437584482 175.7663393188268,146.2201012421865 176.2102638334036,142.1700907170307 175.7663393188268,136.7700652598869 175.32241480425,133.26004171161912 173.54671674594283,129.75001264712773 169.55139611661434,129.48001018329524 165.77803774364293,129.21000768686645 162.6705661425367,130.56001984444447 159.78505679685622,132.72003759886138 156.67758519575,133.26004171161912 156.45562293939292,137.58006991050206 156.23366068210453,140.55008445074782 156.01169842481613,144.0600965428166 154.90188713837415,147.57010311936028 155.34581165295094,151.62010385282338 155.12384939659387,155.13009854895063 154.90188713837415,159.18008557590656 154.90188713837415,161.61007426702417 158.45328325405717,165.66004954348318 164.00233968626708,168.63002674723975 166.44392451550812,169.98001507879235 169.32943385839462,171.60000000009313 173.32475448958576,167.82003335561603 175.1004525469616,162.69006839231588 175.54437706060708,159.7200832911767 175.54437706060708,158.6400877290871 175.1004525469616,153.24010209064 174.8784902896732,148.92010417976417 175.32241480425,146.2201012421865 175.54437706060708,142.98009340977296 177.09811286255717,138.93007700890303 175.7663393188268,135.96006031497382 174.43456577509642,134.34004954481497 172.88082997407764,130.8300221778918 170.21728288847953,130.02001507859677 166.0,129.75001264712773 162.0046793706715,130.56001984444447 159.78505679685622,130.8300221778918 156.89954745396972,132.72003759886138 154.90188713837415,135.69005860155448 154.67992488108575,138.39007426798344 155.34581165295094,139.7400808769744 154.23600036650896,142.71009254432283 154.67992488108575,145.95010076928884 154.90188713837415,147.57010311936028 154.45796262472868,150.27010442432947 154.90188713837415,153.78010124200955 154.67992488108575,157.02009340864606 154.90188713837415,161.34007565444335 157.5654342258349,166.20004569296725 161.7827171124518,168.63002674723975 163.11449065618217,168.3600289823953 166.0,169.98001507879235 167.99766031466424,169.1700221770443 171.1051319167018,171.33000259427354 173.32475448958576,168.63002674723975 174.8784902896732,162.42006990942173 173.99064126145095,158.37008875748143 175.1004525469616,151.35010403278284 174.8784902896732,147.0301024664659 174.8784902896732,145.68010026379488 176.43222609069198,142.98009340977296 177.76399963349104,140.82008557626978 177.09811286255717,136.7700652598869 175.32241480425,132.1800333559513 173.10279223136604,129.75001264712773 169.9953206302598,128.6700025945902 166.0,128.94000515691005 161.1168303405866,130.56001984444447 157.1215097112581,132.1800333559513 156.67758519575,133.53004371840507 155.56777391023934,134.61005142168142 155.78973616752774,137.04006684245542 156.01169842481613,138.6600756549742 156.23366068210453,142.1700907170307 156.23366068210453,143.5200950417202 156.23366068210453,147.84010339644738 156.01169842481613,149.19010429433547 155.12384939659387,151.62010385282338 155.78973616752774,155.13009854895063 154.90188713837415,156.21009580790997 155.12384939659387,161.07007700833492 156.23366068210453,162.15007139416412 156.23366068210453,163.50006364332512 158.45328325405717,165.66004954348318 162.6705661425367,168.63002674723975 167.1098112873733,170.52001018356532 170.4392451448366,169.710017477395 171.99298094585538,168.09003118495457 175.32241480425,163.77006199466996 174.8784902896732,159.18008557590656 174.43456577509642,152.97010246641003 176.2102638334036,152.1601033960469 176.65418834704906,147.3001028096769 176.87615060433745,146.49010168295354 175.9883015761152,142.71009254432283" stroke="#4DD2FF" stroke-dasharray="none" stroke-linecap="round" stroke-linejoin="round" stroke-width="0.5"><title>2013-10-26 11.1km</title><desc>9223370654110301807</desc></polyline><polyline fill="none" opacity="1" points="29.443937020376325,180.66319319489412 27.341138722375035,181.51583090610802 24.771051913499832,184.3579543782398 22.901897870004177,187.76849800907075 24.30376340262592,190.32640248560347 25.004696168005466,193.1685153071303 25.004696168005466,196.86325683817267 24.07011914718896,199.9895720607601 23.602830636315048,203.68430287321098 23.36918638087809,206.81060902611353 24.30376340262592,208.23165590292774 23.602830636315048,212.77900013769977 25.705628934316337,215.62108581862412 28.042071488685906,217.89475188939832 30.845802552998066,218.46316806343384 34.11682212725282,217.89475188939832 38.08877446874976,216.18950254260562 41.359794043935835,213.91583482245915 42.29437106475234,209.93691102182493 42.06072680931538,206.52639954793267 42.52801532112062,202.26325324806385 42.52801532112062,198.85273064253852 42.52801532112062,195.1579922370147 43.92988085281104,191.4632480267901 45.565390639938414,189.18955639493652 46.49996766168624,186.63165068160743 46.26632340531796,184.07374218595214 43.92988085281104,181.23161837016232 40.8925055321306,179.81055517448112 37.855130213312805,177.25263925665058 34.58411063905805,176.4000000001397 31.0794468075037,177.82106525660492 28.27571574319154,180.09476788225584 25.705628934316337,182.6526807071641 25.238340424373746,185.77901482582092 25.238340424373746,189.4737679695245 24.771051913499832,192.60009301709943 24.30376340262592,196.86325683817267 21.50003233831376,199.9895720607601 21.967320849187672,203.68430287321098 21.733676593750715,207.94744659680873 22.200965103693306,211.07374708005227 22.200965103693306,213.91583482245915 24.30376340262592,216.75791912851855 27.341138722375035,219.0315841003321 30.61215829756111,219.60000000009313 34.58411063905805,219.0315841003321 37.154197447001934,217.610543750925 40.8925055321306,215.90529419737868 41.82708255480975,213.6316262029577 43.462592341937125,210.22112008789554 43.92988085281104,206.81060902611353 43.92988085281104,203.1158831268549 44.39716936368495,199.70536175812595 45.0981021290645,195.4422030900605 45.33174638450146,192.0316705906298 45.79903489537537,189.18955639493652 45.565390639938414,185.49480280443095 44.63081361912191,181.80004340759479 42.52801532112062,179.24212965508923 39.4906400013715,178.10527820512652 35.98597617074847,177.53685227409005 32.48131234012544,177.53685227409005 29.21029276587069,178.95791684417054 25.705628934316337,181.23161837016232 24.30376340262592,184.07374218595214 25.004696168005466,188.33692146651447 23.602830636315048,191.74745932617225 23.36918638087809,194.58957042940892 23.36918638087809,198.28430972713977 21.733676593750715,201.69483315735124 22.200965103693306,206.52639954793267 21.967320849187672,209.3684927856084 23.36918638087809,212.21058258996345 24.30376340262592,215.90529419737868 25.238340424373746,217.610543750925 30.845802552998066,219.0315841003321 34.81775489356369,218.46316806343384 37.38784170243889,216.18950254260562 41.59343829844147,212.77900013769977 43.22894808650017,211.9263737637084 43.92988085281104,209.08428361662664 43.462592341937125,205.95798048726283 43.462592341937125,202.26325324806385 43.462592341937125,199.13694104878232 43.92988085281104,195.72641390911303 45.33174638450146,192.31588182109408 45.565390639938414,189.18955639493652 45.565390639938414,186.34743876405992 45.565390639938414,183.78952995873988 43.22894808650017,181.23161837016232 41.359794043935835,178.10527820512652 37.855130213312805,176.96842620545067 33.6495336163789,178.10527820512652 29.67758127581328,180.09476788225584 27.341138722375035,183.22110540163703 25.238340424373746,186.34743876405992" stroke="#4DD2FF" stroke-dasharray="none" stroke-linecap="round" stroke-linejoin="round" stroke-width="0.5"><title>2013-10-20 10.7km</title><desc>9223370654628121807</desc></polyline><polyline fill="none" opacity="1" points="111.46336166653782,205.1089527234435 111.91290526092052,201.00769607233815 112.58722065296024,198.00010313512757 113.03676424827427,195.265924267238 113.26153604499996,192.53174209501594 112.81199244968593,188.7038815007545 112.58722065296024,185.96969139552675 110.33950267918408,182.68865890684538 108.76610009744763,179.4076216588728 105.84406673163176,177.49368106550537 102.69726156815886,176.4000000001397 99.77522820234299,176.4000000001397 96.1788794444874,177.2202608489897 92.80730248428881,179.4076216588728 90.33481271192431,182.68865890684538 89.43572552409023,185.69627220346592 89.43572552409023,188.7038815007545 88.76141013111919,191.98490526387468 88.53663833346218,196.08617827505805 87.41277934703976,199.3671913293656 87.86232294142246,202.3747824486345 86.73846395500004,206.20261990721337 89.2109537255019,208.6633691387251 90.11004091612995,211.9443639498204 91.90821529459208,215.49876962439157 94.15593326836824,217.41267805802636 97.75228202715516,218.77975451922975 101.57340258173645,219.60000000009313 104.49543594755232,217.95950874243863 106.96792571805418,215.22535400115885 108.99087189510465,212.76461190870032 110.56427447684109,209.75703460443765 110.33950267918408,207.5697031437885 111.0138180712238,204.56211893237196 111.23858986981213,201.5545307220891 111.46336166653782,198.54693851224147 112.13767705764621,196.08617827505805 112.58722065296024,191.71148679824546 112.58722065296024,188.43046263884753" stroke="#4DD2FF" stroke-dasharray="none" stroke-linecap="round" stroke-linejoin="round" stroke-width="0.5"><title>2013-10-19 10.2km</title><desc>9223370654714312807</desc></polyline><polyline fill="none" opacity="1" points="175.90524668991566,195.2082576181274 176.63002083823085,191.09396369801834 177.59638636745512,187.27354168030433 176.1468380726874,183.15923433192074 174.93888115882874,180.22043910529464 171.31501041911542,177.5755203643348 167.20795691385865,176.4000000001397 163.3424947904423,177.5755203643348 160.20180681534111,179.33879984519444 158.51066713687032,182.57147557032295 157.302710223943,185.51026795455255 157.06111884023994,188.15517806308344 156.5779360756278,191.9755986945238 155.61157054454088,195.5021354884375 154.8867963962257,198.73478972166777 154.64520501438528,201.96743965684436 154.64520501438528,206.08171517541632 155.12838777899742,209.90210763714276 156.81952745839953,213.72249409533106 158.0274843722582,215.7796227785293 160.92658096458763,219.0122500488069 164.55045170336962,219.0122500488069 167.44954829569906,219.60000000009313 170.83182765357196,218.13062485610135 173.48933286219835,216.36737351119518 175.18047254160047,212.84086698386818 175.66365530714393,208.43272663117386 175.90524668991566,203.73070144630037 175.90524668991566,200.79193108691834 175.90524668991566,197.26540196686983 176.87161222100258,194.32662379206158 177.59638636745512,190.80008529429324 177.35479498654604,186.39190497691743 175.18047254160047,180.22043910529464 172.52296733297408,178.16328033292666 167.6911396794021,176.69388014404103 164.79204308707267,176.9877602532506 161.8929464938119,179.63267963356338 159.23544128518552,181.6898371623829 158.51066713687032,184.62863061204553 157.06111884023994,189.33069274341688 155.61157054454088,193.73886773106642 155.61157054454088,197.26540196686983 154.16202224884182,200.79193108691834 154.40361363161355,204.6123318609316 154.64520501438528,207.8449739809148 154.16202224884182,211.37148775416426 156.09475331008434,215.48574735829607 158.75225852057338,218.13062485610135 161.40976372919977,218.42449995642528 166.48318276554346,219.0122500488069 169.38227935694158,217.54287455044687 172.52296733297408,214.89799641259015 173.48933286219835,212.25311539904214 174.697289776057,208.43272663117386 176.1468380726874,204.9062085954938 177.35479498654604,201.67356256698258 177.83797775115818,197.55927958874963 177.35479498654604,192.85723337321542 177.35479498654604,188.44905678625219 176.3884294545278,184.92250976222567 174.93888115882874,180.22043910529464 172.03978456743062,178.16328033292666 168.89909659232944,177.28164032683708 164.79204308707267,176.9877602532506 161.40976372919977,179.04492002003826" stroke="#4DD2FF" stroke-dasharray="none" stroke-linecap="round" stroke-linejoin="round" stroke-width="0.5"><title>2013-10-12 10.6km</title><desc>9223370655320152807</desc></polyline><polyline fill="none" opacity="1" points="26.1869361018762,229.8720433257986 25.239898052997887,233.32806421397254 25.476657565683126,235.63207535468973 24.05610049236566,240.24009095085785 24.05610049236566,242.83209580695257 23.345821957103908,247.44009747868404 24.05610049236566,250.60809345706366 24.292860004119575,254.92808118532412 23.81934098061174,258.6720642137807 22.635543420910835,262.41604135814123 24.76637902855873,263.28003524802625 28.317771709524095,265.5840174248442 31.632404879666865,267.60000000009313 34.710278537124395,267.60000000009313 38.97194975428283,265.8720150399022 41.57630438823253,263.8560310017783 43.943899508565664,260.6880526384339 44.890937557443976,256.9440727783367 45.12769706826657,252.33608948835172 43.943899508565664,248.59209650335833 44.180659021250904,243.40809650346637 45.36445658095181,239.37608870584518 45.60121609363705,236.2080777916126 46.54825414158404,233.32806421397254 45.837975605390966,231.0240508459974 43.23362097237259,227.28002436971292 38.97194975428283,225.84001261997037 35.42055707331747,224.9760051521007 32.57944292854518,224.9760051521007 30.21184780728072,226.12801503995433 26.1869361018762,228.14403100241907 24.76637902855873,231.0240508459974 23.81934098061174,234.48007006268017 24.05610049236566,238.5120861462783 24.05610049236566,241.96809450211003 24.292860004119575,245.13609775714576 24.05610049236566,248.88009617221542 22.398783908225596,251.47209162986837 21.6885053711012,254.3520832741633 21.451745859347284,257.2320714369416 22.398783908225596,260.1120561193675 23.582581467926502,262.41604135814123 25.239898052997887,265.296019774396 28.317771709524095,266.7360076766927 31.632404879666865,266.7360076766927 36.6043546339497,267.60000000009313 39.68222829140723,264.72002436965704 41.57630438823253,262.1280433256179 43.943899508565664,258.3840657279361 44.180659021250904,254.3520832741633 44.180659021250904,250.89609288284555 45.36445658095181,247.15209763497114 46.07473511714488,243.69609680003487 45.837975605390966,240.52809162950143 45.837975605390966,237.93608426721767 46.31149462983012,234.48007006268017 45.60121609363705,231.6000543970149 44.65417804475874,229.00803732057102 43.23362097237259,226.12801503995433 40.155747315846384,224.4000000001397 36.6043546339497,224.4000000001397 32.57944292854518,224.4000000001397 28.791290735825896,224.9760051521007 26.660455126315355,227.28002436971292 24.292860004119575,231.0240508459974 24.76637902855873,233.6160657289438 24.76637902855873,237.07208118587732 23.345821957103908,241.68009399762377 23.345821957103908,245.712097896263 24.05610049236566,247.15209763497114 23.10906244441867,250.89609288284555 22.398783908225596,252.9120878870599 22.87230293173343,256.36807535379194 23.582581467926502,259.5360594613012 24.05610049236566,262.7040393569041" stroke="#4DD2FF" stroke-dasharray="none" stroke-linecap="round" stroke-linejoin="round" stroke-width="0.5"><title>2013-10-06 10.6km</title><desc>9223370655838244807</desc></polyline><polyline fill="none" opacity="1" points="110.60805349703878,250.76892679347657 111.76110279094428,247.68321679718792 111.06927321478724,244.03646333003417 111.06927321478724,240.67022427427582 111.76110279094428,237.5845008501783 111.99171264935285,234.77929417719133 111.76110279094428,231.97408411232755 109.6856140634045,230.2909564457368 108.07134505175054,228.04678432480432 105.30402674898505,226.9246974508278 102.30609858687967,227.48574095615186 97.69390141405165,228.04678432480432 95.38780282903463,228.6078275591135 93.77353381738067,230.2909564457368 93.54292395804077,231.97408411232755 92.62048452533782,234.77929417719133 92.38987466599792,237.86502133100294 91.69804508984089,242.07282447465695 91.00621551368386,245.15854193037376 91.69804508984089,248.80529363360256 90.77560565527529,251.89100213861093 90.31438593752682,255.53774326271378 89.39194650482386,258.3429248428438 89.39194650482386,260.3065499314107 90.31438593752682,263.3922431420069 91.92865494918078,265.6363810834009 96.07963240426034,266.75844923895784 99.30817042570561,267.60000000009313 102.30609858687967,266.75844923895784 105.30402674898505,266.47793225129135 107.37951547559351,264.23379512433894 108.76317462790757,261.98965582833625 109.6856140634045,258.0624068370089 109.45500420406461,254.97670653951354 110.37744363863021,251.04944568034261 110.37744363863021,247.40269750310108 110.14683377929032,243.75594359473325 109.91622392181307,238.98710291530006 110.37744363863021,235.62085653445683 111.06927321478724,234.21825243486091 110.37744363863021,231.41304169245996 108.07134505175054,228.88834912492894 105.07341689057648,226.0831319389399 102.9979281630367,225.2415661229752 99.76939014159143,225.80261003412306 96.31024226266891,225.80261003412306 94.4653633935377,226.6441756472923 93.31231410056353,229.72991361888126 91.69804508984089,232.5351263966877 91.46743523143232,235.62085653445683 90.77560565527529,239.26762322615832 90.08377608004957,243.19490402424708 89.62255636136979,245.7195810272824 88.9307267870754,248.80529363360256 88.9307267870754,252.17152088950388 88.0082873525098,255.53774326271378 87.54706763476133,258.0624068370089 87.7776774931699,261.14810303226113 88.9307267870754,263.6727605035994 91.92865494918078,266.19741522870027 95.61841268651187,267.0389661930967 99.76939014159143,267.319483113708 103.45914787892252,266.75844923895784 105.99585632514209,264.794829609571 108.76317462790757,262.55069085536525 109.91622392181307,258.3429248428438 110.37744363863021,255.53774326271378 110.83866335544735,252.4520396075677 111.06927321478724,249.6468509058468 111.53049293160439,245.7195810272824 111.76110279094428,243.4754238263704 111.99171264935285,240.3897041331511 112.22232250776142,237.5845008501783 112.45293236616999,234.49877332313918 111.76110279094428,231.69356291904114 110.60805349703878,229.1688706574496 108.30195491109043,226.6441756472923 105.76524646673352,225.2415661229752 102.9979281630367,224.4000000001397 100.69182957615703,224.96104411478154 96.77146197948605,225.52208809531294 94.00414367672056,227.20521922083572 92.62048452533782,230.8519991368521 91.00621551368386,235.34033578261733 90.08377608004957,238.14554177806713 89.85316622070968,240.3897041331511 89.62255636136979,243.4754238263704 89.85316622070968,246.56113941781223 90.08377608004957,249.92736992868595 89.85316622070968,253.01307694031857 89.62255636136979,256.3792980927974 90.08377608004957,259.7455143611878 91.46743523143232,262.83120831870474 94.00414367672056,264.5143123844173 96.77146197948605,267.319483113708 100.69182957615703,267.319483113708 102.9979281630367,267.0389661930967 106.45707604289055,265.35586395906284 108.532564769499,263.3922431420069 109.6856140634045,260.0260321632959 110.14683377929032,257.2208526181057 111.06927321478724,254.13515119976364 111.06927321478724,250.76892679347657 111.76110279094428,247.96373605774716 111.76110279094428,244.8780223308131 111.53049293160439,241.79230450256728 112.68354222457856,238.14554177806713 111.76110279094428,235.34033578261733 110.83866335544735,231.97408411232755 110.14683377929032,229.44939215504564 107.6101253349334,227.7662626572419 104.38158731441945,226.0831319389399 101.38365915231407,226.6441756472923 97.23268169723451,226.9246974508278 94.23475353512913,228.88834912492894 92.85109438374639,230.8519991368521 90.77560565527529,234.21825243486091 90.31438593752682,236.46241858764552 89.39194650482386,240.1091839573346 89.62255636136979,243.19490402424708 88.46950706932694,246.28061998845078 88.46950706932694,249.6468509058468 87.7776774931699,253.01307694031857 87.31645777635276,256.3792980927974 88.0082873525098,259.7455143611878 89.16133664548397,262.83120831870474 92.62048452533782,264.794829609571 96.31024226266891,266.47793225129135 98.84695070702583,265.9168981728144 102.30609858687967,265.0753468009643 104.84280703123659,262.270173358731 108.07134505175054,260.3065499314107 109.6856140634045,257.7818887971807" stroke="#4DD2FF" stroke-dasharray="none" stroke-linecap="round" stroke-linejoin="round" stroke-width="0.5"><title>2013-09-29 10.5km</title><desc>9223370656443428807</desc></polyline><polyline fill="none" opacity="1" points="174.31655047181994,261.0380278278608 175.66518027801067,258.3038671386894 176.5642668157816,255.29628656315617 176.5642668157816,251.7418679993134 176.5642668157816,248.73427869705483 177.23858171794564,246.00010313582607 177.23858171794564,242.17225179541856 178.36243989039212,238.8912312053144 177.68812498729676,237.25071912514977 176.78903844952583,234.51652968092822 175.66518027801067,230.68865890661255 173.86700720340014,227.95446153078228 171.39451922569424,225.49368106527254 170.0458894195035,225.76710125035606 166.00000000093132,224.94684059894644 163.30274038854986,226.5873616025783 160.83025241084397,228.22788141667843 159.7063942393288,232.055756355403 158.35776443313807,233.6962722032331 157.6834495300427,238.6178126083687 157.00913462694734,240.80516046099365 156.78436299227178,244.9064319843892 156.78436299227178,247.09377375710756 156.55959135852754,249.28111341316253 156.55959135852754,253.38236956926994 155.2109615523368,255.56970314332284 155.6605048207566,261.0380278278608 156.55959135852754,263.4987696236931 161.95411058235914,265.4126780577935 164.2018269263208,265.95950874197297 167.5734014417976,265.95950874197297 171.61929085943848,264.86584724183194 174.5413221064955,262.1316911787726 176.5642668157816,258.0304508882109 177.23858171794564,253.65578638156876 175.66518027801067,250.92161676776595 174.09177883714437,249.55453072185628 175.88995191268623,245.17984982184134 177.4633533526212,239.98490526387468 177.91289662197232,238.07097531366162 177.23858171794564,235.06336783478037 178.36243989039212,231.235497985268 175.66518027801067,228.50130126997828 172.9679206656292,225.49368106527254 171.16974759101868,224.94684059894644 165.77522836625576,225.49368106527254 164.2018269263208,225.76710125035606 161.27979567926377,228.22788141667843 158.80730770155787,230.41523931804113 158.1329927984625,232.87601442844607 157.6834495300427,236.43046263838187 156.55959135852754,241.07857879367657 157.00913462694734,244.35959621169604 157.23390626069158,246.54693851224147 156.55959135852754,250.92161676776595 157.00913462694734,254.20261990698054 155.6605048207566,258.3038671386894 156.33481972385198,261.5848595700227 156.55959135852754,263.4987696236931 160.38070914242417,264.86584724183194 163.97705529164523,267.3265848727897 166.22477163467556,266.77975451922975 169.14680288173258,265.95950874197297 172.0688341287896,264.86584724183194 174.9908653749153,261.5848595700227 175.21563700959086,259.3975318111479 175.88995191268623,256.66336913825944 176.78903844952583,253.92920316033997 177.91289662197232,250.92161676776595 177.0138100842014,247.3671913293656 175.88995191268623,243.53934230282903 176.11472354643047,240.5317420954816 176.5642668157816,237.25071912514977 177.68812498729676,236.43046263838187 178.58721152413636,232.87601442844607 177.23858171794564,230.14181969570927 178.36243989039212,230.41523931804113 177.91289662197232,227.68104161159135 174.76609374023974,226.31394151831046 171.39451922569424,225.22026084875688 168.24771634489298,224.6734203158412 164.2018269263208,225.76710125035606 161.0550240445882,228.22788141667843 158.35776443313807,230.14181969570927 158.1329927984625,233.42285297834314 155.88527645543218,237.25071912514977 154.53664664924145,241.62541536078788 156.11004808917642,241.62541536078788 156.78436299227178,243.2659242679365 156.33481972385198,246.8203561506234 155.6605048207566,250.92161676776595 153.41278847679496,253.10895272321068 155.43573318701237,256.11653620772995 155.6605048207566,258.57728335657157 157.23390626069158,262.9519383441657 159.256850970909,265.4126780577935 161.95411058235914,266.23292403365485 165.77522836625576,266.23292403365485 169.37157451640815,267.60000000009313 172.9679206656292,266.23292403365485 174.09177883714437,264.0456007702742 174.31655047181994,260.49119595531374 175.66518027801067,259.3975318111479 175.88995191268623,255.29628656315617 177.91289662197232,248.73427869705483 177.91289662197232,244.08617827459238 175.88995191268623,241.35199709353037 176.5642668157816,238.07097531366162 177.0138100842014,235.61020585522056 177.4633533526212,232.055756355403 177.23858171794564,230.14181969570927 175.66518027801067,227.1342016728595 172.0688341287896,225.76710125035606 168.69725961331278,224.4000000001397 166.00000000093132,225.76710125035606 163.52751202322543,226.8607816544827 160.38070914242417,229.04814087809063 157.45867789536715,232.055756355403 155.6605048207566,235.61020585522056 156.78436299227178,239.16464976919815 157.00913462694734,243.53934230282903 157.00913462694734,246.8203561506234 156.33481972385198,250.64819962508045 154.761418283917,253.10895272321068 156.33481972385198,256.66336913825944 155.6605048207566,259.3975318111479 156.78436299227178,262.4051069342531 157.6834495300427,264.86584724183194" stroke="#4DD2FF" stroke-dasharray="none" stroke-linecap="round" stroke-linejoin="round" stroke-width="0.5"><title>2013-09-22 10.9km</title><desc>9223370657048162807</desc></polyline></svg>