<?xml version="1.0" encoding="utf-8" ?>
<svg baseProfile="full" height="300mm" version="1.1" viewBox="0,0,200,300" width="200mm" xmlns="http://www.w3.org/2000/svg" xmlns:ev="http://www.w3.org/2001/xml-events" xmlns:xlink="http://www.w3.org/1999/xlink"><defs /><rect fill="#222222" height="300" width="200" x="0" y="0" /><text fill="#FFFFFF" style="font-size:12px; font-family:Arial; font-weight:bold;" x="10" y="20">Over 10km Runs</text><text fill="#FFFFFF" style="font-size:4px; font-family:Arial" x="10" y="280">Runner</text><text fill="#FFFFFF" style="font-size:9px; font-family:Arial" x="10" y="290">keep</text><text fill="#FFFFFF" style="font-size:4px; font-family:Arial" x="65" y="280">SPECIAL TRACKS</text><rect fill="yellow" height="2.6" width="2.6" x="65" y="283" /><text fill="#FFFFFF" style="font-size:3px; font-family:Arial" x="70" y="285.5">Over 20.0 km</text><rect fill="red" height="2.6" width="2.6" x="65" y="287" /><text fill="#FFFFFF" style="font-size:3px; font-family:Arial" x="70" y="289.5">Over 40.0 km</text><text fill="#FFFFFF" style="font-size:4px; font-family:Arial" x="120" y="280">STATISTICS</text><text fill="#FFFFFF" style="font-size:3px; font-family:Arial" x="120" y="285">Number: 15</text><text fill="#FFFFFF" style="font-size:3px; font-family:Arial" x="120" y="290">Weekly: 1.2</text><text fill="#FFFFFF" style="font-size:3px; font-family:Arial" x="141" y="285">Total: 163.6 km</text><text fill="#FFFFFF" style="font-size:3px; font-family:Arial" x="141" y="290">Avg: 10.9 km</text><text fill="#FFFFFF" style="font-size:3px; font-family:Arial" x="167" y="285">Min: 10.2 km</text><text fill="#FFFFFF" style="font-size:3px; font-family:Arial" x="167" y="290">Max: 14.0 km</text><polyline fill="none" opacity="1" points="26.972881659283303,75.59999999999854 26.912784129177453,75.34067420830252 26.826930514740525,75.2110110011563 26.749662261776393,75.0165158013042 26.67239400881226,74.80040947603993 26.612296478677308,74.53027575874148 26.646637924481183,74.20611410903075 26.680979370197747,73.91436751523725 26.680979370197747,73.60100889232854 26.663808647339465,73.23362137703225 26.680979370197747,72.94187128090562 26.680979370197747,72.63931451584358 26.69815009314334,72.3583679364383 26.706735454528825,72.06661468807579 26.84410123762791,71.83969476845232 27.08449135805131,71.77486038893403 27.299125394085422,71.75324891757191 27.30771075555822,71.58035693907004 27.376393647078658,71.42907615516742 27.376393647078658,71.18054282549565 27.384979008551454,70.83475605480635 27.19610105676111,70.5862209016559 26.921369490621146,70.44574417343392 26.955710936395917,70.11076022303314 27.007223105058074,69.75416288261476 27.05873527372023,69.45159421120479 27.0930767194659,69.10580005995143 27.153174249571748,68.77081056823226 27.187515695375623,68.50065674320649 27.204686418233905,68.27372683386056 27.290540032612626,68.18727717737784 27.316296116972808,68.00357135094964 27.273369309754344,67.86309014374274 27.3248814784165,67.74422123968543 27.384979008551454,67.50648290815298 27.453661900071893,67.23632486630231 27.51375943014864,66.97697229836922 27.60819840602926,66.64197400237026 27.676881297578802,66.3610066212932 27.762734911986627,66.0584252747285 27.925856779445894,65.9395537222008 28.08897864681785,66.01519927582558 28.31219804432476,66.0368122781656 28.56117352610454,65.87471461999667 28.69853930923273,65.64777735358803 28.818734369415324,65.36680652371433 28.981856236816384,65.07502809185098 29.14497810427565,64.77244194118248 29.308099971647607,64.50227477995941 29.47122183907777,64.2104932336515 29.608587622176856,63.961937754036626 29.76312412810512,63.64854062725499 29.934831356978975,63.31352856452577 30.149465393042192,62.9460943862141 30.36409942910541,62.546237651011324 30.561562742252136,62.21122102872323 30.741855332569685,61.89781712745025 30.93073328427272,61.61683328836807 31.10244051317568,61.3466556006606 31.231220934772864,61.141319955233485 31.402928163617617,60.871140681236284 31.61756219973904,60.55773159419914 31.712001175590558,60.25512856621208 31.840781597216846,59.94171709531656 32.03824491039268,59.660726469512156 32.29580575367436,59.45538654948177 32.52761051262496,59.22843129534158 32.66497629569494,58.979860525316326 32.81092744023772,58.785326346995134 32.91395177756203,58.655636635186966 33.01697611485724,58.417871624093095 33.11141509070876,58.19091346233472 33.22302478944766,58.06122279861302 33.40331737973611,58.01799253121135 33.514927078504115,58.01799253121135 33.6522928616032,57.89910917688394 33.79824400614598,57.71538001328736 33.96995123496163,57.55326569924364 34.15882918672287,57.28307445464452 34.339121777011314,57.0669208099207 34.27902424687636,56.829151134319545 34.27043888543267,56.54814970855659 34.339121777011314,56.277955110424955 34.54517045163084,56.04018311834079 34.74263376480667,55.813218292772945 34.87141418643296,55.54302124246169 35.00019460808835,55.20797564803797 35.18907255982049,54.95939253697725 35.45521876454586,54.72161667323962 35.62692599336151,54.50545619125478 35.764291776460595,54.2028305470958 35.89307219811599,53.90020377195469 36.03902334262966,53.60838402477384 36.33951099312981,53.48949419664132 36.56273039060761,53.40302875747875 36.708681535179494,53.10039899323601 36.794535149558214,52.776151562189625 36.84604731822037,52.50594437777181 36.91473020979902,52.20331126081146 37.00058382420684,51.8358266695941 37.09502280005836,51.533191048052686 37.09502280005836,51.42510662339919 37.17229105302249,51.17651189913886 37.21521786027006,50.81983117903292 37.309656836121576,50.46314888774941 37.40409581197309,50.063230510859285 37.48136406496633,49.69573620681331 37.54146159510128,49.36066641704383 37.627315209509106,49.02559524070966 37.70458346250234,48.67971386228601 37.78185171543737,48.31221327873209 37.833363884157734,47.94471102708485 37.919217498536455,47.60963399094908 37.98790039005689,47.28536457105656 38.08233936596662,46.8854304979468 38.133851534628775,46.60439456198219 38.202534426149214,46.247693700002856 38.25404659481137,45.99908307893929 38.32272948636091,45.815326911870216 38.35707093210658,45.60995187860681 38.40858310076874,45.31810225098161 38.47726599231828,44.9613957218171 38.56311960675521,44.59387826015882 38.62321713680285,44.25878735570586 38.67472930546501,44.09664609761239 38.683314666937804,43.923695064353524 38.73482683559996,43.64264884734439 38.81209508856409,43.296744471655984 38.87219261866994,42.91840986846364 38.940875510219485,42.60493128644157 39.00955840173992,42.388738453657425 39.043899847514695,42.237403127219295 39.06965593184577,42.09687721361115 39.12975346192252,42.01039960711205 39.12116810050793,41.869873299467145 39.11258273906424,41.59962971453933 39.12975346192252,41.351004819676746 39.181265630584676,41.09156933268969 39.24994852216332,40.90780202636961 39.34438749801484,40.810513283526234 39.63628978707129,40.88618231583678 39.92819207609864,41.005090652288345 40.2115090037114,41.080759502685396 40.348874786810484,41.03752016824001 40.38321623255615,40.83213301428623 40.37463087114156,40.561885965151305 40.391801593999844,40.248398257928784 40.40897231688723,39.85923941524379 40.434728401189204,39.480888746846176 40.50341129276785,39.17820693887188 40.391801593999844,39.00524539766775 40.142826112161856,39.00524539766775 39.842338461690815,39.04848581760598 39.567606895492645,39.11334640422865 39.59336297985283,38.85390374591225 39.63628978707129,38.529599253735796 39.71355804006453,38.20529346229887 39.765070208726684,37.89179662888637 39.8595091845491,37.53505737607338 39.92819207609864,37.19993725194945 39.979704244760796,36.8756261333765 40.005460329091875,36.59455544625962 40.048387136281235,36.33510471502814 40.065557859197725,36.15132661056123 40.05697249775403,36.0648426523112 40.2115090037114,35.94592705887044 40.40897231688723,35.85944288117025 40.34028942536679,35.708095347872586 40.22009436515509,35.589179230330046 40.23726508801337,35.40539943233307 40.25443581092986,35.308104076233576 40.434728401189204,35.34053587461676 40.623606352950446,35.34053587461676 40.77814285890781,35.37296765994688 40.92409400345059,35.32972527659149 41.08721587085165,35.28648287010583 41.21599629250704,35.19999798784556 41.23316701539443,34.92973213516234 41.27609382258379,34.44325132633094 41.327605991245946,34.10811840160022 41.353362075577024,33.794605699666135 41.353362075577024,33.64325430547615 41.370532798435306,33.43784838930151 41.370532798435306,33.275685455679195 41.198825569590554,33.22163107228698 40.949850087752566,33.20000930880633 40.786728220351506,33.124333091196604 40.61502099150675,33.07027860669041 40.30594797959202,33.016224086110014 39.98828960620449,32.94054769665672 39.69638731714804,32.87568216367799 39.421655751008075,32.800005642820906 39.06107057040208,32.75676188484795 38.79492436567671,32.64865238881612 38.63180249827565,32.55135371894721 38.391412377910456,32.572975655704795 38.073754004522925,32.55135371894721 37.78185171543737,32.55135371894721 37.47277870349353,32.518920802998764 37.1637056916079,32.486487874077284 36.87180340255145,32.45405493213184 36.55414502919302,32.42162197718426 36.45112069186871,32.400000000001455 36.39960852320655,32.518920802998764 36.33092563165701,32.72432905117603 36.28799882446765,32.91892585808819 36.24507201727829,33.13514398373809 36.227901294332696,33.34055066811561 36.20214521000162,33.53514599353366 36.1077062341501,33.729740851107636 36.03043798118597,33.87028129061946 35.93599900530535,34.08649687492289 35.90165755955968,34.22703669501789 35.824389306566445,34.42162988916971 35.72995033071493,34.56216912738455 35.65268207772169,34.76757219044521 35.56682846331387,34.94054278659314 35.48097484887694,35.135134265510715 35.35219442722155,35.31891467713285 35.30068225855939,35.57836866554135 35.180487198376795,35.84863235247758 35.05170677675051,36.15132661056123 34.89717027079314,36.475640631018905 34.75121912622126,36.77833254443249 34.60526798173669,37.10264405277849 34.48507292152499,37.36209232392139 34.339121777011314,37.67559120876831 34.17599990958115,37.96746838949184 34.055804849398555,38.237724099897605 33.93560978921596,38.47554837872303 33.86692689766642,38.626890737810754 33.82400009044795,38.691751662241586 33.70380503026536,38.756612534714804 33.67804894593428,39.01605550481327 33.60936605435563,39.30792785229278 33.437658825539984,39.58898911823053 33.334634488244774,39.81599942834873 33.26595159666613,39.988959237343806 33.411902741208905,40.07543900325254 33.669463584490586,40.0862489674837 33.96995123496163,40.107868891638645 34.30478033123654,40.15110872263176 34.61385334315128,40.19434853054554 34.9315117165097,40.23758831532177 35.249170089897234,40.28082807705505 35.5324870175391,40.3240678156435 35.77287713790429,40.334877746674465 35.91024292097427,40.23758831532177 35.95316972822184,40.01057918747392 35.987511173967505,39.805189427992445 36.00468189682579,39.77275941838161 36.15921840281226,39.85923941524379 36.184974487143336,40.032199131834204 36.1162915956229,40.39973730262864 36.056194065487944,40.77808367663965 35.987511173967505,41.10237916125334 35.91024292097427,41.50234180316329 35.84156002945383,41.837444116892584 35.764291776460595,42.16173535789858 35.72995033071493,42.43197706640785 35.63551135483431,42.767075532152376 35.644096716248896,43.069743921900226 35.61834063191782,43.38322070412687 35.39512123441091,43.64264884734439 35.32643834289047,43.891266704500595 35.24058472845354,44.20474030576588 35.24058472845354,44.46416581647645 35.21482864412246,44.745209181681275 35.386535872967215,44.88573049844126 35.31785298141767,45.22081880798942 35.27492617422831,45.57752419417375 35.171901836904,45.99908307893929 35.10321894538356,46.3341667805289 35.04312141527771,46.712485422009195 35.025950692390325,47.03675713631674 35.017365330975736,47.37183654333057 35.00877996950294,47.706914563663304 35.00877996950294,48.0528000977647 34.98302388517186,48.40949300726788 34.97443852375727,48.744566733301326 34.9400970779825,49.06883030910103 34.91434099365142,49.36066641704383 34.85424346351647,49.706544886605116 34.794145933468826,50.063230510859285 34.73404840333387,50.355063034716295 34.78556057199603,50.70093725651532 34.72546304194839,51.0251929976439 34.64819478895515,51.38187281314458 34.45931683719391,51.67370058444067 34.26185352404718,51.911485398239165 33.995707319292706,52.116844448239135 33.7724879218149,52.3222029773824 33.52351243997691,52.53836928753299 33.32604912680108,52.76534329212882 33.24019551233505,52.90585069041117 33.12000045212335,53.02474137545505 32.99122003055527,53.23009760210698 32.90536641608924,53.467877845527255 32.79375671732123,53.78131437225238 32.62204948847648,54.10555777839909 32.458927621046314,54.40818378613767 32.30439111511805,54.678384623002785 32.2442935850122,54.92696859667922 32.2442935850122,55.15393590614258 32.416000813856954,55.29443915992306 32.347317922336515,55.58625283109723 32.29580575367436,55.80241042805574 32.32156183800544,55.85644973716262 32.192781416350044,55.83483401785634 32.029659548948985,56.050990951298445 31.832196235773154,56.38603305784636 31.634732922597323,56.580572999781 31.420098886534106,56.80753567464126 31.3084891877661,57.08853620036098 31.21405021188548,57.369535750993236 31.050928344513522,57.596496214711806 30.913562561414437,57.60730383996997 30.664587079605553,57.60730383996997 30.415611597767565,57.564073330278916 30.11512394726742,57.531650432836614 29.806050935352687,57.531650432836614 29.60000226070406,57.54245806675317 29.462636477634078,57.596496214711806 29.393953586084535,57.618111463780224 29.290929248789325,57.845071230854956 29.162148827133933,58.05041523391992 29.127807381359162,58.33141144699766 29.03336840547854,58.56917671192059 28.930344068154227,58.76371140944684 28.904587983852252,58.83936366562557 28.689953947759932,59.04470514758577 28.501075996056898,59.23923870281578 28.355124851543223,59.47700130243902 28.466734550282126,59.62830441148981 28.51824671891518,59.703955860008136 28.53541744183167,59.89848783169873 28.60410033338121,60.15786306713562 28.578344249050133,60.34158668955206 28.51824671891518,60.15786306713562 28.337954128655838,60.33077942919044 28.183417622669367,60.59015328015812 28.046051839570282,60.817104718254996 27.857173887867248,61.06566984936944 27.728393466211855,61.33584847441671 27.625369128916645,61.584412013449764" stroke="#4DD2FF" stroke-dasharray="none" stroke-linecap="round" stroke-linejoin="round" stroke-width="0.5"><title>2017-12-17 14.0km</title><desc>9223370523376934807</desc></polyline><polyline fill="none" opacity="1" points="100.51599864318268,32.40000000000873 100.48953717428958,32.649753925492405 100.63507525308523,32.89950735151069 100.66153672197834,33.16591045516543 100.67476745642489,33.4822634026641 100.68799819087144,33.78196545568062 100.66153672197834,34.081666789366864 100.66153672197834,34.431317436217796 100.58215231535723,34.74766717784223 100.52922937757103,34.947466601690394 100.67476745642489,35.14726570586208 100.63507525308523,35.91315931039571 100.74092112859944,36.19620575803856 100.8599977385602,36.479251564116566 100.89968994195806,36.7789464242087 100.9393821452395,37.145239165300154 100.95261287962785,37.494881234073546 100.97907434846275,37.84452232385229 101.03199728630716,38.17751292779576 101.13784316176316,38.46055424303631 101.17753536510281,38.76024434817373 101.21722756844247,39.04328434258059 101.24368903739378,39.35962240070512 101.40245785063598,39.459518463059794 101.60091886721784,39.57606376823969 101.6141496016644,39.74255687261757 101.4818422573153,39.859101913622 101.33630417840322,40.008945377892815 101.41568858508253,40.24203485387261 101.54799592943164,40.55836987543444 101.68030327383894,40.87470409569505 101.7464569460135,41.15773929771967 101.86553355603246,41.45742293007788 102.01107163482811,41.75710584336775 102.18307118257508,42.056788037429214 102.26245558919618,42.33982056037348 102.03753310366301,42.48966104813735 101.78614914935315,42.373118462084676 101.58768813271308,42.223277834491455 101.34953491290798,42.056788037429214 101.15107389626792,42.14003296365263 100.9129206762882,42.15668194228783 100.68799819087144,42.23992680197989 100.67476745642489,42.47301211391459 100.68799819087144,42.722745893974206 100.46307570539648,42.8725859222759 100.22492248547496,42.95583030481066 99.947077062272,43.03907463181531 99.66923163901083,43.05572349052818 99.61630870122463,42.83928815378749 99.66923163901083,42.60620352542901 99.7618467801367,42.27322473032109 99.85446192120435,42.00684105500113 99.90738485893235,41.64056257362245 99.96030779666035,41.25763392173394 99.9206155933789,40.97459894613712 99.86769265559269,40.575019064868684 99.70892384229228,40.375228644828894 99.40461695025442,40.40852707037993 99.1929251991678,40.258684085536515 99.15323299588636,40.12549017024867 99.12677152699325,39.90904975499143 99.12677152699325,39.69260896461492 99.0076949170325,39.592713088641176 98.83569536928553,39.57606376823969 98.65046508715022,39.55941444558266 98.55784994608257,39.64266103664704 98.58431141497567,39.925699031038675 98.59754214936402,40.24203485387261 98.59754214936402,40.55836987543444 98.62400361825712,40.858054946147604 98.63723435276188,41.191037514596246 98.63723435276188,41.54066825592599 98.63723435276188,41.84035096940352 98.63723435276188,42.14003296365263 98.63723435276188,42.423065297989524 98.65046508715022,42.722745893974206 98.66369582159678,43.03907463181531 98.67692655604333,43.272158452207805 98.66369582159678,43.48859303879726 98.65046508715022,43.68837847809482 98.63723435276188,43.954758566687815 98.61077288386878,44.187840678103385 98.59754214936402,44.33767894853372 98.57108068047091,44.58740899985423 98.54461921163602,44.80384130704624 98.54461921163602,45.036921833787346 98.54461921163602,45.28665048688708 98.54461921163602,45.58632421141374 98.54461921163602,45.919294173130766 98.53138847718947,46.23561481444631 98.54461921163602,46.53528626196203 98.54461921163602,46.83495699046762 98.57108068047091,47.13462699987576 98.58431141497567,47.46759283369465 98.57108068047091,47.717316626469255 98.57108068047091,48.01698451874836 98.54461921163602,48.25005904897989 98.55784994608257,48.48313314425468 98.50492700829636,48.732854906484135 98.55784994608257,48.99922423585667 98.59754214936402,49.24894496623892 98.63723435276188,49.548609183577355 98.67692655604333,49.84827268194931 98.71661875932477,50.214527092452045 98.80923390045064,50.58078042892157 98.90184904146008,50.93038488458842 99.0076949170325,51.1634539780498 99.1135407925467,51.479761337832315 99.2193866680609,51.779420202889014 99.33846327802166,52.02913537458517 99.40461695025442,52.145668950499385 99.48400135681732,52.36208816022554 99.60307796683628,52.59515458205715 99.65600090462249,52.8448681228183 99.69569310790394,52.9780484738003 99.78830824897159,53.144523712806404 99.93384632776724,53.261056248040404 100.01323073444655,53.444178583842586 100.13230734440731,53.594005749735516 100.25138395436807,53.79377502476564 100.34399909537751,53.99354398029391 100.52922937757103,54.17666524210654 100.71445965982275,54.39308093274303 100.8864592074533,54.642790878991946 101.05845875520026,54.89250032615382 101.21722756844247,55.12556202634005 101.28338124067523,55.24209271334985 101.38922711618943,55.475153761261026 101.56122666387819,55.7415087120753 101.7199954771786,55.94127455243142 101.90522575931391,56.25756981296581 102.03753310366301,56.457334828024614 102.19630191702163,56.74033471914299 102.35507073026383,57.00668697207584 102.5006088091177,57.25639169337228 102.69906982569955,57.57268362377363 102.85783863899997,57.839034101882135 103.04306892113527,58.122030862548854 103.22829920332879,58.405026982029085 103.40029875095934,58.68802246041014 103.5987597675994,59.02095749649743 103.75752858089982,59.27065819116251 103.96922033187002,59.58694502123399 104.11475841072388,59.836644584531314 104.23383502068464,60.05305046893773 104.39260383398505,60.286102540630964 104.55137264728546,60.55244723294163 104.72337219503243,60.81879135737836 104.85567953943973,61.03519554033119 105.01444835268194,61.28489220865595 105.19967863481725,61.534588377864566 105.38490891701076,61.800930408149725 105.53044699580641,62.067271870648256 105.66275434015552,62.31696647591889 105.83475388796069,62.63324559282046 106.01998417003779,62.93287770173629 106.17875298339641,63.19921675075602 106.35075253108516,63.49884750213823 106.57567501656013,63.83176971630019 106.74767456424888,64.09810684881813 106.89321264310274,64.31450535086333 107.05198145634495,64.59748744178796 107.22398100409191,64.88046889164252 107.39598055178067,65.19674151818617 107.58121083397418,65.51301334408345 107.72674891276984,65.7959927200427 107.8722869916819,66.09561724300147 108.01782507047756,66.41188679319748 108.12367094599176,66.71150983902044 108.20305535261286,67.04442349147575 108.24274755595252,67.22752562217647 108.13690168043831,67.36069063957257 108.0839787426521,67.47720991339884 108.16336314933142,67.39398187173356 108.29567049368052,67.37733625678811 108.38828563480638,67.59372907850775 108.46767004142748,67.8600581906212 108.57351591694169,68.14303225021285 108.69259252690244,68.45929661711853 108.8116691368632,68.7922056120151 108.91751501237741,69.12511371982691 109.01013015344506,69.37479421850003 109.10274529451272,69.65776484708476 109.22182190447347,69.94073483470129 109.32766777998768,70.20705894353159 109.43351365550188,70.47338248456072 109.51289806212299,70.70641511723807 109.5658209999674,70.93944731524971 109.6452054065885,71.22241439994832 109.75105128210271,71.50538084367872 109.8568971575587,71.82163669887814 109.94951229868457,72.10460178548237 110.04212743975222,72.37092128147196 110.14797331520822,72.68717494569137 110.22735772188753,72.92020344914636 110.35966506635305,73.23645572294481 110.46551094180904,73.50277280624141 110.57135681732325,73.78573408530792 110.690433427284,74.085339446945 110.79627930279821,74.3350100328098 110.88889444392407,74.56803546282754 110.96827885054518,74.80106045819412 111.10058619489428,75.01744042192877 111.15350913268048,75.13395255485375 111.19320133602014,75.30039827052678 111.15350913268048,75.53342190003605 110.99474031943828,75.56671095441561 110.83597150613787,75.36697649472626 110.67720269283745,75.15059713638038 110.46551094180904,74.85099432923016 110.22735772188753,74.56803546282754 109.94951229868457,74.25178655961645 109.6716668754234,74.03540526988218 109.44674438994844,73.78573408530792 109.18212970119203,73.5360624017776 108.97043795016361,73.26974538934883 108.74551546463044,73.07000725757098 108.48090077593224,72.82033414371836 108.22951682150597,72.57066053096787 107.96490213269135,72.32098641921766 107.72674891276984,72.07131180855504 107.47536495845998,71.82163669887814 107.21075026970357,71.60525120024977 106.93290484638419,71.40551040731953 106.64182868873468,71.27234970127756 106.29782959329896,71.17247907859564 105.95383049786324,71.10589861916378 105.63629287132062,71.07260837612557 105.318755244778,70.98938272973464 105.02767908707028,70.92280217267398 104.71014146052767,70.8562215801503 104.39260383398505,70.80628611247812 104.07506620744243,70.7729957896081 103.69137490872527,70.6564795896993 103.4664524231921,70.58989885523624 103.30768360994989,70.55660847463878 103.12245332781458,70.52331808528106 102.92399231117452,70.47338248456072 102.7123005601461,70.45673727990652 102.5270702780108,70.42344686381693 102.34183999581728,70.39015643895254 102.15660971362377,70.35686600521149 101.94491796265356,70.30693033791613 101.7464569460135,70.25699465068465 101.54799592943164,70.19041370332707 101.37599638174288,70.14047796952946 101.01876655186061,69.9740253793716 100.68799819087144,69.84086314757587 100.33076836104738,69.72434607830655 100.09261514106765,69.67441015822988 99.7618467801367,69.57453825815173 99.44430915353587,69.47466627822723 99.10031005804194,69.37479421850003 98.75631096272264,69.27492207891191 98.39908113278216,69.17504985946289 98.14769717841409,69.07517756018206 97.73754441080382,69.00859598301759 97.3935453153681,68.84214188474289 97.10246915766038,68.74226931932208 96.90400814107852,68.67568756474066 96.62616271787556,68.55916940876341 96.29539435688639,68.4759420879127 95.99108746479033,68.3094872799702 95.66031910374295,68.10974121767504 95.35601221164688,67.90999483596534 95.06493605393916,67.66031140975247 94.84001356852241,67.37733625678811 94.628321817494,67.09436046275368 94.56216814526124,66.86132109239406 94.46955300419359,66.64492700200935 94.33724565972807,66.42853253679641 94.21816904982552,66.22878346701327 94.08586170541821,66.0290340778156 93.95355436106911,65.72940939514956 93.78155481332215,65.4131381171319 93.60955526563339,65.06357419412234 93.45078645233298,64.68071734647674 93.25232543575112,64.29785932552477 93.05386441911105,63.88170797190105 92.8818648714805,63.582078138832 92.73632679256843,63.26580142429157 92.57755797926802,62.91623149230145 92.40555843163747,62.516721800828236 92.22032814944396,62.1172108315659 92.0218671328621,61.73434495383117 91.83663685072679,61.33483148236701 91.65140656853328,60.96860967784596 91.45294555195142,60.60238679952454 91.294176738651,60.21951627879753 91.10894645645749,59.836644584531314 90.96340837766184,59.520358386755106 90.79140882991487,59.13748454944289 90.63264001667267,58.83784333647054 90.51356340671191,58.60478856273403 90.43417900009081,58.288499245813 90.28864092123695,57.90562163265713 90.19602578011109,57.53938977410144 90.1166413736064,57.139862885538605 90.05048770131543,56.84021688051871 90.01079549803399,56.50727603187261 89.95787256030599,56.09109872310364 89.93141109135468,55.758155877672834 89.89171888807323,55.34197607287206 89.83879595028702,55.00903123059834 89.79910374700557,54.6594381910254 89.81233448139392,54.30984417296713 89.77264227811247,53.926954363894765 89.78587301250082,53.57735829574813 89.81233448139392,53.244408749669674 89.79910374700557,52.894810771089396 89.79910374700557,52.54521181399468 89.70648860593792,52.145668950499385 89.65356566815171,51.779420202889014 89.62710419925861,51.37987488968065 89.60064273036551,51.063567276942194 89.58741199597716,50.6806675161497 89.54771979263751,50.3976538949064 89.48156612046296,50.08134379470721 89.4947968548513,49.648497096277424 89.57418126153061,49.298889052370214 89.60064273036551,48.91598388145212 89.60064273036551,48.68291059398325 89.61387346481206,48.4331887318549 89.64033493376337,48.31665169198823 89.58741199597716,48.05028090682754 89.54771979263751,47.733964861545246 89.5212583236862,47.40099973793258 89.4947968548513,47.06803372656577 89.48156612046296,46.80166027834639 89.4418739171233,46.41874745115638 89.362489510444,46.01918498854502 89.34925877605565,45.636269762253505 89.32279730716255,45.23670479620341 89.29633583821123,44.9703274420026 89.25664363492979,44.58740899985423 89.20372069720179,44.28773287840886 89.20372069720179,44.07129967676883 89.21695143164834,43.721676020213636 89.21695143164834,43.38870019928436 89.20372069720179,43.05572349052818 89.16402849392034,42.77269259003515 89.11110555613413,42.423065297989524 89.08464408724103,42.09008601457754 89.09787482168758,41.72380777739454 89.12433629058069,41.42412478427286 89.08464408724103,41.0411954686715 89.03172114945482,40.72486167019815 89.00525968061993,40.35857942875009 89.00525968061993,40.058893159395666 89.03172114945482,39.94234830487403 89.04495188390138,39.72590757216676 89.00525968061993,39.492817132835626 88.99202894617338,39.1931287858024 88.93910600838717,38.91008913097903 88.85972160176607,38.543801566629554 88.84649086731952,38.17751292779576 88.83326013287297,37.827872770358226 88.83326013287297,37.5115308319655 88.80679866397986,37.07864056501421" stroke="#4DD2FF" stroke-dasharray="none" stroke-linecap="round" stroke-linejoin="round" stroke-width="0.5"><title>2017-11-19 11.8km</title><desc>9223370525802103807</desc></polyline><polyline fill="none" opacity="0.5" points="187.36553595680743,66.92713472119067 187.07245590235107,67.90012193983421 185.95875169616193,68.10861900402233 185.255359566072,68.17811800987693 184.4933514248114,67.96962096903007 183.49687924026512,68.10861900402233 182.55902306665666,68.10861900402233 181.62116689281538,68.17811800987693 180.56607869756408,68.10861900402233 179.8040705563035,67.96962096903007 178.9834464045707,67.96962096903007 178.22143826354295,67.96962096903007 177.3421981006395,67.76112385862507 176.52157394844107,66.99663385830354 175.5837177745998,66.92713472119067 174.82170963380486,66.85763557621976 173.88385345996358,66.57963891886175 173.1218453189358,66.7186372630531 172.3012211669702,66.64913809474092 171.36336499336176,66.7186372630531 170.54274084139615,66.51013973512454 169.6635006784927,66.64913809474092 168.72564450465143,66.78813642339082 167.72917232010514,66.44064054382034 166.90854816813953,66.30164213792887 166.20515603781678,66.16264370107092 165.384531886084,66.16264370107092 164.62252374505624,65.88464673480485 163.7432835821528,65.88464673480485 162.9226594301872,65.74564820510568 162.21926729986444,65.95414598792559 160.98833107203245,65.39815174596151 159.99185888725333,65.25915310822893 159.05400271364488,65.18965377786662 157.99891451839358,65.25915310822893 157.58860244229436,65.32865243108245 156.47489823610522,65.60664964455646 155.0681139754597,64.98115574021358 154.07164179091342,64.14716289372882 153.19240162800997,64.35566120949807 152.19592944346368,64.00816397793824 151.3166892810259,63.869165030890144 150.61329715070315,64.00816397793824 149.9099050203804,63.7996655459865 149.20651289005764,63.52166752866469 148.3272727271542,63.59116704465123 147.56526458612643,63.938664508285 146.27571234712377,63.52166752866469 145.57232021703385,63.1046702710446 145.22062415187247,62.34017457580194 144.75169606506824,61.575677945744246 144.6930800541304,60.463681178574916 144.81031207600608,59.49068238417385 144.81031207600608,58.378681907604914 144.6930800541304,57.40567986789392 144.6930800541304,56.0851746769622 144.51723202154972,55.39017082436476 144.39999999990687,54.34766359644709 144.6344640434254,53.37465528177563 144.6344640434254,52.540646949375514 144.8689280867111,51.845639155537356 144.6930800541304,50.942127868242096 144.98616010835394,49.96911425224971 144.92754409764893,48.92659798276145 145.10339213022962,48.30108738626586 145.16200814116746,47.05006431584479 145.10339213022962,45.93804170633666 145.16200814116746,44.9650203002966 145.22062415187247,44.20050241862191 145.39647218445316,43.296980080136564 145.57232021703385,42.32395456265658 145.39647218445316,41.3509275301476 145.39647218445316,40.65590729378164 145.27924016257748,39.821881990123075 145.39647218445316,40.65590729378164 145.39647218445316,41.3509275301476 145.57232021703385,42.32395456265658 145.39647218445316,43.296980080136564 145.22062415187247,44.20050241862191 145.16200814116746,44.9650203002966 145.10339213022962,45.93804170633666 145.16200814116746,47.05006431584479 145.10339213022962,48.30108738626586 144.92754409764893,48.92659798276145 144.98616010835394,49.96911425224971 144.6930800541304,50.942127868242096 144.8689280867111,51.845639155537356 144.6344640434254,52.540646949375514 144.6344640434254,53.37465528177563 144.39999999990687,54.34766359644709 144.51723202154972,55.39017082436476 144.6930800541304,56.0851746769622 144.6930800541304,57.40567986789392 144.81031207600608,58.378681907604914 144.81031207600608,59.49068238417385 144.6930800541304,60.463681178574916 144.75169606506824,61.575677945744246 145.22062415187247,62.34017457580194 145.57232021703385,63.1046702710446 146.27571234712377,63.52166752866469 147.56526458612643,63.938664508285 148.3272727271542,63.59116704465123 149.20651289005764,63.52166752866469 149.9099050203804,63.7996655459865 150.61329715070315,64.00816397793824 151.3166892810259,63.869165030890144 152.19592944346368,64.00816397793824 153.19240162800997,64.35566120949807 154.07164179091342,64.14716289372882 155.0681139754597,64.98115574021358 156.47489823610522,65.60664964455646 157.58860244229436,65.32865243108245 157.99891451839358,65.25915310822893 159.05400271364488,65.18965377786662 159.99185888725333,65.25915310822893 160.98833107203245,65.39815174596151 162.21926729986444,65.95414598792559 162.9226594301872,65.74564820510568 163.7432835821528,65.88464673480485 164.62252374505624,65.88464673480485 165.384531886084,66.16264370107092 166.20515603781678,66.16264370107092 166.90854816813953,66.30164213792887 167.72917232010514,66.44064054382034 168.72564450465143,66.78813642339082 169.6635006784927,66.64913809474092 170.54274084139615,66.51013973512454 171.36336499336176,66.7186372630531 172.3012211669702,66.64913809474092 173.1218453189358,66.7186372630531 173.88385345996358,66.57963891886175 174.82170963380486,66.85763557621976 175.5837177745998,66.92713472119067 176.52157394844107,66.99663385830354 177.3421981006395,67.76112385862507 178.22143826354295,67.96962096903007 178.9834464045707,67.96962096903007 179.8040705563035,67.96962096903007 180.56607869756408,68.10861900402233 181.62116689281538,68.17811800987693 182.55902306665666,68.10861900402233 183.49687924026512,68.10861900402233 184.4933514248114,67.96962096903007 185.255359566072,68.17811800987693 185.95875169616193,68.10861900402233 187.07245590235107,67.90012193983421 187.36553595680743,66.92713472119067 187.5999999998603,66.0236452333047 187.5999999998603,65.53715035278583 187.5999999998603,64.425160632818 187.54138398938812,63.73016605316661 187.5999999998603,62.8266719445819 187.5999999998603,62.06217590958113 187.48276797845028,61.08917960344115 187.42415196751244,60.3941813147394" stroke="#4DD2FF" stroke-dasharray="1,0.5" stroke-linecap="round" stroke-linejoin="round" stroke-width="0.5"><title>2014-03-22 10.5km</title><desc>9223370641410674807</desc></polyline><polyline fill="none" opacity="1" points="55.600000000034925,99.67219591503817 55.463722397515085,99.6958893631745 55.327444794995245,99.74327624221041 55.20090130693279,99.74327624221041 55.07435781887034,99.82620322532603 54.92834610189311,99.84989663615852 54.79206849937327,99.81435651775973 54.64605678233784,99.79066309832706 54.51951329433359,99.77881638646795 54.412438035185914,99.8380499314444 54.276160432666074,99.81435651775973 54.15935105906101,99.79066309832706 54.02307345659938,99.81435651775973 53.88679585402133,99.79066309832706 53.78945470933104,99.71958280555555 53.68237945024157,99.70773608509626 53.55583596217912,99.71958280555555 53.429292474116664,99.75512295837689 53.28328075708123,99.75512295837689 53.16647138353437,99.76696967313183 53.03992789547192,99.71958280555555 52.884182064037304,99.7314295246324 52.77710680488963,99.74327624221041 52.62136097345501,99.74327624221041 52.48508337093517,99.74327624221041 52.378008111787494,99.74327624221041 52.23199639481027,99.74327624221041 52.105452906747814,99.7314295246324 51.98864353314275,99.71958280555555 51.871834159537684,99.70773608509626 51.75502478593262,99.6958893631745 51.628481297928374,99.7314295246324 51.50193780986592,99.7314295246324 51.37539432180347,99.71958280555555 51.24885083374102,99.6958893631745 51.122307345678564,99.67219591503817 51.03470031544566,99.67219591503817 50.888688598468434,99.67219591503817 50.7524109960068,99.6958893631745 50.62586750794435,99.6958893631745 50.4993240198819,99.68404263980483 50.36304641736206,99.6485024611975 50.24623704375699,99.67219591503817 50.11969355569454,99.67219591503817 49.963947724259924,99.66034918883815 49.85687246511225,99.62480900159426 49.701126633619424,99.6129622696244 49.555114916700404,99.6485024611975 49.39936908520758,99.6485024611975 49.28255971160252,99.66034918883815 49.13654799462529,99.6485024611975 49.019738621020224,99.6485024611975 48.883461018500384,99.66034918883815 48.776385759410914,99.6485024611975 48.649842271290254,99.63665573209437 48.52329878328601,99.66034918883815 48.39675529516535,99.6485024611975 48.270211807161104,99.6485024611975 48.163136548071634,99.67219591503817 48.026858945551794,99.68404263980483 47.91978368634591,99.68404263980483 47.793240198283456,99.68404263980483 47.627760252391454,99.67219591503817 47.520684993301984,99.67219591503817 47.36493916180916,99.67219591503817 47.277332131634466,99.67219591503817 47.150788643572014,99.67219591503817 47.02424515550956,99.66034918883815 46.89770166744711,99.67219591503817 46.76142406492727,99.63665573209437 46.644614691322204,99.63665573209437 46.498602974344976,99.62480900159426 46.362325371825136,99.62480900159426 46.235781883762684,99.6129622696244 46.128706624615006,99.6129622696244 45.992429022095166,99.6485024611975 45.83668319071876,99.67219591503817 45.719873817055486,99.6485024611975 45.583596214593854,99.63665573209437 45.457052726473194,99.62480900159426 45.34024335286813,99.60111553622119 45.184497521433514,99.62480900159426 45.067688147886656,99.60111553622119 44.92167643085122,99.58926880142099 44.78539882833138,99.58926880142099 44.64912122575333,99.62480900159426 44.52257773774909,99.6129622696244 44.366831906314474,99.57742206518014 44.220820189337246,99.55372858836199 44.094276701274794,99.54188184778468 43.957999098696746,99.50634161751805 43.821721496176906,99.51818836235907 43.70491212263005,99.53003510581038 43.578368634567596,99.55372858836199 43.46155926096253,99.56557532749866 43.33501577290008,99.6129622696244 43.208472284837626,99.6129622696244 43.072194682317786,99.60111553622119 42.94565119425533,99.58926880142099 42.83857593516586,99.57742206518014 42.7120324470452,99.60111553622119 42.58548895904096,99.58926880142099 42.46867958543589,99.6129622696244 42.32266786840046,99.57742206518014 42.17665615148144,99.60111553622119 42.06958089233376,99.57742206518014 41.93330328975571,99.57742206518014 41.80675980175147,99.57742206518014 41.699684542662,99.54188184778468 41.56340694008395,99.51818836235907 41.41739522310672,99.53003510581038 41.271383506129496,99.54188184778468 41.12537178915227,99.51818836235907 41.0085624155472,99.53003510581038 40.87228481302736,99.53003510581038 40.726273096050136,99.51818836235907 40.599729607929476,99.51818836235907 40.47318611992523,99.53003510581038 40.327174402889796,99.54188184778468 40.190896800369956,99.56557532749866 40.07408742676489,99.53003510581038 39.947543938760646,99.49449487122911 39.811266336240806,99.50634161751805 39.68472284817835,99.48264812348498 39.548445245600305,99.49449487122911 39.43163587205345,99.51818836235907 39.31482649850659,99.49449487122911 39.17854889598675,99.47080137433659 39.032537178951316,99.47080137433659 38.91572780534625,99.47080137433659 38.76971608836902,99.44710787171061 38.67237494373694,99.42341436333663 38.54583145561628,99.42341436333663 38.40955385315465,99.42341436333663 38.31221270846436,99.44710787171061 38.16620099148713,99.43526111822575 38.02992338896729,99.44710787171061 37.90337990090484,99.48264812348498 37.75736818392761,99.48264812348498 37.62109058140777,99.49449487122911 37.52374943671748,99.45895462375483 37.38747183419764,99.45895462375483 37.260928346193396,99.45895462375483 37.15385308704572,99.43526111822575 36.998107255552895,99.45895462375483 36.87156376754865,99.44710787171061 36.71581793599762,99.43526111822575 36.589274447993375,99.44710787171061 36.49193330336129,99.43526111822575 36.248580441693775,99.44710787171061 35.96629112219671,99.43526111822575 35.75214060390135,99.39972084924375 35.52825597120682,99.39972084924375 35.09022082021693,99.45895462375483 34.81766561517725,99.38787409004726 34.64245155476965,99.36418056730326 34.30175754852826,99.38787409004726 34.13627760257805,99.34048703888402 33.98053177114343,99.32864027252799 33.68850833718898,99.37602732938831 33.4062190176337,99.41156760701415 33.1531320415088,99.51818836235907 32.94871563772904,99.49449487122911 29.10374042368494,99.28125319264655 28.879855790990405,99.28125319264655 28.636502929322887,99.24571286774153 28.315277151938062,99.32864027252799 28.062190175813157,99.25755964414566 27.799369085230865,99.21017252987804 27.448940964473877,99.21017252987804 24.295087877486367,99.1746321791361 24.061469130276237,99.19832574771135 23.749977467407007,99.1746321791361 23.526092834712472,99.13909181543568 23.273005858587567,99.04431744921749 22.971248310117517,99.12724502467609 22.65002253273269,99.13909181543568 22.42613789997995,99.15093860475463 19.9050022533047,99.11539823249768 19.57404236146249,99.11539823249768 19.408562415570486,99.11539823249768 19.243082469620276,99.13909181543568 19.19441189733334,99.07985784732591 19.048400180297904,99.09170464379713 18.71744028845569,99.10355143888592 18.59089680039324,99.03247064699826 18.328075709810946,99.00877703825972 18.113925191632006,99.03247064699826 17.90950878779404,99.03247064699826 17.763497070758604,98.99693023171858 16.72194682294503,99.02062384334567 16.420189274533186,99.03247064699826 16.186570527323056,98.94954299122037 15.962685894570313,98.99693023171858 15.612257773813326,98.98508342372224 15.378639026603196,99.02062384334567 15.15475439390866,99.06801104941405 14.891933303384576,99.00877703825972 14.619378098286688,98.98508342372224 14.385759351134766,98.9732366143362 14.074267688207328,98.94954299122037 13.889319513342343,98.94954299122037 13.675168995105196,98.96138980348042 13.207931500743143,98.98508342372224 13.01324921142077,98.87846208746487 12.993780982447788,99.15093860475463 13.022983325878158,99.36418056730326 13.061919783765916,99.54188184778468 12.974312753533013,99.74327624221041 12.857503379986156,99.76696967313183 12.87697160890093,99.45895462375483 12.67255520512117,99.47080137433659 12.507075259229168,99.6485024611975 12.43893645791104,99.79066309832706 12.419468228996266,99.98021029322263 12.468138801283203,100.31191700080672 12.487607030256186,100.56069629363628 12.60441640386125,100.91609418619191 12.614150518318638,101.15302539749246 12.67255520512117,101.42549558127212 12.701757548493333,101.66242555920326 12.760162235295866,101.82827620241733 12.789364578668028,102.0652052051446 12.789364578668028,102.33767284910573 12.80883280764101,102.61013973446825 12.857503379986156,102.89445219728077 12.857503379986156,103.16691753242776 12.867237494443543,103.4393821089252 12.886705723358318,103.71184592686768 12.867237494443543,103.96061657636164 12.867237494443543,104.26861745672795 12.818566922156606,104.49369441011368 12.838035151013173,104.80169361270964 12.818566922156606,104.99123110177607" stroke="#4DD2FF" stroke-dasharray="none" stroke-linecap="round" stroke-linejoin="round" stroke-width="0.5"><title>2013-12-10 10.9km</title><desc>9223370650177580807</desc></polyline><polyline fill="none" opacity="1" points="102.39958906918764,80.6918944849167 99.04016437195241,80.6918944849167 96.64057530183345,81.85947207268327 93.52110951114446,83.90273149451241 91.36147934850305,88.2811387181282 91.36147934850305,91.78385877958499 90.16168481484056,95.87035909830593 89.68176699988544,98.49739136477001 88.72193137276918,102.58388032088988 88.96189028024673,106.37847101641819 88.2420135596767,109.29738287813962 88.2420135596767,113.09196302411146 88.2420135596767,116.01086677075364 89.4418080933392,118.34598722797818 91.84139716345817,121.84866367932409 94.72090404573828,123.01622136775404 98.56024655792862,123.60000000009313 102.15963016077876,122.43244259478524 104.07930141687393,119.80543636670336 106.71884939447045,117.47031732159667 108.39856174215674,113.38385355728678 108.39856174215674,110.17305574938655 109.59835627768189,106.08657963620499 110.07827409170568,102.87577212415636 110.79815081227571,99.08117592497729 111.7579864403233,94.70278828428127 111.7579864403233,92.07575188926421 111.51802753377706,87.69735154649243 110.31823299825191,84.19462555623613 108.87847955618054,81.85947207268327 105.51905485894531,80.98378893476911 103.11946578975767,80.4000000001397 99.28012327849865,80.6918944849167 96.16065748780966,82.44326065597124 93.04119169805199,85.36220145085827 90.64160262793303,88.57303225062788 90.40164372138679,92.36764496355318 89.92172590643167,95.87035909830593 89.4418080933392,99.37306815129705 88.72193137276918,102.58388032088988 88.72193137276918,106.37847101641819 88.2420135596767,110.17305574938655 88.72193137276918,113.96763451839797 89.20184918586165,117.47031732159667 91.36147934850305,119.80543636670336 94.24098623264581,121.55677416943945 97.60041092988104,122.43244259478524 101.43975344114006,122.1405531547498 105.27909595239908,119.51354661001824 107.67868502158672,117.17842728225514 108.39856174215674,112.80007245577872 109.11843846272677,108.71360078873113 109.59835627768189,104.33523061382584" stroke="#4DD2FF" stroke-dasharray="none" stroke-linecap="round" stroke-linejoin="round" stroke-width="0.5"><title>2013-11-30 10.3km</title><desc>9223370651086224807</desc></polyline><polyline fill="none" opacity="1" points="162.1545431893319,82.6012937091291 162.38074653036892,83.7019397658296 160.34491645358503,85.07774658850394 156.27325630094856,88.93000126630068 157.17806966789067,92.23192865797319 156.49945964291692,95.80901126144454 156.27325630094856,100.76188558526337 156.49945964291692,104.06379581429064 153.55881619919091,107.36570125445724 154.46362956706434,109.8421271899715 155.82084961794317,112.31855043233372 155.82084961794317,116.17075901036151 156.49945964291692,118.37201812700368 157.40427300985903,119.47264688764699 159.44010308664292,122.22421646025032 162.83315321430564,122.22421646025032 166.67861002590507,123.60000000009313 167.58342339284718,121.6739028126467 171.20267686247826,119.74780399515294 174.8219303302467,115.89560147118755 175.72674369905144,114.51981327589601 177.53637043293566,112.04339242749847 176.85776040703058,106.8153840135783 176.17915038205683,105.71474913298152 176.4053537240252,101.86252286075614 177.762573774904,96.90965093066916 177.762573774904,95.80901126144454 176.17915038205683,92.78224942437373 178.44118379987776,90.30580492829904 176.85776040703058,89.20516206463799 175.2743370141834,86.72871367656626 173.23850693926215,83.7019397658296 171.4288802035153,83.15161680453457 168.4882367597893,80.4000000001397 163.9641699232161,82.6012937091291 160.79732313752174,85.90323028201237 157.85667969379574,88.93000126630068 156.72566298395395,90.85612616012804 156.49945964291692,95.25869122636504 158.0828830357641,99.38608824228868 156.27325630094856,102.96315960329957 155.36844293307513,105.43959032977 156.0470529589802,107.64085982413962 155.1422395920381,110.6676019039005 155.36844293307513,113.69433995871805 155.36844293307513,117.27138883504085 157.40427300985903,118.64717536675744 160.118713112548,120.57327511627227 163.5117632402107,121.94905965286307 166.4524066830054,122.77452997583896 169.61925346869975,122.22421646025032 172.3336935704574,120.02296106843278 174.8219303302467,117.27138883504085 176.4053537240252,113.41918211965822 176.63155706506222,110.3924436995294 176.85776040703058,107.36570125445724 176.85776040703058,104.06379581429064 176.17915038205683,100.76188558526337 176.85776040703058,97.45997056690976 177.08396374993026,94.70837105903774 177.98877711594105,91.40644725854509 177.53637043293566,88.37967956834473 176.17915038205683,85.62806908367202 174.3695236472413,83.7019397658296 172.3336935704574,82.87645527347922 169.16684678569436,82.05097048147582 166.4524066830054,82.05097048147582 163.28555989731103,83.7019397658296 161.47593316342682,84.25226259441115 159.44010308664292,86.45355257811025 157.85667969379574,88.37967956834473 157.63047635182738,91.40644725854509 156.72566298395395,95.25869122636504 157.17806966789067,98.28544977051206 156.49945964291692,102.13768209633417 156.49945964291692,104.06379581429064 156.0470529589802,108.46633533574641 154.68983290810138,112.31855043233372 155.1422395920381,116.17075901036151 156.49945964291692,118.09686085442081 160.34491645358503,119.19748974777758 163.5117632402107,121.3987459379714 166.67861002590507,121.3987459379714 170.07166015263647,119.74780399515294 172.3336935704574,118.09686085442081 174.14332030527294,115.07012865296565 175.72674369905144,111.21791821252555 175.50054035615176,107.64085982413962 176.17915038205683,104.33895478351042 176.17915038205683,100.76188558526337 176.85776040703058,97.45997056690976 177.08396374993026,93.6077303243801 178.21498045884073,89.48032283014618 177.08396374993026,87.55419677193277 175.04813367314637,85.62806908367202 172.3336935704574,83.97710119653493 168.2620334168896,82.87645527347922 164.64277994912118,83.15161680453457 161.9283398464322,84.80258529004641 159.21389974374324,87.27903577359393 158.0828830357641,90.0306442619767 157.63047635182738,92.78224942437373 156.49945964291692,96.90965093066916 156.72566298395395,100.21156674809754" stroke="#4DD2FF" stroke-dasharray="none" stroke-linecap="round" stroke-linejoin="round" stroke-width="0.5"><title>2013-11-16 10.4km</title><desc>9223370652294258807</desc></polyline><polyline fill="none" opacity="1" points="43.48659688886255,134.31785328662954 40.810890073888004,130.4712502779439 38.37842933367938,129.58357180282474 30.59455496352166,128.99178597261198 27.675602074712515,131.06303575029597 25.97287955507636,134.61374557600357 22.81068059336394,138.16445025079884 24.27015703730285,141.12336687929928 23.297172740101814,144.6740621116478 23.297172740101814,150.88776637450792 22.81068059336394,154.43844744330272 23.053926666267216,160.06034860108048 22.56743451859802,163.6110163643025 23.540418814867735,166.5699022328481 24.99989525973797,168.64112021238543 29.135078518651426,170.71233643963933 34.0,171.60000000009313 38.37842933367938,171.30411218269728 39.35141362901777,169.52878452418372 42.02712044399232,167.1616789775435 42.27036651875824,163.01923876185901 42.27036651875824,160.35623777890578 43.24335081502795,155.32611690624617 45.18931940756738,150.29598569567315 45.43256548140198,146.1535169382114 45.919057629071176,142.89871513913386 45.67581155523658,138.75623386260122 45.919057629071176,135.7973143735435 44.70282725803554,132.5424988034647 40.56764399912208,129.879464663798 36.91895288974047,128.99178597261198 33.270261778496206,128.99178597261198 29.378324592486024,130.4712502779439 26.7026177784428,132.24660626379773 25.486387407407165,136.38909855671227 23.783664888702333,141.12336687929928 23.783664888702333,144.08227993012406 23.540418814867735,146.74529861821793 22.81068059336394,150.88776637450792 23.053926666267216,154.73433729959652 22.81068059336394,157.69323389837518 23.053926666267216,162.72334990650415 24.02691096253693,165.09045974630862 26.459371704608202,167.1616789775435 31.081047111190856,171.00822432967834 34.972984296269715,171.00822432967834 38.62167540658265,169.82467255694792 40.810890073888004,168.64112021238543 43.48659688886255,165.38634831481613 44.216335110366344,162.72334990650415 43.973089036531746,158.58090218016878 44.459581185132265,153.8466676226817 45.43256548140198,150.88776637450792 46.162303702905774,147.33708015549928 46.162303702905774,143.7863887862768 46.405549777671695,139.64390901243314 45.919057629071176,135.7973143735435 43.72984296362847,132.5424988034647 41.054136148653924,130.4712502779439 36.91895288974047,128.4000000001397 33.270261778496206,128.99178597261198 29.864816741086543,130.4712502779439 26.7026177784428,131.95071368920617 24.02691096253693,134.90963782859035 23.297172740101814,140.23569226590917 23.540418814867735,143.7863887862768 23.053926666267216,147.33708015549928 24.51340311113745,150.88776637450792 22.81068059336394,156.50967568787746 22.080942370928824,160.35623777890578 22.81068059336394,164.2027938242536 23.053926666267216,166.27401380729862 26.7026177784428,168.64112021238543 29.621570666320622,170.12056055432186 34.486492147669196,170.71233643963933 37.89193718507886,170.12056055432186 41.054136148653924,168.64112021238543 43.24335081502795,165.68223684746772 43.973089036531746,162.13157208892517 44.94607333280146,158.58090218016878 45.43256548140198,155.0302271207329 45.67581155523658,151.77543712500483 46.162303702905774,148.81653337273747 46.405549777671695,145.26584414974786 46.89204192534089,139.3480173314456 46.405549777671695,135.7973143735435 44.70282725803554,133.13428377383389 41.54062829632312,130.4712502779439 38.864921481348574,129.2876789055299 34.0,128.69589300476946 31.081047111190856,129.58357180282474 28.40534029621631,130.76714303181507 25.97287955507636,133.13428377383389 24.99989525973797,134.31785328662954 24.27015703730285,135.7973143735435 25.486387407407165,139.3480173314456 25.243141333572567,140.82747537712567 24.756649184972048,144.9699531486258 23.297172740101814,149.1124239093624 22.56743451859802,152.3672174452804 22.080942370928824,157.39734439994209 21.10795807465911,159.46857014065608 21.837696296162903,160.94801602489315 23.297172740101814,163.90690511232242 25.97287955507636,165.68223684746772 28.40534029621631,168.93700835271738" stroke="#4DD2FF" stroke-dasharray="none" stroke-linecap="round" stroke-linejoin="round" stroke-width="0.5"><title>2013-11-03 10.7km</title><desc>9223370653417861807</desc></polyline><polyline fill="none" opacity="1" points="107.93144365400076,163.24806107999757 109.58876023907214,160.0800765901804 109.82551975175738,155.7600909504108 109.58876023907214,152.01609706040472 110.77255779877305,148.27209728653543 111.48283633589745,145.39209345774725 111.71959584765136,142.5120861462783 111.9563553603366,138.48007006268017 111.48283633589745,133.2960393568501 109.35200072731823,129.84001261997037 106.98440560605377,129.2640076763928 103.90653194859624,130.41601742454804 100.35513926763088,130.12801503995433 97.51402512192726,130.41601742454804 94.67291097715497,132.14403100241907 92.77883488032967,135.3120526385028 91.35827780794352,138.1920686531812 91.59503732062876,143.37608870584518 90.88475878350437,145.96809450211003 90.1744802473113,149.712097896263 89.46420171111822,153.4560954067856 88.51716366223991,155.7600909504108 88.28040415141732,159.2160800890997 88.28040415141732,162.96006266516633 89.70096122287214,167.28003524802625 92.77883488032967,169.5840174248442 97.27726561017334,171.31200259411708 100.59189877938479,171.60000000009313 104.3800509730354,170.16001262003556 107.69468414224684,167.28003524802625 108.16820316575468,162.6720642137807 110.29903877526522,158.06408426584676 110.53579828795046,154.60809345706366 110.53579828795046,151.44009747868404 110.77255779877305,147.1200961722061 111.00931731145829,142.80008703446947 112.19311487209052,139.0560727783013 112.42987438477576,135.3120526385028 110.29903877526522,132.7200352489017 108.87848170287907,130.41601742454804 105.80060804635286,128.9760051521007 102.01245585177094,128.4000000001397 98.22430365905166,129.2640076763928 94.90967048984021,129.84001261997037 89.70096122287214,133.8720433257986 88.99068268761039,135.0240508459974 88.99068268761039,136.46405946207233 90.1744802473113,139.63207535468973 89.93772073462605,143.66408948926255 88.51716366223991,147.69609680003487 88.51716366223991,150.57609784416854 87.57012561522424,154.32009399705566 87.57012561522424,157.48808614653535 87.80688512697816,160.65607408294454 87.57012561522424,163.5360594613012 89.22744219843298,166.7040393569041 91.35827780794352,169.00802208902314 94.19939195271581,169.87201503990218 97.9875441454351,169.5840174248442 102.01245585177094,168.72002436965704 106.51088658254594,166.99203731981106 108.40496267937124,164.4000543965958 110.29903877526522,160.65607408294454 109.82551975175738,156.62408870481886 110.29903877526522,152.59209650335833 110.53579828795046,149.13609775714576 110.77255779877305,145.39209345774725 111.00931731145829,141.93608426721767 112.19311487209052,139.34407408325933 111.9563553603366,135.3120526385028" stroke="#4DD2FF" stroke-dasharray="none" stroke-linecap="round" stroke-linejoin="round" stroke-width="0.5"><title>2013-11-02 10.5km</title><desc>9223370653505000807</desc></polyline><polyline fill="none" opacity="1" points="175.54437706060708,134.88005326571874 173.32475448958576,131.1000244792085 172.21494320314378,130.29001747770235 168.88550934474915,128.94000515691005 166.2219622572884,128.94000515691005 162.6705661425367,130.56001984444447 159.78505679685622,132.45003549358808 157.5654342258349,135.15005507646129 156.01169842481613,138.12007284793071 156.45562293939292,142.98009340977296 156.67758519575,145.68010026379488 156.23366068210453,149.19010429433547 156.01169842481613,151.35010403278284 156.01169842481613,152.97010246641003 155.56777391023934,155.67009724397212 155.12384939659387,158.6400877290871 156.23366068210453,162.15007139416412 157.5654342258349,164.85005507571623 160.67290582694113,167.0100396713242 164.22430194169283,168.3600289823953 167.7756980592385,168.3600289823953 169.77335837297142,167.82003335561603 172.65886771772057,165.66004954348318 174.6565280323848,162.96006684168242 175.54437706060708,159.18008557590656 175.54437706060708,155.94009654247202 175.7663393188268,152.70010280935094 175.54437706060708,149.46010437584482 175.54437706060708,146.49010168295354 176.43222609069198,142.98009340977296 176.87615060433745,140.01008210144937 176.43222609069198,137.31006839242764 175.32241480425,134.34004954481497 173.99064126145095,132.72003759886138 170.4392451448366,130.56001984444447 167.7756980592385,128.4000000001397 165.3341132281348,129.48001018329524 162.0046793706715,130.8300221778918 159.78505679685622,132.45003549358808 158.67524551134557,135.69005860155448 158.2313209977001,138.12007284793071 157.7873964831233,141.63008875912055 156.45562293939292,144.33009724435396 156.01169842481613,146.76010209089145 156.23366068210453,150.81010429398157 157.7873964831233,154.32010026299395 154.90188713837415,155.13009854895063 155.12384939659387,156.21009580790997 154.45796262472868,157.56009164638817 154.90188713837415,163.23006525845267 160.22898131329566,166.20004569296725 165.77803774364293,167.55003549298272 167.1098112873733,167.55003549298272 169.10747160110623,167.55003549298272 171.77101868763566,168.3600289823953 173.99064126145095,164.0400603134185 174.6565280323848,162.96006684168242 174.8784902896732,160.5300796192605 175.54437706060708,159.18008557590656 173.54671674594283,158.91008666879497 174.8784902896732,158.10008975397795 176.2102638334036,155.94009654247202 175.9883015761152,150.81010429398157 176.2102638334036,149.46010437584482 175.7663393188268,146.2201012421865 176.2102638334036,142.1700907170307 175.7663393188268,136.7700652598869 175.32241480425,133.26004171161912 173.54671674594283,129.75001264712773 169.55139611661434,129.48001018329524 165.77803774364293,129.21000768686645 162.6705661425367,130.56001984444447 159.78505679685622,132.72003759886138 156.67758519575,133.26004171161912 156.45562293939292,137.58006991050206 156.23366068210453,140.55008445074782 156.01169842481613,144.0600965428166 154.90188713837415,147.57010311936028 155.34581165295094,151.62010385282338 155.12384939659387,155.13009854895063 154.90188713837415,159.18008557590656 154.90188713837415,161.61007426702417 158.45328325405717,165.66004954348318 164.00233968626708,168.63002674723975 166.44392451550812,169.98001507879235 169.32943385839462,171.60000000009313 173.32475448958576,167.82003335561603 175.1004525469616,162.69006839231588 175.54437706060708,159.7200832911767 175.54437706060708,158.6400877290871 175.1004525469616,153.24010209064 174.8784902896732,148.92010417976417 175.32241480425,146.2201012421865 175.54437706060708,142.98009340977296 177.09811286255717,138.93007700890303 175.7663393188268,135.96006031497382 174.43456577509642,134.34004954481497 172.88082997407764,130.8300221778918 170.21728288847953,130.02001507859677 166.0,129.75001264712773 162.0046793706715,130.56001984444447 159.78505679685622,130.8300221778918 156.89954745396972,132.72003759886138 154.90188713837415,135.69005860155448 154.67992488108575,138.39007426798344 155.34581165295094,139.7400808769744 154.23600036650896,142.71009254432283 154.67992488108575,145.95010076928884 154.90188713837415,147.57010311936028 154.45796262472868,150.27010442432947 154.90188713837415,153.78010124200955 154.67992488108575,157.02009340864606 154.90188713837415,161.34007565444335 157.5654342258349,166.20004569296725 161.7827171124518,168.63002674723975 163.11449065618217,168.3600289823953 166.0,169.98001507879235 167.99766031466424,169.1700221770443 171.1051319167018,171.33000259427354 173.32475448958576,168.63002674723975 174.8784902896732,162.42006990942173 173.99064126145095,158.37008875748143 175.1004525469616,151.35010403278284 174.8784902896732,147.0301024664659 174.8784902896732,145.68010026379488 176.43222609069198,142.98009340977296 177.76399963349104,140.82008557626978 177.09811286255717,136.7700652598869 175.32241480425,132.1800333559513 173.10279223136604,129.75001264712773 169.9953206302598,128.6700025945902 166.0,128.94000515691005 161.1168303405866,130.56001984444447 157.1215097112581,132.1800333559513 156.67758519575,133.53004371840507 155.56777391023934,134.61005142168142 155.78973616752774,137.04006684245542 156.01169842481613,138.6600756549742 156.23366068210453,142.1700907170307 156.23366068210453,143.5200950417202 156.23366068210453,147.84010339644738 156.01169842481613,149.19010429433547 155.12384939659387,151.62010385282338 155.78973616752774,155.13009854895063 154.90188713837415,156.21009580790997 155.12384939659387,161.07007700833492 156.23366068210453,162.15007139416412 156.23366068210453,163.50006364332512 158.45328325405717,165.66004954348318 162.6705661425367,168.63002674723975 167.1098112873733,170.52001018356532 170.4392451448366,169.710017477395 171.99298094585538,168.09003118495457 175.32241480425,163.77006199466996 174.8784902896732,159.18008557590656 174.43456577509642,152.97010246641003 176.2102638334036,152.1601033960469 176.65418834704906,147.3001028096769 176.87615060433745,146.49010168295354 175.9883015761152,142.71009254432283 176.87615060433745,138.93007700890303 175.54437706060708,134.34004954481497 173.54671674594283,132.1800333559513 172.21494320314378,128.94000515691005 166.2219622572884,129.21000768686645 162.0046793706715,130.02001507859677 159.34113228321075,132.1800333559513 157.3434719676152,134.34004954481497 156.23366068210453,136.50006364448927 156.89954745396972,138.39007426798344" stroke="#4DD2FF" stroke-dasharray="none" stroke-linecap="round" stroke-linejoin="round" stroke-width="0.5"><title>2013-10-26 11.1km</title><desc>9223370654110301807</desc></polyline><polyline fill="none" opacity="1" points="44.63081361912191,199.13694104878232 43.92988085281104,197.14746748516336 44.39716936275363,193.1685153071303 44.163525108247995,191.17903669271618 43.462592341937125,189.75797950988635 43.22894808650017,187.76849800907075 42.5280153201893,183.78952995873988 41.126149787567556,180.3789805562701 36.9205531924963,178.67370399925858 33.649533617310226,178.10527820512652 29.67758127581328,180.66319319489412 27.574782977811992,181.51583090610802 25.00469616893679,184.3579543782398 23.135542125441134,187.76849800907075 24.537407658062875,190.32640248560347 25.238340423442423,193.1685153071303 25.238340423442423,196.86325683817267 24.30376340262592,199.9895720607601 23.836474891752005,203.68430287321098 23.602830636315048,206.81060902611353 24.537407658062875,208.23165590292774 23.836474891752005,212.77900013769977 25.939273189753294,215.62108581862412 28.275715744122863,217.89475188939832 31.079446808435023,218.46316806343384 34.350466382689774,217.89475188939832 38.32241872418672,216.18950254260562 41.59343829937279,213.91583482245915 42.5280153201893,209.93691102182493 42.29437106475234,206.52639954793267 42.76165957655758,202.26325324806385 42.76165957655758,198.85273064253852 42.76165957655758,195.1579922370147 44.163525108247995,191.4632480267901 45.79903489537537,189.18955639493652 46.7336119171232,186.63165068160743 46.49996766075492,184.07374218595214 44.163525108247995,181.23161837016232 41.126149787567556,179.81055517448112 38.08877446874976,177.25263925665058 34.81775489449501,176.4000000001397 31.313091062940657,177.82106525660492 28.509359998628497,180.09476788225584 25.939273189753294,182.6526807071641 25.471984679810703,185.77901482582092 25.471984679810703,189.4737679695245 25.00469616893679,192.60009301709943 24.537407658062875,196.86325683817267 21.733676593750715,199.9895720607601 22.20096510462463,203.68430287321098 21.967320849187672,207.94744659680873 22.434609359130263,211.07374708005227 22.434609359130263,213.91583482245915 24.537407658062875,216.75791912851855 27.574782977811992,219.0315841003321 30.845802552998066,219.60000000009313 34.81775489449501,219.0315841003321 37.38784170243889,217.610543750925 41.126149787567556,215.90529419737868 42.060726810246706,213.6316262029577 43.69623659737408,210.22112008789554 44.163525108247995,206.81060902611353 44.163525108247995,203.1158831268549 44.63081361912191,199.70536175812595 45.33174638450146,195.4422030900605 45.565390639938414,192.0316705906298 46.03267915081233,189.18955639493652 45.79903489537537,185.49480280443095 44.864457874558866,181.80004340759479 42.76165957655758,179.24212965508923 39.72428425680846,178.10527820512652 36.21962042618543,177.53685227409005 32.7149565955624,177.53685227409005 29.443937021307647,178.95791684417054 25.939273189753294,181.23161837016232 24.537407658062875,184.07374218595214 25.238340423442423,188.33692146651447 23.836474891752005,191.74745932617225 23.602830636315048,194.58957042940892 23.602830636315048,198.28430972713977 21.967320849187672,201.69483315735124 22.434609359130263,206.52639954793267 22.20096510462463,209.3684927856084 23.602830636315048,212.21058258996345 24.537407658062875,215.90529419737868 25.471984679810703,217.610543750925 31.079446808435023,219.0315841003321 35.051399149000645,218.46316806343384 37.62148595787585,216.18950254260562 41.82708255387843,212.77900013769977 43.462592341937125,211.9263737637084 44.163525108247995,209.08428361662664 43.69623659737408,205.95798048726283 43.69623659737408,202.26325324806385 43.69623659737408,199.13694104878232 44.163525108247995,195.72641390911303 45.565390639938414,192.31588182109408 45.79903489537537,189.18955639493652 45.79903489537537,186.34743876405992 45.79903489537537,183.78952995873988 43.462592341937125,181.23161837016232 41.59343829937279,178.10527820512652 38.08877446874976,176.96842620545067 33.88317787181586,178.10527820512652 29.91122553125024,180.09476788225584 27.574782977811992,183.22110540163703 25.471984679810703,186.34743876405992 24.07011914718896,188.33692146651447 23.836474891752005,192.0316705906298 22.9018978709355,195.4422030900605 22.434609359130263,199.13694104878232 23.135542125441134,202.26325324806385 21.733676593750715,205.38956129038706 21.2663880828768,208.51586517505348 22.434609359130263,213.6316262029577 24.537407658062875,215.90529419737868 26.873850212432444,217.89475188939832" stroke="#4DD2FF" stroke-dasharray="none" stroke-linecap="round" stroke-linejoin="round" stroke-width="0.5"><title>2013-10-20 10.7km</title><desc>9223370654628121807</desc></polyline><polyline fill="none" opacity="1" points="87.2685868870467,210.36233394150622 89.72552625928074,213.0792984876316 92.40582375694066,214.9811717160046 95.30947938002646,217.42643493087962 99.10656750109047,217.6981306800153 102.45693937223405,217.42643493087962 106.03066936973482,216.06795569579117 109.15768311638385,213.8943872116506 110.72118998877704,211.17742365039885 110.94454811420292,208.18875993951224 111.39126436412334,205.20009225560352 111.83798061311245,201.1246299177874 112.50805498752743,198.13595284009352 112.95477123744786,195.41897022980265 113.17812936194241,192.70198433613405 112.73141311202198,188.89819856663235 112.50805498752743,186.1812047897838 110.27447373978794,182.92080792272463 108.71096686646342,179.6604063261766 105.80731124430895,177.75850321003236 102.68029749765992,176.67170070740394 99.77664187457412,176.67170070740394 96.20291187800467,177.48680263385177 92.85254000686109,179.6604063261766 90.39560063369572,182.92080792272463 89.50216813571751,185.90950523177162 89.50216813571751,188.89819856663235 88.83209376130253,192.15858676331118 88.60873563587666,196.23406535829417 87.49194501247257,199.49444291344844 87.93866126146168,202.4831181843765 86.82187063805759,206.2868809637148 89.27881001029164,208.73215363710187 90.17224251013249,211.9925130638294 91.95910750795156,215.52456377237104 94.19268875569105,217.42643493087962 97.7664187522605,218.7849133447744 101.56350687332451,219.60000000009313 104.46716249547899,217.96982639585622 106.92410186771303,215.25286776060238 108.93432499095798,212.8076021813322 110.49783186521381,209.81894063809887 110.27447373978794,207.64536611060612 110.94454811420292,204.65669770352542 111.16790623962879,201.6680253231898 111.39126436412334,198.67934896820225 112.061338737607,196.23406535829417 112.50805498752743,191.88688792707399 112.50805498752743,188.62649933667853 111.16790623962879,183.19250784208998 109.3810412408784,179.6604063261766 106.47738561872393,178.03020375361666 102.01022312324494,176.4000000001397 98.43649312574416,176.67170070740394 95.53283750358969,178.03020375361666 92.40582375694066,179.9321066394914 90.84231688361615,183.19250784208998 90.6189587591216,186.72460380778648 90.17224251013249,191.07179122348316" stroke="#4DD2FF" stroke-dasharray="none" stroke-linecap="round" stroke-linejoin="round" stroke-width="0.5"><title>2013-10-19 10.2km</title><desc>9223370654714312807</desc></polyline><polyline fill="none" opacity="1" points="157.23989487532526,215.856031000847 161.5015676394105,217.87201503897086 165.0529616093263,219.60000000009313 168.36759597994387,218.16001261910424 171.20871115475893,216.14402882475406 174.049826329574,213.55204715393484 174.76010512374341,210.38406572700478 175.70714351627976,206.06408426584676 175.23362432047725,202.03209450119175 175.47038391791284,197.71209789603017 175.70714351627976,194.83209580741823 176.41742231044918,190.8000870347023 177.36446070112288,187.05607277853414 175.94390311371535,183.0240508459974 174.76010512374341,180.14403100172058 171.20871115475893,177.55201016599312 167.18379798997194,176.39999999990687 163.39564442262053,177.55201016599312 160.31776964943856,179.2800243704114 158.66045246366411,182.44804715528153 157.4766544746235,185.32806421420537 157.23989487532526,187.92007659026422 156.76637568045408,191.6640894880984 155.81933728791773,195.12009617267177 155.1090584937483,198.28809789568186 154.87229889724404,201.45609540655278 154.87229889724404,205.48808614583686 155.34581809211522,209.23207143694162 157.00313527788967,212.97605084488168 158.1869332678616,214.99203731981106 161.028048443608,218.16001261910424 164.57944241166115,218.16001261910424 167.42055758740753,218.73600767576136 170.73519195895642,217.29601977346465 173.33954753633589,215.56803314224817 174.99686472211033,212.11205611890182 175.47038391791284,207.79207779001445 175.70714351627976,203.18409227347001 175.70714351627976,200.30409679887816 175.70714351627976,196.84809763496742 176.65418190788478,193.9680945011787 177.36446070112288,190.51208614674397 177.1277011046186,186.19206865271553 174.99686472211033,180.14403100172058 172.3925091456622,178.12801503925584 167.65731718577445,176.68800259334967 164.81620201002806,176.97600515233353 161.97508683428168,179.56802661530674 159.37073125783354,181.58404135890305 158.66045246366411,184.4640594618395 157.23989487532526,189.07208118587732 155.81933728791773,193.39209345704876 155.81933728791773,196.84809763496742 154.3987797005102,200.30409679887816 154.6355392979458,204.04809023649432 154.87229889724404,207.2160800884012 154.3987797005102,210.67206421284936 156.29285648372024,214.70403935597278 158.89721206203103,217.29601977346465 161.5015676394105,217.5840174241457 166.4735191958025,218.16001261910424 169.31463437061757,216.72002436965704 172.3925091456622,214.12804332445376 173.33954753633589,211.53605946153402 174.52334552630782,207.79207779001445 175.94390311371535,204.33608948858455 177.1277011046186,201.1680958061479 177.6012202994898,197.13609775644727 177.1277011046186,192.52809162973426 177.1277011046186,188.20807779114693 176.18066271208227,184.75206108111888 174.76010512374341,180.14403100172058 171.91898994892836,178.12801503925584 168.84111517574638,177.26400767685845 164.81620201002806,176.97600515233353 161.5015676394105,178.99202208942734 158.66045246366411,181.58404135890305 157.23989487532526,184.176057808334 157.9501736694947,187.63207535399124 156.76637568045408,192.24009095085785 157.23989487532526,196.27209728676826 156.76637568045408,200.01609705970623 155.81933728791773,203.47209162893705 156.05609688628465,207.5040789565537 155.34581809211522,210.0960672076326 156.52961608115584,212.68805263726972" stroke="#4DD2FF" stroke-dasharray="none" stroke-linecap="round" stroke-linejoin="round" stroke-width="0.5"><title>2013-10-12 10.6km</title><desc>9223370655320152807</desc></polyline><polyline fill="none" opacity="1" points="45.141622078604996,237.38831929140724 44.677387826144695,234.28242342267185 43.284685065969825,231.45887813949957 42.58833368588239,228.63532944396138 42.58833368588239,226.65884332591668 41.19563092570752,227.2235538160894 38.64234253298491,225.81177733442746 34.00000000093132,224.4000000001397 30.98247735388577,225.2470665036235 27.96495470777154,226.65884332591668 26.34013482183218,230.6118138891179 25.411666315048933,234.0000690475572 25.643783441744745,236.25890308944508 24.251080681569874,240.77656461950392 24.251080681569874,243.31774539034814 23.55472930241376,247.83539326884784 24.251080681569874,250.94127111579292 24.483197808265686,255.17655243445188 24.018963554874063,258.8471233653836 22.858377922326326,262.51768852747045 24.94743206165731,263.3647412073333 28.42918896023184,265.6235468534287 31.678828733973205,267.60000000009313 34.696351380087435,267.60000000009313 38.874459659680724,265.90589740499854 41.42774805333465,263.92944282409735 43.748919318430126,260.8235822466668 44.677387826144695,257.1530144221615 44.90950495097786,252.63538456475362 43.748919318430126,248.96480387263 43.98103644605726,243.8824518530164 45.141622078604996,239.92950374865904 45.37373920623213,236.82361125876196 46.30220771115273,234.0000690475572 45.60585633199662,231.74123282171786 43.05256793834269,228.07061929488555 38.874459659680724,226.65884332591668 35.39270276017487,225.81177733442746 32.60729724075645,225.81177733442746 30.286125973798335,226.94119858834893 26.34013482183218,228.91768446774222 24.94743206165731,231.74123282171786 24.018963554874063,235.12948634149507 24.251080681569874,239.0824425695464 24.251080681569874,242.47068544104695 24.483197808265686,245.57657042192295 24.251080681569874,249.24715643795207 22.626260795630515,251.78832799429074 21.92990941554308,254.61184870218858 21.697792288847268,257.435365997022 22.626260795630515,260.25887987948954 23.78684642817825,262.51768852747045 25.411666315048933,265.34119626670144 28.42918896023184,266.75294885598123 31.678828733973205,266.75294885598123 36.55328839365393,267.60000000009313 39.57081103976816,264.7764949919656 41.42774805333465,262.2353375663515 43.748919318430126,258.56477195979096 43.98103644605726,254.61184870218858 43.98103644605726,251.22362344292924 45.141622078604996,247.55304053192958 45.83797345869243,244.16480503370985 45.60585633199662,241.05891817482188 45.60585633199662,238.5177349471487 46.07009058445692,235.12948634149507 45.37373920623213,232.30594208301045 44.44527069851756,229.76474933186546 43.05256793834269,226.94119858834893 40.03504529315978,225.2470665036235 36.55328839365393,225.2470665036235 32.60729724075645,225.2470665036235 28.89342321548611,225.81177733442746 26.804369075223804,228.07061929488555 24.483197808265686,231.74123282171786 24.94743206165731,234.28242342267185 24.94743206165731,237.6706732562743 23.55472930241376,242.18833205639385 23.55472930241376,246.14127633837052 24.251080681569874,247.55304053192958 23.32261217571795,251.22362344292924 22.626260795630515,253.2000887747854 23.090495048090816,256.588311167201 23.78684642817825,259.6941773761064 24.251080681569874,262.80003945552744 25.875900567509234,265.34119626670144 27.73283758200705,266.4705984070897 34.00000000093132,266.4705984070897 38.17810827959329,266.4705984070897 40.267162419855595,265.34119626670144 43.98103644605726,261.95298657077365 43.284685065969825,257.1530144221615 43.05256793834269,252.63538456475362 44.21315357182175,249.81186146754771 43.05256793834269,246.14127633837052" stroke="#4DD2FF" stroke-dasharray="none" stroke-linecap="round" stroke-linejoin="round" stroke-width="0.5"><title>2013-10-06 10.6km</title><desc>9223370655838244807</desc></polyline><polyline fill="none" opacity="1" points="89.0726392250508,261.50774164893664 90.43855932168663,263.1692682597786 93.39805286563933,265.9384766018484 95.67458635941148,267.3230795171112 97.95111985504627,267.60000000009313 102.27653349470347,266.49231786769815 106.14664043672383,264.5538728488609 108.65082728024572,260.4000565716997 109.78909402806312,256.800076372223 110.01674737781286,253.47701270505786 110.47205407731235,250.4308667758014 111.61032082512975,247.3847167957574 110.92736077588052,243.78471614304 110.92736077588052,240.46163359680213 111.61032082512975,237.41547036124393 111.83797417394817,234.64622754161246 111.61032082512975,231.8769813736435 109.5614406792447,230.21543206600472 107.96786723192781,228.00003111502156 105.23602703865618,226.89232983626425 102.27653349470347,227.44618054293096 97.72346650529653,228.00003111502156 95.44693301152438,228.55388155416586 93.8533595642075,230.21543206600472 93.62570621352643,231.8769813736435 92.71509281732142,234.64622754161246 92.48743946664035,237.69239445892163 91.80447941832244,241.84625191055238 91.12151937000453,244.89240925433114 91.80447941832244,248.49240816570818 90.89386602025479,251.5385566733312 90.43855932168663,255.1385451410897 89.5279459245503,257.90776318963617 89.5279459245503,259.84621383203194 90.43855932168663,262.8923472412862 92.03213276807219,265.10771445115097 96.12989305891097,266.21539725130424 99.31703995261341,267.0461590006016 102.27653349470347,266.21539725130424 105.23602703865618,265.9384766018484 107.2849071836099,263.7231101959478 108.65082728024572,261.50774164893664 109.5614406792447,257.6308415350504 109.33378732949495,254.58470112946816 110.2444007275626,250.7077893000096 110.2444007275626,247.1077938694507 110.01674737781286,243.50779278133996 109.78909402806312,238.80009051598608 110.2444007275626,235.47700073826127 110.92736077588052,234.09237857535481 110.2444007275626,231.32313173846342 107.96786723192781,228.83080672309734 105.00837368983775,226.06155352527276 102.9594935439527,225.23077691416256 99.77234665118158,225.78462802176364 96.35754640772939,225.78462802176364 94.5363196125254,226.61540443263948 93.39805286563933,229.66158202895895 91.80447941832244,232.4308308751788 91.57682606950402,235.47700073826127 90.89386602025479,239.07701444602571 90.2109059728682,242.95394595898688 89.7555992724374,245.4462556091603 89.0726392250508,248.49240816570818 89.0726392250508,251.81547906342894 88.16202582698315,255.1385451410897 87.70671912748367,257.6308415350504 87.93437247723341,260.67697789077647 89.0726392250508,263.1692682597786 92.03213276807219,265.6615559179336 95.67458635941148,266.49231786769815 99.77234665118158,266.76923845126294 103.41480024252087,266.21539725130424 105.91898708697408,264.2769519982394 108.65082728024572,262.0615839860402 109.78909402806312,257.90776318963617 110.2444007275626,255.1385451410897 110.69970742613077,252.09240142116323 110.92736077588052,249.3231763425283 111.38266747444868,245.4462556091603 111.61032082512975,243.23086938657798 111.83797417394817,240.18470983416773 112.06562752369791,237.41547036124393 112.29328087251633,234.36930307536386 111.61032082512975,231.6000565723516 110.47205407731235,229.1077318591997 108.19552058167756,226.61540443263948 105.69133373815566,225.23077691416256 102.9594935439527,224.4000000001397 100.68296004924923,224.95385130867362 96.81285310722888,225.50770248449408 94.08101291395724,227.16925520659424 92.71509281732142,230.76928196917288 91.12151937000453,235.20007637282833 90.2109059728682,237.9693185237702 89.98325262311846,240.18470983416773 89.7555992724374,243.23086938657798 89.98325262311846,246.27702489006333 90.2109059728682,249.6000990010798 89.98325262311846,252.64624603441916 89.7555992724374,255.96931090718135 90.2109059728682,259.2923709584866 91.57682606950402,262.3385051051155 94.08101291395724,264.00003111432306 96.81285310722888,266.76923845126294 100.68296004924923,266.76923845126294 102.9594935439527,266.49231786769815 106.37429378647357,264.83079366665334 108.4231739314273,262.8923472412862 109.5614406792447,259.56929241190664 110.01674737781286,256.800076372223 110.92736077588052,253.75393486046232 110.92736077588052,250.4308667758014 111.61032082512975,247.6616396890022 111.61032082512975,244.61548602650873 111.38266747444868,241.56932831485756 112.52093422133476,237.9693185237702 111.61032082512975,235.20007637282833 110.69970742613077,231.8769813736435 110.01674737781286,229.3846569606103 107.51256053335965,227.72310584550723 104.32541364058852,226.06155352527276 101.36592009756714,226.61540443263948 97.26815980672836,226.89232983626425 94.30866626370698,228.83080672309734 92.94274616613984,230.76928196917288 90.89386602025479,234.09237857535481 90.43855932168663,236.30777363479137 89.5279459245503,239.90778603730723 89.7555992724374,242.95394595898688 88.61733252555132,246.00010183011182 88.61733252555132,249.3231763425283 87.93437247723341,252.64624603441916 87.47906577866524,255.96931090718135 88.16202582698315,259.2923709584866 89.30029257386923,262.3385051051155 92.71509281732142,264.2769519982394 96.35754640772939,265.9384766018484 98.8617332521826,265.38463520118967 102.27653349470347,264.5538728488609 104.78072033915669,261.7846628341358 107.96786723192781,259.84621383203194 109.5614406792447,257.35391984693706 110.2444007275626,255.1385451410897 110.47205407731235,251.81547906342894 110.92736077588052,248.49240816570818 111.15501412469894,246.00010183011182 111.61032082512975,242.12317547295243 111.15501412469894,239.35393834323622 111.38266747444868,235.20007637282833 111.61032082512975,231.8769813736435 110.92736077588052,229.9385070647113 109.10613397974521,228.55388155416586" stroke="#4DD2FF" stroke-dasharray="none" stroke-linecap="round" stroke-linejoin="round" stroke-width="0.5"><title>2013-09-29 10.5km</title><desc>9223370656443428807</desc></polyline><polyline fill="none" opacity="1" points="157.00913462694734,248.46086128987372 156.33481972385198,251.7418679993134 156.33481972385198,255.29628656315617 156.33481972385198,258.57728335657157 157.6834495300427,261.8582753909286 160.38070914242417,263.22535400046036 163.752283657901,265.13926266669296 166.89908653870225,265.13926266669296 169.37157451640815,264.0456007702742 172.29360576253384,263.22535400046036 174.31655047181994,261.0380278278608 175.66518027801067,258.3038671386894 176.5642668157816,255.29628656315617 176.5642668157816,251.7418679993134 176.5642668157816,248.73427869705483 177.23858171794564,246.00010313582607 177.23858171794564,242.17225179541856 178.36243989039212,238.8912312053144 177.68812498729676,237.25071912514977 176.78903844952583,234.51652968092822 175.66518027801067,230.68865890661255 173.86700720340014,227.95446153078228 171.39451922569424,225.49368106527254 170.0458894195035,225.76710125035606 166.00000000093132,224.94684059894644 163.30274038854986,226.5873616025783 160.83025241084397,228.22788141667843 159.7063942393288,232.055756355403 158.35776443313807,233.6962722032331 157.6834495300427,238.6178126083687 157.00913462694734,240.80516046099365 156.78436299227178,244.9064319843892 156.78436299227178,247.09377375710756 156.55959135852754,249.28111341316253 156.55959135852754,253.38236956926994 155.2109615523368,255.56970314332284 155.6605048207566,261.0380278278608 156.55959135852754,263.4987696236931 161.95411058235914,265.4126780577935 164.2018269263208,265.95950874197297 167.5734014417976,265.95950874197297 171.61929085943848,264.86584724183194 174.5413221064955,262.1316911787726 176.5642668157816,258.0304508882109 177.23858171794564,253.65578638156876 175.66518027801067,250.92161676776595 174.09177883714437,249.55453072185628 175.88995191268623,245.17984982184134 177.4633533526212,239.98490526387468 177.91289662197232,238.07097531366162 177.23858171794564,235.06336783478037 178.36243989039212,231.235497985268 175.66518027801067,228.50130126997828 172.9679206656292,225.49368106527254 171.16974759101868,224.94684059894644 165.77522836625576,225.49368106527254 164.2018269263208,225.76710125035606 161.27979567926377,228.22788141667843 158.80730770155787,230.41523931804113 158.1329927984625,232.87601442844607 157.6834495300427,236.43046263838187 156.55959135852754,241.07857879367657 157.00913462694734,244.35959621169604 157.23390626069158,246.54693851224147 156.55959135852754,250.92161676776595 157.00913462694734,254.20261990698054 155.6605048207566,258.3038671386894 156.33481972385198,261.5848595700227 156.55959135852754,263.4987696236931 160.38070914242417,264.86584724183194 163.97705529164523,267.3265848727897 166.22477163467556,266.77975451922975 169.14680288173258,265.95950874197297 172.0688341287896,264.86584724183194 174.9908653749153,261.5848595700227 175.21563700959086,259.3975318111479 175.88995191268623,256.66336913825944 176.78903844952583,253.92920316033997 177.91289662197232,250.92161676776595 177.0138100842014,247.3671913293656 175.88995191268623,243.53934230282903 176.11472354643047,240.5317420954816 176.5642668157816,237.25071912514977 177.68812498729676,236.43046263838187 178.58721152413636,232.87601442844607 177.23858171794564,230.14181969570927 178.36243989039212,230.41523931804113 177.91289662197232,227.68104161159135 174.76609374023974,226.31394151831046 171.39451922569424,225.22026084875688 168.24771634489298,224.6734203158412 164.2018269263208,225.76710125035606 161.0550240445882,228.22788141667843 158.35776443313807,230.14181969570927 158.1329927984625,233.42285297834314 155.88527645543218,237.25071912514977 154.53664664924145,241.62541536078788 156.11004808917642,241.62541536078788 156.78436299227178,243.2659242679365 156.33481972385198,246.8203561506234 155.6605048207566,250.92161676776595 153.41278847679496,253.10895272321068 155.43573318701237,256.11653620772995 155.6605048207566,258.57728335657157 157.23390626069158,262.9519383441657 159.256850970909,265.4126780577935 161.95411058235914,266.23292403365485 165.77522836625576,266.23292403365485 169.37157451640815,267.60000000009313 172.9679206656292,266.23292403365485 174.09177883714437,264.0456007702742 174.31655047181994,260.49119595531374 175.66518027801067,259.3975318111479 175.88995191268623,255.29628656315617 177.91289662197232,248.73427869705483 177.91289662197232,244.08617827459238 175.88995191268623,241.35199709353037 176.5642668157816,238.07097531366162 177.0138100842014,235.61020585522056 177.4633533526212,232.055756355403 177.23858171794564,230.14181969570927 175.66518027801067,227.1342016728595 172.0688341287896,225.76710125035606 168.69725961331278,224.4000000001397 166.00000000093132,225.76710125035606 163.52751202322543,226.8607816544827 160.38070914242417,229.04814087809063 157.45867789536715,232.055756355403 155.6605048207566,235.61020585522056 156.78436299227178,239.16464976919815 157.00913462694734,243.53934230282903 157.00913462694734,246.8203561506234 156.33481972385198,250.64819962508045 154.761418283917,253.10895272321068 156.33481972385198,256.66336913825944 155.6605048207566,259.3975318111479 156.78436299227178,262.4051069342531 157.6834495300427,264.86584724183194 161.7293389486149,264.31901629362255 164.2018269263208,265.95950874197297 167.5734014417976,265.13926266669296 170.72020432259887,264.592431783909 172.5183773972094,263.4987696236931 174.9908653749153,259.6709478965495 177.23858171794564,257.4836182866711 177.23858171794564,254.20261990698054 177.23858171794564,252.83553584385663 176.5642668157816,251.195033878088" stroke="#4DD2FF" stroke-dasharray="none" stroke-linecap="round" stroke-linejoin="round" stroke-width="0.5"><title>2013-09-22 10.9km</title><desc>9223370657048162807</desc></polyline></svg>