<?xml version="1.0" encoding="utf-8" ?>
<svg baseProfile="full" height="300mm" version="1.1" viewBox="0,0,200,300" width="200mm" xmlns="http://www.w3.org/2000/svg" xmlns:ev="http://www.w3.org/2001/xml-events" xmlns:xlink="http://www.w3.org/1999/xlink"><defs /><rect fill="#222222" height="300" width="200" x="0" y="0" /><text fill="#FFFFFF" style="font-size:12px; font-family:Arial; font-weight:bold;" x="10" y="20">Over 10km Runs</text><text fill="#FFFFFF" style="font-size:4px; font-family:Arial" x="10" y="280">Runner</text><text fill="#FFFFFF" style="font-size:9px; font-family:Arial" x="10" y="290">keep</text><text fill="#FFFFFF" style="font-size:4px; font-family:Arial" x="65" y="280">SPECIAL TRACKS</text><rect fill="yellow" height="2.6" width="2.6" x="65" y="283" /><text fill="#FFFFFF" style="font-size:3px; font-family:Arial" x="70" y="285.5">Over 20.0 km</text><rect fill="red" height="2.6" width="2.6" x="65" y="287" /><text fill="#FFFFFF" style="font-size:3px; font-family:Arial" x="70" y="289.5">Over 40.0 km</text><text fill="#FFFFFF" style="font-size:4px; font-family:Arial" x="120" y="280">STATISTICS</text><text fill="#FFFFFF" style="font-size:3px; font-family:Arial" x="120" y="285">Number: 15</text><text fill="#FFFFFF" style="font-size:3px; font-family:Arial" x="120" y="290">Weekly: 1.2</text><text fill="#FFFFFF" style="font-size:3px; font-family:Arial" x="141" y="285">Total: 163.6 km</text><text fill="#FFFFFF" style="font-size:3px; font-family:Arial" x="141" y="290">Avg: 10.9 km</text><text fill="#FFFFFF" style="font-size:3px; font-family:Arial" x="167" y="285">Min: 10.2 km</text><text fill="#FFFFFF" style="font-size:3px; font-family:Arial" x="167" y="290">Max: 14.0 km</text><polyline fill="none" opacity="1" points="26.939817833073903,75.59999999999854 26.879584712878568,75.39423704602086 26.784932666720124,75.24262190418085 26.698885352088837,75.04768773438263 26.630047500366345,74.80943422461132 26.595628574490547,74.52786099357763 26.655861694773193,74.1704781787048 26.681675889180042,73.88890273177822 26.664466426183935,73.574836658212 26.64725696327514,73.24993944160815 26.664466426183935,72.93587089641369 26.67307115768199,72.61097112288553 26.690280620590784,72.34022031843051 26.707490083528683,72.05863852406037 26.879584712878568,71.885356934421 27.146331388270482,71.85286659517442 27.30121655462426,71.80954612263304 27.30982128609321,71.62543385650497 27.361449674877804,71.4304910019855 27.370054406375857,71.17056646783749 27.344240211939905,70.80233861998568 27.086098267987836,70.6398846267839 26.896794175787363,70.46660000902921 26.96563202748075,70.04421720378741 27.0086556848255,69.75179705132905 27.060284073580988,69.41605409594922 27.09470299948589,69.10197071934817 27.146331388270482,68.7878861276622 27.17214558267733,68.50629201238189 27.22377397143282,68.31134166809352 27.292611823155312,68.20303571900149 27.30121655462426,68.01891527388943 27.24958816583967,67.93227021407802 27.327030749002006,67.75897981700109 27.3958686007536,67.49904352779413 27.45610172097804,67.23910640632675 27.524939572729636,66.94667614978971 27.628196350269718,66.60009077796713 27.69703420199221,66.32931992667727 27.791686248092446,66.04771728328342 27.955176145915175,66.02605550103908 28.15308496967191,66.12353347566386 28.385412719188025,66.05854817221552 28.62634520017309,65.88525377544283 28.712392514862586,65.646973375784 28.867277681216365,65.34370640102861 29.022162847570144,65.04043829334114 29.18565274545108,64.75883117886406 29.349142643244704,64.48805418599659 29.486818346660584,64.21727628991357 29.650308244512416,63.91400397395046 29.796588679455454,63.6215617390917 29.99449750315398,63.25329964840057 30.218220521201147,62.89586719793442 30.433338807837572,62.48427636598353 30.631247631506994,62.14850335205119 30.794737529358827,61.877717651696 30.97543689009035,61.596099565060285 31.13032205644413,61.357806574815186 31.285207222856116,61.11951288493583 31.465906583616743,60.83789216778678 31.638001212937525,60.51294397232414 31.749862721946556,60.1988261468141 31.887538425362436,59.90637052687089 32.11126144343871,59.63557734661299 32.386612850328675,59.45143746802205 32.567312211118406,59.21313818151975 32.722197377472185,58.953174525580835 32.85987308091717,58.82319238538912 32.945920395548455,58.628218784797355 33.057781904615695,58.400748992142326 33.11801502484013,58.21660631216946 33.29010965413181,58.10828689347545 33.444994820514694,58.07579103968601 33.556856329523725,58.04329517290171 33.685927301528864,57.90247959973931 33.840812467911746,57.72916778972285 34.021511828672374,57.51252750677668 34.219420652341796,57.2633904665563 34.34849162431783,57.10090937612404 34.27104904112639,56.76511409187515 34.28825850406429,56.49431043127697 34.40012001310242,56.25600246255635 34.6238430312078,56.00686156532174 34.795937660499476,55.77938442597224 34.90779916950851,55.47608058179321 35.062684335920494,55.17277560414368 35.286407353996765,54.92363138166547 35.53594456650899,54.69615120629169 35.673620269895764,54.468670393296634 35.81129597334075,54.16536165081925 35.94036694531678,53.851219258220226 36.146880500455154,53.59123842759436 36.43944137028302,53.54790820816561 36.63735019398155,53.352921934536425 36.74060697155073,53.04960902220046 36.81804955471307,52.74629497629212 36.86967794352677,52.475477905900334 36.947120526689105,52.11799798924039 37.04177257278934,51.760516497954086 37.11061042451183,51.543860282305104 37.127819887478836,51.3813677410144 37.19665773920133,51.11054611578584 37.25689085945487,50.742227255163016 37.35154290558421,50.37390672288893 37.45479968312429,49.95141934793355 37.497823340439936,49.637260643306945 37.57526592366048,49.27976822412165 37.66131323829177,48.987273255239415 37.73875582148321,48.59727832338103 37.79898894173675,48.228948055708315 37.859222061990295,47.88228274713765 37.95387410809053,47.52478259660711 38.02271195978392,47.1781142798136 38.091549811535515,46.88561173555354 38.16899239469785,46.52810719408444 38.2292255149805,46.22476877218287 38.28945863520494,45.953929937284556 38.33248229257879,45.82392697544856 38.37550594986533,45.55308680266171 38.43573907011887,45.228077401996416 38.51318165328121,44.87056555773597 38.5992289679707,44.53471966312645 38.659462088224245,44.16637095451006 38.668066819693195,44.10136806766968 38.70248574553989,43.87385755357536 38.76271886579343,43.5813430981143 38.84876618045382,43.191322183818556 38.900394569238415,42.85546933871228 38.97783715240075,42.54128316057904 39.02946554121445,42.3462704380654 39.08109392996994,42.19459355210711 39.098303392878734,42.09708683282952 39.14993178169243,41.977911794579995 39.11551285587484,41.79373184573342 39.124117587314686,41.544546543533215 39.15853651316138,41.284526281910075 39.22737436488387,41.035339415881026 39.279002753668465,40.84032307386951 39.48551630883594,40.85115732740087 39.75226298425696,40.94866554401233 40.03621912258677,41.05700786939269 40.30296579800779,41.1328474111433 40.38040838117013,40.970334020617884 40.406222575576976,40.75364899363922 40.39761784410803,40.49362619736348 40.406222575576976,40.136093491841166 40.43203676995472,39.74605601620715 40.475060427270364,39.421023354225326 40.48366515876842,39.150161807869154 40.34598945532343,38.965975439838076 40.062033316964516,39.0309824410142 39.75226298425696,39.085154902219074 39.57156362346723,39.063485922059044 39.623192012280924,38.74928505976277 39.67482040106552,38.43508298069355 39.74365825278801,38.120879684785905 39.803891373070655,37.77417118746234 39.90714815061074,37.42746120854281 39.95017180792638,37.13492351130117 40.001800196710974,36.80988038832584 40.03621912258677,36.50650563197996 40.079242779902415,36.257304090599064 40.04482385405572,36.148955355565704 40.11366170577821,36.029771579916996 40.29436106650974,35.93225745143718 40.423432038514875,35.813073357436224 40.29436106650974,35.67221920242446 40.24273267775425,35.52052983892645 40.25994214066304,35.3471702191091 40.328779992385535,35.32550024055672 40.509479353175266,35.368840191826166 40.69878344537574,35.3471702191091 40.83645914882072,35.39051015878067 40.99994904664345,35.32550024055672 41.17204367596423,35.30383025621995 41.24088152765762,35.10880013691349 41.27530045353342,34.70790341915563 41.30971937938011,34.296169592867955 41.352743036695756,34.02529093594785 41.361347768164705,33.72190576639696 41.3785572310735,33.570212756130786 41.3957666940405,33.37517846902483 41.326928842347115,33.25599061832327 41.12902001864859,33.22348481044901 40.91390173198306,33.19097898956534 40.75041183416033,33.09346144874871 40.53529354755301,33.06095557574736 40.22552321481635,32.99594379071641 39.91575288207969,32.9309319535605 39.597377817874076,32.85508474436938 39.30481694807531,32.79007279431971 38.96923242096091,32.71422545344103 38.75411413429538,32.60587198629946 38.556205310625955,32.58420127550198 38.29806336667389,32.57336591793137 37.97968830249738,32.55169519843912 37.70433689560741,32.54085983653931 37.368752368493006,32.50835374210874 37.10200569310109,32.47584763467603 36.78363062889548,32.443341514219355 36.49106975909672,32.421670760006236 36.456650833191816,32.39999999999418 36.379208250000374,32.61670733951905 36.310370398306986,32.79007279431971 36.28455620390014,32.97427318411792 36.241532546584494,33.20181426462659 36.224323083646595,33.40768421613029 36.18129942630185,33.61355364515475 36.08664738020161,33.79775216515554 35.991995334101375,33.94944474991644 35.914552750909934,34.15531280412688 35.87152909359429,34.296169592867955 35.8026912419009,34.480366562944255 35.71664392721141,34.64289295391063 35.63059661258012,34.83792419335077 35.54454929791973,35.01128490138217 35.45850198328844,35.11963515581738 35.34664047425031,35.412180119943514 35.269197891058866,35.67221920242446 35.13152218761388,35.95392726789578 35.00245121566695,36.278973820240935 34.84756604931317,36.60401907024061 34.701285614370136,36.90739346195187 34.56360991092515,37.18909723850811 34.44314367041807,37.47080003692827 34.28825850406429,37.78500585043366 34.13337333771051,38.06670657976065 34.012907097203424,38.348406330936996 33.90965031963424,38.55426322288258 33.866626662318595,38.6734432900048 33.78918407912715,38.74928505976277 33.69453203302692,38.84679580244119 33.677322570059914,39.12849284509866 33.556856329523725,39.421023354225326 33.38476170023205,39.69188399630366 33.31592384853866,39.88690309871163 33.272900191223016,40.01691557324375 33.48801847783034,40.10359044049255 33.77197461621836,40.10359044049255 34.081744948925916,40.146927839407 34.41732947601122,40.19026521517662 34.73570454021683,40.23360256779415 35.04547487295349,40.276939897252305 35.34664047425031,40.320277203587466 35.63920134404907,40.352780168112076 35.85431963065639,40.34194584805664 35.93176221384783,40.168596530180366 35.98339060266153,39.96274373415508 35.97478587119258,39.78939360613731 36.078042648761766,39.81106239237124 36.18129942630185,39.908571858926734 36.172694694891106,40.168596530180366 36.10385684313951,40.547797681967495 36.02641426000628,40.89449432699621 35.96618113969453,41.25202369060571 35.89734328800114,41.60955147876666 35.81129597334075,41.977911794579995 35.75106285311631,42.292100154198124 35.70803919577156,42.57378523542138 35.613387149671325,42.90963924645621 35.65641080698697,43.191322183818556 35.54454929791973,43.48383804529294 35.381059400097,43.7330173918599 35.30361681690556,44.02553130053275 35.22617423374322,44.339711731576244 35.22617423374322,44.61055595437938 35.269197891058866,44.79472950948548 35.381059400097,45.03307113675692 35.295012085465714,45.36891496874887 35.24338369665202,45.74809181818273 35.140126919111935,46.15976753423456 35.07989379882929,46.50644020155596 35.036870141513646,46.863944838478346 35.01966067860485,47.18894768714381 35.0110559471068,47.51394923411863 35.0110559471068,47.860616116224264 34.993846484198,48.20728151733783 34.98524175272905,48.55394543751754 34.959427558322204,48.88977469796373 34.94221809541341,49.19310315808252 34.90779916950851,49.518096678555594 34.84756604931317,49.85392194909218 34.77012346612173,50.20057883516711 34.77012346612173,50.50390239576518 34.77012346612173,50.85055650533468 34.70989034586819,51.1647105131633 34.589424105332,51.543860282305104 34.38291055019363,51.825513249845244 34.17639699502615,52.02050319326372 33.90965031963424,52.22632540301856 33.70313676446676,52.43214709079621 33.444994820514694,52.64880093507236 33.30731911706971,52.832956247919356 33.21266707094037,52.97378061700147 33.08359609899344,53.13626996996027 32.963129858486354,53.32042417676712 32.87708254382596,53.612903528606694 32.730802108941134,53.937879350050935 32.567312211118406,54.25202140717738 32.39521758182673,54.56616224833124 32.26614660982159,54.79364278809953 32.22312295253505,55.064452123122464 32.31777499863529,55.2377696233234 32.41242704473552,55.45441597811441 32.29196080422844,55.73605537478579 32.30917026713723,55.876874706635135 32.29196080422844,55.84437795942358 32.13707563787466,55.963532635556476 31.964981008553877,56.20184146300744 31.78428164779325,56.48347826607642 31.55195389824803,56.710953432026145 31.362649806047557,56.970924269611714 31.276602491387166,57.22006220757612 31.14753151941113,57.51252750677668 31.018460547435097,57.664175765545224 30.82055172373657,57.65334375646489 30.588223974162247,57.664175765545224 30.312872567330487,57.59918368932995 30.011706966062775,57.588351671576675 29.71054136476596,57.588351671576675 29.555656198441284,57.59918368932995 29.417980494967196,57.62084772054368 29.349142643244704,57.77249577692419 29.23728113420657,57.96747143310495 29.151233819575282,58.184110501744726 29.099605430761585,58.4982361242146 28.9791391902545,58.71487377622543 28.927510801469907,58.85568793994025 28.858672949747415,58.931510850008635 28.62634520017309,59.148147345593316 28.42843637650367,59.353951480858086 28.36820325627923,59.58141860217438 28.44564583947067,59.733062995568616 28.51448369116406,59.84138024600543 28.540297885570908,60.047182623551635 28.60053100582445,60.27464780219452 28.5919262743555,60.36130103589676 28.437041107972618,60.231321150648 28.27355121014989,60.48044908121665 28.118666043767007,60.74040784573299 27.963780877384124,60.95703951353062 27.800290979561396,61.22782828524214 27.679824739083415,61.47695315735473" stroke="#4DD2FF" stroke-dasharray="none" stroke-linecap="round" stroke-linejoin="round" stroke-width="0.5"><title>2017-12-17 14.0km</title><desc>9223370523376934807</desc></polyline><polyline fill="none" opacity="1" points="100.43779539118987,32.40000000000873 100.57046066125622,32.667124612416956 100.66332635027356,32.96763912016468 100.6765928772511,33.20137212751433 100.6765928772511,33.51858051100862 100.6765928772511,33.78570273697551 100.66332635027356,34.136299793666694 100.6367932962603,34.486895868656575 100.530661080149,34.80410099535948 100.6367932962603,34.95435577489843 100.68985940428684,35.68893210151873 100.65005982329603,35.956049697240815 100.82252467435319,36.256556311273016 100.87559078232152,36.540367451205384 100.92865689040627,36.84087266284041 100.9419234173838,37.24154515659029 100.96845647145528,37.592132536825375 101.02152257942362,37.875940649581025 101.07458868745016,38.1931371906976 101.16745437652571,38.47694394116115 101.18072090350324,38.7774445052637 101.24705353856552,39.11133317509666 101.35318575461861,39.36174909310648 101.52565060561756,39.411832216675975 101.63178282167064,39.578775817062706 101.5787167137023,39.71233053714968 101.37971880857367,39.812496483689756 101.37971880857367,40.04621671412315 101.48585102468496,40.296630762604764 101.61851629475132,40.630515381577425 101.72464851074619,40.931010777450865 101.79098114575027,41.21481132257031 101.93691294285236,41.51530531629396 102.09611126687378,41.79910453717457 102.24204306391766,42.06620909862977 102.20224348298507,42.3500070709124 101.91037988883909,42.36670104927907 101.65831587568391,42.183067165111424 101.47258449764922,42.04951508020167 101.2735865925788,41.99943301167514 101.06132216047263,42.06620909862977 100.79599162028171,42.082903114831424 100.6765928772511,42.233149160208995 100.68985940428684,42.48355883531622 100.6367932962603,42.717274080292555 100.35819622915005,42.817437623190926 100.09286568901734,42.93429498860496 99.8142686218489,42.950988889089786 99.5887376628234,42.93429498860496 99.62853724381421,42.667192278808216 99.70813640585402,42.36670104927907 99.80100209492957,42.082903114831424 99.88060125696938,41.73232830775669 99.94693389197346,41.365058409559424 99.93366736493772,41.01448159280699 99.88060125696938,40.680597997648874 99.84080167592037,40.36340775759891 99.5489380817744,40.296630762604764 99.2836075416999,40.26324225173448 99.16420879866928,40.0962995638547 99.15094227163354,39.92935665344703 99.1376757445978,39.69563620489498 99.08460963662947,39.52869276033016 98.9121447855141,39.495304044670775 98.7264134074212,39.461915320163826 98.56721508334158,39.495304044670775 98.56721508334158,39.71233053714968 98.58048161037732,39.97943954994844 98.60701466439059,40.33001926456927 98.60701466439059,40.61382117176254 98.63354771846207,40.931010777450865 98.64681424538139,41.26489370492345 98.63354771846207,41.582081661443226 98.63354771846207,41.88257477383013 98.64681424538139,42.19976116572798 98.63354771846207,42.46686487259285 98.64681424538139,42.80074370496732 98.66008077241713,43.03445835792809 98.67334729939466,43.26817257468065 98.66008077241713,43.4684986990178 98.64681424538139,43.73559969967755 98.62028119142633,43.9860063703527 98.59374813735485,44.15294387258473 98.56721508334158,44.3866560018505 98.55394855642226,44.62036769493716 98.54068202938652,44.85407895188837 98.54068202938652,45.054402539200964 98.54068202938652,45.35488731932128 98.55394855642226,45.655371378481505 98.54068202938652,46.00593520284747 98.54068202938652,46.323111150733894 98.54068202938652,46.606899475780665 98.55394855642226,46.8739937824721 98.56721508334158,47.22455419546168 98.56721508334158,47.5751136270992 98.56721508334158,47.79212611683761 98.55394855642226,48.09260432796145 98.55394855642226,48.27622954649269 98.51414897537325,48.54332029281068 98.54068202938652,48.777024228547816 98.56721508334158,49.02742081860197 98.60701466439059,49.32789606580627 98.66008077241713,49.611677581764525 98.6866138264304,49.96223033130809 98.75294646149268,50.32947501639137 98.84581215051003,50.69671862469113 98.9519443665049,50.9804970388941 99.0580765826162,51.24758201785153 99.16420879866928,51.5647446904477 99.27034101472236,51.84852113787201 99.3632067036815,52.0154481594509 99.42953933874378,52.21576029167045 99.53567155479686,52.41607210352959 99.64180377084995,52.63307620483101 99.68160335184075,52.866772508758004 99.70813640585402,53.01700561669713 99.86733472993365,53.150546005912474 99.96020041895099,53.28408625263546 100.0795991619816,53.46770385937998 100.19899790507043,53.634628722880734 100.30513012112351,53.85163071277202 100.43779539118987,54.03524748748168 100.61026024224702,54.218863992980914 100.79599162028171,54.45255733789236 100.98172299837461,54.719634912500624 101.14092132245423,54.95332732303359 101.26032006554306,55.15363475642516 101.3133861735696,55.287172867392655 101.48585102468496,55.57094088041049 101.65831587568391,55.78793951537227 101.81751419976354,56.038322088556015 101.97671252384316,56.32208839969826 102.12264432088705,56.55577782023465 102.26857611798914,56.80615885840962 102.42777444201056,57.073231414105976 102.60023929312592,57.35699538052722 102.77270414418308,57.65745064416842 102.95843552221777,57.94121328702022 103.13090037339134,58.20828342232562 103.31663175142603,58.47535298822913 103.50236312951893,58.79249735805206 103.70136103464756,59.10964092481299 103.87382588564651,59.3767085687723 104.04629073682008,59.660467316469294 104.19222253380576,59.92753378591442 104.33815433090786,60.16121647953696 104.48408612795174,60.378207161818864 104.64328445203137,60.64527210080996 104.81574930303032,60.912336470442824 104.94841457315488,61.12932585143426 105.12087942421203,61.36300630294136 105.30661080224672,61.630069142149296 105.46580912632635,61.91382278497622 105.61174092342844,62.130810431044665 105.77093924750807,62.43125424350728 105.94340409856522,62.74838859701413 106.12913547665812,63.06552214761905 106.30160032771528,63.34927253861679 106.47406517877243,63.63302228678367 106.69959613785613,63.95015359764511 106.85879446193576,64.21721092086227 106.99145973206032,64.45088561160082 107.16392458305927,64.70125086796179 107.33638943417463,65.00168851501076 107.50885428523179,65.33550727771944 107.68131913628895,65.65263427824539 107.80071787931956,65.88630629121326 107.95991620339919,66.22012269643892 108.07931494648801,66.52055670051777 108.1854471625411,66.87106212794606 108.23851327056764,67.08804118675471 108.23851327056764,67.25494789930235 108.10584800044307,67.4385450262489 108.11911452747881,67.4051637504599 108.23851327056764,67.35509182010719 108.37117854057578,67.48861692324863 108.4507777026156,67.70559491236054 108.54364339169115,67.97264422914304 108.64977560774423,68.2730740300176 108.76917435077485,68.60688407483394 108.88857309380546,68.94069323009171 109.00797183683608,69.2911918857717 109.06103794492083,69.45809566286334 109.18043668795144,69.77521222666837 109.29983543098206,70.07563770443085 109.40596764709335,70.30930146687024 109.49883333605248,70.59303544950671 109.5784324980923,70.84338842997386 109.63149860617705,71.07705076028651 109.72436429513618,71.36078300407098 109.83049651124747,71.64451460515556 109.93662872724235,71.96162563419784 110.01622788928216,72.21197587955976 110.12236010539345,72.52908547209518 110.21522579435259,72.77943458342634 110.32135801046388,73.06316297144804 110.4407567534945,73.33020086731995 110.53362244251184,73.61392800792237 110.66628771251999,73.93103405166767 110.75915340165375,74.18138036139135 110.87855214468436,74.4651055742579 110.95815130666597,74.66538180821226 111.05101699574152,74.9157266504626 111.17041573877214,75.08262293403095 111.21021531982115,75.19945020020532 111.1969487927854,75.4164148340933 111.14388268481707,75.60000000000582 110.95815130666597,75.49986267009808 110.77241992868949,75.24951899517328 110.58668855053838,74.98248519055778 110.37442411843222,74.71545081667136 110.10909357835772,74.39834675846214 109.83049651124747,74.13131113948475 109.59169902512804,73.91434427993954 109.3529015390086,73.66399743664078 109.1273705799249,73.44702976774715 108.87530656682793,73.14661237502878 108.63650908070849,72.94633371301461 108.39771159464726,72.71267486926808 108.13238105451455,72.42894568746851 107.89358356839512,72.19528587874083 107.64151955523994,71.96162563419784 107.34965596115217,71.69458482104528 107.0975919480552,71.49430383756408 106.77919529995415,71.31071265478386 106.48733170580817,71.21057189625571 106.15566853061318,71.12712120298238 105.83727188251214,71.09374091008794 105.49234218033962,71.01029013899097 105.16067900520284,70.92683931226202 104.8820819380926,70.87676878955972 104.56368528999155,70.79331787390402 104.25855516886804,70.79331787390402 103.88709241262404,70.69317670173768 103.52889618347399,70.59303544950671 103.40949744044337,70.55965501435276 103.21049953543115,70.50958434485074 103.03803468431579,70.49289411728387 102.82577025220962,70.45951365538349 102.64003887411673,70.42613318460644 102.45430749602383,70.40944294584915 102.28184264496667,70.35937221636414 102.05631168588297,70.30930146687024 101.83078072679928,70.27592095604632 101.67158240266144,70.20915990776848 101.48585102468496,70.15908909821883 101.20725395751651,70.04225713135384 100.86232425534399,69.9087347501918 100.51739455322968,69.77521222666837 100.21226443210617,69.67507024061342 99.92040083796019,69.59161852444231 99.60200418980094,69.50816675261012 99.27034101472236,69.40802455306402 98.92541131254984,69.30788227352605 98.55394855642226,69.22443031270814 98.195752327214,69.07421664315916 97.93042178708129,69.02414537995355 97.5589590309537,68.92400279348658 97.26709543686593,68.77378876366129 97.00176489673322,68.69033644707815 96.74970088357804,68.60688407483394 96.45783728943206,68.50674115476431 96.13944064133102,68.37321713687561 95.80777746613603,68.18962137984636 95.50264734501252,67.97264422914304 95.19751722394722,67.78904788498767 94.9321866838145,67.50530755110958 94.73318877874408,67.20487590889388 94.5872569817002,66.95451565655821 94.50765781966038,66.7041549038986 94.4015256036073,66.53724745742511 94.24232727952767,66.28688587072247 94.14946159045212,66.11997786830761 94.01679632038577,65.85292460178607 93.84433146932861,65.55248899641447 93.67186661827145,65.21867081196979 93.52593482122757,64.85146978155535 93.32693691615714,64.46757664429606 93.1279390110285,64.06699124662555 92.9422076329356,63.69978684002126 92.79627583589172,63.43272841363796 92.65034403884783,63.06552214761905 92.46461266069673,62.6816235367005 92.29214780969778,62.297723749128636 92.09314990462735,61.897131412042654 91.89415199949872,61.4965377937624 91.72168714838335,61.112634373945184 91.52268924331293,60.74542130615737 91.33695786533644,60.36151558419806 91.17775954119861,59.99430031425436 91.00529469008325,59.62708396773087 90.84609636606183,59.293249991198536 90.70016456901794,58.95941512486024 90.52769971790258,58.65896298439475 90.43483402888523,58.37520196776313 90.32870181283215,58.05805654131109 90.20930306980154,57.707526451398735 90.12970390781993,57.32361141778529 90.05010474572191,56.93969520741666 90.01030516473111,56.65593029555748 89.95723905664636,56.238627786704456 89.90417294867802,55.838016070090816 89.87763989460655,55.487479766845354 89.83784031361574,55.07017336477293 89.7847742055892,54.76971189430333 89.7847742055892,54.45255733789236 89.77150767861167,54.068632326685474 89.7449746245984,53.75147599491174 89.77150767861167,53.40093385173532 89.7847742055892,52.966927934103296 89.77150767861167,52.63307620483101 89.7449746245984,52.28253093121748 89.65210893552285,51.94867737751338 89.58577630051877,51.514666427188786 89.5990428274963,51.18081082649587 89.57250977348303,50.796875785454176 89.53271019249223,50.47971116815461 89.49291061144322,50.17923868451908 89.43984450347489,49.811993558789254 89.50617713847896,49.42805432136811 89.57250977348303,49.02742081860197 89.57250977348303,48.710251720011 89.57250977348303,48.49324082127714 89.61230935453204,48.32630910479929 89.58577630051877,48.09260432796145 89.53271019249223,47.79212611683761 89.51944366545649,47.491647184768226 89.4796440845239,47.15778085909551 89.45311103045242,46.80722025920113 89.43984450347489,46.523432388101355 89.36024534143507,46.139483068254776 89.3337122874218,45.75553257131833 89.30717923335033,45.35488731932128 89.28064617939526,45.02101529686479 89.24084659834625,44.70383605109237 89.20104701735545,44.319881152317976 89.17451396334218,44.16963761053921 89.18778049037792,43.81906864552002 89.20104701735545,43.4684986990178 89.17451396334218,43.13462164707016 89.1479809092707,42.86751936461951 89.1081813282799,42.51694675417093 89.05511522031156,42.166373162326636 89.05511522031156,41.815798588926555 89.08164827432483,41.51530531629396 89.08164827432483,41.14803478158137 89.00204911222681,40.74737478791212 88.98878258524928,40.44687895131938 88.96224953123601,40.11299384268932 89.00204911222681,39.89596804465691 89.00204911222681,39.76241352048237 88.97551605827175,39.51199840364279 88.96224953123601,39.2448883937177 88.94898300425848,38.9443889514514 88.86938384221867,38.62719431333244 88.81631773413392,38.243220781645505 88.80305120715639,37.90932979698118 88.80305120715639,37.54204868552915 88.78978468012065,37.191461164999055" stroke="#4DD2FF" stroke-dasharray="none" stroke-linecap="round" stroke-linejoin="round" stroke-width="0.5"><title>2017-11-19 11.8km</title><desc>9223370525802103807</desc></polyline><polyline fill="none" opacity="0.5" points="185.95875169616193,68.10861900402233 185.255359566072,68.17811800987693 184.4933514248114,67.96962096903007 183.49687924026512,68.10861900402233 182.55902306665666,68.10861900402233 181.62116689281538,68.17811800987693 180.56607869756408,68.10861900402233 179.8040705563035,67.96962096903007 178.9834464045707,67.96962096903007 178.22143826354295,67.96962096903007 177.3421981006395,67.76112385862507 176.52157394844107,66.99663385830354 175.5837177745998,66.92713472119067 174.82170963380486,66.85763557621976 173.88385345996358,66.57963891886175 173.1218453189358,66.7186372630531 172.3012211669702,66.64913809474092 171.36336499336176,66.7186372630531 170.54274084139615,66.51013973512454 169.6635006784927,66.64913809474092 168.72564450465143,66.78813642339082 167.72917232010514,66.44064054382034 166.90854816813953,66.30164213792887 166.20515603781678,66.16264370107092 165.384531886084,66.16264370107092 164.62252374505624,65.88464673480485 163.7432835821528,65.88464673480485 162.9226594301872,65.74564820510568 162.21926729986444,65.95414598792559 160.98833107203245,65.39815174596151 159.99185888725333,65.25915310822893 159.05400271364488,65.18965377786662 157.99891451839358,65.25915310822893 157.58860244229436,65.32865243108245 156.47489823610522,65.60664964455646 155.0681139754597,64.98115574021358 154.07164179091342,64.14716289372882 153.19240162800997,64.35566120949807 152.19592944346368,64.00816397793824 151.3166892810259,63.869165030890144 150.61329715070315,64.00816397793824 149.9099050203804,63.7996655459865 149.20651289005764,63.52166752866469 148.3272727271542,63.59116704465123 147.56526458612643,63.938664508285 146.27571234712377,63.52166752866469 145.57232021703385,63.1046702710446 145.22062415187247,62.34017457580194 144.75169606506824,61.575677945744246 144.6930800541304,60.463681178574916 144.81031207600608,59.49068238417385 144.81031207600608,58.378681907604914 144.6930800541304,57.40567986789392 144.6930800541304,56.0851746769622 144.51723202154972,55.39017082436476 144.39999999990687,54.34766359644709 144.6344640434254,53.37465528177563 144.6344640434254,52.540646949375514 144.8689280867111,51.845639155537356 144.6930800541304,50.942127868242096 144.98616010835394,49.96911425224971 144.92754409764893,48.92659798276145 145.10339213022962,48.30108738626586 145.16200814116746,47.05006431584479 145.10339213022962,45.93804170633666 145.16200814116746,44.9650203002966 145.22062415187247,44.20050241862191 145.39647218445316,43.296980080136564 145.57232021703385,42.32395456265658 145.39647218445316,41.3509275301476 145.39647218445316,40.65590729378164 145.27924016257748,39.821881990123075 145.39647218445316,40.65590729378164 145.39647218445316,41.3509275301476 145.57232021703385,42.32395456265658 145.39647218445316,43.296980080136564 145.22062415187247,44.20050241862191 145.16200814116746,44.9650203002966 145.10339213022962,45.93804170633666 145.16200814116746,47.05006431584479 145.10339213022962,48.30108738626586 144.92754409764893,48.92659798276145 144.98616010835394,49.96911425224971 144.6930800541304,50.942127868242096 144.8689280867111,51.845639155537356 144.6344640434254,52.540646949375514 144.6344640434254,53.37465528177563 144.39999999990687,54.34766359644709 144.51723202154972,55.39017082436476 144.6930800541304,56.0851746769622 144.6930800541304,57.40567986789392 144.81031207600608,58.378681907604914 144.81031207600608,59.49068238417385 144.6930800541304,60.463681178574916 144.75169606506824,61.575677945744246 145.22062415187247,62.34017457580194 145.57232021703385,63.1046702710446 146.27571234712377,63.52166752866469 147.56526458612643,63.938664508285 148.3272727271542,63.59116704465123 149.20651289005764,63.52166752866469 149.9099050203804,63.7996655459865 150.61329715070315,64.00816397793824 151.3166892810259,63.869165030890144 152.19592944346368,64.00816397793824 153.19240162800997,64.35566120949807 154.07164179091342,64.14716289372882 155.0681139754597,64.98115574021358 156.47489823610522,65.60664964455646 157.58860244229436,65.32865243108245 157.99891451839358,65.25915310822893 159.05400271364488,65.18965377786662 159.99185888725333,65.25915310822893 160.98833107203245,65.39815174596151 162.21926729986444,65.95414598792559 162.9226594301872,65.74564820510568 163.7432835821528,65.88464673480485 164.62252374505624,65.88464673480485 165.384531886084,66.16264370107092 166.20515603781678,66.16264370107092 166.90854816813953,66.30164213792887 167.72917232010514,66.44064054382034 168.72564450465143,66.78813642339082 169.6635006784927,66.64913809474092 170.54274084139615,66.51013973512454 171.36336499336176,66.7186372630531 172.3012211669702,66.64913809474092 173.1218453189358,66.7186372630531 173.88385345996358,66.57963891886175 174.82170963380486,66.85763557621976 175.5837177745998,66.92713472119067 176.52157394844107,66.99663385830354 177.3421981006395,67.76112385862507 178.22143826354295,67.96962096903007 178.9834464045707,67.96962096903007 179.8040705563035,67.96962096903007 180.56607869756408,68.10861900402233 181.62116689281538,68.17811800987693 182.55902306665666,68.10861900402233 183.49687924026512,68.10861900402233 184.4933514248114,67.96962096903007 185.255359566072,68.17811800987693 185.95875169616193,68.10861900402233 187.07245590235107,67.90012193983421 187.36553595680743,66.92713472119067 187.5999999998603,66.0236452333047 187.5999999998603,65.53715035278583 187.5999999998603,64.425160632818 187.54138398938812,63.73016605316661 187.5999999998603,62.8266719445819 187.5999999998603,62.06217590958113" stroke="#4DD2FF" stroke-dasharray="1,0.5" stroke-linecap="round" stroke-linejoin="round" stroke-width="0.5"><title>2014-03-22 10.5km</title><desc>9223370641410674807</desc></polyline><polyline fill="none" opacity="1" points="55.600000000034925,99.80149176064879 55.46329113928368,99.84902859816793 55.33634719712427,99.84902859816793 55.20940325502306,99.93221800844185 55.062929475621786,99.95598639842501 54.926220614870545,99.92033381130022 54.77974683546927,99.89656541268778 54.65280289336806,99.88468121123151 54.54538878845051,99.94410220413556 54.40867992769927,99.92033381130022 54.29150090418989,99.89656541268778 54.15479204343865,99.92033381130022 54.018083182687405,99.89656541268778 53.92043399641989,99.82526018228236 53.81301989156054,99.81337597219681 53.68607594940113,99.82526018228236 53.559132007241715,99.86091280393885 53.41265822784044,99.86091280393885 53.29547920438927,99.87279700829822 53.16853526222985,99.82526018228236 53.01229656423675,99.83714439097093 52.9048824593192,99.84902859816793 52.74864376132609,99.84902859816793 52.61193490057485,99.84902859816793 52.50452079571551,99.84902859816793 52.35804701631423,99.84902859816793 52.231103074213024,99.83714439097093 52.11392405064544,99.82526018228236 51.99674502713606,99.81337597219681 51.87956600362668,99.80149176064879 51.75262206152547,99.83714439097093 51.62567811936606,99.83714439097093 51.49873417726485,99.82526018228236 51.371790235105436,99.80149176064879 51.24484629294602,99.77772333325265 51.15696202532854,99.77772333325265 51.01048824598547,99.77772333325265 50.87377938517602,99.80149176064879 50.746835443074815,99.80149176064879 50.6198915009154,99.78960754764557 50.48318264016416,99.75395490012306 50.36600361671299,99.77772333325265 50.239059674495365,99.77772333325265 50.08282097650226,99.76583911741182 49.97540687164292,99.73018646122364 49.819168173591606,99.71830223959114 49.67269439424854,99.75395490012306 49.51645569619723,99.75395490012306 49.399276672746055,99.76583911741182 49.25280289334478,99.75395490012306 49.1356238698354,99.75395490012306 48.99891500908416,99.76583911741182 48.89150090422481,99.75395490012306 48.7645569620654,99.74207068137184 48.63761301996419,99.76583911741182 48.51066907774657,99.75395490012306 48.38372513564536,99.75395490012306 48.27631103078602,99.77772333325265 48.13960217003478,99.78960754764557 48.032188065117225,99.78960754764557 47.90524412295781,99.78960754764557 47.73924050637288,99.77772333325265 47.63182640145533,99.77772333325265 47.475587703462224,99.77772333325265 47.38770343584474,99.77772333325265 47.26075949368533,99.77772333325265 47.13381555158412,99.76583911741182 47.00687160942471,99.77772333325265 46.870162748673465,99.74207068137184 46.752983725164086,99.74207068137184 46.60650994582102,99.73018646122364 46.469801085069776,99.73018646122364 46.342857142852154,99.71830223959114 46.23544303799281,99.71830223959114 46.09873417724157,99.75395490012306 45.942495479248464,99.77772333325265 45.825316455739085,99.75395490012306 45.68860759498784,99.74207068137184 45.56166365282843,99.73018646122364 45.44448462931905,99.706418016518 45.288245931325946,99.73018646122364 45.17106690781657,99.706418016518 45.02459312841529,99.69453379205515 44.88788426766405,99.69453379205515 44.7511754068546,99.73018646122364 44.62423146475339,99.71830223959114 44.46799276676029,99.68264956614439 44.32151898735901,99.65888110997184 44.19457504525781,99.64699687971006 44.05786618444836,99.61134418035363 43.921157323697116,99.62322841490095 43.80397830018774,99.63511264804401 43.67703435808653,99.65888110997184 43.55985533457715,99.67076533878571 43.432911392475944,99.71830223959114 43.30596745025832,99.71830223959114 43.16925858950708,99.706418016518 43.042314647405874,99.69453379205515 42.93490054254653,99.68264956614439 42.807956600387115,99.706418016518 42.68101265828591,99.69453379205515 42.56383363477653,99.71830223959114 42.417359855317045,99.68264956614439 42.270886075973976,99.706418016518 42.16347197111463,99.68264956614439 42.02676311030518,99.68264956614439 41.899819168203976,99.68264956614439 41.79240506334463,99.64699687971006 41.65569620253518,99.62322841490095 41.509222423192114,99.63511264804401 41.36274864379084,99.64699687971006 41.21627486438956,99.62322841490095 41.09909584093839,99.63511264804401 40.96238698012894,99.63511264804401 40.81591320078587,99.62322841490095 40.68896925856825,99.62322841490095 40.56202531646704,99.63511264804401 40.41555153706577,99.64699687971006 40.278842676314525,99.67076533878571 40.161663652805146,99.63511264804401 40.03471971070394,99.59945994436566 39.8980108499527,99.61134418035363 39.77106690779328,99.58757570690796 39.63435804704204,99.59945994436566 39.51717902353266,99.62322841490095 39.40000000008149,99.59945994436566 39.26329113933025,99.57569146805326 39.116817359870765,99.57569146805326 38.999638336361386,99.57569146805326 38.85316455696011,99.55192298598558 38.7555153707508,99.52815449815535 38.628571428591385,99.52815449815535 38.491862567840144,99.52815449815535 38.39421338157263,99.55192298598558 38.24773960217135,99.5400387427726 38.11103074142011,99.55192298598558 37.9840867993189,99.58757570690796 37.837613019917626,99.58757570690796 37.700904159166384,99.59945994436566 37.60325497289887,99.56380722775066 37.466546112147626,99.56380722775066 37.33960217004642,99.56380722775066 37.232188065187074,99.5400387427726 37.075949367077556,99.56380722775066 36.94900542503456,99.55192298598558 36.79276672692504,99.5400387427726 36.66582278482383,99.55192298598558 36.56817359861452,99.5400387427726 36.32405063294573,99.55192298598558 36.04086799279321,99.5400387427726 35.82603978301631,99.50438600458438 35.60144665464759,99.50438600458438 35.16202531650197,99.56380722775066 34.888607594999485,99.49250175564521 34.71283905970631,99.4687332534013 34.37106690782821,99.49250175564521 34.20506329118507,99.44496474546031 34.048824593191966,99.43308048933977 33.75587703444762,99.4806175052363 33.472694394236896,99.51627025209746 33.218806509976275,99.62322841490095 33.01374321884941,99.59945994436566 29.156600361748133,99.38554345034208 28.9320072333212,99.38554345034208 28.687884267652407,99.34989065605623 28.365641953016166,99.43308048933977 28.111754068755545,99.36177492226125 27.848101265903097,99.31423784876824 27.49656419531675,99.31423784876824 24.332730560621712,99.27858502855815 24.098372513602953,99.30235357678612 23.785895117616747,99.27858502855815 23.561301989189815,99.24293219536048 23.307414104929194,99.14785791025497 23.004701627534814,99.23104791474907 22.682459312898573,99.24293219536048 22.45786618447164,99.2548164745167 19.92875226039905,99.21916363272612 19.596745027170982,99.21916363272612 19.430741410527844,99.21916363272612 19.264737793884706,99.24293219536048 19.215913200750947,99.18351077797706 19.06943942134967,99.19539506431465 18.737432188121602,99.20727934925526 18.610488245962188,99.13597361815482 18.346835443051532,99.11220502964716 18.132007233332843,99.13597361815482 17.926943942147773,99.13597361815482 17.780470162746496,99.10032073321054 16.735623869812116,99.12408932461403 16.432911392475944,99.13597361815482 16.198553345398977,99.05278353308677 15.973960217030253,99.10032073321054 15.622423146502115,99.08843643531145 15.388065099483356,99.12408932461403 15.163471971114632,99.17162649019883 14.899819168203976,99.11220502964716 14.626401446643285,99.08843643531145 14.392043399682734,99.07655213602993 14.07956600363832,99.05278353308677 13.89403254975332,99.05278353308677 13.67920434003463,99.06466783525684 13.210488245938905,99.08843643531145 13.015189873462077,98.98147768976924 12.995660036162008,99.2548164745167 13.024954792053904,99.4687332534013 13.064014466595836,99.64699687971006 12.976130198920146,99.84902859816793 12.858951175468974,99.87279700829822 12.878481012710836,99.56380722775066 12.673417721583974,99.57569146805326 12.507414104940835,99.75395490012306 12.439059674507007,99.89656541268778 12.419529837265145,100.0867124404831 12.468354430398904,100.41946885283687 12.487884267640766,100.66903542190994 12.605063291208353,101.02555799133552 12.61482820980018,101.2632389849532 12.673417721583974,101.53657141615258 12.702712477417663,101.77425117249368 12.761301989201456,101.94062665951787 12.790596745035145,102.17830543756281 12.790596745035145,102.45163532090373 12.810126582335215,102.72496444325225 12.858951175468974,103.01017662904633 12.858951175468974,103.28350419626076 12.868716094060801,103.55683100243914 12.888245931302663,103.83015704765421 12.868716094060801,104.07971494603407 12.868716094060801,104.38869051272923 12.81989150098525,104.61447973495524 12.839421338168904,104.92345361857588" stroke="#4DD2FF" stroke-dasharray="none" stroke-linecap="round" stroke-linejoin="round" stroke-width="0.5"><title>2013-12-10 10.9km</title><desc>9223370650177580807</desc></polyline><polyline fill="none" opacity="1" points="96.64057530183345,81.85947207268327 93.52110951114446,83.90273149451241 91.36147934850305,88.2811387181282 91.36147934850305,91.78385877958499 90.16168481484056,95.87035909830593 89.68176699988544,98.49739136477001 88.72193137276918,102.58388032088988 88.96189028024673,106.37847101641819 88.2420135596767,109.29738287813962 88.2420135596767,113.09196302411146 88.2420135596767,116.01086677075364 89.4418080933392,118.34598722797818 91.84139716345817,121.84866367932409 94.72090404573828,123.01622136775404 98.56024655792862,123.60000000009313 102.15963016077876,122.43244259478524 104.07930141687393,119.80543636670336 106.71884939447045,117.47031732159667 108.39856174215674,113.38385355728678 108.39856174215674,110.17305574938655 109.59835627768189,106.08657963620499 110.07827409170568,102.87577212415636 110.79815081227571,99.08117592497729 111.7579864403233,94.70278828428127 111.7579864403233,92.07575188926421 111.51802753377706,87.69735154649243 110.31823299825191,84.19462555623613 108.87847955618054,81.85947207268327 105.51905485894531,80.98378893476911 103.11946578975767,80.4000000001397 99.28012327849865,80.6918944849167 96.16065748780966,82.44326065597124 93.04119169805199,85.36220145085827 90.64160262793303,88.57303225062788 90.40164372138679,92.36764496355318 89.92172590643167,95.87035909830593 89.4418080933392,99.37306815129705 88.72193137276918,102.58388032088988 88.72193137276918,106.37847101641819 88.2420135596767,110.17305574938655 88.72193137276918,113.96763451839797 89.20184918586165,117.47031732159667 91.36147934850305,119.80543636670336 94.24098623264581,121.55677416943945 97.60041092988104,122.43244259478524 101.43975344114006,122.1405531547498 105.27909595239908,119.51354661001824 107.67868502158672,117.17842728225514 108.39856174215674,112.80007245577872" stroke="#4DD2FF" stroke-dasharray="none" stroke-linecap="round" stroke-linejoin="round" stroke-width="0.5"><title>2013-11-30 10.3km</title><desc>9223370651086224807</desc></polyline><polyline fill="none" opacity="1" points="160.34491645358503,85.07774658850394 156.27325630094856,88.93000126630068 157.17806966789067,92.23192865797319 156.49945964291692,95.80901126144454 156.27325630094856,100.76188558526337 156.49945964291692,104.06379581429064 153.55881619919091,107.36570125445724 154.46362956706434,109.8421271899715 155.82084961794317,112.31855043233372 155.82084961794317,116.17075901036151 156.49945964291692,118.37201812700368 157.40427300985903,119.47264688764699 159.44010308664292,122.22421646025032 162.83315321430564,122.22421646025032 166.67861002590507,123.60000000009313 167.58342339284718,121.6739028126467 171.20267686247826,119.74780399515294 174.8219303302467,115.89560147118755 175.72674369905144,114.51981327589601 177.53637043293566,112.04339242749847 176.85776040703058,106.8153840135783 176.17915038205683,105.71474913298152 176.4053537240252,101.86252286075614 177.762573774904,96.90965093066916 177.762573774904,95.80901126144454 176.17915038205683,92.78224942437373 178.44118379987776,90.30580492829904 176.85776040703058,89.20516206463799 175.2743370141834,86.72871367656626 173.23850693926215,83.7019397658296 171.4288802035153,83.15161680453457 168.4882367597893,80.4000000001397 163.9641699232161,82.6012937091291 160.79732313752174,85.90323028201237 157.85667969379574,88.93000126630068 156.72566298395395,90.85612616012804 156.49945964291692,95.25869122636504 158.0828830357641,99.38608824228868 156.27325630094856,102.96315960329957 155.36844293307513,105.43959032977 156.0470529589802,107.64085982413962 155.1422395920381,110.6676019039005 155.36844293307513,113.69433995871805 155.36844293307513,117.27138883504085 157.40427300985903,118.64717536675744 160.118713112548,120.57327511627227 163.5117632402107,121.94905965286307 166.4524066830054,122.77452997583896 169.61925346869975,122.22421646025032 172.3336935704574,120.02296106843278 174.8219303302467,117.27138883504085 176.4053537240252,113.41918211965822 176.63155706506222,110.3924436995294 176.85776040703058,107.36570125445724 176.85776040703058,104.06379581429064 176.17915038205683,100.76188558526337 176.85776040703058,97.45997056690976 177.08396374993026,94.70837105903774 177.98877711594105,91.40644725854509 177.53637043293566,88.37967956834473 176.17915038205683,85.62806908367202 174.3695236472413,83.7019397658296 172.3336935704574,82.87645527347922 169.16684678569436,82.05097048147582 166.4524066830054,82.05097048147582 163.28555989731103,83.7019397658296 161.47593316342682,84.25226259441115 159.44010308664292,86.45355257811025 157.85667969379574,88.37967956834473 157.63047635182738,91.40644725854509 156.72566298395395,95.25869122636504 157.17806966789067,98.28544977051206 156.49945964291692,102.13768209633417 156.49945964291692,104.06379581429064 156.0470529589802,108.46633533574641 154.68983290810138,112.31855043233372 155.1422395920381,116.17075901036151 156.49945964291692,118.09686085442081 160.34491645358503,119.19748974777758 163.5117632402107,121.3987459379714 166.67861002590507,121.3987459379714 170.07166015263647,119.74780399515294 172.3336935704574,118.09686085442081 174.14332030527294,115.07012865296565 175.72674369905144,111.21791821252555 175.50054035615176,107.64085982413962 176.17915038205683,104.33895478351042 176.17915038205683,100.76188558526337 176.85776040703058,97.45997056690976 177.08396374993026,93.6077303243801 178.21498045884073,89.48032283014618 177.08396374993026,87.55419677193277 175.04813367314637,85.62806908367202 172.3336935704574,83.97710119653493 168.2620334168896,82.87645527347922 164.64277994912118,83.15161680453457 161.9283398464322,84.80258529004641 159.21389974374324,87.27903577359393 158.0828830357641,90.0306442619767 157.63047635182738,92.78224942437373" stroke="#4DD2FF" stroke-dasharray="none" stroke-linecap="round" stroke-linejoin="round" stroke-width="0.5"><title>2013-11-16 10.4km</title><desc>9223370652294258807</desc></polyline><polyline fill="none" opacity="1" points="38.37842933367938,129.58357180282474 30.59455496352166,128.99178597261198 27.675602074712515,131.06303575029597 25.97287955507636,134.61374557600357 22.81068059336394,138.16445025079884 24.27015703730285,141.12336687929928 23.297172740101814,144.6740621116478 23.297172740101814,150.88776637450792 22.81068059336394,154.43844744330272 23.053926666267216,160.06034860108048 22.56743451859802,163.6110163643025 23.540418814867735,166.5699022328481 24.99989525973797,168.64112021238543 29.135078518651426,170.71233643963933 34.0,171.60000000009313 38.37842933367938,171.30411218269728 39.35141362901777,169.52878452418372 42.02712044399232,167.1616789775435 42.27036651875824,163.01923876185901 42.27036651875824,160.35623777890578 43.24335081502795,155.32611690624617 45.18931940756738,150.29598569567315 45.43256548140198,146.1535169382114 45.919057629071176,142.89871513913386 45.67581155523658,138.75623386260122 45.919057629071176,135.7973143735435 44.70282725803554,132.5424988034647 40.56764399912208,129.879464663798 36.91895288974047,128.99178597261198 33.270261778496206,128.99178597261198 29.378324592486024,130.4712502779439 26.7026177784428,132.24660626379773 25.486387407407165,136.38909855671227 23.783664888702333,141.12336687929928 23.783664888702333,144.08227993012406 23.540418814867735,146.74529861821793 22.81068059336394,150.88776637450792 23.053926666267216,154.73433729959652 22.81068059336394,157.69323389837518 23.053926666267216,162.72334990650415 24.02691096253693,165.09045974630862 26.459371704608202,167.1616789775435 31.081047111190856,171.00822432967834 34.972984296269715,171.00822432967834 38.62167540658265,169.82467255694792 40.810890073888004,168.64112021238543 43.48659688886255,165.38634831481613 44.216335110366344,162.72334990650415 43.973089036531746,158.58090218016878 44.459581185132265,153.8466676226817 45.43256548140198,150.88776637450792 46.162303702905774,147.33708015549928 46.162303702905774,143.7863887862768 46.405549777671695,139.64390901243314 45.919057629071176,135.7973143735435 43.72984296362847,132.5424988034647 41.054136148653924,130.4712502779439 36.91895288974047,128.4000000001397 33.270261778496206,128.99178597261198 29.864816741086543,130.4712502779439 26.7026177784428,131.95071368920617 24.02691096253693,134.90963782859035 23.297172740101814,140.23569226590917 23.540418814867735,143.7863887862768 23.053926666267216,147.33708015549928 24.51340311113745,150.88776637450792 22.81068059336394,156.50967568787746 22.080942370928824,160.35623777890578 22.81068059336394,164.2027938242536 23.053926666267216,166.27401380729862 26.7026177784428,168.64112021238543 29.621570666320622,170.12056055432186 34.486492147669196,170.71233643963933 37.89193718507886,170.12056055432186 41.054136148653924,168.64112021238543 43.24335081502795,165.68223684746772 43.973089036531746,162.13157208892517 44.94607333280146,158.58090218016878 45.43256548140198,155.0302271207329 45.67581155523658,151.77543712500483 46.162303702905774,148.81653337273747 46.405549777671695,145.26584414974786 46.89204192534089,139.3480173314456 46.405549777671695,135.7973143735435 44.70282725803554,133.13428377383389 41.54062829632312,130.4712502779439 38.864921481348574,129.2876789055299 34.0,128.69589300476946 31.081047111190856,129.58357180282474 28.40534029621631,130.76714303181507 25.97287955507636,133.13428377383389 24.99989525973797,134.31785328662954 24.27015703730285,135.7973143735435 25.486387407407165,139.3480173314456 25.243141333572567,140.82747537712567 24.756649184972048,144.9699531486258 23.297172740101814,149.1124239093624 22.56743451859802,152.3672174452804 22.080942370928824,157.39734439994209 21.10795807465911,159.46857014065608 21.837696296162903,160.94801602489315 23.297172740101814,163.90690511232242" stroke="#4DD2FF" stroke-dasharray="none" stroke-linecap="round" stroke-linejoin="round" stroke-width="0.5"><title>2013-11-03 10.7km</title><desc>9223370653417861807</desc></polyline><polyline fill="none" opacity="1" points="109.82551975175738,155.7600909504108 109.58876023907214,152.01609706040472 110.77255779877305,148.27209728653543 111.48283633589745,145.39209345774725 111.71959584765136,142.5120861462783 111.9563553603366,138.48007006268017 111.48283633589745,133.2960393568501 109.35200072731823,129.84001261997037 106.98440560605377,129.2640076763928 103.90653194859624,130.41601742454804 100.35513926763088,130.12801503995433 97.51402512192726,130.41601742454804 94.67291097715497,132.14403100241907 92.77883488032967,135.3120526385028 91.35827780794352,138.1920686531812 91.59503732062876,143.37608870584518 90.88475878350437,145.96809450211003 90.1744802473113,149.712097896263 89.46420171111822,153.4560954067856 88.51716366223991,155.7600909504108 88.28040415141732,159.2160800890997 88.28040415141732,162.96006266516633 89.70096122287214,167.28003524802625 92.77883488032967,169.5840174248442 97.27726561017334,171.31200259411708 100.59189877938479,171.60000000009313 104.3800509730354,170.16001262003556 107.69468414224684,167.28003524802625 108.16820316575468,162.6720642137807 110.29903877526522,158.06408426584676 110.53579828795046,154.60809345706366 110.53579828795046,151.44009747868404 110.77255779877305,147.1200961722061 111.00931731145829,142.80008703446947 112.19311487209052,139.0560727783013 112.42987438477576,135.3120526385028 110.29903877526522,132.7200352489017 108.87848170287907,130.41601742454804 105.80060804635286,128.9760051521007 102.01245585177094,128.4000000001397 98.22430365905166,129.2640076763928 94.90967048984021,129.84001261997037 89.70096122287214,133.8720433257986 88.99068268761039,135.0240508459974 88.99068268761039,136.46405946207233 90.1744802473113,139.63207535468973 89.93772073462605,143.66408948926255 88.51716366223991,147.69609680003487 88.51716366223991,150.57609784416854 87.57012561522424,154.32009399705566 87.57012561522424,157.48808614653535 87.80688512697816,160.65607408294454 87.57012561522424,163.5360594613012 89.22744219843298,166.7040393569041 91.35827780794352,169.00802208902314 94.19939195271581,169.87201503990218 97.9875441454351,169.5840174248442 102.01245585177094,168.72002436965704 106.51088658254594,166.99203731981106 108.40496267937124,164.4000543965958 110.29903877526522,160.65607408294454 109.82551975175738,156.62408870481886 110.29903877526522,152.59209650335833 110.53579828795046,149.13609775714576 110.77255779877305,145.39209345774725 111.00931731145829,141.93608426721767" stroke="#4DD2FF" stroke-dasharray="none" stroke-linecap="round" stroke-linejoin="round" stroke-width="0.5"><title>2013-11-02 10.5km</title><desc>9223370653505000807</desc></polyline><polyline fill="none" opacity="1" points="172.21494320314378,130.29001747770235 168.88550934474915,128.94000515691005 166.2219622572884,128.94000515691005 162.6705661425367,130.56001984444447 159.78505679685622,132.45003549358808 157.5654342258349,135.15005507646129 156.01169842481613,138.12007284793071 156.45562293939292,142.98009340977296 156.67758519575,145.68010026379488 156.23366068210453,149.19010429433547 156.01169842481613,151.35010403278284 156.01169842481613,152.97010246641003 155.56777391023934,155.67009724397212 155.12384939659387,158.6400877290871 156.23366068210453,162.15007139416412 157.5654342258349,164.85005507571623 160.67290582694113,167.0100396713242 164.22430194169283,168.3600289823953 167.7756980592385,168.3600289823953 169.77335837297142,167.82003335561603 172.65886771772057,165.66004954348318 174.6565280323848,162.96006684168242 175.54437706060708,159.18008557590656 175.54437706060708,155.94009654247202 175.7663393188268,152.70010280935094 175.54437706060708,149.46010437584482 175.54437706060708,146.49010168295354 176.43222609069198,142.98009340977296 176.87615060433745,140.01008210144937 176.43222609069198,137.31006839242764 175.32241480425,134.34004954481497 173.99064126145095,132.72003759886138 170.4392451448366,130.56001984444447 167.7756980592385,128.4000000001397 165.3341132281348,129.48001018329524 162.0046793706715,130.8300221778918 159.78505679685622,132.45003549358808 158.67524551134557,135.69005860155448 158.2313209977001,138.12007284793071 157.7873964831233,141.63008875912055 156.45562293939292,144.33009724435396 156.01169842481613,146.76010209089145 156.23366068210453,150.81010429398157 157.7873964831233,154.32010026299395 154.90188713837415,155.13009854895063 155.12384939659387,156.21009580790997 154.45796262472868,157.56009164638817 154.90188713837415,163.23006525845267 160.22898131329566,166.20004569296725 165.77803774364293,167.55003549298272 167.1098112873733,167.55003549298272 169.10747160110623,167.55003549298272 171.77101868763566,168.3600289823953 173.99064126145095,164.0400603134185 174.6565280323848,162.96006684168242 174.8784902896732,160.5300796192605 175.54437706060708,159.18008557590656 173.54671674594283,158.91008666879497 174.8784902896732,158.10008975397795 176.2102638334036,155.94009654247202 175.9883015761152,150.81010429398157 176.2102638334036,149.46010437584482 175.7663393188268,146.2201012421865 176.2102638334036,142.1700907170307 175.7663393188268,136.7700652598869 175.32241480425,133.26004171161912 173.54671674594283,129.75001264712773 169.55139611661434,129.48001018329524 165.77803774364293,129.21000768686645 162.6705661425367,130.56001984444447 159.78505679685622,132.72003759886138 156.67758519575,133.26004171161912 156.45562293939292,137.58006991050206 156.23366068210453,140.55008445074782 156.01169842481613,144.0600965428166 154.90188713837415,147.57010311936028 155.34581165295094,151.62010385282338 155.12384939659387,155.13009854895063 154.90188713837415,159.18008557590656 154.90188713837415,161.61007426702417 158.45328325405717,165.66004954348318 164.00233968626708,168.63002674723975 166.44392451550812,169.98001507879235 169.32943385839462,171.60000000009313 173.32475448958576,167.82003335561603 175.1004525469616,162.69006839231588 175.54437706060708,159.7200832911767 175.54437706060708,158.6400877290871 175.1004525469616,153.24010209064 174.8784902896732,148.92010417976417 175.32241480425,146.2201012421865 175.54437706060708,142.98009340977296 177.09811286255717,138.93007700890303 175.7663393188268,135.96006031497382 174.43456577509642,134.34004954481497 172.88082997407764,130.8300221778918 170.21728288847953,130.02001507859677 166.0,129.75001264712773 162.0046793706715,130.56001984444447 159.78505679685622,130.8300221778918 156.89954745396972,132.72003759886138 154.90188713837415,135.69005860155448 154.67992488108575,138.39007426798344 155.34581165295094,139.7400808769744 154.23600036650896,142.71009254432283 154.67992488108575,145.95010076928884 154.90188713837415,147.57010311936028 154.45796262472868,150.27010442432947 154.90188713837415,153.78010124200955 154.67992488108575,157.02009340864606 154.90188713837415,161.34007565444335 157.5654342258349,166.20004569296725 161.7827171124518,168.63002674723975 163.11449065618217,168.3600289823953 166.0,169.98001507879235 167.99766031466424,169.1700221770443 171.1051319167018,171.33000259427354 173.32475448958576,168.63002674723975 174.8784902896732,162.42006990942173 173.99064126145095,158.37008875748143 175.1004525469616,151.35010403278284 174.8784902896732,147.0301024664659 174.8784902896732,145.68010026379488 176.43222609069198,142.98009340977296 177.76399963349104,140.82008557626978 177.09811286255717,136.7700652598869 175.32241480425,132.1800333559513 173.10279223136604,129.75001264712773 169.9953206302598,128.6700025945902 166.0,128.94000515691005 161.1168303405866,130.56001984444447 157.1215097112581,132.1800333559513 156.67758519575,133.53004371840507 155.56777391023934,134.61005142168142 155.78973616752774,137.04006684245542 156.01169842481613,138.6600756549742 156.23366068210453,142.1700907170307 156.23366068210453,143.5200950417202 156.23366068210453,147.84010339644738 156.01169842481613,149.19010429433547 155.12384939659387,151.62010385282338 155.78973616752774,155.13009854895063 154.90188713837415,156.21009580790997 155.12384939659387,161.07007700833492 156.23366068210453,162.15007139416412 156.23366068210453,163.50006364332512 158.45328325405717,165.66004954348318 162.6705661425367,168.63002674723975 167.1098112873733,170.52001018356532 170.4392451448366,169.710017477395 171.99298094585538,168.09003118495457 175.32241480425,163.77006199466996 174.8784902896732,159.18008557590656 174.43456577509642,152.97010246641003 176.2102638334036,152.1601033960469 176.65418834704906,147.3001028096769 176.87615060433745,146.49010168295354 175.9883015761152,142.71009254432283 176.87615060433745,138.93007700890303 175.54437706060708,134.34004954481497 173.54671674594283,132.1800333559513 172.21494320314378,128.94000515691005 166.2219622572884,129.21000768686645 162.0046793706715,130.02001507859677 159.34113228321075,132.1800333559513 157.3434719676152,134.34004954481497" stroke="#4DD2FF" stroke-dasharray="none" stroke-linecap="round" stroke-linejoin="round" stroke-width="0.5"><title>2013-10-26 11.1km</title><desc>9223370654110301807</desc></polyline><polyline fill="none" opacity="1" points="44.39716936275363,193.1685153071303 44.163525108247995,191.17903669271618 43.462592341937125,189.75797950988635 43.22894808650017,187.76849800907075 42.5280153201893,183.78952995873988 41.126149787567556,180.3789805562701 36.9205531924963,178.67370399925858 33.649533617310226,178.10527820512652 29.67758127581328,180.66319319489412 27.574782977811992,181.51583090610802 25.00469616893679,184.3579543782398 23.135542125441134,187.76849800907075 24.537407658062875,190.32640248560347 25.238340423442423,193.1685153071303 25.238340423442423,196.86325683817267 24.30376340262592,199.9895720607601 23.836474891752005,203.68430287321098 23.602830636315048,206.81060902611353 24.537407658062875,208.23165590292774 23.836474891752005,212.77900013769977 25.939273189753294,215.62108581862412 28.275715744122863,217.89475188939832 31.079446808435023,218.46316806343384 34.350466382689774,217.89475188939832 38.32241872418672,216.18950254260562 41.59343829937279,213.91583482245915 42.5280153201893,209.93691102182493 42.29437106475234,206.52639954793267 42.76165957655758,202.26325324806385 42.76165957655758,198.85273064253852 42.76165957655758,195.1579922370147 44.163525108247995,191.4632480267901 45.79903489537537,189.18955639493652 46.7336119171232,186.63165068160743 46.49996766075492,184.07374218595214 44.163525108247995,181.23161837016232 41.126149787567556,179.81055517448112 38.08877446874976,177.25263925665058 34.81775489449501,176.4000000001397 31.313091062940657,177.82106525660492 28.509359998628497,180.09476788225584 25.939273189753294,182.6526807071641 25.471984679810703,185.77901482582092 25.471984679810703,189.4737679695245 25.00469616893679,192.60009301709943 24.537407658062875,196.86325683817267 21.733676593750715,199.9895720607601 22.20096510462463,203.68430287321098 21.967320849187672,207.94744659680873 22.434609359130263,211.07374708005227 22.434609359130263,213.91583482245915 24.537407658062875,216.75791912851855 27.574782977811992,219.0315841003321 30.845802552998066,219.60000000009313 34.81775489449501,219.0315841003321 37.38784170243889,217.610543750925 41.126149787567556,215.90529419737868 42.060726810246706,213.6316262029577 43.69623659737408,210.22112008789554 44.163525108247995,206.81060902611353 44.163525108247995,203.1158831268549 44.63081361912191,199.70536175812595 45.33174638450146,195.4422030900605 45.565390639938414,192.0316705906298 46.03267915081233,189.18955639493652 45.79903489537537,185.49480280443095 44.864457874558866,181.80004340759479 42.76165957655758,179.24212965508923 39.72428425680846,178.10527820512652 36.21962042618543,177.53685227409005 32.7149565955624,177.53685227409005 29.443937021307647,178.95791684417054 25.939273189753294,181.23161837016232 24.537407658062875,184.07374218595214 25.238340423442423,188.33692146651447 23.836474891752005,191.74745932617225 23.602830636315048,194.58957042940892 23.602830636315048,198.28430972713977 21.967320849187672,201.69483315735124 22.434609359130263,206.52639954793267 22.20096510462463,209.3684927856084 23.602830636315048,212.21058258996345 24.537407658062875,215.90529419737868 25.471984679810703,217.610543750925 31.079446808435023,219.0315841003321 35.051399149000645,218.46316806343384 37.62148595787585,216.18950254260562 41.82708255387843,212.77900013769977 43.462592341937125,211.9263737637084 44.163525108247995,209.08428361662664 43.69623659737408,205.95798048726283 43.69623659737408,202.26325324806385 43.69623659737408,199.13694104878232 44.163525108247995,195.72641390911303 45.565390639938414,192.31588182109408 45.79903489537537,189.18955639493652 45.79903489537537,186.34743876405992 45.79903489537537,183.78952995873988 43.462592341937125,181.23161837016232 41.59343829937279,178.10527820512652 38.08877446874976,176.96842620545067 33.88317787181586,178.10527820512652 29.91122553125024,180.09476788225584 27.574782977811992,183.22110540163703 25.471984679810703,186.34743876405992 24.07011914718896,188.33692146651447 23.836474891752005,192.0316705906298 22.9018978709355,195.4422030900605 22.434609359130263,199.13694104878232 23.135542125441134,202.26325324806385 21.733676593750715,205.38956129038706 21.2663880828768,208.51586517505348 22.434609359130263,213.6316262029577" stroke="#4DD2FF" stroke-dasharray="none" stroke-linecap="round" stroke-linejoin="round" stroke-width="0.5"><title>2013-10-20 10.7km</title><desc>9223370654628121807</desc></polyline><polyline fill="none" opacity="1" points="92.40582375694066,214.9811717160046 95.30947938002646,217.42643493087962 99.10656750109047,217.6981306800153 102.45693937223405,217.42643493087962 106.03066936973482,216.06795569579117 109.15768311638385,213.8943872116506 110.72118998877704,211.17742365039885 110.94454811420292,208.18875993951224 111.39126436412334,205.20009225560352 111.83798061311245,201.1246299177874 112.50805498752743,198.13595284009352 112.95477123744786,195.41897022980265 113.17812936194241,192.70198433613405 112.73141311202198,188.89819856663235 112.50805498752743,186.1812047897838 110.27447373978794,182.92080792272463 108.71096686646342,179.6604063261766 105.80731124430895,177.75850321003236 102.68029749765992,176.67170070740394 99.77664187457412,176.67170070740394 96.20291187800467,177.48680263385177 92.85254000686109,179.6604063261766 90.39560063369572,182.92080792272463 89.50216813571751,185.90950523177162 89.50216813571751,188.89819856663235 88.83209376130253,192.15858676331118 88.60873563587666,196.23406535829417 87.49194501247257,199.49444291344844 87.93866126146168,202.4831181843765 86.82187063805759,206.2868809637148 89.27881001029164,208.73215363710187 90.17224251013249,211.9925130638294 91.95910750795156,215.52456377237104 94.19268875569105,217.42643493087962 97.7664187522605,218.7849133447744 101.56350687332451,219.60000000009313 104.46716249547899,217.96982639585622 106.92410186771303,215.25286776060238 108.93432499095798,212.8076021813322 110.49783186521381,209.81894063809887 110.27447373978794,207.64536611060612 110.94454811420292,204.65669770352542 111.16790623962879,201.6680253231898 111.39126436412334,198.67934896820225 112.061338737607,196.23406535829417 112.50805498752743,191.88688792707399 112.50805498752743,188.62649933667853 111.16790623962879,183.19250784208998 109.3810412408784,179.6604063261766 106.47738561872393,178.03020375361666 102.01022312324494,176.4000000001397 98.43649312574416,176.67170070740394 95.53283750358969,178.03020375361666 92.40582375694066,179.9321066394914 90.84231688361615,183.19250784208998" stroke="#4DD2FF" stroke-dasharray="none" stroke-linecap="round" stroke-linejoin="round" stroke-width="0.5"><title>2013-10-19 10.2km</title><desc>9223370654714312807</desc></polyline><polyline fill="none" opacity="1" points="165.0529616093263,219.60000000009313 168.36759597994387,218.16001261910424 171.20871115475893,216.14402882475406 174.049826329574,213.55204715393484 174.76010512374341,210.38406572700478 175.70714351627976,206.06408426584676 175.23362432047725,202.03209450119175 175.47038391791284,197.71209789603017 175.70714351627976,194.83209580741823 176.41742231044918,190.8000870347023 177.36446070112288,187.05607277853414 175.94390311371535,183.0240508459974 174.76010512374341,180.14403100172058 171.20871115475893,177.55201016599312 167.18379798997194,176.39999999990687 163.39564442262053,177.55201016599312 160.31776964943856,179.2800243704114 158.66045246366411,182.44804715528153 157.4766544746235,185.32806421420537 157.23989487532526,187.92007659026422 156.76637568045408,191.6640894880984 155.81933728791773,195.12009617267177 155.1090584937483,198.28809789568186 154.87229889724404,201.45609540655278 154.87229889724404,205.48808614583686 155.34581809211522,209.23207143694162 157.00313527788967,212.97605084488168 158.1869332678616,214.99203731981106 161.028048443608,218.16001261910424 164.57944241166115,218.16001261910424 167.42055758740753,218.73600767576136 170.73519195895642,217.29601977346465 173.33954753633589,215.56803314224817 174.99686472211033,212.11205611890182 175.47038391791284,207.79207779001445 175.70714351627976,203.18409227347001 175.70714351627976,200.30409679887816 175.70714351627976,196.84809763496742 176.65418190788478,193.9680945011787 177.36446070112288,190.51208614674397 177.1277011046186,186.19206865271553 174.99686472211033,180.14403100172058 172.3925091456622,178.12801503925584 167.65731718577445,176.68800259334967 164.81620201002806,176.97600515233353 161.97508683428168,179.56802661530674 159.37073125783354,181.58404135890305 158.66045246366411,184.4640594618395 157.23989487532526,189.07208118587732 155.81933728791773,193.39209345704876 155.81933728791773,196.84809763496742 154.3987797005102,200.30409679887816 154.6355392979458,204.04809023649432 154.87229889724404,207.2160800884012 154.3987797005102,210.67206421284936 156.29285648372024,214.70403935597278 158.89721206203103,217.29601977346465 161.5015676394105,217.5840174241457 166.4735191958025,218.16001261910424 169.31463437061757,216.72002436965704 172.3925091456622,214.12804332445376 173.33954753633589,211.53605946153402 174.52334552630782,207.79207779001445 175.94390311371535,204.33608948858455 177.1277011046186,201.1680958061479 177.6012202994898,197.13609775644727 177.1277011046186,192.52809162973426 177.1277011046186,188.20807779114693 176.18066271208227,184.75206108111888 174.76010512374341,180.14403100172058 171.91898994892836,178.12801503925584 168.84111517574638,177.26400767685845 164.81620201002806,176.97600515233353 161.5015676394105,178.99202208942734 158.66045246366411,181.58404135890305 157.23989487532526,184.176057808334 157.9501736694947,187.63207535399124 156.76637568045408,192.24009095085785 157.23989487532526,196.27209728676826 156.76637568045408,200.01609705970623 155.81933728791773,203.47209162893705 156.05609688628465,207.5040789565537" stroke="#4DD2FF" stroke-dasharray="none" stroke-linecap="round" stroke-linejoin="round" stroke-width="0.5"><title>2013-10-12 10.6km</title><desc>9223370655320152807</desc></polyline><polyline fill="none" opacity="1" points="43.284685065969825,231.45887813949957 42.58833368588239,228.63532944396138 42.58833368588239,226.65884332591668 41.19563092570752,227.2235538160894 38.64234253298491,225.81177733442746 34.00000000093132,224.4000000001397 30.98247735388577,225.2470665036235 27.96495470777154,226.65884332591668 26.34013482183218,230.6118138891179 25.411666315048933,234.0000690475572 25.643783441744745,236.25890308944508 24.251080681569874,240.77656461950392 24.251080681569874,243.31774539034814 23.55472930241376,247.83539326884784 24.251080681569874,250.94127111579292 24.483197808265686,255.17655243445188 24.018963554874063,258.8471233653836 22.858377922326326,262.51768852747045 24.94743206165731,263.3647412073333 28.42918896023184,265.6235468534287 31.678828733973205,267.60000000009313 34.696351380087435,267.60000000009313 38.874459659680724,265.90589740499854 41.42774805333465,263.92944282409735 43.748919318430126,260.8235822466668 44.677387826144695,257.1530144221615 44.90950495097786,252.63538456475362 43.748919318430126,248.96480387263 43.98103644605726,243.8824518530164 45.141622078604996,239.92950374865904 45.37373920623213,236.82361125876196 46.30220771115273,234.0000690475572 45.60585633199662,231.74123282171786 43.05256793834269,228.07061929488555 38.874459659680724,226.65884332591668 35.39270276017487,225.81177733442746 32.60729724075645,225.81177733442746 30.286125973798335,226.94119858834893 26.34013482183218,228.91768446774222 24.94743206165731,231.74123282171786 24.018963554874063,235.12948634149507 24.251080681569874,239.0824425695464 24.251080681569874,242.47068544104695 24.483197808265686,245.57657042192295 24.251080681569874,249.24715643795207 22.626260795630515,251.78832799429074 21.92990941554308,254.61184870218858 21.697792288847268,257.435365997022 22.626260795630515,260.25887987948954 23.78684642817825,262.51768852747045 25.411666315048933,265.34119626670144 28.42918896023184,266.75294885598123 31.678828733973205,266.75294885598123 36.55328839365393,267.60000000009313 39.57081103976816,264.7764949919656 41.42774805333465,262.2353375663515 43.748919318430126,258.56477195979096 43.98103644605726,254.61184870218858 43.98103644605726,251.22362344292924 45.141622078604996,247.55304053192958 45.83797345869243,244.16480503370985 45.60585633199662,241.05891817482188 45.60585633199662,238.5177349471487 46.07009058445692,235.12948634149507 45.37373920623213,232.30594208301045 44.44527069851756,229.76474933186546 43.05256793834269,226.94119858834893 40.03504529315978,225.2470665036235 36.55328839365393,225.2470665036235 32.60729724075645,225.2470665036235 28.89342321548611,225.81177733442746 26.804369075223804,228.07061929488555 24.483197808265686,231.74123282171786 24.94743206165731,234.28242342267185 24.94743206165731,237.6706732562743 23.55472930241376,242.18833205639385 23.55472930241376,246.14127633837052 24.251080681569874,247.55304053192958 23.32261217571795,251.22362344292924 22.626260795630515,253.2000887747854 23.090495048090816,256.588311167201 23.78684642817825,259.6941773761064 24.251080681569874,262.80003945552744 25.875900567509234,265.34119626670144 27.73283758200705,266.4705984070897 34.00000000093132,266.4705984070897 38.17810827959329,266.4705984070897 40.267162419855595,265.34119626670144 43.98103644605726,261.95298657077365 43.284685065969825,257.1530144221615 43.05256793834269,252.63538456475362" stroke="#4DD2FF" stroke-dasharray="none" stroke-linecap="round" stroke-linejoin="round" stroke-width="0.5"><title>2013-10-06 10.6km</title><desc>9223370655838244807</desc></polyline><polyline fill="none" opacity="1" points="93.39805286563933,265.9384766018484 95.67458635941148,267.3230795171112 97.95111985504627,267.60000000009313 102.27653349470347,266.49231786769815 106.14664043672383,264.5538728488609 108.65082728024572,260.4000565716997 109.78909402806312,256.800076372223 110.01674737781286,253.47701270505786 110.47205407731235,250.4308667758014 111.61032082512975,247.3847167957574 110.92736077588052,243.78471614304 110.92736077588052,240.46163359680213 111.61032082512975,237.41547036124393 111.83797417394817,234.64622754161246 111.61032082512975,231.8769813736435 109.5614406792447,230.21543206600472 107.96786723192781,228.00003111502156 105.23602703865618,226.89232983626425 102.27653349470347,227.44618054293096 97.72346650529653,228.00003111502156 95.44693301152438,228.55388155416586 93.8533595642075,230.21543206600472 93.62570621352643,231.8769813736435 92.71509281732142,234.64622754161246 92.48743946664035,237.69239445892163 91.80447941832244,241.84625191055238 91.12151937000453,244.89240925433114 91.80447941832244,248.49240816570818 90.89386602025479,251.5385566733312 90.43855932168663,255.1385451410897 89.5279459245503,257.90776318963617 89.5279459245503,259.84621383203194 90.43855932168663,262.8923472412862 92.03213276807219,265.10771445115097 96.12989305891097,266.21539725130424 99.31703995261341,267.0461590006016 102.27653349470347,266.21539725130424 105.23602703865618,265.9384766018484 107.2849071836099,263.7231101959478 108.65082728024572,261.50774164893664 109.5614406792447,257.6308415350504 109.33378732949495,254.58470112946816 110.2444007275626,250.7077893000096 110.2444007275626,247.1077938694507 110.01674737781286,243.50779278133996 109.78909402806312,238.80009051598608 110.2444007275626,235.47700073826127 110.92736077588052,234.09237857535481 110.2444007275626,231.32313173846342 107.96786723192781,228.83080672309734 105.00837368983775,226.06155352527276 102.9594935439527,225.23077691416256 99.77234665118158,225.78462802176364 96.35754640772939,225.78462802176364 94.5363196125254,226.61540443263948 93.39805286563933,229.66158202895895 91.80447941832244,232.4308308751788 91.57682606950402,235.47700073826127 90.89386602025479,239.07701444602571 90.2109059728682,242.95394595898688 89.7555992724374,245.4462556091603 89.0726392250508,248.49240816570818 89.0726392250508,251.81547906342894 88.16202582698315,255.1385451410897 87.70671912748367,257.6308415350504 87.93437247723341,260.67697789077647 89.0726392250508,263.1692682597786 92.03213276807219,265.6615559179336 95.67458635941148,266.49231786769815 99.77234665118158,266.76923845126294 103.41480024252087,266.21539725130424 105.91898708697408,264.2769519982394 108.65082728024572,262.0615839860402 109.78909402806312,257.90776318963617 110.2444007275626,255.1385451410897 110.69970742613077,252.09240142116323 110.92736077588052,249.3231763425283 111.38266747444868,245.4462556091603 111.61032082512975,243.23086938657798 111.83797417394817,240.18470983416773 112.06562752369791,237.41547036124393 112.29328087251633,234.36930307536386 111.61032082512975,231.6000565723516 110.47205407731235,229.1077318591997 108.19552058167756,226.61540443263948 105.69133373815566,225.23077691416256 102.9594935439527,224.4000000001397 100.68296004924923,224.95385130867362 96.81285310722888,225.50770248449408 94.08101291395724,227.16925520659424 92.71509281732142,230.76928196917288 91.12151937000453,235.20007637282833 90.2109059728682,237.9693185237702 89.98325262311846,240.18470983416773 89.7555992724374,243.23086938657798 89.98325262311846,246.27702489006333 90.2109059728682,249.6000990010798 89.98325262311846,252.64624603441916 89.7555992724374,255.96931090718135 90.2109059728682,259.2923709584866 91.57682606950402,262.3385051051155 94.08101291395724,264.00003111432306 96.81285310722888,266.76923845126294 100.68296004924923,266.76923845126294 102.9594935439527,266.49231786769815 106.37429378647357,264.83079366665334 108.4231739314273,262.8923472412862 109.5614406792447,259.56929241190664 110.01674737781286,256.800076372223 110.92736077588052,253.75393486046232 110.92736077588052,250.4308667758014 111.61032082512975,247.6616396890022 111.61032082512975,244.61548602650873 111.38266747444868,241.56932831485756 112.52093422133476,237.9693185237702 111.61032082512975,235.20007637282833 110.69970742613077,231.8769813736435 110.01674737781286,229.3846569606103 107.51256053335965,227.72310584550723 104.32541364058852,226.06155352527276 101.36592009756714,226.61540443263948 97.26815980672836,226.89232983626425 94.30866626370698,228.83080672309734 92.94274616613984,230.76928196917288 90.89386602025479,234.09237857535481 90.43855932168663,236.30777363479137 89.5279459245503,239.90778603730723 89.7555992724374,242.95394595898688 88.61733252555132,246.00010183011182 88.61733252555132,249.3231763425283 87.93437247723341,252.64624603441916 87.47906577866524,255.96931090718135 88.16202582698315,259.2923709584866 89.30029257386923,262.3385051051155 92.71509281732142,264.2769519982394 96.35754640772939,265.9384766018484 98.8617332521826,265.38463520118967 102.27653349470347,264.5538728488609 104.78072033915669,261.7846628341358 107.96786723192781,259.84621383203194 109.5614406792447,257.35391984693706 110.2444007275626,255.1385451410897 110.47205407731235,251.81547906342894 110.92736077588052,248.49240816570818 111.15501412469894,246.00010183011182 111.61032082512975,242.12317547295243 111.15501412469894,239.35393834323622 111.38266747444868,235.20007637282833 111.61032082512975,231.8769813736435" stroke="#4DD2FF" stroke-dasharray="none" stroke-linecap="round" stroke-linejoin="round" stroke-width="0.5"><title>2013-09-29 10.5km</title><desc>9223370656443428807</desc></polyline><polyline fill="none" opacity="1" points="156.33481972385198,255.29628656315617 156.33481972385198,258.57728335657157 157.6834495300427,261.8582753909286 160.38070914242417,263.22535400046036 163.752283657901,265.13926266669296 166.89908653870225,265.13926266669296 169.37157451640815,264.0456007702742 172.29360576253384,263.22535400046036 174.31655047181994,261.0380278278608 175.66518027801067,258.3038671386894 176.5642668157816,255.29628656315617 176.5642668157816,251.7418679993134 176.5642668157816,248.73427869705483 177.23858171794564,246.00010313582607 177.23858171794564,242.17225179541856 178.36243989039212,238.8912312053144 177.68812498729676,237.25071912514977 176.78903844952583,234.51652968092822 175.66518027801067,230.68865890661255 173.86700720340014,227.95446153078228 171.39451922569424,225.49368106527254 170.0458894195035,225.76710125035606 166.00000000093132,224.94684059894644 163.30274038854986,226.5873616025783 160.83025241084397,228.22788141667843 159.7063942393288,232.055756355403 158.35776443313807,233.6962722032331 157.6834495300427,238.6178126083687 157.00913462694734,240.80516046099365 156.78436299227178,244.9064319843892 156.78436299227178,247.09377375710756 156.55959135852754,249.28111341316253 156.55959135852754,253.38236956926994 155.2109615523368,255.56970314332284 155.6605048207566,261.0380278278608 156.55959135852754,263.4987696236931 161.95411058235914,265.4126780577935 164.2018269263208,265.95950874197297 167.5734014417976,265.95950874197297 171.61929085943848,264.86584724183194 174.5413221064955,262.1316911787726 176.5642668157816,258.0304508882109 177.23858171794564,253.65578638156876 175.66518027801067,250.92161676776595 174.09177883714437,249.55453072185628 175.88995191268623,245.17984982184134 177.4633533526212,239.98490526387468 177.91289662197232,238.07097531366162 177.23858171794564,235.06336783478037 178.36243989039212,231.235497985268 175.66518027801067,228.50130126997828 172.9679206656292,225.49368106527254 171.16974759101868,224.94684059894644 165.77522836625576,225.49368106527254 164.2018269263208,225.76710125035606 161.27979567926377,228.22788141667843 158.80730770155787,230.41523931804113 158.1329927984625,232.87601442844607 157.6834495300427,236.43046263838187 156.55959135852754,241.07857879367657 157.00913462694734,244.35959621169604 157.23390626069158,246.54693851224147 156.55959135852754,250.92161676776595 157.00913462694734,254.20261990698054 155.6605048207566,258.3038671386894 156.33481972385198,261.5848595700227 156.55959135852754,263.4987696236931 160.38070914242417,264.86584724183194 163.97705529164523,267.3265848727897 166.22477163467556,266.77975451922975 169.14680288173258,265.95950874197297 172.0688341287896,264.86584724183194 174.9908653749153,261.5848595700227 175.21563700959086,259.3975318111479 175.88995191268623,256.66336913825944 176.78903844952583,253.92920316033997 177.91289662197232,250.92161676776595 177.0138100842014,247.3671913293656 175.88995191268623,243.53934230282903 176.11472354643047,240.5317420954816 176.5642668157816,237.25071912514977 177.68812498729676,236.43046263838187 178.58721152413636,232.87601442844607 177.23858171794564,230.14181969570927 178.36243989039212,230.41523931804113 177.91289662197232,227.68104161159135 174.76609374023974,226.31394151831046 171.39451922569424,225.22026084875688 168.24771634489298,224.6734203158412 164.2018269263208,225.76710125035606 161.0550240445882,228.22788141667843 158.35776443313807,230.14181969570927 158.1329927984625,233.42285297834314 155.88527645543218,237.25071912514977 154.53664664924145,241.62541536078788 156.11004808917642,241.62541536078788 156.78436299227178,243.2659242679365 156.33481972385198,246.8203561506234 155.6605048207566,250.92161676776595 153.41278847679496,253.10895272321068 155.43573318701237,256.11653620772995 155.6605048207566,258.57728335657157 157.23390626069158,262.9519383441657 159.256850970909,265.4126780577935 161.95411058235914,266.23292403365485 165.77522836625576,266.23292403365485 169.37157451640815,267.60000000009313 172.9679206656292,266.23292403365485 174.09177883714437,264.0456007702742 174.31655047181994,260.49119595531374 175.66518027801067,259.3975318111479 175.88995191268623,255.29628656315617 177.91289662197232,248.73427869705483 177.91289662197232,244.08617827459238 175.88995191268623,241.35199709353037 176.5642668157816,238.07097531366162 177.0138100842014,235.61020585522056 177.4633533526212,232.055756355403 177.23858171794564,230.14181969570927 175.66518027801067,227.1342016728595 172.0688341287896,225.76710125035606 168.69725961331278,224.4000000001397 166.00000000093132,225.76710125035606 163.52751202322543,226.8607816544827 160.38070914242417,229.04814087809063 157.45867789536715,232.055756355403 155.6605048207566,235.61020585522056 156.78436299227178,239.16464976919815 157.00913462694734,243.53934230282903 157.00913462694734,246.8203561506234 156.33481972385198,250.64819962508045 154.761418283917,253.10895272321068 156.33481972385198,256.66336913825944 155.6605048207566,259.3975318111479 156.78436299227178,262.4051069342531 157.6834495300427,264.86584724183194 161.7293389486149,264.31901629362255 164.2018269263208,265.95950874197297 167.5734014417976,265.13926266669296 170.72020432259887,264.592431783909 172.5183773972094,263.4987696236931 174.9908653749153,259.6709478965495 177.23858171794564,257.4836182866711 177.23858171794564,254.20261990698054" stroke="#4DD2FF" stroke-dasharray="none" stroke-linecap="round" stroke-linejoin="round" stroke-width="0.5"><title>2013-09-22 10.9km</title><desc>9223370657048162807</desc></polyline></svg>