<?xml version="1.0" encoding="utf-8" ?>
<svg baseProfile="full" height="300mm" version="1.1" viewBox="0,0,200,300" width="200mm" xmlns="http://www.w3.org/2000/svg" xmlns:ev="http://www.w3.org/2001/xml-events" xmlns:xlink="http://www.w3.org/1999/xlink"><defs /><rect fill="#222222" height="300" width="200" x="0" y="0" /><text fill="#FFFFFF" style="font-size:12px; font-family:Arial; font-weight:bold;" x="10" y="20">Over 10km Runs</text><text fill="#FFFFFF" style="font-size:4px; font-family:Arial" x="10" y="280">Runner</text><text fill="#FFFFFF" style="font-size:9px; font-family:Arial" x="10" y="290">keep</text><text fill="#FFFFFF" style="font-size:4px; font-family:Arial" x="65" y="280">SPECIAL TRACKS</text><rect fill="yellow" height="2.6" width="2.6" x="65" y="283" /><text fill="#FFFFFF" style="font-size:3px; font-family:Arial" x="70" y="285.5">Over 20.0 km</text><rect fill="red" height="2.6" width="2.6" x="65" y="287" /><text fill="#FFFFFF" style="font-size:3px; font-family:Arial" x="70" y="289.5">Over 40.0 km</text><text fill="#FFFFFF" style="font-size:4px; font-family:Arial" x="120" y="280">STATISTICS</text><text fill="#FFFFFF" style="font-size:3px; font-family:Arial" x="120" y="285">Number: 15</text><text fill="#FFFFFF" style="font-size:3px; font-family:Arial" x="120" y="290">Weekly: 1.2</text><text fill="#FFFFFF" style="font-size:3px; font-family:Arial" x="141" y="285">Total: 163.6 km</text><text fill="#FFFFFF" style="font-size:3px; font-family:Arial" x="141" y="290">Avg: 10.9 km</text><text fill="#FFFFFF" style="font-size:3px; font-family:Arial" x="167" y="285">Min: 10.2 km</text><text fill="#FFFFFF" style="font-size:3px; font-family:Arial" x="167" y="290">Max: 14.0 km</text><polyline fill="none" opacity="1" points="27.110431924811564,75.59999999999854 27.025217724760296,75.27825815385586 26.965567784704035,75.02086375009821 26.880353584623663,74.89216623924585 26.80366080458043,74.69911958671582 26.7269680245372,74.4846227625676 26.667318084451836,74.21650092770142 26.70140376451309,73.89475354574824 26.735489444516134,73.60517980121222 26.735489444516134,73.29415498807066 26.71844660450006,72.92950367502635 26.735489444516134,72.63992645423423 26.735489444516134,72.33962304963643 26.752532284561312,72.06076888392272 26.761053704540245,71.77118853436696 26.897396424639737,71.54595865256852 27.135996184835676,71.48160714186815 27.3490316849784,71.46015662686841 27.35755310501554,71.28855230077897 27.425724465050735,71.13839821499278 27.425724465050735,70.89171589393663 27.434245885087876,70.54850444903423 27.246774644881953,70.30182031808363 26.974089204712072,70.1623898223188 27.008174884715118,69.82990074123518 27.05930340476334,69.47595924077905 27.110431924811564,69.17564401851268 27.144517604843713,68.83242524801608 27.20416754487087,68.49993066689058 27.238253224932123,68.23178887405084 27.255296064919094,68.0065490769266 27.34051026494126,67.92074327395676 27.366074525023578,67.73840563854901 27.323467424954288,67.59897069715225 27.37459594500251,67.48098709635087 27.434245885087876,67.24501937522291 27.50241724512307,66.97687339696859 27.562067185121123,66.71945241638605 27.655802805238636,66.38694909655896 27.723974165302934,66.10807428408589 27.8091883653251,65.80774648106308 27.97109534550691,65.68976025151642 28.13300232560141,65.7648424176441 28.354559245781275,65.78629445222032 28.60168042589794,65.62540405330219 28.73802314605564,65.40015695391048 28.857323026139056,65.12127871833218 29.019230006233556,64.83167337284976 29.181136986386264,64.53134080149903 29.343043966509867,64.26318577177881 29.50495094663347,63.973577335047594 29.641293666732963,63.72687302901613 29.79467922684853,63.41580999876169 29.96510762698017,63.08329301472986 30.178143127151998,62.71859538620629 30.39117862729472,62.32171667517105 30.58717128742137,61.98919516553724 30.766121107590152,61.67812541125022 30.953592347708764,61.39923426335008 31.12402074786951,61.13106878555118 31.251842047902755,60.9272624241421 31.422270448034396,60.659095371869626 31.63530594826443,60.348020470439224 31.729041568323737,60.04767114746937 31.85686286841519,59.73659387994121 32.05285552854184,59.457695995864924 32.308498128753854,59.253885391692165 32.53857646891265,59.028620438533835 32.67491918904125,58.78190095596801 32.81978332914878,58.5888156152796 32.92204036921612,58.46009179716202 33.02429740928346,58.22409759517177 33.11803302934277,57.998829756055784 33.22881148944725,57.870104993111454 33.40776130955783,57.8271966929824 33.51853976966231,57.8271966929824 33.6548824897618,57.709198749529605 33.799746629898436,57.52683795075427 33.97017503000097,57.36593102000916 34.15764627014869,57.09775208629435 34.33659609028837,56.883208295097575 34.276946150203,56.64720946335001 34.26842473022407,56.36830085975089 34.33659609028837,56.10011859746737 34.54111017042305,55.864117466488096 34.737102830578806,55.63884301319922 34.86492413067026,55.37065831699874 34.99274543079082,55.038108050997835 35.180216670938535,54.79137631932099 35.44438069112948,54.555371345515596 35.61480909123202,54.3408207679895 35.75115181133151,54.040448997293424 35.87897311145207,53.740076104033506 36.0238372515596,53.450429750933836 36.3220869518118,53.3324253818937 36.543643871933455,53.24660391379439 36.68850801207009,52.94622805369727 36.773722212121356,52.624395529295725 36.82485073216958,52.35620077446947 36.89302209223388,52.055821586625825 36.978236292285146,51.6910739206578 37.071971912373556,51.39069224688137 37.071971912373556,51.28341280562017 37.14866469238768,51.036669547225756 37.19127179245697,50.682645288077765 37.28500741251628,50.32861946945195 37.378743032575585,49.93167957582045 37.45543581264792,49.56692226936866 37.51508575270418,49.234347988225636 37.60029995275545,48.901772330842505 37.67699273279868,48.55846698282403 37.75368551284191,48.19370344362687 37.80481403291924,47.82893824875646 37.89002823297051,47.49635677522019 37.9581995930057,47.174502425739774 38.05193521309411,46.77754695278418 38.103063733142335,46.49860409601388 38.17123509317753,46.14455984500819 38.22236361322575,45.897800808197644 38.29053497329005,45.71541320706456 38.32462065326399,45.51156775117852 38.375749173312215,45.22189174016967 38.44392053340562,44.86784186418663 38.529134733456885,44.503061572584556 38.58878467345494,44.17046633401333 38.63991319350316,44.00953265989665 38.6484346135403,43.83786971888185 38.699563133588526,43.55891665762465 38.77625591363176,43.215588483617466 38.835905853658915,42.840071613609325 38.904077213752316,42.52892773476924 38.97224857378751,42.31434504738718 39.006334253790556,42.164136825282185 39.03189851381467,42.02465751044656 39.09154845387093,41.938823965632764 39.08302703386289,41.79934425968531 39.07450561388396,41.53111337545852 39.09154845387093,41.28434017116524 39.14267697391915,41.02683688909747 39.21084833398345,40.84443823167385 39.304583954042755,40.74787406891846 39.59431223425781,40.82297953886882 39.88404051447287,40.94100227837771 40.16524737467989,41.016107567767904 40.30159009480849,40.97319026812329 40.335675774811534,40.76933278180513 40.3271543548326,40.501098459164496 40.34419719481957,40.18994552308868 40.361240034835646,39.80368502959027 40.386804294830654,39.4281522140227 40.45497565489495,39.12772469779884 40.34419719481957,38.9560513270917 40.097076014615595,38.9560513270917 39.7988263143925,38.99896970415284 39.526140874193516,39.06334722677275 39.55170513424673,38.805836826788436 39.59431223425781,38.48394766623096 39.67100501433015,38.162057216090034 39.72213353437837,37.850895221796236 39.815869154408574,37.4968128658802 39.88404051447287,37.16418862525461 39.935169034521095,36.84229288766073 39.96073329454521,36.563315538543975 40.00334039455629,36.3057971257731 40.020383234572364,36.123387750623806 40.01186181459343,36.037547901360085 40.16524737467989,35.91951795890782 40.361240034835646,35.83367789183103 40.29306867480045,35.68345755377959 40.17376879468793,35.56542709112546 40.1908116346749,35.383016035069886 40.20785447474918,35.28644530830206 40.386804294830654,35.318635563475254 40.57427553497837,35.318635563475254 40.727661095093936,35.350825805689965 40.87252523523057,35.30790547984361 41.03443221532507,35.26498513104161 41.16225351544563,35.17914436465071 41.1792963554617,34.91089137850213 41.22190345550189,34.42803374637151 41.27303197552101,34.095396800483286 41.29859623554512,33.78421905585856 41.29859623554512,33.63399488566938 41.315639075561194,33.430118776872405 41.315639075561194,33.26916358865856 41.14521067542955,33.215511787602736 40.89808949522558,33.194051057136676 40.73618251513108,33.1189384554018 40.565754114999436,33.0652865539887 40.25898299479741,33.01163461677788 39.94369045450003,32.93652184448001 39.65396217428497,32.87213941234222 39.38127673411509,32.79702650962281 39.023377093835734,32.75410481939616 38.75921307358658,32.646800493472256 38.59730609349208,32.550226477622346 38.358706333325244,32.57168738007749 38.043413793086074,32.550226477622346 37.75368551284191,32.550226477622346 37.44691439261078,32.51803511320759 37.14014327240875,32.48584373592166 36.85041499219369,32.45365234569908 36.53512245195452,32.42146094257623 36.432865411858074,32.39999999999418 36.38173689180985,32.51803511320759 36.31356553177466,32.72191353664675 36.270958431763574,32.91506103948632 36.22835133175249,33.129668831359595 36.21130849167821,33.33354570264055 36.1857442316541,33.52669173501636 36.09200861159479,33.71983730304055 36.01531583155156,33.85933103560092 35.92158021146315,34.073936305052484 35.88749453148921,34.213429422808986 35.810801751416875,34.406573339794704 35.71706613135757,34.54606588000024 35.640373351285234,34.74993915693631 35.55515915120486,34.92162151513912 35.46994495115359,35.114763729667175 35.342123651033035,35.29717539479316 35.29099513098481,35.55469704049028 35.171695250901394,35.822947877015395 35.04387395083904,36.123387750623806 34.890488390723476,36.445286368492816 34.74562425058684,36.74572391489346 34.60076011050842,37.067620039364556 34.481460230395896,37.32513601037499 34.33659609028837,37.6363000408237 34.17468911013566,37.926003399719775 34.05538923005224,38.19424631912989 33.936089349968825,38.430299347426626 33.86791798993363,38.58051454980159 33.825310889893444,38.64489240771218 33.70601100981003,38.70927021405805 33.680446749785915,38.96678092350339 33.61227538972162,39.25647948514961 33.44184698961908,39.5354474832493 33.33958994955174,39.76076708234905 33.271418589458335,39.932438733747404 33.41628272959497,40.01827442188369 33.67192532977788,40.02900387644331 33.97017503000097,40.05046278129157 34.30251041025622,40.09338057378773 34.60928153045825,40.13629834337189 34.92457407069742,40.17921609000041 35.23986661093659,40.22213381374604 35.52107347120182,40.26505151452875 35.75967323136865,40.27578093613556 35.89601595143904,40.17921609000041 35.938623051537434,39.953897664367105 35.972708731511375,39.750037591933506 35.989751571498346,39.71784911221039 36.143137131643016,39.80368502959027 36.16870139166713,39.9753565892679 36.10053003163193,40.3401574357631 36.04088009154657,40.715685988921905 35.972708731511375,41.03756620900094 35.89601595143904,41.434550037978624 35.827844591403846,41.767156600850285 35.75115181133151,42.089032608921116 35.71706613135757,42.357261630713765 35.623330511240056,42.689864374253375 35.63185193124809,42.99027857218607 35.60628767122398,43.30142066463304 35.38473075104412,43.55891665762465 35.31655939100892,43.80568287662754 35.231345190957654,44.1168218117964 35.231345190957654,44.374315191889764 35.20578093093354,44.65326542258117 35.37620933106518,44.792740174809296 35.30803797097178,45.125332837793394 35.2654308709607,45.47938157930912 35.16317383086425,45.897800808197644 35.09500247082906,46.23038889755844 35.0353525308019,46.60588992472913 35.01830969075672,46.927746551533346 35.009788270806894,47.26033037828893 35.00126685076975,47.59291282869526 35.00126685076975,47.93622230145411 34.97570259074564,48.29025865920994 34.96718117076671,48.62283684729482 34.93309549073456,48.944685396207205 34.90753123071045,49.234347988225636 34.84788129062508,49.57765044904954 34.78823135062703,49.93167957582045 34.728581410541665,50.22133861044131 34.77970993058989,50.564636855138815 34.720059990591835,50.88647762774053 34.6433672105195,51.240500989013526 34.455895970371785,51.53015530647099 34.259903310245136,51.76616916367493 33.995739290025085,51.96999875534675 33.774182369874325,52.173827830039954 33.52706118967035,52.388384192330705 33.331068529514596,52.613667756282666 33.24585432943422,52.753128693693725 33.126554449350806,52.8711339132642 32.998733149288455,53.0749607026155 32.91351894920808,53.31097002347815 32.8027404891036,53.62207216023671 32.63231208897196,53.943900689708244 32.470405108848354,54.24427282128454 32.31701954873279,54.51246127582999 32.25736960870563,54.75919386370515 32.25736960870563,54.98447078240133 32.42779800883727,55.12392760617513 32.35962664880208,55.41356792852457 32.308498128753854,55.628115642517514 32.334062388777966,55.681752481548756 32.20624108865741,55.660297750240716 32.04433410856291,55.874844805650355 31.848341448407155,56.207391609743354 31.652348788251402,56.40048267112434 31.43931328810868,56.62575498973456 31.32853482797509,56.904662699991604 31.234799207915785,57.18356944242987 31.072892227821285,57.408839566363895 30.936549507721793,57.41956669936917 30.68942832754692,57.41956669936917 30.442307147342945,57.37665815875516 30.144057447090745,57.344476738231606 29.837286326888716,57.344476738231606 29.632772246724926,57.35520387982979 29.496429526625434,57.408839566363895 29.428258166561136,57.43029383094108 29.326001126493793,57.655563263419026 29.198179826402338,57.85937792022014 29.16409414637019,58.13828134995856 29.07035852628178,58.374275803878845 28.968101486185333,58.567361659908784 28.942537226190325,58.642450478662795 28.729501726018498,58.84626263313112 28.542030485899886,59.039347355377686 28.397166345792357,59.27533916384709 28.507944805867737,59.425515408511274 28.559073325886857,59.5006034256221 28.57611616590293,59.69368657610903 28.644287525996333,59.95113005537132 28.61872326597222,60.133485354235745 28.559073325886857,59.95113005537132 28.380123505805386,60.12275858340581 28.226737945660716,60.380200688501645 28.090395225503016,60.60546185403655 27.90292398541351,60.85217573968839 27.775102685322054,61.120342147842166 27.67284564525471,61.367054453265155 27.545024345134152,61.635219143783615" stroke="#4DD2FF" stroke-dasharray="none" stroke-linecap="round" stroke-linejoin="round" stroke-width="0.5"><title>2017-12-17 14.0km</title><desc>9223370523376934807</desc></polyline><polyline fill="none" opacity="1" points="100.72702027793275,32.400000000001455 100.60912509768968,32.69673213158967 100.45193152409047,32.94400836387649 100.58292616874678,33.2077691331433 100.67462241998874,33.50449932594347 100.68772188446019,33.735288983509236 100.68772188446019,34.048502829653444 100.68772188446019,34.3122612425359 100.67462241998874,34.65844330545224 100.64842349104583,35.00462439902185 100.54362777527422,35.317835029389244 100.64842349104583,35.46619768261007 100.70082134893164,36.19152364659385 100.66152295557549,36.455277487541025 100.83181599364616,36.75199988603708 100.88421385147376,37.03223705296841 100.93661170935957,37.328958066726045 100.94971117383102,37.72458497741172 100.97591010277392,38.0707574857297 101.02830796060152,38.35099166359578 101.08070581848733,38.6641938164903 101.1724020697875,38.94442664922826 101.18550153420074,39.24114307396667 101.2509988566162,39.57082715516299 101.35579457232961,39.81808963906224 101.52608761040028,39.867542076557584 101.63088332611369,40.03238339188101 101.57848546828609,40.16425628593424 101.38199350127252,40.263160864124075 101.38199350127252,40.493937905666826 101.48678921704413,40.741198543568316 101.61778386170045,41.07087862492335 101.72257957741385,41.36758994651609 101.7880768997129,41.64781665204646 101.93217100889888,41.94452658915543 102.08936458249809,42.224751987123454 102.23345869162586,42.48849295794935 102.19416029826971,42.76871712303546 101.90597207995597,42.78520087769721 101.6570822550566,42.60387945578259 101.47368975251447,42.47200916372094 101.27719778555911,42.42255776797538 101.06760635401588,42.48849295794935 100.80561706464505,42.50497674996586 100.68772188446019,42.653330779023236 100.70082134893164,42.90058709862933 100.64842349104583,43.13135921749199 100.37333473726176,43.23026142231538 100.11134544789093,43.34564722790674 99.83625669404864,43.36213090566889 99.61356579815038,43.34564722790674 99.65286419150652,43.08190808542713 99.73146097833524,42.78520087769721 99.8231572296354,42.50497674996586 99.90175401646411,42.158816656483395 99.96725133876316,41.79617170959682 99.95415187429171,41.45000963174243 99.90175401646411,41.12033056130895 99.86245562299155,40.80713463015127 99.57426740467781,40.741198543568316 99.31227811536519,40.70823048708553 99.19438293523854,40.54339007278031 99.18128347070888,40.37854943874845 99.16818400623742,40.14777218183008 99.11578614840982,39.982931020371325 98.94549311028095,39.949962761675124 98.76210060773883,39.91699449423322 98.6049070340814,39.949962761675124 98.6049070340814,40.16425628593424 98.61800649861107,40.42800165204244 98.64420542755397,40.77416659126902 98.64420542755397,41.0543946417165 98.67040435649687,41.36758994651609 98.68350382091012,41.69726835766778 98.67040435649687,42.0104620340644 98.67040435649687,42.307171100932464 98.68350382091012,42.62036323242501 98.67040435649687,42.88410335939989 98.68350382091012,43.21377772701817 98.69660328543978,43.444549261330394 98.70970274985302,43.67532036492776 98.69660328543978,43.873123825207585 98.68350382091012,44.13686128007248 98.65730489202542,44.384114633074205 98.63110596308252,44.548949927026115 98.6049070340814,44.77971896942472 98.59180756972637,45.01048758113029 98.57870810519671,45.24125576218648 98.57870810519671,45.43905671739776 98.57870810519671,45.73575755691127 98.59180756972637,46.03245768457418 98.57870810519671,46.378606933642004 98.57870810519671,46.69178875262878 98.57870810519671,46.972003391972976 98.59180756972637,47.2357342371688 98.6049070340814,47.58188011782477 98.6049070340814,47.92802502949053 98.6049070340814,48.142304727334704 98.59180756972637,48.438999080586655 98.59180756972637,48.62031194600422 98.55250917631201,48.88403927566105 98.57870810519671,49.11480022770411 98.6049070340814,49.36204362702847 98.64420542755397,49.65873505369382 98.69660328543978,49.93894296968938 98.72280221432447,50.285081283407635 98.78829953673994,50.64770133468846 98.8799957879819,51.010320322733605 98.9847915036953,51.290525176045776 99.08958721946692,51.55424681097065 99.19438293523854,51.867415521839575 99.29917865095194,52.14761843311862 99.39087490213569,52.31244337840326 99.45637222449295,52.51023302277463 99.56116794026457,52.708022350816464 99.66596365603618,52.92229376586329 99.70526204939233,53.15304718219704 99.73146097833524,53.30138843673922 99.88865455193445,53.43324718037911 99.98035080323461,53.56510578331654 100.09824598341947,53.74641113279358 100.21614116360433,53.911233947183064 100.32093687937595,54.12550327741337 100.45193152409047,54.30680780534021 100.62222456216114,54.48811206743994 100.80561706464505,54.718862562025606 100.98900956718717,54.982576885828166 101.14620314078638,55.21332645780058 101.26409832102945,55.41111146250478 101.31649617891526,55.54296795660048 101.48678921704413,55.82316253969475 101.6570822550566,56.03742855724704 101.81427582871402,56.284658116223 101.97146940225502,56.564851018869376 102.11556351138279,56.79559763849829 102.25965762056876,57.042825681797694 102.41685119416798,57.306535049887316 102.58714423229685,57.586725637353084 102.75743727030931,57.88339733209432 102.94082977285143,58.16358661265258 103.1111228109803,58.42729359083751 103.29451531352242,58.691000006801914 103.47790781606454,59.004150645378104 103.67439978307812,59.31730049101316 103.84469282114878,59.58100500922592 104.01498585927766,59.861190443676605 104.15907996834721,60.12489380218176 104.30317407753319,60.35563377960352 104.44726818666095,60.56989194460766 104.60446176026016,60.83359379192552 104.77475479833083,61.09729507705197 104.90574944304535,61.31155195716565 105.07604248105781,61.542289720702684 105.25943498359993,61.805989494678215 105.41662855725735,62.08616988854192 105.56072266638512,62.30042505558231 105.71791623998433,62.59708544333989 105.88820927811321,62.91022619174328 106.07160178059712,63.223366147351044 106.241894818726,63.50354333034193 106.41218785673846,63.78371987859282 106.63487875269493,64.09685762265144 106.79207232629415,64.36055195009976 106.92306697106687,64.59128402540955 107.09336000907933,64.83849648563046 107.26365304715,65.13515078561613 107.43394608522067,65.46476584002812 107.60423912334954,65.77789932803717 107.7221343034762,66.00862875930034 107.87932787713362,66.33824148590793 107.99722305737669,66.63489218880568 108.1020187730901,66.98098377632414 108.1544166309759,67.19523046424001 108.1544166309759,67.36003535622876 108.02342198626138,67.54132048381143 108.03652145073283,67.50835957129311 108.1544166309759,67.45891818605014 108.28541127563221,67.59076183612342 108.36400806240272,67.80500746780308 108.45570431370288,68.06869388963241 108.5605000294745,68.36534044225846 108.67839520965936,68.6949468885432 108.79629038984422,69.02455245648162 108.91418557002908,69.37063735753327 108.96658342797309,69.53543935104244 109.08447860815795,69.8485625337562 109.20237378834281,70.14520481770887 109.30716950411443,70.37592610234424 109.39886575535638,70.65608708360378 109.47746254212689,70.90328742250131 109.5298604000709,71.13400729305431 109.62155665125465,71.4141665573552 109.72635236702627,71.69432518704707 109.83114808273967,72.00744290470175 109.90974486956839,72.25464054294571 110.01454058534,72.56775684218155 110.10623683658196,72.81495336067019 110.21103255241178,73.09510881776805 110.32892773253843,73.35878396251064 110.4206239838386,73.63893818789074 110.5516186284367,73.95205098303268 110.64331487979507,74.19924473518768 110.76121005997993,74.47939705711178 110.83980684675043,74.67715125528048 110.9315030980506,74.92434355845035 111.04939827823546,75.08913815280539 111.08869667164981,75.20449423819082 111.07559720717836,75.41872668282303 111.02319934935076,75.59999999999854 110.83980684675043,75.50112367807742 110.65641434426652,75.25393252752838 110.4730218416662,74.99026142252114 110.26343041018117,74.72658975541708 110.00144112092676,74.41347892081103 109.72635236702627,74.14980602429569 109.49056200665655,73.93557138201868 109.25477164622862,73.68837710299704 109.03208075027214,73.4741416615725 108.78319092543097,73.17750736084417 108.54740056494484,72.97975076521107 108.31161020457512,72.74903433732106 108.04962091520429,72.46887809644977 107.81383055483457,72.23816071573674 107.56494072987698,72.00744290470175 107.27675251162145,71.74376487940754 107.02786268678028,71.54600599153491 106.71347553958185,71.36472673326352 106.42528732126812,71.26584702589753 106.09780070954002,71.18344720936875 105.7834135623416,71.15048726736859 105.44282748614205,71.06808737398387 105.11534087447217,70.98568742567295 104.84025212068809,70.93624743036344 104.52586497348966,70.85384739425353 104.22457729070447,70.85384739425353 103.85779228556203,70.75496727845893 103.50410674494924,70.65608708360378 103.38621156476438,70.62312700113398 103.18971959780902,70.57368686086556 103.01942655968014,70.55720680976083 102.80983512819512,70.52424670088658 102.626442625653,70.49128658323025 102.44305012311088,70.47480652109516 102.27275708504021,70.42536632160045 102.05006618908374,70.37592610234424 101.82737529312726,70.34296594515763 101.67018171952805,70.27704560448183 101.48678921704413,70.22760532592656 101.21170046314364,70.11224459905497 100.87111438700231,69.98040363668406 100.53052831086097,69.8485625337562 100.229240628134,69.7496816143248 99.94105240982026,69.66728078776214 99.62666526262183,69.58487990625872 99.29917865095194,69.48599877601373 98.9585925747524,69.38711756678822 98.59180756972637,69.3047164986856 98.23812202905538,69.15639443775581 97.97613273968454,69.10695371126349 97.6093477346003,69.00807219897979 97.32115951634478,68.85974978232116 97.05917022697395,68.7773483629062 96.81028040207457,68.6949468885432 96.52209218381904,68.59606504686235 96.2077050365624,68.46422246837756 95.88021842489252,68.28293869346817 95.57893074210733,68.06869388963241 95.27764305938035,67.88740953498927 95.01565377006773,67.60724228247273 94.81916180305416,67.31059391169401 94.6750676939264,67.06338639249589 94.59647090709768,66.81617837926024 94.49167519132607,66.65137276257883 94.33448161778506,66.40416392581392 94.24278536642669,66.23935776018334 94.11179072177038,65.97566743834614 93.94149768369971,65.67901515432459 93.77120464562904,65.34940067090793 93.62711053650128,64.98682372456096 93.4306185694877,64.60776487149997 93.23412660241593,64.21222396009398 93.05073409993201,63.84964368007786 92.90663999080425,63.58594826336048 92.76254588167649,63.223366147351044 92.57915337907616,62.84430188954866 92.4088603410055,62.46523646993592 92.21236837405013,62.06968870649871 92.01587640697835,61.674139678005304 91.84558336884947,61.29507067188388 91.64909140189411,60.93248183973628 91.4656988994102,60.55341056046018 91.30850532575278,60.19081955389993 91.1382122876239,59.82822748432227 90.98101871402469,59.49859740767715 90.83692460489692,59.168966452438326 90.66663156682625,58.87229784154624 90.5749353155843,58.59211016671907 90.47013959987089,58.27895848481421 90.35224441962782,57.932842545393214 90.27364763285732,57.5537620717223 90.1950508459704,57.174680436110066 90.15575245261425,56.89448891510983 90.10335459472844,56.482441407526494 90.05095673684264,56.086874508619076 90.02475780789973,55.740752434096066 89.98545941448538,55.32870108231873 89.93306155665778,55.03202325890743 89.93306155665778,54.718862562025606 89.91996209218632,54.33977223639522 89.89376316330163,54.02660978650238 89.91996209218632,53.68048194557923 89.93306155665778,53.25194137168728 89.91996209218632,52.92229376586329 89.89376316330163,52.576162833938724 89.80206691194326,52.24651342665311 89.7365695896442,51.81796788344218 89.74966905411566,51.48831645494647 89.72347012517275,51.1092162257919 89.6841717318166,50.79604559470317 89.64487333834404,50.49935689681297 89.59247548051644,50.13673641044443 89.6579728028155,49.75763203774113 89.72347012517275,49.36204362702847 89.72347012517275,49.04886857108795 89.72347012517275,48.83459044420306 89.76276851858711,48.66976086314389 89.7365695896442,48.438999080586655 89.6841717318166,48.142304727334704 89.67107226728695,47.84560966222489 89.6317738739308,47.5159476438057 89.6055749449879,47.16980157859507 89.59247548051644,46.88958738747897 89.51387869368773,46.51047305933025 89.48767976474483,46.131357568920066 89.46148083580192,45.73575755691127 89.43528190691723,45.4060899134638 89.39598351350287,45.09290483811492 89.35668512008851,44.71378500129504 89.33048619114561,44.56543344431702 89.34358565561706,44.21927911932289 89.35668512008851,43.873123825207585 89.33048619114561,43.543451215584355 89.3042872621445,43.27971249506663 89.26498886878835,42.93355457056168 89.21259101096075,42.587395676993765 89.21259101096075,42.24123581426102 89.23878993990365,41.94452658915543 89.23878993990365,41.58188101376436 89.16019315301673,41.186266445729416 89.14709368860349,40.88955468896893 89.12089475966059,40.559874124133785 89.16019315301673,40.34558128556819 89.16019315301673,40.213708584953565 89.13399422413204,39.96644689214736 89.12089475966059,39.702700541463855 89.10779529524734,39.40598522443179 89.02919850841863,39.09278495058243 88.97680065047462,38.71364671549236 88.96370118606137,38.38396034859761 88.96370118606137,38.021304329668055 88.95060172153171,37.6751316828304 88.93750225711847,37.34544254663342 88.89820386376232,36.99926800744288" stroke="#4DD2FF" stroke-dasharray="none" stroke-linecap="round" stroke-linejoin="round" stroke-width="0.5"><title>2017-11-19 11.8km</title><desc>9223370525802103807</desc></polyline><polyline fill="none" opacity="0.5" points="187.5999999998603,62.06217590958113 187.5999999998603,62.8266719445819 187.54138398938812,63.73016605316661 187.5999999998603,64.425160632818 187.5999999998603,65.53715035278583 187.5999999998603,66.0236452333047 187.36553595680743,66.92713472119067 187.07245590235107,67.90012193983421 185.95875169616193,68.10861900402233 185.255359566072,68.17811800987693 184.4933514248114,67.96962096903007 183.49687924026512,68.10861900402233 182.55902306665666,68.10861900402233 181.62116689281538,68.17811800987693 180.56607869756408,68.10861900402233 179.8040705563035,67.96962096903007 178.9834464045707,67.96962096903007 178.22143826354295,67.96962096903007 177.3421981006395,67.76112385862507 176.52157394844107,66.99663385830354 175.5837177745998,66.92713472119067 174.82170963380486,66.85763557621976 173.88385345996358,66.57963891886175 173.1218453189358,66.7186372630531 172.3012211669702,66.64913809474092 171.36336499336176,66.7186372630531 170.54274084139615,66.51013973512454 169.6635006784927,66.64913809474092 168.72564450465143,66.78813642339082 167.72917232010514,66.44064054382034 166.90854816813953,66.30164213792887 166.20515603781678,66.16264370107092 165.384531886084,66.16264370107092 164.62252374505624,65.88464673480485 163.7432835821528,65.88464673480485 162.9226594301872,65.74564820510568 162.21926729986444,65.95414598792559 160.98833107203245,65.39815174596151 159.99185888725333,65.25915310822893 159.05400271364488,65.18965377786662 157.99891451839358,65.25915310822893 157.58860244229436,65.32865243108245 156.47489823610522,65.60664964455646 155.0681139754597,64.98115574021358 154.07164179091342,64.14716289372882 153.19240162800997,64.35566120949807 152.19592944346368,64.00816397793824 151.3166892810259,63.869165030890144 150.61329715070315,64.00816397793824 149.9099050203804,63.7996655459865 149.20651289005764,63.52166752866469 148.3272727271542,63.59116704465123 147.56526458612643,63.938664508285 146.27571234712377,63.52166752866469 145.57232021703385,63.1046702710446 145.22062415187247,62.34017457580194 144.75169606506824,61.575677945744246 144.6930800541304,60.463681178574916 144.81031207600608,59.49068238417385 144.81031207600608,58.378681907604914 144.6930800541304,57.40567986789392 144.6930800541304,56.0851746769622 144.51723202154972,55.39017082436476 144.39999999990687,54.34766359644709 144.6344640434254,53.37465528177563 144.6344640434254,52.540646949375514 144.8689280867111,51.845639155537356 144.6930800541304,50.942127868242096 144.98616010835394,49.96911425224971 144.92754409764893,48.92659798276145 145.10339213022962,48.30108738626586 145.16200814116746,47.05006431584479 145.10339213022962,45.93804170633666 145.16200814116746,44.9650203002966 145.22062415187247,44.20050241862191 145.39647218445316,43.296980080136564 145.57232021703385,42.32395456265658 145.39647218445316,41.3509275301476 145.39647218445316,40.65590729378164 145.27924016257748,39.821881990123075 145.39647218445316,40.65590729378164 145.39647218445316,41.3509275301476 145.57232021703385,42.32395456265658 145.39647218445316,43.296980080136564 145.22062415187247,44.20050241862191 145.16200814116746,44.9650203002966 145.10339213022962,45.93804170633666 145.16200814116746,47.05006431584479 145.10339213022962,48.30108738626586 144.92754409764893,48.92659798276145 144.98616010835394,49.96911425224971 144.6930800541304,50.942127868242096 144.8689280867111,51.845639155537356 144.6344640434254,52.540646949375514 144.6344640434254,53.37465528177563 144.39999999990687,54.34766359644709 144.51723202154972,55.39017082436476 144.6930800541304,56.0851746769622 144.6930800541304,57.40567986789392 144.81031207600608,58.378681907604914 144.81031207600608,59.49068238417385 144.6930800541304,60.463681178574916 144.75169606506824,61.575677945744246 145.22062415187247,62.34017457580194 145.57232021703385,63.1046702710446 146.27571234712377,63.52166752866469 147.56526458612643,63.938664508285 148.3272727271542,63.59116704465123 149.20651289005764,63.52166752866469 149.9099050203804,63.7996655459865 150.61329715070315,64.00816397793824 151.3166892810259,63.869165030890144 152.19592944346368,64.00816397793824 153.19240162800997,64.35566120949807 154.07164179091342,64.14716289372882 155.0681139754597,64.98115574021358 156.47489823610522,65.60664964455646 157.58860244229436,65.32865243108245 157.99891451839358,65.25915310822893 159.05400271364488,65.18965377786662 159.99185888725333,65.25915310822893 160.98833107203245,65.39815174596151 162.21926729986444,65.95414598792559 162.9226594301872,65.74564820510568 163.7432835821528,65.88464673480485 164.62252374505624,65.88464673480485 165.384531886084,66.16264370107092 166.20515603781678,66.16264370107092 166.90854816813953,66.30164213792887 167.72917232010514,66.44064054382034 168.72564450465143,66.78813642339082 169.6635006784927,66.64913809474092 170.54274084139615,66.51013973512454 171.36336499336176,66.7186372630531 172.3012211669702,66.64913809474092 173.1218453189358,66.7186372630531 173.88385345996358,66.57963891886175 174.82170963380486,66.85763557621976 175.5837177745998,66.92713472119067 176.52157394844107,66.99663385830354 177.3421981006395,67.76112385862507 178.22143826354295,67.96962096903007 178.9834464045707,67.96962096903007 179.8040705563035,67.96962096903007 180.56607869756408,68.10861900402233 181.62116689281538,68.17811800987693 182.55902306665666,68.10861900402233 183.49687924026512,68.10861900402233 184.4933514248114,67.96962096903007 185.255359566072,68.17811800987693 185.95875169616193,68.10861900402233 187.07245590235107,67.90012193983421 187.36553595680743,66.92713472119067 187.5999999998603,66.0236452333047 187.5999999998603,65.53715035278583 187.5999999998603,64.425160632818 187.54138398938812,63.73016605316661 187.5999999998603,62.8266719445819 187.5999999998603,62.06217590958113 187.48276797845028,61.08917960344115 187.42415196751244,60.3941813147394 187.5999999998603,59.83818212756887 187.36553595680743,59.00418241909938 187.42415196751244,58.309181812102906 187.42415196751244,57.127679006778635 187.42415196751244,56.36317600152688 187.42415196751244,55.04266860813368" stroke="#4DD2FF" stroke-dasharray="1,0.5" stroke-linecap="round" stroke-linejoin="round" stroke-width="0.5"><title>2014-03-22 10.5km</title><desc>9223370641410674807</desc></polyline><polyline fill="none" opacity="1" points="55.600000000034925,99.37717633535794 55.484285714279395,99.36544067501382 55.33964285714319,99.37717633535794 55.195000000006985,99.35370501329453 55.05999999999767,99.37717633535794 54.92499999998836,99.4241189624081 54.799642857164145,99.4241189624081 54.67428571433993,99.50626850505068 54.52964285714552,99.52973979015951 54.39464285719441,99.49453286037169 54.25,99.47106156674272 54.124642857175786,99.45932591780002 54.018571428605355,99.51800414829631 53.88357142859604,99.49453286037169 53.76785714289872,99.47106156674272 53.63285714288941,99.49453286037169 53.49785714288009,99.47106156674272 53.401428571436554,99.40064765171701 53.29535714286612,99.38891199426143 53.17000000004191,99.40064765171701 53.04464285715949,99.43585461560724 52.90000000002328,99.43585461560724 52.78428571432596,99.4475902674094 52.65892857144354,99.40064765171701 52.504642857122235,99.41238330779743 52.39857142861001,99.4241189624081 52.24428571428871,99.4241189624081 52.109285714279395,99.4241189624081 52.00321428576717,99.4241189624081 51.85857142857276,99.4241189624081 51.733214285748545,99.41238330779743 51.61750000005122,99.40064765171701 51.50178571429569,99.38891199426143 51.38607142854016,99.37717633535794 51.26071428571595,99.41238330779743 51.135357142891735,99.41238330779743 51.01000000000931,99.40064765171701 50.88464285712689,99.37717633535794 50.75928571430268,99.35370501329453 50.67249999998603,99.35370501329453 50.527857142849825,99.35370501329453 50.39285714289872,99.37717633535794 50.2675000000163,99.37717633535794 50.14214285713388,99.36544067501382 50.00714285718277,99.33023368558497 49.89142857148545,99.35370501329453 49.76607142854482,99.35370501329453 49.61178571433993,99.34196935015643 49.5057142857695,99.30676235217106 49.35142857138999,99.29502668331406 49.20678571431199,99.33023368558497 49.05249999999069,99.33023368558497 48.936785714293364,99.34196935015643 48.79214285715716,99.33023368558497 48.67642857145984,99.33023368558497 48.541428571450524,99.34196935015643 48.43535714288009,99.33023368558497 48.30999999999767,99.31849801957287 48.18464285717346,99.34196935015643 48.059285714291036,99.33023368558497 47.93392857146682,99.33023368558497 47.82785714289639,99.35370501329453 47.69285714288708,99.36544067501382 47.58678571431665,99.36544067501382 47.461428571434226,99.36544067501382 47.29749999998603,99.35370501329453 47.19142857147381,99.35370501329453 47.0371428571525,99.35370501329453 46.95035714289406,99.35370501329453 46.82500000001164,99.35370501329453 46.69964285718743,99.34196935015643 46.574285714305006,99.35370501329453 46.43928571429569,99.31849801957287 46.32357142859837,99.31849801957287 46.178928571462166,99.30676235217106 46.04392857145285,99.30676235217106 45.91857142857043,99.29502668331406 45.8125,99.29502668331406 45.67749999999069,99.33023368558497 45.5232142857858,99.35370501329453 45.40750000003027,99.33023368558497 45.272500000020955,99.31849801957287 45.14714285713853,99.30676235217106 45.03142857144121,99.28329101303098 44.877142857178114,99.30676235217106 44.76142857148079,99.28329101303098 44.61678571428638,99.27155534136546 44.481785714277066,99.27155534136546 44.34678571426775,99.30676235217106 44.22142857144354,99.29502668331406 44.06714285718044,99.25981966828112 43.92250000004424,99.23634831781237 43.797142857161816,99.22461264042795 43.6621428571525,99.18940559981274 43.52714285714319,99.2011412814245 43.41142857144587,99.21287696165382 43.286071428563446,99.23634831781237 43.17035714286612,99.24808399376343 43.04500000004191,99.29502668331406 42.91964285715949,99.29502668331406 42.784642857150175,99.28329101303098 42.65928571432596,99.27155534136546 42.55321428575553,99.25981966828112 42.42785714287311,99.28329101303098 42.302500000048894,99.27155534136546 42.186785714293364,99.29502668331406 42.04214285715716,99.25981966828112 41.897500000020955,99.28329101303098 41.791428571450524,99.25981966828112 41.65642857144121,99.25981966828112 41.531071428617,99.25981966828112 41.425000000046566,99.22461264042795 41.289999999979045,99.2011412814245 41.14535714290105,99.21287696165382 41.000714285706636,99.22461264042795 40.85607142857043,99.2011412814245 40.740357142931316,99.21287696165382 40.605357142863795,99.21287696165382 40.46071428572759,99.2011412814245 40.33535714284517,99.2011412814245 40.210000000020955,99.21287696165382 40.06535714288475,99.22461264042795 39.93035714287544,99.24808399376343 39.81464285711991,99.21287696165382 39.68928571429569,99.1776699167749 39.55428571434459,99.18940559981274 39.428928571462166,99.16593423228915 39.29392857145285,99.1776699167749 39.17821428575553,99.2011412814245 39.06250000005821,99.1776699167749 38.927500000048894,99.15419854641368 38.78285714291269,99.15419854641368 38.66714285715716,99.15419854641368 38.522500000020955,99.13072717036994 38.426071428577416,99.10725578864367 38.300714285694994,99.10725578864367 38.16571428574389,99.10725578864367 38.06928571430035,99.13072717036994 37.924642857164145,99.11899148020166 37.78964285715483,99.13072717036994 37.66428571433062,99.16593423228915 37.51964285719441,99.16593423228915 37.3846428571851,99.1776699167749 37.28821428574156,99.14246285911213 37.15321428573225,99.14246285911213 37.02785714290803,99.14246285911213 36.9217857143376,99.11899148020166 36.7675000000163,99.14246285911213 36.642142857192084,99.13072717036994 36.48785714287078,99.11899148020166 36.362500000046566,99.13072717036994 36.26607142860303,99.11899148020166 36.02500000002328,99.13072717036994 35.745357142877765,99.11899148020166 35.5332142857369,99.08378440124216 35.31142857141094,99.08378440124216 34.87750000000233,99.14246285911213 34.60750000004191,99.07204870541318 34.43392857146682,99.04857730944786 34.09642857144354,99.07204870541318 33.93250000005355,99.02510590785096 33.77821428573225,99.0133702049352 33.488928571518045,99.06031300813629 33.20928571431432,99.0955200956596 32.958571428607684,99.2011412814245 32.756071428593714,99.1776699167749 28.9471428571851,98.96642737893126 28.725357142917346,98.96642737893126 28.484285714279395,98.93122024456534 28.166071428568102,99.0133702049352 27.915357142861467,98.94295595744916 27.65500000002794,98.8960130973719 27.307857142877765,98.8960130973719 24.1835714285844,98.86080593741644 23.952142857189756,98.88427737878374 23.643571428605355,98.86080593741644 23.421785714337602,98.82559876463347 23.171071428630967,98.73171290809114 22.872142857173458,98.81386303752515 22.553928571462166,98.82559876463347 22.332142857136205,98.83733449029387 19.834642857138533,98.80212730902713 19.50678571430035,98.80212730902713 19.342857142852154,98.80212730902713 19.178928571462166,98.82559876463347 19.1307142857695,98.76692011496925 18.986071428575087,98.77865584772371 18.658214285736904,98.79039157910302 18.532857142854482,98.7199771696396 18.272500000020955,98.69650568848738 18.060357142880093,98.7199771696396 17.857857142866123,98.7199771696396 17.71321428572992,98.68476994575758 16.681428571464494,98.70824142976926 16.382500000065193,98.7199771696396 16.151071428554133,98.63782696063572 15.92928571428638,98.68476994575758 15.582142857194412,98.67303420157987 15.35071428574156,98.70824142976926 15.128928571473807,98.75518438078143 14.868571428582072,98.69650568848738 14.598571428563446,98.67303420157987 14.367142857168801,98.66129845604155 14.0585714285844,98.63782696063572 13.875357142882422,98.63782696063572 13.66321428574156,98.64956270903349 13.200357142894063,98.67303420157987 13.007500000006985,98.56741244035948 12.988214285694994,98.83733449029387 13.017142857133877,99.04857730944786 13.055714285757858,99.22461264042795 12.96892857144121,99.4241189624081 12.853214285743888,99.4475902674094 12.87250000005588,99.14246285911213 12.67000000004191,99.15419854641368 12.506071428593714,99.33023368558497 12.438571428589057,99.47106156674272 12.419285714335274,99.65883175668569 12.46750000002794,99.98742871388822 12.486785714281723,100.23387570084742 12.602500000037253,100.585941738158 12.612142857164145,100.82065171935392 12.67000000004191,101.0905674951573 12.698928571480792,101.32527625455259 12.756785714358557,101.48957204798353 12.785714285739232,101.72427984130627 12.785714285739232,101.99419310110534 12.805000000051223,102.26410560942168 12.853214285743888,102.54575264289451 12.853214285743888,102.81566361552541 12.86285714287078,103.08557383661537 12.882142857182771,103.35548330626625 12.86285714287078,103.60192173092219 12.86285714287078,103.90703510303138 12.814642857178114,104.13000195998029 12.833928571490105,104.43511367004976 12.814642857178114,104.62287424516398 12.853214285743888,104.89277943475463 12.843571428616997,105.1392139515956 12.814642857178114,105.33870810168446" stroke="#4DD2FF" stroke-dasharray="none" stroke-linecap="round" stroke-linejoin="round" stroke-width="0.5"><title>2013-12-10 10.9km</title><desc>9223370650177580807</desc></polyline><polyline fill="none" opacity="1" points="110.31823299825191,96.45414429320954 110.55819190572947,94.11900266655721 110.79815081134439,90.90817924076691 110.55819190572947,88.2811387181282 109.1184384636581,85.07030752976425 105.99897267390043,83.02704909676686 102.1596301626414,80.6918944849167 98.80020546540618,80.6918944849167 96.40061639528722,81.85947207268327 93.28115060459822,83.90273149451241 91.12152044195682,88.2811387181282 91.12152044195682,91.78385877958499 89.92172590829432,95.87035909830593 89.4418080933392,98.49739136477001 88.48197246622294,102.58388032088988 88.7219313737005,106.37847101641819 88.00205465313047,109.29738287813962 88.00205465313047,113.09196302411146 88.00205465313047,116.01086677075364 89.20184918679297,118.34598722797818 91.60143825691193,121.84866367932409 94.48094513919204,123.01622136775404 98.32028765138239,123.60000000009313 101.91967125423253,122.43244259478524 103.8393425103277,119.80543636670336 106.47889048792422,117.47031732159667 108.15860283561051,113.38385355728678 108.15860283561051,110.17305574938655 109.35839737113565,106.08657963620499 109.83831518515944,102.87577212415636 110.55819190572947,99.08117592497729 111.51802753377706,94.70278828428127 111.51802753377706,92.07575188926421 111.27806862723082,87.69735154649243 110.07827409170568,84.19462555623613 108.6385206496343,81.85947207268327 105.27909595239908,80.98378893476911 102.87950688321143,80.4000000001397 99.04016437195241,80.6918944849167 95.92069858126342,82.44326065597124 92.80123279150575,85.36220145085827 90.40164372138679,88.57303225062788 90.16168481484056,92.36764496355318 89.68176699988544,95.87035909830593 89.20184918679297,99.37306815129705 88.48197246622294,102.58388032088988 88.48197246622294,106.37847101641819 88.00205465313047,110.17305574938655 88.48197246622294,113.96763451839797 88.96189027931541,117.47031732159667 91.12152044195682,119.80543636670336 94.00102732609957,121.55677416943945 97.3604520233348,122.43244259478524 101.19979453459382,122.1405531547498 105.03913704585284,119.51354661001824 107.43872611504048,117.17842728225514 108.15860283561051,112.80007245577872 108.87847955618054,108.71360078873113 109.35839737113565,104.33523061382584 109.83831518515944,100.83252875739709 110.55819190572947,97.62171426019631 111.99794534686953,93.53521690587513 111.51802753377706,90.03249938436784 111.51802753377706,86.52977678109892 110.07827409170568,83.61083739693277" stroke="#4DD2FF" stroke-dasharray="none" stroke-linecap="round" stroke-linejoin="round" stroke-width="0.5"><title>2013-11-30 10.3km</title><desc>9223370651086224807</desc></polyline><polyline fill="none" opacity="1" points="175.72674369905144,86.45355257811025 174.8219303302467,83.42677830182947 173.01230359636247,82.6012937091291 170.2978634936735,83.15161680453457 168.2620334168896,83.15161680453457 165.32138997409493,82.6012937091291 162.1545431893319,82.6012937091291 162.38074653036892,83.7019397658296 160.34491645358503,85.07774658850394 156.27325630094856,88.93000126630068 157.17806966789067,92.23192865797319 156.49945964291692,95.80901126144454 156.27325630094856,100.76188558526337 156.49945964291692,104.06379581429064 153.55881619919091,107.36570125445724 154.46362956706434,109.8421271899715 155.82084961794317,112.31855043233372 155.82084961794317,116.17075901036151 156.49945964291692,118.37201812700368 157.40427300985903,119.47264688764699 159.44010308664292,122.22421646025032 162.83315321430564,122.22421646025032 166.67861002590507,123.60000000009313 167.58342339284718,121.6739028126467 171.20267686247826,119.74780399515294 174.8219303302467,115.89560147118755 175.72674369905144,114.51981327589601 177.53637043293566,112.04339242749847 176.85776040703058,106.8153840135783 176.17915038205683,105.71474913298152 176.4053537240252,101.86252286075614 177.762573774904,96.90965093066916 177.762573774904,95.80901126144454 176.17915038205683,92.78224942437373 178.44118379987776,90.30580492829904 176.85776040703058,89.20516206463799 175.2743370141834,86.72871367656626 173.23850693926215,83.7019397658296 171.4288802035153,83.15161680453457 168.4882367597893,80.4000000001397 163.9641699232161,82.6012937091291 160.79732313752174,85.90323028201237 157.85667969379574,88.93000126630068 156.72566298395395,90.85612616012804 156.49945964291692,95.25869122636504 158.0828830357641,99.38608824228868 156.27325630094856,102.96315960329957 155.36844293307513,105.43959032977 156.0470529589802,107.64085982413962 155.1422395920381,110.6676019039005 155.36844293307513,113.69433995871805 155.36844293307513,117.27138883504085 157.40427300985903,118.64717536675744 160.118713112548,120.57327511627227 163.5117632402107,121.94905965286307 166.4524066830054,122.77452997583896 169.61925346869975,122.22421646025032 172.3336935704574,120.02296106843278 174.8219303302467,117.27138883504085 176.4053537240252,113.41918211965822 176.63155706506222,110.3924436995294 176.85776040703058,107.36570125445724 176.85776040703058,104.06379581429064 176.17915038205683,100.76188558526337 176.85776040703058,97.45997056690976 177.08396374993026,94.70837105903774 177.98877711594105,91.40644725854509 177.53637043293566,88.37967956834473 176.17915038205683,85.62806908367202 174.3695236472413,83.7019397658296 172.3336935704574,82.87645527347922 169.16684678569436,82.05097048147582 166.4524066830054,82.05097048147582 163.28555989731103,83.7019397658296 161.47593316342682,84.25226259441115 159.44010308664292,86.45355257811025 157.85667969379574,88.37967956834473 157.63047635182738,91.40644725854509 156.72566298395395,95.25869122636504 157.17806966789067,98.28544977051206 156.49945964291692,102.13768209633417 156.49945964291692,104.06379581429064 156.0470529589802,108.46633533574641 154.68983290810138,112.31855043233372 155.1422395920381,116.17075901036151 156.49945964291692,118.09686085442081 160.34491645358503,119.19748974777758 163.5117632402107,121.3987459379714 166.67861002590507,121.3987459379714 170.07166015263647,119.74780399515294 172.3336935704574,118.09686085442081 174.14332030527294,115.07012865296565 175.72674369905144,111.21791821252555 175.50054035615176,107.64085982413962 176.17915038205683,104.33895478351042 176.17915038205683,100.76188558526337 176.85776040703058,97.45997056690976 177.08396374993026,93.6077303243801 178.21498045884073,89.48032283014618 177.08396374993026,87.55419677193277 175.04813367314637,85.62806908367202 172.3336935704574,83.97710119653493 168.2620334168896,82.87645527347922 164.64277994912118,83.15161680453457 161.9283398464322,84.80258529004641 159.21389974374324,87.27903577359393 158.0828830357641,90.0306442619767 157.63047635182738,92.78224942437373 156.49945964291692,96.90965093066916 156.72566298395395,100.21156674809754 156.72566298395395,102.41284129838459 156.27325630094856,105.9899079024326 156.27325630094856,110.11728546163067 155.5946462759748,113.41918211965822 156.72566298395395,116.17075901036151 158.0828830357641,119.19748974777758" stroke="#4DD2FF" stroke-dasharray="none" stroke-linecap="round" stroke-linejoin="round" stroke-width="0.5"><title>2013-11-16 10.4km</title><desc>9223370652294258807</desc></polyline><polyline fill="none" opacity="1" points="45.18931940756738,154.73433729959652 45.43256548140198,150.88776637450792 46.162303702905774,147.04118940443732 46.162303702905774,144.08227993012406 45.43256548140198,139.3480173314456 45.67581155523658,135.7973143735435 43.48659688886255,134.31785328662954 40.810890073888004,130.4712502779439 38.37842933367938,129.58357180282474 30.59455496352166,128.99178597261198 27.675602074712515,131.06303575029597 25.97287955507636,134.61374557600357 22.81068059336394,138.16445025079884 24.27015703730285,141.12336687929928 23.297172740101814,144.6740621116478 23.297172740101814,150.88776637450792 22.81068059336394,154.43844744330272 23.053926666267216,160.06034860108048 22.56743451859802,163.6110163643025 23.540418814867735,166.5699022328481 24.99989525973797,168.64112021238543 29.135078518651426,170.71233643963933 34.0,171.60000000009313 38.37842933367938,171.30411218269728 39.35141362901777,169.52878452418372 42.02712044399232,167.1616789775435 42.27036651875824,163.01923876185901 42.27036651875824,160.35623777890578 43.24335081502795,155.32611690624617 45.18931940756738,150.29598569567315 45.43256548140198,146.1535169382114 45.919057629071176,142.89871513913386 45.67581155523658,138.75623386260122 45.919057629071176,135.7973143735435 44.70282725803554,132.5424988034647 40.56764399912208,129.879464663798 36.91895288974047,128.99178597261198 33.270261778496206,128.99178597261198 29.378324592486024,130.4712502779439 26.7026177784428,132.24660626379773 25.486387407407165,136.38909855671227 23.783664888702333,141.12336687929928 23.783664888702333,144.08227993012406 23.540418814867735,146.74529861821793 22.81068059336394,150.88776637450792 23.053926666267216,154.73433729959652 22.81068059336394,157.69323389837518 23.053926666267216,162.72334990650415 24.02691096253693,165.09045974630862 26.459371704608202,167.1616789775435 31.081047111190856,171.00822432967834 34.972984296269715,171.00822432967834 38.62167540658265,169.82467255694792 40.810890073888004,168.64112021238543 43.48659688886255,165.38634831481613 44.216335110366344,162.72334990650415 43.973089036531746,158.58090218016878 44.459581185132265,153.8466676226817 45.43256548140198,150.88776637450792 46.162303702905774,147.33708015549928 46.162303702905774,143.7863887862768 46.405549777671695,139.64390901243314 45.919057629071176,135.7973143735435 43.72984296362847,132.5424988034647 41.054136148653924,130.4712502779439 36.91895288974047,128.4000000001397 33.270261778496206,128.99178597261198 29.864816741086543,130.4712502779439 26.7026177784428,131.95071368920617 24.02691096253693,134.90963782859035 23.297172740101814,140.23569226590917 23.540418814867735,143.7863887862768 23.053926666267216,147.33708015549928 24.51340311113745,150.88776637450792 22.81068059336394,156.50967568787746 22.080942370928824,160.35623777890578 22.81068059336394,164.2027938242536 23.053926666267216,166.27401380729862 26.7026177784428,168.64112021238543 29.621570666320622,170.12056055432186 34.486492147669196,170.71233643963933 37.89193718507886,170.12056055432186 41.054136148653924,168.64112021238543 43.24335081502795,165.68223684746772 43.973089036531746,162.13157208892517 44.94607333280146,158.58090218016878 45.43256548140198,155.0302271207329 45.67581155523658,151.77543712500483 46.162303702905774,148.81653337273747 46.405549777671695,145.26584414974786 46.89204192534089,139.3480173314456 46.405549777671695,135.7973143735435 44.70282725803554,133.13428377383389 41.54062829632312,130.4712502779439 38.864921481348574,129.2876789055299 34.0,128.69589300476946 31.081047111190856,129.58357180282474 28.40534029621631,130.76714303181507 25.97287955507636,133.13428377383389 24.99989525973797,134.31785328662954 24.27015703730285,135.7973143735435 25.486387407407165,139.3480173314456 25.243141333572567,140.82747537712567 24.756649184972048,144.9699531486258 23.297172740101814,149.1124239093624 22.56743451859802,152.3672174452804 22.080942370928824,157.39734439994209 21.10795807465911,159.46857014065608 21.837696296162903,160.94801602489315 23.297172740101814,163.90690511232242 25.97287955507636,165.68223684746772 28.40534029621631,168.93700835271738 31.56753925886005,169.82467255694792 32.78376962989569,170.41644851467572 37.64869111124426,171.60000000009313 40.56764399912208,170.71233643963933 42.513612592592835,168.04934382555075 43.973089036531746,166.27401380729862" stroke="#4DD2FF" stroke-dasharray="none" stroke-linecap="round" stroke-linejoin="round" stroke-width="0.5"><title>2013-11-03 10.7km</title><desc>9223370653417861807</desc></polyline><polyline fill="none" opacity="1" points="91.1215182961896,167.85603100177832 93.48911341652274,169.5840174248442 97.27726561017334,170.73600767669268 102.01245585177094,170.73600767669268 105.09032951015979,169.5840174248442 106.74764609336853,167.28003524802625 107.93144365400076,163.24806107999757 109.58876023907214,160.0800765901804 109.82551975175738,155.7600909504108 109.58876023907214,152.01609706040472 110.77255779877305,148.27209728653543 111.48283633589745,145.39209345774725 111.71959584765136,142.5120861462783 111.9563553603366,138.48007006268017 111.48283633589745,133.2960393568501 109.35200072731823,129.84001261997037 106.98440560605377,129.2640076763928 103.90653194859624,130.41601742454804 100.35513926763088,130.12801503995433 97.51402512192726,130.41601742454804 94.67291097715497,132.14403100241907 92.77883488032967,135.3120526385028 91.35827780794352,138.1920686531812 91.59503732062876,143.37608870584518 90.88475878350437,145.96809450211003 90.1744802473113,149.712097896263 89.46420171111822,153.4560954067856 88.51716366223991,155.7600909504108 88.28040415141732,159.2160800890997 88.28040415141732,162.96006266516633 89.70096122287214,167.28003524802625 92.77883488032967,169.5840174248442 97.27726561017334,171.31200259411708 100.59189877938479,171.60000000009313 104.3800509730354,170.16001262003556 107.69468414224684,167.28003524802625 108.16820316575468,162.6720642137807 110.29903877526522,158.06408426584676 110.53579828795046,154.60809345706366 110.53579828795046,151.44009747868404 110.77255779877305,147.1200961722061 111.00931731145829,142.80008703446947 112.19311487209052,139.0560727783013 112.42987438477576,135.3120526385028 110.29903877526522,132.7200352489017 108.87848170287907,130.41601742454804 105.80060804635286,128.9760051521007 102.01245585177094,128.4000000001397 98.22430365905166,129.2640076763928 94.90967048984021,129.84001261997037 89.70096122287214,133.8720433257986 88.99068268761039,135.0240508459974 88.99068268761039,136.46405946207233 90.1744802473113,139.63207535468973 89.93772073462605,143.66408948926255 88.51716366223991,147.69609680003487 88.51716366223991,150.57609784416854 87.57012561522424,154.32009399705566 87.57012561522424,157.48808614653535 87.80688512697816,160.65607408294454 87.57012561522424,163.5360594613012 89.22744219843298,166.7040393569041 91.35827780794352,169.00802208902314 94.19939195271581,169.87201503990218 97.9875441454351,169.5840174248442 102.01245585177094,168.72002436965704 106.51088658254594,166.99203731981106 108.40496267937124,164.4000543965958 110.29903877526522,160.65607408294454 109.82551975175738,156.62408870481886 110.29903877526522,152.59209650335833 110.53579828795046,149.13609775714576 110.77255779877305,145.39209345774725 111.00931731145829,141.93608426721767 112.19311487209052,139.34407408325933 111.9563553603366,135.3120526385028 109.35200072731823,132.7200352489017 106.74764609336853,130.70401977421716 102.72273438796401,129.55201016529463 99.6448607314378,129.2640076763928 95.8567085377872,130.41601742454804 92.77883488032967,131.56802661553957" stroke="#4DD2FF" stroke-dasharray="none" stroke-linecap="round" stroke-linejoin="round" stroke-width="0.5"><title>2013-11-02 10.5km</title><desc>9223370653505000807</desc></polyline><polyline fill="none" opacity="1" points="175.54437706060708,152.97010246641003 175.54437706060708,150.540104374988 176.65418834704906,147.0301024664659 176.65418834704906,144.33009724435396 176.87615060433745,142.4400916469749 176.2102638334036,139.20007833116688 175.54437706060708,134.88005326571874 173.32475448958576,131.1000244792085 172.21494320314378,130.29001747770235 168.88550934474915,128.94000515691005 166.2219622572884,128.94000515691005 162.6705661425367,130.56001984444447 159.78505679685622,132.45003549358808 157.5654342258349,135.15005507646129 156.01169842481613,138.12007284793071 156.45562293939292,142.98009340977296 156.67758519575,145.68010026379488 156.23366068210453,149.19010429433547 156.01169842481613,151.35010403278284 156.01169842481613,152.97010246641003 155.56777391023934,155.67009724397212 155.12384939659387,158.6400877290871 156.23366068210453,162.15007139416412 157.5654342258349,164.85005507571623 160.67290582694113,167.0100396713242 164.22430194169283,168.3600289823953 167.7756980592385,168.3600289823953 169.77335837297142,167.82003335561603 172.65886771772057,165.66004954348318 174.6565280323848,162.96006684168242 175.54437706060708,159.18008557590656 175.54437706060708,155.94009654247202 175.7663393188268,152.70010280935094 175.54437706060708,149.46010437584482 175.54437706060708,146.49010168295354 176.43222609069198,142.98009340977296 176.87615060433745,140.01008210144937 176.43222609069198,137.31006839242764 175.32241480425,134.34004954481497 173.99064126145095,132.72003759886138 170.4392451448366,130.56001984444447 167.7756980592385,128.4000000001397 165.3341132281348,129.48001018329524 162.0046793706715,130.8300221778918 159.78505679685622,132.45003549358808 158.67524551134557,135.69005860155448 158.2313209977001,138.12007284793071 157.7873964831233,141.63008875912055 156.45562293939292,144.33009724435396 156.01169842481613,146.76010209089145 156.23366068210453,150.81010429398157 157.7873964831233,154.32010026299395 154.90188713837415,155.13009854895063 155.12384939659387,156.21009580790997 154.45796262472868,157.56009164638817 154.90188713837415,163.23006525845267 160.22898131329566,166.20004569296725 165.77803774364293,167.55003549298272 167.1098112873733,167.55003549298272 169.10747160110623,167.55003549298272 171.77101868763566,168.3600289823953 173.99064126145095,164.0400603134185 174.6565280323848,162.96006684168242 174.8784902896732,160.5300796192605 175.54437706060708,159.18008557590656 173.54671674594283,158.91008666879497 174.8784902896732,158.10008975397795 176.2102638334036,155.94009654247202 175.9883015761152,150.81010429398157 176.2102638334036,149.46010437584482 175.7663393188268,146.2201012421865 176.2102638334036,142.1700907170307 175.7663393188268,136.7700652598869 175.32241480425,133.26004171161912 173.54671674594283,129.75001264712773 169.55139611661434,129.48001018329524 165.77803774364293,129.21000768686645 162.6705661425367,130.56001984444447 159.78505679685622,132.72003759886138 156.67758519575,133.26004171161912 156.45562293939292,137.58006991050206 156.23366068210453,140.55008445074782 156.01169842481613,144.0600965428166 154.90188713837415,147.57010311936028 155.34581165295094,151.62010385282338 155.12384939659387,155.13009854895063 154.90188713837415,159.18008557590656 154.90188713837415,161.61007426702417 158.45328325405717,165.66004954348318 164.00233968626708,168.63002674723975 166.44392451550812,169.98001507879235 169.32943385839462,171.60000000009313 173.32475448958576,167.82003335561603 175.1004525469616,162.69006839231588 175.54437706060708,159.7200832911767 175.54437706060708,158.6400877290871 175.1004525469616,153.24010209064 174.8784902896732,148.92010417976417 175.32241480425,146.2201012421865 175.54437706060708,142.98009340977296 177.09811286255717,138.93007700890303 175.7663393188268,135.96006031497382 174.43456577509642,134.34004954481497 172.88082997407764,130.8300221778918 170.21728288847953,130.02001507859677 166.0,129.75001264712773 162.0046793706715,130.56001984444447 159.78505679685622,130.8300221778918 156.89954745396972,132.72003759886138 154.90188713837415,135.69005860155448 154.67992488108575,138.39007426798344 155.34581165295094,139.7400808769744 154.23600036650896,142.71009254432283 154.67992488108575,145.95010076928884 154.90188713837415,147.57010311936028 154.45796262472868,150.27010442432947 154.90188713837415,153.78010124200955 154.67992488108575,157.02009340864606 154.90188713837415,161.34007565444335 157.5654342258349,166.20004569296725 161.7827171124518,168.63002674723975 163.11449065618217,168.3600289823953 166.0,169.98001507879235 167.99766031466424,169.1700221770443 171.1051319167018,171.33000259427354 173.32475448958576,168.63002674723975 174.8784902896732,162.42006990942173 173.99064126145095,158.37008875748143 175.1004525469616,151.35010403278284 174.8784902896732,147.0301024664659 174.8784902896732,145.68010026379488 176.43222609069198,142.98009340977296 177.76399963349104,140.82008557626978 177.09811286255717,136.7700652598869 175.32241480425,132.1800333559513 173.10279223136604,129.75001264712773 169.9953206302598,128.6700025945902 166.0,128.94000515691005 161.1168303405866,130.56001984444447 157.1215097112581,132.1800333559513 156.67758519575,133.53004371840507 155.56777391023934,134.61005142168142 155.78973616752774,137.04006684245542 156.01169842481613,138.6600756549742 156.23366068210453,142.1700907170307 156.23366068210453,143.5200950417202 156.23366068210453,147.84010339644738 156.01169842481613,149.19010429433547 155.12384939659387,151.62010385282338 155.78973616752774,155.13009854895063 154.90188713837415,156.21009580790997 155.12384939659387,161.07007700833492 156.23366068210453,162.15007139416412 156.23366068210453,163.50006364332512 158.45328325405717,165.66004954348318 162.6705661425367,168.63002674723975 167.1098112873733,170.52001018356532 170.4392451448366,169.710017477395 171.99298094585538,168.09003118495457 175.32241480425,163.77006199466996 174.8784902896732,159.18008557590656 174.43456577509642,152.97010246641003 176.2102638334036,152.1601033960469 176.65418834704906,147.3001028096769 176.87615060433745,146.49010168295354 175.9883015761152,142.71009254432283 176.87615060433745,138.93007700890303 175.54437706060708,134.34004954481497 173.54671674594283,132.1800333559513 172.21494320314378,128.94000515691005 166.2219622572884,129.21000768686645 162.0046793706715,130.02001507859677 159.34113228321075,132.1800333559513 157.3434719676152,134.34004954481497 156.23366068210453,136.50006364448927 156.89954745396972,138.39007426798344 157.1215097112581,140.01008210144937 156.89954745396972,143.5200950417202 156.01169842481613,144.6000979137607 155.56777391023934,147.0301024664659 156.23366068210453,148.65010403259657 156.23366068210453,150.540104374988" stroke="#4DD2FF" stroke-dasharray="none" stroke-linecap="round" stroke-linejoin="round" stroke-width="0.5"><title>2013-10-26 11.1km</title><desc>9223370654110301807</desc></polyline><polyline fill="none" opacity="1" points="35.51868766080588,218.7473760987632 37.855130213312805,216.47371085267514 40.19157276768237,213.6316262029577 42.5280153201893,209.6527019208297 43.462592341937125,206.52639954793267 44.163525108247995,202.26325324806385 44.63081361912191,199.13694104878232 43.92988085281104,197.14746748516336 44.39716936275363,193.1685153071303 44.163525108247995,191.17903669271618 43.462592341937125,189.75797950988635 43.22894808650017,187.76849800907075 42.5280153201893,183.78952995873988 41.126149787567556,180.3789805562701 36.9205531924963,178.67370399925858 33.649533617310226,178.10527820512652 29.67758127581328,180.66319319489412 27.574782977811992,181.51583090610802 25.00469616893679,184.3579543782398 23.135542125441134,187.76849800907075 24.537407658062875,190.32640248560347 25.238340423442423,193.1685153071303 25.238340423442423,196.86325683817267 24.30376340262592,199.9895720607601 23.836474891752005,203.68430287321098 23.602830636315048,206.81060902611353 24.537407658062875,208.23165590292774 23.836474891752005,212.77900013769977 25.939273189753294,215.62108581862412 28.275715744122863,217.89475188939832 31.079446808435023,218.46316806343384 34.350466382689774,217.89475188939832 38.32241872418672,216.18950254260562 41.59343829937279,213.91583482245915 42.5280153201893,209.93691102182493 42.29437106475234,206.52639954793267 42.76165957655758,202.26325324806385 42.76165957655758,198.85273064253852 42.76165957655758,195.1579922370147 44.163525108247995,191.4632480267901 45.79903489537537,189.18955639493652 46.7336119171232,186.63165068160743 46.49996766075492,184.07374218595214 44.163525108247995,181.23161837016232 41.126149787567556,179.81055517448112 38.08877446874976,177.25263925665058 34.81775489449501,176.4000000001397 31.313091062940657,177.82106525660492 28.509359998628497,180.09476788225584 25.939273189753294,182.6526807071641 25.471984679810703,185.77901482582092 25.471984679810703,189.4737679695245 25.00469616893679,192.60009301709943 24.537407658062875,196.86325683817267 21.733676593750715,199.9895720607601 22.20096510462463,203.68430287321098 21.967320849187672,207.94744659680873 22.434609359130263,211.07374708005227 22.434609359130263,213.91583482245915 24.537407658062875,216.75791912851855 27.574782977811992,219.0315841003321 30.845802552998066,219.60000000009313 34.81775489449501,219.0315841003321 37.38784170243889,217.610543750925 41.126149787567556,215.90529419737868 42.060726810246706,213.6316262029577 43.69623659737408,210.22112008789554 44.163525108247995,206.81060902611353 44.163525108247995,203.1158831268549 44.63081361912191,199.70536175812595 45.33174638450146,195.4422030900605 45.565390639938414,192.0316705906298 46.03267915081233,189.18955639493652 45.79903489537537,185.49480280443095 44.864457874558866,181.80004340759479 42.76165957655758,179.24212965508923 39.72428425680846,178.10527820512652 36.21962042618543,177.53685227409005 32.7149565955624,177.53685227409005 29.443937021307647,178.95791684417054 25.939273189753294,181.23161837016232 24.537407658062875,184.07374218595214 25.238340423442423,188.33692146651447 23.836474891752005,191.74745932617225 23.602830636315048,194.58957042940892 23.602830636315048,198.28430972713977 21.967320849187672,201.69483315735124 22.434609359130263,206.52639954793267 22.20096510462463,209.3684927856084 23.602830636315048,212.21058258996345 24.537407658062875,215.90529419737868 25.471984679810703,217.610543750925 31.079446808435023,219.0315841003321 35.051399149000645,218.46316806343384 37.62148595787585,216.18950254260562 41.82708255387843,212.77900013769977 43.462592341937125,211.9263737637084 44.163525108247995,209.08428361662664 43.69623659737408,205.95798048726283 43.69623659737408,202.26325324806385 43.69623659737408,199.13694104878232 44.163525108247995,195.72641390911303 45.565390639938414,192.31588182109408 45.79903489537537,189.18955639493652 45.79903489537537,186.34743876405992 45.79903489537537,183.78952995873988 43.462592341937125,181.23161837016232 41.59343829937279,178.10527820512652 38.08877446874976,176.96842620545067 33.88317787181586,178.10527820512652 29.91122553125024,180.09476788225584 27.574782977811992,183.22110540163703 25.471984679810703,186.34743876405992 24.07011914718896,188.33692146651447 23.836474891752005,192.0316705906298 22.9018978709355,195.4422030900605 22.434609359130263,199.13694104878232 23.135542125441134,202.26325324806385 21.733676593750715,205.38956129038706 21.2663880828768,208.51586517505348 22.434609359130263,213.6316262029577 24.537407658062875,215.90529419737868 26.873850212432444,217.89475188939832 28.97664850950241,219.31579206697643 33.18224510550499,219.60000000009313 36.9205531924963,217.89475188939832 39.25699574500322,215.62108581862412 41.126149787567556,213.6316262029577 42.29437106475234,209.6527019208297" stroke="#4DD2FF" stroke-dasharray="none" stroke-linecap="round" stroke-linejoin="round" stroke-width="0.5"><title>2013-10-20 10.7km</title><desc>9223370654628121807</desc></polyline><polyline fill="none" opacity="1" points="88.94377282448113,191.3434901572764 88.27369845006615,195.14727178867906 88.05034032464027,198.13595284009352 87.3802659502253,200.58123438083567 86.71019157581031,203.84160563116893 86.71019157581031,207.37366914795712 87.3802659502253,210.36233394150622 89.83720532245934,213.0792984876316 92.51750282011926,214.9811717160046 95.42115844320506,217.42643493087962 99.21824656426907,217.6981306800153 102.56861843541265,217.42643493087962 106.14234843291342,216.06795569579117 109.26936217956245,213.8943872116506 110.83286905195564,211.17742365039885 111.05622717738152,208.18875993951224 111.50294342730194,205.20009225560352 111.94965967629105,201.1246299177874 112.61973405070603,198.13595284009352 113.06645030062646,195.41897022980265 113.28980842512101,192.70198433613405 112.84309217520058,188.89819856663235 112.61973405070603,186.1812047897838 110.38615280296654,182.92080792272463 108.82264592964202,179.6604063261766 105.91899030748755,177.75850321003236 102.79197656083852,176.67170070740394 99.88832093775272,176.67170070740394 96.31459094118327,177.48680263385177 92.96421907003969,179.6604063261766 90.50727969687432,182.92080792272463 89.61384719889611,185.90950523177162 89.61384719889611,188.89819856663235 88.94377282448113,192.15858676331118 88.72041469905525,196.23406535829417 87.60362407565117,199.49444291344844 88.05034032464027,202.4831181843765 86.93354970123619,206.2868809637148 89.39048907347023,208.73215363710187 90.28392157331109,211.9925130638294 92.07078657113016,215.52456377237104 94.30436781886965,217.42643493087962 97.8780978154391,218.7849133447744 101.67518593650311,219.60000000009313 104.57884155865759,217.96982639585622 107.03578093089163,215.25286776060238 109.04600405413657,212.8076021813322 110.60951092839241,209.81894063809887 110.38615280296654,207.64536611060612 111.05622717738152,204.65669770352542 111.27958530280739,201.6680253231898 111.50294342730194,198.67934896820225 112.1730178007856,196.23406535829417 112.61973405070603,191.88688792707399 112.61973405070603,188.62649933667853 111.27958530280739,183.19250784208998 109.492720304057,179.6604063261766 106.58906468190253,178.03020375361666 102.12190218642354,176.4000000001397 98.54817218892276,176.67170070740394 95.64451656676829,178.03020375361666 92.51750282011926,179.9321066394914 90.95399594679475,183.19250784208998 90.7306378223002,186.72460380778648 90.28392157331109,191.07179122348316 89.61384719889611,195.69066863902844 86.93354970123619,198.40765092079528 87.3802659502253,201.1246299177874 87.3802659502253,204.3850003783591 86.93354970123619,207.64536611060612 88.05034032464027,210.36233394150622" stroke="#4DD2FF" stroke-dasharray="none" stroke-linecap="round" stroke-linejoin="round" stroke-width="0.5"><title>2013-10-19 10.2km</title><desc>9223370654714312807</desc></polyline><polyline fill="none" opacity="1" points="155.1090584937483,195.98409706004895 155.81933728791773,199.72809728630818 155.1090584937483,203.47209162893705 155.1090584937483,206.64008224592544 154.3987797005102,210.38406572700478 154.87229889724404,213.26404901687056 157.23989487532526,215.856031000847 161.5015676394105,217.87201503897086 165.0529616093263,219.60000000009313 168.36759597994387,218.16001261910424 171.20871115475893,216.14402882475406 174.049826329574,213.55204715393484 174.76010512374341,210.38406572700478 175.70714351627976,206.06408426584676 175.23362432047725,202.03209450119175 175.47038391791284,197.71209789603017 175.70714351627976,194.83209580741823 176.41742231044918,190.8000870347023 177.36446070112288,187.05607277853414 175.94390311371535,183.0240508459974 174.76010512374341,180.14403100172058 171.20871115475893,177.55201016599312 167.18379798997194,176.39999999990687 163.39564442262053,177.55201016599312 160.31776964943856,179.2800243704114 158.66045246366411,182.44804715528153 157.4766544746235,185.32806421420537 157.23989487532526,187.92007659026422 156.76637568045408,191.6640894880984 155.81933728791773,195.12009617267177 155.1090584937483,198.28809789568186 154.87229889724404,201.45609540655278 154.87229889724404,205.48808614583686 155.34581809211522,209.23207143694162 157.00313527788967,212.97605084488168 158.1869332678616,214.99203731981106 161.028048443608,218.16001261910424 164.57944241166115,218.16001261910424 167.42055758740753,218.73600767576136 170.73519195895642,217.29601977346465 173.33954753633589,215.56803314224817 174.99686472211033,212.11205611890182 175.47038391791284,207.79207779001445 175.70714351627976,203.18409227347001 175.70714351627976,200.30409679887816 175.70714351627976,196.84809763496742 176.65418190788478,193.9680945011787 177.36446070112288,190.51208614674397 177.1277011046186,186.19206865271553 174.99686472211033,180.14403100172058 172.3925091456622,178.12801503925584 167.65731718577445,176.68800259334967 164.81620201002806,176.97600515233353 161.97508683428168,179.56802661530674 159.37073125783354,181.58404135890305 158.66045246366411,184.4640594618395 157.23989487532526,189.07208118587732 155.81933728791773,193.39209345704876 155.81933728791773,196.84809763496742 154.3987797005102,200.30409679887816 154.6355392979458,204.04809023649432 154.87229889724404,207.2160800884012 154.3987797005102,210.67206421284936 156.29285648372024,214.70403935597278 158.89721206203103,217.29601977346465 161.5015676394105,217.5840174241457 166.4735191958025,218.16001261910424 169.31463437061757,216.72002436965704 172.3925091456622,214.12804332445376 173.33954753633589,211.53605946153402 174.52334552630782,207.79207779001445 175.94390311371535,204.33608948858455 177.1277011046186,201.1680958061479 177.6012202994898,197.13609775644727 177.1277011046186,192.52809162973426 177.1277011046186,188.20807779114693 176.18066271208227,184.75206108111888 174.76010512374341,180.14403100172058 171.91898994892836,178.12801503925584 168.84111517574638,177.26400767685845 164.81620201002806,176.97600515233353 161.5015676394105,178.99202208942734 158.66045246366411,181.58404135890305 157.23989487532526,184.176057808334 157.9501736694947,187.63207535399124 156.76637568045408,192.24009095085785 157.23989487532526,196.27209728676826 156.76637568045408,200.01609705970623 155.81933728791773,203.47209162893705 156.05609688628465,207.5040789565537 155.34581809211522,210.0960672076326 156.52961608115584,212.68805263726972 157.9501736694947,215.856031000847 161.7383272368461,217.87201503897086 163.86916361842304,217.87201503897086 168.84111517574638,218.44801016524434 171.91898994892836,216.72002436965704 174.52334552630782,213.84004525723867" stroke="#4DD2FF" stroke-dasharray="none" stroke-linecap="round" stroke-linejoin="round" stroke-width="0.5"><title>2013-10-12 10.6km</title><desc>9223370655320152807</desc></polyline><polyline fill="none" opacity="1" points="43.05256793834269,256.30595948919654 43.748919318430126,252.35303240921348 43.98103644605726,249.24715643795207 43.748919318430126,247.27068776125088 43.516802191734314,243.8824518530164 44.44527069851756,242.18833205639385 45.141622078604996,237.38831929140724 44.677387826144695,234.28242342267185 43.284685065969825,231.45887813949957 42.58833368588239,228.63532944396138 42.58833368588239,226.65884332591668 41.19563092570752,227.2235538160894 38.64234253298491,225.81177733442746 34.00000000093132,224.4000000001397 30.98247735388577,225.2470665036235 27.96495470777154,226.65884332591668 26.34013482183218,230.6118138891179 25.411666315048933,234.0000690475572 25.643783441744745,236.25890308944508 24.251080681569874,240.77656461950392 24.251080681569874,243.31774539034814 23.55472930241376,247.83539326884784 24.251080681569874,250.94127111579292 24.483197808265686,255.17655243445188 24.018963554874063,258.8471233653836 22.858377922326326,262.51768852747045 24.94743206165731,263.3647412073333 28.42918896023184,265.6235468534287 31.678828733973205,267.60000000009313 34.696351380087435,267.60000000009313 38.874459659680724,265.90589740499854 41.42774805333465,263.92944282409735 43.748919318430126,260.8235822466668 44.677387826144695,257.1530144221615 44.90950495097786,252.63538456475362 43.748919318430126,248.96480387263 43.98103644605726,243.8824518530164 45.141622078604996,239.92950374865904 45.37373920623213,236.82361125876196 46.30220771115273,234.0000690475572 45.60585633199662,231.74123282171786 43.05256793834269,228.07061929488555 38.874459659680724,226.65884332591668 35.39270276017487,225.81177733442746 32.60729724075645,225.81177733442746 30.286125973798335,226.94119858834893 26.34013482183218,228.91768446774222 24.94743206165731,231.74123282171786 24.018963554874063,235.12948634149507 24.251080681569874,239.0824425695464 24.251080681569874,242.47068544104695 24.483197808265686,245.57657042192295 24.251080681569874,249.24715643795207 22.626260795630515,251.78832799429074 21.92990941554308,254.61184870218858 21.697792288847268,257.435365997022 22.626260795630515,260.25887987948954 23.78684642817825,262.51768852747045 25.411666315048933,265.34119626670144 28.42918896023184,266.75294885598123 31.678828733973205,266.75294885598123 36.55328839365393,267.60000000009313 39.57081103976816,264.7764949919656 41.42774805333465,262.2353375663515 43.748919318430126,258.56477195979096 43.98103644605726,254.61184870218858 43.98103644605726,251.22362344292924 45.141622078604996,247.55304053192958 45.83797345869243,244.16480503370985 45.60585633199662,241.05891817482188 45.60585633199662,238.5177349471487 46.07009058445692,235.12948634149507 45.37373920623213,232.30594208301045 44.44527069851756,229.76474933186546 43.05256793834269,226.94119858834893 40.03504529315978,225.2470665036235 36.55328839365393,225.2470665036235 32.60729724075645,225.2470665036235 28.89342321548611,225.81177733442746 26.804369075223804,228.07061929488555 24.483197808265686,231.74123282171786 24.94743206165731,234.28242342267185 24.94743206165731,237.6706732562743 23.55472930241376,242.18833205639385 23.55472930241376,246.14127633837052 24.251080681569874,247.55304053192958 23.32261217571795,251.22362344292924 22.626260795630515,253.2000887747854 23.090495048090816,256.588311167201 23.78684642817825,259.6941773761064 24.251080681569874,262.80003945552744 25.875900567509234,265.34119626670144 27.73283758200705,266.4705984070897 34.00000000093132,266.4705984070897 38.17810827959329,266.4705984070897 40.267162419855595,265.34119626670144 43.98103644605726,261.95298657077365 43.284685065969825,257.1530144221615 43.05256793834269,252.63538456475362 44.21315357182175,249.81186146754771 43.05256793834269,246.14127633837052 44.44527069851756,243.8824518530164 45.37373920623213,241.9059786372818 46.07009058445692,237.6706732562743 46.30220771115273,234.0000690475572 45.60585633199662,230.6118138891179 43.05256793834269,227.78826416935772" stroke="#4DD2FF" stroke-dasharray="none" stroke-linecap="round" stroke-linejoin="round" stroke-width="0.5"><title>2013-10-06 10.6km</title><desc>9223370655838244807</desc></polyline><polyline fill="none" opacity="1" points="90.43855932168663,241.01548102218658 89.5279459245503,244.3385627658572 89.98325262311846,247.6616396890022 89.7555992724374,251.261634249473 88.84498587623239,255.69238901790231 88.16202582698315,258.46160639775917 89.0726392250508,261.50774164893664 90.43855932168663,263.1692682597786 93.39805286563933,265.9384766018484 95.67458635941148,267.3230795171112 97.95111985504627,267.60000000009313 102.27653349470347,266.49231786769815 106.14664043672383,264.5538728488609 108.65082728024572,260.4000565716997 109.78909402806312,256.800076372223 110.01674737781286,253.47701270505786 110.47205407731235,250.4308667758014 111.61032082512975,247.3847167957574 110.92736077588052,243.78471614304 110.92736077588052,240.46163359680213 111.61032082512975,237.41547036124393 111.83797417394817,234.64622754161246 111.61032082512975,231.8769813736435 109.5614406792447,230.21543206600472 107.96786723192781,228.00003111502156 105.23602703865618,226.89232983626425 102.27653349470347,227.44618054293096 97.72346650529653,228.00003111502156 95.44693301152438,228.55388155416586 93.8533595642075,230.21543206600472 93.62570621352643,231.8769813736435 92.71509281732142,234.64622754161246 92.48743946664035,237.69239445892163 91.80447941832244,241.84625191055238 91.12151937000453,244.89240925433114 91.80447941832244,248.49240816570818 90.89386602025479,251.5385566733312 90.43855932168663,255.1385451410897 89.5279459245503,257.90776318963617 89.5279459245503,259.84621383203194 90.43855932168663,262.8923472412862 92.03213276807219,265.10771445115097 96.12989305891097,266.21539725130424 99.31703995261341,267.0461590006016 102.27653349470347,266.21539725130424 105.23602703865618,265.9384766018484 107.2849071836099,263.7231101959478 108.65082728024572,261.50774164893664 109.5614406792447,257.6308415350504 109.33378732949495,254.58470112946816 110.2444007275626,250.7077893000096 110.2444007275626,247.1077938694507 110.01674737781286,243.50779278133996 109.78909402806312,238.80009051598608 110.2444007275626,235.47700073826127 110.92736077588052,234.09237857535481 110.2444007275626,231.32313173846342 107.96786723192781,228.83080672309734 105.00837368983775,226.06155352527276 102.9594935439527,225.23077691416256 99.77234665118158,225.78462802176364 96.35754640772939,225.78462802176364 94.5363196125254,226.61540443263948 93.39805286563933,229.66158202895895 91.80447941832244,232.4308308751788 91.57682606950402,235.47700073826127 90.89386602025479,239.07701444602571 90.2109059728682,242.95394595898688 89.7555992724374,245.4462556091603 89.0726392250508,248.49240816570818 89.0726392250508,251.81547906342894 88.16202582698315,255.1385451410897 87.70671912748367,257.6308415350504 87.93437247723341,260.67697789077647 89.0726392250508,263.1692682597786 92.03213276807219,265.6615559179336 95.67458635941148,266.49231786769815 99.77234665118158,266.76923845126294 103.41480024252087,266.21539725130424 105.91898708697408,264.2769519982394 108.65082728024572,262.0615839860402 109.78909402806312,257.90776318963617 110.2444007275626,255.1385451410897 110.69970742613077,252.09240142116323 110.92736077588052,249.3231763425283 111.38266747444868,245.4462556091603 111.61032082512975,243.23086938657798 111.83797417394817,240.18470983416773 112.06562752369791,237.41547036124393 112.29328087251633,234.36930307536386 111.61032082512975,231.6000565723516 110.47205407731235,229.1077318591997 108.19552058167756,226.61540443263948 105.69133373815566,225.23077691416256 102.9594935439527,224.4000000001397 100.68296004924923,224.95385130867362 96.81285310722888,225.50770248449408 94.08101291395724,227.16925520659424 92.71509281732142,230.76928196917288 91.12151937000453,235.20007637282833 90.2109059728682,237.9693185237702 89.98325262311846,240.18470983416773 89.7555992724374,243.23086938657798 89.98325262311846,246.27702489006333 90.2109059728682,249.6000990010798 89.98325262311846,252.64624603441916 89.7555992724374,255.96931090718135 90.2109059728682,259.2923709584866 91.57682606950402,262.3385051051155 94.08101291395724,264.00003111432306 96.81285310722888,266.76923845126294 100.68296004924923,266.76923845126294 102.9594935439527,266.49231786769815 106.37429378647357,264.83079366665334 108.4231739314273,262.8923472412862 109.5614406792447,259.56929241190664 110.01674737781286,256.800076372223 110.92736077588052,253.75393486046232 110.92736077588052,250.4308667758014 111.61032082512975,247.6616396890022 111.61032082512975,244.61548602650873 111.38266747444868,241.56932831485756 112.52093422133476,237.9693185237702 111.61032082512975,235.20007637282833 110.69970742613077,231.8769813736435 110.01674737781286,229.3846569606103 107.51256053335965,227.72310584550723 104.32541364058852,226.06155352527276 101.36592009756714,226.61540443263948 97.26815980672836,226.89232983626425 94.30866626370698,228.83080672309734 92.94274616613984,230.76928196917288 90.89386602025479,234.09237857535481 90.43855932168663,236.30777363479137 89.5279459245503,239.90778603730723 89.7555992724374,242.95394595898688 88.61733252555132,246.00010183011182 88.61733252555132,249.3231763425283 87.93437247723341,252.64624603441916 87.47906577866524,255.96931090718135 88.16202582698315,259.2923709584866 89.30029257386923,262.3385051051155 92.71509281732142,264.2769519982394 96.35754640772939,265.9384766018484 98.8617332521826,265.38463520118967 102.27653349470347,264.5538728488609 104.78072033915669,261.7846628341358 107.96786723192781,259.84621383203194 109.5614406792447,257.35391984693706 110.2444007275626,255.1385451410897 110.47205407731235,251.81547906342894 110.92736077588052,248.49240816570818 111.15501412469894,246.00010183011182 111.61032082512975,242.12317547295243 111.15501412469894,239.35393834323622 111.38266747444868,235.20007637282833 111.61032082512975,231.8769813736435 110.92736077588052,229.9385070647113 109.10613397974521,228.55388155416586 105.91898708697408,226.61540443263948 102.73184019327164,226.06155352527276 99.54469330050051,226.89232983626425 95.67458635941148,228.83080672309734 94.30866626370698,231.32313173846342 93.8533595642075,234.64622754161246" stroke="#4DD2FF" stroke-dasharray="none" stroke-linecap="round" stroke-linejoin="round" stroke-width="0.5"><title>2013-09-29 10.5km</title><desc>9223370656443428807</desc></polyline><polyline fill="none" opacity="1" points="160.83025240991265,229.3215606319718 159.70639423839748,232.3291757463012 158.80730770155787,235.88362481584772 158.35776443220675,239.43806830001995 157.90822116378695,242.7190880975686 157.23390626069158,245.72668539732695 156.55959135759622,248.46086128987372 155.88527645450085,251.7418679993134 155.88527645450085,255.29628656315617 155.88527645450085,258.57728335657157 157.23390626069158,261.8582753909286 159.93116587307304,263.22535400046036 163.30274038854986,265.13926266669296 166.44954326935112,265.13926266669296 168.92203124705702,264.0456007702742 171.84406249318272,263.22535400046036 173.8670072024688,261.0380278278608 175.21563700865954,258.3038671386894 176.11472354643047,255.29628656315617 176.11472354643047,251.7418679993134 176.11472354643047,248.73427869705483 176.7890384485945,246.00010313582607 176.7890384485945,242.17225179541856 177.912896621041,238.8912312053144 177.23858171794564,237.25071912514977 176.3394951801747,234.51652968092822 175.21563700865954,230.68865890661255 173.417463934049,227.95446153078228 170.94497595634311,225.49368106527254 169.59634615015239,225.76710125035606 165.5504567315802,224.94684059894644 162.85319711919874,226.5873616025783 160.38070914149284,228.22788141667843 159.25685096997768,232.055756355403 157.90822116378695,233.6962722032331 157.23390626069158,238.6178126083687 156.55959135759622,240.80516046099365 156.33481972292066,244.9064319843892 156.33481972292066,247.09377375710756 156.11004808917642,249.28111341316253 156.11004808917642,253.38236956926994 154.7614182829857,255.56970314332284 155.2109615514055,261.0380278278608 156.11004808917642,263.4987696236931 161.504567313008,265.4126780577935 163.75228365696967,265.95950874197297 167.1238581724465,265.95950874197297 171.16974759008735,264.86584724183194 174.09177883714437,262.1316911787726 176.11472354643047,258.0304508882109 176.7890384485945,253.65578638156876 175.21563700865954,250.92161676776595 173.64223556779325,249.55453072185628 175.4404086433351,245.17984982184134 177.01381008327007,239.98490526387468 177.4633533526212,238.07097531366162 176.7890384485945,235.06336783478037 177.912896621041,231.235497985268 175.21563700865954,228.50130126997828 172.51837739627808,225.49368106527254 170.72020432166755,224.94684059894644 165.32568509690464,225.49368106527254 163.75228365696967,225.76710125035606 160.83025240991265,228.22788141667843 158.35776443220675,230.41523931804113 157.68344952911139,232.87601442844607 157.23390626069158,236.43046263838187 156.11004808917642,241.07857879367657 156.55959135759622,244.35959621169604 156.78436299134046,246.54693851224147 156.11004808917642,250.92161676776595 156.55959135759622,254.20261990698054 155.2109615514055,258.3038671386894 155.88527645450085,261.5848595700227 156.11004808917642,263.4987696236931 159.93116587307304,264.86584724183194 163.5275120222941,267.3265848727897 165.77522836532444,266.77975451922975 168.69725961238146,265.95950874197297 171.61929085943848,264.86584724183194 174.54132210556418,261.5848595700227 174.76609374023974,259.3975318111479 175.4404086433351,256.66336913825944 176.3394951801747,253.92920316033997 177.4633533526212,250.92161676776595 176.56426681485027,247.3671913293656 175.4404086433351,243.53934230282903 175.66518027707934,240.5317420954816 176.11472354643047,237.25071912514977 177.23858171794564,236.43046263838187 178.13766825478524,232.87601442844607 176.7890384485945,230.14181969570927 177.912896621041,230.41523931804113 177.4633533526212,227.68104161159135 174.31655047088861,226.31394151831046 170.94497595634311,225.22026084875688 167.79817307554185,224.6734203158412 163.75228365696967,225.76710125035606 160.60548077523708,228.22788141667843 157.90822116378695,230.14181969570927 157.68344952911139,233.42285297834314 155.43573318608105,237.25071912514977 154.08710337989032,241.62541536078788 155.6605048198253,241.62541536078788 156.33481972292066,243.2659242679365 155.88527645450085,246.8203561506234 155.2109615514055,250.92161676776595 152.96324520744383,253.10895272321068 154.98618991766125,256.11653620772995 155.2109615514055,258.57728335657157 156.78436299134046,262.9519383441657 158.80730770155787,265.4126780577935 161.504567313008,266.23292403365485 165.32568509690464,266.23292403365485 168.92203124705702,267.60000000009313 172.51837739627808,266.23292403365485 173.64223556779325,264.0456007702742 173.8670072024688,260.49119595531374 175.21563700865954,259.3975318111479 175.4404086433351,255.29628656315617 177.4633533526212,248.73427869705483 177.4633533526212,244.08617827459238 175.4404086433351,241.35199709353037 176.11472354643047,238.07097531366162 176.56426681485027,235.61020585522056 177.01381008327007,232.055756355403 176.7890384485945,230.14181969570927 175.21563700865954,227.1342016728595 171.61929085943848,225.76710125035606 168.24771634396166,224.4000000001397 165.5504567315802,225.76710125035606 163.0779687538743,226.8607816544827 159.93116587307304,229.04814087809063 157.00913462601602,232.055756355403 155.2109615514055,235.61020585522056 156.33481972292066,239.16464976919815 156.55959135759622,243.53934230282903 156.55959135759622,246.8203561506234 155.88527645450085,250.64819962508045 154.31187501456589,253.10895272321068 155.88527645450085,256.66336913825944 155.2109615514055,259.3975318111479 156.33481972292066,262.4051069342531 157.23390626069158,264.86584724183194 161.27979567926377,264.31901629362255 163.75228365696967,265.95950874197297 167.1238581724465,265.13926266669296 170.27066105324775,264.592431783909 172.06883412785828,263.4987696236931 174.54132210556418,259.6709478965495 176.7890384485945,257.4836182866711 176.7890384485945,254.20261990698054 176.7890384485945,252.83553584385663 176.11472354643047,251.195033878088 177.23858171794564,247.91402637632564 177.4633533526212,243.53934230282903 179.03675479255617,240.25832369620912 177.68812498636544,239.98490526387468 177.4633533526212,236.43046263838187 178.8119831578806,233.6962722032331" stroke="#4DD2FF" stroke-dasharray="none" stroke-linecap="round" stroke-linejoin="round" stroke-width="0.5"><title>2013-09-22 10.9km</title><desc>9223370657048162807</desc></polyline></svg>