<?xml version="1.0" encoding="utf-8" ?>
<svg baseProfile="full" height="300mm" version="1.1" viewBox="0,0,200,300" width="200mm" xmlns="http://www.w3.org/2000/svg" xmlns:ev="http://www.w3.org/2001/xml-events" xmlns:xlink="http://www.w3.org/1999/xlink"><defs /><rect fill="#222222" height="300" width="200" x="0" y="0" /><text fill="#FFFFFF" style="font-size:12px; font-family:Arial; font-weight:bold;" x="10" y="20">Over 10km Runs</text><text fill="#FFFFFF" style="font-size:4px; font-family:Arial" x="10" y="280">Runner</text><text fill="#FFFFFF" style="font-size:9px; font-family:Arial" x="10" y="290">keep</text><text fill="#FFFFFF" style="font-size:4px; font-family:Arial" x="65" y="280">SPECIAL TRACKS</text><rect fill="yellow" height="2.6" width="2.6" x="65" y="283" /><text fill="#FFFFFF" style="font-size:3px; font-family:Arial" x="70" y="285.5">Over 20.0 km</text><rect fill="red" height="2.6" width="2.6" x="65" y="287" /><text fill="#FFFFFF" style="font-size:3px; font-family:Arial" x="70" y="289.5">Over 40.0 km</text><text fill="#FFFFFF" style="font-size:4px; font-family:Arial" x="120" y="280">STATISTICS</text><text fill="#FFFFFF" style="font-size:3px; font-family:Arial" x="120" y="285">Number: 15</text><text fill="#FFFFFF" style="font-size:3px; font-family:Arial" x="120" y="290">Weekly: 1.2</text><text fill="#FFFFFF" style="font-size:3px; font-family:Arial" x="141" y="285">Total: 163.6 km</text><text fill="#FFFFFF" style="font-size:3px; font-family:Arial" x="141" y="290">Avg: 10.9 km</text><text fill="#FFFFFF" style="font-size:3px; font-family:Arial" x="167" y="285">Min: 10.2 km</text><text fill="#FFFFFF" style="font-size:3px; font-family:Arial" x="167" y="290">Max: 14.0 km</text><polyline fill="none" opacity="1" points="26.401835569238756,75.59999999999854 26.46368109364994,75.22193029709888 26.48135124350665,74.93281701445812 26.46368109364994,74.61034332407871 26.454846018750686,74.29898823248368 26.46368109364994,74.00987174906913 26.48135124350665,73.6317948347205 26.490186318405904,73.35379600970919 26.543196767917834,73.07579625756625 26.728733341267798,72.93123602008563 27.011455738625955,72.90899596130475 27.117476637708023,72.82003566683852 27.14398186240578,72.64211479310325 27.170487087161746,72.41971316690615 27.188157237076666,72.13059016578336 27.126311712607276,71.78586527696461 26.852424390090164,71.64130280258541 26.711063191411085,71.396658043981 26.78174379077973,70.9852084218146 26.817084090434946,70.69608044529014 26.87892961484613,70.34022925138561 26.914269914559554,70.01773779472569 26.967280364013277,69.69524509043549 26.984950513928197,69.41723313707189 27.037960963440128,69.26154603818577 27.117476637708023,69.10585864850873 27.10864156280877,68.92792984710832 27.09980648785131,68.86120644864423 27.161652012262493,68.64991533454304 27.223497536731884,68.40526179650624 27.294178136100527,68.11612487116508 27.373693810368422,67.8158662333226 27.462044559593778,67.46000274344988 27.532725158904213,67.19310412897903 27.656416207784787,66.92620465993969 27.83311770617729,66.94844631498563 28.0274893543683,67.03741287587036 28.266036377230193,66.92620465993969 28.51341847499134,66.74827120573173 28.601769224158488,66.48137031229271 28.76080057269428,66.18110578555934 28.910996846330818,65.8697192079635 29.07886326982407,65.58057348710281 29.23789461835986,65.30254780961695 29.39692596695386,65.02452120471571 29.55595731548965,64.70200918115734 29.71498866402544,64.40173824428348 29.927030462073162,64.01249653092236 30.147907335078344,63.63437426874589 30.368784208025318,63.22288632841082 30.54548570641782,62.93373142519704 30.739857354725245,62.61121131123218 30.925393927958794,62.32205428592715 31.057920051796827,62.121868065340095 31.23462155018933,61.84383085018635 31.4378282733378,61.521306518567144 31.570354397175834,61.19878093884472 31.6940454459982,60.920740644178295 31.86191186949145,60.59821274034766 32.10045889229514,60.33129215185181 32.356676064955536,60.153344617938274 32.559882788104005,59.87530083551246 32.710079061740544,59.61949973643641 32.824935035721865,59.519403440463066 32.930955934745725,59.29696679676272 33.036976833769586,59.05228580298717 33.09882235818077,58.874335538108426 33.30202908132924,58.78536026318034 33.46989550482249,58.774238347119535 33.57591640384635,58.707506819708215 33.69960745272692,58.56292166026833 33.858638801262714,58.38497035046021 34.05301044951193,58.14028667904495 34.2562171726604,57.88448025444086 34.326897771970835,57.695405435915745 34.28272239735816,57.38398715265066 34.30039254721487,57.07256770562526 34.45058882085141,56.85012453096715 34.644960469100624,56.62768076254724 34.82166196749313,56.394114166694635 34.9453530163737,56.03820190465194 35.09554929001024,55.77126671059523 35.36943661252735,55.482085952098714 35.61681871023029,55.23739375729201 35.740509759110864,55.003823264691164 35.8730358829489,54.681272460584296 36.014397081627976,54.358720407915825 36.25294410448987,54.136269989008724 36.55333665176295,54.1029023749652 36.72120307519799,53.85820613033866 36.82722397422185,53.54677350700513 36.897904573590495,53.25758502888493 36.95975009800168,52.95727285469184 37.03043069737032,52.59022317203926 37.12761652149493,52.245417451857065 37.18946204590611,52.034084208477 37.22480234561954,51.83387327292439 37.28664787003072,51.51131019832974 37.35732846939936,51.16650001356902 37.44567921856651,50.78831946061837 37.55170011759037,50.38789112197264 37.60471056716051,50.02083012104413 37.684226241428405,49.67601376841776 37.77257699059555,49.35344234025251 37.86092773982091,48.964130332824425 37.91393818933284,48.60818633422605 37.98461878870148,48.22999416960374 38.07296953786863,47.862923662309186 38.14365013723727,47.506974959345825 38.214330736605916,47.20664205838693 38.29384641087381,46.8395670425889 38.33802178548649,46.539231735878275 38.42637253465364,46.261142523624585 38.4528777594096,46.138782976180664 38.49705313402228,45.87181606709055 38.567733733390924,45.5158588576669 38.63841433270136,45.137652656303544 38.726765081926715,44.79281609408645 38.7886106063379,44.44797810451564 38.79744568123715,44.38123510297737 38.832785980950575,44.136510306554555 38.894631505419966,43.80279351655918 38.97414717968786,43.424579538630496 39.044827779056504,43.07973588583991 39.10667330340948,42.80163512614672 39.16851882787887,42.61252607928327 39.21269420249155,42.456788894865895 39.24803450220497,42.334423760010395 39.301044951716904,42.20093431699934 39.24803450220497,42.02294806026475 39.26570465200348,41.74484377287445 39.301044951716904,41.47786278354761 39.3805606259848,41.233129458392796 39.42473600053927,41.066265415385715 39.64561287354445,41.08851397375838 39.94600542081753,41.19975667651306 40.237562893133145,41.299874982010806 40.47610991599504,41.36662045216508 40.555625590262935,41.14413534373307 40.5821308150189,40.93277394035249 40.56446066516219,40.64354167728743 40.57329574006144,40.27643774346507 40.59980096487561,39.86483443938778 40.661646489345,39.54222502268385 40.61747111467412,39.28636149347585 40.46727484109579,39.16399170173827 40.1668822937645,39.21961435659614 39.84881959669292,39.28636149347585 39.725128547812346,39.19736529911461 39.769303922425024,38.863628723469446 39.83998452173546,38.54101542942226 39.90183004620485,38.229525546230434 39.981345720472746,37.8624109743032 40.0696964696981,37.495294784530415 40.11387184425257,37.18380099107162 40.1668822937645,36.87230603284115 40.20222259347793,36.58305967153865 40.237562893133145,36.34943687722989 40.184552443621214,36.21593784348079 40.29057334270328,36.115813427750254 40.4849449909525,36.004563935814076 40.57329574006144,35.859939374138776 40.42309946648311,35.74868954044359 40.405429316626396,35.59293952367443 40.42309946648311,35.42606418256037 40.555625590262935,35.41493914791499 40.73232708865544,35.44831424734002 40.90902858704794,35.42606418256037 41.032719635928515,35.459439277488855 41.20058605936356,35.403814111799875 41.394957707612775,35.37043899454147 41.43029800726799,35.13681279931188 41.47447338188067,34.691808709954785 41.51864875649335,34.291302996876766 41.553989056148566,34.002047673136985 41.553989056148566,33.74616712634452 41.57165920594707,33.568162804149324 41.598164430761244,33.367907486943295 41.47447338188067,33.25665432490496 41.2712666587322,33.23440367466537 41.076895010482986,33.20102768817014 40.89135843719123,33.10089964841609 40.64397633943008,33.06752360842802 40.352418867114466,33.000771488303144 40.00785094522871,32.94514468069974 39.73396362276981,32.86726708760398 39.3805606259848,32.800514806993306 39.044827779056504,32.71151168298093 38.832785980950575,32.5668814035962 38.65608448255807,32.58913223219133 38.355691935284995,32.5668814035962 38.02879416325595,32.555755987115845 37.74607176583959,32.53350514966587 37.41033891891129,32.51125430622051 37.109946371638216,32.45562717170833 36.80071874946589,32.44450174033409 36.50916127715027,32.42225087314 36.50032620219281,32.433376307461 36.43848067772342,32.62250846387178 36.367800078412984,32.82276557314617 36.323624703800306,33.03414755504491 36.29711947904434,33.26777964780922 36.270614254288375,33.468035205725755 36.217603804776445,33.67941555010475 36.12925305555109,33.846294390452385 36.023232156585436,34.02429811831098 35.961386632116046,34.213426662383426 35.908376182604115,34.3691792585596 35.82002543343697,34.569432168595085 35.740509759110864,34.73630922587472 35.652159009943716,34.936561253271066 35.56380826071836,35.12568772606028 35.4577873616945,35.214688270527404 35.378271687426604,35.515064406085 35.272250788402744,35.81543945848534 35.13972466462292,36.10468848522578 34.98952839098638,36.4495610121885 34.83049704239238,36.77218240603543 34.6891358437133,37.083677738686674 34.556609719933476,37.36179758705839 34.41524852119619,37.66216598042956 34.26505224761786,37.973657985116006 34.10602089902386,38.27402417228586 33.98232985014329,38.55214004655136 33.89397910091793,38.741258310721605 33.83213357650675,38.84137957086932 33.76145297719631,38.91925157891092 33.67310222797096,39.086119922445505 33.655432078114245,39.364233085543674 33.505235804535914,39.65346979026799 33.36387460574042,39.89820775601402 33.27552385657327,40.12069619187969 33.27552385657327,40.24306457834609 33.47873057972174,40.309810895203555 33.79679327679332,40.309810895203555 34.132526123779826,40.35430841006746 34.44175374589395,40.39880590116081 34.78632166783791,40.44330336848361 35.13088958966546,40.48780081202858 35.431282136938535,40.543422583032225 35.73167468421161,40.57679562784324 35.908376182604115,40.554546932798985 35.98789185687201,40.34318403356883 36.04090230638394,40.13182059809333 36.023232156585436,39.987203201708326 36.12925305555109,40.00945204823802 36.226438879733905,40.154069406038616 36.217603804776445,40.45442773159448 36.13808813050855,40.83265519370616 36.06740753113991,41.19975667651306 35.99672693182947,41.5557323271496 35.93488140736008,41.92283062374918 35.84653065819293,42.30105141930835 35.78468513372354,42.62365015276737 35.73167468421161,42.90175150658615 35.652159009943716,43.20209992602031 35.696334384556394,43.53581912214577 35.537303035962395,43.82504134414921 35.40477691218257,44.10313868769299 35.325261237914674,44.38123510297737 35.25458063854603,44.69270198606682 35.24574556364678,44.948548911830585 35.34293138777139,45.15990012743714 35.40477691218257,45.426869317670935 35.31642616301542,45.7828269072852 35.24574556364678,46.183277377866034 35.15739481442142,46.572602379012096 35.09554929001024,46.950802066632605 35.05137391539756,47.31787659237307 35.04253884049831,47.651579303332255 35.03370376554085,47.98528067776351 35.04253884049831,48.33010402730724 35.016033615742344,48.69717247644439 35.007198540784884,49.03086966325645 34.98069331602892,49.38681185623136 34.963023166230414,49.698260027740616 34.910012716718484,50.031953205419995 34.857002267148346,50.38789112197264 34.7686515179812,50.73270452865836 34.803991817636415,51.04414766954869 34.77748659293866,51.40008126237808 34.71564106846927,51.74489048052783 34.56544479483273,52.100821080064634 34.388743296440225,52.345522485316906 34.132526123779826,52.57910042912408 33.867473876220174,52.7904322902541 33.64659700321499,53.00176361545164 33.39037983055459,53.22421706296882 33.26668878167402,53.41330202642712 33.16066788265016,53.55789612075023 33.02814175887033,53.72473514856392 32.91328578488901,53.924941541023145 32.824935035721865,54.23637275103101 32.665903687127866,54.570047755863925 32.48920218873536,54.89259899051103 32.31250069034286,55.20402658415696 32.197644716419745,55.437596515592304 32.188809641462285,55.715655104206235 32.31250069034286,55.86024520364299 32.356676064955536,56.116057841871225 32.23298501607496,56.394114166694635 32.26832531578839,56.53870308894693 32.21531486621825,56.44972532031534 32.07395366753917,56.59431414609571 31.86191186949145,56.90573538032913 31.667540221242234,57.172666940503404 31.4378282733378,57.40623135433998 31.261126774945296,57.6842833744231 31.190446175576653,57.94009041354002 31.040249901998322,58.21814065241779 30.925393927958794,58.35160443755012 30.686846905155107,58.32936048822012 30.44829988235142,58.32936048822012 30.156742409977596,58.26262860454881 29.847514787805267,58.26262860454881 29.55595731548965,58.27375058886537 29.39692596695386,58.29599455308198 29.282069992972538,58.29599455308198 29.220224468561355,58.46282409525156 29.07886326982407,58.68526296533673 29.008182670455426,58.929945036710706 28.964007295842748,59.196870113424666 28.81381102220621,59.4526725097021 28.787305797450244,59.57501250861969 28.681284898426384,59.6862305336399 28.442737875622697,59.908666138398985 28.23953115241602,60.11997941303707 28.221861002617516,60.32017044209351 28.30137667688541,60.46475255293626 28.372057276254054,60.58709106621245 28.407397575909272,60.820645911066094 28.45157295052195,61.065321713154844 28.442737875622697,61.065321713154844 28.266036377230193,60.99859202019434" stroke="#4DD2FF" stroke-dasharray="none" stroke-linecap="round" stroke-linejoin="round" stroke-width="0.5"><title>2017-12-17 14.0km</title><desc>9223370523376934807</desc></polyline><polyline fill="none" opacity="1" points="100.4635946592316,32.40000000000873 100.5759812433389,32.55910928879166 100.63217453536345,33.33697417433723 100.59002956637414,33.619833001241204 100.77265776548302,33.938048460229766 100.82885105744936,34.23858458136965 100.88504434953211,34.55679855530616 100.89909267250914,34.98108266601048 100.92718931857962,35.35233014912228 100.98338261060417,35.65286306467897 101.03957590262871,35.98875198760652 101.13791416375898,36.289283460602746 101.1519624866778,36.60749251312518 101.2222041017958,36.96105723135406 101.33459068584489,37.22623015123827 101.51721888489556,37.2792646716407 101.62960546894465,37.456046252948 101.57341217697831,37.597471348315594 101.36268733179895,37.70354007082642 101.36268733179895,37.95103342679795 101.47507391590625,38.21620436696685 101.61555714602582,38.56976479564037 101.72794373007491,38.88796837536211 101.79818534507649,39.188493277324596 101.9527168982313,39.50669537229987 102.12129677430494,39.807218871981604 102.27582832734333,40.09006389652495 102.23368335841224,40.39058607403422 101.92462025216082,40.40826382799423 101.65770211501513,40.213808405038435 101.46102559287101,40.07238610013155 101.25030074780807,40.01935269693786 101.02552757965168,40.09006389652495 100.74456111941254,40.10774169054639 100.6181262123282,40.26684173048125 100.63217453536345,40.53200803956133 100.5759812433389,40.77949611628719 100.28096646018093,40.88556229349342 100.0,41.0093060596264 99.70498521678383,41.02698373112071 99.4661637256504,41.0093060596264 99.50830869463971,40.726462995880865 99.59259863273473,40.40826382799423 99.69093689380679,40.10774169054639 99.77522683190182,39.736507521549356 99.8454684469034,39.34759442025097 99.83142012386816,38.9763581231382 99.77522683190182,38.62279877862602 99.7330818627961,38.286916528100846 99.42401875660289,38.21620436696685 99.14305229648016,38.18084827225539 99.01661738939583,38.00406765722437 99.00256906636059,37.827286806568736 98.98852074332535,37.57979321961466 98.93232745135901,37.40301180331153 98.74969925219193,37.367655491732876 98.55302273004781,37.33229917078279 98.38444285397418,37.367655491732876 98.38444285397418,37.597471348315594 98.39849117700942,37.88032108651532 98.42658782302169,38.25156045226322 98.42658782302169,38.55208679656789 98.45468446909217,38.88796837536211 98.468732792011,39.24152701284038 98.45468446909217,39.5774068452738 98.45468446909217,39.89560800694744 98.468732792011,40.23148618257255 98.45468446909217,40.514330302146845 98.468732792011,40.867884603198036 98.48278111504624,41.115372053027386 98.49682943802327,41.36285904094984 98.48278111504624,41.574990377237555 98.468732792011,41.85783163114684 98.44063614599872,42.122994758727145 98.41253949998645,42.299769882520195 98.38444285397418,42.54725465993397 98.37039453099715,42.7947389754554 98.3563462079619,43.0422228291427 98.3563462079619,43.25435147891403 98.3563462079619,43.57254381729581 98.37039453099715,43.89073539225501 98.3563462079619,44.26195793133229 98.3563462079619,44.59782504745817 98.3563462079619,44.89833700923191 98.37039453099715,45.18117117469956 98.38444285397418,45.552390101365745 98.38444285397418,45.92360798885056 98.38444285397418,46.153409017511876 98.37039453099715,46.47159439980169 98.37039453099715,46.66604064646526 98.32824956194963,46.9488710417354 98.3563462079619,47.19634714277345 98.38444285397418,47.46149959569448 98.42658782302169,47.77968183939811 98.48278111504624,48.080186590828816 98.51087776105851,48.451397402444854 98.5811193761765,48.8402838048205 98.67945763719035,49.22916906695173 98.79184422123944,49.52967053382599 98.90423080534674,49.81249482187559 99.01661738939583,50.1483478804148 99.12900397344492,50.44884726458986 99.22734223445877,50.625611290102825 99.29758384951856,50.837727809732314 99.40997043362586,51.049843990113004 99.52235701767495,51.27963613602333 99.56450198672246,51.52710415549518 99.59259863273473,51.68619049558765 99.76117850886658,51.82760041557776 99.85951676988043,51.96901018466451 99.98595167690655,52.163448370978585 100.11238658404909,52.34021011122968 100.22477316815639,52.57000002129644 100.36525639821775,52.76443732655025 100.54788459732663,52.95887434670294 100.74456111941254,53.2063392327982 100.94123764149845,53.489155680144904 101.10981751763029,53.73661957679724 101.23625242471462,53.948731120690354 101.29244571679737,54.090138628176646 101.47507391590625,54.390629080924555 101.65770211501513,54.62041543837404 101.82628199114697,54.885553048414295 101.9948618672206,55.18604169899481 102.149393420259,55.433502429455984 102.30392497341381,55.69863841403276 102.47250484948745,55.98144954669988 102.65513304865453,56.281935714388965 102.8377612477052,56.6000967969012 103.03443776984932,56.90058156302257 103.2170659690164,57.18339013266086 103.41374249110231,57.46619809936965 103.61041901324643,57.80203177653311 103.82114385836758,58.13786460334086 104.00377205747645,58.42067053481878 104.18640025664354,58.72115117624344 104.34093180968193,59.00395586401282 104.49546336277854,59.25140947113687 104.64999491587514,59.48118740723294 104.81857479200698,59.76399047435552 105.00120299105765,60.04679293856316 105.14168622117722,60.27656949669472 105.3243144202861,60.52402072955738 105.52099094237201,60.80682157316187 105.68957081850385,61.10729680888471 105.84410237160046,61.33707152985153 106.0126822477323,61.655220486354665 106.19531044684118,61.99104355696181 106.39198696892709,62.32686577734421 106.57461516803596,62.62733756961825 106.75724336714484,62.927808681168244 106.99606485827826,63.26362852980674 107.1646447344101,63.54642353235977 107.30512796452967,63.7938686649868 107.48775616358034,64.05898793772212 107.67038436274743,64.37713036549394 107.8530125618563,64.730621056995 108.03564076096518,65.06643634129432 108.1620756679913,65.3138786383497 108.33065554412315,65.66736683342606 108.45709045120748,65.98550540355791 108.56947703525657,66.35666610437329 108.62567032733932,66.5864317320229 108.62567032733932,66.76317425168236 108.48518709721975,66.95759075132082 108.49923542019678,66.92224231803266 108.62567032733932,66.86921965047077 108.76615355740068,67.01061338357977 108.8504434954375,67.24037787849375 108.94878175650956,67.52316440278082 109.06116834061686,67.84129852200567 109.18760324764298,68.19477998185903 109.31403815472731,68.54826049973781 109.44047306181164,68.91941402974771 109.4966663538944,69.09615344097256 109.62310126097873,69.43195767351426 109.74953616800485,69.75008721486665 109.86192275211215,69.99752077518497 109.960261013126,70.29797519215208 110.04455095116282,70.56308146557421 110.10074424324557,70.81051350937923 110.19908250425942,71.11096608501975 110.31146908836672,71.41141798008175 110.42385567241581,71.74721635170863 110.50814561045263,72.01231972884852 110.62053219455993,72.3481165793055 110.71887045557378,72.61321875559224 110.83125703973928,72.91366724824184 110.95769194676541,73.19644167859224 111.05603020783747,73.49688885032083 111.19651343784062,73.83268194287666 111.29485169897089,74.09778115243535 111.42128660605522,74.39822628283582 111.50557654409204,74.61030478871544 111.60391480510589,74.8754024443333 111.73034971224843,75.05213392044243 111.77249468123773,75.17584581358824 111.75844635820249,75.40559616626706 111.70225306623615,75.60000000000582 111.50557654409204,75.49396158051968 111.30890002200613,75.22886516101426 111.11222349986201,74.9460950630164 110.88745033170562,74.66332436220546 110.6064838715829,74.32753337219765 110.31146908836672,74.04476135292498 110.05859927419806,73.81500864343252 109.8057294600294,73.54990886883752 109.56690796889598,73.32015530231001 109.29998983175028,73.00203432244598 109.04712001758162,72.78995324543212 108.79425020341296,72.54252489366627 108.51328374323202,72.24207556043984 108.26041392912157,71.99464618682396 107.99349579185946,71.74721635170863 107.68443268572446,71.46443883216125 107.41751454857877,71.25235529686324 107.08035479637329,71.05794509168481 106.77129169018008,70.95190304152493 106.42008361493936,70.86353460162354 106.08292386273388,70.82818720916111 105.71766746451613,70.73981868685223 105.3664593892754,70.65145010562264 105.07144460611744,70.59842892865709 104.73428485391196,70.5100602532766 104.41117342474172,70.5100602532766 104.01782038045349,70.40401776510407 103.6385156592005,70.29797519215208 103.51208075211616,70.26262764904823 103.30135590705322,70.20960631662456 103.11872770788614,70.19193253449339 102.89395453972975,70.15658496307151 102.69727801764384,70.12123738223454 102.50060149549972,70.10356358825811 102.31797329639085,70.05054219231533 102.07915180525742,69.99752077518497 101.840330314124,69.96217315195827 101.67175043799216,69.89147787727416 101.47507391590625,69.83845639655192 101.18005913269008,69.71473952570523 100.81480273447232,69.57334867498139 100.44954633631278,69.43195767351426 100.12643490708433,69.32591432349 99.81737180089112,69.23754480040225 99.48021204868564,69.1491752183938 99.12900397344492,69.04313164229097 98.76374757522717,68.937087981496 98.37039453099715,68.84871819936961 97.99108980974415,68.68965244317951 97.71012334956322,68.6366304820549 97.3167703053332,68.5305864962429 97.00770719913999,68.37152035855979 96.72674073901726,68.28315019966976 96.45982260175515,68.19477998185903 96.15075949556194,68.08873564278474 95.81359974341467,67.94734305888414 95.46239166811574,67.752928009897 95.1392802389455,67.52316440278082 94.81616880977526,67.32874873207766 94.53520234959433,67.02828758959367 94.32447750453139,66.71015152051405 94.16994595143478,66.44503754669859 94.08565601333976,66.17992304304789 93.97326942923246,66.0031797462143 93.80468955315882,65.73806435939332 93.70635129208677,65.56132047384745 93.5658680619672,65.2785297670489 93.38323986285832,64.96038950126967 93.20061166380765,64.60689942212775 93.04608011071105,64.21805924699584 92.8353552655899,63.81154329968558 92.62463042041054,63.387351417622995 92.42795389826642,62.99850766733289 92.27342234522803,62.71571149661031 92.11889079213142,62.32686577734421 91.92221426998731,61.920344033816946 91.73958607087843,61.513821044325596 91.52886122581549,61.08962181388051 91.31813638063613,60.665421226774924 91.13550818146905,60.25889439097955 90.9247833363479,59.87004146909749 90.7281068143202,59.46351219547796 90.55952693818836,59.07465694168059 90.37689873902127,58.68580054787162 90.20831886294764,58.33229374598886 90.05378730985103,57.9787860018987 89.87115911074216,57.66062822661479 89.7728208496701,57.36014518253796 89.660434265621,57.024310386463185 89.53399935853668,56.65312356982031 89.44970942049986,56.246584435823024 89.36541948240483,55.840044055716135 89.32327451341553,55.53955688686983 89.26708122133277,55.09766275479342 89.21088792930823,54.67344300283003 89.18279128329596,54.3022496066842 89.14064631424844,53.86035135196289 89.0844530222239,53.542183696859865 89.0844530222239,53.2063392327982 89.07040469924686,52.79978953322279 89.04230805323459,52.46394318918465 89.07040469924686,52.09274360895506 89.0844530222239,51.63316173678322 89.07040469924686,51.27963613602333 89.04230805323459,50.908433240882005 88.94396979216253,50.55490570816619 88.87372817710275,50.09531850673375 88.88777650013799,49.74178880639374 88.85967985406751,49.33522848592838 88.8175348850782,48.99937336808944 88.77538991603069,48.68119405080506 88.71919662406435,48.29230718182225 88.78943823906593,47.885742417682195 88.85967985406751,47.46149959569448 88.85967985406751,47.12563973249053 88.85967985406751,46.8958403885772 88.90182482317323,46.71907139151881 88.87372817710275,46.47159439980169 88.8175348850782,46.153409017511876 88.80348656204296,45.83522287179949 88.76134159305366,45.4816818144609 88.73324494704138,45.11046268987411 88.71919662406435,44.80995120879379 88.63490668596933,44.403375768088154 88.60681003995705,43.99679908090911 88.57871339388657,43.57254381729581 88.55061674793251,43.218996727475314 88.508471778885,42.883126119108056 88.46632680983748,42.476544770703185 88.43823016388342,42.317447381909005 88.45227848686045,41.946219399236725 88.46632680983748,41.574990377237555 88.43823016388342,41.2214379615325 88.41013351775473,40.938595350293326 88.36798854882363,40.567363507376285 88.31179525679909,40.196130625205114 88.31179525679909,39.8248967036634 88.33989190281136,39.50669537229987 88.33989190281136,39.11778159697133 88.25560196471633,38.69351072295103 88.2415536416811,38.37530667653482 88.21345699572703,38.02174572937656 88.25560196471633,37.791930608145776 88.25560196471633,37.65050572021573" stroke="#4DD2FF" stroke-dasharray="none" stroke-linecap="round" stroke-linejoin="round" stroke-width="0.5"><title>2017-11-19 11.8km</title><desc>9223370525802103807</desc></polyline><polyline fill="none" opacity="0.5" points="172.1525003942661,74.00425401725806 170.42210965882987,74.11823595536407 169.74917992809787,74.23221788124647 167.9226563735865,74.6881454566028 165.6154687255621,73.66230812645517 163.98121080826968,72.29452342214063 162.53921852819622,72.63646976917516 160.9049606109038,72.06655912764836 159.46296833176166,71.83859478181694 158.30937450751662,72.06655912764836 157.15578068373725,71.72461259015836 156.0021868594922,71.26868369639851 154.5601945798844,71.382665939047 153.3104679370299,71.95257696113549 151.19554592622444,71.26868369639851 150.04195210291073,70.58478997577913 149.4651551907882,69.33098363585304 148.69609264144674,68.07717576262075 148.59995982283726,66.25345248274971 148.79222546005622,64.6576919509098 148.79222546005622,62.83396258740686 148.59995982283726,61.23819673305843 148.59995982283726,59.07251052884385 148.31156136654317,57.9326738466043 148.11929572932422,56.22291644709185 148.5038270042278,54.627140301512554 148.5038270042278,53.259330199682154 148.8883582786657,52.11948705383111 148.59995982283726,50.63768906937912 149.08062391588464,49.04190422943793 148.98449109774083,47.33213200129103 149.27288955356926,46.30626729526557 149.36902237217873,44.254534804145806 149.27288955356926,42.43076914176345 149.36902237217873,40.834971525822766 149.4651551907882,39.581128799007274 149.75355364661664,38.09931269020308 150.04195210291073,36.503508331254125 149.75355364661664,34.90770148765296 149.75355364661664,33.767837935476564 149.56128800939769,32.40000000002328 149.75355364661664,33.767837935476564 149.75355364661664,34.90770148765296 150.04195210291073,36.503508331254125 149.75355364661664,38.09931269020308 149.4651551907882,39.581128799007274 149.36902237217873,40.834971525822766 149.27288955356926,42.43076914176345 149.36902237217873,44.254534804145806 149.27288955356926,46.30626729526557 148.98449109774083,47.33213200129103 149.08062391588464,49.04190422943793 148.59995982283726,50.63768906937912 148.8883582786657,52.11948705383111 148.5038270042278,53.259330199682154 148.5038270042278,54.627140301512554 148.11929572932422,56.22291644709185 148.31156136654317,57.9326738466043 148.59995982283726,59.07251052884385 148.59995982283726,61.23819673305843 148.79222546005622,62.83396258740686 148.79222546005622,64.6576919509098 148.59995982283726,66.25345248274971 148.69609264144674,68.07717576262075 149.4651551907882,69.33098363585304 150.04195210291073,70.58478997577913 151.19554592622444,71.26868369639851 153.3104679370299,71.95257696113549 154.5601945798844,71.382665939047 156.0021868594922,71.26868369639851 157.15578068373725,71.72461259015836 158.30937450751662,72.06655912764836 159.46296833176166,71.83859478181694 160.9049606109038,72.06655912764836 162.53921852819622,72.63646976917516 163.98121080826968,72.29452342214063 165.6154687255621,73.66230812645517 167.9226563735865,74.6881454566028 169.74917992809787,74.23221788124647 170.42210965882987,74.11823595536407 172.1525003942661,74.00425401725806 173.69062549294904,74.11823595536407 175.32488341070712,74.34619979397394 177.34367260197178,75.25805464142468 178.4972664262168,74.9161091685528 179.84312588721514,75.14407283009496 181.2851181672886,75.14407283009496 182.5348448101431,75.59999999997672 183.88070427067578,75.59999999997672" stroke="#4DD2FF" stroke-dasharray="1,0.5" stroke-linecap="round" stroke-linejoin="round" stroke-width="0.5"><title>2014-03-22 10.5km</title><desc>9223370641410674807</desc></polyline><polyline fill="none" opacity="1" points="55.600000000034925,101.85053667804459 55.45671641791705,101.85053667804459 55.32366737740813,101.85053667804459 55.190618336899206,101.83808092671825 55.03710021323059,101.81316941952537 54.904051172721665,101.82562517390761 54.760767590662,101.83808092671825 54.60724946699338,101.82562517390761 54.4844349680352,101.83808092671825 54.37185501068598,101.83808092671825 54.21833688695915,101.85053667804459 54.10575692966813,101.83808092671825 53.97270788915921,101.80071366368065 53.83965884859208,101.7758021474001 53.706609808141366,101.80071366368065 53.57356076763244,101.82562517390761 53.47121535183396,101.82562517390761 53.30746268655639,101.78825790630071 53.18464818765642,101.7758021474001 53.072068230307195,101.7758021474001 52.94925373134902,101.76334638703702 52.7957356076804,101.7758021474001 52.64221748401178,101.7758021474001 52.51940298511181,101.80071366368065 52.376119402993936,101.76334638703702 52.26353944564471,101.76334638703702 52.120255863526836,101.76334638703702 51.997441364626866,101.75089062516054 51.84392324095825,101.72597909684555 51.710874200449325,101.70106756250607 51.53688699362101,101.72597909684555 51.38336886995239,101.72597909684555 51.240085287892725,101.75089062516054 51.076332622615155,101.73843486177066 50.95351812365698,101.73843486177066 50.84093816630775,101.72597909684555 50.70788912579883,101.75089062516054 50.58507462689886,101.73843486177066 50.45202558633173,101.72597909684555 50.30874200427206,101.73843486177066 50.19616204692284,101.73843486177066 50.05287846480496,101.73843486177066 49.91982942429604,101.7758021474001 49.79701492539607,101.76334638703702 49.67420042643789,101.7758021474001 49.530916844378226,101.76334638703702 49.38763326226035,101.76334638703702 49.26481876336038,101.76334638703702 49.12153518124251,101.76334638703702 49.00895522389328,101.76334638703702 48.8861407249351,101.76334638703702 48.76332622603513,101.76334638703702 48.609808102366515,101.73843486177066 48.47675906185759,101.70106756250607 48.34371002134867,101.72597909684555 48.200426439230796,101.7135233304507 48.046908315620385,101.70106756250607 47.913859275053255,101.7135233304507 47.78081023454433,101.7135233304507 47.64776119403541,101.75089062516054 47.51471215352649,101.73843486177066 47.37142857146682,101.72597909684555 47.22814498934895,101.7135233304507 47.095095948840026,101.7135233304507 46.962046908331104,101.68861179305532 46.79829424311174,101.70106756250607 46.685714285762515,101.67615602213482 46.53219616203569,101.68861179305532 46.37867803842528,101.68861179305532 46.24562899785815,101.7135233304507 46.09211087424774,101.67615602213482 45.93859275052091,101.63878870028566 45.7850746269105,101.63878870028566 45.641791044792626,101.61387714483135 45.508742004283704,101.60142136482318 45.36545842222404,101.61387714483135 45.26311300636735,101.61387714483135 45.11982942430768,101.63878870028566 44.997014925349504,101.67615602213482 44.87420042644953,101.70106756250607 44.720682302780915,101.70106756250607 44.58763326227199,101.70106756250607 44.45458422176307,101.67615602213482 44.33176972280489,101.67615602213482 44.21918976545567,101.70106756250607 44.055437100236304,101.68861179305532 43.932622601336334,101.67615602213482 43.799573560769204,101.70106756250607 43.66652452026028,101.67615602213482 43.53347547975136,101.6512444757609 43.37995735614095,101.6512444757609 43.25714285718277,101.63878870028566 43.13432835822459,101.62633292328974 42.97057569300523,101.588965583338 42.8375266524381,101.63878870028566 42.67377398721874,101.61387714483135 42.540724946709815,101.60142136482318 42.417910447809845,101.61387714483135 42.26439232408302,101.61387714483135 42.12110874202335,101.60142136482318 41.98805970151443,101.60142136482318 41.82430703623686,101.61387714483135 41.711727078887634,101.62633292328974 41.558208955219015,101.6512444757609 41.44562899786979,101.57650980034668 41.29211087420117,101.57650980034668 41.1692963753012,101.57650980034668 41.02601279318333,101.56405401582015 40.88272921112366,101.57650980034668 40.75991471216548,101.60142136482318 40.616631130105816,101.56405401582015 40.483582089538686,101.57650980034668 40.34029850747902,101.55159822981659 40.19701492541935,101.55159822981659 40.074200426461175,101.53914244229964 39.96162046911195,101.48931927711237 39.82857142860303,101.48931927711237 39.695522388094105,101.50177507065382 39.54200426436728,101.52668665325473 39.408955223916564,101.51423086268915 39.286140724958386,101.56405401582015 39.153091684449464,101.56405401582015 38.989339019171894,101.56405401582015 38.85628997872118,101.57650980034668 38.72324093821226,101.53914244229964 38.60042643931229,101.53914244229964 38.48784648190485,101.55159822981659 38.34456289978698,101.53914244229964 38.19104477611836,101.55159822981659 38.05799573560944,101.51423086268915 37.894243070390075,101.50177507065382 37.791897654591594,101.51423086268915 37.64861407247372,101.51423086268915 37.34157782519469,101.52668665325473 37.0447761194082,101.50177507065382 36.87078891263809,101.43949608776165 36.471641791111324,101.55159822981659 36.13390191900544,101.52668665325473 35.88827292114729,101.45195188736398 35.66311300639063,101.45195188736398 35.39701492537279,101.40212867999071 35.202558635384776,101.4145844840823 34.90575692965649,101.4145844840823 34.6294243070879,101.55159822981659 34.36332622607006,101.4768634820357 34.04605543712387,101.62633292328974 30.12622601282783,101.40212867999071 29.87036247336073,101.3149380089526 29.634968017111532,101.3647612585628 29.286993603454903,101.40212867999071 29.000426439277362,101.3149380089526 28.67292110878043,101.26511473514984 28.42729211092228,101.2277472640053 25.090831556532066,101.26511473514984 24.79402985080378,101.24020308925537 24.456289978697896,101.21529143725638 24.210660980839748,101.25265891296294 23.975266524532344,101.17792394801654 23.64776119403541,101.14055644519976 23.34072494675638,101.19037977925473 23.04392324096989,101.17792394801654 20.475053304922767,101.15301228095632 20.096375266555697,101.17792394801654 19.89168443501694,101.17792394801654 19.69722814502893,101.16546811525768 19.625586353999097,101.15301228095632 19.44136460556183,101.10318892877694 19.226439232414123,101.15301228095632 19.00127931771567,101.14055644519976 18.80682302772766,101.06582139884995 18.571428571420256,101.0533655524996 18.315565032011364,101.0533655524996 18.04946695099352,101.12810060792253 17.947121535195038,101.00354215204425 16.759914712165482,101.1156447691028 16.50405117275659,101.06582139884995 16.299360341159627,101.06582139884995 15.99232409382239,101.0533655524996 15.70575692964485,101.07827724366507 15.439658848627005,101.07827724366507 15.14285714289872,101.09073308697407 14.88699360343162,101.01599800440454 14.63113006396452,101.0533655524996 14.395735607715324,101.01599800440454 14.057995735667646,101.02845385528781 13.863539445679635,100.97863044278347 13.495095948863309,101.0409097046213 13.136886993655935,100.99108629819239 13.014072494755965,101.06582139884995 13.075479744176846,101.33984963675903 13.065245202626102,101.51423086268915 13.106183368887287,101.80071366368065 12.942430703667924,101.88790392303781 12.881023454188835,101.67615602213482 12.788912579999305,101.51423086268915 12.61492537317099,101.57650980034668 12.481876332662068,101.82562517390761 12.400000000023283,101.96263837223523 12.430703624791931,102.28648702477949 12.481876332662068,102.58542333777586 12.543283582141157,102.87190315598855" stroke="#4DD2FF" stroke-dasharray="none" stroke-linecap="round" stroke-linejoin="round" stroke-width="0.5"><title>2013-12-10 10.9km</title><desc>9223370650177580807</desc></polyline><polyline fill="none" opacity="0.5" points="101.96018379833549,80.4000000001397 94.11944860499352,86.01043504965492 89.96847114898264,91.05981499678455 91.35213030129671,99.75594359473325 88.58481199666858,105.92736992868595 88.35420214012265,111.25722491787747 88.58481199666858,117.98965582833625 93.42761902883649,121.35586395906284 99.88469506986439,123.60000000009313 105.88055139407516,120.79482960957102 110.03152885008603,114.0624068370089 110.49274856690317,107.89100213861093 109.80091899074614,101.15854193037376 110.72335842624307,94.98710291530006 111.18457814306021,88.5351263966877 107.95604012254626,83.7662626572419 102.6520133735612,82.08313193893991 96.65615704935044,83.7662626572419 92.73578945267946,86.57147780805826 90.89091058447957,91.62085653445683 90.42969086673111,98.63386431708932 89.73786129057407,104.52477447572164 87.89298242237419,112.94033447606489 112.10701757762581,90.49877332313918 108.87847955711186,86.8519991368521 104.95811196044087,83.20521922083572 97.34798662550747,82.64417564729229 91.12152044288814,89.09616854530759 89.73786129057407,95.5481435037218 89.5072514321655,103.40269750310108 89.27664157282561,108.17152088950388 88.58481199666858,114.34292484284379 90.66030072513968,119.39224314200692 96.88676690869033,122.75844923895784 103.11323309037834,123.03896619309671 108.4172598393634,117.98965582833625 110.26213870756328,110.97670653951354 110.49274856690317,104.52477447572164 110.49274856690317,97.79230450256728 111.64579785987735,91.62085653445683 109.80091899074614,85.72991361888126 105.88055139407516,82.92469745082781 99.88469506986439,82.08313193893991 94.81127818115056,84.32730595883913 91.12152044288814,88.5351263966877 89.96847114898264,95.5481435037218 89.73786129057407,102.56113941781223 89.27664157282561,109.01307694031857 109.80091899074614,93.02345978678204 110.49274856690317,89.37668956816196 106.80299082957208,83.7662626572419 101.96018379833549,80.4000000001397 94.11944860499352,86.01043504965492 89.96847114898264,91.05981499678455 91.35213030129671,99.75594359473325 88.58481199666858,105.92736992868595 88.35420214012265,111.25722491787747 88.58481199666858,117.98965582833625 93.42761902883649,121.35586395906284 99.88469506986439,123.60000000009313 105.88055139407516,120.79482960957102 110.03152885008603,114.0624068370089 110.49274856690317,107.89100213861093 109.80091899074614,101.15854193037376 110.72335842624307,94.98710291530006 111.18457814306021,88.5351263966877 107.95604012254626,83.7662626572419 102.6520133735612,82.08313193893991 96.65615704935044,83.7662626572419 92.73578945267946,86.57147780805826 90.89091058447957,91.62085653445683 90.42969086673111,98.63386431708932 89.73786129057407,104.52477447572164 87.89298242237419,112.94033447606489 112.10701757762581,90.49877332313918 108.87847955711186,86.8519991368521 104.95811196044087,83.20521922083572 97.34798662550747,82.64417564729229 91.12152044288814,89.09616854530759 89.73786129057407,95.5481435037218 89.5072514321655,103.40269750310108 89.27664157282561,108.17152088950388 88.58481199666858,114.34292484284379 90.66030072513968,119.39224314200692 96.88676690869033,122.75844923895784 103.11323309037834,123.03896619309671 108.4172598393634,117.98965582833625 110.26213870756328,110.97670653951354 110.49274856690317,104.52477447572164 110.49274856690317,97.79230450256728 111.64579785987735,91.62085653445683 109.80091899074614,85.72991361888126 105.88055139407516,82.92469745082781 99.88469506986439,82.08313193893991 94.81127818115056,84.32730595883913 91.12152044288814,88.5351263966877 89.96847114898264,95.5481435037218 89.73786129057407,102.56113941781223 89.27664157282561,109.01307694031857 109.80091899074614,93.02345978678204 110.49274856690317,89.37668956816196 106.80299082957208,83.7662626572419 101.96018379833549,80.4000000001397 94.11944860499352,86.01043504965492 89.96847114898264,91.05981499678455 91.35213030129671,99.75594359473325 88.58481199666858,105.92736992868595 88.35420214012265,111.25722491787747 88.58481199666858,117.98965582833625 93.42761902883649,121.35586395906284 99.88469506986439,123.60000000009313 105.88055139407516,120.79482960957102 110.03152885008603,114.0624068370089 110.49274856690317,107.89100213861093 109.80091899074614,101.15854193037376 110.72335842624307,94.98710291530006 111.18457814306021,88.5351263966877 107.95604012254626,83.7662626572419 102.6520133735612,82.08313193893991 96.65615704935044,83.7662626572419 92.73578945267946,86.57147780805826 90.89091058447957,91.62085653445683 90.42969086673111,98.63386431708932 89.73786129057407,104.52477447572164 87.89298242237419,112.94033447606489 112.10701757762581,90.49877332313918 108.87847955711186,86.8519991368521 104.95811196044087,83.20521922083572 97.34798662550747,82.64417564729229 91.12152044288814,89.09616854530759 89.73786129057407,95.5481435037218 89.5072514321655,103.40269750310108 89.27664157282561,108.17152088950388 88.58481199666858,114.34292484284379 90.66030072513968,119.39224314200692 96.88676690869033,122.75844923895784 103.11323309037834,123.03896619309671 108.4172598393634,117.98965582833625 110.26213870756328,110.97670653951354 110.49274856690317,104.52477447572164 110.49274856690317,97.79230450256728 111.64579785987735,91.62085653445683 109.80091899074614,85.72991361888126 105.88055139407516,82.92469745082781 99.88469506986439,82.08313193893991 94.81127818115056,84.32730595883913 91.12152044288814,88.5351263966877 89.96847114898264,95.5481435037218 89.73786129057407,102.56113941781223 89.27664157282561,109.01307694031857 109.80091899074614,93.02345978678204 110.49274856690317,89.37668956816196 106.80299082957208,83.7662626572419 101.96018379833549,80.4000000001397 94.11944860499352,86.01043504965492 89.96847114898264,91.05981499678455 91.35213030129671,99.75594359473325 88.58481199666858,105.92736992868595 88.35420214012265,111.25722491787747 88.58481199666858,117.98965582833625 93.42761902883649,121.35586395906284 99.88469506986439,123.60000000009313 105.88055139407516,120.79482960957102 110.03152885008603,114.0624068370089 110.49274856690317,107.89100213861093 109.80091899074614,101.15854193037376 110.72335842624307,94.98710291530006 111.18457814306021,88.5351263966877 107.95604012254626,83.7662626572419 102.6520133735612,82.08313193893991 96.65615704935044,83.7662626572419 92.73578945267946,86.57147780805826 90.89091058447957,91.62085653445683 90.42969086673111,98.63386431708932 89.73786129057407,104.52477447572164 87.89298242237419,112.94033447606489 112.10701757762581,90.49877332313918 108.87847955711186,86.8519991368521 104.95811196044087,83.20521922083572 97.34798662550747,82.64417564729229 91.12152044288814,89.09616854530759 89.73786129057407,95.5481435037218 89.5072514321655,103.40269750310108 89.27664157282561,108.17152088950388 88.58481199666858,114.34292484284379 90.66030072513968,119.39224314200692 96.88676690869033,122.75844923895784 103.11323309037834,123.03896619309671 108.4172598393634,117.98965582833625 110.26213870756328,110.97670653951354 110.49274856690317,104.52477447572164 110.49274856690317,97.79230450256728 111.64579785987735,91.62085653445683 109.80091899074614,85.72991361888126 105.88055139407516,82.92469745082781 99.88469506986439,82.08313193893991 94.81127818115056,84.32730595883913 91.12152044288814,88.5351263966877 89.96847114898264,95.5481435037218 89.73786129057407,102.56113941781223 89.27664157282561,109.01307694031857 109.80091899074614,93.02345978678204 110.49274856690317,89.37668956816196 106.80299082957208,83.7662626572419 101.96018379833549,80.4000000001397 94.11944860499352,86.01043504965492 89.96847114898264,91.05981499678455 91.35213030129671,99.75594359473325 88.58481199666858,105.92736992868595 88.35420214012265,111.25722491787747 88.58481199666858,117.98965582833625 93.42761902883649,121.35586395906284 99.88469506986439,123.60000000009313 105.88055139407516,120.79482960957102 110.03152885008603,114.0624068370089 110.49274856690317,107.89100213861093 109.80091899074614,101.15854193037376 110.72335842624307,94.98710291530006 111.18457814306021,88.5351263966877 107.95604012254626,83.7662626572419 102.6520133735612,82.08313193893991 96.65615704935044,83.7662626572419 92.73578945267946,86.57147780805826 90.89091058447957,91.62085653445683 90.42969086673111,98.63386431708932 89.73786129057407,104.52477447572164 87.89298242237419,112.94033447606489 112.10701757762581,90.49877332313918 108.87847955711186,86.8519991368521 104.95811196044087,83.20521922083572 97.34798662550747,82.64417564729229 91.12152044288814,89.09616854530759 89.73786129057407,95.5481435037218 89.5072514321655,103.40269750310108 89.27664157282561,108.17152088950388 88.58481199666858,114.34292484284379 90.66030072513968,119.39224314200692 96.88676690869033,122.75844923895784 103.11323309037834,123.03896619309671 108.4172598393634,117.98965582833625 110.26213870756328,110.97670653951354 110.49274856690317,104.52477447572164 110.49274856690317,97.79230450256728 111.64579785987735,91.62085653445683 109.80091899074614,85.72991361888126 105.88055139407516,82.92469745082781 99.88469506986439,82.08313193893991 94.81127818115056,84.32730595883913 91.12152044288814,88.5351263966877 89.96847114898264,95.5481435037218 89.73786129057407,102.56113941781223 89.27664157282561,109.01307694031857 109.80091899074614,93.02345978678204 110.49274856690317,89.37668956816196 106.80299082957208,83.7662626572419 101.96018379833549,80.4000000001397 94.11944860499352,86.01043504965492 89.96847114898264,91.05981499678455 91.35213030129671,99.75594359473325 88.58481199666858,105.92736992868595 88.35420214012265,111.25722491787747 88.58481199666858,117.98965582833625 93.42761902883649,121.35586395906284 99.88469506986439,123.60000000009313 105.88055139407516,120.79482960957102 110.03152885008603,114.0624068370089 110.49274856690317,107.89100213861093 109.80091899074614,101.15854193037376 110.72335842624307,94.98710291530006 111.18457814306021,88.5351263966877 107.95604012254626,83.7662626572419 102.6520133735612,82.08313193893991 96.65615704935044,83.7662626572419 92.73578945267946,86.57147780805826 90.89091058447957,91.62085653445683 90.42969086673111,98.63386431708932 89.73786129057407,104.52477447572164 87.89298242237419,112.94033447606489 112.10701757762581,90.49877332313918 108.87847955711186,86.8519991368521 104.95811196044087,83.20521922083572 97.34798662550747,82.64417564729229 91.12152044288814,89.09616854530759 89.73786129057407,95.5481435037218 89.5072514321655,103.40269750310108 89.27664157282561,108.17152088950388 88.58481199666858,114.34292484284379 90.66030072513968,119.39224314200692 96.88676690869033,122.75844923895784 103.11323309037834,123.03896619309671 108.4172598393634,117.98965582833625 110.26213870756328,110.97670653951354 110.49274856690317,104.52477447572164 110.49274856690317,97.79230450256728 111.64579785987735,91.62085653445683 109.80091899074614,85.72991361888126 105.88055139407516,82.92469745082781 99.88469506986439,82.08313193893991 94.81127818115056,84.32730595883913 91.12152044288814,88.5351263966877 89.96847114898264,95.5481435037218 89.73786129057407,102.56113941781223 89.27664157282561,109.01307694031857 109.80091899074614,93.02345978678204 110.49274856690317,89.37668956816196 106.80299082957208,83.7662626572419 101.96018379833549,80.4000000001397 94.11944860499352,86.01043504965492 89.96847114898264,91.05981499678455 91.35213030129671,99.75594359473325 88.58481199666858,105.92736992868595 88.35420214012265,111.25722491787747 88.58481199666858,117.98965582833625 93.42761902883649,121.35586395906284 99.88469506986439,123.60000000009313 105.88055139407516,120.79482960957102 110.03152885008603,114.0624068370089 110.49274856690317,107.89100213861093 109.80091899074614,101.15854193037376 110.72335842624307,94.98710291530006 111.18457814306021,88.5351263966877 107.95604012254626,83.7662626572419 102.6520133735612,82.08313193893991 96.65615704935044,83.7662626572419 92.73578945267946,86.57147780805826 90.89091058447957,91.62085653445683 90.42969086673111,98.63386431708932 89.73786129057407,104.52477447572164 87.89298242237419,112.94033447606489 112.10701757762581,90.49877332313918 108.87847955711186,86.8519991368521 104.95811196044087,83.20521922083572 97.34798662550747,82.64417564729229" stroke="#4DD2FF" stroke-dasharray="1,0.5" stroke-linecap="round" stroke-linejoin="round" stroke-width="0.5"><title>2013-11-30 10.3km</title><desc>9223370651086224807</desc></polyline><polyline fill="none" opacity="1" points="167.9601837983355,80.4000000001397 163.34798662550747,82.64417564729229 160.11944860499352,86.01043504965492 157.12152044288814,89.09616854530759 155.96847114898264,91.05981499678455 155.73786129057407,95.5481435037218 157.3521303012967,99.75594359473325 155.5072514321655,103.40269750310108 154.58481199666858,105.92736992868595 155.2766415728256,108.17152088950388 154.35420214012265,111.25722491787747 154.58481199666858,114.34292484284379 154.58481199666858,117.98965582833625 156.66030072513968,119.39224314200692 159.4276190288365,121.35586395906284 162.88676690869033,122.75844923895784 165.8846950698644,123.60000000009313 169.11323309037834,123.03896619309671 171.88055139407516,120.79482960957102 174.4172598393634,117.98965582833625 176.03152885008603,114.0624068370089 176.26213870756328,110.97670653951354 176.49274856690317,107.89100213861093 176.49274856690317,104.52477447572164 175.80091899074614,101.15854193037376 176.49274856690317,97.79230450256728 176.72335842624307,94.98710291530006 177.64579785987735,91.62085653445683 177.1845781430602,88.5351263966877 175.80091899074614,85.72991361888126 173.95604012254626,83.7662626572419 171.88055139407516,82.92469745082781 168.6520133735612,82.08313193893991 165.8846950698644,82.08313193893991 162.65615704935044,83.7662626572419 160.81127818115056,84.32730595883913 158.73578945267946,86.57147780805826 157.12152044288814,88.5351263966877" stroke="#4DD2FF" stroke-dasharray="none" stroke-linecap="round" stroke-linejoin="round" stroke-width="0.5"><title>2013-11-16 10.4km</title><desc>9223370652294258807</desc></polyline><polyline fill="none" opacity="1" points="26.354641679674387,132.30003087921068 25.121519369073212,136.50005727959797 23.395148135721684,141.30007874849252 23.395148135721684,144.30008745123632 23.148523674346507,147.0000921834726 22.40865028835833,151.20009370637126 22.655274749733508,155.10008875629865 22.40865028835833,158.10008077835664 22.655274749733508,163.20005889236927 23.64177259709686,165.60004496737383 26.108017217367887,167.7000308786519 30.793881993740797,171.60000000009313 34.73987338505685,171.60000000009313 38.43924031406641,170.40001015365124 40.65886047203094,169.20001972699538 43.37172955367714,165.90004306309856 44.111602938733995,163.20005889236927 43.86497847735882,159.000077677425 44.35822740197182,154.2000904425513 45.34472524933517,151.20009370637126 46.08459863439202,147.60009283619002 46.08459863439202,144.00008674431592 46.33122309669852,139.80007303715684 45.837974173016846,135.90005394420587 43.61835401598364,132.6000330010429 40.90548493433744,130.50001738895662 36.712869081646204,128.4000000001397 33.013502151705325,129.00000514974818 29.560759685002267,130.50001738895662 26.354641679674387,132.0000287219882 23.64177259709686,135.00004866719246 22.901899211108685,140.40007542981766 23.148523674346507,144.00008674431592 22.655274749733508,147.60009283619002 24.13502152170986,151.20009370637126 22.40865028835833,156.90008440450765 21.668776902370155,160.80007049744017 22.40865028835833,164.70005046087317 22.655274749733508,166.80003713420592 26.354641679674387,169.20001972699538" stroke="#4DD2FF" stroke-dasharray="none" stroke-linecap="round" stroke-linejoin="round" stroke-width="0.5"><title>2013-11-03 10.7km</title><desc>9223370653417861807</desc></polyline><polyline fill="none" opacity="1" points="97.10933730751276,171.59999999962747 97.93524093180895,156.53025805857033 98.76114455983043,141.46048879716545 102.89066269621253,128.40000000037253" stroke="#4DD2FF" stroke-dasharray="none" stroke-linecap="round" stroke-linejoin="round" stroke-width="0.5"><title>2013-11-02 10.5km</title><desc>9223370653505000807</desc></polyline><polyline fill="none" opacity="1" points="173.99064126145095,132.72003759886138 170.4392451448366,130.56001984444447 167.7756980592385,128.4000000001397 165.3341132281348,129.48001018329524 162.0046793706715,130.8300221778918 159.78505679685622,132.45003549358808 158.67524551134557,135.69005860155448 158.2313209977001,138.12007284793071 157.7873964831233,141.63008875912055 156.45562293939292,144.33009724435396 156.01169842481613,146.76010209089145 156.23366068210453,150.81010429398157 157.7873964831233,154.32010026299395 154.90188713837415,155.13009854895063 155.12384939659387,156.21009580790997 154.45796262472868,157.56009164638817 154.90188713837415,163.23006525845267 160.22898131329566,166.20004569296725 165.77803774364293,167.55003549298272 167.1098112873733,167.55003549298272 169.10747160110623,167.55003549298272 171.77101868763566,168.3600289823953 173.99064126145095,164.0400603134185 174.6565280323848,162.96006684168242 174.8784902896732,160.5300796192605 175.54437706060708,159.18008557590656 173.54671674594283,158.91008666879497 174.8784902896732,158.10008975397795 176.2102638334036,155.94009654247202 175.9883015761152,150.81010429398157 176.2102638334036,149.46010437584482 175.7663393188268,146.2201012421865 176.2102638334036,142.1700907170307 175.7663393188268,136.7700652598869 175.32241480425,133.26004171161912 173.54671674594283,129.75001264712773 169.55139611661434,129.48001018329524 165.77803774364293,129.21000768686645 162.6705661425367,130.56001984444447 159.78505679685622,132.72003759886138 156.67758519575,133.26004171161912 156.45562293939292,137.58006991050206 156.23366068210453,140.55008445074782 156.01169842481613,144.0600965428166 154.90188713837415,147.57010311936028 155.34581165295094,151.62010385282338 155.12384939659387,155.13009854895063 154.90188713837415,159.18008557590656 154.90188713837415,161.61007426702417 158.45328325405717,165.66004954348318 164.00233968626708,168.63002674723975 166.44392451550812,169.98001507879235 169.32943385839462,171.60000000009313 173.32475448958576,167.82003335561603 175.1004525469616,162.69006839231588 175.54437706060708,159.7200832911767 175.54437706060708,158.6400877290871 175.1004525469616,153.24010209064 174.8784902896732,148.92010417976417 175.32241480425,146.2201012421865 175.54437706060708,142.98009340977296 177.09811286255717,138.93007700890303 175.7663393188268,135.96006031497382 174.43456577509642,134.34004954481497 172.88082997407764,130.8300221778918 170.21728288847953,130.02001507859677 166.0,129.75001264712773 162.0046793706715,130.56001984444447 159.78505679685622,130.8300221778918 156.89954745396972,132.72003759886138 154.90188713837415,135.69005860155448 154.67992488108575,138.39007426798344 155.34581165295094,139.7400808769744 154.23600036650896,142.71009254432283 154.67992488108575,145.95010076928884 154.90188713837415,147.57010311936028 154.45796262472868,150.27010442432947 154.90188713837415,153.78010124200955 154.67992488108575,157.02009340864606 154.90188713837415,161.34007565444335 157.5654342258349,166.20004569296725 161.7827171124518,168.63002674723975 163.11449065618217,168.3600289823953 166.0,169.98001507879235 167.99766031466424,169.1700221770443 171.1051319167018,171.33000259427354 173.32475448958576,168.63002674723975 174.8784902896732,162.42006990942173 173.99064126145095,158.37008875748143 175.1004525469616,151.35010403278284 174.8784902896732,147.0301024664659 174.8784902896732,145.68010026379488 176.43222609069198,142.98009340977296 177.76399963349104,140.82008557626978 177.09811286255717,136.7700652598869 175.32241480425,132.1800333559513 173.10279223136604,129.75001264712773 169.9953206302598,128.6700025945902 166.0,128.94000515691005 161.1168303405866,130.56001984444447 157.1215097112581,132.1800333559513 156.67758519575,133.53004371840507 155.56777391023934,134.61005142168142 155.78973616752774,137.04006684245542" stroke="#4DD2FF" stroke-dasharray="none" stroke-linecap="round" stroke-linejoin="round" stroke-width="0.5"><title>2013-10-26 11.1km</title><desc>9223370654110301807</desc></polyline><polyline fill="none" opacity="1" points="43.92988085281104,191.4632480267901 45.565390639938414,189.18955639493652 46.49996766168624,186.63165068160743 46.26632340531796,184.07374218595214 43.92988085281104,181.23161837016232 40.8925055321306,179.81055517448112 37.855130213312805,177.25263925665058 34.58411063905805,176.4000000001397 31.0794468075037,177.82106525660492 28.27571574319154,180.09476788225584 25.705628934316337,182.6526807071641 25.238340424373746,185.77901482582092 25.238340424373746,189.4737679695245 24.771051913499832,192.60009301709943 24.30376340262592,196.86325683817267 21.50003233831376,199.9895720607601 21.967320849187672,203.68430287321098 21.733676593750715,207.94744659680873 22.200965103693306,211.07374708005227 22.200965103693306,213.91583482245915 24.30376340262592,216.75791912851855 27.341138722375035,219.0315841003321 30.61215829756111,219.60000000009313 34.58411063905805,219.0315841003321 37.154197447001934,217.610543750925 40.8925055321306,215.90529419737868 41.82708255480975,213.6316262029577 43.462592341937125,210.22112008789554 43.92988085281104,206.81060902611353 43.92988085281104,203.1158831268549 44.39716936368495,199.70536175812595 45.0981021290645,195.4422030900605 45.33174638450146,192.0316705906298 45.79903489537537,189.18955639493652 45.565390639938414,185.49480280443095 44.63081361912191,181.80004340759479 42.52801532112062,179.24212965508923 39.4906400013715,178.10527820512652 35.98597617074847,177.53685227409005 32.48131234012544,177.53685227409005 29.21029276587069,178.95791684417054 25.705628934316337,181.23161837016232 24.30376340262592,184.07374218595214 25.004696168005466,188.33692146651447 23.602830636315048,191.74745932617225 23.36918638087809,194.58957042940892 23.36918638087809,198.28430972713977 21.733676593750715,201.69483315735124 22.200965103693306,206.52639954793267 21.967320849187672,209.3684927856084 23.36918638087809,212.21058258996345" stroke="#4DD2FF" stroke-dasharray="none" stroke-linecap="round" stroke-linejoin="round" stroke-width="0.5"><title>2013-10-20 10.7km</title><desc>9223370654628121807</desc></polyline><polyline fill="none" opacity="0.5" points="104.98654572386295,218.1205605531577 109.36497611645609,212.79457114078104 110.09471451491117,203.6220066549722 110.09471451491117,197.11242390889674 111.79743744432926,190.60282385186292 109.36497611645609,179.95071368920617 101.82434599753469,176.4000000001397 95.98643880710006,179.35892843198963 92.58099294733256,184.38909855671227 89.6620393525809,193.56173511454836 88.20256255567074,200.66310755256563 88.68905482254922,207.76445938879624 95.01345427706838,219.00822432828136 101.58109986409545,219.60000000009313 107.66225318517536,216.34523203712888 109.85146838147193,208.35623777774163 110.09471451491117,200.66310755256563 111.06769904587418,194.1535169375129 111.55419131275266,186.164450250566 106.68926865514368,177.87946466286667 98.90539240278304,176.6958930043038 93.31073134578764,181.4301762059331 91.12151614949107,189.12336687906645 89.6620393525809,197.11242390889674 88.44580868817866,204.50967568764463 88.20256255567074,211.31512758042663 98.66214626841247,219.00822432828136 104.98654572386295,218.1205605531577 109.36497611645609,212.79457114078104 110.09471451491117,203.6220066549722 110.09471451491117,197.11242390889674 111.79743744432926,190.60282385186292 109.36497611645609,179.95071368920617 101.82434599753469,176.4000000001397 95.98643880710006,179.35892843198963 92.58099294733256,184.38909855671227 89.6620393525809,193.56173511454836 88.20256255567074,200.66310755256563 88.68905482254922,207.76445938879624 95.01345427706838,219.00822432828136 101.58109986409545,219.60000000009313 107.66225318517536,216.34523203712888 109.85146838147193,208.35623777774163 110.09471451491117,200.66310755256563 111.06769904587418,194.1535169375129 111.55419131275266,186.164450250566 106.68926865514368,177.87946466286667 98.90539240278304,176.6958930043038 93.31073134578764,181.4301762059331 91.12151614949107,189.12336687906645 89.6620393525809,197.11242390889674 88.44580868817866,204.50967568764463 88.20256255567074,211.31512758042663 98.66214626841247,219.00822432828136 104.98654572386295,218.1205605531577 109.36497611645609,212.79457114078104 110.09471451491117,203.6220066549722 110.09471451491117,197.11242390889674 111.79743744432926,190.60282385186292 109.36497611645609,179.95071368920617 101.82434599753469,176.4000000001397 95.98643880710006,179.35892843198963 92.58099294733256,184.38909855671227 89.6620393525809,193.56173511454836 88.20256255567074,200.66310755256563 88.68905482254922,207.76445938879624 95.01345427706838,219.00822432828136 101.58109986409545,219.60000000009313 107.66225318517536,216.34523203712888 109.85146838147193,208.35623777774163 110.09471451491117,200.66310755256563 111.06769904587418,194.1535169375129 111.55419131275266,186.164450250566 106.68926865514368,177.87946466286667 98.90539240278304,176.6958930043038 93.31073134578764,181.4301762059331 91.12151614949107,189.12336687906645 89.6620393525809,197.11242390889674 88.44580868817866,204.50967568764463 88.20256255567074,211.31512758042663 98.66214626841247,219.00822432828136 104.98654572386295,218.1205605531577 109.36497611645609,212.79457114078104 110.09471451491117,203.6220066549722 110.09471451491117,197.11242390889674 111.79743744432926,190.60282385186292 109.36497611645609,179.95071368920617 101.82434599753469,176.4000000001397 95.98643880710006,179.35892843198963 92.58099294733256,184.38909855671227 89.6620393525809,193.56173511454836 88.20256255567074,200.66310755256563 88.68905482254922,207.76445938879624 95.01345427706838,219.00822432828136 101.58109986409545,219.60000000009313 107.66225318517536,216.34523203712888 109.85146838147193,208.35623777774163 110.09471451491117,200.66310755256563 111.06769904587418,194.1535169375129 111.55419131275266,186.164450250566 106.68926865514368,177.87946466286667 98.90539240278304,176.6958930043038 93.31073134578764,181.4301762059331 91.12151614949107,189.12336687906645 89.6620393525809,197.11242390889674 88.44580868817866,204.50967568764463 88.20256255567074,211.31512758042663 98.66214626841247,219.00822432828136 104.98654572386295,218.1205605531577 109.36497611645609,212.79457114078104 110.09471451491117,203.6220066549722 110.09471451491117,197.11242390889674 111.79743744432926,190.60282385186292 109.36497611645609,179.95071368920617 101.82434599753469,176.4000000001397 95.98643880710006,179.35892843198963 92.58099294733256,184.38909855671227 89.6620393525809,193.56173511454836 88.20256255567074,200.66310755256563 88.68905482254922,207.76445938879624 95.01345427706838,219.00822432828136 101.58109986409545,219.60000000009313 107.66225318517536,216.34523203712888 109.85146838147193,208.35623777774163 110.09471451491117,200.66310755256563 111.06769904587418,194.1535169375129 111.55419131275266,186.164450250566 106.68926865514368,177.87946466286667 98.90539240278304,176.6958930043038 93.31073134578764,181.4301762059331 91.12151614949107,189.12336687906645 89.6620393525809,197.11242390889674 88.44580868817866,204.50967568764463 88.20256255567074,211.31512758042663 98.66214626841247,219.00822432828136 104.98654572386295,218.1205605531577 109.36497611645609,212.79457114078104 110.09471451491117,203.6220066549722 110.09471451491117,197.11242390889674 111.79743744432926,190.60282385186292 109.36497611645609,179.95071368920617 101.82434599753469,176.4000000001397 95.98643880710006,179.35892843198963 92.58099294733256,184.38909855671227 89.6620393525809,193.56173511454836 88.20256255567074,200.66310755256563 88.68905482254922,207.76445938879624 95.01345427706838,219.00822432828136 101.58109986409545,219.60000000009313 107.66225318517536,216.34523203712888 109.85146838147193,208.35623777774163 110.09471451491117,200.66310755256563 111.06769904587418,194.1535169375129 111.55419131275266,186.164450250566 106.68926865514368,177.87946466286667 98.90539240278304,176.6958930043038 93.31073134578764,181.4301762059331 91.12151614949107,189.12336687906645 89.6620393525809,197.11242390889674 88.44580868817866,204.50967568764463 88.20256255567074,211.31512758042663 98.66214626841247,219.00822432828136 104.98654572386295,218.1205605531577 109.36497611645609,212.79457114078104 110.09471451491117,203.6220066549722 110.09471451491117,197.11242390889674 111.79743744432926,190.60282385186292 109.36497611645609,179.95071368920617 101.82434599753469,176.4000000001397 95.98643880710006,179.35892843198963 92.58099294733256,184.38909855671227 89.6620393525809,193.56173511454836 88.20256255567074,200.66310755256563 88.68905482254922,207.76445938879624 95.01345427706838,219.00822432828136 101.58109986409545,219.60000000009313 107.66225318517536,216.34523203712888 109.85146838147193,208.35623777774163 110.09471451491117,200.66310755256563 111.06769904587418,194.1535169375129 111.55419131275266,186.164450250566 106.68926865514368,177.87946466286667 98.90539240278304,176.6958930043038 93.31073134578764,181.4301762059331 91.12151614949107,189.12336687906645 89.6620393525809,197.11242390889674 88.44580868817866,204.50967568764463 88.20256255567074,211.31512758042663 98.66214626841247,219.00822432828136 104.98654572386295,218.1205605531577 109.36497611645609,212.79457114078104 110.09471451491117,203.6220066549722 110.09471451491117,197.11242390889674 111.79743744432926,190.60282385186292 109.36497611645609,179.95071368920617 101.82434599753469,176.4000000001397 95.98643880710006,179.35892843198963 92.58099294733256,184.38909855671227 89.6620393525809,193.56173511454836 88.20256255567074,200.66310755256563 88.68905482254922,207.76445938879624 95.01345427706838,219.00822432828136 101.58109986409545,219.60000000009313 107.66225318517536,216.34523203712888 109.85146838147193,208.35623777774163 110.09471451491117,200.66310755256563 111.06769904587418,194.1535169375129 111.55419131275266,186.164450250566 106.68926865514368,177.87946466286667 98.90539240278304,176.6958930043038 93.31073134578764,181.4301762059331 91.12151614949107,189.12336687906645 89.6620393525809,197.11242390889674 88.44580868817866,204.50967568764463 88.20256255567074,211.31512758042663 98.66214626841247,219.00822432828136 104.98654572386295,218.1205605531577 109.36497611645609,212.79457114078104 110.09471451491117,203.6220066549722 110.09471451491117,197.11242390889674 111.79743744432926,190.60282385186292 109.36497611645609,179.95071368920617 101.82434599753469,176.4000000001397 95.98643880710006,179.35892843198963 92.58099294733256,184.38909855671227 89.6620393525809,193.56173511454836 88.20256255567074,200.66310755256563 88.68905482254922,207.76445938879624 95.01345427706838,219.00822432828136 101.58109986409545,219.60000000009313 107.66225318517536,216.34523203712888 109.85146838147193,208.35623777774163 110.09471451491117,200.66310755256563 111.06769904587418,194.1535169375129 111.55419131275266,186.164450250566 106.68926865514368,177.87946466286667 98.90539240278304,176.6958930043038 93.31073134578764,181.4301762059331 91.12151614949107,189.12336687906645 89.6620393525809,197.11242390889674 88.44580868817866,204.50967568764463 88.20256255567074,211.31512758042663 98.66214626841247,219.00822432828136 104.98654572386295,218.1205605531577 109.36497611645609,212.79457114078104 110.09471451491117,203.6220066549722 110.09471451491117,197.11242390889674 111.79743744432926,190.60282385186292 109.36497611645609,179.95071368920617 101.82434599753469,176.4000000001397 95.98643880710006,179.35892843198963 92.58099294733256,184.38909855671227 89.6620393525809,193.56173511454836 88.20256255567074,200.66310755256563 88.68905482254922,207.76445938879624 95.01345427706838,219.00822432828136 101.58109986409545,219.60000000009313 107.66225318517536,216.34523203712888 109.85146838147193,208.35623777774163 110.09471451491117,200.66310755256563 111.06769904587418,194.1535169375129 111.55419131275266,186.164450250566 106.68926865514368,177.87946466286667 98.90539240278304,176.6958930043038 93.31073134578764,181.4301762059331 91.12151614949107,189.12336687906645 89.6620393525809,197.11242390889674 88.44580868817866,204.50967568764463 88.20256255567074,211.31512758042663 98.66214626841247,219.00822432828136 104.98654572386295,218.1205605531577 109.36497611645609,212.79457114078104 110.09471451491117,203.6220066549722 110.09471451491117,197.11242390889674 111.79743744432926,190.60282385186292 109.36497611645609,179.95071368920617 101.82434599753469,176.4000000001397 95.98643880710006,179.35892843198963 92.58099294733256,184.38909855671227 89.6620393525809,193.56173511454836 88.20256255567074,200.66310755256563 88.68905482254922,207.76445938879624 95.01345427706838,219.00822432828136 101.58109986409545,219.60000000009313 107.66225318517536,216.34523203712888 109.85146838147193,208.35623777774163 110.09471451491117,200.66310755256563 111.06769904587418,194.1535169375129 111.55419131275266,186.164450250566 106.68926865514368,177.87946466286667 98.90539240278304,176.6958930043038 93.31073134578764,181.4301762059331 91.12151614949107,189.12336687906645 89.6620393525809,197.11242390889674 88.44580868817866,204.50967568764463 88.20256255567074,211.31512758042663 98.66214626841247,219.00822432828136 104.98654572386295,218.1205605531577 109.36497611645609,212.79457114078104 110.09471451491117,203.6220066549722 110.09471451491117,197.11242390889674 111.79743744432926,190.60282385186292 109.36497611645609,179.95071368920617 101.82434599753469,176.4000000001397 95.98643880710006,179.35892843198963 92.58099294733256,184.38909855671227 89.6620393525809,193.56173511454836 88.20256255567074,200.66310755256563 88.68905482254922,207.76445938879624 95.01345427706838,219.00822432828136 101.58109986409545,219.60000000009313 107.66225318517536,216.34523203712888 109.85146838147193,208.35623777774163 110.09471451491117,200.66310755256563 111.06769904587418,194.1535169375129 111.55419131275266,186.164450250566 106.68926865514368,177.87946466286667 98.90539240278304,176.6958930043038 93.31073134578764,181.4301762059331 91.12151614949107,189.12336687906645 89.6620393525809,197.11242390889674 88.44580868817866,204.50967568764463 88.20256255567074,211.31512758042663 98.66214626841247,219.00822432828136 104.98654572386295,218.1205605531577 109.36497611645609,212.79457114078104 110.09471451491117,203.6220066549722 110.09471451491117,197.11242390889674" stroke="#4DD2FF" stroke-dasharray="1,0.5" stroke-linecap="round" stroke-linejoin="round" stroke-width="0.5"><title>2013-10-19 10.2km</title><desc>9223370654714312807</desc></polyline><polyline fill="none" opacity="1" points="170.40775660797954,219.60000000009313 173.1783464755863,217.76171712763608 174.94144911970943,214.08514738129452 175.44519273098558,209.4894276992418 175.6970645384863,204.58731752168387 175.6970645384863,201.52349384501576 175.6970645384863,197.84690054506063 176.70455176290125,194.78306872048415 177.46016717981547,191.10646564350463 177.20829537510872,186.5107042961754 174.94144911970943,180.07662441092543 172.17085925210267,177.93192748585716 167.13342312909663,176.4000000001397 164.11096145492047,176.7063855715096 161.0884997807443,179.46385404630564 158.31790991313756,181.60854967474006 157.56229449436069,184.67239742400125 156.05106365773827,189.57454612036236 154.53983282018453,194.17030191142112 154.53983282018453,197.84690054506063" stroke="#4DD2FF" stroke-dasharray="none" stroke-linecap="round" stroke-linejoin="round" stroke-width="0.5"><title>2013-10-12 10.6km</title><desc>9223370655320152807</desc></polyline><polyline fill="none" opacity="1" points="46.717826679348946,232.86492574820295 45.99794969893992,230.52977678203024 43.358400764875114,226.73515489464626 39.03913887310773,225.2756833503954 35.43975396454334,224.4000000001397 32.56024603638798,224.4000000001397 30.16065609641373,225.56757773039863 26.08135319966823,227.61083739856258 24.641599235124886,230.52977678203024 23.68176325969398,234.03249938460067 23.921722253784537,238.11900266609155 23.921722253784537,241.62171426066197 24.161681246943772,244.83252875856124 23.921722253784537,248.6271222056821 22.24200929608196,251.25414494634606 21.52213231381029,254.17305574938655 21.282173319719732,257.09196302411146 22.24200929608196,260.0108667712193 23.4418042646721,262.3459872279782 25.121517223306,265.26488462416455 28.240984144620597,266.72433199873194 31.600410060957074,266.72433199873194 36.639548934064806,267.60000000009313 39.7590158553794,264.68110542721115 41.67868780810386,262.0540972945746 44.07827774621546,258.25952494633384 44.31823674123734,254.17305574938655 44.31823674123734,250.67036236193962 45.518031710758805,246.87577212485485" stroke="#4DD2FF" stroke-dasharray="none" stroke-linecap="round" stroke-linejoin="round" stroke-width="0.5"><title>2013-10-06 10.6km</title><desc>9223370655838244807</desc></polyline><polyline fill="none" opacity="1" points="89.27664157561958,260.3065499314107 90.19908100832254,263.3922431420069 91.8133500199765,265.6363810834009 95.96432747505605,266.75844923895784 99.19286549650133,267.60000000009313 102.19079365767539,266.75844923895784 105.18872181978077,266.47793225129135 107.26421054638922,264.23379512433894 108.64786969870329,261.98965582833625 109.57030913420022,258.0624068370089 109.33969927486032,254.97670653951354 110.26213870942593,251.04944568034261 110.26213870942593,247.40269750310108 110.03152885008603,243.75594359473325 109.80091899260879,238.98710291530006 110.26213870942593,235.62085653445683 110.95396828558296,234.21825243486091 110.26213870942593,231.41304169245996 107.95604012254626,228.88834912492894 104.9581119613722,226.0831319389399 102.88262323383242,225.2415661229752 99.65408521238714,225.80261003412306 96.19493733346462,225.80261003412306 94.35005846433342,226.6441756472923 93.19700917135924,229.72991361888126 91.5827401606366,232.5351263966877 91.35213030222803,235.62085653445683 90.660300726071,239.26762322615832 89.96847115084529,243.19490402424708 89.5072514321655,245.7195810272824 88.81542185787112,248.80529363360256 88.81542185787112,252.17152088950388 87.89298242330551,255.53774326271378 87.43176270555705,258.0624068370089 87.66237256396562,261.14810303226113 88.81542185787112,263.6727605035994 91.8133500199765,266.19741522870027 95.50310775730759,267.0389661930967 99.65408521238714,267.319483113708 103.34384294971824,266.75844923895784 105.8805513959378,264.794829609571 108.64786969870329,262.55069085536525 109.80091899260879,258.3429248428438 110.26213870942593,255.53774326271378 110.72335842624307,252.4520396075677 110.95396828558296,249.6468509058468 111.4151880024001,245.7195810272824 111.64579786174,243.4754238263704 111.87640772014856,240.3897041331511 112.10701757855713,237.5845008501783 112.3376274369657,234.49877332313918 111.64579786174,231.69356291904114 110.4927485678345,229.1688706574496 108.18664998188615,226.6441756472923 105.64994153752923,225.2415661229752 102.88262323383242,224.4000000001397 100.57652464695275,224.96104411478154 96.65615705028176,225.52208809531294 93.88883874751627,227.20521922083572 92.50517959613353,230.8519991368521 90.89091058447957,235.34033578261733 89.96847115084529,238.14554177806713 89.7378612915054,240.3897041331511 89.5072514321655,243.4754238263704 89.7378612915054,246.56113941781223 89.96847115084529,249.92736992868595 89.7378612915054,253.01307694031857 89.5072514321655,256.3792980927974 89.96847115084529,259.7455143611878 91.35213030222803,262.83120831870474 93.88883874751627,264.5143123844173 96.65615705028176,267.319483113708 100.57652464695275,267.319483113708 102.88262323383242,267.0389661930967 106.34177111368626,265.35586395906284 108.41725984029472,263.3922431420069 109.57030913420022,260.0260321632959 110.03152885008603,257.2208526181057 110.95396828558296,254.13515119976364 110.95396828558296,250.76892679347657 111.64579786174,247.96373605774716 111.64579786174,244.8780223308131 111.4151880024001,241.79230450256728 112.56823729537427,238.14554177806713 111.64579786174,235.34033578261733 110.72335842624307,231.97408411232755 110.03152885008603,229.44939215504564" stroke="#4DD2FF" stroke-dasharray="none" stroke-linecap="round" stroke-linejoin="round" stroke-width="0.5"><title>2013-09-29 10.5km</title><desc>9223370656443428807</desc></polyline><polyline fill="none" opacity="1" points="156.49946079216897,249.16443149279803 156.49946079216897,253.29181054909714 155.14224090520293,255.49307631724514 155.5946475332603,260.99623142788187 156.49946079216897,263.4726468878798 161.92834033910185,265.3987459379714 164.1903734849766,265.94905965332873 167.58342320099473,265.94905965332873 171.65508286189288,264.8484320899006 174.59572594985366,262.0968608537223 176.6315557807684,257.96949776401743 177.31016572378576,253.5669688861817 175.72674252279103,250.81538401311263 174.14331932086498,249.43959032977 175.9529458368197,245.03704495402053 177.53636903874576,239.8090112612117 177.98877566773444,237.88289055787027 177.31016572378576,234.8561261605937 178.4411822957918,231.0038747417275 175.72674252279103,228.25226259441115 173.01230274885893,225.2254853900522 171.2026762329042,224.67516183038242 165.77379668504,225.2254853900522 164.1903734849766,225.50064712180756 161.24973039515316,227.97710119676776 158.76149393618107,230.17839144705795 158.08288399223238,232.6548404339701 157.63047736417502,236.23192865750752 156.49946079216897,240.909650930902 156.95186742115766,244.2115667485632 157.17807073518634,246.41284129861742 156.49946079216897,250.81538401311263 156.95186742115766,254.11728546093218 155.5946475332603,258.24465553602204 156.27325747720897,261.54654620797373 156.49946079216897,263.4726468878798 160.34491713810712,264.8484320899006 163.96417016908526,267.3248433584813 166.22620331402868,266.77452997583896 169.16684640292078,265.94905965332873 172.10748949088156,264.8484320899006 175.04813257977366,261.54654620797373 175.27433589380234,259.34528629202396 175.9529458368197,256.593708404107 176.85775909479707,253.84212718973868 177.98877566773444,250.81538401311263 177.08396240975708,247.2383187059313 175.9529458368197,243.38608824275434 176.1791491517797,240.35933116311207 176.6315557807684,237.05740975774825 177.76257235370576,236.23192865750752 178.6673856107518,232.6548404339701 177.31016572378576,229.90323028177954 178.4411822957918,230.17839144705795 177.98877566773444,227.42677830229513 174.82192926388234,226.05097048194148 171.4288795478642,224.95032362709753 168.26203314494342,224.4000000001397 164.1903734849766,225.50064712180756 161.02352708112448,227.97710119676776 158.3090873081237,229.90323028177954 158.08288399223238,233.20516206533648 155.8208508491516,237.05740975774825 154.46363096125424,241.45997056690976 156.04705416224897,241.45997056690976 156.72566410526633,243.11092867492698 156.27325747720897,246.68800046737306 155.5946475332603,250.81538401311263 153.3326143892482,253.01665217778645 155.3684442192316,256.04339242796414 155.5946475332603,258.5198132751975 157.17807073518634,262.92233257344924 159.21390056516975,265.3987459379714 161.92834033910185,266.2242164602503 165.77379668504,266.2242164602503 169.39304971788079,267.60000000009313 173.01230274885893,266.2242164602503 174.14331932086498,264.0229610686656 174.36952263582498,260.4459165164735 175.72674252279103,259.34528629202396 175.9529458368197,255.21791821345687 177.98877566773444,248.61411371990107" stroke="#4DD2FF" stroke-dasharray="none" stroke-linecap="round" stroke-linejoin="round" stroke-width="0.5"><title>2013-09-22 10.9km</title><desc>9223370657048162807</desc></polyline></svg>