<?xml version="1.0" encoding="utf-8" ?>
<svg baseProfile="full" height="300mm" version="1.1" viewBox="0,0,200,300" width="200mm" xmlns="http://www.w3.org/2000/svg" xmlns:ev="http://www.w3.org/2001/xml-events" xmlns:xlink="http://www.w3.org/1999/xlink"><defs /><rect fill="#222222" height="300" width="200" x="0" y="0" /><text fill="#FFFFFF" style="font-size:12px; font-family:Arial; font-weight:bold;" x="10" y="20">Over 10km Runs</text><text fill="#FFFFFF" style="font-size:4px; font-family:Arial" x="10" y="280">Runner</text><text fill="#FFFFFF" style="font-size:9px; font-family:Arial" x="10" y="290">keep</text><text fill="#FFFFFF" style="font-size:4px; font-family:Arial" x="65" y="280">SPECIAL TRACKS</text><rect fill="yellow" height="2.6" width="2.6" x="65" y="283" /><text fill="#FFFFFF" style="font-size:3px; font-family:Arial" x="70" y="285.5">Over 20.0 km</text><rect fill="red" height="2.6" width="2.6" x="65" y="287" /><text fill="#FFFFFF" style="font-size:3px; font-family:Arial" x="70" y="289.5">Over 40.0 km</text><text fill="#FFFFFF" style="font-size:4px; font-family:Arial" x="120" y="280">STATISTICS</text><text fill="#FFFFFF" style="font-size:3px; font-family:Arial" x="120" y="285">Number: 15</text><text fill="#FFFFFF" style="font-size:3px; font-family:Arial" x="120" y="290">Weekly: 1.2</text><text fill="#FFFFFF" style="font-size:3px; font-family:Arial" x="141" y="285">Total: 163.6 km</text><text fill="#FFFFFF" style="font-size:3px; font-family:Arial" x="141" y="290">Avg: 10.9 km</text><text fill="#FFFFFF" style="font-size:3px; font-family:Arial" x="167" y="285">Min: 10.2 km</text><text fill="#FFFFFF" style="font-size:3px; font-family:Arial" x="167" y="290">Max: 14.0 km</text><polyline fill="none" opacity="1" points="26.492662215256132,75.59999999999854 26.457601676811464,75.31317788593151 26.518957619031426,74.94913300099142 26.545253022864927,74.66230862972589 26.527722753584385,74.34238796523277 26.51019248442026,74.01143425142072 26.527722753584385,73.69151106922072 26.536487888195552,73.36055475082685 26.554018157417886,73.08475680712581 26.571548426582012,72.79792597008782 26.74685111863073,72.62141419130057 27.01857029122766,72.58831819082116 27.176342713995837,72.54419016959582 27.185107848607004,72.35664581673336 27.237698656215798,72.15806897954462 27.246463790826965,71.89329912159883 27.220168386993464,71.51820703848352 26.9572143490077,71.35272469629854 26.764381387794856,71.17620983294182 26.834502464625984,70.74595327517454 26.878328137623612,70.44808203927096 26.9309189451742,70.10608040833176 26.965979483618867,69.78614211824606 27.01857029122766,69.46620259043266 27.044865695002954,69.17935920281161 27.09745650261175,68.98077473622834 27.167577579442877,68.87044982654334 27.176342713995837,68.6828971422292 27.123751906387042,68.59463690834673 27.20263811777113,68.41811615793267 27.27275919460226,68.15333432579791 27.334115136764012,67.8885516458904 27.40423621359514,67.59067011756997 27.50941782881273,67.23762395374797 27.57953890558565,66.96180558951892 27.675955386133865,66.67495351480466 27.842492943571415,66.65288792939828 28.044091039395425,66.75218301740824 28.28074967354769,66.6859863052814 28.526173442369327,66.50946148061485 28.61382478836458,66.26673923134513 28.771597211190965,65.95781897458801 28.92936963395914,65.64889756378398 29.09590719139669,65.36204093464767 29.262444748776034,65.0862163143538 29.402686902321875,64.81039077400055 29.569224459759425,64.50146507647878 29.71823174797464,64.2035713465375 29.919829843798652,63.82844438224856 30.14772334333975,63.46434893645346 30.366851708386093,63.04508552807238 30.568449804151896,62.703053278244624 30.73498736153124,62.427219788136426 30.919055188132916,62.140351982314314 31.07682761090109,61.89761690774321 31.234600033727475,61.65488112051389 31.41866786032915,61.36801063513121 31.59397055231966,61.03700499214756 31.70791730209021,60.71703161098412 31.848159455694258,60.419124246436695 32.07605295529356,60.14328313701117 32.35653726250166,59.95571065695549 32.54060508910334,59.712969168765994 32.69837751187151,59.44815945974551 32.83861966553377,59.315754287199525 32.92627101147082,59.11714613078948 33.04021776129957,58.88543601198762 33.10157370346133,58.69786067833047 33.276876395451836,58.58752204795019 33.43464881827822,58.55442043013318 33.54859556804877,58.521318799073924 33.68007258704165,58.37787824458064 33.83784500986803,58.201335682075296 34.02191283646971,57.98065694880643 34.22351093223551,57.72687567738467 34.354987951228395,57.56136573285039 34.27610173984431,57.21931079754722 34.29363200906664,56.9434590124074 34.40757875883719,56.700708680153184 34.635472258436494,56.446923479823454 34.81077495048521,56.21520587737177 34.92472170025576,55.90624806389678 35.082494123023935,55.59728909582918 35.31038762262324,55.34350050827197 35.564576526056044,55.111779813196335 35.704818679601885,54.88005846861779 35.845060833205935,54.57109566553845 35.97653785219882,54.25109725932998 36.186901082633995,53.986270055465866 36.48491565900622,53.94213210565795 36.68651375483023,53.743511039967416 36.79169536998961,53.43454398930771 36.8705815813737,53.12557578393171 36.9231723890407,52.8497103390182 37.00205860042479,52.48556654219283 37.098475080973,52.121421141389874 37.168596157745924,51.900726178413606 37.186126427026466,51.73520456955157 37.256247503799386,51.459334484898136 37.31760344601935,51.0841496924113 37.41401992662577,50.70896319711028 37.51920154178515,50.27860012031306 37.56302721478278,49.95858509799291 37.641913426225074,49.594428565585986 37.72956477222033,49.29648111858842 37.808450983604416,48.89921618534572 37.86980692582438,48.52401977316913 37.93116286798613,48.170892182475654 38.02757934859255,47.80672777460131 38.097700425365474,47.453597119609185 38.1678215021966,47.15564195602201 38.24670771358069,46.79147307534731 38.30806365580065,46.482480039587244 38.369419597962406,46.20659242444526 38.41324527101824,46.07416604210448 38.45707094395766,45.798277064139256 38.51842688617762,45.46720907501731 38.59731309756171,45.1030327554181 38.68496444361517,44.76092626632453 38.746320385776926,44.38571106944437 38.75508552038809,44.31949644615088 38.79014605877455,44.08774484679452 38.85150200093631,43.78977754997322 38.93915334698977,43.39248614993994 38.991744154540356,43.05037258077937 39.070630365924444,42.730329572819755 39.123221173591446,42.53168156521133 39.17581198114203,42.37717722924572 39.19334225030616,42.27785286074504 39.245933057914954,42.15645624825993 39.2108725195867,41.96884295098425 39.21963765419787,41.71501251793234 39.25469819258433,41.45014514803188 39.32481926935725,41.19631312198908 39.377410076966044,40.997661427405546 39.587773307343014,41.0086976452003 39.859492479939945,41.10802353894542 40.14874192175921,41.218385503023455 40.42046109435614,41.295638790259545 40.49934730574023,41.13009594351024 40.52564270951552,40.9093716321222 40.516877574962564,40.644501680311805 40.52564270951552,40.28030411057989 40.551938113349024,39.88299584048946 40.595763786288444,39.55190415641846 40.60452892095782,39.27599340645247 40.46428676735377,39.08837357033917 40.175037325534504,39.15459238467156 39.859492479939945,39.20977468942874 39.67542465333827,39.18770177193073 39.72801546094706,38.86764380607201 39.78060626855586,38.54758460075391 39.85072734532878,38.22752415591822 39.91208328754874,37.87435257137986 40.01726490276633,37.52117947762599 40.06109057570575,37.223188505762664 40.11368138331454,36.892086165702494 40.14874192175921,36.58305611817195 40.19256759475684,36.32920914320857 40.15750705637038,36.21884064999904 40.2276281331433,36.09743513723515 40.411695959744975,35.99810322141275 40.54317297873786,35.87669738436671 40.411695959744975,35.73321752881748 40.35910515213618,35.578700482721615 40.376635421358515,35.40210921916878 40.446756498131435,35.38003528466652 40.63082432473311,35.42418314773386 40.823657285945956,35.40210921916878 40.963899439550005,35.44625707041996 41.13043699692935,35.38003528466652 41.30573968891986,35.357961344270734 41.37586076569278,35.1592956155655 41.410921304137446,34.75092567327374 41.445981842523906,34.331516604965145 41.489807515521534,34.05558842546452 41.4985726501327,33.746547770620964 41.51610291929683,33.59202700977039 41.53363318851916,33.393357035580266 41.46351211174624,33.27194737179525 41.26191401592223,33.238835614334675 41.042785650875885,33.20572384361731 40.87624809355475,33.10638845185167 40.65711972856661,33.073276628048916 40.341574882972054,33.00705294068757 40.02603003731929,32.940829200233566 39.70172005717177,32.863568102620775 39.40370548074134,32.79734424716298 39.061865231371485,32.72008301541791 38.84273686632514,32.60970970187918 38.64113877055934,32.58763502148213 38.37818473257357,32.576597679064434 38.05387475236785,32.55452298981254 37.77339044515975,32.54348564299289 37.431550195789896,32.510373593628174 37.159831023192964,32.47726153102121 36.835521043045446,32.44414945515018 36.537506466615014,32.42207473052986 36.50244592822855,32.400000000001455 36.42355971678626,32.62074703985854 36.35343864001334,32.79734424716298 36.327143236238044,32.98497836642491 36.283317563240416,33.216761101990414 36.26578729401808,33.42646873113699 36.221961621020455,33.6361758280691 36.12554514041403,33.823808042681776 36.02912865980761,33.97832837009628 35.95024244842352,34.18803406658844 35.906416775425896,34.331516604965145 35.836295698652975,34.51914724075323 35.74864435259951,34.68470333029836 35.66099300660426,34.883370200011996 35.573341660609,35.05996257206425 35.485690314671956,35.17033261300094 35.3717435648432,35.46833098721254 35.29285735345911,35.73321752881748 35.15261519985506,36.02017699080898 35.02113818086218,36.35128282416554 34.863365758094005,36.68238733090402 34.71435846982058,36.9914170070042 34.57411631621653,37.2783721001324 34.45140443183482,37.56532619688369 34.29363200906664,37.885389206247055 34.135859586298466,38.17234119533532 34.01314770185854,38.4592921880394 33.907966086640954,38.66898651418887 33.864140413701534,38.79038824929739 33.78525420225924,38.86764380607201 33.688837721711025,38.966972272966814 33.67130745248869,39.253920506664144 33.54859556804877,39.55190415641846 33.37329287605826,39.82781398525549 33.30317179928534,40.02646849168377 33.25934612628771,40.15890456405032 33.47847449127585,40.247195161027776 33.76772393309511,40.247195161027776 34.08326877868967,40.29134042416263 34.42510902805952,40.3354856637161 34.74941900820704,40.37963087968819 35.06496385385981,40.423776072064356 35.3717435648432,40.467921240888245 35.669758141215425,40.501030102001096 35.88888650620356,40.48999381644535 35.96777271764586,40.31341304688249 36.02036352525465,40.10372289299994 36.011598390643485,39.92714129819069 36.116780005802866,39.949214018153725 36.221961621020455,40.04854118514777 36.213196486467496,40.31341304688249 36.14307540963637,40.69968299027096 36.06418919825228,41.052842501565465 36.00283325603232,41.417036667102366 35.9327121792594,41.7812292278104 35.845060833205935,42.15645624825993 35.78370489104418,42.47650147837703 35.73987921804655,42.763437527661154 35.64346273744013,43.105552284483565 35.68728841043776,43.39248614993994 35.573341660609,43.690454878997116 35.40680410322966,43.94427924539923 35.32791789184557,44.24224598524597 35.249031680461485,44.562283138991916 35.249031680461485,44.83817624246876 35.29285735345911,45.02578302680922 35.40680410322966,45.268567645056464 35.319152757234406,45.61067203307903 35.26656194962561,45.996917221098556 35.16138033446623,46.416267095919466 35.10002439224627,46.769402182537306 35.05619871924864,47.133571160440624 35.038668450084515,47.46463247542124 35.02990331541514,47.795692464460444 35.02990331541514,48.14882165801828 35.012373046251014,48.501949342971784 35.00360791163985,48.85507551939372 34.977312507806346,49.19716506424447 34.95978223864222,49.50614795252477 34.92472170025576,49.83719976543216 34.863365758094005,50.179285245991196 34.78447954665171,50.53240425718104 34.78447954665171,50.8413821546128 34.78447954665171,51.19449833753606 34.723123604489956,51.51450857549935 34.60041172005003,51.900726178413606 34.39004848967306,52.187629515370645 34.179685259237885,52.386254319259024 33.907966086640954,52.59591331669799 33.697602856263984,52.80557178242452 33.43464881827822,53.02626432981924 33.29440666467417,53.213852531851444 33.19799018406775,53.357302046220866 33.066513165074866,53.5228204073137 32.94380128069315,53.710407482671144 32.856149934697896,54.00833902150771 32.70714264648268,54.33937280545797 32.54060508910334,54.659370869943814 32.36530239711283,54.97936769579246 32.233825378119946,55.2110887620438 32.18999970512232,55.486946327393525 32.28641618572874,55.663494686166814 32.382832666276954,55.88417960445804 32.26012078189524,56.1710691175831 32.277651051059365,56.31451350081625 32.26012078189524,56.28141097291518 32.10234835912706,56.40278684371151 31.927045667078346,56.645538050710456 31.74297784047667,56.932424921869824 31.506319206324406,57.16414051413449 31.313486245111562,57.42895753867924 31.225834899116307,57.68273972457246 31.094357880123425,57.98065694880643 30.962880861130543,58.13513212392718 30.76128276536474,58.12409819242748 30.52462413109606,58.13513212392718 30.24413982394617,58.068928512780985 29.93736011296278,58.057894572441 29.63058040192118,58.057894572441 29.47280797921121,58.068928512780985 29.332565825548954,58.09099638908083 29.262444748776034,58.2454713580446 29.148497998947278,58.44408160835883 29.060846652952023,58.664759104678524 29.00825584534323,58.9847404281536 28.885543960961513,59.20541648143262 28.83295315335272,59.34885560020484 28.762832076579798,59.4260919457156 28.526173442369327,59.64676682102436 28.324575346603524,59.856407407038205 28.263219404383563,60.088114804704674 28.34210561576765,60.24258604240458 28.41222669259878,60.352922464109724 28.438522096374072,60.56256125964137 28.499878038594034,60.79426667842199 28.491112903982867,60.88253523858293 28.333340481156483,60.75013236300583 28.16680292377714,61.003904354947736" stroke="#4DD2FF" stroke-dasharray="none" stroke-linecap="round" stroke-linejoin="round" stroke-width="0.5"><title>2017-12-17 14.0km</title><desc>9223370523376934807</desc></polyline><polyline fill="none" opacity="1" points="100.59578814200358,32.40000000000873 100.55422152741812,32.748725404264405 100.45723276003264,33.01026884710882 100.60964368015993,33.2195032248128 100.59578814200358,33.96925699568237 100.6512102947454,34.28310613504436 100.77591013838537,34.54464650907903 100.83133229112718,34.89336619418464 100.886754443869,35.224649033727474 100.90060998202534,35.60823864156555 100.9144655202399,36.009262937586755 100.98374321119627,36.305671409514616 101.05302090209443,36.619514941601665 101.13615413120715,36.915922030311776 101.16386520757806,37.24719974618347 101.20543182222173,37.578476622875314 101.31627612770535,37.75283253667294 101.5656758149853,37.85744597343728 101.60724242951255,37.99693042555009 101.46868704771623,38.1712857815146 101.3024205894908,38.258463372301776 101.37169828044716,38.55486674628628 101.48254258587258,38.816398577197106 101.62109796772711,39.165106871616445 101.71808673505438,39.461508190783206 101.81507550232345,39.77534414944239 101.96748642239254,40.089179354923544 102.13375288061798,40.38557857977867 102.27230826253071,40.66454194243124 102.11989734240342,40.90863439661916 101.84278657875257,40.85632890908164 101.63495350594167,40.699412320915144 101.38555381860351,40.50762512415531 101.17772074579261,40.54249554447597 100.92832105839625,40.59480115756742 100.6789213710581,40.62967155467777 100.60964368015993,40.83889374193677 100.62349921831628,41.10042100532155 100.51265491283266,41.27477222374 100.2355441491236,41.379382843195344 99.93072230904363,41.483993378977175 99.62590046896366,41.51886353899317 99.47348954889458,41.379382843195344 99.52891170163639,41.13529126760841 99.62590046896366,40.804023400633014 99.72288923623273,40.50762512415531 99.79216692713089,40.141485149317305 99.86144461808726,39.7404735245218 99.81987800356,39.3568960371922 99.77831138903275,39.025623665438616 99.68132262164727,38.729221358385985 99.36264524335274,38.729221358385985 99.09939001785824,38.64204408142541 99.01625678874552,38.485124836399336 99.00240125053097,38.27589888345392 99.00240125053097,38.049237056737184 98.9054124832619,37.89231710038439 98.72529048688011,37.89231710038439 98.53131295222556,37.85744597343728 98.39275757037103,37.90975266043097 98.42046864674194,38.20615682477364 98.43432418489829,38.502560317356256 98.44817972311284,38.851269448539824 98.4620352613274,39.11280068675114 98.4897463376401,39.47894354155869 98.47589079954196,39.827650069317315 98.47589079954196,40.141485149317305 98.47589079954196,40.47275469455053 98.4897463376401,40.78658822647412 98.4897463376401,41.082985870714765 98.4897463376401,41.43168812156364 98.50360187585466,41.67577914395952 98.50360187585466,41.884999657733715 98.50360187585466,42.111654836597154 98.47589079954196,42.39061451746966 98.4620352613274,42.65213867792045 98.43432418489829,42.79161801635928 98.40661310852738,43.05314137494133 98.37890203215647,43.29722937112092 98.37890203215647,43.506447290987126 98.37890203215647,43.785403996836976 98.37890203215647,44.0817948449112 98.39275757037103,44.43048910034122 98.36504649400013,44.779182426122134 98.37890203215647,45.110440224496415 98.37890203215647,45.40682806975383 98.39275757037103,45.70321524338215 98.40661310852738,46.05190517596202 98.40661310852738,46.3482908878068 98.40661310852738,46.64467592793517 98.39275757037103,46.87132285842381 98.39275757037103,47.13283805939136 98.33733541762922,47.39435273743584 98.39275757037103,47.65586689263 98.42046864674194,47.93481474848522 98.4620352613274,48.23119619351928 98.50360187585466,48.545011109134066 98.54516849044012,48.911127559054876 98.64215725765098,49.29467702654074 98.72529048688011,49.678225369163556 98.84999033052009,49.97460286367277 98.94697909784736,50.25354577435064 99.05782340333099,50.58478970822762 99.1686677087564,50.846297484473325 99.27951201429823,51.03806952146988 99.32107862882549,51.2124074929161 99.47348954889458,51.47391401437926 99.54276723985095,51.735420013035764 99.57047831622185,51.8748896651814 99.63975600712001,52.06666019409022 99.81987800356,52.18869583880587 99.88915569451638,52.34559864331095 100.0277110763709,52.53736848210974 100.15241092001088,52.7117044551851 100.24939968733815,52.955774427202414 100.38795506913448,53.11267631154624 100.59578814200358,53.33931203446991 100.77591013838537,53.58338083536364 100.96988767298171,53.844882616671384 101.13615413120715,54.10638387517247 101.23314289853442,54.2632843793981 101.31627612770535,54.4550514066359 101.48254258587258,54.71655144532269 101.64880904409802,54.943184389339876 101.85664211690892,55.256983202008996 102.02290857519256,55.553348056040704 102.17531949520344,55.77997955025057 102.32773041521432,56.05891008094477 102.4801413352834,56.32040691332077 102.67411886993796,56.634202422137605 102.84038532810519,56.93056415594765 103.04821840097429,57.22692521825957 103.22834039735608,57.50585266359849 103.40846239379607,57.80221242256812 103.61629546654876,58.13343724102015 103.8102730011451,58.44722840060422 104.00425053579966,58.743586026888806 104.18437253218144,59.03994298170437 104.32292791403597,59.318866561196046 104.48919437226141,59.562924205412855 104.62774975417415,59.77211610940867 104.79401621239958,60.05103812777088 104.97413820878137,60.34739212060231 105.09883805247955,60.53915022882575 105.29281558707589,60.800638105138205 105.48679312167224,61.079557930497685 105.65305957995588,61.35847716110584 105.79161496181041,61.61996339971665 105.9717369582504,61.93374619615497 106.1518589546904,62.26496055361349 106.35969202744309,62.613606339727994 106.49824740929762,62.82279336536885 106.71993602026487,63.18886985539575 106.91391355486121,63.4677845887345 107.08018001314485,63.72926661124802 107.23259093315573,64.00818019245344 107.42656846775208,64.3045252209995 107.62054600234842,64.61830157824443 107.80066799878841,64.9495091389108 107.9530789188575,65.24585203510651 108.09163430071203,65.5596261346509 108.25790075893747,65.89083131220832 108.38260060257744,66.20460386482591 108.47958936990472,66.57067089169868 108.52115598443197,66.7624198779813 108.46573383174837,66.93673689429124 108.36874506442109,67.07619034015806 108.396456140792,67.02389531537483 108.53501152270474,66.98903195394087 108.65971136634471,67.16334866831312 108.75670013367198,67.42482330443454 108.85368890094105,67.70372900695656 108.96453320642468,68.03492875641678 109.103088588221,68.3835591658426 109.21393289376283,68.73218864621595 109.32477719930466,69.0459543842735 109.39405489020282,69.28999388251395 109.53261027205735,69.58632694692642 109.64345457759919,69.88265934019 109.7542988830246,70.16155980304757 109.86514318850823,70.44045967137208 109.90670980309369,70.6496341824386 109.97598749405006,70.94596416731656 110.08683179959189,71.24229348107474 110.19767610501731,71.5560531993251 110.29466487228638,71.85238113124797 110.39165363961365,72.14870839199284 110.50249794509728,72.46246593649266 110.59948671242455,72.7239299822686 110.72418655606452,73.03768614733417 110.83503086154815,73.31657988473307 110.94587516708998,73.61290382922743 111.07057501078816,73.94408862014825 111.18141931627179,74.20554970495868 111.30611915991176,74.50187163618102 111.36154131259536,74.69360899875755 111.48624115629354,74.93763796293933 111.58322992362082,75.07708288099093 111.62479653820628,75.2339582361019 111.58322992362082,75.46055563926348 111.44467454176629,75.60000000000582 111.27840808354085,75.40826396572811 111.11214162525721,75.18166647200997 110.91816409066087,74.88534608038026 110.68261994159548,74.60645568698237 110.39165363961365,74.27527257270413 110.10068733769003,74.01381162719917 109.85128765041009,73.76978093993966 109.60188796301372,73.50831898425531 109.36634381383192,73.24685650611355 109.14465520286467,73.02025526903162 108.85368890094105,72.74136090003594 108.59043367533013,72.49732783949003 108.32717844983563,72.21843235577398 108.06392322434112,71.97439831988595 107.81452353694476,71.71293277631048 107.49584615865024,71.45146671017574 107.24644647137029,71.25972459622426 106.95548016944667,71.12027560960269 106.5952361766249,70.98082647437695 106.23499218374491,70.91110185100115 105.90245926735224,70.87623952537251 105.5560708126286,70.78908367070835 105.26510451070499,70.719358945149 104.91871605609776,70.6496341824386 104.58618313958868,70.57990938259172 104.26750576129416,70.56247817685653 103.90726176847238,70.45789089341997 103.57472885202151,70.37073476001387 103.42231793189421,70.33587229045224 103.22834039735608,70.28357856858929 103.02050732454518,70.24871607575915 102.79881871357793,70.21385357370309 102.60484117898159,70.19642231910257 102.41086364438524,70.17899106220284 102.23074164794525,70.12669727770844 101.99519749876345,70.05697219913418 101.75965334958164,70.00467836583266 101.59338689141441,69.93495322225499 101.34398720401805,69.88265934019 101.08073197852354,69.76064020072226 100.72048798564356,69.62118961625674 100.34638845460722,69.48173888314341 100.09698876726907,69.41201346091111 99.72288923623273,69.30742525779351 99.40421185793821,69.20283697111881 99.05782340333099,69.09824860078515 98.68372387223644,68.99366014683619 98.30962434125831,68.92393446441565 97.99094696296379,68.78448298815056 97.64455850835657,68.71475719426235 97.27045897726202,68.57530549503281 96.9517815989675,68.45328513620188 96.75780406437116,68.36612766742473 96.42527114797849,68.2615386282414 96.12044930778211,68.1569495053991 95.78791639133124,68.00006566438242 95.44152793672401,67.80831849211245 95.1228505584877,67.59913943815627 94.80417318013497,67.37252841900045 94.54091795458226,67.05875866756833 94.34694041998591,66.7624198779813 94.22224057628773,66.48351216869196 94.16681842360413,66.29176277370425 94.00055196532048,66.06514948993572 93.86199658346595,65.80367213624413 93.75115227804054,65.64678547318908 93.6125968961278,65.35044348525116 93.44633043790236,65.01923693963909 93.25235290330602,64.67059756467643 93.08608644502237,64.26966113479284 92.87825337221147,63.86872347617464 92.68427583761513,63.43292027960706 92.50415384123335,63.11914107912162 92.33788738300791,62.78792888429598 92.17162092472427,62.40441897952405 91.99149892834248,62.00347560424416 91.79752139368793,61.58509859809419 91.6035438591498,61.184152711648494 91.38185524812434,60.76577308513515 91.2155887898989,60.39968981439597 90.99390017893165,59.99874029462808 90.81377818254987,59.59778954598005 90.64751172426622,59.19683756835002 90.45353418966988,58.79588436181075 90.301123269659,58.464661220728885 90.14871234958991,58.13343724102015 90.01015696773538,57.906809824256925 89.89931266225176,57.57558443200833 89.77461281855358,57.192059245775454 89.6499129748554,56.79109989425342 89.56677974574268,56.39013931364752 89.51135759300087,56.076343219392584 89.45593544025905,55.7102468246012 89.40051328745903,55.27441644729697 89.35894667293178,54.838584617798915 89.33123559656087,54.48991810865118 89.28966898197541,54.14125067018904 89.20653575286269,53.75771541430731 89.2342468292918,53.40904602401133 89.20653575286269,53.00807507619902 89.19268021476455,52.659403687677695 89.22039129107725,52.29329772941128 89.2342468292918,51.927190746428096 89.22039129107725,51.50878151108918 89.15111360012088,51.142672332251095 89.08183590922272,50.77656212860893 89.04026929469546,50.34071531200607 89.0264137564809,49.99203681302606 89.01255821826635,49.59105539007578 88.9709916037391,49.3121110664506 88.90171391278272,48.980863909528125 88.87400283647003,48.545011109134066 88.98484714195365,48.1091568563279 89.01255821826635,47.76047240830667 89.01255821826635,47.44665561034344 89.0264137564809,47.220009676835616 89.06798037106637,47.06310072357883 89.01255821826635,46.784151008556364 88.9709916037391,46.48776628448104 88.94328052736819,46.15651197449188 88.91556945105549,45.80782232078491 88.88785837462638,45.441697183894576 88.86014729825547,45.14530941762496 88.77701406908454,44.726878486486385 88.74930299277185,44.32588092131482 88.73544745455729,43.907447368546855 88.69388083997183,43.54131691176735 88.65231422544457,43.22748999010946 88.61074761091731,42.896227422505035 88.59689207276097,42.687008526481804 88.61074761091731,42.32087465305813 88.61074761091731,41.954739754568436 88.59689207276097,41.60603889831691 88.56918099627364,41.30964243951894 88.51375884359004,40.943504710070556 88.47219222906278,40.59480115756742 88.48604776721913,40.22866142676503 88.51375884359004,39.91482655596337 88.48604776721913,39.51381423618295 88.41677007626276,39.19997764991422 88.40291453810642,38.78152769667213 88.37520346173551,38.45025386744237 88.41677007626276,38.29333439229231 88.41677007626276,38.10154366696952 88.38905899989186,37.80513926553249 88.37520346173551,37.543605412211036" stroke="#4DD2FF" stroke-dasharray="none" stroke-linecap="round" stroke-linejoin="round" stroke-width="0.5"><title>2017-11-19 11.8km</title><desc>9223370525802103807</desc></polyline><polyline fill="none" opacity="0.5" points="176.89075630251318,73.90772399638081 175.71092436928302,73.47729592054384 174.3495798315853,73.47729592054384 173.07899159612134,73.26208181038965 171.9899159660563,73.58490295737283 170.08403361355886,72.72404632641701 168.54117646999657,72.50883204909042 167.0890756295994,72.40122489264468 165.45546218426898,72.50883204909042 164.82016806676984,72.61643919389462 163.09579831873998,73.04686765256338 160.91764705860987,72.07840335112996 159.37478991551325,70.78711610770551 158.01344537734985,71.10993807989871 156.4705882347189,70.57190139987506 155.10924369748682,70.35668664361583 154.0201680669561,70.57190139987506 152.9310924364254,70.2490792478784 151.84201680636033,69.81864954461344 150.4806722686626,69.9262569884886 149.3008403358981,70.46429402776994 147.30420168023556,69.81864954461344 146.2151260501705,69.17300463101128 145.67058823490515,67.98932117014192 144.94453781470656,66.80563626182266 144.85378151200712,65.08391017478425 145.035294117406,63.57739733561175 145.035294117406,61.85566550528165 144.85378151200712,60.34914764133282 144.85378151200712,58.304583931865636 144.58151260437444,57.22849603398936 144.39999999990687,55.614361943735275 144.76302520977333,54.10783436411293 144.76302520977333,52.81652314355597 145.1260504196398,51.74042914347956 144.85378151200712,50.34150515450165 145.30756302457303,48.834969366726 145.21680672233924,47.22082127723843 145.48907562997192,46.25233113102149 145.57983193267137,44.31534793158062 145.48907562997192,42.59358183242148 145.57983193267137,41.087033983145375 145.67058823490515,39.903316170559265 145.94285714253783,38.50437507085735 146.2151260501705,36.99782085575862 145.94285714253783,35.49126429494936 145.94285714253783,34.41515102982521 145.76134453713894,33.12381353235105 145.94285714253783,34.41515102982521 145.94285714253783,35.49126429494936 146.2151260501705,36.99782085575862 145.94285714253783,38.50437507085735 145.67058823490515,39.903316170559265 145.57983193267137,41.087033983145375 145.48907562997192,42.59358183242148 145.57983193267137,44.31534793158062 145.48907562997192,46.25233113102149 145.21680672233924,47.22082127723843 145.30756302457303,48.834969366726 144.85378151200712,50.34150515450165 145.1260504196398,51.74042914347956 144.76302520977333,52.81652314355597 144.76302520977333,54.10783436411293 144.39999999990687,55.614361943735275 144.58151260437444,57.22849603398936 144.85378151200712,58.304583931865636 144.85378151200712,60.34914764133282 145.035294117406,61.85566550528165 145.035294117406,63.57739733561175 144.85378151200712,65.08391017478425 144.94453781470656,66.80563626182266 145.67058823490515,67.98932117014192 146.2151260501705,69.17300463101128 147.30420168023556,69.81864954461344 149.3008403358981,70.46429402776994 150.4806722686626,69.9262569884886 151.84201680636033,69.81864954461344 152.9310924364254,70.2490792478784 154.0201680669561,70.57190139987506 155.10924369748682,70.35668664361583 156.4705882347189,70.57190139987506 158.01344537734985,71.10993807989871 159.37478991551325,70.78711610770551 160.91764705860987,72.07840335112996 163.09579831873998,73.04686765256338 164.82016806676984,72.61643919389462 165.45546218426898,72.50883204909042 167.0890756295994,72.40122489264468 168.54117646999657,72.50883204909042 170.08403361355886,72.72404632641701 171.9899159660563,73.58490295737283 173.07899159612134,73.26208181038965 174.3495798315853,73.47729592054384 175.71092436928302,73.47729592054384 176.89075630251318,73.90772399638081 178.1613445370458,73.90772399638081 179.25042016757652,74.12293796270387 180.5210084025748,74.33815188112203 182.06386554567143,74.87618646764895 183.51596638653427,74.66097266896395 184.877310924232,74.44575882225763 186.1478991592303,74.76857957447646 187.59999999962747,74.66097266896395" stroke="#4DD2FF" stroke-dasharray="1,0.5" stroke-linecap="round" stroke-linejoin="round" stroke-width="0.5"><title>2014-03-22 10.5km</title><desc>9223370641410674807</desc></polyline><polyline fill="none" opacity="1" points="55.600000000034925,101.46956744159979 55.49863913655281,101.39555187629594 55.3871421868098,101.38321594353329 55.25537306431215,101.39555187629594 55.12360394181451,101.43255966564902 54.97156264662044,101.43255966564902 54.84992961050011,101.44489559245994 54.718160488060676,101.39555187629594 54.55598310648929,101.4078878076034 54.44448615674628,101.42022373736108 54.282308775233105,101.42022373736108 54.14040356641635,101.42022373736108 54.02890661661513,101.42022373736108 53.876865321421064,101.42022373736108 53.74509619898163,101.4078878076034 53.6234631628613,101.39555187629594 53.50183012668276,101.38321594353329 53.38019709056243,101.37088000925723 53.248427968122996,101.4078878076034 53.11665884562535,101.4078878076034 52.98488972312771,101.39555187629594 52.853120600630064,101.37088000925723 52.72135147819063,101.34620813623769 52.63012670108583,101.34620813623769 52.47808540589176,101.34620813623769 52.33618019707501,101.37088000925723 52.20441107463557,101.37088000925723 52.07264195213793,101.35854407347506 51.93073674332118,101.32153625727369 51.80910370720085,101.34620813623769 51.6773345847032,101.34620813623769 51.51515720319003,101.33387219750148 51.403660253447015,101.29686437230703 51.24148287187563,101.28452842756815 51.08944157673977,101.32153625727369 50.9272641952266,101.32153625727369 50.80563115910627,101.33387219750148 50.65358986397041,101.32153625727369 50.53195682779187,101.32153625727369 50.39005161897512,101.33387219750148 50.27855466923211,101.32153625727369 50.146785546676256,101.30920031551796 50.01501642423682,101.33387219750148 49.883247301739175,101.32153625727369 49.75147817929974,101.32153625727369 49.63998122949852,101.34620813623769 49.498076020681765,101.35854407347506 49.38657907088054,101.35854407347506 49.2548099483829,101.35854407347506 49.08249648055062,101.34620813623769 48.970999530749395,101.34620813623769 48.80882214923622,101.34620813623769 48.71759737213142,101.34620813623769 48.58582824963378,101.34620813623769 48.45405912719434,101.33387219750148 48.3222900046967,101.34620813623769 48.180384795879945,101.30920031551796 48.058751759759616,101.30920031551796 47.90671046462376,101.29686437230703 47.764805255807005,101.29686437230703 47.63303613325115,101.28452842756815 47.52153918350814,101.28452842756815 47.37963397469139,101.32153625727369 47.21745659317821,101.34620813623769 47.095823557057884,101.32153625727369 46.95391834824113,101.30920031551796 46.82214922568528,101.29686437230703 46.70051618956495,101.27219248133042 46.538338808051776,101.29686437230703 46.41670577193145,101.27219248133042 46.26466447679559,101.25985653364478 46.122759267978836,101.25985653364478 45.980854059103876,101.29686437230703 45.84908493666444,101.28452842756815 45.686907555151265,101.24752058446029 45.534866260015406,101.22284868157294 45.40309713751776,101.21051272787008 45.2611919286428,101.17350485787028 45.11928671982605,101.18584081601875 44.99765368370572,101.19817677270476 44.865884561266284,101.22284868157294 44.74425152508775,101.23518463377695 44.61248240264831,101.28452842756815 44.48071328015067,101.28452842756815 44.338808071333915,101.27219248133042 44.20703894889448,101.25985653364478 44.09554199909326,101.24752058446029 43.96377287659561,101.27219248133042 43.832003754156176,101.25985653364478 43.71037071797764,101.28452842756815 43.55832942278357,101.24752058446029 43.40628812764771,101.27219248133042 43.29479117784649,101.24752058446029 43.15288596902974,101.24752058446029 43.0211168465903,101.24752058446029 42.90961989678908,101.21051272787008 42.76771468791412,101.18584081601875 42.61567339277826,101.19817677270476 42.463632097584195,101.21051272787008 42.311590802448336,101.18584081601875 42.18995776632801,101.19817677270476 42.048052557511255,101.19817677270476 41.89601126231719,101.18584081601875 41.764242139819544,101.18584081601875 41.63247301738011,101.19817677270476 41.48043172218604,101.21051272787008 41.33852651336929,101.23518463377695 41.21689347724896,101.19817677270476 41.08512435480952,101.16116889822297 40.94321914599277,101.17350485787028 40.81145002349513,101.14883293705498 40.66954481462017,101.16116889822297 40.54791177849984,101.18584081601875 40.42627874243772,101.16116889822297 40.284373533620965,101.13649697442452 40.1323322384269,101.13649697442452 40.01069920224836,101.13649697442452 39.858657907054294,101.11182504465978 39.757297043688595,101.08715310891421 39.62552792113274,101.08715310891421 39.4836227123742,101.08715310891421 39.38226184895029,101.11182504465978 39.230220553756226,101.09948907751823 39.088315344939474,101.11182504465978 38.95654622244183,101.14883293705498 38.80450492730597,101.14883293705498 38.66259971848922,101.16116889822297 38.561238855007105,101.12416101030249 38.41933364619035,101.12416101030249 38.287564523750916,101.12416101030249 38.176067573949695,101.09948907751823 38.01389019237831,101.12416101030249 37.882121069938876,101.11182504465978 37.71994368836749,101.09948907751823 37.58817456592806,101.11182504465978 37.48681370250415,101.09948907751823 37.23341154388618,101.11182504465978 36.939465039933566,101.09948907751823 36.71647114033112,101.06248116720963 36.48334115440957,101.06248116720963 36.02721726888558,101.12416101030249 35.743406851252075,101.05014519411634 35.56095729704248,101.02547324340412 35.2061942750006,101.05014519411634 35.033880807168316,101.00080128677655 34.87170342565514,100.98846530623996 34.567620835325215,101.03780921950238 34.273674331314396,101.07481713881862 34.010136086377315,101.18584081601875 33.79727827309398,101.16116889822297 29.793524167092983,100.93912136899598 29.560394181171432,100.93912136899598 29.30699202255346,100.90211340045062 28.972501173149794,100.98846530623996 28.708962928212713,100.91444939146459 28.435288596956525,100.86510541841562 28.07038948853733,100.86510541841562 24.7862975129392,100.82809742297104 24.543031440640334,100.85276942140626 24.218676677672192,100.82809742297104 23.985546691750642,100.79108941403683 23.722008446755353,100.69240132457344 23.40778977010632,100.77875340807077 23.073298920702655,100.79108941403683 22.840168934781104,100.8034254184895 20.21492257155478,100.76641740064224 19.870295635832008,100.76641740064224 19.697982167999726,100.76641740064224 19.525668700167444,100.79108941403683 19.47498826845549,100.72940936934174 19.322946973261423,100.74174538125226 18.97832003753865,100.75408139170759 18.846550915099215,100.68006530668208 18.57287658378482,100.65539326642465 18.349882684240583,100.68006530668208 18.137024870957248,100.68006530668208 17.98498357576318,100.64305724403675 16.90042233694112,100.66772928729915 16.586203660292085,100.68006530668208 16.34293758799322,100.59371313954034 16.10980760207167,100.64305724403675 15.744908493710682,100.6307212201209 15.501642421411816,100.66772928729915 15.268512435490265,100.71707335593237 14.994838104234077,100.65539326642465 14.711027686542366,100.6307212201209 14.467761614301708,100.61838519477897 14.14340685121715,100.59371313954034 13.950821210746653,100.59371313954034 13.72782731114421,100.60604916788725 13.241295166604687,100.6307212201209 13.038573439698666,100.51969693802675 13.018301267002244,100.8034254184895 13.048709526017774,101.02547324340412 13.089253871468827,101.21051272787008 12.998029094364028,101.42022373736108 12.8763960582437,101.44489559245994 12.896668230881914,101.12416101030249 12.683810417656787,101.13649697442452 12.511496949824505,101.32153625727369 12.440544345357921,101.46956744159979 12.420272172719706,101.66694201948121 12.470952604431659,102.01234661081253 12.491224777128082,102.27139928598626 12.61285781324841,102.64147339371993 12.622993899625726,102.88818871886178 12.683810417656787,103.17191060426558 12.714218676730525,103.4186246451136" stroke="#4DD2FF" stroke-dasharray="none" stroke-linecap="round" stroke-linejoin="round" stroke-width="0.5"><title>2013-12-10 10.9km</title><desc>9223370650177580807</desc></polyline><polyline fill="none" opacity="0.5" points="111.41518800146878,96.10918395733461 112.10701757762581,90.49877332313918 108.87847955711186,86.8519991368521 104.95811196044087,83.20521922083572 97.34798662550747,82.64417564729229 91.12152044288814,89.09616854530759 89.73786129057407,95.5481435037218 89.5072514321655,103.40269750310108 89.27664157282561,108.17152088950388 88.58481199666858,114.34292484284379 90.66030072513968,119.39224314200692 96.88676690869033,122.75844923895784 103.11323309037834,123.03896619309671 108.4172598393634,117.98965582833625 110.26213870756328,110.97670653951354 110.49274856690317,104.52477447572164 110.49274856690317,97.79230450256728 111.64579785987735,91.62085653445683 109.80091899074614,85.72991361888126 105.88055139407516,82.92469745082781 99.88469506986439,82.08313193893991 94.81127818115056,84.32730595883913 91.12152044288814,88.5351263966877 89.96847114898264,95.5481435037218 89.73786129057407,102.56113941781223 89.27664157282561,109.01307694031857 109.80091899074614,93.02345978678204 110.49274856690317,89.37668956816196 106.80299082957208,83.7662626572419 101.96018379833549,80.4000000001397 94.11944860499352,86.01043504965492 89.96847114898264,91.05981499678455 91.35213030129671,99.75594359473325 88.58481199666858,105.92736992868595 88.35420214012265,111.25722491787747 88.58481199666858,117.98965582833625 93.42761902883649,121.35586395906284 99.88469506986439,123.60000000009313 105.88055139407516,120.79482960957102 110.03152885008603,114.0624068370089 110.49274856690317,107.89100213861093 109.80091899074614,101.15854193037376 110.72335842624307,94.98710291530006 111.18457814306021,88.5351263966877 107.95604012254626,83.7662626572419 102.6520133735612,82.08313193893991 96.65615704935044,83.7662626572419 92.73578945267946,86.57147780805826 90.89091058447957,91.62085653445683 90.42969086673111,98.63386431708932 89.73786129057407,104.52477447572164 87.89298242237419,112.94033447606489 112.10701757762581,90.49877332313918 108.87847955711186,86.8519991368521 104.95811196044087,83.20521922083572 97.34798662550747,82.64417564729229 91.12152044288814,89.09616854530759 89.73786129057407,95.5481435037218 89.5072514321655,103.40269750310108 89.27664157282561,108.17152088950388 88.58481199666858,114.34292484284379 90.66030072513968,119.39224314200692 96.88676690869033,122.75844923895784 103.11323309037834,123.03896619309671 108.4172598393634,117.98965582833625 110.26213870756328,110.97670653951354 110.49274856690317,104.52477447572164 110.49274856690317,97.79230450256728 111.64579785987735,91.62085653445683 109.80091899074614,85.72991361888126 105.88055139407516,82.92469745082781 99.88469506986439,82.08313193893991 94.81127818115056,84.32730595883913 91.12152044288814,88.5351263966877 89.96847114898264,95.5481435037218 89.73786129057407,102.56113941781223 89.27664157282561,109.01307694031857 109.80091899074614,93.02345978678204 110.49274856690317,89.37668956816196 106.80299082957208,83.7662626572419 101.96018379833549,80.4000000001397 94.11944860499352,86.01043504965492 89.96847114898264,91.05981499678455 91.35213030129671,99.75594359473325 88.58481199666858,105.92736992868595 88.35420214012265,111.25722491787747 88.58481199666858,117.98965582833625 93.42761902883649,121.35586395906284 99.88469506986439,123.60000000009313 105.88055139407516,120.79482960957102 110.03152885008603,114.0624068370089 110.49274856690317,107.89100213861093 109.80091899074614,101.15854193037376 110.72335842624307,94.98710291530006 111.18457814306021,88.5351263966877 107.95604012254626,83.7662626572419 102.6520133735612,82.08313193893991 96.65615704935044,83.7662626572419 92.73578945267946,86.57147780805826 90.89091058447957,91.62085653445683 90.42969086673111,98.63386431708932 89.73786129057407,104.52477447572164 87.89298242237419,112.94033447606489 112.10701757762581,90.49877332313918 108.87847955711186,86.8519991368521 104.95811196044087,83.20521922083572 97.34798662550747,82.64417564729229 91.12152044288814,89.09616854530759 89.73786129057407,95.5481435037218 89.5072514321655,103.40269750310108 89.27664157282561,108.17152088950388 88.58481199666858,114.34292484284379 90.66030072513968,119.39224314200692 96.88676690869033,122.75844923895784 103.11323309037834,123.03896619309671 108.4172598393634,117.98965582833625 110.26213870756328,110.97670653951354 110.49274856690317,104.52477447572164 110.49274856690317,97.79230450256728 111.64579785987735,91.62085653445683 109.80091899074614,85.72991361888126 105.88055139407516,82.92469745082781 99.88469506986439,82.08313193893991 94.81127818115056,84.32730595883913 91.12152044288814,88.5351263966877 89.96847114898264,95.5481435037218 89.73786129057407,102.56113941781223 89.27664157282561,109.01307694031857 109.80091899074614,93.02345978678204 110.49274856690317,89.37668956816196 106.80299082957208,83.7662626572419 101.96018379833549,80.4000000001397 94.11944860499352,86.01043504965492 89.96847114898264,91.05981499678455 91.35213030129671,99.75594359473325 88.58481199666858,105.92736992868595 88.35420214012265,111.25722491787747 88.58481199666858,117.98965582833625 93.42761902883649,121.35586395906284 99.88469506986439,123.60000000009313 105.88055139407516,120.79482960957102 110.03152885008603,114.0624068370089 110.49274856690317,107.89100213861093 109.80091899074614,101.15854193037376 110.72335842624307,94.98710291530006 111.18457814306021,88.5351263966877 107.95604012254626,83.7662626572419 102.6520133735612,82.08313193893991 96.65615704935044,83.7662626572419 92.73578945267946,86.57147780805826 90.89091058447957,91.62085653445683 90.42969086673111,98.63386431708932 89.73786129057407,104.52477447572164 87.89298242237419,112.94033447606489 112.10701757762581,90.49877332313918 108.87847955711186,86.8519991368521 104.95811196044087,83.20521922083572 97.34798662550747,82.64417564729229 91.12152044288814,89.09616854530759 89.73786129057407,95.5481435037218 89.5072514321655,103.40269750310108 89.27664157282561,108.17152088950388 88.58481199666858,114.34292484284379 90.66030072513968,119.39224314200692 96.88676690869033,122.75844923895784 103.11323309037834,123.03896619309671 108.4172598393634,117.98965582833625 110.26213870756328,110.97670653951354 110.49274856690317,104.52477447572164 110.49274856690317,97.79230450256728 111.64579785987735,91.62085653445683 109.80091899074614,85.72991361888126 105.88055139407516,82.92469745082781 99.88469506986439,82.08313193893991 94.81127818115056,84.32730595883913 91.12152044288814,88.5351263966877 89.96847114898264,95.5481435037218 89.73786129057407,102.56113941781223 89.27664157282561,109.01307694031857 109.80091899074614,93.02345978678204 110.49274856690317,89.37668956816196 106.80299082957208,83.7662626572419 101.96018379833549,80.4000000001397 94.11944860499352,86.01043504965492 89.96847114898264,91.05981499678455 91.35213030129671,99.75594359473325 88.58481199666858,105.92736992868595 88.35420214012265,111.25722491787747 88.58481199666858,117.98965582833625 93.42761902883649,121.35586395906284 99.88469506986439,123.60000000009313 105.88055139407516,120.79482960957102 110.03152885008603,114.0624068370089 110.49274856690317,107.89100213861093 109.80091899074614,101.15854193037376 110.72335842624307,94.98710291530006 111.18457814306021,88.5351263966877 107.95604012254626,83.7662626572419 102.6520133735612,82.08313193893991 96.65615704935044,83.7662626572419 92.73578945267946,86.57147780805826 90.89091058447957,91.62085653445683 90.42969086673111,98.63386431708932 89.73786129057407,104.52477447572164 87.89298242237419,112.94033447606489 112.10701757762581,90.49877332313918 108.87847955711186,86.8519991368521 104.95811196044087,83.20521922083572 97.34798662550747,82.64417564729229 91.12152044288814,89.09616854530759 89.73786129057407,95.5481435037218 89.5072514321655,103.40269750310108 89.27664157282561,108.17152088950388 88.58481199666858,114.34292484284379 90.66030072513968,119.39224314200692 96.88676690869033,122.75844923895784 103.11323309037834,123.03896619309671 108.4172598393634,117.98965582833625 110.26213870756328,110.97670653951354 110.49274856690317,104.52477447572164 110.49274856690317,97.79230450256728 111.64579785987735,91.62085653445683 109.80091899074614,85.72991361888126 105.88055139407516,82.92469745082781 99.88469506986439,82.08313193893991 94.81127818115056,84.32730595883913 91.12152044288814,88.5351263966877 89.96847114898264,95.5481435037218 89.73786129057407,102.56113941781223 89.27664157282561,109.01307694031857 109.80091899074614,93.02345978678204 110.49274856690317,89.37668956816196 106.80299082957208,83.7662626572419 101.96018379833549,80.4000000001397 94.11944860499352,86.01043504965492 89.96847114898264,91.05981499678455 91.35213030129671,99.75594359473325 88.58481199666858,105.92736992868595 88.35420214012265,111.25722491787747 88.58481199666858,117.98965582833625 93.42761902883649,121.35586395906284 99.88469506986439,123.60000000009313 105.88055139407516,120.79482960957102 110.03152885008603,114.0624068370089 110.49274856690317,107.89100213861093 109.80091899074614,101.15854193037376 110.72335842624307,94.98710291530006 111.18457814306021,88.5351263966877 107.95604012254626,83.7662626572419 102.6520133735612,82.08313193893991 96.65615704935044,83.7662626572419 92.73578945267946,86.57147780805826 90.89091058447957,91.62085653445683 90.42969086673111,98.63386431708932 89.73786129057407,104.52477447572164 87.89298242237419,112.94033447606489 112.10701757762581,90.49877332313918 108.87847955711186,86.8519991368521 104.95811196044087,83.20521922083572 97.34798662550747,82.64417564729229 91.12152044288814,89.09616854530759 89.73786129057407,95.5481435037218 89.5072514321655,103.40269750310108 89.27664157282561,108.17152088950388 88.58481199666858,114.34292484284379 90.66030072513968,119.39224314200692 96.88676690869033,122.75844923895784 103.11323309037834,123.03896619309671 108.4172598393634,117.98965582833625 110.26213870756328,110.97670653951354 110.49274856690317,104.52477447572164 110.49274856690317,97.79230450256728 111.64579785987735,91.62085653445683 109.80091899074614,85.72991361888126 105.88055139407516,82.92469745082781 99.88469506986439,82.08313193893991 94.81127818115056,84.32730595883913 91.12152044288814,88.5351263966877 89.96847114898264,95.5481435037218 89.73786129057407,102.56113941781223 89.27664157282561,109.01307694031857 109.80091899074614,93.02345978678204 110.49274856690317,89.37668956816196 106.80299082957208,83.7662626572419 101.96018379833549,80.4000000001397 94.11944860499352,86.01043504965492 89.96847114898264,91.05981499678455 91.35213030129671,99.75594359473325 88.58481199666858,105.92736992868595 88.35420214012265,111.25722491787747 88.58481199666858,117.98965582833625 93.42761902883649,121.35586395906284 99.88469506986439,123.60000000009313 105.88055139407516,120.79482960957102 110.03152885008603,114.0624068370089 110.49274856690317,107.89100213861093 109.80091899074614,101.15854193037376 110.72335842624307,94.98710291530006 111.18457814306021,88.5351263966877 107.95604012254626,83.7662626572419 102.6520133735612,82.08313193893991 96.65615704935044,83.7662626572419 92.73578945267946,86.57147780805826 90.89091058447957,91.62085653445683 90.42969086673111,98.63386431708932 89.73786129057407,104.52477447572164 87.89298242237419,112.94033447606489 112.10701757762581,90.49877332313918 108.87847955711186,86.8519991368521 104.95811196044087,83.20521922083572 97.34798662550747,82.64417564729229 91.12152044288814,89.09616854530759 89.73786129057407,95.5481435037218 89.5072514321655,103.40269750310108 89.27664157282561,108.17152088950388 88.58481199666858,114.34292484284379 90.66030072513968,119.39224314200692 96.88676690869033,122.75844923895784 103.11323309037834,123.03896619309671 108.4172598393634,117.98965582833625 110.26213870756328,110.97670653951354 110.49274856690317,104.52477447572164 110.49274856690317,97.79230450256728 111.64579785987735,91.62085653445683 109.80091899074614,85.72991361888126 105.88055139407516,82.92469745082781 99.88469506986439,82.08313193893991 94.81127818115056,84.32730595883913 91.12152044288814,88.5351263966877 89.96847114898264,95.5481435037218 89.73786129057407,102.56113941781223 89.27664157282561,109.01307694031857 109.80091899074614,93.02345978678204 110.49274856690317,89.37668956816196 106.80299082957208,83.7662626572419 101.96018379833549,80.4000000001397 94.11944860499352,86.01043504965492 89.96847114898264,91.05981499678455 91.35213030129671,99.75594359473325 89.27664157282561,104.24425528384745" stroke="#4DD2FF" stroke-dasharray="1,0.5" stroke-linecap="round" stroke-linejoin="round" stroke-width="0.5"><title>2013-11-30 10.3km</title><desc>9223370651086224807</desc></polyline><polyline fill="none" opacity="1" points="177.41518800146878,96.10918395733461 175.80091899074614,93.02345978678204 178.1070175776258,90.49877332313918 176.49274856690317,89.37668956816196 174.87847955711186,86.8519991368521 172.80299082957208,83.7662626572419 170.95811196044087,83.20521922083572 167.9601837983355,80.4000000001397 163.34798662550747,82.64417564729229 160.11944860499352,86.01043504965492 157.12152044288814,89.09616854530759 155.96847114898264,91.05981499678455 155.73786129057407,95.5481435037218 157.3521303012967,99.75594359473325 155.5072514321655,103.40269750310108 154.58481199666858,105.92736992868595 155.2766415728256,108.17152088950388 154.35420214012265,111.25722491787747 154.58481199666858,114.34292484284379 154.58481199666858,117.98965582833625 156.66030072513968,119.39224314200692 159.4276190288365,121.35586395906284 162.88676690869033,122.75844923895784 165.8846950698644,123.60000000009313 169.11323309037834,123.03896619309671 171.88055139407516,120.79482960957102 174.4172598393634,117.98965582833625 176.03152885008603,114.0624068370089 176.26213870756328,110.97670653951354 176.49274856690317,107.89100213861093 176.49274856690317,104.52477447572164 175.80091899074614,101.15854193037376 176.49274856690317,97.79230450256728 176.72335842624307,94.98710291530006 177.64579785987735,91.62085653445683 177.1845781430602,88.5351263966877 175.80091899074614,85.72991361888126 173.95604012254626,83.7662626572419 171.88055139407516,82.92469745082781 168.6520133735612,82.08313193893991 165.8846950698644,82.08313193893991 162.65615704935044,83.7662626572419 160.81127818115056,84.32730595883913 158.73578945267946,86.57147780805826 157.12152044288814,88.5351263966877 156.89091058447957,91.62085653445683 155.96847114898264,95.5481435037218 156.4296908667311,98.63386431708932 155.73786129057407,102.56113941781223 155.73786129057407,104.52477447572164 155.2766415728256,109.01307694031857 153.8929824223742,112.94033447606489" stroke="#4DD2FF" stroke-dasharray="none" stroke-linecap="round" stroke-linejoin="round" stroke-width="0.5"><title>2013-11-16 10.4km</title><desc>9223370652294258807</desc></polyline><polyline fill="none" opacity="1" points="45.59134971071035,138.90006917435676 45.837974173016846,135.90005394420587 44.60485186241567,132.6000330010429 40.41223600972444,129.90001260256395 36.712869081646204,129.00000514974818 33.013502151705325,129.00000514974818 29.06751076038927,130.50001738895662 26.354641679674387,132.30003087921068 25.121519369073212,136.50005727959797 23.395148135721684,141.30007874849252 23.395148135721684,144.30008745123632 23.148523674346507,147.0000921834726 22.40865028835833,151.20009370637126 22.655274749733508,155.10008875629865 22.40865028835833,158.10008077835664 22.655274749733508,163.20005889236927 23.64177259709686,165.60004496737383 26.108017217367887,167.7000308786519 30.793881993740797,171.60000000009313 34.73987338505685,171.60000000009313 38.43924031406641,170.40001015365124 40.65886047203094,169.20001972699538 43.37172955367714,165.90004306309856 44.111602938733995,163.20005889236927 43.86497847735882,159.000077677425 44.35822740197182,154.2000904425513 45.34472524933517,151.20009370637126 46.08459863439202,147.60009283619002 46.08459863439202,144.00008674431592 46.33122309669852,139.80007303715684 45.837974173016846,135.90005394420587 43.61835401598364,132.6000330010429 40.90548493433744,130.50001738895662 36.712869081646204,128.4000000001397 33.013502151705325,129.00000514974818 29.560759685002267,130.50001738895662 26.354641679674387,132.0000287219882 23.64177259709686,135.00004866719246 22.901899211108685,140.40007542981766 23.148523674346507,144.00008674431592 22.655274749733508,147.60009283619002 24.13502152170986,151.20009370637126 22.40865028835833,156.90008440450765 21.668776902370155,160.80007049744017 22.40865028835833,164.70005046087317 22.655274749733508,166.80003713420592 26.354641679674387,169.20001972699538 29.314135221764445,170.70000767009333 34.24662446137518,171.30000259238295 37.699366928078234,170.70000767009333 40.90548493433744,169.20001972699538 43.12510509137064,166.20004112226889 43.86497847735882,162.60006201080978 44.85147632472217,159.000077677425" stroke="#4DD2FF" stroke-dasharray="none" stroke-linecap="round" stroke-linejoin="round" stroke-width="0.5"><title>2013-11-03 10.7km</title><desc>9223370653417861807</desc></polyline><polyline fill="none" opacity="1" points="93.6074931723997,171.31200259411708 96.92212634161115,171.60000000009313 100.71027853526175,170.16001262003556 104.0249117044732,167.28003524802625 104.49843072798103,162.6720642137807 106.62926633749157,158.06408426584676 106.86602585017681,154.60809345706366 106.86602585017681,151.44009747868404 107.1027853609994,147.1200961722061 107.33954487368464,142.80008703446947 108.52334243431687,139.0560727783013 108.76010194700211,135.3120526385028 106.62926633749157,132.7200352489017 105.20870926510543,130.41601742454804 102.13083560857922,128.9760051521007 98.34268341399729,128.4000000001397 94.55453122127801,129.2640076763928 91.23989805206656,129.84001261997037" stroke="#4DD2FF" stroke-dasharray="none" stroke-linecap="round" stroke-linejoin="round" stroke-width="0.5"><title>2013-11-02 10.5km</title><desc>9223370653505000807</desc></polyline><polyline fill="none" opacity="1" points="175.7663393188268,152.70010280935094 175.54437706060708,149.46010437584482 175.54437706060708,146.49010168295354 176.43222609069198,142.98009340977296 176.87615060433745,140.01008210144937 176.43222609069198,137.31006839242764 175.32241480425,134.34004954481497 173.99064126145095,132.72003759886138 170.4392451448366,130.56001984444447 167.7756980592385,128.4000000001397 165.3341132281348,129.48001018329524 162.0046793706715,130.8300221778918 159.78505679685622,132.45003549358808 158.67524551134557,135.69005860155448 158.2313209977001,138.12007284793071 157.7873964831233,141.63008875912055 156.45562293939292,144.33009724435396 156.01169842481613,146.76010209089145 156.23366068210453,150.81010429398157 157.7873964831233,154.32010026299395 154.90188713837415,155.13009854895063 155.12384939659387,156.21009580790997 154.45796262472868,157.56009164638817 154.90188713837415,163.23006525845267 160.22898131329566,166.20004569296725 165.77803774364293,167.55003549298272 167.1098112873733,167.55003549298272 169.10747160110623,167.55003549298272 171.77101868763566,168.3600289823953 173.99064126145095,164.0400603134185 174.6565280323848,162.96006684168242 174.8784902896732,160.5300796192605 175.54437706060708,159.18008557590656 173.54671674594283,158.91008666879497 174.8784902896732,158.10008975397795 176.2102638334036,155.94009654247202 175.9883015761152,150.81010429398157 176.2102638334036,149.46010437584482 175.7663393188268,146.2201012421865 176.2102638334036,142.1700907170307 175.7663393188268,136.7700652598869 175.32241480425,133.26004171161912 173.54671674594283,129.75001264712773 169.55139611661434,129.48001018329524 165.77803774364293,129.21000768686645 162.6705661425367,130.56001984444447 159.78505679685622,132.72003759886138 156.67758519575,133.26004171161912 156.45562293939292,137.58006991050206 156.23366068210453,140.55008445074782 156.01169842481613,144.0600965428166 154.90188713837415,147.57010311936028 155.34581165295094,151.62010385282338 155.12384939659387,155.13009854895063 154.90188713837415,159.18008557590656 154.90188713837415,161.61007426702417 158.45328325405717,165.66004954348318 164.00233968626708,168.63002674723975 166.44392451550812,169.98001507879235 169.32943385839462,171.60000000009313 173.32475448958576,167.82003335561603 175.1004525469616,162.69006839231588 175.54437706060708,159.7200832911767 175.54437706060708,158.6400877290871 175.1004525469616,153.24010209064 174.8784902896732,148.92010417976417 175.32241480425,146.2201012421865 175.54437706060708,142.98009340977296 177.09811286255717,138.93007700890303 175.7663393188268,135.96006031497382 174.43456577509642,134.34004954481497 172.88082997407764,130.8300221778918 170.21728288847953,130.02001507859677 166.0,129.75001264712773 162.0046793706715,130.56001984444447 159.78505679685622,130.8300221778918 156.89954745396972,132.72003759886138 154.90188713837415,135.69005860155448 154.67992488108575,138.39007426798344 155.34581165295094,139.7400808769744 154.23600036650896,142.71009254432283 154.67992488108575,145.95010076928884 154.90188713837415,147.57010311936028 154.45796262472868,150.27010442432947 154.90188713837415,153.78010124200955 154.67992488108575,157.02009340864606 154.90188713837415,161.34007565444335 157.5654342258349,166.20004569296725 161.7827171124518,168.63002674723975 163.11449065618217,168.3600289823953 166.0,169.98001507879235 167.99766031466424,169.1700221770443 171.1051319167018,171.33000259427354 173.32475448958576,168.63002674723975 174.8784902896732,162.42006990942173 173.99064126145095,158.37008875748143 175.1004525469616,151.35010403278284 174.8784902896732,147.0301024664659 174.8784902896732,145.68010026379488 176.43222609069198,142.98009340977296 177.76399963349104,140.82008557626978 177.09811286255717,136.7700652598869 175.32241480425,132.1800333559513 173.10279223136604,129.75001264712773 169.9953206302598,128.6700025945902 166.0,128.94000515691005 161.1168303405866,130.56001984444447 157.1215097112581,132.1800333559513 156.67758519575,133.53004371840507 155.56777391023934,134.61005142168142 155.78973616752774,137.04006684245542 156.01169842481613,138.6600756549742 156.23366068210453,142.1700907170307 156.23366068210453,143.5200950417202 156.23366068210453,147.84010339644738 156.01169842481613,149.19010429433547 155.12384939659387,151.62010385282338 155.78973616752774,155.13009854895063" stroke="#4DD2FF" stroke-dasharray="none" stroke-linecap="round" stroke-linejoin="round" stroke-width="0.5"><title>2013-10-26 11.1km</title><desc>9223370654110301807</desc></polyline><polyline fill="none" opacity="1" points="38.08877446874976,216.18950254260562 41.359794043935835,213.91583482245915 42.29437106475234,209.93691102182493 42.06072680931538,206.52639954793267 42.52801532112062,202.26325324806385 42.52801532112062,198.85273064253852 42.52801532112062,195.1579922370147 43.92988085281104,191.4632480267901 45.565390639938414,189.18955639493652 46.49996766168624,186.63165068160743 46.26632340531796,184.07374218595214 43.92988085281104,181.23161837016232 40.8925055321306,179.81055517448112 37.855130213312805,177.25263925665058 34.58411063905805,176.4000000001397 31.0794468075037,177.82106525660492 28.27571574319154,180.09476788225584 25.705628934316337,182.6526807071641 25.238340424373746,185.77901482582092 25.238340424373746,189.4737679695245 24.771051913499832,192.60009301709943 24.30376340262592,196.86325683817267 21.50003233831376,199.9895720607601 21.967320849187672,203.68430287321098 21.733676593750715,207.94744659680873 22.200965103693306,211.07374708005227 22.200965103693306,213.91583482245915 24.30376340262592,216.75791912851855 27.341138722375035,219.0315841003321 30.61215829756111,219.60000000009313 34.58411063905805,219.0315841003321 37.154197447001934,217.610543750925 40.8925055321306,215.90529419737868 41.82708255480975,213.6316262029577 43.462592341937125,210.22112008789554 43.92988085281104,206.81060902611353 43.92988085281104,203.1158831268549 44.39716936368495,199.70536175812595 45.0981021290645,195.4422030900605 45.33174638450146,192.0316705906298 45.79903489537537,189.18955639493652 45.565390639938414,185.49480280443095 44.63081361912191,181.80004340759479 42.52801532112062,179.24212965508923 39.4906400013715,178.10527820512652 35.98597617074847,177.53685227409005 32.48131234012544,177.53685227409005 29.21029276587069,178.95791684417054 25.705628934316337,181.23161837016232 24.30376340262592,184.07374218595214 25.004696168005466,188.33692146651447 23.602830636315048,191.74745932617225 23.36918638087809,194.58957042940892 23.36918638087809,198.28430972713977 21.733676593750715,201.69483315735124 22.200965103693306,206.52639954793267 21.967320849187672,209.3684927856084 23.36918638087809,212.21058258996345 24.30376340262592,215.90529419737868 25.238340424373746,217.610543750925 30.845802552998066,219.0315841003321 34.81775489356369,218.46316806343384 37.38784170243889,216.18950254260562 41.59343829844147,212.77900013769977 43.22894808650017,211.9263737637084" stroke="#4DD2FF" stroke-dasharray="none" stroke-linecap="round" stroke-linejoin="round" stroke-width="0.5"><title>2013-10-20 10.7km</title><desc>9223370654628121807</desc></polyline><polyline fill="none" opacity="1" points="102.91895518265665,176.39999999990687 101.45947759225965,183.5013960446231 100.97298506088555,192.37812661519274 98.540522409603,199.47949948208407 99.5135074686259,205.9890822279267 97.08104481734335,214.2739932043478 102.43246265128255,219.60000000009313" stroke="#4DD2FF" stroke-dasharray="none" stroke-linecap="round" stroke-linejoin="round" stroke-width="0.5"><title>2013-10-19 10.2km</title><desc>9223370654714312807</desc></polyline><polyline fill="none" opacity="1" points="154.68905482254922,205.98912336095236 155.17554708756506,209.83568312670104 156.87827001698315,213.68223684793338 158.09450068231672,215.75345557858236 161.01345427706838,219.00822432828136 164.66214626841247,219.00822432828136 167.58109986409545,219.60000000009313 170.98654572386295,218.1205605531577 173.66225318517536,216.34523203712888 175.3649761164561,212.79457114078104 175.85146838147193,208.35623777774163 176.09471451491117,203.6220066549722 176.09471451491117,200.66310755256563 176.09471451491117,197.11242390889674 177.06769904587418,194.1535169375129 177.79743744432926,190.60282385186292 177.55419131275266,186.164450250566 175.3649761164561,179.95071368920617 172.68926865514368,177.87946466286667 167.8243459975347,176.4000000001397 164.90539240278304,176.6958930043038 161.98643880710006,179.35892843198963 159.31073134578764,181.4301762059331 158.58099294733256,184.38909855671227 157.12151614949107,189.12336687906645 155.6620393525809,193.56173511454836 155.6620393525809,197.11242390889674 154.20256255567074,200.66310755256563 154.44580868817866,204.50967568764463 154.68905482254922,207.76445938879624 154.20256255567074,211.31512758042663 156.14853161852807,215.4575672952924 158.8242390807718,218.1205605531577 161.49994654208422,218.41644851467572" stroke="#4DD2FF" stroke-dasharray="none" stroke-linecap="round" stroke-linejoin="round" stroke-width="0.5"><title>2013-10-12 10.6km</title><desc>9223370655320152807</desc></polyline><polyline fill="none" opacity="1" points="44.07827774621546,260.59464709763415 45.038113723509014,256.8000724564772 45.278072715736926,252.12981855729595 44.07827774621546,248.33523061382584 44.31823674123734,243.0811759249773 45.518031710758805,238.99468104168773 45.75799070484936,235.78385878098197 46.717826679348946,232.86492574820295 45.99794969893992,230.52977678203024 43.358400764875114,226.73515489464626 39.03913887310773,225.2756833503954 35.43975396454334,224.4000000001397 32.56024603638798,224.4000000001397 30.16065609641373,225.56757773039863 26.08135319966823,227.61083739856258 24.641599235124886,230.52977678203024 23.68176325969398,234.03249938460067 23.921722253784537,238.11900266609155 23.921722253784537,241.62171426066197 24.161681246943772,244.83252875856124 23.921722253784537,248.6271222056821 22.24200929608196,251.25414494634606 21.52213231381029,254.17305574938655 21.282173319719732,257.09196302411146 22.24200929608196,260.0108667712193 23.4418042646721,262.3459872279782 25.121517223306,265.26488462416455 28.240984144620597,266.72433199873194 31.600410060957074,266.72433199873194 36.639548934064806,267.60000000009313 39.7590158553794,264.68110542721115 41.67868780810386,262.0540972945746 44.07827774621546,258.25952494633384 44.31823674123734,254.17305574938655 44.31823674123734,250.67036236193962 45.518031710758805,246.87577212485485 46.237908692099154,243.37306815269403 45.99794969893992,240.16225171345286 45.99794969893992,237.53521690703928 46.47786768618971,234.03249938460067 45.75799070484936,231.1135642353911 44.798154728487134,228.48651958373375 43.358400764875114,225.56757773039863" stroke="#4DD2FF" stroke-dasharray="none" stroke-linecap="round" stroke-linejoin="round" stroke-width="0.5"><title>2013-10-06 10.6km</title><desc>9223370655838244807</desc></polyline><polyline fill="none" opacity="1" points="92.27456973679364,237.86502133100294 91.5827401606366,242.07282447465695 90.89091058447957,245.15854193037376 91.5827401606366,248.80529363360256 90.660300726071,251.89100213861093 90.19908100832254,255.53774326271378 89.27664157561958,258.3429248428438 89.27664157561958,260.3065499314107 90.19908100832254,263.3922431420069 91.8133500199765,265.6363810834009 95.96432747505605,266.75844923895784 99.19286549650133,267.60000000009313 102.19079365767539,266.75844923895784 105.18872181978077,266.47793225129135 107.26421054638922,264.23379512433894 108.64786969870329,261.98965582833625 109.57030913420022,258.0624068370089 109.33969927486032,254.97670653951354 110.26213870942593,251.04944568034261 110.26213870942593,247.40269750310108 110.03152885008603,243.75594359473325 109.80091899260879,238.98710291530006 110.26213870942593,235.62085653445683 110.95396828558296,234.21825243486091 110.26213870942593,231.41304169245996 107.95604012254626,228.88834912492894 104.9581119613722,226.0831319389399 102.88262323383242,225.2415661229752 99.65408521238714,225.80261003412306 96.19493733346462,225.80261003412306 94.35005846433342,226.6441756472923 93.19700917135924,229.72991361888126 91.5827401606366,232.5351263966877 91.35213030222803,235.62085653445683 90.660300726071,239.26762322615832 89.96847115084529,243.19490402424708 89.5072514321655,245.7195810272824 88.81542185787112,248.80529363360256 88.81542185787112,252.17152088950388 87.89298242330551,255.53774326271378 87.43176270555705,258.0624068370089 87.66237256396562,261.14810303226113 88.81542185787112,263.6727605035994 91.8133500199765,266.19741522870027 95.50310775730759,267.0389661930967 99.65408521238714,267.319483113708 103.34384294971824,266.75844923895784 105.8805513959378,264.794829609571 108.64786969870329,262.55069085536525 109.80091899260879,258.3429248428438 110.26213870942593,255.53774326271378 110.72335842624307,252.4520396075677 110.95396828558296,249.6468509058468 111.4151880024001,245.7195810272824 111.64579786174,243.4754238263704 111.87640772014856,240.3897041331511 112.10701757855713,237.5845008501783 112.3376274369657,234.49877332313918 111.64579786174,231.69356291904114 110.4927485678345,229.1688706574496 108.18664998188615,226.6441756472923 105.64994153752923,225.2415661229752 102.88262323383242,224.4000000001397 100.57652464695275,224.96104411478154 96.65615705028176,225.52208809531294 93.88883874751627,227.20521922083572 92.50517959613353,230.8519991368521 90.89091058447957,235.34033578261733 89.96847115084529,238.14554177806713 89.7378612915054,240.3897041331511 89.5072514321655,243.4754238263704 89.7378612915054,246.56113941781223 89.96847115084529,249.92736992868595 89.7378612915054,253.01307694031857 89.5072514321655,256.3792980927974 89.96847115084529,259.7455143611878 91.35213030222803,262.83120831870474 93.88883874751627,264.5143123844173 96.65615705028176,267.319483113708 100.57652464695275,267.319483113708 102.88262323383242,267.0389661930967 106.34177111368626,265.35586395906284 108.41725984029472,263.3922431420069 109.57030913420022,260.0260321632959 110.03152885008603,257.2208526181057 110.95396828558296,254.13515119976364 110.95396828558296,250.76892679347657 111.64579786174,247.96373605774716 111.64579786174,244.8780223308131 111.4151880024001,241.79230450256728 112.56823729537427,238.14554177806713 111.64579786174,235.34033578261733 110.72335842624307,231.97408411232755 110.03152885008603,229.44939215504564 107.49482040572912,227.7662626572419 104.26628238521516,226.0831319389399 101.26835422310978,226.6441756472923 97.11737676803023,226.9246974508278 94.11944860592484,228.88834912492894 92.7357894545421,230.8519991368521 90.660300726071,234.21825243486091" stroke="#4DD2FF" stroke-dasharray="none" stroke-linecap="round" stroke-linejoin="round" stroke-width="0.5"><title>2013-09-29 10.5km</title><desc>9223370656443428807</desc></polyline><polyline fill="none" opacity="1" points="160.7973237670958,227.97710119676776 159.66630719508976,231.82935773720965 158.3090873081237,233.480322830379 157.63047736417502,238.4332109261304 156.95186742115766,240.63449106365442 156.72566410526633,244.76188558503054 156.72566410526633,246.96315960399806 156.49946079216897,249.16443149279803 156.49946079216897,253.29181054909714 155.14224090520293,255.49307631724514 155.5946475332603,260.99623142788187 156.49946079216897,263.4726468878798 161.92834033910185,265.3987459379714 164.1903734849766,265.94905965332873 167.58342320099473,265.94905965332873 171.65508286189288,264.8484320899006 174.59572594985366,262.0968608537223 176.6315557807684,257.96949776401743 177.31016572378576,253.5669688861817 175.72674252279103,250.81538401311263 174.14331932086498,249.43959032977 175.9529458368197,245.03704495402053 177.53636903874576,239.8090112612117 177.98877566773444,237.88289055787027 177.31016572378576,234.8561261605937 178.4411822957918,231.0038747417275 175.72674252279103,228.25226259441115 173.01230274885893,225.2254853900522 171.2026762329042,224.67516183038242 165.77379668504,225.2254853900522 164.1903734849766,225.50064712180756 161.24973039515316,227.97710119676776 158.76149393618107,230.17839144705795 158.08288399223238,232.6548404339701 157.63047736417502,236.23192865750752 156.49946079216897,240.909650930902 156.95186742115766,244.2115667485632 157.17807073518634,246.41284129861742 156.49946079216897,250.81538401311263 156.95186742115766,254.11728546093218 155.5946475332603,258.24465553602204 156.27325747720897,261.54654620797373 156.49946079216897,263.4726468878798 160.34491713810712,264.8484320899006 163.96417016908526,267.3248433584813 166.22620331402868,266.77452997583896 169.16684640292078,265.94905965332873 172.10748949088156,264.8484320899006 175.04813257977366,261.54654620797373 175.27433589380234,259.34528629202396 175.9529458368197,256.593708404107 176.85775909479707,253.84212718973868 177.98877566773444,250.81538401311263 177.08396240975708,247.2383187059313 175.9529458368197,243.38608824275434 176.1791491517797,240.35933116311207 176.6315557807684,237.05740975774825 177.76257235370576,236.23192865750752 178.6673856107518,232.6548404339701 177.31016572378576,229.90323028177954 178.4411822957918,230.17839144705795 177.98877566773444,227.42677830229513 174.82192926388234,226.05097048194148 171.4288795478642,224.95032362709753 168.26203314494342,224.4000000001397 164.1903734849766,225.50064712180756 161.02352708112448,227.97710119676776 158.3090873081237,229.90323028177954 158.08288399223238,233.20516206533648 155.8208508491516,237.05740975774825 154.46363096125424,241.45997056690976 156.04705416224897,241.45997056690976 156.72566410526633,243.11092867492698 156.27325747720897,246.68800046737306 155.5946475332603,250.81538401311263 153.3326143892482,253.01665217778645 155.3684442192316,256.04339242796414 155.5946475332603,258.5198132751975 157.17807073518634,262.92233257344924 159.21390056516975,265.3987459379714 161.92834033910185,266.2242164602503 165.77379668504,266.2242164602503 169.39304971788079,267.60000000009313 173.01230274885893,266.2242164602503 174.14331932086498,264.0229610686656 174.36952263582498,260.4459165164735 175.72674252279103,259.34528629202396 175.9529458368197,255.21791821345687 177.98877566773444,248.61411371990107 177.98877566773444,243.93640727945603 175.9529458368197,241.1848107650876 176.6315557807684,237.88289055787027 177.08396240975708,235.40644725901075 177.53636903874576,231.82935773720965 177.31016572378576,229.90323028177954 175.72674252279103,226.87645527347922" stroke="#4DD2FF" stroke-dasharray="none" stroke-linecap="round" stroke-linejoin="round" stroke-width="0.5"><title>2013-09-22 10.9km</title><desc>9223370657048162807</desc></polyline></svg>