<?xml version="1.0" encoding="utf-8" ?>
<svg baseProfile="full" height="300mm" version="1.1" viewBox="0,0,200,300" width="200mm" xmlns="http://www.w3.org/2000/svg" xmlns:ev="http://www.w3.org/2001/xml-events" xmlns:xlink="http://www.w3.org/1999/xlink"><defs /><rect fill="#222222" height="300" width="200" x="0" y="0" /><text fill="#FFFFFF" style="font-size:12px; font-family:Arial; font-weight:bold;" x="10" y="20">Over 10km Runs</text><text fill="#FFFFFF" style="font-size:4px; font-family:Arial" x="10" y="280">Runner</text><text fill="#FFFFFF" style="font-size:9px; font-family:Arial" x="10" y="290">keep</text><text fill="#FFFFFF" style="font-size:4px; font-family:Arial" x="65" y="280">SPECIAL TRACKS</text><rect fill="yellow" height="2.6" width="2.6" x="65" y="283" /><text fill="#FFFFFF" style="font-size:3px; font-family:Arial" x="70" y="285.5">Over 20.0 km</text><rect fill="red" height="2.6" width="2.6" x="65" y="287" /><text fill="#FFFFFF" style="font-size:3px; font-family:Arial" x="70" y="289.5">Over 40.0 km</text><text fill="#FFFFFF" style="font-size:4px; font-family:Arial" x="120" y="280">STATISTICS</text><text fill="#FFFFFF" style="font-size:3px; font-family:Arial" x="120" y="285">Number: 15</text><text fill="#FFFFFF" style="font-size:3px; font-family:Arial" x="120" y="290">Weekly: 1.2</text><text fill="#FFFFFF" style="font-size:3px; font-family:Arial" x="141" y="285">Total: 163.6 km</text><text fill="#FFFFFF" style="font-size:3px; font-family:Arial" x="141" y="290">Avg: 10.9 km</text><text fill="#FFFFFF" style="font-size:3px; font-family:Arial" x="167" y="285">Min: 10.2 km</text><text fill="#FFFFFF" style="font-size:3px; font-family:Arial" x="167" y="290">Max: 14.0 km</text><polyline fill="none" opacity="1" points="26.845507641526638,75.59999999999854 26.750402607111027,75.44765925441607 26.663943484978518,75.2517921635299 26.59477618726669,75.01239841381903 26.56019253836712,74.72947762218973 26.620713923912263,74.37038443520578 26.646651660557836,74.08746141708252 26.629359836078947,73.77189227781491 26.612068011658266,73.44544015953579 26.629359836078947,73.1298685368165 26.63800574830384,72.8034138493822 26.65529757272452,72.5313672785851 26.672589397174306,72.2484378826266 26.845507641526638,72.07432699738274 27.113530920207268,72.04168116502115 27.26915734008071,71.99815336822212 27.2778032522765,71.81315997274942 27.329678725567646,71.61728415556718 27.338324637821643,71.3561156677315 27.312386901146965,70.98612554532883 27.053009534662124,70.82289407552162 26.86279946594732,70.64878014766873 26.931966763659148,70.22437589165929 26.975196324754506,69.9305562671143 27.02707179801655,69.59320650424343 27.061655446887016,69.2776199791333 27.113530920207268,68.96203223312477 27.13946865685284,68.67909045729903 27.191344130114885,68.48320711450651 27.260511427855818,68.37438283194206 27.26915734008071,68.18938121834071 27.21728186676046,68.10232149032527 27.29509507669718,67.92820175548695 27.364262374467216,67.66702145633462 27.424783759954153,67.40584032093466 27.493951057695085,67.11201054396224 27.597702004248276,66.76376647472352 27.666869301960105,66.49169976114354 27.761974336317508,66.20874941638613 27.926246668444946,66.18698396461696 28.12510264944285,66.2849284519034 28.35854227922391,66.21963214007701 28.600627821258968,66.04550838640716 28.687086943449685,65.80608761812618 28.842713363323128,65.50136926028063 28.99833978319657,65.1966497640824 29.16261211532401,64.91369492685044 29.326884447422344,64.64162204230524 29.465219042846,64.36954825022258 29.629491374944337,64.06482452560886 29.776471882651094,63.77098271298746 29.975327863619896,63.4009581838618 30.200121581205167,63.04181512375362 30.41626938659465,62.62825448953663 30.615125367534347,62.29087452425301 30.779397699632682,62.018792890550685 30.960961856151698,61.73582702864951 31.11658827602514,61.49639360951551 31.272214695927687,61.25695948741486 31.45377885250491,60.97399098240567 31.626697096799035,60.64748764129763 31.73909395557712,60.33186650240532 31.877428551000776,60.038011240641936 32.10222226861515,59.765922091246466 32.37889145954978,59.58090095115767 32.5604556160979,59.34146120564401 32.71608203597134,59.08025340878521 32.8544166314241,58.94964919663471 32.94087575355661,58.75374248623848 33.0532726123929,58.52518406265153 33.11379399787984,58.34016010778578 33.28671224217396,58.231322291154356 33.44233866207651,58.19867091785272 33.55473552085459,58.16601953149075 33.684424204111565,58.02453003944538 33.84005062401411,57.850388789200224 34.02161478053313,57.632711703467066 34.220470761472825,57.3823823366256 34.3501594447298,57.2191236399085 34.27234623476397,56.881721297722834 34.28963805921376,56.60962161782663 34.402034918020945,56.37017314854165 34.62682863563532,56.119839906226844 34.79974687995855,55.89127410078072 34.91214373873663,55.586518697062274 35.06777015863918,55.28176215444546 35.29256387625355,55.03142557098181 35.5432953305135,54.80285671497404 35.68162992593716,54.57428721830365 35.81996452138992,54.26952689285099 35.94965320461779,53.953881069297495 36.15715509778238,53.69265601555526 36.45111611316679,53.649118425222696 36.64997209413559,53.453198981136666 36.75372304068878,53.14843446586747 36.8315362505964,52.84366881159076 36.883411723945756,52.57155565771973 36.96122493385337,52.21236490424053 37.05632996823988,51.85317256860435 37.12549726595171,51.635479473923624 37.1427890904306,51.47220927154558 37.211956388142426,51.200091541031725 37.27247777362936,50.83000997029012 37.36758280804497,50.4599267198937 37.47133375459816,50.035417393708485 37.51456331566442,49.71975518006366 37.59237652565935,49.36055186422891 37.67883564776275,49.066657065210165 37.75664885772858,48.67479568532144 37.81717024324462,48.30470265293843 37.877691628731554,47.95637826438178 37.97279666311806,47.597167180196266 38.04196396082989,47.2488397690322 38.11113125857082,46.95493735837226 38.18894446847844,46.59572186223522 38.24946585402358,46.29093171531713 38.30998723951052,46.01879669277696 38.35321680063498,45.88817155933066 38.39644636170124,45.61603519249911 38.45696774718817,45.28947035327292 38.534780957124894,44.93024751939083 38.62124007931561,44.592794324642455 38.68176146480255,44.2226827630584 38.69040737702744,44.15736878369353 38.7249910258688,43.92876944377349 38.78551241138484,43.634855064919975 38.87197153357556,43.24296757823322 38.923847006837605,42.90550739972241 39.00166021674522,42.589817581094394 39.05353569009458,42.393871561544074 39.10541116335662,42.241468776344846 39.1227029877773,42.143495406839065 39.17457846106845,42.023750017542625 39.13999481225619,41.83868861543306 39.14864072445198,41.58831075565104 39.183224373322446,41.32704608219501 39.252391671034275,41.07666665108991 39.30426714432542,40.88071699471766 39.51176903749001,40.89160309910949 39.779792316199746,40.989577973115956 40.06510741930106,41.098438806060585 40.33313069801079,41.17464130269218 40.41094390791841,41.01135015128966 40.436881644593086,40.79362810739258 40.428235732368194,40.53236088715494 40.436881644593086,40.17311709217756 40.46281938123866,39.78121296490281 40.506048942304915,39.45462475303066 40.51469485452981,39.182466910344374 40.376360259077046,38.99739905833121 40.09104515594663,39.062717171727854 39.779792316199746,39.11714889292489 39.598228159651626,39.095376208788366 39.65010363294277,38.77967163571884 39.701979106263025,38.46396584004833 39.77114640397485,38.14825882171863 39.83166778952,37.799891037720954 39.93541873607319,37.45152176503325 39.97864829713944,37.15758403316431 40.03052377043059,36.83098531023279 40.06510741930106,36.526158654975006 40.108336980396416,36.275764478283236 40.07375333152595,36.16689720501745 40.14292062926688,36.04714303651417 40.3244847857859,35.94916222233587 40.45417346901377,35.82940773395967 40.3244847857859,35.687879475415684 40.27260931249475,35.53546415296296 40.28990113691543,35.36127486409532 40.35906843462726,35.33950117679342 40.54063259117538,35.383048545547354 40.73084265991929,35.36127486409532 40.86917725537205,35.40482222120045 41.033449587470386,35.33950117679342 41.206367831793614,35.31772748367803 41.27553512950544,35.1217639840761 41.31011877840501,34.718948644229386 41.34470242721727,34.305244331335416 41.38793198831263,34.03306929618702 41.39657790050842,33.728232177891186 41.4138697249291,33.575813191215275 41.43116154940799,33.379845503870456 41.36199425169616,33.26008724080748 41.16313827072736,33.22742586577806 40.94699046527967,33.19476447768102 40.78271813321044,33.09678023484594 40.566570327820955,33.064118794376554 40.25531748807407,32.99879587423493 39.94406464829808,32.933472901713685 39.6241658962972,32.85726270094165 39.330204880970996,32.79193961498822 38.99301430457854,32.71572928191017 38.77686649913085,32.60685725388612 38.57801051822025,32.58508283083211 38.31863315173541,32.574195617118676 37.998734399763634,32.55242118532624 37.72206520882901,32.541533967261785 37.38487463243655,32.50887230430817 37.11685135375592,32.47621062829421 36.79695260178414,32.44354893918353 36.50299158645794,32.421774472502875 36.46840793755837,32.400000000001455 36.39059472762165,32.6177444632267 36.32142742990982,32.79193961498822 36.295489693264244,32.97702155587467 36.25226013219799,33.20565160849219 36.234968307748204,33.41250681784004 36.191738746652845,33.61936150220572 36.09663371229544,33.804441564345325 36.00152867793804,33.95686012348597 35.923715467972215,34.16371342646016 35.88048590690596,34.305244331335416 35.81131860919413,34.49032283612905 35.724859487003414,34.65362705018924 35.6384003648418,34.84959167527995 35.551941242680186,35.02378205756395 35.46548212057678,35.132650857500266 35.35308526176959,35.426595891032775 35.27527205180377,35.687879475415684 35.136937456351006,35.970935746780015 35.00724877312314,36.29753791548865 34.851622353249695,36.62413877562358 34.70464184557204,36.92896506450779 34.566307250090176,37.21201702642429 34.4452644790872,37.49506800553354 34.28963805921376,37.81077755350998 34.134011639340315,38.0938264536162 34.01296886833734,38.37687437089335 33.90921792172594,38.58371645818261 33.865988360659685,38.70346690042061 33.788175150722964,38.77967163571884 33.69307011636556,38.87764904787764 33.675778291915776,39.160694243677426 33.55473552085459,39.45462475303066 33.381817276531365,39.72678168711718 33.312649978819536,39.92273411709175 33.269420417782385,40.053368808752566 33.485568223142764,40.1404584868651 33.77088332630228,40.1404584868651 34.08213616604917,40.18400329105498 34.419326742441626,40.227548071976344 34.739225494413404,40.27109282964375 35.05047833418939,40.314637564035365 35.35308526176959,40.35818227518757 35.6470462770958,40.390840793261304 35.863194082456175,40.37995462203253 35.941007292422,40.20577568441513 35.99288276571315,39.9989377126476 35.98423685351736,39.824757961017895 36.08798780007055,39.846530450296996 36.191738746652845,39.944506580228335 36.18309283448616,40.20577568441513 36.11392553674523,40.58679162707995 36.03611232680851,40.93514750205941 35.97559094126336,41.29438793913141 35.906423643551534,41.65362679321697 35.81996452138992,42.023750017542625 35.759443135902984,42.339442028103804 35.716213574807625,42.622475205222145 35.62110854045022,42.959936555242166 35.66433810154558,43.24296757823322 35.551941242680186,43.53688336984487 35.387668910610955,43.787255245493725 35.309855700674234,44.08116907495423 35.23204249073751,44.396853118989384 35.23204249073751,44.66899355522037 35.27527205180377,44.85404853298678 35.387668910610955,45.093530821905006 35.30120978844934,45.430981944169616 35.249334315158194,45.81197346817498 35.1455833685759,46.225619392724184 35.08506198305986,46.5739511752472 35.041832421993604,46.933166767295916 35.02454059757292,47.2597250231629 35.01589468534803,47.5862819711183 35.01589468534803,47.93460794073326 34.99860286092735,48.28293242226937 34.98995694867335,48.63125541579211 34.96401921202778,48.968691896770906 34.9467273876362,49.27347203422687 34.91214373873663,49.60002091727074 34.851622353249695,49.93745338924782 34.773809143312974,50.28576931499265 34.773809143312974,50.590544529492036 34.773809143312974,50.93885766544554 34.713287757796934,51.25451515980967 34.592244986764854,51.635479473923624 34.38474309362937,51.91848038366152 34.17724120040657,52.114403515101 33.90921792172594,52.321210754220374 33.70171602856135,52.528017468859616 33.44233866207651,52.74570818081702 33.30400406662375,52.930744829020114 33.20889903223724,53.07224315908388 33.07921034900937,53.23551015787234 32.958167578006396,53.420545694738394 32.87170845584478,53.714424801983114 32.72472794816713,54.04095590128418 32.5604556160979,54.35660138775711 32.38753737177467,54.672245652436686 32.2578486885177,54.90081487457064 32.214619127480546,55.17292025605275 32.30972416183795,55.34706722372357 32.40482919619535,55.56475041034719 32.283786425192375,55.8477376842784 32.30107824958395,55.98923095300415 32.283786425192375,55.95657868199487 32.12816000531893,56.076303611720505 31.9552417609666,56.31575294385402 31.773677604447585,56.59873761176277 31.540237974608317,56.82730143435765 31.350027905893512,57.088516447242 31.2635687837319,57.338846716120315 31.133880100474926,57.632711703467066 31.004191417247057,57.78508572447754 30.80533543630736,57.77420187527605 30.571895806438988,57.78508572447754 30.295226615591673,57.719782607469824 29.992619688011473,57.708898749551736 29.690012760460377,57.708898749551736 29.534386340616038,57.719782607469824 29.396051745134173,57.74155031896953 29.326884447422344,57.893924136624264 29.214487588615157,58.089832912439306 29.128028466453543,58.30750877805258 29.07615299313329,58.623137751215836 28.955110222130315,58.84081219341169 28.903234748839168,58.982300269271946 28.83406745112734,59.05848605461506 28.600627821258968,59.276159334862314 28.40177184031927,59.48294841298048 28.341250454832334,59.71150415245211 28.419063664769055,59.86387428958551 28.488230962480884,59.97270992757694 28.514168699126458,60.17949723957281 28.574690084642498,60.408051027065085 28.56604417244671,60.49511896810873 28.410417752544163,60.36451702169143 28.246145420445828,60.614837235276354 28.09051900054328,60.876040117313096 27.934892580640735,61.09370854665758 27.770620248571504,61.365793266413675" stroke="#4DD2FF" stroke-dasharray="none" stroke-linecap="round" stroke-linejoin="round" stroke-width="0.5"><title>2017-12-17 14.0km</title><desc>9223370523376934807</desc></polyline><polyline fill="none" opacity="1" points="100.62911881197942,32.40000000000873 100.65588982525514,32.66951946838526 100.669275331893,32.98957309035177 100.68266083853086,33.292781036841916 100.65588982525514,33.595988255605334 100.65588982525514,33.94972909105127 100.57557678542798,34.269779469643254 100.52203475881834,34.471916133057675 100.669275331893,34.67405247307033 100.62911881197942,35.448905446974095 100.7362028650241,35.73526295198826 100.85667242482305,36.021619807957904 100.89682894479483,36.32482047738449 100.9369854646502,36.69539808512491 100.95037097128807,37.049130242157844 100.97714198450558,37.402861408743775 101.03068401111523,37.73974731328781 101.13776806421811,38.02609962587303 101.17792458413169,38.32929548472748 101.21808110404527,38.61564646102488 101.2448521173792,38.93568501944537 101.40547819703352,39.03674965888786 101.60626079654321,39.15465830282483 101.61964630323928,39.32309903179703 101.48579123686068,39.441007408488076 101.33855066378601,39.59260373101279 101.41886370361317,39.828419871249935 101.55271876999177,40.1484553575865 101.68657383637037,40.46849003325042 101.75350136955967,40.754836161097046 101.87397092930041,41.05802547145868 102.02121150231687,41.36121405432641 102.19522308860905,41.66440190956928 102.27553612849442,41.95074532700528 102.0479825155926,42.10233863822941 101.79365788947325,41.98443274523015 101.59287528990535,41.8328392925323 101.35193617048208,41.66440190956928 101.15115357085597,41.748620629063225 100.91021445137449,41.765464366282686 100.68266083853086,41.849683018474025 100.669275331893,42.085494945946266 100.68266083853086,42.33815009414684 100.45510722568724,42.489742940539145 100.21416810620576,42.57396110998525 99.9330724668107,42.65817922324641 99.65197682735743,42.67502283914655 99.59843480080599,42.456055657108664 99.65197682735743,42.22024442120164 99.74567537388066,41.88337046361994 99.83937392034568,41.613870650864556 99.89291594689712,41.243307469645515 99.94645797344856,40.85589934539166 99.90630145353498,40.56955344660673 99.85275942698354,40.16529930807883 99.69213334727101,39.96317175378499 99.38426669465844,39.996859701976064 99.17009858845267,39.845263864452136 99.1299420685391,39.710511856144876 99.10317105520517,39.49153953616042 99.10317105520517,39.27256683669111 98.98270149552263,39.171502385812346 98.80868990917224,39.15465830282483 98.6212928162422,39.13781421758176 98.52759426983539,39.22203462138714 98.5543652830529,39.50838357426983 98.56775078969076,39.828419871249935 98.56775078969076,40.1484553575865 98.59452180296648,40.4516461231251 98.60790730966255,40.788523898183485 98.60790730966255,41.14224459526304 98.60790730966255,41.445432975975564 98.60790730966255,41.748620629063225 98.60790730966255,42.034963855694514 98.6212928162422,42.33815009414684 98.63467832293827,42.65817922324641 98.64806382951792,42.89398964174325 98.63467832293827,43.11295606486965 98.6212928162422,43.315078580140835 98.60790730966255,43.584574764216086 98.58113629638683,43.82038345372712 98.56775078969076,43.97197452168621 98.54097977641504,44.22462589753559 98.51420876313932,44.443590014605434 98.51420876313932,44.67939710090286 98.51420876313932,44.932047062175116 98.51420876313932,45.23522634879919 98.51420876313932,45.57209136962774 98.50082325655967,45.892112307512434 98.51420876313932,46.195289290481014 98.51420876313932,46.498465546028456 98.54097977641504,46.801641074082 98.5543652830529,47.13850191872916 98.54097977641504,47.39114696282195 98.54097977641504,47.69432034897909 98.51420876313932,47.930121368626715 98.52759426983539,48.16592194822442 98.47405224322574,48.41856493802334 98.52759426983539,48.688050237018615 98.56775078969076,48.940692182892235 98.60790730966255,49.24386185112235 98.64806382951792,49.54703079194587 98.6882203494315,49.91756962072395 98.78191889589652,50.28810736288142 98.87561744230334,50.64180146683066 98.98270149552263,50.87759698610171 99.08978554862551,51.19760448706802 99.19686960167019,51.50076874039951 99.31733916146914,51.75340506255452 99.38426669465844,51.871301840030355 99.46457973442739,52.09025270640268 99.58504929422634,52.326045522800996 99.63859132077778,52.578680194958 99.67874784069136,52.71341848028533 99.77244638715638,52.8818411349057 99.91968696011463,52.99973685950681 100.0,53.18500134747592 100.12046955974074,53.33658118099265 100.24093911948148,53.53868734292337 100.3346376658883,53.74079318159784 100.52203475881834,53.92605658301909 100.70943185186479,54.14500388913439 100.88344343809877,54.397634924724116 101.05745502439095,54.65026545539149 101.21808110404527,54.886053494905354 101.28500863723457,55.00394734967267 101.39209269033745,55.23973472928628 101.56610427662963,55.50920548153226 101.72673035634216,55.71130816861114 101.91412744921399,56.0313034287974 102.0479825155926,56.233405280901934 102.20860859530512,56.519715684786206 102.36923467490124,56.789183707587654 102.5164752479177,57.04180945712142 102.7172578475438,57.36180134820461 102.87788392719813,57.63126757541613 103.06528102012817,57.917574812236126 103.25267811305821,58.20388140036084 103.42668969929218,58.490187339892145 103.62747229891829,58.827017026545946 103.78809837857261,59.07963870232925 104.00226648477837,59.39962543343427 104.14950705773663,59.652245964622125 104.26997661753558,59.87118334979459 104.4306026971899,60.10696164818364 104.59122877690243,60.37642202191637 104.76524036319461,60.645881821154035 104.89909542957321,60.8648174849659 105.05972150922753,61.11743508730433 105.24711860209936,61.3700521846913 105.43451569508761,61.639509865271975 105.58175626810407,61.90896697140124 105.71561133442447,62.161582486573025 105.88962292077485,62.48156141425716 106.07702001364669,62.784698598465184 106.23764609335922,63.05415326288494 106.4116576796514,63.35728907366865 106.63921129249502,63.694105788410525 106.8132228787872,63.96355851391854 106.96046345180366,64.18248843037873 107.12108953139978,64.46878082586045 107.29510111775016,64.75507257274876 107.46911270398414,65.07504493417218 107.65650979697239,65.3950164855778 107.80375036998885,65.68130613432731 107.95099094306352,65.98443564382615 108.09823151602177,66.3044048929005 108.20531556912465,66.60753290799039 108.28562860895181,66.94434096086479 108.32578512886539,67.12958500739478 108.21870107582072,67.26430777975474 108.16515904921107,67.38219008783926 108.24547208903823,67.2979884504166 108.37932715535862,67.28114811623527 108.47302570188185,67.50007228592585 108.55333874170901,67.76951689721318 108.6604227948119,68.0558011674002 108.78089235455263,68.37576517254638 108.90136191435158,68.71256851339422 109.00844596739626,69.04937095678179 109.10214451386128,69.30197220032278 109.1958430603263,69.58825299935415 109.31631262012525,69.87453314992308 109.42339667316992,70.14397269939946 109.5304807262728,70.41341167442442 109.61079376609996,70.64917030640936 109.66433579270961,70.88492849863542 109.74464883253677,71.17120571233681 109.85173288563965,71.45748227757576 109.95881693874253,71.77743767146603 110.05251548520755,72.06371286368812 110.14621403161436,72.33314774636528 110.25329808471724,72.65310092363507 110.3336111245444,72.88885537809983 110.46746619098121,73.20880714867963 110.5745502440841,73.47823959043308 110.68163429718697,73.76451093058859 110.80210385692772,74.06762105462258 110.9091879100306,74.32021226939105 111.00288645649562,74.55596361446078 111.08319949638098,74.79171451978618 111.21705456270138,75.01062568106863 111.27059658925282,75.12850076470932 111.3107531092246,75.29689355062146 111.27059658925282,75.5326430741261 111.1099705095985,75.56632154152612 110.94934442994418,75.36425060220063 110.78871835023165,75.14534005337919 110.5745502440841,74.84223251372168 110.3336111245444,74.55596361446078 110.05251548520755,74.23601525388949 109.77141984581249,74.01710275108053 109.54386623296887,73.76451093058859 109.27615610021167,73.5119186053198 109.0619879940059,73.24248623526364 108.83443438110407,73.04041158090695 108.56672424840508,72.78781780858117 108.31239962222753,72.53522353150765 108.04468948947033,72.28262874961365 107.80375036998885,72.03003346295736 107.5494257438695,71.77743767146603 107.2817156111123,71.55852091053384 107.00061997171724,71.35644356389821 106.70613882568432,71.22172515330021 106.35811565309996,71.12068625111715 106.01009248045739,71.05332693817036 105.68884032114875,71.01964726821461 105.3675881618401,70.93544805409329 105.07310701580718,70.86808864235354 104.75185485649854,70.80072919475788 104.4306026971899,70.75020958550158 104.10935053788126,70.71652983479726 103.72117084544152,70.59865063658799 103.49361723253969,70.53129104539403 103.33299115288537,70.49761123626377 103.14559405995533,70.46393141828594 102.94481146038743,70.41341167442442 102.73064335418167,70.39657175535103 102.54324626125162,70.3628919103212 102.35584916826338,70.32921205640014 102.16845207533333,70.2955321935151 101.95428396918578,70.24501238230732 101.75350136955967,70.19449255093059 101.55271876999177,70.12713274435373 101.37870718369959,70.07661286587245 101.01729850447737,69.90821312503249 100.68266083853086,69.77349317084008 100.32125215930864,69.65561309311306 100.08031303982716,69.60509302618448 99.74567537388066,69.50405283166037 99.42442321451381,69.40301255635859 99.07640004192945,69.30197220032278 98.72837686940329,69.20093176348018 98.36696819012286,69.09989124585991 98.11264356400352,68.99885064746195 97.69769285822986,68.93149020370038 97.3496696856455,68.76308893712121 97.05518853955436,68.66204806948372 96.85440594004467,68.59468744622427 96.57331030064961,68.47680626907095 96.2386726346449,68.39260536088841 95.93080598203233,68.22420337634685 95.59616831602762,68.02212069870438 95.28830166335683,67.82003769790754 94.99382051732391,67.56743349258613 94.7662669045385,67.28114811623527 94.55209879827453,66.9948620913201 94.48517126508523,66.75909664283972 94.39147271862021,66.54017118964111 94.2576176521834,66.3212453572487 94.13714809250087,66.11915963693173 94.00329302612226,65.91707359347492 93.86943795974366,65.61394392239163 93.69542637345148,65.29397292526846 93.5214147871593,64.94031982813613 93.36078870750498,64.55298434810538 93.16000610793708,64.16564768101671 92.95922350831097,63.744628218206344 92.785211922077,63.44149333648966 92.63797134906054,63.1215168392373 92.477345269348,62.76785766283865 92.30333368311403,62.363674535183236 92.11593659018399,61.959490114764776 91.91515399055788,61.572145498998 91.72775689768605,61.167958547128364 91.54035980475601,60.79745270575222 91.3395772051299,60.42694577803195 91.17895112547558,60.03959646495059 90.99155403254554,59.652245964622125 90.84431345952908,59.33225987320475 90.6703018732369,58.944907204742776 90.50967579358257,58.64176081000187 90.38920623384183,58.40597977794823 90.30889319401467,58.08599053090438 90.16165262099821,57.698634042433696 90.06795407447498,57.32811802942888 89.98764103476424,56.923917503489065 89.92071350145852,56.62076626064663 89.88055698160315,56.28393069343292 89.82701495505171,55.8628849718516 89.80024394177599,55.52604738449736 89.76008742186241,55.104999137693085 89.70654539531097,54.76815953014011 89.66638887539739,54.41447697584226 89.67977438203525,54.06079343162128 89.63961786212167,53.67342460456712 89.65300336870132,53.31973898627621 89.67977438203525,52.9828946198686 89.66638887539739,52.62920706880686 89.66638887539739,52.27551852776378 89.57269032899057,51.871301840030355 89.51914830238093,51.50076874039951 89.4923772891052,51.0965495743003 89.46560627577128,50.77654181740945 89.45222076924983,50.38916292223439 89.41206424927805,50.10283862760116 89.34513671608875,49.78282835414575 89.3585222227266,49.34491824558063 89.43883526255377,48.99122051142331 89.46560627577128,48.60383614282182 89.46560627577128,48.36803638047422 89.47899178246735,48.11539328961226 89.50576279574307,47.99749300767144 89.45222076924983,47.72800623586227 89.41206424927805,47.40798994778015 89.38529323594412,47.071129821648356 89.3585222227266,46.7342687973578 89.34513671608875,46.46477933131973 89.30498019617517,46.07738721687929 89.224667156348,45.67315070076438 89.21128164971014,45.28575615916634 89.18451063643442,44.88151711031969 89.1577396231005,44.61202369260718 89.11758310318692,44.22462589753559 89.06404107669368,43.92144418595126 89.06404107669368,43.70247916398512 89.07742658333154,43.348765634567826 89.07742658333154,43.011894685958396 89.06404107669368,42.67502283914655 89.0238845567801,42.38868106313748 88.97034253022866,42.034963855694514 88.94357151695294,41.698089404104394 88.9569570235908,41.32752646994777 88.98372803686652,41.024337806287804 88.94357151695294,40.63692901056493 88.8900294903433,40.31689476162137 88.86325847712578,39.946327776357066 88.86325847712578,39.64313579816371 88.8900294903433,39.525227610138245 88.90341499703936,39.30625496900757 88.86325847712578,39.07043785417045 88.84987297048792,38.76724377396749 88.79633094387827,38.48089314124081 88.71601790410932,38.110320770792896 88.70263239741325,37.73974731328781 88.6892468907754,37.38601708994247" stroke="#4DD2FF" stroke-dasharray="none" stroke-linecap="round" stroke-linejoin="round" stroke-width="0.5"><title>2017-11-19 11.8km</title><desc>9223370525802103807</desc></polyline><polyline fill="none" opacity="0.5" points="180.76343792607076,68.18561010353733 179.99727148679085,68.04585355264135 179.17216916754842,68.04585355264135 178.40600272850133,68.04585355264135 177.52196452906355,67.83621866808971 176.69686220982112,67.06755682604853 175.75388813065365,66.99767843034351 174.98772169137374,66.92780002672225 174.04474761220627,66.64828633441357 173.27858117292635,66.78804319613846 172.45347885368392,66.71816476911772 171.51050477451645,66.78804319613846 170.68540245550685,66.57840789185138 169.8013642563019,66.71816476911772 168.8583901769016,66.85792161518475 167.8564802177716,66.508529441664 167.031377898762,66.36877251783153 166.32414733921178,66.22901556291617 165.49904502020217,66.22901556291617 164.73287858092226,65.94950156001141 163.8488403817173,65.94950156001141 163.02373806247488,65.80974451173097 162.31650750292465,66.01938007236458 161.07885402441025,65.4603517553769 160.07694406528026,65.32059459848097 159.1339699861128,65.25071600847878 158.07312414702028,65.32059459848097 157.66057298751548,65.39047318097437 156.54079126846045,65.66998743242584 155.12633014982566,65.04108019161504 154.12442019069567,64.20253622456221 153.24038199149072,64.41217232111376 152.23847203236073,64.06277878809487 151.35443383362144,63.9230213201954 150.64720327407122,64.06277878809487 149.93997271475382,63.85314257477876 149.2327421552036,63.57362751511391 148.34870395623147,63.64350629178807 147.58253751671873,63.99290005804505 146.28594815800898,63.57362751511391 145.57871759869158,63.15435469261138 145.22510231891647,62.385687124566175 144.75361527944915,61.617018616583664 144.69467939948663,60.498953654256184 144.81255115941167,59.52064518019324 144.81255115941167,58.40257648820989 144.69467939948663,57.4242647512001 144.69467939948663,56.096553529205266 144.51787175959907,55.397757022525184 144.39999999990687,54.34956080571283 144.6357435195241,53.37124275940005 144.6357435195241,52.53268322191434 144.8714870393742,51.83388275257312 144.69467939948663,50.92544098076178 144.9893587990664,49.94711760425707 144.9304229193367,48.89891229645582 145.10723055922426,48.26998827245552 145.16616643918678,47.012138336664066 145.10723055922426,45.89404739101883 145.16616643918678,44.91571618191665 145.22510231891647,44.14702630636748 145.40190995880403,43.23857342306292 145.57871759869158,42.26023808011087 145.40190995880403,41.28190121386433 145.40190995880403,40.58308823406696 145.284038198879,39.74451163271442 145.40190995880403,40.58308823406696 145.40190995880403,41.28190121386433 145.57871759869158,42.26023808011087 145.40190995880403,43.23857342306292 145.22510231891647,44.14702630636748 145.16616643918678,44.91571618191665 145.10723055922426,45.89404739101883 145.16616643918678,47.012138336664066 145.10723055922426,48.26998827245552 144.9304229193367,48.89891229645582 144.9893587990664,49.94711760425707 144.69467939948663,50.92544098076178 144.8714870393742,51.83388275257312 144.6357435195241,52.53268322191434 144.6357435195241,53.37124275940005 144.39999999990687,54.34956080571283 144.51787175959907,55.397757022525184 144.69467939948663,56.096553529205266 144.69467939948663,57.4242647512001 144.81255115941167,58.40257648820989 144.81255115941167,59.52064518019324 144.69467939948663,60.498953654256184 144.75361527944915,61.617018616583664 145.22510231891647,62.385687124566175 145.57871759869158,63.15435469261138 146.28594815800898,63.57362751511391 147.58253751671873,63.99290005804505 148.34870395623147,63.64350629178807 149.2327421552036,63.57362751511391 149.93997271475382,63.85314257477876 150.64720327407122,64.06277878809487 151.35443383362144,63.9230213201954 152.23847203236073,64.06277878809487 153.24038199149072,64.41217232111376 154.12442019069567,64.20253622456221 155.12633014982566,65.04108019161504 156.54079126846045,65.66998743242584 157.66057298751548,65.39047318097437 158.07312414702028,65.32059459848097 159.1339699861128,65.25071600847878 160.07694406528026,65.32059459848097 161.07885402441025,65.4603517553769 162.31650750292465,66.01938007236458 163.02373806247488,65.80974451173097 163.8488403817173,65.94950156001141 164.73287858092226,65.94950156001141 165.49904502020217,66.22901556291617 166.32414733921178,66.22901556291617 167.031377898762,66.36877251783153 167.8564802177716,66.508529441664 168.8583901769016,66.85792161518475 169.8013642563019,66.71816476911772 170.68540245550685,66.57840789185138 171.51050477451645,66.78804319613846 172.45347885368392,66.71816476911772 173.27858117292635,66.78804319613846 174.04474761220627,66.64828633441357 174.98772169137374,66.92780002672225 175.75388813065365,66.99767843034351 176.69686220982112,67.06755682604853 177.52196452906355,67.83621866808971 178.40600272850133,68.04585355264135 179.17216916754842,68.04585355264135 179.99727148679085,68.04585355264135 180.76343792607076,68.18561010353733 181.82428376493044,68.25548836728558 182.7672578440979,68.18561010353733 183.71023192326538,68.18561010353733 184.71214188239537,68.04585355264135 185.47830832167529,68.25548836728558 186.18553888099268,68.18561010353733 187.3053206000477,67.97597526543541 187.5999999998603,66.99767843034351" stroke="#4DD2FF" stroke-dasharray="1,0.5" stroke-linecap="round" stroke-linejoin="round" stroke-width="0.5"><title>2014-03-22 10.5km</title><desc>9223370641410674807</desc></polyline><polyline fill="none" opacity="1" points="55.600000000034925,100.3030931625035 55.45218978106277,100.32707841735828 55.31423357670428,100.2911005329006 55.16642335767392,100.26711526934378 55.0383211679291,100.25512263538985 54.92992700729519,100.31508579064393 54.7919708029367,100.2911005329006 54.673722627805546,100.26711526934378 54.53576642338885,100.2911005329006 54.39781021903036,100.26711526934378 54.29927007301012,100.19515944377054 54.19087591243442,100.18316680111457 54.0627737226896,100.19515944377054 53.93467153288657,100.23113736307278 53.78686131385621,100.23113736307278 53.66861313872505,100.24312999995163 53.54051094892202,100.19515944377054 53.3828467153362,100.20715208502224 53.2744525547605,100.21914472476783 53.11678832117468,100.21914472476783 52.97883211681619,100.21914472476783 52.870437956240494,100.21914472476783 52.72262773726834,100.21914472476783 52.59452554752352,100.20715208502224 52.476277372275945,100.19515944377054 52.35802919708658,100.18316680111457 52.239781021897215,100.1711741569743 52.11167883215239,100.20715208502224 51.98357664234936,100.20715208502224 51.85547445260454,100.19515944377054 51.72737226280151,100.1711741569743 51.59927007299848,100.14718886436458 51.510583941591904,100.14718886436458 51.36277372267796,100.14718886436458 51.22481751826126,100.1711741569743 51.09671532851644,100.1711741569743 50.96861313871341,100.15918151137157 50.83065693435492,100.12320356597047 50.712408759165555,100.14718886436458 50.584306569362525,100.14718886436458 50.42664233583491,100.13519621589512 50.318248175259214,100.09921826174832 50.16058394161519,100.08722560744354 50.01277372270124,100.12320356597047 49.85510948905721,100.12320356597047 49.736861313926056,100.13519621589512 49.5890510949539,100.12320356597047 49.47080291976454,100.12320356597047 49.33284671534784,100.13519621589512 49.22445255483035,100.12320356597047 49.09635036496911,100.1112109145688 48.96824817522429,100.13519621589512 48.84014598542126,100.12320356597047 48.712043795676436,100.12320356597047 48.60364963510074,100.14718886436458 48.46569343074225,100.15918151137157 48.35729927010834,100.15918151137157 48.22919708030531,100.15918151137157 48.061678832164034,100.14718886436458 47.953284671588335,100.14718886436458 47.795620438002516,100.14718886436458 47.70693430665415,100.14718886436458 47.57883211679291,100.14718886436458 47.45072992704809,100.13519621589512 47.32262773724506,100.14718886436458 47.18467153282836,100.1112109145688 47.066423357697204,100.1112109145688 46.91861313872505,100.09921826174832 46.78065693436656,100.09921826174832 46.65255474456353,100.08722560744354 46.54416058398783,100.08722560744354 46.406204379571136,100.12320356597047 46.248540146043524,100.14718886436458 46.13029197085416,100.12320356597047 45.99233576649567,100.1112109145688 45.86423357663443,100.09921826174832 45.745985401503276,100.0752329516763 45.58832116791746,100.09921826174832 45.47007299272809,100.0752329516763 45.32226277375594,100.0632402945048 45.18430656939745,100.0632402945048 45.04635036498075,100.09921826174832 44.91824817523593,100.08722560744354 44.76058394165011,100.0512476358781 44.61277372267796,100.02726231423003 44.48467153287493,100.01526965120865 44.34671532845823,99.9792916535007 44.20875912409974,99.99128432084399 44.090510948968586,100.00327698676847 43.962408759165555,100.02726231423003 43.84416058397619,100.03925497578894 43.71605839423137,100.08722560744354 43.58795620437013,100.08722560744354 43.45000000001164,100.0752329516763 43.32189781026682,100.0632402945048 43.21350364969112,100.0512476358781 43.08540145988809,100.0752329516763 42.95729927014327,100.0632402945048 42.8390510949539,100.08722560744354 42.69124087592354,100.0512476358781 42.54343065695139,100.0752329516763 42.43503649637569,100.0512476358781 42.29708029195899,100.0512476358781 42.16897810221417,100.0512476358781 42.06058394163847,100.01526965120865 41.92262773727998,99.99128432084399 41.77481751830783,100.00327698676847 41.627007299277466,100.01526965120865 41.47919708036352,99.99128432084399 41.360948905174155,100.00327698676847 41.22299270075746,100.00327698676847 41.075182481785305,99.99128432084399 40.947080291982275,99.99128432084399 40.81897810223745,100.00327698676847 40.6711678832653,100.01526965120865 40.5332116788486,100.03925497578894 40.41496350365924,100.00327698676847 40.286861313914414,99.96729898470221 40.148905109555926,99.9792916535007 40.020802919752896,99.9553063144267 39.8828467153362,99.96729898470221 39.76459854020504,99.99128432084399 39.64635036501568,99.96729898470221 39.50839416065719,99.94331364273239 39.360583941685036,99.94331364273239 39.24233576643746,99.94331364273239 39.09452554746531,99.91932829494908 38.995985401503276,99.89534294135956 38.867883211700246,99.89534294135956 38.72992700734176,99.89534294135956 38.631386861379724,99.91932829494908 38.48357664234936,99.90733561886736 38.345620437990874,99.91932829494908 38.217518248187844,99.9553063144267 38.0697080292739,99.9553063144267 37.9317518248572,99.96729898470221 37.83321167883696,99.93132096958288 37.69525547447847,99.93132096958288 37.56715328473365,99.93132096958288 37.45875912415795,99.90733561886736 37.30109489051392,99.93132096958288 37.1729927007691,99.91932829494908 37.01532846718328,99.90733561886736 36.88722627743846,99.91932829494908 36.78868613141822,99.90733561886736 36.54233576642582,99.91932829494908 36.25656934309518,99.90733561886736 36.03978102194378,99.8713575819711 35.81313868617872,99.8713575819711 35.369708029262256,99.93132096958288 35.09379562048707,99.85936490010499 34.91642335773213,99.83537953196355 34.5715328467777,99.85936490010499 34.404014598578215,99.81139415806683 34.246350364992395,99.79940146895387 33.950729927106295,99.8473722167546 33.66496350365924,99.88335026239656 33.40875912416959,99.99128432084399 33.20182481757365,99.96729898470221 29.309489051171113,99.75143069785554 29.08284671540605,99.75143069785554 28.836496350413654,99.71545260434505 28.51131386862835,99.79940146895387 28.255109489080496,99.72744530363707 27.989051094977185,99.67947449772328 27.63430656940909,99.67947449772328 24.441605839470867,99.64349637806299 24.205109489092138,99.66748179260321 23.889781021978706,99.64349637806299 23.663138686213642,99.60751824529143 23.40693430666579,99.51157649407833 23.101459854107816,99.59552553146204 22.77627737232251,99.60751824529143 22.54963503649924,99.6195109576438 19.99744525551796,99.58353281620657 19.662408759177197,99.58353281620657 19.49489051097771,99.58353281620657 19.327372262836434,99.60751824529143 19.278102189826313,99.54755466169445 19.13029197085416,99.55954738130094 18.795255474513397,99.5715400994959 18.667153284710366,99.49958376865834 18.401094890548848,99.47559831346007 18.18430656939745,99.49958376865834 17.97737226280151,99.49958376865834 17.829562043829355,99.46360558366723 16.775182481796946,99.48759104178316 16.46970802929718,99.49958376865834 16.233211678860243,99.4156346499658 16.00656934309518,99.46360558366723 15.651824817585293,99.4516128523901 15.415328467206564,99.48759104178316 15.1886861314415,99.53556194062548 14.922627737279981,99.47559831346007 14.646715328504797,99.4516128523901 14.410218978184275,99.43962011972326 14.094890511012636,99.4156346499658 13.907664233644027,99.4156346499658 13.69087591249263,99.4276273855503 13.21788321173517,99.4516128523901 13.020802919752896,99.34367820588523 13.001094890525565,99.6195109576438 13.030656934366561,99.83537953196355 13.070072992763016,100.01526965120865 12.981386861356441,100.21914472476783 12.863138686225284,100.24312999995163 12.882846715394408,99.93132096958288 12.675912408856675,99.94331364273239 12.50839416065719,100.12320356597047 12.439416058419738,100.26711526934378 12.419708029250614,100.4589972152753 12.468978102260735,100.7947897262784 12.488686131429859,101.04663336258818 12.60693430667743,101.40640887516929 12.616788321232889,101.64625849098957 12.675912408856675,101.9220848312325 12.705474452639464,102.16193319849117 12.764598540205043,102.32982671002537 12.794160583987832,102.56967409006756 12.794160583987832,102.84549785920535 12.813868613215163,103.1213208604022 12.863138686225284,103.40913534715946 12.863138686225284,103.68495677904139 12.872992700780742,103.9607774429387 12.892700730008073,104.23659733893146 12.872992700780742,104.48843222543655" stroke="#4DD2FF" stroke-dasharray="none" stroke-linecap="round" stroke-linejoin="round" stroke-width="0.5"><title>2013-12-10 10.9km</title><desc>9223370650177580807</desc></polyline><polyline fill="none" opacity="1" points="88.72193137276918,102.58388032088988 88.96189028024673,106.37847101641819 88.2420135596767,109.29738287813962 88.2420135596767,113.09196302411146 88.2420135596767,116.01086677075364 89.4418080933392,118.34598722797818 91.84139716345817,121.84866367932409 94.72090404573828,123.01622136775404 98.56024655792862,123.60000000009313 102.15963016077876,122.43244259478524 104.07930141687393,119.80543636670336 106.71884939447045,117.47031732159667 108.39856174215674,113.38385355728678 108.39856174215674,110.17305574938655 109.59835627768189,106.08657963620499 110.07827409170568,102.87577212415636 110.79815081227571,99.08117592497729 111.7579864403233,94.70278828428127 111.7579864403233,92.07575188926421 111.51802753377706,87.69735154649243 110.31823299825191,84.19462555623613 108.87847955618054,81.85947207268327 105.51905485894531,80.98378893476911 103.11946578975767,80.4000000001397 99.28012327849865,80.6918944849167 96.16065748780966,82.44326065597124 93.04119169805199,85.36220145085827 90.64160262793303,88.57303225062788 90.40164372138679,92.36764496355318 89.92172590643167,95.87035909830593 89.4418080933392,99.37306815129705 88.72193137276918,102.58388032088988 88.72193137276918,106.37847101641819 88.2420135596767,110.17305574938655 88.72193137276918,113.96763451839797 89.20184918586165,117.47031732159667 91.36147934850305,119.80543636670336" stroke="#4DD2FF" stroke-dasharray="none" stroke-linecap="round" stroke-linejoin="round" stroke-width="0.5"><title>2013-11-30 10.3km</title><desc>9223370651086224807</desc></polyline><polyline fill="none" opacity="1" points="153.55881619919091,107.36570125445724 154.46362956706434,109.8421271899715 155.82084961794317,112.31855043233372 155.82084961794317,116.17075901036151 156.49945964291692,118.37201812700368 157.40427300985903,119.47264688764699 159.44010308664292,122.22421646025032 162.83315321430564,122.22421646025032 166.67861002590507,123.60000000009313 167.58342339284718,121.6739028126467 171.20267686247826,119.74780399515294 174.8219303302467,115.89560147118755 175.72674369905144,114.51981327589601 177.53637043293566,112.04339242749847 176.85776040703058,106.8153840135783 176.17915038205683,105.71474913298152 176.4053537240252,101.86252286075614 177.762573774904,96.90965093066916 177.762573774904,95.80901126144454 176.17915038205683,92.78224942437373 178.44118379987776,90.30580492829904 176.85776040703058,89.20516206463799 175.2743370141834,86.72871367656626 173.23850693926215,83.7019397658296 171.4288802035153,83.15161680453457 168.4882367597893,80.4000000001397 163.9641699232161,82.6012937091291 160.79732313752174,85.90323028201237 157.85667969379574,88.93000126630068 156.72566298395395,90.85612616012804 156.49945964291692,95.25869122636504 158.0828830357641,99.38608824228868 156.27325630094856,102.96315960329957 155.36844293307513,105.43959032977 156.0470529589802,107.64085982413962 155.1422395920381,110.6676019039005 155.36844293307513,113.69433995871805 155.36844293307513,117.27138883504085 157.40427300985903,118.64717536675744 160.118713112548,120.57327511627227 163.5117632402107,121.94905965286307 166.4524066830054,122.77452997583896 169.61925346869975,122.22421646025032 172.3336935704574,120.02296106843278 174.8219303302467,117.27138883504085 176.4053537240252,113.41918211965822 176.63155706506222,110.3924436995294 176.85776040703058,107.36570125445724 176.85776040703058,104.06379581429064 176.17915038205683,100.76188558526337 176.85776040703058,97.45997056690976 177.08396374993026,94.70837105903774 177.98877711594105,91.40644725854509 177.53637043293566,88.37967956834473 176.17915038205683,85.62806908367202 174.3695236472413,83.7019397658296 172.3336935704574,82.87645527347922 169.16684678569436,82.05097048147582 166.4524066830054,82.05097048147582 163.28555989731103,83.7019397658296 161.47593316342682,84.25226259441115 159.44010308664292,86.45355257811025 157.85667969379574,88.37967956834473 157.63047635182738,91.40644725854509 156.72566298395395,95.25869122636504 157.17806966789067,98.28544977051206 156.49945964291692,102.13768209633417 156.49945964291692,104.06379581429064 156.0470529589802,108.46633533574641 154.68983290810138,112.31855043233372 155.1422395920381,116.17075901036151 156.49945964291692,118.09686085442081 160.34491645358503,119.19748974777758 163.5117632402107,121.3987459379714 166.67861002590507,121.3987459379714 170.07166015263647,119.74780399515294 172.3336935704574,118.09686085442081 174.14332030527294,115.07012865296565 175.72674369905144,111.21791821252555 175.50054035615176,107.64085982413962 176.17915038205683,104.33895478351042 176.17915038205683,100.76188558526337 176.85776040703058,97.45997056690976 177.08396374993026,93.6077303243801 178.21498045884073,89.48032283014618 177.08396374993026,87.55419677193277 175.04813367314637,85.62806908367202 172.3336935704574,83.97710119653493" stroke="#4DD2FF" stroke-dasharray="none" stroke-linecap="round" stroke-linejoin="round" stroke-width="0.5"><title>2013-11-16 10.4km</title><desc>9223370652294258807</desc></polyline><polyline fill="none" opacity="1" points="22.810680591501296,144.6740621116478 22.810680591501296,150.88776637450792 22.324188444763422,154.43844744330272 22.567434517666698,160.06034860108048 22.0809423699975,163.6110163643025 23.053926666267216,166.5699022328481 24.51340311113745,168.64112021238543 28.648586370050907,170.71233643963933 33.51350785139948,171.60000000009313 37.89193718507886,171.30411218269728 38.86492148041725,169.52878452418372 41.5406282953918,167.1616789775435 41.78387437015772,163.01923876185901 41.78387437015772,160.35623777890578 42.75685866642743,155.32611690624617 44.70282725896686,150.29598569567315 44.94607333280146,146.1535169382114 45.43256548047066,142.89871513913386 45.18931940663606,138.75623386260122 45.43256548047066,135.7973143735435 44.21633510943502,132.5424988034647 40.081151850521564,129.879464663798 36.43246074113995,128.99178597261198 32.78376962989569,128.99178597261198 28.891832443885505,130.4712502779439 26.21612562984228,132.24660626379773 24.999895258806646,136.38909855671227 23.297172740101814,141.12336687929928 23.297172740101814,144.08227993012406 23.053926666267216,146.74529861821793 22.324188444763422,150.88776637450792 22.567434517666698,154.73433729959652 22.324188444763422,157.69323389837518 22.567434517666698,162.72334990650415 23.540418813936412,165.09045974630862 25.972879556007683,167.1616789775435 30.594554962590337,171.00822432967834 34.486492147669196,171.00822432967834 38.135183257982135,169.82467255694792 40.324397925287485,168.64112021238543 43.00010474026203,165.38634831481613 43.729842961765826,162.72334990650415 43.48659688793123,158.58090218016878 43.973089036531746,153.8466676226817 44.94607333280146,150.88776637450792 45.675811554305255,147.33708015549928 45.675811554305255,143.7863887862768 45.919057629071176,139.64390901243314 45.43256548047066,135.7973143735435 43.24335081502795,132.5424988034647 40.567644000053406,130.4712502779439 36.43246074113995,128.4000000001397 32.78376962989569,128.99178597261198 29.378324592486024,130.4712502779439 26.21612562984228,131.95071368920617 23.540418813936412,134.90963782859035 22.810680591501296,140.23569226590917 23.053926666267216,143.7863887862768 22.567434517666698,147.33708015549928 24.02691096253693,150.88776637450792 22.324188444763422,156.50967568787746 21.594450222328305,160.35623777890578 22.324188444763422,164.2027938242536 22.567434517666698,166.27401380729862 26.21612562984228,168.64112021238543 29.135078517720103,170.12056055432186 33.99999999906868,170.71233643963933 37.40544503647834,170.12056055432186 40.567644000053406,168.64112021238543 42.75685866642743,165.68223684746772 43.48659688793123,162.13157208892517 44.45958118420094,158.58090218016878 44.94607333280146,155.0302271207329 45.18931940663606,151.77543712500483 45.675811554305255,148.81653337273747 45.919057629071176,145.26584414974786 46.40554977674037,139.3480173314456 45.919057629071176,135.7973143735435 44.21633510943502,133.13428377383389 41.0541361477226,130.4712502779439 38.378429332748055,129.2876789055299 33.51350785139948,128.69589300476946 30.594554962590337,129.58357180282474 27.91884814761579,130.76714303181507 25.486387406475842,133.13428377383389 24.51340311113745,134.31785328662954 23.783664888702333,135.7973143735435 24.999895258806646,139.3480173314456 24.756649184972048,140.82747537712567 24.27015703637153,144.9699531486258" stroke="#4DD2FF" stroke-dasharray="none" stroke-linecap="round" stroke-linejoin="round" stroke-width="0.5"><title>2013-11-03 10.7km</title><desc>9223370653417861807</desc></polyline><polyline fill="none" opacity="1" points="111.48283633589745,133.2960393568501 109.35200072731823,129.84001261997037 106.98440560605377,129.2640076763928 103.90653194859624,130.41601742454804 100.35513926763088,130.12801503995433 97.51402512192726,130.41601742454804 94.67291097715497,132.14403100241907 92.77883488032967,135.3120526385028 91.35827780794352,138.1920686531812 91.59503732062876,143.37608870584518 90.88475878350437,145.96809450211003 90.1744802473113,149.712097896263 89.46420171111822,153.4560954067856 88.51716366223991,155.7600909504108 88.28040415141732,159.2160800890997 88.28040415141732,162.96006266516633 89.70096122287214,167.28003524802625 92.77883488032967,169.5840174248442 97.27726561017334,171.31200259411708 100.59189877938479,171.60000000009313 104.3800509730354,170.16001262003556 107.69468414224684,167.28003524802625 108.16820316575468,162.6720642137807 110.29903877526522,158.06408426584676 110.53579828795046,154.60809345706366 110.53579828795046,151.44009747868404 110.77255779877305,147.1200961722061 111.00931731145829,142.80008703446947 112.19311487209052,139.0560727783013 112.42987438477576,135.3120526385028 110.29903877526522,132.7200352489017 108.87848170287907,130.41601742454804 105.80060804635286,128.9760051521007 102.01245585177094,128.4000000001397 98.22430365905166,129.2640076763928 94.90967048984021,129.84001261997037 89.70096122287214,133.8720433257986 88.99068268761039,135.0240508459974 88.99068268761039,136.46405946207233 90.1744802473113,139.63207535468973 89.93772073462605,143.66408948926255 88.51716366223991,147.69609680003487 88.51716366223991,150.57609784416854 87.57012561522424,154.32009399705566 87.57012561522424,157.48808614653535 87.80688512697816,160.65607408294454 87.57012561522424,163.5360594613012 89.22744219843298,166.7040393569041 91.35827780794352,169.00802208902314 94.19939195271581,169.87201503990218 97.9875441454351,169.5840174248442 102.01245585177094,168.72002436965704 106.51088658254594,166.99203731981106 108.40496267937124,164.4000543965958" stroke="#4DD2FF" stroke-dasharray="none" stroke-linecap="round" stroke-linejoin="round" stroke-width="0.5"><title>2013-11-02 10.5km</title><desc>9223370653505000807</desc></polyline><polyline fill="none" opacity="1" points="156.01169842481613,138.12007284793071 156.45562293939292,142.98009340977296 156.67758519575,145.68010026379488 156.23366068210453,149.19010429433547 156.01169842481613,151.35010403278284 156.01169842481613,152.97010246641003 155.56777391023934,155.67009724397212 155.12384939659387,158.6400877290871 156.23366068210453,162.15007139416412 157.5654342258349,164.85005507571623 160.67290582694113,167.0100396713242 164.22430194169283,168.3600289823953 167.7756980592385,168.3600289823953 169.77335837297142,167.82003335561603 172.65886771772057,165.66004954348318 174.6565280323848,162.96006684168242 175.54437706060708,159.18008557590656 175.54437706060708,155.94009654247202 175.7663393188268,152.70010280935094 175.54437706060708,149.46010437584482 175.54437706060708,146.49010168295354 176.43222609069198,142.98009340977296 176.87615060433745,140.01008210144937 176.43222609069198,137.31006839242764 175.32241480425,134.34004954481497 173.99064126145095,132.72003759886138 170.4392451448366,130.56001984444447 167.7756980592385,128.4000000001397 165.3341132281348,129.48001018329524 162.0046793706715,130.8300221778918 159.78505679685622,132.45003549358808 158.67524551134557,135.69005860155448 158.2313209977001,138.12007284793071 157.7873964831233,141.63008875912055 156.45562293939292,144.33009724435396 156.01169842481613,146.76010209089145 156.23366068210453,150.81010429398157 157.7873964831233,154.32010026299395 154.90188713837415,155.13009854895063 155.12384939659387,156.21009580790997 154.45796262472868,157.56009164638817 154.90188713837415,163.23006525845267 160.22898131329566,166.20004569296725 165.77803774364293,167.55003549298272 167.1098112873733,167.55003549298272 169.10747160110623,167.55003549298272 171.77101868763566,168.3600289823953 173.99064126145095,164.0400603134185 174.6565280323848,162.96006684168242 174.8784902896732,160.5300796192605 175.54437706060708,159.18008557590656 173.54671674594283,158.91008666879497 174.8784902896732,158.10008975397795 176.2102638334036,155.94009654247202 175.9883015761152,150.81010429398157 176.2102638334036,149.46010437584482 175.7663393188268,146.2201012421865 176.2102638334036,142.1700907170307 175.7663393188268,136.7700652598869 175.32241480425,133.26004171161912 173.54671674594283,129.75001264712773 169.55139611661434,129.48001018329524 165.77803774364293,129.21000768686645 162.6705661425367,130.56001984444447 159.78505679685622,132.72003759886138 156.67758519575,133.26004171161912 156.45562293939292,137.58006991050206 156.23366068210453,140.55008445074782 156.01169842481613,144.0600965428166 154.90188713837415,147.57010311936028 155.34581165295094,151.62010385282338 155.12384939659387,155.13009854895063 154.90188713837415,159.18008557590656 154.90188713837415,161.61007426702417 158.45328325405717,165.66004954348318 164.00233968626708,168.63002674723975 166.44392451550812,169.98001507879235 169.32943385839462,171.60000000009313 173.32475448958576,167.82003335561603 175.1004525469616,162.69006839231588 175.54437706060708,159.7200832911767 175.54437706060708,158.6400877290871 175.1004525469616,153.24010209064 174.8784902896732,148.92010417976417 175.32241480425,146.2201012421865 175.54437706060708,142.98009340977296 177.09811286255717,138.93007700890303 175.7663393188268,135.96006031497382 174.43456577509642,134.34004954481497 172.88082997407764,130.8300221778918 170.21728288847953,130.02001507859677 166.0,129.75001264712773 162.0046793706715,130.56001984444447 159.78505679685622,130.8300221778918 156.89954745396972,132.72003759886138 154.90188713837415,135.69005860155448 154.67992488108575,138.39007426798344 155.34581165295094,139.7400808769744 154.23600036650896,142.71009254432283 154.67992488108575,145.95010076928884 154.90188713837415,147.57010311936028 154.45796262472868,150.27010442432947 154.90188713837415,153.78010124200955 154.67992488108575,157.02009340864606 154.90188713837415,161.34007565444335 157.5654342258349,166.20004569296725 161.7827171124518,168.63002674723975 163.11449065618217,168.3600289823953 166.0,169.98001507879235 167.99766031466424,169.1700221770443 171.1051319167018,171.33000259427354 173.32475448958576,168.63002674723975 174.8784902896732,162.42006990942173 173.99064126145095,158.37008875748143 175.1004525469616,151.35010403278284 174.8784902896732,147.0301024664659 174.8784902896732,145.68010026379488 176.43222609069198,142.98009340977296 177.76399963349104,140.82008557626978 177.09811286255717,136.7700652598869 175.32241480425,132.1800333559513 173.10279223136604,129.75001264712773 169.9953206302598,128.6700025945902 166.0,128.94000515691005 161.1168303405866,130.56001984444447 157.1215097112581,132.1800333559513 156.67758519575,133.53004371840507 155.56777391023934,134.61005142168142 155.78973616752774,137.04006684245542 156.01169842481613,138.6600756549742 156.23366068210453,142.1700907170307 156.23366068210453,143.5200950417202 156.23366068210453,147.84010339644738 156.01169842481613,149.19010429433547 155.12384939659387,151.62010385282338 155.78973616752774,155.13009854895063 154.90188713837415,156.21009580790997 155.12384939659387,161.07007700833492 156.23366068210453,162.15007139416412 156.23366068210453,163.50006364332512 158.45328325405717,165.66004954348318 162.6705661425367,168.63002674723975 167.1098112873733,170.52001018356532 170.4392451448366,169.710017477395 171.99298094585538,168.09003118495457 175.32241480425,163.77006199466996 174.8784902896732,159.18008557590656 174.43456577509642,152.97010246641003 176.2102638334036,152.1601033960469 176.65418834704906,147.3001028096769 176.87615060433745,146.49010168295354 175.9883015761152,142.71009254432283 176.87615060433745,138.93007700890303 175.54437706060708,134.34004954481497" stroke="#4DD2FF" stroke-dasharray="none" stroke-linecap="round" stroke-linejoin="round" stroke-width="0.5"><title>2013-10-26 11.1km</title><desc>9223370654110301807</desc></polyline><polyline fill="none" opacity="1" points="36.68690893705934,178.67370399925858 33.41588936187327,178.10527820512652 29.443937020376325,180.66319319489412 27.341138722375035,181.51583090610802 24.771051913499832,184.3579543782398 22.901897870004177,187.76849800907075 24.30376340262592,190.32640248560347 25.004696168005466,193.1685153071303 25.004696168005466,196.86325683817267 24.07011914718896,199.9895720607601 23.602830636315048,203.68430287321098 23.36918638087809,206.81060902611353 24.30376340262592,208.23165590292774 23.602830636315048,212.77900013769977 25.705628934316337,215.62108581862412 28.042071488685906,217.89475188939832 30.845802552998066,218.46316806343384 34.11682212725282,217.89475188939832 38.08877446874976,216.18950254260562 41.359794043935835,213.91583482245915 42.29437106475234,209.93691102182493 42.06072680931538,206.52639954793267 42.52801532112062,202.26325324806385 42.52801532112062,198.85273064253852 42.52801532112062,195.1579922370147 43.92988085281104,191.4632480267901 45.565390639938414,189.18955639493652 46.49996766168624,186.63165068160743 46.26632340531796,184.07374218595214 43.92988085281104,181.23161837016232 40.8925055321306,179.81055517448112 37.855130213312805,177.25263925665058 34.58411063905805,176.4000000001397 31.0794468075037,177.82106525660492 28.27571574319154,180.09476788225584 25.705628934316337,182.6526807071641 25.238340424373746,185.77901482582092 25.238340424373746,189.4737679695245 24.771051913499832,192.60009301709943 24.30376340262592,196.86325683817267 21.50003233831376,199.9895720607601 21.967320849187672,203.68430287321098 21.733676593750715,207.94744659680873 22.200965103693306,211.07374708005227 22.200965103693306,213.91583482245915 24.30376340262592,216.75791912851855 27.341138722375035,219.0315841003321 30.61215829756111,219.60000000009313 34.58411063905805,219.0315841003321 37.154197447001934,217.610543750925 40.8925055321306,215.90529419737868 41.82708255480975,213.6316262029577 43.462592341937125,210.22112008789554 43.92988085281104,206.81060902611353 43.92988085281104,203.1158831268549 44.39716936368495,199.70536175812595 45.0981021290645,195.4422030900605 45.33174638450146,192.0316705906298 45.79903489537537,189.18955639493652 45.565390639938414,185.49480280443095 44.63081361912191,181.80004340759479 42.52801532112062,179.24212965508923 39.4906400013715,178.10527820512652 35.98597617074847,177.53685227409005 32.48131234012544,177.53685227409005 29.21029276587069,178.95791684417054 25.705628934316337,181.23161837016232 24.30376340262592,184.07374218595214 25.004696168005466,188.33692146651447 23.602830636315048,191.74745932617225 23.36918638087809,194.58957042940892 23.36918638087809,198.28430972713977 21.733676593750715,201.69483315735124 22.200965103693306,206.52639954793267 21.967320849187672,209.3684927856084 23.36918638087809,212.21058258996345 24.30376340262592,215.90529419737868 25.238340424373746,217.610543750925 30.845802552998066,219.0315841003321 34.81775489356369,218.46316806343384 37.38784170243889,216.18950254260562 41.59343829844147,212.77900013769977 43.22894808650017,211.9263737637084 43.92988085281104,209.08428361662664 43.462592341937125,205.95798048726283 43.462592341937125,202.26325324806385 43.462592341937125,199.13694104878232 43.92988085281104,195.72641390911303 45.33174638450146,192.31588182109408 45.565390639938414,189.18955639493652 45.565390639938414,186.34743876405992 45.565390639938414,183.78952995873988 43.22894808650017,181.23161837016232 41.359794043935835,178.10527820512652 37.855130213312805,176.96842620545067 33.6495336163789,178.10527820512652 29.67758127581328,180.09476788225584 27.341138722375035,183.22110540163703 25.238340424373746,186.34743876405992 23.836474891752005,188.33692146651447 23.602830636315048,192.0316705906298" stroke="#4DD2FF" stroke-dasharray="none" stroke-linecap="round" stroke-linejoin="round" stroke-width="0.5"><title>2013-10-20 10.7km</title><desc>9223370654628121807</desc></polyline><polyline fill="none" opacity="1" points="110.78904627356678,211.12411569291726 111.0138180712238,208.1165362072643 111.46336166653782,205.1089527234435 111.91290526092052,201.00769607233815 112.58722065296024,198.00010313512757 113.03676424827427,195.265924267238 113.26153604499996,192.53174209501594 112.81199244968593,188.7038815007545 112.58722065296024,185.96969139552675 110.33950267918408,182.68865890684538 108.76610009744763,179.4076216588728 105.84406673163176,177.49368106550537 102.69726156815886,176.4000000001397 99.77522820234299,176.4000000001397 96.1788794444874,177.2202608489897 92.80730248428881,179.4076216588728 90.33481271192431,182.68865890684538 89.43572552409023,185.69627220346592 89.43572552409023,188.7038815007545 88.76141013111919,191.98490526387468 88.53663833346218,196.08617827505805 87.41277934703976,199.3671913293656 87.86232294142246,202.3747824486345 86.73846395500004,206.20261990721337 89.2109537255019,208.6633691387251 90.11004091612995,211.9443639498204 91.90821529459208,215.49876962439157 94.15593326836824,217.41267805802636 97.75228202715516,218.77975451922975 101.57340258173645,219.60000000009313 104.49543594755232,217.95950874243863 106.96792571805418,215.22535400115885 108.99087189510465,212.76461190870032 110.56427447684109,209.75703460443765 110.33950267918408,207.5697031437885 111.0138180712238,204.56211893237196 111.23858986981213,201.5545307220891 111.46336166653782,198.54693851224147 112.13767705764621,196.08617827505805 112.58722065296024,191.71148679824546 112.58722065296024,188.43046263884753 111.23858986981213,182.96207846258767 109.44041548948735,179.4076216588728" stroke="#4DD2FF" stroke-dasharray="none" stroke-linecap="round" stroke-linejoin="round" stroke-width="0.5"><title>2013-10-19 10.2km</title><desc>9223370654714312807</desc></polyline><polyline fill="none" opacity="1" points="175.4220639243722,202.55519372876734 175.66365530714393,198.1470347265713 175.90524668991566,195.2082576181274 176.63002083823085,191.09396369801834 177.59638636745512,187.27354168030433 176.1468380726874,183.15923433192074 174.93888115882874,180.22043910529464 171.31501041911542,177.5755203643348 167.20795691385865,176.4000000001397 163.3424947904423,177.5755203643348 160.20180681534111,179.33879984519444 158.51066713687032,182.57147557032295 157.302710223943,185.51026795455255 157.06111884023994,188.15517806308344 156.5779360756278,191.9755986945238 155.61157054454088,195.5021354884375 154.8867963962257,198.73478972166777 154.64520501438528,201.96743965684436 154.64520501438528,206.08171517541632 155.12838777899742,209.90210763714276 156.81952745839953,213.72249409533106 158.0274843722582,215.7796227785293 160.92658096458763,219.0122500488069 164.55045170336962,219.0122500488069 167.44954829569906,219.60000000009313 170.83182765357196,218.13062485610135 173.48933286219835,216.36737351119518 175.18047254160047,212.84086698386818 175.66365530714393,208.43272663117386 175.90524668991566,203.73070144630037 175.90524668991566,200.79193108691834 175.90524668991566,197.26540196686983 176.87161222100258,194.32662379206158 177.59638636745512,190.80008529429324 177.35479498654604,186.39190497691743 175.18047254160047,180.22043910529464 172.52296733297408,178.16328033292666 167.6911396794021,176.69388014404103 164.79204308707267,176.9877602532506 161.8929464938119,179.63267963356338 159.23544128518552,181.6898371623829 158.51066713687032,184.62863061204553 157.06111884023994,189.33069274341688 155.61157054454088,193.73886773106642 155.61157054454088,197.26540196686983 154.16202224884182,200.79193108691834 154.40361363161355,204.6123318609316 154.64520501438528,207.8449739809148 154.16202224884182,211.37148775416426 156.09475331008434,215.48574735829607 158.75225852057338,218.13062485610135 161.40976372919977,218.42449995642528 166.48318276554346,219.0122500488069 169.38227935694158,217.54287455044687 172.52296733297408,214.89799641259015 173.48933286219835,212.25311539904214 174.697289776057,208.43272663117386 176.1468380726874,204.9062085954938 177.35479498654604,201.67356256698258 177.83797775115818,197.55927958874963 177.35479498654604,192.85723337321542 177.35479498654604,188.44905678625219 176.3884294545278,184.92250976222567 174.93888115882874,180.22043910529464 172.03978456743062,178.16328033292666 168.89909659232944,177.28164032683708 164.79204308707267,176.9877602532506 161.40976372919977,179.04492002003826 158.51066713687032,181.6898371623829 157.06111884023994,184.33475142717361" stroke="#4DD2FF" stroke-dasharray="none" stroke-linecap="round" stroke-linejoin="round" stroke-width="0.5"><title>2013-10-12 10.6km</title><desc>9223370655320152807</desc></polyline><polyline fill="none" opacity="1" points="30.922126343473792,224.4000000001397 27.84425268601626,225.84001261997037 26.1869361018762,229.8720433257986 25.239898052997887,233.32806421397254 25.476657565683126,235.63207535468973 24.05610049236566,240.24009095085785 24.05610049236566,242.83209580695257 23.345821957103908,247.44009747868404 24.05610049236566,250.60809345706366 24.292860004119575,254.92808118532412 23.81934098061174,258.6720642137807 22.635543420910835,262.41604135814123 24.76637902855873,263.28003524802625 28.317771709524095,265.5840174248442 31.632404879666865,267.60000000009313 34.710278537124395,267.60000000009313 38.97194975428283,265.8720150399022 41.57630438823253,263.8560310017783 43.943899508565664,260.6880526384339 44.890937557443976,256.9440727783367 45.12769706826657,252.33608948835172 43.943899508565664,248.59209650335833 44.180659021250904,243.40809650346637 45.36445658095181,239.37608870584518 45.60121609363705,236.2080777916126 46.54825414158404,233.32806421397254 45.837975605390966,231.0240508459974 43.23362097237259,227.28002436971292 38.97194975428283,225.84001261997037 35.42055707331747,224.9760051521007 32.57944292854518,224.9760051521007 30.21184780728072,226.12801503995433 26.1869361018762,228.14403100241907 24.76637902855873,231.0240508459974 23.81934098061174,234.48007006268017 24.05610049236566,238.5120861462783 24.05610049236566,241.96809450211003 24.292860004119575,245.13609775714576 24.05610049236566,248.88009617221542 22.398783908225596,251.47209162986837 21.6885053711012,254.3520832741633 21.451745859347284,257.2320714369416 22.398783908225596,260.1120561193675 23.582581467926502,262.41604135814123 25.239898052997887,265.296019774396 28.317771709524095,266.7360076766927 31.632404879666865,266.7360076766927 36.6043546339497,267.60000000009313 39.68222829140723,264.72002436965704 41.57630438823253,262.1280433256179 43.943899508565664,258.3840657279361 44.180659021250904,254.3520832741633 44.180659021250904,250.89609288284555 45.36445658095181,247.15209763497114 46.07473511714488,243.69609680003487 45.837975605390966,240.52809162950143 45.837975605390966,237.93608426721767 46.31149462983012,234.48007006268017 45.60121609363705,231.6000543970149 44.65417804475874,229.00803732057102 43.23362097237259,226.12801503995433 40.155747315846384,224.4000000001397 36.6043546339497,224.4000000001397 32.57944292854518,224.4000000001397 28.791290735825896,224.9760051521007 26.660455126315355,227.28002436971292 24.292860004119575,231.0240508459974 24.76637902855873,233.6160657289438 24.76637902855873,237.07208118587732 23.345821957103908,241.68009399762377 23.345821957103908,245.712097896263 24.05610049236566,247.15209763497114 23.10906244441867,250.89609288284555 22.398783908225596,252.9120878870599 22.87230293173343,256.36807535379194 23.582581467926502,259.5360594613012 24.05610049236566,262.7040393569041 25.713417077437043,265.296019774396 27.607493174262345,266.4480101664085" stroke="#4DD2FF" stroke-dasharray="none" stroke-linecap="round" stroke-linejoin="round" stroke-width="0.5"><title>2013-10-06 10.6km</title><desc>9223370655838244807</desc></polyline><polyline fill="none" opacity="1" points="109.91622392181307,257.2208526181057 110.14683377929032,253.85463268659078 110.60805349703878,250.76892679347657 111.76110279094428,247.68321679718792 111.06927321478724,244.03646333003417 111.06927321478724,240.67022427427582 111.76110279094428,237.5845008501783 111.99171264935285,234.77929417719133 111.76110279094428,231.97408411232755 109.6856140634045,230.2909564457368 108.07134505175054,228.04678432480432 105.30402674898505,226.9246974508278 102.30609858687967,227.48574095615186 97.69390141405165,228.04678432480432 95.38780282903463,228.6078275591135 93.77353381738067,230.2909564457368 93.54292395804077,231.97408411232755 92.62048452533782,234.77929417719133 92.38987466599792,237.86502133100294 91.69804508984089,242.07282447465695 91.00621551368386,245.15854193037376 91.69804508984089,248.80529363360256 90.77560565527529,251.89100213861093 90.31438593752682,255.53774326271378 89.39194650482386,258.3429248428438 89.39194650482386,260.3065499314107 90.31438593752682,263.3922431420069 91.92865494918078,265.6363810834009 96.07963240426034,266.75844923895784 99.30817042570561,267.60000000009313 102.30609858687967,266.75844923895784 105.30402674898505,266.47793225129135 107.37951547559351,264.23379512433894 108.76317462790757,261.98965582833625 109.6856140634045,258.0624068370089 109.45500420406461,254.97670653951354 110.37744363863021,251.04944568034261 110.37744363863021,247.40269750310108 110.14683377929032,243.75594359473325 109.91622392181307,238.98710291530006 110.37744363863021,235.62085653445683 111.06927321478724,234.21825243486091 110.37744363863021,231.41304169245996 108.07134505175054,228.88834912492894 105.07341689057648,226.0831319389399 102.9979281630367,225.2415661229752 99.76939014159143,225.80261003412306 96.31024226266891,225.80261003412306 94.4653633935377,226.6441756472923 93.31231410056353,229.72991361888126 91.69804508984089,232.5351263966877 91.46743523143232,235.62085653445683 90.77560565527529,239.26762322615832 90.08377608004957,243.19490402424708 89.62255636136979,245.7195810272824 88.9307267870754,248.80529363360256 88.9307267870754,252.17152088950388 88.0082873525098,255.53774326271378 87.54706763476133,258.0624068370089 87.7776774931699,261.14810303226113 88.9307267870754,263.6727605035994 91.92865494918078,266.19741522870027 95.61841268651187,267.0389661930967 99.76939014159143,267.319483113708 103.45914787892252,266.75844923895784 105.99585632514209,264.794829609571 108.76317462790757,262.55069085536525 109.91622392181307,258.3429248428438 110.37744363863021,255.53774326271378 110.83866335544735,252.4520396075677 111.06927321478724,249.6468509058468 111.53049293160439,245.7195810272824 111.76110279094428,243.4754238263704 111.99171264935285,240.3897041331511 112.22232250776142,237.5845008501783 112.45293236616999,234.49877332313918 111.76110279094428,231.69356291904114 110.60805349703878,229.1688706574496 108.30195491109043,226.6441756472923 105.76524646673352,225.2415661229752 102.9979281630367,224.4000000001397 100.69182957615703,224.96104411478154 96.77146197948605,225.52208809531294 94.00414367672056,227.20521922083572 92.62048452533782,230.8519991368521 91.00621551368386,235.34033578261733 90.08377608004957,238.14554177806713 89.85316622070968,240.3897041331511 89.62255636136979,243.4754238263704 89.85316622070968,246.56113941781223 90.08377608004957,249.92736992868595 89.85316622070968,253.01307694031857 89.62255636136979,256.3792980927974 90.08377608004957,259.7455143611878 91.46743523143232,262.83120831870474 94.00414367672056,264.5143123844173 96.77146197948605,267.319483113708 100.69182957615703,267.319483113708 102.9979281630367,267.0389661930967 106.45707604289055,265.35586395906284 108.532564769499,263.3922431420069 109.6856140634045,260.0260321632959 110.14683377929032,257.2208526181057 111.06927321478724,254.13515119976364 111.06927321478724,250.76892679347657 111.76110279094428,247.96373605774716 111.76110279094428,244.8780223308131 111.53049293160439,241.79230450256728 112.68354222457856,238.14554177806713 111.76110279094428,235.34033578261733 110.83866335544735,231.97408411232755 110.14683377929032,229.44939215504564 107.6101253349334,227.7662626572419 104.38158731441945,226.0831319389399 101.38365915231407,226.6441756472923 97.23268169723451,226.9246974508278 94.23475353512913,228.88834912492894 92.85109438374639,230.8519991368521 90.77560565527529,234.21825243486091 90.31438593752682,236.46241858764552 89.39194650482386,240.1091839573346 89.62255636136979,243.19490402424708 88.46950706932694,246.28061998845078 88.46950706932694,249.6468509058468 87.7776774931699,253.01307694031857 87.31645777635276,256.3792980927974 88.0082873525098,259.7455143611878 89.16133664548397,262.83120831870474 92.62048452533782,264.794829609571 96.31024226266891,266.47793225129135 98.84695070702583,265.9168981728144 102.30609858687967,265.0753468009643 104.84280703123659,262.270173358731 108.07134505175054,260.3065499314107 109.6856140634045,257.7818887971807 110.37744363863021,255.53774326271378 110.60805349703878,252.17152088950388" stroke="#4DD2FF" stroke-dasharray="none" stroke-linecap="round" stroke-linejoin="round" stroke-width="0.5"><title>2013-09-29 10.5km</title><desc>9223370656443428807</desc></polyline><polyline fill="none" opacity="1" points="169.37157451640815,264.0456007702742 172.29360576253384,263.22535400046036 174.31655047181994,261.0380278278608 175.66518027801067,258.3038671386894 176.5642668157816,255.29628656315617 176.5642668157816,251.7418679993134 176.5642668157816,248.73427869705483 177.23858171794564,246.00010313582607 177.23858171794564,242.17225179541856 178.36243989039212,238.8912312053144 177.68812498729676,237.25071912514977 176.78903844952583,234.51652968092822 175.66518027801067,230.68865890661255 173.86700720340014,227.95446153078228 171.39451922569424,225.49368106527254 170.0458894195035,225.76710125035606 166.00000000093132,224.94684059894644 163.30274038854986,226.5873616025783 160.83025241084397,228.22788141667843 159.7063942393288,232.055756355403 158.35776443313807,233.6962722032331 157.6834495300427,238.6178126083687 157.00913462694734,240.80516046099365 156.78436299227178,244.9064319843892 156.78436299227178,247.09377375710756 156.55959135852754,249.28111341316253 156.55959135852754,253.38236956926994 155.2109615523368,255.56970314332284 155.6605048207566,261.0380278278608 156.55959135852754,263.4987696236931 161.95411058235914,265.4126780577935 164.2018269263208,265.95950874197297 167.5734014417976,265.95950874197297 171.61929085943848,264.86584724183194 174.5413221064955,262.1316911787726 176.5642668157816,258.0304508882109 177.23858171794564,253.65578638156876 175.66518027801067,250.92161676776595 174.09177883714437,249.55453072185628 175.88995191268623,245.17984982184134 177.4633533526212,239.98490526387468 177.91289662197232,238.07097531366162 177.23858171794564,235.06336783478037 178.36243989039212,231.235497985268 175.66518027801067,228.50130126997828 172.9679206656292,225.49368106527254 171.16974759101868,224.94684059894644 165.77522836625576,225.49368106527254 164.2018269263208,225.76710125035606 161.27979567926377,228.22788141667843 158.80730770155787,230.41523931804113 158.1329927984625,232.87601442844607 157.6834495300427,236.43046263838187 156.55959135852754,241.07857879367657 157.00913462694734,244.35959621169604 157.23390626069158,246.54693851224147 156.55959135852754,250.92161676776595 157.00913462694734,254.20261990698054 155.6605048207566,258.3038671386894 156.33481972385198,261.5848595700227 156.55959135852754,263.4987696236931 160.38070914242417,264.86584724183194 163.97705529164523,267.3265848727897 166.22477163467556,266.77975451922975 169.14680288173258,265.95950874197297 172.0688341287896,264.86584724183194 174.9908653749153,261.5848595700227 175.21563700959086,259.3975318111479 175.88995191268623,256.66336913825944 176.78903844952583,253.92920316033997 177.91289662197232,250.92161676776595 177.0138100842014,247.3671913293656 175.88995191268623,243.53934230282903 176.11472354643047,240.5317420954816 176.5642668157816,237.25071912514977 177.68812498729676,236.43046263838187 178.58721152413636,232.87601442844607 177.23858171794564,230.14181969570927 178.36243989039212,230.41523931804113 177.91289662197232,227.68104161159135 174.76609374023974,226.31394151831046 171.39451922569424,225.22026084875688 168.24771634489298,224.6734203158412 164.2018269263208,225.76710125035606 161.0550240445882,228.22788141667843 158.35776443313807,230.14181969570927 158.1329927984625,233.42285297834314 155.88527645543218,237.25071912514977 154.53664664924145,241.62541536078788 156.11004808917642,241.62541536078788 156.78436299227178,243.2659242679365 156.33481972385198,246.8203561506234 155.6605048207566,250.92161676776595 153.41278847679496,253.10895272321068 155.43573318701237,256.11653620772995 155.6605048207566,258.57728335657157 157.23390626069158,262.9519383441657 159.256850970909,265.4126780577935 161.95411058235914,266.23292403365485 165.77522836625576,266.23292403365485 169.37157451640815,267.60000000009313 172.9679206656292,266.23292403365485 174.09177883714437,264.0456007702742 174.31655047181994,260.49119595531374 175.66518027801067,259.3975318111479 175.88995191268623,255.29628656315617 177.91289662197232,248.73427869705483 177.91289662197232,244.08617827459238 175.88995191268623,241.35199709353037 176.5642668157816,238.07097531366162 177.0138100842014,235.61020585522056 177.4633533526212,232.055756355403 177.23858171794564,230.14181969570927 175.66518027801067,227.1342016728595 172.0688341287896,225.76710125035606 168.69725961331278,224.4000000001397 166.00000000093132,225.76710125035606 163.52751202322543,226.8607816544827 160.38070914242417,229.04814087809063 157.45867789536715,232.055756355403 155.6605048207566,235.61020585522056 156.78436299227178,239.16464976919815 157.00913462694734,243.53934230282903 157.00913462694734,246.8203561506234 156.33481972385198,250.64819962508045 154.761418283917,253.10895272321068 156.33481972385198,256.66336913825944 155.6605048207566,259.3975318111479 156.78436299227178,262.4051069342531 157.6834495300427,264.86584724183194 161.7293389486149,264.31901629362255 164.2018269263208,265.95950874197297" stroke="#4DD2FF" stroke-dasharray="none" stroke-linecap="round" stroke-linejoin="round" stroke-width="0.5"><title>2013-09-22 10.9km</title><desc>9223370657048162807</desc></polyline></svg>