<?xml version="1.0" encoding="utf-8" ?>
<svg baseProfile="full" height="300mm" version="1.1" viewBox="0,0,200,300" width="200mm" xmlns="http://www.w3.org/2000/svg" xmlns:ev="http://www.w3.org/2001/xml-events" xmlns:xlink="http://www.w3.org/1999/xlink"><defs /><rect fill="#222222" height="300" width="200" x="0" y="0" /><text fill="#FFFFFF" style="font-size:12px; font-family:Arial; font-weight:bold;" x="10" y="20">Over 10km Runs</text><text fill="#FFFFFF" style="font-size:4px; font-family:Arial" x="10" y="280">Runner</text><text fill="#FFFFFF" style="font-size:9px; font-family:Arial" x="10" y="290">keep</text><text fill="#FFFFFF" style="font-size:4px; font-family:Arial" x="65" y="280">SPECIAL TRACKS</text><rect fill="yellow" height="2.6" width="2.6" x="65" y="283" /><text fill="#FFFFFF" style="font-size:3px; font-family:Arial" x="70" y="285.5">Over 20.0 km</text><rect fill="red" height="2.6" width="2.6" x="65" y="287" /><text fill="#FFFFFF" style="font-size:3px; font-family:Arial" x="70" y="289.5">Over 40.0 km</text><text fill="#FFFFFF" style="font-size:4px; font-family:Arial" x="120" y="280">STATISTICS</text><text fill="#FFFFFF" style="font-size:3px; font-family:Arial" x="120" y="285">Number: 15</text><text fill="#FFFFFF" style="font-size:3px; font-family:Arial" x="120" y="290">Weekly: 1.2</text><text fill="#FFFFFF" style="font-size:3px; font-family:Arial" x="141" y="285">Total: 163.6 km</text><text fill="#FFFFFF" style="font-size:3px; font-family:Arial" x="141" y="290">Avg: 10.9 km</text><text fill="#FFFFFF" style="font-size:3px; font-family:Arial" x="167" y="285">Min: 10.2 km</text><text fill="#FFFFFF" style="font-size:3px; font-family:Arial" x="167" y="290">Max: 14.0 km</text><polyline fill="none" opacity="1" points="26.416936809255276,75.59999999999854 26.46099876856897,75.24508376658196 26.496248335985,74.9456220163047 26.487435944087338,74.62397671290091 26.469811160408426,74.3023301653011 26.487435944087338,73.94740839301085 26.496248335985,73.6368505995415 26.513873119663913,73.35956587520195 26.513873119663913,73.0600973343171 26.6636837812257,72.87154251451284 26.945680320553947,72.80499365246214 27.130740549531765,72.78281068660726 27.130740549531765,72.60534674680821 27.20123968430562,72.41679089576792 27.20123968430562,72.12841053179 27.20123968430562,71.79566271515796 26.972117496130522,71.57383009757905 26.73418291605776,71.4518219056481 26.79586965899216,71.01924596434401 26.822306834568735,70.73086075316678 26.88399357756134,70.36483192930609 26.919243144977372,70.00989334915357 26.980929887969978,69.68822895201447 27.007367063546553,69.4331149246209 27.05142902280204,69.17800011439977 27.121928157634102,69.10035632114159 27.13955294137122,68.88960851680167 27.08667859021807,68.80087243935122 27.16599011688959,68.62340000038239 27.227676859882195,68.40155891890026 27.298175994714256,68.1131646280337 27.351050345867407,67.83586148187896 27.4567990481155,67.48091210523853 27.52729818294756,67.19251462083776 27.615422101516742,66.90411613604374 27.774045154859778,66.82647021920275 27.967917775618844,66.91520840396697 28.205852355749812,66.89302386665804 28.461411719559692,66.72663964815001 28.567160421749577,66.50479350549722 28.716971083253156,66.19420791130688 28.8755941366544,65.88362115677592 29.05184197379276,65.57303324194072 29.210465027135797,65.30681410573743 29.360275688697584,65.02950159899046 29.51889874204062,64.74109561070509 29.659897011704743,64.44159602544096 29.862582024361473,64.06444686470059 30.082891820697114,63.68729599296057 30.31201400893042,63.276865158950386 30.51469902158715,62.93298911637248 30.690946858667303,62.63348301703809 30.87600708764512,62.333975838650076 31.06106731656473,62.06774632976885 31.184440802549943,61.8569806972082 31.37831342330901,61.557470721178106 31.589810827805195,61.23577361901698 31.66912235453492,60.93626140482229 31.801308232359588,60.625655005795124 32.02161802869523,60.33723373894463 32.29480217618402,60.13755689107347 32.523924364417326,59.88241355412174 32.66492263408145,59.63836267294391 32.81473329564324,59.460870672955934 32.90285721415421,59.30556486209389 33.00860591646051,59.06151228732051 33.08791744307382,58.85073903247394 33.24654049647506,58.728712166979676 33.41397594171576,58.695432081665786 33.52853703580331,58.67324535075022 33.66953530552564,58.54012484069972 33.8017211832921,58.37372390336532 33.995593804109376,58.17404233885463 34.18946642492665,57.89670603683044 34.35690187016735,57.70811682292697 34.27759034343762,57.3864048234027 34.28640273527708,57.131253041909076 34.383339045685716,56.865006869629724 34.603648842079565,56.62094712925318 34.788709070999175,56.38798034487991 34.91208255698439,56.08845066273352 35.044268434809055,55.78891990119155 35.27339062298415,55.511575641081436 35.52894998679403,55.27860574737133 35.70519782387419,55.02344749553595 35.837383701698855,54.72391289607913 35.96956957952352,54.41328328241798 36.14581741660368,54.13593443210266 36.4542511315085,54.047182604525005 36.665748536004685,53.91405468549783 36.79793441382935,53.592328000821 36.87724594055908,53.30388232823316 36.938932683493476,52.98215328167862 37.00943181832554,52.660422989720246 37.09755573689472,52.294314590864815 37.18567965540569,52.01695866962109 37.18567965540569,51.9060160420122 37.273803573974874,51.58428158432798 37.31786553323036,51.240357166134345 37.414801843639,50.874242511898046 37.511738154047634,50.45265394249873 37.57342489704024,50.119819350817124 37.643924031814095,49.74260520217649 37.74086034228094,49.39867316275922 37.811359477113,49.05473969998275 37.881858611886855,48.66642601525382 37.93473296309821,48.33358426998166 38.0404816652881,47.95636201380694 38.102168408280704,47.60132773804071 38.190292326849885,47.257386837016384 38.25197906984249,46.924539448402356 38.322478204616345,46.60278570558148 38.38416494766716,46.292125737367314 38.4370392987621,46.1589853954647 38.47228886617813,45.948179417915526 38.53397560917074,45.59313656273298 38.6044747440028,45.23809219070972 38.68378627067432,44.89414150875382 38.76309779740404,44.50580838269525 38.78953497292241,44.394855727645336 38.80715975665953,44.19514057521155 38.86884649959393,43.90666228547343 38.948158026323654,43.518324544784264 39.00984476931626,43.18546217976109 39.08915629598778,42.80821655420732 39.14203064708272,42.641784116160125 39.19490499823587,42.464255814804346 39.22134217375424,42.342204887609114 39.27421652490739,42.23124934366206 39.238966957549565,42.0426245790004 39.24777934938902,41.83180815882952 39.27421652490739,41.543321664510586 39.335903267899994,41.277025550065446 39.3975900108926,41.088398619322106 39.53858828055672,41.0440157498233 39.847021995461546,41.143877172784414 40.12901853478979,41.25483416867064 40.419827466015704,41.33250397761731 40.5255761682638,41.221547085471684 40.56082573567983,41.010728582208685 40.543200952000916,40.700047707716294 40.56082573567983,40.37826986312575 40.57845051941695,39.989915632606426 40.622512478672434,39.60155958702671 40.64894965424901,39.313065349568205 40.53438856010325,39.124433960430906 40.252392020775005,39.19100979373616 39.94395830587018,39.235393652968924 39.71483611763688,39.29087344365689 39.75008568505291,38.96909014196717 39.80296003620606,38.63620955298393 39.87345917097991,38.30332763038314 39.92633352219127,37.970444374172075 40.032082224381156,37.604271251984756 40.09376896737376,37.24919274388958 40.13783092668746,36.982882866985165 40.18189288594294,36.661090626927034 40.22595484519843,36.3947788650039 40.217142453358974,36.239429943059804 40.24357962893555,36.15065900011541 40.402202682278585,36.02859879868629 40.57845051941695,35.93982763047097 40.4815142089501,35.762285009499465 40.38457789859967,35.62912779481849 40.41101507417625,35.451584509901295 40.46388942527119,35.39610215558787 40.657762046088465,35.44048804201884 40.82519749132916,35.4182951017865 40.99263293656986,35.46268097633583 41.13363120617578,35.39610215558787 41.30987904331414,35.36281272520864 41.41562774556223,35.21855837273324 41.450877312978264,34.807986921819975 41.47731448855484,34.41960665489751 41.53018883964978,34.07561118808371 41.5478136233869,33.809291138772096 41.5478136233869,33.642840674481704 41.574250798963476,33.432002940979146 41.53900123148924,33.28774523607717 41.318691435153596,33.243358199557406 41.08956924692029,33.2100679066134 40.94857097725617,33.1323905045283 40.71944878908107,33.07690660140361 40.437452249694616,33.02142266125884 40.11139375111088,32.95484188415139 39.794147644308396,32.877164243443985 39.50333871314069,32.79948653009342 39.14203064708272,32.74400240469549 38.86884649959393,32.62193719831703 38.71022344625089,32.57754980608297 38.44585169060156,32.57754980608297 38.12860558385728,32.555356101067446 37.83779665263137,32.54425924635143 37.50292576220818,32.52206553243741 37.18567965540569,32.477678086848755 36.886058332340326,32.44438748709945 36.60406179307029,32.42219374651904 36.515937874501105,32.400000000001455 36.4542511315085,32.53316239015112 36.38375199667644,32.7550992327524 36.33969003736274,32.977035482465 36.295628078107256,33.17677760031074 36.278003294428345,33.40980946422496 36.242753727012314,33.60955054158694 36.14581741660368,33.79819445157045 36.057693498034496,33.94245127017348 35.97838197136298,34.16438434812153 35.934320012049284,34.308640530915 35.86382087727543,34.49728285351739 35.76688456686679,34.66373160603689 35.68757304013707,34.863469668867765 35.59063672978664,35.04101421050291 35.520137594954576,35.20746187373152 35.38795171712991,35.4182951017865 35.31745258229785,35.70680286264542 35.18526670447318,35.98421322643844 35.05308082664851,36.31710444033524 34.89445777324727,36.64999432054174 34.74464711174369,36.960690338746645 34.61246123391902,37.24919274388958 34.48027535609435,37.548790335145895 34.31283991091186,37.87057913726312 34.163029249350075,38.1590783830834 34.03965576342307,38.44757662725169 33.91628227743786,38.691689743762254 33.863407926342916,38.8026500141641 33.810533575189766,38.880322115306626 33.69597248104401,38.96909014196717 33.66953530552564,39.235393652968924 33.5725989950588,39.54608000374719 33.38753876613919,39.8345734321847 33.30822723946767,40.03429906510428 33.24654049647506,40.18964089216024 33.405163549876306,40.27840752006887 33.69597248104401,40.27840752006887 34.02203097968595,40.322790798447386 34.365714262006804,40.367174053135386 34.691772760648746,40.41155728416925 35.01783125923248,40.45594049142528 35.33507736597676,40.50032367499807 35.62588629720267,40.54470683485124 35.855008485435974,40.54470683485124 35.96956957952352,40.40046147862449 36.01363153877901,40.18964089216024 36.040068714355584,39.97881977077486 36.075318281771615,39.96772390749538 36.23394133511465,40.05649077246926 36.242753727012314,40.28950334187539 36.16344220028259,40.67785617222398 36.09294306545053,41.03292002873786 36.02244393067667,41.41017371397902 35.95194479584461,41.765234441329085 35.872633269114885,42.153580374782905 35.802134134282824,42.47535134473583 35.75807217496913,42.763834603349096 35.669948256458156,43.10779410274699 35.68757304013707,43.407370571250794 35.61707390536321,43.71804132381658 35.432013676385395,43.93994829310395 35.35270214965567,44.250617054603936 35.2645782311447,44.57237990458816 35.2645782311447,44.84976067189564 35.25576583930524,45.07166461912857 35.42320128454594,45.28247282017401 35.33507736597676,45.6264218948636 35.29101540672127,46.003654727006506 35.18526670447318,46.436360867017356 35.12357996148057,46.76921021083399 35.06189321848797,47.14643785555381 35.05308082664851,47.490379215814755 35.03545604291139,47.82322433813533 35.03545604291139,48.1782576659607 35.026643651071936,48.5221947559985 35.009018867393024,48.877225097836345 34.991394083655905,49.232253923022654 34.96495690813754,49.55399748584023 34.9297073406633,49.86464526114287 34.8680205977289,50.2196698682892 34.79752146283863,50.59688185163395 34.76227189548081,50.896431324697915 34.79752146283863,51.240357166134345 34.73583471990423,51.58428158432798 34.638898409495596,51.950393110812 34.436213396838866,52.238843480656215 34.22471599228447,52.460727699399285 33.95153184485389,52.6715171584583 33.740034440299496,52.871211942365335 33.46685029286891,53.10418858384219 33.29941484762821,53.30388232823316 33.20247853721958,53.47029341535381 33.079105051234365,53.60342204515473 32.95573156530736,53.792020572393085 32.86760764673818,54.080464550956094 32.73542176897172,54.4021893461977 32.55917393183336,54.73500678939308 32.3829260947532,55.045635200702236 32.250740216928534,55.27860574737133 32.18024108209647,55.55595078486658 32.233115433191415,55.77782614855823 32.3829260947532,55.95532601312152 32.27717739250511,56.254856174964516 32.25955260876799,56.432355020828254 32.25955260876799,56.42126135405124 32.136179122840986,56.46563601222442 31.93349411012605,56.74297708903032 31.766058664943557,57.02031724042172 31.536936476710252,57.26437580826314 31.325439072214067,57.50843365948822 31.22850276180543,57.75249079408968 31.11394166771788,58.07420137672307 30.972943398053758,58.273883181063866 30.796695560973603,58.273883181063866 30.54994858900318,58.273883181063866 30.267952049674932,58.21841606131784 29.95951833477011,58.19622920303664 29.651084619865287,58.19622920303664 29.466024390945677,58.20732263290847 29.307401337544434,58.25169633759651 29.254526986391284,58.318256850223406 29.157590676040854,58.52903145525488 29.034217190055642,58.750898883146874 28.990155230800156,59.07260560170107 28.884406528552063,59.294471578767116 28.805095001822338,59.494150451813766 28.734595866990276,59.57180321735359 28.549535638070665,59.74929498050187 28.311601057997905,59.99334553596418 28.205852355749812,60.193022730258235 28.311601057997905,60.392699444899336 28.373287800932303,60.47035137106286 28.390912584669422,60.681120519322576 28.470224111399148,60.93626140482229 28.443786935822573,61.08047112411441 28.329225841676816,60.89188913318503 28.161790396494325,61.11375025463349" stroke="#4DD2FF" stroke-dasharray="none" stroke-linecap="round" stroke-linejoin="round" stroke-width="0.5"><title>2017-12-17 14.0km</title><desc>9223370523376934807</desc></polyline><polyline fill="none" opacity="1" points="100.51766948087607,32.40000000000873 100.46170521265594,32.61128132751037 100.61560695024673,32.822562316971016 100.57363374909619,33.63246964490099 100.68556228547823,33.931781965482514 100.81148188898806,34.231093607639195 100.8534550901968,34.548011077495175 100.89542829134734,34.93535361884278 100.90941935835872,35.305088621156756 100.93740149243968,35.67482258823293 100.993365760718,36.02694921348302 101.10529429710004,36.32625610672403 101.14726749825059,36.64316854836943 101.18924069945933,36.94247404487396 101.2172228335985,37.276991149949026 101.38511563820066,37.38262795440096 101.59498164401157,37.50587078621902 101.60897271108115,37.68193177496141 101.46906204055995,37.80517432744091 101.31516030291095,37.96362886867428 101.39910670527024,38.21011333276692 101.53901737579145,38.54462722677272 101.67892804631265,38.87914027343504 101.74888338154415,39.17844070213323 101.87480298505398,39.49534629905247 102.02870472264476,39.81225113554683 102.2105885943165,40.12915521149989 102.2945349966758,40.42845280717302 102.05668685672572,40.58690420087078 101.7908565827529,40.463664244438405 101.58099057688378,40.305212702878634 101.32915137003874,40.12915521149989 101.11928536416963,40.21718398647499 100.86744615720818,40.23478973447345 100.62959801731631,40.32281843909004 100.61560695024673,40.56929849983135 100.62959801731631,40.83338376873871 100.39174987742445,40.991834676562576 100.139910670463,41.07986287660606 99.846098262351,41.16789101790346 99.55228585418081,41.18549663909653 99.4963215860189,40.95662338018883 99.55228585418081,40.71014404229936 99.65022332360968,40.358029904498835 99.74816079298034,40.07633791830449 99.80412506120047,39.68901045614621 99.86008932942059,39.28407598560443 99.81811612821184,38.984775796328904 99.76215186004993,38.56223319769197 99.59425905538956,38.35096139142115 99.27246451319661,38.386173382619745 99.04860744031612,38.227719348346 99.00663423916558,38.08687115822977 98.97865210502641,37.85799252893776 98.97865210502641,37.62911350298964 98.85273250157479,37.523476895628846 98.67084862984484,37.50587078621902 98.47497369110351,37.48826467443723 98.37703622179106,37.57629520990304 98.40501835587202,37.87559859144676 98.41900942288339,38.21011333276692 98.41900942288339,38.54462722677272 98.44699155702256,38.861534344701795 98.46098262409214,39.21365247268113 98.46098262409214,39.58337549660064 98.46098262409214,39.90028012181574 98.46098262409214,40.21718398647499 98.46098262409214,40.51648138269957 98.47497369110351,40.83338376873871 98.4889647581731,41.16789101790346 98.50295582524268,41.414369501391775 98.4889647581731,41.64324196704547 98.47497369110351,41.85450850635243 98.46098262409214,42.13619669970649 98.43300049001118,42.382673376007006 98.41900942288339,42.54112242494011 98.39102728874423,42.805203750831424 98.36304515472148,43.03407380610588 98.36304515472148,43.28054880666605 98.36304515472148,43.544628653966356 98.36304515472148,43.861523773666704 98.36304515472148,44.213628570432775 98.3490540876519,44.54812725780357 98.36304515472148,44.86501996964216 98.36304515472148,45.18191192112863 98.39102728874423,45.49880311221932 98.40501835587202,45.850903543876484 98.39102728874423,46.1149782515422 98.39102728874423,46.43186720383528 98.36304515472148,46.678335863296525 98.37703622179106,46.92480406277173 98.32107195351273,47.18887662322959 98.37703622179106,47.47055343906686 98.41900942288339,47.73462490834936 98.46098262409214,48.05150997450983 98.50295582524268,48.36839428039093 98.54492902639322,48.7556962883973 98.64286649576388,49.142997160641244 98.74080396507634,49.51269238835084 98.85273250157479,49.75915529858321 98.96466103801504,50.09363994115847 99.07658957439708,50.41051934745337 99.2025091779069,50.67458493862068 99.27246451319661,50.7978153671429 99.35641091543948,51.02667157226824 99.48233051894931,51.27313165734813 99.53829478722764,51.53719552385155 99.58026798831997,51.678029370174045 99.67820545769064,51.85407146687794 99.83210719528142,51.97730079489702 99.9160535975825,52.170946649624966 100.04197320109233,52.32938395587553 100.16789280460216,52.540633401993546 100.26583027391462,52.751882510245196 100.46170521265594,52.94552722926892 100.65758015151368,53.17437971306208 100.83946402312722,53.43843977850338 101.02134789485717,53.702499316146714 101.18924069945933,53.94895440824621 101.25919603474904,54.07218178184121 101.37112457113108,54.31863618417992 101.55300844286103,54.60029779515753 101.7209012475214,54.81154360923392 101.91677618620452,55.146015457256 102.05668685672572,55.35726039859583 102.2245796614443,55.6565234871814 102.39247246604646,55.93818224524148 102.54637420357903,56.202236785466084 102.75624020944815,56.53670511198288 102.92413301410852,56.818361993224244 103.12000795284985,57.11762177145283 103.31588289159117,57.416880871664034 103.49776676320471,57.71613929391606 103.70763276901562,58.06820715797949 103.87552557367599,58.33225744016818 104.09938264649827,58.66672037326498 104.25328438408906,58.93076945906796 104.37920398759888,59.15961157309357 104.54709679225925,59.40605648337805 104.71498959691962,59.68770724632486 104.89687346859137,59.96935740878689 105.03678413911257,60.1981977235846 105.20467694377294,60.462243748042965 105.40055188245606,60.726289244703366 105.59642682125559,61.007937192654936 105.75032855884638,61.28958454017993 105.89023922930937,61.55362838304427 106.07212310103932,61.88808315969072 106.26799803972244,62.20493427226029 106.43589084444102,62.48657906761218 106.61777471611276,62.80342874462076 106.85562285600463,63.15548304992262 107.03750672767637,63.437125818643835 107.19140846532537,63.66596012607624 107.35930126986932,63.965204391555744 107.54118514165748,64.26444797910517 107.72306901327102,64.59889589242812 107.91894395207055,64.93334295909153 108.07284568966134,65.23258435356547 108.22674742725212,65.54942744421714 108.38064916484291,65.88387210440123 108.49257770122495,66.20071363303578 108.57652410358423,66.5527588846162 108.61849730473477,66.74638337310171 108.50656876835274,66.88720100466162 108.4506045000744,67.01041630918917 108.5345509024337,66.92240538909391 108.67446157289669,66.9048031980783 108.77239904232556,67.13363149874203 108.85634544462664,67.41526578615594 108.96827398106689,67.71450155875937 109.09419358451851,68.04894073777541 109.22011318802834,68.4009810641437 109.33204172446858,68.75302045245189 109.42997919378104,69.01704937803152 109.5279166631517,69.31628152244957 109.65383626666153,69.61551298906852 109.76576480310177,69.89714198566799 109.87769333948381,70.17877038182633 109.9616397417849,70.42519473598804 110.01760401006322,70.67161863051297 110.10155041242251,70.9708470273763 110.21347894880455,71.27007474645507 110.32540748518659,71.60450492463133 110.42334495461546,71.90373120858567 110.52128242392791,72.18535532726673 110.63321096036816,72.51978318854526 110.71715736266924,72.76620317618654 110.85706803324865,73.1006295671541 110.9689965696889,73.38225113447697 111.08092510607094,73.681473392091 111.20684470958076,73.99829622027755 111.3187732459628,74.2623146633996 111.41671071539167,74.50873140098702 111.50065711775096,74.75514767893765 111.64056778821396,74.98396238269925 111.69653205643408,75.1071701359615 111.73850525764283,75.28318101270997 111.69653205643408,75.52959584632481 111.52863925183192,75.56479792781465 111.36074644717155,75.35358529778023 111.19285364251118,75.12477123417193 110.9689965696889,74.80795110727195 110.71715736266924,74.50873140098702 110.42334495461546,74.17430857430736 110.12953254644526,73.94549246832321 109.8916844065534,73.681473392091 109.61186306551099,73.41745378823543 109.3880059926887,73.13583229585493 109.15015785273863,72.92461578268558 108.87033651175443,72.6605946663185 108.60450623766519,72.39657302235719 108.32468489656458,72.13255085074343 108.07284568966134,71.86852815152088 107.80701541568851,71.60450492463133 107.5271940745879,71.3756843678857 107.2333816664177,71.16446504066698 106.92557819129433,71.02365196822211 106.56181044789264,70.91804206537199 106.19804270449094,70.84763541663415 105.86225709522841,70.81243207817897 105.52647148596589,70.72442369100463 105.21866801078431,70.6540169390064 104.88288240152178,70.58361014952243 104.54709679225925,70.53080503278761 104.21131118293852,70.49560160991678 103.80557023844449,70.3723895559524 103.56772209849441,70.30198261637997 103.39982929389225,70.2667791324493 103.20395435515093,70.23157563924906 102.99408834934002,70.17877038182633 102.77023127645953,70.16116862469062 102.5743563377182,70.12596510323056 102.37848139891867,70.09076157248637 102.18260646017734,70.05555803237075 101.95874938741326,70.00275270454586 101.74888338154415,69.94994735563523 101.53901737579145,69.87954019093013 101.3571335041197,69.82673479279038 100.97937469364842,69.65071664648713 100.62959801731631,69.5099019606132 100.25183920690324,69.38668898733158 99.99999999994179,69.33388339220255 99.65022332360968,69.2282721385709 99.31443771428894,69.12266080049449 98.95066997088725,69.01704937803152 98.58690222760197,68.91143787110923 98.20914341713069,68.80582627977128 97.94331314309966,68.70021460397402 97.50959006446647,68.62980677327141 97.14582232106477,68.45378703219467 96.8380188458832,68.34817507497792 96.62815284007229,68.27776705665747 96.33434043201851,68.1545529342111 95.98456375562819,68.06654277634516 95.66276921343524,67.89052228482615 95.31299253710313,67.67929738541716 94.99119799485197,67.46807214822911 94.6833945196704,67.20404012687504 94.44554637983674,66.9048031980783 94.22168930695625,66.60556559136603 94.15173397166654,66.35913411232468 94.05379650229588,66.13030447007623 93.91388583171647,65.9014744314627 93.78796622826485,65.69024635173264 93.64805555774365,65.47901793423807 93.50814488728065,65.16217467468232 93.3262610155507,64.82772818738886 93.14437714387896,64.45807582163252 92.97648433921859,64.05321728173294 92.76661833340768,63.648357501093415 92.55675232759677,63.20829111478815 92.37486845592503,62.89144240888709 92.22096671833424,62.55699017262668 92.05307391367387,62.187331452572835 91.87119004200213,61.76486307736195 91.6753151032608,61.342393350903876 91.46544909744989,60.93752526197932 91.26957415870856,60.515052889546496 91.07369921996724,60.12778536128462 90.86383321415633,59.74051669752225 90.69594040949596,59.335643698781496 90.50006547075463,58.93076945906796 90.34616373316385,58.59630719460256 90.1642798614921,58.19143068867561 89.99638705688994,57.87456994887907 89.87046745338012,57.62812218128238 89.78652105107903,57.293656618436216 89.63261931348825,56.888776119667455 89.53468184405938,56.501497959616245 89.4507354418165,56.07901139902242 89.38078010646859,55.76214559179789 89.33880690537626,55.41007158115099 89.28284263715614,54.96997774814372 89.25486050307518,54.61790162594116 89.21288730186643,54.17780515346385 89.15692303370452,53.82572691969108 89.11494983249577,53.456043764119386 89.12894089956535,53.086359573862865 89.08696769847302,52.68146617831371 89.10095876542618,52.311779820141965 89.12894089956535,51.95969661221898 89.11494983249577,51.59000823383394 89.11494983249577,51.22031882069132 89.01701236318331,50.7978153671429 88.96104809496319,50.41051934745337 88.93306596082402,49.988013303416665 88.90508382668486,49.6535283933481 88.89109275973169,49.2486244742031 88.84911955846474,48.9493468664441 88.77916422323324,48.61485932597134 88.79315529030282,48.15713816098287 88.8771016926039,47.78743913883227 88.90508382668486,47.382529498645454 88.90508382668486,47.136062153367675 88.91907489381265,46.87198948729201 88.9470570278936,46.74875539576169 88.89109275973169,46.46707704049186 88.84911955846474,46.13258321327157 88.82113742438378,45.780483532638755 88.79315529030282,45.42838291321823 88.77916422323324,45.14670174183266 88.7371910220827,44.741784005382215 88.65324461978162,44.319259826414054 88.63925355271203,43.914339553011814 88.61127141863108,43.49181272673013 88.5832892844337,43.21012742489984 88.54131608328316,42.805203750831424 88.48535181512125,42.48830609646393 88.48535181512125,42.25943509535864 88.49934288219083,41.88971956336172 88.49934288219083,41.53760857065208 88.48535181512125,41.18549663909653 88.44337861397071,40.88620075912331 88.38741434580879,40.51648138269957 88.35943221166963,40.16436672853888 88.373423278681,39.777039524604334 88.40140541282017,39.46013460366521 88.35943221166963,39.055199431284564 88.3034679433913,38.72068683063844 88.27548580931034,38.333355392329395 88.27548580931034,38.0164470068994 88.3034679433913,37.893204651612905 88.31745901046088,37.664325686651864" stroke="#4DD2FF" stroke-dasharray="none" stroke-linecap="round" stroke-linejoin="round" stroke-width="0.5"><title>2017-11-19 11.8km</title><desc>9223370525802103807</desc></polyline><polyline fill="none" opacity="0.5" points="173.99082270404324,73.90812860871665 172.3736323947087,73.68254554329906 170.85157092707232,73.56975399202202 169.13925177650526,73.68254554329906 168.47334988461807,73.7953370824689 166.6659018918872,74.24650311248843 164.38280969113111,73.23137926252093 162.76561938226223,71.87787921493873 161.33868675632402,72.21625439589843 159.72149644745514,71.65229569829535 158.2945638219826,71.4267121310113 157.15301772160456,71.65229569829535 156.01147162076086,71.31392032885924 154.86992552038282,70.8627529941732 153.44299289491028,70.97554484684952 152.2063179523684,71.53950392093975 150.113483434543,70.8627529941732 148.97193733463064,70.18600161629729 148.40116428397596,68.9452895836439 147.6401335503906,67.7045760336332 147.54500470869243,65.89989907084964 147.73526239208877,64.32080409419723 147.73526239208877,62.51612111122813 147.54500470869243,60.93702086771373 147.54500470869243,58.79395231953822 147.25961818359792,57.6660196861485 147.06936050020158,55.974118384416215 147.44987586699426,54.39500795712229 147.44987586699426,53.041482777218334 147.83039123378694,51.91354374762159 147.54500470869243,50.447221134090796 148.02064891718328,48.86810210312251 147.92552007595077,47.17618612782098 148.21090660104528,46.16103518777527 148.30603544274345,44.13073026074562 148.21090660104528,42.326011358061805 148.30603544274345,40.746879684505984 148.40116428397596,39.50613164505921 148.68655080907047,38.03979109635111 148.97193733463064,36.4606527503347 148.68655080907047,34.8815119456267 148.68655080907047,33.753552722744644 148.49629312567413,32.40000000002328 148.68655080907047,33.753552722744644 148.68655080907047,34.8815119456267 148.97193733463064,36.4606527503347 148.68655080907047,38.03979109635111 148.40116428397596,39.50613164505921 148.30603544274345,40.746879684505984 148.21090660104528,42.326011358061805 148.30603544274345,44.13073026074562 148.21090660104528,46.16103518777527 147.92552007595077,47.17618612782098 148.02064891718328,48.86810210312251 147.54500470869243,50.447221134090796 147.83039123378694,51.91354374762159 147.44987586699426,53.041482777218334 147.44987586699426,54.39500795712229 147.06936050020158,55.974118384416215 147.25961818359792,57.6660196861485 147.54500470869243,58.79395231953822 147.54500470869243,60.93702086771373 147.73526239208877,62.51612111122813 147.73526239208877,64.32080409419723 147.54500470869243,65.89989907084964 147.6401335503906,67.7045760336332 148.40116428397596,68.9452895836439 148.97193733463064,70.18600161629729 150.113483434543,70.8627529941732 152.2063179523684,71.53950392093975 153.44299289491028,70.97554484684952 154.86992552038282,70.8627529941732 156.01147162076086,71.31392032885924 157.15301772160456,71.65229569829535 158.2945638219826,71.4267121310113 159.72149644745514,71.65229569829535 161.33868675632402,72.21625439589843 162.76561938226223,71.87787921493873 164.38280969113111,73.23137926252093 166.6659018918872,74.24650311248843 168.47334988461807,73.7953370824689 169.13925177650526,73.68254554329906 170.85157092707232,73.56975399202202 172.3736323947087,73.68254554329906 173.99082270404324,73.90812860871665 175.9885283797048,74.810460368637 177.13007448008284,74.47208605264314 178.46187826385722,74.69766894273926 179.88881088979542,74.69766894273926 181.12548583187163,75.14883457147516 182.457289615646,75.14883457147516 183.59883571602404,75.37441731081344 184.93063950026408,75.59999999997672" stroke="#4DD2FF" stroke-dasharray="1,0.5" stroke-linecap="round" stroke-linejoin="round" stroke-width="0.5"><title>2014-03-22 10.5km</title><desc>9223370641410674807</desc></polyline><polyline fill="none" opacity="1" points="55.600000000034925,101.68971618553769 55.44702549581416,101.72695112373913 55.30424929183209,101.72695112373913 55.17167138814693,101.72695112373913 55.03909348446177,101.7145394791878 54.88611898024101,101.68971618553769 54.75354107655585,101.70212783314491 54.61076487263199,101.7145394791878 54.45779036835302,101.70212783314491 54.335410764906555,101.7145394791878 54.22322946181521,101.7145394791878 54.070254957536235,101.72695112373913 53.95807365444489,101.7145394791878 53.825495750817936,101.67730453648255 53.69291784707457,101.65248123378842 53.560339943447616,101.67730453648255 53.42776203970425,101.70212783314491 53.32577903690981,101.70212783314491 53.16260623233393,101.66489288589219 53.040226628945675,101.65248123378842 52.92804532585433,101.65248123378842 52.805665722466074,101.64006958022219 52.6526912181871,101.65248123378842 52.49971671390813,101.65248123378842 52.37733711057808,101.67730453648255 52.234560906596016,101.64006958022219 52.12237960344646,101.64006958022219 51.979603399464395,101.64006958022219 51.85722379607614,101.62765792514983 51.704249291855376,101.60283461046492 51.571671388170216,101.57801128977735 51.39830028335564,101.60283461046492 51.245325779076666,101.60283461046492 51.10254957515281,101.62765792514983 50.93937677057693,101.61524626857135 50.816997167188674,101.61524626857135 50.70481586409733,101.60283461046492 50.57223796041217,101.62765792514983 50.44985835702391,101.61524626857135 50.317280453280546,101.60283461046492 50.17450424935669,101.61524626857135 50.06232294620713,101.61524626857135 49.91954674228327,101.61524626857135 49.78696883859811,101.65248123378842 49.66458923520986,101.64006958022219 49.5422096317634,101.65248123378842 49.39943342783954,101.64006958022219 49.256657223857474,101.64006958022219 49.13427762046922,101.64006958022219 48.991501416487154,101.64006958022219 48.879320113395806,101.64006958022219 48.756940509949345,101.64006958022219 48.63456090656109,101.64006958022219 48.48158640234033,101.61524626857135 48.34900849865517,101.57801128977735 48.21643059497001,101.60283461046492 48.07365439098794,101.59042295088875 47.920679886767175,101.57801128977735 47.788101983082015,101.59042295088875 47.655524079396855,101.59042295088875 47.522946175711695,101.62765792514983 47.390368272026535,101.61524626857135 47.24759206804447,101.60283461046492 47.10481586412061,101.59042295088875 46.97223796043545,101.59042295088875 46.83966005669208,101.56559962715255 46.67648725223262,101.57801128977735 46.564305949083064,101.55318796307256 46.41133144480409,101.56559962715255 46.258356940583326,101.56559962715255 46.125779036898166,101.59042295088875 45.9728045326774,101.55318796307256 45.81983002839843,101.51595296176674 45.66685552417766,101.51595296176674 45.52407932013739,101.4911296200371 45.39150141651044,101.47871794689854 45.24872521252837,101.4911296200371 45.14674220967572,101.4911296200371 45.003966005693655,101.51595296176674 44.8815864023054,101.55318796307256 44.75920679891715,101.57801128977735 44.60623229469638,101.57801128977735 44.47365439101122,101.57801128977735 44.34107648732606,101.55318796307256 44.2186968838796,101.55318796307256 44.106515580788255,101.57801128977735 43.94334277627058,101.56559962715255 43.82096317288233,101.55318796307256 43.68838526913896,101.57801128977735 43.55580736551201,101.55318796307256 43.42322946182685,101.52836463039421 43.270254957606085,101.52836463039421 43.14787535415962,101.51595296176674 43.02549575077137,101.50354129163316 42.8623229462537,101.46630627229024 42.72974504251033,101.51595296176674 42.56657223805087,101.4911296200371 42.4339943343075,101.47871794689854 42.31161473097745,101.4911296200371 42.15864022669848,101.4911296200371 42.015864022716414,101.47871794689854 41.883286119031254,101.47871794689854 41.72011331451358,101.4911296200371 41.607932011422236,101.50354129163316 41.45495750714326,101.52836463039421 41.34277620399371,101.45389459617581 41.18980169977294,101.45389459617581 41.06742209638469,101.45389459617581 40.92464589240262,101.44148291853344 40.781869688478764,101.45389459617581 40.6594900850323,101.47871794689854 40.516713881108444,101.44148291853344 40.384135977423284,101.45389459617581 40.24135977344122,101.42907123942132 40.09858356945915,101.42907123942132 39.9762039660709,101.41665955880308 39.86402266297955,101.36701282125432 39.73144475929439,101.36701282125432 39.59886685560923,101.3794245078825 39.44589235133026,101.40424787665688 39.3133144476451,101.39183619300456 39.190934844256844,101.44148291853344 39.058356940571684,101.44148291853344 38.895184135995805,101.44148291853344 38.76260623236885,101.45389459617581 38.63002832868369,101.41665955880308 38.50764872529544,101.41665955880308 38.395467422145884,101.42907123942132 38.25269121816382,101.41665955880308 38.09971671394305,101.42907123942132 37.96713881025789,101.39183619300456 37.80396600574022,101.3794245078825 37.70198300288757,101.39183619300456 37.55920679890551,101.39183619300456 37.25325779046398,101.40424787665688 36.95750708220294,101.3794245078825 36.78413597738836,101.31736605962942 36.38640226639109,101.42907123942132 36.04985835700063,101.40424787665688 35.80509915022412,101.32977775228937 35.58073654392501,101.32977775228937 35.31558073655469,101.28013097270014 35.12181303120451,101.29254266984208 34.82606232300168,101.29254266984208 34.55070821539266,101.42907123942132 34.28555240802234,101.35460113310546 33.969405099225696,101.50354129163316 30.063456090691034,101.28013097270014 29.80849858361762,101.19324905049871 29.57393767713802,101.24289587217208 29.227195467508864,101.28013097270014 28.94164305960294,101.19324905049871 28.615297450509388,101.14360220472736 28.37053824373288,101.10636705465004 25.045892351306975,101.14360220472736 24.75014164316235,101.11877877287043 24.413597733771894,101.09395533493807 24.168838526995387,101.13119048955559 23.93427762045758,101.0567201668382 23.607932011364028,101.01948498520505 23.301983002922498,101.06913189102488 23.006232294719666,101.0567201668382 20.44645892357221,101.03189671389555 20.06912181311054,101.0567201668382 19.865155807463452,101.0567201668382 19.67138810205506,101.04430844113813 19.600000000034925,101.03189671389555 19.416430594981648,100.9822497900168 19.202266288979445,101.03189671389555 18.977903682738543,101.01948498520505 18.78413597738836,100.94501458136801 18.54957507085055,100.93260284212738 18.294617563835345,100.93260284212738 18.029461756406818,101.00707325500116 17.927478753612377,100.88295587014 16.744475920742843,100.99466152325476 16.48951841366943,100.94501458136801 16.28555240802234,100.94501458136801 15.979603399464395,100.93260284212738 15.69405099155847,100.9574263190807 15.42889518418815,100.9574263190807 15.133144475985318,100.9698380553018 14.878186968911905,100.89536761537602 14.623229461780284,100.93260284212738 14.388668555300683,100.89536761537602 14.052124645968433,100.9077793591423 13.858356940560043,100.85813237514958 13.491218130337074,100.9201911013588 13.13427762046922,100.87054412341968 13.011898017080966,100.94501458136801 13.07308781874599,101.21807246432581 13.06288951850729,101.39183619300456 13.103682719636708,101.67730453648255 12.94050991506083,101.76418604845821 12.879320113395806,101.55318796307256 12.787535410840064,101.39183619300456 12.614164306025486,101.45389459617581 12.481586402340326,101.70212783314491 12.400000000023283,101.83865585726016 12.43059490097221,102.16135773695714 12.481586402340326,102.45923549360305 12.542776204063557,102.7447008648669 12.60396600572858,103.05498841037479" stroke="#4DD2FF" stroke-dasharray="none" stroke-linecap="round" stroke-linejoin="round" stroke-width="0.5"><title>2013-12-10 10.9km</title><desc>9223370650177580807</desc></polyline><polyline fill="none" opacity="0.5" points="106.80299082957208,83.7662626572419 101.96018379833549,80.4000000001397 94.11944860499352,86.01043504965492 89.96847114898264,91.05981499678455 91.35213030129671,99.75594359473325 88.58481199666858,105.92736992868595 88.35420214012265,111.25722491787747 88.58481199666858,117.98965582833625 93.42761902883649,121.35586395906284 99.88469506986439,123.60000000009313 105.88055139407516,120.79482960957102 110.03152885008603,114.0624068370089 110.49274856690317,107.89100213861093 109.80091899074614,101.15854193037376 110.72335842624307,94.98710291530006 111.18457814306021,88.5351263966877 107.95604012254626,83.7662626572419 102.6520133735612,82.08313193893991 96.65615704935044,83.7662626572419 92.73578945267946,86.57147780805826 90.89091058447957,91.62085653445683 90.42969086673111,98.63386431708932 89.73786129057407,104.52477447572164 87.89298242237419,112.94033447606489 112.10701757762581,90.49877332313918 108.87847955711186,86.8519991368521 104.95811196044087,83.20521922083572 97.34798662550747,82.64417564729229 91.12152044288814,89.09616854530759 89.73786129057407,95.5481435037218 89.5072514321655,103.40269750310108 89.27664157282561,108.17152088950388 88.58481199666858,114.34292484284379 90.66030072513968,119.39224314200692 96.88676690869033,122.75844923895784 103.11323309037834,123.03896619309671 108.4172598393634,117.98965582833625 110.26213870756328,110.97670653951354 110.49274856690317,104.52477447572164 110.49274856690317,97.79230450256728 111.64579785987735,91.62085653445683 109.80091899074614,85.72991361888126 105.88055139407516,82.92469745082781 99.88469506986439,82.08313193893991 94.81127818115056,84.32730595883913 91.12152044288814,88.5351263966877 89.96847114898264,95.5481435037218 89.73786129057407,102.56113941781223 89.27664157282561,109.01307694031857 109.80091899074614,93.02345978678204 110.49274856690317,89.37668956816196 106.80299082957208,83.7662626572419 101.96018379833549,80.4000000001397 94.11944860499352,86.01043504965492 89.96847114898264,91.05981499678455 91.35213030129671,99.75594359473325 88.58481199666858,105.92736992868595 88.35420214012265,111.25722491787747 88.58481199666858,117.98965582833625 93.42761902883649,121.35586395906284 99.88469506986439,123.60000000009313 105.88055139407516,120.79482960957102 110.03152885008603,114.0624068370089 110.49274856690317,107.89100213861093 109.80091899074614,101.15854193037376 110.72335842624307,94.98710291530006 111.18457814306021,88.5351263966877 107.95604012254626,83.7662626572419 102.6520133735612,82.08313193893991 96.65615704935044,83.7662626572419 92.73578945267946,86.57147780805826 90.89091058447957,91.62085653445683 90.42969086673111,98.63386431708932 89.73786129057407,104.52477447572164 87.89298242237419,112.94033447606489 112.10701757762581,90.49877332313918 108.87847955711186,86.8519991368521 104.95811196044087,83.20521922083572 97.34798662550747,82.64417564729229 91.12152044288814,89.09616854530759 89.73786129057407,95.5481435037218 89.5072514321655,103.40269750310108 89.27664157282561,108.17152088950388 88.58481199666858,114.34292484284379 90.66030072513968,119.39224314200692 96.88676690869033,122.75844923895784 103.11323309037834,123.03896619309671 108.4172598393634,117.98965582833625 110.26213870756328,110.97670653951354 110.49274856690317,104.52477447572164 110.49274856690317,97.79230450256728 111.64579785987735,91.62085653445683 109.80091899074614,85.72991361888126 105.88055139407516,82.92469745082781 99.88469506986439,82.08313193893991 94.81127818115056,84.32730595883913 91.12152044288814,88.5351263966877 89.96847114898264,95.5481435037218 89.73786129057407,102.56113941781223 89.27664157282561,109.01307694031857 109.80091899074614,93.02345978678204 110.49274856690317,89.37668956816196 106.80299082957208,83.7662626572419 101.96018379833549,80.4000000001397 94.11944860499352,86.01043504965492 89.96847114898264,91.05981499678455 91.35213030129671,99.75594359473325 88.58481199666858,105.92736992868595 88.35420214012265,111.25722491787747 88.58481199666858,117.98965582833625 93.42761902883649,121.35586395906284 99.88469506986439,123.60000000009313 105.88055139407516,120.79482960957102 110.03152885008603,114.0624068370089 110.49274856690317,107.89100213861093 109.80091899074614,101.15854193037376 110.72335842624307,94.98710291530006 111.18457814306021,88.5351263966877 107.95604012254626,83.7662626572419 102.6520133735612,82.08313193893991 96.65615704935044,83.7662626572419 92.73578945267946,86.57147780805826 90.89091058447957,91.62085653445683 90.42969086673111,98.63386431708932 89.73786129057407,104.52477447572164 87.89298242237419,112.94033447606489 112.10701757762581,90.49877332313918 108.87847955711186,86.8519991368521 104.95811196044087,83.20521922083572 97.34798662550747,82.64417564729229 91.12152044288814,89.09616854530759 89.73786129057407,95.5481435037218 89.5072514321655,103.40269750310108 89.27664157282561,108.17152088950388 88.58481199666858,114.34292484284379 90.66030072513968,119.39224314200692 96.88676690869033,122.75844923895784 103.11323309037834,123.03896619309671 108.4172598393634,117.98965582833625 110.26213870756328,110.97670653951354 110.49274856690317,104.52477447572164 110.49274856690317,97.79230450256728 111.64579785987735,91.62085653445683 109.80091899074614,85.72991361888126 105.88055139407516,82.92469745082781 99.88469506986439,82.08313193893991 94.81127818115056,84.32730595883913 91.12152044288814,88.5351263966877 89.96847114898264,95.5481435037218 89.73786129057407,102.56113941781223 89.27664157282561,109.01307694031857 109.80091899074614,93.02345978678204 110.49274856690317,89.37668956816196 106.80299082957208,83.7662626572419 101.96018379833549,80.4000000001397 94.11944860499352,86.01043504965492 89.96847114898264,91.05981499678455 91.35213030129671,99.75594359473325 88.58481199666858,105.92736992868595 88.35420214012265,111.25722491787747 88.58481199666858,117.98965582833625 93.42761902883649,121.35586395906284 99.88469506986439,123.60000000009313 105.88055139407516,120.79482960957102 110.03152885008603,114.0624068370089 110.49274856690317,107.89100213861093 109.80091899074614,101.15854193037376 110.72335842624307,94.98710291530006 111.18457814306021,88.5351263966877 107.95604012254626,83.7662626572419 102.6520133735612,82.08313193893991 96.65615704935044,83.7662626572419 92.73578945267946,86.57147780805826 90.89091058447957,91.62085653445683 90.42969086673111,98.63386431708932 89.73786129057407,104.52477447572164 87.89298242237419,112.94033447606489 112.10701757762581,90.49877332313918 108.87847955711186,86.8519991368521 104.95811196044087,83.20521922083572 97.34798662550747,82.64417564729229 91.12152044288814,89.09616854530759 89.73786129057407,95.5481435037218 89.5072514321655,103.40269750310108 89.27664157282561,108.17152088950388 88.58481199666858,114.34292484284379 90.66030072513968,119.39224314200692 96.88676690869033,122.75844923895784 103.11323309037834,123.03896619309671 108.4172598393634,117.98965582833625 110.26213870756328,110.97670653951354 110.49274856690317,104.52477447572164 110.49274856690317,97.79230450256728 111.64579785987735,91.62085653445683 109.80091899074614,85.72991361888126 105.88055139407516,82.92469745082781 99.88469506986439,82.08313193893991 94.81127818115056,84.32730595883913 91.12152044288814,88.5351263966877 89.96847114898264,95.5481435037218 89.73786129057407,102.56113941781223 89.27664157282561,109.01307694031857 109.80091899074614,93.02345978678204 110.49274856690317,89.37668956816196 106.80299082957208,83.7662626572419 101.96018379833549,80.4000000001397 94.11944860499352,86.01043504965492 89.96847114898264,91.05981499678455 91.35213030129671,99.75594359473325 88.58481199666858,105.92736992868595 88.35420214012265,111.25722491787747 88.58481199666858,117.98965582833625 93.42761902883649,121.35586395906284 99.88469506986439,123.60000000009313 105.88055139407516,120.79482960957102 110.03152885008603,114.0624068370089 110.49274856690317,107.89100213861093 109.80091899074614,101.15854193037376 110.72335842624307,94.98710291530006 111.18457814306021,88.5351263966877 107.95604012254626,83.7662626572419 102.6520133735612,82.08313193893991 96.65615704935044,83.7662626572419 92.73578945267946,86.57147780805826 90.89091058447957,91.62085653445683 90.42969086673111,98.63386431708932 89.73786129057407,104.52477447572164 87.89298242237419,112.94033447606489 112.10701757762581,90.49877332313918 108.87847955711186,86.8519991368521 104.95811196044087,83.20521922083572 97.34798662550747,82.64417564729229 91.12152044288814,89.09616854530759 89.73786129057407,95.5481435037218 89.5072514321655,103.40269750310108 89.27664157282561,108.17152088950388 88.58481199666858,114.34292484284379 90.66030072513968,119.39224314200692 96.88676690869033,122.75844923895784 103.11323309037834,123.03896619309671 108.4172598393634,117.98965582833625 110.26213870756328,110.97670653951354 110.49274856690317,104.52477447572164 110.49274856690317,97.79230450256728 111.64579785987735,91.62085653445683 109.80091899074614,85.72991361888126 105.88055139407516,82.92469745082781 99.88469506986439,82.08313193893991 94.81127818115056,84.32730595883913 91.12152044288814,88.5351263966877 89.96847114898264,95.5481435037218 89.73786129057407,102.56113941781223 89.27664157282561,109.01307694031857 109.80091899074614,93.02345978678204 110.49274856690317,89.37668956816196 106.80299082957208,83.7662626572419 101.96018379833549,80.4000000001397 94.11944860499352,86.01043504965492 89.96847114898264,91.05981499678455 91.35213030129671,99.75594359473325 88.58481199666858,105.92736992868595 88.35420214012265,111.25722491787747 88.58481199666858,117.98965582833625 93.42761902883649,121.35586395906284 99.88469506986439,123.60000000009313 105.88055139407516,120.79482960957102 110.03152885008603,114.0624068370089 110.49274856690317,107.89100213861093 109.80091899074614,101.15854193037376 110.72335842624307,94.98710291530006 111.18457814306021,88.5351263966877 107.95604012254626,83.7662626572419 102.6520133735612,82.08313193893991 96.65615704935044,83.7662626572419 92.73578945267946,86.57147780805826 90.89091058447957,91.62085653445683 90.42969086673111,98.63386431708932 89.73786129057407,104.52477447572164 87.89298242237419,112.94033447606489 112.10701757762581,90.49877332313918 108.87847955711186,86.8519991368521 104.95811196044087,83.20521922083572 97.34798662550747,82.64417564729229 91.12152044288814,89.09616854530759 89.73786129057407,95.5481435037218 89.5072514321655,103.40269750310108 89.27664157282561,108.17152088950388 88.58481199666858,114.34292484284379 90.66030072513968,119.39224314200692 96.88676690869033,122.75844923895784 103.11323309037834,123.03896619309671 108.4172598393634,117.98965582833625 110.26213870756328,110.97670653951354 110.49274856690317,104.52477447572164 110.49274856690317,97.79230450256728 111.64579785987735,91.62085653445683 109.80091899074614,85.72991361888126 105.88055139407516,82.92469745082781 99.88469506986439,82.08313193893991 94.81127818115056,84.32730595883913 91.12152044288814,88.5351263966877 89.96847114898264,95.5481435037218 89.73786129057407,102.56113941781223 89.27664157282561,109.01307694031857 109.80091899074614,93.02345978678204 110.49274856690317,89.37668956816196 106.80299082957208,83.7662626572419 101.96018379833549,80.4000000001397 94.11944860499352,86.01043504965492 89.96847114898264,91.05981499678455 91.35213030129671,99.75594359473325 88.58481199666858,105.92736992868595 88.35420214012265,111.25722491787747 88.58481199666858,117.98965582833625 93.42761902883649,121.35586395906284 99.88469506986439,123.60000000009313 105.88055139407516,120.79482960957102 110.03152885008603,114.0624068370089 110.49274856690317,107.89100213861093 109.80091899074614,101.15854193037376 110.72335842624307,94.98710291530006 111.18457814306021,88.5351263966877 107.95604012254626,83.7662626572419 102.6520133735612,82.08313193893991 96.65615704935044,83.7662626572419 92.73578945267946,86.57147780805826 90.89091058447957,91.62085653445683 90.42969086673111,98.63386431708932 89.73786129057407,104.52477447572164 87.89298242237419,112.94033447606489 112.10701757762581,90.49877332313918 108.87847955711186,86.8519991368521 104.95811196044087,83.20521922083572 97.34798662550747,82.64417564729229 91.12152044288814,89.09616854530759" stroke="#4DD2FF" stroke-dasharray="1,0.5" stroke-linecap="round" stroke-linejoin="round" stroke-width="0.5"><title>2013-11-30 10.3km</title><desc>9223370651086224807</desc></polyline><polyline fill="none" opacity="1" points="172.80299082957208,83.7662626572419 170.95811196044087,83.20521922083572 167.9601837983355,80.4000000001397 163.34798662550747,82.64417564729229 160.11944860499352,86.01043504965492 157.12152044288814,89.09616854530759 155.96847114898264,91.05981499678455 155.73786129057407,95.5481435037218 157.3521303012967,99.75594359473325 155.5072514321655,103.40269750310108 154.58481199666858,105.92736992868595 155.2766415728256,108.17152088950388 154.35420214012265,111.25722491787747 154.58481199666858,114.34292484284379 154.58481199666858,117.98965582833625 156.66030072513968,119.39224314200692 159.4276190288365,121.35586395906284 162.88676690869033,122.75844923895784 165.8846950698644,123.60000000009313 169.11323309037834,123.03896619309671 171.88055139407516,120.79482960957102 174.4172598393634,117.98965582833625 176.03152885008603,114.0624068370089 176.26213870756328,110.97670653951354 176.49274856690317,107.89100213861093 176.49274856690317,104.52477447572164 175.80091899074614,101.15854193037376 176.49274856690317,97.79230450256728 176.72335842624307,94.98710291530006 177.64579785987735,91.62085653445683 177.1845781430602,88.5351263966877 175.80091899074614,85.72991361888126 173.95604012254626,83.7662626572419 171.88055139407516,82.92469745082781 168.6520133735612,82.08313193893991 165.8846950698644,82.08313193893991 162.65615704935044,83.7662626572419 160.81127818115056,84.32730595883913 158.73578945267946,86.57147780805826 157.12152044288814,88.5351263966877 156.89091058447957,91.62085653445683 155.96847114898264,95.5481435037218" stroke="#4DD2FF" stroke-dasharray="none" stroke-linecap="round" stroke-linejoin="round" stroke-width="0.5"><title>2013-11-16 10.4km</title><desc>9223370652294258807</desc></polyline><polyline fill="none" opacity="1" points="33.013502151705325,129.00000514974818 29.06751076038927,130.50001738895662 26.354641679674387,132.30003087921068 25.121519369073212,136.50005727959797 23.395148135721684,141.30007874849252 23.395148135721684,144.30008745123632 23.148523674346507,147.0000921834726 22.40865028835833,151.20009370637126 22.655274749733508,155.10008875629865 22.40865028835833,158.10008077835664 22.655274749733508,163.20005889236927 23.64177259709686,165.60004496737383 26.108017217367887,167.7000308786519 30.793881993740797,171.60000000009313 34.73987338505685,171.60000000009313 38.43924031406641,170.40001015365124 40.65886047203094,169.20001972699538 43.37172955367714,165.90004306309856 44.111602938733995,163.20005889236927 43.86497847735882,159.000077677425 44.35822740197182,154.2000904425513 45.34472524933517,151.20009370637126 46.08459863439202,147.60009283619002 46.08459863439202,144.00008674431592 46.33122309669852,139.80007303715684 45.837974173016846,135.90005394420587 43.61835401598364,132.6000330010429 40.90548493433744,130.50001738895662 36.712869081646204,128.4000000001397 33.013502151705325,129.00000514974818 29.560759685002267,130.50001738895662 26.354641679674387,132.0000287219882 23.64177259709686,135.00004866719246 22.901899211108685,140.40007542981766 23.148523674346507,144.00008674431592 22.655274749733508,147.60009283619002 24.13502152170986,151.20009370637126 22.40865028835833,156.90008440450765 21.668776902370155,160.80007049744017 22.40865028835833,164.70005046087317 22.655274749733508,166.80003713420592 26.354641679674387,169.20001972699538 29.314135221764445,170.70000767009333 34.24662446137518,171.30000259238295" stroke="#4DD2FF" stroke-dasharray="none" stroke-linecap="round" stroke-linejoin="round" stroke-width="0.5"><title>2013-11-03 10.7km</title><desc>9223370653417861807</desc></polyline><polyline fill="none" opacity="1" points="98.18395043723285,171.60000000009313 98.58751700818539,165.70911796903238 98.58751700818539,160.30913526797667 98.99108357541263,152.94551091920584 99.39465014636517,145.58187322178856 101.41248299367726,139.20004308223724 101.8160495646298,132.8182029146701 98.18395043723285,128.39999999990687" stroke="#4DD2FF" stroke-dasharray="none" stroke-linecap="round" stroke-linejoin="round" stroke-width="0.5"><title>2013-11-02 10.5km</title><desc>9223370653505000807</desc></polyline><polyline fill="none" opacity="1" points="176.43222609069198,137.31006839242764 175.32241480425,134.34004954481497 173.99064126145095,132.72003759886138 170.4392451448366,130.56001984444447 167.7756980592385,128.4000000001397 165.3341132281348,129.48001018329524 162.0046793706715,130.8300221778918 159.78505679685622,132.45003549358808 158.67524551134557,135.69005860155448 158.2313209977001,138.12007284793071 157.7873964831233,141.63008875912055 156.45562293939292,144.33009724435396 156.01169842481613,146.76010209089145 156.23366068210453,150.81010429398157 157.7873964831233,154.32010026299395 154.90188713837415,155.13009854895063 155.12384939659387,156.21009580790997 154.45796262472868,157.56009164638817 154.90188713837415,163.23006525845267 160.22898131329566,166.20004569296725 165.77803774364293,167.55003549298272 167.1098112873733,167.55003549298272 169.10747160110623,167.55003549298272 171.77101868763566,168.3600289823953 173.99064126145095,164.0400603134185 174.6565280323848,162.96006684168242 174.8784902896732,160.5300796192605 175.54437706060708,159.18008557590656 173.54671674594283,158.91008666879497 174.8784902896732,158.10008975397795 176.2102638334036,155.94009654247202 175.9883015761152,150.81010429398157 176.2102638334036,149.46010437584482 175.7663393188268,146.2201012421865 176.2102638334036,142.1700907170307 175.7663393188268,136.7700652598869 175.32241480425,133.26004171161912 173.54671674594283,129.75001264712773 169.55139611661434,129.48001018329524 165.77803774364293,129.21000768686645 162.6705661425367,130.56001984444447 159.78505679685622,132.72003759886138 156.67758519575,133.26004171161912 156.45562293939292,137.58006991050206 156.23366068210453,140.55008445074782 156.01169842481613,144.0600965428166 154.90188713837415,147.57010311936028 155.34581165295094,151.62010385282338 155.12384939659387,155.13009854895063 154.90188713837415,159.18008557590656 154.90188713837415,161.61007426702417 158.45328325405717,165.66004954348318 164.00233968626708,168.63002674723975 166.44392451550812,169.98001507879235 169.32943385839462,171.60000000009313 173.32475448958576,167.82003335561603 175.1004525469616,162.69006839231588 175.54437706060708,159.7200832911767 175.54437706060708,158.6400877290871 175.1004525469616,153.24010209064 174.8784902896732,148.92010417976417 175.32241480425,146.2201012421865 175.54437706060708,142.98009340977296 177.09811286255717,138.93007700890303 175.7663393188268,135.96006031497382 174.43456577509642,134.34004954481497 172.88082997407764,130.8300221778918 170.21728288847953,130.02001507859677 166.0,129.75001264712773 162.0046793706715,130.56001984444447 159.78505679685622,130.8300221778918 156.89954745396972,132.72003759886138 154.90188713837415,135.69005860155448 154.67992488108575,138.39007426798344 155.34581165295094,139.7400808769744 154.23600036650896,142.71009254432283 154.67992488108575,145.95010076928884 154.90188713837415,147.57010311936028 154.45796262472868,150.27010442432947 154.90188713837415,153.78010124200955 154.67992488108575,157.02009340864606 154.90188713837415,161.34007565444335 157.5654342258349,166.20004569296725 161.7827171124518,168.63002674723975 163.11449065618217,168.3600289823953 166.0,169.98001507879235 167.99766031466424,169.1700221770443 171.1051319167018,171.33000259427354 173.32475448958576,168.63002674723975 174.8784902896732,162.42006990942173 173.99064126145095,158.37008875748143 175.1004525469616,151.35010403278284 174.8784902896732,147.0301024664659 174.8784902896732,145.68010026379488 176.43222609069198,142.98009340977296 177.76399963349104,140.82008557626978 177.09811286255717,136.7700652598869 175.32241480425,132.1800333559513 173.10279223136604,129.75001264712773 169.9953206302598,128.6700025945902 166.0,128.94000515691005 161.1168303405866,130.56001984444447 157.1215097112581,132.1800333559513 156.67758519575,133.53004371840507 155.56777391023934,134.61005142168142 155.78973616752774,137.04006684245542 156.01169842481613,138.6600756549742 156.23366068210453,142.1700907170307" stroke="#4DD2FF" stroke-dasharray="none" stroke-linecap="round" stroke-linejoin="round" stroke-width="0.5"><title>2013-10-26 11.1km</title><desc>9223370654110301807</desc></polyline><polyline fill="none" opacity="1" points="42.52801532112062,198.85273064253852 42.52801532112062,195.1579922370147 43.92988085281104,191.4632480267901 45.565390639938414,189.18955639493652 46.49996766168624,186.63165068160743 46.26632340531796,184.07374218595214 43.92988085281104,181.23161837016232 40.8925055321306,179.81055517448112 37.855130213312805,177.25263925665058 34.58411063905805,176.4000000001397 31.0794468075037,177.82106525660492 28.27571574319154,180.09476788225584 25.705628934316337,182.6526807071641 25.238340424373746,185.77901482582092 25.238340424373746,189.4737679695245 24.771051913499832,192.60009301709943 24.30376340262592,196.86325683817267 21.50003233831376,199.9895720607601 21.967320849187672,203.68430287321098 21.733676593750715,207.94744659680873 22.200965103693306,211.07374708005227 22.200965103693306,213.91583482245915 24.30376340262592,216.75791912851855 27.341138722375035,219.0315841003321 30.61215829756111,219.60000000009313 34.58411063905805,219.0315841003321 37.154197447001934,217.610543750925 40.8925055321306,215.90529419737868 41.82708255480975,213.6316262029577 43.462592341937125,210.22112008789554 43.92988085281104,206.81060902611353 43.92988085281104,203.1158831268549 44.39716936368495,199.70536175812595 45.0981021290645,195.4422030900605 45.33174638450146,192.0316705906298 45.79903489537537,189.18955639493652 45.565390639938414,185.49480280443095 44.63081361912191,181.80004340759479 42.52801532112062,179.24212965508923 39.4906400013715,178.10527820512652 35.98597617074847,177.53685227409005 32.48131234012544,177.53685227409005 29.21029276587069,178.95791684417054 25.705628934316337,181.23161837016232 24.30376340262592,184.07374218595214 25.004696168005466,188.33692146651447 23.602830636315048,191.74745932617225 23.36918638087809,194.58957042940892 23.36918638087809,198.28430972713977 21.733676593750715,201.69483315735124 22.200965103693306,206.52639954793267 21.967320849187672,209.3684927856084 23.36918638087809,212.21058258996345 24.30376340262592,215.90529419737868 25.238340424373746,217.610543750925" stroke="#4DD2FF" stroke-dasharray="none" stroke-linecap="round" stroke-linejoin="round" stroke-width="0.5"><title>2013-10-20 10.7km</title><desc>9223370654628121807</desc></polyline><polyline fill="none" opacity="0.5" points="98.66214626841247,219.00822432828136 104.98654572386295,218.1205605531577 109.36497611645609,212.79457114078104 110.09471451491117,203.6220066549722 110.09471451491117,197.11242390889674 111.79743744432926,190.60282385186292 109.36497611645609,179.95071368920617 101.82434599753469,176.4000000001397 95.98643880710006,179.35892843198963 92.58099294733256,184.38909855671227 89.6620393525809,193.56173511454836 88.20256255567074,200.66310755256563 88.68905482254922,207.76445938879624 95.01345427706838,219.00822432828136 101.58109986409545,219.60000000009313 107.66225318517536,216.34523203712888 109.85146838147193,208.35623777774163 110.09471451491117,200.66310755256563 111.06769904587418,194.1535169375129 111.55419131275266,186.164450250566 106.68926865514368,177.87946466286667 98.90539240278304,176.6958930043038 93.31073134578764,181.4301762059331 91.12151614949107,189.12336687906645 89.6620393525809,197.11242390889674 88.44580868817866,204.50967568764463 88.20256255567074,211.31512758042663 98.66214626841247,219.00822432828136 104.98654572386295,218.1205605531577 109.36497611645609,212.79457114078104 110.09471451491117,203.6220066549722 110.09471451491117,197.11242390889674 111.79743744432926,190.60282385186292 109.36497611645609,179.95071368920617 101.82434599753469,176.4000000001397 95.98643880710006,179.35892843198963 92.58099294733256,184.38909855671227 89.6620393525809,193.56173511454836 88.20256255567074,200.66310755256563 88.68905482254922,207.76445938879624 95.01345427706838,219.00822432828136 101.58109986409545,219.60000000009313 107.66225318517536,216.34523203712888 109.85146838147193,208.35623777774163 110.09471451491117,200.66310755256563 111.06769904587418,194.1535169375129 111.55419131275266,186.164450250566 106.68926865514368,177.87946466286667 98.90539240278304,176.6958930043038 93.31073134578764,181.4301762059331 91.12151614949107,189.12336687906645 89.6620393525809,197.11242390889674 88.44580868817866,204.50967568764463 88.20256255567074,211.31512758042663 98.66214626841247,219.00822432828136 104.98654572386295,218.1205605531577 109.36497611645609,212.79457114078104 110.09471451491117,203.6220066549722 110.09471451491117,197.11242390889674 111.79743744432926,190.60282385186292 109.36497611645609,179.95071368920617 101.82434599753469,176.4000000001397 95.98643880710006,179.35892843198963 92.58099294733256,184.38909855671227 89.6620393525809,193.56173511454836 88.20256255567074,200.66310755256563 88.68905482254922,207.76445938879624 95.01345427706838,219.00822432828136 101.58109986409545,219.60000000009313 107.66225318517536,216.34523203712888 109.85146838147193,208.35623777774163 110.09471451491117,200.66310755256563 111.06769904587418,194.1535169375129 111.55419131275266,186.164450250566 106.68926865514368,177.87946466286667 98.90539240278304,176.6958930043038 93.31073134578764,181.4301762059331 91.12151614949107,189.12336687906645 89.6620393525809,197.11242390889674 88.44580868817866,204.50967568764463 88.20256255567074,211.31512758042663 98.66214626841247,219.00822432828136 104.98654572386295,218.1205605531577 109.36497611645609,212.79457114078104 110.09471451491117,203.6220066549722 110.09471451491117,197.11242390889674 111.79743744432926,190.60282385186292 109.36497611645609,179.95071368920617 101.82434599753469,176.4000000001397 95.98643880710006,179.35892843198963 92.58099294733256,184.38909855671227 89.6620393525809,193.56173511454836 88.20256255567074,200.66310755256563 88.68905482254922,207.76445938879624 95.01345427706838,219.00822432828136 101.58109986409545,219.60000000009313 107.66225318517536,216.34523203712888 109.85146838147193,208.35623777774163 110.09471451491117,200.66310755256563 111.06769904587418,194.1535169375129 111.55419131275266,186.164450250566 106.68926865514368,177.87946466286667 98.90539240278304,176.6958930043038 93.31073134578764,181.4301762059331 91.12151614949107,189.12336687906645 89.6620393525809,197.11242390889674 88.44580868817866,204.50967568764463 88.20256255567074,211.31512758042663 98.66214626841247,219.00822432828136 104.98654572386295,218.1205605531577 109.36497611645609,212.79457114078104 110.09471451491117,203.6220066549722 110.09471451491117,197.11242390889674 111.79743744432926,190.60282385186292 109.36497611645609,179.95071368920617 101.82434599753469,176.4000000001397 95.98643880710006,179.35892843198963 92.58099294733256,184.38909855671227 89.6620393525809,193.56173511454836 88.20256255567074,200.66310755256563 88.68905482254922,207.76445938879624 95.01345427706838,219.00822432828136 101.58109986409545,219.60000000009313 107.66225318517536,216.34523203712888 109.85146838147193,208.35623777774163 110.09471451491117,200.66310755256563 111.06769904587418,194.1535169375129 111.55419131275266,186.164450250566 106.68926865514368,177.87946466286667 98.90539240278304,176.6958930043038 93.31073134578764,181.4301762059331 91.12151614949107,189.12336687906645 89.6620393525809,197.11242390889674 88.44580868817866,204.50967568764463 88.20256255567074,211.31512758042663 98.66214626841247,219.00822432828136 104.98654572386295,218.1205605531577 109.36497611645609,212.79457114078104 110.09471451491117,203.6220066549722 110.09471451491117,197.11242390889674 111.79743744432926,190.60282385186292 109.36497611645609,179.95071368920617 101.82434599753469,176.4000000001397 95.98643880710006,179.35892843198963 92.58099294733256,184.38909855671227 89.6620393525809,193.56173511454836 88.20256255567074,200.66310755256563 88.68905482254922,207.76445938879624 95.01345427706838,219.00822432828136 101.58109986409545,219.60000000009313 107.66225318517536,216.34523203712888 109.85146838147193,208.35623777774163 110.09471451491117,200.66310755256563 111.06769904587418,194.1535169375129 111.55419131275266,186.164450250566 106.68926865514368,177.87946466286667 98.90539240278304,176.6958930043038 93.31073134578764,181.4301762059331 91.12151614949107,189.12336687906645 89.6620393525809,197.11242390889674 88.44580868817866,204.50967568764463 88.20256255567074,211.31512758042663 98.66214626841247,219.00822432828136 104.98654572386295,218.1205605531577 109.36497611645609,212.79457114078104 110.09471451491117,203.6220066549722 110.09471451491117,197.11242390889674 111.79743744432926,190.60282385186292 109.36497611645609,179.95071368920617 101.82434599753469,176.4000000001397 95.98643880710006,179.35892843198963 92.58099294733256,184.38909855671227 89.6620393525809,193.56173511454836 88.20256255567074,200.66310755256563 88.68905482254922,207.76445938879624 95.01345427706838,219.00822432828136 101.58109986409545,219.60000000009313 107.66225318517536,216.34523203712888 109.85146838147193,208.35623777774163 110.09471451491117,200.66310755256563 111.06769904587418,194.1535169375129 111.55419131275266,186.164450250566 106.68926865514368,177.87946466286667 98.90539240278304,176.6958930043038 93.31073134578764,181.4301762059331 91.12151614949107,189.12336687906645 89.6620393525809,197.11242390889674 88.44580868817866,204.50967568764463 88.20256255567074,211.31512758042663 98.66214626841247,219.00822432828136 104.98654572386295,218.1205605531577 109.36497611645609,212.79457114078104 110.09471451491117,203.6220066549722 110.09471451491117,197.11242390889674 111.79743744432926,190.60282385186292 109.36497611645609,179.95071368920617 101.82434599753469,176.4000000001397 95.98643880710006,179.35892843198963 92.58099294733256,184.38909855671227 89.6620393525809,193.56173511454836 88.20256255567074,200.66310755256563 88.68905482254922,207.76445938879624 95.01345427706838,219.00822432828136 101.58109986409545,219.60000000009313 107.66225318517536,216.34523203712888 109.85146838147193,208.35623777774163 110.09471451491117,200.66310755256563 111.06769904587418,194.1535169375129 111.55419131275266,186.164450250566 106.68926865514368,177.87946466286667 98.90539240278304,176.6958930043038 93.31073134578764,181.4301762059331 91.12151614949107,189.12336687906645 89.6620393525809,197.11242390889674 88.44580868817866,204.50967568764463 88.20256255567074,211.31512758042663 98.66214626841247,219.00822432828136 104.98654572386295,218.1205605531577 109.36497611645609,212.79457114078104 110.09471451491117,203.6220066549722 110.09471451491117,197.11242390889674 111.79743744432926,190.60282385186292 109.36497611645609,179.95071368920617 101.82434599753469,176.4000000001397 95.98643880710006,179.35892843198963 92.58099294733256,184.38909855671227 89.6620393525809,193.56173511454836 88.20256255567074,200.66310755256563 88.68905482254922,207.76445938879624 95.01345427706838,219.00822432828136 101.58109986409545,219.60000000009313 107.66225318517536,216.34523203712888 109.85146838147193,208.35623777774163 110.09471451491117,200.66310755256563 111.06769904587418,194.1535169375129 111.55419131275266,186.164450250566 106.68926865514368,177.87946466286667 98.90539240278304,176.6958930043038 93.31073134578764,181.4301762059331 91.12151614949107,189.12336687906645 89.6620393525809,197.11242390889674 88.44580868817866,204.50967568764463 88.20256255567074,211.31512758042663 98.66214626841247,219.00822432828136 104.98654572386295,218.1205605531577 109.36497611645609,212.79457114078104 110.09471451491117,203.6220066549722 110.09471451491117,197.11242390889674 111.79743744432926,190.60282385186292 109.36497611645609,179.95071368920617 101.82434599753469,176.4000000001397 95.98643880710006,179.35892843198963 92.58099294733256,184.38909855671227 89.6620393525809,193.56173511454836 88.20256255567074,200.66310755256563 88.68905482254922,207.76445938879624 95.01345427706838,219.00822432828136 101.58109986409545,219.60000000009313 107.66225318517536,216.34523203712888 109.85146838147193,208.35623777774163 110.09471451491117,200.66310755256563 111.06769904587418,194.1535169375129 111.55419131275266,186.164450250566 106.68926865514368,177.87946466286667 98.90539240278304,176.6958930043038 93.31073134578764,181.4301762059331 91.12151614949107,189.12336687906645 89.6620393525809,197.11242390889674 88.44580868817866,204.50967568764463 88.20256255567074,211.31512758042663 98.66214626841247,219.00822432828136 104.98654572386295,218.1205605531577 109.36497611645609,212.79457114078104 110.09471451491117,203.6220066549722 110.09471451491117,197.11242390889674 111.79743744432926,190.60282385186292 109.36497611645609,179.95071368920617 101.82434599753469,176.4000000001397 95.98643880710006,179.35892843198963 92.58099294733256,184.38909855671227 89.6620393525809,193.56173511454836 88.20256255567074,200.66310755256563 88.68905482254922,207.76445938879624 95.01345427706838,219.00822432828136 101.58109986409545,219.60000000009313 107.66225318517536,216.34523203712888 109.85146838147193,208.35623777774163 110.09471451491117,200.66310755256563 111.06769904587418,194.1535169375129 111.55419131275266,186.164450250566 106.68926865514368,177.87946466286667 98.90539240278304,176.6958930043038 93.31073134578764,181.4301762059331 91.12151614949107,189.12336687906645 89.6620393525809,197.11242390889674 88.44580868817866,204.50967568764463 88.20256255567074,211.31512758042663 98.66214626841247,219.00822432828136 104.98654572386295,218.1205605531577 109.36497611645609,212.79457114078104 110.09471451491117,203.6220066549722 110.09471451491117,197.11242390889674 111.79743744432926,190.60282385186292 109.36497611645609,179.95071368920617 101.82434599753469,176.4000000001397 95.98643880710006,179.35892843198963 92.58099294733256,184.38909855671227 89.6620393525809,193.56173511454836 88.20256255567074,200.66310755256563 88.68905482254922,207.76445938879624 95.01345427706838,219.00822432828136 101.58109986409545,219.60000000009313 107.66225318517536,216.34523203712888 109.85146838147193,208.35623777774163 110.09471451491117,200.66310755256563 111.06769904587418,194.1535169375129 111.55419131275266,186.164450250566 106.68926865514368,177.87946466286667 98.90539240278304,176.6958930043038 93.31073134578764,181.4301762059331 91.12151614949107,189.12336687906645 89.6620393525809,197.11242390889674 88.44580868817866,204.50967568764463 88.20256255567074,211.31512758042663 98.66214626841247,219.00822432828136 104.98654572386295,218.1205605531577 109.36497611645609,212.79457114078104 110.09471451491117,203.6220066549722 110.09471451491117,197.11242390889674 111.79743744432926,190.60282385186292" stroke="#4DD2FF" stroke-dasharray="1,0.5" stroke-linecap="round" stroke-linejoin="round" stroke-width="0.5"><title>2013-10-19 10.2km</title><desc>9223370654714312807</desc></polyline><polyline fill="none" opacity="1" points="164.66214626841247,219.00822432828136 167.58109986409545,219.60000000009313 170.98654572386295,218.1205605531577 173.66225318517536,216.34523203712888 175.3649761164561,212.79457114078104 175.85146838147193,208.35623777774163 176.09471451491117,203.6220066549722 176.09471451491117,200.66310755256563 176.09471451491117,197.11242390889674 177.06769904587418,194.1535169375129 177.79743744432926,190.60282385186292 177.55419131275266,186.164450250566 175.3649761164561,179.95071368920617 172.68926865514368,177.87946466286667 167.8243459975347,176.4000000001397 164.90539240278304,176.6958930043038 161.98643880710006,179.35892843198963 159.31073134578764,181.4301762059331 158.58099294733256,184.38909855671227 157.12151614949107,189.12336687906645 155.6620393525809,193.56173511454836 155.6620393525809,197.11242390889674 154.20256255567074,200.66310755256563 154.44580868817866,204.50967568764463" stroke="#4DD2FF" stroke-dasharray="none" stroke-linecap="round" stroke-linejoin="round" stroke-width="0.5"><title>2013-10-12 10.6km</title><desc>9223370655320152807</desc></polyline><polyline fill="none" opacity="1" points="45.518031710758805,238.99468104168773 45.75799070484936,235.78385878098197 46.717826679348946,232.86492574820295 45.99794969893992,230.52977678203024 43.358400764875114,226.73515489464626 39.03913887310773,225.2756833503954 35.43975396454334,224.4000000001397 32.56024603638798,224.4000000001397 30.16065609641373,225.56757773039863 26.08135319966823,227.61083739856258 24.641599235124886,230.52977678203024 23.68176325969398,234.03249938460067 23.921722253784537,238.11900266609155 23.921722253784537,241.62171426066197 24.161681246943772,244.83252875856124 23.921722253784537,248.6271222056821 22.24200929608196,251.25414494634606 21.52213231381029,254.17305574938655 21.282173319719732,257.09196302411146 22.24200929608196,260.0108667712193 23.4418042646721,262.3459872279782 25.121517223306,265.26488462416455 28.240984144620597,266.72433199873194 31.600410060957074,266.72433199873194 36.639548934064806,267.60000000009313 39.7590158553794,264.68110542721115 41.67868780810386,262.0540972945746 44.07827774621546,258.25952494633384 44.31823674123734,254.17305574938655 44.31823674123734,250.67036236193962 45.518031710758805,246.87577212485485 46.237908692099154,243.37306815269403 45.99794969893992,240.16225171345286" stroke="#4DD2FF" stroke-dasharray="none" stroke-linecap="round" stroke-linejoin="round" stroke-width="0.5"><title>2013-10-06 10.6km</title><desc>9223370655838244807</desc></polyline><polyline fill="none" opacity="1" points="90.19908100832254,255.53774326271378 89.27664157561958,258.3429248428438 89.27664157561958,260.3065499314107 90.19908100832254,263.3922431420069 91.8133500199765,265.6363810834009 95.96432747505605,266.75844923895784 99.19286549650133,267.60000000009313 102.19079365767539,266.75844923895784 105.18872181978077,266.47793225129135 107.26421054638922,264.23379512433894 108.64786969870329,261.98965582833625 109.57030913420022,258.0624068370089 109.33969927486032,254.97670653951354 110.26213870942593,251.04944568034261 110.26213870942593,247.40269750310108 110.03152885008603,243.75594359473325 109.80091899260879,238.98710291530006 110.26213870942593,235.62085653445683 110.95396828558296,234.21825243486091 110.26213870942593,231.41304169245996 107.95604012254626,228.88834912492894 104.9581119613722,226.0831319389399 102.88262323383242,225.2415661229752 99.65408521238714,225.80261003412306 96.19493733346462,225.80261003412306 94.35005846433342,226.6441756472923 93.19700917135924,229.72991361888126 91.5827401606366,232.5351263966877 91.35213030222803,235.62085653445683 90.660300726071,239.26762322615832 89.96847115084529,243.19490402424708 89.5072514321655,245.7195810272824 88.81542185787112,248.80529363360256 88.81542185787112,252.17152088950388 87.89298242330551,255.53774326271378 87.43176270555705,258.0624068370089 87.66237256396562,261.14810303226113 88.81542185787112,263.6727605035994 91.8133500199765,266.19741522870027 95.50310775730759,267.0389661930967 99.65408521238714,267.319483113708 103.34384294971824,266.75844923895784 105.8805513959378,264.794829609571 108.64786969870329,262.55069085536525 109.80091899260879,258.3429248428438 110.26213870942593,255.53774326271378 110.72335842624307,252.4520396075677 110.95396828558296,249.6468509058468 111.4151880024001,245.7195810272824 111.64579786174,243.4754238263704 111.87640772014856,240.3897041331511 112.10701757855713,237.5845008501783 112.3376274369657,234.49877332313918 111.64579786174,231.69356291904114 110.4927485678345,229.1688706574496 108.18664998188615,226.6441756472923 105.64994153752923,225.2415661229752 102.88262323383242,224.4000000001397 100.57652464695275,224.96104411478154 96.65615705028176,225.52208809531294 93.88883874751627,227.20521922083572 92.50517959613353,230.8519991368521 90.89091058447957,235.34033578261733 89.96847115084529,238.14554177806713 89.7378612915054,240.3897041331511 89.5072514321655,243.4754238263704 89.7378612915054,246.56113941781223 89.96847115084529,249.92736992868595 89.7378612915054,253.01307694031857 89.5072514321655,256.3792980927974 89.96847115084529,259.7455143611878 91.35213030222803,262.83120831870474 93.88883874751627,264.5143123844173 96.65615705028176,267.319483113708 100.57652464695275,267.319483113708 102.88262323383242,267.0389661930967 106.34177111368626,265.35586395906284 108.41725984029472,263.3922431420069 109.57030913420022,260.0260321632959 110.03152885008603,257.2208526181057 110.95396828558296,254.13515119976364 110.95396828558296,250.76892679347657 111.64579786174,247.96373605774716 111.64579786174,244.8780223308131 111.4151880024001,241.79230450256728 112.56823729537427,238.14554177806713 111.64579786174,235.34033578261733 110.72335842624307,231.97408411232755 110.03152885008603,229.44939215504564 107.49482040572912,227.7662626572419 104.26628238521516,226.0831319389399" stroke="#4DD2FF" stroke-dasharray="none" stroke-linecap="round" stroke-linejoin="round" stroke-width="0.5"><title>2013-09-29 10.5km</title><desc>9223370656443428807</desc></polyline><polyline fill="none" opacity="1" points="156.72566410526633,244.76188558503054 156.72566410526633,246.96315960399806 156.49946079216897,249.16443149279803 156.49946079216897,253.29181054909714 155.14224090520293,255.49307631724514 155.5946475332603,260.99623142788187 156.49946079216897,263.4726468878798 161.92834033910185,265.3987459379714 164.1903734849766,265.94905965332873 167.58342320099473,265.94905965332873 171.65508286189288,264.8484320899006 174.59572594985366,262.0968608537223 176.6315557807684,257.96949776401743 177.31016572378576,253.5669688861817 175.72674252279103,250.81538401311263 174.14331932086498,249.43959032977 175.9529458368197,245.03704495402053 177.53636903874576,239.8090112612117 177.98877566773444,237.88289055787027 177.31016572378576,234.8561261605937 178.4411822957918,231.0038747417275 175.72674252279103,228.25226259441115 173.01230274885893,225.2254853900522 171.2026762329042,224.67516183038242 165.77379668504,225.2254853900522 164.1903734849766,225.50064712180756 161.24973039515316,227.97710119676776 158.76149393618107,230.17839144705795 158.08288399223238,232.6548404339701 157.63047736417502,236.23192865750752 156.49946079216897,240.909650930902 156.95186742115766,244.2115667485632 157.17807073518634,246.41284129861742 156.49946079216897,250.81538401311263 156.95186742115766,254.11728546093218 155.5946475332603,258.24465553602204 156.27325747720897,261.54654620797373 156.49946079216897,263.4726468878798 160.34491713810712,264.8484320899006 163.96417016908526,267.3248433584813 166.22620331402868,266.77452997583896 169.16684640292078,265.94905965332873 172.10748949088156,264.8484320899006 175.04813257977366,261.54654620797373 175.27433589380234,259.34528629202396 175.9529458368197,256.593708404107 176.85775909479707,253.84212718973868 177.98877566773444,250.81538401311263 177.08396240975708,247.2383187059313 175.9529458368197,243.38608824275434 176.1791491517797,240.35933116311207 176.6315557807684,237.05740975774825 177.76257235370576,236.23192865750752 178.6673856107518,232.6548404339701 177.31016572378576,229.90323028177954 178.4411822957918,230.17839144705795 177.98877566773444,227.42677830229513 174.82192926388234,226.05097048194148 171.4288795478642,224.95032362709753 168.26203314494342,224.4000000001397 164.1903734849766,225.50064712180756 161.02352708112448,227.97710119676776 158.3090873081237,229.90323028177954 158.08288399223238,233.20516206533648 155.8208508491516,237.05740975774825 154.46363096125424,241.45997056690976 156.04705416224897,241.45997056690976 156.72566410526633,243.11092867492698 156.27325747720897,246.68800046737306 155.5946475332603,250.81538401311263 153.3326143892482,253.01665217778645 155.3684442192316,256.04339242796414 155.5946475332603,258.5198132751975 157.17807073518634,262.92233257344924 159.21390056516975,265.3987459379714 161.92834033910185,266.2242164602503 165.77379668504,266.2242164602503 169.39304971788079,267.60000000009313 173.01230274885893,266.2242164602503 174.14331932086498,264.0229610686656 174.36952263582498,260.4459165164735 175.72674252279103,259.34528629202396 175.9529458368197,255.21791821345687 177.98877566773444,248.61411371990107 177.98877566773444,243.93640727945603 175.9529458368197,241.1848107650876" stroke="#4DD2FF" stroke-dasharray="none" stroke-linecap="round" stroke-linejoin="round" stroke-width="0.5"><title>2013-09-22 10.9km</title><desc>9223370657048162807</desc></polyline></svg>