<?xml version="1.0" encoding="utf-8" ?>
<svg baseProfile="full" height="300mm" version="1.1" viewBox="0,0,200,300" width="200mm" xmlns="http://www.w3.org/2000/svg" xmlns:ev="http://www.w3.org/2001/xml-events" xmlns:xlink="http://www.w3.org/1999/xlink"><defs /><rect fill="#222222" height="300" width="200" x="0" y="0" /><text fill="#FFFFFF" style="font-size:12px; font-family:Arial; font-weight:bold;" x="10" y="20">Over 10km Runs</text><text fill="#FFFFFF" style="font-size:4px; font-family:Arial" x="10" y="280">Runner</text><text fill="#FFFFFF" style="font-size:9px; font-family:Arial" x="10" y="290">keep</text><text fill="#FFFFFF" style="font-size:4px; font-family:Arial" x="65" y="280">SPECIAL TRACKS</text><rect fill="yellow" height="2.6" width="2.6" x="65" y="283" /><text fill="#FFFFFF" style="font-size:3px; font-family:Arial" x="70" y="285.5">Over 20.0 km</text><rect fill="red" height="2.6" width="2.6" x="65" y="287" /><text fill="#FFFFFF" style="font-size:3px; font-family:Arial" x="70" y="289.5">Over 40.0 km</text><text fill="#FFFFFF" style="font-size:4px; font-family:Arial" x="120" y="280">STATISTICS</text><text fill="#FFFFFF" style="font-size:3px; font-family:Arial" x="120" y="285">Number: 15</text><text fill="#FFFFFF" style="font-size:3px; font-family:Arial" x="120" y="290">Weekly: 1.2</text><text fill="#FFFFFF" style="font-size:3px; font-family:Arial" x="141" y="285">Total: 163.6 km</text><text fill="#FFFFFF" style="font-size:3px; font-family:Arial" x="141" y="290">Avg: 10.9 km</text><text fill="#FFFFFF" style="font-size:3px; font-family:Arial" x="167" y="285">Min: 10.2 km</text><text fill="#FFFFFF" style="font-size:3px; font-family:Arial" x="167" y="290">Max: 14.0 km</text><polyline fill="none" opacity="1" points="26.35699896106962,75.59999999999854 26.365932919026818,75.31889480868267 26.35699896106962,75.02654441534105 26.348065003112424,74.76792591455887 26.35699896106962,74.48681794860022 26.365932919026818,74.20570904517808 26.374866877042223,73.98082124750363 26.383800834941212,73.72219953850436 26.473140414629597,73.48606598076731 26.62501770001836,73.38486568210647 26.857300607138313,73.36237671035633 27.009177892527077,73.33988773258898 27.009177892527077,73.17122020819806 27.071715598227456,73.04753047581471 27.071715598227456,72.85637325965945 27.089583514200058,72.57525891903788 27.06278164027026,72.27165437815711 26.84836664912291,72.1142293709272 26.607149784103967,71.9905380875498 26.633951657975558,71.68693144065037 26.68755540571874,71.34958943933452 26.71435727964854,71.12469402175338 26.76796102744993,70.83232908188074 26.79476290132152,70.52871826327464 26.84836664912291,70.24759615983203 26.875168523052707,70.02269780203642 26.884102481009904,69.82028876696131 26.937706228753086,69.67410416156781 27.009177892527077,69.57289928624232 27.018111850484274,69.39297920784884 26.97344206064008,69.3030190246136 27.018111850484274,69.20181370373757 27.071715598227456,69.03313789890672 27.125319346028846,68.80823630070518 27.178923093830235,68.5720889767399 27.232526841631625,68.32469583245256 27.321866421261802,68.03232118036249 27.393338085035793,67.76243598596193 27.455875790736172,67.52628573193215 27.56308328633895,67.31262540820171 27.697092655755114,67.31262540820171 27.857903899159282,67.39134243258741 28.05445097439224,67.40258771576919 28.26886596553959,67.2563989171831 28.447545124799944,67.07647389388148 28.519016788573936,66.8628124298848 28.64409220009111,66.60416888032341 28.77810156950727,66.3455245370933 28.921044896997046,66.08687940015079 29.055054266471416,65.85072445146216 29.189063635887578,65.61456884111976 29.323073005420156,65.38965812086099 29.457082374836318,65.11976446423068 29.573223828396294,64.8836068057426 29.74296902975766,64.56872889843362 29.921648189076222,64.26509551651543 30.11819526430918,63.91647806233232 30.30580838152673,63.56785916617082 30.47555358282989,63.28671384464542 30.618496910319664,63.05055104976054 30.779308153665625,62.80314169773919 30.93118543905439,62.56697754777997 31.02945897669997,62.39828846409364 31.181336262088735,62.17336916059867 31.342147505492903,61.92595723343402 31.529760622710455,61.63356038306665 31.59229832846904,61.38614687116933 31.69950582407182,61.11624039344315 31.860317067417782,60.85757920775359 32.05686414265074,60.64390197733155 32.29808100766968,60.486455250313156 32.47676016698824,60.26153084434918 32.58396766259102,60.05909836569481 32.709043074108195,59.87915797641472 32.798382653680164,59.811680231417995 32.89665619132575,59.598000349040376 32.99492972897133,59.3955662764929 33.04853347671451,59.215624470452894 33.16467493027449,59.10316064656945 33.34335408959305,59.05817507498432 33.45949554309482,59.080667863781855 33.5488351227832,59.001943076757016 33.64710866037058,58.87823254851537 33.77218407188775,58.732028962847835 33.941929273249116,58.57457866384357 34.10274051659508,58.338402663721354 34.26355175994104,58.147212083604245 34.30822154978523,57.97851415268087 34.25461780198384,57.697350184032985 34.26355175994104,57.472418333622045 34.326089465699624,57.247485882850015 34.50476862495998,57.03379949850205 34.67451382637955,56.85385264928482 34.808523195795715,56.662658700952306 34.915730691398494,56.35899683257594 35.03187214495847,56.1115678344504 35.21055130427703,55.875384931248846 35.451768169295974,55.66169506744336 35.62151337059913,55.48174528815434 35.73765482415911,55.2568075236195 35.853796277719084,54.99812835214834 35.96993773127906,54.716954438903485 36.095013142738026,54.46952061919001 36.35409792372957,54.357050460945175 36.55957895697793,54.34580343685957 36.72932415828109,54.09836852730223 36.818663737911265,53.839685799473955 36.89013540162705,53.59224940370041 36.93480519147124,53.3223179613924 36.99734289722983,53.06363285115367 37.059880602988414,52.7487107754132 37.140286224661395,52.46752935604309 37.202823930361774,52.27632545489905 37.202823930361774,52.17509968455124 37.274295594135765,51.93890574739635 37.31003142602276,51.61273207907652 37.381503089680336,51.309052011456515 37.46190871135332,50.994123377829965 37.5601822489989,50.62295597702905 37.59591808082769,50.3642625792927 37.65845578664448,50.04933041428012 37.729927450360265,49.76813998656871 37.80139911407605,49.4757009462046 37.88180473574903,49.1495177422039 37.91754056757782,48.834581036659074 37.96221035742201,48.55338655482046 38.05154993705219,48.22719978012174 38.12302160076797,47.9010117425787 38.18555930652656,47.60856622145366 38.239163054327946,47.37235948257876 38.30170076008653,47.06866413096577 38.355304507829715,46.79871178826579 38.39997429767391,46.551254714271636 38.4714459614479,46.36003738657746 38.48931387736229,46.236308296152856 38.52504970919108,46.02259398480237 38.57865345699247,45.71889376764739 38.641191162751056,45.41519245570089 38.72159678442404,45.08899353086599 38.775200532225426,44.79653824854904 38.828804280026816,44.5828202848279 38.828804280026816,44.51533028891572 38.85560615389841,44.312859976773325 38.90920990164159,44.0653956011156 38.98068156541558,43.73919144987303 39.02535135525977,43.412986035509675 39.08788906101836,43.14302197874349 39.14149280876154,42.91805127058615 39.19509655656293,42.72682569628523 39.23976634640712,42.60309126989159 39.24870030436432,42.49060526995163 39.30230405216571,42.40061636190512 39.3291059260373,42.299378725423594 39.284436136251315,42.13064906089858 39.29337009420851,41.894426962819125 39.3201719680801,41.66945292027958 39.36484175786609,41.44447827692784 39.427379463624675,41.298244436547975 39.480983211426064,41.1520103423245 39.68646424461622,41.185756694299926 39.94554902560776,41.27574690016627 40.1867658906267,41.3769857667794 40.43691671366105,41.43322952899325 40.570926083193626,41.43322952899325 40.606661915022414,41.23075180922751 40.63346378895221,41.02827360280935 40.61559587297961,40.80329724709736 40.62452983093681,40.48832933972153 40.64239774690941,40.162111337005626 40.660265662823804,39.83589207098703 40.73173732653959,39.57716554791841 40.66919962072279,39.36343434255832 40.56199212517822,39.21719688957819 40.311841302143876,39.284691130196734 40.05275652121054,39.31843823021336 39.81153965613339,39.385932389704976 39.7847377822618,39.20594784422428 39.81153965613339,38.935970304955845 39.86514340393478,38.665991900415975 39.92768110963516,38.3847634755366 39.97235089953756,38.11478330437967 40.06169047916774,37.799805344337074 40.124228184926324,37.51857402762107 40.15996401675511,37.23734177195729 40.204633806599304,36.97860726744693 40.24036963842809,36.71987196826376 40.26717151235789,36.49488410553022 40.285039428272285,36.33739224405872 40.231435680470895,36.236147320443706 40.338643176073674,36.15740118463145 40.50838837737683,36.06740551069379 40.64239774690941,35.9886592171315 40.570926083193626,35.84241590517922 40.445850671618246,35.75241989472124 40.45478462963365,35.583677115952014 40.472652545548044,35.45993219665252 40.54412420926383,35.43743310085847 40.72280336852418,35.48243128638569 40.86574669601396,35.45993219665252 40.99975606543012,35.48243128638569 41.1069635610329,35.45993219665252 41.25884084642166,35.43743310085847 41.41965208982583,35.41493399906176 41.491123753541615,35.257440118344675 41.50005771149881,35.03244834933139 41.53579354338581,34.58246300834435 41.58939729112899,34.27872154417855 41.61619916505879,34.019977951509645 41.61619916505879,33.772483336499135 41.625133123015985,33.65998554379621 41.64300103893038,33.47998876296333 41.66086895484477,33.344990924910235 41.52685958542861,33.266242086101556 41.330312510195654,33.243742404352815 41.151633350818884,33.221242716608685 41.01762398140272,33.14249376212683 40.85681273805676,33.09749432647368 40.59772795706522,33.05249486682442 40.32077526015928,32.98499563225778 40.05275652121054,32.95124599468545 39.7847377822618,32.87249678775697 39.55245487514185,32.80499740891537 39.23976634640712,32.77124769924558 39.00748343934538,32.68124840728706 38.85560615389841,32.56874915702065 38.68586095253704,32.591249019125826 38.4357101295609,32.579999088833574 38.158757432654966,32.557499223759805 37.90860660962062,32.557499223759805 37.64058787067188,32.5349993527052 37.37256913172314,32.50124953479826 37.12241830868879,32.4562497566003 36.86333352775546,32.444999808278226 36.61318270472111,32.42249990714481 36.523843125090934,32.400000000001455 36.47917333524674,32.478749648696976 36.42556958744535,32.669998488985584 36.37196583964396,32.82749720787979 36.34516396577237,32.99624550844601 36.30049417598639,33.18749317368929 36.29156021797098,33.378740404696146 36.26475834409939,33.53623779828922 36.202220638340805,33.716234458916006 36.13074897462502,33.86248146244907 36.041409394994844,34.008728212058486 35.97887168923626,34.188723862978804 35.952069815364666,34.30122094948456 35.88953210954787,34.46996629748901 35.800192529917695,34.61621199233923 35.73765482415911,34.76245743325126 35.666183160443325,34.93120185724547 35.585777538770344,35.07744675122376 35.51430587505456,35.24619054418872 35.398164421494585,35.369935777504 35.3624285896658,35.62867522332817 35.264155052020214,35.85366539974348 35.14801359846024,36.089904438194935 35.04080610285746,36.3711405248323 34.9067967334413,36.64112628465955 34.77278736396693,36.92236053088709 34.65664591040695,37.181095208157785 34.540504456846975,37.417330523712735 34.4332969613024,37.66481442951044 34.290353633870836,37.94604525797331 34.156344264396466,38.19352761035407 34.058070726750884,38.41851093611331 33.941929273249116,38.65474278142938 33.870457609475125,38.81223031026457 33.83472177764634,38.91347213761037 33.781118029903155,38.969717544692685 33.66497657634318,39.01471384332399 33.63817470241338,39.22844593345508 33.620306786498986,39.487173527544655 33.47736345906742,39.73465135225706 33.334420131577644,39.97087950667628 33.271882425877266,40.13961349713645 33.20934472011868,40.297098249975534 33.29868429974886,40.364591625322646 33.51309929089621,40.39833829271811 33.77218407188775,40.39833829271811 34.058070726750884,40.4433338282397 34.34395738161402,40.477080464079336 34.61197612056276,40.51082708645117 34.888928817468695,40.555822561858804 35.17481547239004,40.589569152667536 35.424966295366175,40.63456458601286 35.67511711840052,40.657062293692434 35.853796277719084,40.657062293692434 35.961003773263656,40.555822561858804 36.005673563166056,40.364591625322646 36.041409394994844,40.1733602546592 36.02354147908045,40.07211994154204 36.13074897462502,40.09461779939738 36.23795647016959,40.162111337005626 36.246890428185,40.34209383954294 36.19328668038361,40.66831114528759 36.13968293258222,40.96078075917467 36.068211268866435,41.298244436547975 36.014607521065045,41.590711863464094 35.952069815364666,41.894426962819125 35.88953210954787,42.22063825734949 35.818060445890296,42.50185387668898 35.78232461394509,42.76057141743513 35.72872086620191,43.01928816360305 35.64831524452893,43.311749615575536 35.68405107635772,43.55921620501613 35.65724920248613,43.829178928092006 35.46070212725317,44.042898803665594 35.38923046353739,44.245369764612406 35.317758799821604,44.51533028891572 35.24628713610582,44.79653824854904 35.25522109406302,45.021503940391995 35.237353178148624,45.24646903154644 35.38923046353739,45.347703126586566 35.38923046353739,45.62890830786637 35.30882484186441,45.93260884939082 35.264155052020214,46.25880450796103 35.17481547239004,46.629991134825104 35.12121172458865,46.899944018128735 35.076541934744455,47.22613593140704 35.04080610285746,47.54107864936668 35.03187214495847,47.82227650983259 35.02293818700127,48.09222557290923 35.02293818700127,48.39591723501508 35.02293818700127,48.68836002320313 35.00507027108688,49.00329727531789 34.996136313071474,49.284490255624405 34.96933443919988,49.57692995965044 34.95146652328549,49.835625774816435 34.915730691398494,50.10556838724733 34.862126943597104,50.40925279246585 34.81745715375291,50.71293610314751 34.745985490095336,50.994123377829965 34.79065527988132,51.252814841755026 34.77278736396693,51.556495112061384 34.71918361616554,51.848926930520975 34.647711952449754,52.15260505237529 34.48690070910379,52.41129295955761 34.326089465699624,52.62499106649193 34.111674474552274,52.80494694668596 33.87939156749053,52.98490244255663 33.709646366129164,53.15361037087132 33.47736345906742,53.356059438992816 33.29868429974886,53.547260890009056 33.22721263609128,53.670979244823684 33.1289390984457,53.7946974179431 33.02173160284292,53.929662490510964 32.91452410729835,54.08712146867765 32.83411848556716,54.32330938422092 32.74477890593698,54.59323761987616 32.601835578505415,54.87441194590065 32.44995829311665,55.14433841619757 32.307014965685084,55.414264021826966 32.199807470082305,55.594213945252704 32.146203722280916,55.841644462474505 32.13726976432372,56.03284027360496 32.315948923584074,56.156554979061184 32.315948923584074,56.38149034183152 32.199807470082305,56.628918547401554 32.2087414280395,56.7638790805795 32.226609344012104,56.80886587694113 32.12833580636652,56.718892260185385 31.994326436892152,56.92133276275854 31.81564727757359,57.18000603056862 31.672703950142022,57.404938661449705 31.476156874909066,57.607377515916596 31.288543757691514,57.798569320788374 31.172402304131538,58.07973295175907 31.118798556330148,58.28217018522264 30.984789186913986,58.50709987420123 30.877581691311207,58.630810947244754 30.725704405922443,58.630810947244754 30.502355456817895,58.630810947244754 30.287940465612337,58.597071581709315 30.03778964257799,58.55208573995333 29.778704861586448,58.55208573995333 29.519620080594905,58.55208573995333 29.376676753221545,58.563332202640595 29.251601341704372,58.6195644935724 29.189063635887578,58.6195644935724 29.117591972230002,58.810754002057365 29.001450518670026,58.97945026693196 28.93891281291144,59.17063895892352 28.894243023125455,59.44055166797625 28.80490344343707,59.631739313867 28.706629905791488,59.80043393531378 28.69769594783429,59.87915797641472 28.599422410246916,59.99162076474022 28.393941377056763,60.17156091386278 28.20632825983921,60.37399312236812 28.09912076423643,60.57642484462849 28.197394301823806,60.6888867024536 28.24206409160979,60.77885608062206 28.286733881453983,60.902563818817725 28.304601797426585,61.10499427143077 28.36713950318517,61.32991642626439 28.331403671298176,61.47611550497095" stroke="#4DD2FF" stroke-dasharray="none" stroke-linecap="round" stroke-linejoin="round" stroke-width="0.5"><title>2017-12-17 14.0km</title><desc>9223370523376934807</desc></polyline><polyline fill="none" opacity="1" points="100.64618988806615,32.40000000000873 100.60311056219507,32.6891298264527 100.78978764102794,33.01440014393302 100.84722674213117,33.32159917145327 100.9046658432926,33.646867970965104 100.91902561858296,34.08055848944059 100.94774516916368,34.46003655465029 101.00518427032512,34.76723230550124 101.06262337148655,35.11056790883595 101.16314179857727,35.41776218515588 101.17750157380942,35.74302595414338 101.24930045031942,36.104429226368666 101.3641786526423,36.37548104803136 101.55085573135875,36.429691347366315 101.66573393368162,36.61039218843507 101.6082948325784,36.75495268785744 101.39289820322301,36.86337296119018 101.39289820322301,37.11635326179385 101.50777640554588,37.38740305985266 101.65137415844947,37.74880194742582 101.76625236077234,38.07406012227875 101.83805123722414,38.381247681885725 101.99600876547629,38.706504339075764 102.16832606890239,39.013690465304535 102.32628359709634,39.302806183404755 102.28320427128347,39.60999095813895 101.96728921483736,39.628060629125684 101.69445348432055,39.42929411614023 101.49341663025552,39.284736469053314 101.27802000090014,39.23052731167991 101.0482635961962,39.302806183404755 100.76106809033081,39.320875895326026 100.63183011277579,39.48350319403107 100.64618988806615,39.75454825832276 100.58875078690471,40.0075231626397 100.28719550580718,40.11594083425007 99.99999999994179,40.24242800816137 99.69844471878605,40.260497594834305 99.45432853890816,40.24242800816137 99.49740786472103,39.95331429432554 99.58356651652139,39.628060629125684 99.6840849436121,39.320875895326026 99.77024359535426,38.94141143938759 99.84204247180605,38.54387610802951 99.82768269645749,38.16440947681258 99.77024359535426,37.803011697440525 99.72716426942497,37.459682914442965 99.41124921297887,37.38740305985266 99.1240537072299,37.351263118107454 98.99481572967488,37.170563264749944 98.98045595432632,36.989863170529134 98.96609617897775,36.73688263382064 98.90865707787452,36.556181961423135 98.72197999904165,36.520041797994054 98.52094314497663,36.48390162498981 98.34862584143411,36.520041797994054 98.34862584143411,36.75495268785744 98.36298561678268,37.04407322409679 98.3917051674216,37.4235429919936 98.3917051674216,37.73073202591331 98.42042471800232,38.07406012227875 98.43478449323447,38.43545717894449 98.42042471800232,38.77878349024104 98.42042471800232,39.10403919345117 98.43478449323447,39.44736381121038 98.42042471800232,39.7364786042599 98.43478449323447,40.097871228368604 98.44914426852483,40.35084549189196 98.46350404381519,40.603819283263874 98.44914426852483,40.82065358580439 98.43478449323447,41.10976544965524 98.40606494265376,41.380807261914015 98.37734539207304,41.56150150229223 98.34862584143411,41.814473034159164 98.33426606626017,42.06744409388921 98.3199062909116,42.32041468155512 98.3199062909116,42.537246237989166 98.3199062909116,42.86249292228604 98.33426606626017,43.187738826236455 98.3199062909116,43.56719139440975 98.3199062909116,43.910504707484506 98.3199062909116,44.21767904001172 98.33426606626017,44.5067836582748 98.34862584143411,44.88623253394326 98.34862584143411,45.265680347409216 98.34862584143411,45.50057608059433 98.33426606626017,45.82581565457804 98.33426606626017,46.024572787835496 98.2911867403891,46.31367355232942 98.3199062909116,46.566636215444305 98.34862584143411,46.83766711640055 98.3917051674216,47.162903482225374 98.44914426852483,47.470070444542216 98.47786381910555,47.8495110252552 98.54966269561555,48.24701906577684 98.65018112258986,48.644525940777385 98.76505932491273,48.951689545749105 98.8799375272938,49.24078406760236 98.99481572967488,49.58408301141753 99.10969393193955,49.891244487516815 99.21021235891385,50.071927383571165 99.28201123542385,50.288746540943976 99.39688943774672,50.50556535157375 99.51176764006959,50.74045200506225 99.55484696594067,50.99340640747687 99.58356651652139,51.15601970261196 99.75588382000569,51.30056469020201 99.8564022470382,51.44510952354176 99.98564022465143,51.6438584177522 100.11487820226466,51.82453897787491 100.22975640464574,52.059423345985124 100.37335415754933,52.25817133957753 100.560031236324,52.456919041782385 100.76106809033081,52.70987024133501 100.96210494439583,52.9989567486773 101.13442224793835,53.251906936842715 101.26366022555158,53.46872100819019 101.32109932677122,53.61326352978358 101.50777640554588,53.92041587643325 101.69445348432055,54.15529661314213 101.86677078780485,54.42631234214059 102.03908809128916,54.733462846663315 102.1970456194831,54.98640979843913 102.35500314767705,55.257423865943565 102.52732045116136,55.54650494076486 102.71399752999423,55.85365290736081 102.90067460871069,56.17886764284049 103.10171146277571,56.48601417678583 103.28838854166679,56.77509263178217 103.48942539573181,57.0641704704467 103.69046224979684,57.40744960322627 103.90585887915222,57.750727866761736 104.09253595792688,58.03980362509901 104.27921303675976,58.3469459429034 104.4371705648955,58.63602042995626 104.59512809314765,58.88896010047756 104.75308562128339,59.12383222913195 104.9254029248259,59.41290505960933 105.11208000354236,59.70197727379855 105.25567775650416,59.93684799394396 105.44235483527882,60.18978523758415 105.64339168934384,60.47885579524154 105.81570899282815,60.78599258749455 105.9736665210221,61.0208614297444 106.14598382456461,61.3460637703829 106.33266090333927,61.6893320614472 106.5336977574043,62.032599483427475 106.72037483617896,62.33973275589233 106.90705191489542,62.6468653325428 107.15116809483152,62.99013033021765 107.32348539837403,63.279194917326095 107.46708315133583,63.53212592547061 107.65376023005228,63.80312291062728 107.84043730888516,64.12831857778656 108.02711438765982,64.48964618210448 108.21379146643449,64.83290651423158 108.34302944404772,65.08583462394017 108.51534674753202,65.44715967649245 108.64458472520346,65.77235140049015 108.75946292746812,66.1517407594365 108.81690202868776,66.38660030678147 108.81690202868776,66.56726122018881 108.67330427572597,66.76598794692836 108.68766405101633,66.72985583645641 108.81690202868776,66.67565765272593 108.96049978153314,66.82018609457009 109.0466584333335,67.05504448406282 109.14717686036602,67.34410040493822 109.26205506268889,67.66928757935239 109.39129304030212,68.03060574736446 109.52053101791535,68.39192295250541 109.64976899547037,68.77130498166662 109.70720809669001,68.95196271773602 109.83644607436145,69.29521175308037 109.96568405191647,69.62039424813702 110.08056225429755,69.87331342742254 110.18108068127185,70.18042893937672 110.267239333014,70.45141263700498 110.32467843423365,70.70433026616229 110.42519686120795,71.0114438959572 110.54007506358903,71.3185568300978 110.65495326585369,71.66179987459327 110.74111191765405,71.93278061175079 110.85599011997692,72.27602210135956 110.95650854695123,72.54700161101937 111.07138674939051,72.854111067325 111.20062472694553,73.14315462614468 111.30114315397805,73.45026273222174 111.44474090688163,73.79350038061966 111.54525933397235,74.0644768577913 111.67449731158558,74.3715828772838 111.76065596326953,74.58836317816167 111.86117439030204,74.85933806693356 111.99041236797348,75.03998769196915 112.03349169384455,75.16644228625228 112.01913191849599,75.40128621995973 111.96169281739276,75.60000000000582 111.76065596326953,75.49161070150149 111.55961910926271,75.22063707622874 111.35858225513948,74.93159794580424 111.12882585049374,74.642558199208 110.84163034474477,74.29932269998244 110.54007506358903,74.01028160570422 110.28159910836257,73.77543526291265 110.0231231530779,73.50445820817549 109.7790069731418,73.26961098935863 109.50617124262499,72.94443724560551 109.24769528739853,72.7276543166081 108.98921933217207,72.47474046134448 108.70202382630669,72.16763014585013 108.44354787113843,71.91471524609369 108.1707121405052,71.66179987459327 107.85479708411731,71.37275315809529 107.5819613536587,71.15596771631681 107.23732674669009,70.95724742357561 106.92141169024399,70.84885441391089 106.56241730792681,70.75852683965059 106.2177827009582,70.7223957930837 105.84442854340887,70.63206813458237 105.4854341611499,70.5417404158652 105.18387888005236,70.48754375577846 104.83924427308375,70.39721594081493 104.50896944134729,70.39721594081493 104.10689573315904,70.28882248343143 103.71918180031935,70.18042893937672 103.58994382270612,70.14429773882148 103.37454719340894,70.09010091982782 103.18787011457607,70.07203530873812 102.95811370987212,70.03590407923912 102.7570768558071,69.99977284010674 102.55604000174208,69.98170721690985 102.36936292296741,69.9275103330001 102.12524674303131,69.87331342742254 101.88113056309521,69.83718214496912 101.7088132595527,69.76491955120582 101.50777640554588,69.71072258062486 101.20622112439014,69.58426289829367 100.83286696684081,69.43973740273213 100.45951280929148,69.29521175308037 100.12923797761323,69.18681741473847 99.81332292116713,69.09648873328115 99.46868831419852,69.00615999159345 99.10969393193955,68.89776542215259 98.73633977439022,68.78937076612783 98.33426606626017,68.69904181988386 97.94655213336227,68.5364495649992 97.65935662749689,68.48225210337841 97.25728291936684,68.37385711514798 96.94136786303716,68.2112644703011 96.65417235717177,68.1209351389407 96.38133662659675,68.03060574736446 96.06542157020885,67.92221039802826 95.72078696324024,67.7776831308729 95.36179258092307,67.57895788694441 95.03151774924481,67.34410040493822 94.70124291756656,67.14537452551303 94.41404741175938,66.83825213894306 94.198650782404,66.51306297144038 94.04069325426826,66.24207140268118 93.9545346024679,65.9710792923579 93.83965640014503,65.79041758454696 93.66733909666073,65.51942457145196 93.56682066957,65.33876226186112 93.42322291666642,65.04970206574944 93.23654583789175,64.72450860851677 93.04986875911709,64.36318163012038 92.89191123098135,63.96572084170475 92.67651460156776,63.55019240803085 92.46111797215417,63.11659616291581 92.26008111808915,62.71913172007771 92.1021235898952,62.430065938897314 91.94416606175946,62.032599483427475 91.74312920763623,61.6170651250286 91.55645212886157,61.20152949304611 91.34105549956439,60.76792573663988 91.1256588701508,60.33432059349434 90.93898179131793,59.9187810299336 90.72358516196255,59.52130721215508 90.52254830795573,59.105765156738926 90.35023100441322,58.70828895535669 90.16355392558035,58.31081158867164 89.99123662215425,57.94946751682437 89.8332790939603,57.58812248184404 89.64660201512743,57.26291112691979 89.54608358809492,56.955766353188665 89.43120538583025,56.61248607671587 89.30196740815882,56.23307002293586 89.21580875647487,55.81751788852853 89.12965010467451,55.40196448039205 89.08657077886164,55.094815490432666 89.029131677642,54.64312453522871 88.97169257648056,54.20949980232399 88.94297302589985,53.83007702318719 88.89989369997056,53.3783818539232 88.84245459886733,53.05316040014441 88.84245459886733,52.70987024133501 88.82809482357698,52.294307307107374 88.79937527299626,51.95101522664481 88.82809482357698,51.571586126316106 88.84245459886733,51.101815292597166 88.82809482357698,50.74045200506225 88.79937527299626,50.36101951634919 88.69885684590554,49.99965425404662 88.62705796951195,49.529877972905524 88.64141774480231,49.16851049492834 88.61269819416339,48.75293670433166 88.56961886835052,48.40963565555285 88.52653954242123,48.08440228103427 88.469100441318,47.686893763559056 88.5408993177698,47.27131543077121 88.61269819416339,46.83766711640055 88.61269819416339,46.49436121704639 88.61269819416339,46.25946720594948 88.65577752009267,46.0787792281335 88.62705796951195,45.82581565457804 88.56961886835052,45.50057608059433 88.55525909300195,45.175335726264166 88.51217976718908,44.81395663949661 88.48346021660836,44.43450756151287 88.469100441318,44.12733372033108 88.38294178957585,43.7117444742762 88.35422223893693,43.29615395414294 88.32550268835621,42.86249292228604 88.29678313777549,42.501107669304474 88.25370381190442,42.15779078657215 88.21062448603334,41.74219550183625 88.18190493551083,41.579570913061616 88.19626471074298,41.20011278061429 88.21062448603334,40.82065358580439 88.18190493551083,40.45926288883493 88.1531853848137,40.170149637560826 88.11010605900083,39.790687559288926 88.05266695783939,39.41122441871266 88.05266695783939,39.03176021573017 88.08138650847832,38.706504339075764 88.08138650847832,38.30896831872815 87.99522785661975,37.875291330419714 87.9808680813876,37.550032678525895 87.95214853080688,37.18863326095743" stroke="#4DD2FF" stroke-dasharray="none" stroke-linecap="round" stroke-linejoin="round" stroke-width="0.5"><title>2017-11-19 11.8km</title><desc>9223370525802103807</desc></polyline><polyline fill="none" opacity="0.5" points="165.31255996134132,72.68900478316937 164.13409132277593,72.92188469867688 162.95562268421054,72.5725648063235 161.7771540461108,72.10680476890411 160.30406824825332,72.22324479778763 159.0273938900791,72.80544474744238 156.86686805263162,72.10680476890411 155.6883994145319,71.40816432458814 155.09916509548202,70.12732229894027 154.31351933674887,68.84647870704066 154.2153136166744,66.98343068640679 154.41172505635768,65.35326094890479 154.41172505635768,63.490206713438965 154.2153136166744,61.86003153875936 154.2153136166744,59.64764688548166 153.92069645691663,58.48323203262407 153.724285017699,56.7366073258454 154.11710789706558,55.10642163804732 154.11710789706558,53.70911760011222 154.50993077643216,52.54469614417758 154.2153136166744,51.03094631573185 154.70634221564978,49.4007517460268 154.60813649650663,47.6541118909372 154.90275365579873,46.6061265792232 155.0009593758732,44.51015281013679 154.90275365579873,42.64706149313133 155.0009593758732,41.01685387187172 155.09916509548202,39.735974674928 155.39378225523978,38.22220633132383 155.6883994145319,36.591991821769625 155.39378225523978,34.96177477389574 155.39378225523978,33.79733247170225 155.19737081509084,32.40000000002328 155.39378225523978,33.79733247170225 155.39378225523978,34.96177477389574 155.6883994145319,36.591991821769625 155.39378225523978,38.22220633132383 155.09916509548202,39.735974674928 155.0009593758732,41.01685387187172 154.90275365579873,42.64706149313133 155.0009593758732,44.51015281013679 154.90275365579873,46.6061265792232 154.60813649650663,47.6541118909372 154.70634221564978,49.4007517460268 154.2153136166744,51.03094631573185 154.50993077643216,52.54469614417758 154.11710789706558,53.70911760011222 154.11710789706558,55.10642163804732 153.724285017699,56.7366073258454 153.92069645691663,58.48323203262407 154.2153136166744,59.64764688548166 154.2153136166744,61.86003153875936 154.41172505635768,63.490206713438965 154.41172505635768,65.35326094890479 154.2153136166744,66.98343068640679 154.31351933674887,68.84647870704066 155.09916509548202,70.12732229894027 155.6883994145319,71.40816432458814 156.86686805263162,72.10680476890411 159.0273938900791,72.80544474744238 160.30406824825332,72.22324479778763 161.7771540461108,72.10680476890411 162.95562268421054,72.5725648063235 164.13409132277593,72.92188469867688 165.31255996134132,72.68900478316937 166.78564575873315,72.92188469867688 168.45514299627393,73.50408425950445 169.9282287945971,73.15476456168108 171.59772603213787,74.55204265448265 173.954663308803,75.59999999997672 175.82057198602706,75.13424130936619 176.5080120251514,75.01780160400085 178.275714982301,74.90136188617907" stroke="#4DD2FF" stroke-dasharray="1,0.5" stroke-linecap="round" stroke-linejoin="round" stroke-width="0.5"><title>2014-03-22 10.5km</title><desc>9223370641410674807</desc></polyline><polyline fill="none" opacity="1" points="55.600000000034925,102.41055254776438 55.52734262379818,102.42318487338343 55.46506487275474,102.42318487338343 55.41316674678819,102.4358171974236 55.319750120223034,102.4358171974236 55.24709274392808,102.4358171974236 55.16405574249802,102.42318487338343 55.101777991396375,102.4358171974236 55.03950024029473,102.4358171974236 54.9876021144446,102.4358171974236 54.92532436334295,102.4358171974236 54.831907736719586,102.4358171974236 54.76962998561794,102.4484495199431 54.69697260938119,102.42318487338343 54.65545410866616,102.4358171974236 54.572417107236106,102.41055254776438 54.52051898132777,102.39792022065376 54.44786160503281,102.39792022065376 54.385583853931166,102.37265556179045 54.32330610288773,102.38528789199336 54.25064872665098,102.39792022065376 54.18837097554933,102.42318487338343 54.115713599312585,102.42318487338343 54.05343584821094,102.42318487338343 54.01191734749591,102.42318487338343 53.918500720872544,102.41055254776438 53.84584334457759,102.38528789199336 53.78356559353415,102.38528789199336 53.7212878424325,102.37265556179045 53.64863046613755,102.36002323009598 53.60711196542252,102.37265556179045 53.55521383951418,102.36002323009598 53.48255646333564,102.36002323009598 53.399519461847376,102.36002323009598 53.32686208561063,102.37265556179045 53.25420470931567,102.38528789199336 53.171167707885616,102.37265556179045 53.11926958197728,102.38528789199336 53.04661220574053,102.39792022065376 52.98433445463888,102.37265556179045 52.90129745320883,102.36002323009598 52.83901970210718,102.33475856210862 52.78712157619884,102.36002323009598 52.714464199962094,102.36002323009598 52.64180682366714,102.36002323009598 52.57952907256549,102.36002323009598 52.51725132152205,102.34739089687355 52.413455069763586,102.34739089687355 52.36155694385525,102.32212622579391 52.2992791927536,102.30949388798763 52.226621816458646,102.29686154860974 52.13320518983528,102.29686154860974 52.05016818840522,102.32212622579391 51.977510812168475,102.33475856210862 51.89447381073842,102.32212622579391 51.811436809250154,102.33475856210862 51.749159058206715,102.34739089687355 51.68688130710507,102.34739089687355 51.5830850553466,102.33475856210862 51.53118692943826,102.33475856210862 51.45852955314331,102.33475856210862 51.40663142723497,102.33475856210862 51.34435367619153,102.32212622579391 51.261316674761474,102.34739089687355 51.20941854879493,102.34739089687355 51.14714079775149,102.33475856210862 51.08486304670805,102.33475856210862 51.01220567035489,102.32212622579391 50.94992791931145,102.32212622579391 50.8772705430747,102.34739089687355 50.80461316683795,102.33475856210862 50.7423354156781,102.33475856210862 50.69043728982797,102.33475856210862 50.60740028839791,102.33475856210862 50.545122537296265,102.33475856210862 50.49322441138793,102.36002323009598 50.41018740995787,102.37265556179045 50.34790965891443,102.37265556179045 50.285631907812785,102.36002323009598 50.23373378190445,102.37265556179045 50.16107640560949,102.37265556179045 50.098798654507846,102.37265556179045 50.015761653135996,102.36002323009598 49.92234502645442,102.36002323009598 49.87044690060429,102.36002323009598 49.808169149502646,102.36002323009598 49.745891398401,102.36002323009598 49.642095146584325,102.36002323009598 49.600576645927504,102.36002323009598 49.548678520019166,102.36002323009598 49.48640076891752,102.36002323009598 49.413743392622564,102.36002323009598 49.361845266772434,102.36002323009598 49.27880826534238,102.34739089687355 49.23728976456914,102.36002323009598 49.14387313800398,102.36002323009598 49.081595386902336,102.33475856210862 48.99855838541407,102.32212622579391 48.94666025956394,102.29686154860974 48.874002883268986,102.32212622579391 48.81172513216734,102.32212622579391 48.71830850560218,102.30949388798763 48.66641037969384,102.30949388798763 48.57299375307048,102.30949388798763 48.51071600196883,102.29686154860974 48.438058625673875,102.29686154860974 48.375780874630436,102.30949388798763 48.3238827487221,102.29686154860974 48.24084574729204,102.30949388798763 48.178567996190395,102.33475856210862 48.10591061995365,102.34739089687355 48.01249399333028,102.36002323009598 47.97097549261525,102.33475856210862 47.887938491185196,102.33475856210862 47.82566074008355,102.32212622579391 47.74262373865349,102.32212622579391 47.680345987551846,102.30949388798763 47.60768861125689,102.30949388798763 47.54541086021345,102.30949388798763 47.483133109111805,102.2842292077039 47.41047573287506,102.2842292077039 47.31705910625169,102.30949388798763 47.24440173001494,102.29686154860974 47.192503604106605,102.2842292077039 47.13022585300496,102.27159686530649 47.03680922638159,102.27159686530649 46.974531475279946,102.2842292077039 46.89149447384989,102.27159686530649 46.81883709761314,102.2842292077039 46.746179721318185,102.30949388798763 46.683901970274746,102.30949388798763 46.61124459397979,102.29686154860974 46.528207592549734,102.27159686530649 46.44517059111968,102.25896452138113 46.37251321482472,102.23369982889562 46.289476213394664,102.23369982889562 46.216818837157916,102.23369982889562 46.15454108605627,102.22106748034275 46.07150408462621,102.20843513029831 46.009226333524566,102.18317042557464 45.93656895728782,102.19580277868226 45.86391158099286,102.19580277868226 45.79125420481432,102.20843513029831 45.73935607884778,102.20843513029831 45.68745795293944,102.20843513029831 45.60442095150938,102.23369982889562 45.542143200407736,102.23369982889562 45.4798654493643,102.24633217592054 45.41758769826265,102.27159686530649 45.3449303220259,102.29686154860974 45.293032196117565,102.29686154860974 45.2099951946293,102.29686154860974 45.13733781845076,102.29686154860974 45.0646804420976,102.2842292077039 45.00240269105416,102.29686154860974 44.92974531481741,102.27159686530649 44.86746756371576,102.27159686530649 44.81556943786563,102.25896452138113 44.74291206157068,102.27159686530649 44.68063431046903,102.2842292077039 44.628736184560694,102.29686154860974 44.54569918313064,102.27159686530649 44.46266218170058,102.2842292077039 44.42114368098555,102.29686154860974 44.338106679555494,102.27159686530649 44.26544930326054,102.25896452138113 44.20317155215889,102.29686154860974 44.109754925593734,102.2842292077039 44.068236424878705,102.27159686530649 43.99557904858375,102.25896452138113 43.9333012974821,102.24633217592054 43.850264296052046,102.25896452138113 43.7776069198153,102.24633217592054 43.71532916871365,102.25896452138113 43.65305141767021,102.23369982889562 43.601153291761875,102.22106748034275 43.52849591546692,102.22106748034275 43.45583853923017,102.19580277868226 43.362421912606806,102.18317042557464 43.30014416150516,102.20843513029831 43.2274867852102,102.23369982889562 43.144449783780146,102.22106748034275 43.06141278235009,102.20843513029831 42.98875540611334,102.19580277868226 42.926477655011695,102.19580277868226 42.864199903968256,102.20843513029831 42.80192215286661,102.20843513029831 42.71888515143655,102.20843513029831 42.6462277751416,102.20843513029831 42.56319077371154,102.19580277868226 42.5009130226681,102.19580277868226 42.428255646373145,102.19580277868226 42.3659778952715,102.19580277868226 42.29332051903475,102.20843513029831 42.199903892411385,102.20843513029831 42.13762614130974,102.22106748034275 42.08572801545961,102.22106748034275 41.992311388778035,102.24633217592054 41.930033637734596,102.24633217592054 41.86775588663295,102.20843513029831 41.81585776072461,102.1705380709318 41.732820759294555,102.1705380709318 41.6601633829996,102.1705380709318 41.58750600682106,102.18317042557464 41.53560788085451,102.1705380709318 41.45257087942446,102.15790571473917 41.39029312838102,102.15790571473917 41.30725612689275,102.1705380709318 41.244978375849314,102.1705380709318 41.18270062474767,102.19580277868226 41.12042287364602,102.19580277868226 41.05814512260258,102.1705380709318 40.975108121172525,102.15790571473917 40.912830370129086,102.1452733570477 40.84017299377592,102.1705380709318 40.75713599240407,102.1452733570477 40.69485824130243,102.1452733570477 40.63258049020078,102.1452733570477 40.54954348877072,102.1452733570477 40.47688611247577,102.12000863703724 40.42498798656743,102.132640997821 40.3730898607173,102.09474391091499 40.310812109615654,102.0821115455692 40.2381547333207,102.09474391091499 40.17587698227726,102.0821115455692 40.0928399808472,102.09474391091499 40.040941854938865,102.09474391091499 39.98904372903053,102.12000863703724 39.88524747721385,102.12000863703724 39.833349351305515,102.10737627472554 39.75031234987546,102.10737627472554 39.68803459883202,102.12000863703724 39.62575684773037,102.15790571473917 39.55309947143542,102.15790571473917 39.49082172039198,102.15790571473917 39.39740509376861,102.15790571473917 39.324747717473656,102.15790571473917 39.25209034123691,102.1705380709318 39.18981259019347,102.1705380709318 39.14829408942023,102.132640997821 39.05487746279687,102.132640997821 39.00297933688853,102.132640997821 38.93032196070999,102.132640997821 38.86804420960834,102.132640997821 38.816146083700005,102.1452733570477 38.75386833259836,102.10737627472554 38.670831331110094,102.132640997821 38.58779432968004,102.132640997821 38.51513695344329,102.1452733570477 38.45285920239985,102.12000863703724 38.380201826104894,102.10737627472554 38.28678519942332,102.10737627472554 38.21412782324478,102.09474391091499 38.151850072143134,102.12000863703724 38.1103315713699,102.10737627472554 38.04805382032646,102.10737627472554 37.9650168188964,102.10737627472554 37.78856319078477,102.12000863703724 37.653628063504584,102.12000863703724 37.48755406058626,102.10737627472554 37.35261893324787,102.09474391091499 37.2592023066245,102.06947917867365 37.176165305194445,102.03158206881926 37.02047092746943,102.06947917867365 36.77135992317926,102.1452733570477 36.55338779441081,102.132640997821 36.42883229220752,102.12000863703724 36.2627582893474,102.05684681027196 36.179721287917346,102.04421444029867 36.07592503610067,102.03158206881926 35.95136953389738,102.04421444029867 35.712638154800516,102.05684681027196 35.68149927922059,101.99368494526425 35.53618452674709,102.00631732130569 35.484286400838755,102.00631732130569 35.37011052382877,101.99368494526425 35.18327727058204,102.00631732130569 35.05872176849516,102.04421444029867 34.90302739077015,102.1452733570477 34.75771263818024,102.0821115455692 34.63315713603515,102.06947917867365 34.487842383561656,102.19580277868226 34.31138875550823,102.22106748034275 34.269870254735,102.1705380709318 30.335992311418522,101.99368494526425 30.169918308616616,101.94315542568074 30.076501681935042,101.90525827000238 29.931186929461546,101.94315542568074 29.837770302779973,101.95578780787037 29.67169629991986,101.90525827000238 29.484863046673127,101.99368494526425 29.329168668948114,101.99368494526425 29.194233541667927,101.90525827000238 29.059298414271325,101.9178906567613 28.86208553588949,101.85472870760714 28.779048534459434,101.86736110050697 28.612974531541113,101.81683151978359 28.40538202796597,101.86736110050697 25.229216722771525,101.85472870760714 25.042383469524793,101.82946391728183 24.928207592573017,101.82946391728183 24.793272465234622,101.85472870760714 24.585679961601272,101.80419912076468 24.461124459456187,101.82946391728183 24.3365689573111,101.84209631320846 24.222393080359325,101.79156672023964 24.09783757815603,101.76630191459844 23.952522825624328,101.6905074609167 23.765689572377596,101.72840469465154 23.6307544450392,101.7789343181721 23.45430081698578,101.7789343181721 23.288226814125665,101.79156672023964 23.15329168678727,101.76630191459844 23.049495434912387,101.80419912076468 20.54800576652633,101.74103710280906 20.361172513279598,101.76630191459844 20.163959634839557,101.76630191459844 20.008265257114545,101.76630191459844 19.956367131264415,101.76630191459844 19.83181162906112,101.76630191459844 19.759154252824374,101.75366950948955 19.6553580010077,101.79156672023964 19.686496876587626,101.74103710280906 19.60345987515757,101.72840469465154 19.499663623340894,101.6905074609167 19.447765497432556,101.74103710280906 19.281691494514234,101.74103710280906 19.094858241267502,101.75366950948955 19.053339740552474,101.72840469465154 18.959923113929108,101.67787504663283 18.856126862112433,101.65261021348124 18.67967323405901,101.65261021348124 18.61739548301557,101.63997779459169 18.451321480155457,101.67787504663283 18.357904853473883,101.63997779459169 18.233349351328798,101.67787504663283 18.088034598797094,101.7157722849588 18.077654973603785,101.63997779459169 17.98423834698042,101.58944810373214 16.96703507937491,101.66524263082101 16.78020182606997,101.70313987370173 16.645266698789783,101.67787504663283 16.52071119658649,101.65261021348124 16.396155694441404,101.58944810373214 16.313118693011347,101.65261021348124 16.157424315286335,101.63997779459169 16.001729937561322,101.63997779459169 15.78375780879287,101.62734537414508 15.711100432497915,101.66524263082101 15.534646804444492,101.66524263082101 15.441230177879333,101.66524263082101 15.29591542534763,101.7157722849588 15.140221047622617,101.67787504663283 15.015665545477532,101.65261021348124 14.880730418139137,101.60208052872622 14.725036040414125,101.62734537414508 14.62123978859745,101.63997779459169 14.475925036065746,101.61471295222145 14.38250840944238,101.60208052872622 14.14377703028731,101.58944810373214 14.039980778528843,101.61471295222145 13.946564151905477,101.58944810373214 13.842767900088802,101.56418324914557 13.718212397943716,101.60208052872622 13.469101393595338,101.62734537414508 13.219990389305167,101.62734537414508 13.105814512295183,101.57681567723193 13.012397885671817,101.51365352160065 12.981259010208305,101.65261021348124 12.991638635285199,101.80419912076468 13.043536761251744,101.93052304197772 13.022777510865126,102.03158206881926 13.033157136058435,102.10737627472554 13.064296011580154,102.22106748034275 13.074675636773463,102.39792022065376 12.970879384956788,102.4358171974236 12.908601633855142,102.48634647839935 12.846323882811703,102.46108184096374 12.846323882811703,102.27159686530649 12.867083133140113,102.132640997821 12.752907256188337,102.10737627472554 12.649111004371662,102.1452733570477 12.576453628134914,102.1705380709318 12.472657376318239,102.33475856210862 12.44151850079652,102.42318487338343 12.400000000023283,102.48634647839935" stroke="#4DD2FF" stroke-dasharray="none" stroke-linecap="round" stroke-linejoin="round" stroke-width="0.5"><title>2013-12-10 10.9km</title><desc>9223370650177580807</desc></polyline><polyline fill="none" opacity="0.5" points="88.58481199666858,105.92736992868595 88.35420214012265,111.25722491787747 88.58481199666858,117.98965582833625 93.42761902883649,121.35586395906284 99.88469506986439,123.60000000009313 105.88055139407516,120.79482960957102 110.03152885008603,114.0624068370089 110.49274856690317,107.89100213861093 109.80091899074614,101.15854193037376 110.72335842624307,94.98710291530006 111.18457814306021,88.5351263966877 107.95604012254626,83.7662626572419 102.6520133735612,82.08313193893991 96.65615704935044,83.7662626572419 92.73578945267946,86.57147780805826 90.89091058447957,91.62085653445683 90.42969086673111,98.63386431708932 89.73786129057407,104.52477447572164 87.89298242237419,112.94033447606489 112.10701757762581,90.49877332313918 108.87847955711186,86.8519991368521 104.95811196044087,83.20521922083572 97.34798662550747,82.64417564729229 91.12152044288814,89.09616854530759 89.73786129057407,95.5481435037218 89.5072514321655,103.40269750310108 89.27664157282561,108.17152088950388 88.58481199666858,114.34292484284379 90.66030072513968,119.39224314200692 96.88676690869033,122.75844923895784 103.11323309037834,123.03896619309671 108.4172598393634,117.98965582833625 110.26213870756328,110.97670653951354 110.49274856690317,104.52477447572164 110.49274856690317,97.79230450256728 111.64579785987735,91.62085653445683 109.80091899074614,85.72991361888126 105.88055139407516,82.92469745082781 99.88469506986439,82.08313193893991 94.81127818115056,84.32730595883913 91.12152044288814,88.5351263966877 89.96847114898264,95.5481435037218 89.73786129057407,102.56113941781223 89.27664157282561,109.01307694031857 109.80091899074614,93.02345978678204 110.49274856690317,89.37668956816196 106.80299082957208,83.7662626572419 101.96018379833549,80.4000000001397 94.11944860499352,86.01043504965492 89.96847114898264,91.05981499678455 91.35213030129671,99.75594359473325 88.58481199666858,105.92736992868595 88.35420214012265,111.25722491787747 88.58481199666858,117.98965582833625 93.42761902883649,121.35586395906284 99.88469506986439,123.60000000009313 105.88055139407516,120.79482960957102 110.03152885008603,114.0624068370089 110.49274856690317,107.89100213861093 109.80091899074614,101.15854193037376 110.72335842624307,94.98710291530006 111.18457814306021,88.5351263966877 107.95604012254626,83.7662626572419 102.6520133735612,82.08313193893991 96.65615704935044,83.7662626572419 92.73578945267946,86.57147780805826 90.89091058447957,91.62085653445683 90.42969086673111,98.63386431708932 89.73786129057407,104.52477447572164 87.89298242237419,112.94033447606489 112.10701757762581,90.49877332313918 108.87847955711186,86.8519991368521 104.95811196044087,83.20521922083572 97.34798662550747,82.64417564729229 91.12152044288814,89.09616854530759 89.73786129057407,95.5481435037218 89.5072514321655,103.40269750310108 89.27664157282561,108.17152088950388 88.58481199666858,114.34292484284379 90.66030072513968,119.39224314200692 96.88676690869033,122.75844923895784 103.11323309037834,123.03896619309671 108.4172598393634,117.98965582833625 110.26213870756328,110.97670653951354 110.49274856690317,104.52477447572164 110.49274856690317,97.79230450256728 111.64579785987735,91.62085653445683 109.80091899074614,85.72991361888126 105.88055139407516,82.92469745082781 99.88469506986439,82.08313193893991 94.81127818115056,84.32730595883913 91.12152044288814,88.5351263966877 89.96847114898264,95.5481435037218 89.73786129057407,102.56113941781223 89.27664157282561,109.01307694031857 109.80091899074614,93.02345978678204 110.49274856690317,89.37668956816196 106.80299082957208,83.7662626572419 101.96018379833549,80.4000000001397 94.11944860499352,86.01043504965492 89.96847114898264,91.05981499678455 91.35213030129671,99.75594359473325 88.58481199666858,105.92736992868595 88.35420214012265,111.25722491787747 88.58481199666858,117.98965582833625 93.42761902883649,121.35586395906284 99.88469506986439,123.60000000009313 105.88055139407516,120.79482960957102 110.03152885008603,114.0624068370089 110.49274856690317,107.89100213861093 109.80091899074614,101.15854193037376 110.72335842624307,94.98710291530006 111.18457814306021,88.5351263966877 107.95604012254626,83.7662626572419 102.6520133735612,82.08313193893991 96.65615704935044,83.7662626572419 92.73578945267946,86.57147780805826 90.89091058447957,91.62085653445683 90.42969086673111,98.63386431708932 89.73786129057407,104.52477447572164 87.89298242237419,112.94033447606489 112.10701757762581,90.49877332313918 108.87847955711186,86.8519991368521 104.95811196044087,83.20521922083572 97.34798662550747,82.64417564729229 91.12152044288814,89.09616854530759 89.73786129057407,95.5481435037218 89.5072514321655,103.40269750310108 89.27664157282561,108.17152088950388 88.58481199666858,114.34292484284379 90.66030072513968,119.39224314200692 96.88676690869033,122.75844923895784 103.11323309037834,123.03896619309671 108.4172598393634,117.98965582833625 110.26213870756328,110.97670653951354 110.49274856690317,104.52477447572164 110.49274856690317,97.79230450256728 111.64579785987735,91.62085653445683 109.80091899074614,85.72991361888126 105.88055139407516,82.92469745082781 99.88469506986439,82.08313193893991 94.81127818115056,84.32730595883913 91.12152044288814,88.5351263966877 89.96847114898264,95.5481435037218 89.73786129057407,102.56113941781223 89.27664157282561,109.01307694031857 109.80091899074614,93.02345978678204 110.49274856690317,89.37668956816196 106.80299082957208,83.7662626572419 101.96018379833549,80.4000000001397 94.11944860499352,86.01043504965492 89.96847114898264,91.05981499678455 91.35213030129671,99.75594359473325 88.58481199666858,105.92736992868595 88.35420214012265,111.25722491787747 88.58481199666858,117.98965582833625 93.42761902883649,121.35586395906284 99.88469506986439,123.60000000009313 105.88055139407516,120.79482960957102 110.03152885008603,114.0624068370089 110.49274856690317,107.89100213861093 109.80091899074614,101.15854193037376 110.72335842624307,94.98710291530006 111.18457814306021,88.5351263966877 107.95604012254626,83.7662626572419 102.6520133735612,82.08313193893991 96.65615704935044,83.7662626572419 92.73578945267946,86.57147780805826 90.89091058447957,91.62085653445683 90.42969086673111,98.63386431708932 89.73786129057407,104.52477447572164 87.89298242237419,112.94033447606489 112.10701757762581,90.49877332313918 108.87847955711186,86.8519991368521 104.95811196044087,83.20521922083572 97.34798662550747,82.64417564729229 91.12152044288814,89.09616854530759 89.73786129057407,95.5481435037218 89.5072514321655,103.40269750310108 89.27664157282561,108.17152088950388 88.58481199666858,114.34292484284379 90.66030072513968,119.39224314200692 96.88676690869033,122.75844923895784 103.11323309037834,123.03896619309671 108.4172598393634,117.98965582833625 110.26213870756328,110.97670653951354 110.49274856690317,104.52477447572164 110.49274856690317,97.79230450256728 111.64579785987735,91.62085653445683 109.80091899074614,85.72991361888126 105.88055139407516,82.92469745082781 99.88469506986439,82.08313193893991 94.81127818115056,84.32730595883913 91.12152044288814,88.5351263966877 89.96847114898264,95.5481435037218 89.73786129057407,102.56113941781223 89.27664157282561,109.01307694031857 109.80091899074614,93.02345978678204 110.49274856690317,89.37668956816196 106.80299082957208,83.7662626572419 101.96018379833549,80.4000000001397 94.11944860499352,86.01043504965492 89.96847114898264,91.05981499678455 91.35213030129671,99.75594359473325 88.58481199666858,105.92736992868595 88.35420214012265,111.25722491787747 88.58481199666858,117.98965582833625 93.42761902883649,121.35586395906284 99.88469506986439,123.60000000009313 105.88055139407516,120.79482960957102 110.03152885008603,114.0624068370089 110.49274856690317,107.89100213861093 109.80091899074614,101.15854193037376 110.72335842624307,94.98710291530006 111.18457814306021,88.5351263966877 107.95604012254626,83.7662626572419 102.6520133735612,82.08313193893991 96.65615704935044,83.7662626572419 92.73578945267946,86.57147780805826 90.89091058447957,91.62085653445683 90.42969086673111,98.63386431708932 89.73786129057407,104.52477447572164 87.89298242237419,112.94033447606489 112.10701757762581,90.49877332313918 108.87847955711186,86.8519991368521 104.95811196044087,83.20521922083572 97.34798662550747,82.64417564729229 91.12152044288814,89.09616854530759 89.73786129057407,95.5481435037218 89.5072514321655,103.40269750310108 89.27664157282561,108.17152088950388 88.58481199666858,114.34292484284379 90.66030072513968,119.39224314200692 96.88676690869033,122.75844923895784 103.11323309037834,123.03896619309671 108.4172598393634,117.98965582833625 110.26213870756328,110.97670653951354 110.49274856690317,104.52477447572164 110.49274856690317,97.79230450256728 111.64579785987735,91.62085653445683 109.80091899074614,85.72991361888126 105.88055139407516,82.92469745082781 99.88469506986439,82.08313193893991 94.81127818115056,84.32730595883913 91.12152044288814,88.5351263966877 89.96847114898264,95.5481435037218 89.73786129057407,102.56113941781223 89.27664157282561,109.01307694031857 109.80091899074614,93.02345978678204 110.49274856690317,89.37668956816196 106.80299082957208,83.7662626572419 101.96018379833549,80.4000000001397 94.11944860499352,86.01043504965492 89.96847114898264,91.05981499678455 91.35213030129671,99.75594359473325 88.58481199666858,105.92736992868595 88.35420214012265,111.25722491787747 88.58481199666858,117.98965582833625 93.42761902883649,121.35586395906284 99.88469506986439,123.60000000009313 105.88055139407516,120.79482960957102 110.03152885008603,114.0624068370089 110.49274856690317,107.89100213861093 109.80091899074614,101.15854193037376 110.72335842624307,94.98710291530006 111.18457814306021,88.5351263966877 107.95604012254626,83.7662626572419 102.6520133735612,82.08313193893991 96.65615704935044,83.7662626572419 92.73578945267946,86.57147780805826 90.89091058447957,91.62085653445683 90.42969086673111,98.63386431708932 89.73786129057407,104.52477447572164 87.89298242237419,112.94033447606489 112.10701757762581,90.49877332313918 108.87847955711186,86.8519991368521 104.95811196044087,83.20521922083572 97.34798662550747,82.64417564729229 91.12152044288814,89.09616854530759 89.73786129057407,95.5481435037218 89.5072514321655,103.40269750310108 89.27664157282561,108.17152088950388 88.58481199666858,114.34292484284379 90.66030072513968,119.39224314200692 96.88676690869033,122.75844923895784 103.11323309037834,123.03896619309671 108.4172598393634,117.98965582833625 110.26213870756328,110.97670653951354 110.49274856690317,104.52477447572164 110.49274856690317,97.79230450256728 111.64579785987735,91.62085653445683 109.80091899074614,85.72991361888126 105.88055139407516,82.92469745082781 99.88469506986439,82.08313193893991 94.81127818115056,84.32730595883913 91.12152044288814,88.5351263966877 89.96847114898264,95.5481435037218 89.73786129057407,102.56113941781223 89.27664157282561,109.01307694031857 109.80091899074614,93.02345978678204 110.49274856690317,89.37668956816196 106.80299082957208,83.7662626572419 101.96018379833549,80.4000000001397 94.11944860499352,86.01043504965492 89.96847114898264,91.05981499678455 91.35213030129671,99.75594359473325 88.58481199666858,105.92736992868595 88.35420214012265,111.25722491787747 88.58481199666858,117.98965582833625 93.42761902883649,121.35586395906284 99.88469506986439,123.60000000009313 105.88055139407516,120.79482960957102 110.03152885008603,114.0624068370089 110.49274856690317,107.89100213861093 109.80091899074614,101.15854193037376 110.72335842624307,94.98710291530006 111.18457814306021,88.5351263966877 107.95604012254626,83.7662626572419 102.6520133735612,82.08313193893991 96.65615704935044,83.7662626572419 92.73578945267946,86.57147780805826 90.89091058447957,91.62085653445683 90.42969086673111,98.63386431708932 89.73786129057407,104.52477447572164 87.89298242237419,112.94033447606489" stroke="#4DD2FF" stroke-dasharray="1,0.5" stroke-linecap="round" stroke-linejoin="round" stroke-width="0.5"><title>2013-11-30 10.3km</title><desc>9223370651086224807</desc></polyline><polyline fill="none" opacity="1" points="152.97821502853185,103.44008773053065 153.7674141181633,106.00008509983309 152.71514866687357,109.52007744112052 152.97821502853185,113.0400651015807 152.97821502853185,117.20004448434338 155.34581229649484,118.8000348128844 158.50260865315795,121.04001965047792 162.4486040994525,122.64000765909441 165.8684668187052,123.60000000009313 169.5513959005475,122.96000514458865 172.70819225814193,120.40002417610958 175.60192225128412,117.20004448434338 177.4433867931366,112.72006641607732 177.70645315479487,109.20007833093405 177.96951951924711,105.68008556473069 177.96951951924711,101.84008811716922 177.18032042961568,98.00008510029875 177.96951951924711,94.16007651342079 178.23258588276803,90.96006510220468 179.28485133405775,87.12004630244337 178.75871860794723,83.60002417699434 177.18032042961568,80.4000000001397" stroke="#4DD2FF" stroke-dasharray="none" stroke-linecap="round" stroke-linejoin="round" stroke-width="0.5"><title>2013-11-16 10.4km</title><desc>9223370652294258807</desc></polyline><polyline fill="none" opacity="1" points="22.16202582605183,163.20005889236927 23.148523673415184,165.60004496737383 25.61476829368621,167.7000308786519 30.30063307005912,171.60000000009313 34.24662446137518,171.60000000009313 37.945991390384734,170.40001015365124 40.16561154834926,169.20001972699538 42.878480629995465,165.90004306309856 43.61835401505232,163.20005889236927 43.37172955367714,159.000077677425 43.86497847829014,154.2000904425513 44.85147632565349,151.20009370637126 45.59134971071035,147.60009283619002 45.59134971071035,144.00008674431592 45.837974173016846,139.80007303715684 45.34472524933517,135.90005394420587 43.125105092301965,132.6000330010429 40.41223601065576,130.50001738895662 36.21962015796453,128.4000000001397 32.52025322802365,129.00000514974818 29.06751076132059,130.50001738895662 25.86139275599271,132.0000287219882 23.148523673415184,135.00004866719246 22.408650287427008,140.40007542981766" stroke="#4DD2FF" stroke-dasharray="none" stroke-linecap="round" stroke-linejoin="round" stroke-width="0.5"><title>2013-11-03 10.7km</title><desc>9223370653417861807</desc></polyline><polyline fill="none" opacity="0.5" points="91.73574438877404,141.4415969287511 89.94887830968946,146.60387480724603 91.73574438877404,154.21142059750855 89.05544527154416,156.11330302152783 88.83208701107651,163.17742365039885 99.77664174046367,167.52456377167255 103.12701563630253,167.52456377167255 108.04089735168964,163.99251306336373 108.93433039076626,160.46045680507086 107.59418083168566,158.83027512137778 110.27447994984686,155.84160563116893 110.27447994984686,149.32085840264335 110.27447994984686,141.98499515815638 109.38104691077024,133.01890756678768 103.5737321563065,129.21510202554055 96.64962610416114,130.30190426576883 90.61895308922976,133.01890756678768 90.17223657015711,140.3548000745941 88.83208701107651,147.4189702309668 89.05544527154416,155.0265132614877 88.83208701107651,161.54724393785 97.98977566231042,168.61134748952463 103.35037389583886,171.60000000009313 109.15768865030259,162.6340305446647 109.60440516937524,158.55857805884443 108.93433039076626,148.77746194624342 109.60440516937524,142.80009225662798 109.82776342984289,135.73590758326463 106.92410605214536,130.57360474346206 100.0,129.48680263455026 93.7459687255323,130.57360474346206 88.83208701107651,135.46420772955753 89.27880353014916,139.53970208973624 88.60872875060886,145.788779088296 88.38537049200386,150.13595284055918 88.60872875060886,156.92839499609545 91.51238612923771,166.1660833877977 97.09634262230247,168.3396516093053 102.01022433675826,169.15473914984614 107.37082257214934,168.61134748952463 108.04089735168964,158.28688096394762 108.93433039076626,146.87557331495918 110.49783820938319,142.80009225662798 111.16791298892349,136.55100694834255 107.14746431168169,129.48680263455026 100.0,128.67170070810243 91.06566960923374,131.9321066401899 99.3299252204597,129.21510202554055 93.7459687255323,132.20380692067556 92.18246090784669,137.90950523223728 90.39559482969344,144.158586763544 90.17223657015711,150.67934896843508 88.83208701107651,155.0265132614877 88.38537049200386,157.47178948204964 94.19268524646759,166.1660833877977 101.11679129954427,167.52456377167255 105.80731475353241,168.3396516093053 108.71097213122994,162.90572711406276 109.60440516937524,159.101972151082 108.93433039076626,158.01518383715302 110.05112169031054,150.67934896843508 109.82776342984289,146.06047769379802 109.82776342984289,136.55100694834255 107.59418083168566,129.48680263455026 99.77664174046367,128.94340138346888 93.7459687255323,132.4755071690306 90.39559482969344,137.36610601702705 89.94887830968946,143.8868879280053 89.27880353014916,151.49444291344844 88.83208701107651,159.101972151082 92.40581916645169,165.62269100314006 100.44671652000397,169.96982639585622 107.37082257214934,167.79625975061208 109.60440516937524,159.64536611153744 109.15768865030259,153.12462991802022 109.38104691077024,146.06047769379802 111.16791298892349,138.72460380825214 108.48761387076229,134.10570796765387 104.2438069358468,129.75850321073085 95.97955132462084,130.30190426576883 90.84231134969741,132.4755071690306 88.60872875060886,138.18120479094796 88.16201223153621,142.52839325624518 88.83208701107651,147.4189702309668 88.83208701107651,153.6680253231898 88.83208701107651,161.27554720430635 95.7561930641532,168.61134748952463 100.0,169.96982639585622 105.13723997492343,171.32830448099412 108.93433039076626,162.36233394173905 109.15768865030259,151.2227449649945 108.93433039076626,145.51708045019768 111.83798776753247,140.62649933691137 109.38104691077024,131.9321066401899 104.02044867537916,128.4000000001397 95.0861182846129,130.30190426576883 90.61895308922976,133.29060771595687 95.97955132462084,130.57360474346206 92.62917742691934,135.46420772955753 91.73574438877404,141.4415969287511 89.94887830968946,146.60387480724603 91.73574438877404,154.21142059750855 89.05544527154416,156.11330302152783 88.83208701107651,163.17742365039885 99.77664174046367,167.52456377167255 103.12701563630253,167.52456377167255 108.04089735168964,163.99251306336373 108.93433039076626,160.46045680507086 107.59418083168566,158.83027512137778 110.27447994984686,155.84160563116893 110.27447994984686,149.32085840264335 110.27447994984686,141.98499515815638 109.38104691077024,133.01890756678768 103.5737321563065,129.21510202554055 96.64962610416114,130.30190426576883 90.61895308922976,133.01890756678768 90.17223657015711,140.3548000745941 88.83208701107651,147.4189702309668 89.05544527154416,155.0265132614877 88.83208701107651,161.54724393785 97.98977566231042,168.61134748952463 103.35037389583886,171.60000000009313 109.15768865030259,162.6340305446647 109.60440516937524,158.55857805884443 108.93433039076626,148.77746194624342 109.60440516937524,142.80009225662798 109.82776342984289,135.73590758326463 106.92410605214536,130.57360474346206 100.0,129.48680263455026 93.7459687255323,130.57360474346206 88.83208701107651,135.46420772955753 89.27880353014916,139.53970208973624 88.60872875060886,145.788779088296 88.38537049200386,150.13595284055918 88.60872875060886,156.92839499609545 91.51238612923771,166.1660833877977 97.09634262230247,168.3396516093053 102.01022433675826,169.15473914984614 107.37082257214934,168.61134748952463 108.04089735168964,158.28688096394762 108.93433039076626,146.87557331495918 110.49783820938319,142.80009225662798 111.16791298892349,136.55100694834255 107.14746431168169,129.48680263455026 100.0,128.67170070810243 91.06566960923374,131.9321066401899 99.3299252204597,129.21510202554055 93.7459687255323,132.20380692067556 92.18246090784669,137.90950523223728 90.39559482969344,144.158586763544 90.17223657015711,150.67934896843508 88.83208701107651,155.0265132614877 88.38537049200386,157.47178948204964 94.19268524646759,166.1660833877977 101.11679129954427,167.52456377167255 105.80731475353241,168.3396516093053 108.71097213122994,162.90572711406276 109.60440516937524,159.101972151082 108.93433039076626,158.01518383715302 110.05112169031054,150.67934896843508 109.82776342984289,146.06047769379802 109.82776342984289,136.55100694834255 107.59418083168566,129.48680263455026 99.77664174046367,128.94340138346888 93.7459687255323,132.4755071690306 90.39559482969344,137.36610601702705 89.94887830968946,143.8868879280053 89.27880353014916,151.49444291344844 88.83208701107651,159.101972151082 92.40581916645169,165.62269100314006 100.44671652000397,169.96982639585622 107.37082257214934,167.79625975061208 109.60440516937524,159.64536611153744 109.15768865030259,153.12462991802022 109.38104691077024,146.06047769379802 111.16791298892349,138.72460380825214 108.48761387076229,134.10570796765387 104.2438069358468,129.75850321073085 95.97955132462084,130.30190426576883 90.84231134969741,132.4755071690306 88.60872875060886,138.18120479094796 88.16201223153621,142.52839325624518 88.83208701107651,147.4189702309668 88.83208701107651,153.6680253231898 88.83208701107651,161.27554720430635 95.7561930641532,168.61134748952463 100.0,169.96982639585622 105.13723997492343,171.32830448099412 108.93433039076626,162.36233394173905 109.15768865030259,151.2227449649945 108.93433039076626,145.51708045019768 111.83798776753247,140.62649933691137 109.38104691077024,131.9321066401899 104.02044867537916,128.4000000001397 95.0861182846129,130.30190426576883 90.61895308922976,133.29060771595687 95.97955132462084,130.57360474346206 92.62917742691934,135.46420772955753 91.73574438877404,141.4415969287511 89.94887830968946,146.60387480724603 91.73574438877404,154.21142059750855 89.05544527154416,156.11330302152783 88.83208701107651,163.17742365039885 99.77664174046367,167.52456377167255 103.12701563630253,167.52456377167255 108.04089735168964,163.99251306336373 108.93433039076626,160.46045680507086 107.59418083168566,158.83027512137778 110.27447994984686,155.84160563116893 110.27447994984686,149.32085840264335 110.27447994984686,141.98499515815638 109.38104691077024,133.01890756678768 103.5737321563065,129.21510202554055 96.64962610416114,130.30190426576883 90.61895308922976,133.01890756678768 90.17223657015711,140.3548000745941 88.83208701107651,147.4189702309668 89.05544527154416,155.0265132614877 88.83208701107651,161.54724393785 97.98977566231042,168.61134748952463 103.35037389583886,171.60000000009313 109.15768865030259,162.6340305446647 109.60440516937524,158.55857805884443 108.93433039076626,148.77746194624342 109.60440516937524,142.80009225662798 109.82776342984289,135.73590758326463 106.92410605214536,130.57360474346206 100.0,129.48680263455026 93.7459687255323,130.57360474346206 88.83208701107651,135.46420772955753 89.27880353014916,139.53970208973624 88.60872875060886,145.788779088296 88.38537049200386,150.13595284055918 88.60872875060886,156.92839499609545 91.51238612923771,166.1660833877977 97.09634262230247,168.3396516093053 102.01022433675826,169.15473914984614 107.37082257214934,168.61134748952463 108.04089735168964,158.28688096394762 108.93433039076626,146.87557331495918 110.49783820938319,142.80009225662798 111.16791298892349,136.55100694834255 107.14746431168169,129.48680263455026 100.0,128.67170070810243 91.06566960923374,131.9321066401899 99.3299252204597,129.21510202554055 93.7459687255323,132.20380692067556 92.18246090784669,137.90950523223728 90.39559482969344,144.158586763544 90.17223657015711,150.67934896843508 88.83208701107651,155.0265132614877 88.38537049200386,157.47178948204964 94.19268524646759,166.1660833877977 101.11679129954427,167.52456377167255 105.80731475353241,168.3396516093053 108.71097213122994,162.90572711406276 109.60440516937524,159.101972151082 108.93433039076626,158.01518383715302 110.05112169031054,150.67934896843508 109.82776342984289,146.06047769379802 109.82776342984289,136.55100694834255 107.59418083168566,129.48680263455026 99.77664174046367,128.94340138346888 93.7459687255323,132.4755071690306 90.39559482969344,137.36610601702705 89.94887830968946,143.8868879280053 89.27880353014916,151.49444291344844 88.83208701107651,159.101972151082 92.40581916645169,165.62269100314006 100.44671652000397,169.96982639585622 107.37082257214934,167.79625975061208 109.60440516937524,159.64536611153744 109.15768865030259,153.12462991802022 109.38104691077024,146.06047769379802 111.16791298892349,138.72460380825214 108.48761387076229,134.10570796765387 104.2438069358468,129.75850321073085 95.97955132462084,130.30190426576883 90.84231134969741,132.4755071690306 88.60872875060886,138.18120479094796 88.16201223153621,142.52839325624518 88.83208701107651,147.4189702309668 88.83208701107651,153.6680253231898 88.83208701107651,161.27554720430635 95.7561930641532,168.61134748952463 100.0,169.96982639585622 105.13723997492343,171.32830448099412 108.93433039076626,162.36233394173905 109.15768865030259,151.2227449649945 108.93433039076626,145.51708045019768 111.83798776753247,140.62649933691137 109.38104691077024,131.9321066401899 104.02044867537916,128.4000000001397 95.0861182846129,130.30190426576883 90.61895308922976,133.29060771595687 95.97955132462084,130.57360474346206 92.62917742691934,135.46420772955753 91.73574438877404,141.4415969287511 89.94887830968946,146.60387480724603 91.73574438877404,154.21142059750855 89.05544527154416,156.11330302152783 88.83208701107651,163.17742365039885 99.77664174046367,167.52456377167255 103.12701563630253,167.52456377167255 108.04089735168964,163.99251306336373 108.93433039076626,160.46045680507086 107.59418083168566,158.83027512137778 110.27447994984686,155.84160563116893 110.27447994984686,149.32085840264335 110.27447994984686,141.98499515815638 109.38104691077024,133.01890756678768 103.5737321563065,129.21510202554055 96.64962610416114,130.30190426576883 90.61895308922976,133.01890756678768 90.17223657015711,140.3548000745941 88.83208701107651,147.4189702309668 89.05544527154416,155.0265132614877 88.83208701107651,161.54724393785 97.98977566231042,168.61134748952463 103.35037389583886,171.60000000009313 109.15768865030259,162.6340305446647 109.60440516937524,158.55857805884443 108.93433039076626,148.77746194624342 109.60440516937524,142.80009225662798 109.82776342984289,135.73590758326463 106.92410605214536,130.57360474346206 100.0,129.48680263455026 93.7459687255323,130.57360474346206 88.83208701107651,135.46420772955753 89.27880353014916,139.53970208973624 88.60872875060886,145.788779088296 88.38537049200386,150.13595284055918 88.60872875060886,156.92839499609545 91.51238612923771,166.1660833877977 97.09634262230247,168.3396516093053 102.01022433675826,169.15473914984614 107.37082257214934,168.61134748952463 108.04089735168964,158.28688096394762 108.93433039076626,146.87557331495918 110.49783820938319,142.80009225662798 111.16791298892349,136.55100694834255 107.14746431168169,129.48680263455026 100.0,128.67170070810243 91.06566960923374,131.9321066401899 99.3299252204597,129.21510202554055 93.7459687255323,132.20380692067556 92.18246090784669,137.90950523223728 90.39559482969344,144.158586763544 90.17223657015711,150.67934896843508 88.83208701107651,155.0265132614877 88.38537049200386,157.47178948204964 94.19268524646759,166.1660833877977 101.11679129954427,167.52456377167255 105.80731475353241,168.3396516093053 108.71097213122994,162.90572711406276 109.60440516937524,159.101972151082 108.93433039076626,158.01518383715302 110.05112169031054,150.67934896843508" stroke="#4DD2FF" stroke-dasharray="1,0.5" stroke-linecap="round" stroke-linejoin="round" stroke-width="0.5"><title>2013-11-02 10.5km</title><desc>9223370653505000807</desc></polyline><polyline fill="none" opacity="1" points="157.63046623580158,141.05740975751542 156.27324454393238,143.80901126051322 155.8208373133093,146.28544976958074 156.0470409290865,150.4128412983846 157.63046623580158,153.98990790266544 154.6898192372173,154.81538401241414 154.9160228529945,155.91601836122572 154.23741200659424,157.2918105481658 154.6898192372173,163.07012865273282 160.1187060046941,166.09686085488647 165.77379638515413,167.472646887647 167.13101807702333,167.472646887647 169.16685061436146,167.472646887647 171.88129399716854,168.29811810934916 174.14333015028387,163.8956014700234 174.82194099668413,162.7949709808454 175.04814461153,160.31855043233372 175.72675545606762,158.94276007497683 173.6909229196608,158.667601903202 175.04814461153,157.84212719067 176.4053663033992,155.64085982437246 176.17916268855333,150.4128412983846 176.4053663033992,149.0370449537877 175.95295907184482,145.7351303335745 176.4053663033992,141.60773032391444 175.95295907184482,136.10451866895892 175.50055184215307,132.5274239582941 173.6909229196608,128.95032362639904 169.61925784498453,128.67516182991676 165.77379638515413,128.39999999990687 162.60694577172399,129.775808817707 159.6662987722084,131.97710119606927 156.49944815877825,132.5274239582941 156.27324454393238,136.93000126513653 156.0470409290865,139.9567682244815 155.8208373133093,143.53385126008652 154.6898192372173,147.11092867446132 155.14222646690905,151.23831870546564 154.9160228529945,154.81538401241414 154.6898192372173,158.94276007497683 154.6898192372173,161.41918212012388 158.3090770803392,165.54654620750807 163.96416746359318,168.57327511697076 166.4524072315544,169.94905965332873 169.39305422920734,171.60000000009313 173.46471930481493,167.7478039949201 175.27434822637588,162.51981327543035 175.72675545606762,159.49307631794363 175.72675545606762,158.39244369836524 175.27434822637588,152.8892726227641 175.04814461153,148.4867261829786 175.50055184215307,145.7351303335745 175.72675545606762,142.43321092473343 177.31018076371402,138.3058049271349 175.95295907184482,135.27903577289544 174.59573737997562,133.6280690834392 173.01231207326055,130.05097048124298 170.2978686913848,129.22548538981937 166.00000000093132,128.95032362639904 161.92833492625505,129.775808817707 159.6662987722084,130.05097048124298 156.72565177455544,131.97710119606927 154.6898192372173,135.00387474126182 154.4636156214401,137.75548356282525 155.14222646690905,139.13128672586754 154.01120839081705,142.15805075713433 154.4636156214401,145.45997056597844 154.6898192372173,147.11092867446132 154.23741200659424,149.86252286005765 154.6898192372173,153.43959032930434 154.4636156214401,156.74149377294816 154.6898192372173,161.14402424846776 157.4042626209557,166.09686085488647 161.70213131047785,168.57327511697076 163.05935300234705,168.29811810934916 166.00000000093132,169.94905965332873 168.03583253733814,169.1235890306998 171.2026831516996,171.32484335824847 173.46471930481493,168.57327511697076 175.04814461153,162.24465553602204 174.14333015028387,158.11728546093218 175.27434822637588,150.96315960306674 175.04814461153,146.56060943822376 175.04814461153,145.18481076532044 176.63156991824508,142.43321092473343 177.98879161011428,140.23192865704186 177.31018076371402,136.10451866895892 175.50055184215307,131.42677830089815" stroke="#4DD2FF" stroke-dasharray="none" stroke-linecap="round" stroke-linejoin="round" stroke-width="0.5"><title>2013-10-26 11.1km</title><desc>9223370654110301807</desc></polyline><polyline fill="none" opacity="1" points="31.360450747422874,176.69189448514953 28.48094247095287,179.02704909769818 25.841393218375742,181.65409533679485 25.36147517338395,184.86492574820295 25.36147517338395,188.65953800245188 24.881557127460837,191.87035909784026 24.4016390806064,196.2487446211744 21.52213080599904,199.45955562591553 22.002048851922154,203.2541449451819 21.762089828029275,207.63250982784666 22.24200787395239,210.84330569510348 22.24200787395239,213.7622073253151 24.4016390806064,216.68110542627983 27.52110637910664,219.0162213675212 30.88053270149976,219.60000000009313 34.95983609277755,219.0162213675212 37.599385344423354,217.55677416920662 41.438729711808264,215.80543636647053 42.398565804585814,213.47031732136384 44.07827896531671,209.96763451839797 44.55819701123983,206.4649466353003 44.55819701123983,202.67036236193962 45.03811505623162,199.16766389319673 45.75799212604761,194.78928366210312 45.997951148077846,191.28657376184128 46.47786919493228,188.36764496355318 46.2379101710394,184.57303225039504 45.2780740801245,180.7784135742113 43.118442873470485,178.15136638237163 39.99897557403892,176.98378893523477 36.39959023054689,176.4000000001397 32.800204885192215,176.4000000001397 29.44077856373042,177.8594720736146 25.841393218375742,180.1946255567018 24.4016390806064,183.1135642353911" stroke="#4DD2FF" stroke-dasharray="none" stroke-linecap="round" stroke-linejoin="round" stroke-width="0.5"><title>2013-10-20 10.7km</title><desc>9223370654628121807</desc></polyline><polyline fill="none" opacity="0.5" points="111.79743744432926,190.60282385186292 109.36497611645609,179.95071368920617 101.82434599753469,176.4000000001397 95.98643880710006,179.35892843198963 92.58099294733256,184.38909855671227 89.6620393525809,193.56173511454836 88.20256255567074,200.66310755256563 88.68905482254922,207.76445938879624 95.01345427706838,219.00822432828136 101.58109986409545,219.60000000009313 107.66225318517536,216.34523203712888 109.85146838147193,208.35623777774163 110.09471451491117,200.66310755256563 111.06769904587418,194.1535169375129 111.55419131275266,186.164450250566 106.68926865514368,177.87946466286667 98.90539240278304,176.6958930043038 93.31073134578764,181.4301762059331 91.12151614949107,189.12336687906645 89.6620393525809,197.11242390889674 88.44580868817866,204.50967568764463 88.20256255567074,211.31512758042663 98.66214626841247,219.00822432828136 104.98654572386295,218.1205605531577 109.36497611645609,212.79457114078104 110.09471451491117,203.6220066549722 110.09471451491117,197.11242390889674 111.79743744432926,190.60282385186292 109.36497611645609,179.95071368920617 101.82434599753469,176.4000000001397 95.98643880710006,179.35892843198963 92.58099294733256,184.38909855671227 89.6620393525809,193.56173511454836 88.20256255567074,200.66310755256563 88.68905482254922,207.76445938879624 95.01345427706838,219.00822432828136 101.58109986409545,219.60000000009313 107.66225318517536,216.34523203712888 109.85146838147193,208.35623777774163 110.09471451491117,200.66310755256563 111.06769904587418,194.1535169375129 111.55419131275266,186.164450250566 106.68926865514368,177.87946466286667 98.90539240278304,176.6958930043038 93.31073134578764,181.4301762059331 91.12151614949107,189.12336687906645 89.6620393525809,197.11242390889674 88.44580868817866,204.50967568764463 88.20256255567074,211.31512758042663 98.66214626841247,219.00822432828136 104.98654572386295,218.1205605531577 109.36497611645609,212.79457114078104 110.09471451491117,203.6220066549722 110.09471451491117,197.11242390889674 111.79743744432926,190.60282385186292 109.36497611645609,179.95071368920617 101.82434599753469,176.4000000001397 95.98643880710006,179.35892843198963 92.58099294733256,184.38909855671227 89.6620393525809,193.56173511454836 88.20256255567074,200.66310755256563 88.68905482254922,207.76445938879624 95.01345427706838,219.00822432828136 101.58109986409545,219.60000000009313 107.66225318517536,216.34523203712888 109.85146838147193,208.35623777774163 110.09471451491117,200.66310755256563 111.06769904587418,194.1535169375129 111.55419131275266,186.164450250566 106.68926865514368,177.87946466286667 98.90539240278304,176.6958930043038 93.31073134578764,181.4301762059331 91.12151614949107,189.12336687906645 89.6620393525809,197.11242390889674 88.44580868817866,204.50967568764463 88.20256255567074,211.31512758042663 98.66214626841247,219.00822432828136 104.98654572386295,218.1205605531577 109.36497611645609,212.79457114078104 110.09471451491117,203.6220066549722 110.09471451491117,197.11242390889674 111.79743744432926,190.60282385186292 109.36497611645609,179.95071368920617 101.82434599753469,176.4000000001397 95.98643880710006,179.35892843198963 92.58099294733256,184.38909855671227 89.6620393525809,193.56173511454836 88.20256255567074,200.66310755256563 88.68905482254922,207.76445938879624 95.01345427706838,219.00822432828136 101.58109986409545,219.60000000009313 107.66225318517536,216.34523203712888 109.85146838147193,208.35623777774163 110.09471451491117,200.66310755256563 111.06769904587418,194.1535169375129 111.55419131275266,186.164450250566 106.68926865514368,177.87946466286667 98.90539240278304,176.6958930043038 93.31073134578764,181.4301762059331 91.12151614949107,189.12336687906645 89.6620393525809,197.11242390889674 88.44580868817866,204.50967568764463 88.20256255567074,211.31512758042663 98.66214626841247,219.00822432828136 104.98654572386295,218.1205605531577 109.36497611645609,212.79457114078104 110.09471451491117,203.6220066549722 110.09471451491117,197.11242390889674 111.79743744432926,190.60282385186292 109.36497611645609,179.95071368920617 101.82434599753469,176.4000000001397 95.98643880710006,179.35892843198963 92.58099294733256,184.38909855671227 89.6620393525809,193.56173511454836 88.20256255567074,200.66310755256563 88.68905482254922,207.76445938879624 95.01345427706838,219.00822432828136 101.58109986409545,219.60000000009313 107.66225318517536,216.34523203712888 109.85146838147193,208.35623777774163 110.09471451491117,200.66310755256563 111.06769904587418,194.1535169375129 111.55419131275266,186.164450250566 106.68926865514368,177.87946466286667 98.90539240278304,176.6958930043038 93.31073134578764,181.4301762059331 91.12151614949107,189.12336687906645 89.6620393525809,197.11242390889674 88.44580868817866,204.50967568764463 88.20256255567074,211.31512758042663 98.66214626841247,219.00822432828136 104.98654572386295,218.1205605531577 109.36497611645609,212.79457114078104 110.09471451491117,203.6220066549722 110.09471451491117,197.11242390889674 111.79743744432926,190.60282385186292 109.36497611645609,179.95071368920617 101.82434599753469,176.4000000001397 95.98643880710006,179.35892843198963 92.58099294733256,184.38909855671227 89.6620393525809,193.56173511454836 88.20256255567074,200.66310755256563 88.68905482254922,207.76445938879624 95.01345427706838,219.00822432828136 101.58109986409545,219.60000000009313 107.66225318517536,216.34523203712888 109.85146838147193,208.35623777774163 110.09471451491117,200.66310755256563 111.06769904587418,194.1535169375129 111.55419131275266,186.164450250566 106.68926865514368,177.87946466286667 98.90539240278304,176.6958930043038 93.31073134578764,181.4301762059331 91.12151614949107,189.12336687906645 89.6620393525809,197.11242390889674 88.44580868817866,204.50967568764463 88.20256255567074,211.31512758042663 98.66214626841247,219.00822432828136 104.98654572386295,218.1205605531577 109.36497611645609,212.79457114078104 110.09471451491117,203.6220066549722 110.09471451491117,197.11242390889674 111.79743744432926,190.60282385186292 109.36497611645609,179.95071368920617 101.82434599753469,176.4000000001397 95.98643880710006,179.35892843198963 92.58099294733256,184.38909855671227 89.6620393525809,193.56173511454836 88.20256255567074,200.66310755256563 88.68905482254922,207.76445938879624 95.01345427706838,219.00822432828136 101.58109986409545,219.60000000009313 107.66225318517536,216.34523203712888 109.85146838147193,208.35623777774163 110.09471451491117,200.66310755256563 111.06769904587418,194.1535169375129 111.55419131275266,186.164450250566 106.68926865514368,177.87946466286667 98.90539240278304,176.6958930043038 93.31073134578764,181.4301762059331 91.12151614949107,189.12336687906645 89.6620393525809,197.11242390889674 88.44580868817866,204.50967568764463 88.20256255567074,211.31512758042663 98.66214626841247,219.00822432828136 104.98654572386295,218.1205605531577 109.36497611645609,212.79457114078104 110.09471451491117,203.6220066549722 110.09471451491117,197.11242390889674 111.79743744432926,190.60282385186292 109.36497611645609,179.95071368920617 101.82434599753469,176.4000000001397 95.98643880710006,179.35892843198963 92.58099294733256,184.38909855671227 89.6620393525809,193.56173511454836 88.20256255567074,200.66310755256563 88.68905482254922,207.76445938879624 95.01345427706838,219.00822432828136 101.58109986409545,219.60000000009313 107.66225318517536,216.34523203712888 109.85146838147193,208.35623777774163 110.09471451491117,200.66310755256563 111.06769904587418,194.1535169375129 111.55419131275266,186.164450250566 106.68926865514368,177.87946466286667 98.90539240278304,176.6958930043038 93.31073134578764,181.4301762059331 91.12151614949107,189.12336687906645 89.6620393525809,197.11242390889674 88.44580868817866,204.50967568764463 88.20256255567074,211.31512758042663 98.66214626841247,219.00822432828136 104.98654572386295,218.1205605531577 109.36497611645609,212.79457114078104 110.09471451491117,203.6220066549722 110.09471451491117,197.11242390889674 111.79743744432926,190.60282385186292 109.36497611645609,179.95071368920617 101.82434599753469,176.4000000001397 95.98643880710006,179.35892843198963 92.58099294733256,184.38909855671227 89.6620393525809,193.56173511454836 88.20256255567074,200.66310755256563 88.68905482254922,207.76445938879624 95.01345427706838,219.00822432828136 101.58109986409545,219.60000000009313 107.66225318517536,216.34523203712888 109.85146838147193,208.35623777774163 110.09471451491117,200.66310755256563 111.06769904587418,194.1535169375129 111.55419131275266,186.164450250566 106.68926865514368,177.87946466286667 98.90539240278304,176.6958930043038 93.31073134578764,181.4301762059331 91.12151614949107,189.12336687906645 89.6620393525809,197.11242390889674 88.44580868817866,204.50967568764463 88.20256255567074,211.31512758042663 98.66214626841247,219.00822432828136 104.98654572386295,218.1205605531577 109.36497611645609,212.79457114078104 110.09471451491117,203.6220066549722 110.09471451491117,197.11242390889674 111.79743744432926,190.60282385186292 109.36497611645609,179.95071368920617 101.82434599753469,176.4000000001397 95.98643880710006,179.35892843198963 92.58099294733256,184.38909855671227 89.6620393525809,193.56173511454836 88.20256255567074,200.66310755256563 88.68905482254922,207.76445938879624 95.01345427706838,219.00822432828136 101.58109986409545,219.60000000009313 107.66225318517536,216.34523203712888 109.85146838147193,208.35623777774163 110.09471451491117,200.66310755256563 111.06769904587418,194.1535169375129 111.55419131275266,186.164450250566 106.68926865514368,177.87946466286667 98.90539240278304,176.6958930043038 93.31073134578764,181.4301762059331 91.12151614949107,189.12336687906645 89.6620393525809,197.11242390889674 88.44580868817866,204.50967568764463 88.20256255567074,211.31512758042663 98.66214626841247,219.00822432828136 104.98654572386295,218.1205605531577 109.36497611645609,212.79457114078104 110.09471451491117,203.6220066549722 110.09471451491117,197.11242390889674 111.79743744432926,190.60282385186292 109.36497611645609,179.95071368920617 101.82434599753469,176.4000000001397 95.98643880710006,179.35892843198963 92.58099294733256,184.38909855671227 89.6620393525809,193.56173511454836 88.20256255567074,200.66310755256563 88.68905482254922,207.76445938879624 95.01345427706838,219.00822432828136 101.58109986409545,219.60000000009313 107.66225318517536,216.34523203712888 109.85146838147193,208.35623777774163 110.09471451491117,200.66310755256563 111.06769904587418,194.1535169375129 111.55419131275266,186.164450250566 106.68926865514368,177.87946466286667 98.90539240278304,176.6958930043038 93.31073134578764,181.4301762059331 91.12151614949107,189.12336687906645 89.6620393525809,197.11242390889674 88.44580868817866,204.50967568764463 88.20256255567074,211.31512758042663 98.66214626841247,219.00822432828136 104.98654572386295,218.1205605531577 109.36497611645609,212.79457114078104 110.09471451491117,203.6220066549722 110.09471451491117,197.11242390889674 111.79743744432926,190.60282385186292 109.36497611645609,179.95071368920617 101.82434599753469,176.4000000001397 95.98643880710006,179.35892843198963 92.58099294733256,184.38909855671227 89.6620393525809,193.56173511454836 88.20256255567074,200.66310755256563 88.68905482254922,207.76445938879624 95.01345427706838,219.00822432828136 101.58109986409545,219.60000000009313 107.66225318517536,216.34523203712888 109.85146838147193,208.35623777774163 110.09471451491117,200.66310755256563 111.06769904587418,194.1535169375129 111.55419131275266,186.164450250566 106.68926865514368,177.87946466286667 98.90539240278304,176.6958930043038 93.31073134578764,181.4301762059331 91.12151614949107,189.12336687906645 89.6620393525809,197.11242390889674 88.44580868817866,204.50967568764463 88.20256255567074,211.31512758042663 98.66214626841247,219.00822432828136" stroke="#4DD2FF" stroke-dasharray="1,0.5" stroke-linecap="round" stroke-linejoin="round" stroke-width="0.5"><title>2013-10-19 10.2km</title><desc>9223370654714312807</desc></polyline><polyline fill="none" opacity="1" points="174.67195873335004,219.59999999962747 173.84605790674686,204.53025805950165 166.41295041888952,183.43257344141603 157.32804126664996,176.3999999994412" stroke="#4DD2FF" stroke-dasharray="none" stroke-linecap="round" stroke-linejoin="round" stroke-width="0.5"><title>2013-10-12 10.6km</title><desc>9223370655320152807</desc></polyline><polyline fill="none" opacity="1" points="33.85679850913584,224.39999999990687 32.71118658222258,228.58067346108146 32.997589563950896,233.45811816793866 32.997589563950896,237.63877849048004 33.28399254567921,241.47104512504302 32.997589563950896,246.0000809407793 30.99276869185269,249.13556310720742 30.133559746667743,252.61942817852832 29.847156764939427,256.1032890386414 30.99276869185269,259.5871456882451 32.424783600494266,262.37422797526233 34.42960447259247,265.8580770448316 38.15284323506057,267.60000000009313" stroke="#4DD2FF" stroke-dasharray="none" stroke-linecap="round" stroke-linejoin="round" stroke-width="0.5"><title>2013-10-06 10.6km</title><desc>9223370655838244807</desc></polyline><polyline fill="none" opacity="1" points="108.82044974528253,262.2353375663515 109.74891814030707,258.2824205197394 109.51680104155093,255.17655243421905 110.44526943657547,251.22362344246358 110.44526943657547,247.55304053169675 110.21315233688802,243.8824518523179 109.9810352390632,239.08244256977923 110.44526943657547,235.6941947832238 111.14162073191255,234.28242342197336 110.44526943657547,231.45887813949957 108.12409844994545,228.91768446704373 105.10657616890967,226.09413269883953 103.0175222819671,225.24706650385633 99.76788290217519,225.8117773346603 96.28612642269582,225.8117773346603 94.42918963450938,226.65884332545102 93.26860414259136,229.76474933116697 91.64378445129842,232.5882966623176 91.4116673534736,235.6941947832238 90.7153160572052,239.3647963295225 90.01896476279944,243.3177453908138 89.55473056435585,245.85892339702696 88.85837926901877,248.9648038719315 88.85837926901877,252.35303240828216 87.92991087492555,255.7412560300436 87.46567667741328,258.2824205197394 87.6977937752381,261.3882844764739 88.85837926901877,263.92944282339886 91.87590155098587,266.4705984061584 95.58977512735873,267.3176496522501 99.76788290217519,267.60000000009313 103.48175647854805,267.03529927134514 106.03504456300288,265.0588456459809 108.82044974528253,262.80003945482895 109.9810352390632,258.56477195979096 110.44526943657547,255.7412560300436 110.90950363315642,252.63538456498645 111.14162073191255,249.81186146731488 111.6058549284935,245.85892339702696 111.83797202818096,243.60009863856249 112.07008912600577,240.4942110304255 112.3022062247619,237.6706732562743 112.53432332258672,234.56477776309475 111.83797202818096,231.7412328212522 110.67738653440028,229.20003945659846 108.35621554870158,226.65884332545102 105.80292746517807,225.24706650385633 103.0175222819671,224.39999999990687 100.6963512962684,224.9647110356018 96.75036062020808,225.52942193625495 93.96495543792844,227.2235538160894 92.57225284632295,230.89416867331602 90.94743315596133,235.41184057947248 90.01896476279944,238.23538108426146 89.78684766311198,240.4942110304255 89.55473056435585,243.60009863856249 89.78684766311198,246.70598211791366 90.01896476279944,250.09421393065713 89.78684766311198,253.2000887740869 89.55473056435585,256.58831116743386 90.01896476279944,259.97652864456177 91.4116673534736,263.0823903486598 93.96495543792844,264.7764949919656 96.75036062020808,267.60000000009313 100.6963512962684,267.60000000009313 103.0175222819671,267.3176496522501 106.49927876051515,265.6235468524974 108.58833264745772,263.64709203201346 109.74891814030707,260.2588798790239 110.21315233688802,257.4353659977205 111.14162073191255,254.3294967841357" stroke="#4DD2FF" stroke-dasharray="none" stroke-linecap="round" stroke-linejoin="round" stroke-width="0.5"><title>2013-09-29 10.5km</title><desc>9223370656443428807</desc></polyline><polyline fill="none" opacity="1" points="171.69133304990828,265.1077144506853 174.6508262353018,262.3385051046498 176.69970613345504,258.1846848104615 177.38266609888524,253.75393486139365 175.78909284621477,250.98471179115586 174.19551959168166,249.6000990010798 176.01674616802484,245.1693324483931 177.61031942162663,239.9077860370744 178.06562606524676,237.96931852330454 177.38266609888524,234.92315197433345 178.5209327088669,231.04620687034912 175.78909284621477,228.27695635100827 173.0572529817,225.23077691276558 171.23602640628815,224.67692567128688 165.77234667818993,225.23077691276558 164.17877342551947,225.50770248495974 161.21928023919463,228.00003111502156 158.71509369742125,230.21543206623755 158.03213373105973,232.7077555754222 157.57682708837092,236.3077736343257 156.43856047838926,241.0154810224194 156.8938671220094,244.33856276632287 157.12152044381946,246.55394791672006 156.43856047838926,250.98471179115586 156.8938671220094,254.30777907301672 155.52794719021767,258.46160639752634 156.21090715564787,261.7846628346015 156.43856047838926,263.7231101964135 160.30866695195436,265.1077144506853 163.95112010277808,267.60000000009313 166.2276533227414,267.04615900083445 169.1871465081349,266.21539725200273 172.14663969445974,265.1077144506853 175.10613287985325,261.7846628346015 175.33378620166332,259.56929241190664 176.01674616802484,256.8000763715245 176.9273594552651,254.03085698350333 178.06562606524676,250.98471179115586 177.1550127780065,247.3847167957574 176.01674616802484,243.5077927815728 176.24439948890358,240.4616335972678 176.69970613345504,237.1385462298058 177.83797274436802,236.3077736343257 178.74858603067696,232.7077555754222 177.38266609888524,229.93850706424564 178.5209327088669,230.21543206623755 178.06562606524676,227.44618054293096 174.87847955711186,226.0615535255056 171.4636797280982,224.95385130890645 168.27653322089463,224.39999999990687 164.17877342551947,225.50770248495974 160.99162691738456,228.00003111502156 158.25978705380112,229.93850706424564 158.03213373105973,233.26160487625748 155.75560051295906,237.1385462298058 154.38968058023602,241.56932831485756 155.9832538338378,241.56932831485756 156.666213799268,243.23086938727647 156.21090715564787,246.83087090961635 155.52794719021767,250.98471179115586 153.25141397025436,253.20009051519446 155.3002938684076,256.2462327624671 155.52794719021767,258.7385279517621 157.12152044381946,263.1692682595458 159.1704003419727,265.6615559181664 161.90224020462483,266.4923178681638" stroke="#4DD2FF" stroke-dasharray="none" stroke-linecap="round" stroke-linejoin="round" stroke-width="0.5"><title>2013-09-22 10.9km</title><desc>9223370657048162807</desc></polyline></svg>