<?xml version="1.0" encoding="utf-8" ?>
<svg baseProfile="full" height="300mm" version="1.1" viewBox="0,0,200,300" width="200mm" xmlns="http://www.w3.org/2000/svg" xmlns:ev="http://www.w3.org/2001/xml-events" xmlns:xlink="http://www.w3.org/1999/xlink"><defs /><rect fill="#222222" height="300" width="200" x="0" y="0" /><text fill="#FFFFFF" style="font-size:12px; font-family:Arial; font-weight:bold;" x="10" y="20">Over 10km Runs</text><text fill="#FFFFFF" style="font-size:4px; font-family:Arial" x="10" y="280">Runner</text><text fill="#FFFFFF" style="font-size:9px; font-family:Arial" x="10" y="290">keep</text><text fill="#FFFFFF" style="font-size:4px; font-family:Arial" x="65" y="280">SPECIAL TRACKS</text><rect fill="yellow" height="2.6" width="2.6" x="65" y="283" /><text fill="#FFFFFF" style="font-size:3px; font-family:Arial" x="70" y="285.5">Over 20.0 km</text><rect fill="red" height="2.6" width="2.6" x="65" y="287" /><text fill="#FFFFFF" style="font-size:3px; font-family:Arial" x="70" y="289.5">Over 40.0 km</text><text fill="#FFFFFF" style="font-size:4px; font-family:Arial" x="120" y="280">STATISTICS</text><text fill="#FFFFFF" style="font-size:3px; font-family:Arial" x="120" y="285">Number: 15</text><text fill="#FFFFFF" style="font-size:3px; font-family:Arial" x="120" y="290">Weekly: 1.2</text><text fill="#FFFFFF" style="font-size:3px; font-family:Arial" x="141" y="285">Total: 163.6 km</text><text fill="#FFFFFF" style="font-size:3px; font-family:Arial" x="141" y="290">Avg: 10.9 km</text><text fill="#FFFFFF" style="font-size:3px; font-family:Arial" x="167" y="285">Min: 10.2 km</text><text fill="#FFFFFF" style="font-size:3px; font-family:Arial" x="167" y="290">Max: 14.0 km</text><polyline fill="none" opacity="1" points="26.995303552394034,75.59999999999854 27.147855925140902,75.36533843666257 27.063104606961133,75.04534428600164 27.003778684244025,74.78934804366145 26.919027366035152,74.66134961519128 26.84275117967627,74.46935158834094 26.766474993346492,74.25601990678842 26.70714907060028,73.98935450453428 26.74104959788383,73.66935484813439 26.77495012510917,73.38135406256333 26.77495012510917,73.07201873017766 26.7579998614965,72.70934819601098 26.77495012510917,72.42134395307221 26.77495012510917,72.1226717907557 26.791900388809154,71.84533235546405 26.800375520571833,71.55732500076556 26.935977629676927,71.33331856331642 27.173281320603564,71.26931660877744 27.385159616038436,71.24798261255637 27.393634747888427,71.07731043784588 27.461435802397318,70.92797198615153 27.461435802397318,70.6826296386862 27.46991093424731,70.34128251170478 27.283458034216892,70.09593836416752 27.01225381603581,69.95726525216014 27.04615434331936,69.62658224532788 27.09700513421558,69.2745633482482 27.147855925140902,68.97587943245162 27.181756452395348,68.63452501966822 27.24108237514156,68.30383654266188 27.27498290242511,68.03715129085322 27.29193316603778,67.8131349919422 27.376684484188445,67.72779528443789 27.40210987968021,67.54644810352329 27.359734220575774,67.40777057003288 27.410585011501098,67.29042785386264 27.46991093424731,67.0557419048273 27.537711988785304,66.78905249033414 27.597037911473308,66.53302981553861 27.69026436150307,66.20233264729904 27.758065416041063,65.92497267740691 27.84281673419173,65.62627624919696 28.003844238788588,65.50893091856415 28.164871743298136,65.58360523981537 28.385225170583,65.60494074736198 28.631003993243212,65.44492430197715 28.76660610237741,65.22090074045991 28.885257947840728,64.9435373660599 29.046285452350276,64.65550515119685 29.207312956947135,64.35680398056138 29.368340461456683,64.09010556377325 29.529367965995334,63.80207027445431 29.664970075100427,63.55670606144122 29.81752244781819,63.24733271954028 29.98702508417773,62.91662196132529 30.198903379641706,62.55390536326013 30.410781675076578,62.15918248969683 30.605709706869675,61.828467230458045 30.783687475079205,61.51908720104984 30.970140375051415,61.24171098446823 31.139643011440057,60.97500217635388 31.266769988666056,60.772302887147816 31.436272625025595,60.505592513116426 31.648150920518674,60.19620736451907 31.74137737051933,59.89748953325761 31.868504347774433,59.58810203141911 32.063432379596634,59.31071911525214 32.31768633413594,59.10801560633263 32.54651489321259,58.883974288030004 32.68211700231768,58.63859498091915 32.82619424321456,58.44655847606191 32.9278958250361,58.31853388323361 33.02959740682854,58.08382159718167 33.1228238568292,57.859777408601076 33.23300057047163,57.73175187607558 33.410978338622954,57.689076652997755 33.521155052265385,57.689076652997755 33.65675716137048,57.571719672087056 33.80083440229646,57.39034945364983 33.970337038626894,57.23031656623061 34.15678993862821,56.96359437528736 34.334767706808634,56.75021598181047 34.27544178406242,56.51549909114692 34.266966652241535,56.238105513686605 34.334767706808634,55.971380012255395 34.53817087045172,55.73666083484568 34.73309890224482,55.51261006802088 34.86022587949992,55.245882145900396 34.98735285678413,54.91513828650204 35.173805756814545,54.66974679681152 35.43653484314564,54.43502379745769 35.60603747947607,54.22163865451148 35.741639588581165,53.9228984974543 35.86876656586537,53.6241572239378 36.01284380676225,53.336084224210936 36.3094734204351,53.21872085262294 36.52982684766175,53.133365565081476 36.67390408861684,52.83462134082947 36.7586554067384,52.514537004470185 36.80950619766372,52.247799078359094 36.87730725223082,51.949051544448594 36.96205857041059,51.58628518073965 37.05528502041125,51.28753517439327 37.05528502041125,51.180838472973846 37.131561206741026,50.93543551918265 37.17393686584546,50.58333431295614 37.26716331584612,50.231231555721024 37.36038976581767,49.83644783190539 37.43666595220566,49.473671880077745 37.49599187495187,49.14290413598792 37.580743193102535,48.81213502313767 37.65701937946142,48.47069450311392 37.7332955658203,48.10791235239594 37.78414635674562,47.74512855500507 37.86889767489629,47.41435365759389 37.93669872943428,47.09424761470291 38.029925179464044,46.69944839619711 38.080775970360264,46.42202075161913 38.14857702489826,46.069899662121315 38.19942781582358,45.82448101562477 38.26722887039068,45.643084140407154 38.30112939761602,45.4403459690875 38.35198018854135,45.152243472562986 38.419781243108446,44.80011678864685 38.504532561288215,44.437317976524355 38.56385848397622,44.106529388845956 38.61470927487244,43.94646990332694 38.62318440672243,43.77573943208699 38.674035197647754,43.49830163845763 38.75031138397753,43.15683841644204 38.80963730669464,42.78336134680285 38.87743836126174,42.4739075954858 38.94523941579973,42.26049051710288 38.97913994305418,42.11109822315484 39.00456533851684,41.972376557248936 39.06389126123395,41.88700925858575 39.055416129442165,41.74828720370715 39.04694099762128,41.48151334444265 39.06389126123395,41.23608060742117 39.11474205215927,40.97997607818979 39.18254310672637,40.798568206744676 39.275769556697924,40.702528578651254 39.56392403852078,40.77722607713804 39.852078520314535,40.89460771941958 40.131757870316505,40.96930503832846 40.2673599794216,40.92662086462224 40.301260506676044,40.72387072822312 40.29278537488426,40.45709344922943 40.30973563849693,40.14763068987668 40.326685902138706,39.763468355893565 40.352111297572264,39.38997542731522 40.41991235213936,39.09117982753378 40.30973563849693,38.92043898325937 40.06395681574941,38.92043898325937 39.767327202134766,38.963124228524975 39.49612298395368,39.02715205369168 39.52154837944545,38.7710404452082 39.56392403852078,38.45089978033502 39.64020022487966,38.130757832892414 39.69105101580499,37.8212860645217 39.78427746574744,37.469127077099984 39.852078520314535,37.138309644913534 39.90292931123986,36.818162438728905 39.92835470670252,36.54070048916765 39.970730365777854,36.28458091142966 39.98768062941963,36.103162380473805 39.97920549759874,36.017788811608625 40.131757870316505,35.9004000055138 40.326685902138706,35.81502622002154 40.25888484760071,35.665621875938086 40.14023300213739,35.548232552471745 40.157183265750064,35.366812349733664 40.17413352942094,35.27076619329455 40.352111297572264,35.30278159162117 40.53856419757358,35.30278159162117 40.69111657029134,35.33479697706207 40.83519381121732,35.292109793597774 40.996221315755975,35.24942258729425 41.12334829304018,35.16404810628592 41.140298556681955,34.89725226516748 41.18267421575729,34.417017506340926 41.23352500668261,34.086187437897024 41.25895040211617,33.776700004753366 41.25895040211617,33.627291849348694 41.275900665757945,33.424523191628396 41.275900665757945,33.26444230887864 41.106398029398406,33.21108194336557 40.86061920665088,33.18973778717191 40.69959170214133,33.11503319563781 40.530089065781794,33.06167273031315 40.224984320346266,33.00831222938723 39.911404443060746,32.9336074682069 39.62324996123789,32.869574760195974 39.35204574308591,32.794869869314425 38.99609020672506,32.75218132887676 38.73336112033576,32.64545987796737 38.572333615797106,32.54941045030864 38.335029924928676,32.57075477755279 38.02145004764316,32.54941045030864 37.7332955658203,32.54941045030864 37.42819082035567,32.51739394875767 37.12308607492014,32.48537743440829 36.834931593126385,32.45336090719502 36.52135171586997,32.421344367154234 36.41965013401932,32.39999999999418 36.3687993431231,32.51739394875767 36.300998288585106,32.720164908547304 36.25862262950977,32.91226323789306 36.21624697043444,33.12570528440119 36.19929670676356,33.32847470046545 36.1738713113009,33.52057156732917 36.08064486130024,33.71266797237331 36.004368674970465,33.851403977678274 35.911142224940704,34.06484351546533 35.87724169771536,34.20357890930609 35.80096551132738,34.395673672275734 35.707739061355824,34.534408491708746 35.63146287496784,34.73717433294951 35.54671155678807,34.90792411590519 35.4619602386083,35.10001718566491 35.33483326132409,35.28143799415557 35.28398247039877,35.53756078726292 35.165330624964554,35.804354490443075 35.03820364770945,36.103162380473805 34.88565127499169,36.42331245128298 34.74157403406571,36.72211802675156 34.597496793197934,37.042265617710655 34.47884494770551,37.29838276695227 34.334767706808634,37.60785656041844 34.17374020226998,37.89598625626968 34.055088356806664,38.16277208534302 33.93643651137245,38.39754287816322 33.868635456834454,38.54694211446622 33.82625979773002,38.61097027310461 33.7076079522667,38.67499838045478 33.68218255683314,38.93111029671127 33.61438150226604,39.219235221382405 33.44487886593561,39.496687870712776 33.34317728414317,39.7207835381123 33.275376229546964,39.89152267242753 33.419453470472945,39.97689210277167 33.67370742501225,39.98756327513547 33.970337038626894,40.008905615628464 34.30086717955419,40.05159027950867 34.60597192496061,40.09427492060058 34.91955180224613,40.13695953886054 35.23313167950255,40.1796441343613 35.51281102953362,40.2223287070301 35.75011472043116,40.23299984662299 35.88571682947804,40.13695953886054 35.92809248864069,39.91286503855372 35.96199301586603,39.710112330081756 35.9789432794787,39.67809869755729 36.13149565222557,39.763468355893565 36.15692104768823,39.93420739899011 36.089119993150234,40.29702665434888 36.02979407037492,40.670515343677835 35.96199301586603,40.99064711663959 35.88571682947804,41.38547453714273 35.81791577494005,41.71627438761061 35.741639588581165,42.03640197143977 35.707739061355824,42.30317397838371 35.61451261132606,42.6339700302633 35.62298774314695,42.932752384091145 35.59756234768429,43.242204358713934 35.377208920399426,43.49830163845763 35.30940786586143,43.74372742813284 35.22465654768166,44.0531762626415 35.22465654768166,44.309270943675074 35.199231152219,44.58670592212002 35.36873378860764,44.72542305019306 35.30093273404054,45.056209076268715 35.25855707496521,45.408334631887556 35.15685549311456,45.82448101562477 35.08905443860567,46.155262492917245 35.02972851585946,46.528723805786285 35.012778252217686,46.84883211362467 35.004303120455006,47.179609351478575 34.995827988605015,47.510385220455646 34.995827988605015,47.851829842802545 34.97040259314235,48.20394308192772 34.96192746135057,48.53471471173543 34.92802693406702,48.85481498556328 34.90260153860436,49.14290413598792 34.84327561585815,49.48434178449679 34.78394969317014,49.83644783190539 34.72462377042393,50.12453344426467 34.77547456132015,50.46596689954458 34.71614863863215,50.7860594392987 34.639872452273266,51.138159752532374 34.45341955224285,51.42624067334691 34.258491520478856,51.66097250785242 33.995762434089556,51.86369490111974 33.7754090068338,52.06641678023152 33.529630184115376,52.27980767651752 33.334702152293175,52.503867504514346 33.2499508340843,52.64257089281455 33.13129898862098,52.75993511031993 33.00417201142409,52.96265471649531 32.91942069318611,53.19738203930319 32.809243979572784,53.506794275272114 32.63974134318414,53.82687463840557 32.47871383864549,54.125615154378465 32.326161465927726,54.392346814442135 32.26683554321062,54.63773915567435 32.26683554321062,54.861792374511424 32.43633817957016,55.00049167151883 32.36853712503216,55.28855867324455 32.31768633413594,55.50194096820633 32.3431117295695,55.55528645297454 32.215984752285294,55.533948263349885 32.05495724777575,55.7473299033154 31.860029215953546,56.07807031960692 31.665101184131345,56.27011251408112 31.453222888696473,56.49416115781787 31.343046175024938,56.77155384679645 31.249819725053385,57.048945573209494 31.088792220514733,57.27299203419534 30.953190111438744,57.2836608976213 30.707411288720323,57.2836608976213 30.4616324660019,57.2409854353682 30.165002852358157,57.20897882369172 29.85989810692263,57.20897882369172 29.656494943250436,57.219647695666936 29.52089283420355,57.27299203419534 29.453091779636452,57.29432975962118 29.35139019784401,57.51837553290534 29.224263220559806,57.72108307243616 29.190362693276256,57.9984715041428 29.0971362432756,58.233184040756896 28.99543466142495,58.425221058161696 28.970009266020497,58.49990199590684 28.758130970527418,58.70260704670363 28.57167807055521,58.89464293647325 28.42760082965833,59.12935284201376 28.537777543300763,59.27871333221992 28.58862833416788,59.35339347268018 28.605578597838758,59.54542779923213 28.673379652405856,59.80147285050043 28.647954256943194,59.982837598916376 28.58862833416788,59.80147285050043 28.41065056604566,59.97216909569397 28.258098193298792,60.22821278026095 28.122496084164595,60.452250331509276 27.93604318422149,60.6976240721051 27.808916206937283,60.96433380553208 27.707214625144843,61.20970597448468 27.580087647860637,61.47641399960412 27.48686119785998,61.775125931497314" stroke="#4DD2FF" stroke-dasharray="none" stroke-linecap="round" stroke-linejoin="round" stroke-width="0.5"><title>2017-12-17 14.0km</title><desc>9223370523376934807</desc></polyline><polyline fill="none" opacity="1" points="100.73229529039236,32.39999999999418 100.73229529039236,32.6935962133939 100.68045137601439,33.01981340175553 100.52491963293869,33.280786525981966 100.4989976757206,33.52544832434069 100.64156844024546,33.77010963339126 100.66749039746355,34.031081156863365 100.68045137601439,34.340984117923654 100.69341235462343,34.6345756725641 100.66749039746355,34.9281665225426 100.66749039746355,35.27068829024938 100.5897245258675,35.58058811081719 100.53788061148953,35.77631390872557 100.68045137601439,35.97203939348401 100.64156844024546,36.72231751729851 100.7452562689432,36.999593050641124 100.86190507630818,37.2768679555229 100.90078801213531,37.57045246387861 100.93967094784603,37.92927701721783 100.95263192645507,38.27179038175382 100.97855388361495,38.61430278725311 101.03039779799292,38.94050418662664 101.13408562674886,39.21777469221706 101.17296856251778,39.511354542577465 101.2118514982867,39.78862375426979 101.237773455563,40.09851212954527 101.3933051986387,40.19637145334127 101.58771987748332,40.31054056558787 101.60068085609237,40.473639112489764 101.47107107017655,40.587807965959655 101.32850030565169,40.7345963352127 101.40626617718954,40.962933448463446 101.53587596310535,41.27281884908734 101.66548574902117,41.582703464744554 101.73029064194998,41.859967981763475 101.84693944931496,42.15354149131599 101.98951021378161,42.44711429644667 102.15800293552456,42.74068639702455 102.23576880706241,43.01794828958373 102.0154321709415,43.16473374303314 101.7691735777189,43.05056729446369 101.57475889881607,42.90378170404438 101.34146128426073,42.74068639702455 101.1470466053579,42.82223407766287 100.91374899068614,42.83854360731493 100.69341235462343,42.92009122277523 100.68045137601439,43.14842425688403 100.69341235462343,43.39306632053922 100.47307571856072,43.539851323890616 100.23977810388897,43.621398471921566 99.9675975535065,43.70294556555018 99.6954170030076,43.71925497772463 99.64357308868784,43.50723244952678 99.6954170030076,43.278900085053465 99.7861438532127,42.9527102537395 99.8768707033596,42.69175776249904 99.92871461767936,42.332947178139875 99.98055853205733,41.95782589654846 99.9416755962884,41.680561601337104 99.88983168191044,41.289128585245635 99.73429993877653,41.09341160756594 99.43619743123418,41.12603112560464 99.2288217737223,40.97924322599283 99.18993883795338,40.84876494510536 99.16401688073529,40.63673744190601 99.16401688073529,40.424709571256244 99.04736807348672,40.32685043003585 98.87887535168556,40.31054056558787 98.69742165144999,40.29423069893528 98.6066948013613,40.37578001046495 98.63261675852118,40.65304726290924 98.64557773707202,40.962933448463446 98.64557773707202,41.27281884908734 98.6714996942901,41.56639376766543 98.68446067289915,41.892587295384146 98.68446067289915,42.23508956342266 98.68446067289915,42.528662172822806 98.68446067289915,42.82223407766287 98.68446067289915,43.099495785456384 98.69742165144999,43.39306632053922 98.71038263005903,43.70294556555018 98.72334360866807,43.93127713853028 98.71038263005903,44.14329893188551 98.69742165144999,44.33901103037351 98.68446067289915,44.59996000801766 98.65853871568106,44.82828990685812 98.64557773707202,44.97507318817952 98.61965577985393,45.21971159912209 98.59373382269405,45.43173115956597 98.59373382269405,45.660059506037214 98.59373382269405,45.90469654726621 98.59373382269405,46.198260350989585 98.59373382269405,46.52444152899989 98.58077284414321,46.83431284256949 98.59373382269405,47.12787441570981 98.59373382269405,47.421435284486506 98.61965577985393,47.714995448841364 98.63261675852118,48.041172583121806 98.61965577985393,48.28580486311694 98.61965577985393,48.57936295351101 98.59373382269405,48.80768542573787 98.6066948013613,49.03600747187011 98.55485088692512,49.280637762727565 98.6066948013613,49.54157620052138 98.64557773707202,49.78620548055915 98.68446067289915,50.07975997094036 98.72334360866807,50.37331375699432 98.762226544437,50.7321007612627 98.85295339458389,51.090886713376676 98.94368024467258,51.43336323168478 99.04736807348672,51.661680377990706 99.15105590218445,51.97153868080932 99.25474373088218,52.26508792802633 99.37139253824716,52.5097117627156 99.43619743123418,52.62386938484997 99.51396330271382,52.83587611485564 99.6306121100788,53.06419064399961 99.68245602451498,53.30881288101227 99.7213389602257,53.43927787415305 99.81206581037259,53.60235891993216 99.95463657483924,53.71651552259573 100.0324024464353,53.895904254561174 100.14905125374207,54.04267665774387 100.26570006110705,54.23837292153621 100.35642691119574,54.43406887233141 100.53788061148953,54.61345655220066 100.71933431184152,54.82545983486489 100.88782703352626,55.07007855064876 101.056319755211,55.31469677751738 101.2118514982867,55.543006681291445 101.27665639127372,55.657161473413 101.38034421997145,55.885470738205186 101.5488369417144,56.14639509059634 101.7043686847901,56.34208798974578 101.88582238508388,56.65193444000761 102.0154321709415,56.84762653068174 102.17096391413361,57.12485645672132 102.3264956572093,57.38577816624456 102.46906642173417,57.63039176361053 102.663481100637,57.94023495163856 102.8190128437127,58.201154922513524 103.00046654400649,58.4783817819407 103.18192024430027,58.755608013249 103.35041296592681,59.032833616533026 103.54482764482964,59.35898058099701 103.70035938796354,59.60359023382625 103.90773504541721,59.91342842551239 104.05030580988387,60.15803697004594 104.16695461724885,60.370030646416126 104.32248636038275,60.59833111799526 104.47801810351666,60.85924542104476 104.6465108252014,61.12015916779637 104.77612061111722,61.33215117739746 104.93165235425113,61.57675688597374 105.1131060544867,61.821362105612934 105.2945597547805,62.0822738009083 105.43713051930536,62.34318493999308 105.56674030516297,62.587788627584814 105.73523302690592,62.89761926335632 105.9166867271415,63.19114229995466 106.07221847033361,63.452051074760675 106.24071119196014,63.74557278150314 106.46104782802286,64.07170718547422 106.6295405497076,64.33261408285034 106.77211131429067,64.54460052737704 106.92764305730816,64.8218130161622 107.09613577905111,65.09902487693762 107.26462850073585,65.40884915468632 107.44608220102964,65.71867264810862 107.5886529655545,65.99588247727661 107.73122373007936,66.28939808258292 107.87379449460423,66.59921934669546 107.97748232330196,66.89273350498843 108.0552481948398,67.2188595218031 108.09413113066694,67.39822846062452 107.990443301911,67.52867843280546 107.93859938753303,67.64282204445044 108.01636525907088,67.56129090412287 108.14597504492849,67.54498466957739 108.23670189513359,67.75696554958267 108.31446776672965,68.017864590096 108.41815559542738,68.29506921128632 108.53480440273415,68.6048853977918 108.65145321009913,68.93100685202808 108.75514103879686,69.2571274372458 108.84586788894376,69.50171730585134 108.93659473909065,69.7789185659858 109.05324354645563,70.05611919821968 109.15693137515336,70.3170133374515 109.26061920385109,70.57790692045819 109.33838507544715,70.80618834936467 109.39022898982512,71.03446935247484 109.46799486142118,71.31166714097344 109.5716826901189,71.588864301586 109.67537051881664,71.89867214993865 109.76609736902174,72.17586798108096 109.85682421911042,72.43675760152837 109.96051204780815,72.74656330356083 110.03827791940421,72.97484068743506 110.16788770537823,73.28464502739371 110.27157553407596,73.5455322843336 110.3752633627737,73.82272438557993 110.49191217013868,74.11622122023982 110.5955999988364,74.36080137814133 110.6863268490415,74.58907575123885 110.76409272063756,74.81734969854733 110.89370250649517,75.02931798272039 110.94554642081494,75.14345459905599 110.98442935670028,75.30650672343472 110.94554642081494,75.53477933274553 110.79001467773924,75.5673896706794 110.63448293466354,75.37172751239996 110.47895119152963,75.15975982125383 110.27157553407596,74.86626548899949 110.03827791940421,74.58907575123885 109.76609736902174,74.27927471313888 109.49391681858106,74.06730512998183 109.27358018251834,73.82272438557993 109.01436061068671,73.57814315239375 108.80698495323304,73.31725596488104 108.58664831711212,73.12159020937543 108.3274287453387,72.87700757502898 108.08117015199969,72.63242445194919 107.82195058016805,72.38784084005601 107.5886529655545,72.14325673940766 107.34239437233191,71.89867214993865 107.08317480050027,71.68669844370015 106.81099425000139,71.49103008131351 106.52585272100987,71.3605843325713 106.18886727764038,71.2627499297596 105.85188183421269,71.1975269511604 105.54081834800309,71.1649154488041 105.22975486179348,71.08338665492192 104.94461333274376,71.01816358066571 104.63354984659236,70.95294047167408 104.32248636038275,70.90402311713115 104.01142287417315,70.87141153658013 103.63555449503474,70.75727093617752 103.41521785891382,70.69204768814961 103.25968611583812,70.6594360510353 103.07823241560254,70.62682440534263 102.88381773669971,70.57790692045819 102.67644207918784,70.56160108784388 102.49498837889405,70.52898941596504 102.31353467860026,70.4963777354933 102.13208097830648,70.4637660463195 101.92470532085281,70.41484849622066 101.73029064194998,70.36593092660041 101.53587596310535,70.30070747002173 101.36738324142061,70.25178985477396 101.01743681944208,70.0887309960599 100.69341235462343,69.95828375267592 100.3434659326449,69.84414230064431 100.11016831797315,69.79522450293007 99.7861438532127,69.69738884877734 99.4750803669449,69.59955311640078 99.13809492357541,69.50171730585134 98.80110948026413,69.40388141706353 98.4511630582274,69.30604545005917 98.2049044649466,69.20820940483827 97.8031141286483,69.14298533128749 97.46612868522061,68.97992499521206 97.18098715617089,68.88208868927904 96.98657247732626,68.81686444192019 96.71439192688558,68.70272192533594 96.39036746206693,68.6211914911255 96.09226495452458,68.45813045984687 95.76824048964772,68.26245693552482 95.47013798204716,68.06678309830022 95.18499645299744,67.82219036185415 94.96465981699293,67.54498466957739 94.75728415953927,67.26777834929817 94.69247926655225,67.0394903200795 94.60175241640536,66.82750819726789 94.47214263043134,66.61552570727508 94.35549382312456,66.41984923677956 94.22588403720874,66.22417245338875 94.09627425135113,65.93065669162752 93.92778152960818,65.62083373490896 93.75928880792344,65.27839692285488 93.60375706478953,64.90334598153277 93.40934238594491,64.52829389082035 93.21492770704208,64.12062727109878 93.04643498541554,63.82710646396299 92.90386422083247,63.51727818155632 92.74833247769857,63.17483548303426 92.57983975607203,62.783471225673566 92.39838605577825,62.3921057165644 92.20397137687542,62.01704592925671 92.02251767663984,61.62567796896474 91.84106397634605,61.26692290588835 91.64664929744322,60.90816679092677 91.49111755430931,60.53310245528701 91.30966385401553,60.15803697004594 91.16709308954887,59.8481993977548 90.99860036780592,59.47313181315258 90.84306862473022,59.17959985812195 90.72641981742345,58.95129673957854 90.64865394582739,58.641456111748994 90.50608318136074,58.26638482828275 90.41535633115564,57.907619916171825 90.337590459676,57.51623881233536 90.27278556668898,57.222702162966016 90.23390263092006,56.89654950444674 90.1820587166003,56.48885745877487 90.1561367593822,56.16270284418715 90.11725382361328,55.75500835337152 90.06540990923531,55.42885178265715 90.02652697346639,55.08638644768507 90.03948795201723,54.743920154185616 90.00060501630651,54.36883692345873 90.01356599479914,54.026368621664005 90.03948795201723,53.700207443027466 90.02652697346639,53.35773726975458 90.02652697346639,53.01526613791793 89.9358001233777,52.62386938484997 89.88395620894153,52.26508792802633 89.85803425172344,51.87368877520203 89.83211229456356,51.56383022457885 89.81915131601272,51.18873724504374 89.78026838018559,50.91149386879988 89.71546348725678,50.601632881429396 89.72842446580762,50.1776113112428 89.80619033740368,49.83513127784681 89.83211229456356,49.46003299848962 89.83211229456356,49.23171174368326 89.8450732731726,48.98708135497145 89.87099523039069,48.87292033951235 89.81915131601272,48.61198047562357 89.78026838018559,48.30211366437288 89.7543464229675,47.97593722582678 89.72842446580762,47.649759917614574 89.71546348725678,47.38881744495302 89.67658055148786,47.013711665407754 89.5988146798918,46.622295712833875 89.58585370134097,46.24718758311792 89.55993174418109,45.855769178131595 89.53400978690479,45.59482287913124 89.49512685113586,45.21971159912209 89.4432829368161,44.92614544735261 89.4432829368161,44.71412501070881 89.45624391542515,44.37162968299526 89.45624391542515,44.045442765222106 89.4432829368161,43.71925497772463 89.40440000104718,43.44199467454018 89.35255608666921,43.099495785456384 89.32663412950933,42.773305475799134 89.33959510806017,42.41449513066618 89.36551706527825,42.12092224731168 89.32663412950933,41.74580031555524 89.27479021507315,41.43591611307056 89.24886825791327,41.07710184530879 89.24886825791327,40.78352575253666 89.27479021507315,40.66935708174424 89.2877511936822,40.457329267577734 89.24886825791327,40.22899121062801 89.23590727936244,39.93541308251588 89.18406336492626,39.65814420350216 89.10629749344662,39.299324721352605 89.09333651477937,38.94050418662664 89.08037553622853,38.59799269445648 89.08037553622853,38.28810051803157 89.05445357901044,37.864036267623305 89.01557064329972,37.61938314673898 89.01557064329972,37.2768679555229 89.02853162185056,36.91804148844676" stroke="#4DD2FF" stroke-dasharray="none" stroke-linecap="round" stroke-linejoin="round" stroke-width="0.5"><title>2017-11-19 11.8km</title><desc>9223370525802103807</desc></polyline><polyline fill="none" opacity="0.5" points="187.42415196751244,57.127679006778635 187.42415196751244,58.309181812102906 187.36553595680743,59.00418241909938 187.5999999998603,59.83818212756887 187.42415196751244,60.3941813147394 187.48276797845028,61.08917960344115 187.5999999998603,62.06217590958113 187.5999999998603,62.8266719445819 187.54138398938812,63.73016605316661 187.5999999998603,64.425160632818 187.5999999998603,65.53715035278583 187.5999999998603,66.0236452333047 187.36553595680743,66.92713472119067 187.07245590235107,67.90012193983421 185.95875169616193,68.10861900402233 185.255359566072,68.17811800987693 184.4933514248114,67.96962096903007 183.49687924026512,68.10861900402233 182.55902306665666,68.10861900402233 181.62116689281538,68.17811800987693 180.56607869756408,68.10861900402233 179.8040705563035,67.96962096903007 178.9834464045707,67.96962096903007 178.22143826354295,67.96962096903007 177.3421981006395,67.76112385862507 176.52157394844107,66.99663385830354 175.5837177745998,66.92713472119067 174.82170963380486,66.85763557621976 173.88385345996358,66.57963891886175 173.1218453189358,66.7186372630531 172.3012211669702,66.64913809474092 171.36336499336176,66.7186372630531 170.54274084139615,66.51013973512454 169.6635006784927,66.64913809474092 168.72564450465143,66.78813642339082 167.72917232010514,66.44064054382034 166.90854816813953,66.30164213792887 166.20515603781678,66.16264370107092 165.384531886084,66.16264370107092 164.62252374505624,65.88464673480485 163.7432835821528,65.88464673480485 162.9226594301872,65.74564820510568 162.21926729986444,65.95414598792559 160.98833107203245,65.39815174596151 159.99185888725333,65.25915310822893 159.05400271364488,65.18965377786662 157.99891451839358,65.25915310822893 157.58860244229436,65.32865243108245 156.47489823610522,65.60664964455646 155.0681139754597,64.98115574021358 154.07164179091342,64.14716289372882 153.19240162800997,64.35566120949807 152.19592944346368,64.00816397793824 151.3166892810259,63.869165030890144 150.61329715070315,64.00816397793824 149.9099050203804,63.7996655459865 149.20651289005764,63.52166752866469 148.3272727271542,63.59116704465123 147.56526458612643,63.938664508285 146.27571234712377,63.52166752866469 145.57232021703385,63.1046702710446 145.22062415187247,62.34017457580194 144.75169606506824,61.575677945744246 144.6930800541304,60.463681178574916 144.81031207600608,59.49068238417385 144.81031207600608,58.378681907604914 144.6930800541304,57.40567986789392 144.6930800541304,56.0851746769622 144.51723202154972,55.39017082436476 144.39999999990687,54.34766359644709 144.6344640434254,53.37465528177563 144.6344640434254,52.540646949375514 144.8689280867111,51.845639155537356 144.6930800541304,50.942127868242096 144.98616010835394,49.96911425224971 144.92754409764893,48.92659798276145 145.10339213022962,48.30108738626586 145.16200814116746,47.05006431584479 145.10339213022962,45.93804170633666 145.16200814116746,44.9650203002966 145.22062415187247,44.20050241862191 145.39647218445316,43.296980080136564 145.57232021703385,42.32395456265658 145.39647218445316,41.3509275301476 145.39647218445316,40.65590729378164 145.27924016257748,39.821881990123075 145.39647218445316,40.65590729378164 145.39647218445316,41.3509275301476 145.57232021703385,42.32395456265658 145.39647218445316,43.296980080136564 145.22062415187247,44.20050241862191 145.16200814116746,44.9650203002966 145.10339213022962,45.93804170633666 145.16200814116746,47.05006431584479 145.10339213022962,48.30108738626586 144.92754409764893,48.92659798276145 144.98616010835394,49.96911425224971 144.6930800541304,50.942127868242096 144.8689280867111,51.845639155537356 144.6344640434254,52.540646949375514 144.6344640434254,53.37465528177563 144.39999999990687,54.34766359644709 144.51723202154972,55.39017082436476 144.6930800541304,56.0851746769622 144.6930800541304,57.40567986789392 144.81031207600608,58.378681907604914 144.81031207600608,59.49068238417385 144.6930800541304,60.463681178574916 144.75169606506824,61.575677945744246 145.22062415187247,62.34017457580194 145.57232021703385,63.1046702710446 146.27571234712377,63.52166752866469 147.56526458612643,63.938664508285 148.3272727271542,63.59116704465123 149.20651289005764,63.52166752866469 149.9099050203804,63.7996655459865 150.61329715070315,64.00816397793824 151.3166892810259,63.869165030890144 152.19592944346368,64.00816397793824 153.19240162800997,64.35566120949807 154.07164179091342,64.14716289372882 155.0681139754597,64.98115574021358 156.47489823610522,65.60664964455646 157.58860244229436,65.32865243108245 157.99891451839358,65.25915310822893 159.05400271364488,65.18965377786662 159.99185888725333,65.25915310822893 160.98833107203245,65.39815174596151 162.21926729986444,65.95414598792559 162.9226594301872,65.74564820510568 163.7432835821528,65.88464673480485 164.62252374505624,65.88464673480485 165.384531886084,66.16264370107092 166.20515603781678,66.16264370107092 166.90854816813953,66.30164213792887 167.72917232010514,66.44064054382034 168.72564450465143,66.78813642339082 169.6635006784927,66.64913809474092 170.54274084139615,66.51013973512454 171.36336499336176,66.7186372630531 172.3012211669702,66.64913809474092 173.1218453189358,66.7186372630531 173.88385345996358,66.57963891886175 174.82170963380486,66.85763557621976 175.5837177745998,66.92713472119067 176.52157394844107,66.99663385830354 177.3421981006395,67.76112385862507 178.22143826354295,67.96962096903007 178.9834464045707,67.96962096903007 179.8040705563035,67.96962096903007 180.56607869756408,68.10861900402233 181.62116689281538,68.17811800987693 182.55902306665666,68.10861900402233 183.49687924026512,68.10861900402233 184.4933514248114,67.96962096903007 185.255359566072,68.17811800987693 185.95875169616193,68.10861900402233 187.07245590235107,67.90012193983421 187.36553595680743,66.92713472119067 187.5999999998603,66.0236452333047 187.5999999998603,65.53715035278583 187.5999999998603,64.425160632818 187.54138398938812,63.73016605316661 187.5999999998603,62.8266719445819 187.5999999998603,62.06217590958113 187.48276797845028,61.08917960344115 187.42415196751244,60.3941813147394 187.5999999998603,59.83818212756887 187.36553595680743,59.00418241909938 187.42415196751244,58.309181812102906 187.42415196751244,57.127679006778635 187.42415196751244,56.36317600152688 187.42415196751244,55.04266860813368 187.36553595680743,54.55616518104216 187.36553595680743,53.72215842513833 187.36553595680743,54.55616518104216 187.42415196751244,55.04266860813368 187.42415196751244,56.36317600152688 187.42415196751244,57.127679006778635" stroke="#4DD2FF" stroke-dasharray="1,0.5" stroke-linecap="round" stroke-linejoin="round" stroke-width="0.5"><title>2014-03-22 10.5km</title><desc>9223370641410674807</desc></polyline><polyline fill="none" opacity="1" points="55.600000000034925,98.98881476965471 55.447147280036006,98.98881476965471 55.33250774000771,99.03532141958567 55.198761609965004,99.03532141958567 55.08412206993671,99.02369475918385 54.9408226449159,99.03532141958567 54.79752321989508,99.01206809742143 54.663777089852374,99.03532141958567 54.530030959809665,99.08182804700482 54.40583812480327,99.08182804700482 54.28164528979687,99.16321459080064 54.13834586471785,99.18646787635225 54.00459973467514,99.15158794591116 53.861300309654325,99.12833465191943 53.73710747464793,99.11670800281718 53.63202122959774,99.17484123426402 53.49827509955503,99.15158794591116 53.383635559584945,99.12833465191943 53.249889429542236,99.15158794591116 53.11614329949953,99.12833465191943 53.02061034948565,99.05857473610376 52.91552410443546,99.0469480785614 52.791331269429065,99.05857473610376 52.66713843436446,99.09345470032713 52.52383900934365,99.09345470032713 52.409199469315354,99.105081352267 52.28500663430896,99.05857473610376 52.13215391425183,99.07020139228553 52.02706766925985,99.08182804700482 51.874214949202724,99.08182804700482 51.740468819160014,99.08182804700482 51.635382574168034,99.08182804700482 51.49208314908901,99.08182804700482 51.367890314082615,99.07020139228553 51.25325077405432,99.05857473610376 51.13861123402603,99.0469480785614 51.02397169399774,99.03532141958567 50.89977885899134,99.07020139228553 50.775586023926735,99.07020139228553 50.65139318892034,99.05857473610376 50.52720035385573,99.03532141958567 50.403007518849336,99.01206809742143 50.317027863813564,99.01206809742143 50.17372843879275,99.01206809742143 50.03998230875004,99.03532141958567 49.915789473743644,99.03532141958567 49.791596638737246,99.02369475918385 49.65785050869454,98.98881476965471 49.543210968666244,99.01206809742143 49.41901813360164,99.01206809742143 49.26616541360272,99.00044143424748 49.16107916861074,98.96556143624184 49.00822644849541,98.95393476740719 48.8649270235328,98.98881476965471 48.712074303475674,98.98881476965471 48.59743476344738,99.00044143424748 48.45413533842657,98.98881476965471 48.339495798398275,98.98881476965471 48.205749668355566,99.00044143424748 48.100663423363585,98.98881476965471 47.97647058829898,98.97718810363585 47.85227775329258,99.00044143424748 47.72808491822798,98.98881476965471 47.60389208322158,98.98881476965471 47.4988058382296,99.01206809742143 47.36505970818689,99.02369475918385 47.2599734631367,99.02369475918385 47.1357806280721,99.02369475918385 46.97337461303687,99.01206809742143 46.86828836804489,99.01206809742143 46.71543564798776,99.01206809742143 46.6294559930102,99.01206809742143 46.50526315794559,99.01206809742143 46.381070322939195,99.00044143424748 46.2568774879328,99.01206809742143 46.12313135783188,98.97718810363585 46.008491817861795,98.97718810363585 45.86519239284098,98.96556143624184 45.73144626279827,98.96556143624184 45.60725342773367,98.95393476740719 45.50216718274169,98.95393476740719 45.36842105269898,98.98881476965471 45.21556833270006,99.01206809742143 45.10092879261356,98.98881476965471 44.96718266262906,98.97718810363585 44.84298982756445,98.96556143624184 44.72835028753616,98.94230809715373 44.57549756747903,98.96556143624184 44.46085802750895,98.94230809715373 44.317558602429926,98.93068142553966 44.18381247238722,98.93068142553966 44.05006634234451,98.96556143624184 43.92587350733811,98.95393476740719 43.77302078733919,98.91905475251406 43.62972136231838,98.89580140219914 43.50552852725377,98.8841747249171 43.371782397211064,98.84929468468181 43.238036267168354,98.8609213661548 43.12339672719827,98.87254804625991 42.999203892133664,98.89580140219914 42.88456435210537,98.90742807807692 42.760371517098974,98.95393476740719 42.63617868203437,98.95393476740719 42.50243255199166,98.94230809715373 42.37823971698526,98.93068142553966 42.27315347199328,98.91905475251406 42.14896063692868,98.94230809715373 42.02476780192228,98.93068142553966 41.91012826189399,98.95393476740719 41.766828836814966,98.91905475251406 41.62352941179415,98.94230809715373 41.51844316680217,98.91905475251406 41.38469703675946,98.91905475251406 41.260504201753065,98.91905475251406 41.155417956761084,98.8841747249171 41.02167182666017,98.8609213661548 40.87837240163935,98.87254804625991 40.73507297661854,98.8841747249171 40.591773551597726,98.8609213661548 40.47713401156943,98.87254804625991 40.34338788152672,98.87254804625991 40.20008845650591,98.8609213661548 40.075895621441305,98.8609213661548 39.95170278643491,98.87254804625991 39.80840336141409,98.8841747249171 39.674657231371384,98.90742807807692 39.56001769134309,98.87254804625991 39.435824856336694,98.83766800179728 39.302078726293985,98.84929468468181 39.17788589128759,98.82604131747212 39.04413976118667,98.83766800179728 38.929500221216585,98.8609213661548 38.81486068118829,98.83766800179728 38.68111455114558,98.81441463177907 38.53781512612477,98.81441463177907 38.42317558609648,98.81441463177907 38.279876161017455,98.79116125613655 38.18434321106179,98.76790787485515 38.06015037599718,98.76790787485515 37.92640424595447,98.76790787485515 37.8308712959406,98.79116125613655 37.68757187091978,98.77953456617979 37.55382574087707,98.79116125613655 37.429632905870676,98.82604131747212 37.28633348084986,98.82604131747212 37.15258735080715,98.83766800179728 37.05705440073507,98.80278794467449 36.92330827075057,98.80278794467449 36.79911543574417,98.80278794467449 36.69402919069398,98.77953456617979 36.541176470636856,98.80278794467449 36.41698363563046,98.79116125613655 36.26413091557333,98.77953456617979 36.139938080566935,98.79116125613655 36.04440513055306,98.77953456617979 35.80557275546016,98.79116125613655 35.52852720039664,98.77953456617979 35.31835471035447,98.74465448795672 35.09862892527599,98.74465448795672 34.66873065021355,98.80278794467449 34.401238390186336,98.73302779239748 34.22927908011479,98.70977439701528 33.89491375506623,98.73302779239748 33.732507740031,98.68652099605242 33.57965501997387,98.67489429347188 33.29305616993224,98.72140109540487 33.01601061481051,98.75628118211898 32.76762494479772,98.8609213661548 32.56700574973365,98.83766800179728 28.793454223894514,98.62838746894704 28.573728438816033,98.62838746894704 28.334896063723136,98.59350733583415 28.019637328688987,98.67489429347188 27.771251658617985,98.60513404828089 27.513312693568878,98.55862719000288 27.169394073484,98.55862719000288 24.074126492778305,98.52374703153328 23.84484741272172,98.54700047190272 23.539141972665675,98.52374703153328 23.319416187587194,98.48886686035257 23.071030517516192,98.39585300867475 22.77487837249646,98.4772401338123 22.459619637404103,98.48886686035257 22.239893852325622,98.50049358547403 19.76559044676833,98.4656134058896 19.440778416697867,98.4656134058896 19.278372401662637,98.4656134058896 19.115966386627406,98.48886686035257 19.068199911620468,98.43073321363045 18.924900486541446,98.4423599457732 18.600088456470985,98.45398667654808 18.475895621464588,98.38422627088585 18.21795665641548,98.36097279110982 18.007784166373312,98.38422627088585 17.80716497130925,98.38422627088585 17.663865546230227,98.34934604908631 16.641662981070112,98.37259953169996 16.345510835992172,98.38422627088585 16.11623175587738,98.30283906692057 15.896505970857106,98.34934604908631 15.552587350772228,98.33771930562943 15.323308270715643,98.37259953169996 15.10358248569537,98.41910648007615 14.845643520646263,98.36097279110982 14.578151260560844,98.33771930562943 14.348872180504259,98.32609256081923 14.043166740390006,98.30283906692057 13.861654135398567,98.30283906692057 13.651481645356398,98.31446581456112 13.192923485243227,98.33771930562943 13.001857585215475,98.23307855147868 12.982750995142851,98.50049358547403 13.01141088019358,98.70977439701528 13.049624060222413,98.8841747249171 12.963644405186642,99.08182804700482 12.84900486515835,99.105081352267 12.868111455172766,98.80278794467449 12.667492260108702,98.81441463177907 12.505086245073471,98.98881476965471 12.438213180052117,99.12833465191943 12.4191065900377,99.3143608462924 12.466873065044638,99.63990581937105 12.485979655059054,99.8840638250258 12.600619195087347,100.23285989914439 12.61017249012366,100.465389911471 12.667492260108702,100.73279872960848 12.69615214515943,100.96532753148495 12.753471915144473,101.12809735779592 12.782131800136995,101.3606252025711 12.782131800136995,101.62803152806737 12.801238390151411,101.89543710906582 12.84900486515835,102.17446822582133 12.84900486515835,102.44187228538794 12.858558160194661,102.70927560040582 12.87766475015087,102.97667817095498 12.858558160194661,103.22082769383269 12.858558160194661,103.52310719561501 12.810791685187723,103.74400315296225 12.829898275143933,104.04628100814443 12.810791685187723,104.23229767698649 12.84900486515835,104.49969600723125 12.839451570180245,104.74384165858646 12.810791685187723,104.94148292182945 12.82034498010762,105.1391237783464 12.782131800136995,105.41814547168906 12.801238390151411,105.6506629302603" stroke="#4DD2FF" stroke-dasharray="none" stroke-linecap="round" stroke-linejoin="round" stroke-width="0.5"><title>2013-12-10 10.9km</title><desc>9223370650177580807</desc></polyline><polyline fill="none" opacity="1" points="105.44546680338681,118.41604135814123 107.33954221289605,115.53605946153402 109.23361762333661,111.79207779094577 109.47037704847753,107.76009095064364 109.94389590155333,104.30409679980949 110.41741475462914,101.42409784393385 110.18065532762557,96.81609227391891 110.41741475462914,94.51208614767529 110.65417417977005,91.34407408395782 110.41741475462914,88.75206108158454 108.99685819726437,85.58404135890305 105.91898565553129,83.56802661530674 102.13083483558148,81.26400767685845 98.81620286870748,81.26400767685845 96.44860860612243,82.41601742431521 93.37073606532067,84.43203314347193 91.23990122880787,88.75206108158454 91.23990122880787,92.20807779114693 90.05610409844667,96.24009095155634 89.58258524537086,98.83209580765106 88.63554754015058,102.86409775703214 88.87230696715415,106.60809345706366 88.16202868893743,109.48808614583686 88.16202868893743,113.23207143717445 88.16202868893743,116.11205611890182 89.34582581929862,118.41604135814123 91.71342008188367,121.87201503920369 94.55453319568187,123.0240051522851 98.342684016563,123.60000000009313 101.89407540857792,122.44801016617566 103.78815081901848,119.85603100107983 106.39250450860709,117.55204715509899 108.04982049111277,113.5200700617861 108.04982049111277,110.35208327439614 109.23361762333661,106.32009399682283 109.7071364754811,103.15209763473831 110.41741475462914,99.40809650393203 111.3644524589181,95.08808788773604 111.3644524589181,92.49607895803638 111.12769303377718,88.17605780856684 109.94389590155333,84.72003524936736 108.52333934418857,82.41601742431521 105.20870737731457,81.55201016599312 102.84111311472952,80.97600515326485 99.05296229477972,81.26400767685845 95.97508975397795,82.99202209012583 92.89721721317619,85.87204332626425 90.52962294965982,89.04006266547367 90.2928635245189,92.7840800897684 89.8193446714431,96.24009095155634 89.34582581929862,99.69609679933637 88.63554754015058,102.86409775703214 88.63554754015058,106.60809345706366 88.16202868893743,110.35208327439614 88.63554754015058,114.09606720716693 89.10906639229506,117.55204715509899 91.23990122880787,119.85603100107983 94.08101434446871,121.58401742414571 97.39564631134272,122.44801016617566 101.18379713129252,122.16001262003556 104.97194795124233,119.56803314271383 107.33954221289605,117.26404901780188 108.04982049111277,112.94407277810387 108.76009877026081,108.91208788729273 109.23361762333661,104.592096503824 109.7071364754811,101.13609775644727 110.41741475462914,97.96809450234286 111.83797131106257,93.93608426698484 111.3644524589181,90.48007006337866 111.3644524589181,87.02405084599741 109.94389590155333,84.14403100195341 107.57630163896829,81.84001261997037 104.49842909816653,80.39999999990687 102.13083483558148,80.68800259311683 99.76324057392776,81.55201016599312 95.73833032790571,82.99202209012583 92.18693893495947,85.00803732150234" stroke="#4DD2FF" stroke-dasharray="none" stroke-linecap="round" stroke-linejoin="round" stroke-width="0.5"><title>2013-11-30 10.3km</title><desc>9223370651086224807</desc></polyline><polyline fill="none" opacity="1" points="177.08396374993026,108.74149377364665 176.4053537240252,104.33895478351042 176.85776040703058,101.31220428971574 177.53637043293566,97.45997056690976 178.44118379987776,94.98353115888312 177.762573774904,89.48032283014618 175.72674369905144,86.45355257811025 174.8219303302467,83.42677830182947 173.01230359636247,82.6012937091291 170.2978634936735,83.15161680453457 168.2620334168896,83.15161680453457 165.32138997409493,82.6012937091291 162.1545431893319,82.6012937091291 162.38074653036892,83.7019397658296 160.34491645358503,85.07774658850394 156.27325630094856,88.93000126630068 157.17806966789067,92.23192865797319 156.49945964291692,95.80901126144454 156.27325630094856,100.76188558526337 156.49945964291692,104.06379581429064 153.55881619919091,107.36570125445724 154.46362956706434,109.8421271899715 155.82084961794317,112.31855043233372 155.82084961794317,116.17075901036151 156.49945964291692,118.37201812700368 157.40427300985903,119.47264688764699 159.44010308664292,122.22421646025032 162.83315321430564,122.22421646025032 166.67861002590507,123.60000000009313 167.58342339284718,121.6739028126467 171.20267686247826,119.74780399515294 174.8219303302467,115.89560147118755 175.72674369905144,114.51981327589601 177.53637043293566,112.04339242749847 176.85776040703058,106.8153840135783 176.17915038205683,105.71474913298152 176.4053537240252,101.86252286075614 177.762573774904,96.90965093066916 177.762573774904,95.80901126144454 176.17915038205683,92.78224942437373 178.44118379987776,90.30580492829904 176.85776040703058,89.20516206463799 175.2743370141834,86.72871367656626 173.23850693926215,83.7019397658296 171.4288802035153,83.15161680453457 168.4882367597893,80.4000000001397 163.9641699232161,82.6012937091291 160.79732313752174,85.90323028201237 157.85667969379574,88.93000126630068 156.72566298395395,90.85612616012804 156.49945964291692,95.25869122636504 158.0828830357641,99.38608824228868 156.27325630094856,102.96315960329957 155.36844293307513,105.43959032977 156.0470529589802,107.64085982413962 155.1422395920381,110.6676019039005 155.36844293307513,113.69433995871805 155.36844293307513,117.27138883504085 157.40427300985903,118.64717536675744 160.118713112548,120.57327511627227 163.5117632402107,121.94905965286307 166.4524066830054,122.77452997583896 169.61925346869975,122.22421646025032 172.3336935704574,120.02296106843278 174.8219303302467,117.27138883504085 176.4053537240252,113.41918211965822 176.63155706506222,110.3924436995294 176.85776040703058,107.36570125445724 176.85776040703058,104.06379581429064 176.17915038205683,100.76188558526337 176.85776040703058,97.45997056690976 177.08396374993026,94.70837105903774 177.98877711594105,91.40644725854509 177.53637043293566,88.37967956834473 176.17915038205683,85.62806908367202 174.3695236472413,83.7019397658296 172.3336935704574,82.87645527347922 169.16684678569436,82.05097048147582 166.4524066830054,82.05097048147582 163.28555989731103,83.7019397658296 161.47593316342682,84.25226259441115 159.44010308664292,86.45355257811025 157.85667969379574,88.37967956834473 157.63047635182738,91.40644725854509 156.72566298395395,95.25869122636504 157.17806966789067,98.28544977051206 156.49945964291692,102.13768209633417 156.49945964291692,104.06379581429064 156.0470529589802,108.46633533574641 154.68983290810138,112.31855043233372 155.1422395920381,116.17075901036151 156.49945964291692,118.09686085442081 160.34491645358503,119.19748974777758 163.5117632402107,121.3987459379714 166.67861002590507,121.3987459379714 170.07166015263647,119.74780399515294 172.3336935704574,118.09686085442081 174.14332030527294,115.07012865296565 175.72674369905144,111.21791821252555 175.50054035615176,107.64085982413962 176.17915038205683,104.33895478351042 176.17915038205683,100.76188558526337 176.85776040703058,97.45997056690976 177.08396374993026,93.6077303243801 178.21498045884073,89.48032283014618 177.08396374993026,87.55419677193277 175.04813367314637,85.62806908367202 172.3336935704574,83.97710119653493 168.2620334168896,82.87645527347922 164.64277994912118,83.15161680453457 161.9283398464322,84.80258529004641 159.21389974374324,87.27903577359393 158.0828830357641,90.0306442619767 157.63047635182738,92.78224942437373 156.49945964291692,96.90965093066916 156.72566298395395,100.21156674809754 156.72566298395395,102.41284129838459 156.27325630094856,105.9899079024326 156.27325630094856,110.11728546163067 155.5946462759748,113.41918211965822 156.72566298395395,116.17075901036151 158.0828830357641,119.19748974777758 161.02352648042142,121.6739028126467 163.73796658124775,122.77452997583896 167.13101670891047,122.77452997583896 170.2978634936735,121.1235890306998 172.10749022942036,118.9223325739149 173.91711696330458,115.34528629202396" stroke="#4DD2FF" stroke-dasharray="none" stroke-linecap="round" stroke-linejoin="round" stroke-width="0.5"><title>2013-11-16 10.4km</title><desc>9223370652294258807</desc></polyline><polyline fill="none" opacity="1" points="33.027015703730285,171.30411218269728 37.64869111124426,170.12056055432186 40.810890073888004,168.04934382555075 43.24335081502795,164.79457114171237 43.973089036531746,161.53979412838817 44.459581185132265,157.69323389837518 45.18931940756738,154.73433729959652 45.43256548140198,150.88776637450792 46.162303702905774,147.04118940443732 46.162303702905774,144.08227993012406 45.43256548140198,139.3480173314456 45.67581155523658,135.7973143735435 43.48659688886255,134.31785328662954 40.810890073888004,130.4712502779439 38.37842933367938,129.58357180282474 30.59455496352166,128.99178597261198 27.675602074712515,131.06303575029597 25.97287955507636,134.61374557600357 22.81068059336394,138.16445025079884 24.27015703730285,141.12336687929928 23.297172740101814,144.6740621116478 23.297172740101814,150.88776637450792 22.81068059336394,154.43844744330272 23.053926666267216,160.06034860108048 22.56743451859802,163.6110163643025 23.540418814867735,166.5699022328481 24.99989525973797,168.64112021238543 29.135078518651426,170.71233643963933 34.0,171.60000000009313 38.37842933367938,171.30411218269728 39.35141362901777,169.52878452418372 42.02712044399232,167.1616789775435 42.27036651875824,163.01923876185901 42.27036651875824,160.35623777890578 43.24335081502795,155.32611690624617 45.18931940756738,150.29598569567315 45.43256548140198,146.1535169382114 45.919057629071176,142.89871513913386 45.67581155523658,138.75623386260122 45.919057629071176,135.7973143735435 44.70282725803554,132.5424988034647 40.56764399912208,129.879464663798 36.91895288974047,128.99178597261198 33.270261778496206,128.99178597261198 29.378324592486024,130.4712502779439 26.7026177784428,132.24660626379773 25.486387407407165,136.38909855671227 23.783664888702333,141.12336687929928 23.783664888702333,144.08227993012406 23.540418814867735,146.74529861821793 22.81068059336394,150.88776637450792 23.053926666267216,154.73433729959652 22.81068059336394,157.69323389837518 23.053926666267216,162.72334990650415 24.02691096253693,165.09045974630862 26.459371704608202,167.1616789775435 31.081047111190856,171.00822432967834 34.972984296269715,171.00822432967834 38.62167540658265,169.82467255694792 40.810890073888004,168.64112021238543 43.48659688886255,165.38634831481613 44.216335110366344,162.72334990650415 43.973089036531746,158.58090218016878 44.459581185132265,153.8466676226817 45.43256548140198,150.88776637450792 46.162303702905774,147.33708015549928 46.162303702905774,143.7863887862768 46.405549777671695,139.64390901243314 45.919057629071176,135.7973143735435 43.72984296362847,132.5424988034647 41.054136148653924,130.4712502779439 36.91895288974047,128.4000000001397 33.270261778496206,128.99178597261198 29.864816741086543,130.4712502779439 26.7026177784428,131.95071368920617 24.02691096253693,134.90963782859035 23.297172740101814,140.23569226590917 23.540418814867735,143.7863887862768 23.053926666267216,147.33708015549928 24.51340311113745,150.88776637450792 22.81068059336394,156.50967568787746 22.080942370928824,160.35623777890578 22.81068059336394,164.2027938242536 23.053926666267216,166.27401380729862 26.7026177784428,168.64112021238543 29.621570666320622,170.12056055432186 34.486492147669196,170.71233643963933 37.89193718507886,170.12056055432186 41.054136148653924,168.64112021238543 43.24335081502795,165.68223684746772 43.973089036531746,162.13157208892517 44.94607333280146,158.58090218016878 45.43256548140198,155.0302271207329 45.67581155523658,151.77543712500483 46.162303702905774,148.81653337273747 46.405549777671695,145.26584414974786 46.89204192534089,139.3480173314456 46.405549777671695,135.7973143735435 44.70282725803554,133.13428377383389 41.54062829632312,130.4712502779439 38.864921481348574,129.2876789055299 34.0,128.69589300476946 31.081047111190856,129.58357180282474 28.40534029621631,130.76714303181507 25.97287955507636,133.13428377383389 24.99989525973797,134.31785328662954 24.27015703730285,135.7973143735435 25.486387407407165,139.3480173314456 25.243141333572567,140.82747537712567 24.756649184972048,144.9699531486258 23.297172740101814,149.1124239093624 22.56743451859802,152.3672174452804 22.080942370928824,157.39734439994209 21.10795807465911,159.46857014065608 21.837696296162903,160.94801602489315 23.297172740101814,163.90690511232242 25.97287955507636,165.68223684746772 28.40534029621631,168.93700835271738 31.56753925886005,169.82467255694792 32.78376962989569,170.41644851467572 37.64869111124426,171.60000000009313 40.56764399912208,170.71233643963933 42.513612592592835,168.04934382555075 43.973089036531746,166.27401380729862 44.459581185132265,163.31512758182362 43.973089036531746,159.46857014065608 44.459581185132265,153.55077765905298 46.162303702905774,150.00009530293755 45.67581155523658,146.44940779660828 46.405549777671695,143.49049760680646" stroke="#4DD2FF" stroke-dasharray="none" stroke-linecap="round" stroke-linejoin="round" stroke-width="0.5"><title>2013-11-03 10.7km</title><desc>9223370653417861807</desc></polyline><polyline fill="none" opacity="1" points="89.70096122287214,147.1200961722061 88.99068268761039,150.57609784416854 88.51716366223991,154.32009399705566 88.04364463873208,157.77608522307128 88.04364463873208,161.23207143694162 88.99068268761039,164.68805263843387 91.1215182961896,167.85603100177832 93.48911341652274,169.5840174248442 97.27726561017334,170.73600767669268 102.01245585177094,170.73600767669268 105.09032951015979,169.5840174248442 106.74764609336853,167.28003524802625 107.93144365400076,163.24806107999757 109.58876023907214,160.0800765901804 109.82551975175738,155.7600909504108 109.58876023907214,152.01609706040472 110.77255779877305,148.27209728653543 111.48283633589745,145.39209345774725 111.71959584765136,142.5120861462783 111.9563553603366,138.48007006268017 111.48283633589745,133.2960393568501 109.35200072731823,129.84001261997037 106.98440560605377,129.2640076763928 103.90653194859624,130.41601742454804 100.35513926763088,130.12801503995433 97.51402512192726,130.41601742454804 94.67291097715497,132.14403100241907 92.77883488032967,135.3120526385028 91.35827780794352,138.1920686531812 91.59503732062876,143.37608870584518 90.88475878350437,145.96809450211003 90.1744802473113,149.712097896263 89.46420171111822,153.4560954067856 88.51716366223991,155.7600909504108 88.28040415141732,159.2160800890997 88.28040415141732,162.96006266516633 89.70096122287214,167.28003524802625 92.77883488032967,169.5840174248442 97.27726561017334,171.31200259411708 100.59189877938479,171.60000000009313 104.3800509730354,170.16001262003556 107.69468414224684,167.28003524802625 108.16820316575468,162.6720642137807 110.29903877526522,158.06408426584676 110.53579828795046,154.60809345706366 110.53579828795046,151.44009747868404 110.77255779877305,147.1200961722061 111.00931731145829,142.80008703446947 112.19311487209052,139.0560727783013 112.42987438477576,135.3120526385028 110.29903877526522,132.7200352489017 108.87848170287907,130.41601742454804 105.80060804635286,128.9760051521007 102.01245585177094,128.4000000001397 98.22430365905166,129.2640076763928 94.90967048984021,129.84001261997037 89.70096122287214,133.8720433257986 88.99068268761039,135.0240508459974 88.99068268761039,136.46405946207233 90.1744802473113,139.63207535468973 89.93772073462605,143.66408948926255 88.51716366223991,147.69609680003487 88.51716366223991,150.57609784416854 87.57012561522424,154.32009399705566 87.57012561522424,157.48808614653535 87.80688512697816,160.65607408294454 87.57012561522424,163.5360594613012 89.22744219843298,166.7040393569041 91.35827780794352,169.00802208902314 94.19939195271581,169.87201503990218 97.9875441454351,169.5840174248442 102.01245585177094,168.72002436965704 106.51088658254594,166.99203731981106 108.40496267937124,164.4000543965958 110.29903877526522,160.65607408294454 109.82551975175738,156.62408870481886 110.29903877526522,152.59209650335833 110.53579828795046,149.13609775714576 110.77255779877305,145.39209345774725 111.00931731145829,141.93608426721767 112.19311487209052,139.34407408325933 111.9563553603366,135.3120526385028 109.35200072731823,132.7200352489017 106.74764609336853,130.70401977421716 102.72273438796401,129.55201016529463 99.6448607314378,129.2640076763928 95.8567085377872,130.41601742454804 92.77883488032967,131.56802661553957 91.59503732062876,135.6000543970149 90.64799927081913,139.34407408325933 90.41123975906521,142.5120861462783 90.41123975906521,145.96809450211003 89.22744219843298,149.712097896263 88.99068268761039,153.4560954067856" stroke="#4DD2FF" stroke-dasharray="none" stroke-linecap="round" stroke-linejoin="round" stroke-width="0.5"><title>2013-11-02 10.5km</title><desc>9223370653505000807</desc></polyline><polyline fill="none" opacity="1" points="165.77803774364293,168.63002674723975 168.88550934474915,168.09003118495457 171.3270941739902,167.82003335561603 173.99064126145095,166.47004371811636 174.8784902896732,161.61007426702417 175.54437706060708,157.83009071601555 175.54437706060708,152.97010246641003 175.54437706060708,150.540104374988 176.65418834704906,147.0301024664659 176.65418834704906,144.33009724435396 176.87615060433745,142.4400916469749 176.2102638334036,139.20007833116688 175.54437706060708,134.88005326571874 173.32475448958576,131.1000244792085 172.21494320314378,130.29001747770235 168.88550934474915,128.94000515691005 166.2219622572884,128.94000515691005 162.6705661425367,130.56001984444447 159.78505679685622,132.45003549358808 157.5654342258349,135.15005507646129 156.01169842481613,138.12007284793071 156.45562293939292,142.98009340977296 156.67758519575,145.68010026379488 156.23366068210453,149.19010429433547 156.01169842481613,151.35010403278284 156.01169842481613,152.97010246641003 155.56777391023934,155.67009724397212 155.12384939659387,158.6400877290871 156.23366068210453,162.15007139416412 157.5654342258349,164.85005507571623 160.67290582694113,167.0100396713242 164.22430194169283,168.3600289823953 167.7756980592385,168.3600289823953 169.77335837297142,167.82003335561603 172.65886771772057,165.66004954348318 174.6565280323848,162.96006684168242 175.54437706060708,159.18008557590656 175.54437706060708,155.94009654247202 175.7663393188268,152.70010280935094 175.54437706060708,149.46010437584482 175.54437706060708,146.49010168295354 176.43222609069198,142.98009340977296 176.87615060433745,140.01008210144937 176.43222609069198,137.31006839242764 175.32241480425,134.34004954481497 173.99064126145095,132.72003759886138 170.4392451448366,130.56001984444447 167.7756980592385,128.4000000001397 165.3341132281348,129.48001018329524 162.0046793706715,130.8300221778918 159.78505679685622,132.45003549358808 158.67524551134557,135.69005860155448 158.2313209977001,138.12007284793071 157.7873964831233,141.63008875912055 156.45562293939292,144.33009724435396 156.01169842481613,146.76010209089145 156.23366068210453,150.81010429398157 157.7873964831233,154.32010026299395 154.90188713837415,155.13009854895063 155.12384939659387,156.21009580790997 154.45796262472868,157.56009164638817 154.90188713837415,163.23006525845267 160.22898131329566,166.20004569296725 165.77803774364293,167.55003549298272 167.1098112873733,167.55003549298272 169.10747160110623,167.55003549298272 171.77101868763566,168.3600289823953 173.99064126145095,164.0400603134185 174.6565280323848,162.96006684168242 174.8784902896732,160.5300796192605 175.54437706060708,159.18008557590656 173.54671674594283,158.91008666879497 174.8784902896732,158.10008975397795 176.2102638334036,155.94009654247202 175.9883015761152,150.81010429398157 176.2102638334036,149.46010437584482 175.7663393188268,146.2201012421865 176.2102638334036,142.1700907170307 175.7663393188268,136.7700652598869 175.32241480425,133.26004171161912 173.54671674594283,129.75001264712773 169.55139611661434,129.48001018329524 165.77803774364293,129.21000768686645 162.6705661425367,130.56001984444447 159.78505679685622,132.72003759886138 156.67758519575,133.26004171161912 156.45562293939292,137.58006991050206 156.23366068210453,140.55008445074782 156.01169842481613,144.0600965428166 154.90188713837415,147.57010311936028 155.34581165295094,151.62010385282338 155.12384939659387,155.13009854895063 154.90188713837415,159.18008557590656 154.90188713837415,161.61007426702417 158.45328325405717,165.66004954348318 164.00233968626708,168.63002674723975 166.44392451550812,169.98001507879235 169.32943385839462,171.60000000009313 173.32475448958576,167.82003335561603 175.1004525469616,162.69006839231588 175.54437706060708,159.7200832911767 175.54437706060708,158.6400877290871 175.1004525469616,153.24010209064 174.8784902896732,148.92010417976417 175.32241480425,146.2201012421865 175.54437706060708,142.98009340977296 177.09811286255717,138.93007700890303 175.7663393188268,135.96006031497382 174.43456577509642,134.34004954481497 172.88082997407764,130.8300221778918 170.21728288847953,130.02001507859677 166.0,129.75001264712773 162.0046793706715,130.56001984444447 159.78505679685622,130.8300221778918 156.89954745396972,132.72003759886138 154.90188713837415,135.69005860155448 154.67992488108575,138.39007426798344 155.34581165295094,139.7400808769744 154.23600036650896,142.71009254432283 154.67992488108575,145.95010076928884 154.90188713837415,147.57010311936028 154.45796262472868,150.27010442432947 154.90188713837415,153.78010124200955 154.67992488108575,157.02009340864606 154.90188713837415,161.34007565444335 157.5654342258349,166.20004569296725 161.7827171124518,168.63002674723975 163.11449065618217,168.3600289823953 166.0,169.98001507879235 167.99766031466424,169.1700221770443 171.1051319167018,171.33000259427354 173.32475448958576,168.63002674723975 174.8784902896732,162.42006990942173 173.99064126145095,158.37008875748143 175.1004525469616,151.35010403278284 174.8784902896732,147.0301024664659 174.8784902896732,145.68010026379488 176.43222609069198,142.98009340977296 177.76399963349104,140.82008557626978 177.09811286255717,136.7700652598869 175.32241480425,132.1800333559513 173.10279223136604,129.75001264712773 169.9953206302598,128.6700025945902 166.0,128.94000515691005 161.1168303405866,130.56001984444447 157.1215097112581,132.1800333559513 156.67758519575,133.53004371840507 155.56777391023934,134.61005142168142 155.78973616752774,137.04006684245542 156.01169842481613,138.6600756549742 156.23366068210453,142.1700907170307 156.23366068210453,143.5200950417202 156.23366068210453,147.84010339644738 156.01169842481613,149.19010429433547 155.12384939659387,151.62010385282338 155.78973616752774,155.13009854895063 154.90188713837415,156.21009580790997 155.12384939659387,161.07007700833492 156.23366068210453,162.15007139416412 156.23366068210453,163.50006364332512 158.45328325405717,165.66004954348318 162.6705661425367,168.63002674723975 167.1098112873733,170.52001018356532 170.4392451448366,169.710017477395 171.99298094585538,168.09003118495457 175.32241480425,163.77006199466996 174.8784902896732,159.18008557590656 174.43456577509642,152.97010246641003 176.2102638334036,152.1601033960469 176.65418834704906,147.3001028096769 176.87615060433745,146.49010168295354 175.9883015761152,142.71009254432283 176.87615060433745,138.93007700890303 175.54437706060708,134.34004954481497 173.54671674594283,132.1800333559513 172.21494320314378,128.94000515691005 166.2219622572884,129.21000768686645 162.0046793706715,130.02001507859677 159.34113228321075,132.1800333559513 157.3434719676152,134.34004954481497 156.23366068210453,136.50006364448927 156.89954745396972,138.39007426798344 157.1215097112581,140.01008210144937 156.89954745396972,143.5200950417202 156.01169842481613,144.6000979137607 155.56777391023934,147.0301024664659 156.23366068210453,148.65010403259657 156.23366068210453,150.540104374988 154.90188713837415,152.43010311899707 155.56777391023934,153.78010124200955 154.90188713837415,157.83009071601555 154.90188713837415,161.07007700833492 155.78973616752774,162.15007139416412 158.00935873948038,165.93004763452336" stroke="#4DD2FF" stroke-dasharray="none" stroke-linecap="round" stroke-linejoin="round" stroke-width="0.5"><title>2013-10-26 11.1km</title><desc>9223370654110301807</desc></polyline><polyline fill="none" opacity="1" points="22.20096510462463,209.6527019208297 22.434609359130263,211.9263737637084 24.07011914718896,214.20004340726882 27.574782977811992,217.89475188939832 30.144869786687195,219.0315841003321 32.24766808561981,219.31579206697643 35.51868766080588,218.7473760987632 37.855130213312805,216.47371085267514 40.19157276768237,213.6316262029577 42.5280153201893,209.6527019208297 43.462592341937125,206.52639954793267 44.163525108247995,202.26325324806385 44.63081361912191,199.13694104878232 43.92988085281104,197.14746748516336 44.39716936275363,193.1685153071303 44.163525108247995,191.17903669271618 43.462592341937125,189.75797950988635 43.22894808650017,187.76849800907075 42.5280153201893,183.78952995873988 41.126149787567556,180.3789805562701 36.9205531924963,178.67370399925858 33.649533617310226,178.10527820512652 29.67758127581328,180.66319319489412 27.574782977811992,181.51583090610802 25.00469616893679,184.3579543782398 23.135542125441134,187.76849800907075 24.537407658062875,190.32640248560347 25.238340423442423,193.1685153071303 25.238340423442423,196.86325683817267 24.30376340262592,199.9895720607601 23.836474891752005,203.68430287321098 23.602830636315048,206.81060902611353 24.537407658062875,208.23165590292774 23.836474891752005,212.77900013769977 25.939273189753294,215.62108581862412 28.275715744122863,217.89475188939832 31.079446808435023,218.46316806343384 34.350466382689774,217.89475188939832 38.32241872418672,216.18950254260562 41.59343829937279,213.91583482245915 42.5280153201893,209.93691102182493 42.29437106475234,206.52639954793267 42.76165957655758,202.26325324806385 42.76165957655758,198.85273064253852 42.76165957655758,195.1579922370147 44.163525108247995,191.4632480267901 45.79903489537537,189.18955639493652 46.7336119171232,186.63165068160743 46.49996766075492,184.07374218595214 44.163525108247995,181.23161837016232 41.126149787567556,179.81055517448112 38.08877446874976,177.25263925665058 34.81775489449501,176.4000000001397 31.313091062940657,177.82106525660492 28.509359998628497,180.09476788225584 25.939273189753294,182.6526807071641 25.471984679810703,185.77901482582092 25.471984679810703,189.4737679695245 25.00469616893679,192.60009301709943 24.537407658062875,196.86325683817267 21.733676593750715,199.9895720607601 22.20096510462463,203.68430287321098 21.967320849187672,207.94744659680873 22.434609359130263,211.07374708005227 22.434609359130263,213.91583482245915 24.537407658062875,216.75791912851855 27.574782977811992,219.0315841003321 30.845802552998066,219.60000000009313 34.81775489449501,219.0315841003321 37.38784170243889,217.610543750925 41.126149787567556,215.90529419737868 42.060726810246706,213.6316262029577 43.69623659737408,210.22112008789554 44.163525108247995,206.81060902611353 44.163525108247995,203.1158831268549 44.63081361912191,199.70536175812595 45.33174638450146,195.4422030900605 45.565390639938414,192.0316705906298 46.03267915081233,189.18955639493652 45.79903489537537,185.49480280443095 44.864457874558866,181.80004340759479 42.76165957655758,179.24212965508923 39.72428425680846,178.10527820512652 36.21962042618543,177.53685227409005 32.7149565955624,177.53685227409005 29.443937021307647,178.95791684417054 25.939273189753294,181.23161837016232 24.537407658062875,184.07374218595214 25.238340423442423,188.33692146651447 23.836474891752005,191.74745932617225 23.602830636315048,194.58957042940892 23.602830636315048,198.28430972713977 21.967320849187672,201.69483315735124 22.434609359130263,206.52639954793267 22.20096510462463,209.3684927856084 23.602830636315048,212.21058258996345 24.537407658062875,215.90529419737868 25.471984679810703,217.610543750925 31.079446808435023,219.0315841003321 35.051399149000645,218.46316806343384 37.62148595787585,216.18950254260562 41.82708255387843,212.77900013769977 43.462592341937125,211.9263737637084 44.163525108247995,209.08428361662664 43.69623659737408,205.95798048726283 43.69623659737408,202.26325324806385 43.69623659737408,199.13694104878232 44.163525108247995,195.72641390911303 45.565390639938414,192.31588182109408 45.79903489537537,189.18955639493652 45.79903489537537,186.34743876405992 45.79903489537537,183.78952995873988 43.462592341937125,181.23161837016232 41.59343829937279,178.10527820512652 38.08877446874976,176.96842620545067 33.88317787181586,178.10527820512652 29.91122553125024,180.09476788225584 27.574782977811992,183.22110540163703 25.471984679810703,186.34743876405992 24.07011914718896,188.33692146651447 23.836474891752005,192.0316705906298 22.9018978709355,195.4422030900605 22.434609359130263,199.13694104878232 23.135542125441134,202.26325324806385 21.733676593750715,205.38956129038706 21.2663880828768,208.51586517505348 22.434609359130263,213.6316262029577 24.537407658062875,215.90529419737868 26.873850212432444,217.89475188939832 28.97664850950241,219.31579206697643 33.18224510550499,219.60000000009313 36.9205531924963,217.89475188939832 39.25699574500322,215.62108581862412 41.126149787567556,213.6316262029577 42.29437106475234,209.6527019208297 42.060726810246706,206.52639954793267 43.22894808650017,202.26325324806385 43.462592341937125,198.0000992184505 43.92988085281104,194.87378135020845 45.09810212999582,191.4632480267901 45.79903489537537,187.2000744137913" stroke="#4DD2FF" stroke-dasharray="none" stroke-linecap="round" stroke-linejoin="round" stroke-width="0.5"><title>2013-10-20 10.7km</title><desc>9223370654628121807</desc></polyline><polyline fill="none" opacity="1" points="99.66496281325817,177.75850321003236 96.31459094118327,178.30190426507033 94.0810096943751,179.38870597910136 91.62407032120973,181.56230783159845 90.28392157331109,184.82270667003468 90.06056344788522,187.53970208903775 88.94377282448113,191.3434901572764 88.27369845006615,195.14727178867906 88.05034032464027,198.13595284009352 87.3802659502253,200.58123438083567 86.71019157581031,203.84160563116893 86.71019157581031,207.37366914795712 87.3802659502253,210.36233394150622 89.83720532245934,213.0792984876316 92.51750282011926,214.9811717160046 95.42115844320506,217.42643493087962 99.21824656426907,217.6981306800153 102.56861843541265,217.42643493087962 106.14234843291342,216.06795569579117 109.26936217956245,213.8943872116506 110.83286905195564,211.17742365039885 111.05622717738152,208.18875993951224 111.50294342730194,205.20009225560352 111.94965967629105,201.1246299177874 112.61973405070603,198.13595284009352 113.06645030062646,195.41897022980265 113.28980842512101,192.70198433613405 112.84309217520058,188.89819856663235 112.61973405070603,186.1812047897838 110.38615280296654,182.92080792272463 108.82264592964202,179.6604063261766 105.91899030748755,177.75850321003236 102.79197656083852,176.67170070740394 99.88832093775272,176.67170070740394 96.31459094118327,177.48680263385177 92.96421907003969,179.6604063261766 90.50727969687432,182.92080792272463 89.61384719889611,185.90950523177162 89.61384719889611,188.89819856663235 88.94377282448113,192.15858676331118 88.72041469905525,196.23406535829417 87.60362407565117,199.49444291344844 88.05034032464027,202.4831181843765 86.93354970123619,206.2868809637148 89.39048907347023,208.73215363710187 90.28392157331109,211.9925130638294 92.07078657113016,215.52456377237104 94.30436781886965,217.42643493087962 97.8780978154391,218.7849133447744 101.67518593650311,219.60000000009313 104.57884155865759,217.96982639585622 107.03578093089163,215.25286776060238 109.04600405413657,212.8076021813322 110.60951092839241,209.81894063809887 110.38615280296654,207.64536611060612 111.05622717738152,204.65669770352542 111.27958530280739,201.6680253231898 111.50294342730194,198.67934896820225 112.1730178007856,196.23406535829417 112.61973405070603,191.88688792707399 112.61973405070603,188.62649933667853 111.27958530280739,183.19250784208998 109.492720304057,179.6604063261766 106.58906468190253,178.03020375361666 102.12190218642354,176.4000000001397 98.54817218892276,176.67170070740394 95.64451656676829,178.03020375361666 92.51750282011926,179.9321066394914 90.95399594679475,183.19250784208998 90.7306378223002,186.72460380778648 90.28392157331109,191.07179122348316 89.61384719889611,195.69066863902844 86.93354970123619,198.40765092079528 87.3802659502253,201.1246299177874 87.3802659502253,204.3850003783591 86.93354970123619,207.64536611060612 88.05034032464027,210.36233394150622 90.95399594679475,214.16608338686638 94.0810096943751,217.6981306800153 98.10145593993366,218.7849133447744 101.67518593650311,217.15473914984614 104.35548343416303,215.25286776060238 107.92921343073249,213.62269100290723" stroke="#4DD2FF" stroke-dasharray="none" stroke-linecap="round" stroke-linejoin="round" stroke-width="0.5"><title>2013-10-19 10.2km</title><desc>9223370654714312807</desc></polyline><polyline fill="none" opacity="1" points="163.15888482518494,177.84001261997037 160.31776964943856,179.8560288255103 157.4766544746235,182.44804715528153 157.00313527788967,185.6160657282453 155.81933728791773,189.36008224752732 155.1090584937483,193.10409288294613 155.1090584937483,195.98409706004895 155.81933728791773,199.72809728630818 155.1090584937483,203.47209162893705 155.1090584937483,206.64008224592544 154.3987797005102,210.38406572700478 154.87229889724404,213.26404901687056 157.23989487532526,215.856031000847 161.5015676394105,217.87201503897086 165.0529616093263,219.60000000009313 168.36759597994387,218.16001261910424 171.20871115475893,216.14402882475406 174.049826329574,213.55204715393484 174.76010512374341,210.38406572700478 175.70714351627976,206.06408426584676 175.23362432047725,202.03209450119175 175.47038391791284,197.71209789603017 175.70714351627976,194.83209580741823 176.41742231044918,190.8000870347023 177.36446070112288,187.05607277853414 175.94390311371535,183.0240508459974 174.76010512374341,180.14403100172058 171.20871115475893,177.55201016599312 167.18379798997194,176.39999999990687 163.39564442262053,177.55201016599312 160.31776964943856,179.2800243704114 158.66045246366411,182.44804715528153 157.4766544746235,185.32806421420537 157.23989487532526,187.92007659026422 156.76637568045408,191.6640894880984 155.81933728791773,195.12009617267177 155.1090584937483,198.28809789568186 154.87229889724404,201.45609540655278 154.87229889724404,205.48808614583686 155.34581809211522,209.23207143694162 157.00313527788967,212.97605084488168 158.1869332678616,214.99203731981106 161.028048443608,218.16001261910424 164.57944241166115,218.16001261910424 167.42055758740753,218.73600767576136 170.73519195895642,217.29601977346465 173.33954753633589,215.56803314224817 174.99686472211033,212.11205611890182 175.47038391791284,207.79207779001445 175.70714351627976,203.18409227347001 175.70714351627976,200.30409679887816 175.70714351627976,196.84809763496742 176.65418190788478,193.9680945011787 177.36446070112288,190.51208614674397 177.1277011046186,186.19206865271553 174.99686472211033,180.14403100172058 172.3925091456622,178.12801503925584 167.65731718577445,176.68800259334967 164.81620201002806,176.97600515233353 161.97508683428168,179.56802661530674 159.37073125783354,181.58404135890305 158.66045246366411,184.4640594618395 157.23989487532526,189.07208118587732 155.81933728791773,193.39209345704876 155.81933728791773,196.84809763496742 154.3987797005102,200.30409679887816 154.6355392979458,204.04809023649432 154.87229889724404,207.2160800884012 154.3987797005102,210.67206421284936 156.29285648372024,214.70403935597278 158.89721206203103,217.29601977346465 161.5015676394105,217.5840174241457 166.4735191958025,218.16001261910424 169.31463437061757,216.72002436965704 172.3925091456622,214.12804332445376 173.33954753633589,211.53605946153402 174.52334552630782,207.79207779001445 175.94390311371535,204.33608948858455 177.1277011046186,201.1680958061479 177.6012202994898,197.13609775644727 177.1277011046186,192.52809162973426 177.1277011046186,188.20807779114693 176.18066271208227,184.75206108111888 174.76010512374341,180.14403100172058 171.91898994892836,178.12801503925584 168.84111517574638,177.26400767685845 164.81620201002806,176.97600515233353 161.5015676394105,178.99202208942734 158.66045246366411,181.58404135890305 157.23989487532526,184.176057808334 157.9501736694947,187.63207535399124 156.76637568045408,192.24009095085785 157.23989487532526,196.27209728676826 156.76637568045408,200.01609705970623 155.81933728791773,203.47209162893705 156.05609688628465,207.5040789565537 155.34581809211522,210.0960672076326 156.52961608115584,212.68805263726972 157.9501736694947,215.856031000847 161.7383272368461,217.87201503897086 163.86916361842304,217.87201503897086 168.84111517574638,218.44801016524434 171.91898994892836,216.72002436965704 174.52334552630782,213.84004525723867 175.70714351627976,209.8080686519388 175.70714351627976,206.35208327393048 175.70714351627976,202.89609288214706 176.41742231044918,199.15209763427265 176.41742231044918,195.69609679910354 176.89094150532037,191.95209023705684" stroke="#4DD2FF" stroke-dasharray="none" stroke-linecap="round" stroke-linejoin="round" stroke-width="0.5"><title>2013-10-12 10.6km</title><desc>9223370655320152807</desc></polyline><polyline fill="none" opacity="1" points="25.980728627182543,264.53422023169696 30.334047372452915,266.20646424684674 34.22912203986198,265.64904971048236 36.9785865098238,265.92775699542835 39.49892894178629,263.41939021321014 41.33190525602549,262.0258519339841 42.93575953040272,256.4516903918702 43.623125648126006,252.54976929398254 43.85224768798798,249.48396951239556 43.623125648126006,247.5330038932152 43.39400360919535,244.18848756235093 44.31049176584929,242.5162275780458 44.99785788357258,237.77815103437752 44.53961380571127,234.71233161212876 43.1648815702647,231.9252195081208 42.47751545254141,229.13810403598472 42.47751545254141,227.18712120037526 41.102783216163516,227.74454503622837 38.58244078513235,226.35098519385792 34.00000000093132,224.95742450957187 31.0214134901762,225.79356102156453 28.0428269803524,227.18712120037526 26.438972705975175,231.08908522012644 25.522484549321234,234.43362055299804 25.75160658825189,236.6633080795873 24.376874351873994,241.1226766637992 24.376874351873994,243.63106770208105 23.68950823508203,248.0904228107538 24.376874351873994,251.1562244440429 24.60599639080465,255.33685646601953 24.14775231294334,258.9600647534244 23.002142117358744,262.5832673464902 25.06424046959728,263.41939021321014 28.50107105821371,265.64904971048236 31.708779607899487,267.60000000009313 34.68736611865461,267.60000000009313 38.811562824063,265.92775699542835 41.33190525602549,263.97680529020727 43.623125648126006,260.9110207038466 44.53961380571127,257.2878154825885 44.7687358437106,252.82847816240974 43.623125648126006,249.20526023977436 43.85224768798798,244.18848756235093 44.99785788357258,240.28654571180232 45.226979923434556,237.22072962438688 46.143468079157174,234.43362055299804 45.45610196236521,232.20393087039702 42.93575953040272,228.58068053680472 38.811562824063,227.18712120037526 35.374732236377895,226.35098519385792 32.62526776455343,226.35098519385792 30.334047372452915,227.46583313541487 26.438972705975175,229.41681573539972 25.06424046959728,232.20393087039702 24.14775231294334,235.54846458579414 24.376874351873994,239.45041445526294 24.376874351873994,242.79493765952066 24.60599639080465,245.86074633477256 24.376874351873994,249.48396951239556 22.773020077496767,251.99235145538114 22.08565395977348,254.77943930099718 21.856531920842826,257.5665237775538 22.773020077496767,260.35360488598235 23.918630273081362,262.5832673464902 25.522484549321234,265.3703423908446 28.50107105821371,266.7638786493335 31.708779607899487,266.7638786493335 36.52034243196249,267.60000000009313 39.49892894178629,264.8129276514519 41.33190525602549,262.3045596573502 43.623125648126006,258.6813566253986 43.85224768798798,254.77943930099718 43.85224768798798,251.43493348150514 44.99785788357258,247.81171336886473 45.685224001295865,244.4671974426601 45.45610196236521,241.40138691361062 45.45610196236521,238.8929934501648 45.91434604022652,235.54846458579414 45.226979923434556,232.7613534934353 44.31049176584929,230.2529506292194 42.93575953040272,227.46583313541487 39.95717302057892,225.79356102156453 36.52034243196249,225.79356102156453 32.62526776455343,225.79356102156453 28.959315137937665,226.35098519385792 26.897216784767807,228.58068053680472 24.60599639080465,232.20393087039702 25.06424046959728,234.71233161212876 25.06424046959728,238.05686168861575 23.68950823508203,242.5162275780458 23.68950823508203,246.41816565580666 24.376874351873994,247.81171336886473 23.460386195220053,251.43493348150514 22.773020077496767,253.38589579914697 23.231264155358076,256.73039878858253 23.918630273081362,259.79618893377483 24.376874351873994,262.8619750030339 25.980728627182543,265.3703423908446 27.813704941421747,266.485171465436 34.00000000093132,266.485171465436 38.12419670633972,266.485171465436 40.186295059509575,265.3703423908446 43.85224768798798,262.0258519339841 43.1648815702647,257.2878154825885 42.93575953040272,252.82847816240974 44.08136972691864,250.04138795821927 42.93575953040272,246.41816565580666 44.31049176584929,244.18848756235093 45.226979923434556,242.23751746257767 45.91434604022652,238.05686168861575 46.143468079157174,234.43362055299804 45.45610196236521,231.08908522012644 42.93575953040272,228.30196873680688 38.58244078513235,225.79356102156453 36.29122039210051,224.4000000001397 33.312633882276714,224.95742450957187 32.854389804415405,226.07227312470786 30.334047372452915,227.74454503622837 27.355460862629116,229.41681573539972" stroke="#4DD2FF" stroke-dasharray="none" stroke-linecap="round" stroke-linejoin="round" stroke-width="0.5"><title>2013-10-06 10.6km</title><desc>9223370655838244807</desc></polyline><polyline fill="none" opacity="1" points="98.17877320479602,227.44618054293096 95.44693301152438,228.55388155416586 93.39805286563933,230.21543206600472 92.48743946664035,232.4308308751788 91.12151937000453,236.03084936900996 90.2109059728682,238.80009051598608 90.43855932168663,241.01548102218658 89.5279459245503,244.3385627658572 89.98325262311846,247.6616396890022 89.7555992724374,251.261634249473 88.84498587623239,255.69238901790231 88.16202582698315,258.46160639775917 89.0726392250508,261.50774164893664 90.43855932168663,263.1692682597786 93.39805286563933,265.9384766018484 95.67458635941148,267.3230795171112 97.95111985504627,267.60000000009313 102.27653349470347,266.49231786769815 106.14664043672383,264.5538728488609 108.65082728024572,260.4000565716997 109.78909402806312,256.800076372223 110.01674737781286,253.47701270505786 110.47205407731235,250.4308667758014 111.61032082512975,247.3847167957574 110.92736077588052,243.78471614304 110.92736077588052,240.46163359680213 111.61032082512975,237.41547036124393 111.83797417394817,234.64622754161246 111.61032082512975,231.8769813736435 109.5614406792447,230.21543206600472 107.96786723192781,228.00003111502156 105.23602703865618,226.89232983626425 102.27653349470347,227.44618054293096 97.72346650529653,228.00003111502156 95.44693301152438,228.55388155416586 93.8533595642075,230.21543206600472 93.62570621352643,231.8769813736435 92.71509281732142,234.64622754161246 92.48743946664035,237.69239445892163 91.80447941832244,241.84625191055238 91.12151937000453,244.89240925433114 91.80447941832244,248.49240816570818 90.89386602025479,251.5385566733312 90.43855932168663,255.1385451410897 89.5279459245503,257.90776318963617 89.5279459245503,259.84621383203194 90.43855932168663,262.8923472412862 92.03213276807219,265.10771445115097 96.12989305891097,266.21539725130424 99.31703995261341,267.0461590006016 102.27653349470347,266.21539725130424 105.23602703865618,265.9384766018484 107.2849071836099,263.7231101959478 108.65082728024572,261.50774164893664 109.5614406792447,257.6308415350504 109.33378732949495,254.58470112946816 110.2444007275626,250.7077893000096 110.2444007275626,247.1077938694507 110.01674737781286,243.50779278133996 109.78909402806312,238.80009051598608 110.2444007275626,235.47700073826127 110.92736077588052,234.09237857535481 110.2444007275626,231.32313173846342 107.96786723192781,228.83080672309734 105.00837368983775,226.06155352527276 102.9594935439527,225.23077691416256 99.77234665118158,225.78462802176364 96.35754640772939,225.78462802176364 94.5363196125254,226.61540443263948 93.39805286563933,229.66158202895895 91.80447941832244,232.4308308751788 91.57682606950402,235.47700073826127 90.89386602025479,239.07701444602571 90.2109059728682,242.95394595898688 89.7555992724374,245.4462556091603 89.0726392250508,248.49240816570818 89.0726392250508,251.81547906342894 88.16202582698315,255.1385451410897 87.70671912748367,257.6308415350504 87.93437247723341,260.67697789077647 89.0726392250508,263.1692682597786 92.03213276807219,265.6615559179336 95.67458635941148,266.49231786769815 99.77234665118158,266.76923845126294 103.41480024252087,266.21539725130424 105.91898708697408,264.2769519982394 108.65082728024572,262.0615839860402 109.78909402806312,257.90776318963617 110.2444007275626,255.1385451410897 110.69970742613077,252.09240142116323 110.92736077588052,249.3231763425283 111.38266747444868,245.4462556091603 111.61032082512975,243.23086938657798 111.83797417394817,240.18470983416773 112.06562752369791,237.41547036124393 112.29328087251633,234.36930307536386 111.61032082512975,231.6000565723516 110.47205407731235,229.1077318591997 108.19552058167756,226.61540443263948 105.69133373815566,225.23077691416256 102.9594935439527,224.4000000001397 100.68296004924923,224.95385130867362 96.81285310722888,225.50770248449408 94.08101291395724,227.16925520659424 92.71509281732142,230.76928196917288 91.12151937000453,235.20007637282833 90.2109059728682,237.9693185237702 89.98325262311846,240.18470983416773 89.7555992724374,243.23086938657798 89.98325262311846,246.27702489006333 90.2109059728682,249.6000990010798 89.98325262311846,252.64624603441916 89.7555992724374,255.96931090718135 90.2109059728682,259.2923709584866 91.57682606950402,262.3385051051155 94.08101291395724,264.00003111432306 96.81285310722888,266.76923845126294 100.68296004924923,266.76923845126294 102.9594935439527,266.49231786769815 106.37429378647357,264.83079366665334 108.4231739314273,262.8923472412862 109.5614406792447,259.56929241190664 110.01674737781286,256.800076372223 110.92736077588052,253.75393486046232 110.92736077588052,250.4308667758014 111.61032082512975,247.6616396890022 111.61032082512975,244.61548602650873 111.38266747444868,241.56932831485756 112.52093422133476,237.9693185237702 111.61032082512975,235.20007637282833 110.69970742613077,231.8769813736435 110.01674737781286,229.3846569606103 107.51256053335965,227.72310584550723 104.32541364058852,226.06155352527276 101.36592009756714,226.61540443263948 97.26815980672836,226.89232983626425 94.30866626370698,228.83080672309734 92.94274616613984,230.76928196917288 90.89386602025479,234.09237857535481 90.43855932168663,236.30777363479137 89.5279459245503,239.90778603730723 89.7555992724374,242.95394595898688 88.61733252555132,246.00010183011182 88.61733252555132,249.3231763425283 87.93437247723341,252.64624603441916 87.47906577866524,255.96931090718135 88.16202582698315,259.2923709584866 89.30029257386923,262.3385051051155 92.71509281732142,264.2769519982394 96.35754640772939,265.9384766018484 98.8617332521826,265.38463520118967 102.27653349470347,264.5538728488609 104.78072033915669,261.7846628341358 107.96786723192781,259.84621383203194 109.5614406792447,257.35391984693706 110.2444007275626,255.1385451410897 110.47205407731235,251.81547906342894 110.92736077588052,248.49240816570818 111.15501412469894,246.00010183011182 111.61032082512975,242.12317547295243 111.15501412469894,239.35393834323622 111.38266747444868,235.20007637282833 111.61032082512975,231.8769813736435 110.92736077588052,229.9385070647113 109.10613397974521,228.55388155416586 105.91898708697408,226.61540443263948 102.73184019327164,226.06155352527276 99.54469330050051,226.89232983626425 95.67458635941148,228.83080672309734 94.30866626370698,231.32313173846342 93.8533595642075,234.64622754161246 92.94274616613984,238.523166552186 92.71509281732142,241.2924046854023 91.80447941832244,244.61548602650873 91.12151937000453,248.21548537374474 90.89386602025479,251.5385566733312 89.0726392250508,254.03085698350333" stroke="#4DD2FF" stroke-dasharray="none" stroke-linecap="round" stroke-linejoin="round" stroke-width="0.5"><title>2013-09-29 10.5km</title><desc>9223370656443428807</desc></polyline><polyline fill="none" opacity="1" points="177.4633533526212,230.41523931804113 175.4404086433351,227.68104161159135 172.51837739627808,226.04052140074782 169.37157451547682,225.76710125035606 166.0,226.04052140074782 163.30274038854986,227.40762165863998 160.83025240991265,229.3215606319718 159.70639423839748,232.3291757463012 158.80730770155787,235.88362481584772 158.35776443220675,239.43806830001995 157.90822116378695,242.7190880975686 157.23390626069158,245.72668539732695 156.55959135759622,248.46086128987372 155.88527645450085,251.7418679993134 155.88527645450085,255.29628656315617 155.88527645450085,258.57728335657157 157.23390626069158,261.8582753909286 159.93116587307304,263.22535400046036 163.30274038854986,265.13926266669296 166.44954326935112,265.13926266669296 168.92203124705702,264.0456007702742 171.84406249318272,263.22535400046036 173.8670072024688,261.0380278278608 175.21563700865954,258.3038671386894 176.11472354643047,255.29628656315617 176.11472354643047,251.7418679993134 176.11472354643047,248.73427869705483 176.7890384485945,246.00010313582607 176.7890384485945,242.17225179541856 177.912896621041,238.8912312053144 177.23858171794564,237.25071912514977 176.3394951801747,234.51652968092822 175.21563700865954,230.68865890661255 173.417463934049,227.95446153078228 170.94497595634311,225.49368106527254 169.59634615015239,225.76710125035606 165.5504567315802,224.94684059894644 162.85319711919874,226.5873616025783 160.38070914149284,228.22788141667843 159.25685096997768,232.055756355403 157.90822116378695,233.6962722032331 157.23390626069158,238.6178126083687 156.55959135759622,240.80516046099365 156.33481972292066,244.9064319843892 156.33481972292066,247.09377375710756 156.11004808917642,249.28111341316253 156.11004808917642,253.38236956926994 154.7614182829857,255.56970314332284 155.2109615514055,261.0380278278608 156.11004808917642,263.4987696236931 161.504567313008,265.4126780577935 163.75228365696967,265.95950874197297 167.1238581724465,265.95950874197297 171.16974759008735,264.86584724183194 174.09177883714437,262.1316911787726 176.11472354643047,258.0304508882109 176.7890384485945,253.65578638156876 175.21563700865954,250.92161676776595 173.64223556779325,249.55453072185628 175.4404086433351,245.17984982184134 177.01381008327007,239.98490526387468 177.4633533526212,238.07097531366162 176.7890384485945,235.06336783478037 177.912896621041,231.235497985268 175.21563700865954,228.50130126997828 172.51837739627808,225.49368106527254 170.72020432166755,224.94684059894644 165.32568509690464,225.49368106527254 163.75228365696967,225.76710125035606 160.83025240991265,228.22788141667843 158.35776443220675,230.41523931804113 157.68344952911139,232.87601442844607 157.23390626069158,236.43046263838187 156.11004808917642,241.07857879367657 156.55959135759622,244.35959621169604 156.78436299134046,246.54693851224147 156.11004808917642,250.92161676776595 156.55959135759622,254.20261990698054 155.2109615514055,258.3038671386894 155.88527645450085,261.5848595700227 156.11004808917642,263.4987696236931 159.93116587307304,264.86584724183194 163.5275120222941,267.3265848727897 165.77522836532444,266.77975451922975 168.69725961238146,265.95950874197297 171.61929085943848,264.86584724183194 174.54132210556418,261.5848595700227 174.76609374023974,259.3975318111479 175.4404086433351,256.66336913825944 176.3394951801747,253.92920316033997 177.4633533526212,250.92161676776595 176.56426681485027,247.3671913293656 175.4404086433351,243.53934230282903 175.66518027707934,240.5317420954816 176.11472354643047,237.25071912514977 177.23858171794564,236.43046263838187 178.13766825478524,232.87601442844607 176.7890384485945,230.14181969570927 177.912896621041,230.41523931804113 177.4633533526212,227.68104161159135 174.31655047088861,226.31394151831046 170.94497595634311,225.22026084875688 167.79817307554185,224.6734203158412 163.75228365696967,225.76710125035606 160.60548077523708,228.22788141667843 157.90822116378695,230.14181969570927 157.68344952911139,233.42285297834314 155.43573318608105,237.25071912514977 154.08710337989032,241.62541536078788 155.6605048198253,241.62541536078788 156.33481972292066,243.2659242679365 155.88527645450085,246.8203561506234 155.2109615514055,250.92161676776595 152.96324520744383,253.10895272321068 154.98618991766125,256.11653620772995 155.2109615514055,258.57728335657157 156.78436299134046,262.9519383441657 158.80730770155787,265.4126780577935 161.504567313008,266.23292403365485 165.32568509690464,266.23292403365485 168.92203124705702,267.60000000009313 172.51837739627808,266.23292403365485 173.64223556779325,264.0456007702742 173.8670072024688,260.49119595531374 175.21563700865954,259.3975318111479 175.4404086433351,255.29628656315617 177.4633533526212,248.73427869705483 177.4633533526212,244.08617827459238 175.4404086433351,241.35199709353037 176.11472354643047,238.07097531366162 176.56426681485027,235.61020585522056 177.01381008327007,232.055756355403 176.7890384485945,230.14181969570927 175.21563700865954,227.1342016728595 171.61929085943848,225.76710125035606 168.24771634396166,224.4000000001397 165.5504567315802,225.76710125035606 163.0779687538743,226.8607816544827 159.93116587307304,229.04814087809063 157.00913462601602,232.055756355403 155.2109615514055,235.61020585522056 156.33481972292066,239.16464976919815 156.55959135759622,243.53934230282903 156.55959135759622,246.8203561506234 155.88527645450085,250.64819962508045 154.31187501456589,253.10895272321068 155.88527645450085,256.66336913825944 155.2109615514055,259.3975318111479 156.33481972292066,262.4051069342531 157.23390626069158,264.86584724183194 161.27979567926377,264.31901629362255 163.75228365696967,265.95950874197297 167.1238581724465,265.13926266669296 170.27066105324775,264.592431783909 172.06883412785828,263.4987696236931 174.54132210556418,259.6709478965495 176.7890384485945,257.4836182866711 176.7890384485945,254.20261990698054 176.7890384485945,252.83553584385663 176.11472354643047,251.195033878088 177.23858171794564,247.91402637632564 177.4633533526212,243.53934230282903 179.03675479255617,240.25832369620912 177.68812498636544,239.98490526387468 177.4633533526212,236.43046263838187 178.8119831578806,233.6962722032331 177.4633533526212,231.235497985268 176.11472354643047,227.1342016728595 172.74314903095365,224.6734203158412 169.37157451547682,226.04052140074782 167.1238581724465,226.31394151831046 162.6284254854545,226.04052140074782" stroke="#4DD2FF" stroke-dasharray="none" stroke-linecap="round" stroke-linejoin="round" stroke-width="0.5"><title>2013-09-22 10.9km</title><desc>9223370657048162807</desc></polyline></svg>