<?xml version="1.0" encoding="utf-8" ?>
<svg baseProfile="full" height="300mm" version="1.1" viewBox="0,0,200,300" width="200mm" xmlns="http://www.w3.org/2000/svg" xmlns:ev="http://www.w3.org/2001/xml-events" xmlns:xlink="http://www.w3.org/1999/xlink"><defs /><rect fill="#222222" height="300" width="200" x="0" y="0" /><text fill="#FFFFFF" style="font-size:12px; font-family:Arial; font-weight:bold;" x="10" y="20">Over 10km Runs</text><text fill="#FFFFFF" style="font-size:4px; font-family:Arial" x="10" y="280">Runner</text><text fill="#FFFFFF" style="font-size:9px; font-family:Arial" x="10" y="290">keep</text><text fill="#FFFFFF" style="font-size:4px; font-family:Arial" x="65" y="280">SPECIAL TRACKS</text><rect fill="yellow" height="2.6" width="2.6" x="65" y="283" /><text fill="#FFFFFF" style="font-size:3px; font-family:Arial" x="70" y="285.5">Over 20.0 km</text><rect fill="red" height="2.6" width="2.6" x="65" y="287" /><text fill="#FFFFFF" style="font-size:3px; font-family:Arial" x="70" y="289.5">Over 40.0 km</text><text fill="#FFFFFF" style="font-size:4px; font-family:Arial" x="120" y="280">STATISTICS</text><text fill="#FFFFFF" style="font-size:3px; font-family:Arial" x="120" y="285">Number: 15</text><text fill="#FFFFFF" style="font-size:3px; font-family:Arial" x="120" y="290">Weekly: 1.2</text><text fill="#FFFFFF" style="font-size:3px; font-family:Arial" x="141" y="285">Total: 163.6 km</text><text fill="#FFFFFF" style="font-size:3px; font-family:Arial" x="141" y="290">Avg: 10.9 km</text><text fill="#FFFFFF" style="font-size:3px; font-family:Arial" x="167" y="285">Min: 10.2 km</text><text fill="#FFFFFF" style="font-size:3px; font-family:Arial" x="167" y="290">Max: 14.0 km</text><polyline fill="none" opacity="1" points="26.76175463933032,75.59999999999854 26.68378431230667,75.40373757971975 26.60581398528302,75.18566767122684 26.54517039755592,74.91307946752931 26.579823876265436,74.58597242333781 26.614477354916744,74.29157496443077 26.614477354916744,73.9753691053993 26.59715061559109,73.60464343717467 26.614477354916744,73.31024244410946 26.614477354916744,73.00493659065978 26.631804094300605,72.7214372771341 26.64046746393433,72.42703310319484 26.779081378685078,72.19805134597118 27.02165572953527,72.13262786893756 27.238239971309667,72.11082003163028 27.246903341001598,71.93635712368268 27.31621029836242,71.78370177376928 27.31621029836242,71.53291022292979 27.32487366805435,71.18398156779585 27.134279535210226,70.93318817691033 26.85705170573783,70.79143505038519 26.891705184418242,70.45340737201332 26.94368540245341,70.09356992025278 26.995665620517684,69.78825205226894 27.03031909916899,69.43931594950845 27.09096268689609,69.10128267947584 27.125616165605607,68.82867418534443 27.14294290493126,68.59968234763073 27.229576601588633,68.51244719309761 27.255566710664425,68.32707218054566 27.212249862292083,68.18531453434116 27.264230080327252,68.06536556478386 27.32487366805435,67.82546709749295 27.394180625415174,67.55285434822872 27.454824213084066,67.29114525346813 27.550121279491577,66.95310309916385 27.619428236881504,66.66958279495157 27.70606193356798,66.36425213664916 27.870665957365418,66.24430049455259 28.035269981104648,66.32063337809086 28.260517592570977,66.34244276028767 28.511755312996684,66.17887225191953 28.650369227776537,65.94987299029162 28.77165640317253,65.66634920595243 28.93626042691176,65.37191961969074 29.1008644507383,65.06658411363605 29.265468474448426,64.79396216212626 29.430072498245863,64.4995294331311 29.568686412996612,64.24871553108824 29.724627067073015,63.93247081832669 29.897894460504176,63.59441477220389 30.11447870230768,63.22364201697201 30.331062944082078,62.82015210732061 30.53032044650172,62.48209146020963 30.71225120962481,62.165839911402145 30.902845342381625,61.882302999649255 31.07611273584189,61.609670426019875 31.206063280871604,61.402469061809825 31.379330674302764,61.12983488748432 31.595914916164475,60.81357810579357 31.69121198254288,60.508225569057686 31.8211625276017,60.19196638185531 32.020420030050445,59.908422621716454 32.280321120197186,59.70121694407135 32.51423210132634,59.47219953126478 32.65284601607709,59.221370199884404 32.80012330049067,59.025068446979276 32.904083736561006,58.89420034975046 33.00804417260224,58.65427496047778 33.10334123898065,58.4252546136413 33.21596504471381,58.294385555855115 33.3978958078078,58.25076249000995 33.510519613540964,58.25076249000995 33.64913352829171,58.130798938880616 33.7964108127635,57.945400377124315 33.96967820613645,57.78181306154147 34.16027233895147,57.50916680784576 34.34220310204546,57.291049149935134 34.281559514289256,57.05111905378726 34.27289614465553,56.767564395551744 34.34220310204546,56.494914757844526 34.55012397415703,56.25498232415703 34.74938147660578,56.02595525296783 34.879332021664595,55.75330314080202 35.00928256675252,55.41521325829672 35.199876699538436,55.16437147375109 35.468441159348004,54.92443513323087 35.64170855275006,54.70631057594437 35.78032246750081,54.40093521755625 35.91027301258873,54.09555871790508 36.05755029700231,53.801087440922856 36.360768235550495,53.68111735716957 36.58601584698772,53.593866276569315 36.7332931314304,53.288486760648084 36.81992682811688,52.96129315569124 36.871907046152046,52.68863081734162 36.94121400354197,52.38324791825289 37.02784770025755,52.0124242920574 37.12314476663596,51.70703886562114 37.12314476663596,51.59797236529994 37.20111509365961,51.34711886203149 37.24443194203195,50.9871972729743 37.33972900841036,50.62727409846411 37.435026074788766,50.22372198704397 37.51299640184152,49.85288855976978 37.57363998956862,49.51477426207566 37.660273686255096,49.17665856522217 37.73824401330785,48.827634442728595 37.8162143403315,48.4567946788884 37.86819455839577,48.08595323179179 37.95482825508225,47.74783162189851 38.02413521244307,47.42061582830502 38.11943227885058,47.017047878034646 38.17141249688575,46.73345839604008 38.24071945424657,46.373516482104606 38.29269967228174,46.12264693758334 38.36200662967167,45.937221126987424 38.396660108322976,45.72998001706583 38.448640326358145,45.43547858814418 38.51794728374807,45.0755309555243 38.604580980492756,44.70467416021711 38.665224568132544,44.36653855599434 38.71720478616771,44.2029240515476 38.72586815588875,44.028401552270225 38.777848373923916,43.74480169580784 38.85581870091846,43.395754367091286 38.91646228864556,43.01398214364599 38.98576924603549,42.69765523551905 39.05507620339631,42.479498033491836 39.08972968207672,42.326787645455624 39.11571979109431,42.184984886633174 39.1763633787923,42.09772152813093 39.167700009129476,41.95591837169195 39.15903663946665,41.68321930208913 39.1763633787923,41.432335354089446 39.22834359682747,41.170542586856754 39.2976505542174,40.98510553579399 39.392947620595805,40.88693280890584 39.68750218942296,40.963289384453674 39.98205675825011,41.083278144695214 40.267947957414435,41.15963453667791 40.406561872165184,41.11600232141063 40.441215350845596,40.90874898065522 40.43255198118277,40.63604641536949 40.44987872050842,40.319710299132566 40.46720545986318,39.927015485103766 40.49319556885166,39.54522705047566 40.56250252624159,39.23979501795111 40.44987872050842,39.06526191523881 40.19864100002451,39.06526191523881 39.89542306153453,39.1088952258724 39.61819523203303,39.174345148137945 39.64418534107972,38.91254514441971 39.68750218942296,38.58529395986261 39.76547251647571,38.25804146425071 39.81745273451088,37.94169613890699 39.91274980086018,37.58171548530663 39.98205675825011,37.24355039591319 40.03403697628528,36.91629252475104 40.06002708530286,36.63266797584947 40.1033439336461,36.37085982586723 40.12067067300086,36.185411878541345 40.11200730333803,36.09814211057528 40.267947957414435,35.97814602740982 40.46720545986318,35.89087603799999 40.39789850250236,35.73815333218954 40.27661132707726,35.61815672015655 40.293938066402916,35.432707063919224 40.31126480578678,35.33452766368282 40.49319556885166,35.36725414356624 40.68378970163758,35.36725414356624 40.83973035571398,35.39998061026563 40.987007640185766,35.3563453183815 41.15161166389589,35.312710003163374 41.28156220901292,35.22543930279062 41.298888948367676,34.952717763102555 41.342205796710914,34.46181669699581 41.39418601474608,34.12363869068213 41.42017612376367,33.80727735264372 41.42017612376367,33.65455075085629 41.43750286308932,33.4472784774116 41.43750286308932,33.28364210049767 41.26423546965816,33.22909656867705 41.01299774914514,33.20727834574063 40.84839372540591,33.13091451959917 40.67512633197475,33.07636888575507 40.363245023821946,33.02182321550936 40.042700345948106,32.945459215967276 39.74814577712095,32.880004302402085 39.47091794764856,32.80364017027023 39.10705642143148,32.76000349127571 38.838491961563705,32.65091169176594 38.673887937824475,32.55272894765949 38.43131358703249,32.57454734545172 38.110768909187755,32.55272894765949 37.8162143403315,32.55272894765949 37.50433303214959,32.520001340060844 37.19245172399678,32.48727371937275 36.89789715516963,32.454546085537004 36.577352477324894,32.421818438582704 36.47339204122545,32.400000000001455 36.42141182319028,32.520001340060844 36.35210486582946,32.72727596670302 36.308788017515326,32.923640917259036 36.26547116917209,33.141823641970404 36.24814442975912,33.34909669060289 36.22215432074154,33.54546014620428 36.12685725436313,33.74182312971243 36.04888692733948,33.88364054642443 35.95358986093197,34.10182070670271 35.91893638228066,34.2436374983663 35.84096605522791,34.43999880334013 35.7456689888495,34.58181500783394 35.66769866179675,34.789084402240405 35.58106496508117,34.963626642165764 35.49443126836559,35.15998621632025 35.364480723277666,35.345436491763394 35.3125005052425,35.60724792852125 35.191213329846505,35.879967282780854 35.06126278478769,36.185411878541345 34.90532213071128,36.51267267794901 34.758044846268604,36.818114907735435 34.61076756188413,37.145373172206746 34.489480386459036,37.40717883974867 34.34220310204546,37.72352623516781 34.177599078277126,38.01805546753894 34.05631190285203,38.29076677279954 33.93502472745604,38.530751968304685 33.86571777012432,38.683469452895224 33.822400921722874,38.74891971603938 33.70111374632688,38.81436992675299 33.6751236373093,39.07617024508363 33.60581667991937,39.370694600293064 33.432549286517315,39.654309642413864 33.32858885047608,39.88338261144963 33.25928189305705,40.05791396620771 33.40655917749973,40.14517950373556 33.66646026764647,40.156087689356355 33.96967820613645,40.177904056268744 34.30754962336505,40.22153677260212 34.619430931517854,40.26516946563788 34.93997560936259,40.30880213533237 35.26052028720733,40.3524347817729 35.54641148640076,40.396067404872156 35.78898583719274,40.40697555699444 35.927599751914386,40.30880213533237 35.970916600344935,40.07973035932082 36.00557007896714,39.87247438936902 36.02289681829279,39.839749714512436 36.1788374723983,39.927015485103766 36.204827581415884,40.10154674661317 36.13552062405506,40.47242443922005 36.07487703632796,40.85420854043332 36.00557007896714,41.181450635580404 35.927599751914386,41.58504741422803 35.85829279455356,41.923194531394984 35.78032246750081,42.2504323443718 35.7456689888495,42.52312952050852 35.65037192244199,42.861272754729725 35.65903529210482,43.16669124710461 35.63304518308723,43.48301633907249 35.407797571620904,43.74480169580784 35.33849061426008,43.99567854216002 35.2518569175445,44.312000424266444 35.2518569175445,44.57378312457149 35.225866808526916,44.85738010331261 35.39913420195808,44.999178223522904 35.32982724456815,45.3373112092595 35.28651039622491,45.6972576885164 35.182549960154574,46.12264693758334 35.11324300279375,46.460775273502804 35.052599415095756,46.84253139021166 35.035272675741,47.1697494990658 35.026609306107275,47.507873501381255 35.017945936415344,47.84599610442092 35.017945936415344,48.19502442035446 34.99195582739776,48.55495830956352 34.98329245773493,48.89307657927566 34.94863897905452,49.2202864756764 34.92264887003694,49.51477426207566 34.86200528230984,49.86379544928059 34.801361694640946,50.22372198704397 34.740718106913846,50.51820615679026 34.792698324949015,50.867223057633964 34.73205473728012,51.19442504818289 34.65408441022737,51.55434572440572 34.46349027744145,51.84882509840827 34.26423277502181,52.08877047031274 33.995668315154035,52.29599545175006 33.77042070374591,52.50321990759403 33.519182983232895,52.721350346007966 33.31992548078415,52.950386679629446 33.233291784039466,53.09217075489141 33.112004608643474,53.21214170334133 32.98205406361376,53.419363835775584 32.895420366869075,53.65930459577794 32.78279656113591,53.97558906647464 32.60952916770475,54.30277860995557 32.444925143936416,54.60815433523385 32.28898448986001,54.88081026836153 32.22834090216202,55.13165292335907 32.22834090216202,55.360682501021074 32.40160829559318,55.50246239412081 32.332301338232355,55.79692753987911 32.280321120197186,56.01504918593855 32.30631122921477,56.069579506496666 32.17636068412685,56.04776738264627 32.01175666038762,56.26588835915027 31.812499157938873,56.60397472207842 31.613241655461024,56.80028229097661 31.396657413686626,57.02930719192955 31.284033607924357,57.31286094193638 31.18873654154595,57.596413707993634 31.02413251780672,57.825436377708684 30.88551860305597,57.83634220311069 30.63428088260116,57.83634220311069 30.383043162117247,57.792718892778794 30.079825223598164,57.7600013947158 29.767943915445358,57.7600013947158 29.560023043304682,57.770907228848955 29.421409128583036,57.825436377708684 29.352102171164006,57.84724802705023 29.248141735151876,58.07626999379136 29.11819119003485,58.28347979157115 29.083537711354438,58.567029189754976 28.988240644946927,58.806954835148645 28.88428020887659,59.003257111988205 28.85829009988811,59.07959675897291 28.641705858084606,59.28680401274323 28.45111172532779,59.48310513690376 28.303834440914216,59.72302809279063 28.41645824664738,59.875705970705894 28.468438464653445,59.95204480268876 28.485765204008203,60.14834432891803 28.55507216139813,60.41007629714295 28.529082052380545,60.59546926738403 28.468438464653445,60.41007629714295 28.28650770158856,60.58456381018914 28.130567047483055,60.84629438135744 27.991953132703202,61.07530794345075 27.80135899997549,61.326131584683026" stroke="#4DD2FF" stroke-dasharray="none" stroke-linecap="round" stroke-linejoin="round" stroke-width="0.5"><title>2017-12-17 14.0km</title><desc>9223370523376934807</desc></polyline><polyline fill="none" opacity="1" points="100.67480095493374,32.40000000000873 100.67480095493374,32.705711840855656 100.68829697399633,32.97745508349908 100.66130493587116,33.33411720955337 100.66130493587116,33.690778336982476 100.55333678307943,34.013470877340296 100.58032882126281,34.18330872821389 100.7287850313005,34.94757625438797 100.63431289762957,35.202331077467534 100.79626512678806,35.50803619255021 100.8772412413964,35.77977345674299 100.91772929864237,36.085477185974014 100.94472133688396,36.476097550053964 100.95821735594654,36.832749879860785 100.99870541325072,37.12146770115942 101.05268948967569,37.46113488837727 101.14716162334662,37.73286798597837 101.1876496806508,38.0555502865609 101.24163375707576,38.39521498301474 101.28212181437993,38.71789560574689 101.48456210078439,38.75186193951231 101.66001034906367,38.90471032947244 101.6195222918177,39.07454165874515 101.44407404353842,39.17644034768455 101.36309792898828,39.36325439896609 101.45757006260101,39.618000391012174 101.59253025363432,39.940677916267305 101.71399442554684,40.24637165987224 101.78147452097619,40.55206466988602 101.92993073107209,40.840774061347474 102.07838694110978,41.1294827984384 102.25383518938906,41.469139298496884 102.24033917032648,41.75784661152284 101.98391480749706,41.808794892946025 101.74098646367202,41.65594998751476 101.55204219627194,41.50310489874391 101.34960190980928,41.38422525844362 101.09317754692165,41.48612209975545 100.86374522227561,41.48612209975545 100.66130493587116,41.63896720894263 100.67480095493374,41.808794892946025 100.68829697399633,42.08051871648058 100.4453686302877,42.21638041084225 100.1484562100959,42.33525927456503 99.87853582814569,42.386207325107534 99.5681273888913,42.386207325107534 99.59511942707468,42.165432292444166 99.66259952262044,41.85974315402564 99.75707165629137,41.588018859620206 99.8515437899623,41.24836267651699 99.90552786632907,40.85775694636686 99.93251990457065,40.51809881615918 99.87853582814569,40.17843978025485 99.82455175172072,39.77084774163086 99.60861544613726,39.68593256951135 99.31170302606188,39.68593256951135 99.14975079684518,39.516102055305964 99.1227587586618,39.397220560669666 99.10926273954101,39.14247412713303 99.09576672047842,38.9216934726137 98.93381449131994,38.870744036423275 98.74487022391986,38.83677773435193 98.56942197564058,38.853760886529926 98.5289339183364,39.02359228377463 98.5424299374572,39.31230513942137 98.55592595651979,39.63498343899846 98.56942197564058,39.940677916267305 98.59641401388217,40.24637165987224 98.59641401388217,40.58603051461978 98.59641401388217,40.90870558778988 98.59641401388217,41.19741417095065 98.60991003288655,41.537070489895996 98.59641401388217,41.85974315402564 98.60991003288655,42.14844958175672 98.62340605206555,42.40319000405725 98.63690207112813,42.64094727196789 98.62340605206555,42.84473886266642 98.60991003288655,43.11646047644899 98.58291799476137,43.37119896306831 98.56942197564058,43.59197190600389 98.5424299374572,43.77877948206151 98.5289339183364,44.01653418256319 98.48844586109044,44.254288439347874 98.50194188015303,44.458077449235134 98.50194188015303,44.74677798837365 98.50194188015303,45.06944252261019 98.50194188015303,45.40908851788845 98.48844586109044,45.7317513746093 98.50194188015303,46.03743122193555 98.51543789927382,46.36009248722985 98.51543789927382,46.648788716076524 98.5289339183364,46.98843050071446 98.5289339183364,47.24316124500183 98.5289339183364,47.54883746574342 98.50194188015303,47.75262120550906 98.50194188015303,48.007350421728916 98.47494984196965,48.24509723074152 98.5289339183364,48.53378918800445 98.56942197564058,48.805498667861684 98.60991003288655,49.09418935528083 98.65039809019072,49.43382462061709 98.7043821666739,49.807422366706305 98.78535828122403,50.16403737505607 98.89332643401576,50.48668818916485 98.98779856762849,50.74141193887044 99.10926273954101,51.0810428129771 99.20373487327015,51.36972834405606 99.33869506418705,51.607468878573854 99.39267914061202,51.743320413384936 99.50064729340374,51.981060250720475 99.60861544613726,52.218799644426326 99.64910350344144,52.40559457112977 99.67609554168303,52.592389223966165 99.81105573265813,52.72823970853642 99.93251990457065,52.86409004830057 100.04048805730417,53.03390276925347 100.1484562100959,53.203715263909544 100.26992038200842,53.424471168546006 100.37788853474194,53.62824551030644 100.56683280214202,53.78107605273544 100.75577706954209,54.03579321608413 100.93122531782137,54.290509870115784 101.09317754692165,54.52824495447567 101.25512977619655,54.765979595307726 101.32260987168411,54.91880877299991 101.44407404353842,55.13956170604797 101.6195222918177,55.39427615351451 101.79497054003878,55.632009178298176 101.98391480749706,55.954646145459265 102.10537897935137,56.15841644060856 102.26733120845165,56.413128851228976 102.41578741860576,56.66784075261967 102.59123566688504,56.97349436223158 102.76668391516432,57.26216654245218 102.9421321634436,57.56781872631109 103.13107643078547,57.85648956007208 103.30652467900654,58.09421799091797 103.50896496552741,58.416848723296425 103.6574211755651,58.68853712746932 103.87335748114856,59.028146818003734 104.06230174854863,59.282853491880815 104.21075795864454,59.57152044013492 104.34571814956143,59.82622602785705 104.50767037877813,60.063950783674954 104.66962260799482,60.31865538703278 104.8450708562159,60.59033973609621 104.96653502807021,60.81108284316724 105.14198327634949,61.048805761529366 105.33092754374957,61.32048855381436 105.49287977290805,61.5921707667876 105.64133598300396,61.81291213830991 105.80328821216244,62.13553345495893 105.97873646049993,62.44117394887144 106.18117674690438,62.7637936748215 106.32963295700029,63.03547281050123 106.51857722440036,63.34111114576808 106.7480095490464,63.680708436266286 106.90996177820489,63.93540581020352 107.05841798824258,64.17312289989786 107.22037021745928,64.44479903082538 107.40931448480114,64.75043398575508 107.57126671395963,65.07304786516761 107.7602109813597,65.39566092779569 107.90866719151381,65.68431402827264 108.0571234014933,65.97296647497569 108.16509155434323,66.26161826775933 108.30005174526013,66.61818722674798 108.3675318408059,66.90683755801001 108.39452387898928,67.05965217461926 108.27305970707675,67.21246660793258 108.23257164977258,67.29736343612603 108.32704378355993,67.21246660793258 108.48899601266021,67.28038407502754 108.55647610820597,67.50111559308425 108.6509482418187,67.75580533112225 108.75891639466863,68.06143234488263 108.88038056652294,68.40101705603593 109.00184473837726,68.74060086224927 109.12330891028978,69.08018376356631 109.20428502489813,69.3348703457159 109.28526113950647,69.58955641881039 109.42022133048158,69.89517903472006 109.5281894832151,70.16684296677704 109.63615763600683,70.43850631978421 109.71713375061518,70.69319018733222 109.75762180786114,70.9308946710953 109.85209394159028,71.2025563953357 109.9600620943238,71.50817514290975 110.06803024717374,71.81379315756203 110.16250238084467,72.119410439278 110.2569745145156,72.3910696299863 110.33795062906574,72.64574959533638 110.45941480097827,72.95136488194112 110.56738295371179,73.20604372763773 110.6888471256243,73.52863620153221 110.79681527841603,73.83424937092059 110.93177546939114,74.1398618073872 111.02624760306207,74.37755986249249 111.10722371767042,74.56432230901555 111.20169585139956,74.85295464264345 111.35015206143726,75.05669471983856 111.37714409962064,75.17554294776346 111.39064011874143,75.36230422493827 111.33665604237467,75.58302174504206 111.16120779409539,75.53208696670481 110.98575954581611,75.29439106489008 110.81031129753683,75.03971639249357 110.59437499201158,74.768062847681 110.35144664818654,74.46245191757043 110.06803024717374,74.17381869957899 109.78461384610273,73.91914178790466 109.54168550227769,73.6814428778307 109.29875715856906,73.42676498218498 109.0828208529856,73.17208657758601 108.83989250916056,72.95136488194112 108.61046018457273,72.73064280403196 108.31354776438093,72.42502698808676 108.0571234014933,72.18732529126282 107.84118709590985,71.9666018900316 107.53077865665546,71.67796301929047 107.27435429382604,71.45723873586394 106.97744187375065,71.28745056540356 106.68052945355885,71.15161986617022 106.32963295700029,71.06672560556035 105.97873646049993,71.01578902211622 105.65483200206654,70.94787354579603 105.33092754374957,70.8629791495332 105.04751114267856,70.81204248465656 104.71011066524079,70.72714799783716 104.37271018774481,70.71016909369791 104.04880572942784,70.64225345452724 103.68441321380669,70.54037992787198 103.49546894646483,70.48944313405082 103.30652467900654,70.43850631978421 103.11758041166468,70.40454843238695 102.91514012514381,70.37059053586563 102.69920381961856,70.35361158425803 102.4967635331559,70.31965367410157 102.32131528493483,70.26871679205215 102.13237101747654,70.23475885935477 101.91643471189309,70.20080091759155 101.70049840636784,70.11590602365322 101.55204219627194,70.08194805022504 101.28212181437993,69.98007407566183 100.94472133688396,69.8272629611456 100.60732085944619,69.7084097454208 100.21593630558345,69.5725773631275 99.98650398099562,69.5216401824 99.66259952262044,69.41976575992885 99.33869506418705,69.31789125603973 98.97430254862411,69.21601667071809 98.60991003288655,69.14810023523751 98.25901353632798,69.0122672556754 97.98909315443598,68.92737156995281 97.58421258151066,68.84247582763783 97.30079618043965,68.68966334901052 96.94989968388109,68.57080907226191 96.76095541648101,68.50289229286136 96.46404299634742,68.40101705603593 96.14013853797223,68.29914173766156 95.81623407965526,68.11237010925834 95.49232962128008,67.90861892963585 95.1684251629049,67.70486742421053 94.89850478095468,67.43319824364153 94.68256847542943,67.14454910461791 94.48012818896677,66.82194046968652 94.4261441125418,66.63516667611839 94.33167197881266,66.44839260882873 94.16971974971239,66.19370025773242 94.07524761598324,66.02390507413656 93.92679140594555,65.75223230988195 93.77833519584965,65.46357936317509 93.58939092850778,65.12398682406638 93.42743869929109,64.76741368396324 93.2519904510118,64.37688005242671 93.04955016460735,63.96936542158073 92.87410191626986,63.595809198508505 92.68515764886979,63.273191579050035 92.55019745795289,62.933593202527845 92.3747492096154,62.56003394293657 92.19930096139433,62.15251350165636 91.99686067493167,61.74499175703386 91.794420388469,61.354448862111894 91.61897214018973,60.946924565098016 91.41653185372707,60.59033973609621 91.22758758632699,60.19979330211936 91.05213933804771,59.82622602785705 90.87669108976843,59.452657658286626 90.70124284148915,59.09606864750094 90.57977866963483,58.73947863878857 90.40433042141376,58.46779034318752 90.28286624950124,58.1621403182362 90.1883941157721,57.839508940902306 90.06692994391778,57.49989608218311 89.97245781024685,57.12632089207182 89.8914816956385,56.73576384037733 89.82400160020916,56.34520559152588 89.78351354290498,56.00558874983108 89.72952946642181,55.598047344814404 89.70253742829664,55.25842851154448 89.66204937099246,54.833903696911875 89.6080652945675,54.51126389177807 89.6080652945675,54.13767993882357 89.58107325638412,53.79805721282901 89.55408121820074,53.39050874656823 89.58107325638412,53.03390276925347 89.5945692754467,52.694277101007174 89.5945692754467,52.33766917491448 89.56757723726332,51.964078848439385 89.4731051036506,51.5565245156904 89.40562500810483,51.19991340499837 89.40562500810483,50.87726439717517 89.37863296986325,50.46970658772625 89.35164093173807,50.147055730602005 89.3111528744339,49.82440405638772 89.24367277894635,49.43382462061709 89.29765685531311,49.02626219356898 89.37863296986325,48.65266215673182 89.37863296986325,48.34698858445336 89.37863296986325,48.07527812672197 89.41912102722563,47.871494903127314 89.39212898904225,47.66771135351155 89.35164093173807,47.39599944704969 89.32464889349649,47.09032285955618 89.28416083625052,46.7506813465734 89.25716879806714,46.411038928097696 89.25716879806714,46.12234216045181 89.18968870252138,45.7317513746093 89.13570462615462,45.32417710397567 89.12220860703383,44.93358387092303 89.09521656890865,44.59393660791102 89.05472851154627,44.27127086929977 89.0142404543003,43.880674408064806 88.97375239699613,43.64291945393779 88.97375239699613,43.35421641310677 89.00074443517951,42.99758234174806 88.98724841605872,42.65792991696799 88.94676035875455,42.318276586564025 88.91976832057117,42.02957054370199 88.85228822508361,41.672932763860445 88.85228822508361,41.33327680718503 88.8657842442044,41.02758567185083 88.89277628238779,40.65396217688976 88.82529618684202,40.24637165987224 88.79830414865864,39.923694908982725 88.75781609141268,39.550068176264176 88.78480812959606,39.31230513942137 88.79830414865864,39.15945723855111 88.78480812959606,38.93867661349941 88.75781609141268,38.68392926287197 88.75781609141268,38.37823176973325 88.67683997680433,38.08951679695747 88.62285590043757,37.715884684366756 88.59586386219598,37.35923482730868" stroke="#4DD2FF" stroke-dasharray="none" stroke-linecap="round" stroke-linejoin="round" stroke-width="0.5"><title>2017-11-19 11.8km</title><desc>9223370525802103807</desc></polyline><polyline fill="none" opacity="0.5" points="179.8947368422523,68.82740977156209 179.01052631554194,68.00368297297973 177.99999999976717,67.92879866878502 177.1789473684039,67.8539143561502 176.16842105262913,67.55437702214113 175.34736842103302,67.70414570585126 174.4631578947883,67.62926136807073 173.4526315787807,67.70414570585126 172.568421052536,67.47949266777141 171.62105263164267,67.62926136807073 170.61052631563507,67.77903003501706 169.53684210497886,67.40460830519442 168.65263157873414,67.25483955495292 167.89473684178665,67.10507077141665 167.01052631577477,67.10507077141665 166.18947368417867,66.80553310457617 165.2421052630525,66.80553310457617 164.3578947368078,66.65576422092272 163.5999999998603,66.88041753368452 162.27368421060964,66.28134186659008 161.19999999995343,66.13157286652131 160.18947368394583,66.056688354176 159.05263157887384,66.13157286652131 158.61052631563507,66.20645737083396 157.41052631568164,66.5059953040327 155.89473684201948,65.83203476679046 154.8210526315961,64.9334196675918 153.87368421023712,65.15807355463039 152.79999999981374,64.78365036798641 151.85263157915324,64.63388103467878 151.09473684220575,64.78365036798641 150.33684210525826,64.55899635574315 149.57894736831076,64.25945755641442 148.63157894741744,64.33434226881946 147.81052631582133,64.70876570552355 146.4210526314564,64.25945755641442 145.66315789474174,63.810149107768666 145.28421052615158,62.986416172992904 144.77894736849703,62.16268223093357 144.7157894736156,60.96452197158942 144.84210526314564,59.91612999577774 144.84210526314564,58.717965739546344 144.7157894736156,57.66957026696764 144.7157894736156,56.24674522940768 144.5263157892041,55.497888739046175 144.39999999990687,54.37460244237445 144.65263157896698,53.32620020856848 144.65263157896698,52.427568423503544 144.90526315779425,51.67870768660214 144.7157894736156,50.70518748374889 145.03157894709148,49.656779537850525 144.9684210526757,48.533483499020804 145.15789473685436,47.85950497619342 145.22105263150297,46.5115459075314 145.15789473685436,45.313357803504914 145.22105263150297,44.26494146394543 145.28421052615158,43.44118462357437 145.47368421056308,42.467652513238136 145.66315789474174,41.419231743668206 145.47368421056308,40.370809341722634 145.47368421056308,39.62193519814173 145.3473684208002,38.72328512684908 145.47368421056308,39.62193519814173 145.47368421056308,40.370809341722634 145.66315789474174,41.419231743668206 145.47368421056308,42.467652513238136 145.28421052615158,43.44118462357437 145.22105263150297,44.26494146394543 145.15789473685436,45.313357803504914 145.22105263150297,46.5115459075314 145.15789473685436,47.85950497619342 144.9684210526757,48.533483499020804 145.03157894709148,49.656779537850525 144.7157894736156,50.70518748374889 144.90526315779425,51.67870768660214 144.65263157896698,52.427568423503544 144.65263157896698,53.32620020856848 144.39999999990687,54.37460244237445 144.5263157892041,55.497888739046175 144.7157894736156,56.24674522940768 144.7157894736156,57.66957026696764 144.84210526314564,58.717965739546344 144.84210526314564,59.91612999577774 144.7157894736156,60.96452197158942 144.77894736849703,62.16268223093357 145.28421052615158,62.986416172992904 145.66315789474174,63.810149107768666 146.4210526314564,64.25945755641442 147.81052631582133,64.70876570552355 148.63157894741744,64.33434226881946 149.57894736831076,64.25945755641442 150.33684210525826,64.55899635574315 151.09473684220575,64.78365036798641 151.85263157915324,64.63388103467878 152.79999999981374,64.78365036798641 153.87368421023712,65.15807355463039 154.8210526315961,64.9334196675918 155.89473684201948,65.83203476679046 157.41052631568164,66.5059953040327 158.61052631563507,66.20645737083396 159.05263157887384,66.13157286652131 160.18947368394583,66.056688354176 161.19999999995343,66.13157286652131 162.27368421060964,66.28134186659008 163.5999999998603,66.88041753368452 164.3578947368078,66.65576422092272 165.2421052630525,66.80553310457617 166.18947368417867,66.80553310457617 167.01052631577477,67.10507077141665 167.89473684178665,67.10507077141665 168.65263157873414,67.25483955495292 169.53684210497886,67.40460830519442 170.61052631563507,67.77903003501706 171.62105263164267,67.62926136807073 172.568421052536,67.47949266777141 173.4526315787807,67.70414570585126 174.4631578947883,67.62926136807073 175.34736842103302,67.70414570585126 176.16842105262913,67.55437702214113 177.1789473684039,67.8539143561502 177.99999999976717,67.92879866878502 179.01052631554194,68.00368297297973 179.8947368422523,68.82740977156209 180.84210526337847,69.05206235981314 181.66315789474174,69.05206235981314 182.54736842098646,69.05206235981314 183.36842105258256,69.20183071040083 184.50526315765455,69.27671487315092 185.51578947366215,69.20183071040083 186.52631578943692,69.20183071040083 187.5999999998603,69.05206235981314" stroke="#4DD2FF" stroke-dasharray="1,0.5" stroke-linecap="round" stroke-linejoin="round" stroke-width="0.5"><title>2014-03-22 10.5km</title><desc>9223370641410674807</desc></polyline><polyline fill="none" opacity="1" points="55.59999999997672,100.55737674404372 55.451205510878935,100.5332317623106 55.32225028704852,100.52115926925762 55.21313432836905,100.58152171991969 55.074259471846744,100.55737674404372 54.9552238805918,100.5332317623106 54.8163490241277,100.55737674404372 54.677474167605396,100.5332317623106 54.57827784155961,100.46079678199021 54.469161882880144,100.4487242801697 54.34020665899152,100.46079678199021 54.211251435102895,100.49701427870605 54.06245694600511,100.49701427870605 53.94342135475017,100.50908677470579 53.81446613086155,100.46079678199021 53.65575200918829,100.47286928238464 53.54663605050882,100.48494178127294 53.38792192877736,100.48494178127294 53.24904707231326,100.48494178127294 53.139931113692,100.48494178127294 52.99113662453601,100.48494178127294 52.862181400705595,100.47286928238464 52.743145809392445,100.46079678199021 52.6241102181375,100.4487242801697 52.50507462682435,100.43665177686489 52.376119402993936,100.47286928238464 52.24716417910531,100.47286928238464 52.11820895521669,100.46079678199021 51.98925373132806,100.43665177686489 51.86029850743944,100.4125067658897 51.77102181396913,100.4125067658897 51.622227324929554,100.4125067658897 51.48335246840725,100.43665177686489 51.35439724451862,100.43665177686489 51.22544202063,100.42457927208307 51.0865671641659,100.38836174908647 50.96753157291096,100.4125067658897 50.83857634902233,100.4125067658897 50.679862227349076,100.40043425821932 50.57074626866961,100.3642167264261 50.412032146938145,100.35214421287674 50.26323765789857,100.38836174908647 50.10452353616711,100.38836174908647 49.985487944912165,100.40043425821932 49.836693455814384,100.38836174908647 49.717657864501234,100.38836174908647 49.578783008037135,100.40043425821932 49.469667049415875,100.38836174908647 49.34071182546904,100.37628923846933 49.211756601638626,100.40043425821932 49.082801377691794,100.38836174908647 48.95384615386138,100.38836174908647 48.84473019518191,100.4125067658897 48.70585533871781,100.42457927208307 48.59673938003834,100.42457927208307 48.46778415614972,100.42457927208307 48.29915040184278,100.4125067658897 48.19003444316331,100.4125067658897 48.03132032149006,100.4125067658897 47.942043628019746,100.4125067658897 47.81308840413112,100.4125067658897 47.6841331802425,100.40043425821932 47.55517795635387,100.4125067658897 47.416303099831566,100.37628923846933 47.29726750863483,100.37628923846933 47.14847301953705,100.3642167264261 47.00959816307295,100.3642167264261 46.88064293912612,100.35214421287674 46.77152698044665,100.35214421287674 46.63265212398255,100.38836174908647 46.473938002309296,100.4125067658897 46.354902411054354,100.38836174908647 46.21602755453205,100.37628923846933 46.08707233064342,100.3642167264261 45.96803673938848,100.34007169787219 45.80932261765702,100.3642167264261 45.690287026402075,100.34007169787219 45.54149253730429,100.32799918144156 45.402617680840194,100.32799918144156 45.26374282431789,100.3642167264261 45.13478760048747,100.35214421287674 44.97607347875601,100.31592666354845 44.827278989658225,100.29178162333847 44.6983237657696,100.27970910102158 44.559448909247294,100.24349152537616 44.420574052783195,100.25556405204406 44.30153846152825,100.26763657728588 44.17258323763963,100.29178162333847 44.053547646384686,100.3038541441856 43.92459242249606,100.35214421287674 43.79563719860744,100.35214421287674 43.65676234208513,100.34007169787219 43.527807118254714,100.32799918144156 43.418691159633454,100.31592666354845 43.28973593568662,100.34007169787219 43.160780711856205,100.32799918144156 43.041745120543055,100.35214421287674 42.892950631445274,100.31592666354845 42.74415614234749,100.34007169787219 42.63504018372623,100.31592666354845 42.496165327203926,100.31592666354845 42.3672101033153,100.31592666354845 42.25809414469404,100.27970910102158 42.119219288171735,100.25556405204406 41.97042479907395,100.26763657728588 41.82163030997617,100.27970910102158 41.67283582087839,100.25556405204406 41.55380022962345,100.26763657728588 41.41492537315935,100.26763657728588 41.26613088406157,100.25556405204406 41.137175660114735,100.25556405204406 41.00822043628432,100.26763657728588 40.85942594718654,100.27970910102158 40.72055109066423,100.3038541441856 40.60151549940929,100.26763657728588 40.47256027557887,100.23141899724578 40.333685419056565,100.24349152537616 40.20473019516794,100.21934646762384 40.06585533864563,100.23141899724578 39.9468197474489,100.25556405204406 39.82778415619396,100.23141899724578 39.68890929967165,100.2072739365758 39.54011481057387,100.2072739365758 39.42107921926072,100.2072739365758 39.27228473016294,100.18312887006323 39.17308840417536,100.15898379770078 39.04413318022853,100.15898379770078 38.90525832376443,100.15898379770078 38.80606199771864,100.18312887006323 38.65726750862086,100.17105633459869 38.518392652098555,100.18312887006323 38.38943742826814,100.21934646762384 38.24064293917036,100.21934646762384 38.10176808270626,100.23141899724578 38.002571756602265,100.1952014040653 37.86369690007996,100.1952014040653 37.73474167624954,100.1952014040653 37.62562571762828,100.17105633459869 37.46691159583861,100.1952014040653 37.33795637200819,100.18312887006323 37.17924225027673,100.17105633459869 37.050287026388105,100.18312887006323 36.95109070034232,100.17105633459869 36.70309988519875,100.18312887006323 36.41543053963687,100.17105633459869 36.19719862227794,100.13483871950302 35.96904707234353,100.13483871950302 35.522663605050184,100.1952014040653 35.244913892121986,100.12276617821772 35.066360505181365,100.0986210912015 34.71917336399201,100.12276617821772 34.550539609685075,100.07447599840089 34.39182548795361,100.0624034498178 34.094236509816255,100.11069363543356 33.80656716419617,100.14691125934041 33.54865671641892,100.25556405204406 33.340344431693666,100.23141899724578 29.422089552273974,100.01411324075161 29.193938002339564,100.01411324075161 28.94594718713779,99.97789556866337 28.618599311157595,100.0624034498178 28.360688863380346,99.98996812749101 28.092858783027623,99.94167788336927 27.73575200920459,99.94167788336927 24.521791044797283,99.90546018495661 24.28371986222919,99.9296053186772 23.96629161888268,99.90546018495661 23.73814006894827,99.86924247334537 23.48022962117102,99.77266184479959 23.172721010341775,99.85716989988578 22.84537313436158,99.86924247334537 22.617221584368963,99.88131504532794 20.04803673940478,99.84509732498555 19.710769230790902,99.84509732498555 19.542135476483963,99.84509732498555 19.373501722177025,99.86924247334537 19.323903559183236,99.80887959148822 19.175109070027247,99.8209521707613 18.83784156141337,99.83302474862285 18.708886337524746,99.76058925966936 18.441056257172022,99.73644408502878 18.222824339871295,99.76058925966936 18.014512055087835,99.76058925966936 17.865717565990053,99.72437149548932 16.804316877154633,99.74851667307667 16.496808266383596,99.76058925966936 16.258737083815504,99.67608112273592 16.030585533881094,99.72437149548932 15.67347876005806,99.71229890446557 15.435407577489968,99.74851667307667 15.207256027555559,99.79680701073812 14.939425947202835,99.73644408502878 14.66167623421643,99.71229890446557 14.423605051648337,99.70022631203756 14.106176808243617,99.67608112273592 13.91770378878573,99.67608112273592 13.699471871426795,99.68815371810342 13.223329506348819,99.71229890446557 13.02493685419904,99.60364551978273 13.005097588989884,99.88131504532794 13.034856486774515,100.0986210912015 13.074535017251037,100.27970910102158 12.985258323780727,100.48494178127294 12.866222732525785,100.50908677470579 12.886061997734942,100.1952014040653 12.677749713009689,100.2072739365758 12.50911595870275,100.38836174908647 12.439678530441597,100.5332317623106 12.41983926523244,100.72639145253925 12.469437428226229,101.06442001012329 12.489276693493593,101.31794067638111 12.608312284748536,101.68011193865095 12.618231917382218,101.92155871608702 12.677749713009689,102.19922178741399 12.707508610852528,102.44066730797931 12.76702640648,102.60967882452678 12.796785304264631,102.85112335129816 12.796785304264631,103.12878383439966 12.816624569473788,103.40644354444521 12.866222732525785,103.6961745915105 12.866222732525785,103.97383272179286 12.87614236510126,104.25149007896835" stroke="#4DD2FF" stroke-dasharray="none" stroke-linecap="round" stroke-linejoin="round" stroke-width="0.5"><title>2013-12-10 10.9km</title><desc>9223370650177580807</desc></polyline><polyline fill="none" opacity="1" points="88.2420135596767,116.01086677075364 89.4418080933392,118.34598722797818 91.84139716345817,121.84866367932409 94.72090404573828,123.01622136775404 98.56024655792862,123.60000000009313 102.15963016077876,122.43244259478524 104.07930141687393,119.80543636670336 106.71884939447045,117.47031732159667 108.39856174215674,113.38385355728678 108.39856174215674,110.17305574938655 109.59835627768189,106.08657963620499 110.07827409170568,102.87577212415636 110.79815081227571,99.08117592497729 111.7579864403233,94.70278828428127 111.7579864403233,92.07575188926421 111.51802753377706,87.69735154649243 110.31823299825191,84.19462555623613 108.87847955618054,81.85947207268327 105.51905485894531,80.98378893476911 103.11946578975767,80.4000000001397 99.28012327849865,80.6918944849167 96.16065748780966,82.44326065597124 93.04119169805199,85.36220145085827 90.64160262793303,88.57303225062788 90.40164372138679,92.36764496355318 89.92172590643167,95.87035909830593 89.4418080933392,99.37306815129705 88.72193137276918,102.58388032088988 88.72193137276918,106.37847101641819" stroke="#4DD2FF" stroke-dasharray="none" stroke-linecap="round" stroke-linejoin="round" stroke-width="0.5"><title>2013-11-30 10.3km</title><desc>9223370651086224807</desc></polyline><polyline fill="none" opacity="1" points="155.933951289393,118.37201812700368 156.83876465633512,119.47264688764699 158.874594733119,122.22421646025032 162.26764486078173,122.22421646025032 166.11310167238116,123.60000000009313 167.01791503932327,121.6739028126467 170.63716850895435,119.74780399515294 174.25642197672278,115.89560147118755 175.16123534552753,114.51981327589601 176.97086207941175,112.04339242749847 176.29225205350667,106.8153840135783 175.61364202853292,105.71474913298152 175.83984537050128,101.86252286075614 177.1970654213801,96.90965093066916 177.1970654213801,95.80901126144454 175.61364202853292,92.78224942437373 177.87567544635385,90.30580492829904 176.29225205350667,89.20516206463799 174.7088286606595,86.72871367656626 172.67299858573824,83.7019397658296 170.86337184999138,83.15161680453457 167.92272840626538,80.4000000001397 163.3986615696922,82.6012937091291 160.23181478399783,85.90323028201237 157.29117134027183,88.93000126630068 156.16015463043004,90.85612616012804 155.933951289393,95.25869122636504 157.5173746822402,99.38608824228868 155.70774794742465,102.96315960329957 154.80293457955122,105.43959032977 155.4815446054563,107.64085982413962 154.57673123851418,110.6676019039005 154.80293457955122,113.69433995871805 154.80293457955122,117.27138883504085 156.83876465633512,118.64717536675744 159.55320475902408,120.57327511627227 162.9462548866868,121.94905965286307 165.88689832948148,122.77452997583896 169.05374511517584,122.22421646025032 171.7681852169335,120.02296106843278 174.25642197672278,117.27138883504085 175.83984537050128,113.41918211965822 176.06604871153831,110.3924436995294 176.29225205350667,107.36570125445724 176.29225205350667,104.06379581429064 175.61364202853292,100.76188558526337 176.29225205350667,97.45997056690976 176.51845539640635,94.70837105903774 177.42326876241714,91.40644725854509 176.97086207941175,88.37967956834473 175.61364202853292,85.62806908367202 173.80401529371738,83.7019397658296 171.7681852169335,82.87645527347922 168.60133843217045,82.05097048147582 165.88689832948148,82.05097048147582 162.72005154378712,83.7019397658296 160.9104248099029,84.25226259441115 158.874594733119,86.45355257811025 157.29117134027183,88.37967956834473 157.06496799830347,91.40644725854509 156.16015463043004,95.25869122636504 156.61256131436676,98.28544977051206 155.933951289393,102.13768209633417 155.933951289393,104.06379581429064 155.4815446054563,108.46633533574641 154.12432455457747,112.31855043233372 154.57673123851418,116.17075901036151 155.933951289393,118.09686085442081 159.77940810006112,119.19748974777758 162.9462548866868,121.3987459379714 166.11310167238116,121.3987459379714 169.50615179911256,119.74780399515294 171.7681852169335,118.09686085442081 173.57781195174903,115.07012865296565 175.16123534552753,111.21791821252555 174.93503200262785,107.64085982413962 175.61364202853292,104.33895478351042 175.61364202853292,100.76188558526337 176.29225205350667,97.45997056690976 176.51845539640635,93.6077303243801" stroke="#4DD2FF" stroke-dasharray="none" stroke-linecap="round" stroke-linejoin="round" stroke-width="0.5"><title>2013-11-16 10.4km</title><desc>9223370652294258807</desc></polyline><polyline fill="none" opacity="1" points="22.0809423699975,163.6110163643025 23.053926666267216,166.5699022328481 24.51340311113745,168.64112021238543 28.648586370050907,170.71233643963933 33.51350785139948,171.60000000009313 37.89193718507886,171.30411218269728 38.86492148041725,169.52878452418372 41.5406282953918,167.1616789775435 41.78387437015772,163.01923876185901 41.78387437015772,160.35623777890578 42.75685866642743,155.32611690624617 44.70282725896686,150.29598569567315 44.94607333280146,146.1535169382114 45.43256548047066,142.89871513913386 45.18931940663606,138.75623386260122 45.43256548047066,135.7973143735435 44.21633510943502,132.5424988034647 40.081151850521564,129.879464663798 36.43246074113995,128.99178597261198 32.78376962989569,128.99178597261198 28.891832443885505,130.4712502779439 26.21612562984228,132.24660626379773 24.999895258806646,136.38909855671227 23.297172740101814,141.12336687929928 23.297172740101814,144.08227993012406 23.053926666267216,146.74529861821793 22.324188444763422,150.88776637450792 22.567434517666698,154.73433729959652 22.324188444763422,157.69323389837518 22.567434517666698,162.72334990650415 23.540418813936412,165.09045974630862 25.972879556007683,167.1616789775435 30.594554962590337,171.00822432967834 34.486492147669196,171.00822432967834 38.135183257982135,169.82467255694792 40.324397925287485,168.64112021238543 43.00010474026203,165.38634831481613 43.729842961765826,162.72334990650415 43.48659688793123,158.58090218016878 43.973089036531746,153.8466676226817 44.94607333280146,150.88776637450792 45.675811554305255,147.33708015549928 45.675811554305255,143.7863887862768 45.919057629071176,139.64390901243314 45.43256548047066,135.7973143735435 43.24335081502795,132.5424988034647 40.567644000053406,130.4712502779439 36.43246074113995,128.4000000001397 32.78376962989569,128.99178597261198 29.378324592486024,130.4712502779439 26.21612562984228,131.95071368920617 23.540418813936412,134.90963782859035 22.810680591501296,140.23569226590917 23.053926666267216,143.7863887862768 22.567434517666698,147.33708015549928 24.02691096253693,150.88776637450792 22.324188444763422,156.50967568787746 21.594450222328305,160.35623777890578 22.324188444763422,164.2027938242536 22.567434517666698,166.27401380729862 26.21612562984228,168.64112021238543 29.135078517720103,170.12056055432186 33.99999999906868,170.71233643963933 37.40544503647834,170.12056055432186 40.567644000053406,168.64112021238543 42.75685866642743,165.68223684746772 43.48659688793123,162.13157208892517 44.45958118420094,158.58090218016878 44.94607333280146,155.0302271207329 45.18931940663606,151.77543712500483 45.675811554305255,148.81653337273747 45.919057629071176,145.26584414974786 46.40554977674037,139.3480173314456 45.919057629071176,135.7973143735435 44.21633510943502,133.13428377383389 41.0541361477226,130.4712502779439 38.378429332748055,129.2876789055299 33.51350785139948,128.69589300476946 30.594554962590337,129.58357180282474 27.91884814761579,130.76714303181507 25.486387406475842,133.13428377383389 24.51340311113745,134.31785328662954" stroke="#4DD2FF" stroke-dasharray="none" stroke-linecap="round" stroke-linejoin="round" stroke-width="0.5"><title>2013-11-03 10.7km</title><desc>9223370653417861807</desc></polyline><polyline fill="none" opacity="1" points="100.35513926763088,130.12801503995433 97.51402512192726,130.41601742454804 94.67291097715497,132.14403100241907 92.77883488032967,135.3120526385028 91.35827780794352,138.1920686531812 91.59503732062876,143.37608870584518 90.88475878350437,145.96809450211003 90.1744802473113,149.712097896263 89.46420171111822,153.4560954067856 88.51716366223991,155.7600909504108 88.28040415141732,159.2160800890997 88.28040415141732,162.96006266516633 89.70096122287214,167.28003524802625 92.77883488032967,169.5840174248442 97.27726561017334,171.31200259411708 100.59189877938479,171.60000000009313 104.3800509730354,170.16001262003556 107.69468414224684,167.28003524802625 108.16820316575468,162.6720642137807 110.29903877526522,158.06408426584676 110.53579828795046,154.60809345706366 110.53579828795046,151.44009747868404 110.77255779877305,147.1200961722061 111.00931731145829,142.80008703446947 112.19311487209052,139.0560727783013 112.42987438477576,135.3120526385028 110.29903877526522,132.7200352489017 108.87848170287907,130.41601742454804 105.80060804635286,128.9760051521007 102.01245585177094,128.4000000001397 98.22430365905166,129.2640076763928 94.90967048984021,129.84001261997037 89.70096122287214,133.8720433257986 88.99068268761039,135.0240508459974 88.99068268761039,136.46405946207233 90.1744802473113,139.63207535468973 89.93772073462605,143.66408948926255 88.51716366223991,147.69609680003487 88.51716366223991,150.57609784416854 87.57012561522424,154.32009399705566 87.57012561522424,157.48808614653535 87.80688512697816,160.65607408294454 87.57012561522424,163.5360594613012 89.22744219843298,166.7040393569041 91.35827780794352,169.00802208902314 94.19939195271581,169.87201503990218" stroke="#4DD2FF" stroke-dasharray="none" stroke-linecap="round" stroke-linejoin="round" stroke-width="0.5"><title>2013-11-02 10.5km</title><desc>9223370653505000807</desc></polyline><polyline fill="none" opacity="1" points="156.01169842481613,151.35010403278284 156.01169842481613,152.97010246641003 155.56777391023934,155.67009724397212 155.12384939659387,158.6400877290871 156.23366068210453,162.15007139416412 157.5654342258349,164.85005507571623 160.67290582694113,167.0100396713242 164.22430194169283,168.3600289823953 167.7756980592385,168.3600289823953 169.77335837297142,167.82003335561603 172.65886771772057,165.66004954348318 174.6565280323848,162.96006684168242 175.54437706060708,159.18008557590656 175.54437706060708,155.94009654247202 175.7663393188268,152.70010280935094 175.54437706060708,149.46010437584482 175.54437706060708,146.49010168295354 176.43222609069198,142.98009340977296 176.87615060433745,140.01008210144937 176.43222609069198,137.31006839242764 175.32241480425,134.34004954481497 173.99064126145095,132.72003759886138 170.4392451448366,130.56001984444447 167.7756980592385,128.4000000001397 165.3341132281348,129.48001018329524 162.0046793706715,130.8300221778918 159.78505679685622,132.45003549358808 158.67524551134557,135.69005860155448 158.2313209977001,138.12007284793071 157.7873964831233,141.63008875912055 156.45562293939292,144.33009724435396 156.01169842481613,146.76010209089145 156.23366068210453,150.81010429398157 157.7873964831233,154.32010026299395 154.90188713837415,155.13009854895063 155.12384939659387,156.21009580790997 154.45796262472868,157.56009164638817 154.90188713837415,163.23006525845267 160.22898131329566,166.20004569296725 165.77803774364293,167.55003549298272 167.1098112873733,167.55003549298272 169.10747160110623,167.55003549298272 171.77101868763566,168.3600289823953 173.99064126145095,164.0400603134185 174.6565280323848,162.96006684168242 174.8784902896732,160.5300796192605 175.54437706060708,159.18008557590656 173.54671674594283,158.91008666879497 174.8784902896732,158.10008975397795 176.2102638334036,155.94009654247202 175.9883015761152,150.81010429398157 176.2102638334036,149.46010437584482 175.7663393188268,146.2201012421865 176.2102638334036,142.1700907170307 175.7663393188268,136.7700652598869 175.32241480425,133.26004171161912 173.54671674594283,129.75001264712773 169.55139611661434,129.48001018329524 165.77803774364293,129.21000768686645 162.6705661425367,130.56001984444447 159.78505679685622,132.72003759886138 156.67758519575,133.26004171161912 156.45562293939292,137.58006991050206 156.23366068210453,140.55008445074782 156.01169842481613,144.0600965428166 154.90188713837415,147.57010311936028 155.34581165295094,151.62010385282338 155.12384939659387,155.13009854895063 154.90188713837415,159.18008557590656 154.90188713837415,161.61007426702417 158.45328325405717,165.66004954348318 164.00233968626708,168.63002674723975 166.44392451550812,169.98001507879235 169.32943385839462,171.60000000009313 173.32475448958576,167.82003335561603 175.1004525469616,162.69006839231588 175.54437706060708,159.7200832911767 175.54437706060708,158.6400877290871 175.1004525469616,153.24010209064 174.8784902896732,148.92010417976417 175.32241480425,146.2201012421865 175.54437706060708,142.98009340977296 177.09811286255717,138.93007700890303 175.7663393188268,135.96006031497382 174.43456577509642,134.34004954481497 172.88082997407764,130.8300221778918 170.21728288847953,130.02001507859677 166.0,129.75001264712773 162.0046793706715,130.56001984444447 159.78505679685622,130.8300221778918 156.89954745396972,132.72003759886138 154.90188713837415,135.69005860155448 154.67992488108575,138.39007426798344 155.34581165295094,139.7400808769744 154.23600036650896,142.71009254432283 154.67992488108575,145.95010076928884 154.90188713837415,147.57010311936028 154.45796262472868,150.27010442432947 154.90188713837415,153.78010124200955 154.67992488108575,157.02009340864606 154.90188713837415,161.34007565444335 157.5654342258349,166.20004569296725 161.7827171124518,168.63002674723975 163.11449065618217,168.3600289823953 166.0,169.98001507879235 167.99766031466424,169.1700221770443 171.1051319167018,171.33000259427354 173.32475448958576,168.63002674723975 174.8784902896732,162.42006990942173 173.99064126145095,158.37008875748143 175.1004525469616,151.35010403278284 174.8784902896732,147.0301024664659 174.8784902896732,145.68010026379488 176.43222609069198,142.98009340977296 177.76399963349104,140.82008557626978 177.09811286255717,136.7700652598869 175.32241480425,132.1800333559513 173.10279223136604,129.75001264712773 169.9953206302598,128.6700025945902 166.0,128.94000515691005 161.1168303405866,130.56001984444447 157.1215097112581,132.1800333559513 156.67758519575,133.53004371840507 155.56777391023934,134.61005142168142 155.78973616752774,137.04006684245542 156.01169842481613,138.6600756549742 156.23366068210453,142.1700907170307 156.23366068210453,143.5200950417202 156.23366068210453,147.84010339644738 156.01169842481613,149.19010429433547 155.12384939659387,151.62010385282338 155.78973616752774,155.13009854895063 154.90188713837415,156.21009580790997 155.12384939659387,161.07007700833492 156.23366068210453,162.15007139416412 156.23366068210453,163.50006364332512 158.45328325405717,165.66004954348318 162.6705661425367,168.63002674723975 167.1098112873733,170.52001018356532 170.4392451448366,169.710017477395 171.99298094585538,168.09003118495457 175.32241480425,163.77006199466996 174.8784902896732,159.18008557590656 174.43456577509642,152.97010246641003 176.2102638334036,152.1601033960469 176.65418834704906,147.3001028096769" stroke="#4DD2FF" stroke-dasharray="none" stroke-linecap="round" stroke-linejoin="round" stroke-width="0.5"><title>2013-10-26 11.1km</title><desc>9223370654110301807</desc></polyline><polyline fill="none" opacity="1" points="24.771051913499832,184.3579543782398 22.901897870004177,187.76849800907075 24.30376340262592,190.32640248560347 25.004696168005466,193.1685153071303 25.004696168005466,196.86325683817267 24.07011914718896,199.9895720607601 23.602830636315048,203.68430287321098 23.36918638087809,206.81060902611353 24.30376340262592,208.23165590292774 23.602830636315048,212.77900013769977 25.705628934316337,215.62108581862412 28.042071488685906,217.89475188939832 30.845802552998066,218.46316806343384 34.11682212725282,217.89475188939832 38.08877446874976,216.18950254260562 41.359794043935835,213.91583482245915 42.29437106475234,209.93691102182493 42.06072680931538,206.52639954793267 42.52801532112062,202.26325324806385 42.52801532112062,198.85273064253852 42.52801532112062,195.1579922370147 43.92988085281104,191.4632480267901 45.565390639938414,189.18955639493652 46.49996766168624,186.63165068160743 46.26632340531796,184.07374218595214 43.92988085281104,181.23161837016232 40.8925055321306,179.81055517448112 37.855130213312805,177.25263925665058 34.58411063905805,176.4000000001397 31.0794468075037,177.82106525660492 28.27571574319154,180.09476788225584 25.705628934316337,182.6526807071641 25.238340424373746,185.77901482582092 25.238340424373746,189.4737679695245 24.771051913499832,192.60009301709943 24.30376340262592,196.86325683817267 21.50003233831376,199.9895720607601 21.967320849187672,203.68430287321098 21.733676593750715,207.94744659680873 22.200965103693306,211.07374708005227 22.200965103693306,213.91583482245915 24.30376340262592,216.75791912851855 27.341138722375035,219.0315841003321 30.61215829756111,219.60000000009313 34.58411063905805,219.0315841003321 37.154197447001934,217.610543750925 40.8925055321306,215.90529419737868 41.82708255480975,213.6316262029577 43.462592341937125,210.22112008789554 43.92988085281104,206.81060902611353 43.92988085281104,203.1158831268549 44.39716936368495,199.70536175812595 45.0981021290645,195.4422030900605 45.33174638450146,192.0316705906298 45.79903489537537,189.18955639493652 45.565390639938414,185.49480280443095 44.63081361912191,181.80004340759479 42.52801532112062,179.24212965508923 39.4906400013715,178.10527820512652 35.98597617074847,177.53685227409005 32.48131234012544,177.53685227409005 29.21029276587069,178.95791684417054 25.705628934316337,181.23161837016232 24.30376340262592,184.07374218595214 25.004696168005466,188.33692146651447 23.602830636315048,191.74745932617225 23.36918638087809,194.58957042940892 23.36918638087809,198.28430972713977 21.733676593750715,201.69483315735124 22.200965103693306,206.52639954793267 21.967320849187672,209.3684927856084 23.36918638087809,212.21058258996345 24.30376340262592,215.90529419737868 25.238340424373746,217.610543750925 30.845802552998066,219.0315841003321 34.81775489356369,218.46316806343384 37.38784170243889,216.18950254260562 41.59343829844147,212.77900013769977 43.22894808650017,211.9263737637084 43.92988085281104,209.08428361662664 43.462592341937125,205.95798048726283 43.462592341937125,202.26325324806385 43.462592341937125,199.13694104878232 43.92988085281104,195.72641390911303 45.33174638450146,192.31588182109408 45.565390639938414,189.18955639493652 45.565390639938414,186.34743876405992 45.565390639938414,183.78952995873988 43.22894808650017,181.23161837016232 41.359794043935835,178.10527820512652 37.855130213312805,176.96842620545067 33.6495336163789,178.10527820512652 29.67758127581328,180.09476788225584" stroke="#4DD2FF" stroke-dasharray="none" stroke-linecap="round" stroke-linejoin="round" stroke-width="0.5"><title>2013-10-20 10.7km</title><desc>9223370654628121807</desc></polyline><polyline fill="none" opacity="1" points="112.58722065296024,198.00010313512757 113.03676424827427,195.265924267238 113.26153604499996,192.53174209501594 112.81199244968593,188.7038815007545 112.58722065296024,185.96969139552675 110.33950267918408,182.68865890684538 108.76610009744763,179.4076216588728 105.84406673163176,177.49368106550537 102.69726156815886,176.4000000001397 99.77522820234299,176.4000000001397 96.1788794444874,177.2202608489897 92.80730248428881,179.4076216588728 90.33481271192431,182.68865890684538 89.43572552409023,185.69627220346592 89.43572552409023,188.7038815007545 88.76141013111919,191.98490526387468 88.53663833346218,196.08617827505805 87.41277934703976,199.3671913293656 87.86232294142246,202.3747824486345 86.73846395500004,206.20261990721337 89.2109537255019,208.6633691387251 90.11004091612995,211.9443639498204 91.90821529459208,215.49876962439157 94.15593326836824,217.41267805802636 97.75228202715516,218.77975451922975 101.57340258173645,219.60000000009313 104.49543594755232,217.95950874243863 106.96792571805418,215.22535400115885 108.99087189510465,212.76461190870032 110.56427447684109,209.75703460443765 110.33950267918408,207.5697031437885 111.0138180712238,204.56211893237196 111.23858986981213,201.5545307220891 111.46336166653782,198.54693851224147 112.13767705764621,196.08617827505805" stroke="#4DD2FF" stroke-dasharray="none" stroke-linecap="round" stroke-linejoin="round" stroke-width="0.5"><title>2013-10-19 10.2km</title><desc>9223370654714312807</desc></polyline><polyline fill="none" opacity="1" points="177.59638636745512,187.27354168030433 176.1468380726874,183.15923433192074 174.93888115882874,180.22043910529464 171.31501041911542,177.5755203643348 167.20795691385865,176.4000000001397 163.3424947904423,177.5755203643348 160.20180681534111,179.33879984519444 158.51066713687032,182.57147557032295 157.302710223943,185.51026795455255 157.06111884023994,188.15517806308344 156.5779360756278,191.9755986945238 155.61157054454088,195.5021354884375 154.8867963962257,198.73478972166777 154.64520501438528,201.96743965684436 154.64520501438528,206.08171517541632 155.12838777899742,209.90210763714276 156.81952745839953,213.72249409533106 158.0274843722582,215.7796227785293 160.92658096458763,219.0122500488069 164.55045170336962,219.0122500488069 167.44954829569906,219.60000000009313 170.83182765357196,218.13062485610135 173.48933286219835,216.36737351119518 175.18047254160047,212.84086698386818 175.66365530714393,208.43272663117386 175.90524668991566,203.73070144630037 175.90524668991566,200.79193108691834 175.90524668991566,197.26540196686983 176.87161222100258,194.32662379206158 177.59638636745512,190.80008529429324 177.35479498654604,186.39190497691743 175.18047254160047,180.22043910529464 172.52296733297408,178.16328033292666 167.6911396794021,176.69388014404103 164.79204308707267,176.9877602532506 161.8929464938119,179.63267963356338 159.23544128518552,181.6898371623829 158.51066713687032,184.62863061204553 157.06111884023994,189.33069274341688 155.61157054454088,193.73886773106642 155.61157054454088,197.26540196686983 154.16202224884182,200.79193108691834 154.40361363161355,204.6123318609316 154.64520501438528,207.8449739809148 154.16202224884182,211.37148775416426 156.09475331008434,215.48574735829607 158.75225852057338,218.13062485610135 161.40976372919977,218.42449995642528 166.48318276554346,219.0122500488069 169.38227935694158,217.54287455044687 172.52296733297408,214.89799641259015 173.48933286219835,212.25311539904214 174.697289776057,208.43272663117386 176.1468380726874,204.9062085954938 177.35479498654604,201.67356256698258 177.83797775115818,197.55927958874963 177.35479498654604,192.85723337321542 177.35479498654604,188.44905678625219 176.3884294545278,184.92250976222567 174.93888115882874,180.22043910529464 172.03978456743062,178.16328033292666 168.89909659232944,177.28164032683708" stroke="#4DD2FF" stroke-dasharray="none" stroke-linecap="round" stroke-linejoin="round" stroke-width="0.5"><title>2013-10-12 10.6km</title><desc>9223370655320152807</desc></polyline><polyline fill="none" opacity="1" points="25.476657565683126,235.63207535468973 24.05610049236566,240.24009095085785 24.05610049236566,242.83209580695257 23.345821957103908,247.44009747868404 24.05610049236566,250.60809345706366 24.292860004119575,254.92808118532412 23.81934098061174,258.6720642137807 22.635543420910835,262.41604135814123 24.76637902855873,263.28003524802625 28.317771709524095,265.5840174248442 31.632404879666865,267.60000000009313 34.710278537124395,267.60000000009313 38.97194975428283,265.8720150399022 41.57630438823253,263.8560310017783 43.943899508565664,260.6880526384339 44.890937557443976,256.9440727783367 45.12769706826657,252.33608948835172 43.943899508565664,248.59209650335833 44.180659021250904,243.40809650346637 45.36445658095181,239.37608870584518 45.60121609363705,236.2080777916126 46.54825414158404,233.32806421397254 45.837975605390966,231.0240508459974 43.23362097237259,227.28002436971292 38.97194975428283,225.84001261997037 35.42055707331747,224.9760051521007 32.57944292854518,224.9760051521007 30.21184780728072,226.12801503995433 26.1869361018762,228.14403100241907 24.76637902855873,231.0240508459974 23.81934098061174,234.48007006268017 24.05610049236566,238.5120861462783 24.05610049236566,241.96809450211003 24.292860004119575,245.13609775714576 24.05610049236566,248.88009617221542 22.398783908225596,251.47209162986837 21.6885053711012,254.3520832741633 21.451745859347284,257.2320714369416 22.398783908225596,260.1120561193675 23.582581467926502,262.41604135814123 25.239898052997887,265.296019774396 28.317771709524095,266.7360076766927 31.632404879666865,266.7360076766927 36.6043546339497,267.60000000009313 39.68222829140723,264.72002436965704 41.57630438823253,262.1280433256179 43.943899508565664,258.3840657279361 44.180659021250904,254.3520832741633 44.180659021250904,250.89609288284555 45.36445658095181,247.15209763497114 46.07473511714488,243.69609680003487 45.837975605390966,240.52809162950143 45.837975605390966,237.93608426721767 46.31149462983012,234.48007006268017 45.60121609363705,231.6000543970149 44.65417804475874,229.00803732057102 43.23362097237259,226.12801503995433 40.155747315846384,224.4000000001397 36.6043546339497,224.4000000001397 32.57944292854518,224.4000000001397 28.791290735825896,224.9760051521007 26.660455126315355,227.28002436971292 24.292860004119575,231.0240508459974 24.76637902855873,233.6160657289438 24.76637902855873,237.07208118587732 23.345821957103908,241.68009399762377 23.345821957103908,245.712097896263 24.05610049236566,247.15209763497114 23.10906244441867,250.89609288284555 22.398783908225596,252.9120878870599 22.87230293173343,256.36807535379194" stroke="#4DD2FF" stroke-dasharray="none" stroke-linecap="round" stroke-linejoin="round" stroke-width="0.5"><title>2013-10-06 10.6km</title><desc>9223370655838244807</desc></polyline><polyline fill="none" opacity="1" points="111.06927321478724,244.03646333003417 111.06927321478724,240.67022427427582 111.76110279094428,237.5845008501783 111.99171264935285,234.77929417719133 111.76110279094428,231.97408411232755 109.6856140634045,230.2909564457368 108.07134505175054,228.04678432480432 105.30402674898505,226.9246974508278 102.30609858687967,227.48574095615186 97.69390141405165,228.04678432480432 95.38780282903463,228.6078275591135 93.77353381738067,230.2909564457368 93.54292395804077,231.97408411232755 92.62048452533782,234.77929417719133 92.38987466599792,237.86502133100294 91.69804508984089,242.07282447465695 91.00621551368386,245.15854193037376 91.69804508984089,248.80529363360256 90.77560565527529,251.89100213861093 90.31438593752682,255.53774326271378 89.39194650482386,258.3429248428438 89.39194650482386,260.3065499314107 90.31438593752682,263.3922431420069 91.92865494918078,265.6363810834009 96.07963240426034,266.75844923895784 99.30817042570561,267.60000000009313 102.30609858687967,266.75844923895784 105.30402674898505,266.47793225129135 107.37951547559351,264.23379512433894 108.76317462790757,261.98965582833625 109.6856140634045,258.0624068370089 109.45500420406461,254.97670653951354 110.37744363863021,251.04944568034261 110.37744363863021,247.40269750310108 110.14683377929032,243.75594359473325 109.91622392181307,238.98710291530006 110.37744363863021,235.62085653445683 111.06927321478724,234.21825243486091 110.37744363863021,231.41304169245996 108.07134505175054,228.88834912492894 105.07341689057648,226.0831319389399 102.9979281630367,225.2415661229752 99.76939014159143,225.80261003412306 96.31024226266891,225.80261003412306 94.4653633935377,226.6441756472923 93.31231410056353,229.72991361888126 91.69804508984089,232.5351263966877 91.46743523143232,235.62085653445683 90.77560565527529,239.26762322615832 90.08377608004957,243.19490402424708 89.62255636136979,245.7195810272824 88.9307267870754,248.80529363360256 88.9307267870754,252.17152088950388 88.0082873525098,255.53774326271378 87.54706763476133,258.0624068370089 87.7776774931699,261.14810303226113 88.9307267870754,263.6727605035994 91.92865494918078,266.19741522870027 95.61841268651187,267.0389661930967 99.76939014159143,267.319483113708 103.45914787892252,266.75844923895784 105.99585632514209,264.794829609571 108.76317462790757,262.55069085536525 109.91622392181307,258.3429248428438 110.37744363863021,255.53774326271378 110.83866335544735,252.4520396075677 111.06927321478724,249.6468509058468 111.53049293160439,245.7195810272824 111.76110279094428,243.4754238263704 111.99171264935285,240.3897041331511 112.22232250776142,237.5845008501783 112.45293236616999,234.49877332313918 111.76110279094428,231.69356291904114 110.60805349703878,229.1688706574496 108.30195491109043,226.6441756472923 105.76524646673352,225.2415661229752 102.9979281630367,224.4000000001397 100.69182957615703,224.96104411478154 96.77146197948605,225.52208809531294 94.00414367672056,227.20521922083572 92.62048452533782,230.8519991368521 91.00621551368386,235.34033578261733 90.08377608004957,238.14554177806713 89.85316622070968,240.3897041331511 89.62255636136979,243.4754238263704 89.85316622070968,246.56113941781223 90.08377608004957,249.92736992868595 89.85316622070968,253.01307694031857 89.62255636136979,256.3792980927974 90.08377608004957,259.7455143611878 91.46743523143232,262.83120831870474 94.00414367672056,264.5143123844173 96.77146197948605,267.319483113708 100.69182957615703,267.319483113708 102.9979281630367,267.0389661930967 106.45707604289055,265.35586395906284 108.532564769499,263.3922431420069 109.6856140634045,260.0260321632959 110.14683377929032,257.2208526181057 111.06927321478724,254.13515119976364 111.06927321478724,250.76892679347657 111.76110279094428,247.96373605774716 111.76110279094428,244.8780223308131 111.53049293160439,241.79230450256728 112.68354222457856,238.14554177806713 111.76110279094428,235.34033578261733 110.83866335544735,231.97408411232755 110.14683377929032,229.44939215504564 107.6101253349334,227.7662626572419 104.38158731441945,226.0831319389399 101.38365915231407,226.6441756472923 97.23268169723451,226.9246974508278 94.23475353512913,228.88834912492894 92.85109438374639,230.8519991368521 90.77560565527529,234.21825243486091 90.31438593752682,236.46241858764552 89.39194650482386,240.1091839573346 89.62255636136979,243.19490402424708 88.46950706932694,246.28061998845078 88.46950706932694,249.6468509058468 87.7776774931699,253.01307694031857 87.31645777635276,256.3792980927974 88.0082873525098,259.7455143611878 89.16133664548397,262.83120831870474 92.62048452533782,264.794829609571 96.31024226266891,266.47793225129135 98.84695070702583,265.9168981728144 102.30609858687967,265.0753468009643 104.84280703123659,262.270173358731" stroke="#4DD2FF" stroke-dasharray="none" stroke-linecap="round" stroke-linejoin="round" stroke-width="0.5"><title>2013-09-29 10.5km</title><desc>9223370656443428807</desc></polyline><polyline fill="none" opacity="1" points="176.5642668157816,255.29628656315617 176.5642668157816,251.7418679993134 176.5642668157816,248.73427869705483 177.23858171794564,246.00010313582607 177.23858171794564,242.17225179541856 178.36243989039212,238.8912312053144 177.68812498729676,237.25071912514977 176.78903844952583,234.51652968092822 175.66518027801067,230.68865890661255 173.86700720340014,227.95446153078228 171.39451922569424,225.49368106527254 170.0458894195035,225.76710125035606 166.00000000093132,224.94684059894644 163.30274038854986,226.5873616025783 160.83025241084397,228.22788141667843 159.7063942393288,232.055756355403 158.35776443313807,233.6962722032331 157.6834495300427,238.6178126083687 157.00913462694734,240.80516046099365 156.78436299227178,244.9064319843892 156.78436299227178,247.09377375710756 156.55959135852754,249.28111341316253 156.55959135852754,253.38236956926994 155.2109615523368,255.56970314332284 155.6605048207566,261.0380278278608 156.55959135852754,263.4987696236931 161.95411058235914,265.4126780577935 164.2018269263208,265.95950874197297 167.5734014417976,265.95950874197297 171.61929085943848,264.86584724183194 174.5413221064955,262.1316911787726 176.5642668157816,258.0304508882109 177.23858171794564,253.65578638156876 175.66518027801067,250.92161676776595 174.09177883714437,249.55453072185628 175.88995191268623,245.17984982184134 177.4633533526212,239.98490526387468 177.91289662197232,238.07097531366162 177.23858171794564,235.06336783478037 178.36243989039212,231.235497985268 175.66518027801067,228.50130126997828 172.9679206656292,225.49368106527254 171.16974759101868,224.94684059894644 165.77522836625576,225.49368106527254 164.2018269263208,225.76710125035606 161.27979567926377,228.22788141667843 158.80730770155787,230.41523931804113 158.1329927984625,232.87601442844607 157.6834495300427,236.43046263838187 156.55959135852754,241.07857879367657 157.00913462694734,244.35959621169604 157.23390626069158,246.54693851224147 156.55959135852754,250.92161676776595 157.00913462694734,254.20261990698054 155.6605048207566,258.3038671386894 156.33481972385198,261.5848595700227 156.55959135852754,263.4987696236931 160.38070914242417,264.86584724183194 163.97705529164523,267.3265848727897 166.22477163467556,266.77975451922975 169.14680288173258,265.95950874197297 172.0688341287896,264.86584724183194 174.9908653749153,261.5848595700227 175.21563700959086,259.3975318111479 175.88995191268623,256.66336913825944 176.78903844952583,253.92920316033997 177.91289662197232,250.92161676776595 177.0138100842014,247.3671913293656 175.88995191268623,243.53934230282903 176.11472354643047,240.5317420954816 176.5642668157816,237.25071912514977 177.68812498729676,236.43046263838187 178.58721152413636,232.87601442844607 177.23858171794564,230.14181969570927 178.36243989039212,230.41523931804113 177.91289662197232,227.68104161159135 174.76609374023974,226.31394151831046 171.39451922569424,225.22026084875688 168.24771634489298,224.6734203158412 164.2018269263208,225.76710125035606 161.0550240445882,228.22788141667843 158.35776443313807,230.14181969570927 158.1329927984625,233.42285297834314 155.88527645543218,237.25071912514977 154.53664664924145,241.62541536078788 156.11004808917642,241.62541536078788 156.78436299227178,243.2659242679365 156.33481972385198,246.8203561506234 155.6605048207566,250.92161676776595 153.41278847679496,253.10895272321068 155.43573318701237,256.11653620772995 155.6605048207566,258.57728335657157 157.23390626069158,262.9519383441657 159.256850970909,265.4126780577935 161.95411058235914,266.23292403365485 165.77522836625576,266.23292403365485 169.37157451640815,267.60000000009313 172.9679206656292,266.23292403365485 174.09177883714437,264.0456007702742 174.31655047181994,260.49119595531374 175.66518027801067,259.3975318111479 175.88995191268623,255.29628656315617 177.91289662197232,248.73427869705483 177.91289662197232,244.08617827459238 175.88995191268623,241.35199709353037 176.5642668157816,238.07097531366162 177.0138100842014,235.61020585522056 177.4633533526212,232.055756355403 177.23858171794564,230.14181969570927 175.66518027801067,227.1342016728595 172.0688341287896,225.76710125035606 168.69725961331278,224.4000000001397 166.00000000093132,225.76710125035606 163.52751202322543,226.8607816544827 160.38070914242417,229.04814087809063 157.45867789536715,232.055756355403 155.6605048207566,235.61020585522056 156.78436299227178,239.16464976919815 157.00913462694734,243.53934230282903 157.00913462694734,246.8203561506234 156.33481972385198,250.64819962508045 154.761418283917,253.10895272321068 156.33481972385198,256.66336913825944 155.6605048207566,259.3975318111479" stroke="#4DD2FF" stroke-dasharray="none" stroke-linecap="round" stroke-linejoin="round" stroke-width="0.5"><title>2013-09-22 10.9km</title><desc>9223370657048162807</desc></polyline></svg>