<?xml version="1.0" encoding="utf-8" ?>
<svg baseProfile="full" height="300mm" version="1.1" viewBox="0,0,200,300" width="200mm" xmlns="http://www.w3.org/2000/svg" xmlns:ev="http://www.w3.org/2001/xml-events" xmlns:xlink="http://www.w3.org/1999/xlink"><defs /><rect fill="#222222" height="300" width="200" x="0" y="0" /><text fill="#FFFFFF" style="font-size:12px; font-family:Arial; font-weight:bold;" x="10" y="20">Over 10km Runs</text><text fill="#FFFFFF" style="font-size:4px; font-family:Arial" x="10" y="280">Runner</text><text fill="#FFFFFF" style="font-size:9px; font-family:Arial" x="10" y="290">keep</text><text fill="#FFFFFF" style="font-size:4px; font-family:Arial" x="65" y="280">SPECIAL TRACKS</text><rect fill="yellow" height="2.6" width="2.6" x="65" y="283" /><text fill="#FFFFFF" style="font-size:3px; font-family:Arial" x="70" y="285.5">Over 20.0 km</text><rect fill="red" height="2.6" width="2.6" x="65" y="287" /><text fill="#FFFFFF" style="font-size:3px; font-family:Arial" x="70" y="289.5">Over 40.0 km</text><text fill="#FFFFFF" style="font-size:4px; font-family:Arial" x="120" y="280">STATISTICS</text><text fill="#FFFFFF" style="font-size:3px; font-family:Arial" x="120" y="285">Number: 15</text><text fill="#FFFFFF" style="font-size:3px; font-family:Arial" x="120" y="290">Weekly: 1.2</text><text fill="#FFFFFF" style="font-size:3px; font-family:Arial" x="141" y="285">Total: 163.6 km</text><text fill="#FFFFFF" style="font-size:3px; font-family:Arial" x="141" y="290">Avg: 10.9 km</text><text fill="#FFFFFF" style="font-size:3px; font-family:Arial" x="167" y="285">Min: 10.2 km</text><text fill="#FFFFFF" style="font-size:3px; font-family:Arial" x="167" y="290">Max: 14.0 km</text><polyline fill="none" opacity="1" points="27.093337361700833,75.59999999999854 27.008017255022423,75.26711998254177 26.94829318029224,75.05235795053159 26.854441062925616,74.91276232250675 26.777652966906317,74.71947566877498 26.700864870857913,74.49397398618021 26.658204817475053,74.22551877864316 26.700864870857913,73.88189480674919 26.734992913523456,73.59196093962964 26.726460902835242,73.2805493267224 26.709396881517023,72.9691365092076 26.726460902835242,72.62550717467093 26.734992913523456,72.32483030377625 26.752056934841676,72.05636786292598 26.752056934841676,71.76642742125114 26.897101116279373,71.58387179262354 27.170125457749236,71.51944029541482 27.349297681852477,71.49796311822138 27.349297681852477,71.32614549445134 27.417553767212667,71.14358886740956 27.417553767212667,70.8643838134958 27.417553767212667,70.54222293263592 27.19572148975567,70.3274482957786 26.965357201639563,70.20932200126845 27.025081276340643,69.79050919673318 27.050677308347076,69.51129944984132 27.110401383048156,69.15691645340848 27.1445294257137,68.81327084577788 27.204253500443883,68.50184074664139 27.22984953247942,68.25484360443079 27.272509585804073,68.00784570429823 27.340765671164263,67.93267227992328 27.357829692511586,67.72862977418845 27.30663762849872,67.64271698544326 27.38342572451802,67.47089113292168 27.443149799248204,67.25610830145888 27.51140588457929,66.9768897637623 27.56259794862126,66.70840948721889 27.6649820767052,66.36475342661288 27.733238162036287,66.08553179699084 27.818558268772904,65.80630919880787 27.972134460840607,65.73113371841464 28.159838695573853,65.81704854743293 28.390202983719064,65.79556984877854 28.637631293211598,65.6344794261895 28.74001542123733,65.41969169458025 28.88505960261682,65.11898790748819 29.038635794713628,64.81828299698827 29.209276008157758,64.5175769630805 29.36285220022546,64.2598280399252 29.507896381634055,63.99133870060905 29.661472573701758,63.71210883767344 29.79798474445124,63.42213833934511 29.994220989901805,63.05698881839635 30.20752125667059,62.69183764088666 30.429353534127586,62.29446535952593 30.625589779549045,61.96153031608992 30.796229992993176,61.67155351094698 30.975402217096416,61.38157566108566 31.15457444114145,61.12381669527531 31.274022590572713,60.91975692854612 31.461726825335063,60.62977637005679 31.666495081415633,60.318314606454805 31.743283177464036,60.02833188101067 31.87126333755441,59.727607951026584 32.08456360432319,59.448363295639865 32.34905593513395,59.25503950512211 32.570888212590944,59.008013985883736 32.70740038328222,58.771727997147536 32.85244456471992,58.599883205977676 32.937764671456534,58.44951871271769 33.04014879951137,58.21323108426441 33.11693689553067,58.00916393777152 33.270513087598374,57.89101956383092 33.43262129035429,57.85879834084335 33.54353742909734,57.83731751837331 33.680049599846825,57.70843246298318 33.80802975987899,57.547325853505754 33.995733994670445,57.353997496415104 34.183438229432795,57.085485118906945 34.34554643218871,56.90289619049145 34.268758336111205,56.59142000351858 34.27729034679942,56.34438630842487 34.371142464195145,56.08661120937904 34.58444273096393,55.85031664330745 34.76361495506717,55.624762092047604 34.88306310446933,55.3347624544258 35.0110432645597,55.04476177174365 35.23287554195849,54.77624168936018 35.480303851451026,54.55068412768014 35.65094406483695,54.30364416810335 35.77892422492732,54.013639769626025 35.9069043850177,53.712893363619514 36.07754459843272,53.44436883706658 36.37616497190902,53.35844079931121 36.580933228018694,53.229548570670886 36.708913388079964,52.91805816577835 36.78570148415747,52.63878988115903 36.84542555882945,52.327297189534875 36.91368164418964,52.015803292124474 36.99900175089715,51.66134325251187 37.08432185757556,51.39281187999586 37.08432185757556,51.285399080130446 37.16964196434128,50.973901149540325 37.212302017665934,50.640919269644655 37.30615413503256,50.28645317367045 37.40000625245739,49.87827815917262 37.45973032715847,49.55603326416167 37.527986412489554,49.190820823008835 37.621838529914385,48.857831564375374 37.690094615274575,48.52484092766099 37.75835070060566,48.14888210097706 37.809542764676735,47.826630279982055 37.911926892673364,47.461409989256936 37.97165096740355,47.11767173073167 38.056971074140165,46.78467389243451 38.11669514881214,46.462416607646446 38.18495123417233,46.15090000550845 38.244675308902515,45.85012421073043 38.295867372944485,45.721219954466505 38.329995415580925,45.517121126402344 38.38971949031111,45.173374561432865 38.4579755756713,44.8296265278841 38.5347636717197,44.49661921984807 38.611551767768105,44.12064157040004 38.637147799745435,44.013219062122516 38.65421182112186,43.81985818577232 38.713935895764735,43.54055832177255 38.79072399181314,43.16457620451547 38.85044806654332,42.842304419813445 38.927236162591726,42.47706150324666 38.97842822660459,42.315924395305046 39.02962029064656,42.1440444577529 39.05521632262389,42.02587678768032 39.10640838666586,41.9184514824301 39.07228034400032,41.73582813436224 39.08081235465943,41.53171919591841 39.10640838666586,41.252411388384644 39.166132461396046,40.99458793616941 39.22585653603892,40.81196249094501 39.362368706817506,40.76899173766287 39.6609890802938,40.86567590019695 39.934013421763666,40.97310261119128 40.21556977395085,41.04830122351996 40.31795390197658,40.94087461296294 40.35208194464212,40.736763657703705 40.3350179233239,40.43596762182278 40.35208194464212,40.12442768475012 40.36914596601855,39.74842960231035 40.4118060193432,39.37242976255948 40.437402051407844,39.09311445824278 40.32648591263569,38.91048469647649 40.05346157113672,38.974942306798766 39.75484119771863,39.01791401832452 39.53300892020343,39.07162862543919 39.56713696292718,38.76008340489352 39.618329026940046,38.43779397606704 39.68658511227113,38.11550325604185 39.737777176342206,37.79321124484704 39.84016130439704,37.438688541180454 39.89988537906902,37.09490745765652 39.94254543245188,36.837070680870966 39.98520548577653,36.52551680634497 40.02786553915939,36.26767820450914 40.01933352850028,36.11727197182336 40.044929560506716,36.03132542689127 40.198505752545316,35.91314877765399 40.36914596601855,35.8272020146178 40.27529384859372,35.65530821305583 40.181441731227096,35.526387620848254 40.20703776326263,35.35449317646999 40.2582298272755,35.30077608730062 40.44593406203785,35.34374976151594 40.60804226482287,35.32226292730047 40.77015046754968,35.36523659001978 40.90666263827006,35.30077608730062 41.07730285168509,35.26854581657244 41.17968697976903,35.1288811608174 41.21381502246368,34.73137273651082 41.23941105444101,34.35534944605752 41.29060311848298,34.02229877807986 41.3076671398303,33.764452152528975 41.3076671398303,33.603297591886076 41.33326317186584,33.39916801822983 41.29913512914209,33.25950011672103 41.085834862373304,33.21652532899316 40.86400258491631,33.184294223145116 40.72749041419593,33.1090882592689 40.505658136768034,33.05536967056105 40.23263379526907,33.001651046019106 39.916949400445446,32.93718864918628 39.60979701625183,32.861982454276585 39.32824066412286,32.78677618903748 38.97842822660459,32.73305738512863 38.713935895764735,32.61487589018361 38.560359703726135,32.571900758070115 38.30439938357449,32.571900758070115 37.997246999439085,32.550413183394994 37.71569064728101,32.5396693939183 37.39147424179828,32.51818181062845 37.08432185757556,32.47520662685565 36.79423349475837,32.442975223959365 36.52120915334672,32.42148761485441 36.4358890466101,32.400000000001455 36.37616497190902,32.52892560300825 36.30790888654883,32.743801148790226 36.26524883316597,32.95867612055008 36.22258877984132,33.1520631043677 36.20552475849399,33.377680664554646 36.17139671579935,33.57106664098683 36.07754459843272,33.753708525240654 35.992224491696106,33.89337556865212 35.91543639567681,34.10824746955768 35.872776342293946,34.24791389739403 35.804520256933756,34.430554244769155 35.71066813956713,34.591707148101705 35.63388004351873,34.78509020592173 35.540027926152106,34.956985867036565 35.47177184079192,35.118137715740886 35.34379168070154,35.32226292730047 35.27553559534135,35.601591324739275 35.14755543525098,35.87017540761735 35.01957527518971,36.1924751233164 34.865999083122006,36.51477354775852 34.720954901742516,36.815584245523496 34.59297474165214,37.09490745765652 34.46499458156177,37.38497284374898 34.302886378834955,37.69652338971355 34.15784219742636,37.975843543041265 34.038394048053306,38.255162726585695 33.918945898651145,38.49150897053187 33.867753834609175,38.59893885185738 33.816561770567205,38.67413968346227 33.70564563185326,38.76008340489352 33.680049599846825,39.01791401832452 33.586197482421994,39.31871535626124 33.40702525834786,39.59802987729199 33.33023716232856,39.79140090067813 33.270513087598374,39.94180026421236 33.42408927969518,40.02774263139872 33.70564563185326,40.02774263139872 34.02133002667688,40.07071378055116 34.35407844284782,40.1136849067625 34.669762837700546,40.156656010076404 34.985447232524166,40.1996270903619 35.29259961665957,40.242598147720855 35.57415596881765,40.28556918211689 35.795988246274646,40.28556918211689 35.9069043850177,40.14591323638888 35.94956443834235,39.94180026421236 35.97516047034878,39.73768677413318 36.00928851307253,39.72694394455175 36.16286470511113,39.812886541258194 36.17139671579935,40.03848542083142 36.09460861975094,40.41448214764387 36.02635253439075,40.75824904575711 35.95809644903056,41.12349976557016 35.88984036369948,41.46726363407652 35.81305226762197,41.84325368343707 35.744796182232676,42.15478696460195 35.70213612887892,42.434091639377584 35.616816022171406,42.767107484309236 35.63388004351873,43.05715241970756 35.56562395815854,43.35793865571031 35.386451734026195,43.57278527865856 35.30966363797779,43.87356958693999 35.22434353129938,44.18509500648361 35.22434353129938,44.45365043453785 35.21581152064027,44.66849413157615 35.377919723367086,44.872595112392446 35.29259961665957,45.205600864297594 35.24993956333492,45.57083139450697 35.14755543525098,45.98977025525528 35.087831360579,46.31202943304379 35.02810728587792,46.677254940870625 35.01957527518971,47.01025322379428 35.002511253842385,47.33250831440091 35.002511253842385,47.67624565513688 34.993979243183276,48.00923980370135 34.97691522183595,48.35297425345925 34.95985120051773,48.69670723481977 34.9342551685113,49.008213980851 34.90012712578755,49.308977970657 34.84040305111557,49.65270686818258 34.77214696572628,50.01791721292102 34.738018923060736,50.30793601178448 34.77214696572628,50.640919269644655 34.7124228910543,50.973901149540325 34.618570773658575,51.32836421727552 34.422334528237116,51.60763704969577 34.21756627209834,51.8224616459338 33.95307394131669,52.02654448107933 33.74830568517791,52.219885636965046 33.48381335439626,52.44544973171287 33.321705151640344,52.63878988115903 33.22785303424462,52.7999063174866 33.10840488487156,52.928799234287 32.9889567354694,53.11139717971673 32.90363662876189,53.390663824211515 32.77565646872972,53.70215239978279 32.60501625525649,54.02438069191703 32.43437604184146,54.325125933821255 32.30639588178019,54.55068412768014 32.23813979642,54.81920496272505 32.28933186040376,55.03402098565857 32.43437604184146,55.20587339117628 32.331991913786624,55.49587349322974 32.3149278924393,55.667724912469566 32.3149278924393,55.65698420949775 32.195479743066244,55.69994701271207 31.999243497586576,55.968464013087214 31.837135294859763,56.23698011748638 31.615303017402766,56.47327354832669 31.410534761293093,56.7095662853535 31.31668264392647,56.945858328552276 31.20576650518342,57.257333143716096 31.06925433446304,57.45066173300438 30.898614121048013,57.45066173300438 30.659717822243692,57.45066173300438 30.38669348077383,57.39695939369267 30.08807310726843,57.3754784479097 29.78945273379213,57.3754784479097 29.610280509717995,57.38621892150695 29.45670431762119,57.4291808015696 29.405512253579218,57.49362357867358 29.311660136212595,57.697692032394116 29.192211986810435,57.91250037201826 29.14955193348578,58.22397144604474 29.04716780540184,58.43877838100889 28.970379709353438,58.63210413225897 28.902123623993248,58.70728624345065 28.722951399890007,58.87913080531143 28.492587111803005,59.11541647870763 28.390202983719064,59.308740604617924 28.492587111803005,59.5020642661475 28.552311186445877,59.577245564665645 28.569375207822304,59.78130873522605 28.646163303870708,60.02833188101067 28.62056727183517,60.167953323660186 28.509651133121224,59.98537138840766 28.34754293039441,60.20017362223007 28.193966738297604,60.45793554609554 28.04892255688901,60.68347655231628 27.86975033278577,60.93049692916975 27.741770172753604,61.20973644224432 27.63938604464056,61.44601527357736 27.519937895296607,61.72525299813424" stroke="#4DD2FF" stroke-dasharray="none" stroke-linecap="round" stroke-linejoin="round" stroke-width="0.5"><title>2017-12-17 14.0km</title><desc>9223370523376934807</desc></polyline><polyline fill="none" opacity="1" points="100.71528557938291,32.400000000001455 100.57091601291904,32.68078257858724 100.45279545849189,32.91201481248572 100.61028953106143,33.15976315541775 100.67591206124052,33.42402750839392 100.68903656728799,33.73784069524845 100.70216107333545,34.0681695067542 100.68903656728799,34.332431921662646 100.67591206124052,34.67927548568696 100.63653854309814,35.00960178657988 100.54466700076591,35.25734593411471 100.68903656728799,35.455540895425656 100.67591206124052,36.16573690262885 100.72841008548858,36.4630270454727 100.84653063985752,36.710768286116945 100.89902866398916,37.04108916960831 100.951526688179,37.35489319305634 100.96465119416825,37.71824422705686 100.97777570027392,38.09811007753888 101.04339823045302,38.37887974012119 101.10902076069033,38.67616457153781 101.1877677969751,38.95693292388023 101.21401680907002,39.2707320940026 101.25339032727061,39.584530469204765 101.35838637559209,39.749687189483666 101.59462748432998,39.84878111601574 101.63400100247236,39.980906228032836 101.50275594205596,40.14606241990259 101.34526186948642,40.228640433248074 101.41088439972373,40.50940526686463 101.51588044810342,40.757138415108784 101.64712550851982,41.08744850890071 101.73899705085205,41.36821139611129 101.83086859312607,41.66548905367381 101.97523815958994,41.962765997806855 102.13273223215947,42.24352690119122 102.26397729263408,42.50777187602216 102.11960772611201,42.73898576662759 101.85711760522099,42.689439969261 101.66025001456728,42.54080245824298 101.42400890577119,42.359134147038276 101.22714131505927,42.392164768891234 100.99090020626318,42.44171068518335 100.75465909746708,42.47474128502654 100.68903656728799,42.67292469908716 100.70216107333545,42.92065352080681 100.59716502495576,43.085805793431064 100.33467490406474,43.18489705129468 100.04593577113701,43.28398822991585 99.75719663815107,43.317018605186604 99.6128270716872,43.18489705129468 99.66532509581884,42.953683992949664 99.75719663815107,42.639894152089255 99.84906818042509,42.359134147038276 99.9146907106624,42.012312085840676 99.9803132408997,41.632458238018444 99.94093972275732,41.269118685042486 99.90156620467314,40.955324577087595 99.80969466228271,40.6745607541161 99.50783102330752,40.6745607541161 99.25846540846396,40.59198303804442 99.1797183721792,40.44334301033814 99.16659386613173,40.24515602928295 99.16659386613173,40.03045310870948 99.07472232385771,39.88181240720587 98.90410374529893,39.88181240720587 98.72036066063447,39.84878111601574 98.58911560021807,39.89832804955222 98.61536461225478,40.17909363182116 98.62848911830224,40.45985857777123 98.64161362440791,40.79016946417687 98.65473813039716,41.03790205099358 98.68098714249209,41.384726840224175 98.66786263650283,41.71503526057495 98.66786263650283,42.012312085840676 98.66786263650283,42.32610351639596 98.68098714249209,42.623378875272465 98.68098714249209,42.90413828143937 98.68098714249209,43.23444265053695 98.69411164853955,43.46565518488933 98.69411164853955,43.66383701374434 98.69411164853955,43.878533637216606 98.66786263650283,44.142775124520995 98.65473813039716,44.390501007008424 98.62848911830224,44.52262127514405 98.60224010620732,44.770346398086986 98.5759910941706,45.00155606588669 98.5759910941706,45.199735437687195 98.5759910941706,45.46397410694772 98.5759910941706,45.74472707552923 98.58911560021807,46.075023871038866 98.56286658812314,46.40531978594663 98.5759910941706,46.71910008942359 98.5759910941706,46.99985021362954 98.58911560021807,47.280599701618485 98.60224010620732,47.610892402371974 98.60224010620732,47.891640505702526 98.60224010620732,48.17238797277241 98.58911560021807,48.387076783059456 98.58911560021807,48.63479417878989 98.53661757602822,48.88251107917313 98.58911560021807,49.13022748429648 98.61536461225478,49.394457770482404 98.65473813039716,49.67520183213492 98.69411164853955,49.972459556913236 98.73348516668193,50.31925933439197 98.82535670895595,50.68257234588964 98.90410374529893,51.045884291874245 99.02222429966787,51.32662461143627 99.1140958420001,51.59085021336796 99.21909189032158,51.90461738385784 99.32408793864306,52.15232774657488 99.42908398708096,52.33398169787688 99.46845750516513,52.49912142244284 99.6128270716872,52.746830596603104 99.67844960192451,52.994539275539864 99.70469861396123,53.12665036843828 99.77032114414033,53.30830289120058 99.94093972275732,53.42389981247106 100.00656225299463,53.572524267074186 100.13780731346924,53.75417613613536 100.25592786777997,53.91931396778091 100.34779941017041,54.150506562386 100.47904447058681,54.29913014538033 100.67591206124052,54.51380833942676 100.84653063985752,54.7449998246957 101.03027372446377,54.99270450879703 101.1877677969751,55.240408697660314 101.27963933930732,55.389030973339686 101.35838637559209,55.57068017920392 101.51588044810342,55.81838321261603 101.67337452055654,56.03305877436651 101.87024211126845,56.33030124580546 102.02773618383799,56.611029591818806 102.17210575030185,56.825703780254116 102.31647531676572,57.089917655379395 102.46084488322958,57.337617651654 102.64458796789404,57.634856993550784 102.80208204040537,57.91558238396101 102.99894963111728,58.196307138314296 103.16956820967607,58.460518090862024 103.34018678829307,58.74124161062355 103.53705437888857,59.05499067423807 103.72079746355303,59.35222589637851 103.90454054821748,59.63294739599223 104.07515912671806,59.91366825954901 104.20640418719267,60.17787555021641 104.3638982596458,60.409056467447954 104.49514332017861,60.607211196023854 104.65263739268994,60.871417007932905 104.82325597124873,61.15213506578584 104.94137652567588,61.33377582318644 105.12511961028213,61.5814673359273 105.30886269488838,61.845671070543176 105.46635676745791,62.10987424177438 105.59760182787431,62.357564203222864 105.76822040649131,62.65479150346073 105.9388389850501,62.968530658021336 106.13570657570381,63.29878154150356 106.26695163612021,63.496931649104226 106.47694373287959,63.84369357502146 106.66068681748584,64.10789248626679 106.81818088999717,64.35557845406584 106.96255045651924,64.61977627396118 107.14629354112549,64.90048584050237 107.33003662573174,65.19770704129041 107.50065520429052,65.51143975766172 107.6450247708126,65.79214730435342 107.776269831229,66.08936636654835 107.93376390379854,66.40309682554653 108.05188445810927,66.70031442243635 108.1437560004415,67.04706738448294 108.18312951858388,67.22869950122549 108.13063149445225,67.39381937629514 108.03875995212002,67.525915117978 108.06500896421494,67.4763792313388 108.19625402463134,67.44335529595992 108.3143745790585,67.6084748850044 108.40624612139072,67.85615385611891 108.49811766360654,68.12034421302815 108.60311371204443,68.43406953031808 108.73435877240263,68.76430584841 108.83935482078232,69.09454128646757 108.94435086916201,69.3917524283388 109.00997339939931,69.6229161569936 109.14121845981572,69.90361439063417 109.24621450819541,70.18431198853796 109.3512105565751,70.44849738223274 109.45620660489658,70.71268221276114 109.49558012303896,70.91082046606607 109.56120265327627,71.19151578265883 109.66619870165596,71.47221046352934 109.77119474997744,71.76941590321803 109.86306629225146,72.05010927515104 109.95493783458369,72.33080201133271 110.05993388296338,72.62800539196178 110.1518054252956,72.8756743314807 110.26992597966455,73.17287640545692 110.37492202798603,73.43705542851967 110.47991807636572,73.71774502342305 110.59803863079287,74.03145617140399 110.70303467911435,74.27912230618676 110.8211552335415,74.55980999403982 110.87365325767314,74.74143110036675 110.99177381210029,74.97258485074417 111.08364535437431,75.10467251455702 111.1230188725749,75.25327096802357 111.08364535437431,75.4679128640928 110.95240029395791,75.59999999999854 110.79490622144658,75.41838015188841 110.63741214887705,75.20373817002837 110.4536690642708,74.9230519405537 110.23055246158037,74.65887608504272 109.95493783458369,74.34516652525053 109.67932320764521,74.09750052241725 109.44308209890733,73.86634513986792 109.20684099005302,73.61867818014434 108.98372438730439,73.37101072555379 108.77373229060322,73.15636519783584 108.49811766360654,72.89218557648564 108.24875204876298,72.66102794586186 107.99938643397763,72.39684726860287 107.75002081913408,72.16568871409982 107.51377971033799,71.91801835579099 107.21191607130459,71.67034750249877 106.97567496250849,71.48872189549729 106.70006033562822,71.35663037778431 106.35882317845244,71.22453871930338 106.01758602127666,71.15849283723946 105.702597876254,71.12546988300892 105.37448522512568,71.04291245895729 105.0988705981872,70.97686648011586 104.77075794705888,70.91082046606607 104.45576980203623,70.8447744168443 104.15390616300283,70.8282628990637 103.81266900582705,70.7291937459886 103.4976808608044,70.6466360579143 103.35331129422411,70.61361296733958 103.16956820967607,70.56407831488468 102.97270061902236,70.53105520225654 102.76270852226298,70.49803208090452 102.57896543765673,70.48152051684883 102.39522235305049,70.46500895061763 102.2246037744917,70.41547423882002 102.00148717174307,70.34942792558286 101.77837056893623,70.29989316756837 101.6208764964831,70.2338467927475 101.3846353876288,70.18431198853796 101.13526977284346,70.06873070170695 100.79403261566767,69.93663767044927 100.43967095244443,69.80454449838726 100.20342984364834,69.73849785961647 99.84906818042509,69.63942783537641 99.5472045413917,69.54035773197393 99.21909189032158,69.44128754934354 98.86473022709833,69.3422172874998 98.5103685639333,69.27617040228506 98.2085049248999,69.14407652627415 97.88039227382978,69.07802953545615 97.52603061060654,68.94593544826057 97.22416697157314,68.83035300638585 97.04042388696689,68.74779405338631 96.72543574194424,68.64872323719464 96.43669660890009,68.54965234176052 96.12170846381923,68.40104585010704 95.79359581274912,68.21941545166192 95.49173217377393,68.02127289516648 95.18986853468232,67.80661810148013 94.94050291983876,67.50940315798653 94.75675983523251,67.22869950122549 94.63863928080536,66.96450724344322 94.58614125667373,66.78287473954697 94.4286471841624,66.56821780074824 94.29740212368779,66.32053625543631 94.1924060753663,66.17192709064693 94.0611610149499,65.89122040430084 93.90366694238037,65.5774886494255 93.71992385777412,65.24724383883586 93.56242978520459,64.8674612185714 93.36556219449267,64.48767743441567 93.18181910988642,64.07486765318026 93.01120053138584,63.77764375917468 92.8537064588163,63.46390665315266 92.69621238624677,63.10063111700583 92.52559380774619,62.720841917791404 92.34185072308173,62.32453890363831 92.15810763853369,61.94474732575327 91.9481155417161,61.548441829487274 91.79062146920478,61.201673480609315 91.58062937250361,60.82187846110173 91.41001079400303,60.44208227756462 91.2525167214335,60.06228492988157 91.06877363682725,59.68248641811806 90.92440407036338,59.36873894336895 90.7800345038413,59.05499067423807 90.6487894433667,58.84032034812117 90.54379339504521,58.52657074097806 90.42567284061806,58.16328072962642 90.30755228619091,57.783476397104096 90.22880524990615,57.403670900348516 90.17630722577451,57.10643100390007 90.12380920158466,56.759650223408244 90.07131117739482,56.34681469552015 90.03193765931064,55.93397779206134 90.00568864715751,55.60370727891859 89.96631512901513,55.27343588547956 89.88756809278857,54.91013633576222 89.91381710488349,54.57986309347325 89.88756809278857,54.20004777649592 89.87444358679932,53.86977264141751 89.90069259883603,53.52298280203104 89.91381710488349,53.17619199199544 89.90069259883603,52.77985844908835 89.83507006859872,52.43306555905292 89.76944753841963,52.086271698295604 89.73007402027724,51.67342059846851 89.71694951422978,51.34313872807252 89.70382500818232,50.963313488631684 89.66445149003994,50.69908654830215 89.59882895980263,50.38531632482773 89.57257994776592,49.972459556913236 89.6775759960874,49.5596014132243 89.70382500818232,49.229313907671894 89.70382500818232,48.932054399861954 89.71694951422978,48.71736653394328 89.75632303237217,48.56873625501612 89.70382500818232,48.304504207742866 89.66445149003994,48.02375704005681 89.63820247794501,47.70998004091234 89.6119534659083,47.37968760433432 89.58570445381338,47.03287959819863 89.55945544166025,46.752129548825906 89.48070840537548,46.35577545481647 89.45445939333877,45.97593492483429 89.4413348872913,45.57957834751869 89.40196136914892,45.23276530217845 89.36258785100654,44.935496204816445 89.32321433292236,44.621711383726506 89.3100898268749,44.4235310872682 89.32321433292236,44.07671480555291 89.32321433292236,43.72989755287563 89.3100898268749,43.39959450479364 89.28384081472177,43.11883622152527 89.23134279059013,42.7720162872356 89.19196927244775,42.44171068518335 89.20509377849521,42.09488885513565 89.23134279059013,41.79761222801608 89.20509377849521,41.41775772190158 89.1394712482579,41.120479469842394 89.12634674221044,40.72410735734593 89.10009773017373,40.41031186879991 89.1394712482579,40.26167162312777 89.1394712482579,40.07999996952276 89.11322223616298,39.79923416267411 89.10009773017373,39.55149909872125 89.06072421197314,39.237700639838295 88.99510168179404,38.95693292388023 88.95572816365166,38.56055388853565 88.9426036576042,38.23023705686501 88.9426036576042,37.866887524673075 88.91635464550927,37.48702096510533 88.89010563341435,37.18973327984713" stroke="#4DD2FF" stroke-dasharray="none" stroke-linecap="round" stroke-linejoin="round" stroke-width="0.5"><title>2017-11-19 11.8km</title><desc>9223370525802103807</desc></polyline><polyline fill="none" opacity="0.5" points="187.5999999998603,62.8266719445819 187.54138398938812,63.73016605316661 187.5999999998603,64.425160632818 187.5999999998603,65.53715035278583 187.5999999998603,66.0236452333047 187.36553595680743,66.92713472119067 187.07245590235107,67.90012193983421 185.95875169616193,68.10861900402233 185.255359566072,68.17811800987693 184.4933514248114,67.96962096903007 183.49687924026512,68.10861900402233 182.55902306665666,68.10861900402233 181.62116689281538,68.17811800987693 180.56607869756408,68.10861900402233 179.8040705563035,67.96962096903007 178.9834464045707,67.96962096903007 178.22143826354295,67.96962096903007 177.3421981006395,67.76112385862507 176.52157394844107,66.99663385830354 175.5837177745998,66.92713472119067 174.82170963380486,66.85763557621976 173.88385345996358,66.57963891886175 173.1218453189358,66.7186372630531 172.3012211669702,66.64913809474092 171.36336499336176,66.7186372630531 170.54274084139615,66.51013973512454 169.6635006784927,66.64913809474092 168.72564450465143,66.78813642339082 167.72917232010514,66.44064054382034 166.90854816813953,66.30164213792887 166.20515603781678,66.16264370107092 165.384531886084,66.16264370107092 164.62252374505624,65.88464673480485 163.7432835821528,65.88464673480485 162.9226594301872,65.74564820510568 162.21926729986444,65.95414598792559 160.98833107203245,65.39815174596151 159.99185888725333,65.25915310822893 159.05400271364488,65.18965377786662 157.99891451839358,65.25915310822893 157.58860244229436,65.32865243108245 156.47489823610522,65.60664964455646 155.0681139754597,64.98115574021358 154.07164179091342,64.14716289372882 153.19240162800997,64.35566120949807 152.19592944346368,64.00816397793824 151.3166892810259,63.869165030890144 150.61329715070315,64.00816397793824 149.9099050203804,63.7996655459865 149.20651289005764,63.52166752866469 148.3272727271542,63.59116704465123 147.56526458612643,63.938664508285 146.27571234712377,63.52166752866469 145.57232021703385,63.1046702710446 145.22062415187247,62.34017457580194 144.75169606506824,61.575677945744246 144.6930800541304,60.463681178574916 144.81031207600608,59.49068238417385 144.81031207600608,58.378681907604914 144.6930800541304,57.40567986789392 144.6930800541304,56.0851746769622 144.51723202154972,55.39017082436476 144.39999999990687,54.34766359644709 144.6344640434254,53.37465528177563 144.6344640434254,52.540646949375514 144.8689280867111,51.845639155537356 144.6930800541304,50.942127868242096 144.98616010835394,49.96911425224971 144.92754409764893,48.92659798276145 145.10339213022962,48.30108738626586 145.16200814116746,47.05006431584479 145.10339213022962,45.93804170633666 145.16200814116746,44.9650203002966 145.22062415187247,44.20050241862191 145.39647218445316,43.296980080136564 145.57232021703385,42.32395456265658 145.39647218445316,41.3509275301476 145.39647218445316,40.65590729378164 145.27924016257748,39.821881990123075 145.39647218445316,40.65590729378164 145.39647218445316,41.3509275301476 145.57232021703385,42.32395456265658 145.39647218445316,43.296980080136564 145.22062415187247,44.20050241862191 145.16200814116746,44.9650203002966 145.10339213022962,45.93804170633666 145.16200814116746,47.05006431584479 145.10339213022962,48.30108738626586 144.92754409764893,48.92659798276145 144.98616010835394,49.96911425224971 144.6930800541304,50.942127868242096 144.8689280867111,51.845639155537356 144.6344640434254,52.540646949375514 144.6344640434254,53.37465528177563 144.39999999990687,54.34766359644709 144.51723202154972,55.39017082436476 144.6930800541304,56.0851746769622 144.6930800541304,57.40567986789392 144.81031207600608,58.378681907604914 144.81031207600608,59.49068238417385 144.6930800541304,60.463681178574916 144.75169606506824,61.575677945744246 145.22062415187247,62.34017457580194 145.57232021703385,63.1046702710446 146.27571234712377,63.52166752866469 147.56526458612643,63.938664508285 148.3272727271542,63.59116704465123 149.20651289005764,63.52166752866469 149.9099050203804,63.7996655459865 150.61329715070315,64.00816397793824 151.3166892810259,63.869165030890144 152.19592944346368,64.00816397793824 153.19240162800997,64.35566120949807 154.07164179091342,64.14716289372882 155.0681139754597,64.98115574021358 156.47489823610522,65.60664964455646 157.58860244229436,65.32865243108245 157.99891451839358,65.25915310822893 159.05400271364488,65.18965377786662 159.99185888725333,65.25915310822893 160.98833107203245,65.39815174596151 162.21926729986444,65.95414598792559 162.9226594301872,65.74564820510568 163.7432835821528,65.88464673480485 164.62252374505624,65.88464673480485 165.384531886084,66.16264370107092 166.20515603781678,66.16264370107092 166.90854816813953,66.30164213792887 167.72917232010514,66.44064054382034 168.72564450465143,66.78813642339082 169.6635006784927,66.64913809474092 170.54274084139615,66.51013973512454 171.36336499336176,66.7186372630531 172.3012211669702,66.64913809474092 173.1218453189358,66.7186372630531 173.88385345996358,66.57963891886175 174.82170963380486,66.85763557621976 175.5837177745998,66.92713472119067 176.52157394844107,66.99663385830354 177.3421981006395,67.76112385862507 178.22143826354295,67.96962096903007 178.9834464045707,67.96962096903007 179.8040705563035,67.96962096903007 180.56607869756408,68.10861900402233 181.62116689281538,68.17811800987693 182.55902306665666,68.10861900402233 183.49687924026512,68.10861900402233 184.4933514248114,67.96962096903007 185.255359566072,68.17811800987693 185.95875169616193,68.10861900402233 187.07245590235107,67.90012193983421 187.36553595680743,66.92713472119067 187.5999999998603,66.0236452333047 187.5999999998603,65.53715035278583 187.5999999998603,64.425160632818 187.54138398938812,63.73016605316661 187.5999999998603,62.8266719445819 187.5999999998603,62.06217590958113 187.48276797845028,61.08917960344115 187.42415196751244,60.3941813147394 187.5999999998603,59.83818212756887 187.36553595680743,59.00418241909938 187.42415196751244,58.309181812102906 187.42415196751244,57.127679006778635 187.42415196751244,56.36317600152688" stroke="#4DD2FF" stroke-dasharray="1,0.5" stroke-linecap="round" stroke-linejoin="round" stroke-width="0.5"><title>2014-03-22 10.5km</title><desc>9223370641410674807</desc></polyline><polyline fill="none" opacity="1" points="55.600000000034925,99.42066159325623 55.474474743008614,99.42066159325623 55.33929369691759,99.42066159325623 55.184801072929986,99.39715879423602 55.05927581584547,99.44416438657208 54.91443898080615,99.4559157811309 54.78891372377984,99.52642411841953 54.65373267774703,99.56167826781893 54.51855163165601,99.57342964813142 54.3833705856232,99.51467273242451 54.23853375064209,99.47941856588295 54.11300849355757,99.56167826781893 54.016450603550766,99.56167826781893 53.89092534646625,99.54992688610946 53.74608851142693,99.54992688610946 53.61090746539412,99.52642411841953 53.514349575387314,99.44416438657208 53.4081358963158,99.44416438657208 53.30192221730249,99.44416438657208 53.157085382263176,99.47941856588295 53.021904336230364,99.47941856588295 52.896379079145845,99.47941856588295 52.770853822119534,99.46766717420542 52.62601698702201,99.44416438657208 52.50049173005391,99.4559157811309 52.3653106840211,99.46766717420542 52.220473848923575,99.4559157811309 52.104604380903766,99.46766717420542 51.99839070189046,99.46766717420542 51.853553866792936,99.47941856588295 51.74734018777963,99.46766717420542 51.62181493075332,99.43241299063811 51.4962896736688,99.4089101944337 51.370764416700695,99.43241299063811 51.245239159616176,99.4559157811309 51.14868126960937,99.4559157811309 50.994188645563554,99.42066159325623 50.87831917748554,99.4089101944337 50.77210549847223,99.4089101944337 50.65623603045242,99.39715879423602 50.5113991953549,99.4089101944337 50.366562360315584,99.4089101944337 50.25069289235398,99.43241299063811 50.11551184626296,99.39715879423602 50.009298167191446,99.39715879423602 49.87411712115863,99.39715879423602 49.758247653138824,99.38540739260498 49.61341081809951,99.36190458505007 49.48788556101499,99.33840177180537 49.323737147962674,99.36190458505007 49.17890031298157,99.36190458505007 49.04371926689055,99.38540739260498 48.88922664284473,99.37365598955512 48.77335717482492,99.37365598955512 48.66714349575341,99.36190458505007 48.5416182387271,99.38540739260498 48.42574877070729,99.37365598955512 48.30022351362277,99.36190458505007 48.16504246764816,99.37365598955512 48.05882878857665,99.37365598955512 47.923647742543835,99.37365598955512 47.798122485517524,99.4089101944337 47.682253017497715,99.39715879423602 47.5663835494197,99.4089101944337 47.431202503386885,99.39715879423602 47.29602145735407,99.39715879423602 47.180151989276055,99.39715879423602 47.04497094324324,99.39715879423602 46.938757264229935,99.39715879423602 46.822887796210125,99.39715879423602 46.70701832813211,99.39715879423602 46.562181493092794,99.37365598955512 46.43665623606648,99.33840177180537 46.311130978981964,99.36190458505007 46.17594993294915,99.35015317915531 46.031113097968046,99.33840177180537 45.90558784088353,99.35015317915531 45.780062583857216,99.35015317915531 45.654537326830905,99.38540739260498 45.529012069746386,99.37365598955512 45.393831023713574,99.36190458505007 45.25864997768076,99.35015317915531 45.13312472065445,99.35015317915531 45.00759946356993,99.32665036302933 44.853106839582324,99.33840177180537 44.74689316051081,99.31489895287086 44.602056325471494,99.32665036302933 44.45721949043218,99.32665036302933 44.33169423334766,99.35015317915531 44.186857398366556,99.31489895287086 44.042020563269034,99.2796447138171 43.89718372822972,99.2796447138171 43.76200268219691,99.25614188065083 43.6364774251706,99.24439046192128 43.501296379137784,99.25614188065083 43.40473848907277,99.25614188065083 43.26955744303996,99.2796447138171 43.15368797496194,99.31489895287086 43.03781850694213,99.33840177180537 42.89298167190282,99.33840177180537 42.767456414876506,99.33840177180537 42.641931157850195,99.31489895287086 42.52606168977218,99.31489895287086 42.41984801075887,99.33840177180537 42.265355386713054,99.32665036302933 42.149485918693244,99.31489895287086 42.023960661608726,99.33840177180537 41.898435404582415,99.31489895287086 41.772910147556104,99.29139612827566 41.62807331251679,99.29139612827566 41.51220384443877,99.2796447138171 41.39633437641896,99.26789329793246 41.24184175237315,99.23263904179476 41.11631649528863,99.2796447138171 40.96182387130102,99.25614188065083 40.8362986142165,99.24439046192128 40.7204291462549,99.25614188065083 40.57559231115738,99.25614188065083 40.44041126512457,99.24439046192128 40.314886008098256,99.24439046192128 40.16039338399423,99.25614188065083 40.054179704980925,99.26789329793246 39.90934286994161,99.29139612827566 39.8031291909283,99.22088762024214 39.65829235583078,99.22088762024214 39.54242288781097,99.22088762024214 39.40724184177816,99.20913619724888 39.27206079574535,99.22088762024214 39.15619132766733,99.24439046192128 39.02101028163452,99.20913619724888 38.895485024608206,99.22088762024214 38.760303978575394,99.19738477285864 38.62512293254258,99.19738477285864 38.509253464464564,99.18563334704231 38.403039785451256,99.13862762950157 38.277514528424945,99.13862762950157 38.151989271398634,99.1503790610077 38.00715243630111,99.17388191977807 37.8816271792748,99.16213049108774 37.76575771125499,99.20913619724888 37.64023245417047,99.20913619724888 37.48573983012466,99.20913619724888 37.360214573156554,99.22088762024214 37.234689316072036,99.18563334704231 37.118819848052226,99.18563334704231 37.01260616898071,99.19738477285864 36.8774251229479,99.18563334704231 36.732588287908584,99.19738477285864 36.60706303088227,99.16213049108774 36.45257040683646,99.1503790610077 36.35601251677144,99.16213049108774 36.22083147073863,99.16213049108774 35.93115780066,99.17388191977807 35.65113991958788,99.1503790610077 35.48699150653556,99.09162188917253 35.11041573539842,99.19738477285864 34.79177469830029,99.17388191977807 34.56003576220246,99.10337332639028 34.347608404117636,99.10337332639028 34.09655789000681,99.05636756905005 33.913097898999695,99.06811901050969 33.63308001786936,99.06811901050969 33.372373714868445,99.19738477285864 33.121323200757615,99.1268761965548 32.821993741672486,99.26789329793246 29.123826553463005,99.05636756905005 28.882431828358676,98.97410743886576 28.66034868132556,99.02111323605641 28.332051855220925,99.05636756905005 28.0616897631553,98.97410743886576 27.752704515005462,98.92710161886498 27.520965578965843,98.89184723895596 24.373178363894112,98.92710161886498 24.093160482821986,98.90359870037355 23.774519445723854,98.88009577611956 23.542780509626027,98.91535016032867 23.32069736259291,98.84484137914114 23.01171211444307,98.80958696935704 22.72203844442265,98.85659284621215 22.442020563292317,98.84484137914114 20.01841752353357,98.82133844069176 19.661153330409434,98.84484137914114 19.468037550337613,98.84484137914114 19.284577559272293,98.83308991064405 19.216987036226783,98.82133844069176 19.043182834226172,98.77433254673088 18.840411265089642,98.82133844069176 18.62798390700482,98.80958696935704 18.444523915997706,98.73907811137178 18.22244076890638,98.72732663004717 17.98104604386026,98.72732663004717 17.72999552974943,98.79783549658896 17.633437639742624,98.68032069054607 16.513366115337703,98.78608402237296 16.271971390291583,98.73907811137178 16.07885561021976,98.73907811137178 15.789181940141134,98.72732663004717 15.518819848017301,98.7508295912412 15.26776933396468,98.7508295912412 14.987751452834345,98.76258106969908 14.746356727788225,98.69207217753865 14.504962002683897,98.72732663004717 14.282878855592571,98.69207217753865 13.964237818552647,98.70382366314152 13.780777827487327,98.6568177122681 13.43316942336969,98.71557514728192 13.095216808258556,98.66856920214195 12.979347340238746,98.73907811137178 13.037282074219547,98.99761034029507 13.027626285271253,99.16213049108774 13.066249441239052,99.43241299063811 12.911756817193236,99.51467273242451 12.853822083212435,99.31489895287086 12.766919982153922,99.16213049108774 12.602771569101606,99.22088762024214 12.477246312075295,99.4559157811309 12.400000000023283,99.5851810270251 12.428967367042787,99.89071637848247 12.477246312075295,100.17274815701239 12.535181046114303,100.4430278424552 12.593115780095104,100.73680925567896 12.641394725127611,101.01883857589564 12.708985248114914,101.2303600282903 12.728296826186124,101.43012986564281 12.74760840414092,101.65340155032754 12.776575771160424,101.94717930039769 12.824854716134723,102.18220086025394 12.834510505199432,102.44072391888767 12.824854716134723,102.72274828859372 12.882789450173732,102.99302087398974 12.853822083212435,103.27504363909247 12.911756817193236,103.5335637872995 12.853822083212435,103.8155849820032 12.892445239180233,104.07410369071295 12.795887349115219,104.33262171098613 12.844166294147726,104.57938826990721 12.853822083212435,104.80265271128883 12.81519892718643,105.04941807543946 12.834510505199432,105.27268143580295" stroke="#4DD2FF" stroke-dasharray="none" stroke-linecap="round" stroke-linejoin="round" stroke-width="0.5"><title>2013-12-10 10.9km</title><desc>9223370650177580807</desc></polyline><polyline fill="none" opacity="1" points="110.55819190572947,94.11900266655721 110.79815081134439,90.90817924076691 110.55819190572947,88.2811387181282 109.1184384636581,85.07030752976425 105.99897267390043,83.02704909676686 102.1596301626414,80.6918944849167 98.80020546540618,80.6918944849167 96.40061639528722,81.85947207268327 93.28115060459822,83.90273149451241 91.12152044195682,88.2811387181282 91.12152044195682,91.78385877958499 89.92172590829432,95.87035909830593 89.4418080933392,98.49739136477001 88.48197246622294,102.58388032088988 88.7219313737005,106.37847101641819 88.00205465313047,109.29738287813962 88.00205465313047,113.09196302411146 88.00205465313047,116.01086677075364 89.20184918679297,118.34598722797818 91.60143825691193,121.84866367932409 94.48094513919204,123.01622136775404 98.32028765138239,123.60000000009313 101.91967125423253,122.43244259478524 103.8393425103277,119.80543636670336 106.47889048792422,117.47031732159667 108.15860283561051,113.38385355728678 108.15860283561051,110.17305574938655 109.35839737113565,106.08657963620499 109.83831518515944,102.87577212415636 110.55819190572947,99.08117592497729 111.51802753377706,94.70278828428127 111.51802753377706,92.07575188926421 111.27806862723082,87.69735154649243 110.07827409170568,84.19462555623613 108.6385206496343,81.85947207268327 105.27909595239908,80.98378893476911 102.87950688321143,80.4000000001397 99.04016437195241,80.6918944849167 95.92069858126342,82.44326065597124 92.80123279150575,85.36220145085827 90.40164372138679,88.57303225062788 90.16168481484056,92.36764496355318 89.68176699988544,95.87035909830593 89.20184918679297,99.37306815129705 88.48197246622294,102.58388032088988 88.48197246622294,106.37847101641819 88.00205465313047,110.17305574938655 88.48197246622294,113.96763451839797 88.96189027931541,117.47031732159667 91.12152044195682,119.80543636670336 94.00102732609957,121.55677416943945 97.3604520233348,122.43244259478524 101.19979453459382,122.1405531547498 105.03913704585284,119.51354661001824 107.43872611504048,117.17842728225514 108.15860283561051,112.80007245577872 108.87847955618054,108.71360078873113 109.35839737113565,104.33523061382584 109.83831518515944,100.83252875739709 110.55819190572947,97.62171426019631 111.99794534686953,93.53521690587513 111.51802753377706,90.03249938436784 111.51802753377706,86.52977678109892" stroke="#4DD2FF" stroke-dasharray="none" stroke-linecap="round" stroke-linejoin="round" stroke-width="0.5"><title>2013-11-30 10.3km</title><desc>9223370651086224807</desc></polyline><polyline fill="none" opacity="1" points="174.8219303302467,83.42677830182947 173.01230359636247,82.6012937091291 170.2978634936735,83.15161680453457 168.2620334168896,83.15161680453457 165.32138997409493,82.6012937091291 162.1545431893319,82.6012937091291 162.38074653036892,83.7019397658296 160.34491645358503,85.07774658850394 156.27325630094856,88.93000126630068 157.17806966789067,92.23192865797319 156.49945964291692,95.80901126144454 156.27325630094856,100.76188558526337 156.49945964291692,104.06379581429064 153.55881619919091,107.36570125445724 154.46362956706434,109.8421271899715 155.82084961794317,112.31855043233372 155.82084961794317,116.17075901036151 156.49945964291692,118.37201812700368 157.40427300985903,119.47264688764699 159.44010308664292,122.22421646025032 162.83315321430564,122.22421646025032 166.67861002590507,123.60000000009313 167.58342339284718,121.6739028126467 171.20267686247826,119.74780399515294 174.8219303302467,115.89560147118755 175.72674369905144,114.51981327589601 177.53637043293566,112.04339242749847 176.85776040703058,106.8153840135783 176.17915038205683,105.71474913298152 176.4053537240252,101.86252286075614 177.762573774904,96.90965093066916 177.762573774904,95.80901126144454 176.17915038205683,92.78224942437373 178.44118379987776,90.30580492829904 176.85776040703058,89.20516206463799 175.2743370141834,86.72871367656626 173.23850693926215,83.7019397658296 171.4288802035153,83.15161680453457 168.4882367597893,80.4000000001397 163.9641699232161,82.6012937091291 160.79732313752174,85.90323028201237 157.85667969379574,88.93000126630068 156.72566298395395,90.85612616012804 156.49945964291692,95.25869122636504 158.0828830357641,99.38608824228868 156.27325630094856,102.96315960329957 155.36844293307513,105.43959032977 156.0470529589802,107.64085982413962 155.1422395920381,110.6676019039005 155.36844293307513,113.69433995871805 155.36844293307513,117.27138883504085 157.40427300985903,118.64717536675744 160.118713112548,120.57327511627227 163.5117632402107,121.94905965286307 166.4524066830054,122.77452997583896 169.61925346869975,122.22421646025032 172.3336935704574,120.02296106843278 174.8219303302467,117.27138883504085 176.4053537240252,113.41918211965822 176.63155706506222,110.3924436995294 176.85776040703058,107.36570125445724 176.85776040703058,104.06379581429064 176.17915038205683,100.76188558526337 176.85776040703058,97.45997056690976 177.08396374993026,94.70837105903774 177.98877711594105,91.40644725854509 177.53637043293566,88.37967956834473 176.17915038205683,85.62806908367202 174.3695236472413,83.7019397658296 172.3336935704574,82.87645527347922 169.16684678569436,82.05097048147582 166.4524066830054,82.05097048147582 163.28555989731103,83.7019397658296 161.47593316342682,84.25226259441115 159.44010308664292,86.45355257811025 157.85667969379574,88.37967956834473 157.63047635182738,91.40644725854509 156.72566298395395,95.25869122636504 157.17806966789067,98.28544977051206 156.49945964291692,102.13768209633417 156.49945964291692,104.06379581429064 156.0470529589802,108.46633533574641 154.68983290810138,112.31855043233372 155.1422395920381,116.17075901036151 156.49945964291692,118.09686085442081 160.34491645358503,119.19748974777758 163.5117632402107,121.3987459379714 166.67861002590507,121.3987459379714 170.07166015263647,119.74780399515294 172.3336935704574,118.09686085442081 174.14332030527294,115.07012865296565 175.72674369905144,111.21791821252555 175.50054035615176,107.64085982413962 176.17915038205683,104.33895478351042 176.17915038205683,100.76188558526337 176.85776040703058,97.45997056690976 177.08396374993026,93.6077303243801 178.21498045884073,89.48032283014618 177.08396374993026,87.55419677193277 175.04813367314637,85.62806908367202 172.3336935704574,83.97710119653493 168.2620334168896,82.87645527347922 164.64277994912118,83.15161680453457 161.9283398464322,84.80258529004641 159.21389974374324,87.27903577359393 158.0828830357641,90.0306442619767 157.63047635182738,92.78224942437373 156.49945964291692,96.90965093066916 156.72566298395395,100.21156674809754 156.72566298395395,102.41284129838459 156.27325630094856,105.9899079024326 156.27325630094856,110.11728546163067 155.5946462759748,113.41918211965822 156.72566298395395,116.17075901036151" stroke="#4DD2FF" stroke-dasharray="none" stroke-linecap="round" stroke-linejoin="round" stroke-width="0.5"><title>2013-11-16 10.4km</title><desc>9223370652294258807</desc></polyline><polyline fill="none" opacity="1" points="45.43256548140198,150.88776637450792 46.162303702905774,147.04118940443732 46.162303702905774,144.08227993012406 45.43256548140198,139.3480173314456 45.67581155523658,135.7973143735435 43.48659688886255,134.31785328662954 40.810890073888004,130.4712502779439 38.37842933367938,129.58357180282474 30.59455496352166,128.99178597261198 27.675602074712515,131.06303575029597 25.97287955507636,134.61374557600357 22.81068059336394,138.16445025079884 24.27015703730285,141.12336687929928 23.297172740101814,144.6740621116478 23.297172740101814,150.88776637450792 22.81068059336394,154.43844744330272 23.053926666267216,160.06034860108048 22.56743451859802,163.6110163643025 23.540418814867735,166.5699022328481 24.99989525973797,168.64112021238543 29.135078518651426,170.71233643963933 34.0,171.60000000009313 38.37842933367938,171.30411218269728 39.35141362901777,169.52878452418372 42.02712044399232,167.1616789775435 42.27036651875824,163.01923876185901 42.27036651875824,160.35623777890578 43.24335081502795,155.32611690624617 45.18931940756738,150.29598569567315 45.43256548140198,146.1535169382114 45.919057629071176,142.89871513913386 45.67581155523658,138.75623386260122 45.919057629071176,135.7973143735435 44.70282725803554,132.5424988034647 40.56764399912208,129.879464663798 36.91895288974047,128.99178597261198 33.270261778496206,128.99178597261198 29.378324592486024,130.4712502779439 26.7026177784428,132.24660626379773 25.486387407407165,136.38909855671227 23.783664888702333,141.12336687929928 23.783664888702333,144.08227993012406 23.540418814867735,146.74529861821793 22.81068059336394,150.88776637450792 23.053926666267216,154.73433729959652 22.81068059336394,157.69323389837518 23.053926666267216,162.72334990650415 24.02691096253693,165.09045974630862 26.459371704608202,167.1616789775435 31.081047111190856,171.00822432967834 34.972984296269715,171.00822432967834 38.62167540658265,169.82467255694792 40.810890073888004,168.64112021238543 43.48659688886255,165.38634831481613 44.216335110366344,162.72334990650415 43.973089036531746,158.58090218016878 44.459581185132265,153.8466676226817 45.43256548140198,150.88776637450792 46.162303702905774,147.33708015549928 46.162303702905774,143.7863887862768 46.405549777671695,139.64390901243314 45.919057629071176,135.7973143735435 43.72984296362847,132.5424988034647 41.054136148653924,130.4712502779439 36.91895288974047,128.4000000001397 33.270261778496206,128.99178597261198 29.864816741086543,130.4712502779439 26.7026177784428,131.95071368920617 24.02691096253693,134.90963782859035 23.297172740101814,140.23569226590917 23.540418814867735,143.7863887862768 23.053926666267216,147.33708015549928 24.51340311113745,150.88776637450792 22.81068059336394,156.50967568787746 22.080942370928824,160.35623777890578 22.81068059336394,164.2027938242536 23.053926666267216,166.27401380729862 26.7026177784428,168.64112021238543 29.621570666320622,170.12056055432186 34.486492147669196,170.71233643963933 37.89193718507886,170.12056055432186 41.054136148653924,168.64112021238543 43.24335081502795,165.68223684746772 43.973089036531746,162.13157208892517 44.94607333280146,158.58090218016878 45.43256548140198,155.0302271207329 45.67581155523658,151.77543712500483 46.162303702905774,148.81653337273747 46.405549777671695,145.26584414974786 46.89204192534089,139.3480173314456 46.405549777671695,135.7973143735435 44.70282725803554,133.13428377383389 41.54062829632312,130.4712502779439 38.864921481348574,129.2876789055299 34.0,128.69589300476946 31.081047111190856,129.58357180282474 28.40534029621631,130.76714303181507 25.97287955507636,133.13428377383389 24.99989525973797,134.31785328662954 24.27015703730285,135.7973143735435 25.486387407407165,139.3480173314456 25.243141333572567,140.82747537712567 24.756649184972048,144.9699531486258 23.297172740101814,149.1124239093624 22.56743451859802,152.3672174452804 22.080942370928824,157.39734439994209 21.10795807465911,159.46857014065608 21.837696296162903,160.94801602489315 23.297172740101814,163.90690511232242 25.97287955507636,165.68223684746772 28.40534029621631,168.93700835271738 31.56753925886005,169.82467255694792 32.78376962989569,170.41644851467572 37.64869111124426,171.60000000009313 40.56764399912208,170.71233643963933 42.513612592592835,168.04934382555075" stroke="#4DD2FF" stroke-dasharray="none" stroke-linecap="round" stroke-linejoin="round" stroke-width="0.5"><title>2013-11-03 10.7km</title><desc>9223370653417861807</desc></polyline><polyline fill="none" opacity="1" points="93.48911341652274,169.5840174248442 97.27726561017334,170.73600767669268 102.01245585177094,170.73600767669268 105.09032951015979,169.5840174248442 106.74764609336853,167.28003524802625 107.93144365400076,163.24806107999757 109.58876023907214,160.0800765901804 109.82551975175738,155.7600909504108 109.58876023907214,152.01609706040472 110.77255779877305,148.27209728653543 111.48283633589745,145.39209345774725 111.71959584765136,142.5120861462783 111.9563553603366,138.48007006268017 111.48283633589745,133.2960393568501 109.35200072731823,129.84001261997037 106.98440560605377,129.2640076763928 103.90653194859624,130.41601742454804 100.35513926763088,130.12801503995433 97.51402512192726,130.41601742454804 94.67291097715497,132.14403100241907 92.77883488032967,135.3120526385028 91.35827780794352,138.1920686531812 91.59503732062876,143.37608870584518 90.88475878350437,145.96809450211003 90.1744802473113,149.712097896263 89.46420171111822,153.4560954067856 88.51716366223991,155.7600909504108 88.28040415141732,159.2160800890997 88.28040415141732,162.96006266516633 89.70096122287214,167.28003524802625 92.77883488032967,169.5840174248442 97.27726561017334,171.31200259411708 100.59189877938479,171.60000000009313 104.3800509730354,170.16001262003556 107.69468414224684,167.28003524802625 108.16820316575468,162.6720642137807 110.29903877526522,158.06408426584676 110.53579828795046,154.60809345706366 110.53579828795046,151.44009747868404 110.77255779877305,147.1200961722061 111.00931731145829,142.80008703446947 112.19311487209052,139.0560727783013 112.42987438477576,135.3120526385028 110.29903877526522,132.7200352489017 108.87848170287907,130.41601742454804 105.80060804635286,128.9760051521007 102.01245585177094,128.4000000001397 98.22430365905166,129.2640076763928 94.90967048984021,129.84001261997037 89.70096122287214,133.8720433257986 88.99068268761039,135.0240508459974 88.99068268761039,136.46405946207233 90.1744802473113,139.63207535468973 89.93772073462605,143.66408948926255 88.51716366223991,147.69609680003487 88.51716366223991,150.57609784416854 87.57012561522424,154.32009399705566 87.57012561522424,157.48808614653535 87.80688512697816,160.65607408294454 87.57012561522424,163.5360594613012 89.22744219843298,166.7040393569041 91.35827780794352,169.00802208902314 94.19939195271581,169.87201503990218 97.9875441454351,169.5840174248442 102.01245585177094,168.72002436965704 106.51088658254594,166.99203731981106 108.40496267937124,164.4000543965958 110.29903877526522,160.65607408294454 109.82551975175738,156.62408870481886 110.29903877526522,152.59209650335833 110.53579828795046,149.13609775714576 110.77255779877305,145.39209345774725 111.00931731145829,141.93608426721767 112.19311487209052,139.34407408325933 111.9563553603366,135.3120526385028 109.35200072731823,132.7200352489017 106.74764609336853,130.70401977421716 102.72273438796401,129.55201016529463 99.6448607314378,129.2640076763928 95.8567085377872,130.41601742454804" stroke="#4DD2FF" stroke-dasharray="none" stroke-linecap="round" stroke-linejoin="round" stroke-width="0.5"><title>2013-11-02 10.5km</title><desc>9223370653505000807</desc></polyline><polyline fill="none" opacity="1" points="175.54437706060708,150.540104374988 176.65418834704906,147.0301024664659 176.65418834704906,144.33009724435396 176.87615060433745,142.4400916469749 176.2102638334036,139.20007833116688 175.54437706060708,134.88005326571874 173.32475448958576,131.1000244792085 172.21494320314378,130.29001747770235 168.88550934474915,128.94000515691005 166.2219622572884,128.94000515691005 162.6705661425367,130.56001984444447 159.78505679685622,132.45003549358808 157.5654342258349,135.15005507646129 156.01169842481613,138.12007284793071 156.45562293939292,142.98009340977296 156.67758519575,145.68010026379488 156.23366068210453,149.19010429433547 156.01169842481613,151.35010403278284 156.01169842481613,152.97010246641003 155.56777391023934,155.67009724397212 155.12384939659387,158.6400877290871 156.23366068210453,162.15007139416412 157.5654342258349,164.85005507571623 160.67290582694113,167.0100396713242 164.22430194169283,168.3600289823953 167.7756980592385,168.3600289823953 169.77335837297142,167.82003335561603 172.65886771772057,165.66004954348318 174.6565280323848,162.96006684168242 175.54437706060708,159.18008557590656 175.54437706060708,155.94009654247202 175.7663393188268,152.70010280935094 175.54437706060708,149.46010437584482 175.54437706060708,146.49010168295354 176.43222609069198,142.98009340977296 176.87615060433745,140.01008210144937 176.43222609069198,137.31006839242764 175.32241480425,134.34004954481497 173.99064126145095,132.72003759886138 170.4392451448366,130.56001984444447 167.7756980592385,128.4000000001397 165.3341132281348,129.48001018329524 162.0046793706715,130.8300221778918 159.78505679685622,132.45003549358808 158.67524551134557,135.69005860155448 158.2313209977001,138.12007284793071 157.7873964831233,141.63008875912055 156.45562293939292,144.33009724435396 156.01169842481613,146.76010209089145 156.23366068210453,150.81010429398157 157.7873964831233,154.32010026299395 154.90188713837415,155.13009854895063 155.12384939659387,156.21009580790997 154.45796262472868,157.56009164638817 154.90188713837415,163.23006525845267 160.22898131329566,166.20004569296725 165.77803774364293,167.55003549298272 167.1098112873733,167.55003549298272 169.10747160110623,167.55003549298272 171.77101868763566,168.3600289823953 173.99064126145095,164.0400603134185 174.6565280323848,162.96006684168242 174.8784902896732,160.5300796192605 175.54437706060708,159.18008557590656 173.54671674594283,158.91008666879497 174.8784902896732,158.10008975397795 176.2102638334036,155.94009654247202 175.9883015761152,150.81010429398157 176.2102638334036,149.46010437584482 175.7663393188268,146.2201012421865 176.2102638334036,142.1700907170307 175.7663393188268,136.7700652598869 175.32241480425,133.26004171161912 173.54671674594283,129.75001264712773 169.55139611661434,129.48001018329524 165.77803774364293,129.21000768686645 162.6705661425367,130.56001984444447 159.78505679685622,132.72003759886138 156.67758519575,133.26004171161912 156.45562293939292,137.58006991050206 156.23366068210453,140.55008445074782 156.01169842481613,144.0600965428166 154.90188713837415,147.57010311936028 155.34581165295094,151.62010385282338 155.12384939659387,155.13009854895063 154.90188713837415,159.18008557590656 154.90188713837415,161.61007426702417 158.45328325405717,165.66004954348318 164.00233968626708,168.63002674723975 166.44392451550812,169.98001507879235 169.32943385839462,171.60000000009313 173.32475448958576,167.82003335561603 175.1004525469616,162.69006839231588 175.54437706060708,159.7200832911767 175.54437706060708,158.6400877290871 175.1004525469616,153.24010209064 174.8784902896732,148.92010417976417 175.32241480425,146.2201012421865 175.54437706060708,142.98009340977296 177.09811286255717,138.93007700890303 175.7663393188268,135.96006031497382 174.43456577509642,134.34004954481497 172.88082997407764,130.8300221778918 170.21728288847953,130.02001507859677 166.0,129.75001264712773 162.0046793706715,130.56001984444447 159.78505679685622,130.8300221778918 156.89954745396972,132.72003759886138 154.90188713837415,135.69005860155448 154.67992488108575,138.39007426798344 155.34581165295094,139.7400808769744 154.23600036650896,142.71009254432283 154.67992488108575,145.95010076928884 154.90188713837415,147.57010311936028 154.45796262472868,150.27010442432947 154.90188713837415,153.78010124200955 154.67992488108575,157.02009340864606 154.90188713837415,161.34007565444335 157.5654342258349,166.20004569296725 161.7827171124518,168.63002674723975 163.11449065618217,168.3600289823953 166.0,169.98001507879235 167.99766031466424,169.1700221770443 171.1051319167018,171.33000259427354 173.32475448958576,168.63002674723975 174.8784902896732,162.42006990942173 173.99064126145095,158.37008875748143 175.1004525469616,151.35010403278284 174.8784902896732,147.0301024664659 174.8784902896732,145.68010026379488 176.43222609069198,142.98009340977296 177.76399963349104,140.82008557626978 177.09811286255717,136.7700652598869 175.32241480425,132.1800333559513 173.10279223136604,129.75001264712773 169.9953206302598,128.6700025945902 166.0,128.94000515691005 161.1168303405866,130.56001984444447 157.1215097112581,132.1800333559513 156.67758519575,133.53004371840507 155.56777391023934,134.61005142168142 155.78973616752774,137.04006684245542 156.01169842481613,138.6600756549742 156.23366068210453,142.1700907170307 156.23366068210453,143.5200950417202 156.23366068210453,147.84010339644738 156.01169842481613,149.19010429433547 155.12384939659387,151.62010385282338 155.78973616752774,155.13009854895063 154.90188713837415,156.21009580790997 155.12384939659387,161.07007700833492 156.23366068210453,162.15007139416412 156.23366068210453,163.50006364332512 158.45328325405717,165.66004954348318 162.6705661425367,168.63002674723975 167.1098112873733,170.52001018356532 170.4392451448366,169.710017477395 171.99298094585538,168.09003118495457 175.32241480425,163.77006199466996 174.8784902896732,159.18008557590656 174.43456577509642,152.97010246641003 176.2102638334036,152.1601033960469 176.65418834704906,147.3001028096769 176.87615060433745,146.49010168295354 175.9883015761152,142.71009254432283 176.87615060433745,138.93007700890303 175.54437706060708,134.34004954481497 173.54671674594283,132.1800333559513 172.21494320314378,128.94000515691005 166.2219622572884,129.21000768686645 162.0046793706715,130.02001507859677 159.34113228321075,132.1800333559513 157.3434719676152,134.34004954481497 156.23366068210453,136.50006364448927 156.89954745396972,138.39007426798344 157.1215097112581,140.01008210144937 156.89954745396972,143.5200950417202 156.01169842481613,144.6000979137607 155.56777391023934,147.0301024664659 156.23366068210453,148.65010403259657" stroke="#4DD2FF" stroke-dasharray="none" stroke-linecap="round" stroke-linejoin="round" stroke-width="0.5"><title>2013-10-26 11.1km</title><desc>9223370654110301807</desc></polyline><polyline fill="none" opacity="1" points="37.855130213312805,216.47371085267514 40.19157276768237,213.6316262029577 42.5280153201893,209.6527019208297 43.462592341937125,206.52639954793267 44.163525108247995,202.26325324806385 44.63081361912191,199.13694104878232 43.92988085281104,197.14746748516336 44.39716936275363,193.1685153071303 44.163525108247995,191.17903669271618 43.462592341937125,189.75797950988635 43.22894808650017,187.76849800907075 42.5280153201893,183.78952995873988 41.126149787567556,180.3789805562701 36.9205531924963,178.67370399925858 33.649533617310226,178.10527820512652 29.67758127581328,180.66319319489412 27.574782977811992,181.51583090610802 25.00469616893679,184.3579543782398 23.135542125441134,187.76849800907075 24.537407658062875,190.32640248560347 25.238340423442423,193.1685153071303 25.238340423442423,196.86325683817267 24.30376340262592,199.9895720607601 23.836474891752005,203.68430287321098 23.602830636315048,206.81060902611353 24.537407658062875,208.23165590292774 23.836474891752005,212.77900013769977 25.939273189753294,215.62108581862412 28.275715744122863,217.89475188939832 31.079446808435023,218.46316806343384 34.350466382689774,217.89475188939832 38.32241872418672,216.18950254260562 41.59343829937279,213.91583482245915 42.5280153201893,209.93691102182493 42.29437106475234,206.52639954793267 42.76165957655758,202.26325324806385 42.76165957655758,198.85273064253852 42.76165957655758,195.1579922370147 44.163525108247995,191.4632480267901 45.79903489537537,189.18955639493652 46.7336119171232,186.63165068160743 46.49996766075492,184.07374218595214 44.163525108247995,181.23161837016232 41.126149787567556,179.81055517448112 38.08877446874976,177.25263925665058 34.81775489449501,176.4000000001397 31.313091062940657,177.82106525660492 28.509359998628497,180.09476788225584 25.939273189753294,182.6526807071641 25.471984679810703,185.77901482582092 25.471984679810703,189.4737679695245 25.00469616893679,192.60009301709943 24.537407658062875,196.86325683817267 21.733676593750715,199.9895720607601 22.20096510462463,203.68430287321098 21.967320849187672,207.94744659680873 22.434609359130263,211.07374708005227 22.434609359130263,213.91583482245915 24.537407658062875,216.75791912851855 27.574782977811992,219.0315841003321 30.845802552998066,219.60000000009313 34.81775489449501,219.0315841003321 37.38784170243889,217.610543750925 41.126149787567556,215.90529419737868 42.060726810246706,213.6316262029577 43.69623659737408,210.22112008789554 44.163525108247995,206.81060902611353 44.163525108247995,203.1158831268549 44.63081361912191,199.70536175812595 45.33174638450146,195.4422030900605 45.565390639938414,192.0316705906298 46.03267915081233,189.18955639493652 45.79903489537537,185.49480280443095 44.864457874558866,181.80004340759479 42.76165957655758,179.24212965508923 39.72428425680846,178.10527820512652 36.21962042618543,177.53685227409005 32.7149565955624,177.53685227409005 29.443937021307647,178.95791684417054 25.939273189753294,181.23161837016232 24.537407658062875,184.07374218595214 25.238340423442423,188.33692146651447 23.836474891752005,191.74745932617225 23.602830636315048,194.58957042940892 23.602830636315048,198.28430972713977 21.967320849187672,201.69483315735124 22.434609359130263,206.52639954793267 22.20096510462463,209.3684927856084 23.602830636315048,212.21058258996345 24.537407658062875,215.90529419737868 25.471984679810703,217.610543750925 31.079446808435023,219.0315841003321 35.051399149000645,218.46316806343384 37.62148595787585,216.18950254260562 41.82708255387843,212.77900013769977 43.462592341937125,211.9263737637084 44.163525108247995,209.08428361662664 43.69623659737408,205.95798048726283 43.69623659737408,202.26325324806385 43.69623659737408,199.13694104878232 44.163525108247995,195.72641390911303 45.565390639938414,192.31588182109408 45.79903489537537,189.18955639493652 45.79903489537537,186.34743876405992 45.79903489537537,183.78952995873988 43.462592341937125,181.23161837016232 41.59343829937279,178.10527820512652 38.08877446874976,176.96842620545067 33.88317787181586,178.10527820512652 29.91122553125024,180.09476788225584 27.574782977811992,183.22110540163703 25.471984679810703,186.34743876405992 24.07011914718896,188.33692146651447 23.836474891752005,192.0316705906298 22.9018978709355,195.4422030900605 22.434609359130263,199.13694104878232 23.135542125441134,202.26325324806385 21.733676593750715,205.38956129038706 21.2663880828768,208.51586517505348 22.434609359130263,213.6316262029577 24.537407658062875,215.90529419737868 26.873850212432444,217.89475188939832 28.97664850950241,219.31579206697643 33.18224510550499,219.60000000009313 36.9205531924963,217.89475188939832 39.25699574500322,215.62108581862412 41.126149787567556,213.6316262029577" stroke="#4DD2FF" stroke-dasharray="none" stroke-linecap="round" stroke-linejoin="round" stroke-width="0.5"><title>2013-10-20 10.7km</title><desc>9223370654628121807</desc></polyline><polyline fill="none" opacity="1" points="88.27369845006615,195.14727178867906 88.05034032464027,198.13595284009352 87.3802659502253,200.58123438083567 86.71019157581031,203.84160563116893 86.71019157581031,207.37366914795712 87.3802659502253,210.36233394150622 89.83720532245934,213.0792984876316 92.51750282011926,214.9811717160046 95.42115844320506,217.42643493087962 99.21824656426907,217.6981306800153 102.56861843541265,217.42643493087962 106.14234843291342,216.06795569579117 109.26936217956245,213.8943872116506 110.83286905195564,211.17742365039885 111.05622717738152,208.18875993951224 111.50294342730194,205.20009225560352 111.94965967629105,201.1246299177874 112.61973405070603,198.13595284009352 113.06645030062646,195.41897022980265 113.28980842512101,192.70198433613405 112.84309217520058,188.89819856663235 112.61973405070603,186.1812047897838 110.38615280296654,182.92080792272463 108.82264592964202,179.6604063261766 105.91899030748755,177.75850321003236 102.79197656083852,176.67170070740394 99.88832093775272,176.67170070740394 96.31459094118327,177.48680263385177 92.96421907003969,179.6604063261766 90.50727969687432,182.92080792272463 89.61384719889611,185.90950523177162 89.61384719889611,188.89819856663235 88.94377282448113,192.15858676331118 88.72041469905525,196.23406535829417 87.60362407565117,199.49444291344844 88.05034032464027,202.4831181843765 86.93354970123619,206.2868809637148 89.39048907347023,208.73215363710187 90.28392157331109,211.9925130638294 92.07078657113016,215.52456377237104 94.30436781886965,217.42643493087962 97.8780978154391,218.7849133447744 101.67518593650311,219.60000000009313 104.57884155865759,217.96982639585622 107.03578093089163,215.25286776060238 109.04600405413657,212.8076021813322 110.60951092839241,209.81894063809887 110.38615280296654,207.64536611060612 111.05622717738152,204.65669770352542 111.27958530280739,201.6680253231898 111.50294342730194,198.67934896820225 112.1730178007856,196.23406535829417 112.61973405070603,191.88688792707399 112.61973405070603,188.62649933667853 111.27958530280739,183.19250784208998 109.492720304057,179.6604063261766 106.58906468190253,178.03020375361666 102.12190218642354,176.4000000001397 98.54817218892276,176.67170070740394 95.64451656676829,178.03020375361666 92.51750282011926,179.9321066394914 90.95399594679475,183.19250784208998 90.7306378223002,186.72460380778648 90.28392157331109,191.07179122348316 89.61384719889611,195.69066863902844 86.93354970123619,198.40765092079528 87.3802659502253,201.1246299177874 87.3802659502253,204.3850003783591 86.93354970123619,207.64536611060612" stroke="#4DD2FF" stroke-dasharray="none" stroke-linecap="round" stroke-linejoin="round" stroke-width="0.5"><title>2013-10-19 10.2km</title><desc>9223370654714312807</desc></polyline><polyline fill="none" opacity="1" points="155.81933728791773,199.72809728630818 155.1090584937483,203.47209162893705 155.1090584937483,206.64008224592544 154.3987797005102,210.38406572700478 154.87229889724404,213.26404901687056 157.23989487532526,215.856031000847 161.5015676394105,217.87201503897086 165.0529616093263,219.60000000009313 168.36759597994387,218.16001261910424 171.20871115475893,216.14402882475406 174.049826329574,213.55204715393484 174.76010512374341,210.38406572700478 175.70714351627976,206.06408426584676 175.23362432047725,202.03209450119175 175.47038391791284,197.71209789603017 175.70714351627976,194.83209580741823 176.41742231044918,190.8000870347023 177.36446070112288,187.05607277853414 175.94390311371535,183.0240508459974 174.76010512374341,180.14403100172058 171.20871115475893,177.55201016599312 167.18379798997194,176.39999999990687 163.39564442262053,177.55201016599312 160.31776964943856,179.2800243704114 158.66045246366411,182.44804715528153 157.4766544746235,185.32806421420537 157.23989487532526,187.92007659026422 156.76637568045408,191.6640894880984 155.81933728791773,195.12009617267177 155.1090584937483,198.28809789568186 154.87229889724404,201.45609540655278 154.87229889724404,205.48808614583686 155.34581809211522,209.23207143694162 157.00313527788967,212.97605084488168 158.1869332678616,214.99203731981106 161.028048443608,218.16001261910424 164.57944241166115,218.16001261910424 167.42055758740753,218.73600767576136 170.73519195895642,217.29601977346465 173.33954753633589,215.56803314224817 174.99686472211033,212.11205611890182 175.47038391791284,207.79207779001445 175.70714351627976,203.18409227347001 175.70714351627976,200.30409679887816 175.70714351627976,196.84809763496742 176.65418190788478,193.9680945011787 177.36446070112288,190.51208614674397 177.1277011046186,186.19206865271553 174.99686472211033,180.14403100172058 172.3925091456622,178.12801503925584 167.65731718577445,176.68800259334967 164.81620201002806,176.97600515233353 161.97508683428168,179.56802661530674 159.37073125783354,181.58404135890305 158.66045246366411,184.4640594618395 157.23989487532526,189.07208118587732 155.81933728791773,193.39209345704876 155.81933728791773,196.84809763496742 154.3987797005102,200.30409679887816 154.6355392979458,204.04809023649432 154.87229889724404,207.2160800884012 154.3987797005102,210.67206421284936 156.29285648372024,214.70403935597278 158.89721206203103,217.29601977346465 161.5015676394105,217.5840174241457 166.4735191958025,218.16001261910424 169.31463437061757,216.72002436965704 172.3925091456622,214.12804332445376 173.33954753633589,211.53605946153402 174.52334552630782,207.79207779001445 175.94390311371535,204.33608948858455 177.1277011046186,201.1680958061479 177.6012202994898,197.13609775644727 177.1277011046186,192.52809162973426 177.1277011046186,188.20807779114693 176.18066271208227,184.75206108111888 174.76010512374341,180.14403100172058 171.91898994892836,178.12801503925584 168.84111517574638,177.26400767685845 164.81620201002806,176.97600515233353 161.5015676394105,178.99202208942734 158.66045246366411,181.58404135890305 157.23989487532526,184.176057808334 157.9501736694947,187.63207535399124 156.76637568045408,192.24009095085785 157.23989487532526,196.27209728676826 156.76637568045408,200.01609705970623 155.81933728791773,203.47209162893705 156.05609688628465,207.5040789565537 155.34581809211522,210.0960672076326 156.52961608115584,212.68805263726972 157.9501736694947,215.856031000847 161.7383272368461,217.87201503897086 163.86916361842304,217.87201503897086 168.84111517574638,218.44801016524434 171.91898994892836,216.72002436965704" stroke="#4DD2FF" stroke-dasharray="none" stroke-linecap="round" stroke-linejoin="round" stroke-width="0.5"><title>2013-10-12 10.6km</title><desc>9223370655320152807</desc></polyline><polyline fill="none" opacity="1" points="43.748919318430126,252.35303240921348 43.98103644605726,249.24715643795207 43.748919318430126,247.27068776125088 43.516802191734314,243.8824518530164 44.44527069851756,242.18833205639385 45.141622078604996,237.38831929140724 44.677387826144695,234.28242342267185 43.284685065969825,231.45887813949957 42.58833368588239,228.63532944396138 42.58833368588239,226.65884332591668 41.19563092570752,227.2235538160894 38.64234253298491,225.81177733442746 34.00000000093132,224.4000000001397 30.98247735388577,225.2470665036235 27.96495470777154,226.65884332591668 26.34013482183218,230.6118138891179 25.411666315048933,234.0000690475572 25.643783441744745,236.25890308944508 24.251080681569874,240.77656461950392 24.251080681569874,243.31774539034814 23.55472930241376,247.83539326884784 24.251080681569874,250.94127111579292 24.483197808265686,255.17655243445188 24.018963554874063,258.8471233653836 22.858377922326326,262.51768852747045 24.94743206165731,263.3647412073333 28.42918896023184,265.6235468534287 31.678828733973205,267.60000000009313 34.696351380087435,267.60000000009313 38.874459659680724,265.90589740499854 41.42774805333465,263.92944282409735 43.748919318430126,260.8235822466668 44.677387826144695,257.1530144221615 44.90950495097786,252.63538456475362 43.748919318430126,248.96480387263 43.98103644605726,243.8824518530164 45.141622078604996,239.92950374865904 45.37373920623213,236.82361125876196 46.30220771115273,234.0000690475572 45.60585633199662,231.74123282171786 43.05256793834269,228.07061929488555 38.874459659680724,226.65884332591668 35.39270276017487,225.81177733442746 32.60729724075645,225.81177733442746 30.286125973798335,226.94119858834893 26.34013482183218,228.91768446774222 24.94743206165731,231.74123282171786 24.018963554874063,235.12948634149507 24.251080681569874,239.0824425695464 24.251080681569874,242.47068544104695 24.483197808265686,245.57657042192295 24.251080681569874,249.24715643795207 22.626260795630515,251.78832799429074 21.92990941554308,254.61184870218858 21.697792288847268,257.435365997022 22.626260795630515,260.25887987948954 23.78684642817825,262.51768852747045 25.411666315048933,265.34119626670144 28.42918896023184,266.75294885598123 31.678828733973205,266.75294885598123 36.55328839365393,267.60000000009313 39.57081103976816,264.7764949919656 41.42774805333465,262.2353375663515 43.748919318430126,258.56477195979096 43.98103644605726,254.61184870218858 43.98103644605726,251.22362344292924 45.141622078604996,247.55304053192958 45.83797345869243,244.16480503370985 45.60585633199662,241.05891817482188 45.60585633199662,238.5177349471487 46.07009058445692,235.12948634149507 45.37373920623213,232.30594208301045 44.44527069851756,229.76474933186546 43.05256793834269,226.94119858834893 40.03504529315978,225.2470665036235 36.55328839365393,225.2470665036235 32.60729724075645,225.2470665036235 28.89342321548611,225.81177733442746 26.804369075223804,228.07061929488555 24.483197808265686,231.74123282171786 24.94743206165731,234.28242342267185 24.94743206165731,237.6706732562743 23.55472930241376,242.18833205639385 23.55472930241376,246.14127633837052 24.251080681569874,247.55304053192958 23.32261217571795,251.22362344292924 22.626260795630515,253.2000887747854 23.090495048090816,256.588311167201 23.78684642817825,259.6941773761064 24.251080681569874,262.80003945552744 25.875900567509234,265.34119626670144 27.73283758200705,266.4705984070897 34.00000000093132,266.4705984070897 38.17810827959329,266.4705984070897 40.267162419855595,265.34119626670144 43.98103644605726,261.95298657077365 43.284685065969825,257.1530144221615 43.05256793834269,252.63538456475362 44.21315357182175,249.81186146754771 43.05256793834269,246.14127633837052 44.44527069851756,243.8824518530164 45.37373920623213,241.9059786372818 46.07009058445692,237.6706732562743 46.30220771115273,234.0000690475572 45.60585633199662,230.6118138891179" stroke="#4DD2FF" stroke-dasharray="none" stroke-linecap="round" stroke-linejoin="round" stroke-width="0.5"><title>2013-10-06 10.6km</title><desc>9223370655838244807</desc></polyline><polyline fill="none" opacity="1" points="89.5279459245503,244.3385627658572 89.98325262311846,247.6616396890022 89.7555992724374,251.261634249473 88.84498587623239,255.69238901790231 88.16202582698315,258.46160639775917 89.0726392250508,261.50774164893664 90.43855932168663,263.1692682597786 93.39805286563933,265.9384766018484 95.67458635941148,267.3230795171112 97.95111985504627,267.60000000009313 102.27653349470347,266.49231786769815 106.14664043672383,264.5538728488609 108.65082728024572,260.4000565716997 109.78909402806312,256.800076372223 110.01674737781286,253.47701270505786 110.47205407731235,250.4308667758014 111.61032082512975,247.3847167957574 110.92736077588052,243.78471614304 110.92736077588052,240.46163359680213 111.61032082512975,237.41547036124393 111.83797417394817,234.64622754161246 111.61032082512975,231.8769813736435 109.5614406792447,230.21543206600472 107.96786723192781,228.00003111502156 105.23602703865618,226.89232983626425 102.27653349470347,227.44618054293096 97.72346650529653,228.00003111502156 95.44693301152438,228.55388155416586 93.8533595642075,230.21543206600472 93.62570621352643,231.8769813736435 92.71509281732142,234.64622754161246 92.48743946664035,237.69239445892163 91.80447941832244,241.84625191055238 91.12151937000453,244.89240925433114 91.80447941832244,248.49240816570818 90.89386602025479,251.5385566733312 90.43855932168663,255.1385451410897 89.5279459245503,257.90776318963617 89.5279459245503,259.84621383203194 90.43855932168663,262.8923472412862 92.03213276807219,265.10771445115097 96.12989305891097,266.21539725130424 99.31703995261341,267.0461590006016 102.27653349470347,266.21539725130424 105.23602703865618,265.9384766018484 107.2849071836099,263.7231101959478 108.65082728024572,261.50774164893664 109.5614406792447,257.6308415350504 109.33378732949495,254.58470112946816 110.2444007275626,250.7077893000096 110.2444007275626,247.1077938694507 110.01674737781286,243.50779278133996 109.78909402806312,238.80009051598608 110.2444007275626,235.47700073826127 110.92736077588052,234.09237857535481 110.2444007275626,231.32313173846342 107.96786723192781,228.83080672309734 105.00837368983775,226.06155352527276 102.9594935439527,225.23077691416256 99.77234665118158,225.78462802176364 96.35754640772939,225.78462802176364 94.5363196125254,226.61540443263948 93.39805286563933,229.66158202895895 91.80447941832244,232.4308308751788 91.57682606950402,235.47700073826127 90.89386602025479,239.07701444602571 90.2109059728682,242.95394595898688 89.7555992724374,245.4462556091603 89.0726392250508,248.49240816570818 89.0726392250508,251.81547906342894 88.16202582698315,255.1385451410897 87.70671912748367,257.6308415350504 87.93437247723341,260.67697789077647 89.0726392250508,263.1692682597786 92.03213276807219,265.6615559179336 95.67458635941148,266.49231786769815 99.77234665118158,266.76923845126294 103.41480024252087,266.21539725130424 105.91898708697408,264.2769519982394 108.65082728024572,262.0615839860402 109.78909402806312,257.90776318963617 110.2444007275626,255.1385451410897 110.69970742613077,252.09240142116323 110.92736077588052,249.3231763425283 111.38266747444868,245.4462556091603 111.61032082512975,243.23086938657798 111.83797417394817,240.18470983416773 112.06562752369791,237.41547036124393 112.29328087251633,234.36930307536386 111.61032082512975,231.6000565723516 110.47205407731235,229.1077318591997 108.19552058167756,226.61540443263948 105.69133373815566,225.23077691416256 102.9594935439527,224.4000000001397 100.68296004924923,224.95385130867362 96.81285310722888,225.50770248449408 94.08101291395724,227.16925520659424 92.71509281732142,230.76928196917288 91.12151937000453,235.20007637282833 90.2109059728682,237.9693185237702 89.98325262311846,240.18470983416773 89.7555992724374,243.23086938657798 89.98325262311846,246.27702489006333 90.2109059728682,249.6000990010798 89.98325262311846,252.64624603441916 89.7555992724374,255.96931090718135 90.2109059728682,259.2923709584866 91.57682606950402,262.3385051051155 94.08101291395724,264.00003111432306 96.81285310722888,266.76923845126294 100.68296004924923,266.76923845126294 102.9594935439527,266.49231786769815 106.37429378647357,264.83079366665334 108.4231739314273,262.8923472412862 109.5614406792447,259.56929241190664 110.01674737781286,256.800076372223 110.92736077588052,253.75393486046232 110.92736077588052,250.4308667758014 111.61032082512975,247.6616396890022 111.61032082512975,244.61548602650873 111.38266747444868,241.56932831485756 112.52093422133476,237.9693185237702 111.61032082512975,235.20007637282833 110.69970742613077,231.8769813736435 110.01674737781286,229.3846569606103 107.51256053335965,227.72310584550723 104.32541364058852,226.06155352527276 101.36592009756714,226.61540443263948 97.26815980672836,226.89232983626425 94.30866626370698,228.83080672309734 92.94274616613984,230.76928196917288 90.89386602025479,234.09237857535481 90.43855932168663,236.30777363479137 89.5279459245503,239.90778603730723 89.7555992724374,242.95394595898688 88.61733252555132,246.00010183011182 88.61733252555132,249.3231763425283 87.93437247723341,252.64624603441916 87.47906577866524,255.96931090718135 88.16202582698315,259.2923709584866 89.30029257386923,262.3385051051155 92.71509281732142,264.2769519982394 96.35754640772939,265.9384766018484 98.8617332521826,265.38463520118967 102.27653349470347,264.5538728488609 104.78072033915669,261.7846628341358 107.96786723192781,259.84621383203194 109.5614406792447,257.35391984693706 110.2444007275626,255.1385451410897 110.47205407731235,251.81547906342894 110.92736077588052,248.49240816570818 111.15501412469894,246.00010183011182 111.61032082512975,242.12317547295243 111.15501412469894,239.35393834323622 111.38266747444868,235.20007637282833 111.61032082512975,231.8769813736435 110.92736077588052,229.9385070647113 109.10613397974521,228.55388155416586 105.91898708697408,226.61540443263948 102.73184019327164,226.06155352527276 99.54469330050051,226.89232983626425 95.67458635941148,228.83080672309734 94.30866626370698,231.32313173846342" stroke="#4DD2FF" stroke-dasharray="none" stroke-linecap="round" stroke-linejoin="round" stroke-width="0.5"><title>2013-09-29 10.5km</title><desc>9223370656443428807</desc></polyline><polyline fill="none" opacity="1" points="159.70639423839748,232.3291757463012 158.80730770155787,235.88362481584772 158.35776443220675,239.43806830001995 157.90822116378695,242.7190880975686 157.23390626069158,245.72668539732695 156.55959135759622,248.46086128987372 155.88527645450085,251.7418679993134 155.88527645450085,255.29628656315617 155.88527645450085,258.57728335657157 157.23390626069158,261.8582753909286 159.93116587307304,263.22535400046036 163.30274038854986,265.13926266669296 166.44954326935112,265.13926266669296 168.92203124705702,264.0456007702742 171.84406249318272,263.22535400046036 173.8670072024688,261.0380278278608 175.21563700865954,258.3038671386894 176.11472354643047,255.29628656315617 176.11472354643047,251.7418679993134 176.11472354643047,248.73427869705483 176.7890384485945,246.00010313582607 176.7890384485945,242.17225179541856 177.912896621041,238.8912312053144 177.23858171794564,237.25071912514977 176.3394951801747,234.51652968092822 175.21563700865954,230.68865890661255 173.417463934049,227.95446153078228 170.94497595634311,225.49368106527254 169.59634615015239,225.76710125035606 165.5504567315802,224.94684059894644 162.85319711919874,226.5873616025783 160.38070914149284,228.22788141667843 159.25685096997768,232.055756355403 157.90822116378695,233.6962722032331 157.23390626069158,238.6178126083687 156.55959135759622,240.80516046099365 156.33481972292066,244.9064319843892 156.33481972292066,247.09377375710756 156.11004808917642,249.28111341316253 156.11004808917642,253.38236956926994 154.7614182829857,255.56970314332284 155.2109615514055,261.0380278278608 156.11004808917642,263.4987696236931 161.504567313008,265.4126780577935 163.75228365696967,265.95950874197297 167.1238581724465,265.95950874197297 171.16974759008735,264.86584724183194 174.09177883714437,262.1316911787726 176.11472354643047,258.0304508882109 176.7890384485945,253.65578638156876 175.21563700865954,250.92161676776595 173.64223556779325,249.55453072185628 175.4404086433351,245.17984982184134 177.01381008327007,239.98490526387468 177.4633533526212,238.07097531366162 176.7890384485945,235.06336783478037 177.912896621041,231.235497985268 175.21563700865954,228.50130126997828 172.51837739627808,225.49368106527254 170.72020432166755,224.94684059894644 165.32568509690464,225.49368106527254 163.75228365696967,225.76710125035606 160.83025240991265,228.22788141667843 158.35776443220675,230.41523931804113 157.68344952911139,232.87601442844607 157.23390626069158,236.43046263838187 156.11004808917642,241.07857879367657 156.55959135759622,244.35959621169604 156.78436299134046,246.54693851224147 156.11004808917642,250.92161676776595 156.55959135759622,254.20261990698054 155.2109615514055,258.3038671386894 155.88527645450085,261.5848595700227 156.11004808917642,263.4987696236931 159.93116587307304,264.86584724183194 163.5275120222941,267.3265848727897 165.77522836532444,266.77975451922975 168.69725961238146,265.95950874197297 171.61929085943848,264.86584724183194 174.54132210556418,261.5848595700227 174.76609374023974,259.3975318111479 175.4404086433351,256.66336913825944 176.3394951801747,253.92920316033997 177.4633533526212,250.92161676776595 176.56426681485027,247.3671913293656 175.4404086433351,243.53934230282903 175.66518027707934,240.5317420954816 176.11472354643047,237.25071912514977 177.23858171794564,236.43046263838187 178.13766825478524,232.87601442844607 176.7890384485945,230.14181969570927 177.912896621041,230.41523931804113 177.4633533526212,227.68104161159135 174.31655047088861,226.31394151831046 170.94497595634311,225.22026084875688 167.79817307554185,224.6734203158412 163.75228365696967,225.76710125035606 160.60548077523708,228.22788141667843 157.90822116378695,230.14181969570927 157.68344952911139,233.42285297834314 155.43573318608105,237.25071912514977 154.08710337989032,241.62541536078788 155.6605048198253,241.62541536078788 156.33481972292066,243.2659242679365 155.88527645450085,246.8203561506234 155.2109615514055,250.92161676776595 152.96324520744383,253.10895272321068 154.98618991766125,256.11653620772995 155.2109615514055,258.57728335657157 156.78436299134046,262.9519383441657 158.80730770155787,265.4126780577935 161.504567313008,266.23292403365485 165.32568509690464,266.23292403365485 168.92203124705702,267.60000000009313 172.51837739627808,266.23292403365485 173.64223556779325,264.0456007702742 173.8670072024688,260.49119595531374 175.21563700865954,259.3975318111479 175.4404086433351,255.29628656315617 177.4633533526212,248.73427869705483 177.4633533526212,244.08617827459238 175.4404086433351,241.35199709353037 176.11472354643047,238.07097531366162 176.56426681485027,235.61020585522056 177.01381008327007,232.055756355403 176.7890384485945,230.14181969570927 175.21563700865954,227.1342016728595 171.61929085943848,225.76710125035606 168.24771634396166,224.4000000001397 165.5504567315802,225.76710125035606 163.0779687538743,226.8607816544827 159.93116587307304,229.04814087809063 157.00913462601602,232.055756355403 155.2109615514055,235.61020585522056 156.33481972292066,239.16464976919815 156.55959135759622,243.53934230282903 156.55959135759622,246.8203561506234 155.88527645450085,250.64819962508045 154.31187501456589,253.10895272321068 155.88527645450085,256.66336913825944 155.2109615514055,259.3975318111479 156.33481972292066,262.4051069342531 157.23390626069158,264.86584724183194 161.27979567926377,264.31901629362255 163.75228365696967,265.95950874197297 167.1238581724465,265.13926266669296 170.27066105324775,264.592431783909 172.06883412785828,263.4987696236931 174.54132210556418,259.6709478965495 176.7890384485945,257.4836182866711 176.7890384485945,254.20261990698054 176.7890384485945,252.83553584385663 176.11472354643047,251.195033878088 177.23858171794564,247.91402637632564 177.4633533526212,243.53934230282903 179.03675479255617,240.25832369620912 177.68812498636544,239.98490526387468 177.4633533526212,236.43046263838187" stroke="#4DD2FF" stroke-dasharray="none" stroke-linecap="round" stroke-linejoin="round" stroke-width="0.5"><title>2013-09-22 10.9km</title><desc>9223370657048162807</desc></polyline></svg>