<?xml version="1.0" encoding="utf-8" ?>
<svg baseProfile="full" height="300mm" version="1.1" viewBox="0,0,200,300" width="200mm" xmlns="http://www.w3.org/2000/svg" xmlns:ev="http://www.w3.org/2001/xml-events" xmlns:xlink="http://www.w3.org/1999/xlink"><defs /><rect fill="#222222" height="300" width="200" x="0" y="0" /><text fill="#FFFFFF" style="font-size:12px; font-family:Arial; font-weight:bold;" x="10" y="20">Over 10km Runs</text><text fill="#FFFFFF" style="font-size:4px; font-family:Arial" x="10" y="280">Runner</text><text fill="#FFFFFF" style="font-size:9px; font-family:Arial" x="10" y="290">keep</text><text fill="#FFFFFF" style="font-size:4px; font-family:Arial" x="65" y="280">SPECIAL TRACKS</text><rect fill="yellow" height="2.6" width="2.6" x="65" y="283" /><text fill="#FFFFFF" style="font-size:3px; font-family:Arial" x="70" y="285.5">Over 20.0 km</text><rect fill="red" height="2.6" width="2.6" x="65" y="287" /><text fill="#FFFFFF" style="font-size:3px; font-family:Arial" x="70" y="289.5">Over 40.0 km</text><text fill="#FFFFFF" style="font-size:4px; font-family:Arial" x="120" y="280">STATISTICS</text><text fill="#FFFFFF" style="font-size:3px; font-family:Arial" x="120" y="285">Number: 15</text><text fill="#FFFFFF" style="font-size:3px; font-family:Arial" x="120" y="290">Weekly: 1.2</text><text fill="#FFFFFF" style="font-size:3px; font-family:Arial" x="141" y="285">Total: 163.6 km</text><text fill="#FFFFFF" style="font-size:3px; font-family:Arial" x="141" y="290">Avg: 10.9 km</text><text fill="#FFFFFF" style="font-size:3px; font-family:Arial" x="167" y="285">Min: 10.2 km</text><text fill="#FFFFFF" style="font-size:3px; font-family:Arial" x="167" y="290">Max: 14.0 km</text><polyline fill="none" opacity="1" points="26.566858023928944,75.59999999999854 26.50575174810365,75.33631906640949 26.4970222801785,75.01770347877027 26.55812855588738,74.71007346616534 26.566858023928944,74.40244230463577 26.55812855588738,74.05086242742254 26.54939908796223,73.7432288039272 26.55812855588738,73.4465810073234 26.5755874919123,73.07302300298761 26.58431695983745,72.80933397989429 26.671611639554612,72.54564411261526 26.8723894028808,72.43577308544627 27.143002909899224,72.42478597466106 27.20410918566631,72.28195340117963 27.239027057541534,72.15010772887763 27.25648599350825,71.93036447271152 27.282674397400115,71.6007484892616 27.169191313849296,71.28211845136684 26.889848338789307,71.13928389632929 26.811283127055503,70.8755886824074 26.88111887080595,70.45806953374995 26.91603674268117,70.18338472904725 26.96841355052311,69.85376175416604 27.012060890323482,69.50216246025957 27.06443769816542,69.1835243036403 27.073167166148778,68.96377313254925 27.16046184580773,68.80994696391281 27.20410918566631,68.66710812151723 27.186650249757804,68.46933085382625 27.19537971774116,68.39241734368261 27.25648599350825,68.19463941635331 27.317592269275337,67.91994706270634 27.387428013025783,67.65624154122634 27.465993224759586,67.3266084520219 27.54455843649339,67.01894971173897 27.631853116152342,66.7222776951312 27.754065667802934,66.51350785764953 27.911196091212332,66.53548365492315 28.14689172641374,66.62338678542437 28.382587361556944,66.49153205445327 28.600824060791638,66.28276163203554 28.6881187405088,66.03003883364727 28.845249163918197,65.72237524973752 29.01110905542737,65.41471051640838 29.176968946820125,65.12902080632193 29.325369902304374,64.85431822734972 29.48250032577198,64.59060288946785 29.63963074918138,64.26095752958645 29.805490640632343,63.96427557746938 30.00626840390032,63.56869797870604 30.233234571118373,63.19509516841936 30.460200738336425,62.78852547844144 30.62606062978739,62.5028266576046 30.81810892507201,62.20613837147539 30.992698284506332,61.920437530112395 31.123640304023866,61.71165551919694 31.29822966339998,61.44793011721049 31.499007426726166,61.140249414063874 31.603761042351834,60.84355621873692 31.752161997836083,60.51389585902507 31.935480825195555,60.20621166592173 32.171176460338756,59.96445899342507 32.42433103150688,59.77764962397487 32.59019092289964,59.52490686136298 32.76478028227575,59.25018558729789 32.852074961934704,59.184252345170535 32.96555804560194,58.94249667230906 33.070311661227606,58.70074028959789 33.1488768729032,58.53590598537994 33.349654636287596,58.44799422152573 33.49805559171364,58.469972171289555 33.602809207339305,58.37107135116821 33.72502175893169,58.2172253948811 33.90834058629116,58.041401092843444 34.09165941370884,57.7886530009564 34.28370770899346,57.55788232644409 34.309896112943534,57.3490892541231 34.26624877308495,57.01941490404715 34.30116664490197,56.77765287509101 34.47575600433629,56.5139116703067 34.68526323558763,56.294126687629614 34.84239365905523,56.04137323227769 34.96460621058941,55.7007043040212 35.121736634057015,55.43695964956714 35.401079609117005,55.17321415027982 35.61058684036834,54.953425588864775 35.75025832786923,54.67868906202784 35.872470879461616,54.3599935424063 36.00341289903736,54.074265476047 36.27402640605578,53.86546356973122 36.5271809771657,53.84348439089081 36.71922927250853,53.55775453209935 36.81525342015084,53.239054673606006 36.876359695976134,52.95332271719235 36.93746597174322,52.64561027054151 37.016031183477025,52.28294769625063 37.112055331119336,51.942263216740685 37.14697320305277,51.788405247745686 37.1993500108365,51.60157732742664 37.25172681862023,51.271879963285755 37.33029203035403,50.87624138349929 37.42631617805455,50.50258097900951 37.53106979362201,50.09594861190271 37.5747171335388,49.744264945002215 37.6532823452726,49.425550324245705 37.740577024931554,49.08485402035876 37.827871704648715,48.70019520854112 37.880248512432445,48.348505579189805 37.95008425618289,48.00780481806578 38.03737893590005,47.61215055176581 38.115944147633854,47.26045627428539 38.17705042340094,46.96371305897628 38.255615635134745,46.61201601128414 38.30799244297668,46.31527045857365 38.38655765471049,46.05149573591916 38.41274605860235,45.919608057629375 38.45639339846093,45.633850696533045 38.52622914215317,45.29313870029728 38.60479435388697,44.930443735429435 38.683359565620776,44.578738000920566 38.74446584144607,44.30396685026062 38.75319530937122,44.194058133223734 38.7968426492298,43.91928569855372 38.8579489250551,43.61153948283027 38.92778466880554,43.22685509525036 38.9976204126142,42.89712418936688 39.067456156306434,42.633338513667695 39.111103496165015,42.446489815280074 39.154750836023595,42.303605230328685 39.198398175882176,42.204684987751534 39.2333160477574,42.07279114609992 39.18966870789882,41.84197641461651 39.207127643807326,41.58917858517816 39.250774983665906,41.31439745515672 39.32061072741635,41.11655447360681 39.38171700324165,40.95168495901453 39.634871574351564,40.99565019521833 39.93167348532006,41.10556318290037 40.2197459283052,41.20448474633304 40.42052369157318,41.25944111912395 40.481629967398476,41.02862410691887 40.49908890330698,40.77582377952058 40.49035943538183,40.49004856146348 40.50781837129034,40.11634100997617 40.534006775240414,39.72064881197002 40.60384251899086,39.41288689841167 40.5165478392737,39.16008160857746 40.34195847983938,39.09413227484765 40.04515656887088,39.13809850319376 39.74835465790238,39.215039346323465 39.67851891415194,39.050166022978374 39.71343678608537,38.74240160243062 39.78327252983581,38.412652731982234 39.8443788056029,38.09389423479297 39.93167348532006,37.731167546706274 40.010238697053865,37.401414624924655 40.05388603685424,37.07166038201831 40.09753337671282,36.763888563356886 40.1411807165714,36.47809941547166 40.15863965253811,36.29123674378934 40.114992312621325,36.148341473286564 40.245934332197066,36.0494138330032 40.44671209552325,35.95048607381614 40.49035943538183,35.8075902117198 40.32449954393087,35.68667813461798 40.33322901191423,35.51080570542399 40.33322901191423,35.36790907993418 40.49035943538183,35.378901136857166 40.68240773072466,35.40088524629391 40.83080868620891,35.38989319232496 40.970480173651595,35.38989319232496 41.145069533085916,35.35691702154145 41.31092942447867,35.33493290036131 41.345847296353895,35.06013089008775 41.389494636212476,34.60945360693586 41.441871443996206,34.23571935396467 41.476789315929636,33.92793693017302 41.46805984794628,33.71908391559555 41.494248251838144,33.521222676034085 41.51170718780486,33.3343532908184 41.380765168287326,33.246414609762724 41.145069533085916,33.224429924826836 40.961750705726445,33.18046053733269 40.78716134629212,33.0925216918331 40.534006775240414,33.04855223387858 40.202286992338486,32.97160562588397 39.89675561344484,32.92763610327529 39.599953702418134,32.82870459162223 39.25950445164926,32.784734992688755 38.980161476589274,32.69679572433961 38.77065424533794,32.56488664563949 38.5611470140866,32.575879076968704 38.24688616715139,32.56488664563949 37.95881372416625,32.553894212891464 37.64455287728924,32.531909342978906 37.32156256242888,32.4989320270397 37.04221958736889,32.45496225194074 36.71049980452517,32.432977355550975 36.492263105290476,32.41099245331134 36.47480416938197,32.432977355550975 36.396238957648166,32.663818474487925 36.34386214980623,32.87267416703253 36.30021480994765,33.059544600553636 36.27402640605578,33.29038396204123 36.24783800216392,33.46626113619277 36.178002258355264,33.686107075351174 36.09943704667967,33.85099114433251 35.99468343099579,34.03785935652559 35.94230662321206,34.20274272075767 35.881200347386766,34.38961013424705 35.785176199744456,34.565484959406604 35.71534045599401,34.74135940868291 35.63677524426021,34.90624136354745 35.53202162863454,35.12608345621993 35.39235014113365,35.27997257171228 35.357432269258425,35.55477384794358 35.252678653632756,35.796598212044046 35.10427769814851,36.115365606412524 34.95587674266426,36.467107505348395 34.80747578718001,36.763888563356886 34.66780429962091,37.07166038201831 34.52813281212002,37.357447468886676 34.38846132467734,37.65422531646618 34.23133090115152,37.961993805889506 34.09165941370884,38.247777801349 33.969446862116456,38.51157753182633 33.882152182399295,38.69843516268156 33.82104590663221,38.75339320871717 33.742480694898404,38.84132600596058 33.68137441907311,39.028182888258016 33.65518601518124,39.32495471175935 33.48932612378849,39.61073397495784 33.358384104212746,39.86353788067936 33.27981889247894,40.061383873988234 33.33219570032088,40.18228952468053 33.550432399555575,40.21526376222755 33.86469324649079,40.21526376222755 34.18768356135115,40.27022079546441 34.501944408228155,40.314186395626166 34.84239365905523,40.35815197230113 35.17411344189895,40.402117525503854 35.47091535286745,40.446083055190684 35.76771726377774,40.4790571870908 35.924847687303554,40.41310891014291 35.96849502710393,40.21526376222755 36.020871834945865,39.99543526238267 36.01214236696251,39.89651224594127 36.160543322446756,39.94047804569709 36.204190662305336,40.11634100997617 36.18673172633862,40.402117525503854 36.116895982588176,40.7648324433103 36.04706023883773,41.10556318290037 35.96849502710393,41.51223996123008 35.89865928335348,41.87494998733018 35.82009407161968,42.204684987751534 35.76771726377774,42.52342756598955 35.6978815200855,42.831177849722735 35.654234180168714,43.13892698283598 35.67169311613543,43.46865692015854 35.48837428877596,43.73243991906929 35.3836206732085,43.97424025885266 35.29632599343313,44.29297598516132 35.2439491856494,44.61171047735843 35.22649024968268,44.864499024653924 35.34870280127507,45.01836993424513 35.3836206732085,45.32611089060083 35.313784929399844,45.688804112243815 35.22649024968268,46.095458248397335 35.14792503794888,46.44715750293835 35.08681876224,46.80984578550124 35.04317142232321,47.194513430011284 35.03444195439806,47.51323668809346 35.025712486414704,47.85393949603167 35.03444195439806,48.194640893918404 35.0082535505062,48.56831177357526 34.99952408246463,48.89801996478491 34.96460621058941,49.23871704188059 34.9471472746809,49.55743238591822 34.89477046683896,49.876146496135334 34.84239365905523,50.22782959967299 34.75509897933807,50.568521173619956 34.80747578718001,50.88723136970657 34.76382844732143,51.22792021496571 34.693992703570984,51.57959754425974 34.52813281212002,51.90929367615172 34.34481398476055,52.16205981648818 34.08292994572548,52.37086604275828 33.838504842540715,52.57967173947691 33.602809207339305,52.799466637618025 33.367113572196104,53.019260948996816 33.27108942455379,53.184106297485414 33.1488768729032,53.33796165826061 33.026664321369026,53.51379600427026 32.91318123776,53.72259880240745 32.81715709011769,54.030307223998534 32.66002666665008,54.3599935424063 32.48543730727397,54.67868906202784 32.33703635178972,54.94243614540028 32.223553268180694,55.20618238388852 32.21482380019734,55.43695964956714 32.38068369159009,55.612789513063035 32.363224755681586,55.88752292308345 32.24974167207256,56.162255416413245 32.3021184799145,56.261158889617946 32.21482380019734,56.18423397628794 32.06642284471309,56.360062244013534 31.86564508144511,56.678750022285385 31.682326254085638,56.898533978295745 31.43790115090087,57.14029565234523 31.28950019547483,57.42601307918085 31.210934983741026,57.68975136252993 31.06253402819857,57.93151071344619 30.94905094464775,58.041401092843444 30.695896373479627,58.01942302870884 30.442741802427918,58.008433994422376 30.15466935938457,57.9534888010603 29.840408512507565,57.9534888010603 29.569795005430933,57.96447784265911 29.430123517930042,57.997444958702545 29.34282883821288,57.997444958702545 29.255534158553928,58.20623638702091 29.10713320306968,58.415027285904216 29.07221533113625,58.66777345515584 29.01110905542737,58.93150776119728 28.86270809994312,59.16227458605863 28.845249163918197,59.25018558729789 28.6881187405088,59.41501846171013 28.478611509199254,59.61281747545581 28.277833745931275,59.82160480785387 28.330210553773213,60.01940284494776 28.40004629746545,60.129290438009775 28.461152573290747,60.28313282196905 28.49607044516597,60.53587325740227 28.513529381132685,60.76663558616565 28.48734097724082,60.68971488176612 28.30402214982314,60.700703558235546 28.138162258430384,60.97541999309033 27.989761302946135,61.2281583037111" stroke="#4DD2FF" stroke-dasharray="none" stroke-linecap="round" stroke-linejoin="round" stroke-width="0.5"><title>2017-12-17 14.0km</title><desc>9223370523376934807</desc></polyline><polyline fill="none" opacity="1" points="100.62512840662384,32.40000000000873 100.6113893208094,32.76308516987774 100.57017206319142,33.108879624531255 100.47399846214103,33.36822486031451 100.62512840662384,33.57570067553024 100.6113893208094,34.31915295390354 100.66634566430002,34.630364269934944 100.78999743697932,34.889706462709 100.84495378046995,35.235495246277424 100.89991012390237,35.56399373659224 100.91364920971682,35.944359369939775 100.92738829564769,36.34201315729297 100.99608372489456,36.63593039033003 101.06477915419964,36.947136146205594 101.14721366937738,37.241052007637336 101.1746918411227,37.56954541736923 101.21590909874067,37.898037994949846 101.32582178560551,38.07092849101173 101.57312533102231,38.17466267806594 101.61434258864028,38.312974798333016 101.47695173008833,38.485864741232945 101.31208269973285,38.572309626222705 101.38077812903794,38.8662218041718 101.49069081590278,39.12555552559206 101.62808167451294,39.47133301422582 101.72425527556334,39.765243154615746 101.82042887661373,40.07644140071352 101.97155882103834,40.3876388999779 102.13642785139382,40.68154696364945 102.27381871000398,40.95816570916213 102.12268876552116,41.20020662747265 101.84790704830084,41.14834075444378 101.6418207603856,40.992743010865524 101.39451721491059,40.802567737409845 101.18843092693714,40.83714508060075 100.94112738140393,40.88901107812126 100.69382383592892,40.92358839827648 100.62512840662384,41.13105212550727 100.6388674924965,41.39038131781854 100.52895480563166,41.563267157951486 100.25417308841133,41.66699855137267 99.9519131995039,41.77072986183339 99.64965331048006,41.80530694688787 99.49852336605545,41.66699855137267 99.55347970948787,41.424958504285314 99.64965331048006,41.09647486067843 99.74582691153046,40.802567737409845 99.81452234083554,40.43950507728732 99.88321777014062,40.041863854654366 99.84200051258085,39.66151023993734 99.80078325502109,39.3330221294309 99.70460965391248,39.0391110094497 99.3886106791324,39.0391110094497 99.12756804778473,38.952666435652645 99.045133532607,38.79706605753745 99.03139444673434,38.589598596285214 99.03139444673434,38.36484180539264 98.93522084574215,38.209240721931565 98.75661272957223,38.209240721931565 98.56426552741323,38.17466267806594 98.42687466886127,38.2265297404665 98.45435284054838,38.520442702123546 98.46809192642104,38.81435499765212 98.4818310122937,39.16013331600698 98.49557009816635,39.41946644971904 98.52304826985346,39.78253196562582 98.50930918403901,40.12830770245637 98.50930918403901,40.43950507728732 98.50930918403901,40.76799038502213 98.52304826985346,41.0791862247861 98.52304826985346,41.37309272114362 98.52304826985346,41.7188642169931 98.53678735572612,41.96090371554601 98.53678735572612,42.168365783349145 98.53678735572612,42.39311598225322 98.50930918403901,42.66973107693775 98.49557009816635,42.92905719237751 98.46809192642104,43.067364241942414 98.44061375467572,43.32668956226553 98.41313558298862,43.5687260600389 98.41313558298862,43.77618555573281 98.41313558298862,44.05279770040943 98.41313558298862,44.3466974577168 98.42687466886127,44.692461025333614 98.39939649711596,45.0382236711157 98.41313558298862,45.36669733074086 98.41313558298862,45.660594110478996 98.42687466886127,45.954490224205074 98.44061375467572,46.30024950532243 98.44061375467572,46.59414416956133 98.44061375467572,46.888038167729974 98.42687466886127,47.112780187584576 98.42687466886127,47.37209741886181 98.37191832537064,47.6314141315961 98.42687466886127,47.890730325874756 98.45435284054838,48.167333694931585 98.49557009816635,48.46122412821569 98.53678735572612,48.772401508147595 98.57800461334409,49.135440841084346 98.67417821433628,49.515766671451274 98.75661272957223,49.8960913864139 98.88026450225152,50.18997790238063 98.97643810336012,50.46657636783493 99.08635079022497,50.79503627947997 99.19626347708981,51.05434614841943 99.30617616401287,51.2445063895284 99.34739342151443,51.41737909402582 99.49852336605545,51.676687718732865 99.56721879536053,51.93599582504248 99.59469696704764,52.0742932697176 99.66339239635272,52.264452015399 99.84200051258085,52.38546198113181 99.91069594188593,52.54104605689645 100.0480868004961,52.731204118274036 100.1717385732336,52.90407484120806 100.26791217428399,53.14609346629004 100.40530303283595,53.30167662963504 100.6113893208094,53.52640753611922 100.78999743697932,53.768424999929266 100.98234463908011,54.02772892432404 101.14721366937738,54.28703233030683 101.24338727042777,54.44261412511696 101.32582178560551,54.63276939858042 101.49069081590278,54.89207159500802 101.65555984620005,55.11679974592698 101.8616461341735,55.427961158246035 102.02651516452897,55.721835139993345 102.17764510901179,55.9465618532995 102.3287750534364,56.22314804281632 102.47990499791922,56.48244705986872 102.67225220002001,56.79360519610054 102.83712123031728,57.08747608383419 103.04320751829073,57.38134630571585 103.22181563446065,57.65792943580891 103.40042375068879,57.951798365291324 103.60651003854582,58.28023932217911 103.7988572405884,58.59139314573258 103.9912044426892,58.88525996047247 104.16981255885912,59.17912610937492 104.30720341746928,59.455705406100606 104.47207244776655,59.69771180700627 104.60946330643492,59.90514550550142 104.77433233673219,60.18172325422347 104.95294045296032,60.47558646604011 105.07659222575603,60.665732895431574 105.26893942779861,60.92502303169749 105.4612866298412,61.20159860585409 105.62615566019667,61.47817359025066 105.76354651880683,61.73746210258105 105.94215463497676,62.048607633274514 106.1207627512049,62.37703821710602 106.32684903912013,62.722753722788184 106.4642398977303,62.93018258392112 106.6840652715182,63.293182292822166 106.87641247356078,63.569752817755216 107.04128150391625,63.82903714942222 107.19241144839907,64.1056065318844 107.38475865044165,64.3994608547655 107.57710585248424,64.7106000003987 107.75571396865416,65.03902384455432 107.90684391319519,65.33287605299847 108.04423477174714,65.64401295989228 108.20910380210262,65.97243444096239 108.33275557484012,66.28356981393881 108.42892917583231,66.64656013921194 108.47014643345028,66.83669752333662 108.41519009007607,67.00954944883415 108.31901648896746,67.14783082345093 108.34649466071278,67.09597532523912 108.48388551932294,67.06140498162131 108.60753729211865,67.23425660771318 108.70371089311084,67.493533615052 108.79988449410303,67.77009518507111 108.90979718102608,68.09851128367882 109.04718803957803,68.44421154190786 109.15710072650108,68.78991087891336 109.26701341342414,69.10103949459153 109.33570884272922,69.34302790202491 109.47309970133938,69.63687036132615 109.58301238826243,69.93071215511009 109.69292507512728,70.20726852949883 109.80283776199212,70.48382431434584 109.84405501955189,70.69124076610024 109.91275044891518,70.98508017174026 110.02266313583823,71.27891891190666 110.13257582270307,71.5900415583892 110.22874942369526,71.88387892831815 110.32492302474566,72.17771563272981 110.4348357116105,72.48883612372447 110.5310093127191,72.74810262974643 110.6546610853984,73.0592217529047 110.76457377226325,73.33577145835443 110.8744864591863,73.6296048743825 110.99813823198201,73.9580061401648 111.10805091884686,74.21726971010503 111.23170269158436,74.51110112978495 111.28665903501678,74.7012269879051 111.41031080775429,74.94320494981366 111.50648440880468,75.0814778682834 111.54770166642265,75.23703472535999 111.50648440880468,75.46172763415962 111.36909355019452,75.60000000000582 111.20422451983904,75.40987545902317 111.03935548948357,75.18518246043823 110.84700828744099,74.89135256741429 110.61344382789684,74.61480617785128 110.32492302474566,74.28640657462529 110.03640222159447,74.02714314282639 109.78909867617767,73.78516347231925 109.54179513064446,73.52589903881017 109.30823067104211,73.2666340872529 109.088405297196,73.04193737676542 108.79988449410303,72.76538704501581 108.53884186269715,72.52340502117295 108.2777992314077,72.24685358407442 108.01675660006003,72.00487059308216 107.76945305452682,71.74560260183353 107.45345407968853,71.4863340924494 107.20615053421352,71.2962035228993 106.91762973112054,71.15792657005659 106.56041349872248,71.01964946984663 106.20319726632442,70.95051086445164 105.87345920572989,70.91594154792256 105.52998205914628,70.82951821637107 105.2414612560533,70.7603795096511 104.8979841095279,70.69124076610024 104.56824604887515,70.62210198570392 104.25224707403686,70.6048172848823 103.8950308416388,70.50110903134919 103.56529278098606,70.41468542339862 103.41416283644503,70.38011596414435 103.22181563446065,70.32826175790979 103.01572934654541,70.29369227557618 102.7959039726993,70.25912278411852 102.60355677065672,70.24183803483902 102.41120956861414,70.22455328330398 102.23260145244421,70.17269901493273 101.99903699278366,70.103559958181 101.7654725331231,70.05170564143918 101.60060350282583,69.98256652020791 101.35329995729262,69.93071215511009 101.09225732600316,69.80971855593089 100.7350410935469,69.67144001866109 100.36408577527618,69.53316133399494 100.11678222980117,69.46402193646645 99.74582691153046,69.36031277097936 99.42982793669216,69.25660352261912 99.08635079022497,69.1528941913275 98.71539547189604,69.04918477710453 98.34444015368354,68.98004512157058 98.02844117890345,68.84176569999545 97.68496403237805,68.77262593392516 97.31400871404912,68.63434629127732 96.99800973926904,68.51335148296494 96.80566253722645,68.42692655086285 96.47592447657371,68.32321655632404 96.17366458754987,68.21950647885387 95.84392652689712,68.06394120719051 95.50044938037172,67.87380562182807 95.18445040564984,67.6663846653828 94.86845143075334,67.44167825502518 94.60740879940568,67.13054565970378 94.41506159730488,66.83669752333662 94.29140982456738,66.56013396344497 94.23645348119317,66.3699961740349 94.07158445083769,66.14528751811304 93.93419359222753,65.88600781602145 93.82428090536268,65.73043974603934 93.68689004675252,65.43658843822777 93.52202101639705,65.10816560058447 93.32967381429626,64.76245645216841 93.16480478394078,64.36488979245769 92.95871849602554,63.96732191434421 92.76637129398296,63.53518153438927 92.58776317781303,63.2240395694389 92.42289414745755,62.89561113007949 92.25802511710208,62.51532452990068 92.07941700093215,62.11775098317594 91.88706979883136,61.70289033088193 91.69472259684699,61.30531429409166 91.47489722300088,60.89045104345132 91.31002819270361,60.527444610823295 91.09020281891571,60.12986497124075 90.91159470274579,59.73228411313903 90.74672567239031,59.33470203635807 90.55437847034773,58.93711874099972 90.40324852586491,58.60867944738129 90.25211858138209,58.28023932217911 90.11472772277193,58.055516652049846 90.00481503590709,57.72707512618217 89.88116326311138,57.346773372992175 89.75751149037387,56.949183984295814 89.67507697519613,56.55159337684745 89.62012063176371,56.24043466011062 89.56516428833129,55.87741521373391 89.51020794484066,55.44524788147828 89.4689906872809,55.01307910925243 89.44151251553558,54.66734305470891 89.40029525797581,54.3216060786508 89.31786074279808,53.94129434044589 89.34533891454339,53.59555542895396 89.31786074279808,53.19795454143605 89.30412165698363,52.85221364854078 89.33159982867073,52.48918471905927 89.34533891454339,52.12615477349027 89.33159982867073,51.711262162876665 89.26290439936565,51.34823003990459 89.19420897006057,50.985196900743176 89.1529917124426,50.5530132673739 89.13925262662815,50.207265323755564 89.12551354069728,49.80965404915332 89.08429628319573,49.533054182626074 89.01560085383244,49.20459107501665 88.98812268214533,48.772401508147595 89.09803536901018,48.34021050106094 89.12551354069728,47.99445665841631 89.12551354069728,47.68327741196845 89.13925262662815,47.45853638071276 89.18046988418791,47.302946207870264 89.12551354069728,47.02634099527495 89.08429628319573,46.732447310496354 89.05681811145041,46.403977109948755 89.0293399397633,46.05821810536145 89.00186176801799,45.69517015844758 88.97438359627267,45.40127345704241 88.89194908109494,44.98635933299374 88.86447090940783,44.58873205182317 88.85073182347696,44.173815328176715 88.8095145659172,43.810762106091715 88.76829730829922,43.499572821034235 88.72708005079767,43.171094432254904 88.71334096492501,42.96363396861125 88.72708005079767,42.600577358593 88.72708005079767,42.23751973215258 88.71334096492501,41.891749619171605 88.68586279312149,41.597844298303244 88.63090644974727,41.23478386468196 88.5896891921875,40.88901107812126 88.60342827800196,40.52594865996798 88.63090644974727,40.21475149257458 88.60342827800196,39.81710958080657 88.53473284869688,39.50591071238159 88.52099376282422,39.0909777260822 88.49351559113711,38.76248817033775 88.53473284869688,38.60688756404852 88.53473284869688,38.416708791672136 88.50725467700977,38.1227955949289 88.49351559113711,37.8634598680801 88.45229833351914,37.53496720289695" stroke="#4DD2FF" stroke-dasharray="none" stroke-linecap="round" stroke-linejoin="round" stroke-width="0.5"><title>2017-11-19 11.8km</title><desc>9223370525802103807</desc></polyline><polyline fill="none" opacity="0.5" points="178.09924812009558,72.58241331932368 176.7187969922088,72.10101395240054 175.58195488713682,71.90845413063653 174.60751879680902,71.71589426608989 173.47067669173703,71.71589426608989 172.4150375938043,71.33077440870693 171.19699248112738,71.33077440870693 170.06015037558973,71.13821441546315 169.08571428526193,71.42705438903067 167.38045112788677,70.65681424556533 166.0,70.46425410266966 164.7007518792525,70.36797401536023 163.23909774422646,70.46425410266966 162.67067669145763,70.56053417961812 161.12781954882666,70.94565437949495 159.17894736817107,70.07913368870504 157.7984962402843,68.92377141828183 156.58045112760738,69.21261213021353 155.1999999997206,68.73121089022607 153.98195488750935,68.5386503188638 153.00751879718155,68.73121089022607 152.0330827063881,68.4423700174084 151.0586466160603,68.05724870390259 149.84060150338337,68.15352904848987 148.7849624059163,68.63493060995825 146.9984962400049,68.05724870390259 146.02406015014276,67.47956641280325 145.53684210497886,66.42048121098196 144.88721804507077,65.36139471404022 144.80601503746584,63.82090295199305 144.96842105221003,62.47297041164711 144.96842105221003,60.93247351079481 144.80601503746584,59.58453647460556 144.80601503746584,57.75518999772612 144.56240601465106,56.79237451014342 144.39999999990687,55.34814927150728 144.7248120298609,54.00020354235312 144.7248120298609,52.84481981868157 145.04962405981496,51.881998871220276 144.80601503746584,50.63033003901364 145.21203007455915,49.28237696568249 145.1308270674199,47.838139201456215 145.37443609023467,46.97159538639244 145.45563909737393,45.23850515531376 145.37443609023467,43.697977592935786 145.45563909737393,42.35001372778788 145.53684210497886,41.290897790167946 145.78045112779364,40.039213648298755 146.02406015014276,38.691244087414816 145.78045112779364,37.34327242773725 145.78045112779364,36.38043424318312 145.6180451125838,35.22502700862242 145.78045112779364,36.38043424318312 145.78045112779364,37.34327242773725 146.02406015014276,38.691244087414816 145.78045112779364,40.039213648298755 145.53684210497886,41.290897790167946 145.45563909737393,42.35001372778788 145.37443609023467,43.697977592935786 145.45563909737393,45.23850515531376 145.37443609023467,46.97159538639244 145.1308270674199,47.838139201456215 145.21203007455915,49.28237696568249 144.80601503746584,50.63033003901364 145.04962405981496,51.881998871220276 144.7248120298609,52.84481981868157 144.7248120298609,54.00020354235312 144.39999999990687,55.34814927150728 144.56240601465106,56.79237451014342 144.80601503746584,57.75518999772612 144.80601503746584,59.58453647460556 144.96842105221003,60.93247351079481 144.96842105221003,62.47297041164711 144.80601503746584,63.82090295199305 144.88721804507077,65.36139471404022 145.53684210497886,66.42048121098196 146.02406015014276,67.47956641280325 146.9984962400049,68.05724870390259 148.7849624059163,68.63493060995825 149.84060150338337,68.15352904848987 151.0586466160603,68.05724870390259 152.0330827063881,68.4423700174084 153.00751879718155,68.73121089022607 153.98195488750935,68.5386503188638 155.1999999997206,68.73121089022607 156.58045112760738,69.21261213021353 157.7984962402843,68.92377141828183 159.17894736817107,70.07913368870504 161.12781954882666,70.94565437949495 162.67067669145763,70.56053417961812 163.23909774422646,70.46425410266966 164.7007518792525,70.36797401536023 166.0,70.46425410266966 167.38045112788677,70.65681424556533 169.08571428526193,71.42705438903067 170.06015037558973,71.13821441546315 171.19699248112738,71.33077440870693 172.4150375938043,71.33077440870693 173.47067669173703,71.71589426608989 174.60751879680902,71.71589426608989 175.58195488713682,71.90845413063653 176.7187969922088,72.10101395240054 178.09924812009558,72.58241331932368 179.3984962408431,72.38985360466177 180.61654135352,72.19729384710081 181.753383458592,72.48613346752245 183.05263157887384,72.38985360466177 184.18947368394583,72.48613346752245 185.24511278187856,72.2935737313237 186.5443609021604,72.67869316076394 187.59999999962747,72.77497299131937" stroke="#4DD2FF" stroke-dasharray="1,0.5" stroke-linecap="round" stroke-linejoin="round" stroke-width="0.5"><title>2014-03-22 10.5km</title><desc>9223370641410674807</desc></polyline><polyline fill="none" opacity="1" points="55.600000000034925,101.20341651527997 55.45902097906219,101.22792733006645 55.318041958031245,101.20341651527997 55.21734265732812,101.12988403525378 55.10657342657214,101.11762861673924 54.975664335652255,101.12988403525378 54.844755244790576,101.16665028192074 54.69370629370678,101.16665028192074 54.572867132897954,101.1789056945272 54.44195804197807,101.12988403525378 54.280839160841424,101.14213945232768 54.17006993008545,101.15439486785908 54.0089510489488,101.15439486785908 53.867972027976066,101.15439486785908 53.75720279722009,101.15439486785908 53.606153846136294,101.15439486785908 53.475244755274616,101.14213945232768 53.35440559440758,101.12988403525378 53.233566433540545,101.11762861673924 53.11272727273172,101.10537319671857 52.98181818181183,101.14213945232768 52.850909090950154,101.14213945232768 52.72000000003027,101.12988403525378 52.58909090911038,101.10537319671857 52.458181818190496,101.08086235223891 52.36755244754022,101.08086235223891 52.21650349651463,101.08086235223891 52.0755244755419,101.10537319671857 51.94461538462201,101.10537319671857 51.813706293702126,101.09311777519906 51.67272727272939,101.05635150185844 51.55188811192056,101.08086235223891 51.420979021000676,101.08086235223891 51.25986013986403,101.06860692779446 51.149090909108054,101.03184064551169 50.98797202797141,101.01958521510096 50.83692307694582,101.05635150185844 50.67580419580918,101.05635150185844 50.55496503500035,101.06860692779446 50.403916083974764,101.05635150185844 50.28307692310773,101.05635150185844 50.14209790213499,101.06860692779446 50.031328671379015,101.05635150185844 49.90041958040092,101.04409607440903 49.76951048953924,101.06860692779446 49.63860139856115,101.05635150185844 49.50769230769947,101.05635150185844 49.396923076943494,101.08086235223891 49.25594405597076,101.09311777519906 49.14517482521478,101.09311777519906 49.014265734294895,101.09311777519906 48.8430769231054,101.08086235223891 48.73230769234942,101.08086235223891 48.57118881121278,101.08086235223891 48.48055944062071,101.08086235223891 48.349650349642616,101.08086235223891 48.21874125878094,101.06860692779446 48.08783216786105,101.08086235223891 47.94685314683011,101.04409607440903 47.82601398602128,101.04409607440903 47.674965034995694,101.03184064551169 47.53398601402296,101.03184064551169 47.40307692310307,101.01958521510096 47.29230769228889,101.01958521510096 47.15132867137436,101.05635150185844 46.990209790237714,101.08086235223891 46.869370629428886,101.05635150185844 46.72839160845615,101.04409607440903 46.597482517478056,101.03184064551169 46.47664335666923,101.00732978319138 46.315524475532584,101.03184064551169 46.194685314723756,101.00732978319138 46.04363636363996,100.99507434984844 45.902657342667226,100.99507434984844 45.76167832163628,101.03184064551169 45.630769230774604,101.01958521510096 45.46965034963796,100.9828189150212 45.31860139861237,100.95830804087018 45.18769230769249,100.9460526015464 45.04671328671975,100.9092862747566 44.905734265747014,100.9215417184896 44.78489510493819,100.93379716078198 44.6539860140183,100.95830804087018 44.533146853151266,100.97056347869511 44.40223776228959,101.01958521510096 44.271328671311494,101.01958521510096 44.13034965033876,101.00732978319138 43.99944055947708,100.99507434984844 43.8886713287211,100.9828189150212 43.75776223774301,101.00732978319138 43.62685314688133,100.99507434984844 43.506013986014295,101.01958521510096 43.35496503498871,100.9828189150212 43.20391608396312,101.00732978319138 43.09314685314894,100.9828189150212 42.9521678321762,100.9828189150212 42.82125874131452,100.9828189150212 42.710489510558546,100.9460526015464 42.5695104895276,100.9215417184896 42.418461538502015,100.93379716078198 42.26741258741822,100.9460526015464 42.116363636392634,100.9215417184896 41.99552447558381,100.93379716078198 41.85454545455286,100.93379716078198 41.703496503527276,100.9215417184896 41.57258741260739,100.9215417184896 41.441678321687505,100.93379716078198 41.29062937066192,100.9460526015464 41.14965034968918,100.97056347869511 41.02881118882215,100.93379716078198 40.89790209796047,100.89703082953201 40.75692307698773,100.9092862747566 40.626013986067846,100.88477538279403 40.4850349650369,100.89703082953201 40.364195804228075,100.9215417184896 40.24335664341925,100.89703082953201 40.10237762244651,100.87251993460814 39.95132867136272,100.87251993460814 39.83048951049568,100.87251993460814 39.67944055941189,100.84800903375435 39.57874125876697,100.82349812696339 39.44783216784708,100.82349812696339 39.306853146874346,100.82349812696339 39.20615384617122,100.84800903375435 39.05510489514563,100.83575358107919 38.914125874172896,100.84800903375435 38.78321678325301,100.88477538279403 38.632167832227424,100.88477538279403 38.49118881125469,100.89703082953201 38.39048951049335,100.86026448493794 38.24951048952062,100.86026448493794 38.11860139865894,100.86026448493794 38.00783216790296,100.83575358107919 37.84671328670811,100.86026448493794 37.71580419584643,100.84800903375435 37.554685314709786,100.83575358107919 37.4237762237899,100.84800903375435 37.323076923086774,100.83575358107919 37.07132867135806,100.84800903375435 36.77930069935974,100.83575358107919 36.557762237789575,100.79898721424252 36.32615384616656,100.79898721424252 35.873006993031595,100.86026448493794 35.59104895108612,100.78673175566655 35.40979020978557,100.76222083400353 35.05734265741194,100.78673175566655 34.88615384622244,100.73770990646153 34.7250349650858,100.72545444047864 34.422937063034624,100.77447629556991 34.130909090919886,100.81124267134874 33.86909090913832,100.9215417184896 33.65762237762101,100.89703082953201 29.680000000051223,100.67643256157317 29.44839160842821,100.67643256157317 29.196643356699497,100.63966613687808 28.864335664373357,100.72545444047864 28.602517482533585,100.65192161326559 28.33062937069917,100.60289969878067 27.968111888156272,100.60289969878067 24.705454545503017,100.566133247361 24.463776223827153,100.59064421643416 24.141538461612072,100.566133247361 23.90993006998906,100.529366782539 23.648111888149288,100.43132281114231 23.335944055987056,100.51711129130126 23.003636363719124,100.529366782539 22.772027972037904,100.54162227227789 20.16391608392587,100.50485579860106 19.82153846154688,100.50485579860106 19.650349650357384,100.50485579860106 19.479160839226097,100.529366782539 19.42881118884543,100.46808931155829 19.277762237819843,100.4803448087041 18.935384615440853,100.49260030441656 18.804475524520967,100.41906730805204 18.532587412628345,100.39455629742588 18.31104895111639,100.41906730805204 18.09958041959908,100.41906730805204 17.948531468573492,100.38230078986817 16.871048951114062,100.40681180347747 16.55888111895183,100.41906730805204 16.31720279721776,100.33327874480165 16.085594405594748,100.38230078986817 15.723076923110057,100.37004528079706 15.481398601434194,100.40681180347747 15.249790209869388,100.45583381292818 14.977902097976767,100.39455629742588 14.695944055973087,100.37004528079706 14.454265734297223,100.35778977029986 14.132027972023934,100.33327874480165 13.940699300728738,100.33327874480165 13.719160839216784,100.34553425827471 13.235804195865057,100.37004528079706 13.034405594458804,100.25974563271302 13.014265734294895,100.54162227227789 13.044475524511654,100.76222083400353 13.08475524483947,100.9460526015464 12.994125874189194,101.15439486785908 12.873286713380367,101.1789056945272 12.893426573486067,100.86026448493794 12.681958042026963,100.87251993460814 12.510769230837468,101.05635150185844 12.440279720292892,101.20341651527997 12.420139860187192,101.39950286748353 12.470489510509651,101.74265306987218 12.49062937067356,102.00001495835022 12.611468531540595,102.36767366398271 12.621538461593445,102.612778725932 12.681958042026963,102.89464881348249 12.712167832243722,103.13975259951258 12.77258741267724,103.31132489661832 12.80279720283579,103.55642767379322" stroke="#4DD2FF" stroke-dasharray="none" stroke-linecap="round" stroke-linejoin="round" stroke-width="0.5"><title>2013-12-10 10.9km</title><desc>9223370650177580807</desc></polyline><polyline fill="none" opacity="1" points="101.65180435962975,123.60000000009313 102.47770654037595,118.07444365136325 103.71655981056392,111.5442312238738 105.36836417019367,104.00935797719285 105.36836417019367,99.4884274713695 104.9554130807519,91.95353236515075 102.89065762981772,85.92560644354671 100.41295109130442,81.90698430361226 94.63163583166897,80.39999999990687" stroke="#4DD2FF" stroke-dasharray="none" stroke-linecap="round" stroke-linejoin="round" stroke-width="0.5"><title>2013-11-30 10.3km</title><desc>9223370651086224807</desc></polyline><polyline fill="none" opacity="1" points="176.49274856690317,107.32996453368105 175.80091899074614,106.20788891729899 176.03152885008603,102.28061998845078 177.41518800146878,97.2312644557096 177.41518800146878,96.10918395733461 175.80091899074614,93.02345978678204 178.1070175776258,90.49877332313918 176.49274856690317,89.37668956816196 174.87847955711186,86.8519991368521 172.80299082957208,83.7662626572419 170.95811196044087,83.20521922083572 167.9601837983355,80.4000000001397 163.34798662550747,82.64417564729229 160.11944860499352,86.01043504965492 157.12152044288814,89.09616854530759 155.96847114898264,91.05981499678455 155.73786129057407,95.5481435037218 157.3521303012967,99.75594359473325 155.5072514321655,103.40269750310108 154.58481199666858,105.92736992868595 155.2766415728256,108.17152088950388 154.35420214012265,111.25722491787747 154.58481199666858,114.34292484284379 154.58481199666858,117.98965582833625 156.66030072513968,119.39224314200692 159.4276190288365,121.35586395906284 162.88676690869033,122.75844923895784 165.8846950698644,123.60000000009313 169.11323309037834,123.03896619309671 171.88055139407516,120.79482960957102 174.4172598393634,117.98965582833625 176.03152885008603,114.0624068370089 176.26213870756328,110.97670653951354 176.49274856690317,107.89100213861093 176.49274856690317,104.52477447572164 175.80091899074614,101.15854193037376 176.49274856690317,97.79230450256728 176.72335842624307,94.98710291530006 177.64579785987735,91.62085653445683 177.1845781430602,88.5351263966877 175.80091899074614,85.72991361888126 173.95604012254626,83.7662626572419 171.88055139407516,82.92469745082781 168.6520133735612,82.08313193893991 165.8846950698644,82.08313193893991 162.65615704935044,83.7662626572419 160.81127818115056,84.32730595883913 158.73578945267946,86.57147780805826 157.12152044288814,88.5351263966877 156.89091058447957,91.62085653445683 155.96847114898264,95.5481435037218 156.4296908667311,98.63386431708932 155.73786129057407,102.56113941781223 155.73786129057407,104.52477447572164 155.2766415728256,109.01307694031857 153.8929824223742,112.94033447606489 154.35420214012265,116.86758536635898 155.73786129057407,118.83120831870474 159.65822888724506,119.95327783143148 162.88676690869033,122.19741522870027" stroke="#4DD2FF" stroke-dasharray="none" stroke-linecap="round" stroke-linejoin="round" stroke-width="0.5"><title>2013-11-16 10.4km</title><desc>9223370652294258807</desc></polyline><polyline fill="none" opacity="1" points="43.12510509137064,155.70008745137602 45.09810078795999,150.60009392397478 45.34472524933517,146.4000913859345 45.837974173016846,143.1000844053924 45.59134971071035,138.90006917435676 45.837974173016846,135.90005394420587 44.60485186241567,132.6000330010429 40.41223600972444,129.90001260256395 36.712869081646204,129.00000514974818 33.013502151705325,129.00000514974818 29.06751076038927,130.50001738895662 26.354641679674387,132.30003087921068 25.121519369073212,136.50005727959797 23.395148135721684,141.30007874849252 23.395148135721684,144.30008745123632 23.148523674346507,147.0000921834726 22.40865028835833,151.20009370637126 22.655274749733508,155.10008875629865 22.40865028835833,158.10008077835664 22.655274749733508,163.20005889236927 23.64177259709686,165.60004496737383 26.108017217367887,167.7000308786519 30.793881993740797,171.60000000009313 34.73987338505685,171.60000000009313 38.43924031406641,170.40001015365124 40.65886047203094,169.20001972699538 43.37172955367714,165.90004306309856 44.111602938733995,163.20005889236927 43.86497847735882,159.000077677425 44.35822740197182,154.2000904425513 45.34472524933517,151.20009370637126 46.08459863439202,147.60009283619002 46.08459863439202,144.00008674431592 46.33122309669852,139.80007303715684 45.837974173016846,135.90005394420587 43.61835401598364,132.6000330010429 40.90548493433744,130.50001738895662 36.712869081646204,128.4000000001397 33.013502151705325,129.00000514974818 29.560759685002267,130.50001738895662 26.354641679674387,132.0000287219882 23.64177259709686,135.00004866719246 22.901899211108685,140.40007542981766 23.148523674346507,144.00008674431592 22.655274749733508,147.60009283619002 24.13502152170986,151.20009370637126 22.40865028835833,156.90008440450765 21.668776902370155,160.80007049744017 22.40865028835833,164.70005046087317 22.655274749733508,166.80003713420592 26.354641679674387,169.20001972699538 29.314135221764445,170.70000767009333 34.24662446137518,171.30000259238295 37.699366928078234,170.70000767009333 40.90548493433744,169.20001972699538 43.12510509137064,166.20004112226889 43.86497847735882,162.60006201080978 44.85147632472217,159.000077677425 45.34472524933517,155.4000881218817 45.59134971071035,152.10009310836904 46.08459863439202,149.1000938336365 46.33122309669852,145.50008991756476" stroke="#4DD2FF" stroke-dasharray="none" stroke-linecap="round" stroke-linejoin="round" stroke-width="0.5"><title>2013-11-03 10.7km</title><desc>9223370653417861807</desc></polyline><polyline fill="none" opacity="1" points="87.92526488378644,159.2160800890997 87.92526488378644,162.96006266516633 89.34582195524126,167.28003524802625 92.4236956126988,169.5840174248442 96.92212634254247,171.31200259411708 100.23675951175392,171.60000000009313 104.02491170540452,170.16001262003556 107.33954487461597,167.28003524802625 107.8130638981238,162.6720642137807 109.94389950763434,158.06408426584676 110.18065902031958,154.60809345706366 110.18065902031958,151.44009747868404 110.41741853114218,147.1200961722061 110.65417804382741,142.80008703446947 111.83797560445964,139.0560727783013 112.07473511714488,135.3120526385028 109.94389950763434,132.7200352489017 108.5233424352482,130.41601742454804 105.44546877872199,128.9760051521007 101.65731658414006,128.4000000001397 97.86916439142078,129.2640076763928 94.55453122220933,129.84001261997037 89.34582195524126,133.8720433257986 88.63554341997951,135.0240508459974 88.63554341997951,136.46405946207233 89.81934097968042,139.63207535468973" stroke="#4DD2FF" stroke-dasharray="none" stroke-linecap="round" stroke-linejoin="round" stroke-width="0.5"><title>2013-11-02 10.5km</title><desc>9223370653505000807</desc></polyline><polyline fill="none" opacity="1" points="172.65886771772057,165.66004954348318 174.6565280323848,162.96006684168242 175.54437706060708,159.18008557590656 175.54437706060708,155.94009654247202 175.7663393188268,152.70010280935094 175.54437706060708,149.46010437584482 175.54437706060708,146.49010168295354 176.43222609069198,142.98009340977296 176.87615060433745,140.01008210144937 176.43222609069198,137.31006839242764 175.32241480425,134.34004954481497 173.99064126145095,132.72003759886138 170.4392451448366,130.56001984444447 167.7756980592385,128.4000000001397 165.3341132281348,129.48001018329524 162.0046793706715,130.8300221778918 159.78505679685622,132.45003549358808 158.67524551134557,135.69005860155448 158.2313209977001,138.12007284793071 157.7873964831233,141.63008875912055 156.45562293939292,144.33009724435396 156.01169842481613,146.76010209089145 156.23366068210453,150.81010429398157 157.7873964831233,154.32010026299395 154.90188713837415,155.13009854895063 155.12384939659387,156.21009580790997 154.45796262472868,157.56009164638817 154.90188713837415,163.23006525845267 160.22898131329566,166.20004569296725 165.77803774364293,167.55003549298272 167.1098112873733,167.55003549298272 169.10747160110623,167.55003549298272 171.77101868763566,168.3600289823953 173.99064126145095,164.0400603134185 174.6565280323848,162.96006684168242 174.8784902896732,160.5300796192605 175.54437706060708,159.18008557590656 173.54671674594283,158.91008666879497 174.8784902896732,158.10008975397795 176.2102638334036,155.94009654247202 175.9883015761152,150.81010429398157 176.2102638334036,149.46010437584482 175.7663393188268,146.2201012421865 176.2102638334036,142.1700907170307 175.7663393188268,136.7700652598869 175.32241480425,133.26004171161912 173.54671674594283,129.75001264712773 169.55139611661434,129.48001018329524 165.77803774364293,129.21000768686645 162.6705661425367,130.56001984444447 159.78505679685622,132.72003759886138 156.67758519575,133.26004171161912 156.45562293939292,137.58006991050206 156.23366068210453,140.55008445074782 156.01169842481613,144.0600965428166 154.90188713837415,147.57010311936028 155.34581165295094,151.62010385282338 155.12384939659387,155.13009854895063 154.90188713837415,159.18008557590656 154.90188713837415,161.61007426702417 158.45328325405717,165.66004954348318 164.00233968626708,168.63002674723975 166.44392451550812,169.98001507879235 169.32943385839462,171.60000000009313 173.32475448958576,167.82003335561603 175.1004525469616,162.69006839231588 175.54437706060708,159.7200832911767 175.54437706060708,158.6400877290871 175.1004525469616,153.24010209064 174.8784902896732,148.92010417976417 175.32241480425,146.2201012421865 175.54437706060708,142.98009340977296 177.09811286255717,138.93007700890303 175.7663393188268,135.96006031497382 174.43456577509642,134.34004954481497 172.88082997407764,130.8300221778918 170.21728288847953,130.02001507859677 166.0,129.75001264712773 162.0046793706715,130.56001984444447 159.78505679685622,130.8300221778918 156.89954745396972,132.72003759886138 154.90188713837415,135.69005860155448 154.67992488108575,138.39007426798344 155.34581165295094,139.7400808769744 154.23600036650896,142.71009254432283 154.67992488108575,145.95010076928884 154.90188713837415,147.57010311936028 154.45796262472868,150.27010442432947 154.90188713837415,153.78010124200955 154.67992488108575,157.02009340864606 154.90188713837415,161.34007565444335 157.5654342258349,166.20004569296725 161.7827171124518,168.63002674723975 163.11449065618217,168.3600289823953 166.0,169.98001507879235 167.99766031466424,169.1700221770443 171.1051319167018,171.33000259427354 173.32475448958576,168.63002674723975 174.8784902896732,162.42006990942173 173.99064126145095,158.37008875748143 175.1004525469616,151.35010403278284 174.8784902896732,147.0301024664659 174.8784902896732,145.68010026379488 176.43222609069198,142.98009340977296 177.76399963349104,140.82008557626978 177.09811286255717,136.7700652598869 175.32241480425,132.1800333559513 173.10279223136604,129.75001264712773 169.9953206302598,128.6700025945902 166.0,128.94000515691005 161.1168303405866,130.56001984444447 157.1215097112581,132.1800333559513 156.67758519575,133.53004371840507 155.56777391023934,134.61005142168142 155.78973616752774,137.04006684245542 156.01169842481613,138.6600756549742 156.23366068210453,142.1700907170307 156.23366068210453,143.5200950417202 156.23366068210453,147.84010339644738 156.01169842481613,149.19010429433547 155.12384939659387,151.62010385282338 155.78973616752774,155.13009854895063 154.90188713837415,156.21009580790997 155.12384939659387,161.07007700833492 156.23366068210453,162.15007139416412 156.23366068210453,163.50006364332512" stroke="#4DD2FF" stroke-dasharray="none" stroke-linecap="round" stroke-linejoin="round" stroke-width="0.5"><title>2013-10-26 11.1km</title><desc>9223370654110301807</desc></polyline><polyline fill="none" opacity="1" points="25.705628934316337,215.62108581862412 28.042071488685906,217.89475188939832 30.845802552998066,218.46316806343384 34.11682212725282,217.89475188939832 38.08877446874976,216.18950254260562 41.359794043935835,213.91583482245915 42.29437106475234,209.93691102182493 42.06072680931538,206.52639954793267 42.52801532112062,202.26325324806385 42.52801532112062,198.85273064253852 42.52801532112062,195.1579922370147 43.92988085281104,191.4632480267901 45.565390639938414,189.18955639493652 46.49996766168624,186.63165068160743 46.26632340531796,184.07374218595214 43.92988085281104,181.23161837016232 40.8925055321306,179.81055517448112 37.855130213312805,177.25263925665058 34.58411063905805,176.4000000001397 31.0794468075037,177.82106525660492 28.27571574319154,180.09476788225584 25.705628934316337,182.6526807071641 25.238340424373746,185.77901482582092 25.238340424373746,189.4737679695245 24.771051913499832,192.60009301709943 24.30376340262592,196.86325683817267 21.50003233831376,199.9895720607601 21.967320849187672,203.68430287321098 21.733676593750715,207.94744659680873 22.200965103693306,211.07374708005227 22.200965103693306,213.91583482245915 24.30376340262592,216.75791912851855 27.341138722375035,219.0315841003321 30.61215829756111,219.60000000009313 34.58411063905805,219.0315841003321 37.154197447001934,217.610543750925 40.8925055321306,215.90529419737868 41.82708255480975,213.6316262029577 43.462592341937125,210.22112008789554 43.92988085281104,206.81060902611353 43.92988085281104,203.1158831268549 44.39716936368495,199.70536175812595 45.0981021290645,195.4422030900605 45.33174638450146,192.0316705906298 45.79903489537537,189.18955639493652 45.565390639938414,185.49480280443095 44.63081361912191,181.80004340759479 42.52801532112062,179.24212965508923 39.4906400013715,178.10527820512652 35.98597617074847,177.53685227409005 32.48131234012544,177.53685227409005 29.21029276587069,178.95791684417054 25.705628934316337,181.23161837016232 24.30376340262592,184.07374218595214 25.004696168005466,188.33692146651447 23.602830636315048,191.74745932617225 23.36918638087809,194.58957042940892 23.36918638087809,198.28430972713977 21.733676593750715,201.69483315735124 22.200965103693306,206.52639954793267 21.967320849187672,209.3684927856084 23.36918638087809,212.21058258996345 24.30376340262592,215.90529419737868 25.238340424373746,217.610543750925 30.845802552998066,219.0315841003321 34.81775489356369,218.46316806343384 37.38784170243889,216.18950254260562 41.59343829844147,212.77900013769977 43.22894808650017,211.9263737637084 43.92988085281104,209.08428361662664 43.462592341937125,205.95798048726283 43.462592341937125,202.26325324806385 43.462592341937125,199.13694104878232" stroke="#4DD2FF" stroke-dasharray="none" stroke-linecap="round" stroke-linejoin="round" stroke-width="0.5"><title>2013-10-20 10.7km</title><desc>9223370654628121807</desc></polyline><polyline fill="none" opacity="1" points="104.08877644408494,176.4000000001397 100.58411092031747,178.67370399995707 98.01402286812663,182.08425587625243 97.07944539561868,185.21059075021185 97.07944539561868,188.3369214674458 96.37851229030639,191.74745932640508 96.14486792124808,196.0106246934738 94.97664608061314,199.42115142103285 95.44393481593579,202.5474632421974 94.27571297530085,206.52639954793267 96.84580102656037,209.08428361755796 97.78037850093096,212.49479138175957 99.6495334468782,216.18950254376978 101.98597713001072,218.17895999434404 105.72428702376783,219.60000000009313" stroke="#4DD2FF" stroke-dasharray="none" stroke-linecap="round" stroke-linejoin="round" stroke-width="0.5"><title>2013-10-19 10.2km</title><desc>9223370654714312807</desc></polyline><polyline fill="none" opacity="1" points="156.63502388447523,191.7863887855783 155.6620393525809,195.33708015549928 154.93230095412582,198.59187605278566 154.68905482254922,201.8466676226817 154.68905482254922,205.98912336095236 155.17554708756506,209.83568312670104 156.87827001698315,213.68223684793338 158.09450068231672,215.75345557858236 161.01345427706838,219.00822432828136 164.66214626841247,219.00822432828136 167.58109986409545,219.60000000009313 170.98654572386295,218.1205605531577 173.66225318517536,216.34523203712888 175.3649761164561,212.79457114078104 175.85146838147193,208.35623777774163 176.09471451491117,203.6220066549722 176.09471451491117,200.66310755256563 176.09471451491117,197.11242390889674 177.06769904587418,194.1535169375129 177.79743744432926,190.60282385186292 177.55419131275266,186.164450250566 175.3649761164561,179.95071368920617 172.68926865514368,177.87946466286667 167.8243459975347,176.4000000001397 164.90539240278304,176.6958930043038 161.98643880710006,179.35892843198963 159.31073134578764,181.4301762059331 158.58099294733256,184.38909855671227 157.12151614949107,189.12336687906645 155.6620393525809,193.56173511454836 155.6620393525809,197.11242390889674 154.20256255567074,200.66310755256563 154.44580868817866,204.50967568764463 154.68905482254922,207.76445938879624 154.20256255567074,211.31512758042663 156.14853161852807,215.4575672952924 158.8242390807718,218.1205605531577 161.49994654208422,218.41644851467572 166.60811533220112,219.00822432828136 169.52706892602146,217.52878452464938 172.68926865514368,214.86579062230885 173.66225318517536,212.20279382448643" stroke="#4DD2FF" stroke-dasharray="none" stroke-linecap="round" stroke-linejoin="round" stroke-width="0.5"><title>2013-10-12 10.6km</title><desc>9223370655320152807</desc></polyline><polyline fill="none" opacity="1" points="31.632404879666865,267.60000000009313 34.710278537124395,267.60000000009313 38.97194975428283,265.8720150399022 41.57630438823253,263.8560310017783 43.943899508565664,260.6880526384339 44.890937557443976,256.9440727783367 45.12769706826657,252.33608948835172 43.943899508565664,248.59209650335833 44.180659021250904,243.40809650346637 45.36445658095181,239.37608870584518 45.60121609363705,236.2080777916126 46.54825414158404,233.32806421397254 45.837975605390966,231.0240508459974 43.23362097237259,227.28002436971292 38.97194975428283,225.84001261997037 35.42055707331747,224.9760051521007 32.57944292854518,224.9760051521007 30.21184780728072,226.12801503995433 26.1869361018762,228.14403100241907 24.76637902855873,231.0240508459974 23.81934098061174,234.48007006268017 24.05610049236566,238.5120861462783 24.05610049236566,241.96809450211003 24.292860004119575,245.13609775714576 24.05610049236566,248.88009617221542 22.398783908225596,251.47209162986837 21.6885053711012,254.3520832741633 21.451745859347284,257.2320714369416 22.398783908225596,260.1120561193675 23.582581467926502,262.41604135814123 25.239898052997887,265.296019774396 28.317771709524095,266.7360076766927 31.632404879666865,266.7360076766927 36.6043546339497,267.60000000009313 39.68222829140723,264.72002436965704 41.57630438823253,262.1280433256179 43.943899508565664,258.3840657279361 44.180659021250904,254.3520832741633 44.180659021250904,250.89609288284555 45.36445658095181,247.15209763497114 46.07473511714488,243.69609680003487 45.837975605390966,240.52809162950143 45.837975605390966,237.93608426721767 46.31149462983012,234.48007006268017 45.60121609363705,231.6000543970149 44.65417804475874,229.00803732057102 43.23362097237259,226.12801503995433 40.155747315846384,224.4000000001397 36.6043546339497,224.4000000001397 32.57944292854518,224.4000000001397 28.791290735825896,224.9760051521007" stroke="#4DD2FF" stroke-dasharray="none" stroke-linecap="round" stroke-linejoin="round" stroke-width="0.5"><title>2013-10-06 10.6km</title><desc>9223370655838244807</desc></polyline><polyline fill="none" opacity="1" points="95.27249789983034,228.6078275591135 93.65822888817638,230.2909564457368 93.42761902883649,231.97408411232755 92.50517959613353,234.77929417719133 92.27456973679364,237.86502133100294 91.5827401606366,242.07282447465695 90.89091058447957,245.15854193037376 91.5827401606366,248.80529363360256 90.660300726071,251.89100213861093 90.19908100832254,255.53774326271378 89.27664157561958,258.3429248428438 89.27664157561958,260.3065499314107 90.19908100832254,263.3922431420069 91.8133500199765,265.6363810834009 95.96432747505605,266.75844923895784 99.19286549650133,267.60000000009313 102.19079365767539,266.75844923895784 105.18872181978077,266.47793225129135 107.26421054638922,264.23379512433894 108.64786969870329,261.98965582833625 109.57030913420022,258.0624068370089 109.33969927486032,254.97670653951354 110.26213870942593,251.04944568034261 110.26213870942593,247.40269750310108 110.03152885008603,243.75594359473325 109.80091899260879,238.98710291530006 110.26213870942593,235.62085653445683 110.95396828558296,234.21825243486091 110.26213870942593,231.41304169245996 107.95604012254626,228.88834912492894 104.9581119613722,226.0831319389399 102.88262323383242,225.2415661229752 99.65408521238714,225.80261003412306 96.19493733346462,225.80261003412306 94.35005846433342,226.6441756472923 93.19700917135924,229.72991361888126 91.5827401606366,232.5351263966877 91.35213030222803,235.62085653445683 90.660300726071,239.26762322615832 89.96847115084529,243.19490402424708 89.5072514321655,245.7195810272824 88.81542185787112,248.80529363360256 88.81542185787112,252.17152088950388 87.89298242330551,255.53774326271378 87.43176270555705,258.0624068370089 87.66237256396562,261.14810303226113 88.81542185787112,263.6727605035994 91.8133500199765,266.19741522870027 95.50310775730759,267.0389661930967 99.65408521238714,267.319483113708 103.34384294971824,266.75844923895784 105.8805513959378,264.794829609571 108.64786969870329,262.55069085536525 109.80091899260879,258.3429248428438 110.26213870942593,255.53774326271378 110.72335842624307,252.4520396075677 110.95396828558296,249.6468509058468 111.4151880024001,245.7195810272824 111.64579786174,243.4754238263704 111.87640772014856,240.3897041331511 112.10701757855713,237.5845008501783 112.3376274369657,234.49877332313918 111.64579786174,231.69356291904114 110.4927485678345,229.1688706574496 108.18664998188615,226.6441756472923 105.64994153752923,225.2415661229752 102.88262323383242,224.4000000001397 100.57652464695275,224.96104411478154 96.65615705028176,225.52208809531294 93.88883874751627,227.20521922083572 92.50517959613353,230.8519991368521 90.89091058447957,235.34033578261733 89.96847115084529,238.14554177806713 89.7378612915054,240.3897041331511 89.5072514321655,243.4754238263704 89.7378612915054,246.56113941781223 89.96847115084529,249.92736992868595 89.7378612915054,253.01307694031857 89.5072514321655,256.3792980927974 89.96847115084529,259.7455143611878 91.35213030222803,262.83120831870474 93.88883874751627,264.5143123844173 96.65615705028176,267.319483113708 100.57652464695275,267.319483113708 102.88262323383242,267.0389661930967 106.34177111368626,265.35586395906284 108.41725984029472,263.3922431420069 109.57030913420022,260.0260321632959 110.03152885008603,257.2208526181057 110.95396828558296,254.13515119976364 110.95396828558296,250.76892679347657 111.64579786174,247.96373605774716 111.64579786174,244.8780223308131 111.4151880024001,241.79230450256728 112.56823729537427,238.14554177806713 111.64579786174,235.34033578261733 110.72335842624307,231.97408411232755 110.03152885008603,229.44939215504564 107.49482040572912,227.7662626572419 104.26628238521516,226.0831319389399 101.26835422310978,226.6441756472923 97.11737676803023,226.9246974508278 94.11944860592484,228.88834912492894 92.7357894545421,230.8519991368521 90.660300726071,234.21825243486091 90.19908100832254,236.46241858764552 89.27664157561958,240.1091839573346 89.5072514321655,243.19490402424708 88.35420214012265,246.28061998845078" stroke="#4DD2FF" stroke-dasharray="none" stroke-linecap="round" stroke-linejoin="round" stroke-width="0.5"><title>2013-09-29 10.5km</title><desc>9223370656443428807</desc></polyline><polyline fill="none" opacity="1" points="171.39451922569424,225.49368106527254 170.0458894195035,225.76710125035606 166.00000000093132,224.94684059894644 163.30274038854986,226.5873616025783 160.83025241084397,228.22788141667843 159.7063942393288,232.055756355403 158.35776443313807,233.6962722032331 157.6834495300427,238.6178126083687 157.00913462694734,240.80516046099365 156.78436299227178,244.9064319843892 156.78436299227178,247.09377375710756 156.55959135852754,249.28111341316253 156.55959135852754,253.38236956926994 155.2109615523368,255.56970314332284 155.6605048207566,261.0380278278608 156.55959135852754,263.4987696236931 161.95411058235914,265.4126780577935 164.2018269263208,265.95950874197297 167.5734014417976,265.95950874197297 171.61929085943848,264.86584724183194 174.5413221064955,262.1316911787726 176.5642668157816,258.0304508882109 177.23858171794564,253.65578638156876 175.66518027801067,250.92161676776595 174.09177883714437,249.55453072185628 175.88995191268623,245.17984982184134 177.4633533526212,239.98490526387468 177.91289662197232,238.07097531366162 177.23858171794564,235.06336783478037 178.36243989039212,231.235497985268 175.66518027801067,228.50130126997828 172.9679206656292,225.49368106527254 171.16974759101868,224.94684059894644 165.77522836625576,225.49368106527254 164.2018269263208,225.76710125035606 161.27979567926377,228.22788141667843 158.80730770155787,230.41523931804113 158.1329927984625,232.87601442844607 157.6834495300427,236.43046263838187 156.55959135852754,241.07857879367657 157.00913462694734,244.35959621169604 157.23390626069158,246.54693851224147 156.55959135852754,250.92161676776595 157.00913462694734,254.20261990698054 155.6605048207566,258.3038671386894 156.33481972385198,261.5848595700227 156.55959135852754,263.4987696236931 160.38070914242417,264.86584724183194 163.97705529164523,267.3265848727897 166.22477163467556,266.77975451922975 169.14680288173258,265.95950874197297 172.0688341287896,264.86584724183194 174.9908653749153,261.5848595700227 175.21563700959086,259.3975318111479 175.88995191268623,256.66336913825944 176.78903844952583,253.92920316033997 177.91289662197232,250.92161676776595 177.0138100842014,247.3671913293656 175.88995191268623,243.53934230282903 176.11472354643047,240.5317420954816 176.5642668157816,237.25071912514977 177.68812498729676,236.43046263838187 178.58721152413636,232.87601442844607 177.23858171794564,230.14181969570927 178.36243989039212,230.41523931804113 177.91289662197232,227.68104161159135 174.76609374023974,226.31394151831046 171.39451922569424,225.22026084875688 168.24771634489298,224.6734203158412 164.2018269263208,225.76710125035606 161.0550240445882,228.22788141667843 158.35776443313807,230.14181969570927 158.1329927984625,233.42285297834314 155.88527645543218,237.25071912514977 154.53664664924145,241.62541536078788 156.11004808917642,241.62541536078788 156.78436299227178,243.2659242679365 156.33481972385198,246.8203561506234 155.6605048207566,250.92161676776595 153.41278847679496,253.10895272321068 155.43573318701237,256.11653620772995 155.6605048207566,258.57728335657157 157.23390626069158,262.9519383441657 159.256850970909,265.4126780577935 161.95411058235914,266.23292403365485 165.77522836625576,266.23292403365485 169.37157451640815,267.60000000009313 172.9679206656292,266.23292403365485 174.09177883714437,264.0456007702742 174.31655047181994,260.49119595531374 175.66518027801067,259.3975318111479 175.88995191268623,255.29628656315617 177.91289662197232,248.73427869705483 177.91289662197232,244.08617827459238 175.88995191268623,241.35199709353037 176.5642668157816,238.07097531366162 177.0138100842014,235.61020585522056 177.4633533526212,232.055756355403 177.23858171794564,230.14181969570927 175.66518027801067,227.1342016728595 172.0688341287896,225.76710125035606 168.69725961331278,224.4000000001397 166.00000000093132,225.76710125035606 163.52751202322543,226.8607816544827" stroke="#4DD2FF" stroke-dasharray="none" stroke-linecap="round" stroke-linejoin="round" stroke-width="0.5"><title>2013-09-22 10.9km</title><desc>9223370657048162807</desc></polyline></svg>