<?xml version="1.0" encoding="utf-8" ?>
<svg baseProfile="full" height="300mm" version="1.1" viewBox="0,0,200,300" width="200mm" xmlns="http://www.w3.org/2000/svg" xmlns:ev="http://www.w3.org/2001/xml-events" xmlns:xlink="http://www.w3.org/1999/xlink"><defs /><rect fill="#222222" height="300" width="200" x="0" y="0" /><text fill="#FFFFFF" style="font-size:12px; font-family:Arial; font-weight:bold;" x="10" y="20">Over 10km Runs</text><text fill="#FFFFFF" style="font-size:4px; font-family:Arial" x="10" y="280">Runner</text><text fill="#FFFFFF" style="font-size:9px; font-family:Arial" x="10" y="290">keep</text><text fill="#FFFFFF" style="font-size:4px; font-family:Arial" x="65" y="280">SPECIAL TRACKS</text><rect fill="yellow" height="2.6" width="2.6" x="65" y="283" /><text fill="#FFFFFF" style="font-size:3px; font-family:Arial" x="70" y="285.5">Over 20.0 km</text><rect fill="red" height="2.6" width="2.6" x="65" y="287" /><text fill="#FFFFFF" style="font-size:3px; font-family:Arial" x="70" y="289.5">Over 40.0 km</text><text fill="#FFFFFF" style="font-size:4px; font-family:Arial" x="120" y="280">STATISTICS</text><text fill="#FFFFFF" style="font-size:3px; font-family:Arial" x="120" y="285">Number: 15</text><text fill="#FFFFFF" style="font-size:3px; font-family:Arial" x="120" y="290">Weekly: 1.2</text><text fill="#FFFFFF" style="font-size:3px; font-family:Arial" x="141" y="285">Total: 163.6 km</text><text fill="#FFFFFF" style="font-size:3px; font-family:Arial" x="141" y="290">Avg: 10.9 km</text><text fill="#FFFFFF" style="font-size:3px; font-family:Arial" x="167" y="285">Min: 10.2 km</text><text fill="#FFFFFF" style="font-size:3px; font-family:Arial" x="167" y="290">Max: 14.0 km</text><polyline fill="none" opacity="1" points="26.85775161680067,75.59999999999854 26.762694469536655,75.458612010676 26.6849204399914,75.26284362077422 26.60714641038794,75.03444657179352 26.563938616163796,74.76254448893451 26.60714641038794,74.41450849985995 26.641712645738153,74.12085197858687 26.633071086893324,73.80544194444519 26.615787969203666,73.49003069022001 26.633071086893324,73.14198926964309 26.641712645738153,72.83745180801634 26.658995763398707,72.56554239897378 26.658995763398707,72.27187921873701 26.8059022637608,72.0869796367333 27.082432146708015,72.02172086059 27.26390488242032,71.99996792359889 27.26390488242032,71.82594421885733 27.333037353149848,71.64104362561193 27.333037353149848,71.3582536719332 27.333037353149848,71.03195635281736 27.108356823242502,70.81442408126168 26.875034734490328,70.69478108453768 26.935525646375027,70.2705908632779 26.961450322909513,69.98779615636886 27.021941234794213,69.62886300046375 27.05650747017353,69.2808050978565 27.11699838208733,68.96537634012202 27.142923058621818,68.71520783699088 27.18613085281686,68.46503856620984 27.255263323546387,68.3888999401388 27.272546441236045,68.18223759668763 27.220697088196175,68.09522171638673 27.29847111774143,67.92118967723218 27.35896202965523,67.7036491058534 27.42809450038476,67.42084549526771 27.479943853453733,67.14891802152124 27.58364255959168,66.80084953172627 27.652775030292105,66.5180427895175 27.739190618740395,66.2352350663059 27.89473867788911,66.15909435781941 28.084852972388035,66.24611230457958 28.318175061169313,66.22435782659886 28.568780267611146,66.06119905671949 28.672478973690886,65.84365352227906 28.819385473965667,65.53908879886148 28.974933533143485,65.23452293760784 29.147764710040065,64.92995593852538 29.30331276918878,64.66889760516642 29.450219269492663,64.3969609522901 29.605767328641377,64.1141458710481 29.744032270129537,63.820452248241054 29.942788123502396,63.45061432924558 30.158827094564913,63.08077473240701 30.38350762447226,62.678300323488656 30.582263477845117,62.34109050514962 30.75509465468349,62.04739049454656 30.936567390395794,61.75368942582281 31.11804012604989,61.49262092085701 31.239021949877497,61.28594109479309 31.429136244376423,60.99223728265497 31.63653365659411,60.67677645389631 31.71430768619757,60.38307044698013 31.843931068840902,60.07848532203934 32.059970039874315,59.7956552584219 32.3278583639767,59.59984925491881 32.55253889388405,59.349652010409045 32.690803835343104,59.110332188385655 32.8377103357052,58.93628096741304 32.92412592412438,58.78398584421666 33.027824630233226,58.544664361434116 33.10559865980758,58.33797706083715 33.2611467189563,58.218315752543276 33.42533633694984,58.18568081979902 33.53767660190351,58.16392419073236 33.67594154339167,58.03338429422001 33.8055649260059,57.87020912961452 33.995679220563034,57.674398500908865 34.18579351512017,57.402438514036476 34.349983133084606,57.21750520468049 34.27220910351025,56.902029767363274 34.280850662325975,56.65182424201339 34.37590780961909,56.39073939668015 34.591946780652506,56.151410887199745 34.773419516393915,55.92296029073623 34.89440134016331,55.629237154484144 35.024024722806644,55.3355129597694 35.248705252684886,55.0635451690905 35.49931045912672,54.83509152355691 35.672141635935986,54.5848796532955 35.80176501860842,54.29115169507713 35.93138840125175,53.98654380552762 36.104219578090124,53.714571513621195 36.40667413757183,53.62754018852138 36.61407154976041,53.496993026659766 36.743694932432845,53.181503188861825 36.8214689620072,52.898649192618905 36.881959873921005,52.58315703873086 36.95109234465053,52.267663663580606 37.03750793306972,51.908652475285635 37.1239235214598,51.6366732495153 37.1239235214598,51.52788130512636 37.21033910990809,51.212383845006116 37.25354690410313,50.87512658883497 37.34860405136715,50.51610926642752 37.443661198660266,50.10269342088577 37.504152110544965,49.776311008907214 37.57328458127449,49.40640936182899 37.66834172856761,49.069144632179814 37.73747419929714,48.73187850675458 37.806606669997564,48.35109249414381 37.85845602309564,48.024703067247174 37.96215472914628,47.6547934698101 38.022645641089184,47.306641726703674 38.10906122950837,46.96936830722552 38.16955214139307,46.64297334639559 38.2386846121226,46.32745697498467 38.299175524065504,46.022819319332484 38.351024877105374,45.89225997541507 38.385591112455586,45.68554058646987 38.44608202436939,45.337380430260964 38.51521449509892,44.98921878662077 38.59298852470238,44.651935775822494 38.670762554276735,44.271130698762136 38.69668723078212,44.16232892131666 38.713970348471776,43.96648535580607 38.77446126032737,43.68359937470814 38.85223528993083,43.30278977247508 38.912726201844634,42.97638012554671 38.990500231448095,42.606447611760814 39.04234958445886,42.4432415570991 39.094198937527835,42.26915473848203 39.12012361403322,42.149469834941556 39.17197296710219,42.04066522460198 39.13740673175198,41.85569705365924 39.14604829059681,41.64896742452402 39.17197296710219,41.366073397904984 39.232463879015995,41.104939578559424 39.29295479087159,40.91996928353183 39.431219732388854,40.87644680010999 39.73367429187056,40.97437235504185 40.01020417478867,41.08317838917719 40.29537561663892,41.15934252660372 40.39907432271866,41.05053659420082 40.43364055809798,40.84380492235505 40.41635744040832,40.53914676570275 40.43364055809798,40.22360675975506 40.450923675787635,39.84278098734649 40.494131469982676,39.46195343507134 40.52005614654627,39.17905181540846 40.40771588156349,38.994077148410724 40.13118599858717,39.059362372958276 39.828731439163676,39.10288582692738 39.60405090919812,39.15729011167423 39.63861714460654,38.8417447544125 39.69046649764641,38.51531723682274 39.759598968346836,38.18888841145235 39.811448321444914,37.86245827833045 39.91514702755376,37.5033836214061 39.97563793943846,37.155188503435056 40.0188457336626,36.89404118843231 40.06205352785764,36.578487066079106 40.10526132208179,36.3173379025975 40.09661976326606,36.16500050405011 40.12254443980055,36.07795043414808 40.278092498891056,35.95825643615535 40.450923675787635,35.87120614534069 40.355866528494516,35.697105284707504 40.2608093812305,35.56652939510241 40.28673405776499,35.39242788338743 40.33858341083396,35.33802108470991 40.52869770533289,35.38154652657249 40.69288732338464,35.35978380856977 40.85707694137818,35.40330923878355 40.995341882808134,35.33802108470991 41.16817305967561,35.305376988057105 41.271871765784454,35.16391908470541 41.30643800119287,34.7613067848215 41.33236267769826,34.38045548074297 41.38421203073813,34.043128553268616 41.40149514845689,33.78197126305167 41.40149514845689,33.61874753160373 41.42741982496227,33.41199700231664 41.392853589582955,33.270535811527225 41.17681461854954,33.22700924186938 40.95213408861309,33.194364299371955 40.81386914715404,33.11819271600689 40.589188617275795,33.063784398531425 40.312658734299475,33.009376044763485 39.992921057128115,32.94408597225993 39.68182493880158,32.86791415489279 39.39665349700954,32.79174226629402 39.04234958445886,32.73733373085997 38.77446126032737,32.61763482493552 38.61891320120776,32.574107906460995 38.3596664359211,32.574107906460995 38.04857031762367,32.55234443849622 37.76339887580252,32.54146270234196 37.43501963981544,32.51969922565331 37.1239235214598,32.476172254857374 36.83011052082293,32.4435270114991 36.553580637904815,32.42176350866066 36.467165049456526,32.39999999999418 36.40667413757183,32.53058096474706 36.3375416668423,32.74821544086444 36.294333872618154,32.96584933559643 36.25112607842311,33.161719343777804 36.23384296070435,33.39023375818215 36.19927672535414,33.58610274604871 36.104219578090124,33.77108969118126 36.017803989641834,33.912550012842985 35.94002996009658,34.13018079728499 35.89682216584333,34.271640495462634 35.82768969514291,34.45662588397681 35.73263254787889,34.61984793684678 35.65485851827543,34.81571396862273 35.55980137101142,34.98981671268848 35.49066890031099,35.15303769738239 35.36104551763856,35.35978380856977 35.29191304690903,35.64269868946576 35.1622896642657,35.91473130237864 35.03266628162237,36.24116923892143 34.877118222473655,36.567605867632665 34.730211722198874,36.87227887442714 34.60058833952644,37.155188503435056 34.47096495688311,37.44897823233623 34.306775338889565,37.76452898338903 34.15986883858568,38.0474355143233 34.03888701478718,38.33034106301784 33.91790519101778,38.56972191390378 33.86605583794881,38.67853115907201 33.81420648487983,38.7546975442674 33.70186621992616,38.8417447544125 33.67594154339167,39.10288582692738 33.580884396098554,39.40754935370933 33.39941166044446,39.69045018002362 33.3216376308701,39.88630402285344 33.2611467189563,40.03863446405012 33.416694778134115,40.125680302560795 33.70186621992616,40.125680302560795 34.02160389709752,40.16920318693883 34.358624691929435,40.21272604807746 34.6783623691299,40.25624888602033 34.99810004630126,40.299771700651036 35.30919616459869,40.34329449204961 35.59436760639073,40.38681726019422 35.81904813629808,40.38681726019422 35.93138840125175,40.245368178708304 35.97459619544679,40.03863446405012 36.00052087198128,39.831900224839046 36.035087107360596,39.82101946090552 36.190635166480206,39.90806553189759 36.19927672535414,40.136561025828996 36.12150269575068,40.51738542520616 36.052370225050254,40.86556617562019 35.983237754320726,41.23550659285684 35.9141052835912,41.58368427476671 35.83633125398774,41.964501910952094 35.767198783229105,42.280035175535886 35.72399098900496,42.56292602917529 35.637575400585774,42.90021768647421 35.65485851827543,43.19398670209921 35.585726047545904,43.49863493304292 35.4042533118336,43.71624011496897 35.32647928225924,44.020886393445835 35.24006369386916,44.336411695468996 35.24006369386916,44.60841528564197 35.23142213502433,44.826017504092306 35.395611753017874,45.03273907342373 35.30919616459869,45.37002050811134 35.26598837040365,45.73994047650194 35.1622896642657,46.16425837248971 35.101798752381,46.49065525062906 35.0413078404963,46.86057013215759 35.03266628162237,47.19784400195931 35.015383163961815,47.524236740442575 35.015383163961815,47.872387553979934 35.006741605116986,48.209657236344356 34.98945848742733,48.55780512178171 34.972175369766774,48.90595151997695 34.94625069323229,49.221457908723096 34.91168445782387,49.52608360783779 34.85119354596827,49.87422586975299 34.78206107520964,50.24412539351033 34.74749483985943,50.537867937018746 34.78206107520964,50.87512658883497 34.72157016332494,51.212383845006116 34.626513016060926,51.57139810029912 34.42775716268807,51.854256702739804 34.220359750441276,52.071839575139165 33.95247142636799,52.27854276581638 33.7450740141212,52.474366357659164 33.477185690018814,52.70282662014506 33.31299607199617,52.898649192618905 33.217938924761256,53.06183431024692 33.096957100962754,53.192382169108896 32.975975277193356,53.37732461124688 32.88955968874507,53.66017694630864 32.75993630613084,53.975664931298525 32.587105129263364,54.30203052722936 32.41427395239589,54.6066372377245 32.28465056978166,54.83509152355691 32.21551809905213,55.10706007655972 32.2673674520629,55.324634265576606 32.41427395239589,55.498693198664114 32.31057524631615,55.79241680529958 32.29329212862649,55.96647473943449 32.29329212862649,55.95559612942452 32.17231030482799,55.99911056069686 31.973554451426025,56.271075229793496 31.809364833432483,56.54303899141087 31.584684303525137,56.78236635108624 31.37728689130745,57.02169300804235 31.282229744072538,57.26101896226464 31.169889479118865,57.576493010164995 31.03162453765981,57.77230387405143 30.858793360821437,57.77230387405143 30.61682971319533,57.77230387405143 30.340299830277218,57.71791201461019 30.03784527076641,57.696155260659 29.735390711313812,57.696155260659 29.55391797563061,57.70703363834764 29.398369916452793,57.75054713462305 29.34652056338382,57.81581733548228 29.251463416119805,58.02250596009253 29.130481592350407,58.24007236714533 29.087273798155366,58.55554262587248 28.983575092017418,58.77310761022818 28.90580106244306,58.9689155996457 28.836668591713533,59.04506302406662 28.655195856001228,59.21911401278339 28.421873767278157,59.45843351541407 28.318175061169313,59.65423985862435 28.421873767278157,59.850045731473074 28.482364679133752,59.92619233279402 28.499647796852514,60.132875606403104 28.57742182642687,60.38307044698013 28.551497149892384,60.52448458238359 28.43915688493871,60.339558355975896 28.274967266974272,60.557118578843074 28.119419207796454,60.81819007982995 27.972512707463466,61.046626957344415 27.791039971780265,61.29681899344723 27.661416589166038,61.579643848730484" stroke="#4DD2FF" stroke-dasharray="none" stroke-linecap="round" stroke-linejoin="round" stroke-width="0.5"><title>2017-12-17 14.0km</title><desc>9223370523376934807</desc></polyline><polyline fill="none" opacity="1" points="100.58781625516713,32.40000000000873 100.6546135568642,32.668995201194775 100.66797301714541,32.988426257201354 100.68133247748483,33.32466859980195 100.66797301714541,33.593661828228505 100.6546135568642,33.946714569683536 100.61453517578775,34.28295435672044 100.52101895335363,34.535133608515025 100.66797301714541,34.736876646842575 100.6546135568642,35.459786550098215 100.70805139828008,35.76239876731415 100.82828654133482,36.014575060180505 100.88172438269248,36.35080933284189 100.93516222405015,36.67023106139095 100.94852168438956,37.04008678878017 100.96188114472898,37.42675298014365 101.02867844642606,37.71254896822211 101.09547574812314,38.015155778921326 101.17563251021784,38.30095043331676 101.20235143095488,38.62036722165067 101.24242981203133,38.939783200839884 101.34930549474666,39.107896549088764 101.58977578085614,39.20876445049362 101.6298541619326,39.34325486015587 101.49625955853844,39.511367670536856 101.33594603434904,39.595423991646385 101.40274333610432,39.88121506432071 101.50961901881965,40.13338311991538 101.64321362227201,40.46960640970792 101.73672984470613,40.75539550113899 101.83024606708204,41.05799500955618 101.97720013087383,41.36059379178914 102.13751365500502,41.64638086386549 102.27110825845739,41.9153563400032 102.1241541946074,42.150709410983836 101.85696498781908,42.100276647048304 101.65657308261143,41.948978234184324 101.41610279644374,41.76405770528072 101.21571089123609,41.79767963979975 100.97524060501019,41.84811252479267 100.7347703188425,41.88173443690175 100.66797301714541,42.08346572126902 100.68133247748483,42.335629372886615 100.5744567947695,42.50373819384549 100.30726758786477,42.60460337882978 100.01335946033942,42.70546848313825 99.71945133275585,42.739090166651295 99.57249726896407,42.60460337882978 99.62593511032173,42.36925115500344 99.71945133275585,42.04984386294382 99.81296755513176,41.76405770528072 99.87976485682884,41.411026851594215 99.94656215858413,41.024372877771384 99.90648377756588,40.65452883693797 99.86640539654763,40.33511720139359 99.77288917411352,40.04932715745235 99.46562158619054,40.04932715745235 99.21179183968343,39.96527113893535 99.13163507764693,39.81397016433766 99.11827561724931,39.61223524912202 99.11827561724931,39.39368872679188 99.0247593948734,39.24238706633332 98.85108641040279,39.24238706633332 98.66405396553455,39.20876445049362 98.53045936214039,39.25919837094261 98.55717828281922,39.54499020567164 98.57053774315864,39.83078139269492 98.58389720355626,40.167005489289295 98.59725666383747,40.4191729734157 98.6239755845163,40.772206603956874 98.6106161242351,41.10842819036043 98.6106161242351,41.411026851594215 98.6106161242351,41.73043576181226 98.6239755845163,42.033032930397894 98.6239755845163,42.31881847846671 98.6239755845163,42.65503594109032 98.63733504491393,42.89038763153076 98.63733504491393,43.09211730230891 98.63733504491393,43.31065741479688 98.6106161242351,43.57962934098032 98.59725666383747,43.831790000753244 98.57053774315864,43.96627547980461 98.5438188224216,44.21843536643428 98.51709990180098,44.453784138997435 98.51709990180098,44.655511308737914 98.51709990180098,44.92448036643327 98.51709990180098,45.210259361658245 98.53045936214039,45.54646911511372 98.50374044146156,45.88267797220033 98.51709990180098,46.20207555613888 98.51709990180098,46.48785165607114 98.53045936214039,46.77362710839952 98.5438188224216,47.10983269379358 98.5438188224216,47.39560673668166 98.5438188224216,47.681380131907645 98.53045936214039,47.89991229133739 98.53045936214039,48.15206431240949 98.47702152072452,48.40421582928684 98.53045936214039,48.65636684202764 98.55717828281922,48.92532736656722 98.59725666383747,49.21109729541058 98.63733504491393,49.513676514223334 98.67741342593217,49.866684685257496 98.77092964830808,50.23650170947076 98.85108641040279,50.606317649100674 98.97132155345753,50.89208376886381 99.06483777594985,51.161039525293745 99.17171345866518,51.48042374114448 99.27858914138051,51.732568603314576 99.38546482415404,51.917474515226786 99.42554320517229,52.08557056350401 99.57249726896407,52.337714215842425 99.63929457071936,52.589857364073396 99.66601349139819,52.72433350364736 99.73281079309527,52.90923796145944 99.90648377756588,53.02690429346694 99.97328107932117,53.17818941616861 100.10687568271533,53.363093208594364 100.22711082582828,53.53118733005249 100.3206270482624,53.76651872378716 100.45422165165655,53.917802959273104 100.6546135568642,54.13632431240694 100.82828654133482,54.37165457694209 101.01531898614485,54.62379365884408 101.17563251021784,54.87593223662407 101.26914873265196,55.027215141410124 101.34930549474666,55.21211622294504 101.50961901881965,55.464253624595585 101.66993254295085,55.682772298314376 101.8703244481585,55.98533599071379 102.0306379722897,56.27108992259309 102.17759203602327,56.48960719841125 102.32454609981505,56.758551018094295 102.47150016360683,57.0106853282341 102.65853260847507,57.31324583507376 102.81884613254806,57.598996758431895 103.01923803775571,57.88474703433167 103.19291102222633,58.15368787912303 103.36658400669694,58.439436898348504 103.56697591184638,58.758802683179965 103.75400835665641,59.0613589965069 103.94104080146644,59.34710595940123 104.11471378593706,59.63285227486631 104.24830838933121,59.90178939222824 104.40862191346241,60.13710889953654 104.54221651697299,60.33881098488928 104.70253004104597,60.60774659701565 104.87620302551659,60.89349005653639 104.99643816862954,61.078382538369624 105.18347061343957,61.3305082131119 105.3705030582496,61.599441710757674 105.5308165823808,61.86837463492702 105.66441118583316,62.12049873059732 105.83808417030377,62.423046980198706 106.01175715477439,62.742402678588405 106.21214905992383,63.078565698102466 106.3457436633762,63.28026307975233 106.55949502886506,63.633232721622335 106.74652747367509,63.902161309539224 106.90684099786449,64.15428134005924 107.05379506159807,64.42320881711203 107.2408275064081,64.70894363330444 107.42785995121812,65.01148567428754 107.60153293568874,65.33083481920767 107.74848699953873,65.61656757941819 107.88208160293289,65.91910744350753 108.04239512706408,66.23845429065113 108.16263027011883,66.54099266321282 108.25614649255294,66.89395318072638 108.29622487357119,67.07883686722198 108.24278703227174,67.24691271064512 108.14927080977941,67.38137322418333 108.17598973051645,67.33095054839214 108.30958433396881,67.29733542005124 108.42981947708176,67.46541097233421 108.52333569945768,67.71752388092864 108.61685192183359,67.98644376137236 108.72372760460712,68.30578537477413 108.85732220800128,68.64193356814212 108.96419789077481,68.97808086572331 109.07107357354835,69.28061266770237 109.13787087524543,69.51591467871913 109.27146547869779,69.80163795915723 109.37834116147133,70.08736059245712 109.48521684418665,70.35627542083967 109.59209252696019,70.62518967597862 109.63217090797843,70.82687499112217 109.69896820973372,71.11259530227107 109.80584389250726,71.39831496632542 109.91271957522258,71.70084096404025 110.00623579759849,71.98655929573579 110.09975202003261,72.27227698027855 110.20662770280614,72.57480088206648 110.30014392524026,72.82690357948013 110.420379068295,73.12942615122302 110.52725475101033,73.39833449493744 110.63413043384207,73.68404898197332 110.75436557695502,74.00337617240439 110.86124125967035,74.25547601486323 110.9814764027833,74.54118856071727 111.03491424408276,74.726061039677 111.1551493871957,74.96135289379163 111.24866560962982,75.0958051848429 111.28874399070628,75.24706384094316 111.24866560962982,75.46554824631312 111.11507100617746,75.60000000000582 110.95475748204626,75.4151288017747 110.79444395791506,75.1966443091078 110.60741151310503,74.91093324773828 110.38030068733497,74.64202812829171 110.09975202003261,74.32270255447656 109.81920335278846,74.0706028463319 109.57873306667898,73.83530933082511 109.33826278045308,73.583208648648 109.1111519546248,73.33110746275634 108.89740058907773,73.11261936073424 108.61685192183359,72.84371040803671 108.36302217526827,72.6084146041976 108.10919242876116,72.33950457669562 107.85536268225405,72.10420783243899 107.61489239602815,71.85210369084962 107.30762480810517,71.59999904540018 107.06715452193748,71.41512198519194 106.78660585475154,71.28066577123536 106.43925988575211,71.14620941400062 106.09191391681088,71.0789811816212 105.7712868686067,71.0453670519928 105.43730036000488,70.96133168875531 105.15675169276074,70.89410335785942 104.82276518415892,70.82687499112217 104.50213813589653,70.7596465885872 104.19487054797355,70.74283948238008 103.84752457903232,70.64199679791636 103.52689753076993,70.55796116591955 103.37994346697815,70.52434689750953 103.19291102222633,70.47392547799973 102.99251911701867,70.4403111871361 102.77876775152981,70.40669688739581 102.59173530671978,70.38988973408414 102.40470286190975,70.37308257856057 102.23102987743914,70.32266109864577 102.00391905155266,70.25543242736603 101.77680822566617,70.20501090040489 101.61649470165139,70.1377821664355 101.37602441542549,70.08736059245712 101.12219466891838,69.96971017477335 100.77484869997716,69.83525242019095 100.4141432706383,69.70079452227219 100.1736729844124,69.63356551964534 99.81296755513176,69.53272194840247 99.50569996720878,69.43187829660019 99.17171345866518,69.3310345641512 98.81100802932633,69.23019075107004 98.4503026001039,69.16296149756818 98.14303501218092,69.02850288309855 97.8090485035791,68.96127352211624 97.44834307424026,68.82681469268573 97.14107548631728,68.70916309927998 96.95404304150725,68.6251261797297 96.63341599336127,68.52428180236893 96.33950786566129,68.42343734436145 96.0188808174571,68.27217050617037 95.68489430885529,68.08728856874222 95.37762672099052,67.88559887337033 95.07035913300933,67.66710133949528 94.81652938644402,67.36456566784182 94.6294969416922,67.07883686722198 94.50926179857925,66.8099150518683 94.45582395722158,66.62503097129229 94.29551043309039,66.40653125391691 94.16191582963802,66.15441572503187 94.05504014692269,66.00314616586547 93.92144554347033,65.71741428141831 93.76113201933913,65.39806611518725 93.5740995745291,65.06190927728312 93.4137860503979,64.67532780613692 93.21339414519025,64.28874515024654 93.02636170038022,63.86854526742536 92.85268871596782,63.566000485021505 92.69237519177841,63.2466468718485 92.53206166764721,62.876867993865744 92.3583886832348,62.490279826000915 92.17135623836657,62.08688221362536 91.98432379361475,61.70029162449646 91.77057242806768,61.296891485573724 91.61025890393648,60.94391530577559 91.39650753844762,60.557321213404066 91.22283455397701,60.17072593617195 91.06252102984581,59.78412947394827 90.87548858503578,59.39753182680579 90.72853452130221,59.07816765928874 90.58158045745222,58.758802683179965 90.44798585399985,58.54028933880909 90.34111017128453,58.22092300072836 90.22087502817158,57.85112938840757 90.10063988505863,57.46452581630729 90.02048312296392,57.07792105912813 89.96704528160626,56.775359987819684 89.9136074402486,56.42237115385069 89.86016959883273,56.00214506345219 89.82009121787269,55.581917572853854 89.79337229713565,55.245734572265064 89.7532939161174,54.90955067562754 89.6731371540227,54.53974735419615 89.69985607475974,54.20356157561764 89.6731371540227,53.81694682240777 89.65977769374149,53.480759117155685 89.68649661442032,53.127761062118225 89.69985607475974,52.774762019049376 89.68649661442032,52.371333331408096 89.61969931266503,52.01833217110834 89.55290201096795,51.66533002270444 89.51282362994971,51.24508808160317 89.49946416961029,50.908893520449055 89.48610470921267,50.52226866716228 89.44602632825263,50.25331154836749 89.37922902649734,49.9339242248825 89.35251010581851,49.513676514223334 89.45938578853384,49.09342740314605 89.48610470921267,48.75722710596165 89.48610470921267,48.45464607220492 89.49946416961029,48.2361148740456 89.53954255062854,48.08482382274815 89.48610470921267,47.81586150560179 89.44602632825263,47.53008841510746 89.41930740751559,47.210694194654934 89.39258848689497,46.87448887816572 89.36586956615793,46.52147233116557 89.33915064542089,46.23569630739803 89.25899388338439,45.832246700752876 89.23227496270556,45.44560628317413 89.21891550230794,45.04215414875944 89.17883712128969,44.689132472340134 89.13875874027144,44.3865416773624 89.0986803592532,44.067139494931325 89.08532089897199,43.86541138397297 89.0986803592532,43.51238641323289 89.0986803592532,43.15936045415583 89.08532089897199,42.82314433620195 89.05860197817674,42.53735993114242 89.00516413687728,42.184331242446206 88.96508575585904,41.84811252479267 88.97844521614024,41.49508190639608 89.00516413687728,41.19248344686639 88.97844521614024,40.80582880295697 88.91164791444317,40.50322868938383 88.89828845410375,40.09976074167935 88.87156953342492,39.780347700827406 88.91164791444317,39.629046504356666 88.91164791444317,39.44412257322983 88.88492899376433,39.15833050990477 88.87156953342492,38.90616050429526 88.83149115234846,38.58674443993368 88.76469385065138,38.30095043331676 88.72461546963314,37.89747543883277 88.71125600929372,37.56124529053341" stroke="#4DD2FF" stroke-dasharray="none" stroke-linecap="round" stroke-linejoin="round" stroke-width="0.5"><title>2017-11-19 11.8km</title><desc>9223370525802103807</desc></polyline><polyline fill="none" opacity="0.5" points="181.62116689281538,68.17811800987693 180.56607869756408,68.10861900402233 179.8040705563035,67.96962096903007 178.9834464045707,67.96962096903007 178.22143826354295,67.96962096903007 177.3421981006395,67.76112385862507 176.52157394844107,66.99663385830354 175.5837177745998,66.92713472119067 174.82170963380486,66.85763557621976 173.88385345996358,66.57963891886175 173.1218453189358,66.7186372630531 172.3012211669702,66.64913809474092 171.36336499336176,66.7186372630531 170.54274084139615,66.51013973512454 169.6635006784927,66.64913809474092 168.72564450465143,66.78813642339082 167.72917232010514,66.44064054382034 166.90854816813953,66.30164213792887 166.20515603781678,66.16264370107092 165.384531886084,66.16264370107092 164.62252374505624,65.88464673480485 163.7432835821528,65.88464673480485 162.9226594301872,65.74564820510568 162.21926729986444,65.95414598792559 160.98833107203245,65.39815174596151 159.99185888725333,65.25915310822893 159.05400271364488,65.18965377786662 157.99891451839358,65.25915310822893 157.58860244229436,65.32865243108245 156.47489823610522,65.60664964455646 155.0681139754597,64.98115574021358 154.07164179091342,64.14716289372882 153.19240162800997,64.35566120949807 152.19592944346368,64.00816397793824 151.3166892810259,63.869165030890144 150.61329715070315,64.00816397793824 149.9099050203804,63.7996655459865 149.20651289005764,63.52166752866469 148.3272727271542,63.59116704465123 147.56526458612643,63.938664508285 146.27571234712377,63.52166752866469 145.57232021703385,63.1046702710446 145.22062415187247,62.34017457580194 144.75169606506824,61.575677945744246 144.6930800541304,60.463681178574916 144.81031207600608,59.49068238417385 144.81031207600608,58.378681907604914 144.6930800541304,57.40567986789392 144.6930800541304,56.0851746769622 144.51723202154972,55.39017082436476 144.39999999990687,54.34766359644709 144.6344640434254,53.37465528177563 144.6344640434254,52.540646949375514 144.8689280867111,51.845639155537356 144.6930800541304,50.942127868242096 144.98616010835394,49.96911425224971 144.92754409764893,48.92659798276145 145.10339213022962,48.30108738626586 145.16200814116746,47.05006431584479 145.10339213022962,45.93804170633666 145.16200814116746,44.9650203002966 145.22062415187247,44.20050241862191 145.39647218445316,43.296980080136564 145.57232021703385,42.32395456265658 145.39647218445316,41.3509275301476 145.39647218445316,40.65590729378164 145.27924016257748,39.821881990123075 145.39647218445316,40.65590729378164 145.39647218445316,41.3509275301476 145.57232021703385,42.32395456265658 145.39647218445316,43.296980080136564 145.22062415187247,44.20050241862191 145.16200814116746,44.9650203002966 145.10339213022962,45.93804170633666 145.16200814116746,47.05006431584479 145.10339213022962,48.30108738626586 144.92754409764893,48.92659798276145 144.98616010835394,49.96911425224971 144.6930800541304,50.942127868242096 144.8689280867111,51.845639155537356 144.6344640434254,52.540646949375514 144.6344640434254,53.37465528177563 144.39999999990687,54.34766359644709 144.51723202154972,55.39017082436476 144.6930800541304,56.0851746769622 144.6930800541304,57.40567986789392 144.81031207600608,58.378681907604914 144.81031207600608,59.49068238417385 144.6930800541304,60.463681178574916 144.75169606506824,61.575677945744246 145.22062415187247,62.34017457580194 145.57232021703385,63.1046702710446 146.27571234712377,63.52166752866469 147.56526458612643,63.938664508285 148.3272727271542,63.59116704465123 149.20651289005764,63.52166752866469 149.9099050203804,63.7996655459865 150.61329715070315,64.00816397793824 151.3166892810259,63.869165030890144 152.19592944346368,64.00816397793824 153.19240162800997,64.35566120949807 154.07164179091342,64.14716289372882 155.0681139754597,64.98115574021358 156.47489823610522,65.60664964455646 157.58860244229436,65.32865243108245 157.99891451839358,65.25915310822893 159.05400271364488,65.18965377786662 159.99185888725333,65.25915310822893 160.98833107203245,65.39815174596151 162.21926729986444,65.95414598792559 162.9226594301872,65.74564820510568 163.7432835821528,65.88464673480485 164.62252374505624,65.88464673480485 165.384531886084,66.16264370107092 166.20515603781678,66.16264370107092 166.90854816813953,66.30164213792887 167.72917232010514,66.44064054382034 168.72564450465143,66.78813642339082 169.6635006784927,66.64913809474092 170.54274084139615,66.51013973512454 171.36336499336176,66.7186372630531 172.3012211669702,66.64913809474092 173.1218453189358,66.7186372630531 173.88385345996358,66.57963891886175 174.82170963380486,66.85763557621976 175.5837177745998,66.92713472119067 176.52157394844107,66.99663385830354 177.3421981006395,67.76112385862507 178.22143826354295,67.96962096903007 178.9834464045707,67.96962096903007 179.8040705563035,67.96962096903007 180.56607869756408,68.10861900402233 181.62116689281538,68.17811800987693 182.55902306665666,68.10861900402233 183.49687924026512,68.10861900402233 184.4933514248114,67.96962096903007 185.255359566072,68.17811800987693 185.95875169616193,68.10861900402233 187.07245590235107,67.90012193983421 187.36553595680743,66.92713472119067 187.5999999998603,66.0236452333047" stroke="#4DD2FF" stroke-dasharray="1,0.5" stroke-linecap="round" stroke-linejoin="round" stroke-width="0.5"><title>2014-03-22 10.5km</title><desc>9223370641410674807</desc></polyline><polyline fill="none" opacity="1" points="55.59999999997672,100.2096056999435 55.462232346239034,100.2455344162081 55.32446469250135,100.25751065209624 55.18669703870546,100.19762945827097 55.03908883832628,100.16170072453679 54.911161731230095,100.2455344162081 54.81275626429124,100.2455344162081 54.684829157195054,100.23355817890842 54.537220956757665,100.23355817890842 54.399453302961774,100.2096056999435 54.30104783602292,100.12577197778592 54.192801822326146,100.12577197778592 54.084555808629375,100.12577197778592 53.936947608191986,100.16170072453679 53.7991799544543,100.16170072453679 53.671252847416326,100.16170072453679 53.54332574032014,100.14972447707987 53.39571753988275,100.12577197778592 53.26779043284478,100.13774822818232 53.130022779107094,100.14972447707987 52.9824145786115,100.13774822818232 52.86432801821502,100.14972447707987 52.756082004576456,100.14972447707987 52.60847380408086,100.16170072453679 52.500227790442295,100.14972447707987 52.37230068340432,100.11379572598526 52.244373576308135,100.08984321796743 52.11644646927016,100.11379572598526 51.98851936223218,100.13774822818232 51.89011389523512,100.13774822818232 51.73266514809802,100.10181947270758 51.614578587701544,100.08984321796743 51.50633257406298,100.08984321796743 51.38824601372471,100.07786696181574 51.240637813229114,100.08984321796743 51.09302961273352,100.08984321796743 50.974943052453455,100.11379572598526 50.837175398657564,100.07786696181574 50.72892938496079,100.07786696181574 50.59116173122311,100.07786696181574 50.47307517088484,100.06589070420887 50.32546697044745,100.04193818461499 50.19753986329306,100.01798565922945 50.03025056945626,100.04193818461499 49.88264236901887,100.04193818461499 49.744874715281185,100.06589070420887 49.58742596814409,100.05391444515408 49.46933940774761,100.05391444515408 49.36109339410905,100.04193818461499 49.233166287012864,100.06589070420887 49.115079726674594,100.05391444515408 48.98715261957841,100.04193818461499 48.84938496584073,100.05391444515408 48.741138952143956,100.05391444515408 48.60337129840627,100.05391444515408 48.4754441913683,100.08984321796743 48.35735763103003,100.07786696181574 48.23927107063355,100.08984321796743 48.101503416895866,100.07786696181574 47.963735763099976,100.07786696181574 47.845649202761706,100.07786696181574 47.707881548965815,100.07786696181574 47.59963553532725,100.07786696181574 47.481548974930774,100.07786696181574 47.363462414592505,100.07786696181574 47.215854214155115,100.05391444515408 47.08792710705893,100.01798565922945 46.960000000020955,100.04193818461499 46.822232346225064,100.02996192266437 46.674624145787675,100.01798565922945 46.5466970387497,100.02996192266437 46.418769931653515,100.02996192266437 46.29084282461554,100.06589070420887 46.16291571757756,100.05391444515408 46.02514806378167,100.04193818461499 45.88738041004399,100.02996192266437 45.75945330300601,100.02996192266437 45.63152619590983,100.00600939433934 45.47407744877273,100.01798565922945 45.36583143507596,99.99403312804498 45.21822323463857,100.00600939433934 45.07061503420118,100.00600939433934 44.942687927105,100.02996192266437 44.79507972666761,99.99403312804498 44.64747152623022,99.95810432040162 44.49986332579283,99.95810432040162 44.36209567199694,99.93415177471616 44.23416856495896,99.92217549967609 44.09640091122128,99.93415177471616 43.99799544416601,99.93415177471616 43.860227790428326,99.95810432040162 43.74214123003185,99.99403312804498 43.62405466969358,100.01798565922945 43.47644646925619,100.01798565922945 43.34851936221821,100.01798565922945 43.22059225512203,99.99403312804498 43.10250569478376,99.99403312804498 42.99425968108699,100.01798565922945 42.83681093394989,100.00600939433934 42.71872437361162,99.99403312804498 42.59079726651544,100.01798565922945 42.46287015947746,99.99403312804498 42.33494305238128,99.97008059108339 42.18733485194389,99.97008059108339 42.06924829160562,99.95810432040162 41.95116173120914,99.94612804826465 41.793712984072044,99.91019922322448 41.66578587697586,99.95810432040162 41.508337129838765,99.93415177471616 41.38041002280079,99.92217549967609 41.26232346246252,99.93415177471616 41.11471526196692,99.93415177471616 40.97694760822924,99.92217549967609 40.849020501133054,99.92217549967609 40.69157175399596,99.93415177471616 40.583325740357395,99.94612804826465 40.4357175398618,99.97008059108339 40.327471526223235,99.89822294531768 40.17986332572764,99.89822294531768 40.06177676538937,99.89822294531768 39.924009111651685,99.88624666593387 39.786241457855795,99.89822294531768 39.668154897517525,99.92217549967609 39.530387243721634,99.88624666593387 39.40246013668366,99.89822294531768 39.264692482945975,99.87427038513124 39.12692482920829,99.87427038513124 39.008838268811814,99.8622941028807 38.90059225511504,99.81438895930478 38.77266514807707,99.81438895930478 38.64473804103909,99.82636524736154 38.497129840543494,99.85031781914586 38.36920273350552,99.8383415339631 38.25111617310904,99.88624666593387 38.12318906607106,99.88624666593387 37.96574031887576,99.88624666593387 37.83781321189599,99.89822294531768 37.70988610479981,99.8622941028807 37.59179954446154,99.8622941028807 37.483553530764766,99.87427038513124 37.345785876968876,99.8622941028807 37.198177676531486,99.87427038513124 37.07025056949351,99.8383415339631 36.912801822356414,99.82636524736154 36.81439635535935,99.8383415339631 36.67662870156346,99.8383415339631 36.38141230068868,99.85031781914586 36.09603644651361,99.82636524736154 35.9287471526186,99.76648379251128 35.54496583150467,99.87427038513124 35.220227790414356,99.85031781914586 34.984054669737816,99.7784600863888 34.767562642344274,99.7784600863888 34.51170842821011,99.7305549022567 34.324738041032106,99.74253120044887 34.039362186798826,99.74253120044887 33.77366742602317,99.87427038513124 33.517813211889006,99.80241266978555 33.21275626425631,99.94612804826465 29.443826879258268,99.7305549022567 29.19781321188202,99.64672077413707 28.97148063784698,99.69462599887629 28.636902050115168,99.7305549022567 28.361366742639802,99.64672077413707 28.046469248307403,99.59881552614388 27.810296127572656,99.56288657495315 24.602277904341463,99.59881552614388 24.31690205016639,99.5748628934889 23.992164009134285,99.5509102549695 23.755990888399538,99.58683921054035 23.529658314364497,99.51498128638923 23.214760820032097,99.47905230474862 22.91954441915732,99.52695761068753 22.63416856492404,99.51498128638923 20.164191343996208,99.49102863339795 19.800091116223484,99.51498128638923 19.603280182229355,99.51498128638923 19.41630979499314,99.50300496063574 19.347425968153402,99.49102863339795 19.170296127616894,99.44312331003312 18.963644646923058,99.49102863339795 18.747152619587723,99.47905230474862 18.560182232351508,99.40719430233003 18.333849658316467,99.39521796350891 18.08783599094022,99.39521796350891 17.83198177680606,99.46707597465138 17.733576309808996,99.34731259372347 16.592072892934084,99.45509964306257 16.34605922549963,99.40719430233003 16.14924829156371,99.40719430233003 15.85403189068893,99.39521796350891 15.578496583155356,99.41917063967412 15.322642369021196,99.41917063967412 15.037266514787916,99.43114697557758 14.79125284741167,99.35928893832897 14.545239179977216,99.39521796350891 14.318906605942175,99.35928893832897 13.994168564968277,99.37126528151566 13.807198177673854,99.3233599001469 13.452938496600837,99.38324162321078 13.108519362227526,99.33533624768461 12.990432801889256,99.40719430233003 13.049476082029287,99.67067338938796 13.03963553532958,99.8383415339631 13.078997722128406,100.11379572598526 12.921548974933103,100.19762945827097 12.862505694793072,99.99403312804498 12.773940774495713,99.8383415339631 12.606651480658911,99.89822294531768 12.478724373620935,100.13774822818232 12.400000000023283,100.26948688653647 12.429521640122402,100.58086847249797 12.478724373620935,100.86829675886838 12.537767653819174,101.14374808294087 12.596810933959205,101.44315082616231 12.646013667457737,101.73057660717313 12.714897494297475,101.94614539488248 12.734578587755095,102.14973770748475 12.7542596810963,102.37728156107187 12.78378132119542,102.67668057105038 12.832984054693952,102.91619912658643 12.842824601393659,103.17966886789509 12.832984054693952,103.46708960367687 12.892027334833983,103.74253369183862 12.862505694793072,104.02995279231254 12.921548974933103,104.29341956749704 12.862505694793072,104.58083706752222" stroke="#4DD2FF" stroke-dasharray="none" stroke-linecap="round" stroke-linejoin="round" stroke-width="0.5"><title>2013-12-10 10.9km</title><desc>9223370650177580807</desc></polyline><polyline fill="none" opacity="1" points="89.68176699988544,98.49739136477001 88.72193137276918,102.58388032088988 88.96189028024673,106.37847101641819 88.2420135596767,109.29738287813962 88.2420135596767,113.09196302411146 88.2420135596767,116.01086677075364 89.4418080933392,118.34598722797818 91.84139716345817,121.84866367932409 94.72090404573828,123.01622136775404 98.56024655792862,123.60000000009313 102.15963016077876,122.43244259478524 104.07930141687393,119.80543636670336 106.71884939447045,117.47031732159667 108.39856174215674,113.38385355728678 108.39856174215674,110.17305574938655 109.59835627768189,106.08657963620499 110.07827409170568,102.87577212415636 110.79815081227571,99.08117592497729 111.7579864403233,94.70278828428127 111.7579864403233,92.07575188926421 111.51802753377706,87.69735154649243 110.31823299825191,84.19462555623613 108.87847955618054,81.85947207268327 105.51905485894531,80.98378893476911 103.11946578975767,80.4000000001397 99.28012327849865,80.6918944849167 96.16065748780966,82.44326065597124 93.04119169805199,85.36220145085827 90.64160262793303,88.57303225062788 90.40164372138679,92.36764496355318 89.92172590643167,95.87035909830593 89.4418080933392,99.37306815129705 88.72193137276918,102.58388032088988 88.72193137276918,106.37847101641819 88.2420135596767,110.17305574938655 88.72193137276918,113.96763451839797 89.20184918586165,117.47031732159667 91.36147934850305,119.80543636670336 94.24098623264581,121.55677416943945" stroke="#4DD2FF" stroke-dasharray="none" stroke-linecap="round" stroke-linejoin="round" stroke-width="0.5"><title>2013-11-30 10.3km</title><desc>9223370651086224807</desc></polyline><polyline fill="none" opacity="1" points="156.49945964291692,104.06379581429064 153.55881619919091,107.36570125445724 154.46362956706434,109.8421271899715 155.82084961794317,112.31855043233372 155.82084961794317,116.17075901036151 156.49945964291692,118.37201812700368 157.40427300985903,119.47264688764699 159.44010308664292,122.22421646025032 162.83315321430564,122.22421646025032 166.67861002590507,123.60000000009313 167.58342339284718,121.6739028126467 171.20267686247826,119.74780399515294 174.8219303302467,115.89560147118755 175.72674369905144,114.51981327589601 177.53637043293566,112.04339242749847 176.85776040703058,106.8153840135783 176.17915038205683,105.71474913298152 176.4053537240252,101.86252286075614 177.762573774904,96.90965093066916 177.762573774904,95.80901126144454 176.17915038205683,92.78224942437373 178.44118379987776,90.30580492829904 176.85776040703058,89.20516206463799 175.2743370141834,86.72871367656626 173.23850693926215,83.7019397658296 171.4288802035153,83.15161680453457 168.4882367597893,80.4000000001397 163.9641699232161,82.6012937091291 160.79732313752174,85.90323028201237 157.85667969379574,88.93000126630068 156.72566298395395,90.85612616012804 156.49945964291692,95.25869122636504 158.0828830357641,99.38608824228868 156.27325630094856,102.96315960329957 155.36844293307513,105.43959032977 156.0470529589802,107.64085982413962 155.1422395920381,110.6676019039005 155.36844293307513,113.69433995871805 155.36844293307513,117.27138883504085 157.40427300985903,118.64717536675744 160.118713112548,120.57327511627227 163.5117632402107,121.94905965286307 166.4524066830054,122.77452997583896 169.61925346869975,122.22421646025032 172.3336935704574,120.02296106843278 174.8219303302467,117.27138883504085 176.4053537240252,113.41918211965822 176.63155706506222,110.3924436995294 176.85776040703058,107.36570125445724 176.85776040703058,104.06379581429064 176.17915038205683,100.76188558526337 176.85776040703058,97.45997056690976 177.08396374993026,94.70837105903774 177.98877711594105,91.40644725854509 177.53637043293566,88.37967956834473 176.17915038205683,85.62806908367202 174.3695236472413,83.7019397658296 172.3336935704574,82.87645527347922 169.16684678569436,82.05097048147582 166.4524066830054,82.05097048147582 163.28555989731103,83.7019397658296 161.47593316342682,84.25226259441115 159.44010308664292,86.45355257811025 157.85667969379574,88.37967956834473 157.63047635182738,91.40644725854509 156.72566298395395,95.25869122636504 157.17806966789067,98.28544977051206 156.49945964291692,102.13768209633417 156.49945964291692,104.06379581429064 156.0470529589802,108.46633533574641 154.68983290810138,112.31855043233372 155.1422395920381,116.17075901036151 156.49945964291692,118.09686085442081 160.34491645358503,119.19748974777758 163.5117632402107,121.3987459379714 166.67861002590507,121.3987459379714 170.07166015263647,119.74780399515294 172.3336935704574,118.09686085442081 174.14332030527294,115.07012865296565 175.72674369905144,111.21791821252555 175.50054035615176,107.64085982413962 176.17915038205683,104.33895478351042 176.17915038205683,100.76188558526337 176.85776040703058,97.45997056690976 177.08396374993026,93.6077303243801 178.21498045884073,89.48032283014618 177.08396374993026,87.55419677193277 175.04813367314637,85.62806908367202 172.3336935704574,83.97710119653493 168.2620334168896,82.87645527347922" stroke="#4DD2FF" stroke-dasharray="none" stroke-linecap="round" stroke-linejoin="round" stroke-width="0.5"><title>2013-11-16 10.4km</title><desc>9223370652294258807</desc></polyline><polyline fill="none" opacity="1" points="23.783664888702333,141.12336687929928 22.810680591501296,144.6740621116478 22.810680591501296,150.88776637450792 22.324188444763422,154.43844744330272 22.567434517666698,160.06034860108048 22.0809423699975,163.6110163643025 23.053926666267216,166.5699022328481 24.51340311113745,168.64112021238543 28.648586370050907,170.71233643963933 33.51350785139948,171.60000000009313 37.89193718507886,171.30411218269728 38.86492148041725,169.52878452418372 41.5406282953918,167.1616789775435 41.78387437015772,163.01923876185901 41.78387437015772,160.35623777890578 42.75685866642743,155.32611690624617 44.70282725896686,150.29598569567315 44.94607333280146,146.1535169382114 45.43256548047066,142.89871513913386 45.18931940663606,138.75623386260122 45.43256548047066,135.7973143735435 44.21633510943502,132.5424988034647 40.081151850521564,129.879464663798 36.43246074113995,128.99178597261198 32.78376962989569,128.99178597261198 28.891832443885505,130.4712502779439 26.21612562984228,132.24660626379773 24.999895258806646,136.38909855671227 23.297172740101814,141.12336687929928 23.297172740101814,144.08227993012406 23.053926666267216,146.74529861821793 22.324188444763422,150.88776637450792 22.567434517666698,154.73433729959652 22.324188444763422,157.69323389837518 22.567434517666698,162.72334990650415 23.540418813936412,165.09045974630862 25.972879556007683,167.1616789775435 30.594554962590337,171.00822432967834 34.486492147669196,171.00822432967834 38.135183257982135,169.82467255694792 40.324397925287485,168.64112021238543 43.00010474026203,165.38634831481613 43.729842961765826,162.72334990650415 43.48659688793123,158.58090218016878 43.973089036531746,153.8466676226817 44.94607333280146,150.88776637450792 45.675811554305255,147.33708015549928 45.675811554305255,143.7863887862768 45.919057629071176,139.64390901243314 45.43256548047066,135.7973143735435 43.24335081502795,132.5424988034647 40.567644000053406,130.4712502779439 36.43246074113995,128.4000000001397 32.78376962989569,128.99178597261198 29.378324592486024,130.4712502779439 26.21612562984228,131.95071368920617 23.540418813936412,134.90963782859035 22.810680591501296,140.23569226590917 23.053926666267216,143.7863887862768 22.567434517666698,147.33708015549928 24.02691096253693,150.88776637450792 22.324188444763422,156.50967568787746 21.594450222328305,160.35623777890578 22.324188444763422,164.2027938242536 22.567434517666698,166.27401380729862 26.21612562984228,168.64112021238543 29.135078517720103,170.12056055432186 33.99999999906868,170.71233643963933 37.40544503647834,170.12056055432186 40.567644000053406,168.64112021238543 42.75685866642743,165.68223684746772 43.48659688793123,162.13157208892517 44.45958118420094,158.58090218016878 44.94607333280146,155.0302271207329 45.18931940663606,151.77543712500483 45.675811554305255,148.81653337273747 45.919057629071176,145.26584414974786 46.40554977674037,139.3480173314456 45.919057629071176,135.7973143735435 44.21633510943502,133.13428377383389 41.0541361477226,130.4712502779439 38.378429332748055,129.2876789055299 33.51350785139948,128.69589300476946 30.594554962590337,129.58357180282474 27.91884814761579,130.76714303181507 25.486387406475842,133.13428377383389 24.51340311113745,134.31785328662954 23.783664888702333,135.7973143735435 24.999895258806646,139.3480173314456 24.756649184972048,140.82747537712567 24.27015703637153,144.9699531486258 22.810680591501296,149.1124239093624" stroke="#4DD2FF" stroke-dasharray="none" stroke-linecap="round" stroke-linejoin="round" stroke-width="0.5"><title>2013-11-03 10.7km</title><desc>9223370653417861807</desc></polyline><polyline fill="none" opacity="1" points="111.9563553603366,138.48007006268017 111.48283633589745,133.2960393568501 109.35200072731823,129.84001261997037 106.98440560605377,129.2640076763928 103.90653194859624,130.41601742454804 100.35513926763088,130.12801503995433 97.51402512192726,130.41601742454804 94.67291097715497,132.14403100241907 92.77883488032967,135.3120526385028 91.35827780794352,138.1920686531812 91.59503732062876,143.37608870584518 90.88475878350437,145.96809450211003 90.1744802473113,149.712097896263 89.46420171111822,153.4560954067856 88.51716366223991,155.7600909504108 88.28040415141732,159.2160800890997 88.28040415141732,162.96006266516633 89.70096122287214,167.28003524802625 92.77883488032967,169.5840174248442 97.27726561017334,171.31200259411708 100.59189877938479,171.60000000009313 104.3800509730354,170.16001262003556 107.69468414224684,167.28003524802625 108.16820316575468,162.6720642137807 110.29903877526522,158.06408426584676 110.53579828795046,154.60809345706366 110.53579828795046,151.44009747868404 110.77255779877305,147.1200961722061 111.00931731145829,142.80008703446947 112.19311487209052,139.0560727783013 112.42987438477576,135.3120526385028 110.29903877526522,132.7200352489017 108.87848170287907,130.41601742454804 105.80060804635286,128.9760051521007 102.01245585177094,128.4000000001397 98.22430365905166,129.2640076763928 94.90967048984021,129.84001261997037 89.70096122287214,133.8720433257986 88.99068268761039,135.0240508459974 88.99068268761039,136.46405946207233 90.1744802473113,139.63207535468973 89.93772073462605,143.66408948926255 88.51716366223991,147.69609680003487 88.51716366223991,150.57609784416854 87.57012561522424,154.32009399705566 87.57012561522424,157.48808614653535 87.80688512697816,160.65607408294454 87.57012561522424,163.5360594613012 89.22744219843298,166.7040393569041 91.35827780794352,169.00802208902314 94.19939195271581,169.87201503990218 97.9875441454351,169.5840174248442 102.01245585177094,168.72002436965704 106.51088658254594,166.99203731981106 108.40496267937124,164.4000543965958 110.29903877526522,160.65607408294454" stroke="#4DD2FF" stroke-dasharray="none" stroke-linecap="round" stroke-linejoin="round" stroke-width="0.5"><title>2013-11-02 10.5km</title><desc>9223370653505000807</desc></polyline><polyline fill="none" opacity="1" points="157.5654342258349,135.15005507646129 156.01169842481613,138.12007284793071 156.45562293939292,142.98009340977296 156.67758519575,145.68010026379488 156.23366068210453,149.19010429433547 156.01169842481613,151.35010403278284 156.01169842481613,152.97010246641003 155.56777391023934,155.67009724397212 155.12384939659387,158.6400877290871 156.23366068210453,162.15007139416412 157.5654342258349,164.85005507571623 160.67290582694113,167.0100396713242 164.22430194169283,168.3600289823953 167.7756980592385,168.3600289823953 169.77335837297142,167.82003335561603 172.65886771772057,165.66004954348318 174.6565280323848,162.96006684168242 175.54437706060708,159.18008557590656 175.54437706060708,155.94009654247202 175.7663393188268,152.70010280935094 175.54437706060708,149.46010437584482 175.54437706060708,146.49010168295354 176.43222609069198,142.98009340977296 176.87615060433745,140.01008210144937 176.43222609069198,137.31006839242764 175.32241480425,134.34004954481497 173.99064126145095,132.72003759886138 170.4392451448366,130.56001984444447 167.7756980592385,128.4000000001397 165.3341132281348,129.48001018329524 162.0046793706715,130.8300221778918 159.78505679685622,132.45003549358808 158.67524551134557,135.69005860155448 158.2313209977001,138.12007284793071 157.7873964831233,141.63008875912055 156.45562293939292,144.33009724435396 156.01169842481613,146.76010209089145 156.23366068210453,150.81010429398157 157.7873964831233,154.32010026299395 154.90188713837415,155.13009854895063 155.12384939659387,156.21009580790997 154.45796262472868,157.56009164638817 154.90188713837415,163.23006525845267 160.22898131329566,166.20004569296725 165.77803774364293,167.55003549298272 167.1098112873733,167.55003549298272 169.10747160110623,167.55003549298272 171.77101868763566,168.3600289823953 173.99064126145095,164.0400603134185 174.6565280323848,162.96006684168242 174.8784902896732,160.5300796192605 175.54437706060708,159.18008557590656 173.54671674594283,158.91008666879497 174.8784902896732,158.10008975397795 176.2102638334036,155.94009654247202 175.9883015761152,150.81010429398157 176.2102638334036,149.46010437584482 175.7663393188268,146.2201012421865 176.2102638334036,142.1700907170307 175.7663393188268,136.7700652598869 175.32241480425,133.26004171161912 173.54671674594283,129.75001264712773 169.55139611661434,129.48001018329524 165.77803774364293,129.21000768686645 162.6705661425367,130.56001984444447 159.78505679685622,132.72003759886138 156.67758519575,133.26004171161912 156.45562293939292,137.58006991050206 156.23366068210453,140.55008445074782 156.01169842481613,144.0600965428166 154.90188713837415,147.57010311936028 155.34581165295094,151.62010385282338 155.12384939659387,155.13009854895063 154.90188713837415,159.18008557590656 154.90188713837415,161.61007426702417 158.45328325405717,165.66004954348318 164.00233968626708,168.63002674723975 166.44392451550812,169.98001507879235 169.32943385839462,171.60000000009313 173.32475448958576,167.82003335561603 175.1004525469616,162.69006839231588 175.54437706060708,159.7200832911767 175.54437706060708,158.6400877290871 175.1004525469616,153.24010209064 174.8784902896732,148.92010417976417 175.32241480425,146.2201012421865 175.54437706060708,142.98009340977296 177.09811286255717,138.93007700890303 175.7663393188268,135.96006031497382 174.43456577509642,134.34004954481497 172.88082997407764,130.8300221778918 170.21728288847953,130.02001507859677 166.0,129.75001264712773 162.0046793706715,130.56001984444447 159.78505679685622,130.8300221778918 156.89954745396972,132.72003759886138 154.90188713837415,135.69005860155448 154.67992488108575,138.39007426798344 155.34581165295094,139.7400808769744 154.23600036650896,142.71009254432283 154.67992488108575,145.95010076928884 154.90188713837415,147.57010311936028 154.45796262472868,150.27010442432947 154.90188713837415,153.78010124200955 154.67992488108575,157.02009340864606 154.90188713837415,161.34007565444335 157.5654342258349,166.20004569296725 161.7827171124518,168.63002674723975 163.11449065618217,168.3600289823953 166.0,169.98001507879235 167.99766031466424,169.1700221770443 171.1051319167018,171.33000259427354 173.32475448958576,168.63002674723975 174.8784902896732,162.42006990942173 173.99064126145095,158.37008875748143 175.1004525469616,151.35010403278284 174.8784902896732,147.0301024664659 174.8784902896732,145.68010026379488 176.43222609069198,142.98009340977296 177.76399963349104,140.82008557626978 177.09811286255717,136.7700652598869 175.32241480425,132.1800333559513 173.10279223136604,129.75001264712773 169.9953206302598,128.6700025945902 166.0,128.94000515691005 161.1168303405866,130.56001984444447 157.1215097112581,132.1800333559513 156.67758519575,133.53004371840507 155.56777391023934,134.61005142168142 155.78973616752774,137.04006684245542 156.01169842481613,138.6600756549742 156.23366068210453,142.1700907170307 156.23366068210453,143.5200950417202 156.23366068210453,147.84010339644738 156.01169842481613,149.19010429433547 155.12384939659387,151.62010385282338 155.78973616752774,155.13009854895063 154.90188713837415,156.21009580790997 155.12384939659387,161.07007700833492 156.23366068210453,162.15007139416412 156.23366068210453,163.50006364332512 158.45328325405717,165.66004954348318 162.6705661425367,168.63002674723975 167.1098112873733,170.52001018356532 170.4392451448366,169.710017477395 171.99298094585538,168.09003118495457 175.32241480425,163.77006199466996 174.8784902896732,159.18008557590656 174.43456577509642,152.97010246641003 176.2102638334036,152.1601033960469 176.65418834704906,147.3001028096769 176.87615060433745,146.49010168295354 175.9883015761152,142.71009254432283 176.87615060433745,138.93007700890303 175.54437706060708,134.34004954481497 173.54671674594283,132.1800333559513" stroke="#4DD2FF" stroke-dasharray="none" stroke-linecap="round" stroke-linejoin="round" stroke-width="0.5"><title>2013-10-26 11.1km</title><desc>9223370654110301807</desc></polyline><polyline fill="none" opacity="1" points="40.8925055321306,180.3789805562701 36.68690893705934,178.67370399925858 33.41588936187327,178.10527820512652 29.443937020376325,180.66319319489412 27.341138722375035,181.51583090610802 24.771051913499832,184.3579543782398 22.901897870004177,187.76849800907075 24.30376340262592,190.32640248560347 25.004696168005466,193.1685153071303 25.004696168005466,196.86325683817267 24.07011914718896,199.9895720607601 23.602830636315048,203.68430287321098 23.36918638087809,206.81060902611353 24.30376340262592,208.23165590292774 23.602830636315048,212.77900013769977 25.705628934316337,215.62108581862412 28.042071488685906,217.89475188939832 30.845802552998066,218.46316806343384 34.11682212725282,217.89475188939832 38.08877446874976,216.18950254260562 41.359794043935835,213.91583482245915 42.29437106475234,209.93691102182493 42.06072680931538,206.52639954793267 42.52801532112062,202.26325324806385 42.52801532112062,198.85273064253852 42.52801532112062,195.1579922370147 43.92988085281104,191.4632480267901 45.565390639938414,189.18955639493652 46.49996766168624,186.63165068160743 46.26632340531796,184.07374218595214 43.92988085281104,181.23161837016232 40.8925055321306,179.81055517448112 37.855130213312805,177.25263925665058 34.58411063905805,176.4000000001397 31.0794468075037,177.82106525660492 28.27571574319154,180.09476788225584 25.705628934316337,182.6526807071641 25.238340424373746,185.77901482582092 25.238340424373746,189.4737679695245 24.771051913499832,192.60009301709943 24.30376340262592,196.86325683817267 21.50003233831376,199.9895720607601 21.967320849187672,203.68430287321098 21.733676593750715,207.94744659680873 22.200965103693306,211.07374708005227 22.200965103693306,213.91583482245915 24.30376340262592,216.75791912851855 27.341138722375035,219.0315841003321 30.61215829756111,219.60000000009313 34.58411063905805,219.0315841003321 37.154197447001934,217.610543750925 40.8925055321306,215.90529419737868 41.82708255480975,213.6316262029577 43.462592341937125,210.22112008789554 43.92988085281104,206.81060902611353 43.92988085281104,203.1158831268549 44.39716936368495,199.70536175812595 45.0981021290645,195.4422030900605 45.33174638450146,192.0316705906298 45.79903489537537,189.18955639493652 45.565390639938414,185.49480280443095 44.63081361912191,181.80004340759479 42.52801532112062,179.24212965508923 39.4906400013715,178.10527820512652 35.98597617074847,177.53685227409005 32.48131234012544,177.53685227409005 29.21029276587069,178.95791684417054 25.705628934316337,181.23161837016232 24.30376340262592,184.07374218595214 25.004696168005466,188.33692146651447 23.602830636315048,191.74745932617225 23.36918638087809,194.58957042940892 23.36918638087809,198.28430972713977 21.733676593750715,201.69483315735124 22.200965103693306,206.52639954793267 21.967320849187672,209.3684927856084 23.36918638087809,212.21058258996345 24.30376340262592,215.90529419737868 25.238340424373746,217.610543750925 30.845802552998066,219.0315841003321 34.81775489356369,218.46316806343384 37.38784170243889,216.18950254260562 41.59343829844147,212.77900013769977 43.22894808650017,211.9263737637084 43.92988085281104,209.08428361662664 43.462592341937125,205.95798048726283 43.462592341937125,202.26325324806385 43.462592341937125,199.13694104878232 43.92988085281104,195.72641390911303 45.33174638450146,192.31588182109408 45.565390639938414,189.18955639493652 45.565390639938414,186.34743876405992 45.565390639938414,183.78952995873988 43.22894808650017,181.23161837016232 41.359794043935835,178.10527820512652 37.855130213312805,176.96842620545067 33.6495336163789,178.10527820512652 29.67758127581328,180.09476788225584 27.341138722375035,183.22110540163703 25.238340424373746,186.34743876405992 23.836474891752005,188.33692146651447 23.602830636315048,192.0316705906298 22.668253615498543,195.4422030900605" stroke="#4DD2FF" stroke-dasharray="none" stroke-linecap="round" stroke-linejoin="round" stroke-width="0.5"><title>2013-10-20 10.7km</title><desc>9223370654628121807</desc></polyline><polyline fill="none" opacity="1" points="109.21564369276166,213.8582753916271 110.78904627356678,211.12411569291726 111.0138180712238,208.1165362072643 111.46336166653782,205.1089527234435 111.91290526092052,201.00769607233815 112.58722065296024,198.00010313512757 113.03676424827427,195.265924267238 113.26153604499996,192.53174209501594 112.81199244968593,188.7038815007545 112.58722065296024,185.96969139552675 110.33950267918408,182.68865890684538 108.76610009744763,179.4076216588728 105.84406673163176,177.49368106550537 102.69726156815886,176.4000000001397 99.77522820234299,176.4000000001397 96.1788794444874,177.2202608489897 92.80730248428881,179.4076216588728 90.33481271192431,182.68865890684538 89.43572552409023,185.69627220346592 89.43572552409023,188.7038815007545 88.76141013111919,191.98490526387468 88.53663833346218,196.08617827505805 87.41277934703976,199.3671913293656 87.86232294142246,202.3747824486345 86.73846395500004,206.20261990721337 89.2109537255019,208.6633691387251 90.11004091612995,211.9443639498204 91.90821529459208,215.49876962439157 94.15593326836824,217.41267805802636 97.75228202715516,218.77975451922975 101.57340258173645,219.60000000009313 104.49543594755232,217.95950874243863 106.96792571805418,215.22535400115885 108.99087189510465,212.76461190870032 110.56427447684109,209.75703460443765 110.33950267918408,207.5697031437885 111.0138180712238,204.56211893237196 111.23858986981213,201.5545307220891 111.46336166653782,198.54693851224147 112.13767705764621,196.08617827505805 112.58722065296024,191.71148679824546 112.58722065296024,188.43046263884753 111.23858986981213,182.96207846258767 109.44041548948735,179.4076216588728 106.51838212367147,177.76710124965757" stroke="#4DD2FF" stroke-dasharray="none" stroke-linecap="round" stroke-linejoin="round" stroke-width="0.5"><title>2013-10-19 10.2km</title><desc>9223370654714312807</desc></polyline><polyline fill="none" opacity="1" points="175.90524668991566,206.66946825268678 175.4220639243722,202.55519372876734 175.66365530714393,198.1470347265713 175.90524668991566,195.2082576181274 176.63002083823085,191.09396369801834 177.59638636745512,187.27354168030433 176.1468380726874,183.15923433192074 174.93888115882874,180.22043910529464 171.31501041911542,177.5755203643348 167.20795691385865,176.4000000001397 163.3424947904423,177.5755203643348 160.20180681534111,179.33879984519444 158.51066713687032,182.57147557032295 157.302710223943,185.51026795455255 157.06111884023994,188.15517806308344 156.5779360756278,191.9755986945238 155.61157054454088,195.5021354884375 154.8867963962257,198.73478972166777 154.64520501438528,201.96743965684436 154.64520501438528,206.08171517541632 155.12838777899742,209.90210763714276 156.81952745839953,213.72249409533106 158.0274843722582,215.7796227785293 160.92658096458763,219.0122500488069 164.55045170336962,219.0122500488069 167.44954829569906,219.60000000009313 170.83182765357196,218.13062485610135 173.48933286219835,216.36737351119518 175.18047254160047,212.84086698386818 175.66365530714393,208.43272663117386 175.90524668991566,203.73070144630037 175.90524668991566,200.79193108691834 175.90524668991566,197.26540196686983 176.87161222100258,194.32662379206158 177.59638636745512,190.80008529429324 177.35479498654604,186.39190497691743 175.18047254160047,180.22043910529464 172.52296733297408,178.16328033292666 167.6911396794021,176.69388014404103 164.79204308707267,176.9877602532506 161.8929464938119,179.63267963356338 159.23544128518552,181.6898371623829 158.51066713687032,184.62863061204553 157.06111884023994,189.33069274341688 155.61157054454088,193.73886773106642 155.61157054454088,197.26540196686983 154.16202224884182,200.79193108691834 154.40361363161355,204.6123318609316 154.64520501438528,207.8449739809148 154.16202224884182,211.37148775416426 156.09475331008434,215.48574735829607 158.75225852057338,218.13062485610135 161.40976372919977,218.42449995642528 166.48318276554346,219.0122500488069 169.38227935694158,217.54287455044687 172.52296733297408,214.89799641259015 173.48933286219835,212.25311539904214 174.697289776057,208.43272663117386 176.1468380726874,204.9062085954938 177.35479498654604,201.67356256698258 177.83797775115818,197.55927958874963 177.35479498654604,192.85723337321542 177.35479498654604,188.44905678625219 176.3884294545278,184.92250976222567 174.93888115882874,180.22043910529464 172.03978456743062,178.16328033292666 168.89909659232944,177.28164032683708 164.79204308707267,176.9877602532506 161.40976372919977,179.04492002003826 158.51066713687032,181.6898371623829 157.06111884023994,184.33475142717361 157.78589298855513,187.8612993035931" stroke="#4DD2FF" stroke-dasharray="none" stroke-linecap="round" stroke-linejoin="round" stroke-width="0.5"><title>2013-10-12 10.6km</title><desc>9223370655320152807</desc></polyline><polyline fill="none" opacity="1" points="34.00000000093132,224.4000000001397 30.98247735388577,225.2470665036235 27.96495470777154,226.65884332591668 26.34013482183218,230.6118138891179 25.411666315048933,234.0000690475572 25.643783441744745,236.25890308944508 24.251080681569874,240.77656461950392 24.251080681569874,243.31774539034814 23.55472930241376,247.83539326884784 24.251080681569874,250.94127111579292 24.483197808265686,255.17655243445188 24.018963554874063,258.8471233653836 22.858377922326326,262.51768852747045 24.94743206165731,263.3647412073333 28.42918896023184,265.6235468534287 31.678828733973205,267.60000000009313 34.696351380087435,267.60000000009313 38.874459659680724,265.90589740499854 41.42774805333465,263.92944282409735 43.748919318430126,260.8235822466668 44.677387826144695,257.1530144221615 44.90950495097786,252.63538456475362 43.748919318430126,248.96480387263 43.98103644605726,243.8824518530164 45.141622078604996,239.92950374865904 45.37373920623213,236.82361125876196 46.30220771115273,234.0000690475572 45.60585633199662,231.74123282171786 43.05256793834269,228.07061929488555 38.874459659680724,226.65884332591668 35.39270276017487,225.81177733442746 32.60729724075645,225.81177733442746 30.286125973798335,226.94119858834893 26.34013482183218,228.91768446774222 24.94743206165731,231.74123282171786 24.018963554874063,235.12948634149507 24.251080681569874,239.0824425695464 24.251080681569874,242.47068544104695 24.483197808265686,245.57657042192295 24.251080681569874,249.24715643795207 22.626260795630515,251.78832799429074 21.92990941554308,254.61184870218858 21.697792288847268,257.435365997022 22.626260795630515,260.25887987948954 23.78684642817825,262.51768852747045 25.411666315048933,265.34119626670144 28.42918896023184,266.75294885598123 31.678828733973205,266.75294885598123 36.55328839365393,267.60000000009313 39.57081103976816,264.7764949919656 41.42774805333465,262.2353375663515 43.748919318430126,258.56477195979096 43.98103644605726,254.61184870218858 43.98103644605726,251.22362344292924 45.141622078604996,247.55304053192958 45.83797345869243,244.16480503370985 45.60585633199662,241.05891817482188 45.60585633199662,238.5177349471487 46.07009058445692,235.12948634149507 45.37373920623213,232.30594208301045 44.44527069851756,229.76474933186546 43.05256793834269,226.94119858834893 40.03504529315978,225.2470665036235 36.55328839365393,225.2470665036235 32.60729724075645,225.2470665036235 28.89342321548611,225.81177733442746 26.804369075223804,228.07061929488555 24.483197808265686,231.74123282171786 24.94743206165731,234.28242342267185 24.94743206165731,237.6706732562743 23.55472930241376,242.18833205639385 23.55472930241376,246.14127633837052 24.251080681569874,247.55304053192958 23.32261217571795,251.22362344292924 22.626260795630515,253.2000887747854 23.090495048090816,256.588311167201 23.78684642817825,259.6941773761064 24.251080681569874,262.80003945552744 25.875900567509234,265.34119626670144 27.73283758200705,266.4705984070897 34.00000000093132,266.4705984070897" stroke="#4DD2FF" stroke-dasharray="none" stroke-linecap="round" stroke-linejoin="round" stroke-width="0.5"><title>2013-10-06 10.6km</title><desc>9223370655838244807</desc></polyline><polyline fill="none" opacity="1" points="108.76317462790757,260.867585366359 109.91622392181307,257.2208526181057 110.14683377929032,253.85463268659078 110.60805349703878,250.76892679347657 111.76110279094428,247.68321679718792 111.06927321478724,244.03646333003417 111.06927321478724,240.67022427427582 111.76110279094428,237.5845008501783 111.99171264935285,234.77929417719133 111.76110279094428,231.97408411232755 109.6856140634045,230.2909564457368 108.07134505175054,228.04678432480432 105.30402674898505,226.9246974508278 102.30609858687967,227.48574095615186 97.69390141405165,228.04678432480432 95.38780282903463,228.6078275591135 93.77353381738067,230.2909564457368 93.54292395804077,231.97408411232755 92.62048452533782,234.77929417719133 92.38987466599792,237.86502133100294 91.69804508984089,242.07282447465695 91.00621551368386,245.15854193037376 91.69804508984089,248.80529363360256 90.77560565527529,251.89100213861093 90.31438593752682,255.53774326271378 89.39194650482386,258.3429248428438 89.39194650482386,260.3065499314107 90.31438593752682,263.3922431420069 91.92865494918078,265.6363810834009 96.07963240426034,266.75844923895784 99.30817042570561,267.60000000009313 102.30609858687967,266.75844923895784 105.30402674898505,266.47793225129135 107.37951547559351,264.23379512433894 108.76317462790757,261.98965582833625 109.6856140634045,258.0624068370089 109.45500420406461,254.97670653951354 110.37744363863021,251.04944568034261 110.37744363863021,247.40269750310108 110.14683377929032,243.75594359473325 109.91622392181307,238.98710291530006 110.37744363863021,235.62085653445683 111.06927321478724,234.21825243486091 110.37744363863021,231.41304169245996 108.07134505175054,228.88834912492894 105.07341689057648,226.0831319389399 102.9979281630367,225.2415661229752 99.76939014159143,225.80261003412306 96.31024226266891,225.80261003412306 94.4653633935377,226.6441756472923 93.31231410056353,229.72991361888126 91.69804508984089,232.5351263966877 91.46743523143232,235.62085653445683 90.77560565527529,239.26762322615832 90.08377608004957,243.19490402424708 89.62255636136979,245.7195810272824 88.9307267870754,248.80529363360256 88.9307267870754,252.17152088950388 88.0082873525098,255.53774326271378 87.54706763476133,258.0624068370089 87.7776774931699,261.14810303226113 88.9307267870754,263.6727605035994 91.92865494918078,266.19741522870027 95.61841268651187,267.0389661930967 99.76939014159143,267.319483113708 103.45914787892252,266.75844923895784 105.99585632514209,264.794829609571 108.76317462790757,262.55069085536525 109.91622392181307,258.3429248428438 110.37744363863021,255.53774326271378 110.83866335544735,252.4520396075677 111.06927321478724,249.6468509058468 111.53049293160439,245.7195810272824 111.76110279094428,243.4754238263704 111.99171264935285,240.3897041331511 112.22232250776142,237.5845008501783 112.45293236616999,234.49877332313918 111.76110279094428,231.69356291904114 110.60805349703878,229.1688706574496 108.30195491109043,226.6441756472923 105.76524646673352,225.2415661229752 102.9979281630367,224.4000000001397 100.69182957615703,224.96104411478154 96.77146197948605,225.52208809531294 94.00414367672056,227.20521922083572 92.62048452533782,230.8519991368521 91.00621551368386,235.34033578261733 90.08377608004957,238.14554177806713 89.85316622070968,240.3897041331511 89.62255636136979,243.4754238263704 89.85316622070968,246.56113941781223 90.08377608004957,249.92736992868595 89.85316622070968,253.01307694031857 89.62255636136979,256.3792980927974 90.08377608004957,259.7455143611878 91.46743523143232,262.83120831870474 94.00414367672056,264.5143123844173 96.77146197948605,267.319483113708 100.69182957615703,267.319483113708 102.9979281630367,267.0389661930967 106.45707604289055,265.35586395906284 108.532564769499,263.3922431420069 109.6856140634045,260.0260321632959 110.14683377929032,257.2208526181057 111.06927321478724,254.13515119976364 111.06927321478724,250.76892679347657 111.76110279094428,247.96373605774716 111.76110279094428,244.8780223308131 111.53049293160439,241.79230450256728 112.68354222457856,238.14554177806713 111.76110279094428,235.34033578261733 110.83866335544735,231.97408411232755 110.14683377929032,229.44939215504564 107.6101253349334,227.7662626572419 104.38158731441945,226.0831319389399 101.38365915231407,226.6441756472923 97.23268169723451,226.9246974508278 94.23475353512913,228.88834912492894 92.85109438374639,230.8519991368521 90.77560565527529,234.21825243486091 90.31438593752682,236.46241858764552 89.39194650482386,240.1091839573346 89.62255636136979,243.19490402424708 88.46950706932694,246.28061998845078 88.46950706932694,249.6468509058468 87.7776774931699,253.01307694031857 87.31645777635276,256.3792980927974 88.0082873525098,259.7455143611878 89.16133664548397,262.83120831870474 92.62048452533782,264.794829609571 96.31024226266891,266.47793225129135 98.84695070702583,265.9168981728144 102.30609858687967,265.0753468009643 104.84280703123659,262.270173358731 108.07134505175054,260.3065499314107 109.6856140634045,257.7818887971807 110.37744363863021,255.53774326271378 110.60805349703878,252.17152088950388 111.06927321478724,248.80529363360256" stroke="#4DD2FF" stroke-dasharray="none" stroke-linecap="round" stroke-linejoin="round" stroke-width="0.5"><title>2013-09-29 10.5km</title><desc>9223370656443428807</desc></polyline><polyline fill="none" opacity="1" points="166.89908653870225,265.13926266669296 169.37157451640815,264.0456007702742 172.29360576253384,263.22535400046036 174.31655047181994,261.0380278278608 175.66518027801067,258.3038671386894 176.5642668157816,255.29628656315617 176.5642668157816,251.7418679993134 176.5642668157816,248.73427869705483 177.23858171794564,246.00010313582607 177.23858171794564,242.17225179541856 178.36243989039212,238.8912312053144 177.68812498729676,237.25071912514977 176.78903844952583,234.51652968092822 175.66518027801067,230.68865890661255 173.86700720340014,227.95446153078228 171.39451922569424,225.49368106527254 170.0458894195035,225.76710125035606 166.00000000093132,224.94684059894644 163.30274038854986,226.5873616025783 160.83025241084397,228.22788141667843 159.7063942393288,232.055756355403 158.35776443313807,233.6962722032331 157.6834495300427,238.6178126083687 157.00913462694734,240.80516046099365 156.78436299227178,244.9064319843892 156.78436299227178,247.09377375710756 156.55959135852754,249.28111341316253 156.55959135852754,253.38236956926994 155.2109615523368,255.56970314332284 155.6605048207566,261.0380278278608 156.55959135852754,263.4987696236931 161.95411058235914,265.4126780577935 164.2018269263208,265.95950874197297 167.5734014417976,265.95950874197297 171.61929085943848,264.86584724183194 174.5413221064955,262.1316911787726 176.5642668157816,258.0304508882109 177.23858171794564,253.65578638156876 175.66518027801067,250.92161676776595 174.09177883714437,249.55453072185628 175.88995191268623,245.17984982184134 177.4633533526212,239.98490526387468 177.91289662197232,238.07097531366162 177.23858171794564,235.06336783478037 178.36243989039212,231.235497985268 175.66518027801067,228.50130126997828 172.9679206656292,225.49368106527254 171.16974759101868,224.94684059894644 165.77522836625576,225.49368106527254 164.2018269263208,225.76710125035606 161.27979567926377,228.22788141667843 158.80730770155787,230.41523931804113 158.1329927984625,232.87601442844607 157.6834495300427,236.43046263838187 156.55959135852754,241.07857879367657 157.00913462694734,244.35959621169604 157.23390626069158,246.54693851224147 156.55959135852754,250.92161676776595 157.00913462694734,254.20261990698054 155.6605048207566,258.3038671386894 156.33481972385198,261.5848595700227 156.55959135852754,263.4987696236931 160.38070914242417,264.86584724183194 163.97705529164523,267.3265848727897 166.22477163467556,266.77975451922975 169.14680288173258,265.95950874197297 172.0688341287896,264.86584724183194 174.9908653749153,261.5848595700227 175.21563700959086,259.3975318111479 175.88995191268623,256.66336913825944 176.78903844952583,253.92920316033997 177.91289662197232,250.92161676776595 177.0138100842014,247.3671913293656 175.88995191268623,243.53934230282903 176.11472354643047,240.5317420954816 176.5642668157816,237.25071912514977 177.68812498729676,236.43046263838187 178.58721152413636,232.87601442844607 177.23858171794564,230.14181969570927 178.36243989039212,230.41523931804113 177.91289662197232,227.68104161159135 174.76609374023974,226.31394151831046 171.39451922569424,225.22026084875688 168.24771634489298,224.6734203158412 164.2018269263208,225.76710125035606 161.0550240445882,228.22788141667843 158.35776443313807,230.14181969570927 158.1329927984625,233.42285297834314 155.88527645543218,237.25071912514977 154.53664664924145,241.62541536078788 156.11004808917642,241.62541536078788 156.78436299227178,243.2659242679365 156.33481972385198,246.8203561506234 155.6605048207566,250.92161676776595 153.41278847679496,253.10895272321068 155.43573318701237,256.11653620772995 155.6605048207566,258.57728335657157 157.23390626069158,262.9519383441657 159.256850970909,265.4126780577935 161.95411058235914,266.23292403365485 165.77522836625576,266.23292403365485 169.37157451640815,267.60000000009313 172.9679206656292,266.23292403365485 174.09177883714437,264.0456007702742 174.31655047181994,260.49119595531374 175.66518027801067,259.3975318111479 175.88995191268623,255.29628656315617 177.91289662197232,248.73427869705483 177.91289662197232,244.08617827459238 175.88995191268623,241.35199709353037 176.5642668157816,238.07097531366162 177.0138100842014,235.61020585522056 177.4633533526212,232.055756355403 177.23858171794564,230.14181969570927 175.66518027801067,227.1342016728595 172.0688341287896,225.76710125035606 168.69725961331278,224.4000000001397 166.00000000093132,225.76710125035606 163.52751202322543,226.8607816544827 160.38070914242417,229.04814087809063 157.45867789536715,232.055756355403 155.6605048207566,235.61020585522056 156.78436299227178,239.16464976919815 157.00913462694734,243.53934230282903 157.00913462694734,246.8203561506234 156.33481972385198,250.64819962508045 154.761418283917,253.10895272321068 156.33481972385198,256.66336913825944 155.6605048207566,259.3975318111479 156.78436299227178,262.4051069342531 157.6834495300427,264.86584724183194 161.7293389486149,264.31901629362255 164.2018269263208,265.95950874197297 167.5734014417976,265.13926266669296" stroke="#4DD2FF" stroke-dasharray="none" stroke-linecap="round" stroke-linejoin="round" stroke-width="0.5"><title>2013-09-22 10.9km</title><desc>9223370657048162807</desc></polyline></svg>