<?xml version="1.0" encoding="utf-8" ?>
<svg baseProfile="full" height="300mm" version="1.1" viewBox="0,0,200,300" width="200mm" xmlns="http://www.w3.org/2000/svg" xmlns:ev="http://www.w3.org/2001/xml-events" xmlns:xlink="http://www.w3.org/1999/xlink"><defs /><rect fill="#222222" height="300" width="200" x="0" y="0" /><text fill="#FFFFFF" style="font-size:12px; font-family:Arial; font-weight:bold;" x="10" y="20">Over 10km Runs</text><text fill="#FFFFFF" style="font-size:4px; font-family:Arial" x="10" y="280">Runner</text><text fill="#FFFFFF" style="font-size:9px; font-family:Arial" x="10" y="290">keep</text><text fill="#FFFFFF" style="font-size:4px; font-family:Arial" x="65" y="280">SPECIAL TRACKS</text><rect fill="yellow" height="2.6" width="2.6" x="65" y="283" /><text fill="#FFFFFF" style="font-size:3px; font-family:Arial" x="70" y="285.5">Over 20.0 km</text><rect fill="red" height="2.6" width="2.6" x="65" y="287" /><text fill="#FFFFFF" style="font-size:3px; font-family:Arial" x="70" y="289.5">Over 40.0 km</text><text fill="#FFFFFF" style="font-size:4px; font-family:Arial" x="120" y="280">STATISTICS</text><text fill="#FFFFFF" style="font-size:3px; font-family:Arial" x="120" y="285">Number: 15</text><text fill="#FFFFFF" style="font-size:3px; font-family:Arial" x="120" y="290">Weekly: 1.2</text><text fill="#FFFFFF" style="font-size:3px; font-family:Arial" x="141" y="285">Total: 163.6 km</text><text fill="#FFFFFF" style="font-size:3px; font-family:Arial" x="141" y="290">Avg: 10.9 km</text><text fill="#FFFFFF" style="font-size:3px; font-family:Arial" x="167" y="285">Min: 10.2 km</text><text fill="#FFFFFF" style="font-size:3px; font-family:Arial" x="167" y="290">Max: 14.0 km</text><polyline fill="none" opacity="1" points="26.700012992194388,75.59999999999854 26.61316008315771,75.41417179163545 26.552363046765095,75.16275648610463 26.534992464992683,74.86761579547601 26.595789501297986,74.49595563606272 26.61316008315771,74.21174378864816 26.595789501297986,73.89473710375023 26.587104210426332,73.58866052028316 26.595789501297986,73.30444552635163 26.61316008315771,72.93277827774727 26.621845374029363,72.65949246080709 26.67395711946301,72.38620573244407 26.856348228553543,72.2440962735418 27.13427753758151,72.22223325799132 27.238501028477913,72.1347811374726 27.264556901180185,71.95987661645631 27.290612773911562,71.7412454402147 27.307983355771285,71.4570240390749 27.24718631937867,71.11814338783734 26.97794230125146,70.97603172995878 26.838977646722924,70.73553451665066 26.908459974016296,70.33106033902732 26.943201137619326,70.04683404683601 27.003998173982836,69.69701571852056 27.038739337644074,69.37999156855221 27.090851083019515,69.06296619209752 27.10822166487924,68.7896674693693 27.160333410312887,68.63661978650634 27.238501028477913,68.48357181777828 27.229815737577155,68.30865950349835 27.221130446647294,68.2430672893679 27.281927483010804,68.035358264955 27.34272451934521,67.79485242105147 27.412206846638583,67.51061733175447 27.490374464803608,67.21544908010401 27.577227373898495,66.86561866428383 27.64670970113366,66.60324487225444 27.768303773831576,66.34087024014298 27.942009591992246,66.36273482489196 28.133085991925327,66.45019310560019 28.36758884647861,66.34087024014298 28.610776991874445,66.16595335194143 28.69762990094023,65.9035773195792 28.85396513727028,65.60840327887854 29.001615082699573,65.30229574319674 29.166635609959485,65.01805200749368 29.322970846260432,64.74473979331378 29.479306082619587,64.47142666744185 29.635641318949638,64.15438229924621 29.79197655527969,63.85920195707149 30.00042353704339,63.476559190072294 30.217555809766054,63.10484736243234 30.43468808243051,62.700335516259656 30.60839390059118,62.41608275387989 30.799470300611574,62.09903043243685 30.981861409614794,61.81477558393817 31.112140773242572,61.61798318802903 31.285846591403242,61.34465963177354 31.485608282266185,61.02760316419153 31.615887645893963,60.71054546965024 31.73748171859188,60.43721888609434 31.90250224582269,60.120158906858705 32.137005100317765,59.85776351333334 32.38887853661436,59.682832784121274 32.58864022753551,59.409502771937696 32.736290172935696,59.15803835537372 32.84919895476196,59.05963902574149 32.95342244562926,58.84097342566383 33.05764593652566,58.60044059149368 33.11844297288917,58.425507177613326 33.318204663781216,58.33804033060005 33.48322519098292,58.3271069681432 33.58744868187932,58.26150676287216 33.709042754606344,58.11937280451821 33.865377990936395,57.944438363425434 34.05645439089858,57.70390289701754 34.25621608176152,57.45243324521289 34.32569840902579,57.26656387600087 34.282271954463795,56.960425172175746 34.299642536294414,56.654285324315424 34.44729248172371,56.43561330399825 34.638368881714996,56.21694069998921 34.81207469984656,55.987333837590995 34.93366877254448,55.63745547644794 35.081318718002876,55.3750457249771 35.35056273613009,55.090767545647395 35.59375088152592,54.8502237003413 35.71534495422384,54.620613007260545 35.84562431788072,54.30353051597922 35.98458897235105,53.98644679730205 36.21909182690433,53.76776765555405 36.51439171776292,53.73496573395096 36.679412244964624,53.49441790748824 36.783635735861026,53.188265106698964 36.853118063125294,52.90397933861095 36.9139150994597,52.60875845823466 36.98339742675307,52.247931492936914 37.07893562671961,51.908971380704315 37.13973266305402,51.701220941242354 37.17447382668615,51.50440424936096 37.235270863049664,51.18730969561875 37.304753190343035,50.84834519449214 37.391606099379715,50.476576064305846 37.49582959027612,50.08293632265122 37.54794133573887,49.72209823096637 37.626108953903895,49.38312766653689 37.71296186296968,49.06602490085061 37.799814772064565,48.68331303149171 37.851926517498214,48.33340347183548 37.92140884476248,47.961622926835844 38.008261753828265,47.60077548994013 38.07774408112164,47.25086130567797 38.1472264083568,46.95562004992098 38.225394026521826,46.594768180963 38.26882048105472,46.2995245602433 38.355673390149605,46.02614988842106 38.38172926282277,45.90586474374868 38.42515571738477,45.64342381491588 38.49463804467814,45.293501268402906 38.564120371913305,44.92170692462969 38.65097328097909,44.58271649322705 38.7117703173426,44.24372465867782 38.720455608243356,44.17811317380256 38.755196771846386,43.9375372795912 38.815993808239,43.60947810315702 38.89416142643313,43.237676114658825 38.96364375366829,42.89867871289607 39.024440789973596,42.62529268940125 39.08523782636621,42.43938967213762 39.1286642808991,42.28629275285493 39.16340544456034,42.16600211549667 39.21551718999399,42.03477576414298 39.16340544456034,41.85980696859042 39.18077602633275,41.586417477199575 39.21551718999399,41.32396270684694 39.293684808159014,41.083378428491415 39.3371112626628,40.9193432880129 39.55424353538547,40.94121465905482 39.84954342621495,41.05057142666192 40.13615802617278,41.14899239267834 40.370660880667856,41.21460630431102 40.448828498861985,40.99589306113921 40.47488437159336,40.7881149390887 40.45751378976274,40.503786128356296 40.4661990806635,40.14290583163529 40.49225495336577,39.73828057751962 40.55305198975839,39.421140467318764 40.50962553516729,39.169614679020015 40.3619755897962,39.04931946373108 40.06667569890851,39.103999128921714 39.75400522624841,39.169614679020015 39.63241115352139,39.08212726722559 39.675837608083384,38.754048640570545 39.74531993531855,38.43690471876471 39.80611697171116,38.130695628868125 39.884284589847084,37.769804874384135 39.97113749891287,37.40891252949223 40.01456395344576,37.102699595619924 40.06667569890851,36.796485516722896 40.101416862540646,36.512142846768256 40.13615802617278,36.28248073867144 40.08404628068092,36.15124495917553 40.18826977163553,36.05281798651413 40.37934617159772,35.94345454482391 40.4661990806635,35.80128185223293 40.31854913523421,35.69191807457537 40.30117855343269,35.5388085404993 40.31854913523421,35.37476229346066 40.448828498861985,35.363825865286344 40.622534317022655,35.39663514536369 40.79624013515422,35.37476229346066 40.91783420785214,35.4075715691215 41.08285473508295,35.352889435671386 41.273931135074235,35.320080138058984 41.308672298677266,35.09041468669602 41.35209875323926,34.65295490210701 41.395525207801256,34.259239097780664 41.43026637137518,33.97488761733257 41.43026637137518,33.72334509995562 41.4476369531767,33.54835854520934 41.47369282593718,33.35149822409585 41.35209875323926,33.24213117452018 41.15233706237632,33.22025774708163 40.96126066238503,33.18744759497349 40.7788695533236,33.08901705972676 40.535681407898664,33.05620685502072 40.24906680796994,32.9905864061584 39.91034046257846,32.935902658631676 39.64109644445125,32.85934535069828 39.293684808159014,32.79372474406409 38.96364375366829,32.70623052010342 38.755196771846386,32.5640522067406 38.58149095371482,32.58592580952245 38.28619106285623,32.5640522067406 37.96483529926627,32.5531154032069 37.686905990267405,32.53124179173028 37.35686493574758,32.50936817435286 37.061565044888994,32.45468410545436 36.75757986315875,32.44374728728144 36.470965263200924,32.421873646562744 36.462279972300166,32.432810467638774 36.40148293590755,32.61873620265396 36.33200060867239,32.81559828545869 36.288574154139496,33.02339663715975 36.26251828140812,33.25306788607122 36.23646240870585,33.449928443813405 36.184350663243094,33.6577251857525 36.09749775417731,33.82177487270383 35.99327426328091,33.99676084318344 35.9324772269174,34.182683027109306 35.88036548148375,34.33579509687115 35.79351257241797,34.53265305161767 35.71534495422384,34.69670098573988 35.628492045158055,34.8935580728139 35.54163913609227,35.07947822057031 35.437415645166766,35.16696990872151 35.359248027030844,35.462253666104516 35.25502453613444,35.75753635869478 35.12474517253577,36.041881648903654 34.977095227106474,36.38090743532666 34.82075999074732,36.698059319613094 34.68179533624789,37.00427376657899 34.55151597262011,37.27767855513957 34.41255131809157,37.572954701594426 34.26490137272049,37.87916587702057 34.10856613636133,38.174439854679804 33.98697206360521,38.44784073650226 33.900119154539425,38.63375281480694 33.83932211823412,38.73217668537836 33.769839790969854,38.808728502946906 33.68298688187497,38.97276787104056 33.66561630007345,39.24616608765791 33.51796635464416,39.53049926475069 33.37900170008652,39.7710881050225 33.29214879104984,39.98980461922474 33.29214879104984,40.11009845305671 33.49191048191278,40.17571319704439 33.804580954572884,40.17571319704439 34.134622009063605,40.21945633049472 34.438607190793846,40.26319944057468 34.77733353624353,40.306942527298816 35.116059881605906,40.35068559063802 35.41135977246449,40.405364386955625 35.706659663352184,40.438171647248964 35.88036548148375,40.41630014185648 35.958533099648776,40.20852054931311 36.010644845082425,40.00074042961933 35.99327426328091,39.85857478083926 36.09749775417731,39.880446435156045 36.193035954172956,40.02261204599927 36.184350663243094,40.31787829531822 36.106183045048965,40.6896935393961 36.0367007178138,41.05057142666192 35.96721839057864,41.400512101747154 35.90642135418602,41.761386856822355 35.81956844514934,42.133195547365176 35.75877140875673,42.45032515544153 35.706659663352184,42.723711762992025 35.628492045158055,43.01896827413293 35.67191849972005,43.34702981590817 35.515583263360895,43.63134875579999 35.38530389973312,43.904731421062024 35.307136281597195,44.17811317380256 35.23765395433293,44.48429965352989 35.228968663403066,44.73580911986937 35.32450686339871,44.943577226862544 35.38530389973312,45.20602039816731 35.29845099069644,45.5559433184244 35.228968663403066,45.949604816793 35.14211575433728,46.3323294595757 35.081318718002876,46.70411740004056 35.03789226341178,47.06496878725011 35.02920697256923,47.39301412333589 35.020521681639366,47.72105814555107 35.02920697256923,48.06003558827797 35.00315109983785,48.42088100190449 34.99446580890799,48.74892090749199 34.96840993617661,49.09882869214198 34.9510393543751,49.40499677750631 34.89892760894145,49.73303274193313 34.846815863478696,50.08293632265122 34.75996295441291,50.42190399108949 34.79470411801594,50.72806713112368 34.768648245342774,51.077966461423784 34.70785120895016,51.41693001233216 34.56020126354997,51.76682640008221 34.386495445418404,52.007379299684544 34.134622009063605,52.236997317646455 33.87406328183715,52.44474639829423 33.65693100914359,52.65249495208991 33.405057572847,52.87117707110883 33.28346350011998,53.05705641325039 33.17924000925268,53.19919915500941 33.048960645654006,53.363209704381006 32.93605186379864,53.560021930192306 32.84919895476196,53.86617334160837 32.692863718402805,54.19419144128187 32.519157900242135,54.511274355805654 32.34545208211057,54.817422212167 32.23254330034251,55.04703235359193 32.22385800941265,55.32037692095764 32.34545208211057,55.462515735554916 32.38887853661436,55.713991495642404 32.26728446391644,55.987333837590995 32.30202562757768,56.12947149496904 32.24991388214403,56.04200219652557 32.11094922761549,56.18413975906151 31.90250224582269,56.49028136382549 31.7114258458314,56.75268754301942 31.485608282266185,56.98229226039257 31.31190246413462,57.25563037057145 31.242420136841247,57.50710062647704 31.094770191441057,57.78043698565307 30.981861409614794,57.91163811412116 30.747358555119717,57.88977127398539 30.51285570062464,57.88977127398539 30.22624110066681,57.824170718493406 29.922255918907467,57.824170718493406 29.635641318949638,57.835104148056416 29.479306082619587,57.85697100282414 29.366397300822427,57.85697100282414 29.30560026448802,58.02097222737211 29.166635609959485,58.23964001608692 29.097153282666113,58.480173909585574 29.053726828162326,58.742573715237086 28.906076882733032,58.9940394070145 28.880021010001656,59.11430533456587 28.775797519105254,59.22363784281333 28.541294664610177,59.44230242156482 28.34153297371813,59.650033230820554 28.324162391916616,59.84683035367925 28.40233001008164,59.98896131512447 28.47181233734591,60.1092257822238 28.506553500978043,60.33882109283877 28.549979955510935,60.57934882333211 28.541294664610177,60.57934882333211 28.36758884647861,60.51375042142172 28.18519773738808,60.7761437140216 28.037547791958787,61.04946916686458 27.872527264757082,61.2571959011766" stroke="#4DD2FF" stroke-dasharray="none" stroke-linecap="round" stroke-linejoin="round" stroke-width="0.5"><title>2017-12-17 14.0km</title><desc>9223370523376934807</desc></polyline><polyline fill="none" opacity="1" points="100.67175030789804,32.40000000000873 100.68532102118479,32.70740323998325 100.65817959461128,33.014805742146564 100.65817959461128,33.3734410621837 100.57675531489076,33.69791977216664 100.52247246168554,33.902853270672495 100.67175030789804,34.10778644129459 100.63103816803778,34.89336055777676 100.7396038743318,35.18368020754133 100.8617402939708,35.473999199282844 100.90245243388927,35.78139506149455 100.94316457369132,36.157100113414344 100.95673528697807,36.51572663495608 100.98387671349337,36.87435215234291 101.0381595666986,37.21589933062205 101.14672527305083,37.50621371610032 101.1874374129111,37.81360470117943 101.22814955277136,38.10391773190349 101.25529097946128,38.428384458165965 101.41813953890232,38.53084746406239 101.62170023820363,38.650387534115 101.63527095154859,38.821158869192004 101.49956381862285,38.9406986683025 101.35028597241035,39.094392531726044 101.43171025218908,39.333471508318326 101.56741738505661,39.657935119990725 101.70312451798236,39.9823979097564 101.77097808441613,40.272706024945364 101.89311450399691,40.58009037093143 102.04239235020941,40.88747397933912 102.21881162299542,41.19485685006657 102.30023590271594,41.48516221733007 102.06953377672471,41.63885302777635 101.81169022427639,41.51931574670016 101.60812952485867,41.365624792844756 101.36385668575531,41.19485685006657 101.16029598633759,41.28024084986828 100.91602314711781,41.297317643038696 100.68532102118479,41.38270157459192 100.67175030789804,41.621776280138874 100.68532102118479,41.87792725524923 100.45461889525177,42.031617594417185 100.210346056032,42.117001036545844 99.92536107695196,42.20238442171831 99.64037609781371,42.21946109189594 99.5860932446667,41.99746420170413 99.64037609781371,41.758390197283006 99.7353710908792,41.41685513127595 99.83036608394468,41.14362642282504 99.8846489370917,40.76793599703524 99.93893179023871,40.37516755555407 99.89821965037845,40.084859672613675 99.84393679717323,39.67501212938805 99.68108823767398,39.47008786605147 99.36896183207864,39.504241932721925 99.15183041943237,39.3505485610367 99.1111182795139,39.213932075799676 99.0839768529404,38.99192997656064 99.0839768529404,38.76992749258352 98.96184043335961,38.66746467784105 98.7854211605154,38.650387534115 98.59543117444264,38.63331038808974 98.50043618149357,38.71869609550049 98.52757760806708,39.00900707479741 98.54114832129562,39.333471508318326 98.54114832129562,39.657935119990725 98.56828974792734,39.96532094127906 98.5818604612723,40.30685987758625 98.5818604612723,40.66547478061693 98.5818604612723,40.97285818409 98.5818604612723,41.28024084986828 98.5818604612723,41.570546023664065 98.59543117444264,41.87792725524923 98.6090018877876,42.20238442171831 98.62257260107435,42.44145759740786 98.6090018877876,42.6634537181817 98.59543117444264,42.86837287279195 98.5818604612723,43.141597902358626 98.55471903464058,43.380669325153576 98.54114832129562,43.53435786128102 98.51400689472212,43.79050501184247 98.48686546814861,44.0124987946474 98.48686546814861,44.251568592051626 98.48686546814861,44.50771430844907 98.48686546814861,44.81508849200327 98.48686546814861,45.156614497624105 98.47329475492006,45.481063359518885 98.48686546814861,45.7884352075489 98.48686546814861,46.09580631808785 98.51400689472212,46.40317669106298 98.52757760806708,46.74469846271677 98.51400689472212,47.00083919390454 98.51400689472212,47.308207395341014 98.48686546814861,47.54727104214544 98.50043618149357,47.786334242802695 98.44615332828835,48.0424728912767 98.50043618149357,48.31568688515108 98.54114832129562,48.57182447524974 98.5818604612723,48.87918890731817 98.62257260107435,49.186552601939184 98.66328474093461,49.56221833832387 98.7582797340001,49.93788297307037 98.85327472694917,50.29647091499646 98.96184043335961,50.5355289853178 99.07040613965364,50.85996422440803 99.17897184594767,51.16732316665002 99.30110826558666,51.423455055220984 99.36896183207864,51.54298309463775 99.45038611174095,51.76496344342013 99.57252253137995,52.00401877347031 99.62680538458517,52.26014898919675 99.66751752444543,52.39675156158046 99.7625125174527,52.56750457223097 99.911790363607,52.68703154420655 99.99321464338573,52.87485941781779 100.11535106302472,53.02853656405932 100.23748748266371,53.23343913904682 100.33248247561278,53.43834138632519 100.52247246168554,53.62616815835645 100.7124624478165,53.84814489762357 100.8888817205443,54.10427142649132 101.06530099333031,54.3603974434227 101.22814955277136,54.599447930493625 101.29600311926333,54.7189730067621 101.40456882555736,54.95802282479417 101.58098809834337,55.23122207065171 101.74383665784262,55.436121122707846 101.93382664391538,55.760543951633736 102.06953377672471,55.96544215719041 102.23238233628217,56.25571405410301 102.39523089578142,56.5289105327538 102.54450874193572,56.785031702398555 102.74806944129523,57.10945111562614 102.91091800079448,57.38264577383234 103.10090798686724,57.67291445986484 103.29089797294,57.96318248823809 103.4673172456678,58.25344985903939 103.67087794502731,58.594940041570226 103.83372650452657,58.85105708111951 104.05085791717283,59.175471262962674 104.20013576332713,59.43158714205492 104.32227218296612,59.65355382312555 104.48512074246537,59.89259443427727 104.64796930196462,60.16578315802326 104.82438857475063,60.43897129929974 104.96009570761817,60.660936235188274 105.12294426717563,60.917049144918565 105.31293425313197,61.17316154272703 105.50292423926294,61.44634753603896 105.65220208541723,61.719532946968684 105.78790921828477,61.975643740646774 105.96432849112898,62.3000500111084 106.15431847714353,62.60738150968973 106.317167036701,62.8805644451204 106.49358630942879,63.18789455128717 106.7242884353036,63.52937158243731 106.90070770808961,63.802552552122506 107.04998555436032,64.0245116611186 107.21283411374316,64.3147653004562 107.38925338658737,64.60501828225097 107.56567265931517,64.92941789558972 107.75566264538793,65.2538166877057 107.90494049160043,65.54406754230149 108.05421833781293,65.85139126000286 108.20349618396722,66.17578771793342 108.31206189031946,66.48310992053302 108.39348617003998,66.82457816995156 108.43419830990024,67.01238531929266 108.32563260360621,67.14897216406825 108.27134975040099,67.26848553388845 108.35277403017972,67.18311885252479 108.48848116304725,67.16604550946795 108.58347615611274,67.38799879216822 108.66490043583326,67.6611715353647 108.77346614212729,67.95141693699406 108.89560256176628,68.2758080784406 109.01773898140527,68.61727155065455 109.1263046876993,68.95873411296634 109.22129968076479,69.2148304375587 109.31629467377206,69.5050723200111 109.43843109341105,69.79531354502251 109.54699679970508,70.06848115636967 109.65556250599911,70.34164818532008 109.73698678577784,70.58066885796143 109.79126963898307,70.81968908477575 109.87269391870359,71.10992733227613 109.98125962499762,71.40016492235009 110.08982533129165,71.72454733338964 110.18482032441534,72.01478353144194 110.27981531736441,72.28794641142304 110.38838102365844,72.61232657516666 110.46980530343717,72.85134301248763 110.60551243636291,73.17572175008536 110.71407814265694,73.4488821553532 110.82264384895097,73.7391144480498 110.94478026858997,74.04641851206543 111.053345974884,74.3025046691182 111.14834096800769,74.54151795402868 111.22976524772821,74.78053079311212 111.36547238059575,75.00247088742617 111.41975523374276,75.12197693283088 111.46046737366123,75.29269966149877 111.41975523374276,75.53171109962568 111.25690667430172,75.56585555433412 111.09405811480246,75.36098868931003 110.93120955530321,75.13904921591165 110.71407814265694,74.83174777204113 110.46980530343717,74.54151795402868 110.18482032441534,74.21714267361676 109.8998353452771,73.99520121920796 109.66913321934408,73.7391144480498 109.39771895349259,73.4830271651299 109.18058754090453,73.20986683253432 108.9498854149133,73.00499620106712 108.67847114917822,72.74890745106677 108.42062759661349,72.49281818931922 108.149213330762,72.23672841578082 107.90494049160043,71.98063813049521 107.6470969390939,71.72454733338964 107.37568267330062,71.5026015619369 107.09069769416237,71.29772820093785 106.79214200179558,71.16114577828557 106.43930345622357,71.05870886573393 106.08646491070976,70.99041754526843 105.76076779171126,70.95627187137143 105.43507067277096,70.87090764683671 105.13651498034596,70.80261622622493 104.81081786140567,70.73432476923335 104.48512074246537,70.68310615261726 104.15942362352507,70.64896039685118 103.7658729380928,70.5294501799508 103.53517081215978,70.46115857738187 103.37232225266052,70.42701276237494 103.18233226664597,70.39286693840404 102.97877156722825,70.34164818532008 102.76164015458198,70.32457526310463 102.57165016850922,70.29042941170337 102.38166018243646,70.25628355129447 102.1916701963637,70.22213768180518 101.97453878377564,70.17091886042908 101.77097808441613,70.1197000186221 101.56741738505661,70.05140819768712 101.39099811227061,70.00018930812075 101.02458885347005,69.82945952830778 100.68532102118479,69.69287554069888 100.31891176238423,69.57336443210079 100.07463892310625,69.52214535146777 99.7353710908792,69.41970712870534 99.4096739718807,69.31726882405928 99.05683542630868,69.2148304375587 98.70399688085308,69.11239196913084 98.33758762199432,69.00995341881935 98.07974406942958,68.90751478659513 97.659051957482,68.83922231967153 97.30621341191,68.66849099300453 97.007657719485,68.56605208781548 96.80409702018369,68.49775943890563 96.51911204110365,68.37824721567449 96.1798442088184,68.29288127364998 95.86771780316485,68.12214921908162 95.52844997087959,67.91727045329753 95.21632356522605,67.71239135990618 94.91776787280105,67.45629203256976 94.68706574692624,67.16604550946795 94.46993433427997,66.8757983288233 94.402080767788,66.63677074536099 94.30708577478072,66.4148161613848 94.17137864179676,66.19286119294702 94.04924222221598,65.98797934240429 93.91353508934844,65.78309716425429 93.7778279564809,65.47577328274201 93.6014086836949,65.15137505257735 93.42498941090889,64.79282868484734 93.26214085140964,64.40013389271917 93.05858015210833,64.00743789713306 92.85501945269061,63.58059305860661 92.67860017996281,63.27326389437076 92.52932233375032,62.94886008798494 92.36647377425106,62.59030755686399 92.19005450152326,62.18053200704162 92.0000645154505,61.77075514658645 91.79650381609099,61.37805109232431 91.60651383001823,60.96827166537696 91.41652384400368,60.59263937281503 91.21296314458596,60.21700597887684 91.0501145850867,59.82429716231127 90.86012459901394,59.43158714205492 90.71084675285965,59.107173608761514 90.53442748007365,58.71446139039472 90.3715789206326,58.40712055382028 90.24944250099361,58.16807717116899 90.16801822127309,57.84366043859336 90.01874037506059,57.45094434733619 89.9237453819951,57.07530174239946 89.84232110233279,56.66550855358946 89.77446753584081,56.35816280182917 89.73375539598055,56.016666657378664 89.67947254283354,55.58979519676359 89.65233111626003,55.24829700420378 89.61161897634156,54.8214229834266 89.55733612319455,54.479922742713825 89.51662398333428,54.12134651023371 89.53019469662104,53.7627692741371 89.48948255676078,53.37004067358794 89.50305326998932,53.01146133472503 89.53019469662104,52.66995626932476 89.51662398333428,52.311374970930046 89.51662398333428,51.95279266887519 89.42162899038522,51.54298309463775 89.36734613718,51.16732316665002 89.34020471054828,50.75751107974793 89.31306328397477,50.4330755812116 89.29949257074622,50.04033677323605 89.25878043082776,49.75005079335824 89.19092686439399,49.425612743449165 89.20449757768074,48.98164355415793 89.28592185740126,48.62305193179054 89.31306328397477,48.2303075746604 89.31306328397477,47.99124520254554 89.32663399726152,47.73510645162605 89.35377542389324,47.61557485925732 89.29949257074622,47.34235937219637 89.25878043082776,47.01791522440908 89.23163900419604,46.67639418122417 89.20449757768074,46.33487222745316 89.19092686439399,46.061654008881305 89.15021472447552,45.66890179873735 89.068790444755,45.25907212175662 89.05521973146824,44.8663174508838 89.02807830495294,44.45648520613031 89.00093687826302,44.183262981212465 88.96022473840276,43.79050501184247 88.90594188531395,43.48312836977129 88.90594188531395,43.26113366954087 88.9195125986007,42.90252603334375 88.9195125986007,42.560994017941994 88.90594188531395,42.21946109189594 88.86522974539548,41.92915738877491 88.81094689224847,41.570546023664065 88.78380546567496,41.22901045680919 88.79737617896171,40.85332028150151 88.82451760553522,40.54593659118109 88.78380546567496,40.153167468946776 88.72952261246974,39.82870511179499 88.70238118589623,39.45301082932565 88.70238118589623,39.14562377858965 88.72952261246974,39.02608417076408 88.7430933258147,38.80408174592594 88.70238118589623,38.565001781244064 88.68881047266768,38.25761259942374 88.63452761946246,37.96729991702887 88.55310333974194,37.59160017487011" stroke="#4DD2FF" stroke-dasharray="none" stroke-linecap="round" stroke-linejoin="round" stroke-width="0.5"><title>2017-11-19 11.8km</title><desc>9223370525802103807</desc></polyline><polyline fill="none" opacity="0.5" points="179.70834645675495,68.92295656632632 178.61984251975082,68.60030532779638 177.7354330709204,68.76163096510572 176.78299212595448,68.68096815084573 175.69448818895034,68.76163096510572 174.74204724421725,68.51964249572484 173.72157480334863,68.68096815084573 172.63307086587884,68.84229377005249 171.476535432972,68.43897965474753 170.52409448800609,68.27765394584276 169.7077165353112,68.11632820102386 168.7552755905781,68.11632820102386 167.87086614174768,67.79367660399294 166.85039370064624,67.79367660399294 165.89795275591314,67.63235075137345 165.08157480298541,67.87433951662388 163.65291338600218,67.22903596336255 162.4963779526297,67.06770998542197 161.40787401562557,66.98704698309302 160.18330708658323,67.06770998542197 159.70708661410026,67.14837297901977 158.4144881889224,67.47102486295626 156.7817322832998,66.74505792203126 155.62519685039297,65.77710087026935 154.60472440929152,66.0190902541508 153.44818897615187,65.6157745696255 152.4277165357489,65.45444823266007 151.6113385828212,65.6157745696255 150.79496062989347,65.37378505093511 149.97858267696574,65.05113223398803 148.95811023632996,65.13179545180174 148.07370078726672,65.53511140565388 146.57700787391514,65.05113223398803 145.76062992122024,64.56715273973532 145.3524409448728,63.67985616117949 144.80818897648714,62.792558497574646 144.7401574801188,61.50194177730009 144.87622047238983,60.372650263190735 144.87622047238983,59.08202923758654 144.7401574801188,57.95273395685945 144.7401574801188,56.42011612112401 144.53606299194507,55.613473854376934 144.39999999990687,54.403508772549685 144.6721259842161,53.27420620888006 144.6721259842161,52.30623118375661 144.94425196829252,51.49958434270229 144.7401574801188,50.450942108465824 145.08031496033072,49.3216333919554 145.01228346466087,48.11165781621821 145.2163779528346,47.38567150186282 145.28440944873728,45.93369669409003 145.2163779528346,44.643049980455544 145.28440944873728,43.51373222254915 145.3524409448728,42.62640989373904 145.55653543304652,41.57775483315345 145.76062992122024,40.448432303383015 145.55653543304652,39.31910801527556 145.55653543304652,38.512446733075194 145.42047244077548,37.544452010595705 145.55653543304652,38.512446733075194 145.55653543304652,39.31910801527556 145.76062992122024,40.448432303383015 145.55653543304652,41.57775483315345 145.3524409448728,42.62640989373904 145.28440944873728,43.51373222254915 145.2163779528346,44.643049980455544 145.28440944873728,45.93369669409003 145.2163779528346,47.38567150186282 145.01228346466087,48.11165781621821 145.08031496033072,49.3216333919554 144.7401574801188,50.450942108465824 144.94425196829252,51.49958434270229 144.6721259842161,52.30623118375661 144.6721259842161,53.27420620888006 144.39999999990687,54.403508772549685 144.53606299194507,55.613473854376934 144.7401574801188,56.42011612112401 144.7401574801188,57.95273395685945 144.87622047238983,59.08202923758654 144.87622047238983,60.372650263190735 144.7401574801188,61.50194177730009 144.80818897648714,62.792558497574646 145.3524409448728,63.67985616117949 145.76062992122024,64.56715273973532 146.57700787391514,65.05113223398803 148.07370078726672,65.53511140565388 148.95811023632996,65.13179545180174 149.97858267696574,65.05113223398803 150.79496062989347,65.37378505093511 151.6113385828212,65.6157745696255 152.4277165357489,65.45444823266007 153.44818897615187,65.6157745696255 154.60472440929152,66.0190902541508 155.62519685039297,65.77710087026935 156.7817322832998,66.74505792203126 158.4144881889224,67.47102486295626 159.70708661410026,67.14837297901977 160.18330708658323,67.06770998542197 161.40787401562557,66.98704698309302 162.4963779526297,67.06770998542197 163.65291338600218,67.22903596336255 165.08157480298541,67.87433951662388 165.89795275591314,67.63235075137345 166.85039370064624,67.79367660399294 167.87086614174768,67.79367660399294 168.7552755905781,68.11632820102386 169.7077165353112,68.11632820102386 170.52409448800609,68.27765394584276 171.476535432972,68.43897965474753 172.63307086587884,68.84229377005249 173.72157480334863,68.68096815084573 174.74204724421725,68.51964249572484 175.69448818895034,68.76163096510572 176.78299212595448,68.68096815084573 177.7354330709204,68.76163096510572 178.61984251975082,68.60030532779638 179.70834645675495,68.92295656632632 180.59275590535253,69.00361935351975 181.6812598425895,69.08428213157458 182.63370078755543,69.97157210041769 183.65417322865687,70.2135600852198 184.53858267725445,70.2135600852198 185.49102362198755,70.2135600852198 186.3754330710508,70.37488536367891 187.60000000009313,70.4555479894043" stroke="#4DD2FF" stroke-dasharray="1,0.5" stroke-linecap="round" stroke-linejoin="round" stroke-width="0.5"><title>2014-03-22 10.5km</title><desc>9223370641410674807</desc></polyline><polyline fill="none" opacity="1" points="55.600000000034925,100.70171666576061 55.470390030008275,100.78665317775449 55.37069005309604,100.78665317775449 55.24108008306939,100.77451939475577 55.091530117730144,100.77451939475577 54.95195015001809,100.75025182432728 54.85225017310586,100.66531528145424 54.74258019850822,100.66531528145424 54.63291022385238,100.66531528145424 54.48336025851313,100.70171666576061 54.34378029080108,100.70171666576061 54.214170320832636,100.70171666576061 54.08456035080599,100.68958287246642 53.93501038540853,100.66531528145424 53.80540041544009,100.6774490777243 53.665820447786245,100.68958287246642 53.51627048233058,100.6774490777243 53.396630510047544,100.68958287246642 53.28696053544991,100.68958287246642 53.13741057005245,100.70171666576061 53.027740595454816,100.68958287246642 52.898130625486374,100.65318148375809 52.76852065540152,100.62891388389107 52.638910685433075,100.65318148375809 52.50930071546463,100.6774490777243 52.4096007385524,100.6774490777243 52.25008077546954,100.64104768456309 52.130440803128295,100.62891388389107 52.02077082853066,100.62891388389107 51.90113085624762,100.61678008179297 51.751580890850164,100.62891388389107 51.60203092545271,100.62891388389107 51.48239095316967,100.65318148375809 51.34281098545762,100.61678008179297 51.23314101085998,100.61678008179297 51.09356104314793,100.61678008179297 50.97392107086489,100.60464627821784 50.82437110552564,100.58037866662926 50.694761135440785,100.55611104917625 50.525271174672525,100.58037866662926 50.37572120933328,100.58037866662926 50.236141241679434,100.60464627821784 50.076621278596576,100.59251247317297 49.95698130625533,100.59251247317297 49.84731133165769,100.58037866662926 49.71770136163104,100.60464627821784 49.598061389348004,100.59251247317297 49.468451419321354,100.58037866662926 49.32887145166751,100.59251247317297 49.219201477011666,100.59251247317297 49.07962150935782,100.59251247317297 48.95001153933117,100.62891388389107 48.83037156704813,100.61678008179297 48.71073159476509,100.62891388389107 48.57115162705304,100.61678008179297 48.4315716593992,100.61678008179297 48.31193168705795,100.61678008179297 48.172351719404105,100.61678008179297 48.06268174474826,100.61678008179297 47.94304177246522,100.61678008179297 47.823401800123975,100.61678008179297 47.67385183478473,100.59251247317297 47.54424186475808,100.55611104917625 47.414631894789636,100.58037866662926 47.275051927077584,100.56824485865218 47.12550196173834,100.55611104917625 46.99589199171169,100.56824485865218 46.86628202168504,100.56824485865218 46.736672051716596,100.60464627821784 46.607062081689946,100.59251247317297 46.4674821140361,100.58037866662926 46.32790214632405,100.56824485865218 46.19829217635561,100.56824485865218 46.06868220632896,100.54397723821603 45.90916224330431,100.55611104917625 45.799492268648464,100.531843425837 45.64994230325101,100.54397723821603 45.50039233791176,100.54397723821603 45.37078236788511,100.56824485865218 45.221232402545866,100.531843425837 45.07168243714841,100.4954419798305 44.922132471750956,100.4954419798305 44.782552504038904,100.47117434180836 44.65294253407046,100.45904052056721 44.51336256641662,100.47117434180836 44.413662589446176,100.47117434180836 44.274082621734124,100.4954419798305 44.154442649451084,100.531843425837 44.034802677168045,100.55611104917625 43.88525271177059,100.55611104917625 43.75564274180215,100.55611104917625 43.6260327717755,100.531843425837 43.50639279943425,100.531843425837 43.396722824836615,100.55611104917625 43.23720286175376,100.54397723821603 43.11756288947072,100.531843425837 42.98795291944407,100.55611104917625 42.85834294947563,100.531843425837 42.72873297944898,100.50757579665515 42.57918301410973,100.50757579665515 42.459543041768484,100.4954419798305 42.339903069485445,100.48330816153612 42.18038310640259,100.44690669789998 42.05077313637594,100.4954419798305 41.89125317335129,100.47117434180836 41.76164320332464,100.45904052056721 41.6420032310416,100.47117434180836 41.492453265644144,100.47117434180836 41.3528732979903,100.45904052056721 41.22326332796365,100.45904052056721 41.06374336488079,100.47117434180836 40.954073390283156,100.48330816153612 40.8045234248857,100.50757579665515 40.694853450288065,100.43477287375572 40.54530348489061,100.43477287375572 40.42566351260757,100.43477287375572 40.28608354489552,100.42263904811261 40.146503577241674,100.43477287375572 40.02686360490043,100.45904052056721 39.88728363724658,100.42263904811261 39.75767366721993,100.43477287375572 39.61809369956609,100.41050522104342 39.47851373185404,100.41050522104342 39.35887375951279,100.39837139248993 39.24920378491515,100.34983606355672 39.11959381494671,100.34983606355672 38.98998384492006,100.36196989798191 38.84043387952261,100.38623756245215 38.710823909554165,100.37410373093735 38.59118393721292,100.42263904811261 38.461573967244476,100.42263904811261 38.30205400416162,100.42263904811261 38.17244403419318,100.43477287375572 38.04283406416653,100.39837139248993 37.92319409188349,100.39837139248993 37.81352411728585,100.41050522104342 37.67394414951559,100.39837139248993 37.524394184176344,100.41050522104342 37.394784214149695,100.37410373093735 37.235264251125045,100.36196989798191 37.1355642741546,100.37410373093735 36.99598430650076,100.37410373093735 36.69688437576406,100.38623756245215 36.40775444265455,100.36196989798191 36.2382644819445,100.30130071109306 35.84943457192276,100.41050522104342 35.52042464807164,100.38623756245215 35.28114470344735,100.31343455141177 35.06180475419387,100.31343455141177 34.80258481419878,100.26489918138395 34.613154858059715,100.27703302608279 34.324024925008416,100.27703302608279 34.05483498732792,100.41050522104342 33.79561504733283,100.33770222764724 33.486545118910726,100.48330816153612 29.668036002782173,100.26489918138395 29.418786060530692,100.1799622272083 29.18947611359181,100.22849763838167 28.85049619205529,100.26489918138395 28.571336256689392,100.1799622272083 28.252296330523677,100.1314267924754 28.01301638589939,100.09502520103706 24.762797138246242,100.1314267924754 24.473667205194943,100.10715906634141 24.144657281343825,100.08289133426297 23.905377336777747,100.11929293014691 23.676067389838863,100.04648972520226 23.35702746367315,100.0100881029066 23.057927532936446,100.05862359634193 22.768797599885147,100.04648972520226 20.266328179161064,100.02222197845549 19.89743826451013,100.04648972520226 19.69803831068566,100.04648972520226 19.508608354546595,100.0343558525783 19.43881837069057,100.02222197845549 19.259358412236907,99.9736864673614 19.04998846066883,100.02222197845549 18.830648511415347,100.0100881029066 18.64121855533449,99.93728481866128 18.411908608395606,99.92515093280235 18.162658666085918,99.92515093280235 17.903438726090826,99.99795422588068 17.803738749178592,99.87661537468375 16.64721901685698,99.98582034735591 16.3979690746055,99.93728481866128 16.198569120722823,99.93728481866128 15.899469189986121,99.92515093280235 15.620309254562017,99.94941870302864 15.361089314625133,99.94941870302864 15.071959381515626,99.96155258592626 14.822709439264145,99.88874926639983 14.573459496896248,99.92515093280235 14.344149550015572,99.88874926639983 14.015139626164455,99.90088315668254 13.82570967002539,99.85234758682054 13.466789753118064,99.91301704545185 13.117839833896141,99.86448148150521 12.998199861613102,99.93728481866128 13.058019847725518,100.20422993571992 13.048049850040115,100.37410373093735 13.087929840781726,100.65318148375809 12.928409877698869,100.73811803689023 12.868589891586453,100.531843425837 12.778859912359621,100.37410373093735 12.609369951591361,100.43477287375572 12.47975998162292,100.6774490777243 12.400000000023283,100.81092073942273 12.429909993137699,101.12639850595588 12.47975998162292,101.41760787063686 12.539579967735335,101.6966827177821 12.599399953905959,102.0000240615991 12.649249942332972,102.29123088796041 12.719039926188998,102.50963545247214 12.73897992161801,102.71590599304909 12.758919916988816,102.94644315373444 12.788829910045024,103.24978071519581 12.838679898472037,103.49245010333107 12.848649896215647,103.7593857516913 12.838679898472037,104.05058746645955" stroke="#4DD2FF" stroke-dasharray="none" stroke-linecap="round" stroke-linejoin="round" stroke-width="0.5"><title>2013-12-10 10.9km</title><desc>9223370650177580807</desc></polyline><polyline fill="none" opacity="1" points="93.88104787282646,123.01622136775404 97.7203903850168,123.60000000009313 101.31977398786694,122.43244259478524 103.23944524396211,119.80543636670336 105.87899322155863,117.47031732159667 107.55870556924492,113.38385355728678 107.55870556924492,110.17305574938655 108.75850010477006,106.08657963620499 109.23841791879386,102.87577212415636 109.95829463936388,99.08117592497729 110.91813026741147,94.70278828428127 110.91813026741147,92.07575188926421 110.67817136086524,87.69735154649243 109.47837682534009,84.19462555623613 108.03862338326871,81.85947207268327 104.67919868603349,80.98378893476911 102.27960961684585,80.4000000001397 98.44026710558683,80.6918944849167 95.32080131489784,82.44326065597124 92.20133552514017,85.36220145085827 89.8017464550212,88.57303225062788 89.56178754847497,92.36764496355318 89.08186973351985,95.87035909830593" stroke="#4DD2FF" stroke-dasharray="none" stroke-linecap="round" stroke-linejoin="round" stroke-width="0.5"><title>2013-11-30 10.3km</title><desc>9223370651086224807</desc></polyline><polyline fill="none" opacity="1" points="162.26764486078173,122.22421646025032 166.11310167238116,123.60000000009313 167.01791503932327,121.6739028126467 170.63716850895435,119.74780399515294 174.25642197672278,115.89560147118755 175.16123534552753,114.51981327589601 176.97086207941175,112.04339242749847 176.29225205350667,106.8153840135783 175.61364202853292,105.71474913298152 175.83984537050128,101.86252286075614 177.1970654213801,96.90965093066916 177.1970654213801,95.80901126144454 175.61364202853292,92.78224942437373 177.87567544635385,90.30580492829904 176.29225205350667,89.20516206463799 174.7088286606595,86.72871367656626 172.67299858573824,83.7019397658296 170.86337184999138,83.15161680453457 167.92272840626538,80.4000000001397 163.3986615696922,82.6012937091291 160.23181478399783,85.90323028201237 157.29117134027183,88.93000126630068 156.16015463043004,90.85612616012804 155.933951289393,95.25869122636504 157.5173746822402,99.38608824228868 155.70774794742465,102.96315960329957 154.80293457955122,105.43959032977 155.4815446054563,107.64085982413962 154.57673123851418,110.6676019039005 154.80293457955122,113.69433995871805 154.80293457955122,117.27138883504085 156.83876465633512,118.64717536675744 159.55320475902408,120.57327511627227 162.9462548866868,121.94905965286307 165.88689832948148,122.77452997583896 169.05374511517584,122.22421646025032 171.7681852169335,120.02296106843278 174.25642197672278,117.27138883504085 175.83984537050128,113.41918211965822 176.06604871153831,110.3924436995294 176.29225205350667,107.36570125445724 176.29225205350667,104.06379581429064 175.61364202853292,100.76188558526337 176.29225205350667,97.45997056690976 176.51845539640635,94.70837105903774 177.42326876241714,91.40644725854509 176.97086207941175,88.37967956834473 175.61364202853292,85.62806908367202 173.80401529371738,83.7019397658296 171.7681852169335,82.87645527347922 168.60133843217045,82.05097048147582 165.88689832948148,82.05097048147582 162.72005154378712,83.7019397658296 160.9104248099029,84.25226259441115 158.874594733119,86.45355257811025 157.29117134027183,88.37967956834473 157.06496799830347,91.40644725854509 156.16015463043004,95.25869122636504 156.61256131436676,98.28544977051206 155.933951289393,102.13768209633417 155.933951289393,104.06379581429064 155.4815446054563,108.46633533574641 154.12432455457747,112.31855043233372 154.57673123851418,116.17075901036151 155.933951289393,118.09686085442081 159.77940810006112,119.19748974777758 162.9462548866868,121.3987459379714 166.11310167238116,121.3987459379714 169.50615179911256,119.74780399515294 171.7681852169335,118.09686085442081 173.57781195174903,115.07012865296565 175.16123534552753,111.21791821252555 174.93503200262785,107.64085982413962 175.61364202853292,104.33895478351042" stroke="#4DD2FF" stroke-dasharray="none" stroke-linecap="round" stroke-linejoin="round" stroke-width="0.5"><title>2013-11-16 10.4km</title><desc>9223370652294258807</desc></polyline><polyline fill="none" opacity="1" points="28.648586370050907,170.71233643963933 33.51350785139948,171.60000000009313 37.89193718507886,171.30411218269728 38.86492148041725,169.52878452418372 41.5406282953918,167.1616789775435 41.78387437015772,163.01923876185901 41.78387437015772,160.35623777890578 42.75685866642743,155.32611690624617 44.70282725896686,150.29598569567315 44.94607333280146,146.1535169382114 45.43256548047066,142.89871513913386 45.18931940663606,138.75623386260122 45.43256548047066,135.7973143735435 44.21633510943502,132.5424988034647 40.081151850521564,129.879464663798 36.43246074113995,128.99178597261198 32.78376962989569,128.99178597261198 28.891832443885505,130.4712502779439 26.21612562984228,132.24660626379773 24.999895258806646,136.38909855671227 23.297172740101814,141.12336687929928 23.297172740101814,144.08227993012406 23.053926666267216,146.74529861821793 22.324188444763422,150.88776637450792 22.567434517666698,154.73433729959652 22.324188444763422,157.69323389837518 22.567434517666698,162.72334990650415 23.540418813936412,165.09045974630862 25.972879556007683,167.1616789775435 30.594554962590337,171.00822432967834 34.486492147669196,171.00822432967834 38.135183257982135,169.82467255694792 40.324397925287485,168.64112021238543 43.00010474026203,165.38634831481613 43.729842961765826,162.72334990650415 43.48659688793123,158.58090218016878 43.973089036531746,153.8466676226817 44.94607333280146,150.88776637450792 45.675811554305255,147.33708015549928 45.675811554305255,143.7863887862768 45.919057629071176,139.64390901243314 45.43256548047066,135.7973143735435 43.24335081502795,132.5424988034647 40.567644000053406,130.4712502779439 36.43246074113995,128.4000000001397 32.78376962989569,128.99178597261198 29.378324592486024,130.4712502779439 26.21612562984228,131.95071368920617 23.540418813936412,134.90963782859035 22.810680591501296,140.23569226590917 23.053926666267216,143.7863887862768 22.567434517666698,147.33708015549928 24.02691096253693,150.88776637450792 22.324188444763422,156.50967568787746 21.594450222328305,160.35623777890578 22.324188444763422,164.2027938242536 22.567434517666698,166.27401380729862 26.21612562984228,168.64112021238543 29.135078517720103,170.12056055432186 33.99999999906868,170.71233643963933 37.40544503647834,170.12056055432186 40.567644000053406,168.64112021238543 42.75685866642743,165.68223684746772 43.48659688793123,162.13157208892517 44.45958118420094,158.58090218016878 44.94607333280146,155.0302271207329 45.18931940663606,151.77543712500483 45.675811554305255,148.81653337273747 45.919057629071176,145.26584414974786 46.40554977674037,139.3480173314456 45.919057629071176,135.7973143735435 44.21633510943502,133.13428377383389 41.0541361477226,130.4712502779439 38.378429332748055,129.2876789055299 33.51350785139948,128.69589300476946 30.594554962590337,129.58357180282474" stroke="#4DD2FF" stroke-dasharray="none" stroke-linecap="round" stroke-linejoin="round" stroke-width="0.5"><title>2013-11-03 10.7km</title><desc>9223370653417861807</desc></polyline><polyline fill="none" opacity="1" points="92.77883488032967,135.3120526385028 91.35827780794352,138.1920686531812 91.59503732062876,143.37608870584518 90.88475878350437,145.96809450211003 90.1744802473113,149.712097896263 89.46420171111822,153.4560954067856 88.51716366223991,155.7600909504108 88.28040415141732,159.2160800890997 88.28040415141732,162.96006266516633 89.70096122287214,167.28003524802625 92.77883488032967,169.5840174248442 97.27726561017334,171.31200259411708 100.59189877938479,171.60000000009313 104.3800509730354,170.16001262003556 107.69468414224684,167.28003524802625 108.16820316575468,162.6720642137807 110.29903877526522,158.06408426584676 110.53579828795046,154.60809345706366 110.53579828795046,151.44009747868404 110.77255779877305,147.1200961722061 111.00931731145829,142.80008703446947 112.19311487209052,139.0560727783013 112.42987438477576,135.3120526385028 110.29903877526522,132.7200352489017 108.87848170287907,130.41601742454804 105.80060804635286,128.9760051521007 102.01245585177094,128.4000000001397 98.22430365905166,129.2640076763928 94.90967048984021,129.84001261997037 89.70096122287214,133.8720433257986 88.99068268761039,135.0240508459974 88.99068268761039,136.46405946207233 90.1744802473113,139.63207535468973 89.93772073462605,143.66408948926255 88.51716366223991,147.69609680003487 88.51716366223991,150.57609784416854 87.57012561522424,154.32009399705566 87.57012561522424,157.48808614653535 87.80688512697816,160.65607408294454 87.57012561522424,163.5360594613012" stroke="#4DD2FF" stroke-dasharray="none" stroke-linecap="round" stroke-linejoin="round" stroke-width="0.5"><title>2013-11-02 10.5km</title><desc>9223370653505000807</desc></polyline><polyline fill="none" opacity="1" points="155.12384939659387,158.6400877290871 156.23366068210453,162.15007139416412 157.5654342258349,164.85005507571623 160.67290582694113,167.0100396713242 164.22430194169283,168.3600289823953 167.7756980592385,168.3600289823953 169.77335837297142,167.82003335561603 172.65886771772057,165.66004954348318 174.6565280323848,162.96006684168242 175.54437706060708,159.18008557590656 175.54437706060708,155.94009654247202 175.7663393188268,152.70010280935094 175.54437706060708,149.46010437584482 175.54437706060708,146.49010168295354 176.43222609069198,142.98009340977296 176.87615060433745,140.01008210144937 176.43222609069198,137.31006839242764 175.32241480425,134.34004954481497 173.99064126145095,132.72003759886138 170.4392451448366,130.56001984444447 167.7756980592385,128.4000000001397 165.3341132281348,129.48001018329524 162.0046793706715,130.8300221778918 159.78505679685622,132.45003549358808 158.67524551134557,135.69005860155448 158.2313209977001,138.12007284793071 157.7873964831233,141.63008875912055 156.45562293939292,144.33009724435396 156.01169842481613,146.76010209089145 156.23366068210453,150.81010429398157 157.7873964831233,154.32010026299395 154.90188713837415,155.13009854895063 155.12384939659387,156.21009580790997 154.45796262472868,157.56009164638817 154.90188713837415,163.23006525845267 160.22898131329566,166.20004569296725 165.77803774364293,167.55003549298272 167.1098112873733,167.55003549298272 169.10747160110623,167.55003549298272 171.77101868763566,168.3600289823953 173.99064126145095,164.0400603134185 174.6565280323848,162.96006684168242 174.8784902896732,160.5300796192605 175.54437706060708,159.18008557590656 173.54671674594283,158.91008666879497 174.8784902896732,158.10008975397795 176.2102638334036,155.94009654247202 175.9883015761152,150.81010429398157 176.2102638334036,149.46010437584482 175.7663393188268,146.2201012421865 176.2102638334036,142.1700907170307 175.7663393188268,136.7700652598869 175.32241480425,133.26004171161912 173.54671674594283,129.75001264712773 169.55139611661434,129.48001018329524 165.77803774364293,129.21000768686645 162.6705661425367,130.56001984444447 159.78505679685622,132.72003759886138 156.67758519575,133.26004171161912 156.45562293939292,137.58006991050206 156.23366068210453,140.55008445074782 156.01169842481613,144.0600965428166 154.90188713837415,147.57010311936028 155.34581165295094,151.62010385282338 155.12384939659387,155.13009854895063 154.90188713837415,159.18008557590656 154.90188713837415,161.61007426702417 158.45328325405717,165.66004954348318 164.00233968626708,168.63002674723975 166.44392451550812,169.98001507879235 169.32943385839462,171.60000000009313 173.32475448958576,167.82003335561603 175.1004525469616,162.69006839231588 175.54437706060708,159.7200832911767 175.54437706060708,158.6400877290871 175.1004525469616,153.24010209064 174.8784902896732,148.92010417976417 175.32241480425,146.2201012421865 175.54437706060708,142.98009340977296 177.09811286255717,138.93007700890303 175.7663393188268,135.96006031497382 174.43456577509642,134.34004954481497 172.88082997407764,130.8300221778918 170.21728288847953,130.02001507859677 166.0,129.75001264712773 162.0046793706715,130.56001984444447 159.78505679685622,130.8300221778918 156.89954745396972,132.72003759886138 154.90188713837415,135.69005860155448 154.67992488108575,138.39007426798344 155.34581165295094,139.7400808769744 154.23600036650896,142.71009254432283 154.67992488108575,145.95010076928884 154.90188713837415,147.57010311936028 154.45796262472868,150.27010442432947 154.90188713837415,153.78010124200955 154.67992488108575,157.02009340864606 154.90188713837415,161.34007565444335 157.5654342258349,166.20004569296725 161.7827171124518,168.63002674723975 163.11449065618217,168.3600289823953 166.0,169.98001507879235 167.99766031466424,169.1700221770443 171.1051319167018,171.33000259427354 173.32475448958576,168.63002674723975 174.8784902896732,162.42006990942173 173.99064126145095,158.37008875748143 175.1004525469616,151.35010403278284 174.8784902896732,147.0301024664659 174.8784902896732,145.68010026379488 176.43222609069198,142.98009340977296 177.76399963349104,140.82008557626978 177.09811286255717,136.7700652598869 175.32241480425,132.1800333559513 173.10279223136604,129.75001264712773 169.9953206302598,128.6700025945902 166.0,128.94000515691005 161.1168303405866,130.56001984444447 157.1215097112581,132.1800333559513 156.67758519575,133.53004371840507 155.56777391023934,134.61005142168142 155.78973616752774,137.04006684245542 156.01169842481613,138.6600756549742 156.23366068210453,142.1700907170307 156.23366068210453,143.5200950417202 156.23366068210453,147.84010339644738 156.01169842481613,149.19010429433547 155.12384939659387,151.62010385282338 155.78973616752774,155.13009854895063 154.90188713837415,156.21009580790997 155.12384939659387,161.07007700833492 156.23366068210453,162.15007139416412 156.23366068210453,163.50006364332512 158.45328325405717,165.66004954348318 162.6705661425367,168.63002674723975 167.1098112873733,170.52001018356532 170.4392451448366,169.710017477395 171.99298094585538,168.09003118495457 175.32241480425,163.77006199466996 174.8784902896732,159.18008557590656" stroke="#4DD2FF" stroke-dasharray="none" stroke-linecap="round" stroke-linejoin="round" stroke-width="0.5"><title>2013-10-26 11.1km</title><desc>9223370654110301807</desc></polyline><polyline fill="none" opacity="1" points="25.004696168005466,193.1685153071303 25.004696168005466,196.86325683817267 24.07011914718896,199.9895720607601 23.602830636315048,203.68430287321098 23.36918638087809,206.81060902611353 24.30376340262592,208.23165590292774 23.602830636315048,212.77900013769977 25.705628934316337,215.62108581862412 28.042071488685906,217.89475188939832 30.845802552998066,218.46316806343384 34.11682212725282,217.89475188939832 38.08877446874976,216.18950254260562 41.359794043935835,213.91583482245915 42.29437106475234,209.93691102182493 42.06072680931538,206.52639954793267 42.52801532112062,202.26325324806385 42.52801532112062,198.85273064253852 42.52801532112062,195.1579922370147 43.92988085281104,191.4632480267901 45.565390639938414,189.18955639493652 46.49996766168624,186.63165068160743 46.26632340531796,184.07374218595214 43.92988085281104,181.23161837016232 40.8925055321306,179.81055517448112 37.855130213312805,177.25263925665058 34.58411063905805,176.4000000001397 31.0794468075037,177.82106525660492 28.27571574319154,180.09476788225584 25.705628934316337,182.6526807071641 25.238340424373746,185.77901482582092 25.238340424373746,189.4737679695245 24.771051913499832,192.60009301709943 24.30376340262592,196.86325683817267 21.50003233831376,199.9895720607601 21.967320849187672,203.68430287321098 21.733676593750715,207.94744659680873 22.200965103693306,211.07374708005227 22.200965103693306,213.91583482245915 24.30376340262592,216.75791912851855 27.341138722375035,219.0315841003321 30.61215829756111,219.60000000009313 34.58411063905805,219.0315841003321 37.154197447001934,217.610543750925 40.8925055321306,215.90529419737868 41.82708255480975,213.6316262029577 43.462592341937125,210.22112008789554 43.92988085281104,206.81060902611353 43.92988085281104,203.1158831268549 44.39716936368495,199.70536175812595 45.0981021290645,195.4422030900605 45.33174638450146,192.0316705906298 45.79903489537537,189.18955639493652 45.565390639938414,185.49480280443095 44.63081361912191,181.80004340759479 42.52801532112062,179.24212965508923 39.4906400013715,178.10527820512652 35.98597617074847,177.53685227409005 32.48131234012544,177.53685227409005 29.21029276587069,178.95791684417054 25.705628934316337,181.23161837016232 24.30376340262592,184.07374218595214 25.004696168005466,188.33692146651447 23.602830636315048,191.74745932617225 23.36918638087809,194.58957042940892 23.36918638087809,198.28430972713977 21.733676593750715,201.69483315735124 22.200965103693306,206.52639954793267 21.967320849187672,209.3684927856084 23.36918638087809,212.21058258996345 24.30376340262592,215.90529419737868 25.238340424373746,217.610543750925 30.845802552998066,219.0315841003321 34.81775489356369,218.46316806343384 37.38784170243889,216.18950254260562 41.59343829844147,212.77900013769977 43.22894808650017,211.9263737637084 43.92988085281104,209.08428361662664 43.462592341937125,205.95798048726283 43.462592341937125,202.26325324806385 43.462592341937125,199.13694104878232 43.92988085281104,195.72641390911303 45.33174638450146,192.31588182109408 45.565390639938414,189.18955639493652 45.565390639938414,186.34743876405992 45.565390639938414,183.78952995873988 43.22894808650017,181.23161837016232 41.359794043935835,178.10527820512652" stroke="#4DD2FF" stroke-dasharray="none" stroke-linecap="round" stroke-linejoin="round" stroke-width="0.5"><title>2013-10-20 10.7km</title><desc>9223370654628121807</desc></polyline><polyline fill="none" opacity="1" points="113.03676424734294,188.7038815007545 112.81199245061725,185.96969139552675 110.56427447684109,182.68865890684538 108.99087189510465,179.4076216588728 106.06883852928877,177.49368106550537 102.92203336581588,176.4000000001397 100.0,176.4000000001397 96.4036512421444,177.2202608489897 93.03207428194582,179.4076216588728 90.55958450958133,182.68865890684538 89.66049732174724,185.69627220346592 89.66049732174724,188.7038815007545 88.9861819287762,191.98490526387468 88.76141013111919,196.08617827505805 87.63755114469677,199.3671913293656 88.08709473907948,202.3747824486345 86.96323575265706,206.20261990721337 89.43572552315891,208.6633691387251 90.33481271378696,211.9443639498204 92.1329870922491,215.49876962439157 94.38070506602526,217.41267805802636 97.97705382481217,218.77975451922975 101.79817437939346,219.60000000009313 104.72020774520934,217.95950874243863 107.19269751571119,215.22535400115885 109.21564369276166,212.76461190870032 110.7890462744981,209.75703460443765 110.56427447684109,207.5697031437885 111.23858986888081,204.56211893237196" stroke="#4DD2FF" stroke-dasharray="none" stroke-linecap="round" stroke-linejoin="round" stroke-width="0.5"><title>2013-10-19 10.2km</title><desc>9223370654714312807</desc></polyline><polyline fill="none" opacity="1" points="171.31501041911542,177.5755203643348 167.20795691385865,176.4000000001397 163.3424947904423,177.5755203643348 160.20180681534111,179.33879984519444 158.51066713687032,182.57147557032295 157.302710223943,185.51026795455255 157.06111884023994,188.15517806308344 156.5779360756278,191.9755986945238 155.61157054454088,195.5021354884375 154.8867963962257,198.73478972166777 154.64520501438528,201.96743965684436 154.64520501438528,206.08171517541632 155.12838777899742,209.90210763714276 156.81952745839953,213.72249409533106 158.0274843722582,215.7796227785293 160.92658096458763,219.0122500488069 164.55045170336962,219.0122500488069 167.44954829569906,219.60000000009313 170.83182765357196,218.13062485610135 173.48933286219835,216.36737351119518 175.18047254160047,212.84086698386818 175.66365530714393,208.43272663117386 175.90524668991566,203.73070144630037 175.90524668991566,200.79193108691834 175.90524668991566,197.26540196686983 176.87161222100258,194.32662379206158 177.59638636745512,190.80008529429324 177.35479498654604,186.39190497691743 175.18047254160047,180.22043910529464 172.52296733297408,178.16328033292666 167.6911396794021,176.69388014404103 164.79204308707267,176.9877602532506 161.8929464938119,179.63267963356338 159.23544128518552,181.6898371623829 158.51066713687032,184.62863061204553 157.06111884023994,189.33069274341688 155.61157054454088,193.73886773106642 155.61157054454088,197.26540196686983 154.16202224884182,200.79193108691834 154.40361363161355,204.6123318609316 154.64520501438528,207.8449739809148 154.16202224884182,211.37148775416426 156.09475331008434,215.48574735829607 158.75225852057338,218.13062485610135 161.40976372919977,218.42449995642528 166.48318276554346,219.0122500488069 169.38227935694158,217.54287455044687 172.52296733297408,214.89799641259015 173.48933286219835,212.25311539904214 174.697289776057,208.43272663117386 176.1468380726874,204.9062085954938 177.35479498654604,201.67356256698258 177.83797775115818,197.55927958874963 177.35479498654604,192.85723337321542 177.35479498654604,188.44905678625219 176.3884294545278,184.92250976222567" stroke="#4DD2FF" stroke-dasharray="none" stroke-linecap="round" stroke-linejoin="round" stroke-width="0.5"><title>2013-10-12 10.6km</title><desc>9223370655320152807</desc></polyline><polyline fill="none" opacity="1" points="23.345821957103908,247.44009747868404 24.05610049236566,250.60809345706366 24.292860004119575,254.92808118532412 23.81934098061174,258.6720642137807 22.635543420910835,262.41604135814123 24.76637902855873,263.28003524802625 28.317771709524095,265.5840174248442 31.632404879666865,267.60000000009313 34.710278537124395,267.60000000009313 38.97194975428283,265.8720150399022 41.57630438823253,263.8560310017783 43.943899508565664,260.6880526384339 44.890937557443976,256.9440727783367 45.12769706826657,252.33608948835172 43.943899508565664,248.59209650335833 44.180659021250904,243.40809650346637 45.36445658095181,239.37608870584518 45.60121609363705,236.2080777916126 46.54825414158404,233.32806421397254 45.837975605390966,231.0240508459974 43.23362097237259,227.28002436971292 38.97194975428283,225.84001261997037 35.42055707331747,224.9760051521007 32.57944292854518,224.9760051521007 30.21184780728072,226.12801503995433 26.1869361018762,228.14403100241907 24.76637902855873,231.0240508459974 23.81934098061174,234.48007006268017 24.05610049236566,238.5120861462783 24.05610049236566,241.96809450211003 24.292860004119575,245.13609775714576 24.05610049236566,248.88009617221542 22.398783908225596,251.47209162986837 21.6885053711012,254.3520832741633 21.451745859347284,257.2320714369416 22.398783908225596,260.1120561193675 23.582581467926502,262.41604135814123 25.239898052997887,265.296019774396 28.317771709524095,266.7360076766927 31.632404879666865,266.7360076766927 36.6043546339497,267.60000000009313 39.68222829140723,264.72002436965704 41.57630438823253,262.1280433256179 43.943899508565664,258.3840657279361 44.180659021250904,254.3520832741633 44.180659021250904,250.89609288284555 45.36445658095181,247.15209763497114 46.07473511714488,243.69609680003487 45.837975605390966,240.52809162950143 45.837975605390966,237.93608426721767 46.31149462983012,234.48007006268017 45.60121609363705,231.6000543970149 44.65417804475874,229.00803732057102 43.23362097237259,226.12801503995433 40.155747315846384,224.4000000001397 36.6043546339497,224.4000000001397 32.57944292854518,224.4000000001397 28.791290735825896,224.9760051521007 26.660455126315355,227.28002436971292 24.292860004119575,231.0240508459974 24.76637902855873,233.6160657289438 24.76637902855873,237.07208118587732 23.345821957103908,241.68009399762377 23.345821957103908,245.712097896263 24.05610049236566,247.15209763497114" stroke="#4DD2FF" stroke-dasharray="none" stroke-linecap="round" stroke-linejoin="round" stroke-width="0.5"><title>2013-10-06 10.6km</title><desc>9223370655838244807</desc></polyline><polyline fill="none" opacity="1" points="111.99171264935285,234.77929417719133 111.76110279094428,231.97408411232755 109.6856140634045,230.2909564457368 108.07134505175054,228.04678432480432 105.30402674898505,226.9246974508278 102.30609858687967,227.48574095615186 97.69390141405165,228.04678432480432 95.38780282903463,228.6078275591135 93.77353381738067,230.2909564457368 93.54292395804077,231.97408411232755 92.62048452533782,234.77929417719133 92.38987466599792,237.86502133100294 91.69804508984089,242.07282447465695 91.00621551368386,245.15854193037376 91.69804508984089,248.80529363360256 90.77560565527529,251.89100213861093 90.31438593752682,255.53774326271378 89.39194650482386,258.3429248428438 89.39194650482386,260.3065499314107 90.31438593752682,263.3922431420069 91.92865494918078,265.6363810834009 96.07963240426034,266.75844923895784 99.30817042570561,267.60000000009313 102.30609858687967,266.75844923895784 105.30402674898505,266.47793225129135 107.37951547559351,264.23379512433894 108.76317462790757,261.98965582833625 109.6856140634045,258.0624068370089 109.45500420406461,254.97670653951354 110.37744363863021,251.04944568034261 110.37744363863021,247.40269750310108 110.14683377929032,243.75594359473325 109.91622392181307,238.98710291530006 110.37744363863021,235.62085653445683 111.06927321478724,234.21825243486091 110.37744363863021,231.41304169245996 108.07134505175054,228.88834912492894 105.07341689057648,226.0831319389399 102.9979281630367,225.2415661229752 99.76939014159143,225.80261003412306 96.31024226266891,225.80261003412306 94.4653633935377,226.6441756472923 93.31231410056353,229.72991361888126 91.69804508984089,232.5351263966877 91.46743523143232,235.62085653445683 90.77560565527529,239.26762322615832 90.08377608004957,243.19490402424708 89.62255636136979,245.7195810272824 88.9307267870754,248.80529363360256 88.9307267870754,252.17152088950388 88.0082873525098,255.53774326271378 87.54706763476133,258.0624068370089 87.7776774931699,261.14810303226113 88.9307267870754,263.6727605035994 91.92865494918078,266.19741522870027 95.61841268651187,267.0389661930967 99.76939014159143,267.319483113708 103.45914787892252,266.75844923895784 105.99585632514209,264.794829609571 108.76317462790757,262.55069085536525 109.91622392181307,258.3429248428438 110.37744363863021,255.53774326271378 110.83866335544735,252.4520396075677 111.06927321478724,249.6468509058468 111.53049293160439,245.7195810272824 111.76110279094428,243.4754238263704 111.99171264935285,240.3897041331511 112.22232250776142,237.5845008501783 112.45293236616999,234.49877332313918 111.76110279094428,231.69356291904114 110.60805349703878,229.1688706574496 108.30195491109043,226.6441756472923 105.76524646673352,225.2415661229752 102.9979281630367,224.4000000001397 100.69182957615703,224.96104411478154 96.77146197948605,225.52208809531294 94.00414367672056,227.20521922083572 92.62048452533782,230.8519991368521 91.00621551368386,235.34033578261733 90.08377608004957,238.14554177806713 89.85316622070968,240.3897041331511 89.62255636136979,243.4754238263704 89.85316622070968,246.56113941781223 90.08377608004957,249.92736992868595 89.85316622070968,253.01307694031857 89.62255636136979,256.3792980927974 90.08377608004957,259.7455143611878 91.46743523143232,262.83120831870474 94.00414367672056,264.5143123844173 96.77146197948605,267.319483113708 100.69182957615703,267.319483113708 102.9979281630367,267.0389661930967 106.45707604289055,265.35586395906284 108.532564769499,263.3922431420069 109.6856140634045,260.0260321632959 110.14683377929032,257.2208526181057 111.06927321478724,254.13515119976364 111.06927321478724,250.76892679347657 111.76110279094428,247.96373605774716 111.76110279094428,244.8780223308131 111.53049293160439,241.79230450256728 112.68354222457856,238.14554177806713 111.76110279094428,235.34033578261733 110.83866335544735,231.97408411232755 110.14683377929032,229.44939215504564 107.6101253349334,227.7662626572419 104.38158731441945,226.0831319389399 101.38365915231407,226.6441756472923 97.23268169723451,226.9246974508278 94.23475353512913,228.88834912492894 92.85109438374639,230.8519991368521 90.77560565527529,234.21825243486091 90.31438593752682,236.46241858764552 89.39194650482386,240.1091839573346 89.62255636136979,243.19490402424708 88.46950706932694,246.28061998845078 88.46950706932694,249.6468509058468 87.7776774931699,253.01307694031857 87.31645777635276,256.3792980927974 88.0082873525098,259.7455143611878 89.16133664548397,262.83120831870474 92.62048452533782,264.794829609571 96.31024226266891,266.47793225129135" stroke="#4DD2FF" stroke-dasharray="none" stroke-linecap="round" stroke-linejoin="round" stroke-width="0.5"><title>2013-09-29 10.5km</title><desc>9223370656443428807</desc></polyline><polyline fill="none" opacity="1" points="177.23858171794564,246.00010313582607 177.23858171794564,242.17225179541856 178.36243989039212,238.8912312053144 177.68812498729676,237.25071912514977 176.78903844952583,234.51652968092822 175.66518027801067,230.68865890661255 173.86700720340014,227.95446153078228 171.39451922569424,225.49368106527254 170.0458894195035,225.76710125035606 166.00000000093132,224.94684059894644 163.30274038854986,226.5873616025783 160.83025241084397,228.22788141667843 159.7063942393288,232.055756355403 158.35776443313807,233.6962722032331 157.6834495300427,238.6178126083687 157.00913462694734,240.80516046099365 156.78436299227178,244.9064319843892 156.78436299227178,247.09377375710756 156.55959135852754,249.28111341316253 156.55959135852754,253.38236956926994 155.2109615523368,255.56970314332284 155.6605048207566,261.0380278278608 156.55959135852754,263.4987696236931 161.95411058235914,265.4126780577935 164.2018269263208,265.95950874197297 167.5734014417976,265.95950874197297 171.61929085943848,264.86584724183194 174.5413221064955,262.1316911787726 176.5642668157816,258.0304508882109 177.23858171794564,253.65578638156876 175.66518027801067,250.92161676776595 174.09177883714437,249.55453072185628 175.88995191268623,245.17984982184134 177.4633533526212,239.98490526387468 177.91289662197232,238.07097531366162 177.23858171794564,235.06336783478037 178.36243989039212,231.235497985268 175.66518027801067,228.50130126997828 172.9679206656292,225.49368106527254 171.16974759101868,224.94684059894644 165.77522836625576,225.49368106527254 164.2018269263208,225.76710125035606 161.27979567926377,228.22788141667843 158.80730770155787,230.41523931804113 158.1329927984625,232.87601442844607 157.6834495300427,236.43046263838187 156.55959135852754,241.07857879367657 157.00913462694734,244.35959621169604 157.23390626069158,246.54693851224147 156.55959135852754,250.92161676776595 157.00913462694734,254.20261990698054 155.6605048207566,258.3038671386894 156.33481972385198,261.5848595700227 156.55959135852754,263.4987696236931 160.38070914242417,264.86584724183194 163.97705529164523,267.3265848727897 166.22477163467556,266.77975451922975 169.14680288173258,265.95950874197297 172.0688341287896,264.86584724183194 174.9908653749153,261.5848595700227 175.21563700959086,259.3975318111479 175.88995191268623,256.66336913825944 176.78903844952583,253.92920316033997 177.91289662197232,250.92161676776595 177.0138100842014,247.3671913293656 175.88995191268623,243.53934230282903 176.11472354643047,240.5317420954816 176.5642668157816,237.25071912514977 177.68812498729676,236.43046263838187 178.58721152413636,232.87601442844607 177.23858171794564,230.14181969570927 178.36243989039212,230.41523931804113 177.91289662197232,227.68104161159135 174.76609374023974,226.31394151831046 171.39451922569424,225.22026084875688 168.24771634489298,224.6734203158412 164.2018269263208,225.76710125035606 161.0550240445882,228.22788141667843 158.35776443313807,230.14181969570927 158.1329927984625,233.42285297834314 155.88527645543218,237.25071912514977 154.53664664924145,241.62541536078788 156.11004808917642,241.62541536078788 156.78436299227178,243.2659242679365 156.33481972385198,246.8203561506234 155.6605048207566,250.92161676776595 153.41278847679496,253.10895272321068 155.43573318701237,256.11653620772995 155.6605048207566,258.57728335657157 157.23390626069158,262.9519383441657 159.256850970909,265.4126780577935 161.95411058235914,266.23292403365485 165.77522836625576,266.23292403365485 169.37157451640815,267.60000000009313 172.9679206656292,266.23292403365485 174.09177883714437,264.0456007702742 174.31655047181994,260.49119595531374 175.66518027801067,259.3975318111479 175.88995191268623,255.29628656315617 177.91289662197232,248.73427869705483 177.91289662197232,244.08617827459238 175.88995191268623,241.35199709353037 176.5642668157816,238.07097531366162 177.0138100842014,235.61020585522056 177.4633533526212,232.055756355403 177.23858171794564,230.14181969570927 175.66518027801067,227.1342016728595 172.0688341287896,225.76710125035606 168.69725961331278,224.4000000001397 166.00000000093132,225.76710125035606 163.52751202322543,226.8607816544827 160.38070914242417,229.04814087809063 157.45867789536715,232.055756355403 155.6605048207566,235.61020585522056 156.78436299227178,239.16464976919815 157.00913462694734,243.53934230282903 157.00913462694734,246.8203561506234 156.33481972385198,250.64819962508045" stroke="#4DD2FF" stroke-dasharray="none" stroke-linecap="round" stroke-linejoin="round" stroke-width="0.5"><title>2013-09-22 10.9km</title><desc>9223370657048162807</desc></polyline></svg>