<?xml version="1.0" encoding="utf-8" ?>
<svg baseProfile="full" height="300mm" version="1.1" viewBox="0,0,200,300" width="200mm" xmlns="http://www.w3.org/2000/svg" xmlns:ev="http://www.w3.org/2001/xml-events" xmlns:xlink="http://www.w3.org/1999/xlink"><defs /><rect fill="#222222" height="300" width="200" x="0" y="0" /><text fill="#FFFFFF" style="font-size:12px; font-family:Arial; font-weight:bold;" x="10" y="20">Over 10km Runs</text><text fill="#FFFFFF" style="font-size:4px; font-family:Arial" x="10" y="280">Runner</text><text fill="#FFFFFF" style="font-size:9px; font-family:Arial" x="10" y="290">keep</text><text fill="#FFFFFF" style="font-size:4px; font-family:Arial" x="65" y="280">SPECIAL TRACKS</text><rect fill="yellow" height="2.6" width="2.6" x="65" y="283" /><text fill="#FFFFFF" style="font-size:3px; font-family:Arial" x="70" y="285.5">Over 20.0 km</text><rect fill="red" height="2.6" width="2.6" x="65" y="287" /><text fill="#FFFFFF" style="font-size:3px; font-family:Arial" x="70" y="289.5">Over 40.0 km</text><text fill="#FFFFFF" style="font-size:4px; font-family:Arial" x="120" y="280">STATISTICS</text><text fill="#FFFFFF" style="font-size:3px; font-family:Arial" x="120" y="285">Number: 15</text><text fill="#FFFFFF" style="font-size:3px; font-family:Arial" x="120" y="290">Weekly: 1.2</text><text fill="#FFFFFF" style="font-size:3px; font-family:Arial" x="141" y="285">Total: 163.6 km</text><text fill="#FFFFFF" style="font-size:3px; font-family:Arial" x="141" y="290">Avg: 10.9 km</text><text fill="#FFFFFF" style="font-size:3px; font-family:Arial" x="167" y="285">Min: 10.2 km</text><text fill="#FFFFFF" style="font-size:3px; font-family:Arial" x="167" y="290">Max: 14.0 km</text><polyline fill="none" opacity="1" points="26.37486113817431,75.59999999999854 26.392687295738142,75.37564175959415 26.37486113817431,75.10641108107666 26.357034980726894,74.79230753346201 26.37486113817431,74.54551106596773 26.37486113817431,74.30993194408802 26.392687295738142,73.99582542173448 26.401600374432746,73.77146290180099 26.401600374432746,73.5246634385694 26.544209634244908,73.3451724649276 26.740297366515733,73.27786325103807 26.972037413797807,73.26664504348446 27.034428964951076,73.17689932921348 27.043342043703888,73.03106233924336 27.096820516104344,72.87400683645683 27.096820516104344,72.6608596135411 27.11464667360997,72.3579652621629 26.998776649998035,72.0999432875542 26.76703660277417,71.98775957342878 26.615514264209196,71.830702122199 26.686818894115277,71.46049411236163 26.713558130315505,71.18003241381666 26.749210445326753,70.92200682507973 26.793775838974398,70.64154333066108 26.829428153985646,70.34986030422442 26.87399354763329,70.09183216825477 26.900732783891726,69.85624057007226 26.918558941339143,69.64308569820423 26.998776649998035,69.57577352114458 27.034428964951076,69.42993028604542 27.02551588625647,69.2504305725306 26.98095049249241,69.20555558428168 27.061168201151304,69.03727416508627 27.105733594915364,68.84655481616937 27.168125146010425,68.62217855782364 27.22160361846909,68.39780170079757 27.292908248433378,68.12854868205613 27.373125957034063,67.82563800545176 27.426604429492727,67.59004005816678 27.497909059398808,67.34322245298245 27.631605240516365,67.21981337874604 27.75638834288111,67.25347041696659 27.952476075093728,67.34322245298245 28.157476886117365,67.26468942667998 28.371390775893815,67.11884218328487 28.46943464205833,66.91689942862286 28.576391586917453,66.68129893519654 28.710087767976802,66.42325954219268 28.84378394909436,66.16521935728088 28.986393208964728,65.91839756988338 29.12900246877689,65.68279427880043 29.27161172858905,65.4247518215634 29.38748175225919,65.2115857161698 29.52117793331854,64.9311031752004 29.65487411437789,64.68427776518365 29.824222610506695,64.35891589042149 30.0113972639665,64.04477219603723 30.198571917542722,63.6969688796089 30.385746571060736,63.37160318442329 30.528355830931105,63.13599275710294 30.68879124824889,62.87794248391583 30.840313586755656,62.64233067326859 31.00074900407344,62.4067182023864 31.09879287017975,62.23842317608796 31.25031520880293,62.00280957335781 31.41966370487353,61.74475582229206 31.526620649790857,61.453041932632914 31.642490673344582,61.194986494243494 31.74944761826191,60.9481501163682 31.936622271779925,60.701313013873005 32.15053616149817,60.510574756488495 32.364450051274616,60.35349586668599 32.5248854685924,60.117876981705194 32.64966857095715,59.904697421588935 32.77445167332189,59.770057420908415 32.84575630322797,59.6578572556391 32.93488709058147,59.45589658078825 33.024017877993174,59.2539354208202 33.068583271699026,59.10807428136468 33.237931767711416,59.029533562970755 33.380541027581785,58.995873232641316 33.46967181499349,58.995873232641316 33.59445491730003,58.88367203420785 33.69249878346454,58.760250542953145 33.83510804333491,58.61438854697917 33.9955434606527,58.412425365553645 34.164891956723295,58.188021261616086 34.32532737398287,58.00849754722003 34.2629358227714,57.795312638481846 34.24510966538219,57.53724597299879 34.28076198027702,57.29039885610837 34.38771892519435,57.110873224941315 34.58380665740697,56.89768604004348 34.74424207478296,56.70693915318407 34.860112098336685,56.48253049689811 34.9581559645012,56.190798348259705 35.08293906686595,55.97760883016599 35.30576603539521,55.73075713381695 35.51967992511345,55.540007599302044 35.66228918492561,55.34925763195497 35.78707228729036,55.09118345783645 35.885116153454874,54.82188782277808 36.00989925576141,54.55259132506035 36.197073909279425,54.35061838569527 36.45555319276173,54.29451470528147 36.633814767585136,54.20474873879721 36.75859786994988,53.946671051140584 36.84772865730338,53.6773717497781 36.90120712976204,53.44173415341356 36.945772523467895,53.194875010660326 37.017077153373975,52.89191052654496 37.088381783338264,52.57772398232919 37.16859949193895,52.30842029549967 37.18642564944457,52.19621017137979 37.230991043150425,52.005452616576804 37.28446951555088,51.78103140970052 37.329034909256734,51.455619595522876 37.40925261791563,51.15264884301723 37.48947032657452,50.8160133928468 37.578601113928016,50.468155344744446 37.614253428939264,50.176402323479124 37.67664498015074,49.8846482895533 37.756862688751426,49.592893243047 37.8192542399629,49.30113718385837 37.89947194856359,48.98693721838208 37.93512426351663,48.683957567976904 37.997515814728104,48.36975529553456 38.068820444634184,48.06677342049079 38.12229891709285,47.775012064194016 38.21142970450455,47.43836308696336 38.255995098210406,47.21392968641885 38.318386649363674,46.91094364509627 38.354038964316715,46.664065322423994 38.41643051546998,46.43962985440157 38.46099590923404,46.316190091536555 38.496648224128876,46.11419736127573 38.54121361783473,45.856094832881354 38.59469209029339,45.56432580289402 38.65708364150487,45.25011186872143 38.73730135016376,44.969562720594695 38.79077982256422,44.644124535581795 38.82643213751726,44.54312622193538 38.83534521627007,44.40846161496302 38.87099753122311,44.16157594184915 38.91556292492896,43.90346741722169 38.995780633587856,43.57802510425972 39.04034602729371,43.30869258194434 39.10273757844698,42.994470215075125 39.15621605090564,42.82613632101129 39.19186836585868,42.657802089786856 39.236433759564534,42.54557908164861 39.25425991701195,42.44457824622805 39.307738389470614,42.34357728941541 39.28991223196499,42.23135386173817 39.272086074517574,42.02935131425329 39.28991223196499,41.78245865248027 39.32556454697624,41.55801014874305 39.38795609812951,41.34478351497091 39.43252149177715,41.187668807135196 39.521652279247064,41.1315563402386 39.78013156267116,41.19889129597141 40.02969776740065,41.28867115303001 40.270350893377326,41.37845091417694 40.50209094060119,41.445785672112834 40.57339557050727,41.322338574711466 40.6001348067075,41.15400133150251 40.5912217280129,40.89588357039611 40.6001348067075,40.66021013966383 40.60904788546031,40.34597787061648 40.63578712166054,40.009299135708716 40.67143943661358,39.68384174327366 40.724917909072246,39.436942190965055 40.617960964213125,39.268601171293994 40.44861246814253,39.23493292689818 40.19904626341304,39.279823916418536 39.93165390123613,39.32471488201554 39.75339232641272,39.36960582357278 39.78013156267116,39.1002598143823 39.8157838776242,38.81969013687194 39.878175428835675,38.53911952266935 39.93165390123613,38.28099373031728 39.985132373694796,37.966752565145725 40.07426316104829,37.66373318590922 40.12774163350696,37.383158712451404 40.163393948518205,37.113806336550624 40.19904626341304,36.855676166283956 40.234698578424286,36.619991405263136 40.270350893377326,36.39552911357896 40.261437814624514,36.28329774289887 40.261437814624514,36.20473569424212 40.37730783823645,36.09250406878709 40.55556941305986,36.02516502155049 40.60904788546031,35.89048676520906 40.49317786184838,35.78947793127736 40.430786310636904,35.666022524987056 40.44861246814253,35.52012044731964 40.439699389447924,35.43033442746673 40.6001348067075,35.44155768519704 40.7694833027781,35.47522744938033 40.91209256259026,35.45278094144305 41.04578874370782,35.49767395134404 41.16165876731975,35.44155768519704 41.30426802719012,35.407887907495024 41.43796420824947,35.39666464529 41.47361652320251,35.160975792314275 41.50926883821376,34.79060625919374 41.53600807435578,34.44268187747366 41.58057346811984,34.17332007650111 41.607312704320066,33.903957412039745 41.598399625567254,33.74682879242755 41.61622578301467,33.57847637388477 41.634051940520294,33.410123618057696 41.598399625567254,33.297888260145555 41.44687728700228,33.25299407499551 41.224050318531226,33.24177052495361 41.08144105866086,33.19687630984117 40.929918720095884,33.1070878076207 40.74274406657787,33.084640667068015 40.48426478309557,33.02852278948558 40.190133184660226,32.961181286897045 39.940566979988944,32.91628692188533 39.691000775259454,32.837721725365554 39.40578225563513,32.80405090434215 39.1205637359526,32.72548560289579 38.89773676742334,32.62447296449682 38.781866743811406,32.55713113810634 38.57686593278777,32.5795784195725 38.30947357061086,32.56835477956338 38.042081208433956,32.55713113810634 37.81034116121009,32.54590749513591 37.516209562832955,32.52346020467667 37.25773027935065,32.489789257779194 37.017077153373975,32.456118297355715 36.74077171244426,32.43367098289309 36.50903166522039,32.42244732344261 36.517944743914995,32.400000000001455 36.45555319276173,32.5346838506739 36.39316164160846,32.73670922186284 36.348596247902606,32.92751051538653 36.32185701170238,33.07341709455795 36.29511777544394,33.27544117056823 36.277291617996525,33.44379419622419 36.241639303043485,33.623370385117596 36.161421594326384,33.78049923565413 36.09011696447851,33.91518087364966 36.00989925576141,34.07230917853303 35.956420783360954,34.229437189576856 35.9118553896551,34.364118108052935 35.85837691719644,34.52124557345087 35.76924612984294,34.64470266159333 35.706854578631464,34.824276284220105 35.644463027478196,34.958956249312905 35.55533224006649,35.14975249712006 35.48402761016041,35.21709224582446 35.37707066530129,35.45278094144305 35.323592192842625,35.69969219923951 35.22554832667811,35.9241563495234 35.10076522437157,36.19351253845525 34.975982122006826,36.485314102210396 34.85119901964208,36.75466849246732 34.726415917277336,37.01279897306813 34.6016328149708,37.282151672639884 34.49467587005347,37.506611596167204 34.369892767688725,37.7647397670662 34.24510966538219,38.022867145096825 34.11141348426463,38.26977085180988 34.013369618100114,38.51667383306631 33.90641267324099,38.707462003600085 33.85293420078233,38.842135745551786 33.79054264962906,38.887026944918034 33.7370641772286,38.97680927167676 33.6568464685115,39.07781427467853 33.63902031106409,39.313492142857285 33.5677156810998,39.57161476395413 33.416193342534825,39.818513920603436 33.318149476428516,40.02052178196027 33.246844846522436,40.18886129549355 33.220105610264,40.28986484181223 33.37162794882897,40.3684230716608 33.630107232311275,40.37964566992014 33.88858651579358,40.39086826667335 34.164891956723295,40.435758638806874 34.42337124008918,40.46942640214547 34.73532899597194,40.514316732289444 35.002721358207054,40.54798446415225 35.27011372038396,40.58165218254726 35.50185376760783,40.626542452730064 35.778159208537545,40.6489875788393 35.90294231090229,40.626542452730064 35.97424694080837,40.44698122807313 36.00989925576141,40.27864223155484 36.03663849201985,40.08785762782645 36.03663849201985,40.054189711670915 36.17924775183201,40.099080263586075 36.22381314553786,40.22252915777062 36.22381314553786,40.44698122807313 36.161421594326384,40.77243566528341 36.10794312192593,41.09788884218142 36.04555157077266,41.367228449264076 35.98316001956118,41.703901744345785 35.92968154710252,42.00690655680228 35.84946383850183,42.32113261587074 35.79598536604317,42.59046830289299 35.76924612984294,42.81491404940607 35.68902842118405,43.10669262384181 35.66228918492561,43.3648035952865 35.68902842118405,43.634135937805695 35.57315839751391,43.881023160225595 35.421636058948934,44.07179915361485 35.35033142904285,44.32990716126369 35.27902679913677,44.59923641115893 35.24337448418373,44.86856479801645 35.23446140543092,45.05933854990144 35.287939877889585,45.238889920772635 35.41272298025433,45.42966283208807 35.34141835029004,45.710210444492986 35.31467911408981,46.01320081412268 35.22554832667811,46.38352089375985 35.145330618019216,46.697730590967694 35.09185214556055,47.01193911356677 35.04728675191291,47.31492479078588 35.038373673160095,47.59546611078986 35.02946059446549,47.88722809031606 35.02054751571268,48.178989057123545 35.02946059446549,48.47074901119777 35.002721358207054,48.77372943010414 34.99380827945424,49.06548731987277 34.98489520075964,49.36846559509286 34.9581559645012,49.64900006139942 34.94032980699558,49.91831226822251 34.89576441334793,50.18762361223344 34.85119901964208,50.47937659458694 34.779894389736,50.804792187947896 34.73532899597194,51.04043717608147 34.788807468430605,51.33218719850993 34.753155153477564,51.623936208401574 34.6996766810189,51.91568420574913 34.58380665740697,52.22987322433619 34.41445816139458,52.46551421764161 34.24510966538219,52.65627072846837 34.013369618100114,52.82458493733429 33.808368807134684,53.00411972204893 33.62119415355846,53.18365412331332 33.39836718508741,53.37440900456568 33.26467100396985,53.542721775593236 33.18445329531096,53.68859257121949 33.08640942920465,53.778359088886646 32.97945248428732,53.95789183665329 32.881408618122805,54.11498267641582 32.81010398827493,54.373059847348486 32.694233964663,54.65357761282212 32.54271162603982,54.934094442207424 32.40010236622766,55.192169098590966 32.27531926386291,55.41658119927888 32.15944924025098,55.6409927009081 32.13271000405075,55.87662413290673 32.18618847645121,56.04493189428467 32.328797736321576,56.16835737178917 32.284232342615724,56.42642823924689 32.18618847645121,56.662057469839056 32.23075387015706,56.7518208125548 32.20401463395683,56.68449831450562 32.0881446103449,56.74060039994947 31.927709193027113,56.953787983220536 31.758360696956515,57.24551748426893 31.606838358391542,57.413822505150165 31.3929244686733,57.62700838127785 31.241402130108327,57.85141398266569 31.17009750014404,58.042158272859524 31.080966712732334,58.32266379585053 30.938357452920172,58.524627192928165 30.85813974426128,58.58072805041593 30.635312775790226,58.55828771191591 30.439225043461192,58.56950788191898 30.198571917542722,58.51340701692243 29.94009263406042,58.49096666042169 29.67270027194172,58.49096666042169 29.44987330341246,58.50218683941057 29.334003279800527,58.524627192928165 29.227046334883198,58.524627192928165 29.17356786248274,58.61438854697917 29.084437075071037,58.81635124325112 28.959653972706292,58.995873232641316 28.941827815200668,59.22027518033428 28.897262421553023,59.43345647588285 28.772479319188278,59.6578572556391 28.719000846729614,59.80371744128206 28.683348531776574,59.848597447511565 28.540739271964412,59.99445730227308 28.335738460940775,60.18519673051196 28.166389964870177,60.36471579713543 28.13965072866995,60.55545438538684 28.21986843732884,60.712532897872734 28.28225998848211,60.7461925409516 28.317912303493358,60.91449055419071 28.3535646184464,61.12766755397024 28.380303854646627,61.3184044114023 28.371390775893815,61.363283609105565" stroke="#4DD2FF" stroke-dasharray="none" stroke-linecap="round" stroke-linejoin="round" stroke-width="0.5"><title>2017-12-17 14.0km</title><desc>9223370523376934807</desc></polyline><polyline fill="none" opacity="1" points="100.62168801343068,32.40000000000873 100.57930019433843,33.217907721045776 100.69233437860385,33.52017669621273 100.81949783588061,33.82244498626096 100.86188565508928,34.14249301717791 100.90427347412333,34.5336617895955 100.91840274713468,34.90704909294436 100.94666129315738,35.280435350810876 101.0031783853774,35.636040338737075 101.1162125695846,35.93830383293971 101.15860038867686,36.25834678598039 101.20098820782732,36.560608869680436 101.22924675396644,36.898430387780536 101.39879803033546,37.00511068935157 101.61073712579673,37.129570933422656 101.62486639886629,37.307371080547455 101.48357366851997,37.431831042515114 101.32815166510409,37.591850822849665 101.4129273033468,37.84077009958855 101.55422003369313,38.17858837491076 101.69551276403945,38.51640579452214 101.7661591291544,38.818662760357256 101.89332258648938,39.13869880103448 102.04874458984705,39.458734073807136 102.23242513928562,39.7787685785006 102.31720077747013,40.08102268331277 102.07700313586975,40.24103928501427 101.80854694824666,40.11658194473421 101.59660785272717,39.95656519370095 101.34228093823185,39.7787685785006 101.13034184265416,39.86766691568482 100.87601492804242,39.885446576052345 100.63581728644203,39.97434484217956 100.62168801343068,40.223259672071435 100.63581728644203,40.48995361715788 100.39561964489985,40.6499697281979 100.14129273028811,40.7388674847607 99.84457799664233,40.8277651820099 99.54786326288013,40.84554471432057 99.49134617077652,40.61441060905054 99.54786326288013,40.36549650915549 99.6467681741924,40.009904132035444 99.74567308538826,39.72542954770324 99.80219017749187,39.33427600339928 99.85870726965368,38.92534152591543 99.81631945056142,38.62308480187494 99.75980235839961,38.196368260410964 99.59025108197238,37.983009477713495 99.26527780224569,38.01856929855421 99.03920943371486,37.85855003018514 98.9968216146226,37.71631051928853 98.9685630685417,37.48517099059245 98.9685630685417,37.2540310612967 98.84139961126493,37.147350958766765 98.65771906176815,37.129570933422656 98.45990923931822,37.11179090567748 98.36100432812236,37.20069102074194 98.38926287414506,37.502950968570076 98.40339214715641,37.84077009958855 98.40339214715641,38.17858837491076 98.43165069323732,38.49862595162995 98.44577996630687,38.85422235834994 98.44577996630687,39.227597564982716 98.44577996630687,39.547632624351536 98.44577996630687,39.86766691568482 98.44577996630687,40.169920819069375 98.45990923931822,40.48995361715788 98.47403851238778,40.8277651820099 98.48816778539913,41.076678419078235 98.47403851238778,41.30781172326533 98.45990923931822,41.521165186946746 98.44577996630687,41.80563594098203 98.41752142022597,42.05454735299281 98.40339214715641,42.21456158677756 98.3751336010755,42.48125154990703 98.3468750550528,42.7123824198934 98.3468750550528,42.96129213961831 98.3468750550528,43.2279806095612 98.3468750550528,43.54800606954086 98.3468750550528,43.90358901335276 98.33274578204146,44.241391931835096 98.3468750550528,44.56141496016062 98.3468750550528,44.88143722062523 98.3751336010755,45.201458713185275 98.38926287414506,45.55703724877094 98.3751336010755,45.823720528307604 98.3751336010755,46.14373975995113 98.3468750550528,46.39264307593112 98.36100432812236,46.64154592739942 98.30448723596055,46.90822703849699 98.36100432812236,47.192686302616494 98.40339214715641,47.459366311784834 98.44577996630687,47.77938161890779 98.48816778539913,48.099396158228046 98.53055560449138,48.490523996923 98.62946051574545,48.881650688636 98.7283654268831,49.254997824464226 98.84139961126493,49.503895334433764 98.95443379547214,49.84168406938261 99.06746797973756,50.161693660746096 99.19463143707253,50.428367733708 99.26527780224569,50.55281545195612 99.3500534404302,50.78393233499082 99.47721689776517,51.03282699189731 99.53373398992699,51.299499323184136 99.57612180896103,51.44172434856591 99.6750267202151,51.619505417038454 99.83044872357277,51.74395202391315 99.91522436175728,51.93951074311917 100.04238781909226,52.09951311822806 100.16955127642723,52.31284931990376 100.26845618756488,52.526185180366156 100.4662660100148,52.72174275263387 100.66407583263936,52.95285587757826 100.84775638201972,53.21952437024447 101.0314369314583,53.48619232990313 101.20098820782732,53.735081944512785 101.27163457300048,53.859526577653014 101.3846687572659,54.108415495677036 101.56834930670448,54.39285940474656 101.7379005831317,54.60619193849561 101.93571040558163,54.943967752493336 102.07700313586975,55.15729940489109 102.24655441235518,55.45951866173709 102.4161056887242,55.743959689702024 102.57152769208187,56.01062260256731 102.78346678760136,56.34839486029523 102.95301806402858,56.632833992887754 103.15082788647851,56.93504990670772 103.34863770892844,57.23726513578731 103.5323182583088,57.539479680228396 103.7442573538865,57.895025326506584 103.91380863031372,58.16168393928092 104.13987699878635,58.49945075029973 104.29529900214402,58.76610815485765 104.422462459479,58.9972108076181 104.59201373590622,59.24609013981535 104.76156501233345,59.53052309369377 104.94524556177203,59.81495544113568 105.08653829211835,60.04605627688579 105.25608956854558,60.31271058986022 105.4538993909373,60.57936436984164 105.65170921344543,60.86379448091611 105.8071312168031,61.14822398562683 105.94842394709121,61.41487609545584 106.132104496588,61.752634669464896 106.32991431897972,62.07261568758986 106.49946559546515,62.35704261492356 106.68314614484552,62.677022183313966 106.9233437863877,63.03255413690931 107.10702433588449,63.31697901758889 107.26244633924216,63.54807378661644 107.43199761555297,63.85027403442655 107.61567816504976,64.1524735976127 107.79935871448833,64.49022524050088 107.99716853699647,64.82797602834762 108.15259054035414,65.13017337680503 108.30801254377002,65.45014629377692 108.46343454706948,65.78789465138107 108.5764687313349,66.1078659909108 108.66124436957762,66.46338880133408 108.70363218866987,66.65892594326579 108.59059800440446,66.80113459371205 108.53408091224264,66.92556703857554 108.61885655042715,66.83668673264037 108.76014928071527,66.81891066439857 108.85905419202754,67.04999936732929 108.94382983021205,67.33441568291164 109.05686401447747,67.63660735395388 109.18402747181244,67.9743501762423 109.31119092908921,68.32986801282095 109.42422511335462,68.68538490205538 109.52313002460869,68.95202194727608 109.62203493580455,69.25420995429158 109.74919839313952,69.5563972768141 109.86223257740494,69.84080824932607 109.97526676161215,70.1252186154743 110.06004239985486,70.37407718850591 110.11655949201668,70.62293529736053 110.2013351302594,70.92511951980123 110.3143693144666,71.22730305777804 110.42740349873202,71.56503679031448 110.5263084100443,71.86721887897875 110.62521332118195,72.15162492539093 110.73824750544736,72.48935631813947 110.82302314363187,72.73821048153332 110.9643158740364,73.07594038943353 111.07735005830182,73.36034385929815 111.19038424256723,73.66252188183716 111.317547699844,73.98247433621145 111.43058188410942,74.24910079539404 111.52948679542169,74.49795167661796 111.6142624336062,74.74680209366488 111.75555516389431,74.97787706537929 111.81207225599792,75.10230188436981 111.85446007514838,75.28005142448819 111.81207225599792,75.5289003829239 111.6425209796289,75.56445019616513 111.47296970320167,75.35115117425448 111.30341842677444,75.12007684902346 111.07735005830182,74.80012712263851 110.82302314363187,74.49795167661796 110.5263084100443,74.16022536819219 110.2295936762821,73.9291489804018 109.9893960346817,73.66252188183716 109.70681057404727,73.3958942504396 109.48074220551644,73.11149085627403 109.24054456391605,72.89818791288417 108.95795910328161,72.63155875403027 108.68950291560031,72.36492906238709 108.40691745490767,72.09829883786733 108.15259054035414,71.8316680805292 107.88413435273105,71.56503679031448 107.60154889203841,71.33395590780128 107.30483415833442,71.12065012253879 106.99399015161907,70.9784460762312 106.62662905274192,70.87179294200905 106.25926795386476,70.80069080521935 105.92016540106852,70.7651397226 105.58106284827227,70.67626197461504 105.27021884149872,70.60515973354632 104.93111628870247,70.53405745462805 104.59201373590622,70.48073072057741 104.25291118310997,70.44517955269839 103.84316226514056,70.3207503905287 103.60296462354017,70.24964796002314 103.43341334717115,70.21409673048765 103.23560352472123,70.17854549160984 103.02366442914354,70.1252186154743 102.7975960606127,70.10744298537611 102.59978623816278,70.07189171794744 102.40197641565464,70.03634044114733 102.20416659320472,70.00078915487393 101.97809822467389,69.94746220763773 101.7661591291544,69.89413523912663 101.55422003369313,69.8230325812765 101.37053948425455,69.76970556302695 100.98904911230784,69.59194868154009 100.63581728644203,69.44974300585454 100.25432691461174,69.32531291528721 100.0,69.27198569811299 99.6467681741924,69.16533119975065 99.30766562133795,69.0586766161141 98.94030452240258,68.95202194727608 98.57294342364185,68.84536719312018 98.19145305169513,68.73871235371917 97.92299686401384,68.63205742904393 97.48498940002173,68.56095409860427 97.11762830114458,68.3831956066133 96.80678429437103,68.2765403977246 96.59484519890975,68.20543687781901 96.29813046520576,68.08100562672189 95.94489863933995,67.99212609055394 95.61992535961326,67.81436684069922 95.26669353374746,67.60105542821111 94.94172025396256,67.38774367461156 94.63087624718901,67.12110350305738 94.39067860570503,66.81891066439857 94.164610237116,66.5167171411158 94.09396387194283,66.2678513728315 93.99505896068877,66.03676131505927 93.85376623028424,65.8056708570366 93.72660277306568,65.59235623279528 93.58531004271936,65.37904126748617 93.44401731243124,65.05906817995128 93.26033676299267,64.72131797717884 93.07665621355409,64.3480141267064 92.90710493712686,63.93915632991411 92.69516584166558,63.53029728011461 92.4832267460879,63.0858838482236 92.29954619670752,62.76590526053042 92.14412419329165,62.42814925200946 91.97457291686442,62.0548389844771 91.79089236748405,61.628197399608325 91.59308254503412,61.2015544501628 91.38114344951464,60.79268701002002 91.18333362706471,60.36604138844996 90.98552380455658,59.97494837008708 90.7735847090371,59.583854205033276 90.60403343260987,59.17498180655821 90.40622361015994,58.76610815485765 90.25080160680227,58.42834201907681 90.06712105736369,58.01946607879654 89.89756978099467,57.699475338333286 89.7704063236597,57.45059312057856 89.68563068547519,57.11282365383522 89.53020868211752,56.7039436812629 89.43130377080524,56.31283992607496 89.34652813273715,55.8861799762235 89.27588176744757,55.56618411827367 89.23349394841352,55.21063226467231 89.17697685630992,54.76619111496257 89.14871831022901,54.41063712896721 89.10633049107855,53.96619331369584 89.04981339897495,53.610637195262825 89.00742557988269,53.23730225082545 89.02155485289404,52.86396626147325 88.97916703386,52.45507326473307 88.99329630681314,52.08173508605978 89.02155485289404,51.72617394433473 89.00742557988269,51.352833725482924 89.00742557988269,50.979492461672635 88.90852066868683,50.55281545195612 88.85200357652502,50.161693660746096 88.82374503044412,49.73501403495902 88.79548648436321,49.39722502986842 88.78135721135186,48.98832140555896 88.7389693922014,48.686087486115866 88.66832302708644,48.34829582463135 88.6824523000978,47.886053217356675 88.7672279382823,47.512702249601716 88.79548648436321,47.10379284774535 88.79548648436321,46.85489085892914 88.80961575743277,46.58820964115148 88.83787430351367,46.463758223719196 88.78135721135186,46.17929740494583 88.7389693922014,45.84149939463532 88.71071084612049,45.485921617480926 88.6824523000978,45.13034289228381 88.66832302708644,44.84587922960054 88.62593520799419,44.436961651503225 88.54115956975147,44.01026371165062 88.52703029674012,43.60134357152856 88.49877175071742,43.174642958212644 88.47051320457831,42.890175124281086 88.42812538542785,42.48125154990703 88.37160829338245,42.16122353023093 88.37160829338245,41.93009170505684 88.3857375663938,41.55672406437225 88.3857375663938,41.201134863411426 88.37160829338245,40.84554471432057 88.3292204742902,40.54329234214674 88.27270338218659,40.169920819069375 88.24444483604748,39.814327920481446 88.25857410905883,39.42317463697691 88.28683265519794,39.10313927894458 88.24444483604748,38.69420409268059 88.18792774388567,38.35638712348009 88.15966919786297,37.9652295637643 88.15966919786297,37.64519070701499" stroke="#4DD2FF" stroke-dasharray="none" stroke-linecap="round" stroke-linejoin="round" stroke-width="0.5"><title>2017-11-19 11.8km</title><desc>9223370525802103807</desc></polyline><polyline fill="none" opacity="0.5" points="166.83474861830473,73.50408425950445 165.16525138076395,72.92188469867688 163.69216558337212,72.68900478316937 162.51369694480672,72.92188469867688 161.33522830624133,72.5725648063235 160.1567596681416,72.10680476890411 158.6836738702841,72.22324479778763 157.4069995121099,72.80544474744238 155.2464736746624,72.10680476890411 154.06800503656268,71.40816432458814 153.47877071751282,70.12732229894027 152.69312495877966,68.84647870704066 152.5949192387052,66.98343068640679 152.79133067838848,65.35326094890479 152.79133067838848,63.490206713438965 152.5949192387052,61.86003153875936 152.5949192387052,59.64764688548166 152.30030207894742,58.48323203262407 152.1038906397298,56.7366073258454 152.49671351909637,55.10642163804732 152.49671351909637,53.70911760011222 152.88953639846295,52.54469614417758 152.5949192387052,51.03094631573185 153.08594783768058,49.4007517460268 152.98774211853743,47.6541118909372 153.28235927782953,46.6061265792232 153.380564997904,44.51015281013679 153.28235927782953,42.64706149313133 153.380564997904,41.01685387187172 153.47877071751282,39.735974674928 153.77338787727058,38.22220633132383 154.06800503656268,36.591991821769625 153.77338787727058,34.96177477389574 153.77338787727058,33.79733247170225 153.57697643712163,32.40000000002328 153.77338787727058,33.79733247170225 153.77338787727058,34.96177477389574 154.06800503656268,36.591991821769625 153.77338787727058,38.22220633132383 153.47877071751282,39.735974674928 153.380564997904,41.01685387187172 153.28235927782953,42.64706149313133 153.380564997904,44.51015281013679 153.28235927782953,46.6061265792232 152.98774211853743,47.6541118909372 153.08594783768058,49.4007517460268 152.5949192387052,51.03094631573185 152.88953639846295,52.54469614417758 152.49671351909637,53.70911760011222 152.49671351909637,55.10642163804732 152.1038906397298,56.7366073258454 152.30030207894742,58.48323203262407 152.5949192387052,59.64764688548166 152.5949192387052,61.86003153875936 152.79133067838848,63.490206713438965 152.79133067838848,65.35326094890479 152.5949192387052,66.98343068640679 152.69312495877966,68.84647870704066 153.47877071751282,70.12732229894027 154.06800503656268,71.40816432458814 155.2464736746624,72.10680476890411 157.4069995121099,72.80544474744238 158.6836738702841,72.22324479778763 160.1567596681416,72.10680476890411 161.33522830624133,72.5725648063235 162.51369694480672,72.92188469867688 163.69216558337212,72.68900478316937 165.16525138076395,72.92188469867688 166.83474861830473,73.50408425950445 168.30783441662788,73.15476456168108 169.97733165416867,74.55204265448265 172.3342689308338,75.59999999997672 174.20017760805786,75.13424130936619 174.8876176471822,75.01780160400085 176.6553206043318,74.90136188617907 178.22661212226376,75.01780160400085 179.8961093602702,75.25068100134376" stroke="#4DD2FF" stroke-dasharray="1,0.5" stroke-linecap="round" stroke-linejoin="round" stroke-width="0.5"><title>2014-03-22 10.5km</title><desc>9223370641410674807</desc></polyline><polyline fill="none" opacity="1" points="55.600000000034925,102.33323749107512 55.538005261914805,102.30808765326947 55.44501315476373,102.30808765326947 55.37268596031936,102.32066257296538 55.31069122225745,102.32066257296538 55.259028940461576,102.33323749107512 55.16603683336871,102.33323749107512 55.09370963886613,102.33323749107512 55.01104998809751,102.32066257296538 54.94905524997739,102.33323749107512 54.88706051185727,102.33323749107512 54.83539823011961,102.33323749107512 54.77340349199949,102.33323749107512 54.68041138484841,102.33323749107512 54.61841664672829,102.34581240768603 54.54608945234213,102.32066257296538 54.50475962687051,102.33323749107512 54.42209997610189,102.30808765326947 54.37043769436423,102.29551273209654 54.29811049991986,102.29551273209654 54.23611576179974,102.27036288512318 54.17412102367962,102.28293780938111 54.101793829293456,102.29551273209654 54.039799091173336,102.32066257296538 53.967471896728966,102.32066257296538 53.905477158608846,102.32066257296538 53.86414733319543,102.32066257296538 53.77115522604436,102.30808765326947 53.69882803159999,102.28293780938111 53.63683329347987,102.28293780938111 53.57483855535975,102.27036288512318 53.50251136091538,102.25778795938822 53.46118153556017,102.27036288512318 53.4095192537643,102.25778795938822 53.33719205937814,102.25778795938822 53.25453240855131,102.25778795938822 53.18220521410694,102.27036288512318 53.109878019662574,102.28293780938111 53.02721836883575,102.27036288512318 52.975556087098084,102.28293780938111 52.903228892653715,102.29551273209654 52.841234154533595,102.27036288512318 52.758574503764976,102.25778795938822 52.696579765644856,102.23263810333447 52.644917483848985,102.25778795938822 52.57259028946282,102.25778795938822 52.500263094960246,102.25778795938822 52.438268356840126,102.25778795938822 52.376273618778214,102.24521303212532 52.27294905530289,102.24521303212532 52.221286773565225,102.22006317299383 52.159292035445105,102.2074882411689 52.08696484094253,102.19491330778692 51.99397273379145,102.19491330778692 51.91131308302283,102.22006317299383 51.83898588857846,102.23263810333447 51.75632623775164,102.22006317299383 51.67366658692481,102.23263810333447 51.6116718488629,102.24521303212532 51.54967711074278,102.24521303212532 51.44635254726745,102.23263810333447 51.39469026552979,102.23263810333447 51.32236307102721,102.23263810333447 51.27070078928955,102.23263810333447 51.20870605122764,102.22006317299383 51.12604640040081,102.24521303212532 51.07438411866315,102.24521303212532 51.012389380601235,102.23263810333447 50.950394642481115,102.23263810333447 50.87806744797854,102.22006317299383 50.81607270985842,102.22006317299383 50.743745515472256,102.24521303212532 50.671418321027886,102.23263810333447 50.60942358284956,102.23263810333447 50.557761301111896,102.23263810333447 50.47510165034328,102.23263810333447 50.41310691222316,102.23263810333447 50.3614446305437,102.25778795938822 50.278784979716875,102.27036288512318 50.216790241596755,102.27036288512318 50.15479550353484,102.25778795938822 50.10313322173897,102.27036288512318 50.0308060272946,102.27036288512318 49.96881128917448,102.27036288512318 49.88615163840586,102.25778795938822 49.79315953125479,102.25778795938822 49.741497249517124,102.25778795938822 49.679502511397004,102.25778795938822 49.617507773276884,102.25778795938822 49.51418320980156,102.25778795938822 49.472853384388145,102.25778795938822 49.42119110265048,102.25778795938822 49.35919636453036,102.25778795938822 49.28686917008599,102.25778795938822 49.23520688834833,102.25778795938822 49.1525472375215,102.24521303212532 49.11121741210809,102.25778795938822 49.01822530501522,102.25778795938822 48.9562305668951,102.23263810333447 48.873570916068275,102.22006317299383 48.82190863433061,102.19491330778692 48.74958143988624,102.22006317299383 48.68758670176612,102.22006317299383 48.594594594615046,102.2074882411689 48.54293231287738,102.2074882411689 48.44994020572631,102.2074882411689 48.387945467664395,102.19491330778692 48.31561827316182,102.19491330778692 48.253623535099905,102.2074882411689 48.201961253304034,102.19491330778692 48.119301602535415,102.2074882411689 48.057306864415295,102.23263810333447 47.984979669970926,102.24521303212532 47.89198756281985,102.25778795938822 47.850657737406436,102.23263810333447 47.76799808663782,102.23263810333447 47.7060033485177,102.22006317299383 47.62334369774908,102.22006317299383 47.56134895962896,102.2074882411689 47.48902176512638,102.2074882411689 47.42702702706447,102.2074882411689 47.36503228894435,102.18233837287698 47.29270509449998,102.18233837287698 47.1997129873489,102.2074882411689 47.12738579296274,102.19491330778692 47.07572351116687,102.18233837287698 47.01372877304675,102.16976343648275 46.920736665895674,102.16976343648275 46.858741927775554,102.18233837287698 46.776082277006935,102.16976343648275 46.703755082562566,102.18233837287698 46.63142788805999,102.2074882411689 46.569433149998076,102.2074882411689 46.49710595555371,102.19491330778692 46.41444630478509,102.16976343648275 46.33178665395826,102.15718849856785 46.259459459455684,102.13203861813236 46.176799808687065,102.13203861813236 46.104472614242695,102.13203861813236 46.042477876122575,102.11946367561177 45.95981822529575,102.10688873159961 45.897823487233836,102.08173883898417 45.82549629278947,102.09431378603767 45.75316909828689,102.09431378603767 45.68084190390073,102.10688873159961 45.62917962210486,102.10688873159961 45.577517340367194,102.10688873159961 45.494857689598575,102.13203861813236 45.432862951478455,102.13203861813236 45.370868213358335,102.14461355912499 45.308873475238215,102.16976343648275 45.23654628085205,102.19491330778692 45.18488399905618,102.19491330778692 45.102224348229356,102.19491330778692 45.029897153843194,102.19491330778692 44.95756995934062,102.18233837287698 44.895575221278705,102.19491330778692 44.823248026834335,102.16976343648275 44.761253288714215,102.16976343648275 44.70959100697655,102.15718849856785 44.63726381253218,102.16976343648275 44.57526907441206,102.18233837287698 44.5236067926744,102.19491330778692 44.44094714190578,102.16976343648275 44.358287491078954,102.18233837287698 44.31695766566554,102.19491330778692 44.23429801489692,102.16976343648275 44.161970820394345,102.15718849856785 44.099976082274225,102.19491330778692 44.006983975181356,102.18233837287698 43.96565414976794,102.16976343648275 43.89332695532357,102.15718849856785 43.83133221720345,102.14461355912499 43.74867256637663,102.15718849856785 43.676345371990465,102.14461355912499 43.614350633870345,102.15718849856785 43.552355895750225,102.13203861813236 43.50069361401256,102.11946367561177 43.428366419509985,102.11946367561177 43.356039225065615,102.09431378603767 43.26304711797275,102.08173883898417 43.20105237985263,102.10688873159961 43.12872518535005,102.13203861813236 43.04606553458143,102.11946367561177 42.96340588381281,102.10688873159961 42.89107868936844,102.09431378603767 42.82908395124832,102.09431378603767 42.76708921318641,102.10688873159961 42.70509447506629,102.10688873159961 42.62243482423946,102.10688873159961 42.55010762979509,102.10688873159961 42.467447979026474,102.09431378603767 42.405453240906354,102.09431378603767 42.33312604640378,102.09431378603767 42.271131308341864,102.09431378603767 42.198804113897495,102.10688873159961 42.10581200674642,102.10688873159961 42.0438172686263,102.11946367561177 41.992154986888636,102.11946367561177 41.89916287973756,102.14461355912499 41.83716814161744,102.14461355912499 41.77517340349732,102.10688873159961 41.72351112175966,102.0691638904027 41.64085147099104,102.0691638904027 41.56852427648846,102.0691638904027 41.4961970821023,102.08173883898417 41.44453480030643,102.0691638904027 41.36187514953781,102.05658894027147 41.29988041141769,102.05658894027147 41.21722076059086,102.0691638904027 41.15522602252895,102.0691638904027 41.09323128440883,102.09431378603767 41.03123654628871,102.09431378603767 40.9692418082268,102.0691638904027 40.88658215739997,102.05658894027147 40.82458741933806,102.04401398865593 40.75226022483548,102.0691638904027 40.66960057406686,102.04401398865593 40.60760583594674,102.04401398865593 40.54561109782662,102.04401398865593 40.462951447058,102.04401398865593 40.390624252555426,102.01886408081191 40.33896197081776,102.03143903550517 40.28729968913831,101.99371416688518 40.22530495101819,101.98113920765172 40.15297775651561,101.99371416688518 40.0909830184537,101.98113920765172 40.00832336768508,101.99371416688518 39.95666108588921,101.99371416688518 39.904998804151546,102.01886408081191 39.80167424061801,102.01886408081191 39.75001195888035,102.0062891245907 39.66735230811173,102.0062891245907 39.60535756999161,102.01886408081191 39.54336283187149,102.05658894027147 39.47103563742712,102.05658894027147 39.409040899307,102.05658894027147 39.31604879221413,102.05658894027147 39.243721597711556,102.05658894027147 39.171394403325394,102.0691638904027 39.109399665205274,102.0691638904027 39.06806983979186,102.03143903550517 38.975077732640784,102.03143903550517 38.923415450844914,102.03143903550517 38.85108825645875,102.03143903550517 38.78909351833863,102.03143903550517 38.73743123660097,102.04401398865593 38.67543649853906,102.0062891245907 38.59277684765402,102.03143903550517 38.5101171968854,102.03143903550517 38.437790002441034,102.04401398865593 38.375795264320914,102.01886408081191 38.303468069876544,102.0062891245907 38.21047596266726,102.0062891245907 38.1381487682811,101.99371416688518 38.07615403016098,102.01886408081191 38.034824204747565,102.0062891245907 37.97282946668565,102.0062891245907 37.890169815858826,102.0062891245907 37.71451805788092,102.01886408081191 37.58019612537464,102.01886408081191 37.414876823779196,102.0062891245907 37.280554891214706,101.99371416688518 37.18756278406363,101.96856424687576 37.1049031332368,101.93083935540199 36.94991628796561,101.96856424687576 36.70193733565975,102.04401398865593 36.484955752268434,102.03143903550517 36.36096627602819,102.01886408081191 36.195646974490955,101.95598928459367 36.11298732366413,101.94341432075453 36.009662760130595,101.93083935540199 35.885673283890355,101.94341432075453 35.64802678790875,101.95598928459367 35.617029418819584,101.89311445030762 35.472375029930845,101.90568942018581 35.42071274819318,101.90568942018581 35.3070557283354,101.89311445030762 35.12107151403325,101.90568942018581 34.997082037851214,101.94341432075453 34.84209519258002,102.04401398865593 34.69744080363307,101.98113920765172 34.57345132750925,101.96856424687576 34.4287969385623,102.09431378603767 34.253145180642605,102.11946367561177 34.21181535522919,102.0691638904027 30.295814398501534,101.89311445030762 30.13049509690609,101.84281455542077 30.037502989755012,101.8050896183413 29.892848600866273,101.84281455542077 29.799856493715197,101.85538953142532 29.63453719211975,101.8050896183413 29.4485529778176,101.89311445030762 29.293566132546403,101.89311445030762 29.15924420004012,101.8050896183413 29.024922267417423,101.81766459889332 28.82860559679102,101.75478968083917 28.745945946022402,101.76736466750299 28.58062664436875,101.71706471176003 28.373977517418098,101.76736466750299 25.2122458742233,101.75478968083917 25.026261659921147,101.72963970300043 24.912604640063364,101.72963970300043 24.778282707557082,101.75478968083917 24.571633580548223,101.70448971899896 24.44764410436619,101.72963970300043 24.32365462812595,101.74221469268377 24.209997608268168,101.69191472474631 24.086008132086135,101.66676473166444 23.941353743197396,101.59131471582805 23.755369528837036,101.62903973060747 23.621047596330754,101.67933972895116 23.44539583841106,101.67933972895116 23.280076536757406,101.69191472474631 23.145754604192916,101.66676473166444 23.042430040659383,101.70448971899896 20.55230806034524,101.6416147324635 20.36632384598488,101.66676473166444 20.170007175358478,101.66676473166444 20.01502033008728,101.66676473166444 19.96335804834962,101.66676473166444 19.839368572167587,101.66676473166444 19.767041377723217,101.6541897328425 19.663716814189684,101.69191472474631 19.694714183278847,101.6416147324635 19.61205453245202,101.62903973060747 19.508729968976695,101.59131471582805 19.457067687180825,101.6416147324635 19.29174838558538,101.6416147324635 19.105764171283226,101.6541897328425 19.064434345869813,101.62903973060747 18.971442238718737,101.57873970787477 18.86811767524341,101.5535896874062 18.69246591726551,101.5535896874062 18.630471179203596,101.54101467486907 18.46515187760815,101.57873970787477 18.372159770457074,101.54101467486907 18.248170294216834,101.57873970787477 18.103515905328095,101.61646472723078 18.093183448945638,101.54101467486907 18.00019134185277,101.49071460949199 16.98761061951518,101.56616469840083 16.801626405213028,101.60388972228975 16.66730447264854,101.57873970787477 16.543314996466506,101.5535896874062 16.419325520226266,101.49071460949199 16.336665869457647,101.5535896874062 16.18167902418645,101.54101467486907 16.026692178973462,101.54101467486907 15.809710595582146,101.5284396607749 15.737383401137777,101.56616469840083 15.561731643159874,101.56616469840083 15.468739536067005,101.56616469840083 15.324085147120059,101.61646472723078 15.169098301848862,101.57873970787477 15.04510882566683,101.5535896874062 14.910786893160548,101.50328962809726 14.755800047889352,101.5284396607749 14.652475484355818,101.54101467486907 14.50782109546708,101.51586464522552 14.414828988316003,101.50328962809726 14.17718249221798,101.49071460949199 14.073857928800862,101.51586464522552 13.980865821591578,101.49071460949199 13.877541258116253,101.46556456768303 13.75355178193422,101.50328962809726 13.505572829511948,101.5284396607749 13.257593877089676,101.5284396607749 13.1439368572901,101.47813958937331 13.050944750080816,101.41526446578064 13.019947381108068,101.5535896874062 13.03027983737411,101.70448971899896 13.08194211916998,101.8302395779101 13.061277206463274,101.93083935540199 13.071609662787523,102.0062891245907 13.102607031876687,102.11946367561177 13.112939488200936,102.29551273209654 13.00961492472561,102.33323749107512 12.94762018660549,102.38353714844561 12.885625448543578,102.35838732279808 12.885625448543578,102.16976343648275 12.906290361192077,102.03143903550517 12.792633341392502,102.0062891245907 12.689308777858969,102.04401398865593 12.6169815834146,102.0691638904027 12.513657019939274,102.23263810333447 12.48265965085011,102.32066257296538 12.441329825436696,102.38353714844561 12.400000000023283,102.45898658878286 12.42066491272999,102.58473553421936" stroke="#4DD2FF" stroke-dasharray="none" stroke-linecap="round" stroke-linejoin="round" stroke-width="0.5"><title>2013-12-10 10.9km</title><desc>9223370650177580807</desc></polyline><polyline fill="none" opacity="0.5" points="91.35213030129671,99.75594359473325 88.58481199666858,105.92736992868595 88.35420214012265,111.25722491787747 88.58481199666858,117.98965582833625 93.42761902883649,121.35586395906284 99.88469506986439,123.60000000009313 105.88055139407516,120.79482960957102 110.03152885008603,114.0624068370089 110.49274856690317,107.89100213861093 109.80091899074614,101.15854193037376 110.72335842624307,94.98710291530006 111.18457814306021,88.5351263966877 107.95604012254626,83.7662626572419 102.6520133735612,82.08313193893991 96.65615704935044,83.7662626572419 92.73578945267946,86.57147780805826 90.89091058447957,91.62085653445683 90.42969086673111,98.63386431708932 89.73786129057407,104.52477447572164 87.89298242237419,112.94033447606489 112.10701757762581,90.49877332313918 108.87847955711186,86.8519991368521 104.95811196044087,83.20521922083572 97.34798662550747,82.64417564729229 91.12152044288814,89.09616854530759 89.73786129057407,95.5481435037218 89.5072514321655,103.40269750310108 89.27664157282561,108.17152088950388 88.58481199666858,114.34292484284379 90.66030072513968,119.39224314200692 96.88676690869033,122.75844923895784 103.11323309037834,123.03896619309671 108.4172598393634,117.98965582833625 110.26213870756328,110.97670653951354 110.49274856690317,104.52477447572164 110.49274856690317,97.79230450256728 111.64579785987735,91.62085653445683 109.80091899074614,85.72991361888126 105.88055139407516,82.92469745082781 99.88469506986439,82.08313193893991 94.81127818115056,84.32730595883913 91.12152044288814,88.5351263966877 89.96847114898264,95.5481435037218 89.73786129057407,102.56113941781223 89.27664157282561,109.01307694031857 109.80091899074614,93.02345978678204 110.49274856690317,89.37668956816196 106.80299082957208,83.7662626572419 101.96018379833549,80.4000000001397 94.11944860499352,86.01043504965492 89.96847114898264,91.05981499678455 91.35213030129671,99.75594359473325 88.58481199666858,105.92736992868595 88.35420214012265,111.25722491787747 88.58481199666858,117.98965582833625 93.42761902883649,121.35586395906284 99.88469506986439,123.60000000009313 105.88055139407516,120.79482960957102 110.03152885008603,114.0624068370089 110.49274856690317,107.89100213861093 109.80091899074614,101.15854193037376 110.72335842624307,94.98710291530006 111.18457814306021,88.5351263966877 107.95604012254626,83.7662626572419 102.6520133735612,82.08313193893991 96.65615704935044,83.7662626572419 92.73578945267946,86.57147780805826 90.89091058447957,91.62085653445683 90.42969086673111,98.63386431708932 89.73786129057407,104.52477447572164 87.89298242237419,112.94033447606489 112.10701757762581,90.49877332313918 108.87847955711186,86.8519991368521 104.95811196044087,83.20521922083572 97.34798662550747,82.64417564729229 91.12152044288814,89.09616854530759 89.73786129057407,95.5481435037218 89.5072514321655,103.40269750310108 89.27664157282561,108.17152088950388 88.58481199666858,114.34292484284379 90.66030072513968,119.39224314200692 96.88676690869033,122.75844923895784 103.11323309037834,123.03896619309671 108.4172598393634,117.98965582833625 110.26213870756328,110.97670653951354 110.49274856690317,104.52477447572164 110.49274856690317,97.79230450256728 111.64579785987735,91.62085653445683 109.80091899074614,85.72991361888126 105.88055139407516,82.92469745082781 99.88469506986439,82.08313193893991 94.81127818115056,84.32730595883913 91.12152044288814,88.5351263966877 89.96847114898264,95.5481435037218 89.73786129057407,102.56113941781223 89.27664157282561,109.01307694031857 109.80091899074614,93.02345978678204 110.49274856690317,89.37668956816196 106.80299082957208,83.7662626572419 101.96018379833549,80.4000000001397 94.11944860499352,86.01043504965492 89.96847114898264,91.05981499678455 91.35213030129671,99.75594359473325 88.58481199666858,105.92736992868595 88.35420214012265,111.25722491787747 88.58481199666858,117.98965582833625 93.42761902883649,121.35586395906284 99.88469506986439,123.60000000009313 105.88055139407516,120.79482960957102 110.03152885008603,114.0624068370089 110.49274856690317,107.89100213861093 109.80091899074614,101.15854193037376 110.72335842624307,94.98710291530006 111.18457814306021,88.5351263966877 107.95604012254626,83.7662626572419 102.6520133735612,82.08313193893991 96.65615704935044,83.7662626572419 92.73578945267946,86.57147780805826 90.89091058447957,91.62085653445683 90.42969086673111,98.63386431708932 89.73786129057407,104.52477447572164 87.89298242237419,112.94033447606489 112.10701757762581,90.49877332313918 108.87847955711186,86.8519991368521 104.95811196044087,83.20521922083572 97.34798662550747,82.64417564729229 91.12152044288814,89.09616854530759 89.73786129057407,95.5481435037218 89.5072514321655,103.40269750310108 89.27664157282561,108.17152088950388 88.58481199666858,114.34292484284379 90.66030072513968,119.39224314200692 96.88676690869033,122.75844923895784 103.11323309037834,123.03896619309671 108.4172598393634,117.98965582833625 110.26213870756328,110.97670653951354 110.49274856690317,104.52477447572164 110.49274856690317,97.79230450256728 111.64579785987735,91.62085653445683 109.80091899074614,85.72991361888126 105.88055139407516,82.92469745082781 99.88469506986439,82.08313193893991 94.81127818115056,84.32730595883913 91.12152044288814,88.5351263966877 89.96847114898264,95.5481435037218 89.73786129057407,102.56113941781223 89.27664157282561,109.01307694031857 109.80091899074614,93.02345978678204 110.49274856690317,89.37668956816196 106.80299082957208,83.7662626572419 101.96018379833549,80.4000000001397 94.11944860499352,86.01043504965492 89.96847114898264,91.05981499678455 91.35213030129671,99.75594359473325 88.58481199666858,105.92736992868595 88.35420214012265,111.25722491787747 88.58481199666858,117.98965582833625 93.42761902883649,121.35586395906284 99.88469506986439,123.60000000009313 105.88055139407516,120.79482960957102 110.03152885008603,114.0624068370089 110.49274856690317,107.89100213861093 109.80091899074614,101.15854193037376 110.72335842624307,94.98710291530006 111.18457814306021,88.5351263966877 107.95604012254626,83.7662626572419 102.6520133735612,82.08313193893991 96.65615704935044,83.7662626572419 92.73578945267946,86.57147780805826 90.89091058447957,91.62085653445683 90.42969086673111,98.63386431708932 89.73786129057407,104.52477447572164 87.89298242237419,112.94033447606489 112.10701757762581,90.49877332313918 108.87847955711186,86.8519991368521 104.95811196044087,83.20521922083572 97.34798662550747,82.64417564729229 91.12152044288814,89.09616854530759 89.73786129057407,95.5481435037218 89.5072514321655,103.40269750310108 89.27664157282561,108.17152088950388 88.58481199666858,114.34292484284379 90.66030072513968,119.39224314200692 96.88676690869033,122.75844923895784 103.11323309037834,123.03896619309671 108.4172598393634,117.98965582833625 110.26213870756328,110.97670653951354 110.49274856690317,104.52477447572164 110.49274856690317,97.79230450256728 111.64579785987735,91.62085653445683 109.80091899074614,85.72991361888126 105.88055139407516,82.92469745082781 99.88469506986439,82.08313193893991 94.81127818115056,84.32730595883913 91.12152044288814,88.5351263966877 89.96847114898264,95.5481435037218 89.73786129057407,102.56113941781223 89.27664157282561,109.01307694031857 109.80091899074614,93.02345978678204 110.49274856690317,89.37668956816196 106.80299082957208,83.7662626572419 101.96018379833549,80.4000000001397 94.11944860499352,86.01043504965492 89.96847114898264,91.05981499678455 91.35213030129671,99.75594359473325 88.58481199666858,105.92736992868595 88.35420214012265,111.25722491787747 88.58481199666858,117.98965582833625 93.42761902883649,121.35586395906284 99.88469506986439,123.60000000009313 105.88055139407516,120.79482960957102 110.03152885008603,114.0624068370089 110.49274856690317,107.89100213861093 109.80091899074614,101.15854193037376 110.72335842624307,94.98710291530006 111.18457814306021,88.5351263966877 107.95604012254626,83.7662626572419 102.6520133735612,82.08313193893991 96.65615704935044,83.7662626572419 92.73578945267946,86.57147780805826 90.89091058447957,91.62085653445683 90.42969086673111,98.63386431708932 89.73786129057407,104.52477447572164 87.89298242237419,112.94033447606489 112.10701757762581,90.49877332313918 108.87847955711186,86.8519991368521 104.95811196044087,83.20521922083572 97.34798662550747,82.64417564729229 91.12152044288814,89.09616854530759 89.73786129057407,95.5481435037218 89.5072514321655,103.40269750310108 89.27664157282561,108.17152088950388 88.58481199666858,114.34292484284379 90.66030072513968,119.39224314200692 96.88676690869033,122.75844923895784 103.11323309037834,123.03896619309671 108.4172598393634,117.98965582833625 110.26213870756328,110.97670653951354 110.49274856690317,104.52477447572164 110.49274856690317,97.79230450256728 111.64579785987735,91.62085653445683 109.80091899074614,85.72991361888126 105.88055139407516,82.92469745082781 99.88469506986439,82.08313193893991 94.81127818115056,84.32730595883913 91.12152044288814,88.5351263966877 89.96847114898264,95.5481435037218 89.73786129057407,102.56113941781223 89.27664157282561,109.01307694031857 109.80091899074614,93.02345978678204 110.49274856690317,89.37668956816196 106.80299082957208,83.7662626572419 101.96018379833549,80.4000000001397 94.11944860499352,86.01043504965492 89.96847114898264,91.05981499678455 91.35213030129671,99.75594359473325 88.58481199666858,105.92736992868595 88.35420214012265,111.25722491787747 88.58481199666858,117.98965582833625 93.42761902883649,121.35586395906284 99.88469506986439,123.60000000009313 105.88055139407516,120.79482960957102 110.03152885008603,114.0624068370089 110.49274856690317,107.89100213861093 109.80091899074614,101.15854193037376 110.72335842624307,94.98710291530006 111.18457814306021,88.5351263966877 107.95604012254626,83.7662626572419 102.6520133735612,82.08313193893991 96.65615704935044,83.7662626572419 92.73578945267946,86.57147780805826 90.89091058447957,91.62085653445683 90.42969086673111,98.63386431708932 89.73786129057407,104.52477447572164 87.89298242237419,112.94033447606489 112.10701757762581,90.49877332313918 108.87847955711186,86.8519991368521 104.95811196044087,83.20521922083572 97.34798662550747,82.64417564729229 91.12152044288814,89.09616854530759 89.73786129057407,95.5481435037218 89.5072514321655,103.40269750310108 89.27664157282561,108.17152088950388 88.58481199666858,114.34292484284379 90.66030072513968,119.39224314200692 96.88676690869033,122.75844923895784 103.11323309037834,123.03896619309671 108.4172598393634,117.98965582833625 110.26213870756328,110.97670653951354 110.49274856690317,104.52477447572164 110.49274856690317,97.79230450256728 111.64579785987735,91.62085653445683 109.80091899074614,85.72991361888126 105.88055139407516,82.92469745082781 99.88469506986439,82.08313193893991 94.81127818115056,84.32730595883913 91.12152044288814,88.5351263966877 89.96847114898264,95.5481435037218 89.73786129057407,102.56113941781223 89.27664157282561,109.01307694031857 109.80091899074614,93.02345978678204 110.49274856690317,89.37668956816196 106.80299082957208,83.7662626572419 101.96018379833549,80.4000000001397 94.11944860499352,86.01043504965492 89.96847114898264,91.05981499678455 91.35213030129671,99.75594359473325 88.58481199666858,105.92736992868595 88.35420214012265,111.25722491787747 88.58481199666858,117.98965582833625 93.42761902883649,121.35586395906284 99.88469506986439,123.60000000009313 105.88055139407516,120.79482960957102 110.03152885008603,114.0624068370089 110.49274856690317,107.89100213861093 109.80091899074614,101.15854193037376 110.72335842624307,94.98710291530006 111.18457814306021,88.5351263966877 107.95604012254626,83.7662626572419 102.6520133735612,82.08313193893991 96.65615704935044,83.7662626572419 92.73578945267946,86.57147780805826 90.89091058447957,91.62085653445683 90.42969086673111,98.63386431708932 89.73786129057407,104.52477447572164 87.89298242237419,112.94033447606489 112.10701757762581,90.49877332313918" stroke="#4DD2FF" stroke-dasharray="1,0.5" stroke-linecap="round" stroke-linejoin="round" stroke-width="0.5"><title>2013-11-30 10.3km</title><desc>9223370651086224807</desc></polyline><polyline fill="none" opacity="1" points="156.81536097917706,98.27595390449278 154.85597132146358,102.14906016224995 153.8762764921412,104.83043785206974 154.6110476134345,107.21388223813847 153.63135278597474,110.49111450603232 153.8762764921412,113.76834241603501 153.8762764921412,117.64142432808876 156.08058985695243,119.13106959569268 159.0196743439883,121.21657146001235 162.6935299532488,122.70621456764638 165.87753814645112,123.60000000009313 169.3064700467512,123.00414308090694 172.24555453378707,120.62071396480314 174.93971531279385,117.64142432808876 176.65418126434088,113.47041278565302 176.89910497050732,110.19318448007107 177.14402867853642,106.91595181659795 177.14402867853642,103.34078393992968 176.4092575563118,99.76561087812297 177.14402867853642,96.19043263071217 177.3889523865655,93.2111134622246 178.36864721402526,89.63592570601031 177.87879979982972,86.3586657079868 176.4092575563118,83.3793346544262 174.44986789952964,81.29380077449605 172.24555453378707,80.4000000001397" stroke="#4DD2FF" stroke-dasharray="none" stroke-linecap="round" stroke-linejoin="round" stroke-width="0.5"><title>2013-11-16 10.4km</title><desc>9223370652294258807</desc></polyline><polyline fill="none" opacity="1" points="22.28533805720508,155.10008875629865 22.038713595829904,158.10008077835664 22.28533805720508,163.20005889236927 23.271835904568434,165.60004496737383 25.73808052483946,167.7000308786519 30.42394530121237,171.60000000009313 34.36993669252843,171.60000000009313 38.06930362153798,170.40001015365124 40.28892377950251,169.20001972699538 43.001792861148715,165.90004306309856 43.74166624620557,163.20005889236927 43.49504178483039,159.000077677425 43.98829070944339,154.2000904425513 44.97478855680674,151.20009370637126 45.714661941863596,147.60009283619002 45.714661941863596,144.00008674431592 45.961286404170096,139.80007303715684 45.46803748048842,135.90005394420587 43.248417323455215,132.6000330010429 40.53554824180901,130.50001738895662 36.34293238911778,128.4000000001397 32.6435654591769,129.00000514974818 29.19082299247384,130.50001738895662 25.98470498714596,132.0000287219882 23.271835904568434,135.00004866719246 22.531962518580258,140.40007542981766 22.77858698181808,144.00008674431592 22.28533805720508,147.60009283619002" stroke="#4DD2FF" stroke-dasharray="none" stroke-linecap="round" stroke-linejoin="round" stroke-width="0.5"><title>2013-11-03 10.7km</title><desc>9223370653417861807</desc></polyline><polyline fill="none" opacity="0.5" points="92.62917742691934,135.46420772955753 91.73574438877404,141.4415969287511 89.94887830968946,146.60387480724603 91.73574438877404,154.21142059750855 89.05544527154416,156.11330302152783 88.83208701107651,163.17742365039885 99.77664174046367,167.52456377167255 103.12701563630253,167.52456377167255 108.04089735168964,163.99251306336373 108.93433039076626,160.46045680507086 107.59418083168566,158.83027512137778 110.27447994984686,155.84160563116893 110.27447994984686,149.32085840264335 110.27447994984686,141.98499515815638 109.38104691077024,133.01890756678768 103.5737321563065,129.21510202554055 96.64962610416114,130.30190426576883 90.61895308922976,133.01890756678768 90.17223657015711,140.3548000745941 88.83208701107651,147.4189702309668 89.05544527154416,155.0265132614877 88.83208701107651,161.54724393785 97.98977566231042,168.61134748952463 103.35037389583886,171.60000000009313 109.15768865030259,162.6340305446647 109.60440516937524,158.55857805884443 108.93433039076626,148.77746194624342 109.60440516937524,142.80009225662798 109.82776342984289,135.73590758326463 106.92410605214536,130.57360474346206 100.0,129.48680263455026 93.7459687255323,130.57360474346206 88.83208701107651,135.46420772955753 89.27880353014916,139.53970208973624 88.60872875060886,145.788779088296 88.38537049200386,150.13595284055918 88.60872875060886,156.92839499609545 91.51238612923771,166.1660833877977 97.09634262230247,168.3396516093053 102.01022433675826,169.15473914984614 107.37082257214934,168.61134748952463 108.04089735168964,158.28688096394762 108.93433039076626,146.87557331495918 110.49783820938319,142.80009225662798 111.16791298892349,136.55100694834255 107.14746431168169,129.48680263455026 100.0,128.67170070810243 91.06566960923374,131.9321066401899 99.3299252204597,129.21510202554055 93.7459687255323,132.20380692067556 92.18246090784669,137.90950523223728 90.39559482969344,144.158586763544 90.17223657015711,150.67934896843508 88.83208701107651,155.0265132614877 88.38537049200386,157.47178948204964 94.19268524646759,166.1660833877977 101.11679129954427,167.52456377167255 105.80731475353241,168.3396516093053 108.71097213122994,162.90572711406276 109.60440516937524,159.101972151082 108.93433039076626,158.01518383715302 110.05112169031054,150.67934896843508 109.82776342984289,146.06047769379802 109.82776342984289,136.55100694834255 107.59418083168566,129.48680263455026 99.77664174046367,128.94340138346888 93.7459687255323,132.4755071690306 90.39559482969344,137.36610601702705 89.94887830968946,143.8868879280053 89.27880353014916,151.49444291344844 88.83208701107651,159.101972151082 92.40581916645169,165.62269100314006 100.44671652000397,169.96982639585622 107.37082257214934,167.79625975061208 109.60440516937524,159.64536611153744 109.15768865030259,153.12462991802022 109.38104691077024,146.06047769379802 111.16791298892349,138.72460380825214 108.48761387076229,134.10570796765387 104.2438069358468,129.75850321073085 95.97955132462084,130.30190426576883 90.84231134969741,132.4755071690306 88.60872875060886,138.18120479094796 88.16201223153621,142.52839325624518 88.83208701107651,147.4189702309668 88.83208701107651,153.6680253231898 88.83208701107651,161.27554720430635 95.7561930641532,168.61134748952463 100.0,169.96982639585622 105.13723997492343,171.32830448099412 108.93433039076626,162.36233394173905 109.15768865030259,151.2227449649945 108.93433039076626,145.51708045019768 111.83798776753247,140.62649933691137 109.38104691077024,131.9321066401899 104.02044867537916,128.4000000001397 95.0861182846129,130.30190426576883 90.61895308922976,133.29060771595687 95.97955132462084,130.57360474346206 92.62917742691934,135.46420772955753 91.73574438877404,141.4415969287511 89.94887830968946,146.60387480724603 91.73574438877404,154.21142059750855 89.05544527154416,156.11330302152783 88.83208701107651,163.17742365039885 99.77664174046367,167.52456377167255 103.12701563630253,167.52456377167255 108.04089735168964,163.99251306336373 108.93433039076626,160.46045680507086 107.59418083168566,158.83027512137778 110.27447994984686,155.84160563116893 110.27447994984686,149.32085840264335 110.27447994984686,141.98499515815638 109.38104691077024,133.01890756678768 103.5737321563065,129.21510202554055 96.64962610416114,130.30190426576883 90.61895308922976,133.01890756678768 90.17223657015711,140.3548000745941 88.83208701107651,147.4189702309668 89.05544527154416,155.0265132614877 88.83208701107651,161.54724393785 97.98977566231042,168.61134748952463 103.35037389583886,171.60000000009313 109.15768865030259,162.6340305446647 109.60440516937524,158.55857805884443 108.93433039076626,148.77746194624342 109.60440516937524,142.80009225662798 109.82776342984289,135.73590758326463 106.92410605214536,130.57360474346206 100.0,129.48680263455026 93.7459687255323,130.57360474346206 88.83208701107651,135.46420772955753 89.27880353014916,139.53970208973624 88.60872875060886,145.788779088296 88.38537049200386,150.13595284055918 88.60872875060886,156.92839499609545 91.51238612923771,166.1660833877977 97.09634262230247,168.3396516093053 102.01022433675826,169.15473914984614 107.37082257214934,168.61134748952463 108.04089735168964,158.28688096394762 108.93433039076626,146.87557331495918 110.49783820938319,142.80009225662798 111.16791298892349,136.55100694834255 107.14746431168169,129.48680263455026 100.0,128.67170070810243 91.06566960923374,131.9321066401899 99.3299252204597,129.21510202554055 93.7459687255323,132.20380692067556 92.18246090784669,137.90950523223728 90.39559482969344,144.158586763544 90.17223657015711,150.67934896843508 88.83208701107651,155.0265132614877 88.38537049200386,157.47178948204964 94.19268524646759,166.1660833877977 101.11679129954427,167.52456377167255 105.80731475353241,168.3396516093053 108.71097213122994,162.90572711406276 109.60440516937524,159.101972151082 108.93433039076626,158.01518383715302 110.05112169031054,150.67934896843508 109.82776342984289,146.06047769379802 109.82776342984289,136.55100694834255 107.59418083168566,129.48680263455026 99.77664174046367,128.94340138346888 93.7459687255323,132.4755071690306 90.39559482969344,137.36610601702705 89.94887830968946,143.8868879280053 89.27880353014916,151.49444291344844 88.83208701107651,159.101972151082 92.40581916645169,165.62269100314006 100.44671652000397,169.96982639585622 107.37082257214934,167.79625975061208 109.60440516937524,159.64536611153744 109.15768865030259,153.12462991802022 109.38104691077024,146.06047769379802 111.16791298892349,138.72460380825214 108.48761387076229,134.10570796765387 104.2438069358468,129.75850321073085 95.97955132462084,130.30190426576883 90.84231134969741,132.4755071690306 88.60872875060886,138.18120479094796 88.16201223153621,142.52839325624518 88.83208701107651,147.4189702309668 88.83208701107651,153.6680253231898 88.83208701107651,161.27554720430635 95.7561930641532,168.61134748952463 100.0,169.96982639585622 105.13723997492343,171.32830448099412 108.93433039076626,162.36233394173905 109.15768865030259,151.2227449649945 108.93433039076626,145.51708045019768 111.83798776753247,140.62649933691137 109.38104691077024,131.9321066401899 104.02044867537916,128.4000000001397 95.0861182846129,130.30190426576883 90.61895308922976,133.29060771595687 95.97955132462084,130.57360474346206 92.62917742691934,135.46420772955753 91.73574438877404,141.4415969287511 89.94887830968946,146.60387480724603 91.73574438877404,154.21142059750855 89.05544527154416,156.11330302152783 88.83208701107651,163.17742365039885 99.77664174046367,167.52456377167255 103.12701563630253,167.52456377167255 108.04089735168964,163.99251306336373 108.93433039076626,160.46045680507086 107.59418083168566,158.83027512137778 110.27447994984686,155.84160563116893 110.27447994984686,149.32085840264335 110.27447994984686,141.98499515815638 109.38104691077024,133.01890756678768 103.5737321563065,129.21510202554055 96.64962610416114,130.30190426576883 90.61895308922976,133.01890756678768 90.17223657015711,140.3548000745941 88.83208701107651,147.4189702309668 89.05544527154416,155.0265132614877 88.83208701107651,161.54724393785 97.98977566231042,168.61134748952463 103.35037389583886,171.60000000009313 109.15768865030259,162.6340305446647 109.60440516937524,158.55857805884443 108.93433039076626,148.77746194624342 109.60440516937524,142.80009225662798 109.82776342984289,135.73590758326463 106.92410605214536,130.57360474346206 100.0,129.48680263455026 93.7459687255323,130.57360474346206 88.83208701107651,135.46420772955753 89.27880353014916,139.53970208973624 88.60872875060886,145.788779088296 88.38537049200386,150.13595284055918 88.60872875060886,156.92839499609545 91.51238612923771,166.1660833877977 97.09634262230247,168.3396516093053 102.01022433675826,169.15473914984614 107.37082257214934,168.61134748952463 108.04089735168964,158.28688096394762 108.93433039076626,146.87557331495918 110.49783820938319,142.80009225662798 111.16791298892349,136.55100694834255 107.14746431168169,129.48680263455026 100.0,128.67170070810243 91.06566960923374,131.9321066401899 99.3299252204597,129.21510202554055 93.7459687255323,132.20380692067556 92.18246090784669,137.90950523223728 90.39559482969344,144.158586763544 90.17223657015711,150.67934896843508 88.83208701107651,155.0265132614877 88.38537049200386,157.47178948204964 94.19268524646759,166.1660833877977 101.11679129954427,167.52456377167255 105.80731475353241,168.3396516093053 108.71097213122994,162.90572711406276 109.60440516937524,159.101972151082 108.93433039076626,158.01518383715302 110.05112169031054,150.67934896843508 109.82776342984289,146.06047769379802 109.82776342984289,136.55100694834255 107.59418083168566,129.48680263455026 99.77664174046367,128.94340138346888 93.7459687255323,132.4755071690306 90.39559482969344,137.36610601702705 89.94887830968946,143.8868879280053 89.27880353014916,151.49444291344844 88.83208701107651,159.101972151082 92.40581916645169,165.62269100314006 100.44671652000397,169.96982639585622 107.37082257214934,167.79625975061208 109.60440516937524,159.64536611153744 109.15768865030259,153.12462991802022 109.38104691077024,146.06047769379802 111.16791298892349,138.72460380825214 108.48761387076229,134.10570796765387 104.2438069358468,129.75850321073085 95.97955132462084,130.30190426576883 90.84231134969741,132.4755071690306 88.60872875060886,138.18120479094796 88.16201223153621,142.52839325624518 88.83208701107651,147.4189702309668 88.83208701107651,153.6680253231898 88.83208701107651,161.27554720430635 95.7561930641532,168.61134748952463 100.0,169.96982639585622 105.13723997492343,171.32830448099412 108.93433039076626,162.36233394173905 109.15768865030259,151.2227449649945 108.93433039076626,145.51708045019768 111.83798776753247,140.62649933691137 109.38104691077024,131.9321066401899 104.02044867537916,128.4000000001397 95.0861182846129,130.30190426576883 90.61895308922976,133.29060771595687 95.97955132462084,130.57360474346206 92.62917742691934,135.46420772955753 91.73574438877404,141.4415969287511 89.94887830968946,146.60387480724603 91.73574438877404,154.21142059750855 89.05544527154416,156.11330302152783 88.83208701107651,163.17742365039885 99.77664174046367,167.52456377167255 103.12701563630253,167.52456377167255 108.04089735168964,163.99251306336373 108.93433039076626,160.46045680507086 107.59418083168566,158.83027512137778 110.27447994984686,155.84160563116893 110.27447994984686,149.32085840264335 110.27447994984686,141.98499515815638 109.38104691077024,133.01890756678768 103.5737321563065,129.21510202554055 96.64962610416114,130.30190426576883 90.61895308922976,133.01890756678768 90.17223657015711,140.3548000745941 88.83208701107651,147.4189702309668 89.05544527154416,155.0265132614877 88.83208701107651,161.54724393785 97.98977566231042,168.61134748952463 103.35037389583886,171.60000000009313 109.15768865030259,162.6340305446647 109.60440516937524,158.55857805884443 108.93433039076626,148.77746194624342 109.60440516937524,142.80009225662798 109.82776342984289,135.73590758326463 106.92410605214536,130.57360474346206 100.0,129.48680263455026 93.7459687255323,130.57360474346206 88.83208701107651,135.46420772955753 89.27880353014916,139.53970208973624 88.60872875060886,145.788779088296 88.38537049200386,150.13595284055918 88.60872875060886,156.92839499609545 91.51238612923771,166.1660833877977 97.09634262230247,168.3396516093053 102.01022433675826,169.15473914984614 107.37082257214934,168.61134748952463 108.04089735168964,158.28688096394762 108.93433039076626,146.87557331495918 110.49783820938319,142.80009225662798 111.16791298892349,136.55100694834255 107.14746431168169,129.48680263455026 100.0,128.67170070810243 91.06566960923374,131.9321066401899 99.3299252204597,129.21510202554055 93.7459687255323,132.20380692067556 92.18246090784669,137.90950523223728 90.39559482969344,144.158586763544 90.17223657015711,150.67934896843508 88.83208701107651,155.0265132614877 88.38537049200386,157.47178948204964 94.19268524646759,166.1660833877977 101.11679129954427,167.52456377167255 105.80731475353241,168.3396516093053 108.71097213122994,162.90572711406276 109.60440516937524,159.101972151082 108.93433039076626,158.01518383715302 110.05112169031054,150.67934896843508 109.82776342984289,146.06047769379802" stroke="#4DD2FF" stroke-dasharray="1,0.5" stroke-linecap="round" stroke-linejoin="round" stroke-width="0.5"><title>2013-11-02 10.5km</title><desc>9223370653505000807</desc></polyline><polyline fill="none" opacity="1" points="158.62917742691934,135.46420772955753 158.1824609078467,137.90950523223728 157.73574438877404,141.4415969287511 156.39559482969344,144.158586763544 155.94887830968946,146.60387480724603 156.1722365701571,150.67934896843508 157.73574438877404,154.21142059750855 154.8320870110765,155.0265132614877 155.05544527154416,156.11330302152783 154.38537049200386,157.47178948204964 154.8320870110765,163.17742365039885 160.1926852464676,166.1660833877977 165.77664174046367,167.52456377167255 167.11679129954427,167.52456377167255 169.12701563630253,167.52456377167255 171.8073147535324,168.3396516093053 174.04089735168964,163.99251306336373 174.71097213122994,162.90572711406276 174.93433039076626,160.46045680507086 175.60440516937524,159.101972151082 173.59418083168566,158.83027512137778 174.93433039076626,158.01518383715302 176.27447994984686,155.84160563116893 176.05112169031054,150.67934896843508 176.27447994984686,149.32085840264335 175.8277634298429,146.06047769379802 176.27447994984686,141.98499515815638 175.8277634298429,136.55100694834255 175.38104691077024,133.01890756678768 173.59418083168566,129.48680263455026 169.5737321563065,129.21510202554055 165.77664174046367,128.94340138346888 162.64962610416114,130.30190426576883 159.7459687255323,132.4755071690306 156.61895308922976,133.01890756678768 156.39559482969344,137.36610601702705 156.1722365701571,140.3548000745941 155.94887830968946,143.8868879280053 154.8320870110765,147.4189702309668 155.27880353014916,151.49444291344844 155.05544527154416,155.0265132614877 154.8320870110765,159.101972151082 154.8320870110765,161.54724393785 158.4058191664517,165.62269100314006 163.98977566231042,168.61134748952463 166.44671652000397,169.96982639585622 169.35037389583886,171.60000000009313 173.37082257214934,167.79625975061208 175.1576886503026,162.6340305446647 175.60440516937524,159.64536611153744 175.60440516937524,158.55857805884443 175.1576886503026,153.12462991802022 174.93433039076626,148.77746194624342 175.38104691077024,146.06047769379802 175.60440516937524,142.80009225662798 177.1679129889235,138.72460380825214 175.8277634298429,135.73590758326463 174.4876138707623,134.10570796765387 172.92410605214536,130.57360474346206 170.2438069358468,129.75850321073085 166.0,129.48680263455026 161.97955132462084,130.30190426576883 159.7459687255323,130.57360474346206 156.8423113496974,132.4755071690306 154.8320870110765,135.46420772955753 154.60872875060886,138.18120479094796 155.27880353014916,139.53970208973624 154.1620122315362,142.52839325624518 154.60872875060886,145.788779088296 154.8320870110765,147.4189702309668 154.38537049200386,150.13595284055918 154.8320870110765,153.6680253231898 154.60872875060886,156.92839499609545 154.8320870110765,161.27554720430635 157.5123861292377,166.1660833877977 161.7561930641532,168.61134748952463 163.09634262230247,168.3396516093053 166.0,169.96982639585622 168.01022433675826,169.15473914984614 171.13723997492343,171.32830448099412 173.37082257214934,168.61134748952463 174.93433039076626,162.36233394173905 174.04089735168964,158.28688096394762 175.1576886503026,151.2227449649945 174.93433039076626,146.87557331495918 174.93433039076626,145.51708045019768 176.4978382093832,142.80009225662798 177.83798776753247,140.62649933691137 177.1679129889235,136.55100694834255 175.38104691077024,131.9321066401899 173.1474643116817,129.48680263455026 170.02044867537916,128.4000000001397" stroke="#4DD2FF" stroke-dasharray="none" stroke-linecap="round" stroke-linejoin="round" stroke-width="0.5"><title>2013-10-26 11.1km</title><desc>9223370654110301807</desc></polyline><polyline fill="none" opacity="1" points="38.2055965969339,177.25263925665058 34.93457702267915,176.4000000001397 31.429913191124797,177.82106525660492 28.626182126812637,180.09476788225584 26.056095317937434,182.6526807071641 25.588806807994843,185.77901482582092 25.588806807994843,189.4737679695245 25.12151829712093,192.60009301709943 24.654229786247015,196.86325683817267 21.850498721934855,199.9895720607601 22.31778723280877,203.68430287321098 22.084142977371812,207.94744659680873 22.551431487314403,211.07374708005227 22.551431487314403,213.91583482245915 24.654229786247015,216.75791912851855 27.691605105996132,219.0315841003321 30.962624681182206,219.60000000009313 34.93457702267915,219.0315841003321 37.50466383062303,217.610543750925 41.242971915751696,215.90529419737868 42.177548938430846,213.6316262029577 43.81305872555822,210.22112008789554 44.280347236432135,206.81060902611353 44.280347236432135,203.1158831268549 44.74763574730605,199.70536175812595 45.4485685126856,195.4422030900605 45.682212768122554,192.0316705906298 46.14950127899647,189.18955639493652 45.91585702355951,185.49480280443095 44.981280002743006,181.80004340759479 42.878481704741716,179.24212965508923 39.8411063849926,178.10527820512652 36.33644255436957,177.53685227409005 32.83177872374654,177.53685227409005 29.560759149491787,178.95791684417054 26.056095317937434,181.23161837016232 24.654229786247015,184.07374218595214 25.355162551626563,188.33692146651447 23.953297019936144,191.74745932617225" stroke="#4DD2FF" stroke-dasharray="none" stroke-linecap="round" stroke-linejoin="round" stroke-width="0.5"><title>2013-10-20 10.7km</title><desc>9223370654628121807</desc></polyline><polyline fill="none" opacity="0.5" points="110.09471451491117,197.11242390889674 111.79743744432926,190.60282385186292 109.36497611645609,179.95071368920617 101.82434599753469,176.4000000001397 95.98643880710006,179.35892843198963 92.58099294733256,184.38909855671227 89.6620393525809,193.56173511454836 88.20256255567074,200.66310755256563 88.68905482254922,207.76445938879624 95.01345427706838,219.00822432828136 101.58109986409545,219.60000000009313 107.66225318517536,216.34523203712888 109.85146838147193,208.35623777774163 110.09471451491117,200.66310755256563 111.06769904587418,194.1535169375129 111.55419131275266,186.164450250566 106.68926865514368,177.87946466286667 98.90539240278304,176.6958930043038 93.31073134578764,181.4301762059331 91.12151614949107,189.12336687906645 89.6620393525809,197.11242390889674 88.44580868817866,204.50967568764463 88.20256255567074,211.31512758042663 98.66214626841247,219.00822432828136 104.98654572386295,218.1205605531577 109.36497611645609,212.79457114078104 110.09471451491117,203.6220066549722 110.09471451491117,197.11242390889674 111.79743744432926,190.60282385186292 109.36497611645609,179.95071368920617 101.82434599753469,176.4000000001397 95.98643880710006,179.35892843198963 92.58099294733256,184.38909855671227 89.6620393525809,193.56173511454836 88.20256255567074,200.66310755256563 88.68905482254922,207.76445938879624 95.01345427706838,219.00822432828136 101.58109986409545,219.60000000009313 107.66225318517536,216.34523203712888 109.85146838147193,208.35623777774163 110.09471451491117,200.66310755256563 111.06769904587418,194.1535169375129 111.55419131275266,186.164450250566 106.68926865514368,177.87946466286667 98.90539240278304,176.6958930043038 93.31073134578764,181.4301762059331 91.12151614949107,189.12336687906645 89.6620393525809,197.11242390889674 88.44580868817866,204.50967568764463 88.20256255567074,211.31512758042663 98.66214626841247,219.00822432828136 104.98654572386295,218.1205605531577 109.36497611645609,212.79457114078104 110.09471451491117,203.6220066549722 110.09471451491117,197.11242390889674 111.79743744432926,190.60282385186292 109.36497611645609,179.95071368920617 101.82434599753469,176.4000000001397 95.98643880710006,179.35892843198963 92.58099294733256,184.38909855671227 89.6620393525809,193.56173511454836 88.20256255567074,200.66310755256563 88.68905482254922,207.76445938879624 95.01345427706838,219.00822432828136 101.58109986409545,219.60000000009313 107.66225318517536,216.34523203712888 109.85146838147193,208.35623777774163 110.09471451491117,200.66310755256563 111.06769904587418,194.1535169375129 111.55419131275266,186.164450250566 106.68926865514368,177.87946466286667 98.90539240278304,176.6958930043038 93.31073134578764,181.4301762059331 91.12151614949107,189.12336687906645 89.6620393525809,197.11242390889674 88.44580868817866,204.50967568764463 88.20256255567074,211.31512758042663 98.66214626841247,219.00822432828136 104.98654572386295,218.1205605531577 109.36497611645609,212.79457114078104 110.09471451491117,203.6220066549722 110.09471451491117,197.11242390889674 111.79743744432926,190.60282385186292 109.36497611645609,179.95071368920617 101.82434599753469,176.4000000001397 95.98643880710006,179.35892843198963 92.58099294733256,184.38909855671227 89.6620393525809,193.56173511454836 88.20256255567074,200.66310755256563 88.68905482254922,207.76445938879624 95.01345427706838,219.00822432828136 101.58109986409545,219.60000000009313 107.66225318517536,216.34523203712888 109.85146838147193,208.35623777774163 110.09471451491117,200.66310755256563 111.06769904587418,194.1535169375129 111.55419131275266,186.164450250566 106.68926865514368,177.87946466286667 98.90539240278304,176.6958930043038 93.31073134578764,181.4301762059331 91.12151614949107,189.12336687906645 89.6620393525809,197.11242390889674 88.44580868817866,204.50967568764463 88.20256255567074,211.31512758042663 98.66214626841247,219.00822432828136 104.98654572386295,218.1205605531577 109.36497611645609,212.79457114078104 110.09471451491117,203.6220066549722 110.09471451491117,197.11242390889674 111.79743744432926,190.60282385186292 109.36497611645609,179.95071368920617 101.82434599753469,176.4000000001397 95.98643880710006,179.35892843198963 92.58099294733256,184.38909855671227 89.6620393525809,193.56173511454836 88.20256255567074,200.66310755256563 88.68905482254922,207.76445938879624 95.01345427706838,219.00822432828136 101.58109986409545,219.60000000009313 107.66225318517536,216.34523203712888 109.85146838147193,208.35623777774163 110.09471451491117,200.66310755256563 111.06769904587418,194.1535169375129 111.55419131275266,186.164450250566 106.68926865514368,177.87946466286667 98.90539240278304,176.6958930043038 93.31073134578764,181.4301762059331 91.12151614949107,189.12336687906645 89.6620393525809,197.11242390889674 88.44580868817866,204.50967568764463 88.20256255567074,211.31512758042663 98.66214626841247,219.00822432828136 104.98654572386295,218.1205605531577 109.36497611645609,212.79457114078104 110.09471451491117,203.6220066549722 110.09471451491117,197.11242390889674 111.79743744432926,190.60282385186292 109.36497611645609,179.95071368920617 101.82434599753469,176.4000000001397 95.98643880710006,179.35892843198963 92.58099294733256,184.38909855671227 89.6620393525809,193.56173511454836 88.20256255567074,200.66310755256563 88.68905482254922,207.76445938879624 95.01345427706838,219.00822432828136 101.58109986409545,219.60000000009313 107.66225318517536,216.34523203712888 109.85146838147193,208.35623777774163 110.09471451491117,200.66310755256563 111.06769904587418,194.1535169375129 111.55419131275266,186.164450250566 106.68926865514368,177.87946466286667 98.90539240278304,176.6958930043038 93.31073134578764,181.4301762059331 91.12151614949107,189.12336687906645 89.6620393525809,197.11242390889674 88.44580868817866,204.50967568764463 88.20256255567074,211.31512758042663 98.66214626841247,219.00822432828136 104.98654572386295,218.1205605531577 109.36497611645609,212.79457114078104 110.09471451491117,203.6220066549722 110.09471451491117,197.11242390889674 111.79743744432926,190.60282385186292 109.36497611645609,179.95071368920617 101.82434599753469,176.4000000001397 95.98643880710006,179.35892843198963 92.58099294733256,184.38909855671227 89.6620393525809,193.56173511454836 88.20256255567074,200.66310755256563 88.68905482254922,207.76445938879624 95.01345427706838,219.00822432828136 101.58109986409545,219.60000000009313 107.66225318517536,216.34523203712888 109.85146838147193,208.35623777774163 110.09471451491117,200.66310755256563 111.06769904587418,194.1535169375129 111.55419131275266,186.164450250566 106.68926865514368,177.87946466286667 98.90539240278304,176.6958930043038 93.31073134578764,181.4301762059331 91.12151614949107,189.12336687906645 89.6620393525809,197.11242390889674 88.44580868817866,204.50967568764463 88.20256255567074,211.31512758042663 98.66214626841247,219.00822432828136 104.98654572386295,218.1205605531577 109.36497611645609,212.79457114078104 110.09471451491117,203.6220066549722 110.09471451491117,197.11242390889674 111.79743744432926,190.60282385186292 109.36497611645609,179.95071368920617 101.82434599753469,176.4000000001397 95.98643880710006,179.35892843198963 92.58099294733256,184.38909855671227 89.6620393525809,193.56173511454836 88.20256255567074,200.66310755256563 88.68905482254922,207.76445938879624 95.01345427706838,219.00822432828136 101.58109986409545,219.60000000009313 107.66225318517536,216.34523203712888 109.85146838147193,208.35623777774163 110.09471451491117,200.66310755256563 111.06769904587418,194.1535169375129 111.55419131275266,186.164450250566 106.68926865514368,177.87946466286667 98.90539240278304,176.6958930043038 93.31073134578764,181.4301762059331 91.12151614949107,189.12336687906645 89.6620393525809,197.11242390889674 88.44580868817866,204.50967568764463 88.20256255567074,211.31512758042663 98.66214626841247,219.00822432828136 104.98654572386295,218.1205605531577 109.36497611645609,212.79457114078104 110.09471451491117,203.6220066549722 110.09471451491117,197.11242390889674 111.79743744432926,190.60282385186292 109.36497611645609,179.95071368920617 101.82434599753469,176.4000000001397 95.98643880710006,179.35892843198963 92.58099294733256,184.38909855671227 89.6620393525809,193.56173511454836 88.20256255567074,200.66310755256563 88.68905482254922,207.76445938879624 95.01345427706838,219.00822432828136 101.58109986409545,219.60000000009313 107.66225318517536,216.34523203712888 109.85146838147193,208.35623777774163 110.09471451491117,200.66310755256563 111.06769904587418,194.1535169375129 111.55419131275266,186.164450250566 106.68926865514368,177.87946466286667 98.90539240278304,176.6958930043038 93.31073134578764,181.4301762059331 91.12151614949107,189.12336687906645 89.6620393525809,197.11242390889674 88.44580868817866,204.50967568764463 88.20256255567074,211.31512758042663 98.66214626841247,219.00822432828136 104.98654572386295,218.1205605531577 109.36497611645609,212.79457114078104 110.09471451491117,203.6220066549722 110.09471451491117,197.11242390889674 111.79743744432926,190.60282385186292 109.36497611645609,179.95071368920617 101.82434599753469,176.4000000001397 95.98643880710006,179.35892843198963 92.58099294733256,184.38909855671227 89.6620393525809,193.56173511454836 88.20256255567074,200.66310755256563 88.68905482254922,207.76445938879624 95.01345427706838,219.00822432828136 101.58109986409545,219.60000000009313 107.66225318517536,216.34523203712888 109.85146838147193,208.35623777774163 110.09471451491117,200.66310755256563 111.06769904587418,194.1535169375129 111.55419131275266,186.164450250566 106.68926865514368,177.87946466286667 98.90539240278304,176.6958930043038 93.31073134578764,181.4301762059331 91.12151614949107,189.12336687906645 89.6620393525809,197.11242390889674 88.44580868817866,204.50967568764463 88.20256255567074,211.31512758042663 98.66214626841247,219.00822432828136 104.98654572386295,218.1205605531577 109.36497611645609,212.79457114078104 110.09471451491117,203.6220066549722 110.09471451491117,197.11242390889674 111.79743744432926,190.60282385186292 109.36497611645609,179.95071368920617 101.82434599753469,176.4000000001397 95.98643880710006,179.35892843198963 92.58099294733256,184.38909855671227 89.6620393525809,193.56173511454836 88.20256255567074,200.66310755256563 88.68905482254922,207.76445938879624 95.01345427706838,219.00822432828136 101.58109986409545,219.60000000009313 107.66225318517536,216.34523203712888 109.85146838147193,208.35623777774163 110.09471451491117,200.66310755256563 111.06769904587418,194.1535169375129 111.55419131275266,186.164450250566 106.68926865514368,177.87946466286667 98.90539240278304,176.6958930043038 93.31073134578764,181.4301762059331 91.12151614949107,189.12336687906645 89.6620393525809,197.11242390889674 88.44580868817866,204.50967568764463 88.20256255567074,211.31512758042663 98.66214626841247,219.00822432828136 104.98654572386295,218.1205605531577 109.36497611645609,212.79457114078104 110.09471451491117,203.6220066549722 110.09471451491117,197.11242390889674 111.79743744432926,190.60282385186292 109.36497611645609,179.95071368920617 101.82434599753469,176.4000000001397 95.98643880710006,179.35892843198963 92.58099294733256,184.38909855671227 89.6620393525809,193.56173511454836 88.20256255567074,200.66310755256563 88.68905482254922,207.76445938879624 95.01345427706838,219.00822432828136 101.58109986409545,219.60000000009313 107.66225318517536,216.34523203712888 109.85146838147193,208.35623777774163 110.09471451491117,200.66310755256563 111.06769904587418,194.1535169375129 111.55419131275266,186.164450250566 106.68926865514368,177.87946466286667 98.90539240278304,176.6958930043038 93.31073134578764,181.4301762059331 91.12151614949107,189.12336687906645 89.6620393525809,197.11242390889674 88.44580868817866,204.50967568764463 88.20256255567074,211.31512758042663 98.66214626841247,219.00822432828136 104.98654572386295,218.1205605531577" stroke="#4DD2FF" stroke-dasharray="1,0.5" stroke-linecap="round" stroke-linejoin="round" stroke-width="0.5"><title>2013-10-19 10.2km</title><desc>9223370654714312807</desc></polyline><polyline fill="none" opacity="1" points="175.89312227629125,219.60000000009313 177.92248069122434,213.42859380785376 179.44449950009584,206.02289653290063 178.9371598996222,196.76575982989743 174.3711034655571,183.80574024794623 168.79036782309413,179.4857264086604 158.64357574656606,176.39999999990687 152.55550049990416,177.0171454316005" stroke="#4DD2FF" stroke-dasharray="none" stroke-linecap="round" stroke-linejoin="round" stroke-width="0.5"><title>2013-10-12 10.6km</title><desc>9223370655320152807</desc></polyline><polyline fill="none" opacity="1" points="35.23312290664762,224.4000000001397 31.040505025535822,226.50001738918945 29.560757538303733,229.50003914744593 28.574259214103222,233.10006047063507 28.82088379468769,237.30007874732837 28.82088379468769,240.90008875681087 29.067508375272155,244.2000933443196 28.82088379468769,248.10009310767055 27.09451172593981,250.80008935532533 26.354637982323766,253.80008173920214 26.1080134017393,256.8000704967417 27.09451172593981,259.8000556291081 28.32763463165611,262.2000411229674 30.05400670133531,265.2000197279267 33.260126256383955,266.7000076700933 36.71287039387971,266.7000076700933 41.8919865982607,267.60000000009313" stroke="#4DD2FF" stroke-dasharray="none" stroke-linecap="round" stroke-linejoin="round" stroke-width="0.5"><title>2013-10-06 10.6km</title><desc>9223370655838244807</desc></polyline><polyline fill="none" opacity="1" points="105.3386932676658,266.75294885621406 107.42774715367705,264.4941443030257 108.82044974528253,262.2353375663515 109.74891814030707,258.2824205197394 109.51680104155093,255.17655243421905 110.44526943657547,251.22362344246358 110.44526943657547,247.55304053169675 110.21315233688802,243.8824518523179 109.9810352390632,239.08244256977923 110.44526943657547,235.6941947832238 111.14162073191255,234.28242342197336 110.44526943657547,231.45887813949957 108.12409844994545,228.91768446704373 105.10657616890967,226.09413269883953 103.0175222819671,225.24706650385633 99.76788290217519,225.8117773346603 96.28612642269582,225.8117773346603 94.42918963450938,226.65884332545102 93.26860414259136,229.76474933116697 91.64378445129842,232.5882966623176 91.4116673534736,235.6941947832238 90.7153160572052,239.3647963295225 90.01896476279944,243.3177453908138 89.55473056435585,245.85892339702696 88.85837926901877,248.9648038719315 88.85837926901877,252.35303240828216 87.92991087492555,255.7412560300436 87.46567667741328,258.2824205197394 87.6977937752381,261.3882844764739 88.85837926901877,263.92944282339886 91.87590155098587,266.4705984061584 95.58977512735873,267.3176496522501 99.76788290217519,267.60000000009313 103.48175647854805,267.03529927134514 106.03504456300288,265.0588456459809 108.82044974528253,262.80003945482895 109.9810352390632,258.56477195979096 110.44526943657547,255.7412560300436 110.90950363315642,252.63538456498645 111.14162073191255,249.81186146731488 111.6058549284935,245.85892339702696 111.83797202818096,243.60009863856249 112.07008912600577,240.4942110304255 112.3022062247619,237.6706732562743 112.53432332258672,234.56477776309475 111.83797202818096,231.7412328212522 110.67738653440028,229.20003945659846 108.35621554870158,226.65884332545102 105.80292746517807,225.24706650385633 103.0175222819671,224.39999999990687 100.6963512962684,224.9647110356018 96.75036062020808,225.52942193625495 93.96495543792844,227.2235538160894 92.57225284632295,230.89416867331602 90.94743315596133,235.41184057947248 90.01896476279944,238.23538108426146 89.78684766311198,240.4942110304255 89.55473056435585,243.60009863856249 89.78684766311198,246.70598211791366 90.01896476279944,250.09421393065713 89.78684766311198,253.2000887740869 89.55473056435585,256.58831116743386 90.01896476279944,259.97652864456177 91.4116673534736,263.0823903486598 93.96495543792844,264.7764949919656 96.75036062020808,267.60000000009313 100.6963512962684,267.60000000009313 103.0175222819671,267.3176496522501 106.49927876051515,265.6235468524974 108.58833264745772,263.64709203201346 109.74891814030707,260.2588798790239 110.21315233688802,257.4353659977205 111.14162073191255,254.3294967841357 111.14162073191255,250.94127111602575 111.83797202818096,248.1177459708415" stroke="#4DD2FF" stroke-dasharray="none" stroke-linecap="round" stroke-linejoin="round" stroke-width="0.5"><title>2013-09-29 10.5km</title><desc>9223370656443428807</desc></polyline><polyline fill="none" opacity="1" points="164.1903734849766,265.94905965332873 167.58342320099473,265.94905965332873 171.65508286189288,264.8484320899006 174.59572594985366,262.0968608537223 176.6315557807684,257.96949776401743 177.31016572378576,253.5669688861817 175.72674252279103,250.81538401311263 174.14331932086498,249.43959032977 175.9529458368197,245.03704495402053 177.53636903874576,239.8090112612117 177.98877566773444,237.88289055787027 177.31016572378576,234.8561261605937 178.4411822957918,231.0038747417275 175.72674252279103,228.25226259441115 173.01230274885893,225.2254853900522 171.2026762329042,224.67516183038242 165.77379668504,225.2254853900522 164.1903734849766,225.50064712180756 161.24973039515316,227.97710119676776 158.76149393618107,230.17839144705795 158.08288399223238,232.6548404339701 157.63047736417502,236.23192865750752 156.49946079216897,240.909650930902 156.95186742115766,244.2115667485632 157.17807073518634,246.41284129861742 156.49946079216897,250.81538401311263 156.95186742115766,254.11728546093218 155.5946475332603,258.24465553602204 156.27325747720897,261.54654620797373 156.49946079216897,263.4726468878798 160.34491713810712,264.8484320899006 163.96417016908526,267.3248433584813 166.22620331402868,266.77452997583896 169.16684640292078,265.94905965332873 172.10748949088156,264.8484320899006 175.04813257977366,261.54654620797373 175.27433589380234,259.34528629202396 175.9529458368197,256.593708404107 176.85775909479707,253.84212718973868 177.98877566773444,250.81538401311263 177.08396240975708,247.2383187059313 175.9529458368197,243.38608824275434 176.1791491517797,240.35933116311207 176.6315557807684,237.05740975774825 177.76257235370576,236.23192865750752 178.6673856107518,232.6548404339701 177.31016572378576,229.90323028177954 178.4411822957918,230.17839144705795 177.98877566773444,227.42677830229513 174.82192926388234,226.05097048194148 171.4288795478642,224.95032362709753 168.26203314494342,224.4000000001397 164.1903734849766,225.50064712180756 161.02352708112448,227.97710119676776 158.3090873081237,229.90323028177954 158.08288399223238,233.20516206533648 155.8208508491516,237.05740975774825 154.46363096125424,241.45997056690976 156.04705416224897,241.45997056690976 156.72566410526633,243.11092867492698 156.27325747720897,246.68800046737306 155.5946475332603,250.81538401311263 153.3326143892482,253.01665217778645 155.3684442192316,256.04339242796414 155.5946475332603,258.5198132751975 157.17807073518634,262.92233257344924 159.21390056516975,265.3987459379714 161.92834033910185,266.2242164602503 165.77379668504,266.2242164602503 169.39304971788079,267.60000000009313" stroke="#4DD2FF" stroke-dasharray="none" stroke-linecap="round" stroke-linejoin="round" stroke-width="0.5"><title>2013-09-22 10.9km</title><desc>9223370657048162807</desc></polyline></svg>