<?xml version="1.0" encoding="utf-8" ?>
<svg baseProfile="full" height="300mm" version="1.1" viewBox="0,0,200,300" width="200mm" xmlns="http://www.w3.org/2000/svg" xmlns:ev="http://www.w3.org/2001/xml-events" xmlns:xlink="http://www.w3.org/1999/xlink"><defs /><rect fill="#222222" height="300" width="200" x="0" y="0" /><text fill="#FFFFFF" style="font-size:12px; font-family:Arial; font-weight:bold;" x="10" y="20">Over 10km Runs</text><text fill="#FFFFFF" style="font-size:4px; font-family:Arial" x="10" y="280">Runner</text><text fill="#FFFFFF" style="font-size:9px; font-family:Arial" x="10" y="290">keep</text><text fill="#FFFFFF" style="font-size:4px; font-family:Arial" x="65" y="280">SPECIAL TRACKS</text><rect fill="yellow" height="2.6" width="2.6" x="65" y="283" /><text fill="#FFFFFF" style="font-size:3px; font-family:Arial" x="70" y="285.5">Over 20.0 km</text><rect fill="red" height="2.6" width="2.6" x="65" y="287" /><text fill="#FFFFFF" style="font-size:3px; font-family:Arial" x="70" y="289.5">Over 40.0 km</text><text fill="#FFFFFF" style="font-size:4px; font-family:Arial" x="120" y="280">STATISTICS</text><text fill="#FFFFFF" style="font-size:3px; font-family:Arial" x="120" y="285">Number: 15</text><text fill="#FFFFFF" style="font-size:3px; font-family:Arial" x="120" y="290">Weekly: 1.2</text><text fill="#FFFFFF" style="font-size:3px; font-family:Arial" x="141" y="285">Total: 163.6 km</text><text fill="#FFFFFF" style="font-size:3px; font-family:Arial" x="141" y="290">Avg: 10.9 km</text><text fill="#FFFFFF" style="font-size:3px; font-family:Arial" x="167" y="285">Min: 10.2 km</text><text fill="#FFFFFF" style="font-size:3px; font-family:Arial" x="167" y="290">Max: 14.0 km</text><polyline fill="none" opacity="1" points="26.581247735011857,75.59999999999854 26.520188045571558,75.34749853951507 26.50274242000887,75.05108279316482 26.563802109390963,74.67781700150226 26.581247735011857,74.39237731273897 26.563802109390963,74.07400110748131 26.55507929669693,73.76660222346254 26.563802109390963,73.48115937459806 26.581247735011857,73.10788646311266 26.58997054770589,72.83342000705306 26.642307424393948,72.55895263564162 26.825486492714845,72.41622924079275 27.104616501484998,72.39427177346806 27.20929025480291,72.30644184558332 27.235458693059627,72.13078170862718 27.261627131374553,71.91120601019793 27.279072756995447,71.62575672644016 27.218013067555148,71.28541205574584 26.947605871537235,71.14268645242555 26.808040867152158,70.90115025209525 26.877823369344696,70.49492868033121 26.91271462041186,70.20947448439256 26.97377430985216,69.85814488408505 27.008665560977533,69.53975113829802 27.061002437549178,69.22135616072774 27.07844806317007,68.94687674313172 27.130784939799923,68.7931678694149 27.20929025480291,68.63945870861062 27.20056744199246,68.46379074472497 27.191844629240222,68.39791516157129 27.252904318622313,68.18930880043627 27.313964008062612,67.94776393222855 27.38374651025515,67.66230090118188 27.462251825258136,67.36585747474601 27.54947995301336,67.01451573471422 27.6192624552059,66.75100844528788 27.74138183402829,66.48750031214877 27.915838089538738,66.50945935545315 28.107739970553666,66.59729547013558 28.343255915504415,66.48750031214877 28.587494673207402,66.31182775458001 28.674722800962627,66.04831821514381 28.83173343091039,65.75186897465028 28.980021248047706,65.44443900469196 29.145754690805916,65.15896728989173 29.30276532075368,64.88447432254907 29.45977595070144,64.60998043957807 29.616786580649205,64.29156638822315 29.773797210596967,63.9951108190362 29.983144717174582,63.61081497312989 30.201215036562644,63.237497290021565 30.419285355892498,62.83123788697412 30.593741611402947,62.54575710649806 30.78564349253429,62.227335067531385 30.968822560738772,61.94185219191422 31.09966475237161,61.744209620890615 31.27412100788206,61.46970526248333 31.474745701707434,61.15127905946429 31.60558789334027,60.83285162418906 31.72770727222087,60.558344225399196 31.89344071492087,60.23991449555615 32.12895665981341,59.9763855113124 32.38191823026864,59.80069905293931 32.58254292415222,59.526188210707915 32.73083074123133,59.27363742702437 32.84422730735969,59.1748129963089 32.9489010606776,58.95520272531576 33.0535748139373,58.71363075024419 33.1146345033776,58.537941595604934 33.31525919720298,58.45009687759739 33.48099263990298,58.43911628123897 33.58566639322089,58.373232672434824 33.70778577204328,58.23048467229819 33.86479640204925,58.0547944860009 34.05669828306418,57.813219867312 34.257322976889554,57.560663825766824 34.32710547908209,57.37399147068936 34.28349141520448,57.06653019794612 34.30093704076717,56.759067776220036 34.44922485790448,56.5394510572587 34.64112673897762,56.31983375208074 34.81558299448807,56.089234950748505 34.93770237331046,55.73784505826188 35.08599019050598,55.47430165404512 35.356397386523895,55.188795346810366 35.60063614422688,54.947212313025375 35.72275552304927,54.716609664450516 35.85359771474032,54.39815732531133 35.993162719067186,54.07970375347213 36.228678664017934,53.86007988230995 36.52525429840898,53.82713625107863 36.690987741108984,53.58554921893665 36.79566149436869,53.27807378832222 36.865443996561226,52.99255985954369 36.926503686001524,52.69606357701559 36.99628618819406,52.333677780625294 37.092237128759734,51.99325330565625 37.153296818141825,51.7846053505491 37.1881880692672,51.58693837859755 37.24924775864929,51.2684739248798 37.319030260900036,50.9280450420556 37.40625838859705,50.554669808843755 37.510932141914964,50.15932947957481 37.56326901860302,49.79693250872515 37.6417743335478,49.45649753640464 37.729002461303025,49.13802483526524 37.81623058905825,48.753659588473965 37.86856746574631,48.40223836268706 37.93834996788064,48.028851665352704 38.025578095635865,47.66644530892518 38.09536059788661,47.315019438552554 38.16514310007915,47.01850269261922 38.24364841502393,46.656091884979105 38.28726247890154,46.35957276386034 38.374490606656764,46.08501706905372 38.40065904497169,45.964212273021985 38.4442731088493,45.700637556750735 38.51405561104184,45.34920328800945 38.58383811323438,44.97580273228232 38.6710662409896,44.63534780716145 38.7321259304299,44.29489147282584 38.74084874318214,44.22899653568311 38.77573999424931,43.987381314531376 38.83679968374781,43.657904869171034 38.91530499869259,43.284496635700634 38.98508750088513,42.944034710097185 39.04614719026722,42.669467614578025 39.10720687976573,42.48276146608987 39.15082094358513,42.329003143247974 39.185712194710504,42.208192830803455 39.238049071398564,42.07639956029743 39.185712194710504,41.90067487113265 39.20315782027319,41.62610429273627 39.238049071398564,41.362515675144095 39.31655438634334,41.12089203362848 39.360168450162746,40.956148234705324 39.578238769609015,40.97811409361748 39.874814403941855,41.08794330022647 40.162667225522455,41.186789460800355 40.398183170414995,41.252686835192435 40.47668848541798,41.03302871528285 40.50285692373291,40.82435295799951 40.48541129817022,40.53879580062494 40.49413411092246,40.17635644240363 40.520302549237385,39.76998314147204 40.58136223873589,39.45147293449554 40.53774817480007,39.19886051393405 40.389460357662756,39.078045603775536 40.09288472327171,39.13296149400412 39.77886346343439,39.19886051393405 39.65674408455379,39.110995142313186 39.700358148431405,38.781499162709224 39.770140650623944,38.4629851276477 39.83120034006424,38.15545316475618 39.90970565500902,37.79300330359547 39.996933782764245,37.430551845158334 40.04054784664186,37.12301602167281 40.09288472327171,36.81547904822219 40.12777597439708,36.52990797175153 40.162667225522455,36.299253686040174 40.110330348834395,36.167450946668396 40.21500410215231,36.06859875349619 40.40690598322544,35.95876284397673 40.49413411092246,35.81597594226332 40.345846293785144,35.7061396953286 40.32840066822246,35.55236870318913 40.345846293785144,35.38761374972091 40.47668848541798,35.37663007440278 40.65114474092843,35.40958109590429 40.82560099638067,35.38761374972091 40.94772037526127,35.42056476678408 41.11345381796127,35.36564639763674 41.30535569903441,35.33269535852742 41.34024695010157,35.10203771511442 41.383861013979185,34.66268803320418 41.4274750778568,34.26727131265943 41.46236632892396,33.98169138762751 41.46236632892396,33.72906216572301 41.47981195448665,33.553319640646805 41.50598039285978,33.3556088509722 41.383861013979185,33.24576931797492 41.18323632015381,33.223801393782196 40.991334439080674,33.19084949648095 40.808155370817985,33.09199372533476 40.563916613115,33.05904177521734 40.276063791592605,32.99313783535763 39.935874093323946,32.93821784515603 39.66546689730603,32.86132979722606 39.31655438634334,32.79542569891055 38.98508750088513,32.70755348569219 38.77573999424931,32.564760938927066 38.601283738797065,32.58672903921979 38.30470810440602,32.564760938927066 37.98196403175825,32.553776886619744 37.7028340229881,32.531808777588594 37.37136713752989,32.509840662634815 37.07479150319705,32.454920349679014 36.76949305605376,32.44393628267426 36.48164023447316,32.42196814427007 36.47291742172092,32.43295221419248 36.41185773228062,32.61968117858487 36.342075230088085,32.817393737554085 36.29846116621047,33.02608981188678 36.27229272789555,33.25675327789213 36.24612428958062,33.454464305221336 36.19378741289256,33.66315876283625 36.10655928513734,33.827917171081936 36.00188553187763,34.003659109373984 35.940825842437334,34.190384507332055 35.88848896580748,34.34415804610035 35.80126083805226,34.54186645918526 35.72275552304927,34.70662310702755 35.63552739529405,34.90433064869285 35.54829926759703,35.091054001684824 35.44362551427912,35.17892366813612 35.36512019933434,35.47548309931153 35.26044644601643,35.77204146108852 35.129604254383594,36.057615169134806 34.98131643724628,36.39810560201295 34.82430580724031,36.71662763394852 34.68474080285523,37.02416497706872 34.553898611222394,37.29875091872236 34.41433360683732,37.59530270608229 34.2660457897,37.90283676351828 34.10903515975224,38.199386372718436 33.98691578087164,38.473968390761 33.899687653116416,38.660683639434865 33.838627963734325,38.75953271711478 33.76884546154179,38.83641525096755 33.681617333728354,39.00116329577577 33.664171708223876,39.27574263709539 33.51588389102835,39.561304179689614 33.37631888658507,39.80293240282481 33.28909075888805,40.02259380789474 33.28909075888805,40.14340733063 33.489715452713426,40.209305540964124 33.80373671260895,40.209305540964124 34.135203598067164,40.25323765185749 34.440502045094036,40.297169739278615 34.780691743362695,40.341101803242054 35.12088144157315,40.3850338437187 35.417457075905986,40.43994886131259 35.71403271029703,40.47289785430621 35.88848896580748,40.45093186045415 35.96699428075226,40.24225462632603 36.01933115744032,40.03357686276286 36.00188553187763,39.89079703529569 36.10655928513734,39.91276317870506 36.20251022570301,40.05554296808259 36.19378741289256,40.3520848155531 36.115282097947784,40.725506361879525 36.045499595755246,41.08794330022647 35.97571709356271,41.439395775865705 35.91465740412241,41.80182956849603 35.827429276367184,42.17524453296937 35.766369586926885,42.493744192463055 35.71403271029703,42.768311874555366 35.63552739529405,43.064843941778236 35.67914145922987,43.39432276269508 35.5221308292239,43.679870006591955 35.39128863759106,43.954433729370066 35.31278332264628,44.22899653568311 35.243000820453744,44.53650579073292 35.2342780076433,44.78910181881656 35.33022894820897,44.99776751777972 35.39128863759106,45.26134448619996 35.30406050989404,45.6127791303079 35.2342780076433,46.00814131028892 35.14704987994628,46.39251938569214 35.08599019050598,46.76591351044044 35.04237612662837,47.128323834251205 35.03365331387613,47.457786379469326 35.02493050106568,47.7872476051416 35.03365331387613,48.12768948547455 35.007484875561204,48.49009380989446 34.99876206275076,48.81955090115662 34.97259362443583,49.17097034426115 34.955147998873144,49.47846112547995 34.90281112224329,49.807914258555684 34.85047424555523,50.15932947957481 34.76324611780001,50.499761543396744 34.79813736892538,50.80724735792319 34.771968930610456,51.15865831015253 34.71090924117016,51.499086238654854 34.56262142403284,51.85049423563032 34.38816516852239,52.092086362827104 34.135203598067164,52.322696367926255 33.87351921480149,52.53134295834025 33.65544889541343,52.73998901963205 33.4024873249582,52.959615880921774 33.280367946077604,53.14629825200973 33.1756941928179,53.28905507350282 33.04485200118506,53.4537741750828 32.93145543511491,53.65143666167569 32.84422730735969,53.958910696914245 32.687216677411925,54.2883458880533 32.512760421901476,54.606798652261205 32.338304166391026,54.91426911709277 32.22490760037908,55.144871211625286 32.216184787568636,55.41939667191036 32.338304166391026,55.56214954927418 32.38191823026864,55.81471172549209 32.25979885144625,56.089234950748505 32.29469010257162,56.231986665887234 32.24235322588356,56.144139485870255 32.102788221498486,56.2868911057667 31.89344071492087,56.594355291985266 31.701538833847735,56.85789510849281 31.474745701707434,57.08849175553041 31.300289446196984,57.36301073074719 31.230506944004446,57.615567378998094 31.08221912686713,57.89008459564502 30.968822560738772,58.021852534300706 30.73330661584623,57.999891225859756 30.497790670895483,57.999891225859756 30.209937849314883,57.934007265313994 29.904639402229805,57.934007265313994 29.616786580649205,57.944987929062336 29.45977595070144,57.96694925220072 29.34637938463129,57.96694925220072 29.285319695190992,58.1316589886701 29.145754690805916,58.351271457751864 29.07597218855517,58.59284449673578 29.032358124735765,58.856377912161406 28.88407030754024,59.10892997656629 28.857901869225316,59.229715472465614 28.753228115907405,59.3395203149048 28.517712171014864,59.559129560147994 28.31708747718949,59.76775780024036 28.299641851626802,59.965405118637136 28.378147166629788,60.10815010891383 28.447929668822326,60.22893413804559 28.48282091988949,60.459521337688784 28.526434983767103,60.70108818705194 28.517712171014864,60.70108818705194 28.343255915504415,60.63520638938644 28.160076847241726,60.89873326362431 28.011789030046202,61.17323952681909" stroke="#4DD2FF" stroke-dasharray="none" stroke-linecap="round" stroke-linejoin="round" stroke-width="0.5"><title>2017-12-17 14.0km</title><desc>9223370523376934807</desc></polyline><polyline fill="none" opacity="1" points="100.63048392994097,32.40000000000873 100.61677775753196,32.76221564968 100.58936541277217,33.12443028512644 100.47971603361657,33.452147414689534 100.58936541277217,33.607381554713356 100.64419010229176,34.366301335423486 100.60307158518117,34.64227106086037 100.78125182626536,34.95273629826261 100.83607651572675,35.24595278275956 100.89090120536275,35.55641657128581 100.90460737771355,35.970367130372324 100.93201972253155,36.33257278292149 100.98684441205114,36.62578613992082 101.04166910162894,36.95349439937854 101.13761230837554,37.246706348931184 101.15131848072633,37.557165335907484 101.21984934277134,37.902118892001454 101.32949872186873,38.16083345536026 101.50767896283651,38.21257630598848 101.6173283419339,38.38505232517491 101.56250365247251,38.5230329749902 101.35691106657032,38.626518365723314 101.35691106657032,38.867983955628006 101.46656044572592,39.126696587482 101.60362216964131,39.47164595848881 101.7132715487387,39.782099605945405 101.7818024106673,40.075305144520826 101.93257030699169,40.38575734337792 102.09704437560868,40.678961513825925 102.24781227193307,40.95491777306597 102.20669375476427,41.24812065353035 101.90515796217369,41.265367861124105 101.6447406867519,41.07564845138404 101.45285427331692,40.93767052407202 101.24726168747293,40.88592876344046 101.02796292921994,40.95491777306597 100.75383948138915,40.97216501974617 100.63048392994097,41.127390136156464 100.64419010229176,41.38609824972809 100.58936541277217,41.627558688938734 100.30153579259058,41.73104159638751 100.0274123447598,41.85177155039855 99.73958272452,41.86901867753477 99.50657779397443,41.85177155039855 99.54769631108502,41.57581720419694 99.62993334542261,41.265367861124105 99.72587655222742,40.97216501974617 99.80811358656501,40.60997235702234 99.87664444849361,40.2305313370598 99.8629382760846,39.86833659806871 99.80811358656501,39.52338828481152 99.76699506933801,39.195686535254936 99.46545927674742,39.126696587482 99.19133582903305,39.09220159979304 99.06798027752666,38.91972652336699 99.05427410511766,38.747251217020676 99.04056793265045,38.505785401779576 98.98574324318906,38.33330954358098 98.80756300204666,38.298814344307175 98.61567658861168,38.264319135894766 98.45120251987828,38.298814344307175 98.45120251987828,38.5230329749902 98.46490869234549,38.79899383307202 98.49232103716349,39.16119156597415 98.49232103716349,39.45439851176343 98.51973338192329,39.782099605945405 98.53343955427408,40.12704722939816 98.51973338192329,40.45474661975459 98.51973338192329,40.76519790806924 98.53343955427408,41.09289568196982 98.51973338192329,41.36885105827241 98.53343955427408,41.713794450915884 98.54714572668308,41.95525427849498 98.56085189903388,42.19671365543036 98.54714572668308,42.40367847698508 98.53343955427408,42.679631057413644 98.50602720951429,42.93833606695989 98.47861486469628,43.11080578589463 98.45120251987828,43.35226300616341 98.4374963475857,43.593719775788486 98.42379017517669,43.83517609482806 98.42379017517669,44.042138295277255 98.42379017517669,44.352580975188175 98.4374963475857,44.66302291027387 98.42379017517669,45.02520422631642 98.42379017517669,45.35289121008827 98.42379017517669,45.64608412362577 98.4374963475857,45.92202978825662 98.45120251987828,46.284207579883514 98.45120251987828,46.646384357634815 98.45120251987828,46.870588521516765 98.4374963475857,47.18102441474912 98.4374963475857,47.370734871699824 98.3963778304169,47.646676857970306 98.42379017517669,47.888125613171724 98.45120251987828,48.14682020804321 98.49232103716349,48.45725303913059 98.54714572668308,48.75043891792302 98.57455807144288,49.112608792143874 98.64308893348789,49.49202376343601 98.73903214011807,49.87143762224878 98.84868151921546,50.164620296505746 98.95833089837106,50.44055632429081 99.06798027752666,50.76822959283891 99.17762965662405,51.06141023511009 99.27357286331244,51.23386912608112 99.34210372529924,51.44081949182146 99.45175310445484,51.64776952659304 99.56140248355223,51.87196502405277 99.60252100072103,52.11340589453175 99.62993334542261,52.26861764477508 99.79440741415601,52.406583488802426 99.89035062090261,52.544549185593496 100.0137061723508,52.73425177850004 100.13706172385719,52.90670843987027 100.24671110301279,53.13090175596881 100.38377282692818,53.32060348926461 100.56195306801237,53.51030494442966 100.75383948138915,53.75174275782774 100.94572589482414,54.0276711358747 101.11019996355753,54.269107983927825 101.23355551506393,54.47605349513469 101.28838020464173,54.614016985404305 101.46656044572592,54.90718891378492 101.6447406867519,55.13137876376277 101.8092147554853,55.39005887726671 101.97368882410228,55.68322904736851 102.12445672036847,55.924662806341075 102.27522461669287,56.183341333962744 102.43969868536806,56.45926452675485 102.61787892651046,56.75243227444298 102.79605916747823,57.06284445972415 102.98794558097143,57.3560108399688 103.16612582205562,57.63193153217435 103.35801223554881,57.90785163611872 103.5498986489838,58.2355059953552 103.75549123482779,58.56315952491423 103.93367147585377,58.83907764320611 104.11185171699617,59.132239999220474 104.26261961320415,59.408156904086354 104.41338750952855,59.649583713224274 104.56415540579474,59.873765346972505 104.72862947452813,60.14968067067093 104.90680971555412,60.42559540613729 105.04387143946951,60.64977569547773 105.2220516804955,60.89120018819813 105.41393809398869,61.167113342526136 105.57841216266388,61.46027042448986 105.72918005893007,61.684448921412695 105.89365412766347,61.994849276015884 106.07183436868945,62.32249328700709 106.26372078218265,62.65013646846637 106.44190102320863,62.94329019084398 106.62008126423461,63.23644324908673 106.8530861948966,63.564084116587765 107.0175602635718,63.839991572123836 107.1546219875454,64.08141011315456 107.33280222857138,64.3400723359664 107.51098246959737,64.65046632083249 107.68916271068156,64.99534765313729 107.86734295176575,65.32298406746122 107.99069850327214,65.56439984198369 108.15517257194733,65.90927873867622 108.27852812345373,66.21966895986407 108.38817750255112,66.58178994373884 108.44300219218712,66.80595956882462 108.44300219218712,66.97839747770922 108.30594046821352,67.16807891213102 108.31964664056432,67.1335913992807 108.44300219218712,67.08186011279759 108.58006391604431,67.21981016416976 108.6623009503819,67.44397868411033 108.7582441570703,67.71987786787213 108.86789353622589,68.03026374656474 108.99124908773229,68.37513607206347 109.11460463923868,68.72000747852144 109.23796019068686,69.08212146624282 109.29278488032287,69.25455634240643 109.41614043182926,69.58218197413953 109.53949598333566,69.8925633864419 109.64914536249125,70.13397063703451 109.74508856912144,70.42710740728944 109.82732560345903,70.68575694736501 109.88215029309504,70.92716271836252 109.97809349978343,71.22029769213987 110.08774287888082,71.51343200191332 110.19739225797821,71.84105191547133 110.27962929237401,72.09969862981234 110.38927867152961,72.42731705924962 110.48522187815979,72.68596260198683 110.5948712573736,72.97909359220648 110.71822680887999,73.25498097659147 110.81417001556838,73.5481106780644 110.95123173942557,73.87572544111754 111.04717494623037,74.1343680893915 111.17053049773676,74.42749579924566 111.25276753201615,74.63440907708718 111.34871073876275,74.8930502092553 111.47206629026914,75.06547734356718 111.51318480743794,75.18617620086297 111.49947863502894,75.41033092298312 111.44465394550934,75.60000000000582 111.25276753201615,75.4965441742388 111.06088111863937,75.23790424807521 110.86899470514618,74.96202109052683 110.64969594689319,74.68613734484825 110.37557249912061,74.35852463313495 110.08774287888082,74.08263960111071 109.84103177592624,73.85848257955513 109.59432067285525,73.59983938002551 109.36131574225146,73.37568152231688 109.10089846688788,73.06530846297392 108.85418736381689,72.85839267662959 108.6074762608041,72.61699050774041 108.33335281303152,72.32385869741847 108.08664171001874,72.08245553157758 107.82622443453874,71.84105191547133 107.52468864200637,71.56516151712276 107.26427136664279,71.35824333237542 106.93532322929241,71.16856803910923 106.63378743670182,71.06510867110046 106.29113312688423,70.97889246790146 105.96218498953385,70.94440597052744 105.60582450742368,70.85818968691456 105.2631701976643,70.77197334583616 104.97534057754092,70.7202435136569 104.64639244019054,70.63402708071226 104.33115047519095,70.63402708071226 103.94737764826277,70.53056728535739 103.5773109937436,70.42710740728944 103.453955442179,70.39262076292653 103.24836285645142,70.34089077907265 103.07018261530902,70.32364744656661 102.85088385705603,70.28916077458416 102.65899744362105,70.25467409341945 102.46711103018606,70.23743074937374 102.28893078910187,70.18570070354326 102.05592585843988,70.13397063703451 101.8229209278361,70.0994839144987 101.6584468591609,70.03051044192398 101.46656044572592,69.97878031336586 101.17873082554433,69.85807659960119 100.82237034337595,69.72012936040119 100.46600986126577,69.58218197413953 100.1507678963244,69.47872133793135 99.8492321036756,69.3925040779286 99.52028396632522,69.30628676043125 99.17762965662405,69.20282590364513 98.82126917445567,69.09936496423325 98.4374963475857,69.01314745149284 98.06742969300831,68.85795578382385 97.79330624523573,68.80622518657765 97.40953341830755,68.70276393006498 97.10799762577517,68.5475718901871 96.83387417794438,68.46135400986532 96.57345690246439,68.37513607206347 96.27192110993201,68.27167447088868 95.94297297258163,68.13372554072703 95.60031866282225,67.9440455216245 95.28507669782266,67.71987786787213 94.96983473293949,67.53019724220212 94.6957112851087,67.23705391022668 94.49011869932292,66.92666612917674 94.33935080305673,66.66800907623838 94.25711376866093,66.40935150638688 94.14746438956354,66.23691283924563 93.98299032088835,65.97825440771703 93.88704711408354,65.80581516621169 93.74998539022636,65.52991190178727 93.57180514914216,65.2195200262504 93.39362490811618,64.87463929138903 93.24285701184999,64.49526942145894 93.0372644259478,64.09865427746263 92.83167184010381,63.68479370076966 92.63978542666882,63.305420342774596 92.48901753034443,63.02951174750342 92.33824963407824,62.65013646846637 92.14636322058504,62.253515669421176 91.96818297955906,61.85689365475264 91.76259039377328,61.44302590866573 91.55699780787108,61.029156838936615 91.37881756672869,60.63253107163473 91.1732249809429,60.25314876541961 90.98133856750792,59.85652061967994 90.81686449883273,59.47713603833108 90.63868425769033,59.09775034473569 90.47421018907335,58.75285329442704 90.32344229280716,58.40795532484481 90.14526205172297,58.097546366247116 90.04931884497637,57.80438166609383 89.93966946587898,57.47672621521633 89.81631391437259,57.114579751578276 89.7340768800932,56.71794198559655 89.65183984563919,56.321303003889625 89.6107213285286,56.02813427941874 89.5558966389508,55.597002595706726 89.501071949373,55.18311482788704 89.4736596046132,54.82096194497717 89.4325410874444,54.38982623901393 89.3777163978666,54.07940764121304 89.3777163978666,53.75174275782774 89.36401022551581,53.355094683603966 89.33659788075602,53.027427966022515 89.36401022551581,52.66526904965576 89.3777163978666,52.216880415406195 89.36401022551581,51.87196502405277 89.33659788075602,51.50980287352286 89.24065467395121,51.164885597274406 89.17212381202262,50.71649176355277 89.18582998443162,50.37157237248903 89.15841763961362,49.97491393605014 89.11729912250303,49.647238658348215 89.07618060527602,49.33680868241936 89.02135591575643,48.95739325588511 89.08988677768502,48.56073048399412 89.15841763961362,48.14682020804321 89.15841763961362,47.81914030054759 89.15841763961362,47.59493778037722 89.19953615684062,47.422474038932705 89.17212381202262,47.18102441474912 89.11729912250303,46.870588521516765 89.10359295009403,46.560151883459184 89.06247443292523,46.215221411999664 89.03506208816543,45.85304342726886 89.02135591575643,45.55985098272504 88.93911888141884,45.163177794296644 88.91170653660083,44.766503389764694 88.88429419184104,44.352580975188175 88.85688184708124,44.007644618162885 88.81576332991244,43.6799542272056 88.77464481274365,43.28327527496731 88.74723246798385,43.128052745130844 88.76093864033464,42.76586611806124 88.77464481274365,42.40367847698508 88.74723246798385,42.05873692377645 88.71982012310764,41.78278301907994 88.67870160599705,41.4205926257855 88.62387691647746,41.05840121854271 88.62387691647746,40.69620879724971 88.65128926123725,40.38575734337792 88.65128926123725,40.00631566581433 88.56905222684145,39.59237802104326 88.55534605449066,39.281923918257235 88.52793370973086,38.9369740413822 88.56905222684145,38.71275612815225 88.56905222684145,38.5747756807541 88.54163988208165,38.31606194512278 88.52793370973086,38.04010005686723 88.51422753738007,37.72964222890732" stroke="#4DD2FF" stroke-dasharray="none" stroke-linecap="round" stroke-linejoin="round" stroke-width="0.5"><title>2017-11-19 11.8km</title><desc>9223370525802103807</desc></polyline><polyline fill="none" opacity="0.5" points="178.37664233567193,71.80618920741836 177.11532846698537,71.99312674062094 175.7751824813895,71.52578282967443 174.6715328465216,71.33884519251296 173.72554744500667,71.15190751373302 172.62189781013876,71.15190751373302 171.59708029171452,70.77803203178337 170.4145985399373,70.77803203178337 169.31094890506938,70.59109422808979 168.3649635030888,70.87150091776857 166.7094890512526,70.12374953762628 165.36934306565672,69.93681158870459 164.10802919697016,69.84334259881871 162.68905109446496,69.93681158870459 162.137226277031,70.03028056852054 160.63941605808213,70.40415638295235 158.7474452550523,69.56293556635501 157.40729926992208,68.44130650092848 156.22481751767918,68.7217139074346 154.88467153254896,68.25436817808077 153.7021897812374,68.06742981314892 152.75620437972248,68.25436817808077 151.8102189777419,67.97396061540348 150.86423357622698,67.60008371982258 149.68175182444975,67.69355295941932 148.65693430649117,68.16089900082443 146.92262773681432,67.60008371982258 145.97664233576506,67.03926806495292 145.50364963477477,66.01110505883116 144.8729927004315,64.98294079536572 144.79416058352217,63.48742689494975 144.95182481734082,62.178850049269386 144.95182481734082,60.68333116010763 144.79416058352217,59.37474994978402 144.79416058352217,57.598815048870165 144.55766423325986,56.66411096241791 144.39999999990687,55.26205288397614 144.7153284670785,53.95346323453123 144.7153284670785,52.831813342229 145.03065693378448,51.89710395527072 144.79416058352217,50.681980198423844 145.18832116760314,49.37338341923896 145.10948905115947,47.971313180984 145.34598540142179,47.13006991526345 145.42481751786545,45.44758085877402 145.34598540142179,43.95203220337862 145.42481751786545,42.64342494739685 145.50364963477477,41.615232102863956 145.7401459850371,40.400093483389355 145.97664233576506,39.091480698029045 145.7401459850371,37.782865875109565 145.7401459850371,36.84813975432189 145.5824817516841,35.72646703757346 145.7401459850371,36.84813975432189 145.7401459850371,37.782865875109565 145.97664233576506,39.091480698029045 145.7401459850371,40.400093483389355 145.50364963477477,41.615232102863956 145.42481751786545,42.64342494739685 145.34598540142179,43.95203220337862 145.42481751786545,45.44758085877402 145.34598540142179,47.13006991526345 145.10948905115947,47.971313180984 145.18832116760314,49.37338341923896 144.79416058352217,50.681980198423844 145.03065693378448,51.89710395527072 144.7153284670785,52.831813342229 144.7153284670785,53.95346323453123 144.39999999990687,55.26205288397614 144.55766423325986,56.66411096241791 144.79416058352217,57.598815048870165 144.79416058352217,59.37474994978402 144.95182481734082,60.68333116010763 144.95182481734082,62.178850049269386 144.79416058352217,63.48742689494975 144.8729927004315,64.98294079536572 145.50364963477477,66.01110505883116 145.97664233576506,67.03926806495292 146.92262773681432,67.60008371982258 148.65693430649117,68.16089900082443 149.68175182444975,67.69355295941932 150.86423357622698,67.60008371982258 151.8102189777419,67.97396061540348 152.75620437972248,68.25436817808077 153.7021897812374,68.06742981314892 154.88467153254896,68.25436817808077 156.22481751767918,68.7217139074346 157.40729926992208,68.44130650092848 158.7474452550523,69.56293556635501 160.63941605808213,70.40415638295235 162.137226277031,70.03028056852054 162.68905109446496,69.93681158870459 164.10802919697016,69.84334259881871 165.36934306565672,69.93681158870459 166.7094890512526,70.12374953762628 168.3649635030888,70.87150091776857 169.31094890506938,70.59109422808979 170.4145985399373,70.77803203178337 171.59708029171452,70.77803203178337 172.62189781013876,71.15190751373302 173.72554744500667,71.15190751373302 174.6715328465216,71.33884519251296 175.7751824813895,71.52578282967443 177.11532846698537,71.99312674062094 178.37664233567193,71.80618920741836 179.55912408744916,71.6192516325973 180.66277372231707,71.89965797937475 181.92408759100363,71.80618920741836 183.0277372263372,71.89965797937475 184.05255474429578,71.71272042521741 185.31386861298233,72.0865954917972 186.3386861309409,72.18006423237966 187.59999999962747,72.27353296242654" stroke="#4DD2FF" stroke-dasharray="1,0.5" stroke-linecap="round" stroke-linejoin="round" stroke-width="0.5"><title>2014-03-22 10.5km</title><desc>9223370641410674807</desc></polyline><polyline fill="none" opacity="1" points="55.59999999997672,101.19247998364153 55.449197114270646,101.19247998364153 55.30844775424339,101.16800910101301 55.20791249710601,101.0823609650397 55.09732371423161,101.0823609650397 54.986734931357205,101.0823609650397 54.835932045651134,101.1190673178935 54.69518268562388,101.1190673178935 54.56448685133364,101.1190673178935 54.4337910169852,101.1068318684338 54.282988131279126,101.0823609650397 54.15229229698889,101.09459641750436 54.01154293696163,101.1068318684338 53.860740051197354,101.09459641750436 53.74009774264414,101.1068318684338 53.62950895976974,101.1068318684338 53.47870607400546,101.1190673178935 53.36811729113106,101.1068318684338 53.23742145689903,101.07012551114167 53.106725622550584,101.04565459882724 52.97602978826035,101.07012551114167 52.84533395397011,101.09459641750436 52.744798696774524,101.09459641750436 52.58394228533143,101.05789005573024 52.46329997672001,101.04565459882724 52.35271119384561,101.04565459882724 52.23206888529239,101.0334191404836 52.081265999528114,101.04565459882724 51.93046311382204,101.04565459882724 51.80982080526883,101.07012551114167 51.66907144524157,101.0334191404836 51.55848266230896,101.0334191404836 51.417733302281704,101.0334191404836 51.29709099372849,101.02118368065567 51.14628810802242,100.99671275651781 51.015592273673974,100.9722418264646 50.84468233649386,100.99671275651781 50.69387945078779,100.99671275651781 50.55313009081874,101.02118368065567 50.39227367931744,101.00894821934344 50.27163137070602,101.00894821934344 50.161042587889824,100.99671275651781 50.03034675354138,101.02118368065567 49.909704444988165,101.00894821934344 49.77900861063972,100.99671275651781 49.63825925067067,101.00894821934344 49.52767046779627,101.00894821934344 49.38692110776901,101.00894821934344 49.256225273478776,101.04565459882724 49.13558296486735,101.0334191404836 49.01494065631414,101.04565459882724 48.87419129628688,101.0334191404836 48.733441936259624,101.0334191404836 48.6127996276482,101.0334191404836 48.47205026762094,101.0334191404836 48.36146148480475,101.0334191404836 48.24081917619333,101.0334191404836 48.120176867581904,101.0334191404836 47.96937398187583,101.00894821934344 47.8386781475856,100.9722418264646 47.70798231323715,100.99671275651781 47.567232953209896,100.98447729225154 47.416430067503825,100.9722418264646 47.28573423321359,100.98447729225154 47.15503839892335,100.98447729225154 47.02434256457491,101.02118368065567 46.89364673028467,101.00894821934344 46.752897370257415,100.99671275651781 46.612148010288365,100.98447729225154 46.48145217593992,100.98447729225154 46.350756341649685,100.96000635919336 46.18989993020659,100.9722418264646 46.07931114733219,100.94777089048875 45.92850826156791,100.96000635919336 45.77770537586184,100.96000635919336 45.647009541571606,100.98447729225154 45.496206655865535,100.94777089048875 45.34540377010126,100.91106447541824 45.194600884395186,100.91106447541824 45.05385152430972,100.88659352462128 44.92315569007769,100.8743580469818 44.782406330050435,100.88659352462128 44.68187107285485,100.88659352462128 44.54112171282759,100.91106447541824 44.42047940421617,100.94777089048875 44.29983709566295,100.9722418264646 44.14903420995688,100.9722418264646 44.018338375666644,100.9722418264646 43.8876425413182,100.94777089048875 43.76700023270678,100.94777089048875 43.656411449890584,100.9722418264646 43.495555038389284,100.96000635919336 43.37491272983607,100.94777089048875 43.244216895487625,100.9722418264646 43.11352106119739,100.94777089048875 42.98282522690715,100.92329994860484 42.83202234120108,100.92329994860484 42.71138003258966,100.91106447541824 42.590737723978236,100.89882900074008 42.42988131259335,100.8621225678944 42.29918547824491,100.91106447541824 42.138329066801816,100.88659352462128 42.00763323251158,100.8743580469818 41.886990923958365,100.88659352462128 41.736188038194086,100.88659352462128 41.59543867816683,100.8743580469818 41.46474284387659,100.8743580469818 41.30388643237529,100.88659352462128 41.1932976495591,100.89882900074008 41.04249476379482,100.92329994860484 40.93190598092042,100.84988708732271 40.78110309515614,100.84988708732271 40.660460786602926,100.84988708732271 40.51971142657567,100.8376516052449 40.37896206660662,100.84988708732271 40.258319757995196,100.8743580469818 40.11757039796794,100.8376516052449 39.9868745636777,100.84988708732271 39.846125203650445,100.82541612171917 39.70537584362319,100.82541612171917 39.584733535011765,100.81318063670915 39.47414475219557,100.76423868178972 39.34344891784713,100.76423868178972 39.21275308355689,100.77647417272965 39.06195019779261,100.80094515018573 38.93125436356058,100.78870966218528 38.81061205494916,100.8376516052449 38.67991622060072,100.8376516052449 38.519059809157625,100.8376516052449 38.38836397486739,100.84988708732271 38.25766814057715,100.81318063670915 38.13702583202394,100.81318063670915 38.026437049149536,100.82541612171917 37.88568768906407,100.81318063670915 37.734884803358,100.82541612171917 37.60418896906776,100.78870966218528 37.44333255762467,100.77647417272965 37.34279730042908,100.78870966218528 37.202047940401826,100.78870966218528 36.900442168989684,100.80094515018573 36.60888992319815,100.77647417272965 36.43797998607624,100.7152967031434 36.045892483205535,100.82541612171917 35.71412613452412,100.80094515018573 35.472841517359484,100.72753220003506 35.25166395161068,100.72753220003506 34.990272282972,100.67859020367905 34.79925529437605,100.69082570497267 34.507703048642725,100.69082570497267 34.23625785438344,100.82541612171917 33.97486618574476,100.75200318935094 33.66320688853739,100.89882900074008 29.81270653946558,100.67859020367905 29.56136839656392,100.59294165295432 29.330137305136304,100.64188369079784 28.98831743077608,100.67859020367905 28.70681871077977,100.59294165295432 28.38510588783538,100.5439995913548 28.143821270670742,100.50729302963737 24.866371887386777,100.5439995913548 24.57481964165345,100.5195285517184 24.243053293030243,100.49505750607932 24.001768675865605,100.53176407227875 23.77053758437978,100.45835092658672 23.448824761493597,100.42164433375729 23.147218990023248,100.470586454554 22.85566674428992,100.45835092658672 20.332231789652724,100.4338798661629 19.960251338139642,100.45835092658672 19.75918082386488,100.45835092658672 19.568163835268933,100.44611539713515 19.4977891552262,100.4338798661629 19.316825692367274,100.38493772756192 19.105701652297284,100.4338798661629 18.88452408654848,100.42164433375729 18.69350709801074,100.34823110810248 18.462276006524917,100.33599556529953 18.210937863623258,100.33599556529953 17.949546195042785,100.4094087998601 17.849010937847197,100.28705337927386 16.682801954855677,100.39717326444952 16.431463811954018,100.34823110810248 16.230393297679257,100.34823110810248 15.928787526208907,100.33599556529953 15.647288806154393,100.36046664939931 15.38589713757392,100.36046664939931 15.094344891782384,100.37270218921913 14.843006748938933,100.29928892798489 14.591668605979066,100.33599556529953 14.36043751455145,100.29928892798489 14.028671165928245,100.311524475248 13.837654177332297,100.26258227739163 13.475727251556236,100.32376002099045 13.123853851517197,100.27481782910036 13.003211542963982,100.34823110810248 13.063532697269693,100.61741267482284 13.053479171532672,100.78870966218528 13.093693274364341,101.07012551114167 12.93283686292125,101.1557736574614 12.872515708673745,100.94777089048875 12.782033977215178,100.78870966218528 12.611124040035065,100.84988708732271 12.480428205744829,101.09459641750436 12.400000000023283,101.2291862965285 12.430160577176139,101.54730711626326 12.480428205744829,101.84095621496817 12.54074936005054,102.12236913391098 12.601070514356252,102.42825185272523 12.651338142924942,102.7218983918574 12.721712822909467,102.94213273628702 12.74181987438351,103.15013139868825 12.761926925799344,103.38259998543072 12.792087502893992,103.68847889020981" stroke="#4DD2FF" stroke-dasharray="none" stroke-linecap="round" stroke-linejoin="round" stroke-width="0.5"><title>2013-12-10 10.9km</title><desc>9223370650177580807</desc></polyline><polyline fill="none" opacity="1" points="101.39269880205393,123.60000000009313 103.13357230834663,117.6706197722815 103.82992171123624,113.0118139819242 104.87444581277668,107.50594460824504 106.26714461669326,101.15300765517168 106.26714461669326,97.34123995434493 105.91896991617978,90.98828457063064 104.17809641174972,85.90591196995229 102.08904820494354,82.5176594730001 97.21460239216685,81.24706394248642 93.73285538330674,80.4000000001397" stroke="#4DD2FF" stroke-dasharray="none" stroke-linecap="round" stroke-linejoin="round" stroke-width="0.5"><title>2013-11-30 10.3km</title><desc>9223370651086224807</desc></polyline><polyline fill="none" opacity="1" points="177.1845781430602,112.65981630119495 176.49274856690317,107.32996453368105 175.80091899074614,106.20788891729899 176.03152885008603,102.28061998845078 177.41518800146878,97.2312644557096 177.41518800146878,96.10918395733461 175.80091899074614,93.02345978678204 178.1070175776258,90.49877332313918 176.49274856690317,89.37668956816196 174.87847955711186,86.8519991368521 172.80299082957208,83.7662626572419 170.95811196044087,83.20521922083572 167.9601837983355,80.4000000001397 163.34798662550747,82.64417564729229 160.11944860499352,86.01043504965492 157.12152044288814,89.09616854530759 155.96847114898264,91.05981499678455 155.73786129057407,95.5481435037218 157.3521303012967,99.75594359473325 155.5072514321655,103.40269750310108 154.58481199666858,105.92736992868595 155.2766415728256,108.17152088950388 154.35420214012265,111.25722491787747 154.58481199666858,114.34292484284379 154.58481199666858,117.98965582833625 156.66030072513968,119.39224314200692 159.4276190288365,121.35586395906284 162.88676690869033,122.75844923895784 165.8846950698644,123.60000000009313 169.11323309037834,123.03896619309671 171.88055139407516,120.79482960957102 174.4172598393634,117.98965582833625 176.03152885008603,114.0624068370089 176.26213870756328,110.97670653951354 176.49274856690317,107.89100213861093 176.49274856690317,104.52477447572164 175.80091899074614,101.15854193037376 176.49274856690317,97.79230450256728 176.72335842624307,94.98710291530006 177.64579785987735,91.62085653445683 177.1845781430602,88.5351263966877 175.80091899074614,85.72991361888126 173.95604012254626,83.7662626572419 171.88055139407516,82.92469745082781 168.6520133735612,82.08313193893991 165.8846950698644,82.08313193893991 162.65615704935044,83.7662626572419 160.81127818115056,84.32730595883913 158.73578945267946,86.57147780805826 157.12152044288814,88.5351263966877 156.89091058447957,91.62085653445683 155.96847114898264,95.5481435037218 156.4296908667311,98.63386431708932 155.73786129057407,102.56113941781223 155.73786129057407,104.52477447572164 155.2766415728256,109.01307694031857 153.8929824223742,112.94033447606489 154.35420214012265,116.86758536635898 155.73786129057407,118.83120831870474 159.65822888724506,119.95327783143148 162.88676690869033,122.19741522870027 166.11530492920429,122.19741522870027" stroke="#4DD2FF" stroke-dasharray="none" stroke-linecap="round" stroke-linejoin="round" stroke-width="0.5"><title>2013-11-16 10.4km</title><desc>9223370652294258807</desc></polyline><polyline fill="none" opacity="1" points="41.89198278263211,160.80007049744017 42.878480629995465,155.70008745137602 44.851476326584816,150.60009392397478 45.09810078795999,146.4000913859345 45.59134971164167,143.1000844053924 45.34472524933517,138.90006917435676 45.59134971164167,135.90005394420587 44.358227401040494,132.6000330010429 40.16561154834926,129.90001260256395 36.46624462027103,129.00000514974818 32.76687769033015,129.00000514974818 28.82088629901409,130.50001738895662 26.10801721829921,132.30003087921068 24.874894907698035,136.50005727959797 23.148523674346507,141.30007874849252 23.148523674346507,144.30008745123632 22.90189921297133,147.0000921834726 22.162025826983154,151.20009370637126 22.40865028835833,155.10008875629865 22.162025826983154,158.10008077835664 22.40865028835833,163.20005889236927 23.395148135721684,165.60004496737383 25.86139275599271,167.7000308786519 30.54725753236562,171.60000000009313 34.493248923681676,171.60000000009313 38.19261585269123,170.40001015365124 40.41223601065576,169.20001972699538 43.125105092301965,165.90004306309856 43.86497847735882,163.20005889236927 43.61835401598364,159.000077677425 44.11160294059664,154.2000904425513 45.09810078795999,151.20009370637126 45.837974173016846,147.60009283619002 45.837974173016846,144.00008674431592 46.084598635323346,139.80007303715684 45.59134971164167,135.90005394420587 43.371729554608464,132.6000330010429 40.65886047296226,130.50001738895662 36.46624462027103,128.4000000001397 32.76687769033015,129.00000514974818 29.31413522362709,130.50001738895662 26.10801721829921,132.0000287219882 23.395148135721684,135.00004866719246 22.655274749733508,140.40007542981766 22.90189921297133,144.00008674431592 22.40865028835833,147.60009283619002 23.888397060334682,151.20009370637126 22.162025826983154,156.90008440450765 21.422152440994978,160.80007049744017 22.162025826983154,164.70005046087317 22.40865028835833,166.80003713420592 26.10801721829921,169.20001972699538 29.06751076038927,170.70000767009333 34.0,171.30000259238295 37.45274246670306,170.70000767009333 40.65886047296226,169.20001972699538 42.878480629995465,166.20004112226889 43.61835401598364,162.60006201080978 44.604851863346994,159.000077677425 45.09810078795999,155.4000881218817 45.34472524933517,152.10009310836904 45.837974173016846,149.1000938336365 46.084598635323346,145.50008991756476 46.57784755900502,139.50007178564556" stroke="#4DD2FF" stroke-dasharray="none" stroke-linecap="round" stroke-linejoin="round" stroke-width="0.5"><title>2013-11-03 10.7km</title><desc>9223370653417861807</desc></polyline><polyline fill="none" opacity="1" points="88.16202439460903,155.7600909504108 87.92526488378644,159.2160800890997 87.92526488378644,162.96006266516633 89.34582195524126,167.28003524802625 92.4236956126988,169.5840174248442 96.92212634254247,171.31200259411708 100.23675951175392,171.60000000009313 104.02491170540452,170.16001262003556 107.33954487461597,167.28003524802625 107.8130638981238,162.6720642137807 109.94389950763434,158.06408426584676 110.18065902031958,154.60809345706366 110.18065902031958,151.44009747868404 110.41741853114218,147.1200961722061 110.65417804382741,142.80008703446947 111.83797560445964,139.0560727783013 112.07473511714488,135.3120526385028 109.94389950763434,132.7200352489017 108.5233424352482,130.41601742454804 105.44546877872199,128.9760051521007 101.65731658414006,128.4000000001397 97.86916439142078,129.2640076763928 94.55453122220933,129.84001261997037 89.34582195524126,133.8720433257986 88.63554341997951,135.0240508459974 88.63554341997951,136.46405946207233 89.81934097968042,139.63207535468973 89.58258146699518,143.66408948926255" stroke="#4DD2FF" stroke-dasharray="none" stroke-linecap="round" stroke-linejoin="round" stroke-width="0.5"><title>2013-11-02 10.5km</title><desc>9223370653505000807</desc></polyline><polyline fill="none" opacity="1" points="169.77335837297142,167.82003335561603 172.65886771772057,165.66004954348318 174.6565280323848,162.96006684168242 175.54437706060708,159.18008557590656 175.54437706060708,155.94009654247202 175.7663393188268,152.70010280935094 175.54437706060708,149.46010437584482 175.54437706060708,146.49010168295354 176.43222609069198,142.98009340977296 176.87615060433745,140.01008210144937 176.43222609069198,137.31006839242764 175.32241480425,134.34004954481497 173.99064126145095,132.72003759886138 170.4392451448366,130.56001984444447 167.7756980592385,128.4000000001397 165.3341132281348,129.48001018329524 162.0046793706715,130.8300221778918 159.78505679685622,132.45003549358808 158.67524551134557,135.69005860155448 158.2313209977001,138.12007284793071 157.7873964831233,141.63008875912055 156.45562293939292,144.33009724435396 156.01169842481613,146.76010209089145 156.23366068210453,150.81010429398157 157.7873964831233,154.32010026299395 154.90188713837415,155.13009854895063 155.12384939659387,156.21009580790997 154.45796262472868,157.56009164638817 154.90188713837415,163.23006525845267 160.22898131329566,166.20004569296725 165.77803774364293,167.55003549298272 167.1098112873733,167.55003549298272 169.10747160110623,167.55003549298272 171.77101868763566,168.3600289823953 173.99064126145095,164.0400603134185 174.6565280323848,162.96006684168242 174.8784902896732,160.5300796192605 175.54437706060708,159.18008557590656 173.54671674594283,158.91008666879497 174.8784902896732,158.10008975397795 176.2102638334036,155.94009654247202 175.9883015761152,150.81010429398157 176.2102638334036,149.46010437584482 175.7663393188268,146.2201012421865 176.2102638334036,142.1700907170307 175.7663393188268,136.7700652598869 175.32241480425,133.26004171161912 173.54671674594283,129.75001264712773 169.55139611661434,129.48001018329524 165.77803774364293,129.21000768686645 162.6705661425367,130.56001984444447 159.78505679685622,132.72003759886138 156.67758519575,133.26004171161912 156.45562293939292,137.58006991050206 156.23366068210453,140.55008445074782 156.01169842481613,144.0600965428166 154.90188713837415,147.57010311936028 155.34581165295094,151.62010385282338 155.12384939659387,155.13009854895063 154.90188713837415,159.18008557590656 154.90188713837415,161.61007426702417 158.45328325405717,165.66004954348318 164.00233968626708,168.63002674723975 166.44392451550812,169.98001507879235 169.32943385839462,171.60000000009313 173.32475448958576,167.82003335561603 175.1004525469616,162.69006839231588 175.54437706060708,159.7200832911767 175.54437706060708,158.6400877290871 175.1004525469616,153.24010209064 174.8784902896732,148.92010417976417 175.32241480425,146.2201012421865 175.54437706060708,142.98009340977296 177.09811286255717,138.93007700890303 175.7663393188268,135.96006031497382 174.43456577509642,134.34004954481497 172.88082997407764,130.8300221778918 170.21728288847953,130.02001507859677 166.0,129.75001264712773 162.0046793706715,130.56001984444447 159.78505679685622,130.8300221778918 156.89954745396972,132.72003759886138 154.90188713837415,135.69005860155448 154.67992488108575,138.39007426798344 155.34581165295094,139.7400808769744 154.23600036650896,142.71009254432283 154.67992488108575,145.95010076928884 154.90188713837415,147.57010311936028 154.45796262472868,150.27010442432947 154.90188713837415,153.78010124200955 154.67992488108575,157.02009340864606 154.90188713837415,161.34007565444335 157.5654342258349,166.20004569296725 161.7827171124518,168.63002674723975 163.11449065618217,168.3600289823953 166.0,169.98001507879235 167.99766031466424,169.1700221770443 171.1051319167018,171.33000259427354 173.32475448958576,168.63002674723975 174.8784902896732,162.42006990942173 173.99064126145095,158.37008875748143 175.1004525469616,151.35010403278284 174.8784902896732,147.0301024664659 174.8784902896732,145.68010026379488 176.43222609069198,142.98009340977296 177.76399963349104,140.82008557626978 177.09811286255717,136.7700652598869 175.32241480425,132.1800333559513 173.10279223136604,129.75001264712773 169.9953206302598,128.6700025945902 166.0,128.94000515691005 161.1168303405866,130.56001984444447 157.1215097112581,132.1800333559513 156.67758519575,133.53004371840507 155.56777391023934,134.61005142168142 155.78973616752774,137.04006684245542 156.01169842481613,138.6600756549742 156.23366068210453,142.1700907170307 156.23366068210453,143.5200950417202 156.23366068210453,147.84010339644738 156.01169842481613,149.19010429433547 155.12384939659387,151.62010385282338 155.78973616752774,155.13009854895063 154.90188713837415,156.21009580790997 155.12384939659387,161.07007700833492 156.23366068210453,162.15007139416412 156.23366068210453,163.50006364332512 158.45328325405717,165.66004954348318" stroke="#4DD2FF" stroke-dasharray="none" stroke-linecap="round" stroke-linejoin="round" stroke-width="0.5"><title>2013-10-26 11.1km</title><desc>9223370654110301807</desc></polyline><polyline fill="none" opacity="1" points="23.602830636315048,212.77900013769977 25.705628934316337,215.62108581862412 28.042071488685906,217.89475188939832 30.845802552998066,218.46316806343384 34.11682212725282,217.89475188939832 38.08877446874976,216.18950254260562 41.359794043935835,213.91583482245915 42.29437106475234,209.93691102182493 42.06072680931538,206.52639954793267 42.52801532112062,202.26325324806385 42.52801532112062,198.85273064253852 42.52801532112062,195.1579922370147 43.92988085281104,191.4632480267901 45.565390639938414,189.18955639493652 46.49996766168624,186.63165068160743 46.26632340531796,184.07374218595214 43.92988085281104,181.23161837016232 40.8925055321306,179.81055517448112 37.855130213312805,177.25263925665058 34.58411063905805,176.4000000001397 31.0794468075037,177.82106525660492 28.27571574319154,180.09476788225584 25.705628934316337,182.6526807071641 25.238340424373746,185.77901482582092 25.238340424373746,189.4737679695245 24.771051913499832,192.60009301709943 24.30376340262592,196.86325683817267 21.50003233831376,199.9895720607601 21.967320849187672,203.68430287321098 21.733676593750715,207.94744659680873 22.200965103693306,211.07374708005227 22.200965103693306,213.91583482245915 24.30376340262592,216.75791912851855 27.341138722375035,219.0315841003321 30.61215829756111,219.60000000009313 34.58411063905805,219.0315841003321 37.154197447001934,217.610543750925 40.8925055321306,215.90529419737868 41.82708255480975,213.6316262029577 43.462592341937125,210.22112008789554 43.92988085281104,206.81060902611353 43.92988085281104,203.1158831268549 44.39716936368495,199.70536175812595 45.0981021290645,195.4422030900605 45.33174638450146,192.0316705906298 45.79903489537537,189.18955639493652 45.565390639938414,185.49480280443095 44.63081361912191,181.80004340759479 42.52801532112062,179.24212965508923 39.4906400013715,178.10527820512652 35.98597617074847,177.53685227409005 32.48131234012544,177.53685227409005 29.21029276587069,178.95791684417054 25.705628934316337,181.23161837016232 24.30376340262592,184.07374218595214 25.004696168005466,188.33692146651447 23.602830636315048,191.74745932617225 23.36918638087809,194.58957042940892 23.36918638087809,198.28430972713977 21.733676593750715,201.69483315735124 22.200965103693306,206.52639954793267 21.967320849187672,209.3684927856084 23.36918638087809,212.21058258996345 24.30376340262592,215.90529419737868 25.238340424373746,217.610543750925 30.845802552998066,219.0315841003321 34.81775489356369,218.46316806343384 37.38784170243889,216.18950254260562 41.59343829844147,212.77900013769977 43.22894808650017,211.9263737637084 43.92988085281104,209.08428361662664 43.462592341937125,205.95798048726283 43.462592341937125,202.26325324806385 43.462592341937125,199.13694104878232 43.92988085281104,195.72641390911303" stroke="#4DD2FF" stroke-dasharray="none" stroke-linecap="round" stroke-linejoin="round" stroke-width="0.5"><title>2013-10-20 10.7km</title><desc>9223370654628121807</desc></polyline><polyline fill="none" opacity="1" points="105.61929493397474,176.4000000001397 102.02294617611915,177.2202608489897 98.65136921592057,179.4076216588728 96.17887944355607,182.68865890684538 95.27979225572199,185.69627220346592 95.27979225572199,188.7038815007545 94.60547686275095,191.98490526387468 94.38070506509393,196.08617827505805 93.25684607867151,199.3671913293656 93.70638967305422,202.3747824486345 92.5825306866318,206.20261990721337 95.05502045713365,208.6633691387251 95.9541076477617,211.9443639498204 97.75228202622384,215.49876962439157 100.0,217.41267805802636 103.59634875878692,218.77975451922975 107.4174693133682,219.60000000009313" stroke="#4DD2FF" stroke-dasharray="none" stroke-linecap="round" stroke-linejoin="round" stroke-width="0.5"><title>2013-10-19 10.2km</title><desc>9223370654714312807</desc></polyline><polyline fill="none" opacity="1" points="157.12151614949107,187.93980065686628 156.63502388447523,191.7863887855783 155.6620393525809,195.33708015549928 154.93230095412582,198.59187605278566 154.68905482254922,201.8466676226817 154.68905482254922,205.98912336095236 155.17554708756506,209.83568312670104 156.87827001698315,213.68223684793338 158.09450068231672,215.75345557858236 161.01345427706838,219.00822432828136 164.66214626841247,219.00822432828136 167.58109986409545,219.60000000009313 170.98654572386295,218.1205605531577 173.66225318517536,216.34523203712888 175.3649761164561,212.79457114078104 175.85146838147193,208.35623777774163 176.09471451491117,203.6220066549722 176.09471451491117,200.66310755256563 176.09471451491117,197.11242390889674 177.06769904587418,194.1535169375129 177.79743744432926,190.60282385186292 177.55419131275266,186.164450250566 175.3649761164561,179.95071368920617 172.68926865514368,177.87946466286667 167.8243459975347,176.4000000001397 164.90539240278304,176.6958930043038 161.98643880710006,179.35892843198963 159.31073134578764,181.4301762059331 158.58099294733256,184.38909855671227 157.12151614949107,189.12336687906645 155.6620393525809,193.56173511454836 155.6620393525809,197.11242390889674 154.20256255567074,200.66310755256563 154.44580868817866,204.50967568764463 154.68905482254922,207.76445938879624 154.20256255567074,211.31512758042663 156.14853161852807,215.4575672952924 158.8242390807718,218.1205605531577 161.49994654208422,218.41644851467572 166.60811533220112,219.00822432828136 169.52706892602146,217.52878452464938 172.68926865514368,214.86579062230885 173.66225318517536,212.20279382448643 174.8784838495776,208.35623777774163" stroke="#4DD2FF" stroke-dasharray="none" stroke-linecap="round" stroke-linejoin="round" stroke-width="0.5"><title>2013-10-12 10.6km</title><desc>9223370655320152807</desc></polyline><polyline fill="none" opacity="1" points="28.317771709524095,265.5840174248442 31.632404879666865,267.60000000009313 34.710278537124395,267.60000000009313 38.97194975428283,265.8720150399022 41.57630438823253,263.8560310017783 43.943899508565664,260.6880526384339 44.890937557443976,256.9440727783367 45.12769706826657,252.33608948835172 43.943899508565664,248.59209650335833 44.180659021250904,243.40809650346637 45.36445658095181,239.37608870584518 45.60121609363705,236.2080777916126 46.54825414158404,233.32806421397254 45.837975605390966,231.0240508459974 43.23362097237259,227.28002436971292 38.97194975428283,225.84001261997037 35.42055707331747,224.9760051521007 32.57944292854518,224.9760051521007 30.21184780728072,226.12801503995433 26.1869361018762,228.14403100241907 24.76637902855873,231.0240508459974 23.81934098061174,234.48007006268017 24.05610049236566,238.5120861462783 24.05610049236566,241.96809450211003 24.292860004119575,245.13609775714576 24.05610049236566,248.88009617221542 22.398783908225596,251.47209162986837 21.6885053711012,254.3520832741633 21.451745859347284,257.2320714369416 22.398783908225596,260.1120561193675 23.582581467926502,262.41604135814123 25.239898052997887,265.296019774396 28.317771709524095,266.7360076766927 31.632404879666865,266.7360076766927 36.6043546339497,267.60000000009313 39.68222829140723,264.72002436965704 41.57630438823253,262.1280433256179 43.943899508565664,258.3840657279361 44.180659021250904,254.3520832741633 44.180659021250904,250.89609288284555 45.36445658095181,247.15209763497114 46.07473511714488,243.69609680003487 45.837975605390966,240.52809162950143 45.837975605390966,237.93608426721767 46.31149462983012,234.48007006268017 45.60121609363705,231.6000543970149 44.65417804475874,229.00803732057102 43.23362097237259,226.12801503995433 40.155747315846384,224.4000000001397 36.6043546339497,224.4000000001397 32.57944292854518,224.4000000001397 28.791290735825896,224.9760051521007 26.660455126315355,227.28002436971292" stroke="#4DD2FF" stroke-dasharray="none" stroke-linecap="round" stroke-linejoin="round" stroke-width="0.5"><title>2013-10-06 10.6km</title><desc>9223370655838244807</desc></polyline><polyline fill="none" opacity="1" points="97.57859648484737,228.04678432480432 95.27249789983034,228.6078275591135 93.65822888817638,230.2909564457368 93.42761902883649,231.97408411232755 92.50517959613353,234.77929417719133 92.27456973679364,237.86502133100294 91.5827401606366,242.07282447465695 90.89091058447957,245.15854193037376 91.5827401606366,248.80529363360256 90.660300726071,251.89100213861093 90.19908100832254,255.53774326271378 89.27664157561958,258.3429248428438 89.27664157561958,260.3065499314107 90.19908100832254,263.3922431420069 91.8133500199765,265.6363810834009 95.96432747505605,266.75844923895784 99.19286549650133,267.60000000009313 102.19079365767539,266.75844923895784 105.18872181978077,266.47793225129135 107.26421054638922,264.23379512433894 108.64786969870329,261.98965582833625 109.57030913420022,258.0624068370089 109.33969927486032,254.97670653951354 110.26213870942593,251.04944568034261 110.26213870942593,247.40269750310108 110.03152885008603,243.75594359473325 109.80091899260879,238.98710291530006 110.26213870942593,235.62085653445683 110.95396828558296,234.21825243486091 110.26213870942593,231.41304169245996 107.95604012254626,228.88834912492894 104.9581119613722,226.0831319389399 102.88262323383242,225.2415661229752 99.65408521238714,225.80261003412306 96.19493733346462,225.80261003412306 94.35005846433342,226.6441756472923 93.19700917135924,229.72991361888126 91.5827401606366,232.5351263966877 91.35213030222803,235.62085653445683 90.660300726071,239.26762322615832 89.96847115084529,243.19490402424708 89.5072514321655,245.7195810272824 88.81542185787112,248.80529363360256 88.81542185787112,252.17152088950388 87.89298242330551,255.53774326271378 87.43176270555705,258.0624068370089 87.66237256396562,261.14810303226113 88.81542185787112,263.6727605035994 91.8133500199765,266.19741522870027 95.50310775730759,267.0389661930967 99.65408521238714,267.319483113708 103.34384294971824,266.75844923895784 105.8805513959378,264.794829609571 108.64786969870329,262.55069085536525 109.80091899260879,258.3429248428438 110.26213870942593,255.53774326271378 110.72335842624307,252.4520396075677 110.95396828558296,249.6468509058468 111.4151880024001,245.7195810272824 111.64579786174,243.4754238263704 111.87640772014856,240.3897041331511 112.10701757855713,237.5845008501783 112.3376274369657,234.49877332313918 111.64579786174,231.69356291904114 110.4927485678345,229.1688706574496 108.18664998188615,226.6441756472923 105.64994153752923,225.2415661229752 102.88262323383242,224.4000000001397 100.57652464695275,224.96104411478154 96.65615705028176,225.52208809531294 93.88883874751627,227.20521922083572 92.50517959613353,230.8519991368521 90.89091058447957,235.34033578261733 89.96847115084529,238.14554177806713 89.7378612915054,240.3897041331511 89.5072514321655,243.4754238263704 89.7378612915054,246.56113941781223 89.96847115084529,249.92736992868595 89.7378612915054,253.01307694031857 89.5072514321655,256.3792980927974 89.96847115084529,259.7455143611878 91.35213030222803,262.83120831870474 93.88883874751627,264.5143123844173 96.65615705028176,267.319483113708 100.57652464695275,267.319483113708 102.88262323383242,267.0389661930967 106.34177111368626,265.35586395906284 108.41725984029472,263.3922431420069 109.57030913420022,260.0260321632959 110.03152885008603,257.2208526181057 110.95396828558296,254.13515119976364 110.95396828558296,250.76892679347657 111.64579786174,247.96373605774716 111.64579786174,244.8780223308131 111.4151880024001,241.79230450256728 112.56823729537427,238.14554177806713 111.64579786174,235.34033578261733 110.72335842624307,231.97408411232755 110.03152885008603,229.44939215504564 107.49482040572912,227.7662626572419 104.26628238521516,226.0831319389399 101.26835422310978,226.6441756472923 97.11737676803023,226.9246974508278 94.11944860592484,228.88834912492894 92.7357894545421,230.8519991368521 90.660300726071,234.21825243486091 90.19908100832254,236.46241858764552 89.27664157561958,240.1091839573346 89.5072514321655,243.19490402424708 88.35420214012265,246.28061998845078 88.35420214012265,249.6468509058468" stroke="#4DD2FF" stroke-dasharray="none" stroke-linecap="round" stroke-linejoin="round" stroke-width="0.5"><title>2013-09-29 10.5km</title><desc>9223370656443428807</desc></polyline><polyline fill="none" opacity="1" points="173.86700720340014,227.95446153078228 171.39451922569424,225.49368106527254 170.0458894195035,225.76710125035606 166.00000000093132,224.94684059894644 163.30274038854986,226.5873616025783 160.83025241084397,228.22788141667843 159.7063942393288,232.055756355403 158.35776443313807,233.6962722032331 157.6834495300427,238.6178126083687 157.00913462694734,240.80516046099365 156.78436299227178,244.9064319843892 156.78436299227178,247.09377375710756 156.55959135852754,249.28111341316253 156.55959135852754,253.38236956926994 155.2109615523368,255.56970314332284 155.6605048207566,261.0380278278608 156.55959135852754,263.4987696236931 161.95411058235914,265.4126780577935 164.2018269263208,265.95950874197297 167.5734014417976,265.95950874197297 171.61929085943848,264.86584724183194 174.5413221064955,262.1316911787726 176.5642668157816,258.0304508882109 177.23858171794564,253.65578638156876 175.66518027801067,250.92161676776595 174.09177883714437,249.55453072185628 175.88995191268623,245.17984982184134 177.4633533526212,239.98490526387468 177.91289662197232,238.07097531366162 177.23858171794564,235.06336783478037 178.36243989039212,231.235497985268 175.66518027801067,228.50130126997828 172.9679206656292,225.49368106527254 171.16974759101868,224.94684059894644 165.77522836625576,225.49368106527254 164.2018269263208,225.76710125035606 161.27979567926377,228.22788141667843 158.80730770155787,230.41523931804113 158.1329927984625,232.87601442844607 157.6834495300427,236.43046263838187 156.55959135852754,241.07857879367657 157.00913462694734,244.35959621169604 157.23390626069158,246.54693851224147 156.55959135852754,250.92161676776595 157.00913462694734,254.20261990698054 155.6605048207566,258.3038671386894 156.33481972385198,261.5848595700227 156.55959135852754,263.4987696236931 160.38070914242417,264.86584724183194 163.97705529164523,267.3265848727897 166.22477163467556,266.77975451922975 169.14680288173258,265.95950874197297 172.0688341287896,264.86584724183194 174.9908653749153,261.5848595700227 175.21563700959086,259.3975318111479 175.88995191268623,256.66336913825944 176.78903844952583,253.92920316033997 177.91289662197232,250.92161676776595 177.0138100842014,247.3671913293656 175.88995191268623,243.53934230282903 176.11472354643047,240.5317420954816 176.5642668157816,237.25071912514977 177.68812498729676,236.43046263838187 178.58721152413636,232.87601442844607 177.23858171794564,230.14181969570927 178.36243989039212,230.41523931804113 177.91289662197232,227.68104161159135 174.76609374023974,226.31394151831046 171.39451922569424,225.22026084875688 168.24771634489298,224.6734203158412 164.2018269263208,225.76710125035606 161.0550240445882,228.22788141667843 158.35776443313807,230.14181969570927 158.1329927984625,233.42285297834314 155.88527645543218,237.25071912514977 154.53664664924145,241.62541536078788 156.11004808917642,241.62541536078788 156.78436299227178,243.2659242679365 156.33481972385198,246.8203561506234 155.6605048207566,250.92161676776595 153.41278847679496,253.10895272321068 155.43573318701237,256.11653620772995 155.6605048207566,258.57728335657157 157.23390626069158,262.9519383441657 159.256850970909,265.4126780577935 161.95411058235914,266.23292403365485 165.77522836625576,266.23292403365485 169.37157451640815,267.60000000009313 172.9679206656292,266.23292403365485 174.09177883714437,264.0456007702742 174.31655047181994,260.49119595531374 175.66518027801067,259.3975318111479 175.88995191268623,255.29628656315617 177.91289662197232,248.73427869705483 177.91289662197232,244.08617827459238 175.88995191268623,241.35199709353037 176.5642668157816,238.07097531366162 177.0138100842014,235.61020585522056 177.4633533526212,232.055756355403 177.23858171794564,230.14181969570927 175.66518027801067,227.1342016728595 172.0688341287896,225.76710125035606 168.69725961331278,224.4000000001397 166.00000000093132,225.76710125035606 163.52751202322543,226.8607816544827 160.38070914242417,229.04814087809063" stroke="#4DD2FF" stroke-dasharray="none" stroke-linecap="round" stroke-linejoin="round" stroke-width="0.5"><title>2013-09-22 10.9km</title><desc>9223370657048162807</desc></polyline></svg>