<?xml version="1.0" encoding="utf-8" ?>
<svg baseProfile="full" height="300mm" version="1.1" viewBox="0,0,200,300" width="200mm" xmlns="http://www.w3.org/2000/svg" xmlns:ev="http://www.w3.org/2001/xml-events" xmlns:xlink="http://www.w3.org/1999/xlink"><defs /><rect fill="#222222" height="300" width="200" x="0" y="0" /><text fill="#FFFFFF" style="font-size:12px; font-family:Arial; font-weight:bold;" x="10" y="20">Over 10km Runs</text><text fill="#FFFFFF" style="font-size:4px; font-family:Arial" x="10" y="280">Runner</text><text fill="#FFFFFF" style="font-size:9px; font-family:Arial" x="10" y="290">keep</text><text fill="#FFFFFF" style="font-size:4px; font-family:Arial" x="65" y="280">SPECIAL TRACKS</text><rect fill="yellow" height="2.6" width="2.6" x="65" y="283" /><text fill="#FFFFFF" style="font-size:3px; font-family:Arial" x="70" y="285.5">Over 20.0 km</text><rect fill="red" height="2.6" width="2.6" x="65" y="287" /><text fill="#FFFFFF" style="font-size:3px; font-family:Arial" x="70" y="289.5">Over 40.0 km</text><text fill="#FFFFFF" style="font-size:4px; font-family:Arial" x="120" y="280">STATISTICS</text><text fill="#FFFFFF" style="font-size:3px; font-family:Arial" x="120" y="285">Number: 15</text><text fill="#FFFFFF" style="font-size:3px; font-family:Arial" x="120" y="290">Weekly: 1.2</text><text fill="#FFFFFF" style="font-size:3px; font-family:Arial" x="141" y="285">Total: 163.6 km</text><text fill="#FFFFFF" style="font-size:3px; font-family:Arial" x="141" y="290">Avg: 10.9 km</text><text fill="#FFFFFF" style="font-size:3px; font-family:Arial" x="167" y="285">Min: 10.2 km</text><text fill="#FFFFFF" style="font-size:3px; font-family:Arial" x="167" y="290">Max: 14.0 km</text><polyline fill="none" opacity="1" points="27.071501364320284,75.59999999999854 27.113929402490612,75.3116499955504 27.037558933719993,75.00193957488955 26.97815968032228,74.79902520146425 26.884817996266065,74.64950901833072 26.799961919896305,74.45727351549431 26.732077058812138,74.22231838524021 26.69813462824095,73.94464325157605 26.757533881725976,73.59220804128563 26.782990704639815,73.31453072240402 26.766019489325117,73.00481257683714 26.749048274068628,72.68441323447769 26.766019489325117,72.37469265150139 26.774505096982466,72.05429078761517 26.791476312238956,71.78728825494909 26.80844752752455,71.50960467649566 26.97815968032228,71.3387219956785 27.241213517059805,71.30668145240634 27.393954454513732,71.26396070811461 27.402440062141977,71.08239729060006 27.453353707969654,70.89015322326304 27.461839315627003,70.63382708210702 27.43638249268406,70.27069697738625 27.18181426357478,70.11049199585977 26.995130895549664,69.93960632884409 27.06301575663383,69.52307098750316 27.105443794862367,69.23469909709092 27.156357440631837,68.90360416427575 27.190299871232128,68.59386895521311 27.241213517059805,68.28413254789484 27.266670339973643,68.00643681910151 27.317583985772217,67.81418536568526 27.385468846885487,67.70737880320667 27.393954454513732,67.52580731993658 27.343040808686055,67.44036177358794 27.419411277398467,67.26947040726373 27.48729613854084,67.0131326737901 27.54669539196766,66.7567941195739 27.61458025308093,66.46841226497781 27.71640754470718,66.12662501802697 27.784292405791348,65.8596027160529 27.877634089789353,65.581898577213 28.03886063490063,65.56053668049572 28.234029610583093,65.65666517087811 28.463141016749432,65.59257952341432 28.700738030602224,65.42168421276438 28.78559410700109,65.18670256488986 28.938335044455016,64.88763401550386 29.091075981908944,64.58856434886548 29.252302527049324,64.31085580083891 29.413529072131496,64.04382744231407 29.54929879429983,63.7767981930665 29.710525339411106,63.47772437641834 29.854780669294996,63.189330709326896 30.049949644948356,62.826166835817276 30.27057544348645,62.473682677096804 30.482715634425404,62.06778990504972 30.67788461004966,61.7366653298086 30.839111155160936,61.46962838433683 31.0173089155287,61.191909016051795 31.170049853011733,60.95691495189385 31.322790790494764,60.721920197793224 31.500988550891634,60.444198235403746 31.670700703631155,60.12374861993885 31.78101360288565,59.81397943887714 31.916783325053984,59.525572571998055 32.13740912362118,59.25852825018228 32.40894856804516,59.076937602469116 32.58714632844203,58.84193732922722 32.73988726589596,58.58557260788075 32.8756569880934,58.45738993930718 32.96051306443405,58.26511555154866 33.070825963746756,58.04079484873364 33.130225217173574,57.85920143842668 33.299937369913096,57.75238159282162 33.45267830739613,57.72033561135322 33.56299120665062,57.688289617064584 33.69027532124892,57.54942349347402 33.84301625873195,57.37851101065462 34.021214019099716,57.164869893902505 34.21638299472397,56.9191819047046 34.343667109293165,56.75895020108146 34.26729664055165,56.427803663827945 34.28426785583724,56.16074900676176 34.39458075512084,55.92574017149309 34.61520655368804,55.68004837867193 34.78491870642756,55.45572043087304 34.895231605682056,55.15661552247184 35.04797254319419,54.857509496301645 35.26859834176139,54.61181442428642 35.51468096324243,54.38748348248191 35.65045068541076,54.163151911889145 35.7862204076082,53.864042173008784 35.91350452214829,53.55424876496545 36.11715910542989,53.29786710670305 36.405669765139464,53.255136750456586 36.600838740792824,53.06284986510582 36.702666032419074,52.763736014101596 36.779036501131486,52.46462104521197 36.82995014698827,52.19755316399096 36.90632061570068,51.84502219619753 36.999662299698684,51.49248967556923 37.06754716078285,51.27883284669224 37.08451837609755,51.11858985073195 37.152403237181716,50.85151747773489 37.21180249063764,50.48829762022069 37.30514417466475,50.12507611419278 37.406971466291,49.70843765079189 37.449399504461326,49.39862815654487 37.52576997326105,49.04608485931385 37.610626049601706,48.75763918823941 37.68699651834322,48.373043342835444 37.74639577179914,48.00981223619601 37.805795025255065,47.66794615914114 37.89913670925307,47.3153952375942 37.96702157033724,46.97352619397134 38.03490643145051,46.68507305239473 38.11127690016292,46.332517800692585 38.170676153647946,46.033378793275915 38.230075407074764,45.76628944885306 38.2725034453033,45.63808624689409 38.31493148347363,45.37099558310729 38.37433073692955,45.05048560976866 38.45070120564196,44.6979231563746 38.53555728204083,44.36672670941334 38.59495653549675,44.003477417129034 38.603442143124994,43.93937442969036 38.63738457366708,43.715013569177245 38.696783827123,43.42654868130194 38.78163990355097,43.04192721315485 38.83255354934954,42.71072391192138 38.90892401803285,42.40088732451113 38.959837663918734,42.208574356438476 39.01075130971731,42.05899728397344 39.0277225249738,41.96284044686763 39.078636170801474,41.845315266815305 39.044693740288494,41.663685103580065 39.05317934791674,41.417949520546244 39.08712177845882,41.161528977172566 39.15500663954299,40.9157918519486 39.20592028537067,40.72347531448031 39.40957486865227,40.73415957870748 39.6726287054189,40.830317892410676 39.95265375741292,40.93716032757948 40.21570759420865,41.01194994737307 40.292078062921064,40.8516863908153 40.3175348858349,40.638001149469346 40.30904927820666,40.38157810652774 40.3175348858349,40.028995080676395 40.34299170874874,39.64435728047101 40.38541974691907,39.323824367835186 40.39390535457642,39.05671262638498 40.25813563237898,38.87507613282651 39.97811058032676,38.939183177644736 39.6726287054189,38.99260567576857 39.49443094502203,38.97123668077984 39.54534459084971,38.661385612496815 39.596258236677386,38.35153334428469 39.66414309776155,38.04167987607798 39.72354235124658,37.699771208186576 39.82536964287283,37.35786107920285 39.86779768104316,37.06937327129708 39.918711326870834,36.74883004249568 39.95265375741292,36.449655203650764 39.99508179561235,36.20390360624151 39.96113936507027,36.09705485015729 40.029024226154434,35.97952105366858 40.2072219865513,35.88335690992972 40.334506101120496,35.76582279949798 40.2072219865513,35.626918628186104 40.15630834075273,35.477329250919865 40.17327955600922,35.30636962017161 40.24116441706428,35.28499964061484 40.41936217749026,35.32773959398037 40.60604554548627,35.30636962017161 40.741815267683705,35.34910956209205 40.90304181279498,35.28499964061484 41.0727539655345,35.263629655353725 41.14063882661867,35.071299531329714 41.17458125718986,34.67595282425464 41.20852368770284,34.269919037484215 41.25095172590227,34.0027904223316 41.259437333530514,33.70360531444021 41.276408548787,33.55401234089368 41.2933797641017,33.36167810676125 41.225494903017534,33.244140291630174 41.030325927364174,33.212084493883594 40.81818573639612,33.180028683302226 40.656959191313945,33.08386117446935 40.444819000404095,33.051805312490615 40.13933712546714,32.98769355005061 39.833855250501074,32.92358173620596 39.51988776793587,32.848784555113525 39.231377108284505,32.78467262993945 38.90043841046281,32.709875318993 38.68829821946565,32.603021896313294 38.493129243841395,32.58165119464684 38.23856101473211,32.5709658416672 37.92459353216691,32.549595131436945 37.653054087772034,32.53890977418632 37.32211538992124,32.506853693848825 37.05906155318371,32.474797600683814 36.74509407061851,32.44274149467674 36.45658341096714,32.42137075019855 36.422640980395954,32.400000000001455 36.34627051165444,32.61370724499284 36.27838565057027,32.78467262993945 36.25292882762733,32.9663229511425 36.210500789486105,33.19071395490755 36.19352957417141,33.393733844590315 36.151101535971975,33.59675321902614 36.05775985197397,33.77840169631236 35.964418167975964,33.92799425024714 35.88804769923445,34.13101226890285 35.84561966106412,34.269919037484215 35.77773479997995,34.45156598630274 35.69287872358109,34.611842363323376 35.60802264721133,34.804173591975996 35.52316657084157,34.97513429587707 35.43831049450091,35.08198455032834 35.32799759521731,35.37047952450666 35.251627126475796,35.626918628186104 35.11585740427836,35.90472672964097 34.98857328973827,36.22527334033657 34.83583235228434,36.545818666716514 34.69157702240045,36.84499314598361 34.555807300203014,37.122797017902485 34.43700879329117,37.40059992522583 34.28426785583724,37.71045587617846 34.131526918383315,37.988256743046804 34.01272841147147,38.26605664531235 33.91090111981612,38.46906365622999 33.86847308164579,38.58659379554592 33.79210261290427,38.661385612496815 33.69876092890627,38.75754641729873 33.681789713620674,39.0353436485384 33.56299120665062,39.323824367835186 33.3932790539111,39.59093521754403 33.325394192826934,39.783254477188166 33.282966154656606,39.911467060148425 33.495106345566455,39.99694200128579 33.77513139764778,39.99694200128579 34.08061327255564,40.03967943763564 34.41155197037733,40.08241685114626 34.725519452942535,40.125154241832206 35.0310013279086,40.16789160967892 35.32799759521731,40.2106289547155 35.61650825486868,40.24268194848264 35.828648445778526,40.23199761865544 35.90501891452004,40.06104814723949 35.95593256034772,39.85804517552606 35.947446952719474,39.68709490518086 36.049274244345725,39.70846370892832 36.151101535971975,39.80462325527333 36.14261592840194,40.06104814723949 36.07473106725956,40.43499964156945 35.99836059854715,40.7768966212534 35.938961345062125,41.12947635145974 35.87107648397796,41.482054528016306 35.7862204076082,41.845315266815305 35.726821154152276,42.155154005515215 35.684393115952844,42.4329394409142 35.59105143195484,42.76414389193087 35.63347947015427,43.04192721315485 35.52316657084157,43.33039348758757 35.361940025759395,43.5761231974393 35.28556955701788,43.864587546100665 35.20919908830547,44.17441846598376 35.20919908830547,44.44151312371105 35.251627126475796,44.62313698172511 35.361940025759395,44.85817900957045 35.277083949389635,45.18937342247227 35.22617030356196,45.56330095089652 35.12434301193571,45.96927743189735 35.06494375845068,46.311150765825005 35.02251572028035,46.66370611165621 35.00554450502386,46.98420962370437 34.997058897366514,47.30471185208444 34.997058897366514,47.64657948088279 34.980087682110025,47.98844564918545 34.971602074452676,48.33031035707245 34.94614525150973,48.66149040014716 34.92917403628235,48.96061958368955 34.895231605682056,49.28111389669357 34.83583235228434,49.61229000509775 34.75946188351372,49.95414777624683 34.75946188351372,50.25327212810953 34.75946188351372,50.59512716119207 34.7000626300578,50.90493202365906 34.58126412311685,51.27883284669224 34.37760953986435,51.55658661299094 34.173954956553644,51.74887711733027 33.91090111981612,51.95184992619761 33.70724653653451,52.15482222031278 33.45267830739613,52.368476710646064 33.31690858519869,52.550082578949514 33.22356690117158,52.68895737668208 33.09628278663149,52.84919722844643 32.97748427971965,53.03080200601107 32.89262820334989,53.31923227624793 32.748372873524204,53.63970913524099 32.58714632844203,53.94950221245381 32.41743417570251,54.2592940905306 32.290150061104214,54.48362539167283 32.24772202296299,54.75068564461981 32.341063706960995,54.9216037388469 32.434405390959,55.135250843377435 32.315606884047156,55.41299122669443 32.33257809927454,55.551861056934285 32.315606884047156,55.519814194405626 32.162865946564125,55.63731929423375 31.9931537937955,55.87232897635113 31.814956033427734,56.15006680195802 31.58584462723229,56.37439280368562 31.39916125923628,56.630764607252786 31.31430518286652,56.876453481767385 31.187021068297327,57.164869893902505 31.059736953757238,57.31441873549193 30.864567978074774,57.30373668465472 30.635456571850227,57.31441873549193 30.36391712751356,57.25032640901918 30.066920860204846,57.23964434962545 29.769924592896132,57.23964434962545 29.617183655471308,57.25032640901918 29.481413933215663,57.27169052356476 29.413529072131496,57.42123916557466 29.303216172847897,57.613515580458625 29.218360096478136,57.82715549971181 29.16744645065046,58.13693236979452 29.048647943738615,58.35057089202746 28.997734297910938,58.489435625684564 28.92984943682677,58.564208844043605 28.700738030602224,58.77784622586478 28.50556905497797,58.98080121046223 28.446169801522046,59.20511927892949 28.522540270263562,59.35466430865927 28.59042513134773,59.461482016020454 28.615881954261567,59.66443526723742 28.67528120771749,59.888751419915934 28.666795600089245,59.97420502701425 28.514054662606213,59.8460245821625 28.35282811752404,60.09170358782285 28.200087180011906,60.348063485456805 28.047346242528874,60.56169610632787 27.886119697446702,60.828736080628005 27.767321190534858,61.07441207017837 27.65700829125126,61.33076882063324 27.53820978436852,61.60848770716257" stroke="#4DD2FF" stroke-dasharray="none" stroke-linecap="round" stroke-linejoin="round" stroke-width="0.5"><title>2017-12-17 14.0km</title><desc>9223370523376934807</desc></polyline><polyline fill="none" opacity="1" points="100.73534937330987,32.400000000001455 100.72233434021473,32.67844135835185 100.60519904177636,32.973260932121775 100.44901864387793,33.21894336972764 100.57916897546966,33.48100409485778 100.67027420754312,33.77582174233976 100.68328924069647,34.00512386782066 100.68328924069647,34.31631892488076 100.68328924069647,34.57837730880419 100.67027420754312,34.92232808922563 100.6442441411782,35.266277906550386 100.5401238759514,35.577469768548326 100.6442441411782,35.72487616485887 100.69630427379161,36.44552711155848 100.65725917438976,36.707580953021534 100.82645460544154,37.002390856425336 100.87851473799674,37.28082178221666 100.93057487066835,37.57563030980964 100.9435899037635,37.96870724609471 100.9696199701284,38.31264853350149 101.02168010274181,38.59107648948702 101.07374023535522,38.90225992865453 101.16484546748688,39.180686548184894 101.17786050058203,39.47549051634269 101.24293566640699,39.80304965116375 101.3470559316338,40.048718428995926 101.51625136262737,40.09785212566203 101.62037162785418,40.26163097247627 101.56831149529899,40.392653892733506 101.3730859979405,40.49092099117843 101.3730859979405,40.72021058195969 101.47720626322553,40.96587752569758 101.60735659475904,41.29343268646335 101.71147685998585,41.5882315843628 101.77655202575261,41.86665211617219 101.91971739049768,42.161449638522754 102.0758977883379,42.43986887119536 102.21906315302476,42.70190992549033 102.18001805356471,42.98032793323364 101.89368732413277,42.99670544347464 101.64640169416089,42.81655271098134 101.46419123001397,42.68553237593733 101.2689657327137,42.636399714312574 101.06072520220187,42.70190992549033 100.80042453901842,42.71828747284599 100.68328924069647,42.865685300574114 100.69630427379161,43.11134795385442 100.6442441411782,43.34063265367877 100.37092844495783,43.43889739405131 100.11062778183259,43.5535394917606 99.837312085554,43.56991692560405 99.61605652194703,43.5535394917606 99.65510162134888,43.291500254032144 99.73319182032719,42.99670544347464 99.82429705245886,42.71828747284599 99.90238725137897,42.374358520253736 99.96746241714573,42.01405096576491 99.95444738393417,41.67012004159187 99.90238725137897,41.34256588524295 99.8633421518607,41.0313886277072 99.57701142242877,40.96587752569758 99.31671075936174,40.93312196158513 99.19957546098158,40.76934400998289 99.18656042782823,40.60556584008009 99.17354539461667,40.37627603531291 99.12148526206147,40.21249734136654 98.95228983095149,40.179741576343076 98.77007936680457,40.14698580263939 98.61389896890614,40.179741576343076 98.61389896890614,40.392653892733506 98.6269140021177,40.654699313985475 98.6529440684244,40.998633081086155 98.6529440684244,41.27705494914699 98.67897413478931,41.5882315843628 98.69198916788446,41.915785085686366 98.67897413478931,42.22696010299114 98.67897413478931,42.52175676069601 98.69198916788446,42.83293024305749 98.67897413478931,43.09497045894386 98.69198916788446,43.4225199427965 98.70500420103781,43.65180406183936 98.71801923419116,43.88108775294677 98.70500420103781,44.07761629045126 98.69198916788446,44.33965385144256 98.66595910157776,44.58531355723244 98.63992903527105,44.74908642148512 98.61389896890614,44.978368064672395 98.600883935811,45.20764927995333 98.58786890265765,45.436930067357025 98.58786890265765,45.63345611593104 98.58786890265765,45.9282445993158 98.600883935811,46.22303237544111 98.58786890265765,46.56695055351156 98.58786890265765,46.87811378983315 98.58786890265765,47.15652233323635 98.600883935811,47.418553327159316 98.61389896890614,47.76246815852937 98.61389896890614,48.106382027151994 98.61389896890614,48.31928060624341 98.600883935811,48.61406264517427 98.600883935811,48.794206876315 98.56183883635094,49.056234377370856 98.58786890265765,49.28550798234937 98.61389896890614,49.531157798628556 98.6529440684244,49.82593692982482 98.70500420103781,50.10433879321499 98.73103426734451,50.44824610641081 98.79610943316948,50.808528925757855 98.88721466524294,51.16881068872317 98.99133493046975,51.44720950916235 99.09545519575477,51.70923135218618 99.19957546098158,52.020381564878335 99.30369572620839,52.298778455806314 99.39480095828185,52.46254103809042 99.4598761240486,52.659055848722346 99.56399638933362,52.85557034506928 99.66811665456044,53.06846069475432 99.70716175402049,53.297726812605106 99.73319182032719,53.44511194815277 99.88937221822562,53.57612080920808 99.98047745029908,53.707129530463135 100.09761274862103,53.88726629411394 100.2147480470594,54.05102675923263 100.31886831234442,54.263915037539846 100.44901864387793,54.44405098493007 100.61821407492971,54.624186668210314 100.80042453901842,54.85344988313591 100.98263500322355,55.1154644621638 101.13881540106377,55.3447267604206 101.25595069950214,55.541236961304094 101.30801083217375,55.67224358730891 101.47720626322553,55.950632203726855 101.64640169416089,56.163517190703715 101.80258209205931,56.40915325583046 101.95876248989953,56.687540202641685 102.10192785458639,56.91679956758162 102.24509321933147,57.16243412680342 102.40127361717168,57.42444378205255 102.57046904828167,57.70282842860615 102.73966447921703,57.997587955062045 102.92187494342215,58.275971303126425 103.09107037447393,58.537978583874064 103.27328083862085,58.79998530602461 103.45549130282598,59.11111756291211 103.65071680018445,59.42224903195893 103.81991223111982,59.68425386859599 103.9891076622298,59.962633395334706 104.13227302685846,60.22463707973657 104.27543839160353,60.45388984528836 104.4186037562904,60.66676703032863 104.57478415418882,60.92876921327843 104.74397958518239,61.190770837667515 104.87412991677411,61.403646746097365 105.04332534776768,61.63289731203258 105.2255358119146,61.89489743500599 105.38171620981302,62.17327195365215 105.52488157449989,62.38614616004634 105.68106197239831,62.68089445240912 105.85025740345009,62.99201688286121 106.032467867597,63.303138525632676 106.20166329859057,63.58150985409884 106.37085872958414,63.8598805519141 106.59211429324932,64.1709999973973 106.74829469108954,64.43299470894999 106.87844502273947,64.66223962332151 107.04764045367483,64.90785869990214 107.2168358847266,65.20260094372497 107.38603131577838,65.53009149666468 107.55522674677195,65.84120671352139 107.67236204515211,66.07044900088658 107.82854244305054,66.3979372410322 107.9456777414307,66.69267591095559 108.04979800665751,67.03653679912532 108.10185813932912,67.2494025810447 108.10185813932912,67.41314523929032 107.9717078077374,67.59326191138098 107.98472284089075,67.56051344518346 108.10185813932912,67.5113907295381 108.23200847086264,67.64238459430635 108.31009866978275,67.8552493268071 108.4012039018562,68.11723618369433 108.50532416714123,68.41197073009243 108.62245946552139,68.73945273039135 108.73959476390155,69.06693385800463 108.85673006228171,69.41078810280305 108.90879019495333,69.57452788124647 109.0259254933917,69.8856328592301 109.14306079171365,70.18036316446523 109.24718105699867,70.40959735771321 109.33828628901392,70.68795258887985 109.41637648799224,70.93355962226633 109.46843662066385,71.16279241054872 109.5595418526791,71.44114593581617 109.66366211796412,71.71949883057096 109.76778238319093,72.03059837871842 109.84587258211104,72.27620272885542 109.94999284739606,72.58730086772994 110.04109807941131,72.83290410533664 110.14521834475454,73.11125384793559 110.2623536431347,73.3732295004229 110.35345887520816,73.65157801924943 110.48360920668347,73.9626726766146 110.57471443881514,74.20827316571376 110.6918497372535,74.48661979335884 110.76993993617361,74.68309938625316 110.86104516824707,74.92869843570224 110.97818046662724,75.09243086267816 111.0172255661455,75.20704343174293 111.00421053293394,75.41989506219397 110.95215040037874,75.59999999999854 110.76993993617361,75.50176097570511 110.5877294720267,75.25616307144082 110.40551900782157,74.99419143264822 110.19727847730974,74.7322192353895 109.93697781424271,74.42112652592186 109.66366211796412,74.15915310717537 109.42939152114559,73.94629929324583 109.19512092432706,73.70069828068517 108.97386536072008,73.48784367275948 108.7265797308064,73.19312129929313 108.49230913392967,72.99663932438125 108.25803853716934,72.76740995657747 107.9977378740441,72.48905943524733 107.76346727728378,72.25982912076142 107.51618164725369,72.03059837871842 107.22985091787996,71.76861986424774 106.98256528796628,71.57213561187382 106.67020449222764,71.39202477125946 106.3838737627957,71.29378238334175 106.0584979338455,71.21191366673156 105.74613713816507,71.17916616480215 105.40774627611972,71.09729737184534 105.08237044722773,71.0154285243043 104.80905475094914,70.9663071896357 104.49669395526871,70.8844382548632 104.19734819268342,70.8844382548632 103.83292726427317,70.7861954611435 103.48152136907447,70.68795258887985 103.36438607069431,70.65520494738303 103.16916057339404,70.60608346868685 102.99996514234226,70.58970963813772 102.79172461183043,70.55696197041107 102.60951414768351,70.52421429395326 102.42730368347839,70.50784045243927 102.25810825248482,70.45871891489514 102.03685268881964,70.40959735771321 101.81559712521266,70.37684964198706 101.65941672731424,70.31135418439226 101.47720626322553,70.26223256830417 101.20389056688873,70.14761538767198 100.86549970484339,70.01662419327477 100.52710884285625,69.8856328592301 100.22776308027096,69.7873892670541 99.94143235083902,69.70551954693656 99.62907155510038,69.62364977222023 99.30369572620839,69.52540597059124 98.96530486416304,69.42716209049104 98.600883935811,69.34529213038331 98.2494780406123,69.19792606473493 97.98917737748707,69.14880400359107 97.62475644913502,69.05055982238264 97.33842571976129,68.90319340329734 97.07812505663605,68.8213230941401 96.83083942660596,68.73945273039135 96.54450869723223,68.64120822191035 96.23214790149359,68.51021542181843 95.9067720726016,68.33010009368445 95.60742631001631,68.11723618369433 95.30808054748923,67.93712027955917 95.04777988436399,67.65875881756074 94.85255438706372,67.36402246473153 94.70938902237685,67.11840829731955 94.63129882339854,66.87279363906418 94.52717855817173,66.70905026080436 94.37099816033151,66.46343478432391 94.27989292819984,66.29969086065103 94.14974259660812,66.03770012889436 93.98054716561455,65.74295988804079 93.81135173462098,65.41546990241477 93.66818636993412,65.05522991017642 93.47296087257564,64.67861424373405 93.27773537521716,64.28562275243894 93.09552491101203,63.92537944801006 92.95235954632517,63.66338365421689 92.8091941816383,63.303138525632676 92.62698371743318,62.9265174892862 92.45778828643961,62.54989529861632 92.26256278913934,62.15689699944778 92.06733729178086,61.76389744337939 91.89814186072908,61.387271689323825 91.7029163633706,61.0270198878934 91.5207058992819,60.650391875322384 91.36452550138347,60.2901379134928 91.19533007033169,59.92988289549976 91.03914967249148,59.60237741714809 90.89598430780461,59.274871065870684 90.72678887675283,58.98011460337875 90.63568364467937,58.701732850699045 90.53156337945256,58.390599557213136 90.4144280810142,58.04671447409055 90.33633788215229,57.670077326394676 90.25824768317398,57.293439024244435 90.21920258371392,57.01505345018086 90.16714245104231,56.605661754350876 90.1150823184289,56.21264444305416 90.0890522521222,55.86875326437439 90.05000715266215,55.45935774912505 89.99794702004874,55.164592133500264 89.99794702004874,54.85344988313591 89.98493198689539,54.47680294697784 89.95890192058869,54.165658954909304 89.98493198689539,53.82176204700227 89.99794702004874,53.395983589303796 89.98493198689539,53.06846069475432 89.95890192058869,52.72456071576744 89.86779668845702,52.39703603136877 89.80272152274847,51.97125263637281 89.81573655584361,51.643725943802565 89.78970648953691,51.267069167952286 89.75066139013506,50.95591704741673 89.7116162906168,50.66114062739507 89.6595561580034,50.30085737576155 89.72463132377015,49.92419648307987 89.78970648953691,49.531157798628556 89.78970648953691,49.220001281755685 89.78970648953691,49.00710426349542 89.82875158905517,48.84333707531914 89.80272152274847,48.61406264517427 89.75066139013506,48.31928060624341 89.7376463569235,48.02449786004581 89.69860125752166,47.69696064580057 89.67257119115675,47.35304563106183 89.6595561580034,47.07463753300544 89.58146595908329,46.69796674903773 89.55543589277659,46.32129481029551 89.52940582641168,45.9282445993158 89.50337576016318,45.60070179629838 89.46433066064492,45.28953532460582 89.42528556118486,44.91285906746634 89.39925549493637,44.76546369588323 89.41227052803151,44.421540474606445 89.42528556118486,44.07761629045126 89.39925549493637,43.750068553257734 89.37322542851325,43.48802973476995 89.3341803291114,43.144102937178104 89.282120196498,42.80017517677334 89.282120196498,42.45624645344651 89.30815026286291,42.161449638522754 89.30815026286291,41.801141459574865 89.23006006382639,41.408076786392485 89.21704503067303,41.1132774561338 89.19101496442454,40.785721815002034 89.23006006382639,40.57281017988862 89.23006006382639,40.44178745181853 89.20402999757789,40.19611945997167 89.19101496442454,39.93407306050358 89.17799993127119,39.63927019291441 89.09990973235108,39.328088620670314 89.04784959967947,38.95139408385148 89.03483456652611,38.62383267806581 89.03483456652611,38.263514122896595 89.02181953331456,37.91957269786508 89.00880450021941,37.5920085406251 88.96975940075936,37.248065235435206 88.96975940075936,36.92049928752385" stroke="#4DD2FF" stroke-dasharray="none" stroke-linecap="round" stroke-linejoin="round" stroke-width="0.5"><title>2017-11-19 11.8km</title><desc>9223370525802103807</desc></polyline><polyline fill="none" opacity="0.5" points="187.36553595680743,59.00418241909938 187.5999999998603,59.83818212756887 187.42415196751244,60.3941813147394 187.48276797845028,61.08917960344115 187.5999999998603,62.06217590958113 187.5999999998603,62.8266719445819 187.54138398938812,63.73016605316661 187.5999999998603,64.425160632818 187.5999999998603,65.53715035278583 187.5999999998603,66.0236452333047 187.36553595680743,66.92713472119067 187.07245590235107,67.90012193983421 185.95875169616193,68.10861900402233 185.255359566072,68.17811800987693 184.4933514248114,67.96962096903007 183.49687924026512,68.10861900402233 182.55902306665666,68.10861900402233 181.62116689281538,68.17811800987693 180.56607869756408,68.10861900402233 179.8040705563035,67.96962096903007 178.9834464045707,67.96962096903007 178.22143826354295,67.96962096903007 177.3421981006395,67.76112385862507 176.52157394844107,66.99663385830354 175.5837177745998,66.92713472119067 174.82170963380486,66.85763557621976 173.88385345996358,66.57963891886175 173.1218453189358,66.7186372630531 172.3012211669702,66.64913809474092 171.36336499336176,66.7186372630531 170.54274084139615,66.51013973512454 169.6635006784927,66.64913809474092 168.72564450465143,66.78813642339082 167.72917232010514,66.44064054382034 166.90854816813953,66.30164213792887 166.20515603781678,66.16264370107092 165.384531886084,66.16264370107092 164.62252374505624,65.88464673480485 163.7432835821528,65.88464673480485 162.9226594301872,65.74564820510568 162.21926729986444,65.95414598792559 160.98833107203245,65.39815174596151 159.99185888725333,65.25915310822893 159.05400271364488,65.18965377786662 157.99891451839358,65.25915310822893 157.58860244229436,65.32865243108245 156.47489823610522,65.60664964455646 155.0681139754597,64.98115574021358 154.07164179091342,64.14716289372882 153.19240162800997,64.35566120949807 152.19592944346368,64.00816397793824 151.3166892810259,63.869165030890144 150.61329715070315,64.00816397793824 149.9099050203804,63.7996655459865 149.20651289005764,63.52166752866469 148.3272727271542,63.59116704465123 147.56526458612643,63.938664508285 146.27571234712377,63.52166752866469 145.57232021703385,63.1046702710446 145.22062415187247,62.34017457580194 144.75169606506824,61.575677945744246 144.6930800541304,60.463681178574916 144.81031207600608,59.49068238417385 144.81031207600608,58.378681907604914 144.6930800541304,57.40567986789392 144.6930800541304,56.0851746769622 144.51723202154972,55.39017082436476 144.39999999990687,54.34766359644709 144.6344640434254,53.37465528177563 144.6344640434254,52.540646949375514 144.8689280867111,51.845639155537356 144.6930800541304,50.942127868242096 144.98616010835394,49.96911425224971 144.92754409764893,48.92659798276145 145.10339213022962,48.30108738626586 145.16200814116746,47.05006431584479 145.10339213022962,45.93804170633666 145.16200814116746,44.9650203002966 145.22062415187247,44.20050241862191 145.39647218445316,43.296980080136564 145.57232021703385,42.32395456265658 145.39647218445316,41.3509275301476 145.39647218445316,40.65590729378164 145.27924016257748,39.821881990123075 145.39647218445316,40.65590729378164 145.39647218445316,41.3509275301476 145.57232021703385,42.32395456265658 145.39647218445316,43.296980080136564 145.22062415187247,44.20050241862191 145.16200814116746,44.9650203002966 145.10339213022962,45.93804170633666 145.16200814116746,47.05006431584479 145.10339213022962,48.30108738626586 144.92754409764893,48.92659798276145 144.98616010835394,49.96911425224971 144.6930800541304,50.942127868242096 144.8689280867111,51.845639155537356 144.6344640434254,52.540646949375514 144.6344640434254,53.37465528177563 144.39999999990687,54.34766359644709 144.51723202154972,55.39017082436476 144.6930800541304,56.0851746769622 144.6930800541304,57.40567986789392 144.81031207600608,58.378681907604914 144.81031207600608,59.49068238417385 144.6930800541304,60.463681178574916 144.75169606506824,61.575677945744246 145.22062415187247,62.34017457580194 145.57232021703385,63.1046702710446 146.27571234712377,63.52166752866469 147.56526458612643,63.938664508285 148.3272727271542,63.59116704465123 149.20651289005764,63.52166752866469 149.9099050203804,63.7996655459865 150.61329715070315,64.00816397793824 151.3166892810259,63.869165030890144 152.19592944346368,64.00816397793824 153.19240162800997,64.35566120949807 154.07164179091342,64.14716289372882 155.0681139754597,64.98115574021358 156.47489823610522,65.60664964455646 157.58860244229436,65.32865243108245 157.99891451839358,65.25915310822893 159.05400271364488,65.18965377786662 159.99185888725333,65.25915310822893 160.98833107203245,65.39815174596151 162.21926729986444,65.95414598792559 162.9226594301872,65.74564820510568 163.7432835821528,65.88464673480485 164.62252374505624,65.88464673480485 165.384531886084,66.16264370107092 166.20515603781678,66.16264370107092 166.90854816813953,66.30164213792887 167.72917232010514,66.44064054382034 168.72564450465143,66.78813642339082 169.6635006784927,66.64913809474092 170.54274084139615,66.51013973512454 171.36336499336176,66.7186372630531 172.3012211669702,66.64913809474092 173.1218453189358,66.7186372630531 173.88385345996358,66.57963891886175 174.82170963380486,66.85763557621976 175.5837177745998,66.92713472119067 176.52157394844107,66.99663385830354 177.3421981006395,67.76112385862507 178.22143826354295,67.96962096903007 178.9834464045707,67.96962096903007 179.8040705563035,67.96962096903007 180.56607869756408,68.10861900402233 181.62116689281538,68.17811800987693 182.55902306665666,68.10861900402233 183.49687924026512,68.10861900402233 184.4933514248114,67.96962096903007 185.255359566072,68.17811800987693 185.95875169616193,68.10861900402233 187.07245590235107,67.90012193983421 187.36553595680743,66.92713472119067 187.5999999998603,66.0236452333047 187.5999999998603,65.53715035278583 187.5999999998603,64.425160632818 187.54138398938812,63.73016605316661 187.5999999998603,62.8266719445819 187.5999999998603,62.06217590958113 187.48276797845028,61.08917960344115 187.42415196751244,60.3941813147394 187.5999999998603,59.83818212756887 187.36553595680743,59.00418241909938 187.42415196751244,58.309181812102906 187.42415196751244,57.127679006778635 187.42415196751244,56.36317600152688 187.42415196751244,55.04266860813368 187.36553595680743,54.55616518104216 187.36553595680743,53.72215842513833 187.36553595680743,54.55616518104216 187.42415196751244,55.04266860813368" stroke="#4DD2FF" stroke-dasharray="1,0.5" stroke-linecap="round" stroke-linejoin="round" stroke-width="0.5"><title>2014-03-22 10.5km</title><desc>9223370641410674807</desc></polyline><polyline fill="none" opacity="1" points="55.600000000034925,99.10062756907428 55.48495339549845,99.14729935579817 55.35073235689197,99.14729935579817 55.235685752355494,99.1356314112054 55.0918774966849,99.14729935579817 54.94806924107252,99.12396346525202 54.813848202407826,99.14729935579817 54.67962716380134,99.19397111993021 54.55499334225897,99.19397111993021 54.43035952071659,99.27564665278624 54.286551265046,99.29898250660335 54.15233022643952,99.26397872376401 54.00852197071072,99.24064286148496 53.88388814922655,99.22897492822813 53.77842876169598,99.28731458038237 53.644207723089494,99.26397872376401 53.52916111855302,99.24064286148496 53.39494007994654,99.26397872376401 53.26071904134005,99.24064286148496 53.16484687087359,99.17063524068362 53.059387483401224,99.15896729895758 52.93475366185885,99.17063524068362 52.81011984025827,99.20563905742165 52.666311584587675,99.20563905742165 52.5512649800512,99.21730699352338 52.426631158508826,99.17063524068362 52.273235685774125,99.18230318104179 52.16777629830176,99.19397111993021 52.01438082562527,99.19397111993021 51.88015978701878,99.19397111993021 51.77470039954642,99.19397111993021 51.63089214381762,99.19397111993021 51.506258322275244,99.18230318104179 51.39121171773877,99.17063524068362 51.276165113202296,99.15896729895758 51.16111850866582,99.14729935579817 51.03648468712345,99.18230318104179 50.91185086558107,99.18230318104179 50.78721704398049,99.17063524068362 50.66258322237991,99.14729935579817 50.53794940083753,99.12396346525202 50.45166444743518,99.12396346525202 50.307856191764586,99.12396346525202 50.1736351531581,99.14729935579817 50.04900133161573,99.14729935579817 49.924367510015145,99.1356314112054 49.79014647140866,99.10062756907428 49.675099866930395,99.12396346525202 49.550466045271605,99.12396346525202 49.39707057259511,99.11229551787255 49.29161118512275,99.07729166723584 49.138215712388046,99.06562371417385 48.99440745677566,99.10062756907428 48.84101198404096,99.10062756907428 48.725965379562695,99.11229551787255 48.5821571238921,99.10062756907428 48.46711051935563,99.10062756907428 48.332889480749145,99.11229551787255 48.22743009327678,99.10062756907428 48.1027962716762,99.08895961884264 47.97816245013382,99.11229551787255 47.85352862853324,99.10062756907428 47.728894806990866,99.10062756907428 47.6234354195185,99.12396346525202 47.48921438091202,99.1356314112054 47.383754993381444,99.1356314112054 47.25912117178086,99.1356314112054 47.09613848204026,99.12396346525202 46.990679094567895,99.12396346525202 46.8372836218914,99.12396346525202 46.750998668489046,99.12396346525202 46.626364846888464,99.12396346525202 46.50173102534609,99.11229551787255 46.377097203803714,99.12396346525202 46.24287616513902,99.08895961884264 46.12782956060255,99.08895961884264 45.984021304990165,99.07729166723584 45.84980026638368,99.07729166723584 45.7251664447831,99.06562371417385 45.619707057310734,99.06562371417385 45.48548601870425,99.10062756907428 45.33209054602776,99.12396346525202 45.21704394149128,99.10062756907428 45.0828229028848,99.08895961884264 44.95818908122601,99.07729166723584 44.843142476747744,99.05395575970033 44.68974700401304,99.07729166723584 44.57470039953478,99.05395575970033 44.430892143864185,99.04228780385165 44.2966711052577,99.04228780385165 44.16245006659301,99.07729166723584 44.037816245050635,99.06562371417385 43.884420772315934,99.03061984659143 43.74061251670355,99.00728392779274 43.61597869510297,98.99561596625426 43.481757656496484,98.9606120732351 43.34753661789,98.97228003897908 43.23249001335353,98.98394800334063 43.10785619181115,99.00728392779274 42.99280958727468,99.01895188790513 42.8681757657323,99.06562371417385 42.74354194407351,99.06562371417385 42.60932090546703,99.05395575970033 42.484687083924655,99.04228780385165 42.37922769645229,99.03061984659143 42.25459387485171,99.05395575970033 42.12996005330933,99.04228780385165 42.01491344877286,99.06562371417385 41.87110519310227,99.03061984659143 41.72729693748988,99.05395575970033 41.62183754995931,99.03061984659143 41.487616511352826,99.03061984659143 41.36298268981045,99.03061984659143 41.257523302338086,98.99561596625426 41.123302263673395,98.97228003897908 40.97949400806101,98.98394800334063 40.83568575239042,98.99561596625426 40.691877496719826,98.97228003897908 40.57683089224156,98.98394800334063 40.44260985357687,98.98394800334063 40.29880159790628,98.97228003897908 40.174167776305694,98.97228003897908 40.04953395476332,98.98394800334063 39.90572569909273,98.99561596625426 39.771504660486244,99.01895188790513 39.65645805594977,98.98394800334063 39.531824234407395,98.94894410607958 39.39760319580091,98.9606120732351 39.27296937420033,98.93727613748342 39.138748335593846,98.94894410607958 39.02370173105737,98.97228003897908 38.908655126579106,98.94894410607958 38.77443408797262,98.92560816750483 38.63062583230203,98.92560816750483 38.515579227765556,98.92560816750483 38.37177097203676,98.90227222328394 38.27589880168671,98.87893627340236 38.15126498002792,98.87893627340236 38.01704394147964,98.87893627340236 37.92117177101318,98.90227222328394 37.777363515342586,98.89060424903437 37.6431424767361,98.90227222328394 37.51850865519373,98.93727613748342 37.374700399523135,98.93727613748342 37.24047936091665,98.94894410607958 37.14460719045019,98.91394019611471 37.010386151843704,98.91394019611471 36.88575233030133,98.91394019611471 36.780292942828964,98.89060424903437 36.626897470094264,98.91394019611471 36.50226364855189,98.90227222328394 36.34886817581719,98.89060424903437 36.22423435427481,98.90227222328394 36.12836218380835,98.89060424903437 35.88868175767129,98.90227222328394 35.610652463452425,98.89060424903437 35.39973368844949,98.85560031788918 35.17922769644065,98.85560031788918 34.74780292948708,98.91394019611471 34.47936085227411,98.84393233801529 34.3067909454694,98.82059637398197 33.97123834892409,98.84393233801529 33.80825565918349,98.79726040435344 33.654860186448786,98.78559241742914 33.36724367516581,98.83226435670076 33.089214380888734,98.86726829635882 32.83994673774578,98.97228003897908 32.63861517980695,98.94894410607958 28.85166444745846,98.73892045549292 28.631158455449622,98.73892045549292 28.391478029370774,98.70391646926146 28.07509986689547,98.78559241742914 27.825832223752514,98.71558446608833 27.566977363603655,98.66891247027525 27.221837549994234,98.66891247027525 24.115579227742273,98.63390845860704 23.885486018727534,98.6572444677804 23.57869507331634,98.63390845860704 23.3581890813075,98.5989044341768 23.108921438164543,98.50556030694133 22.811717709817458,98.58723642320547 22.495339547342155,98.5989044341768 22.27483355527511,98.61057244371477 19.791744340909645,98.5755684108517 19.46577896142844,98.5755684108517 19.30279627168784,98.5755684108517 19.139813581947237,98.5989044341768 19.09187749674311,98.54056436527026 18.948069241072517,98.55223238185863 18.622103861591313,98.56390039707912 18.49747003999073,98.49389228469227 18.238615179841872,98.4705562359668 18.027696404897142,98.49389228469227 17.826364846900105,98.49389228469227 17.682556591229513,98.45888820946129 16.656724367581774,98.48222426103166 16.359520639234688,98.49389228469227 16.12942743016174,98.41221608932392 15.908921438094694,98.45888820946129 15.56378162454348,98.44722018152243 15.333688415470533,98.48222426103166 15.113182423519902,98.52889634726307 14.854327563312836,98.4705562359668 14.585885486041661,98.44722018152243 14.355792277026922,98.43555215221568 14.049001331615727,98.41221608932392 13.866844207805116,98.41221608932392 13.655925432860386,98.42388412146101 13.19573901471449,98.44722018152243 13.00399467383977,98.34220786676451 12.984820239711553,98.61057244371477 13.013581890845671,98.82059637398197 13.051930759043898,98.99561596625426 12.965645805641543,99.19397111993021 12.850599201163277,99.21730699352338 12.869773635233287,98.91394019611471 12.668442077294458,98.92560816750483 12.505459387553856,99.10062756907428 12.43834886822151,99.24064286148496 12.4191744341515,99.42732960159628 12.467110519355629,99.75403052664478 12.486284953483846,99.99905549370305 12.60133155802032,100.34909008029354 12.61091877502622,100.58244576510333 12.668442077294458,100.85080410412047 12.697203728428576,101.08415857417276 12.754727030696813,101.24750636702083 12.783488681830931,101.48085987658123 12.783488681830931,101.7492157141096 12.802663115900941,102.0175708044917 12.850599201163277,102.29759271083458 12.850599201163277,102.56594627438608 12.860186418169178,102.83429909074039 12.879360852239188,103.10265115999209 12.860186418169178,103.34766761415085 12.860186418169178,103.65102045637468 12.81225033296505,103.87270077575522 12.83142476703506,104.17605196552904 12.81225033296505,104.3627291462908 12.850599201163277,104.63107696017687 12.841011984099168,104.87608952906885 12.81225033296505,105.07443258108833 12.821837549970951,105.27277522492659 12.783488681830931,105.5527876743945" stroke="#4DD2FF" stroke-dasharray="none" stroke-linecap="round" stroke-linejoin="round" stroke-width="0.5"><title>2013-12-10 10.9km</title><desc>9223370650177580807</desc></polyline><polyline fill="none" opacity="1" points="109.23361762333661,111.79207779094577 109.47037704847753,107.76009095064364 109.94389590155333,104.30409679980949 110.41741475462914,101.42409784393385 110.18065532762557,96.81609227391891 110.41741475462914,94.51208614767529 110.65417417977005,91.34407408395782 110.41741475462914,88.75206108158454 108.99685819726437,85.58404135890305 105.91898565553129,83.56802661530674 102.13083483558148,81.26400767685845 98.81620286870748,81.26400767685845 96.44860860612243,82.41601742431521 93.37073606532067,84.43203314347193 91.23990122880787,88.75206108158454 91.23990122880787,92.20807779114693 90.05610409844667,96.24009095155634 89.58258524537086,98.83209580765106 88.63554754015058,102.86409775703214 88.87230696715415,106.60809345706366 88.16202868893743,109.48808614583686 88.16202868893743,113.23207143717445 88.16202868893743,116.11205611890182 89.34582581929862,118.41604135814123 91.71342008188367,121.87201503920369 94.55453319568187,123.0240051522851 98.342684016563,123.60000000009313 101.89407540857792,122.44801016617566 103.78815081901848,119.85603100107983 106.39250450860709,117.55204715509899 108.04982049111277,113.5200700617861 108.04982049111277,110.35208327439614 109.23361762333661,106.32009399682283 109.7071364754811,103.15209763473831 110.41741475462914,99.40809650393203 111.3644524589181,95.08808788773604 111.3644524589181,92.49607895803638 111.12769303377718,88.17605780856684 109.94389590155333,84.72003524936736 108.52333934418857,82.41601742431521 105.20870737731457,81.55201016599312 102.84111311472952,80.97600515326485 99.05296229477972,81.26400767685845 95.97508975397795,82.99202209012583 92.89721721317619,85.87204332626425 90.52962294965982,89.04006266547367 90.2928635245189,92.7840800897684 89.8193446714431,96.24009095155634 89.34582581929862,99.69609679933637 88.63554754015058,102.86409775703214 88.63554754015058,106.60809345706366 88.16202868893743,110.35208327439614 88.63554754015058,114.09606720716693 89.10906639229506,117.55204715509899 91.23990122880787,119.85603100107983 94.08101434446871,121.58401742414571 97.39564631134272,122.44801016617566 101.18379713129252,122.16001262003556 104.97194795124233,119.56803314271383 107.33954221289605,117.26404901780188 108.04982049111277,112.94407277810387 108.76009877026081,108.91208788729273 109.23361762333661,104.592096503824 109.7071364754811,101.13609775644727 110.41741475462914,97.96809450234286 111.83797131106257,93.93608426698484 111.3644524589181,90.48007006337866 111.3644524589181,87.02405084599741 109.94389590155333,84.14403100195341 107.57630163896829,81.84001261997037 104.49842909816653,80.39999999990687 102.13083483558148,80.68800259311683 99.76324057392776,81.55201016599312" stroke="#4DD2FF" stroke-dasharray="none" stroke-linecap="round" stroke-linejoin="round" stroke-width="0.5"><title>2013-11-30 10.3km</title><desc>9223370651086224807</desc></polyline><polyline fill="none" opacity="1" points="176.85776040703058,101.31220428971574 177.53637043293566,97.45997056690976 178.44118379987776,94.98353115888312 177.762573774904,89.48032283014618 175.72674369905144,86.45355257811025 174.8219303302467,83.42677830182947 173.01230359636247,82.6012937091291 170.2978634936735,83.15161680453457 168.2620334168896,83.15161680453457 165.32138997409493,82.6012937091291 162.1545431893319,82.6012937091291 162.38074653036892,83.7019397658296 160.34491645358503,85.07774658850394 156.27325630094856,88.93000126630068 157.17806966789067,92.23192865797319 156.49945964291692,95.80901126144454 156.27325630094856,100.76188558526337 156.49945964291692,104.06379581429064 153.55881619919091,107.36570125445724 154.46362956706434,109.8421271899715 155.82084961794317,112.31855043233372 155.82084961794317,116.17075901036151 156.49945964291692,118.37201812700368 157.40427300985903,119.47264688764699 159.44010308664292,122.22421646025032 162.83315321430564,122.22421646025032 166.67861002590507,123.60000000009313 167.58342339284718,121.6739028126467 171.20267686247826,119.74780399515294 174.8219303302467,115.89560147118755 175.72674369905144,114.51981327589601 177.53637043293566,112.04339242749847 176.85776040703058,106.8153840135783 176.17915038205683,105.71474913298152 176.4053537240252,101.86252286075614 177.762573774904,96.90965093066916 177.762573774904,95.80901126144454 176.17915038205683,92.78224942437373 178.44118379987776,90.30580492829904 176.85776040703058,89.20516206463799 175.2743370141834,86.72871367656626 173.23850693926215,83.7019397658296 171.4288802035153,83.15161680453457 168.4882367597893,80.4000000001397 163.9641699232161,82.6012937091291 160.79732313752174,85.90323028201237 157.85667969379574,88.93000126630068 156.72566298395395,90.85612616012804 156.49945964291692,95.25869122636504 158.0828830357641,99.38608824228868 156.27325630094856,102.96315960329957 155.36844293307513,105.43959032977 156.0470529589802,107.64085982413962 155.1422395920381,110.6676019039005 155.36844293307513,113.69433995871805 155.36844293307513,117.27138883504085 157.40427300985903,118.64717536675744 160.118713112548,120.57327511627227 163.5117632402107,121.94905965286307 166.4524066830054,122.77452997583896 169.61925346869975,122.22421646025032 172.3336935704574,120.02296106843278 174.8219303302467,117.27138883504085 176.4053537240252,113.41918211965822 176.63155706506222,110.3924436995294 176.85776040703058,107.36570125445724 176.85776040703058,104.06379581429064 176.17915038205683,100.76188558526337 176.85776040703058,97.45997056690976 177.08396374993026,94.70837105903774 177.98877711594105,91.40644725854509 177.53637043293566,88.37967956834473 176.17915038205683,85.62806908367202 174.3695236472413,83.7019397658296 172.3336935704574,82.87645527347922 169.16684678569436,82.05097048147582 166.4524066830054,82.05097048147582 163.28555989731103,83.7019397658296 161.47593316342682,84.25226259441115 159.44010308664292,86.45355257811025 157.85667969379574,88.37967956834473 157.63047635182738,91.40644725854509 156.72566298395395,95.25869122636504 157.17806966789067,98.28544977051206 156.49945964291692,102.13768209633417 156.49945964291692,104.06379581429064 156.0470529589802,108.46633533574641 154.68983290810138,112.31855043233372 155.1422395920381,116.17075901036151 156.49945964291692,118.09686085442081 160.34491645358503,119.19748974777758 163.5117632402107,121.3987459379714 166.67861002590507,121.3987459379714 170.07166015263647,119.74780399515294 172.3336935704574,118.09686085442081 174.14332030527294,115.07012865296565 175.72674369905144,111.21791821252555 175.50054035615176,107.64085982413962 176.17915038205683,104.33895478351042 176.17915038205683,100.76188558526337 176.85776040703058,97.45997056690976 177.08396374993026,93.6077303243801 178.21498045884073,89.48032283014618 177.08396374993026,87.55419677193277 175.04813367314637,85.62806908367202 172.3336935704574,83.97710119653493 168.2620334168896,82.87645527347922 164.64277994912118,83.15161680453457 161.9283398464322,84.80258529004641 159.21389974374324,87.27903577359393 158.0828830357641,90.0306442619767 157.63047635182738,92.78224942437373 156.49945964291692,96.90965093066916 156.72566298395395,100.21156674809754 156.72566298395395,102.41284129838459 156.27325630094856,105.9899079024326 156.27325630094856,110.11728546163067 155.5946462759748,113.41918211965822 156.72566298395395,116.17075901036151 158.0828830357641,119.19748974777758 161.02352648042142,121.6739028126467 163.73796658124775,122.77452997583896 167.13101670891047,122.77452997583896 170.2978634936735,121.1235890306998" stroke="#4DD2FF" stroke-dasharray="none" stroke-linecap="round" stroke-linejoin="round" stroke-width="0.5"><title>2013-11-16 10.4km</title><desc>9223370652294258807</desc></polyline><polyline fill="none" opacity="1" points="40.810890073888004,168.04934382555075 43.24335081502795,164.79457114171237 43.973089036531746,161.53979412838817 44.459581185132265,157.69323389837518 45.18931940756738,154.73433729959652 45.43256548140198,150.88776637450792 46.162303702905774,147.04118940443732 46.162303702905774,144.08227993012406 45.43256548140198,139.3480173314456 45.67581155523658,135.7973143735435 43.48659688886255,134.31785328662954 40.810890073888004,130.4712502779439 38.37842933367938,129.58357180282474 30.59455496352166,128.99178597261198 27.675602074712515,131.06303575029597 25.97287955507636,134.61374557600357 22.81068059336394,138.16445025079884 24.27015703730285,141.12336687929928 23.297172740101814,144.6740621116478 23.297172740101814,150.88776637450792 22.81068059336394,154.43844744330272 23.053926666267216,160.06034860108048 22.56743451859802,163.6110163643025 23.540418814867735,166.5699022328481 24.99989525973797,168.64112021238543 29.135078518651426,170.71233643963933 34.0,171.60000000009313 38.37842933367938,171.30411218269728 39.35141362901777,169.52878452418372 42.02712044399232,167.1616789775435 42.27036651875824,163.01923876185901 42.27036651875824,160.35623777890578 43.24335081502795,155.32611690624617 45.18931940756738,150.29598569567315 45.43256548140198,146.1535169382114 45.919057629071176,142.89871513913386 45.67581155523658,138.75623386260122 45.919057629071176,135.7973143735435 44.70282725803554,132.5424988034647 40.56764399912208,129.879464663798 36.91895288974047,128.99178597261198 33.270261778496206,128.99178597261198 29.378324592486024,130.4712502779439 26.7026177784428,132.24660626379773 25.486387407407165,136.38909855671227 23.783664888702333,141.12336687929928 23.783664888702333,144.08227993012406 23.540418814867735,146.74529861821793 22.81068059336394,150.88776637450792 23.053926666267216,154.73433729959652 22.81068059336394,157.69323389837518 23.053926666267216,162.72334990650415 24.02691096253693,165.09045974630862 26.459371704608202,167.1616789775435 31.081047111190856,171.00822432967834 34.972984296269715,171.00822432967834 38.62167540658265,169.82467255694792 40.810890073888004,168.64112021238543 43.48659688886255,165.38634831481613 44.216335110366344,162.72334990650415 43.973089036531746,158.58090218016878 44.459581185132265,153.8466676226817 45.43256548140198,150.88776637450792 46.162303702905774,147.33708015549928 46.162303702905774,143.7863887862768 46.405549777671695,139.64390901243314 45.919057629071176,135.7973143735435 43.72984296362847,132.5424988034647 41.054136148653924,130.4712502779439 36.91895288974047,128.4000000001397 33.270261778496206,128.99178597261198 29.864816741086543,130.4712502779439 26.7026177784428,131.95071368920617 24.02691096253693,134.90963782859035 23.297172740101814,140.23569226590917 23.540418814867735,143.7863887862768 23.053926666267216,147.33708015549928 24.51340311113745,150.88776637450792 22.81068059336394,156.50967568787746 22.080942370928824,160.35623777890578 22.81068059336394,164.2027938242536 23.053926666267216,166.27401380729862 26.7026177784428,168.64112021238543 29.621570666320622,170.12056055432186 34.486492147669196,170.71233643963933 37.89193718507886,170.12056055432186 41.054136148653924,168.64112021238543 43.24335081502795,165.68223684746772 43.973089036531746,162.13157208892517 44.94607333280146,158.58090218016878 45.43256548140198,155.0302271207329 45.67581155523658,151.77543712500483 46.162303702905774,148.81653337273747 46.405549777671695,145.26584414974786 46.89204192534089,139.3480173314456 46.405549777671695,135.7973143735435 44.70282725803554,133.13428377383389 41.54062829632312,130.4712502779439 38.864921481348574,129.2876789055299 34.0,128.69589300476946 31.081047111190856,129.58357180282474 28.40534029621631,130.76714303181507 25.97287955507636,133.13428377383389 24.99989525973797,134.31785328662954 24.27015703730285,135.7973143735435 25.486387407407165,139.3480173314456 25.243141333572567,140.82747537712567 24.756649184972048,144.9699531486258 23.297172740101814,149.1124239093624 22.56743451859802,152.3672174452804 22.080942370928824,157.39734439994209 21.10795807465911,159.46857014065608 21.837696296162903,160.94801602489315 23.297172740101814,163.90690511232242 25.97287955507636,165.68223684746772 28.40534029621631,168.93700835271738 31.56753925886005,169.82467255694792 32.78376962989569,170.41644851467572 37.64869111124426,171.60000000009313 40.56764399912208,170.71233643963933 42.513612592592835,168.04934382555075 43.973089036531746,166.27401380729862 44.459581185132265,163.31512758182362 43.973089036531746,159.46857014065608 44.459581185132265,153.55077765905298 46.162303702905774,150.00009530293755" stroke="#4DD2FF" stroke-dasharray="none" stroke-linecap="round" stroke-linejoin="round" stroke-width="0.5"><title>2013-11-03 10.7km</title><desc>9223370653417861807</desc></polyline><polyline fill="none" opacity="1" points="88.51716366223991,154.32009399705566 88.04364463873208,157.77608522307128 88.04364463873208,161.23207143694162 88.99068268761039,164.68805263843387 91.1215182961896,167.85603100177832 93.48911341652274,169.5840174248442 97.27726561017334,170.73600767669268 102.01245585177094,170.73600767669268 105.09032951015979,169.5840174248442 106.74764609336853,167.28003524802625 107.93144365400076,163.24806107999757 109.58876023907214,160.0800765901804 109.82551975175738,155.7600909504108 109.58876023907214,152.01609706040472 110.77255779877305,148.27209728653543 111.48283633589745,145.39209345774725 111.71959584765136,142.5120861462783 111.9563553603366,138.48007006268017 111.48283633589745,133.2960393568501 109.35200072731823,129.84001261997037 106.98440560605377,129.2640076763928 103.90653194859624,130.41601742454804 100.35513926763088,130.12801503995433 97.51402512192726,130.41601742454804 94.67291097715497,132.14403100241907 92.77883488032967,135.3120526385028 91.35827780794352,138.1920686531812 91.59503732062876,143.37608870584518 90.88475878350437,145.96809450211003 90.1744802473113,149.712097896263 89.46420171111822,153.4560954067856 88.51716366223991,155.7600909504108 88.28040415141732,159.2160800890997 88.28040415141732,162.96006266516633 89.70096122287214,167.28003524802625 92.77883488032967,169.5840174248442 97.27726561017334,171.31200259411708 100.59189877938479,171.60000000009313 104.3800509730354,170.16001262003556 107.69468414224684,167.28003524802625 108.16820316575468,162.6720642137807 110.29903877526522,158.06408426584676 110.53579828795046,154.60809345706366 110.53579828795046,151.44009747868404 110.77255779877305,147.1200961722061 111.00931731145829,142.80008703446947 112.19311487209052,139.0560727783013 112.42987438477576,135.3120526385028 110.29903877526522,132.7200352489017 108.87848170287907,130.41601742454804 105.80060804635286,128.9760051521007 102.01245585177094,128.4000000001397 98.22430365905166,129.2640076763928 94.90967048984021,129.84001261997037 89.70096122287214,133.8720433257986 88.99068268761039,135.0240508459974 88.99068268761039,136.46405946207233 90.1744802473113,139.63207535468973 89.93772073462605,143.66408948926255 88.51716366223991,147.69609680003487 88.51716366223991,150.57609784416854 87.57012561522424,154.32009399705566 87.57012561522424,157.48808614653535 87.80688512697816,160.65607408294454 87.57012561522424,163.5360594613012 89.22744219843298,166.7040393569041 91.35827780794352,169.00802208902314 94.19939195271581,169.87201503990218 97.9875441454351,169.5840174248442 102.01245585177094,168.72002436965704 106.51088658254594,166.99203731981106 108.40496267937124,164.4000543965958 110.29903877526522,160.65607408294454 109.82551975175738,156.62408870481886 110.29903877526522,152.59209650335833 110.53579828795046,149.13609775714576 110.77255779877305,145.39209345774725 111.00931731145829,141.93608426721767 112.19311487209052,139.34407408325933 111.9563553603366,135.3120526385028 109.35200072731823,132.7200352489017 106.74764609336853,130.70401977421716 102.72273438796401,129.55201016529463 99.6448607314378,129.2640076763928 95.8567085377872,130.41601742454804 92.77883488032967,131.56802661553957 91.59503732062876,135.6000543970149 90.64799927081913,139.34407408325933 90.41123975906521,142.5120861462783 90.41123975906521,145.96809450211003" stroke="#4DD2FF" stroke-dasharray="none" stroke-linecap="round" stroke-linejoin="round" stroke-width="0.5"><title>2013-11-02 10.5km</title><desc>9223370653505000807</desc></polyline><polyline fill="none" opacity="1" points="171.3270941739902,167.82003335561603 173.99064126145095,166.47004371811636 174.8784902896732,161.61007426702417 175.54437706060708,157.83009071601555 175.54437706060708,152.97010246641003 175.54437706060708,150.540104374988 176.65418834704906,147.0301024664659 176.65418834704906,144.33009724435396 176.87615060433745,142.4400916469749 176.2102638334036,139.20007833116688 175.54437706060708,134.88005326571874 173.32475448958576,131.1000244792085 172.21494320314378,130.29001747770235 168.88550934474915,128.94000515691005 166.2219622572884,128.94000515691005 162.6705661425367,130.56001984444447 159.78505679685622,132.45003549358808 157.5654342258349,135.15005507646129 156.01169842481613,138.12007284793071 156.45562293939292,142.98009340977296 156.67758519575,145.68010026379488 156.23366068210453,149.19010429433547 156.01169842481613,151.35010403278284 156.01169842481613,152.97010246641003 155.56777391023934,155.67009724397212 155.12384939659387,158.6400877290871 156.23366068210453,162.15007139416412 157.5654342258349,164.85005507571623 160.67290582694113,167.0100396713242 164.22430194169283,168.3600289823953 167.7756980592385,168.3600289823953 169.77335837297142,167.82003335561603 172.65886771772057,165.66004954348318 174.6565280323848,162.96006684168242 175.54437706060708,159.18008557590656 175.54437706060708,155.94009654247202 175.7663393188268,152.70010280935094 175.54437706060708,149.46010437584482 175.54437706060708,146.49010168295354 176.43222609069198,142.98009340977296 176.87615060433745,140.01008210144937 176.43222609069198,137.31006839242764 175.32241480425,134.34004954481497 173.99064126145095,132.72003759886138 170.4392451448366,130.56001984444447 167.7756980592385,128.4000000001397 165.3341132281348,129.48001018329524 162.0046793706715,130.8300221778918 159.78505679685622,132.45003549358808 158.67524551134557,135.69005860155448 158.2313209977001,138.12007284793071 157.7873964831233,141.63008875912055 156.45562293939292,144.33009724435396 156.01169842481613,146.76010209089145 156.23366068210453,150.81010429398157 157.7873964831233,154.32010026299395 154.90188713837415,155.13009854895063 155.12384939659387,156.21009580790997 154.45796262472868,157.56009164638817 154.90188713837415,163.23006525845267 160.22898131329566,166.20004569296725 165.77803774364293,167.55003549298272 167.1098112873733,167.55003549298272 169.10747160110623,167.55003549298272 171.77101868763566,168.3600289823953 173.99064126145095,164.0400603134185 174.6565280323848,162.96006684168242 174.8784902896732,160.5300796192605 175.54437706060708,159.18008557590656 173.54671674594283,158.91008666879497 174.8784902896732,158.10008975397795 176.2102638334036,155.94009654247202 175.9883015761152,150.81010429398157 176.2102638334036,149.46010437584482 175.7663393188268,146.2201012421865 176.2102638334036,142.1700907170307 175.7663393188268,136.7700652598869 175.32241480425,133.26004171161912 173.54671674594283,129.75001264712773 169.55139611661434,129.48001018329524 165.77803774364293,129.21000768686645 162.6705661425367,130.56001984444447 159.78505679685622,132.72003759886138 156.67758519575,133.26004171161912 156.45562293939292,137.58006991050206 156.23366068210453,140.55008445074782 156.01169842481613,144.0600965428166 154.90188713837415,147.57010311936028 155.34581165295094,151.62010385282338 155.12384939659387,155.13009854895063 154.90188713837415,159.18008557590656 154.90188713837415,161.61007426702417 158.45328325405717,165.66004954348318 164.00233968626708,168.63002674723975 166.44392451550812,169.98001507879235 169.32943385839462,171.60000000009313 173.32475448958576,167.82003335561603 175.1004525469616,162.69006839231588 175.54437706060708,159.7200832911767 175.54437706060708,158.6400877290871 175.1004525469616,153.24010209064 174.8784902896732,148.92010417976417 175.32241480425,146.2201012421865 175.54437706060708,142.98009340977296 177.09811286255717,138.93007700890303 175.7663393188268,135.96006031497382 174.43456577509642,134.34004954481497 172.88082997407764,130.8300221778918 170.21728288847953,130.02001507859677 166.0,129.75001264712773 162.0046793706715,130.56001984444447 159.78505679685622,130.8300221778918 156.89954745396972,132.72003759886138 154.90188713837415,135.69005860155448 154.67992488108575,138.39007426798344 155.34581165295094,139.7400808769744 154.23600036650896,142.71009254432283 154.67992488108575,145.95010076928884 154.90188713837415,147.57010311936028 154.45796262472868,150.27010442432947 154.90188713837415,153.78010124200955 154.67992488108575,157.02009340864606 154.90188713837415,161.34007565444335 157.5654342258349,166.20004569296725 161.7827171124518,168.63002674723975 163.11449065618217,168.3600289823953 166.0,169.98001507879235 167.99766031466424,169.1700221770443 171.1051319167018,171.33000259427354 173.32475448958576,168.63002674723975 174.8784902896732,162.42006990942173 173.99064126145095,158.37008875748143 175.1004525469616,151.35010403278284 174.8784902896732,147.0301024664659 174.8784902896732,145.68010026379488 176.43222609069198,142.98009340977296 177.76399963349104,140.82008557626978 177.09811286255717,136.7700652598869 175.32241480425,132.1800333559513 173.10279223136604,129.75001264712773 169.9953206302598,128.6700025945902 166.0,128.94000515691005 161.1168303405866,130.56001984444447 157.1215097112581,132.1800333559513 156.67758519575,133.53004371840507 155.56777391023934,134.61005142168142 155.78973616752774,137.04006684245542 156.01169842481613,138.6600756549742 156.23366068210453,142.1700907170307 156.23366068210453,143.5200950417202 156.23366068210453,147.84010339644738 156.01169842481613,149.19010429433547 155.12384939659387,151.62010385282338 155.78973616752774,155.13009854895063 154.90188713837415,156.21009580790997 155.12384939659387,161.07007700833492 156.23366068210453,162.15007139416412 156.23366068210453,163.50006364332512 158.45328325405717,165.66004954348318 162.6705661425367,168.63002674723975 167.1098112873733,170.52001018356532 170.4392451448366,169.710017477395 171.99298094585538,168.09003118495457 175.32241480425,163.77006199466996 174.8784902896732,159.18008557590656 174.43456577509642,152.97010246641003 176.2102638334036,152.1601033960469 176.65418834704906,147.3001028096769 176.87615060433745,146.49010168295354 175.9883015761152,142.71009254432283 176.87615060433745,138.93007700890303 175.54437706060708,134.34004954481497 173.54671674594283,132.1800333559513 172.21494320314378,128.94000515691005 166.2219622572884,129.21000768686645 162.0046793706715,130.02001507859677 159.34113228321075,132.1800333559513 157.3434719676152,134.34004954481497 156.23366068210453,136.50006364448927 156.89954745396972,138.39007426798344 157.1215097112581,140.01008210144937 156.89954745396972,143.5200950417202 156.01169842481613,144.6000979137607 155.56777391023934,147.0301024664659 156.23366068210453,148.65010403259657 156.23366068210453,150.540104374988 154.90188713837415,152.43010311899707 155.56777391023934,153.78010124200955 154.90188713837415,157.83009071601555 154.90188713837415,161.07007700833492" stroke="#4DD2FF" stroke-dasharray="none" stroke-linecap="round" stroke-linejoin="round" stroke-width="0.5"><title>2013-10-26 11.1km</title><desc>9223370654110301807</desc></polyline><polyline fill="none" opacity="1" points="24.07011914718896,214.20004340726882 27.574782977811992,217.89475188939832 30.144869786687195,219.0315841003321 32.24766808561981,219.31579206697643 35.51868766080588,218.7473760987632 37.855130213312805,216.47371085267514 40.19157276768237,213.6316262029577 42.5280153201893,209.6527019208297 43.462592341937125,206.52639954793267 44.163525108247995,202.26325324806385 44.63081361912191,199.13694104878232 43.92988085281104,197.14746748516336 44.39716936275363,193.1685153071303 44.163525108247995,191.17903669271618 43.462592341937125,189.75797950988635 43.22894808650017,187.76849800907075 42.5280153201893,183.78952995873988 41.126149787567556,180.3789805562701 36.9205531924963,178.67370399925858 33.649533617310226,178.10527820512652 29.67758127581328,180.66319319489412 27.574782977811992,181.51583090610802 25.00469616893679,184.3579543782398 23.135542125441134,187.76849800907075 24.537407658062875,190.32640248560347 25.238340423442423,193.1685153071303 25.238340423442423,196.86325683817267 24.30376340262592,199.9895720607601 23.836474891752005,203.68430287321098 23.602830636315048,206.81060902611353 24.537407658062875,208.23165590292774 23.836474891752005,212.77900013769977 25.939273189753294,215.62108581862412 28.275715744122863,217.89475188939832 31.079446808435023,218.46316806343384 34.350466382689774,217.89475188939832 38.32241872418672,216.18950254260562 41.59343829937279,213.91583482245915 42.5280153201893,209.93691102182493 42.29437106475234,206.52639954793267 42.76165957655758,202.26325324806385 42.76165957655758,198.85273064253852 42.76165957655758,195.1579922370147 44.163525108247995,191.4632480267901 45.79903489537537,189.18955639493652 46.7336119171232,186.63165068160743 46.49996766075492,184.07374218595214 44.163525108247995,181.23161837016232 41.126149787567556,179.81055517448112 38.08877446874976,177.25263925665058 34.81775489449501,176.4000000001397 31.313091062940657,177.82106525660492 28.509359998628497,180.09476788225584 25.939273189753294,182.6526807071641 25.471984679810703,185.77901482582092 25.471984679810703,189.4737679695245 25.00469616893679,192.60009301709943 24.537407658062875,196.86325683817267 21.733676593750715,199.9895720607601 22.20096510462463,203.68430287321098 21.967320849187672,207.94744659680873 22.434609359130263,211.07374708005227 22.434609359130263,213.91583482245915 24.537407658062875,216.75791912851855 27.574782977811992,219.0315841003321 30.845802552998066,219.60000000009313 34.81775489449501,219.0315841003321 37.38784170243889,217.610543750925 41.126149787567556,215.90529419737868 42.060726810246706,213.6316262029577 43.69623659737408,210.22112008789554 44.163525108247995,206.81060902611353 44.163525108247995,203.1158831268549 44.63081361912191,199.70536175812595 45.33174638450146,195.4422030900605 45.565390639938414,192.0316705906298 46.03267915081233,189.18955639493652 45.79903489537537,185.49480280443095 44.864457874558866,181.80004340759479 42.76165957655758,179.24212965508923 39.72428425680846,178.10527820512652 36.21962042618543,177.53685227409005 32.7149565955624,177.53685227409005 29.443937021307647,178.95791684417054 25.939273189753294,181.23161837016232 24.537407658062875,184.07374218595214 25.238340423442423,188.33692146651447 23.836474891752005,191.74745932617225 23.602830636315048,194.58957042940892 23.602830636315048,198.28430972713977 21.967320849187672,201.69483315735124 22.434609359130263,206.52639954793267 22.20096510462463,209.3684927856084 23.602830636315048,212.21058258996345 24.537407658062875,215.90529419737868 25.471984679810703,217.610543750925 31.079446808435023,219.0315841003321 35.051399149000645,218.46316806343384 37.62148595787585,216.18950254260562 41.82708255387843,212.77900013769977 43.462592341937125,211.9263737637084 44.163525108247995,209.08428361662664 43.69623659737408,205.95798048726283 43.69623659737408,202.26325324806385 43.69623659737408,199.13694104878232 44.163525108247995,195.72641390911303 45.565390639938414,192.31588182109408 45.79903489537537,189.18955639493652 45.79903489537537,186.34743876405992 45.79903489537537,183.78952995873988 43.462592341937125,181.23161837016232 41.59343829937279,178.10527820512652 38.08877446874976,176.96842620545067 33.88317787181586,178.10527820512652 29.91122553125024,180.09476788225584 27.574782977811992,183.22110540163703 25.471984679810703,186.34743876405992 24.07011914718896,188.33692146651447 23.836474891752005,192.0316705906298 22.9018978709355,195.4422030900605 22.434609359130263,199.13694104878232 23.135542125441134,202.26325324806385 21.733676593750715,205.38956129038706 21.2663880828768,208.51586517505348 22.434609359130263,213.6316262029577 24.537407658062875,215.90529419737868 26.873850212432444,217.89475188939832 28.97664850950241,219.31579206697643 33.18224510550499,219.60000000009313 36.9205531924963,217.89475188939832 39.25699574500322,215.62108581862412 41.126149787567556,213.6316262029577 42.29437106475234,209.6527019208297 42.060726810246706,206.52639954793267 43.22894808650017,202.26325324806385 43.462592341937125,198.0000992184505 43.92988085281104,194.87378135020845" stroke="#4DD2FF" stroke-dasharray="none" stroke-linecap="round" stroke-linejoin="round" stroke-width="0.5"><title>2013-10-20 10.7km</title><desc>9223370654628121807</desc></polyline><polyline fill="none" opacity="1" points="94.0810096943751,179.38870597910136 91.62407032120973,181.56230783159845 90.28392157331109,184.82270667003468 90.06056344788522,187.53970208903775 88.94377282448113,191.3434901572764 88.27369845006615,195.14727178867906 88.05034032464027,198.13595284009352 87.3802659502253,200.58123438083567 86.71019157581031,203.84160563116893 86.71019157581031,207.37366914795712 87.3802659502253,210.36233394150622 89.83720532245934,213.0792984876316 92.51750282011926,214.9811717160046 95.42115844320506,217.42643493087962 99.21824656426907,217.6981306800153 102.56861843541265,217.42643493087962 106.14234843291342,216.06795569579117 109.26936217956245,213.8943872116506 110.83286905195564,211.17742365039885 111.05622717738152,208.18875993951224 111.50294342730194,205.20009225560352 111.94965967629105,201.1246299177874 112.61973405070603,198.13595284009352 113.06645030062646,195.41897022980265 113.28980842512101,192.70198433613405 112.84309217520058,188.89819856663235 112.61973405070603,186.1812047897838 110.38615280296654,182.92080792272463 108.82264592964202,179.6604063261766 105.91899030748755,177.75850321003236 102.79197656083852,176.67170070740394 99.88832093775272,176.67170070740394 96.31459094118327,177.48680263385177 92.96421907003969,179.6604063261766 90.50727969687432,182.92080792272463 89.61384719889611,185.90950523177162 89.61384719889611,188.89819856663235 88.94377282448113,192.15858676331118 88.72041469905525,196.23406535829417 87.60362407565117,199.49444291344844 88.05034032464027,202.4831181843765 86.93354970123619,206.2868809637148 89.39048907347023,208.73215363710187 90.28392157331109,211.9925130638294 92.07078657113016,215.52456377237104 94.30436781886965,217.42643493087962 97.8780978154391,218.7849133447744 101.67518593650311,219.60000000009313 104.57884155865759,217.96982639585622 107.03578093089163,215.25286776060238 109.04600405413657,212.8076021813322 110.60951092839241,209.81894063809887 110.38615280296654,207.64536611060612 111.05622717738152,204.65669770352542 111.27958530280739,201.6680253231898 111.50294342730194,198.67934896820225 112.1730178007856,196.23406535829417 112.61973405070603,191.88688792707399 112.61973405070603,188.62649933667853 111.27958530280739,183.19250784208998 109.492720304057,179.6604063261766 106.58906468190253,178.03020375361666 102.12190218642354,176.4000000001397 98.54817218892276,176.67170070740394 95.64451656676829,178.03020375361666 92.51750282011926,179.9321066394914 90.95399594679475,183.19250784208998 90.7306378223002,186.72460380778648 90.28392157331109,191.07179122348316 89.61384719889611,195.69066863902844 86.93354970123619,198.40765092079528 87.3802659502253,201.1246299177874 87.3802659502253,204.3850003783591 86.93354970123619,207.64536611060612 88.05034032464027,210.36233394150622 90.95399594679475,214.16608338686638 94.0810096943751,217.6981306800153 98.10145593993366,218.7849133447744 101.67518593650311,217.15473914984614" stroke="#4DD2FF" stroke-dasharray="none" stroke-linecap="round" stroke-linejoin="round" stroke-width="0.5"><title>2013-10-19 10.2km</title><desc>9223370654714312807</desc></polyline><polyline fill="none" opacity="1" points="157.4766544746235,182.44804715528153 157.00313527788967,185.6160657282453 155.81933728791773,189.36008224752732 155.1090584937483,193.10409288294613 155.1090584937483,195.98409706004895 155.81933728791773,199.72809728630818 155.1090584937483,203.47209162893705 155.1090584937483,206.64008224592544 154.3987797005102,210.38406572700478 154.87229889724404,213.26404901687056 157.23989487532526,215.856031000847 161.5015676394105,217.87201503897086 165.0529616093263,219.60000000009313 168.36759597994387,218.16001261910424 171.20871115475893,216.14402882475406 174.049826329574,213.55204715393484 174.76010512374341,210.38406572700478 175.70714351627976,206.06408426584676 175.23362432047725,202.03209450119175 175.47038391791284,197.71209789603017 175.70714351627976,194.83209580741823 176.41742231044918,190.8000870347023 177.36446070112288,187.05607277853414 175.94390311371535,183.0240508459974 174.76010512374341,180.14403100172058 171.20871115475893,177.55201016599312 167.18379798997194,176.39999999990687 163.39564442262053,177.55201016599312 160.31776964943856,179.2800243704114 158.66045246366411,182.44804715528153 157.4766544746235,185.32806421420537 157.23989487532526,187.92007659026422 156.76637568045408,191.6640894880984 155.81933728791773,195.12009617267177 155.1090584937483,198.28809789568186 154.87229889724404,201.45609540655278 154.87229889724404,205.48808614583686 155.34581809211522,209.23207143694162 157.00313527788967,212.97605084488168 158.1869332678616,214.99203731981106 161.028048443608,218.16001261910424 164.57944241166115,218.16001261910424 167.42055758740753,218.73600767576136 170.73519195895642,217.29601977346465 173.33954753633589,215.56803314224817 174.99686472211033,212.11205611890182 175.47038391791284,207.79207779001445 175.70714351627976,203.18409227347001 175.70714351627976,200.30409679887816 175.70714351627976,196.84809763496742 176.65418190788478,193.9680945011787 177.36446070112288,190.51208614674397 177.1277011046186,186.19206865271553 174.99686472211033,180.14403100172058 172.3925091456622,178.12801503925584 167.65731718577445,176.68800259334967 164.81620201002806,176.97600515233353 161.97508683428168,179.56802661530674 159.37073125783354,181.58404135890305 158.66045246366411,184.4640594618395 157.23989487532526,189.07208118587732 155.81933728791773,193.39209345704876 155.81933728791773,196.84809763496742 154.3987797005102,200.30409679887816 154.6355392979458,204.04809023649432 154.87229889724404,207.2160800884012 154.3987797005102,210.67206421284936 156.29285648372024,214.70403935597278 158.89721206203103,217.29601977346465 161.5015676394105,217.5840174241457 166.4735191958025,218.16001261910424 169.31463437061757,216.72002436965704 172.3925091456622,214.12804332445376 173.33954753633589,211.53605946153402 174.52334552630782,207.79207779001445 175.94390311371535,204.33608948858455 177.1277011046186,201.1680958061479 177.6012202994898,197.13609775644727 177.1277011046186,192.52809162973426 177.1277011046186,188.20807779114693 176.18066271208227,184.75206108111888 174.76010512374341,180.14403100172058 171.91898994892836,178.12801503925584 168.84111517574638,177.26400767685845 164.81620201002806,176.97600515233353 161.5015676394105,178.99202208942734 158.66045246366411,181.58404135890305 157.23989487532526,184.176057808334 157.9501736694947,187.63207535399124 156.76637568045408,192.24009095085785 157.23989487532526,196.27209728676826 156.76637568045408,200.01609705970623 155.81933728791773,203.47209162893705 156.05609688628465,207.5040789565537 155.34581809211522,210.0960672076326 156.52961608115584,212.68805263726972 157.9501736694947,215.856031000847 161.7383272368461,217.87201503897086 163.86916361842304,217.87201503897086 168.84111517574638,218.44801016524434 171.91898994892836,216.72002436965704 174.52334552630782,213.84004525723867 175.70714351627976,209.8080686519388 175.70714351627976,206.35208327393048 175.70714351627976,202.89609288214706 176.41742231044918,199.15209763427265" stroke="#4DD2FF" stroke-dasharray="none" stroke-linecap="round" stroke-linejoin="round" stroke-width="0.5"><title>2013-10-12 10.6km</title><desc>9223370655320152807</desc></polyline><polyline fill="none" opacity="1" points="34.22912203986198,265.64904971048236 36.9785865098238,265.92775699542835 39.49892894178629,263.41939021321014 41.33190525602549,262.0258519339841 42.93575953040272,256.4516903918702 43.623125648126006,252.54976929398254 43.85224768798798,249.48396951239556 43.623125648126006,247.5330038932152 43.39400360919535,244.18848756235093 44.31049176584929,242.5162275780458 44.99785788357258,237.77815103437752 44.53961380571127,234.71233161212876 43.1648815702647,231.9252195081208 42.47751545254141,229.13810403598472 42.47751545254141,227.18712120037526 41.102783216163516,227.74454503622837 38.58244078513235,226.35098519385792 34.00000000093132,224.95742450957187 31.0214134901762,225.79356102156453 28.0428269803524,227.18712120037526 26.438972705975175,231.08908522012644 25.522484549321234,234.43362055299804 25.75160658825189,236.6633080795873 24.376874351873994,241.1226766637992 24.376874351873994,243.63106770208105 23.68950823508203,248.0904228107538 24.376874351873994,251.1562244440429 24.60599639080465,255.33685646601953 24.14775231294334,258.9600647534244 23.002142117358744,262.5832673464902 25.06424046959728,263.41939021321014 28.50107105821371,265.64904971048236 31.708779607899487,267.60000000009313 34.68736611865461,267.60000000009313 38.811562824063,265.92775699542835 41.33190525602549,263.97680529020727 43.623125648126006,260.9110207038466 44.53961380571127,257.2878154825885 44.7687358437106,252.82847816240974 43.623125648126006,249.20526023977436 43.85224768798798,244.18848756235093 44.99785788357258,240.28654571180232 45.226979923434556,237.22072962438688 46.143468079157174,234.43362055299804 45.45610196236521,232.20393087039702 42.93575953040272,228.58068053680472 38.811562824063,227.18712120037526 35.374732236377895,226.35098519385792 32.62526776455343,226.35098519385792 30.334047372452915,227.46583313541487 26.438972705975175,229.41681573539972 25.06424046959728,232.20393087039702 24.14775231294334,235.54846458579414 24.376874351873994,239.45041445526294 24.376874351873994,242.79493765952066 24.60599639080465,245.86074633477256 24.376874351873994,249.48396951239556 22.773020077496767,251.99235145538114 22.08565395977348,254.77943930099718 21.856531920842826,257.5665237775538 22.773020077496767,260.35360488598235 23.918630273081362,262.5832673464902 25.522484549321234,265.3703423908446 28.50107105821371,266.7638786493335 31.708779607899487,266.7638786493335 36.52034243196249,267.60000000009313 39.49892894178629,264.8129276514519 41.33190525602549,262.3045596573502 43.623125648126006,258.6813566253986 43.85224768798798,254.77943930099718 43.85224768798798,251.43493348150514 44.99785788357258,247.81171336886473 45.685224001295865,244.4671974426601 45.45610196236521,241.40138691361062 45.45610196236521,238.8929934501648 45.91434604022652,235.54846458579414 45.226979923434556,232.7613534934353 44.31049176584929,230.2529506292194 42.93575953040272,227.46583313541487 39.95717302057892,225.79356102156453 36.52034243196249,225.79356102156453 32.62526776455343,225.79356102156453 28.959315137937665,226.35098519385792 26.897216784767807,228.58068053680472 24.60599639080465,232.20393087039702 25.06424046959728,234.71233161212876 25.06424046959728,238.05686168861575 23.68950823508203,242.5162275780458 23.68950823508203,246.41816565580666 24.376874351873994,247.81171336886473 23.460386195220053,251.43493348150514 22.773020077496767,253.38589579914697 23.231264155358076,256.73039878858253 23.918630273081362,259.79618893377483 24.376874351873994,262.8619750030339 25.980728627182543,265.3703423908446 27.813704941421747,266.485171465436 34.00000000093132,266.485171465436 38.12419670633972,266.485171465436 40.186295059509575,265.3703423908446 43.85224768798798,262.0258519339841 43.1648815702647,257.2878154825885 42.93575953040272,252.82847816240974 44.08136972691864,250.04138795821927 42.93575953040272,246.41816565580666 44.31049176584929,244.18848756235093 45.226979923434556,242.23751746257767 45.91434604022652,238.05686168861575 46.143468079157174,234.43362055299804 45.45610196236521,231.08908522012644 42.93575953040272,228.30196873680688 38.58244078513235,225.79356102156453 36.29122039210051,224.4000000001397 33.312633882276714,224.95742450957187 32.854389804415405,226.07227312470786" stroke="#4DD2FF" stroke-dasharray="none" stroke-linecap="round" stroke-linejoin="round" stroke-width="0.5"><title>2013-10-06 10.6km</title><desc>9223370655838244807</desc></polyline><polyline fill="none" opacity="1" points="93.39805286563933,230.21543206600472 92.48743946664035,232.4308308751788 91.12151937000453,236.03084936900996 90.2109059728682,238.80009051598608 90.43855932168663,241.01548102218658 89.5279459245503,244.3385627658572 89.98325262311846,247.6616396890022 89.7555992724374,251.261634249473 88.84498587623239,255.69238901790231 88.16202582698315,258.46160639775917 89.0726392250508,261.50774164893664 90.43855932168663,263.1692682597786 93.39805286563933,265.9384766018484 95.67458635941148,267.3230795171112 97.95111985504627,267.60000000009313 102.27653349470347,266.49231786769815 106.14664043672383,264.5538728488609 108.65082728024572,260.4000565716997 109.78909402806312,256.800076372223 110.01674737781286,253.47701270505786 110.47205407731235,250.4308667758014 111.61032082512975,247.3847167957574 110.92736077588052,243.78471614304 110.92736077588052,240.46163359680213 111.61032082512975,237.41547036124393 111.83797417394817,234.64622754161246 111.61032082512975,231.8769813736435 109.5614406792447,230.21543206600472 107.96786723192781,228.00003111502156 105.23602703865618,226.89232983626425 102.27653349470347,227.44618054293096 97.72346650529653,228.00003111502156 95.44693301152438,228.55388155416586 93.8533595642075,230.21543206600472 93.62570621352643,231.8769813736435 92.71509281732142,234.64622754161246 92.48743946664035,237.69239445892163 91.80447941832244,241.84625191055238 91.12151937000453,244.89240925433114 91.80447941832244,248.49240816570818 90.89386602025479,251.5385566733312 90.43855932168663,255.1385451410897 89.5279459245503,257.90776318963617 89.5279459245503,259.84621383203194 90.43855932168663,262.8923472412862 92.03213276807219,265.10771445115097 96.12989305891097,266.21539725130424 99.31703995261341,267.0461590006016 102.27653349470347,266.21539725130424 105.23602703865618,265.9384766018484 107.2849071836099,263.7231101959478 108.65082728024572,261.50774164893664 109.5614406792447,257.6308415350504 109.33378732949495,254.58470112946816 110.2444007275626,250.7077893000096 110.2444007275626,247.1077938694507 110.01674737781286,243.50779278133996 109.78909402806312,238.80009051598608 110.2444007275626,235.47700073826127 110.92736077588052,234.09237857535481 110.2444007275626,231.32313173846342 107.96786723192781,228.83080672309734 105.00837368983775,226.06155352527276 102.9594935439527,225.23077691416256 99.77234665118158,225.78462802176364 96.35754640772939,225.78462802176364 94.5363196125254,226.61540443263948 93.39805286563933,229.66158202895895 91.80447941832244,232.4308308751788 91.57682606950402,235.47700073826127 90.89386602025479,239.07701444602571 90.2109059728682,242.95394595898688 89.7555992724374,245.4462556091603 89.0726392250508,248.49240816570818 89.0726392250508,251.81547906342894 88.16202582698315,255.1385451410897 87.70671912748367,257.6308415350504 87.93437247723341,260.67697789077647 89.0726392250508,263.1692682597786 92.03213276807219,265.6615559179336 95.67458635941148,266.49231786769815 99.77234665118158,266.76923845126294 103.41480024252087,266.21539725130424 105.91898708697408,264.2769519982394 108.65082728024572,262.0615839860402 109.78909402806312,257.90776318963617 110.2444007275626,255.1385451410897 110.69970742613077,252.09240142116323 110.92736077588052,249.3231763425283 111.38266747444868,245.4462556091603 111.61032082512975,243.23086938657798 111.83797417394817,240.18470983416773 112.06562752369791,237.41547036124393 112.29328087251633,234.36930307536386 111.61032082512975,231.6000565723516 110.47205407731235,229.1077318591997 108.19552058167756,226.61540443263948 105.69133373815566,225.23077691416256 102.9594935439527,224.4000000001397 100.68296004924923,224.95385130867362 96.81285310722888,225.50770248449408 94.08101291395724,227.16925520659424 92.71509281732142,230.76928196917288 91.12151937000453,235.20007637282833 90.2109059728682,237.9693185237702 89.98325262311846,240.18470983416773 89.7555992724374,243.23086938657798 89.98325262311846,246.27702489006333 90.2109059728682,249.6000990010798 89.98325262311846,252.64624603441916 89.7555992724374,255.96931090718135 90.2109059728682,259.2923709584866 91.57682606950402,262.3385051051155 94.08101291395724,264.00003111432306 96.81285310722888,266.76923845126294 100.68296004924923,266.76923845126294 102.9594935439527,266.49231786769815 106.37429378647357,264.83079366665334 108.4231739314273,262.8923472412862 109.5614406792447,259.56929241190664 110.01674737781286,256.800076372223 110.92736077588052,253.75393486046232 110.92736077588052,250.4308667758014 111.61032082512975,247.6616396890022 111.61032082512975,244.61548602650873 111.38266747444868,241.56932831485756 112.52093422133476,237.9693185237702 111.61032082512975,235.20007637282833 110.69970742613077,231.8769813736435 110.01674737781286,229.3846569606103 107.51256053335965,227.72310584550723 104.32541364058852,226.06155352527276 101.36592009756714,226.61540443263948 97.26815980672836,226.89232983626425 94.30866626370698,228.83080672309734 92.94274616613984,230.76928196917288 90.89386602025479,234.09237857535481 90.43855932168663,236.30777363479137 89.5279459245503,239.90778603730723 89.7555992724374,242.95394595898688 88.61733252555132,246.00010183011182 88.61733252555132,249.3231763425283 87.93437247723341,252.64624603441916 87.47906577866524,255.96931090718135 88.16202582698315,259.2923709584866 89.30029257386923,262.3385051051155 92.71509281732142,264.2769519982394 96.35754640772939,265.9384766018484 98.8617332521826,265.38463520118967 102.27653349470347,264.5538728488609 104.78072033915669,261.7846628341358 107.96786723192781,259.84621383203194 109.5614406792447,257.35391984693706 110.2444007275626,255.1385451410897 110.47205407731235,251.81547906342894 110.92736077588052,248.49240816570818 111.15501412469894,246.00010183011182 111.61032082512975,242.12317547295243 111.15501412469894,239.35393834323622 111.38266747444868,235.20007637282833 111.61032082512975,231.8769813736435 110.92736077588052,229.9385070647113 109.10613397974521,228.55388155416586 105.91898708697408,226.61540443263948 102.73184019327164,226.06155352527276 99.54469330050051,226.89232983626425 95.67458635941148,228.83080672309734 94.30866626370698,231.32313173846342 93.8533595642075,234.64622754161246 92.94274616613984,238.523166552186 92.71509281732142,241.2924046854023 91.80447941832244,244.61548602650873 91.12151937000453,248.21548537374474" stroke="#4DD2FF" stroke-dasharray="none" stroke-linecap="round" stroke-linejoin="round" stroke-width="0.5"><title>2013-09-29 10.5km</title><desc>9223370656443428807</desc></polyline><polyline fill="none" opacity="1" points="172.51837739627808,226.04052140074782 169.37157451547682,225.76710125035606 166.0,226.04052140074782 163.30274038854986,227.40762165863998 160.83025240991265,229.3215606319718 159.70639423839748,232.3291757463012 158.80730770155787,235.88362481584772 158.35776443220675,239.43806830001995 157.90822116378695,242.7190880975686 157.23390626069158,245.72668539732695 156.55959135759622,248.46086128987372 155.88527645450085,251.7418679993134 155.88527645450085,255.29628656315617 155.88527645450085,258.57728335657157 157.23390626069158,261.8582753909286 159.93116587307304,263.22535400046036 163.30274038854986,265.13926266669296 166.44954326935112,265.13926266669296 168.92203124705702,264.0456007702742 171.84406249318272,263.22535400046036 173.8670072024688,261.0380278278608 175.21563700865954,258.3038671386894 176.11472354643047,255.29628656315617 176.11472354643047,251.7418679993134 176.11472354643047,248.73427869705483 176.7890384485945,246.00010313582607 176.7890384485945,242.17225179541856 177.912896621041,238.8912312053144 177.23858171794564,237.25071912514977 176.3394951801747,234.51652968092822 175.21563700865954,230.68865890661255 173.417463934049,227.95446153078228 170.94497595634311,225.49368106527254 169.59634615015239,225.76710125035606 165.5504567315802,224.94684059894644 162.85319711919874,226.5873616025783 160.38070914149284,228.22788141667843 159.25685096997768,232.055756355403 157.90822116378695,233.6962722032331 157.23390626069158,238.6178126083687 156.55959135759622,240.80516046099365 156.33481972292066,244.9064319843892 156.33481972292066,247.09377375710756 156.11004808917642,249.28111341316253 156.11004808917642,253.38236956926994 154.7614182829857,255.56970314332284 155.2109615514055,261.0380278278608 156.11004808917642,263.4987696236931 161.504567313008,265.4126780577935 163.75228365696967,265.95950874197297 167.1238581724465,265.95950874197297 171.16974759008735,264.86584724183194 174.09177883714437,262.1316911787726 176.11472354643047,258.0304508882109 176.7890384485945,253.65578638156876 175.21563700865954,250.92161676776595 173.64223556779325,249.55453072185628 175.4404086433351,245.17984982184134 177.01381008327007,239.98490526387468 177.4633533526212,238.07097531366162 176.7890384485945,235.06336783478037 177.912896621041,231.235497985268 175.21563700865954,228.50130126997828 172.51837739627808,225.49368106527254 170.72020432166755,224.94684059894644 165.32568509690464,225.49368106527254 163.75228365696967,225.76710125035606 160.83025240991265,228.22788141667843 158.35776443220675,230.41523931804113 157.68344952911139,232.87601442844607 157.23390626069158,236.43046263838187 156.11004808917642,241.07857879367657 156.55959135759622,244.35959621169604 156.78436299134046,246.54693851224147 156.11004808917642,250.92161676776595 156.55959135759622,254.20261990698054 155.2109615514055,258.3038671386894 155.88527645450085,261.5848595700227 156.11004808917642,263.4987696236931 159.93116587307304,264.86584724183194 163.5275120222941,267.3265848727897 165.77522836532444,266.77975451922975 168.69725961238146,265.95950874197297 171.61929085943848,264.86584724183194 174.54132210556418,261.5848595700227 174.76609374023974,259.3975318111479 175.4404086433351,256.66336913825944 176.3394951801747,253.92920316033997 177.4633533526212,250.92161676776595 176.56426681485027,247.3671913293656 175.4404086433351,243.53934230282903 175.66518027707934,240.5317420954816 176.11472354643047,237.25071912514977 177.23858171794564,236.43046263838187 178.13766825478524,232.87601442844607 176.7890384485945,230.14181969570927 177.912896621041,230.41523931804113 177.4633533526212,227.68104161159135 174.31655047088861,226.31394151831046 170.94497595634311,225.22026084875688 167.79817307554185,224.6734203158412 163.75228365696967,225.76710125035606 160.60548077523708,228.22788141667843 157.90822116378695,230.14181969570927 157.68344952911139,233.42285297834314 155.43573318608105,237.25071912514977 154.08710337989032,241.62541536078788 155.6605048198253,241.62541536078788 156.33481972292066,243.2659242679365 155.88527645450085,246.8203561506234 155.2109615514055,250.92161676776595 152.96324520744383,253.10895272321068 154.98618991766125,256.11653620772995 155.2109615514055,258.57728335657157 156.78436299134046,262.9519383441657 158.80730770155787,265.4126780577935 161.504567313008,266.23292403365485 165.32568509690464,266.23292403365485 168.92203124705702,267.60000000009313 172.51837739627808,266.23292403365485 173.64223556779325,264.0456007702742 173.8670072024688,260.49119595531374 175.21563700865954,259.3975318111479 175.4404086433351,255.29628656315617 177.4633533526212,248.73427869705483 177.4633533526212,244.08617827459238 175.4404086433351,241.35199709353037 176.11472354643047,238.07097531366162 176.56426681485027,235.61020585522056 177.01381008327007,232.055756355403 176.7890384485945,230.14181969570927 175.21563700865954,227.1342016728595 171.61929085943848,225.76710125035606 168.24771634396166,224.4000000001397 165.5504567315802,225.76710125035606 163.0779687538743,226.8607816544827 159.93116587307304,229.04814087809063 157.00913462601602,232.055756355403 155.2109615514055,235.61020585522056 156.33481972292066,239.16464976919815 156.55959135759622,243.53934230282903 156.55959135759622,246.8203561506234 155.88527645450085,250.64819962508045 154.31187501456589,253.10895272321068 155.88527645450085,256.66336913825944 155.2109615514055,259.3975318111479 156.33481972292066,262.4051069342531 157.23390626069158,264.86584724183194 161.27979567926377,264.31901629362255 163.75228365696967,265.95950874197297 167.1238581724465,265.13926266669296 170.27066105324775,264.592431783909 172.06883412785828,263.4987696236931 174.54132210556418,259.6709478965495 176.7890384485945,257.4836182866711 176.7890384485945,254.20261990698054 176.7890384485945,252.83553584385663 176.11472354643047,251.195033878088 177.23858171794564,247.91402637632564 177.4633533526212,243.53934230282903 179.03675479255617,240.25832369620912 177.68812498636544,239.98490526387468 177.4633533526212,236.43046263838187 178.8119831578806,233.6962722032331 177.4633533526212,231.235497985268 176.11472354643047,227.1342016728595 172.74314903095365,224.6734203158412 169.37157451547682,226.04052140074782" stroke="#4DD2FF" stroke-dasharray="none" stroke-linecap="round" stroke-linejoin="round" stroke-width="0.5"><title>2013-09-22 10.9km</title><desc>9223370657048162807</desc></polyline></svg>