<?xml version="1.0" encoding="utf-8" ?>
<svg baseProfile="full" height="300mm" version="1.1" viewBox="0,0,200,300" width="200mm" xmlns="http://www.w3.org/2000/svg" xmlns:ev="http://www.w3.org/2001/xml-events" xmlns:xlink="http://www.w3.org/1999/xlink"><defs /><rect fill="#222222" height="300" width="200" x="0" y="0" /><text fill="#FFFFFF" style="font-size:12px; font-family:Arial; font-weight:bold;" x="10" y="20">Over 10km Runs</text><text fill="#FFFFFF" style="font-size:4px; font-family:Arial" x="10" y="280">Runner</text><text fill="#FFFFFF" style="font-size:9px; font-family:Arial" x="10" y="290">keep</text><text fill="#FFFFFF" style="font-size:4px; font-family:Arial" x="65" y="280">SPECIAL TRACKS</text><rect fill="yellow" height="2.6" width="2.6" x="65" y="283" /><text fill="#FFFFFF" style="font-size:3px; font-family:Arial" x="70" y="285.5">Over 20.0 km</text><rect fill="red" height="2.6" width="2.6" x="65" y="287" /><text fill="#FFFFFF" style="font-size:3px; font-family:Arial" x="70" y="289.5">Over 40.0 km</text><text fill="#FFFFFF" style="font-size:4px; font-family:Arial" x="120" y="280">STATISTICS</text><text fill="#FFFFFF" style="font-size:3px; font-family:Arial" x="120" y="285">Number: 15</text><text fill="#FFFFFF" style="font-size:3px; font-family:Arial" x="120" y="290">Weekly: 1.2</text><text fill="#FFFFFF" style="font-size:3px; font-family:Arial" x="141" y="285">Total: 163.6 km</text><text fill="#FFFFFF" style="font-size:3px; font-family:Arial" x="141" y="290">Avg: 10.9 km</text><text fill="#FFFFFF" style="font-size:3px; font-family:Arial" x="167" y="285">Min: 10.2 km</text><text fill="#FFFFFF" style="font-size:3px; font-family:Arial" x="167" y="290">Max: 14.0 km</text><polyline fill="none" opacity="1" points="26.534209392557386,75.59999999999854 26.47297853807686,75.32477207810734 26.507967597804964,74.99449736046518 26.542956657416653,74.697248984623 26.542956657416653,74.37798101818044 26.525462127639912,74.00366527790902 26.542956657416653,73.70641333368258 26.542956657416653,73.39815092744539 26.56045118730981,73.11190623357834 26.569198452169076,72.81465107767144 26.70915469090687,72.58345188292878 26.95407810859615,72.51739485117287 27.172759731533006,72.49537582885387 27.181506996508688,72.3192234387243 27.251485115790274,72.16508978894853 27.251485115790274,71.91186959663173 27.260232380765956,71.55956194964529 27.067792552523315,71.30633989946364 26.78788007516414,71.16321404917107 26.822869134834036,70.82191294297081 26.87535272433888,70.45859085961274 26.927836313843727,70.15031632249156 26.962825373513624,69.79800115575927 27.024056227935944,69.45669440375059 27.05904528766405,69.18144599493826 27.07653981744079,68.95023662208405 27.16401246661553,68.86215669063677 27.190254261367954,68.67498652412905 27.146517936780583,68.5318561103777 27.19900152628543,68.41074556643434 27.260232380765956,68.16852394524176 27.33021050010575,67.89327124009287 27.391441354469862,67.62902777939598 27.487661268620286,67.28771205707744 27.55763938796008,67.00144616925536 27.645112037134822,66.6931587179497 27.81131007062504,66.57204547558649 27.977508103998844,66.64911755949288 28.20493699191138,66.67113814166805 28.458607674459927,66.50598363208701 28.598563913197722,66.27476676342485 28.72102562204236,65.9884973617809 28.887223655474372,65.69121654746414 29.05342168896459,65.38292420145444 29.219619722338393,65.10766220495134 29.38581775582861,64.81037821745849 29.5257739945082,64.55713545749313 29.683224763022736,64.23782826106617 29.85817006137222,63.89649851240392 30.076851684367284,63.522135229140986 30.29553330730414,63.11473796165228 30.49672040034784,62.77340356744389 30.680412963673007,62.45408946877433 30.87285279185744,62.16780681259115 31.047798090265132,61.892534091093694 31.17900706396904,61.683326208614744 31.353952362318523,61.40805187092337 31.572633985313587,61.088732488693495 31.668853899405804,60.78042294709303 31.800062873167917,60.46110113606119 32.001249966269825,60.17481156516442 32.26366791385226,59.96559932747914 32.499844066624064,59.73436413187301 32.63980030530365,59.4811057931438 32.788503808900714,59.2829030727662 32.89347098796861,59.15076766135462 32.998438166920096,58.908518857482704 33.09465808101231,58.677280699426774 33.208372524997685,58.54514431815187 33.392065088264644,58.50109881069511 33.50577953219181,58.50109881069511 33.6457357708714,58.379973543967935 33.79443927452667,58.19277960020554 33.969384572817944,58.02760812064662 34.161824401060585,57.75232158660947 34.345516964327544,57.532091698085424 34.28428610984702,57.28983814174717 34.27553884492954,57.00353756722325 34.345516964327544,56.72824761640368 34.555451322346926,56.48599169989029 34.75663841544883,56.2547467523691 34.88784738921095,55.97945430312393 35.01905636303127,55.63809039041371 35.2114961912157,55.3848194779348 35.4826614036574,55.142559616753715 35.65760670200689,54.922322762038675 35.797562940686475,54.613990177771484 35.92877191444859,54.305656441196334 36.07747541810386,54.0083335324307 36.38362969021546,53.88720166982239 36.61105857806979,53.799105658064946 36.75976208172506,53.490768876014045 36.84723473084159,53.16040675936529 36.89971832034644,52.88510398491053 36.96969643974444,52.576763786928495 37.05716908891918,52.20234914006869 37.1533890030114,51.8940063902628 37.1533890030114,51.783883700351 37.232114387268666,51.53060095565888 37.27585071185604,51.167193920227874 37.372070625948254,50.8037852839916 37.46829054004047,50.39632521237945 37.54701592429774,50.02190066953335 37.608246778778266,49.68051210519479 37.6957194278948,49.339122128156305 37.77444481215207,48.98671808931249 37.85317019640934,48.61228714853496 37.90565378597239,48.23785450821015 37.993126435088925,47.896458560855535 38.06310455442872,47.56607404069655 38.15932446857914,47.15859797685698 38.21180805808399,46.87226224134065 38.28178617742378,46.50883468420216 38.33426976692863,46.2555357429228 38.40424788626842,46.06831428644364 38.43923694593832,45.85906627336226 38.491720535443164,45.56171292066574 38.56169865478296,45.198279589472804 38.6491713039577,44.82383145229687 38.71040215838002,44.482421375098056 38.762885747884866,44.31722244338016 38.77163301280234,44.141009884850064 38.82411660236539,43.854663674406765 38.902841986564454,43.502236204614746 38.96407284098677,43.11676693533809 39.034050960384775,42.7973767475778 39.10402907972457,42.577106931988965 39.13901813933626,42.422917711104674 39.16525993414689,42.2797417478796 39.22649078856921,42.19163333933102 39.217743523651734,42.04845697464043 39.20899625873426,41.77311711323273 39.22649078856921,41.5198036289803 39.278974378074054,41.25547568553884 39.34895249741385,41.0682428797445 39.445172411506064,40.96911945752072 39.74257941870019,41.04621546287672 40.03998642595252,41.167366182831756 40.32864616822917,41.24446200284001 40.46860240690876,41.20040725735453 40.503591466578655,40.99114689500129 40.49484420166118,40.71580350405566 40.51233873149613,40.39640401901852 40.52983326133108,39.999906385819486 40.5560750560835,39.61442074837396 40.626053175423294,39.30603094115213 40.51233873149613,39.12980767650879 40.258668048889376,39.12980767650879 39.95251377671957,39.17386352796166 39.672601299360394,39.23994726104138 39.698843094171025,38.975612011032354 39.74257941870019,38.645191757183056 39.821304803015664,38.31477017958241 39.87378839252051,37.99536139625707 39.97000830655452,37.63189472430531 40.03998642595252,37.290454876412696 40.092470015457366,36.960027871209604 40.11871181020979,36.6736567291955 40.16244813479716,36.40931325404381 40.17994266463211,36.22206944646314 40.171195399714634,36.13395456637954 40.32864616822917,36.012796452581824 40.52983326133108,35.92468134890805 40.459855141991284,35.77047969096748 40.337393433146644,35.64932104317995 40.354887962923385,35.46207551014231 40.37238249281654,35.3629453499525 40.5560750560835,35.39598874994408 40.748514884267934,35.39598874994408 40.90596565278247,35.429032136635215 41.05466915643774,35.38497428473784 41.22086718986975,35.340916409288184 41.352076163631864,35.252800587768434 41.36957069346681,34.97743803867343 41.413307018054184,34.481783133414865 41.46579060755903,34.14033024352102 41.49203240231145,33.82090529242123 41.49203240231145,33.6666997007851 41.5095269321464,33.45742022239574 41.5095269321464,33.29219920639298 41.334581633796915,33.23712546083698 41.080910951131955,33.21509595231328 40.91471291775815,33.13799262615794 40.73976761935046,33.08291877758893 40.424866082379594,33.027844892276335 40.10121728037484,32.95074139103235 39.80381027312251,32.88465261832607 39.52389779576333,32.807548983211746 39.156512669229414,32.76348973077984 38.885347456729505,32.653341496683424 38.719149423297495,32.554207960231 38.474226005608216,32.57623764530581 38.15057720366167,32.554207960231 37.85317019640934,32.554207960231 37.538268659380265,32.52116342160298 37.22336712235119,32.488118869754544 36.92596011509886,32.45507430462749 36.60231131315231,32.422029726265464 36.49734413414262,32.39999999999418 36.44486054463778,32.52116342160298 36.37488242529798,32.73044527597085 36.33114610071061,32.92871180600196 36.28740977612324,33.14900739143195 36.269915246230084,33.358287652510626 36.24367345147766,33.556552673107944 36.147453537385445,33.75481721704273 36.068728153186385,33.89800798010401 35.97250823903596,34.11830097625352 35.93751917942427,34.26149110822007 35.858793795167,34.45975395735877 35.762573881074786,34.60294349646574 35.68384849675931,34.81222006794269 35.59637584758457,34.988452558282006 35.508903198409826,35.18671365984483 35.37769422464771,35.3739598180764 35.32521063514287,35.63830661185057 35.20274892629823,35.913666954351356 35.071539952536114,36.22206944646314 34.91408918402158,36.552499408273434 34.76538568036631,36.86089951150643 34.61668217682745,37.191326913824014 34.494220467924606,37.45566788251017 34.345516964327544,37.77507875596348 34.179318930837326,38.072460181349015 34.056857221992686,38.347812396903464 33.93439551314805,38.59012158618134 33.86441739386646,38.7443179723341 33.82068106922088,38.81040204958845 33.69821936037624,38.8764860739102 33.67197756562382,39.140821641572984 33.601999446284026,39.43819814257586 33.42705414793454,39.7245596857465 33.32208696892485,39.95585097557341 33.25210884952685,40.13207247534592 33.40081235318212,40.22018308402767 33.663230300706346,40.23119690347812 33.969384572817944,40.25322453800618 34.31052790465765,40.29727978940355 34.62542944168672,40.34133501728502 34.94907824363327,40.385390221599664 35.27272704557981,40.42944540242752 35.56138678791467,40.473500559688546 35.80631020560395,40.48451434531307 35.94626644428354,40.385390221599664 35.990002768929116,40.15410013632936 36.024991828540806,39.944837119321164 36.042486358375754,39.91179554183327 36.1999371269485,39.999906385819486 36.22617892170092,40.176127791441104 36.15620080236113,40.55059702828294 36.0949699478806,40.93607829035318 36.024991828540806,41.26648936676793 35.94626644428354,41.673994538155966 35.876288324943744,42.015416239788465 35.797562940686475,42.345822992567264 35.762573881074786,42.62116094217345 35.66635396692436,42.96257872325077 35.675101231841836,43.2709548592029 35.64885943708941,43.59034321321815 35.42143054923508,43.854663674406765 35.35145242989529,44.10796998823207 35.26397978072055,44.427355101302965 35.26397978072055,44.6916728803335 35.23773798590992,44.978016185195884 35.41268328431761,45.12118746488704 35.34270516491961,45.46259489823569 35.298968840332236,45.82602706489706 35.194001661322545,46.2555357429228 35.12402354198275,46.5969384814307 35.06279268756043,46.982391487988934 35.04529815772548,47.31277834583307 35.03655089286622,47.65417670876923 35.027803627890535,47.99557365887449 35.027803627890535,48.34798193176539 35.00156183313811,48.71140138645569 34.99281456822064,49.05279396128026 34.95782550860895,49.3831725271375 34.93158371379832,49.68051210519479 34.870352859376,50.032913180322794 34.80912200495368,50.39632521237945 34.74789115053136,50.69366113876458 34.800374740036204,51.04605788601475 34.73914388567209,51.37642846946255 34.66041850135662,51.73983458321891 34.46797867317218,52.03716566742514 34.266791580070276,52.27943464744021 33.99562636757037,52.48866637585161 33.768197479774244,52.69789757358376 33.51452679710928,52.91814036638243 33.313339704007376,53.14939466602664 33.225867054774426,53.29255176476727 33.10340534592979,53.413684500446834 32.97219637222588,53.62291335226473 32.88472372299293,53.865177675725135 32.771009279065765,54.18452501509455 32.59606398071628,54.51488303094084 32.42986594722606,54.82321598564158 32.272415178711526,55.09851229284686 32.211184324289206,55.35178408421052 32.211184324289206,55.58303156248439 32.3861296226969,55.72618443855754 32.316151503357105,56.023501156727434 32.26366791385226,56.24373507202108 32.28990970860468,56.29879345900554 32.15870073478436,56.276770108626806 31.992502701410558,56.497003347889404 31.791315608250443,56.83836370694189 31.590128515148535,57.03657229962846 31.37144689221168,57.26781505589315 31.257732448226307,57.55411471339903 31.16151253413409,57.84041337742383 30.99531450070208,58.07165388085559 30.85535826202249,58.0826653172262 30.60168757941574,58.0826653172262 30.348016896808986,58.03861956291075 30.04186262463918,58.005585231716395 29.726961087610107,58.005585231716395 29.517026729590725,58.016596676905465 29.377070490911137,58.07165388085559 29.307092371513136,58.09367675212707 29.202125192561653,58.32491654576734 29.07091621874133,58.53413294348138 29.035927159071434,58.820428207021905 28.939707244979218,59.06267726951046 28.83474006591132,59.26088051889383 28.808498271217104,59.337959431737545 28.58981664822204,59.547173260813 28.397376820095815,59.74537534635601 28.248673316440545,59.98762169328256 28.362387760425918,60.14177808921522 28.414871349872556,60.21885617917724 28.432365879707504,60.41705665131303 28.502343999105506,60.68132320697623 28.476102204353083,60.86851150507573 28.414871349872556,60.68132320697623 28.231178786663804,60.85750044047745 28.07372801809106,61.12176558555802" stroke="#4DD2FF" stroke-dasharray="none" stroke-linecap="round" stroke-linejoin="round" stroke-width="0.5"><title>2017-12-17 14.0km</title><desc>9223370523376934807</desc></polyline><polyline fill="none" opacity="1" points="100.59315465384861,32.40000000000873 100.59315465384861,32.76454368601844 100.4828002997092,33.0943680460623 100.51038888818584,33.26795947900973 100.66212612524396,34.049118062495836 100.56556606531376,34.30950321549608 100.7310975965811,34.6219647116086 100.81386336224386,34.8997076342348 100.85524624504615,35.21216771387844 100.88283483363921,35.611421168767265 100.89662912790664,35.97595586272655 100.93801201070892,36.27105462930922 100.99318918789504,36.618228792460286 101.08974924776703,36.89596745639574 101.13113213056931,37.22578135036747 101.18630930775544,37.57295296770462 101.22769219055772,37.9027651467477 101.43460660468554,37.93748216959648 101.61393243027851,38.09370865797973 101.57254954741802,38.26729342517501 101.39322372182505,38.371444174452336 101.31045795622049,38.56238699838286 101.40701801609248,38.822763125164784 101.54496095894137,39.15257213827863 101.66910960740643,39.46502201160183 101.73808107874356,39.7774711351085 101.88981831580168,40.07256128554582 102.04155555280158,40.36765076716256 102.22088137839455,40.714814006962115 102.20708708412712,41.00990203303809 101.94499549292959,41.061976321128896 101.69669819594128,40.90575339431234 101.50357807602268,40.74953028008167 101.29666366189485,40.62802328384714 101.03457207063911,40.73217214469332 100.80006906797644,40.73217214469332 100.59315465384861,40.888395279762335 100.60694894811604,41.061976321128896 100.62074324238347,41.33970550603408 100.37244594551157,41.47856987627165 100.06897147133714,41.600076078786515 99.79308558581397,41.652150130903465 99.47581681754673,41.652150130903465 99.50340540608158,41.42649575480027 99.57237687747693,41.11405058845412 99.66893693740712,40.83632092225889 99.76549699733732,40.48915800641407 99.82067417440703,40.08991950888594 99.8482627630001,39.74275460290664 99.79308558581397,39.39558877122181 99.73790840874426,38.97898855122912 99.51719970034901,38.89219667103316 99.21372522629099,38.89219667103316 99.04819369496545,38.71861273692048 99.0206051064306,38.59710384537175 99.00681081210496,38.336727267320384 98.99301651789574,38.11106714513153 98.8274849865702,38.05899167673488 98.63436486676801,38.02427468627866 98.45503904117504,38.04163318268547 98.41365615825634,38.215218019337044 98.42745045258198,38.51031171053182 98.4412447468494,38.84012151508068 98.45503904117504,39.15257213827863 98.4826276297099,39.46502201160183 98.4826276297099,39.812187658113544 98.4826276297099,40.14199416495103 98.4826276297099,40.437083489232464 98.49642192391912,40.784246543902555 98.4826276297099,41.11405058845412 98.49642192391912,41.40913770964835 98.51021621824475,41.66950814360462 98.52401051251218,41.912520078898524 98.51021621824475,42.12081566240522 98.49642192391912,42.398542588722194 98.46883333538426,42.65891104420007 98.45503904117504,42.884563284387696 98.42745045258198,43.07549948997621 98.41365615825634,43.318508801123244 98.37227327551227,43.561517658730736 98.38606756972149,43.769810604382656 98.38606756972149,44.06489170686109 98.38606756972149,44.3946874418325 98.38606756972149,44.74183994467603 98.37227327551227,45.07163396505348 98.38606756972149,45.384069634979824 98.39986186404712,45.71386202875874 98.39986186404712,46.008938725688495 98.41365615825634,46.3560869248322 98.41365615825634,46.61644746687671 98.41365615825634,46.92887943005189 98.38606756972149,47.137166989123216 98.38606756972149,47.397525969310664 98.35847898124484,47.64052721456392 98.41365615825634,47.9355995454971 98.45503904117504,48.21331406971149 98.49642192391912,48.508385102744796 98.5378048067796,48.85552663850831 98.59298198390752,49.23738125896489 98.67574774957029,49.60187780660635 98.78610210376792,49.9316595182172 98.8826621636399,50.192012911094935 99.00681081210496,50.53914995858213 99.10337087209336,50.834215721304645 99.24131381482584,51.07721055338334 99.29649099195376,51.21606453953427 99.40684534615139,51.45905865902023 99.51719970034901,51.70205232506851 99.55858258315129,51.89297560173145 99.58617117174435,52.083898598488304 99.72411411447683,52.22275151120266 99.8482627630001,52.36160427588038 99.95861711719772,52.53517002350418 100.06897147133714,52.70873553981073 100.1931201198604,52.93437036513933 100.30347447405802,53.14264831849141 100.49659459391842,53.29885656488477 100.68971471377881,53.55920322582824 100.86904053937178,53.81954936620605 101.03457207063911,54.062538627680624 101.20010360202286,54.305527435804834 101.26907507341821,54.46173428729526 101.39322372182505,54.68736607534811 101.57254954741802,54.94770996039733 101.75187537295278,55.1906971167773 101.94499549292959,55.520464675399126 102.06914414139464,55.728738492704 102.23467567266198,55.98908029588347 102.3864129097201,56.24942157858459 102.56573873531306,56.561830430917325 102.74506456090603,56.8568825477123 102.924390386499,57.169289942787145 103.1175105063594,57.46434068334929 103.29683633189416,57.70732314424822 103.50375074602198,58.03708433030988 103.65548798308009,58.31477731304767 103.87619669147534,58.661892708798405 104.06931681133574,58.922228648443706 104.22105404839385,59.21727541764267 104.35899699112633,59.47761024712236 104.52452852245187,59.720588951779064 104.69006005377742,59.980922775153886 104.86938587931218,60.258611613171524 104.99353452777723,60.48423335807456 105.1728603533702,60.72721018466109 105.3659804732306,61.00489743149956 105.53151200455613,61.28258408620604 105.68324924161425,61.50820405721606 105.84878077288158,61.837955619441345 106.02810659853276,62.15035106620053 106.23502101260237,62.48010100258398 106.38675824966049,62.7577845119813 106.57987836952088,63.070177752379095 106.81438137224177,63.4172804740374 106.9799129035091,63.6776069082116 107.13165014050901,63.920577777316794 107.29718167183455,64.19825821554696 107.49030179169495,64.51064800091262 107.65583332296228,64.84039196153753 107.84895344282268,65.17013508731907 108.000690679939,65.46516770269955 108.1524279169389,65.76019964984152 108.26278227113653,66.05523092862859 108.40072521386901,66.41968040917709 108.46969668532256,66.71471019412274 108.49728527385741,66.87090216272918 108.37313662533415,67.02709394397971 108.33175374253187,67.11386707483325 108.42831380246207,67.02709394397971 108.59384533378761,67.09651245329587 108.66281680518296,67.32212235305633 108.75937686505495,67.58244098257273 108.86973121931078,67.89482265127299 108.99387986777583,68.24191251555749 109.11802851624088,68.58900145489315 109.24217716470594,68.93608946935274 109.3249429303687,69.1964048732334 109.40770869603148,69.45671975681034 109.54565163882216,69.76909693045309 109.65600599301979,70.04676490020938 109.7663603471592,70.32443227812473 109.84912611282198,70.58474490742083 109.89050899562426,70.82770289196924 109.98706905561266,71.10536860513093 110.09742340981029,71.41774182494555 110.20777776400791,71.73011429562757 110.30433782393811,72.042486017177 110.40089788386831,72.32014914081083 110.48366364947287,72.58045778164524 110.60781229799613,72.89282746399113 110.71816665219376,73.15313496043382 110.84231530065881,73.48285704245791 110.95266965491464,73.79522456078848 111.09061259764712,74.10759133001557 111.18717265751911,74.35054274383583 111.26993842324009,74.54143282248697 111.36649848317029,74.83644421205099 111.5182357202284,75.04468714354152 111.54582430870505,75.16616203315789 111.55961860303069,75.35705091660202 111.50444142596098,75.58264650905039 111.32511560036801,75.53058602246165 111.14578977477504,75.2876368095167 110.96646394918207,75.02733357860416 110.74575524078682,74.74967622566328 110.49745794379851,74.43731099607248 110.20777776400791,74.1422987026308 109.91809758427553,73.88199318294937 109.66980028722901,73.63904089527205 109.4215029902989,73.3787343698641 109.20079428190365,73.11842732426885 108.95249698491534,72.89282746399113 108.71799398225266,72.66722721300903 108.41451950819464,72.35485698962293 108.1524279169389,72.11190185359737 107.93171920848545,71.88630025002931 107.61445044016,71.5912821788952 107.35235884896247,71.36567967364681 107.04888437490445,71.1921390191128 106.74540990084643,71.05330632902042 106.38675824966049,70.96653582250292 106.02810659853276,70.91447349090595 105.69704353588168,70.84505701635499 105.3659804732306,70.75828637118684 105.0763002934982,70.70622395635291 104.7314429365797,70.61945321863459 104.38658557960298,70.60209906417003 104.05552251706831,70.53268242317426 103.68307657161495,70.42855739226798 103.48995645175455,70.3764948456519 103.29683633189416,70.32443227812473 103.10371621203376,70.28972388831608 102.89680179784773,70.25501548917964 102.67609308951069,70.237661286199 102.46917867532466,70.20295287312183 102.2898528497899,70.15089023632754 102.09673272987129,70.11618180021469 101.87602402147604,70.08147335484682 101.65531531308079,69.99470220098738 101.50357807602268,69.95999372325605 101.22769219055772,69.8558682345465 100.88283483363921,69.69967984543473 100.5379774767789,69.5781998577877 100.13794294279069,69.43936544744065 99.90343994012801,69.38730250536173 99.57237687747693,69.28317655884894 99.24131381482584,69.17905052912829 98.86886786943069,69.07492441617069 98.49642192391912,69.0055069612572 98.13777027273318,68.86667194044276 97.86188438726822,68.77989997730765 97.44805555901257,68.69312795632868 97.15837537922198,68.5369381729688 96.79972372803604,68.41545710085484 96.60660360817565,68.34603929442528 96.30312913411763,68.24191251555749 95.97206607146654,68.13778565335087 95.64100300887367,67.94688618989312 95.30993994622258,67.73863191057171 94.97887688362971,67.53037729827338 94.70299099810654,67.25270396399719 94.4822822897695,66.95767539764347 94.27536787564168,66.62793679739116 94.22019069851376,66.43703512092179 94.12363063852536,66.24613316469186 93.95809910731623,65.98581186436058 93.86153904732782,65.81226404169865 93.70980181026971,65.53458704453078 93.5580645732698,65.23955458634009 93.36494445340941,64.8924567210779 93.19941292208387,64.52800296701025 93.0200870964909,64.12883816153044 92.81317268242128,63.71231706009712 92.6338468567701,63.33050488035951 92.44072673690971,63.000757097033784 92.30278379417723,62.65365326535539 92.12345796852605,62.27183798199985 91.9441321429913,61.85531094171165 91.73721772886347,61.43878256929747 91.53030331473565,61.03960829570133 91.35097748914268,60.623077314477996 91.14406307501486,60.258611613171524 90.95094295515446,59.85943372230395 90.77161712956149,59.47761024712236 90.59229130396852,59.09578565246193 90.41296547837555,58.73131567693781 90.2888168299105,58.3668446814263 90.10949100437574,58.089151809661416 89.98534235591069,57.776746621209895 89.88878229592228,57.446984775946476 89.76463364745723,57.0998661420017 89.66807358752703,56.718034576042555 89.58530782186426,56.31884583279316 89.51633635052713,55.91965586593142 89.47495346766664,55.572533160986495 89.41977629053872,55.155984693657956 89.39218770200387,54.80885995311837 89.35080481920158,54.37495272626984 89.29562764201546,54.04518226692744 89.29562764201546,53.6633417444682 89.26803905353881,53.316213025158504 89.24045046500396,52.89965734053112 89.26803905353881,52.53517002350418 89.28183334780624,52.18803829692479 89.28183334780624,51.82354898804624 89.25424475921318,51.44170195120387 89.15768469934119,51.02514027041616 89.08871322794585,50.660647706565214 89.08871322794585,50.33086784115585 89.06112463935278,49.91430260684865 89.03353605081793,49.584520851261914 88.99215316801565,49.25473826054076 88.92318169667851,48.85552663850831 88.97835887369001,48.43895668453479 89.06112463935278,48.05709972270415 89.06112463935278,47.74467046650534 89.06112463935278,47.466954942807206 89.10250752227148,47.25866791133012 89.07491893367842,47.05038054662873 89.03353605081793,46.77266354217136 89.00594746228307,46.460231204124284 88.9645645794808,46.11308328263112 88.93697599094594,45.765934435636154 88.93697599094594,45.47085718800372 88.86800451949239,45.07163396505348 88.81282734242268,44.65505190574913 88.79903304815525,44.25582618151384 88.7714444596204,43.90867238289502 88.73006157675991,43.57887541693344 88.68867869395763,43.179646393167786 88.64729581115535,42.936636822792934 88.64729581115535,42.64155316333927 88.67488439963199,42.2770371313527 88.66109010542277,41.92987805690791 88.61970722250408,41.58271805681579 88.59211863396922,41.287631328974385 88.52314716263209,40.923111506563146 88.52314716263209,40.575948822151986 88.53694145689951,40.263501614754205 88.56453004549257,39.88162067635858 88.49555857403902,39.46502201160183 88.46796998550417,39.135213789966656 88.42658710270189,38.75332954226178 88.45417569123674,38.51031171053182 88.46796998550417,38.35408572205051 88.45417569123674,38.12842562998412 88.42658710270189,37.86804811458569 88.42658710270189,37.55559440885554" stroke="#4DD2FF" stroke-dasharray="none" stroke-linecap="round" stroke-linejoin="round" stroke-width="0.5"><title>2017-11-19 11.8km</title><desc>9223370525802103807</desc></polyline><polyline fill="none" opacity="0.5" points="177.3797216694802,73.04278025892563 176.34910536697134,72.8391185333603 175.14671968156472,72.8391185333603 174.0302186878398,72.43179494666401 172.74194830982015,72.43179494666401 171.53956262394786,72.22813308500918 170.508946321439,72.53362586023286 168.70536779332906,71.71897823334439 167.2453280314803,71.51531621342292 165.87117296177894,71.41348518664017 164.32524850871414,71.51531621342292 163.72405566554517,71.61714722926263 162.092246520333,72.0244711781852 160.0310139162466,71.10799203801434 158.5709741548635,69.88601842400385 157.28270377684385,70.19151198014151 155.82266401546076,69.68235599668697 154.53439363837242,69.47869352361886 153.50377733586356,69.68235599668697 152.4731610333547,69.3768622703501 151.4425447313115,68.96953714359552 150.1542743537575,69.07136844238266 149.03777335956693,69.58052476588637 147.14831013884395,68.96953714359552 146.11769383680075,68.35854911402566 145.6023856853135,67.2384033339913 144.91530815092847,66.11825618409785 144.8294234587811,64.48894879367435 145.00119284261018,63.06330244883429 145.00119284261018,61.43398962327046 144.8294234587811,60.008338523388375 144.8294234587811,58.073522766528185 144.5717693832703,57.05519704206381 144.39999999990687,55.52770633244654 144.74353876709938,54.10204603837337 144.74353876709938,52.880049734259956 145.0870775342919,51.861718235129956 144.8294234587811,50.537885593483225 145.25884691765532,49.112217531888746 145.17296222643927,47.58471357449889 145.43061630195007,46.66820997686591 145.51650099363178,44.835200030647684 145.43061630195007,43.20585477579152 145.51650099363178,41.7801753001404 145.6023856853135,40.65999701229157 145.86003976128995,39.33614817837952 146.11769383680075,37.910462678584736 145.86003976128995,36.484774959040806 145.86003976128995,35.46642522898037 145.68827037746087,34.244404058437794 145.86003976128995,35.46642522898037 145.86003976128995,36.484774959040806 146.11769383680075,37.910462678584736 145.86003976128995,39.33614817837952 145.6023856853135,40.65999701229157 145.51650099363178,41.7801753001404 145.43061630195007,43.20585477579152 145.51650099363178,44.835200030647684 145.43061630195007,46.66820997686591 145.17296222643927,47.58471357449889 145.25884691765532,49.112217531888746 144.8294234587811,50.537885593483225 145.0870775342919,51.861718235129956 144.74353876709938,52.880049734259956 144.74353876709938,54.10204603837337 144.39999999990687,55.52770633244654 144.5717693832703,57.05519704206381 144.8294234587811,58.073522766528185 144.8294234587811,60.008338523388375 145.00119284261018,61.43398962327046 145.00119284261018,63.06330244883429 144.8294234587811,64.48894879367435 144.91530815092847,66.11825618409785 145.6023856853135,67.2384033339913 146.11769383680075,68.35854911402566 147.14831013884395,68.96953714359552 149.03777335956693,69.58052476588637 150.1542743537575,69.07136844238266 151.4425447313115,68.96953714359552 152.4731610333547,69.3768622703501 153.50377733586356,69.68235599668697 154.53439363837242,69.47869352361886 155.82266401546076,69.68235599668697 157.28270377684385,70.19151198014151 158.5709741548635,69.88601842400385 160.0310139162466,71.10799203801434 162.092246520333,72.0244711781852 163.72405566554517,71.61714722926263 164.32524850871414,71.51531621342292 165.87117296177894,71.41348518664017 167.2453280314803,71.51531621342292 168.70536779332906,71.71897823334439 170.508946321439,72.53362586023286 171.53956262394786,72.22813308500918 172.74194830982015,72.43179494666401 174.0302186878398,72.43179494666401 175.14671968156472,72.8391185333603 176.34910536697134,72.8391185333603 177.3797216694802,73.04278025892563 178.5821073553525,73.2464419392054 180.04214711673558,73.7555959415622 181.4163021869026,73.55193437461276 182.7045725644566,73.34827276220312 183.9069582503289,73.65376516390825 185.2811133195646,73.55193437461276 186.4834990054369,73.65376516390825 187.59999999962747,73.4501035741414" stroke="#4DD2FF" stroke-dasharray="1,0.5" stroke-linecap="round" stroke-linejoin="round" stroke-width="0.5"><title>2014-03-22 10.5km</title><desc>9223370641410674807</desc></polyline><polyline fill="none" opacity="1" points="55.600000000034925,101.37909005446272 55.458559401275124,101.35449898911611 55.35753040225245,101.28072575727856 55.24639850325184,101.26843021345121 55.11506080446998,101.28072575727856 54.983723105688114,101.31761237987666 54.83217960706679,101.31761237987666 54.71094480820466,101.32990791778138 54.579607109422795,101.28072575727856 54.41796071093995,101.29302129966527 54.30682881193934,101.30531684050948 54.145182413456496,101.30531684050948 54.0037418147549,101.30531684050948 53.8926099158125,101.30531684050948 53.74106641719118,101.30531684050948 53.60972871846752,101.29302129966527 53.48849391954718,101.28072575727856 53.36725912062684,101.26843021345121 53.24602432176471,101.25613466811046 53.114686622982845,101.29302129966527 52.98334892420098,101.29302129966527 52.85201122541912,101.28072575727856 52.720673526637256,101.25613466811046 52.58933582785539,101.2315435729688 52.49840972869424,101.2315435729688 52.34686623013113,101.2315435729688 52.205425631429534,101.25613466811046 52.07408793264767,101.25613466811046 51.94275023386581,101.24383912125631 51.801309635164216,101.20695247190451 51.68007483630208,101.2315435729688 51.54873713746201,101.2315435729688 51.38709073897917,101.21924802318244 51.275958840036765,101.18236136485939 51.11431244149571,101.1700658090922 50.9627689429326,101.20695247190451 50.801122544391546,101.20695247190451 50.67988774552941,101.21924802318244 50.5283442469663,101.20695247190451 50.407109448104165,101.20695247190451 50.26566884940257,101.21924802318244 50.15453695046017,101.20695247190451 50.0231992516201,101.19465691911319 49.891861552838236,101.21924802318244 49.76052385405637,101.20695247190451 49.62918615527451,101.20695247190451 49.51805425633211,101.2315435729688 49.376613657630514,101.24383912125631 49.2654817586299,101.24383912125631 49.13414405984804,101.24383912125631 48.962394761445466,101.2315435729688 48.85126286250306,101.2315435729688 48.68961646396201,101.2315435729688 48.59869036485907,101.2315435729688 48.467352666018996,101.2315435729688 48.33601496723713,101.21924802318244 48.20467726845527,101.2315435729688 48.06323666975368,101.19465691911319 47.942001870891545,101.19465691911319 47.79045837232843,101.18236136485939 47.64901777362684,101.18236136485939 47.51768007478677,101.1700658090922 47.406548175844364,101.1700658090922 47.26510757714277,101.20695247190451 47.103461178718135,101.2315435729688 46.982226379797794,101.20695247190451 46.8407857810962,101.19465691911319 46.70944808231434,101.18236136485939 46.588213283452205,101.15777025182615 46.42656688491115,101.18236136485939 46.30533208604902,101.15777025182615 46.1537885874277,101.14547469311219 46.01234798878431,101.14547469311219 45.87090739002451,101.18236136485939 45.73956969130086,101.1700658090922 45.577923292759806,101.13317913291394 45.42637979419669,101.10858800800634 45.29504209541483,101.09629244329699 45.153601496713236,101.05940574032138 45.01216089801164,101.07170130945451 44.89092609914951,101.08399687713973 44.75958840036765,101.10858800800634 44.63835360144731,101.12088357121684 44.50701590272365,101.1700658090922 44.37567820388358,101.1700658090922 44.234237605240196,101.15777025182615 44.10289990645833,101.14547469311219 43.99176800751593,101.13317913291394 43.86043030867586,101.15777025182615 43.729092609952204,101.14547469311219 43.60785781103186,101.1700658090922 43.45631431241054,101.13317913291394 43.304770813847426,101.15777025182615 43.19363891490502,101.13317913291394 43.05219831614522,101.13317913291394 42.92086061742157,101.13317913291394 42.809728718420956,101.09629244329699 42.668288119719364,101.07170130945451 42.51674462115625,101.08399687713973 42.36520112253493,101.09629244329699 42.21365762397181,101.07170130945451 42.09242282510968,101.08399687713973 41.95098222634988,101.08399687713973 41.799438727786765,101.07170130945451 41.668101028946694,101.07170130945451 41.53676333022304,101.08399687713973 41.38521983160172,101.09629244329699 41.243779232900124,101.12088357121684 41.12254443403799,101.08399687713973 40.99120673525613,101.0471101696894 40.84976613661274,101.05940574032138 40.71842843783088,101.03481459754403 40.57698783907108,101.0471101696894 40.45575304020895,101.07170130945451 40.334518241346814,101.0471101696894 40.19307764270343,101.02251902394346 40.04153414408211,101.02251902394346 39.920299345161766,101.02251902394346 39.768755846540444,100.9979278722385 39.66772684751777,100.97333671458182 39.53638914873591,100.97333671458182 39.39494855009252,100.97333671458182 39.29391955101164,100.9979278722385 39.14237605239032,100.9856322941414 39.000935453688726,100.9979278722385 38.86959775490686,101.03481459754403 38.71805425634375,101.03481459754403 38.576613657642156,101.0471101696894 38.475584658561274,101.01022344885132 38.33414405985968,101.01022344885132 38.20280636113603,101.01022344885132 38.091674462135416,100.9856322941414 37.930028063594364,101.01022344885132 37.79869036487071,100.9979278722385 37.63704396632966,100.9856322941414 37.505706267547794,100.9979278722385 37.40467726846691,100.9856322941414 37.152104770822916,100.9979278722385 36.85912067355821,100.9856322941414 36.63685687555699,100.94874555098068 36.40449017775245,100.94874555098068 35.94985968194669,101.01022344885132 35.666978484601714,100.93644996695366 35.48512628627941,100.91185879438126 35.13152478955453,100.93644996695366 34.95977549115196,100.88726761590806 34.79812909261091,100.87497202445229 34.49504209548468,100.92415438140597 34.202057998103555,100.96104113353795 33.93938260059804,101.07170130945451 33.727221702516545,101.0471101696894 29.736576239520218,100.82578964360437 29.504209541657474,100.82578964360437 29.25163704395527,100.78890284239606 28.918241347069852,100.87497202445229 28.655565949506126,100.80119844429282 28.38278765202267,100.75201602774905 28.01908325543627,100.75201602774905 24.745743685693014,100.71512919973611 24.503274087968748,100.73972041987872 24.17998129100306,100.71512919973611 23.947614593140315,100.6782423582772 23.684939195518382,100.57987738229713 23.371749298472423,100.66594674147927 23.038353601528797,100.6782423582772 22.805986903666053,100.69053797356901 20.189335827890318,100.65365112321888 19.84583723108517,100.65365112321888 19.674087932682596,100.65365112321888 19.502338634280022,100.6782423582772 19.45182413473958,100.61676425947371 19.30028063611826,100.62905988219427 18.95678203931311,100.64135550346691 18.82544434053125,100.56758175361028 18.552666043047793,100.54299049178371 18.330402245162986,100.56758175361028 18.118241347081494,100.56758175361028 17.96669784846017,100.53069485861488 16.885687558504287,100.55528612343915 16.57249766140012,100.56758175361028 16.330028063617647,100.48151231106021 16.097661365754902,100.53069485861488 15.733956969168503,100.51839922393265 15.491487371386029,100.55528612343915 15.259120673581492,100.6044686352543 14.986342376098037,100.54299049178371 14.703461178694852,100.51839922393265 14.460991580912378,100.50610358781705 14.137698783888482,100.48151231106021 13.945743685704656,100.48151231106021 13.723479887819849,100.49380795016623 13.238540692254901,100.51839922393265 13.036482694151346,100.40773844510113 13.016276894311886,100.69053797356901 13.046585594012868,100.91185879438126 13.086997193691786,101.09629244329699 12.996071094530635,101.30531684050948 12.874836295668501,101.32990791778138 12.895042095449753,101.01022344885132 12.682881197426468,101.02251902394346 12.511131899023894,101.20695247190451 12.440411599643994,101.35449898911611 12.420205799862742,101.55122734527686 12.470720299344976,101.89550105160015 12.490926099184435,102.15370556553535 12.612160898104776,102.52256801809563 12.622263797966298,102.76847557556903 12.682881197426468,103.05126853058027 12.71318989712745,103.29717480795807 12.77380729658762,103.46930884784524" stroke="#4DD2FF" stroke-dasharray="none" stroke-linecap="round" stroke-linejoin="round" stroke-width="0.5"><title>2013-12-10 10.9km</title><desc>9223370650177580807</desc></polyline><polyline fill="none" opacity="1" points="99.30365165323019,123.60000000009313 102.0890450514853,110.89414529316127 102.0890450514853,103.27062141057104 101.39269670471549,90.56472984189168 97.91095495223999,80.39999999990687" stroke="#4DD2FF" stroke-dasharray="none" stroke-linecap="round" stroke-linejoin="round" stroke-width="0.5"><title>2013-11-30 10.3km</title><desc>9223370651086224807</desc></polyline><polyline fill="none" opacity="1" points="176.03152885008603,102.28061998845078 177.41518800146878,97.2312644557096 177.41518800146878,96.10918395733461 175.80091899074614,93.02345978678204 178.1070175776258,90.49877332313918 176.49274856690317,89.37668956816196 174.87847955711186,86.8519991368521 172.80299082957208,83.7662626572419 170.95811196044087,83.20521922083572 167.9601837983355,80.4000000001397 163.34798662550747,82.64417564729229 160.11944860499352,86.01043504965492 157.12152044288814,89.09616854530759 155.96847114898264,91.05981499678455 155.73786129057407,95.5481435037218 157.3521303012967,99.75594359473325 155.5072514321655,103.40269750310108 154.58481199666858,105.92736992868595 155.2766415728256,108.17152088950388 154.35420214012265,111.25722491787747 154.58481199666858,114.34292484284379 154.58481199666858,117.98965582833625 156.66030072513968,119.39224314200692 159.4276190288365,121.35586395906284 162.88676690869033,122.75844923895784 165.8846950698644,123.60000000009313 169.11323309037834,123.03896619309671 171.88055139407516,120.79482960957102 174.4172598393634,117.98965582833625 176.03152885008603,114.0624068370089 176.26213870756328,110.97670653951354 176.49274856690317,107.89100213861093 176.49274856690317,104.52477447572164 175.80091899074614,101.15854193037376 176.49274856690317,97.79230450256728 176.72335842624307,94.98710291530006 177.64579785987735,91.62085653445683 177.1845781430602,88.5351263966877 175.80091899074614,85.72991361888126 173.95604012254626,83.7662626572419 171.88055139407516,82.92469745082781 168.6520133735612,82.08313193893991 165.8846950698644,82.08313193893991 162.65615704935044,83.7662626572419 160.81127818115056,84.32730595883913 158.73578945267946,86.57147780805826 157.12152044288814,88.5351263966877 156.89091058447957,91.62085653445683 155.96847114898264,95.5481435037218 156.4296908667311,98.63386431708932 155.73786129057407,102.56113941781223 155.73786129057407,104.52477447572164 155.2766415728256,109.01307694031857 153.8929824223742,112.94033447606489 154.35420214012265,116.86758536635898 155.73786129057407,118.83120831870474" stroke="#4DD2FF" stroke-dasharray="none" stroke-linecap="round" stroke-linejoin="round" stroke-width="0.5"><title>2013-11-16 10.4km</title><desc>9223370652294258807</desc></polyline><polyline fill="none" opacity="1" points="45.34472524933517,146.4000913859345 45.837974173016846,143.1000844053924 45.59134971071035,138.90006917435676 45.837974173016846,135.90005394420587 44.60485186241567,132.6000330010429 40.41223600972444,129.90001260256395 36.712869081646204,129.00000514974818 33.013502151705325,129.00000514974818 29.06751076038927,130.50001738895662 26.354641679674387,132.30003087921068 25.121519369073212,136.50005727959797 23.395148135721684,141.30007874849252 23.395148135721684,144.30008745123632 23.148523674346507,147.0000921834726 22.40865028835833,151.20009370637126 22.655274749733508,155.10008875629865 22.40865028835833,158.10008077835664 22.655274749733508,163.20005889236927 23.64177259709686,165.60004496737383 26.108017217367887,167.7000308786519 30.793881993740797,171.60000000009313 34.73987338505685,171.60000000009313 38.43924031406641,170.40001015365124 40.65886047203094,169.20001972699538 43.37172955367714,165.90004306309856 44.111602938733995,163.20005889236927 43.86497847735882,159.000077677425 44.35822740197182,154.2000904425513 45.34472524933517,151.20009370637126 46.08459863439202,147.60009283619002 46.08459863439202,144.00008674431592 46.33122309669852,139.80007303715684 45.837974173016846,135.90005394420587 43.61835401598364,132.6000330010429 40.90548493433744,130.50001738895662 36.712869081646204,128.4000000001397 33.013502151705325,129.00000514974818 29.560759685002267,130.50001738895662 26.354641679674387,132.0000287219882 23.64177259709686,135.00004866719246 22.901899211108685,140.40007542981766 23.148523674346507,144.00008674431592 22.655274749733508,147.60009283619002 24.13502152170986,151.20009370637126 22.40865028835833,156.90008440450765 21.668776902370155,160.80007049744017 22.40865028835833,164.70005046087317 22.655274749733508,166.80003713420592 26.354641679674387,169.20001972699538 29.314135221764445,170.70000767009333 34.24662446137518,171.30000259238295 37.699366928078234,170.70000767009333 40.90548493433744,169.20001972699538 43.12510509137064,166.20004112226889 43.86497847735882,162.60006201080978 44.85147632472217,159.000077677425 45.34472524933517,155.4000881218817 45.59134971071035,152.10009310836904" stroke="#4DD2FF" stroke-dasharray="none" stroke-linecap="round" stroke-linejoin="round" stroke-width="0.5"><title>2013-11-03 10.7km</title><desc>9223370653417861807</desc></polyline><polyline fill="none" opacity="1" points="88.99068268667907,167.28003524802625 92.0685563441366,169.5840174248442 96.56698707398027,171.31200259411708 99.88162024319172,171.60000000009313 103.66977243684232,170.16001262003556 106.98440560605377,167.28003524802625 107.4579246295616,162.6720642137807 109.58876023907214,158.06408426584676 109.82551975175738,154.60809345706366 109.82551975175738,151.44009747868404 110.06227926257998,147.1200961722061 110.29903877526522,142.80008703446947 111.48283633589745,139.0560727783013 111.71959584858268,135.3120526385028 109.58876023907214,132.7200352489017 108.168203166686,130.41601742454804 105.09032951015979,128.9760051521007 101.30217731557786,128.4000000001397 97.51402512285858,129.2640076763928 94.19939195364714,129.84001261997037 88.99068268667907,133.8720433257986 88.28040415141732,135.0240508459974" stroke="#4DD2FF" stroke-dasharray="none" stroke-linecap="round" stroke-linejoin="round" stroke-width="0.5"><title>2013-11-02 10.5km</title><desc>9223370653505000807</desc></polyline><polyline fill="none" opacity="1" points="175.54437706060708,159.18008557590656 175.54437706060708,155.94009654247202 175.7663393188268,152.70010280935094 175.54437706060708,149.46010437584482 175.54437706060708,146.49010168295354 176.43222609069198,142.98009340977296 176.87615060433745,140.01008210144937 176.43222609069198,137.31006839242764 175.32241480425,134.34004954481497 173.99064126145095,132.72003759886138 170.4392451448366,130.56001984444447 167.7756980592385,128.4000000001397 165.3341132281348,129.48001018329524 162.0046793706715,130.8300221778918 159.78505679685622,132.45003549358808 158.67524551134557,135.69005860155448 158.2313209977001,138.12007284793071 157.7873964831233,141.63008875912055 156.45562293939292,144.33009724435396 156.01169842481613,146.76010209089145 156.23366068210453,150.81010429398157 157.7873964831233,154.32010026299395 154.90188713837415,155.13009854895063 155.12384939659387,156.21009580790997 154.45796262472868,157.56009164638817 154.90188713837415,163.23006525845267 160.22898131329566,166.20004569296725 165.77803774364293,167.55003549298272 167.1098112873733,167.55003549298272 169.10747160110623,167.55003549298272 171.77101868763566,168.3600289823953 173.99064126145095,164.0400603134185 174.6565280323848,162.96006684168242 174.8784902896732,160.5300796192605 175.54437706060708,159.18008557590656 173.54671674594283,158.91008666879497 174.8784902896732,158.10008975397795 176.2102638334036,155.94009654247202 175.9883015761152,150.81010429398157 176.2102638334036,149.46010437584482 175.7663393188268,146.2201012421865 176.2102638334036,142.1700907170307 175.7663393188268,136.7700652598869 175.32241480425,133.26004171161912 173.54671674594283,129.75001264712773 169.55139611661434,129.48001018329524 165.77803774364293,129.21000768686645 162.6705661425367,130.56001984444447 159.78505679685622,132.72003759886138 156.67758519575,133.26004171161912 156.45562293939292,137.58006991050206 156.23366068210453,140.55008445074782 156.01169842481613,144.0600965428166 154.90188713837415,147.57010311936028 155.34581165295094,151.62010385282338 155.12384939659387,155.13009854895063 154.90188713837415,159.18008557590656 154.90188713837415,161.61007426702417 158.45328325405717,165.66004954348318 164.00233968626708,168.63002674723975 166.44392451550812,169.98001507879235 169.32943385839462,171.60000000009313 173.32475448958576,167.82003335561603 175.1004525469616,162.69006839231588 175.54437706060708,159.7200832911767 175.54437706060708,158.6400877290871 175.1004525469616,153.24010209064 174.8784902896732,148.92010417976417 175.32241480425,146.2201012421865 175.54437706060708,142.98009340977296 177.09811286255717,138.93007700890303 175.7663393188268,135.96006031497382 174.43456577509642,134.34004954481497 172.88082997407764,130.8300221778918 170.21728288847953,130.02001507859677 166.0,129.75001264712773 162.0046793706715,130.56001984444447 159.78505679685622,130.8300221778918 156.89954745396972,132.72003759886138 154.90188713837415,135.69005860155448 154.67992488108575,138.39007426798344 155.34581165295094,139.7400808769744 154.23600036650896,142.71009254432283 154.67992488108575,145.95010076928884 154.90188713837415,147.57010311936028 154.45796262472868,150.27010442432947 154.90188713837415,153.78010124200955 154.67992488108575,157.02009340864606 154.90188713837415,161.34007565444335 157.5654342258349,166.20004569296725 161.7827171124518,168.63002674723975 163.11449065618217,168.3600289823953 166.0,169.98001507879235 167.99766031466424,169.1700221770443 171.1051319167018,171.33000259427354 173.32475448958576,168.63002674723975 174.8784902896732,162.42006990942173 173.99064126145095,158.37008875748143 175.1004525469616,151.35010403278284 174.8784902896732,147.0301024664659 174.8784902896732,145.68010026379488 176.43222609069198,142.98009340977296 177.76399963349104,140.82008557626978 177.09811286255717,136.7700652598869 175.32241480425,132.1800333559513 173.10279223136604,129.75001264712773 169.9953206302598,128.6700025945902 166.0,128.94000515691005 161.1168303405866,130.56001984444447 157.1215097112581,132.1800333559513 156.67758519575,133.53004371840507 155.56777391023934,134.61005142168142 155.78973616752774,137.04006684245542 156.01169842481613,138.6600756549742 156.23366068210453,142.1700907170307 156.23366068210453,143.5200950417202 156.23366068210453,147.84010339644738 156.01169842481613,149.19010429433547 155.12384939659387,151.62010385282338 155.78973616752774,155.13009854895063 154.90188713837415,156.21009580790997 155.12384939659387,161.07007700833492" stroke="#4DD2FF" stroke-dasharray="none" stroke-linecap="round" stroke-linejoin="round" stroke-width="0.5"><title>2013-10-26 11.1km</title><desc>9223370654110301807</desc></polyline><polyline fill="none" opacity="1" points="30.845802552998066,218.46316806343384 34.11682212725282,217.89475188939832 38.08877446874976,216.18950254260562 41.359794043935835,213.91583482245915 42.29437106475234,209.93691102182493 42.06072680931538,206.52639954793267 42.52801532112062,202.26325324806385 42.52801532112062,198.85273064253852 42.52801532112062,195.1579922370147 43.92988085281104,191.4632480267901 45.565390639938414,189.18955639493652 46.49996766168624,186.63165068160743 46.26632340531796,184.07374218595214 43.92988085281104,181.23161837016232 40.8925055321306,179.81055517448112 37.855130213312805,177.25263925665058 34.58411063905805,176.4000000001397 31.0794468075037,177.82106525660492 28.27571574319154,180.09476788225584 25.705628934316337,182.6526807071641 25.238340424373746,185.77901482582092 25.238340424373746,189.4737679695245 24.771051913499832,192.60009301709943 24.30376340262592,196.86325683817267 21.50003233831376,199.9895720607601 21.967320849187672,203.68430287321098 21.733676593750715,207.94744659680873 22.200965103693306,211.07374708005227 22.200965103693306,213.91583482245915 24.30376340262592,216.75791912851855 27.341138722375035,219.0315841003321 30.61215829756111,219.60000000009313 34.58411063905805,219.0315841003321 37.154197447001934,217.610543750925 40.8925055321306,215.90529419737868 41.82708255480975,213.6316262029577 43.462592341937125,210.22112008789554 43.92988085281104,206.81060902611353 43.92988085281104,203.1158831268549 44.39716936368495,199.70536175812595 45.0981021290645,195.4422030900605 45.33174638450146,192.0316705906298 45.79903489537537,189.18955639493652 45.565390639938414,185.49480280443095 44.63081361912191,181.80004340759479 42.52801532112062,179.24212965508923 39.4906400013715,178.10527820512652 35.98597617074847,177.53685227409005 32.48131234012544,177.53685227409005 29.21029276587069,178.95791684417054 25.705628934316337,181.23161837016232 24.30376340262592,184.07374218595214 25.004696168005466,188.33692146651447 23.602830636315048,191.74745932617225 23.36918638087809,194.58957042940892 23.36918638087809,198.28430972713977 21.733676593750715,201.69483315735124 22.200965103693306,206.52639954793267 21.967320849187672,209.3684927856084 23.36918638087809,212.21058258996345 24.30376340262592,215.90529419737868 25.238340424373746,217.610543750925 30.845802552998066,219.0315841003321 34.81775489356369,218.46316806343384 37.38784170243889,216.18950254260562 41.59343829844147,212.77900013769977 43.22894808650017,211.9263737637084 43.92988085281104,209.08428361662664 43.462592341937125,205.95798048726283" stroke="#4DD2FF" stroke-dasharray="none" stroke-linecap="round" stroke-linejoin="round" stroke-width="0.5"><title>2013-10-20 10.7km</title><desc>9223370654628121807</desc></polyline><polyline fill="none" opacity="1" points="101.33177354186773,176.39999999990687 100.14797483757138,180.36002608854324 100.14797483757138,184.32004691148177 99.2601258084178,188.64006362180226 98.96417613141239,194.0400756977033 97.48442775197327,198.36007830803283 98.0763271022588,202.32007519644685 96.59657872281969,207.36006362061016 99.85202516056597,210.6000516754575 101.03582386672497,214.92003026558086 103.40342127718031,219.60000000009313" stroke="#4DD2FF" stroke-dasharray="none" stroke-linecap="round" stroke-linejoin="round" stroke-width="0.5"><title>2013-10-19 10.2km</title><desc>9223370654714312807</desc></polyline><polyline fill="none" opacity="1" points="154.93230095412582,198.59187605278566 154.68905482254922,201.8466676226817 154.68905482254922,205.98912336095236 155.17554708756506,209.83568312670104 156.87827001698315,213.68223684793338 158.09450068231672,215.75345557858236 161.01345427706838,219.00822432828136 164.66214626841247,219.00822432828136 167.58109986409545,219.60000000009313 170.98654572386295,218.1205605531577 173.66225318517536,216.34523203712888 175.3649761164561,212.79457114078104 175.85146838147193,208.35623777774163 176.09471451491117,203.6220066549722 176.09471451491117,200.66310755256563 176.09471451491117,197.11242390889674 177.06769904587418,194.1535169375129 177.79743744432926,190.60282385186292 177.55419131275266,186.164450250566 175.3649761164561,179.95071368920617 172.68926865514368,177.87946466286667 167.8243459975347,176.4000000001397 164.90539240278304,176.6958930043038 161.98643880710006,179.35892843198963 159.31073134578764,181.4301762059331 158.58099294733256,184.38909855671227 157.12151614949107,189.12336687906645 155.6620393525809,193.56173511454836 155.6620393525809,197.11242390889674 154.20256255567074,200.66310755256563 154.44580868817866,204.50967568764463 154.68905482254922,207.76445938879624 154.20256255567074,211.31512758042663 156.14853161852807,215.4575672952924 158.8242390807718,218.1205605531577 161.49994654208422,218.41644851467572 166.60811533220112,219.00822432828136 169.52706892602146,217.52878452464938" stroke="#4DD2FF" stroke-dasharray="none" stroke-linecap="round" stroke-linejoin="round" stroke-width="0.5"><title>2013-10-12 10.6km</title><desc>9223370655320152807</desc></polyline><polyline fill="none" opacity="1" points="38.97194975428283,265.8720150399022 41.57630438823253,263.8560310017783 43.943899508565664,260.6880526384339 44.890937557443976,256.9440727783367 45.12769706826657,252.33608948835172 43.943899508565664,248.59209650335833 44.180659021250904,243.40809650346637 45.36445658095181,239.37608870584518 45.60121609363705,236.2080777916126 46.54825414158404,233.32806421397254 45.837975605390966,231.0240508459974 43.23362097237259,227.28002436971292 38.97194975428283,225.84001261997037 35.42055707331747,224.9760051521007 32.57944292854518,224.9760051521007 30.21184780728072,226.12801503995433 26.1869361018762,228.14403100241907 24.76637902855873,231.0240508459974 23.81934098061174,234.48007006268017 24.05610049236566,238.5120861462783 24.05610049236566,241.96809450211003 24.292860004119575,245.13609775714576 24.05610049236566,248.88009617221542 22.398783908225596,251.47209162986837 21.6885053711012,254.3520832741633 21.451745859347284,257.2320714369416 22.398783908225596,260.1120561193675 23.582581467926502,262.41604135814123 25.239898052997887,265.296019774396 28.317771709524095,266.7360076766927 31.632404879666865,266.7360076766927 36.6043546339497,267.60000000009313 39.68222829140723,264.72002436965704 41.57630438823253,262.1280433256179 43.943899508565664,258.3840657279361 44.180659021250904,254.3520832741633 44.180659021250904,250.89609288284555 45.36445658095181,247.15209763497114 46.07473511714488,243.69609680003487 45.837975605390966,240.52809162950143 45.837975605390966,237.93608426721767 46.31149462983012,234.48007006268017 45.60121609363705,231.6000543970149 44.65417804475874,229.00803732057102 43.23362097237259,226.12801503995433 40.155747315846384,224.4000000001397 36.6043546339497,224.4000000001397" stroke="#4DD2FF" stroke-dasharray="none" stroke-linecap="round" stroke-linejoin="round" stroke-width="0.5"><title>2013-10-06 10.6km</title><desc>9223370655838244807</desc></polyline><polyline fill="none" opacity="1" points="93.42761902883649,231.97408411232755 92.50517959613353,234.77929417719133 92.27456973679364,237.86502133100294 91.5827401606366,242.07282447465695 90.89091058447957,245.15854193037376 91.5827401606366,248.80529363360256 90.660300726071,251.89100213861093 90.19908100832254,255.53774326271378 89.27664157561958,258.3429248428438 89.27664157561958,260.3065499314107 90.19908100832254,263.3922431420069 91.8133500199765,265.6363810834009 95.96432747505605,266.75844923895784 99.19286549650133,267.60000000009313 102.19079365767539,266.75844923895784 105.18872181978077,266.47793225129135 107.26421054638922,264.23379512433894 108.64786969870329,261.98965582833625 109.57030913420022,258.0624068370089 109.33969927486032,254.97670653951354 110.26213870942593,251.04944568034261 110.26213870942593,247.40269750310108 110.03152885008603,243.75594359473325 109.80091899260879,238.98710291530006 110.26213870942593,235.62085653445683 110.95396828558296,234.21825243486091 110.26213870942593,231.41304169245996 107.95604012254626,228.88834912492894 104.9581119613722,226.0831319389399 102.88262323383242,225.2415661229752 99.65408521238714,225.80261003412306 96.19493733346462,225.80261003412306 94.35005846433342,226.6441756472923 93.19700917135924,229.72991361888126 91.5827401606366,232.5351263966877 91.35213030222803,235.62085653445683 90.660300726071,239.26762322615832 89.96847115084529,243.19490402424708 89.5072514321655,245.7195810272824 88.81542185787112,248.80529363360256 88.81542185787112,252.17152088950388 87.89298242330551,255.53774326271378 87.43176270555705,258.0624068370089 87.66237256396562,261.14810303226113 88.81542185787112,263.6727605035994 91.8133500199765,266.19741522870027 95.50310775730759,267.0389661930967 99.65408521238714,267.319483113708 103.34384294971824,266.75844923895784 105.8805513959378,264.794829609571 108.64786969870329,262.55069085536525 109.80091899260879,258.3429248428438 110.26213870942593,255.53774326271378 110.72335842624307,252.4520396075677 110.95396828558296,249.6468509058468 111.4151880024001,245.7195810272824 111.64579786174,243.4754238263704 111.87640772014856,240.3897041331511 112.10701757855713,237.5845008501783 112.3376274369657,234.49877332313918 111.64579786174,231.69356291904114 110.4927485678345,229.1688706574496 108.18664998188615,226.6441756472923 105.64994153752923,225.2415661229752 102.88262323383242,224.4000000001397 100.57652464695275,224.96104411478154 96.65615705028176,225.52208809531294 93.88883874751627,227.20521922083572 92.50517959613353,230.8519991368521 90.89091058447957,235.34033578261733 89.96847115084529,238.14554177806713 89.7378612915054,240.3897041331511 89.5072514321655,243.4754238263704 89.7378612915054,246.56113941781223 89.96847115084529,249.92736992868595 89.7378612915054,253.01307694031857 89.5072514321655,256.3792980927974 89.96847115084529,259.7455143611878 91.35213030222803,262.83120831870474 93.88883874751627,264.5143123844173 96.65615705028176,267.319483113708 100.57652464695275,267.319483113708 102.88262323383242,267.0389661930967 106.34177111368626,265.35586395906284 108.41725984029472,263.3922431420069 109.57030913420022,260.0260321632959 110.03152885008603,257.2208526181057 110.95396828558296,254.13515119976364 110.95396828558296,250.76892679347657 111.64579786174,247.96373605774716 111.64579786174,244.8780223308131 111.4151880024001,241.79230450256728 112.56823729537427,238.14554177806713 111.64579786174,235.34033578261733 110.72335842624307,231.97408411232755 110.03152885008603,229.44939215504564 107.49482040572912,227.7662626572419 104.26628238521516,226.0831319389399 101.26835422310978,226.6441756472923 97.11737676803023,226.9246974508278 94.11944860592484,228.88834912492894 92.7357894545421,230.8519991368521 90.660300726071,234.21825243486091 90.19908100832254,236.46241858764552 89.27664157561958,240.1091839573346" stroke="#4DD2FF" stroke-dasharray="none" stroke-linecap="round" stroke-linejoin="round" stroke-width="0.5"><title>2013-09-29 10.5km</title><desc>9223370656443428807</desc></polyline><polyline fill="none" opacity="1" points="166.00000000093132,224.94684059894644 163.30274038854986,226.5873616025783 160.83025241084397,228.22788141667843 159.7063942393288,232.055756355403 158.35776443313807,233.6962722032331 157.6834495300427,238.6178126083687 157.00913462694734,240.80516046099365 156.78436299227178,244.9064319843892 156.78436299227178,247.09377375710756 156.55959135852754,249.28111341316253 156.55959135852754,253.38236956926994 155.2109615523368,255.56970314332284 155.6605048207566,261.0380278278608 156.55959135852754,263.4987696236931 161.95411058235914,265.4126780577935 164.2018269263208,265.95950874197297 167.5734014417976,265.95950874197297 171.61929085943848,264.86584724183194 174.5413221064955,262.1316911787726 176.5642668157816,258.0304508882109 177.23858171794564,253.65578638156876 175.66518027801067,250.92161676776595 174.09177883714437,249.55453072185628 175.88995191268623,245.17984982184134 177.4633533526212,239.98490526387468 177.91289662197232,238.07097531366162 177.23858171794564,235.06336783478037 178.36243989039212,231.235497985268 175.66518027801067,228.50130126997828 172.9679206656292,225.49368106527254 171.16974759101868,224.94684059894644 165.77522836625576,225.49368106527254 164.2018269263208,225.76710125035606 161.27979567926377,228.22788141667843 158.80730770155787,230.41523931804113 158.1329927984625,232.87601442844607 157.6834495300427,236.43046263838187 156.55959135852754,241.07857879367657 157.00913462694734,244.35959621169604 157.23390626069158,246.54693851224147 156.55959135852754,250.92161676776595 157.00913462694734,254.20261990698054 155.6605048207566,258.3038671386894 156.33481972385198,261.5848595700227 156.55959135852754,263.4987696236931 160.38070914242417,264.86584724183194 163.97705529164523,267.3265848727897 166.22477163467556,266.77975451922975 169.14680288173258,265.95950874197297 172.0688341287896,264.86584724183194 174.9908653749153,261.5848595700227 175.21563700959086,259.3975318111479 175.88995191268623,256.66336913825944 176.78903844952583,253.92920316033997 177.91289662197232,250.92161676776595 177.0138100842014,247.3671913293656 175.88995191268623,243.53934230282903 176.11472354643047,240.5317420954816 176.5642668157816,237.25071912514977 177.68812498729676,236.43046263838187 178.58721152413636,232.87601442844607 177.23858171794564,230.14181969570927 178.36243989039212,230.41523931804113 177.91289662197232,227.68104161159135 174.76609374023974,226.31394151831046 171.39451922569424,225.22026084875688 168.24771634489298,224.6734203158412 164.2018269263208,225.76710125035606 161.0550240445882,228.22788141667843 158.35776443313807,230.14181969570927 158.1329927984625,233.42285297834314 155.88527645543218,237.25071912514977 154.53664664924145,241.62541536078788 156.11004808917642,241.62541536078788 156.78436299227178,243.2659242679365 156.33481972385198,246.8203561506234 155.6605048207566,250.92161676776595 153.41278847679496,253.10895272321068 155.43573318701237,256.11653620772995 155.6605048207566,258.57728335657157 157.23390626069158,262.9519383441657 159.256850970909,265.4126780577935 161.95411058235914,266.23292403365485 165.77522836625576,266.23292403365485 169.37157451640815,267.60000000009313 172.9679206656292,266.23292403365485 174.09177883714437,264.0456007702742 174.31655047181994,260.49119595531374 175.66518027801067,259.3975318111479 175.88995191268623,255.29628656315617 177.91289662197232,248.73427869705483 177.91289662197232,244.08617827459238 175.88995191268623,241.35199709353037 176.5642668157816,238.07097531366162 177.0138100842014,235.61020585522056 177.4633533526212,232.055756355403 177.23858171794564,230.14181969570927 175.66518027801067,227.1342016728595 172.0688341287896,225.76710125035606 168.69725961331278,224.4000000001397" stroke="#4DD2FF" stroke-dasharray="none" stroke-linecap="round" stroke-linejoin="round" stroke-width="0.5"><title>2013-09-22 10.9km</title><desc>9223370657048162807</desc></polyline></svg>