<?xml version="1.0" encoding="utf-8" ?>
<svg baseProfile="full" height="300mm" version="1.1" viewBox="0,0,200,300" width="200mm" xmlns="http://www.w3.org/2000/svg" xmlns:ev="http://www.w3.org/2001/xml-events" xmlns:xlink="http://www.w3.org/1999/xlink"><defs /><rect fill="#222222" height="300" width="200" x="0" y="0" /><text fill="#FFFFFF" style="font-size:12px; font-family:Arial; font-weight:bold;" x="10" y="20">Over 10km Runs</text><text fill="#FFFFFF" style="font-size:4px; font-family:Arial" x="10" y="280">Runner</text><text fill="#FFFFFF" style="font-size:9px; font-family:Arial" x="10" y="290">keep</text><text fill="#FFFFFF" style="font-size:4px; font-family:Arial" x="65" y="280">SPECIAL TRACKS</text><rect fill="yellow" height="2.6" width="2.6" x="65" y="283" /><text fill="#FFFFFF" style="font-size:3px; font-family:Arial" x="70" y="285.5">Over 20.0 km</text><rect fill="red" height="2.6" width="2.6" x="65" y="287" /><text fill="#FFFFFF" style="font-size:3px; font-family:Arial" x="70" y="289.5">Over 40.0 km</text><text fill="#FFFFFF" style="font-size:4px; font-family:Arial" x="120" y="280">STATISTICS</text><text fill="#FFFFFF" style="font-size:3px; font-family:Arial" x="120" y="285">Number: 15</text><text fill="#FFFFFF" style="font-size:3px; font-family:Arial" x="120" y="290">Weekly: 1.2</text><text fill="#FFFFFF" style="font-size:3px; font-family:Arial" x="141" y="285">Total: 163.6 km</text><text fill="#FFFFFF" style="font-size:3px; font-family:Arial" x="141" y="290">Avg: 10.9 km</text><text fill="#FFFFFF" style="font-size:3px; font-family:Arial" x="167" y="285">Min: 10.2 km</text><text fill="#FFFFFF" style="font-size:3px; font-family:Arial" x="167" y="290">Max: 14.0 km</text><polyline fill="none" opacity="1" points="26.476211946632247,75.59999999999854 26.45866375294281,75.30184153495065 26.520082430914044,74.9263811997007 26.537630624661688,74.63926332383562 26.520082430914044,74.31901528762683 26.511308334069327,74.00980911168881 26.520082430914044,73.72268805713975 26.537630624661688,73.3472205602011 26.546404721448198,73.07114043202455 26.599049302574713,72.79505938311195 26.783305336604826,72.65149687383382 27.064076435926836,72.62941031185619 27.169365598238073,72.54106400500314 27.195687888772227,72.36437110845145 27.22201017930638,72.14350445742457 27.239558373054024,71.85637693015451 27.17813969508279,71.51403126920195 26.90614269254729,71.37046653846483 26.765757142857183,71.1275102730433 26.83594991773134,70.71890040059952 26.871046305110212,70.43176793225575 26.932464983139653,70.07837275793281 26.967561370576732,69.7581070780725 27.02020595164504,69.43784015918936 27.037754145392682,69.16174699326803 27.090398726519197,69.0071344181415 27.169365598238073,68.85252155423223 27.160591501393355,68.67582078473788 27.15181740449043,68.60955789891159 27.213236082461663,68.39972507727362 27.274654760432895,68.15676009301387 27.344847535307053,67.8696187376263 27.42381440702593,67.57143242974416 27.511555375589523,67.2180250443198 27.581748150405474,66.95296851506282 27.70458550634794,66.68791113713087 27.880067443475127,66.70999928435776 28.07309757429175,66.7983518143883 28.30999818939017,66.68791113713087 28.55567290133331,66.51120574694505 28.643413869896904,66.24614695444325 28.801347613276448,65.94795479832828 28.950507259811275,65.63871735368593 29.117215100035537,65.35156726348941 29.27514884347329,65.07546046816424 29.433082586852834,64.79935275181924 29.591016330232378,64.47906664700713 29.748950073611923,64.18086812498223 29.959528398117982,63.794312886435364 30.178880819526967,63.41880035465874 30.39823324093595,63.010152428505535 30.57371517800493,62.722993219322234 30.766745308879763,62.40269907993934 30.95100134279346,62.115537763311295 31.082612795638852,61.916733191254025 31.25809473276604,61.640614937881764 31.45989896042738,61.32031660997018 31.591510413272772,61.00001704254828 31.714347769215237,60.72389573092369 31.8810556094395,60.40359385545162 32.11795622453792,60.13851550382242 32.37240503332578,59.96179613110144 32.574209261045326,59.6856713557936 32.723368907521944,59.43163574892242 32.8374321666779,59.332230299194634 32.94272132893093,59.111328872349986 33.04801049124217,58.868336621853814 33.1094291692134,58.69161453701963 33.31123339687474,58.6032533530888 33.477941237099,58.59220819845359 33.58323039935203,58.52593723978498 33.706067755352706,58.3823499805585 33.86400149879046,58.20562685800542 34.057031629548874,57.96263194835046 34.258835857210215,57.708591052702104 34.32902863208437,57.52082119384431 34.28515814774437,57.2115522623717 34.30270634149201,56.90228217517142 34.45186598802684,56.68137426244357 34.64489611884346,56.46046576005756 34.82037805597065,56.22851119794359 34.943215411913116,55.87505537695688 35.09237505850615,55.609962520582485 35.36437206098344,55.32277763456659 35.61004677292658,55.079774260339036 35.73288412892725,54.84781582837604 35.864495581772644,54.52749121067609 36.004881131404545,54.20716535302199 36.24178174656117,53.986250246052805 36.54010103963083,53.95311292914994 36.70680887985509,53.71010553306405 36.81209804210812,53.40082236048329 36.88229081692407,53.11362980812555 36.9437094948953,52.815390333395044 37.01390226976946,52.45087396023155 37.11041733517777,52.108448025806865 37.171836013149004,51.89857336565183 37.20693240058608,51.699744249199284 37.268351078557316,51.379407445696415 37.338543853431474,51.036977077499614 37.42628482193686,50.66140665725834 37.5315739842481,50.26374200145074 37.58421856537461,49.89921438813326 37.66318543709349,49.55677789463516 37.750926405598875,49.236432795223664 37.83866737416247,48.84980774775613 37.891311955288984,48.49632040925644 37.96150473016314,48.12073845749546 38.04924569866853,47.75620140341198 38.11943847354269,47.402709393019904 38.189631248416845,47.1044493345762 38.26859812007751,46.739907803115784 38.31246860435931,46.44164535552409 38.400209572922904,46.16547546393849 38.42653186345706,46.04396041961445 38.470402347738855,45.77883606708929 38.54059512261301,45.425335608946625 38.61078789742896,45.0497397173167 38.69852886599256,44.70728315370798 38.75994754396379,44.364825172611745 38.76872164080851,44.29854281900043 38.80381802824559,44.05550706817303 38.86523670621682,43.72409353016701 38.944203577935696,43.348489915646496 39.014396352751646,43.00602631040965 39.07581503072288,42.72984495107812 39.13723370875232,42.542041100117785 39.18110419297591,42.387378785140754 39.216200580471195,42.26585819196771 39.26884516159771,42.13329006858112 39.216200580471195,41.95653224029229 39.23374877416063,41.680347377608996 39.26884516159771,41.41520904203935 39.34781203325838,41.17216482133517 39.391682517540175,41.006452443303715 39.61103493894916,41.02854744621436 39.90935423201881,41.13902237226284 40.19889942824375,41.238449679607584 40.43580004334217,41.30473448478733 40.51476691500284,41.08378492770862 40.5410892055952,40.87388230191573 40.523541011847556,40.586646266805474 40.53231510869227,40.22207601690752 40.558637399284635,39.81331352322741 40.620056077314075,39.49293069745909 40.57618559297407,39.23883309133089 40.42702594649745,39.11730787342094 40.12870665336959,39.17254663093627 39.8128391666105,39.23883309133089 39.69000181060983,39.150451132358285 39.733872294891626,38.819017945257656 39.804065069707576,38.49863126890705 39.86548374773702,38.18929123167618 39.944450619397685,37.82471041708777 40.03219158796128,37.46012799582968 40.076062072243076,37.15078407531837 40.12870665336959,36.84143899807532 40.16380304080667,36.554188962029 40.19889942824375,36.32217858933291 40.146254847059026,36.18960094139766 40.251544009370264,36.09016756599158 40.44457414018689,35.979685897618765 40.53231510869227,35.836059508095786 40.38315546215745,35.72557750032138 40.36560726846801,35.570902441562794 40.38315546215745,35.40517884340079 40.51476691500284,35.39413059170329 40.690248852130026,35.42727534232108 40.86573078925721,35.40517884340079 40.98856814519968,35.43832358955842 41.15527598542394,35.38308233854332 41.348306116240565,35.34993757021584 41.383402503677644,35.117923820071155 41.42727298795944,34.675991067197174 41.47114347224124,34.27824957098346 41.50623985962011,33.99099063436006 41.50623985962011,33.73687612810318 41.523788053309545,33.5601003590491 41.550110343960114,33.36122716725367 41.42727298795944,33.25074185410631 41.2254687602981,33.22864477377152 41.032438629481476,33.19549914220261 40.84818259550957,33.09606216778775 40.60250788356643,33.06291648308979 40.312962687341496,32.99662507384346 39.970772909990046,32.9413821922426 39.69877590745455,32.86404209599277 39.34781203325838,32.79775052735931 39.014396352751646,32.70936168656044 38.80381802824559,32.56572961880738 38.6283360911184,32.58782687626808 38.330016798048746,32.56572961880738 38.00537521438673,32.55468098790152 37.72460411506472,32.53258372164419 37.39118843455799,32.51048644943512 37.092869141488336,32.455243243188306 36.78577575151576,32.4441945974977 36.49623055529082,32.42209730169998 36.487456458446104,32.433145950322796 36.42603778047487,32.62097275132692 36.35584500560071,32.8198477228143 36.311974521377124,33.02977078510594 36.28565223078476,33.261790392076364 36.25932994025061,33.4606638229161 36.20668535906589,33.67058525898028 36.1189443905605,33.83631233222695 36.01365522830747,34.01308751104807 35.95223655027803,34.200910724648566 35.899591969151516,34.35558834501717 35.81185100058792,34.55445914624579 35.73288412892725,34.72018444873538 35.64514316036366,34.919054373422114 35.557402191800065,35.106875530029356 35.452113029547036,35.19526180908724 35.37314615782816,35.49356480373535 35.26785699557513,35.79186672269134 35.13624554278795,36.07911940578197 34.98708589625312,36.42161168590974 34.82915215281537,36.74200640615163 34.68876660312526,37.0513518552325 34.55715515027987,37.32755217149679 34.41676960058976,37.62584747738583 34.26760995411314,37.93518962147209 34.10967621067539,38.233482736388396 33.986838854674716,38.50967910597683 33.89909788616933,38.69749211062299 33.8376792081981,38.79692235222319 33.767486433382146,38.874256901966874 33.679745464760344,39.03997355084721 33.66219727107091,39.3161672279748 33.51303762453608,39.603407674090704 33.37265207484597,39.846456503350055 33.28491110628238,40.067409364899504 33.28491110628238,40.188933187237126 33.48671533400193,40.25521883327019 33.80258282076102,40.25521883327019 34.13599850126775,40.29940923446702 34.44309189112391,40.34359961204609 34.78528166853357,40.38778996602923 35.12747144588502,40.43198029638734 35.425790738954674,40.48721817614569 35.724110032082535,40.52036088633031 35.899591969151516,40.49826574769395 35.97855884087039,40.28836163636879 36.031203421996906,40.07845699250902 36.01365522830747,39.93483771882893 36.1189443905605,39.95693300790299 36.21545945596881,40.10055224326061 36.20668535906589,40.398837550819735 36.12771848740522,40.77445455647103 36.05752571253106,41.13902237226284 35.98733293771511,41.49254114434734 35.92591425968567,41.85710579593433 35.83817329118028,42.23271618103172 35.77675461315084,42.553088397289685 35.724110032082535,42.82927034664317 35.64514316036366,43.12754581646004 35.689013644645456,43.458961743992404 35.531079901207704,43.746187807337265 35.39946844836231,44.02236577409349 35.320501576701645,44.29854281900043 35.250308801885694,44.60786001487577 35.24153470498277,44.86194113215606 35.33804977044929,45.071833640489785 35.39946844836231,45.336960258413455 35.31172747985693,45.690461094127386 35.24153470498277,46.08814772911137 35.15379373647738,46.474785680606146 35.09237505850615,46.85037510345137 35.048504574166145,47.21491614824481 35.039730477379635,47.54631570438505 35.03095638047671,47.877713933223276 35.039730477379635,48.22015737534093 35.013408186787274,48.58469238546968 35.004634089942556,48.91608645558881 34.978311799350195,49.26957200092875 34.96076360566076,49.57887061436486 34.908119024534244,49.91026070302905 34.85547444340773,50.26374200145074 34.767733474844135,50.60617556934449 34.80282986222301,50.91546918688255 34.77650757168885,51.26894619142695 34.71508889365941,51.61137559969211 34.565929247182794,51.96484963160765 34.390447310055606,52.20786215271073 34.13599850126775,52.439827984453586 33.872775595635176,52.64970127189736 33.65342317422619,52.85957402710483 33.398974365438335,53.080492141787545 33.27613700943766,53.268272075554705 33.17084784718463,53.41186820799339 33.03923639439745,53.57755574348266 32.925173135241494,53.7763803482012 32.8374321666779,54.08566211719881 32.679498423298355,54.417034158432216 32.50401648617117,54.73735920370382 32.32853454904398,55.0466373813033 32.21447129000444,55.27859525597887 32.205697193101514,55.554734735284 32.32853454904398,55.69832690041949 32.37240503332578,55.952373966800224 32.24956767738331,56.22851119794359 32.28466406482039,56.37210219401459 32.232019483693875,56.28373853359517 32.09163393400377,56.42732943386363 31.8810556094395,56.736601295931905 31.688025478622876,57.00169054351136 31.45989896042738,57.23364293866325 31.284417023300193,57.509775894774066 31.214224248426035,57.76381740069337 31.065064601949416,58.039948587895196 30.95100134279346,58.17249123050715 30.71410072769504,58.15040080482868 30.47720011259662,58.15040080482868 30.187654916371685,58.084129492352076 29.880561526457313,58.084129492352076 29.591016330232378,58.095174714777386 29.433082586852834,58.1172651552406 29.319019327755086,58.1172651552406 29.257600649783853,58.282943270554824 29.117215100035537,58.50384690841747 29.047022325219586,58.74684022907604 29.00315184093779,59.01192303793505 28.853992194402963,59.26595993306546 28.8276699038106,59.38745556377398 28.722380741557572,59.49790598241816 28.48548012651736,59.71880637748836 28.28367589879781,59.92866120672261 28.266127705108374,60.12747055406362 28.34509457682725,60.27105478573503 28.4152873516432,60.392548941068526 28.45038373908028,60.624491833281354 28.494254223362077,60.86747892792482 28.48548012651736,60.86747892792482 28.30999818939017,60.80120979104686 28.125742155418266,61.06628602026467" stroke="#4DD2FF" stroke-dasharray="none" stroke-linecap="round" stroke-linejoin="round" stroke-width="0.5"><title>2017-12-17 14.0km</title><desc>9223370523376934807</desc></polyline><polyline fill="none" opacity="1" points="100.59699292678852,32.40000000000873 100.51369158813031,32.73195885773748 100.45815736235818,32.94161665032152 100.61087648320245,33.15127410746936 100.56922581390245,33.95495791894791 100.6802942653303,34.25197025395755 100.8052462732885,34.54898191576649 100.84689694264671,34.8634641180106 100.8885476119467,35.247830229083775 100.90243116836064,35.61472410157148 100.9301982811885,35.98161694675218 100.98573250696063,36.33103774904157 101.09680095844669,36.62804469841649 101.13845162774669,36.94252191108535 101.1801022971049,37.239527474477654 101.20786941004917,37.57147407223238 101.37447208724916,37.67629913886776 101.58272543374915,37.79859494409175 101.59660899022128,37.973303039194434 101.45777342590736,38.09559856720443 101.3050543050631,38.25283550686436 101.38835564366309,38.49742592695111 101.52719120803522,38.82936933831661 101.66602677240735,39.16131190882879 101.7354445545352,39.45831244337023 101.8603965624934,39.772782863889006 102.01311568327947,40.08725252984732 102.1936019169516,40.40172144109965 102.2769032556098,40.69871916437114 102.04088279610733,40.85595298066619 101.77709522389341,40.733660028738086 101.56884187727701,40.57642606571608 101.31893786153523,40.40172144109965 101.11068451491883,40.489073782475316 100.86078049906064,40.506544243806275 100.62476003961638,40.593896515347296 100.61087648320245,40.83848256593046 100.62476003961638,41.10053854214493 100.38873958023032,41.257771876305924 100.13883556437213,41.3451236471592 99.84728087921394,41.43247535973205 99.55572619399754,41.44994569521805 99.50019196828362,41.22283115173923 99.55572619399754,40.97824581846362 99.65291108912788,40.62883740766847 99.75009598414181,40.3493100082851 99.80563020991394,39.964958860509796 99.86116443562787,39.563136000724626 99.81951376632787,39.266135703772306 99.76397954055574,38.84684002085123 99.59737686329754,38.637191676330986 99.27805506531149,38.672133090381976 99.05591816233937,38.51489665379631 99.01426749298116,38.37513077395852 98.9865003800951,38.14801090135006 98.9865003800951,37.92089063512685 98.8615483721951,37.816065764054656 98.68106213846477,37.79859494409175 98.48669234837871,37.781124121756875 98.38950745336479,37.86847821010451 98.41727456619265,38.16548167477595 98.43115812266478,38.49742592695111 98.43115812266478,38.82936933831661 98.45892523555085,39.14384126816003 98.47280879202299,39.493253638458555 98.47280879202299,39.86013562459266 98.47280879202299,40.17460508088698 98.47280879202299,40.489073782475316 98.47280879202299,40.78607130781165 98.48669234837871,41.10053854214493 98.50057590485085,41.43247535973205 98.51445946126478,41.677059845169424 98.50057590485085,41.904173601506045 98.48669234837871,42.113816719531314 98.47280879202299,42.39334035523643 98.44504167913692,42.63792304736853 98.43115812266478,42.79515453692875 98.40339100972051,43.05720660042425 98.37562389689265,43.28431796490622 98.37562389689265,43.528898994176416 98.37562389689265,43.79094959044596 98.37562389689265,44.10540961426159 98.37562389689265,44.45480875580688 98.36174034047872,44.78673707737471 98.37562389689265,45.101194711838616 98.37562389689265,45.41565159180027 98.40339100972051,45.73010771718691 98.41727456619265,46.07950252716546 98.40339100972051,46.34154802329431 98.40339100972051,46.65600192709826 98.37562389689265,46.90057666398934 98.38950745336479,47.14515094444505 98.33397322759265,47.40719430985337 98.38950745336479,47.68670665546961 98.43115812266478,47.94874893811357 98.47280879202299,48.26319898564543 98.51445946126478,48.57764827873325 98.55611013056478,48.96197416794894 98.65329502563691,49.34629893011879 98.75047992065083,49.71315333362145 98.8615483721951,49.95772236547782 98.97261682368116,50.28963675018167 99.08368527516723,50.604081181343645 99.20863728312543,50.86611763102701 99.27805506531149,50.988401128241094 99.36135640391149,51.215498749006656 99.48630841186969,51.46006497742201 99.54184263764182,51.72209971569828 99.58349330688361,51.86185136194399 99.68067820195574,52.03654071019264 99.8333973227418,52.1588231153728 99.9166986613418,52.35098095025751 100.0416506693,52.50820078737161 100.1666026772582,52.71782694356807 100.26378757227212,52.92745276448841 100.45815736235818,53.11960947240004 100.65252715256065,53.34670340042794 100.83301338617457,53.60873436683323 101.0134996199049,53.870764809529646 101.1801022971049,54.11532608332345 101.24952007929096,54.23760654908256 101.36058853077702,54.48216713841248 101.54107476444915,54.76166439600638 101.70767744170735,54.97128694805724 101.9020472317934,55.3031886365352 102.04088279610733,55.512810322557925 102.20748547342373,55.80977380389231 102.37408815068193,56.08926823048387 102.52680727146799,56.351293714149506 102.73506061802618,56.68319190815964 102.90166329528438,56.96268447235343 103.09603308537044,57.25964466878213 103.2904028755147,57.55660419238848 103.47088910912862,57.85356304325978 103.67914245568682,58.20292553589388 103.84574513294501,58.46494679423631 104.06788203591714,58.796839636270306 104.2206011567032,59.058859707423835 104.3455531646614,59.28594334538502 104.5121558419196,59.53049451558036 104.67875851917779,59.809981008511386 104.85924475284992,60.089466905541485 104.99808031722205,60.31654875808454 105.16468299448024,60.578565791409346 105.3590527845081,60.840582300996175 105.55342257471057,61.12006600055611 105.70614169549663,61.39954910428787 105.84497725981055,61.66156397278246 106.02546349354088,61.99344872107031 106.21983328356873,62.30786507591256 106.38643596088514,62.587345647087204 106.56692219449906,62.90176057739882 106.80294265394332,63.251109615463065 106.98342888761545,63.53058817557758 107.13614800845971,63.757664066914 107.3027506856015,64.05460886978835 107.48323691933183,64.35155299994221 107.66372315300396,64.68343093762815 107.85809294314822,65.0153080351738 108.01081206393428,65.3122499891033 108.16353118477855,65.62665838368412 108.31625030556461,65.95853309323138 108.42731875705067,66.2729399378004 108.51062009565067,66.62227999168681 108.55227076495066,66.81441662454745 108.44120231352281,66.95415218062408 108.38566808769247,67.07642067006964 108.46896942635067,66.98908604637836 108.60780499066459,66.9716191146872 108.70498988573672,67.19868904542818 108.78829122439492,67.47815918939887 108.89935967588099,67.77509556466248 109.02431168378098,68.10696483515494 109.14926369173918,68.45630000170786 109.26033214322524,68.80563423737476 109.35751703829737,69.06763430323917 109.4547019333113,69.36456707818434 109.5796539412695,69.66149918053998 109.69072239275556,69.94096407436882 109.80179084424162,70.2204283723695 109.88509218284162,70.46495914441766 109.94062640861375,70.70948946036515 110.02392774727196,71.00641851656837 110.13499619875802,71.30334690018208 110.24606465024408,71.63520723901456 110.34324954531621,71.93213419853419 110.44043444033014,72.21159425191581 110.5515028918162,72.54345229164755 110.6348042304162,72.787978730732 110.77363979484653,73.11983531144506 110.8847082463326,73.39929283308447 110.99577669776045,73.69621579720115 111.12072870571865,74.01060408502235 111.23179715720471,74.27259374894493 111.32898205233505,74.51711696296115 111.41228339093504,74.76163972086215 111.55111895524897,74.9886961591692 111.6066531810211,75.11095715536794 111.6483038503793,75.28561552356405 111.6066531810211,75.53013684821781 111.4400505037629,75.56506842872477 111.27344782650471,75.35547880570812 111.10684514924651,75.12842300263583 110.8847082463326,74.81403739535017 110.6348042304162,74.51711696296115 110.34324954531621,74.18526391913474 110.05169486009981,73.95820608938811 109.81567440071376,73.69621579720115 109.5380032719695,73.43422498145082 109.31586636899738,73.15476753418625 109.07984590955311,72.94517405788065 108.80217478086706,72.68318174123124 108.53838720847853,72.42118890106212 108.26071607973427,72.159195537286 108.01081206393428,71.89720164994651 107.74702449166216,71.63520723901456 107.4693533629179,71.4081449926889 107.1777986777015,71.19854872395808 106.87236043612938,71.05881769194093 106.51138796878513,70.95401932018285 106.15041550144088,70.88415369251743 105.81721014692448,70.8492208647076 105.4840047924663,70.76188875448133 105.17856655083597,70.69202302435588 104.84536119637778,70.62215725703572 104.5121558419196,70.56975790711294 104.1789504874032,70.53482499552774 103.77632735081716,70.41255973167426 103.54030689131469,70.34269381541526 103.3737042141147,70.30776084325043 103.17933442402864,70.27282786190335 102.97108107747044,70.2204283723695 102.74894417444011,70.20296187122585 102.55457438435405,70.16802886182268 102.36020459420979,70.13309584320814 102.16583480406553,70.09816281529493 101.94369790115161,70.04576325589733 101.7354445545352,69.99336367558863 101.52719120803522,69.92349753592862 101.34670497436309,69.87109790675458 100.9718489505467,69.69643232486851 100.62476003961638,69.55669969182054 100.2499040159164,69.43443351572205 100.0,69.38203369107214 99.65291108912788,69.27723397890804 99.31970573455328,69.17243418293947 98.95873326720903,69.06763430323917 98.59776079998119,68.96283433971985 98.22290477610659,68.85803429242515 97.95911720377626,68.75323416134052 97.52872695430415,68.68336736080528 97.16775448690169,68.50870019639842 96.86231624527136,68.40389978604799 96.65406289877137,68.334032799321 96.36250821361318,68.21176548289077 96.01541930268286,68.12443161557894 95.69609750469681,67.94976370649238 95.34900859370828,67.74016190838302 95.02968679566402,67.53055977509939 94.7242485540337,67.26855663726747 94.48822809470585,66.9716191146872 94.26609119167551,66.67468091941555 94.19667340948945,66.43014307723206 94.09948851441732,66.20307181522367 93.96065294998698,65.97600015992066 93.83570094208699,65.76639520592289 93.69686537771486,65.55678991676541 93.55802981340094,65.24238135459018 93.37754357972881,64.91050483196159 93.19705734605668,64.5436929610587 93.03045466879848,64.14194544842758 92.8222013222985,63.74019670460257 92.6139479756821,63.30351189087378 92.43346174206818,62.98909792418999 92.28074262122391,62.657215696774074 92.11413994396571,62.290397520395345 91.93365371035179,61.87117549053801 91.73928392020753,61.451952119823545 91.53103057364933,61.050195131552755 91.33666078356327,60.63096913517802 91.14229099341901,60.24667746076011 90.93403764686082,59.862384659587406 90.76743496960262,59.46062279921898 90.57306517951656,59.058859707423835 90.4203460587305,58.726967528869864 90.23985982505837,58.325202188279945 90.07325714780018,58.01077628019266 89.94830513990019,57.766222274600295 89.86500380124198,57.434326823015 89.71228468045592,57.03255752027326 89.61509978532558,56.64825529574591 89.531798446842,56.22901522026223 89.46238066453952,55.91458428367332 89.42072999529773,55.565215691691265 89.3651957695838,55.128503642146825 89.33742865669774,54.77913295484905 89.29577798733953,54.34241828613449 89.2402437616256,53.99304550346278 89.19859309232561,53.62620307934412 89.21247664873954,53.25935962845688 89.17082597943954,52.85757752804784 89.18470953585347,52.490731925921864 89.21247664873954,52.14135420732782 89.19859309232561,51.77450660051545 89.19859309232561,51.40765796689084 89.10140819731168,50.988401128241094 89.04587397153955,50.604081181343645 89.01810685859527,50.18482177211263 88.9903397457092,49.85290712196729 88.97645618935348,49.4511145787983 88.93480551999528,49.154136689874576 88.86538773780921,48.8222194295231 88.87927129428135,48.36801550052769 88.96257263288135,48.00115733173152 88.9903397457092,47.5993591114966 88.9903397457092,47.35478567868995 89.00422330218134,47.09274220846419 89.03199041512562,46.970455076385406 88.97645618935348,46.69094120316731 88.93480551999528,46.35901770439523 88.90703840710921,46.009623639678466 88.87927129428135,45.6602286434063 88.86538773780921,45.380711975711165 88.82373706850922,44.978905721436604 88.74043572990922,44.559628316623275 88.72655217349529,44.15781954486738 88.69878506060923,43.738539513084106 88.67101794766495,43.45901874669653 88.62936727836495,43.05720660042425 88.57383305270923,42.74274406141194 88.57383305270923,42.51563175836054 88.58771660912316,42.14875720658165 88.58771660912316,41.79935191672121 88.57383305270923,41.44994569521805 88.53218238335103,41.152949674476986 88.4766481576371,40.78607130781165 88.44888104475103,40.43666238462902 88.46276460116496,40.05231149311294 88.49053171405103,39.7378417433647 88.44888104475103,39.336018187124864 88.39334681892069,39.00407605919463 88.36557970609283,38.61972096582758 88.36557970609283,38.30524777820392 88.39334681892069,38.18295244588808 88.40723037539283,37.95583224017173 88.36557970609283,37.711240809221636" stroke="#4DD2FF" stroke-dasharray="none" stroke-linecap="round" stroke-linejoin="round" stroke-width="0.5"><title>2017-11-19 11.8km</title><desc>9223370525802103807</desc></polyline><polyline fill="none" opacity="0.5" points="176.79884277796373,74.15260749531444 175.39029806759208,74.15260749531444 174.0756563381292,73.92993153934367 172.94882057001814,74.26394545444055 170.97685797605664,73.37324143352453 169.38050730433315,73.15056530456059 167.87805961351842,73.039227221685 166.18780596135184,73.15056530456059 165.53048509685323,73.2619033754454 163.7463284637779,73.70725553407101 161.4926569275558,72.70521289831959 159.89630625629798,71.36915449029766 158.48776154592633,71.70316925924271 156.89141087420285,71.1464779159287 155.48286616476253,70.92380129144294 154.35603039665148,71.1464779159287 153.22919462807477,70.81246296095196 152.10235885996372,70.36710951454006 150.69381415005773,70.4784478948568 149.47307540103793,71.03513960994314 147.40720982616767,70.36710951454006 146.28037405805662,69.69907897384837 145.7169561740011,68.47435515781399 144.9657323290594,67.2496298441547 144.87182934815064,65.46820853248937 145.05963530950248,63.909462284646 145.05963530950248,62.12803503050236 144.87182934815064,60.56928358366713 144.87182934815064,58.453831310151145 144.59012040589005,57.3404335816158 144.4023144445382,55.67033466754947 144.7779263672419,54.11157316813478 144.7779263672419,52.77548995165853 145.15353828994557,51.6620859093382 144.87182934815064,50.21465880336473 145.34134425129741,48.655888811219484 145.24744127085432,46.98577541258419 145.52915021311492,45.98370603600051 145.623053193558,43.979564275126904 145.52915021311492,42.19810156407766 145.623053193558,40.639319092268124 145.7169561740011,39.41455973347183 145.9986651162617,37.967114923521876 146.28037405805662,36.40832586516626 145.9986651162617,34.84953437978402 145.9986651162617,33.736110404424835 145.81085915490985,32.399999999965075 145.9986651162617,33.736110404424835 145.9986651162617,34.84953437978402 146.28037405805662,36.40832586516626 145.9986651162617,37.967114923521876 145.7169561740011,39.41455973347183 145.623053193558,40.639319092268124 145.52915021311492,42.19810156407766 145.623053193558,43.979564275126904 145.52915021311492,45.98370603600051 145.24744127085432,46.98577541258419 145.34134425129741,48.655888811219484 144.87182934815064,50.21465880336473 145.15353828994557,51.6620859093382 144.7779263672419,52.77548995165853 144.7779263672419,54.11157316813478 144.4023144445382,55.67033466754947 144.59012040589005,57.3404335816158 144.87182934815064,58.453831310151145 144.87182934815064,60.56928358366713 145.05963530950248,62.12803503050236 145.05963530950248,63.909462284646 144.87182934815064,65.46820853248937 144.9657323290594,67.2496298441547 145.7169561740011,68.47435515781399 146.28037405805662,69.69907897384837 147.40720982616767,70.36710951454006 149.47307540103793,71.03513960994314 150.69381415005773,70.4784478948568 152.10235885996372,70.36710951454006 153.22919462807477,70.81246296095196 154.35603039665148,71.1464779159287 155.48286616476253,70.92380129144294 156.89141087420285,71.1464779159287 158.48776154592633,71.70316925924271 159.89630625629798,71.36915449029766 161.4926569275558,72.70521289831959 163.7463284637779,73.70725553407101 165.53048509685323,73.2619033754454 166.18780596135184,73.15056530456059 167.87805961351842,73.039227221685 169.38050730433315,73.15056530456059 170.97685797605664,73.37324143352453 172.94882057001814,74.26394545444055 174.0756563381292,73.92993153934367 175.39029806759208,74.15260749531444 176.79884277796373,74.15260749531444 178.01958152651787,74.59795925789513 179.3342232555151,74.59795925789513 180.4610590240918,74.82063506502891 181.7757007535547,75.04331082268618 183.37205142481253,75.59999999997672 184.87449911609292,75.37732436618535 186.2830438259989,75.15464868280105 187.5976855554618,75.48866218945477" stroke="#4DD2FF" stroke-dasharray="1,0.5" stroke-linecap="round" stroke-linejoin="round" stroke-width="0.5"><title>2014-03-22 10.5km</title><desc>9223370641410674807</desc></polyline><polyline fill="none" opacity="1" points="55.59999999997672,101.42585223182687 55.48839830909856,101.42585223182687 55.37679661810398,101.42585223182687 55.22461249411572,101.4628947865931 55.08257397840498,101.4628947865931 54.95068107091356,101.4628947865931 54.81878816342214,101.45054726984381 54.66660403943388,101.42585223182687 54.534711132000666,101.43819975161023 54.39267261628993,101.45054726984381 54.24048849224346,101.43819975161023 54.118741193029564,101.45054726984381 54.007139502093196,101.45054726984381 53.85495537810493,101.4628947865931 53.743353687168565,101.45054726984381 53.61146077973535,101.41350471058831 53.479567872185726,101.38880966357101 53.347674964752514,101.41350471058831 53.2157820573193,101.43819975161023 53.11432597466046,101.43819975161023 52.95199624233646,101.40115718783636 52.83024894312257,101.38880966357101 52.71864725224441,101.38880966357101 52.596899953030515,101.37646213785774 52.44471582904225,101.38880966357101 52.29253170499578,101.38880966357101 52.170784405840095,101.41350471058831 52.02874589007115,101.37646213785774 51.91714419913478,101.37646213785774 51.775105683424044,101.37646213785774 51.65335838421015,101.36411461063835 51.50117426022189,101.33941955168848 51.36928135273047,101.31472448676504 51.19680601218715,101.33941955168848 51.04462188819889,101.33941955168848 50.90258337248815,101.36411461063835 50.74025364022236,101.35176708192739 50.61850634100847,101.35176708192739 50.5069046500721,101.33941955168848 50.37501174258068,101.36411461063835 50.253264443424996,101.35176708192739 50.12137153587537,101.33941955168848 49.97933302022284,101.35176708192739 49.86773132922826,101.35176708192739 49.725692813517526,101.35176708192739 49.593799906026106,101.38880966357101 49.47205260687042,101.37646213785774 49.35030530765653,101.38880966357101 49.20826679194579,101.37646213785774 49.066228276176844,101.37646213785774 48.94448097696295,101.37646213785774 48.80244246125221,101.37646213785774 48.690840770315845,101.37646213785774 48.56909347110195,101.37646213785774 48.44734617188806,101.37646213785774 48.295162047899794,101.35176708192739 48.163269140408374,101.31472448676504 48.03137623297516,101.33941955168848 47.88933771720622,101.32707201999438 47.737153593217954,101.31472448676504 47.60526068578474,101.32707201999438 47.47336777829332,101.32707201999438 47.3414748708019,101.36411461063835 47.20958196336869,101.35176708192739 47.067543447599746,101.33941955168848 46.92550493188901,101.32707201999438 46.79361202439759,101.32707201999438 46.66171911696438,101.30237695203687 46.49938938469859,101.31472448676504 46.38778769376222,101.29002941586077 46.23560356971575,101.30237695203687 46.083419445727486,101.30237695203687 45.951526538294274,101.32707201999438 45.79934241430601,101.29002941586077 45.64715829025954,101.2529867983103 45.49497416627128,101.2529867983103 45.35293565050233,101.22829171245394 45.22104274306912,101.21594416726293 45.07900422735838,101.22829171245394 44.97754814464133,101.22829171245394 44.835509628930595,101.2529867983103 44.7137623297167,101.29002941586077 44.59201503050281,101.31472448676504 44.439830906514544,101.31472448676504 44.30793799908133,101.31472448676504 44.17604509158991,101.29002941586077 44.05429779237602,101.29002941586077 43.94269610143965,101.31472448676504 43.78036636917386,101.30237695203687 43.658619070018176,101.29002941586077 43.52672616246855,101.31472448676504 43.39483325503534,101.29002941586077 43.262940347602125,101.26533433900477 43.11075622361386,101.26533433900477 42.98900892439997,101.2529867983103 42.86726162512787,101.24063925610972 42.704931892920285,101.20359662061674 42.573038985428866,101.2529867983103 42.41070925316308,101.22829171245394 42.27881634567166,101.21594416726293 42.15706904651597,101.22829171245394 42.0048849224695,101.22829171245394 41.86284640675876,101.21594416726293 41.73095349926734,101.21594416726293 41.568623767001554,101.22829171245394 41.457022076065186,101.24063925610972 41.30483795207692,101.26533433900477 41.193236261140555,101.19124907246442 41.041052137094084,101.19124907246442 40.9193048379384,101.19124907246442 40.77726632222766,101.17890152279142 40.63522780651692,101.19124907246442 40.51348050724482,101.21594416726293 40.371441991534084,101.17890152279142 40.239549084042665,101.19124907246442 40.09751056833193,101.16655397166323 39.95547205262119,101.16655397166323 39.833724753407296,101.1542064190362 39.72212306247093,101.10481619351049 39.59023015497951,101.10481619351049 39.4583372475463,101.11716375212563 39.306153123499826,101.14185886488121 39.174260216066614,101.12951130923466 39.05251291685272,101.17890152279142 38.9206200093613,101.17890152279142 38.75829027709551,101.17890152279142 38.6263973696623,101.19124907246442 38.49450446217088,101.1542064190362 38.372757163015194,101.1542064190362 38.261155472078826,101.16655397166323 38.11911695630988,101.1542064190362 37.96693283232162,101.16655397166323 37.8350399248302,101.12951130923466 37.67271019256441,101.11716375212563 37.57125410990557,101.12951130923466 37.42921559413662,101.12951130923466 37.1248473462183,101.14185886488121 36.830624706461094,101.11716375212563 36.65814936591778,101.05542594404687 36.26247064350173,101.16655397166323 35.927665570692625,101.14185886488121 35.68417097226484,101.06777350865741 35.4609675903921,101.06777350865741 35.19718177546747,101.01838324131677 35.00441521842731,101.03073081038019 34.7101925786701,101.03073081038019 34.436261155467946,101.16655397166323 34.172475340543315,101.09246863338922 33.85796148428926,101.24063925610972 29.972193518071435,101.01838324131677 29.71855331142433,100.93195021584688 29.485204321274068,100.98134052505338 29.140253640245646,101.01838324131677 28.856176608765963,100.93195021584688 28.531517144234385,100.8825598826661 28.288022545806598,100.84551711711538 24.980554250825662,100.8825598826661 24.68633161112666,100.85786470714811 24.351526538317557,100.8331695255838 24.10803193988977,100.87021229565289 23.87468294973951,100.79612674210512 23.55002348520793,100.75908394515864 23.245655237231404,100.8084743380823 22.951432597474195,100.79612674210512 20.404884922492784,100.77143154561782 20.029497416631784,100.79612674210512 19.8265852513141,100.79612674210512 19.633818694215734,100.7837791446218 19.56279943638947,100.77143154561782 19.380178487568628,100.7220411347298 19.16712071391521,100.77143154561782 18.943917332042474,100.75908394515864 18.751150775002316,100.68499831090594 18.517801784852054,100.67265069995483 18.26416157820495,100.67265069995483 18.000375763280317,100.74673634319333 17.898919680621475,100.62326024120557 16.72202912165085,100.73438873970736 16.468388915003743,100.68499831090594 16.26547674962785,100.68499831090594 15.961108501651324,100.67265069995483 15.677031470171642,100.69734592033637 15.41324565524701,100.69734592033637 15.119023015489802,100.70969352827524 14.865382808842696,100.63560785812297 14.611742602137383,100.67265069995483 14.378393611987121,100.63560785812297 14.043588539236225,100.64795547357062 13.850821982137859,100.59856500288151 13.485580084554385,100.66030308748304 13.130483795248438,100.61091262281843 13.008736496034544,100.68499831090594 13.06961014564149,100.95664537342236 13.059464537363965,101.12951130923466 13.10004697041586,101.41350471058831 12.937717238150071,101.49993732795701 12.876843588601332,101.29002941586077 12.785533114161808,101.12951130923466 12.613057773618493,101.19124907246442 12.481164866127074,101.43819975161023 12.400000000023283,101.57402237024507 12.43043682485586,101.89505693163665 12.481164866127074,102.1913956298813 12.54203851573402,102.47538607438764 12.602912165399175,102.78407044328196 12.653640206670389,103.08040655850346 12.724659464554861,103.30265807988326" stroke="#4DD2FF" stroke-dasharray="none" stroke-linecap="round" stroke-linejoin="round" stroke-width="0.5"><title>2013-12-10 10.9km</title><desc>9223370650177580807</desc></polyline><polyline fill="none" opacity="0.5" points="109.80091899074614,93.02345978678204 110.49274856690317,89.37668956816196 106.80299082957208,83.7662626572419 101.96018379833549,80.4000000001397 94.11944860499352,86.01043504965492 89.96847114898264,91.05981499678455 91.35213030129671,99.75594359473325 88.58481199666858,105.92736992868595 88.35420214012265,111.25722491787747 88.58481199666858,117.98965582833625 93.42761902883649,121.35586395906284 99.88469506986439,123.60000000009313 105.88055139407516,120.79482960957102 110.03152885008603,114.0624068370089 110.49274856690317,107.89100213861093 109.80091899074614,101.15854193037376 110.72335842624307,94.98710291530006 111.18457814306021,88.5351263966877 107.95604012254626,83.7662626572419 102.6520133735612,82.08313193893991 96.65615704935044,83.7662626572419 92.73578945267946,86.57147780805826 90.89091058447957,91.62085653445683 90.42969086673111,98.63386431708932 89.73786129057407,104.52477447572164 87.89298242237419,112.94033447606489 112.10701757762581,90.49877332313918 108.87847955711186,86.8519991368521 104.95811196044087,83.20521922083572 97.34798662550747,82.64417564729229 91.12152044288814,89.09616854530759 89.73786129057407,95.5481435037218 89.5072514321655,103.40269750310108 89.27664157282561,108.17152088950388 88.58481199666858,114.34292484284379 90.66030072513968,119.39224314200692 96.88676690869033,122.75844923895784 103.11323309037834,123.03896619309671 108.4172598393634,117.98965582833625 110.26213870756328,110.97670653951354 110.49274856690317,104.52477447572164 110.49274856690317,97.79230450256728 111.64579785987735,91.62085653445683 109.80091899074614,85.72991361888126 105.88055139407516,82.92469745082781 99.88469506986439,82.08313193893991 94.81127818115056,84.32730595883913 91.12152044288814,88.5351263966877 89.96847114898264,95.5481435037218 89.73786129057407,102.56113941781223 89.27664157282561,109.01307694031857 109.80091899074614,93.02345978678204 110.49274856690317,89.37668956816196 106.80299082957208,83.7662626572419 101.96018379833549,80.4000000001397 94.11944860499352,86.01043504965492 89.96847114898264,91.05981499678455 91.35213030129671,99.75594359473325 88.58481199666858,105.92736992868595 88.35420214012265,111.25722491787747 88.58481199666858,117.98965582833625 93.42761902883649,121.35586395906284 99.88469506986439,123.60000000009313 105.88055139407516,120.79482960957102 110.03152885008603,114.0624068370089 110.49274856690317,107.89100213861093 109.80091899074614,101.15854193037376 110.72335842624307,94.98710291530006 111.18457814306021,88.5351263966877 107.95604012254626,83.7662626572419 102.6520133735612,82.08313193893991 96.65615704935044,83.7662626572419 92.73578945267946,86.57147780805826 90.89091058447957,91.62085653445683 90.42969086673111,98.63386431708932 89.73786129057407,104.52477447572164 87.89298242237419,112.94033447606489 112.10701757762581,90.49877332313918 108.87847955711186,86.8519991368521 104.95811196044087,83.20521922083572 97.34798662550747,82.64417564729229 91.12152044288814,89.09616854530759 89.73786129057407,95.5481435037218 89.5072514321655,103.40269750310108 89.27664157282561,108.17152088950388 88.58481199666858,114.34292484284379 90.66030072513968,119.39224314200692 96.88676690869033,122.75844923895784 103.11323309037834,123.03896619309671 108.4172598393634,117.98965582833625 110.26213870756328,110.97670653951354 110.49274856690317,104.52477447572164 110.49274856690317,97.79230450256728 111.64579785987735,91.62085653445683 109.80091899074614,85.72991361888126 105.88055139407516,82.92469745082781 99.88469506986439,82.08313193893991 94.81127818115056,84.32730595883913 91.12152044288814,88.5351263966877 89.96847114898264,95.5481435037218 89.73786129057407,102.56113941781223 89.27664157282561,109.01307694031857 109.80091899074614,93.02345978678204 110.49274856690317,89.37668956816196 106.80299082957208,83.7662626572419 101.96018379833549,80.4000000001397 94.11944860499352,86.01043504965492 89.96847114898264,91.05981499678455 91.35213030129671,99.75594359473325 88.58481199666858,105.92736992868595 88.35420214012265,111.25722491787747 88.58481199666858,117.98965582833625 93.42761902883649,121.35586395906284 99.88469506986439,123.60000000009313 105.88055139407516,120.79482960957102 110.03152885008603,114.0624068370089 110.49274856690317,107.89100213861093 109.80091899074614,101.15854193037376 110.72335842624307,94.98710291530006 111.18457814306021,88.5351263966877 107.95604012254626,83.7662626572419 102.6520133735612,82.08313193893991 96.65615704935044,83.7662626572419 92.73578945267946,86.57147780805826 90.89091058447957,91.62085653445683 90.42969086673111,98.63386431708932 89.73786129057407,104.52477447572164 87.89298242237419,112.94033447606489 112.10701757762581,90.49877332313918 108.87847955711186,86.8519991368521 104.95811196044087,83.20521922083572 97.34798662550747,82.64417564729229 91.12152044288814,89.09616854530759 89.73786129057407,95.5481435037218 89.5072514321655,103.40269750310108 89.27664157282561,108.17152088950388 88.58481199666858,114.34292484284379 90.66030072513968,119.39224314200692 96.88676690869033,122.75844923895784 103.11323309037834,123.03896619309671 108.4172598393634,117.98965582833625 110.26213870756328,110.97670653951354 110.49274856690317,104.52477447572164 110.49274856690317,97.79230450256728 111.64579785987735,91.62085653445683 109.80091899074614,85.72991361888126 105.88055139407516,82.92469745082781 99.88469506986439,82.08313193893991 94.81127818115056,84.32730595883913 91.12152044288814,88.5351263966877 89.96847114898264,95.5481435037218 89.73786129057407,102.56113941781223 89.27664157282561,109.01307694031857 109.80091899074614,93.02345978678204 110.49274856690317,89.37668956816196 106.80299082957208,83.7662626572419 101.96018379833549,80.4000000001397 94.11944860499352,86.01043504965492 89.96847114898264,91.05981499678455 91.35213030129671,99.75594359473325 88.58481199666858,105.92736992868595 88.35420214012265,111.25722491787747 88.58481199666858,117.98965582833625 93.42761902883649,121.35586395906284 99.88469506986439,123.60000000009313 105.88055139407516,120.79482960957102 110.03152885008603,114.0624068370089 110.49274856690317,107.89100213861093 109.80091899074614,101.15854193037376 110.72335842624307,94.98710291530006 111.18457814306021,88.5351263966877 107.95604012254626,83.7662626572419 102.6520133735612,82.08313193893991 96.65615704935044,83.7662626572419 92.73578945267946,86.57147780805826 90.89091058447957,91.62085653445683 90.42969086673111,98.63386431708932 89.73786129057407,104.52477447572164 87.89298242237419,112.94033447606489 112.10701757762581,90.49877332313918 108.87847955711186,86.8519991368521 104.95811196044087,83.20521922083572 97.34798662550747,82.64417564729229 91.12152044288814,89.09616854530759 89.73786129057407,95.5481435037218 89.5072514321655,103.40269750310108 89.27664157282561,108.17152088950388 88.58481199666858,114.34292484284379 90.66030072513968,119.39224314200692 96.88676690869033,122.75844923895784 103.11323309037834,123.03896619309671 108.4172598393634,117.98965582833625 110.26213870756328,110.97670653951354 110.49274856690317,104.52477447572164 110.49274856690317,97.79230450256728 111.64579785987735,91.62085653445683 109.80091899074614,85.72991361888126 105.88055139407516,82.92469745082781 99.88469506986439,82.08313193893991 94.81127818115056,84.32730595883913 91.12152044288814,88.5351263966877 89.96847114898264,95.5481435037218 89.73786129057407,102.56113941781223 89.27664157282561,109.01307694031857 109.80091899074614,93.02345978678204 110.49274856690317,89.37668956816196 106.80299082957208,83.7662626572419 101.96018379833549,80.4000000001397 94.11944860499352,86.01043504965492 89.96847114898264,91.05981499678455 91.35213030129671,99.75594359473325 88.58481199666858,105.92736992868595 88.35420214012265,111.25722491787747 88.58481199666858,117.98965582833625 93.42761902883649,121.35586395906284 99.88469506986439,123.60000000009313 105.88055139407516,120.79482960957102 110.03152885008603,114.0624068370089 110.49274856690317,107.89100213861093 109.80091899074614,101.15854193037376 110.72335842624307,94.98710291530006 111.18457814306021,88.5351263966877 107.95604012254626,83.7662626572419 102.6520133735612,82.08313193893991 96.65615704935044,83.7662626572419 92.73578945267946,86.57147780805826 90.89091058447957,91.62085653445683 90.42969086673111,98.63386431708932 89.73786129057407,104.52477447572164 87.89298242237419,112.94033447606489 112.10701757762581,90.49877332313918 108.87847955711186,86.8519991368521 104.95811196044087,83.20521922083572 97.34798662550747,82.64417564729229 91.12152044288814,89.09616854530759 89.73786129057407,95.5481435037218 89.5072514321655,103.40269750310108 89.27664157282561,108.17152088950388 88.58481199666858,114.34292484284379 90.66030072513968,119.39224314200692 96.88676690869033,122.75844923895784 103.11323309037834,123.03896619309671 108.4172598393634,117.98965582833625 110.26213870756328,110.97670653951354 110.49274856690317,104.52477447572164 110.49274856690317,97.79230450256728 111.64579785987735,91.62085653445683 109.80091899074614,85.72991361888126 105.88055139407516,82.92469745082781 99.88469506986439,82.08313193893991 94.81127818115056,84.32730595883913 91.12152044288814,88.5351263966877 89.96847114898264,95.5481435037218 89.73786129057407,102.56113941781223 89.27664157282561,109.01307694031857 109.80091899074614,93.02345978678204 110.49274856690317,89.37668956816196 106.80299082957208,83.7662626572419 101.96018379833549,80.4000000001397 94.11944860499352,86.01043504965492 89.96847114898264,91.05981499678455 91.35213030129671,99.75594359473325 88.58481199666858,105.92736992868595 88.35420214012265,111.25722491787747 88.58481199666858,117.98965582833625 93.42761902883649,121.35586395906284 99.88469506986439,123.60000000009313 105.88055139407516,120.79482960957102 110.03152885008603,114.0624068370089 110.49274856690317,107.89100213861093 109.80091899074614,101.15854193037376 110.72335842624307,94.98710291530006 111.18457814306021,88.5351263966877 107.95604012254626,83.7662626572419 102.6520133735612,82.08313193893991 96.65615704935044,83.7662626572419 92.73578945267946,86.57147780805826 90.89091058447957,91.62085653445683 90.42969086673111,98.63386431708932 89.73786129057407,104.52477447572164 87.89298242237419,112.94033447606489 112.10701757762581,90.49877332313918 108.87847955711186,86.8519991368521 104.95811196044087,83.20521922083572 97.34798662550747,82.64417564729229 91.12152044288814,89.09616854530759 89.73786129057407,95.5481435037218 89.5072514321655,103.40269750310108 89.27664157282561,108.17152088950388 88.58481199666858,114.34292484284379 90.66030072513968,119.39224314200692 96.88676690869033,122.75844923895784 103.11323309037834,123.03896619309671 108.4172598393634,117.98965582833625 110.26213870756328,110.97670653951354 110.49274856690317,104.52477447572164 110.49274856690317,97.79230450256728 111.64579785987735,91.62085653445683 109.80091899074614,85.72991361888126 105.88055139407516,82.92469745082781 99.88469506986439,82.08313193893991 94.81127818115056,84.32730595883913 91.12152044288814,88.5351263966877 89.96847114898264,95.5481435037218 89.73786129057407,102.56113941781223 89.27664157282561,109.01307694031857 109.80091899074614,93.02345978678204 110.49274856690317,89.37668956816196 106.80299082957208,83.7662626572419 101.96018379833549,80.4000000001397 94.11944860499352,86.01043504965492 89.96847114898264,91.05981499678455 91.35213030129671,99.75594359473325 88.58481199666858,105.92736992868595 88.35420214012265,111.25722491787747 88.58481199666858,117.98965582833625 93.42761902883649,121.35586395906284 99.88469506986439,123.60000000009313 105.88055139407516,120.79482960957102 110.03152885008603,114.0624068370089 110.49274856690317,107.89100213861093 109.80091899074614,101.15854193037376 110.72335842624307,94.98710291530006 111.18457814306021,88.5351263966877 107.95604012254626,83.7662626572419 102.6520133735612,82.08313193893991 96.65615704935044,83.7662626572419 92.73578945267946,86.57147780805826 90.89091058447957,91.62085653445683 90.42969086673111,98.63386431708932 89.73786129057407,104.52477447572164 87.89298242237419,112.94033447606489 112.10701757762581,90.49877332313918 108.87847955711186,86.8519991368521 104.95811196044087,83.20521922083572 97.34798662550747,82.64417564729229 91.12152044288814,89.09616854530759 89.73786129057407,95.5481435037218 89.5072514321655,103.40269750310108" stroke="#4DD2FF" stroke-dasharray="1,0.5" stroke-linecap="round" stroke-linejoin="round" stroke-width="0.5"><title>2013-11-30 10.3km</title><desc>9223370651086224807</desc></polyline><polyline fill="none" opacity="1" points="175.57030913140625,93.02345978678204 177.87640771828592,90.49877332313918 176.26213870756328,89.37668956816196 174.64786969777197,86.8519991368521 172.5723809702322,83.7662626572419 170.72750210110098,83.20521922083572 167.7295739389956,80.4000000001397 163.11737676616758,82.64417564729229 159.88883874565363,86.01043504965492 156.89091058354825,89.09616854530759 155.73786128964275,91.05981499678455 155.50725143123418,95.5481435037218 157.12152044195682,99.75594359473325 155.2766415728256,103.40269750310108 154.35420213732868,105.92736992868595 155.04603171348572,108.17152088950388 154.12359228078276,111.25722491787747 154.35420213732868,114.34292484284379 154.35420213732868,117.98965582833625 156.42969086579978,119.39224314200692 159.1970091694966,121.35586395906284 162.65615704935044,122.75844923895784 165.6540852105245,123.60000000009313 168.88262323103845,123.03896619309671 171.64994153473526,120.79482960957102 174.1866499800235,117.98965582833625 175.80091899074614,114.0624068370089 176.0315288482234,110.97670653951354 176.26213870756328,107.89100213861093 176.26213870756328,104.52477447572164 175.57030913140625,101.15854193037376 176.26213870756328,97.79230450256728 176.49274856690317,94.98710291530006 177.41518800053746,91.62085653445683 176.95396828372031,88.5351263966877 175.57030913140625,85.72991361888126 173.72543026320636,83.7662626572419 171.64994153473526,82.92469745082781 168.4214035142213,82.08313193893991 165.6540852105245,82.08313193893991 162.42554719001055,83.7662626572419 160.58066832181066,84.32730595883913 158.50517959333956,86.57147780805826 156.89091058354825,88.5351263966877 156.66030072513968,91.62085653445683 155.73786128964275,95.5481435037218 156.19908100739121,98.63386431708932 155.50725143123418,102.56113941781223 155.50725143123418,104.52477447572164 155.04603171348572,109.01307694031857" stroke="#4DD2FF" stroke-dasharray="none" stroke-linecap="round" stroke-linejoin="round" stroke-width="0.5"><title>2013-11-16 10.4km</title><desc>9223370652294258807</desc></polyline><polyline fill="none" opacity="1" points="45.837974173016846,135.90005394420587 44.60485186241567,132.6000330010429 40.41223600972444,129.90001260256395 36.712869081646204,129.00000514974818 33.013502151705325,129.00000514974818 29.06751076038927,130.50001738895662 26.354641679674387,132.30003087921068 25.121519369073212,136.50005727959797 23.395148135721684,141.30007874849252 23.395148135721684,144.30008745123632 23.148523674346507,147.0000921834726 22.40865028835833,151.20009370637126 22.655274749733508,155.10008875629865 22.40865028835833,158.10008077835664 22.655274749733508,163.20005889236927 23.64177259709686,165.60004496737383 26.108017217367887,167.7000308786519 30.793881993740797,171.60000000009313 34.73987338505685,171.60000000009313 38.43924031406641,170.40001015365124 40.65886047203094,169.20001972699538 43.37172955367714,165.90004306309856 44.111602938733995,163.20005889236927 43.86497847735882,159.000077677425 44.35822740197182,154.2000904425513 45.34472524933517,151.20009370637126 46.08459863439202,147.60009283619002 46.08459863439202,144.00008674431592 46.33122309669852,139.80007303715684 45.837974173016846,135.90005394420587 43.61835401598364,132.6000330010429 40.90548493433744,130.50001738895662 36.712869081646204,128.4000000001397 33.013502151705325,129.00000514974818 29.560759685002267,130.50001738895662 26.354641679674387,132.0000287219882 23.64177259709686,135.00004866719246 22.901899211108685,140.40007542981766 23.148523674346507,144.00008674431592 22.655274749733508,147.60009283619002 24.13502152170986,151.20009370637126 22.40865028835833,156.90008440450765 21.668776902370155,160.80007049744017 22.40865028835833,164.70005046087317 22.655274749733508,166.80003713420592 26.354641679674387,169.20001972699538 29.314135221764445,170.70000767009333 34.24662446137518,171.30000259238295 37.699366928078234,170.70000767009333 40.90548493433744,169.20001972699538 43.12510509137064,166.20004112226889 43.86497847735882,162.60006201080978" stroke="#4DD2FF" stroke-dasharray="none" stroke-linecap="round" stroke-linejoin="round" stroke-width="0.5"><title>2013-11-03 10.7km</title><desc>9223370653417861807</desc></polyline><polyline fill="none" opacity="1" points="95.26480975747108,171.60000000009313 99.05296195112169,170.16001262003556 102.36759512033314,167.28003524802625 102.84111414384097,162.6720642137807 104.97194975335151,158.06408426584676 105.20870926603675,154.60809345706366 105.20870926603675,151.44009747868404 105.44546877685934,147.1200961722061 105.68222828954458,142.80008703446947 106.86602585017681,139.0560727783013 107.10278536286205,135.3120526385028 104.97194975335151,132.7200352489017 103.55139268096536,130.41601742454804 100.47351902443916,128.9760051521007 96.68536682985723,128.4000000001397 92.89721463713795,129.2640076763928" stroke="#4DD2FF" stroke-dasharray="none" stroke-linecap="round" stroke-linejoin="round" stroke-width="0.5"><title>2013-11-02 10.5km</title><desc>9223370653505000807</desc></polyline><polyline fill="none" opacity="1" points="175.54437706060708,149.46010437584482 175.54437706060708,146.49010168295354 176.43222609069198,142.98009340977296 176.87615060433745,140.01008210144937 176.43222609069198,137.31006839242764 175.32241480425,134.34004954481497 173.99064126145095,132.72003759886138 170.4392451448366,130.56001984444447 167.7756980592385,128.4000000001397 165.3341132281348,129.48001018329524 162.0046793706715,130.8300221778918 159.78505679685622,132.45003549358808 158.67524551134557,135.69005860155448 158.2313209977001,138.12007284793071 157.7873964831233,141.63008875912055 156.45562293939292,144.33009724435396 156.01169842481613,146.76010209089145 156.23366068210453,150.81010429398157 157.7873964831233,154.32010026299395 154.90188713837415,155.13009854895063 155.12384939659387,156.21009580790997 154.45796262472868,157.56009164638817 154.90188713837415,163.23006525845267 160.22898131329566,166.20004569296725 165.77803774364293,167.55003549298272 167.1098112873733,167.55003549298272 169.10747160110623,167.55003549298272 171.77101868763566,168.3600289823953 173.99064126145095,164.0400603134185 174.6565280323848,162.96006684168242 174.8784902896732,160.5300796192605 175.54437706060708,159.18008557590656 173.54671674594283,158.91008666879497 174.8784902896732,158.10008975397795 176.2102638334036,155.94009654247202 175.9883015761152,150.81010429398157 176.2102638334036,149.46010437584482 175.7663393188268,146.2201012421865 176.2102638334036,142.1700907170307 175.7663393188268,136.7700652598869 175.32241480425,133.26004171161912 173.54671674594283,129.75001264712773 169.55139611661434,129.48001018329524 165.77803774364293,129.21000768686645 162.6705661425367,130.56001984444447 159.78505679685622,132.72003759886138 156.67758519575,133.26004171161912 156.45562293939292,137.58006991050206 156.23366068210453,140.55008445074782 156.01169842481613,144.0600965428166 154.90188713837415,147.57010311936028 155.34581165295094,151.62010385282338 155.12384939659387,155.13009854895063 154.90188713837415,159.18008557590656 154.90188713837415,161.61007426702417 158.45328325405717,165.66004954348318 164.00233968626708,168.63002674723975 166.44392451550812,169.98001507879235 169.32943385839462,171.60000000009313 173.32475448958576,167.82003335561603 175.1004525469616,162.69006839231588 175.54437706060708,159.7200832911767 175.54437706060708,158.6400877290871 175.1004525469616,153.24010209064 174.8784902896732,148.92010417976417 175.32241480425,146.2201012421865 175.54437706060708,142.98009340977296 177.09811286255717,138.93007700890303 175.7663393188268,135.96006031497382 174.43456577509642,134.34004954481497 172.88082997407764,130.8300221778918 170.21728288847953,130.02001507859677 166.0,129.75001264712773 162.0046793706715,130.56001984444447 159.78505679685622,130.8300221778918 156.89954745396972,132.72003759886138 154.90188713837415,135.69005860155448 154.67992488108575,138.39007426798344 155.34581165295094,139.7400808769744 154.23600036650896,142.71009254432283 154.67992488108575,145.95010076928884 154.90188713837415,147.57010311936028 154.45796262472868,150.27010442432947 154.90188713837415,153.78010124200955 154.67992488108575,157.02009340864606 154.90188713837415,161.34007565444335 157.5654342258349,166.20004569296725 161.7827171124518,168.63002674723975 163.11449065618217,168.3600289823953 166.0,169.98001507879235 167.99766031466424,169.1700221770443 171.1051319167018,171.33000259427354 173.32475448958576,168.63002674723975 174.8784902896732,162.42006990942173 173.99064126145095,158.37008875748143 175.1004525469616,151.35010403278284 174.8784902896732,147.0301024664659 174.8784902896732,145.68010026379488 176.43222609069198,142.98009340977296 177.76399963349104,140.82008557626978 177.09811286255717,136.7700652598869 175.32241480425,132.1800333559513 173.10279223136604,129.75001264712773 169.9953206302598,128.6700025945902 166.0,128.94000515691005 161.1168303405866,130.56001984444447 157.1215097112581,132.1800333559513 156.67758519575,133.53004371840507 155.56777391023934,134.61005142168142 155.78973616752774,137.04006684245542 156.01169842481613,138.6600756549742 156.23366068210453,142.1700907170307 156.23366068210453,143.5200950417202 156.23366068210453,147.84010339644738 156.01169842481613,149.19010429433547 155.12384939659387,151.62010385282338" stroke="#4DD2FF" stroke-dasharray="none" stroke-linecap="round" stroke-linejoin="round" stroke-width="0.5"><title>2013-10-26 11.1km</title><desc>9223370654110301807</desc></polyline><polyline fill="none" opacity="1" points="41.359794043935835,213.91583482245915 42.29437106475234,209.93691102182493 42.06072680931538,206.52639954793267 42.52801532112062,202.26325324806385 42.52801532112062,198.85273064253852 42.52801532112062,195.1579922370147 43.92988085281104,191.4632480267901 45.565390639938414,189.18955639493652 46.49996766168624,186.63165068160743 46.26632340531796,184.07374218595214 43.92988085281104,181.23161837016232 40.8925055321306,179.81055517448112 37.855130213312805,177.25263925665058 34.58411063905805,176.4000000001397 31.0794468075037,177.82106525660492 28.27571574319154,180.09476788225584 25.705628934316337,182.6526807071641 25.238340424373746,185.77901482582092 25.238340424373746,189.4737679695245 24.771051913499832,192.60009301709943 24.30376340262592,196.86325683817267 21.50003233831376,199.9895720607601 21.967320849187672,203.68430287321098 21.733676593750715,207.94744659680873 22.200965103693306,211.07374708005227 22.200965103693306,213.91583482245915 24.30376340262592,216.75791912851855 27.341138722375035,219.0315841003321 30.61215829756111,219.60000000009313 34.58411063905805,219.0315841003321 37.154197447001934,217.610543750925 40.8925055321306,215.90529419737868 41.82708255480975,213.6316262029577 43.462592341937125,210.22112008789554 43.92988085281104,206.81060902611353 43.92988085281104,203.1158831268549 44.39716936368495,199.70536175812595 45.0981021290645,195.4422030900605 45.33174638450146,192.0316705906298 45.79903489537537,189.18955639493652 45.565390639938414,185.49480280443095 44.63081361912191,181.80004340759479 42.52801532112062,179.24212965508923 39.4906400013715,178.10527820512652 35.98597617074847,177.53685227409005 32.48131234012544,177.53685227409005 29.21029276587069,178.95791684417054 25.705628934316337,181.23161837016232 24.30376340262592,184.07374218595214 25.004696168005466,188.33692146651447 23.602830636315048,191.74745932617225 23.36918638087809,194.58957042940892 23.36918638087809,198.28430972713977 21.733676593750715,201.69483315735124 22.200965103693306,206.52639954793267 21.967320849187672,209.3684927856084 23.36918638087809,212.21058258996345 24.30376340262592,215.90529419737868 25.238340424373746,217.610543750925 30.845802552998066,219.0315841003321 34.81775489356369,218.46316806343384 37.38784170243889,216.18950254260562 41.59343829844147,212.77900013769977" stroke="#4DD2FF" stroke-dasharray="none" stroke-linecap="round" stroke-linejoin="round" stroke-width="0.5"><title>2013-10-20 10.7km</title><desc>9223370654628121807</desc></polyline><polyline fill="none" opacity="1" points="103.07332356274128,176.40000000037253 102.39036276936531,188.86156632984057 98.97555881366134,198.83080312376842 100.3414803929627,207.96925748186186 96.92667643725872,219.60000000009313" stroke="#4DD2FF" stroke-dasharray="none" stroke-linecap="round" stroke-linejoin="round" stroke-width="0.5"><title>2013-10-19 10.2km</title><desc>9223370654714312807</desc></polyline><polyline fill="none" opacity="1" points="155.17554708756506,209.83568312670104 156.87827001698315,213.68223684793338 158.09450068231672,215.75345557858236 161.01345427706838,219.00822432828136 164.66214626841247,219.00822432828136 167.58109986409545,219.60000000009313 170.98654572386295,218.1205605531577 173.66225318517536,216.34523203712888 175.3649761164561,212.79457114078104 175.85146838147193,208.35623777774163 176.09471451491117,203.6220066549722 176.09471451491117,200.66310755256563 176.09471451491117,197.11242390889674 177.06769904587418,194.1535169375129 177.79743744432926,190.60282385186292 177.55419131275266,186.164450250566 175.3649761164561,179.95071368920617 172.68926865514368,177.87946466286667 167.8243459975347,176.4000000001397 164.90539240278304,176.6958930043038 161.98643880710006,179.35892843198963 159.31073134578764,181.4301762059331 158.58099294733256,184.38909855671227 157.12151614949107,189.12336687906645 155.6620393525809,193.56173511454836 155.6620393525809,197.11242390889674 154.20256255567074,200.66310755256563 154.44580868817866,204.50967568764463 154.68905482254922,207.76445938879624 154.20256255567074,211.31512758042663 156.14853161852807,215.4575672952924 158.8242390807718,218.1205605531577" stroke="#4DD2FF" stroke-dasharray="none" stroke-linecap="round" stroke-linejoin="round" stroke-width="0.5"><title>2013-10-12 10.6km</title><desc>9223370655320152807</desc></polyline><polyline fill="none" opacity="1" points="45.038113723509014,256.8000724564772 45.278072715736926,252.12981855729595 44.07827774621546,248.33523061382584 44.31823674123734,243.0811759249773 45.518031710758805,238.99468104168773 45.75799070484936,235.78385878098197 46.717826679348946,232.86492574820295 45.99794969893992,230.52977678203024 43.358400764875114,226.73515489464626 39.03913887310773,225.2756833503954 35.43975396454334,224.4000000001397 32.56024603638798,224.4000000001397 30.16065609641373,225.56757773039863 26.08135319966823,227.61083739856258 24.641599235124886,230.52977678203024 23.68176325969398,234.03249938460067 23.921722253784537,238.11900266609155 23.921722253784537,241.62171426066197 24.161681246943772,244.83252875856124 23.921722253784537,248.6271222056821 22.24200929608196,251.25414494634606 21.52213231381029,254.17305574938655 21.282173319719732,257.09196302411146 22.24200929608196,260.0108667712193 23.4418042646721,262.3459872279782 25.121517223306,265.26488462416455 28.240984144620597,266.72433199873194 31.600410060957074,266.72433199873194 36.639548934064806,267.60000000009313 39.7590158553794,264.68110542721115 41.67868780810386,262.0540972945746 44.07827774621546,258.25952494633384 44.31823674123734,254.17305574938655 44.31823674123734,250.67036236193962 45.518031710758805,246.87577212485485 46.237908692099154,243.37306815269403 45.99794969893992,240.16225171345286 45.99794969893992,237.53521690703928 46.47786768618971,234.03249938460067 45.75799070484936,231.1135642353911 44.798154728487134,228.48651958373375" stroke="#4DD2FF" stroke-dasharray="none" stroke-linecap="round" stroke-linejoin="round" stroke-width="0.5"><title>2013-10-06 10.6km</title><desc>9223370655838244807</desc></polyline><polyline fill="none" opacity="1" points="91.5827401606366,242.07282447465695 90.89091058447957,245.15854193037376 91.5827401606366,248.80529363360256 90.660300726071,251.89100213861093 90.19908100832254,255.53774326271378 89.27664157561958,258.3429248428438 89.27664157561958,260.3065499314107 90.19908100832254,263.3922431420069 91.8133500199765,265.6363810834009 95.96432747505605,266.75844923895784 99.19286549650133,267.60000000009313 102.19079365767539,266.75844923895784 105.18872181978077,266.47793225129135 107.26421054638922,264.23379512433894 108.64786969870329,261.98965582833625 109.57030913420022,258.0624068370089 109.33969927486032,254.97670653951354 110.26213870942593,251.04944568034261 110.26213870942593,247.40269750310108 110.03152885008603,243.75594359473325 109.80091899260879,238.98710291530006 110.26213870942593,235.62085653445683 110.95396828558296,234.21825243486091 110.26213870942593,231.41304169245996 107.95604012254626,228.88834912492894 104.9581119613722,226.0831319389399 102.88262323383242,225.2415661229752 99.65408521238714,225.80261003412306 96.19493733346462,225.80261003412306 94.35005846433342,226.6441756472923 93.19700917135924,229.72991361888126 91.5827401606366,232.5351263966877 91.35213030222803,235.62085653445683 90.660300726071,239.26762322615832 89.96847115084529,243.19490402424708 89.5072514321655,245.7195810272824 88.81542185787112,248.80529363360256 88.81542185787112,252.17152088950388 87.89298242330551,255.53774326271378 87.43176270555705,258.0624068370089 87.66237256396562,261.14810303226113 88.81542185787112,263.6727605035994 91.8133500199765,266.19741522870027 95.50310775730759,267.0389661930967 99.65408521238714,267.319483113708 103.34384294971824,266.75844923895784 105.8805513959378,264.794829609571 108.64786969870329,262.55069085536525 109.80091899260879,258.3429248428438 110.26213870942593,255.53774326271378 110.72335842624307,252.4520396075677 110.95396828558296,249.6468509058468 111.4151880024001,245.7195810272824 111.64579786174,243.4754238263704 111.87640772014856,240.3897041331511 112.10701757855713,237.5845008501783 112.3376274369657,234.49877332313918 111.64579786174,231.69356291904114 110.4927485678345,229.1688706574496 108.18664998188615,226.6441756472923 105.64994153752923,225.2415661229752 102.88262323383242,224.4000000001397 100.57652464695275,224.96104411478154 96.65615705028176,225.52208809531294 93.88883874751627,227.20521922083572 92.50517959613353,230.8519991368521 90.89091058447957,235.34033578261733 89.96847115084529,238.14554177806713 89.7378612915054,240.3897041331511 89.5072514321655,243.4754238263704 89.7378612915054,246.56113941781223 89.96847115084529,249.92736992868595 89.7378612915054,253.01307694031857 89.5072514321655,256.3792980927974 89.96847115084529,259.7455143611878 91.35213030222803,262.83120831870474 93.88883874751627,264.5143123844173 96.65615705028176,267.319483113708 100.57652464695275,267.319483113708 102.88262323383242,267.0389661930967 106.34177111368626,265.35586395906284 108.41725984029472,263.3922431420069 109.57030913420022,260.0260321632959 110.03152885008603,257.2208526181057 110.95396828558296,254.13515119976364 110.95396828558296,250.76892679347657 111.64579786174,247.96373605774716 111.64579786174,244.8780223308131 111.4151880024001,241.79230450256728 112.56823729537427,238.14554177806713 111.64579786174,235.34033578261733 110.72335842624307,231.97408411232755 110.03152885008603,229.44939215504564 107.49482040572912,227.7662626572419 104.26628238521516,226.0831319389399 101.26835422310978,226.6441756472923 97.11737676803023,226.9246974508278 94.11944860592484,228.88834912492894 92.7357894545421,230.8519991368521" stroke="#4DD2FF" stroke-dasharray="none" stroke-linecap="round" stroke-linejoin="round" stroke-width="0.5"><title>2013-09-29 10.5km</title><desc>9223370656443428807</desc></polyline><polyline fill="none" opacity="1" points="159.66630719508976,231.82935773720965 158.3090873081237,233.480322830379 157.63047736417502,238.4332109261304 156.95186742115766,240.63449106365442 156.72566410526633,244.76188558503054 156.72566410526633,246.96315960399806 156.49946079216897,249.16443149279803 156.49946079216897,253.29181054909714 155.14224090520293,255.49307631724514 155.5946475332603,260.99623142788187 156.49946079216897,263.4726468878798 161.92834033910185,265.3987459379714 164.1903734849766,265.94905965332873 167.58342320099473,265.94905965332873 171.65508286189288,264.8484320899006 174.59572594985366,262.0968608537223 176.6315557807684,257.96949776401743 177.31016572378576,253.5669688861817 175.72674252279103,250.81538401311263 174.14331932086498,249.43959032977 175.9529458368197,245.03704495402053 177.53636903874576,239.8090112612117 177.98877566773444,237.88289055787027 177.31016572378576,234.8561261605937 178.4411822957918,231.0038747417275 175.72674252279103,228.25226259441115 173.01230274885893,225.2254853900522 171.2026762329042,224.67516183038242 165.77379668504,225.2254853900522 164.1903734849766,225.50064712180756 161.24973039515316,227.97710119676776 158.76149393618107,230.17839144705795 158.08288399223238,232.6548404339701 157.63047736417502,236.23192865750752 156.49946079216897,240.909650930902 156.95186742115766,244.2115667485632 157.17807073518634,246.41284129861742 156.49946079216897,250.81538401311263 156.95186742115766,254.11728546093218 155.5946475332603,258.24465553602204 156.27325747720897,261.54654620797373 156.49946079216897,263.4726468878798 160.34491713810712,264.8484320899006 163.96417016908526,267.3248433584813 166.22620331402868,266.77452997583896 169.16684640292078,265.94905965332873 172.10748949088156,264.8484320899006 175.04813257977366,261.54654620797373 175.27433589380234,259.34528629202396 175.9529458368197,256.593708404107 176.85775909479707,253.84212718973868 177.98877566773444,250.81538401311263 177.08396240975708,247.2383187059313 175.9529458368197,243.38608824275434 176.1791491517797,240.35933116311207 176.6315557807684,237.05740975774825 177.76257235370576,236.23192865750752 178.6673856107518,232.6548404339701 177.31016572378576,229.90323028177954 178.4411822957918,230.17839144705795 177.98877566773444,227.42677830229513 174.82192926388234,226.05097048194148 171.4288795478642,224.95032362709753 168.26203314494342,224.4000000001397 164.1903734849766,225.50064712180756 161.02352708112448,227.97710119676776 158.3090873081237,229.90323028177954 158.08288399223238,233.20516206533648 155.8208508491516,237.05740975774825 154.46363096125424,241.45997056690976 156.04705416224897,241.45997056690976 156.72566410526633,243.11092867492698 156.27325747720897,246.68800046737306 155.5946475332603,250.81538401311263 153.3326143892482,253.01665217778645 155.3684442192316,256.04339242796414 155.5946475332603,258.5198132751975 157.17807073518634,262.92233257344924 159.21390056516975,265.3987459379714 161.92834033910185,266.2242164602503 165.77379668504,266.2242164602503 169.39304971788079,267.60000000009313 173.01230274885893,266.2242164602503 174.14331932086498,264.0229610686656 174.36952263582498,260.4459165164735 175.72674252279103,259.34528629202396 175.9529458368197,255.21791821345687 177.98877566773444,248.61411371990107 177.98877566773444,243.93640727945603 175.9529458368197,241.1848107650876 176.6315557807684,237.88289055787027 177.08396240975708,235.40644725901075 177.53636903874576,231.82935773720965 177.31016572378576,229.90323028177954" stroke="#4DD2FF" stroke-dasharray="none" stroke-linecap="round" stroke-linejoin="round" stroke-width="0.5"><title>2013-09-22 10.9km</title><desc>9223370657048162807</desc></polyline></svg>