<?xml version="1.0" encoding="utf-8" ?>
<svg baseProfile="full" height="300mm" version="1.1" viewBox="0,0,200,300" width="200mm" xmlns="http://www.w3.org/2000/svg" xmlns:ev="http://www.w3.org/2001/xml-events" xmlns:xlink="http://www.w3.org/1999/xlink"><defs /><rect fill="#222222" height="300" width="200" x="0" y="0" /><text fill="#FFFFFF" style="font-size:12px; font-family:Arial; font-weight:bold;" x="10" y="20">Over 10km Runs</text><text fill="#FFFFFF" style="font-size:4px; font-family:Arial" x="10" y="280">Runner</text><text fill="#FFFFFF" style="font-size:9px; font-family:Arial" x="10" y="290">keep</text><text fill="#FFFFFF" style="font-size:4px; font-family:Arial" x="65" y="280">SPECIAL TRACKS</text><rect fill="yellow" height="2.6" width="2.6" x="65" y="283" /><text fill="#FFFFFF" style="font-size:3px; font-family:Arial" x="70" y="285.5">Over 20.0 km</text><rect fill="red" height="2.6" width="2.6" x="65" y="287" /><text fill="#FFFFFF" style="font-size:3px; font-family:Arial" x="70" y="289.5">Over 40.0 km</text><text fill="#FFFFFF" style="font-size:4px; font-family:Arial" x="120" y="280">STATISTICS</text><text fill="#FFFFFF" style="font-size:3px; font-family:Arial" x="120" y="285">Number: 15</text><text fill="#FFFFFF" style="font-size:3px; font-family:Arial" x="120" y="290">Weekly: 1.2</text><text fill="#FFFFFF" style="font-size:3px; font-family:Arial" x="141" y="285">Total: 163.6 km</text><text fill="#FFFFFF" style="font-size:3px; font-family:Arial" x="141" y="290">Avg: 10.9 km</text><text fill="#FFFFFF" style="font-size:3px; font-family:Arial" x="167" y="285">Min: 10.2 km</text><text fill="#FFFFFF" style="font-size:3px; font-family:Arial" x="167" y="290">Max: 14.0 km</text><polyline fill="none" opacity="1" points="27.06765762111172,75.59999999999854 26.99077397180372,75.288208442842 26.930975577939535,75.08393056182831 26.837006673187716,74.93340968668053 26.75158039620146,74.739882434209 26.683239374600817,74.5033484946398 26.64906886377139,74.22380748944124 26.708867257693782,73.86900404827611 26.734495140815852,73.5894608431845 26.717409885372035,73.2776615092007 26.700324629986426,72.9551092048423 26.717409885372035,72.64330741707818 26.725952513079392,72.32075257425458 26.743037768465,72.05195588587958 26.760123023879714,71.77240637914656 26.930975577939535,71.60037543156068 27.195797036634758,71.56811958800245 27.349564335221658,71.52511177652195 27.358106962929014,71.34232832173439 27.409362729114946,71.14879244721669 27.417905356851406,70.8907438916649 27.392277473700233,70.52517369043198 27.135998642683262,70.36389219222474 26.94806083329604,70.19185823836597 27.016401854896685,69.77252393759409 27.059114993404364,69.48221429750265 27.110370759590296,69.14889453237993 27.144541270419722,68.83707802024583 27.195797036634758,68.52526030180161 27.221424919727724,68.24569856309245 27.272680685913656,68.05215525285894 27.341021707543405,67.94463099081622 27.349564335221658,67.76183941607451 27.298308569006622,67.67581970807805 27.37519221828552,67.50378001661738 27.443533239944372,67.2457197908443 27.503331633808557,66.98765873882076 27.571672655438306,66.69733906759211 27.674184187839273,66.35325514004217 27.742525209410815,66.08443854952202 27.836494114104426,65.80486834424664 27.998804040427785,65.78336290369043 28.19528447758057,65.88013734105334 28.425935425475473,65.81562106235651 28.665129001048626,65.6435774000638 28.75055527809309,65.40701676468598 28.90432257670909,65.10593858813081 29.05808987529599,64.80485928682174 29.220399801648455,64.525284642732 29.38270972794271,64.25646195496665 29.519391771114897,63.987638370497734 29.681701697438257,63.68655489129014 29.826926368376007,63.39622332818544 30.023406805470586,63.03061913125566 30.24551512565813,62.67576641274354 30.459080818196526,62.26714619528502 30.655561255291104,61.933796588557016 30.817871181614464,61.66496525613911 30.99726636329433,61.38537971908954 31.15103366188123,61.14880658398761 31.304800960526336,60.91223275431548 31.48419614226441,60.632644605721 31.65504869626602,60.31004169044172 31.766102856345242,59.99819097803265 31.902784899517428,59.707846126446384 32.124893219734076,59.43900736812793 32.39825730616576,59.25619650016597 32.57765248790383,59.019617114259745 32.73141978649073,58.761529719267855 32.86810182972113,58.63248571180884 32.95352810667828,58.438919313121005 33.06458226684481,58.21309126030246 33.124380660708994,58.03027761118574 33.295233214710606,57.92273997675511 33.44900051332661,57.8904786584535 33.56005467340583,57.85821732724435 33.68819408892887,57.71841807599412 33.841961387573974,57.546357126149815 34.02135656928294,57.33128042216413 34.21783700634842,57.083941502904054 34.345976421871455,56.92263310303679 34.269092772563454,56.58926138671086 34.28617802797817,56.32041222368571 34.39723218808649,56.08382421822898 34.61934050830314,55.83648146979249 34.79019306230475,55.61064612330665 34.90124722238397,55.30953134342417 35.05501452102908,55.008415438256634 35.27712284124573,54.7610693885872 35.52485904455534,54.535231027977716 35.66154108775663,54.30939203435264 35.79822313095792,54.008272391532955 35.926362546451855,53.69639728934999 36.13138561125379,53.43829284363164 36.42183495310019,53.39527535560774 36.61831539022387,53.20169637534855 36.720826922595734,52.900572592770914 36.79771057187463,52.59944768479181 36.84896633811877,52.33058520875056 36.92584998739767,51.97568536662584 37.01981889209128,51.620783961239795 37.088159913691925,51.40569143954781 37.10524516913574,51.24437167146243 37.17358619073639,50.97550467346446 37.233384584629675,50.60984411633399 37.32735348935239,50.244181899615796 37.42986502175336,49.82474378384359 37.47257816023193,49.51285248735803 37.54946180956904,49.157940232944384 37.63488808655529,48.867556316414266 37.711771735863294,48.48037613287306 37.77157012975658,48.11470425102743 37.83136852364987,47.77054096366919 37.92533742834348,47.41562103370961 37.99367844994413,47.07145475983998 38.062019471573876,46.781063322603586 38.138903120852774,46.42613903339952 38.198701514775166,46.12498992535984 38.25849990863935,45.85610584189999 38.30121304720524,45.72704116306704 38.34392618568381,45.45815575137385 38.4037245795771,45.135492072637135 38.4806082288851,44.780560533341486 38.56603450590046,44.4471385719371 38.62583289982285,44.08144838224689 38.634375527501106,44.016914647058 38.66854603830143,43.791046166697924 38.72834443219472,43.50064290424052 38.81377070923918,43.11343692577793 38.86502647542511,42.78000806403725 38.94191012470401,42.46808949233673 38.99316589094815,42.274484254092386 39.04442165710498,42.1239020804569 39.061506912490586,42.02709910590056 39.11276267870562,41.908784201230446 39.0785921679344,41.72593355222489 39.08713479564176,41.47854671932146 39.12130530641298,41.22040312719764 39.18964632801362,40.9730147417431 39.24090209422866,40.77940591012157 39.445925159030594,40.79016196854354 39.710746617784025,40.886966429628956 39.99265333186486,40.99452680542163 40.257474790589185,41.06981898308004 40.33435843986808,40.90847851623403 40.35998632299015,40.69335739115195 40.351443695282796,40.4352112826673 40.35998632299015,40.08025903267844 40.38561420608312,39.69303661240701 40.428327344561694,39.37034984023194 40.436869972298155,39.101443209234276 40.30018792906776,38.91858618737024 40.018281214957824,38.983124007201695 39.710746617784025,39.03690548423765 39.53135143604595,39.01539289771608 39.582607202231884,38.70345974783413 39.63386296844692,38.39152538995404 39.702203990047565,38.0795898240176 39.76200238396996,37.73538365962304 39.864513916370925,37.39117602431361 39.9072270548495,37.10074968781555 39.958482821064536,36.77805253014958 39.99265333186486,36.476867349912936 40.03536647037254,36.22946439502266 40.001195959572215,36.121897655844805 40.06953698117286,36.003574076843506 40.24893216288183,35.90676374654868 40.377071578404866,35.78843985149433 40.24893216288183,35.64860229686019 40.1976763966959,35.498007735746796 40.214761652081506,35.325899321149336 40.28310267365305,35.30438574344589 40.46249785539112,35.34741289307567 40.65043566477834,35.325899321149336 40.787117708008736,35.36892645926855 40.949427634332096,35.30438574344589 41.12028018833371,35.282872159987164 41.188621209934354,35.08924965051119 41.22279172076378,34.691246363589016 41.256962231505895,34.282484183844645 41.29967537004268,34.013560565770604 41.30821799772093,33.71236504748231 41.32530325310654,33.56176686591789 41.34238850855036,33.36814021872124 41.274047486978816,33.249812594069226 41.07756704985513,33.21754139351833 40.864001357287634,33.18527018005989 40.70169143099338,33.08845646206464 40.48812573851319,33.05618519685231 40.180591141281184,32.99164262769773 39.87305654404918,32.927100006796536 39.55697931913892,32.85180021703127 39.266529977321625,32.78725748404395 38.933367497025756,32.71195756355155 38.71980180445826,32.60438612641883 38.52332136739278,32.58287182174536 38.26704253637581,32.5721146672513 37.95096531146555,32.55060035394854 37.67760122503387,32.539843195161666 37.344438744738,32.50757171012083 37.079617286042776,32.47530021217972 36.76354006110341,32.443028701301955 36.47309071931522,32.42151435352571 36.4389202084858,32.400000000001455 36.36203655914869,32.615143276583694 36.29369553757715,32.78725748404395 36.26806765445508,32.97012842647382 36.225354515976505,33.196027252641215 36.20826926056179,33.400411358932615 36.16555612205411,33.60479494652827 36.0715872173605,33.78766403265763 35.97761831266689,33.93826179178723 35.900734663329786,34.14264401449327 35.85802152485121,34.282484183844645 35.78968050327967,34.46535173123266 35.70425422623521,34.62670510468888 35.61882794921985,34.82032872621494 35.53340167220449,34.99243822116841 35.44797539524734,35.10000646878325 35.336921235139016,35.390440019713424 35.260037585831014,35.64860229686019 35.12335554260062,35.92827716334432 34.99521612710669,36.25097772562003 34.84144882851979,36.57367699495808 34.69622415758204,36.87486181320128 34.55954211438075,37.15453242172225 34.439945326565066,37.43420205916482 34.28617802797817,37.74614012453094 34.13241072939127,38.025807707803324 34.01281394157559,38.30547432000458 33.910302409145515,38.509845460997894 33.86758927066694,38.628165358248225 33.79070562135894,38.70345974783413 33.69673671666533,38.80026671675296 33.679651461250614,39.07993063997128 33.56005467340583,39.37034984023194 33.38920211940422,39.63925557349285 33.32086109780357,39.832867145581986 33.278147959325,39.961941268447845 33.49171365183429,40.04799056875345 33.77362036597333,40.04799056875345 34.08115496317623,40.09101518445823 34.4143174434721,40.13403977717098 34.73039466838236,40.17706434690626 35.037929265614366,40.22008889364224 35.336921235139016,40.26311341742257 35.62737057695631,40.2953817951493 35.8409362694365,40.284625670683454 35.9178199187445,40.11252748368133 35.969075684959535,39.90816040903155 35.96053305728128,39.7360614177378 36.063044589653146,39.75757381173753 36.16555612205411,39.85437951374479 36.157013494404964,40.11252748368133 36.088672472775215,40.488991790152795 36.01178882349632,40.833186187795945 35.95199042954482,41.18813511999906 35.88364940797328,41.54308248811867 35.79822313095792,41.908784201230446 35.73842473706463,42.220704938677954 35.69571159852785,42.50035698679858 35.60174269383424,42.83378700604953 35.64445583237102,43.11343692577793 35.53340167220449,43.403841584105976 35.37109174593934,43.6512225043698 35.29420809663134,43.94162522398983 35.217324447323335,44.25353809008084 35.217324447323335,44.52242752256279 35.260037585831014,44.705271823972 35.37109174593934,44.94189324506442 35.28566546892398,45.275313158737845 35.234409702708945,45.65175333825755 35.13189817033708,46.06045782716683 35.072099776385585,46.404628420161316 35.02938663790701,46.75955280413473 35.0123013825214,47.08220997815806 35.003758754814044,47.404865859898564 35.003758754814044,47.74903070943401 34.986673499428434,48.09319408866577 34.978130871691974,48.437355997659324 34.95250298859901,48.77076144495368 34.9354177332134,49.071900663104316 34.90124722238397,49.39454857626697 34.84144882851979,49.72795006244996 34.764565179211786,50.07210498810309 34.764565179211786,50.37323934210144 34.764565179211786,50.71739151127986 34.7047667853185,51.02927814486611 34.58516999747371,51.40569143954781 34.38014693270088,51.68531160575367 34.17512386786984,51.87889422931039 33.910302409145515,52.083230938442284 33.70527934434358,52.28756712935137 33.44900051332661,52.50265729678358 33.31231847012532,52.68548348760669 33.218349565402605,52.82529147128662 33.09021014990867,52.98660807404667 32.97061336209299,53.16943316680408 32.885187085106736,53.4598015790034 32.73996241419809,53.78243192088121 32.57765248790383,54.09430669001449 32.40679993390222,54.40618025195727 32.27866051837918,54.63201897432009 32.23594737990061,54.90087377082091 32.32991628459422,55.07294036979147 32.42388518928783,55.28802310179162 32.30428840147215,55.56762979508494 32.32137365685776,55.70743277789006 32.30428840147215,55.675170572605566 32.15052110288525,55.79346526211884 31.979668548854534,56.03005412012135 31.800273367145564,56.309658238526026 31.56962241922156,56.53549162585841 31.381684609834338,56.79358615066303 31.296258332848083,57.04092596117698 31.168118917295942,57.33128042216413 31.039979501831112,57.481834175217955 30.84349906470743,57.47108034505072 30.61284811675432,57.481834175217955 30.33948403040995,57.41731117263407 30.040492060856195,57.406557333852106 29.741500091331545,57.406557333852106 29.58773279277375,57.41731117263407 29.451050749514252,57.43881884592702 29.38270972794271,57.589372398055275 29.271655567834387,57.78294083748915 29.18622929081903,57.998016335928696 29.134973524603993,58.30987478903262 29.015376736817416,58.52494888105866 28.96412097060238,58.6647467330331 28.895779949001735,58.74002239904803 28.665129001048626,58.95509534300072 28.46864856398315,59.15941410808591 28.408850170089863,59.38523950884701 28.485733819397865,59.53578942442982 28.55407484099851,59.64332490625384 28.579702724091476,59.84764192630246 28.639501117984764,60.07346539841092 28.63095849030651,60.15949322131928 28.477191191661404,60.03045145251963 28.314881265396252,60.27778132786625 28.161113966751145,60.53586386673851 28.007346668135142,60.75093201774871 27.845036741840886,61.0197663993531 27.72543995405431,61.2670932383262 27.614385793945985,61.525172608860885" stroke="#4DD2FF" stroke-dasharray="none" stroke-linecap="round" stroke-linejoin="round" stroke-width="0.5"><title>2017-12-17 14.0km</title><desc>9223370523376934807</desc></polyline><polyline fill="none" opacity="1" points="100.69035628525307,32.400000000001455 100.53256056294776,32.6647719483517 100.50626127584837,32.9129951369614 100.6509073546622,33.16121782914706 100.67720664176159,33.42598815343081 100.69035628525307,33.740402179944795 100.70350592880277,34.038267364987405 100.67720664176159,34.33613183511625 100.67720664176159,34.683639480041165 100.59830878057983,34.99805032033328 100.54571020643925,35.19662517745019 100.69035628525307,35.39519971686241 100.6509073546622,36.15639917459339 100.75610450288514,36.437710836129554 100.87445129465777,36.719021860051726 100.91390022530686,37.0168798962477 100.95334915583953,37.38092763635359 100.96649879938923,37.728426755777036 100.9927980863722,38.0759249022085 101.04539666057099,38.40687461330526 101.15059380879393,38.688181173900375 101.19004273938481,38.9860344842964 101.22949166997569,39.26733973216324 101.25579095707508,39.58173896056542 101.41358667938039,39.68102276192076 101.61083133233478,39.79685376321868 101.62398097588448,39.96232643463736 101.49248454062035,40.07815717338963 101.34783846174832,40.227082250014064 101.42673632293008,40.458743125192996 101.55823275819421,40.77313933564437 101.68972919351654,41.08753474970581 101.7554774111486,41.36883523455617 101.87382420292124,41.666682111848786 102.01847028173506,41.96452827446046 102.18941564759007,42.26237372226751 102.26831350877183,42.54367154445936 102.04476956871804,42.69259366283222 101.79492634173948,42.57676536399231 101.59768168872688,42.42784310664865 101.36098810529802,42.26237372226751 101.16374345234362,42.34510844197939 100.92704986879835,42.36165537935449 100.70350592880277,42.444390032942465 100.69035628525307,42.676046769593086 100.70350592880277,42.924249936237175 100.47996198880719,43.073171597963665 100.24326840526192,43.155905777319276 99.96712589118397,43.23863990147947 99.69098337704781,43.25518671965983 99.63838480290724,43.040077910845866 99.69098337704781,42.80842185358051 99.78303088177927,42.4774838789308 99.87507838651072,42.21273286391806 99.92767696059309,41.84869929613342 99.98027553467546,41.46811760640412 99.94082660408458,41.186817346584576 99.88822803000221,40.78968648253067 99.7304323076387,40.591120574033994 99.42799050651956,40.624214914190816 99.21759621001547,40.475290314047015 99.17814727942459,40.342912741645705 99.1518479923252,40.12779888541991 99.1518479923252,39.912684656381316 99.03350120061077,39.81340104026458 98.86255583469756,39.79685376321868 98.67846082529286,39.78030648393906 98.58641332061961,39.86304285827646 98.6127126076608,40.14434611838078 98.62586225121049,40.458743125192996 98.62586225121049,40.77313933564437 98.65216153825168,41.07098764247348 98.66531118180137,41.401929367326375 98.66531118180137,41.749417228733364 98.66531118180137,42.04726319276233 98.66531118180137,42.34510844197939 98.66531118180137,42.62640607672074 98.67846082529286,42.924249936237175 98.69161046884255,43.23863990147947 98.70476011239225,43.470295155733766 98.69161046884255,43.68540321900946 98.67846082529286,43.88396417728654 98.66531118180137,44.148711627567536 98.63901189476019,44.38036518331501 98.62586225121049,44.529285097938555 98.5995629641111,44.7774845587046 98.57326367706992,44.99259035655996 98.57326367706992,45.22424233734637 98.57326367706992,45.472440408448165 98.57326367706992,45.77027743862709 98.57326367706992,46.101206634004484 98.56011403357843,46.41558855235053 98.57326367706992,46.713423319473804 98.57326367706992,47.01125737198163 98.5995629641111,47.30909070981579 98.6127126076608,47.640015802608104 98.5995629641111,47.88820904317254 98.5995629641111,48.18604027685069 98.57326367706992,48.417686297885666 98.58641332061961,48.64933188661962 98.53381474647904,48.897523109095346 98.58641332061961,49.16225986610516 98.62586225121049,49.410450063041935 98.66531118180137,49.70827764430578 98.70476011239225,50.00610451099783 98.74420904298313,50.37011415544839 98.83625654765638,50.734122732435935 98.92830405232962,51.081584469291556 99.03350120061077,51.313225086865714 99.13869834883371,51.627593805074866 99.24389549705666,51.925416066857 99.3622422888293,52.17360073918826 99.42799050651956,52.28942008311424 99.50688836764311,52.50451286376483 99.62523515941575,52.73615082609467 99.67783373355633,52.9843338774881 99.717282664089,53.116697968718654 99.80933016882045,53.282152884276 99.95397624763427,53.3979711938955 100.03287410881603,53.579971176513936 100.15122090058867,53.728880054659385 100.2695676923613,53.92742494774575 100.36161519703455,54.12596952328022 100.54571020643925,54.307968438493845 100.72980521590216,54.52305772162072 100.90075058175717,54.77123720054078 101.07169594761217,55.01941618341516 101.22949166997569,55.2510494530361 101.29523988760775,55.36686592576734 101.40043703583069,55.59849854710046 101.5713824017439,55.86322101367114 101.72917812410742,56.0617624931474 101.91327313351212,56.37611918625771 102.04476956871804,56.57465984547889 102.20256529113976,56.855925235839095 102.36036101350328,57.12064502106659 102.5050070923171,57.368819307055674 102.7022517452715,57.68317269044928 102.86004746763501,57.94789071172272 103.04414247703971,58.22915299082524 103.22823748644441,58.51041463267029 103.39918285224121,58.79167563734518 103.5964275051956,59.12257012115151 103.75422322761733,59.370740405182005 103.964617524005,59.68508871951781 104.10926360281883,59.933257879114535 104.22761039459147,60.14833741611801 104.38540611695498,60.37996111625398 104.5432018393767,60.64467338719987 104.71414720523171,60.909385093749734 104.84564364055404,61.12446293972607 105.00343936291756,61.37262922208902 105.18753437226405,61.620795008399 105.37162938172696,61.88550463363936 105.51627546048257,62.15021369456372 105.6477718957467,62.39837792652543 105.81871726165991,62.71271857494867 106.0028122710064,63.01051424458274 106.16060799342813,63.27522090681305 106.33155335928313,63.57301522722992 106.55509729927871,63.903896967705805 106.72604266519193,64.168601725185 106.87068874400575,64.38367392507644 107.02848446631106,64.66492162435316 107.19942983222427,64.94616868647427 107.37037519807927,65.26050288432452 107.55447020754218,65.57483628643968 107.6991162862978,65.85608128738386 107.84376236516982,66.15386941754696 107.98840844398364,66.4682005578943 108.09360559220659,66.76598721998744 108.17250345338834,67.09686045121634 108.21195238397922,67.27884035257739 108.10675523575628,67.41118920420558 108.0541566616157,67.52699433370435 108.13305452279747,67.44427639507194 108.26455095800338,67.42773280076653 108.35659846279304,67.6427993551406 108.4354963239748,67.90749614137894 108.54069347219774,68.18873585854453 108.65904026397038,68.50306184736837 108.77738705574302,68.83393044961122 108.88258420396596,69.1647981701899 108.97463170863921,69.41294838201429 109.06667921337066,69.69418468918593 109.1850260051433,69.97542035932565 109.29022315336624,70.24011217294174 109.39542030153098,70.50480342223454 109.47431816277094,70.73640780250571 109.52691673691152,70.96801175077417 109.60581459809327,71.24924453577842 109.71101174631622,71.5304766837653 109.81620889453916,71.84479421306605 109.90825639927061,72.12602501222136 110.00030390388565,72.39071224127838 110.1055010521086,72.70502759301598 110.18439891329035,72.93662786937057 110.31589534867089,73.25094183921465 110.42109249689383,73.51562667035614 110.52628964505857,73.79685368532228 110.64463643688941,74.0946227716122 110.74983358505415,74.34276313137525 110.84188108984381,74.57436035313003 110.92077895102557,74.80595714289666 111.05227538623149,75.02101091808436 111.10487396037206,75.13680895044672 111.14432289102115,75.30223452360951 111.10487396037206,75.53382995589345 110.94707823806675,75.56691498232249 110.78928251564503,75.36840469119488 110.63148679328151,75.1533515176634 110.42109249689383,74.85558497020975 110.18439891329035,74.57436035313003 109.90825639927061,74.26004973321687 109.63211388513446,74.04499464013497 109.40856994513888,73.79685368532228 109.14557707455242,73.54871223462396 108.93518277810654,73.28402747392101 108.71163883805275,73.08551353320945 108.4486459675245,72.83737066095637 108.19880274042953,72.5892272928395 107.93580986984307,72.3410834288079 107.6991162862978,72.09293906890525 107.44927305931924,71.84479421306605 107.18628018873278,71.6297349368906 106.91013767453842,71.43121835134662 106.62084551696898,71.298873784639 106.27895478520077,71.19961526702537 105.93706405343255,71.13344287792279 105.62147260870552,71.1003566701329 105.30588116403669,71.01764111209195 105.01658900635084,70.95146862594265 104.70099756168202,70.88529610455589 104.38540611695498,70.83566669037828 104.06981467228616,70.80258040325134 103.68847500998527,70.68677832883259 103.46493106993148,70.62060566638684 103.30713534762617,70.58751932186715 103.12304033822147,70.55443296864541 102.92579568526708,70.50480342223454 102.71540138876298,70.48826023571746 102.53130637935828,70.4551738559312 102.34721136989538,70.42208746742108 102.16311636049068,70.38900107009249 101.952722064103,70.33937145751406 101.7554774111486,70.28974182513775 101.55823275819421,70.2235689510926 101.3872873923392,70.17393927242665 101.03224701702129,70.00850686689955 100.70350592880277,69.87616078380233 100.34846555354306,69.76035784534906 100.11177196999779,69.71072798155365 99.78303088177927,69.61146819438 99.46743943705224,69.51220832784747 99.12554870528402,69.41294838201429 98.78365797363222,69.31368835678586 98.4286175982561,69.21442825221311 98.17877437121933,69.11516806828149 97.77113542181905,69.04899456829298 97.42924469005084,68.88356066391134 97.13995253236499,68.78430021546956 96.9427078794688,68.71812653914094 96.66656536533264,68.60232252064452 96.33782427711412,68.5196052984029 96.035382475995,68.3541706886972 95.70664138771826,68.15564886607899 95.40419958654093,67.95712672601076 95.11490742885508,67.7089736045964 94.8913634889177,67.42773280076653 94.68096919247182,67.14649135978834 94.61522097478155,66.91488028313324 94.5231734701083,66.69981246786483 94.39167703472776,66.48474428006739 94.27333024301333,66.28621946839121 94.14183380774921,66.08769433927228 94.01033737248508,65.78990605037689 93.83939200657187,65.47557319277985 93.66844664071687,65.12815174016578 93.51065091835335,64.74764141460037 93.31340626539895,64.36712992290995 93.11616161244456,63.9535291527136 92.94521624664776,63.65573574500013 92.80057016777573,63.34139748419693 92.64277444541221,62.99397005942592 92.47182907955721,62.59690895498352 92.28773407015251,62.19984658057365 92.09048941719811,61.81932728026004 91.90639440779341,61.422262418986065 91.72229939838871,61.05828518067574 91.52505474543432,60.69430687516433 91.3672590230708,60.313782960307435 91.1831640136661,59.933257879114535 91.03851793485228,59.61891019320319 90.86757256899728,59.238382982090116 90.70977684663376,58.940578264206124 90.59143005486112,58.70895187857968 90.51253219367936,58.39460109265201 90.36788611486554,58.01407012883283 90.27583861013409,57.650082898115215 90.19694074906874,57.25300470198272 90.13119253132027,56.95519522142422 90.0917436007876,56.62429496067489 90.03914502664702,56.2106683944221 90.01284573960584,55.8797661491335 89.97339680901496,55.466137102142966 89.92079823487438,55.13523287224962 89.8813493042835,54.7877824815223 89.8944989478332,54.44033111831959 89.85505001730053,54.05978803332982 89.86819966073381,53.71233463259705 89.8944989478332,53.38142572771176 89.8813493042835,53.03397042825236 89.8813493042835,52.68651415628119 89.78930179966846,52.28942008311424 89.73670322546968,51.925416066857 89.7104039384285,51.52831955899455 89.68410465132911,51.21395058938651 89.67095500789583,50.833397613678244 89.63150607724674,50.552118577332294 89.56575785961468,50.23774713550665 89.57890750310617,49.80755334596324 89.65780536428792,49.46008804286248 89.68410465132911,49.07952969019243 89.68410465132911,48.84788490430219 89.6972542948788,48.599693582546024 89.7235535819782,48.48387079589884 89.67095500789583,48.21913259203575 89.63150607724674,47.90475524155045 89.60520679014735,47.57383085462061 89.57890750310617,47.24290558537177 89.56575785961468,46.978164734762686 89.5263089290238,46.59759877273609 89.44741106784204,46.200485220586415 89.43426142429234,45.8199168741703 89.40796213730937,45.42280083391233 89.38166285015177,45.15805610126699 89.34221391956089,44.7774845587046 89.28961534553673,44.479645146297116 89.28961534553673,44.264538459487085 89.30276498902822,43.91705763943173 89.30276498902822,43.58612262074166 89.28961534553673,43.25518671965983 89.25016641494585,42.973890509980265 89.19756784080528,42.62640607672074 89.17126855370589,42.29546761677193 89.18441819725558,41.9314342916914 89.21071748435497,41.63358804971358 89.17126855370589,41.253005700345966 89.11866997956531,40.93861070548155 89.09237069252413,40.57457340067049 89.09237069252413,40.276723902556114 89.11866997956531,40.16089334914432 89.131819623115,39.94577917742572 89.09237069252413,39.7141173448108 89.07922104903264,39.416265781736 89.02662247489206,39.13496087138628 88.94772461376851,38.77091827629192 88.93457497016061,38.40687461330526 88.92142532666912,38.059377393496106 88.92142532666912,37.744974308610836 88.89512603956973,37.314737217573565 88.85567710903706,37.06652283274889" stroke="#4DD2FF" stroke-dasharray="none" stroke-linecap="round" stroke-linejoin="round" stroke-width="0.5"><title>2017-11-19 11.8km</title><desc>9223370525802103807</desc></polyline><polyline fill="none" opacity="0.5" points="187.54138398938812,63.73016605316661 187.5999999998603,64.425160632818 187.5999999998603,65.53715035278583 187.5999999998603,66.0236452333047 187.36553595680743,66.92713472119067 187.07245590235107,67.90012193983421 185.95875169616193,68.10861900402233 185.255359566072,68.17811800987693 184.4933514248114,67.96962096903007 183.49687924026512,68.10861900402233 182.55902306665666,68.10861900402233 181.62116689281538,68.17811800987693 180.56607869756408,68.10861900402233 179.8040705563035,67.96962096903007 178.9834464045707,67.96962096903007 178.22143826354295,67.96962096903007 177.3421981006395,67.76112385862507 176.52157394844107,66.99663385830354 175.5837177745998,66.92713472119067 174.82170963380486,66.85763557621976 173.88385345996358,66.57963891886175 173.1218453189358,66.7186372630531 172.3012211669702,66.64913809474092 171.36336499336176,66.7186372630531 170.54274084139615,66.51013973512454 169.6635006784927,66.64913809474092 168.72564450465143,66.78813642339082 167.72917232010514,66.44064054382034 166.90854816813953,66.30164213792887 166.20515603781678,66.16264370107092 165.384531886084,66.16264370107092 164.62252374505624,65.88464673480485 163.7432835821528,65.88464673480485 162.9226594301872,65.74564820510568 162.21926729986444,65.95414598792559 160.98833107203245,65.39815174596151 159.99185888725333,65.25915310822893 159.05400271364488,65.18965377786662 157.99891451839358,65.25915310822893 157.58860244229436,65.32865243108245 156.47489823610522,65.60664964455646 155.0681139754597,64.98115574021358 154.07164179091342,64.14716289372882 153.19240162800997,64.35566120949807 152.19592944346368,64.00816397793824 151.3166892810259,63.869165030890144 150.61329715070315,64.00816397793824 149.9099050203804,63.7996655459865 149.20651289005764,63.52166752866469 148.3272727271542,63.59116704465123 147.56526458612643,63.938664508285 146.27571234712377,63.52166752866469 145.57232021703385,63.1046702710446 145.22062415187247,62.34017457580194 144.75169606506824,61.575677945744246 144.6930800541304,60.463681178574916 144.81031207600608,59.49068238417385 144.81031207600608,58.378681907604914 144.6930800541304,57.40567986789392 144.6930800541304,56.0851746769622 144.51723202154972,55.39017082436476 144.39999999990687,54.34766359644709 144.6344640434254,53.37465528177563 144.6344640434254,52.540646949375514 144.8689280867111,51.845639155537356 144.6930800541304,50.942127868242096 144.98616010835394,49.96911425224971 144.92754409764893,48.92659798276145 145.10339213022962,48.30108738626586 145.16200814116746,47.05006431584479 145.10339213022962,45.93804170633666 145.16200814116746,44.9650203002966 145.22062415187247,44.20050241862191 145.39647218445316,43.296980080136564 145.57232021703385,42.32395456265658 145.39647218445316,41.3509275301476 145.39647218445316,40.65590729378164 145.27924016257748,39.821881990123075 145.39647218445316,40.65590729378164 145.39647218445316,41.3509275301476 145.57232021703385,42.32395456265658 145.39647218445316,43.296980080136564 145.22062415187247,44.20050241862191 145.16200814116746,44.9650203002966 145.10339213022962,45.93804170633666 145.16200814116746,47.05006431584479 145.10339213022962,48.30108738626586 144.92754409764893,48.92659798276145 144.98616010835394,49.96911425224971 144.6930800541304,50.942127868242096 144.8689280867111,51.845639155537356 144.6344640434254,52.540646949375514 144.6344640434254,53.37465528177563 144.39999999990687,54.34766359644709 144.51723202154972,55.39017082436476 144.6930800541304,56.0851746769622 144.6930800541304,57.40567986789392 144.81031207600608,58.378681907604914 144.81031207600608,59.49068238417385 144.6930800541304,60.463681178574916 144.75169606506824,61.575677945744246 145.22062415187247,62.34017457580194 145.57232021703385,63.1046702710446 146.27571234712377,63.52166752866469 147.56526458612643,63.938664508285 148.3272727271542,63.59116704465123 149.20651289005764,63.52166752866469 149.9099050203804,63.7996655459865 150.61329715070315,64.00816397793824 151.3166892810259,63.869165030890144 152.19592944346368,64.00816397793824 153.19240162800997,64.35566120949807 154.07164179091342,64.14716289372882 155.0681139754597,64.98115574021358 156.47489823610522,65.60664964455646 157.58860244229436,65.32865243108245 157.99891451839358,65.25915310822893 159.05400271364488,65.18965377786662 159.99185888725333,65.25915310822893 160.98833107203245,65.39815174596151 162.21926729986444,65.95414598792559 162.9226594301872,65.74564820510568 163.7432835821528,65.88464673480485 164.62252374505624,65.88464673480485 165.384531886084,66.16264370107092 166.20515603781678,66.16264370107092 166.90854816813953,66.30164213792887 167.72917232010514,66.44064054382034 168.72564450465143,66.78813642339082 169.6635006784927,66.64913809474092 170.54274084139615,66.51013973512454 171.36336499336176,66.7186372630531 172.3012211669702,66.64913809474092 173.1218453189358,66.7186372630531 173.88385345996358,66.57963891886175 174.82170963380486,66.85763557621976 175.5837177745998,66.92713472119067 176.52157394844107,66.99663385830354 177.3421981006395,67.76112385862507 178.22143826354295,67.96962096903007 178.9834464045707,67.96962096903007 179.8040705563035,67.96962096903007 180.56607869756408,68.10861900402233 181.62116689281538,68.17811800987693 182.55902306665666,68.10861900402233 183.49687924026512,68.10861900402233 184.4933514248114,67.96962096903007 185.255359566072,68.17811800987693 185.95875169616193,68.10861900402233 187.07245590235107,67.90012193983421 187.36553595680743,66.92713472119067 187.5999999998603,66.0236452333047 187.5999999998603,65.53715035278583 187.5999999998603,64.425160632818 187.54138398938812,63.73016605316661 187.5999999998603,62.8266719445819 187.5999999998603,62.06217590958113 187.48276797845028,61.08917960344115 187.42415196751244,60.3941813147394 187.5999999998603,59.83818212756887 187.36553595680743,59.00418241909938 187.42415196751244,58.309181812102906 187.42415196751244,57.127679006778635" stroke="#4DD2FF" stroke-dasharray="1,0.5" stroke-linecap="round" stroke-linejoin="round" stroke-width="0.5"><title>2014-03-22 10.5km</title><desc>9223370641410674807</desc></polyline><polyline fill="none" opacity="1" points="55.59999999997672,99.46426297642756 55.45496866607573,99.4760301560018 55.30993733217474,99.45249579547817 55.17457475379342,99.4760301560018 55.03921217547031,99.523098859936 54.91351835272508,99.523098859936 54.78782453003805,99.6054690369856 54.642793196078856,99.62900336046005 54.507430617755745,99.59370187311288 54.36239928379655,99.57016754109645 54.23670546110952,99.55840037296002 54.13034914952004,99.61723619941768 53.99498657119693,99.59370187311288 53.87896150408778,99.57016754109645 53.74359892576467,99.59370187311288 53.608236347383354,99.57016754109645 53.51154879142996,99.4995645108138 53.40519247989869,99.48779733412812 53.279498657153454,99.4995645108138 53.15380483440822,99.53486603234342 53.008773500449024,99.53486603234342 52.892748433339875,99.54663320336113 52.76705461059464,99.4995645108138 52.61235452105757,99.51133168610977 52.5059982095263,99.523098859936 52.351298119989224,99.523098859936 52.21593554166611,99.523098859936 52.10957923007663,99.523098859936 51.964547896175645,99.523098859936 51.83885407343041,99.51133168610977 51.722829006263055,99.4995645108138 51.606803939153906,99.48779733412812 51.49077887198655,99.4760301560018 51.365085049241316,99.51133168610977 51.23939122649608,99.51133168610977 51.11369740375085,99.4995645108138 50.988003581005614,99.4760301560018 50.86230975826038,99.45249579547817 50.77529095794307,99.45249579547817 50.630259623983875,99.45249579547817 50.494897045660764,99.4760301560018 50.36920322291553,99.4760301560018 50.243509400170296,99.46426297642756 50.108146821847185,99.4289614292793 49.99212175473804,99.45249579547817 49.866427931934595,99.45249579547817 49.71172784245573,99.44072861309542 49.60537153092446,99.4054270573688 49.45067144132918,99.39365986925986 49.3056401074864,99.4289614292793 49.150940017891116,99.4289614292793 49.03491495078197,99.44072861309542 48.88988361688098,99.4289614292793 48.77385854971362,99.4289614292793 48.63849597139051,99.44072861309542 48.53213965985924,99.4289614292793 48.4064458370558,99.41719424402254 48.28075201436877,99.44072861309542 48.15505819156533,99.4289614292793 48.029364368878305,99.4289614292793 47.92300805734703,99.45249579547817 47.78764547902392,99.46426297642756 47.68128916743444,99.46426297642756 47.55559534468921,99.46426297642756 47.39122649957426,99.45249579547817 47.28487018804299,99.45249579547817 47.130170098505914,99.45249579547817 47.0431512981304,99.45249579547817 46.91745747538516,99.45249579547817 46.79176365269814,99.44072861309542 46.6660698299529,99.45249579547817 46.530707251571584,99.41719424402254 46.414682184462436,99.41719424402254 46.26965085050324,99.4054270573688 46.13428827218013,99.4054270573688 46.008594449434895,99.39365986925986 45.90223813790362,99.39365986925986 45.766875559522305,99.4289614292793 45.61217547004344,99.45249579547817 45.49615040287608,99.4289614292793 45.36078782455297,99.41719424402254 45.23509400180774,99.4054270573688 45.11906893464038,99.38189267971757 44.96436884510331,99.4054270573688 44.84834377799416,99.38189267971757 44.703312444034964,99.37012548879284 44.56794986571185,99.37012548879284 44.432587287330534,99.4054270573688 44.30689346464351,99.39365986925986 44.152193375106435,99.35835829644202 44.00716204120545,99.33482390743302 43.88146821846021,99.32305671076756 43.746105640078895,99.28775511230197 43.610743061755784,99.29952231320931 43.494717994646635,99.31128951271967 43.3690241719014,99.33482390743302 43.252999104734045,99.34659110266512 43.12730528204702,99.39365986925986 43.00161145924358,99.39365986925986 42.866248880920466,99.38189267971757 42.74055505823344,99.37012548879284 42.63419874670217,99.35835829644202 42.50850492389873,99.38189267971757 42.3828111012117,99.37012548879284 42.266786034044344,99.39365986925986 42.12175470008515,99.35835829644202 41.97672336618416,99.38189267971757 41.87036705465289,99.35835829644202 41.73500447627157,99.35835829644202 41.609310653584544,99.35835829644202 41.502954341995064,99.32305671076756 41.36759176367195,99.29952231320931 41.222560429770965,99.31128951271967 41.07752909581177,99.32305671076756 40.93249776191078,99.29952231320931 40.816472694743425,99.31128951271967 40.681110116420314,99.31128951271967 40.53607878246112,99.29952231320931 40.410384959715884,99.29952231320931 40.28469113697065,99.31128951271967 40.13965980306966,99.32305671076756 40.004297224688344,99.34659110266512 39.888272157579195,99.31128951271967 39.76257833483396,99.27598790997581 39.62721575651085,99.28775511230197 39.501521933765616,99.26422070619446 39.3661593553843,99.27598790997581 39.25013428827515,99.29952231320931 39.134109221166,99.27598790997581 38.99874664284289,99.25245350101613 38.85371530888369,99.25245350101613 38.73769024171634,99.25245350101613 38.59265890775714,99.22891908636666 38.495971351861954,99.20538466601283 38.37027752905851,99.20538466601283 38.23491495079361,99.20538466601283 38.138227394840214,99.22891908636666 37.99319606088102,99.21715187688824 37.85783348255791,99.22891908636666 37.732139659812674,99.26422070619446 37.587108325911686,99.26422070619446 37.451745747588575,99.27598790997581 37.35505819157697,99.24068629441899 37.21969561325386,99.24068629441899 37.094001790566836,99.24068629441899 36.987645479035564,99.21715187688824 36.83294538944028,99.24068629441899 36.70725156675326,99.22891908636666 36.55255147715798,99.21715187688824 36.42685765447095,99.22891908636666 36.330170098517556,99.21715187688824 36.088451208604965,99.22891908636666 35.808057296380866,99.21715187688824 35.595344673260115,99.18185023996921 35.37296329456149,99.18185023996921 34.93786929274211,99.24068629441899 34.667144136095885,99.17008302481554 34.49310653534485,99.14654859018628 34.15470008953707,99.17008302481554 33.99033124442212,99.12301414991089 33.83563115488505,99.11124692764861 33.545568487083074,99.15831580820668 33.26517457474256,99.19361745371134 33.0137869293103,99.29952231320931 32.810743061767425,99.27598790997581 28.99158460163744,99.0641780242222 28.769203222938813,99.0641780242222 28.527484333026223,99.02887633175123 28.2084153983742,99.11124692764861 27.957027752883732,99.0406435640034 27.695971351873595,98.99357462641638 27.347896150429733,98.99357462641638 24.21521933755139,98.95827290829038 23.983169203216676,98.9818073884453 23.673769024200737,98.95827290829038 23.45138764550211,98.92297117729322 23.20000000001164,98.82883316536754 22.90026857657358,98.91120393078745 22.581199641921557,98.92297117729322 22.35881826316472,98.93473842236563 19.854610564012546,98.89943668287015 19.525872873782646,98.89943668287015 19.361504028667696,98.89943668287015 19.197135183552746,98.92297117729322 19.148791405605152,98.86413493054715 19.003760071645956,98.87590218272817 18.675022381416056,98.88766943352675 18.549328558670823,98.8170659074749 18.288272157602478,98.79353138743318 18.075559534481727,98.8170659074749 17.87251566699706,98.8170659074749 17.727484333037864,98.78176412524772 16.692927484342363,98.80529864816344 16.3931960609043,98.8170659074749 16.16114592656959,98.73469506228139 15.93876454787096,98.78176412524772 15.590689346485306,98.76999686161435 15.358639212150592,98.80529864816344 15.136257833510172,98.85236767693277 14.875201432441827,98.79353138743318 14.604476275737397,98.76999686161435 14.372426141460892,98.75822959661309 14.063025962386746,98.73469506228139 13.879319606116042,98.73469506228139 13.66660698299529,98.7464623301421 13.20250671444228,98.76999686161435 13.00913160253549,98.66409142511839 12.989794091321528,98.93473842236563 13.018800358113367,99.14654859018628 13.057475380483083,99.32305671076756 12.970456580165774,99.523098859936 12.854431512998417,99.54663320336113 12.873769024212379,99.24068629441899 12.670725156669505,99.25245350101613 12.506356311554555,99.4289614292793 12.438675022393,99.57016754109645 12.419337511179037,99.75844203773158 12.467681289184839,100.08792152928072 12.487018800340593,100.33503041504446 12.60304386750795,100.68804201915191 12.612712623085827,100.92338237630611 12.670725156669505,101.19402308257122 12.699731423461344,101.42936221463606 12.757743957045022,101.59409926804074 12.786750223836862,101.82943743144278 12.786750223836862,102.10007561494422 12.806087734992616,102.37071304494748 12.854431512998417,102.65311651628872 12.854431512998417,102.92375240648107 12.864100268576294,103.19438754312432 12.883437779790256,103.4650219262985 12.864100268576294,103.71212222675967 12.864100268576294,104.01805506182427 12.8157564906287,104.24162075544882 12.835094001784455,104.54755192400626 12.8157564906287,104.735816779983 12.854431512998417,105.0064468716082 12.84476275742054,105.2535432537552" stroke="#4DD2FF" stroke-dasharray="none" stroke-linecap="round" stroke-linejoin="round" stroke-width="0.5"><title>2013-12-10 10.9km</title><desc>9223370650177580807</desc></polyline><polyline fill="none" opacity="1" points="110.79815081134439,90.90817924076691 110.55819190572947,88.2811387181282 109.1184384636581,85.07030752976425 105.99897267390043,83.02704909676686 102.1596301626414,80.6918944849167 98.80020546540618,80.6918944849167 96.40061639528722,81.85947207268327 93.28115060459822,83.90273149451241 91.12152044195682,88.2811387181282 91.12152044195682,91.78385877958499 89.92172590829432,95.87035909830593 89.4418080933392,98.49739136477001 88.48197246622294,102.58388032088988 88.7219313737005,106.37847101641819 88.00205465313047,109.29738287813962 88.00205465313047,113.09196302411146 88.00205465313047,116.01086677075364 89.20184918679297,118.34598722797818 91.60143825691193,121.84866367932409 94.48094513919204,123.01622136775404 98.32028765138239,123.60000000009313 101.91967125423253,122.43244259478524 103.8393425103277,119.80543636670336 106.47889048792422,117.47031732159667 108.15860283561051,113.38385355728678 108.15860283561051,110.17305574938655 109.35839737113565,106.08657963620499 109.83831518515944,102.87577212415636 110.55819190572947,99.08117592497729 111.51802753377706,94.70278828428127 111.51802753377706,92.07575188926421 111.27806862723082,87.69735154649243 110.07827409170568,84.19462555623613 108.6385206496343,81.85947207268327 105.27909595239908,80.98378893476911 102.87950688321143,80.4000000001397 99.04016437195241,80.6918944849167 95.92069858126342,82.44326065597124 92.80123279150575,85.36220145085827 90.40164372138679,88.57303225062788 90.16168481484056,92.36764496355318 89.68176699988544,95.87035909830593 89.20184918679297,99.37306815129705 88.48197246622294,102.58388032088988 88.48197246622294,106.37847101641819 88.00205465313047,110.17305574938655 88.48197246622294,113.96763451839797 88.96189027931541,117.47031732159667 91.12152044195682,119.80543636670336 94.00102732609957,121.55677416943945 97.3604520233348,122.43244259478524 101.19979453459382,122.1405531547498 105.03913704585284,119.51354661001824 107.43872611504048,117.17842728225514 108.15860283561051,112.80007245577872 108.87847955618054,108.71360078873113 109.35839737113565,104.33523061382584 109.83831518515944,100.83252875739709 110.55819190572947,97.62171426019631 111.99794534686953,93.53521690587513 111.51802753377706,90.03249938436784" stroke="#4DD2FF" stroke-dasharray="none" stroke-linecap="round" stroke-linejoin="round" stroke-width="0.5"><title>2013-11-30 10.3km</title><desc>9223370651086224807</desc></polyline><polyline fill="none" opacity="1" points="173.01230359636247,82.6012937091291 170.2978634936735,83.15161680453457 168.2620334168896,83.15161680453457 165.32138997409493,82.6012937091291 162.1545431893319,82.6012937091291 162.38074653036892,83.7019397658296 160.34491645358503,85.07774658850394 156.27325630094856,88.93000126630068 157.17806966789067,92.23192865797319 156.49945964291692,95.80901126144454 156.27325630094856,100.76188558526337 156.49945964291692,104.06379581429064 153.55881619919091,107.36570125445724 154.46362956706434,109.8421271899715 155.82084961794317,112.31855043233372 155.82084961794317,116.17075901036151 156.49945964291692,118.37201812700368 157.40427300985903,119.47264688764699 159.44010308664292,122.22421646025032 162.83315321430564,122.22421646025032 166.67861002590507,123.60000000009313 167.58342339284718,121.6739028126467 171.20267686247826,119.74780399515294 174.8219303302467,115.89560147118755 175.72674369905144,114.51981327589601 177.53637043293566,112.04339242749847 176.85776040703058,106.8153840135783 176.17915038205683,105.71474913298152 176.4053537240252,101.86252286075614 177.762573774904,96.90965093066916 177.762573774904,95.80901126144454 176.17915038205683,92.78224942437373 178.44118379987776,90.30580492829904 176.85776040703058,89.20516206463799 175.2743370141834,86.72871367656626 173.23850693926215,83.7019397658296 171.4288802035153,83.15161680453457 168.4882367597893,80.4000000001397 163.9641699232161,82.6012937091291 160.79732313752174,85.90323028201237 157.85667969379574,88.93000126630068 156.72566298395395,90.85612616012804 156.49945964291692,95.25869122636504 158.0828830357641,99.38608824228868 156.27325630094856,102.96315960329957 155.36844293307513,105.43959032977 156.0470529589802,107.64085982413962 155.1422395920381,110.6676019039005 155.36844293307513,113.69433995871805 155.36844293307513,117.27138883504085 157.40427300985903,118.64717536675744 160.118713112548,120.57327511627227 163.5117632402107,121.94905965286307 166.4524066830054,122.77452997583896 169.61925346869975,122.22421646025032 172.3336935704574,120.02296106843278 174.8219303302467,117.27138883504085 176.4053537240252,113.41918211965822 176.63155706506222,110.3924436995294 176.85776040703058,107.36570125445724 176.85776040703058,104.06379581429064 176.17915038205683,100.76188558526337 176.85776040703058,97.45997056690976 177.08396374993026,94.70837105903774 177.98877711594105,91.40644725854509 177.53637043293566,88.37967956834473 176.17915038205683,85.62806908367202 174.3695236472413,83.7019397658296 172.3336935704574,82.87645527347922 169.16684678569436,82.05097048147582 166.4524066830054,82.05097048147582 163.28555989731103,83.7019397658296 161.47593316342682,84.25226259441115 159.44010308664292,86.45355257811025 157.85667969379574,88.37967956834473 157.63047635182738,91.40644725854509 156.72566298395395,95.25869122636504 157.17806966789067,98.28544977051206 156.49945964291692,102.13768209633417 156.49945964291692,104.06379581429064 156.0470529589802,108.46633533574641 154.68983290810138,112.31855043233372 155.1422395920381,116.17075901036151 156.49945964291692,118.09686085442081 160.34491645358503,119.19748974777758 163.5117632402107,121.3987459379714 166.67861002590507,121.3987459379714 170.07166015263647,119.74780399515294 172.3336935704574,118.09686085442081 174.14332030527294,115.07012865296565 175.72674369905144,111.21791821252555 175.50054035615176,107.64085982413962 176.17915038205683,104.33895478351042 176.17915038205683,100.76188558526337 176.85776040703058,97.45997056690976 177.08396374993026,93.6077303243801 178.21498045884073,89.48032283014618 177.08396374993026,87.55419677193277 175.04813367314637,85.62806908367202 172.3336935704574,83.97710119653493 168.2620334168896,82.87645527347922 164.64277994912118,83.15161680453457 161.9283398464322,84.80258529004641 159.21389974374324,87.27903577359393 158.0828830357641,90.0306442619767 157.63047635182738,92.78224942437373 156.49945964291692,96.90965093066916 156.72566298395395,100.21156674809754 156.72566298395395,102.41284129838459 156.27325630094856,105.9899079024326 156.27325630094856,110.11728546163067 155.5946462759748,113.41918211965822" stroke="#4DD2FF" stroke-dasharray="none" stroke-linecap="round" stroke-linejoin="round" stroke-width="0.5"><title>2013-11-16 10.4km</title><desc>9223370652294258807</desc></polyline><polyline fill="none" opacity="1" points="46.162303702905774,147.04118940443732 46.162303702905774,144.08227993012406 45.43256548140198,139.3480173314456 45.67581155523658,135.7973143735435 43.48659688886255,134.31785328662954 40.810890073888004,130.4712502779439 38.37842933367938,129.58357180282474 30.59455496352166,128.99178597261198 27.675602074712515,131.06303575029597 25.97287955507636,134.61374557600357 22.81068059336394,138.16445025079884 24.27015703730285,141.12336687929928 23.297172740101814,144.6740621116478 23.297172740101814,150.88776637450792 22.81068059336394,154.43844744330272 23.053926666267216,160.06034860108048 22.56743451859802,163.6110163643025 23.540418814867735,166.5699022328481 24.99989525973797,168.64112021238543 29.135078518651426,170.71233643963933 34.0,171.60000000009313 38.37842933367938,171.30411218269728 39.35141362901777,169.52878452418372 42.02712044399232,167.1616789775435 42.27036651875824,163.01923876185901 42.27036651875824,160.35623777890578 43.24335081502795,155.32611690624617 45.18931940756738,150.29598569567315 45.43256548140198,146.1535169382114 45.919057629071176,142.89871513913386 45.67581155523658,138.75623386260122 45.919057629071176,135.7973143735435 44.70282725803554,132.5424988034647 40.56764399912208,129.879464663798 36.91895288974047,128.99178597261198 33.270261778496206,128.99178597261198 29.378324592486024,130.4712502779439 26.7026177784428,132.24660626379773 25.486387407407165,136.38909855671227 23.783664888702333,141.12336687929928 23.783664888702333,144.08227993012406 23.540418814867735,146.74529861821793 22.81068059336394,150.88776637450792 23.053926666267216,154.73433729959652 22.81068059336394,157.69323389837518 23.053926666267216,162.72334990650415 24.02691096253693,165.09045974630862 26.459371704608202,167.1616789775435 31.081047111190856,171.00822432967834 34.972984296269715,171.00822432967834 38.62167540658265,169.82467255694792 40.810890073888004,168.64112021238543 43.48659688886255,165.38634831481613 44.216335110366344,162.72334990650415 43.973089036531746,158.58090218016878 44.459581185132265,153.8466676226817 45.43256548140198,150.88776637450792 46.162303702905774,147.33708015549928 46.162303702905774,143.7863887862768 46.405549777671695,139.64390901243314 45.919057629071176,135.7973143735435 43.72984296362847,132.5424988034647 41.054136148653924,130.4712502779439 36.91895288974047,128.4000000001397 33.270261778496206,128.99178597261198 29.864816741086543,130.4712502779439 26.7026177784428,131.95071368920617 24.02691096253693,134.90963782859035 23.297172740101814,140.23569226590917 23.540418814867735,143.7863887862768 23.053926666267216,147.33708015549928 24.51340311113745,150.88776637450792 22.81068059336394,156.50967568787746 22.080942370928824,160.35623777890578 22.81068059336394,164.2027938242536 23.053926666267216,166.27401380729862 26.7026177784428,168.64112021238543 29.621570666320622,170.12056055432186 34.486492147669196,170.71233643963933 37.89193718507886,170.12056055432186 41.054136148653924,168.64112021238543 43.24335081502795,165.68223684746772 43.973089036531746,162.13157208892517 44.94607333280146,158.58090218016878 45.43256548140198,155.0302271207329 45.67581155523658,151.77543712500483 46.162303702905774,148.81653337273747 46.405549777671695,145.26584414974786 46.89204192534089,139.3480173314456 46.405549777671695,135.7973143735435 44.70282725803554,133.13428377383389 41.54062829632312,130.4712502779439 38.864921481348574,129.2876789055299 34.0,128.69589300476946 31.081047111190856,129.58357180282474 28.40534029621631,130.76714303181507 25.97287955507636,133.13428377383389 24.99989525973797,134.31785328662954 24.27015703730285,135.7973143735435 25.486387407407165,139.3480173314456 25.243141333572567,140.82747537712567 24.756649184972048,144.9699531486258 23.297172740101814,149.1124239093624 22.56743451859802,152.3672174452804 22.080942370928824,157.39734439994209 21.10795807465911,159.46857014065608 21.837696296162903,160.94801602489315 23.297172740101814,163.90690511232242 25.97287955507636,165.68223684746772 28.40534029621631,168.93700835271738 31.56753925886005,169.82467255694792 32.78376962989569,170.41644851467572 37.64869111124426,171.60000000009313 40.56764399912208,170.71233643963933" stroke="#4DD2FF" stroke-dasharray="none" stroke-linecap="round" stroke-linejoin="round" stroke-width="0.5"><title>2013-11-03 10.7km</title><desc>9223370653417861807</desc></polyline><polyline fill="none" opacity="1" points="97.27726561017334,170.73600767669268 102.01245585177094,170.73600767669268 105.09032951015979,169.5840174248442 106.74764609336853,167.28003524802625 107.93144365400076,163.24806107999757 109.58876023907214,160.0800765901804 109.82551975175738,155.7600909504108 109.58876023907214,152.01609706040472 110.77255779877305,148.27209728653543 111.48283633589745,145.39209345774725 111.71959584765136,142.5120861462783 111.9563553603366,138.48007006268017 111.48283633589745,133.2960393568501 109.35200072731823,129.84001261997037 106.98440560605377,129.2640076763928 103.90653194859624,130.41601742454804 100.35513926763088,130.12801503995433 97.51402512192726,130.41601742454804 94.67291097715497,132.14403100241907 92.77883488032967,135.3120526385028 91.35827780794352,138.1920686531812 91.59503732062876,143.37608870584518 90.88475878350437,145.96809450211003 90.1744802473113,149.712097896263 89.46420171111822,153.4560954067856 88.51716366223991,155.7600909504108 88.28040415141732,159.2160800890997 88.28040415141732,162.96006266516633 89.70096122287214,167.28003524802625 92.77883488032967,169.5840174248442 97.27726561017334,171.31200259411708 100.59189877938479,171.60000000009313 104.3800509730354,170.16001262003556 107.69468414224684,167.28003524802625 108.16820316575468,162.6720642137807 110.29903877526522,158.06408426584676 110.53579828795046,154.60809345706366 110.53579828795046,151.44009747868404 110.77255779877305,147.1200961722061 111.00931731145829,142.80008703446947 112.19311487209052,139.0560727783013 112.42987438477576,135.3120526385028 110.29903877526522,132.7200352489017 108.87848170287907,130.41601742454804 105.80060804635286,128.9760051521007 102.01245585177094,128.4000000001397 98.22430365905166,129.2640076763928 94.90967048984021,129.84001261997037 89.70096122287214,133.8720433257986 88.99068268761039,135.0240508459974 88.99068268761039,136.46405946207233 90.1744802473113,139.63207535468973 89.93772073462605,143.66408948926255 88.51716366223991,147.69609680003487 88.51716366223991,150.57609784416854 87.57012561522424,154.32009399705566 87.57012561522424,157.48808614653535 87.80688512697816,160.65607408294454 87.57012561522424,163.5360594613012 89.22744219843298,166.7040393569041 91.35827780794352,169.00802208902314 94.19939195271581,169.87201503990218 97.9875441454351,169.5840174248442 102.01245585177094,168.72002436965704 106.51088658254594,166.99203731981106 108.40496267937124,164.4000543965958 110.29903877526522,160.65607408294454 109.82551975175738,156.62408870481886 110.29903877526522,152.59209650335833 110.53579828795046,149.13609775714576 110.77255779877305,145.39209345774725 111.00931731145829,141.93608426721767 112.19311487209052,139.34407408325933 111.9563553603366,135.3120526385028 109.35200072731823,132.7200352489017 106.74764609336853,130.70401977421716 102.72273438796401,129.55201016529463 99.6448607314378,129.2640076763928" stroke="#4DD2FF" stroke-dasharray="none" stroke-linecap="round" stroke-linejoin="round" stroke-width="0.5"><title>2013-11-02 10.5km</title><desc>9223370653505000807</desc></polyline><polyline fill="none" opacity="1" points="176.65418834704906,147.0301024664659 176.65418834704906,144.33009724435396 176.87615060433745,142.4400916469749 176.2102638334036,139.20007833116688 175.54437706060708,134.88005326571874 173.32475448958576,131.1000244792085 172.21494320314378,130.29001747770235 168.88550934474915,128.94000515691005 166.2219622572884,128.94000515691005 162.6705661425367,130.56001984444447 159.78505679685622,132.45003549358808 157.5654342258349,135.15005507646129 156.01169842481613,138.12007284793071 156.45562293939292,142.98009340977296 156.67758519575,145.68010026379488 156.23366068210453,149.19010429433547 156.01169842481613,151.35010403278284 156.01169842481613,152.97010246641003 155.56777391023934,155.67009724397212 155.12384939659387,158.6400877290871 156.23366068210453,162.15007139416412 157.5654342258349,164.85005507571623 160.67290582694113,167.0100396713242 164.22430194169283,168.3600289823953 167.7756980592385,168.3600289823953 169.77335837297142,167.82003335561603 172.65886771772057,165.66004954348318 174.6565280323848,162.96006684168242 175.54437706060708,159.18008557590656 175.54437706060708,155.94009654247202 175.7663393188268,152.70010280935094 175.54437706060708,149.46010437584482 175.54437706060708,146.49010168295354 176.43222609069198,142.98009340977296 176.87615060433745,140.01008210144937 176.43222609069198,137.31006839242764 175.32241480425,134.34004954481497 173.99064126145095,132.72003759886138 170.4392451448366,130.56001984444447 167.7756980592385,128.4000000001397 165.3341132281348,129.48001018329524 162.0046793706715,130.8300221778918 159.78505679685622,132.45003549358808 158.67524551134557,135.69005860155448 158.2313209977001,138.12007284793071 157.7873964831233,141.63008875912055 156.45562293939292,144.33009724435396 156.01169842481613,146.76010209089145 156.23366068210453,150.81010429398157 157.7873964831233,154.32010026299395 154.90188713837415,155.13009854895063 155.12384939659387,156.21009580790997 154.45796262472868,157.56009164638817 154.90188713837415,163.23006525845267 160.22898131329566,166.20004569296725 165.77803774364293,167.55003549298272 167.1098112873733,167.55003549298272 169.10747160110623,167.55003549298272 171.77101868763566,168.3600289823953 173.99064126145095,164.0400603134185 174.6565280323848,162.96006684168242 174.8784902896732,160.5300796192605 175.54437706060708,159.18008557590656 173.54671674594283,158.91008666879497 174.8784902896732,158.10008975397795 176.2102638334036,155.94009654247202 175.9883015761152,150.81010429398157 176.2102638334036,149.46010437584482 175.7663393188268,146.2201012421865 176.2102638334036,142.1700907170307 175.7663393188268,136.7700652598869 175.32241480425,133.26004171161912 173.54671674594283,129.75001264712773 169.55139611661434,129.48001018329524 165.77803774364293,129.21000768686645 162.6705661425367,130.56001984444447 159.78505679685622,132.72003759886138 156.67758519575,133.26004171161912 156.45562293939292,137.58006991050206 156.23366068210453,140.55008445074782 156.01169842481613,144.0600965428166 154.90188713837415,147.57010311936028 155.34581165295094,151.62010385282338 155.12384939659387,155.13009854895063 154.90188713837415,159.18008557590656 154.90188713837415,161.61007426702417 158.45328325405717,165.66004954348318 164.00233968626708,168.63002674723975 166.44392451550812,169.98001507879235 169.32943385839462,171.60000000009313 173.32475448958576,167.82003335561603 175.1004525469616,162.69006839231588 175.54437706060708,159.7200832911767 175.54437706060708,158.6400877290871 175.1004525469616,153.24010209064 174.8784902896732,148.92010417976417 175.32241480425,146.2201012421865 175.54437706060708,142.98009340977296 177.09811286255717,138.93007700890303 175.7663393188268,135.96006031497382 174.43456577509642,134.34004954481497 172.88082997407764,130.8300221778918 170.21728288847953,130.02001507859677 166.0,129.75001264712773 162.0046793706715,130.56001984444447 159.78505679685622,130.8300221778918 156.89954745396972,132.72003759886138 154.90188713837415,135.69005860155448 154.67992488108575,138.39007426798344 155.34581165295094,139.7400808769744 154.23600036650896,142.71009254432283 154.67992488108575,145.95010076928884 154.90188713837415,147.57010311936028 154.45796262472868,150.27010442432947 154.90188713837415,153.78010124200955 154.67992488108575,157.02009340864606 154.90188713837415,161.34007565444335 157.5654342258349,166.20004569296725 161.7827171124518,168.63002674723975 163.11449065618217,168.3600289823953 166.0,169.98001507879235 167.99766031466424,169.1700221770443 171.1051319167018,171.33000259427354 173.32475448958576,168.63002674723975 174.8784902896732,162.42006990942173 173.99064126145095,158.37008875748143 175.1004525469616,151.35010403278284 174.8784902896732,147.0301024664659 174.8784902896732,145.68010026379488 176.43222609069198,142.98009340977296 177.76399963349104,140.82008557626978 177.09811286255717,136.7700652598869 175.32241480425,132.1800333559513 173.10279223136604,129.75001264712773 169.9953206302598,128.6700025945902 166.0,128.94000515691005 161.1168303405866,130.56001984444447 157.1215097112581,132.1800333559513 156.67758519575,133.53004371840507 155.56777391023934,134.61005142168142 155.78973616752774,137.04006684245542 156.01169842481613,138.6600756549742 156.23366068210453,142.1700907170307 156.23366068210453,143.5200950417202 156.23366068210453,147.84010339644738 156.01169842481613,149.19010429433547 155.12384939659387,151.62010385282338 155.78973616752774,155.13009854895063 154.90188713837415,156.21009580790997 155.12384939659387,161.07007700833492 156.23366068210453,162.15007139416412 156.23366068210453,163.50006364332512 158.45328325405717,165.66004954348318 162.6705661425367,168.63002674723975 167.1098112873733,170.52001018356532 170.4392451448366,169.710017477395 171.99298094585538,168.09003118495457 175.32241480425,163.77006199466996 174.8784902896732,159.18008557590656 174.43456577509642,152.97010246641003 176.2102638334036,152.1601033960469 176.65418834704906,147.3001028096769 176.87615060433745,146.49010168295354 175.9883015761152,142.71009254432283 176.87615060433745,138.93007700890303 175.54437706060708,134.34004954481497 173.54671674594283,132.1800333559513 172.21494320314378,128.94000515691005 166.2219622572884,129.21000768686645 162.0046793706715,130.02001507859677 159.34113228321075,132.1800333559513 157.3434719676152,134.34004954481497 156.23366068210453,136.50006364448927 156.89954745396972,138.39007426798344 157.1215097112581,140.01008210144937 156.89954745396972,143.5200950417202 156.01169842481613,144.6000979137607 155.56777391023934,147.0301024664659" stroke="#4DD2FF" stroke-dasharray="none" stroke-linecap="round" stroke-linejoin="round" stroke-width="0.5"><title>2013-10-26 11.1km</title><desc>9223370654110301807</desc></polyline><polyline fill="none" opacity="1" points="40.19157276768237,213.6316262029577 42.5280153201893,209.6527019208297 43.462592341937125,206.52639954793267 44.163525108247995,202.26325324806385 44.63081361912191,199.13694104878232 43.92988085281104,197.14746748516336 44.39716936275363,193.1685153071303 44.163525108247995,191.17903669271618 43.462592341937125,189.75797950988635 43.22894808650017,187.76849800907075 42.5280153201893,183.78952995873988 41.126149787567556,180.3789805562701 36.9205531924963,178.67370399925858 33.649533617310226,178.10527820512652 29.67758127581328,180.66319319489412 27.574782977811992,181.51583090610802 25.00469616893679,184.3579543782398 23.135542125441134,187.76849800907075 24.537407658062875,190.32640248560347 25.238340423442423,193.1685153071303 25.238340423442423,196.86325683817267 24.30376340262592,199.9895720607601 23.836474891752005,203.68430287321098 23.602830636315048,206.81060902611353 24.537407658062875,208.23165590292774 23.836474891752005,212.77900013769977 25.939273189753294,215.62108581862412 28.275715744122863,217.89475188939832 31.079446808435023,218.46316806343384 34.350466382689774,217.89475188939832 38.32241872418672,216.18950254260562 41.59343829937279,213.91583482245915 42.5280153201893,209.93691102182493 42.29437106475234,206.52639954793267 42.76165957655758,202.26325324806385 42.76165957655758,198.85273064253852 42.76165957655758,195.1579922370147 44.163525108247995,191.4632480267901 45.79903489537537,189.18955639493652 46.7336119171232,186.63165068160743 46.49996766075492,184.07374218595214 44.163525108247995,181.23161837016232 41.126149787567556,179.81055517448112 38.08877446874976,177.25263925665058 34.81775489449501,176.4000000001397 31.313091062940657,177.82106525660492 28.509359998628497,180.09476788225584 25.939273189753294,182.6526807071641 25.471984679810703,185.77901482582092 25.471984679810703,189.4737679695245 25.00469616893679,192.60009301709943 24.537407658062875,196.86325683817267 21.733676593750715,199.9895720607601 22.20096510462463,203.68430287321098 21.967320849187672,207.94744659680873 22.434609359130263,211.07374708005227 22.434609359130263,213.91583482245915 24.537407658062875,216.75791912851855 27.574782977811992,219.0315841003321 30.845802552998066,219.60000000009313 34.81775489449501,219.0315841003321 37.38784170243889,217.610543750925 41.126149787567556,215.90529419737868 42.060726810246706,213.6316262029577 43.69623659737408,210.22112008789554 44.163525108247995,206.81060902611353 44.163525108247995,203.1158831268549 44.63081361912191,199.70536175812595 45.33174638450146,195.4422030900605 45.565390639938414,192.0316705906298 46.03267915081233,189.18955639493652 45.79903489537537,185.49480280443095 44.864457874558866,181.80004340759479 42.76165957655758,179.24212965508923 39.72428425680846,178.10527820512652 36.21962042618543,177.53685227409005 32.7149565955624,177.53685227409005 29.443937021307647,178.95791684417054 25.939273189753294,181.23161837016232 24.537407658062875,184.07374218595214 25.238340423442423,188.33692146651447 23.836474891752005,191.74745932617225 23.602830636315048,194.58957042940892 23.602830636315048,198.28430972713977 21.967320849187672,201.69483315735124 22.434609359130263,206.52639954793267 22.20096510462463,209.3684927856084 23.602830636315048,212.21058258996345 24.537407658062875,215.90529419737868 25.471984679810703,217.610543750925 31.079446808435023,219.0315841003321 35.051399149000645,218.46316806343384 37.62148595787585,216.18950254260562 41.82708255387843,212.77900013769977 43.462592341937125,211.9263737637084 44.163525108247995,209.08428361662664 43.69623659737408,205.95798048726283 43.69623659737408,202.26325324806385 43.69623659737408,199.13694104878232 44.163525108247995,195.72641390911303 45.565390639938414,192.31588182109408 45.79903489537537,189.18955639493652 45.79903489537537,186.34743876405992 45.79903489537537,183.78952995873988 43.462592341937125,181.23161837016232 41.59343829937279,178.10527820512652 38.08877446874976,176.96842620545067 33.88317787181586,178.10527820512652 29.91122553125024,180.09476788225584 27.574782977811992,183.22110540163703 25.471984679810703,186.34743876405992 24.07011914718896,188.33692146651447 23.836474891752005,192.0316705906298 22.9018978709355,195.4422030900605 22.434609359130263,199.13694104878232 23.135542125441134,202.26325324806385 21.733676593750715,205.38956129038706 21.2663880828768,208.51586517505348 22.434609359130263,213.6316262029577 24.537407658062875,215.90529419737868 26.873850212432444,217.89475188939832 28.97664850950241,219.31579206697643 33.18224510550499,219.60000000009313 36.9205531924963,217.89475188939832 39.25699574500322,215.62108581862412" stroke="#4DD2FF" stroke-dasharray="none" stroke-linecap="round" stroke-linejoin="round" stroke-width="0.5"><title>2013-10-20 10.7km</title><desc>9223370654628121807</desc></polyline><polyline fill="none" opacity="1" points="88.05034032464027,198.13595284009352 87.3802659502253,200.58123438083567 86.71019157581031,203.84160563116893 86.71019157581031,207.37366914795712 87.3802659502253,210.36233394150622 89.83720532245934,213.0792984876316 92.51750282011926,214.9811717160046 95.42115844320506,217.42643493087962 99.21824656426907,217.6981306800153 102.56861843541265,217.42643493087962 106.14234843291342,216.06795569579117 109.26936217956245,213.8943872116506 110.83286905195564,211.17742365039885 111.05622717738152,208.18875993951224 111.50294342730194,205.20009225560352 111.94965967629105,201.1246299177874 112.61973405070603,198.13595284009352 113.06645030062646,195.41897022980265 113.28980842512101,192.70198433613405 112.84309217520058,188.89819856663235 112.61973405070603,186.1812047897838 110.38615280296654,182.92080792272463 108.82264592964202,179.6604063261766 105.91899030748755,177.75850321003236 102.79197656083852,176.67170070740394 99.88832093775272,176.67170070740394 96.31459094118327,177.48680263385177 92.96421907003969,179.6604063261766 90.50727969687432,182.92080792272463 89.61384719889611,185.90950523177162 89.61384719889611,188.89819856663235 88.94377282448113,192.15858676331118 88.72041469905525,196.23406535829417 87.60362407565117,199.49444291344844 88.05034032464027,202.4831181843765 86.93354970123619,206.2868809637148 89.39048907347023,208.73215363710187 90.28392157331109,211.9925130638294 92.07078657113016,215.52456377237104 94.30436781886965,217.42643493087962 97.8780978154391,218.7849133447744 101.67518593650311,219.60000000009313 104.57884155865759,217.96982639585622 107.03578093089163,215.25286776060238 109.04600405413657,212.8076021813322 110.60951092839241,209.81894063809887 110.38615280296654,207.64536611060612 111.05622717738152,204.65669770352542 111.27958530280739,201.6680253231898 111.50294342730194,198.67934896820225 112.1730178007856,196.23406535829417 112.61973405070603,191.88688792707399 112.61973405070603,188.62649933667853 111.27958530280739,183.19250784208998 109.492720304057,179.6604063261766 106.58906468190253,178.03020375361666 102.12190218642354,176.4000000001397 98.54817218892276,176.67170070740394 95.64451656676829,178.03020375361666 92.51750282011926,179.9321066394914 90.95399594679475,183.19250784208998 90.7306378223002,186.72460380778648 90.28392157331109,191.07179122348316 89.61384719889611,195.69066863902844 86.93354970123619,198.40765092079528 87.3802659502253,201.1246299177874 87.3802659502253,204.3850003783591" stroke="#4DD2FF" stroke-dasharray="none" stroke-linecap="round" stroke-linejoin="round" stroke-width="0.5"><title>2013-10-19 10.2km</title><desc>9223370654714312807</desc></polyline><polyline fill="none" opacity="1" points="155.1090584937483,203.47209162893705 155.1090584937483,206.64008224592544 154.3987797005102,210.38406572700478 154.87229889724404,213.26404901687056 157.23989487532526,215.856031000847 161.5015676394105,217.87201503897086 165.0529616093263,219.60000000009313 168.36759597994387,218.16001261910424 171.20871115475893,216.14402882475406 174.049826329574,213.55204715393484 174.76010512374341,210.38406572700478 175.70714351627976,206.06408426584676 175.23362432047725,202.03209450119175 175.47038391791284,197.71209789603017 175.70714351627976,194.83209580741823 176.41742231044918,190.8000870347023 177.36446070112288,187.05607277853414 175.94390311371535,183.0240508459974 174.76010512374341,180.14403100172058 171.20871115475893,177.55201016599312 167.18379798997194,176.39999999990687 163.39564442262053,177.55201016599312 160.31776964943856,179.2800243704114 158.66045246366411,182.44804715528153 157.4766544746235,185.32806421420537 157.23989487532526,187.92007659026422 156.76637568045408,191.6640894880984 155.81933728791773,195.12009617267177 155.1090584937483,198.28809789568186 154.87229889724404,201.45609540655278 154.87229889724404,205.48808614583686 155.34581809211522,209.23207143694162 157.00313527788967,212.97605084488168 158.1869332678616,214.99203731981106 161.028048443608,218.16001261910424 164.57944241166115,218.16001261910424 167.42055758740753,218.73600767576136 170.73519195895642,217.29601977346465 173.33954753633589,215.56803314224817 174.99686472211033,212.11205611890182 175.47038391791284,207.79207779001445 175.70714351627976,203.18409227347001 175.70714351627976,200.30409679887816 175.70714351627976,196.84809763496742 176.65418190788478,193.9680945011787 177.36446070112288,190.51208614674397 177.1277011046186,186.19206865271553 174.99686472211033,180.14403100172058 172.3925091456622,178.12801503925584 167.65731718577445,176.68800259334967 164.81620201002806,176.97600515233353 161.97508683428168,179.56802661530674 159.37073125783354,181.58404135890305 158.66045246366411,184.4640594618395 157.23989487532526,189.07208118587732 155.81933728791773,193.39209345704876 155.81933728791773,196.84809763496742 154.3987797005102,200.30409679887816 154.6355392979458,204.04809023649432 154.87229889724404,207.2160800884012 154.3987797005102,210.67206421284936 156.29285648372024,214.70403935597278 158.89721206203103,217.29601977346465 161.5015676394105,217.5840174241457 166.4735191958025,218.16001261910424 169.31463437061757,216.72002436965704 172.3925091456622,214.12804332445376 173.33954753633589,211.53605946153402 174.52334552630782,207.79207779001445 175.94390311371535,204.33608948858455 177.1277011046186,201.1680958061479 177.6012202994898,197.13609775644727 177.1277011046186,192.52809162973426 177.1277011046186,188.20807779114693 176.18066271208227,184.75206108111888 174.76010512374341,180.14403100172058 171.91898994892836,178.12801503925584 168.84111517574638,177.26400767685845 164.81620201002806,176.97600515233353 161.5015676394105,178.99202208942734 158.66045246366411,181.58404135890305 157.23989487532526,184.176057808334 157.9501736694947,187.63207535399124 156.76637568045408,192.24009095085785 157.23989487532526,196.27209728676826 156.76637568045408,200.01609705970623 155.81933728791773,203.47209162893705 156.05609688628465,207.5040789565537 155.34581809211522,210.0960672076326 156.52961608115584,212.68805263726972 157.9501736694947,215.856031000847 161.7383272368461,217.87201503897086 163.86916361842304,217.87201503897086 168.84111517574638,218.44801016524434" stroke="#4DD2FF" stroke-dasharray="none" stroke-linecap="round" stroke-linejoin="round" stroke-width="0.5"><title>2013-10-12 10.6km</title><desc>9223370655320152807</desc></polyline><polyline fill="none" opacity="1" points="43.98103644605726,249.24715643795207 43.748919318430126,247.27068776125088 43.516802191734314,243.8824518530164 44.44527069851756,242.18833205639385 45.141622078604996,237.38831929140724 44.677387826144695,234.28242342267185 43.284685065969825,231.45887813949957 42.58833368588239,228.63532944396138 42.58833368588239,226.65884332591668 41.19563092570752,227.2235538160894 38.64234253298491,225.81177733442746 34.00000000093132,224.4000000001397 30.98247735388577,225.2470665036235 27.96495470777154,226.65884332591668 26.34013482183218,230.6118138891179 25.411666315048933,234.0000690475572 25.643783441744745,236.25890308944508 24.251080681569874,240.77656461950392 24.251080681569874,243.31774539034814 23.55472930241376,247.83539326884784 24.251080681569874,250.94127111579292 24.483197808265686,255.17655243445188 24.018963554874063,258.8471233653836 22.858377922326326,262.51768852747045 24.94743206165731,263.3647412073333 28.42918896023184,265.6235468534287 31.678828733973205,267.60000000009313 34.696351380087435,267.60000000009313 38.874459659680724,265.90589740499854 41.42774805333465,263.92944282409735 43.748919318430126,260.8235822466668 44.677387826144695,257.1530144221615 44.90950495097786,252.63538456475362 43.748919318430126,248.96480387263 43.98103644605726,243.8824518530164 45.141622078604996,239.92950374865904 45.37373920623213,236.82361125876196 46.30220771115273,234.0000690475572 45.60585633199662,231.74123282171786 43.05256793834269,228.07061929488555 38.874459659680724,226.65884332591668 35.39270276017487,225.81177733442746 32.60729724075645,225.81177733442746 30.286125973798335,226.94119858834893 26.34013482183218,228.91768446774222 24.94743206165731,231.74123282171786 24.018963554874063,235.12948634149507 24.251080681569874,239.0824425695464 24.251080681569874,242.47068544104695 24.483197808265686,245.57657042192295 24.251080681569874,249.24715643795207 22.626260795630515,251.78832799429074 21.92990941554308,254.61184870218858 21.697792288847268,257.435365997022 22.626260795630515,260.25887987948954 23.78684642817825,262.51768852747045 25.411666315048933,265.34119626670144 28.42918896023184,266.75294885598123 31.678828733973205,266.75294885598123 36.55328839365393,267.60000000009313 39.57081103976816,264.7764949919656 41.42774805333465,262.2353375663515 43.748919318430126,258.56477195979096 43.98103644605726,254.61184870218858 43.98103644605726,251.22362344292924 45.141622078604996,247.55304053192958 45.83797345869243,244.16480503370985 45.60585633199662,241.05891817482188 45.60585633199662,238.5177349471487 46.07009058445692,235.12948634149507 45.37373920623213,232.30594208301045 44.44527069851756,229.76474933186546 43.05256793834269,226.94119858834893 40.03504529315978,225.2470665036235 36.55328839365393,225.2470665036235 32.60729724075645,225.2470665036235 28.89342321548611,225.81177733442746 26.804369075223804,228.07061929488555 24.483197808265686,231.74123282171786 24.94743206165731,234.28242342267185 24.94743206165731,237.6706732562743 23.55472930241376,242.18833205639385 23.55472930241376,246.14127633837052 24.251080681569874,247.55304053192958 23.32261217571795,251.22362344292924 22.626260795630515,253.2000887747854 23.090495048090816,256.588311167201 23.78684642817825,259.6941773761064 24.251080681569874,262.80003945552744 25.875900567509234,265.34119626670144 27.73283758200705,266.4705984070897 34.00000000093132,266.4705984070897 38.17810827959329,266.4705984070897 40.267162419855595,265.34119626670144 43.98103644605726,261.95298657077365 43.284685065969825,257.1530144221615 43.05256793834269,252.63538456475362 44.21315357182175,249.81186146754771 43.05256793834269,246.14127633837052 44.44527069851756,243.8824518530164 45.37373920623213,241.9059786372818 46.07009058445692,237.6706732562743 46.30220771115273,234.0000690475572" stroke="#4DD2FF" stroke-dasharray="none" stroke-linecap="round" stroke-linejoin="round" stroke-width="0.5"><title>2013-10-06 10.6km</title><desc>9223370655838244807</desc></polyline><polyline fill="none" opacity="1" points="89.98325262311846,247.6616396890022 89.7555992724374,251.261634249473 88.84498587623239,255.69238901790231 88.16202582698315,258.46160639775917 89.0726392250508,261.50774164893664 90.43855932168663,263.1692682597786 93.39805286563933,265.9384766018484 95.67458635941148,267.3230795171112 97.95111985504627,267.60000000009313 102.27653349470347,266.49231786769815 106.14664043672383,264.5538728488609 108.65082728024572,260.4000565716997 109.78909402806312,256.800076372223 110.01674737781286,253.47701270505786 110.47205407731235,250.4308667758014 111.61032082512975,247.3847167957574 110.92736077588052,243.78471614304 110.92736077588052,240.46163359680213 111.61032082512975,237.41547036124393 111.83797417394817,234.64622754161246 111.61032082512975,231.8769813736435 109.5614406792447,230.21543206600472 107.96786723192781,228.00003111502156 105.23602703865618,226.89232983626425 102.27653349470347,227.44618054293096 97.72346650529653,228.00003111502156 95.44693301152438,228.55388155416586 93.8533595642075,230.21543206600472 93.62570621352643,231.8769813736435 92.71509281732142,234.64622754161246 92.48743946664035,237.69239445892163 91.80447941832244,241.84625191055238 91.12151937000453,244.89240925433114 91.80447941832244,248.49240816570818 90.89386602025479,251.5385566733312 90.43855932168663,255.1385451410897 89.5279459245503,257.90776318963617 89.5279459245503,259.84621383203194 90.43855932168663,262.8923472412862 92.03213276807219,265.10771445115097 96.12989305891097,266.21539725130424 99.31703995261341,267.0461590006016 102.27653349470347,266.21539725130424 105.23602703865618,265.9384766018484 107.2849071836099,263.7231101959478 108.65082728024572,261.50774164893664 109.5614406792447,257.6308415350504 109.33378732949495,254.58470112946816 110.2444007275626,250.7077893000096 110.2444007275626,247.1077938694507 110.01674737781286,243.50779278133996 109.78909402806312,238.80009051598608 110.2444007275626,235.47700073826127 110.92736077588052,234.09237857535481 110.2444007275626,231.32313173846342 107.96786723192781,228.83080672309734 105.00837368983775,226.06155352527276 102.9594935439527,225.23077691416256 99.77234665118158,225.78462802176364 96.35754640772939,225.78462802176364 94.5363196125254,226.61540443263948 93.39805286563933,229.66158202895895 91.80447941832244,232.4308308751788 91.57682606950402,235.47700073826127 90.89386602025479,239.07701444602571 90.2109059728682,242.95394595898688 89.7555992724374,245.4462556091603 89.0726392250508,248.49240816570818 89.0726392250508,251.81547906342894 88.16202582698315,255.1385451410897 87.70671912748367,257.6308415350504 87.93437247723341,260.67697789077647 89.0726392250508,263.1692682597786 92.03213276807219,265.6615559179336 95.67458635941148,266.49231786769815 99.77234665118158,266.76923845126294 103.41480024252087,266.21539725130424 105.91898708697408,264.2769519982394 108.65082728024572,262.0615839860402 109.78909402806312,257.90776318963617 110.2444007275626,255.1385451410897 110.69970742613077,252.09240142116323 110.92736077588052,249.3231763425283 111.38266747444868,245.4462556091603 111.61032082512975,243.23086938657798 111.83797417394817,240.18470983416773 112.06562752369791,237.41547036124393 112.29328087251633,234.36930307536386 111.61032082512975,231.6000565723516 110.47205407731235,229.1077318591997 108.19552058167756,226.61540443263948 105.69133373815566,225.23077691416256 102.9594935439527,224.4000000001397 100.68296004924923,224.95385130867362 96.81285310722888,225.50770248449408 94.08101291395724,227.16925520659424 92.71509281732142,230.76928196917288 91.12151937000453,235.20007637282833 90.2109059728682,237.9693185237702 89.98325262311846,240.18470983416773 89.7555992724374,243.23086938657798 89.98325262311846,246.27702489006333 90.2109059728682,249.6000990010798 89.98325262311846,252.64624603441916 89.7555992724374,255.96931090718135 90.2109059728682,259.2923709584866 91.57682606950402,262.3385051051155 94.08101291395724,264.00003111432306 96.81285310722888,266.76923845126294 100.68296004924923,266.76923845126294 102.9594935439527,266.49231786769815 106.37429378647357,264.83079366665334 108.4231739314273,262.8923472412862 109.5614406792447,259.56929241190664 110.01674737781286,256.800076372223 110.92736077588052,253.75393486046232 110.92736077588052,250.4308667758014 111.61032082512975,247.6616396890022 111.61032082512975,244.61548602650873 111.38266747444868,241.56932831485756 112.52093422133476,237.9693185237702 111.61032082512975,235.20007637282833 110.69970742613077,231.8769813736435 110.01674737781286,229.3846569606103 107.51256053335965,227.72310584550723 104.32541364058852,226.06155352527276 101.36592009756714,226.61540443263948 97.26815980672836,226.89232983626425 94.30866626370698,228.83080672309734 92.94274616613984,230.76928196917288 90.89386602025479,234.09237857535481 90.43855932168663,236.30777363479137 89.5279459245503,239.90778603730723 89.7555992724374,242.95394595898688 88.61733252555132,246.00010183011182 88.61733252555132,249.3231763425283 87.93437247723341,252.64624603441916 87.47906577866524,255.96931090718135 88.16202582698315,259.2923709584866 89.30029257386923,262.3385051051155 92.71509281732142,264.2769519982394 96.35754640772939,265.9384766018484 98.8617332521826,265.38463520118967 102.27653349470347,264.5538728488609 104.78072033915669,261.7846628341358 107.96786723192781,259.84621383203194 109.5614406792447,257.35391984693706 110.2444007275626,255.1385451410897 110.47205407731235,251.81547906342894 110.92736077588052,248.49240816570818 111.15501412469894,246.00010183011182 111.61032082512975,242.12317547295243 111.15501412469894,239.35393834323622 111.38266747444868,235.20007637282833 111.61032082512975,231.8769813736435 110.92736077588052,229.9385070647113 109.10613397974521,228.55388155416586 105.91898708697408,226.61540443263948 102.73184019327164,226.06155352527276 99.54469330050051,226.89232983626425 95.67458635941148,228.83080672309734" stroke="#4DD2FF" stroke-dasharray="none" stroke-linecap="round" stroke-linejoin="round" stroke-width="0.5"><title>2013-09-29 10.5km</title><desc>9223370656443428807</desc></polyline><polyline fill="none" opacity="1" points="158.80730770155787,235.88362481584772 158.35776443220675,239.43806830001995 157.90822116378695,242.7190880975686 157.23390626069158,245.72668539732695 156.55959135759622,248.46086128987372 155.88527645450085,251.7418679993134 155.88527645450085,255.29628656315617 155.88527645450085,258.57728335657157 157.23390626069158,261.8582753909286 159.93116587307304,263.22535400046036 163.30274038854986,265.13926266669296 166.44954326935112,265.13926266669296 168.92203124705702,264.0456007702742 171.84406249318272,263.22535400046036 173.8670072024688,261.0380278278608 175.21563700865954,258.3038671386894 176.11472354643047,255.29628656315617 176.11472354643047,251.7418679993134 176.11472354643047,248.73427869705483 176.7890384485945,246.00010313582607 176.7890384485945,242.17225179541856 177.912896621041,238.8912312053144 177.23858171794564,237.25071912514977 176.3394951801747,234.51652968092822 175.21563700865954,230.68865890661255 173.417463934049,227.95446153078228 170.94497595634311,225.49368106527254 169.59634615015239,225.76710125035606 165.5504567315802,224.94684059894644 162.85319711919874,226.5873616025783 160.38070914149284,228.22788141667843 159.25685096997768,232.055756355403 157.90822116378695,233.6962722032331 157.23390626069158,238.6178126083687 156.55959135759622,240.80516046099365 156.33481972292066,244.9064319843892 156.33481972292066,247.09377375710756 156.11004808917642,249.28111341316253 156.11004808917642,253.38236956926994 154.7614182829857,255.56970314332284 155.2109615514055,261.0380278278608 156.11004808917642,263.4987696236931 161.504567313008,265.4126780577935 163.75228365696967,265.95950874197297 167.1238581724465,265.95950874197297 171.16974759008735,264.86584724183194 174.09177883714437,262.1316911787726 176.11472354643047,258.0304508882109 176.7890384485945,253.65578638156876 175.21563700865954,250.92161676776595 173.64223556779325,249.55453072185628 175.4404086433351,245.17984982184134 177.01381008327007,239.98490526387468 177.4633533526212,238.07097531366162 176.7890384485945,235.06336783478037 177.912896621041,231.235497985268 175.21563700865954,228.50130126997828 172.51837739627808,225.49368106527254 170.72020432166755,224.94684059894644 165.32568509690464,225.49368106527254 163.75228365696967,225.76710125035606 160.83025240991265,228.22788141667843 158.35776443220675,230.41523931804113 157.68344952911139,232.87601442844607 157.23390626069158,236.43046263838187 156.11004808917642,241.07857879367657 156.55959135759622,244.35959621169604 156.78436299134046,246.54693851224147 156.11004808917642,250.92161676776595 156.55959135759622,254.20261990698054 155.2109615514055,258.3038671386894 155.88527645450085,261.5848595700227 156.11004808917642,263.4987696236931 159.93116587307304,264.86584724183194 163.5275120222941,267.3265848727897 165.77522836532444,266.77975451922975 168.69725961238146,265.95950874197297 171.61929085943848,264.86584724183194 174.54132210556418,261.5848595700227 174.76609374023974,259.3975318111479 175.4404086433351,256.66336913825944 176.3394951801747,253.92920316033997 177.4633533526212,250.92161676776595 176.56426681485027,247.3671913293656 175.4404086433351,243.53934230282903 175.66518027707934,240.5317420954816 176.11472354643047,237.25071912514977 177.23858171794564,236.43046263838187 178.13766825478524,232.87601442844607 176.7890384485945,230.14181969570927 177.912896621041,230.41523931804113 177.4633533526212,227.68104161159135 174.31655047088861,226.31394151831046 170.94497595634311,225.22026084875688 167.79817307554185,224.6734203158412 163.75228365696967,225.76710125035606 160.60548077523708,228.22788141667843 157.90822116378695,230.14181969570927 157.68344952911139,233.42285297834314 155.43573318608105,237.25071912514977 154.08710337989032,241.62541536078788 155.6605048198253,241.62541536078788 156.33481972292066,243.2659242679365 155.88527645450085,246.8203561506234 155.2109615514055,250.92161676776595 152.96324520744383,253.10895272321068 154.98618991766125,256.11653620772995 155.2109615514055,258.57728335657157 156.78436299134046,262.9519383441657 158.80730770155787,265.4126780577935 161.504567313008,266.23292403365485 165.32568509690464,266.23292403365485 168.92203124705702,267.60000000009313 172.51837739627808,266.23292403365485 173.64223556779325,264.0456007702742 173.8670072024688,260.49119595531374 175.21563700865954,259.3975318111479 175.4404086433351,255.29628656315617 177.4633533526212,248.73427869705483 177.4633533526212,244.08617827459238 175.4404086433351,241.35199709353037 176.11472354643047,238.07097531366162 176.56426681485027,235.61020585522056 177.01381008327007,232.055756355403 176.7890384485945,230.14181969570927 175.21563700865954,227.1342016728595 171.61929085943848,225.76710125035606 168.24771634396166,224.4000000001397 165.5504567315802,225.76710125035606 163.0779687538743,226.8607816544827 159.93116587307304,229.04814087809063 157.00913462601602,232.055756355403 155.2109615514055,235.61020585522056 156.33481972292066,239.16464976919815 156.55959135759622,243.53934230282903 156.55959135759622,246.8203561506234 155.88527645450085,250.64819962508045 154.31187501456589,253.10895272321068 155.88527645450085,256.66336913825944 155.2109615514055,259.3975318111479 156.33481972292066,262.4051069342531 157.23390626069158,264.86584724183194 161.27979567926377,264.31901629362255 163.75228365696967,265.95950874197297 167.1238581724465,265.13926266669296 170.27066105324775,264.592431783909 172.06883412785828,263.4987696236931 174.54132210556418,259.6709478965495 176.7890384485945,257.4836182866711 176.7890384485945,254.20261990698054 176.7890384485945,252.83553584385663 176.11472354643047,251.195033878088 177.23858171794564,247.91402637632564 177.4633533526212,243.53934230282903 179.03675479255617,240.25832369620912 177.68812498636544,239.98490526387468" stroke="#4DD2FF" stroke-dasharray="none" stroke-linecap="round" stroke-linejoin="round" stroke-width="0.5"><title>2013-09-22 10.9km</title><desc>9223370657048162807</desc></polyline></svg>