<?xml version="1.0" encoding="utf-8" ?>
<svg baseProfile="full" height="300mm" version="1.1" viewBox="0,0,200,300" width="200mm" xmlns="http://www.w3.org/2000/svg" xmlns:ev="http://www.w3.org/2001/xml-events" xmlns:xlink="http://www.w3.org/1999/xlink"><defs /><rect fill="#222222" height="300" width="200" x="0" y="0" /><text fill="#FFFFFF" style="font-size:12px; font-family:Arial; font-weight:bold;" x="10" y="20">Over 10km Runs</text><text fill="#FFFFFF" style="font-size:4px; font-family:Arial" x="10" y="280">Runner</text><text fill="#FFFFFF" style="font-size:9px; font-family:Arial" x="10" y="290">keep</text><text fill="#FFFFFF" style="font-size:4px; font-family:Arial" x="65" y="280">SPECIAL TRACKS</text><rect fill="yellow" height="2.6" width="2.6" x="65" y="283" /><text fill="#FFFFFF" style="font-size:3px; font-family:Arial" x="70" y="285.5">Over 20.0 km</text><rect fill="red" height="2.6" width="2.6" x="65" y="287" /><text fill="#FFFFFF" style="font-size:3px; font-family:Arial" x="70" y="289.5">Over 40.0 km</text><text fill="#FFFFFF" style="font-size:4px; font-family:Arial" x="120" y="280">STATISTICS</text><text fill="#FFFFFF" style="font-size:3px; font-family:Arial" x="120" y="285">Number: 15</text><text fill="#FFFFFF" style="font-size:3px; font-family:Arial" x="120" y="290">Weekly: 1.2</text><text fill="#FFFFFF" style="font-size:3px; font-family:Arial" x="141" y="285">Total: 163.6 km</text><text fill="#FFFFFF" style="font-size:3px; font-family:Arial" x="141" y="290">Avg: 10.9 km</text><text fill="#FFFFFF" style="font-size:3px; font-family:Arial" x="167" y="285">Min: 10.2 km</text><text fill="#FFFFFF" style="font-size:3px; font-family:Arial" x="167" y="290">Max: 14.0 km</text><polyline fill="none" opacity="1" points="26.774065584875643,75.59999999999854 26.70479359527235,75.41473462936119 26.618203608231852,75.207672835626 26.557590617390815,74.9461203461251 26.56624961606576,74.6191785568517 26.618203608231852,74.29223545931745 26.626862606965005,73.9979855529673 26.60954460958601,73.64924355097901 26.618203608231852,73.34409307820897 26.618203608231852,73.04983975720097 26.63552160569816,72.72289037980954 26.644180604344,72.45043156590691 26.739429590059444,72.21066705805424 26.973222554981476,72.11258137477853 27.2416515146615,72.0907845402835 27.258969512069598,71.93820653597504 27.31092350423569,71.79652670540236 27.319582502968842,71.54586178789032 27.336900500347838,71.21890639192861 27.181038523762254,70.95734113307117 26.895291566645028,70.81565960153239 26.886632567970082,70.47780265017354 26.938586560136173,70.13994430163439 26.981881553685525,69.82388200101559 27.033835545851616,69.48602094819944 27.085789538075915,69.14815849817387 27.12042553286301,68.86478891428123 27.137743530242005,68.60321611829568 27.224333517282503,68.51602500017907 27.258969512069598,68.30894572173565 27.224333517282503,68.1672595971977 27.258969512069598,68.06916905934486 27.319582502968842,67.85118966468144 27.388854492543032,67.58961362326954 27.449467483500484,67.3171376895989 27.53605747045367,66.99016536949784 27.622647457494168,66.67409088279237 27.70057844580151,66.3907127170387 27.839122424978996,66.22722486657585 28.003643400239525,66.28172085306869 28.228777366457507,66.3362168032254 28.471229330054484,66.18362805120705 28.644409304048168,65.94384515071579 28.75697628717171,65.70406154637749 28.912838263757294,65.39888139570394 29.07735923907603,65.09370010491693 29.23322121569072,64.82121584609558 29.397742190980352,64.53783125280461 29.544945168861886,64.27624460178777 29.692148146772524,63.97105911687686 29.873987119470257,63.64407340357866 30.07314408957609,63.2843876071056 30.298278055735864,62.870202000718564 30.514753023249796,62.48871340008918 30.687932997214375,62.19442097652791 30.869771969941212,61.91102727029647 31.051610942638945,61.63853239471791 31.181495923170587,61.43143568135565 31.35467589716427,61.15893920590315 31.5711508646491,60.84284215550724 31.657740851631388,60.55944375998661 31.796284830837976,60.23244438951224 31.986782802268863,59.93814383678546 32.22923476586584,59.70924267378723 32.47168672943371,59.513041166370385 32.63620770475245,59.24053829089826 32.77475168395904,59.033435497491155 32.88731866705348,58.92443381637713 32.99122665144387,58.68462960584293 33.08647563713021,58.44482469129434 33.1903836215497,58.292221197261824 33.38954059165553,58.23771988027147 33.50210757472087,58.24862014656537 33.631992555223405,58.12871713725326 33.753218537021894,57.98701335382793 33.93505750974873,57.801708035302 34.12555548115051,57.540099811099935 34.30739445384825,57.33299270603311 34.2814174577361,57.071382980560884 34.27275845903205,56.80977241708024 34.32471245122724,56.53726052247657 34.515210422629025,56.275648248200014 34.71436739276396,56.057637379512016 34.86157037061639,55.796023568924284 34.982796352443984,55.45810449002602 35.155976326495875,55.20738943123433 35.43306428482174,54.945772897146526 35.63222125492757,54.70595700470585 35.762106235459214,54.44433886441402 35.8833322172577,54.12821582675679 36.01321719776024,53.84479413199733 36.30762315355241,53.681281168384885 36.55007511714939,53.626776774428436 36.70593709376408,53.33245241853729 36.80984507815447,53.016325077056536 36.86179907034966,52.73289952361665 36.931071059952956,52.42767090452253 37.009002048231196,52.067935710336315 37.10425103394664,51.74090234054165 37.12156903135474,51.6100886259519 37.19084102092893,51.34846056816605 37.23413601444918,51.02142431721586 37.32072600146057,50.68348548204813 37.41597498714691,50.291038628194656 37.5025649741292,49.9312940220625 37.56317796505755,49.52794212462322 37.64110895336489,49.2336029961516 37.719039941672236,48.88475524789101 37.81428892732947,48.514102882480074 37.85758392084972,48.1434488347295 37.935514909157064,47.80549808964861 38.02210489611025,47.42393911581894 38.10003588441759,47.075083636715135 38.16064887534594,46.79163746253471 38.229920864949236,46.43187743997987 38.27321585844038,46.15933091312763 38.359805845451774,45.930391127592884 38.37712384283077,45.78866617676249 38.437736833730014,45.472509630846616 38.49834982462926,45.13454783155612 38.58493981164065,44.763878443307476 38.65421180127305,44.41501159963809 38.71482479211409,44.20787120595196 38.72348379084724,44.06614326540148 38.758119785634335,43.81539322951721 38.836050773912575,43.455620093867765 38.89666376484092,43.074040793508175 38.97459475314827,42.74697140249191 39.03520774404751,42.5289244139276 39.078502737538656,42.3217792354626 39.104479733650805,42.212755246255256 39.16509272455005,42.09282868997252 39.182410721929045,41.97290195750247 39.147774727171054,41.754852901802224 39.173751723224996,41.47138825883303 39.217046716745244,41.19882517408405 39.286318706319435,41.02438432229246 39.36424969462678,40.882650855812244 39.64133765306906,40.94806633245753 39.92708461012808,41.05709201040736 40.22149056592025,41.133409898327955 40.394670539943036,41.15521499606257 40.43796553343418,40.91535860069416 40.429306534759235,40.65369627487962 40.44662453213823,40.359325155943225 40.46394252954633,39.9886340890298 40.48126052695443,39.60703858571651 40.55919151523267,39.30176089891029 40.45528353084228,39.07280188474397 40.2474675620324,39.050996230849705 39.944402607536176,39.10551035464596 39.658655650448054,39.170927255145216 39.632678654335905,38.963773557101376 39.67597364782705,38.63668770052027 39.745245637430344,38.30960053359013 39.80585862832959,37.99341502656898 39.90110761401593,37.6336162360094 39.970379603648325,37.295621988341736 40.013674597168574,36.97943255437713 40.056969590630615,36.674145042401506 40.091605585446814,36.42337230351404 40.11758258152986,36.216211633938656 40.082946586742764,36.107179491373245 40.22149056592025,35.98724396644684 40.429306534759235,35.9109212678959 40.41198853732203,35.7473723879375 40.27344455811544,35.64924290268391 40.29076255549444,35.4529835783469 40.2821035568486,35.343950416499865 40.48126052695443,35.36575706053554 40.64578150224406,35.36575706053554 40.81030247750459,35.3875636987068 40.948846456740284,35.36575706053554 41.12202643076307,35.322143766636145 41.2692294086155,35.26762711657648 41.2865474060236,34.984139949250675 41.32984239954385,34.51529362756264 41.390455390443094,34.14457602514449 41.41643238655524,33.86108495796361 41.41643238655524,33.66482133480167 41.43375038393424,33.47946081299597 41.45106838134234,33.31590706184943 41.277888407348655,33.22867826058791 41.04409544245573,33.217774653872766 40.862256469757995,33.1414493661141 40.68907649576431,33.0760276341025 40.42064753602608,33.03241311698366 40.091605585446814,32.95608765594807 39.79719962965464,32.90156942578324 39.49413467515842,32.80343651975272 39.16509272455005,32.75982185698376 38.87934576746193,32.672592461552995 38.71482479211409,32.552651890589914 38.47237282854621,32.574459280236624 38.16930787404999,32.5635555861154 37.86624291955377,32.552651890589914 37.554518966324395,32.530844495144265 37.23413601444918,32.498133391010924 36.957048056036,32.45451856513682 36.636665104160784,32.42180743042263 36.47214412884205,32.410903715928725 36.4288491353509,32.47632598097698 36.36823614445166,32.683496141049545 36.30762315355241,32.912473074720765 36.272987158736214,33.09783488394896 36.25566916135722,33.31590706184943 36.221033166511916,33.50126795502729 36.14310217826278,33.70843551407597 36.056512191251386,33.87198847877153 35.969922204269096,34.06825160390872 35.9179682120739,34.231803847775154 35.85735522114555,34.40625921337778 35.75344723672606,34.58071420620399 35.68417524715187,34.75516882623924 35.60624425884453,34.92962307344715 35.50233627445414,35.147690358237014 35.381110292626545,35.278530449504615 35.320497301756404,35.57291988817451 35.21658931733691,35.82369523935631 35.07804533818853,36.12898593153659 34.939501358923735,36.456081834898214 34.774980383663205,36.78317642772163 34.63643640445662,37.08846353201079 34.50655142395408,37.361040339033934 34.35934844604344,37.66632528248738 34.20348646945786,37.96070611116738 34.08226048765937,38.233280006090354 33.95237550715683,38.505852990972926 33.883103517553536,38.658493465067295 33.82249052665429,38.71300785091444 33.7185825422639,38.81113365379133 33.675287548743654,39.01828773911984 33.631992555223405,39.323566485822084 33.45881258122972,39.60703858571651 33.34624559816439,39.85780154594977 33.2769736085902,40.02134219205618 33.34624559816439,40.11946642247494 33.60601555914036,40.15217447307077 33.917739512369735,40.163077153680206 34.246781462978106,40.206687861638784 34.55850541617838,40.25029854627064 34.88754736672854,40.30481186929683 35.20793031863286,40.34842250154179 35.48501827704604,40.392033110460034 35.77076523413416,40.4029357590407 35.90930921334075,40.33751984566334 35.969922204269096,40.11946642247494 36.00455819902709,39.923217843715975 36.00455819902709,39.835996101748606 36.14310217826278,39.879606984366546 36.19505617042887,40.07585566796479 36.151761176937725,40.413838406188006 36.082489187363535,40.773624944988114 36.01321719776024,41.1116047947653 35.9352862094529,41.50409576789389 35.87467321855365,41.86387750245922 35.78808323157136,42.19095043089328 35.74478823808022,42.50711968305404 35.666857249772875,42.801483058632584 35.64953925233567,43.10674766054581 35.65819825103972,43.412011121195974 35.44172328355489,43.684566818148596 35.3551332965435,43.935317255803966 35.26854330956121,44.25147975355503 35.233907314774115,44.51313055007631 35.21658931733691,44.81838875298854 35.3724512939807,44.94921334775427 35.3551332965435,45.27627391769056 35.303179304348305,45.62513708170445 35.199271319957916,46.050312047693296 35.11268133294652,46.42097559638205 35.06938633945538,46.76983386991196 35.034750344610075,47.11869065308565 35.02609134596423,47.44574253378232 35.01743234723108,47.77279310459562 35.01743234723108,48.12164560305973 35.00011434985208,48.49229974977061 34.99145535114803,48.81934612918121 34.95681935630273,49.157292678559315 34.93084236024879,49.44073064158874 34.870229369349545,49.78957601484581 34.81827537712525,50.1493212452624 34.7403443888179,50.46545968495775 34.7922983810422,50.79249816229276 34.7403443888179,51.141337761284376 34.67107239924371,51.490175870159874 34.49789242525003,51.7954079931078 34.30739445384825,52.046133526426274 34.038965494168224,52.24235297203995 33.79651353057125,52.460374025387864 33.562720565649215,52.6674934869734 33.34624559816439,52.8964143859921 33.25099661247805,53.049027962195396 33.13842962938361,53.168938429160335 33.00854464885197,53.376056093788065 32.91329566313652,53.594074120599544 32.809387678746134,53.91019922578562 32.644866703485604,54.237223909010936 32.47168672943371,54.54244576525525 32.31582475284813,54.81496431583946 32.23789376456989,55.06568057928962 32.22057576713269,55.3054954154577 32.39375574112637,55.43630321111414 32.35911974636838,55.74152058625623 32.27252975932788,55.992234005425416 32.31582475284813,56.079438492546615 32.211916768486844,55.970432869085926 32.03873679446406,56.21024504869274 31.848238823062275,56.53726052247657 31.657740851631388,56.74436964531196 31.42394788673846,56.984179552491696 31.285403907531872,57.28939114329842 31.216131917957682,57.540099811099935 31.051610942638945,57.77990738198423 30.93038496086956,57.82350868283538 30.679273998568533,57.82350868283538 30.428163036267506,57.79080770937435 30.133757080475334,57.747206391031796 29.822033127304167,57.747206391031796 29.579581163678085,57.758106722794764 29.432378185767448,57.81260835980356 29.363106196164154,57.81260835980356 29.285175207827706,58.019714248723176 29.129313231242122,58.23771988027147 29.10333623518818,58.499325870056055 29.025405246880837,58.750030823997804 28.895520266349195,58.95713433598576 28.8782022689702,59.04433565762156 28.72234029235551,59.20783788475819 28.488547327462584,59.425840345160395 28.30670835476485,59.65474230234395 28.40195734045119,59.818243307614466 28.45391133267549,59.91634375364083 28.505865324870683,60.101644274778664 28.54050131965778,60.34144432510948 28.531842320982832,60.581243671433185 28.49720632613753,60.428644168881874 28.3153673534689,60.51584391956567 28.159505376883317,60.77744261303451 28.01230239897268,61.03904046871321 27.830463426245842,61.25703804179648" stroke="#4DD2FF" stroke-dasharray="none" stroke-linecap="round" stroke-linejoin="round" stroke-width="0.5"><title>2017-12-17 14.0km</title><desc>9223370523376934807</desc></polyline><polyline fill="none" opacity="1" points="100.66000753076514,32.40000000000873 100.67347707221052,32.72206293285126 100.68694661359768,33.02717443233996 100.66000753076514,33.33228519951808 100.66000753076514,33.68824683569255 100.5791902820929,34.01030650481698 100.52531211625319,34.213712191194645 100.67347707221052,34.41711755214783 100.63306844781619,35.19683508752496 100.74082477937918,35.48499035771238 100.86205065238755,35.77314497476618 100.90245927678188,36.07824915149831 100.9428679010598,36.45115326196537 100.95633744250517,36.807106165229925 100.98327652533771,37.1630580718338 101.03715469117742,37.502058961079456 101.14491102274042,37.79020900624164 101.18531964707654,38.095308342191856 101.22572827141266,38.38345704268431 101.25266735436162,38.70550481742248 101.41430185170611,38.807203945165384 101.61634497332852,38.92585282481741 101.6298145148321,39.095351032185135 101.49511910037836,39.21399964290322 101.34695414442103,39.366547693905886 101.42777139309328,39.60384429836995 101.56246680754703,39.9258889817429 101.69716222200077,40.247932849350036 101.76450992922764,40.536076670949114 101.88573580223601,40.84116941729735 102.03390075807692,41.14626143158239 102.2090047968668,41.45135271367326 102.28982204553904,41.73949380783597 102.06083984096767,41.89203882862057 101.80491855356377,41.773392717164825 101.60287543182494,41.62084755403339 101.36042368592462,41.45135271367326 101.15838056418579,41.53610016204766 100.91592881816905,41.553049644993735 100.68694661359768,41.63779702562897 100.67347707221052,41.8750893908873 100.68694661359768,42.129330719370046 100.45796440902632,42.28187527238333 100.21551266306778,42.366622167261085 99.93265229271492,42.451369005590095 99.64979192236206,42.4683183664456 99.59591375658056,42.24797649869288 99.64979192236206,42.010684829350794 99.74407871253788,41.67169596206804 99.8383655026555,41.4005042174831 99.8922436683788,41.02761462410854 99.9461218341603,40.63777433440555 99.90571320982417,40.34963074330881 99.85183504404267,39.94283867930062 99.69020054669818,39.73944215923257 99.38040109351277,39.77334160184546 99.16488843038678,39.62079403891403 99.12447980605066,39.4851960514934 99.09754072315991,39.264849013547064 99.09754072315991,39.04450159371481 98.97631485015154,38.94280265569978 98.80121081130346,38.92585282481741 98.61263723112643,38.90890299165039 98.51835044106701,38.99365213490091 98.54528952389956,39.28179879927484 98.55875906534493,39.60384429836995 98.55875906534493,39.9258889817429 98.58569814823568,40.23098319240671 98.59916768973926,40.56997590113315 98.59916768973926,40.925917272499646 98.59916768973926,41.23100908337801 98.59916768973926,41.53610016204766 98.59916768973926,41.82424106419785 98.61263723112643,42.129330719370046 98.6261067725718,42.451369005590095 98.63957631401718,42.68865985238517 98.6261067725718,42.90900095645338 98.61263723112643,43.11239240587747 98.59916768973926,43.38358049900853 98.57222860684851,43.62086960597662 98.55875906534493,43.77341236939537 98.53181998245418,44.027649901850964 98.50488089956343,44.24798868538346 98.50488089956343,44.48527617906802 98.50488089956343,44.739512288055266 98.50488089956343,45.04459494772891 98.50488089956343,45.38357482217543 98.49141135811806,45.70560486573959 98.50488089956343,46.01068520732224 98.50488089956343,46.3157648168999 98.53181998245418,46.62084369441436 98.54528952389956,46.95981936645694 98.53181998245418,47.214050527371 98.53181998245418,47.51912724954309 98.50488089956343,47.756408638495486 98.51835044106701,47.9936895846331 98.46447227522731,48.247918678374845 98.51835044106701,48.519095818075584 98.55875906534493,48.77332386132912 98.59916768973926,49.078396842232905 98.63957631401718,49.38346909117536 98.6799849383533,49.75633417922654 98.77427172847092,50.129198173832265 98.86855851853034,50.48511278509977 98.97631485015154,50.7223886391439 99.08407118171453,51.044405161446775 99.19182751321932,51.349472693458665 99.3130533862859,51.6036950777052 99.38040109351277,51.72233201639028 99.46121834212681,51.94265746604651 99.58244421513518,52.17993060025037 99.63632238097489,52.43415132412338 99.6767310052528,52.569735502416734 99.77101779537043,52.739215521956794 99.91918275126955,52.85785140117514 99.99999999994179,53.04427898784343 100.12122587295016,53.19681044630124 100.24245174595853,53.40018543970655 100.33673853601795,53.60356010784744 100.52531211625319,53.78998660115758 100.71388569660485,54.01030846820504 100.88898973533651,54.26452553269337 101.06409377412638,54.518742089072475 101.22572827141266,54.756010416400386 101.29307597863954,54.87464441404154 101.40083231020253,55.111912077321904 101.5759363489924,55.383074578945525 101.7375708463369,55.58644607568567 101.92614442657214,55.90845028035983 102.06083984096767,56.111820936901495 102.22247433837038,56.39992881024955 102.38410883565666,56.671088565301034 102.53227379155578,56.92530031052593 102.7343169132364,57.247301124967635 102.8959514106391,57.51845907315146 103.08452499081613,57.80656375955732 103.27309857105138,58.094667793178814 103.44820260978304,58.38277117414691 103.65024573146366,58.72171549257473 103.81188022886636,58.97592313848145 104.02739289193414,59.29791876053787 104.17555784777505,59.552125254660496 104.29678372084163,59.77243713849748 104.45841821818613,60.00969566353888 104.62005271553062,60.28084772150032 104.79515675432049,60.55199920134328 104.92985216877423,60.772309353007586 105.09148666611873,61.02651289990172 105.28006024629576,61.280715938672074 105.46863382658921,61.55186528657214 105.61679878243012,61.82301405642647 105.75149419682566,62.07721550302813 105.92659823567374,62.399203272681916 106.11517181585077,62.704243565618526 106.27680631325347,62.97538987842563 106.45191035198513,63.280428789323196 106.6808925565565,63.61936005440657 106.85599659534637,63.890504416121985 107.0041615513037,64.11080878434586 107.16579604853177,64.39889853623754 107.34090008737985,64.68698763546126 107.51600412611151,65.00896879761422 107.70457770634675,65.33094914467074 107.85274266224587,65.61903613258619 108.0009076182032,65.92406870263221 108.14907257404411,66.24604673290742 108.25682890560711,66.55107779917307 108.33764615427935,66.89000034800847 108.37805477861548,67.07640736488975 108.27029844711069,67.21197593283432 108.21642028127098,67.33059831129503 108.29723752994323,67.24586805223953 108.43193294433877,67.2289219936938 108.5262197345146,67.44922057905933 108.60703698318684,67.7203567756078 108.71479331469163,68.00843835120031 108.83601918775821,68.33041110463091 108.95724506076658,68.66932891184115 109.06500139227137,69.00824581595953 109.15928818238899,69.2624329013488 109.25357497250661,69.5505109839869 109.37480084551498,69.83858841410256 109.48255717707798,70.10971951705869 109.59031350858277,70.3808500419691 109.67113075731322,70.61808877713338 109.72500892309472,70.85532706980302 109.80582617176697,71.14340154458478 109.91358250332996,71.43147536685865 110.02133883483475,71.75343945495842 110.11562562501058,72.04151189558615 110.20991241507,72.31263830245007 110.31766874663299,72.63460016001773 110.39848599530524,72.87183469143929 110.53318140981719,73.19379513348395 110.64093774132198,73.46491908410098 110.74869407288497,73.7529876484914 110.86991994589334,74.05800071137492 110.97767627745634,74.31217770504009 111.07196306757396,74.54940910753794 111.15278031624621,74.78664006755571 111.28747573064175,75.00692556284775 111.34135389642324,75.12554067150631 111.38176252081757,75.29499063483672 111.34135389642324,75.53222020434623 111.17971939913696,75.56611010665074 111.01808490179246,75.36277055699611 110.85645040438976,75.14248567799223 110.64093774132198,74.83747521569603 110.39848599530524,74.54940910753794 110.11562562501058,74.22745209690765 109.83276525465772,74.00716525166354 109.60378305008635,73.7529876484914 109.33439222117886,73.498809537341 109.11887955811108,73.22768565887236 108.8898973534815,73.02434237083071 108.62050652463222,72.77016280355747 108.3645852371119,72.51598272836418 108.09519440826261,72.26180214519263 107.85274266224587,72.00762105407193 107.59682137484197,71.75343945495842 107.32743054593448,71.53314832484466 107.04457017558161,71.3298023276293 106.74824026378337,71.1942381488625 106.39803218620364,71.09256491993438 106.0478241086239,71.0247827222338 105.72455511399312,70.99089160980657 105.40128611930413,70.9061637892737 105.1049562075059,70.83838149215444 104.7816872128169,70.77059915893187 104.45841821818613,70.71976238532807 104.13514922349714,70.68587119164295 103.74453252163948,70.56725194258615 103.51555031700991,70.49946946487762 103.35391581972362,70.46557821240276 103.16534223948838,70.43168695102213 102.96329911780776,70.3808500419691 102.74778645468177,70.36390440112154 102.55921287444653,70.33001311252883 102.37063929421129,70.29612181500124 102.18206571397604,70.26223050843691 101.96655305090826,70.21139353160106 101.76450992922764,70.16055653447984 101.56246680754703,70.09277384003508 101.38736276875716,70.04193679548916 101.02368514973205,69.87247983358975 100.68694661359768,69.73691410153697 100.32326899463078,69.61829396743269 100.08081724861404,69.56745673326077 99.74407871253788,69.46578220390074 99.42080971779069,69.36410759323917 99.07060164021095,69.2624329013488 98.72039356274763,69.16075812814233 98.35671594372252,69.05908327366342 98.1007946562022,68.95740833788295 97.6832388714538,68.88962500226626 97.33303079387406,68.72016650503792 97.03670088207582,68.6184912983299 96.8346577603952,68.55070778208028 96.55179739010055,68.43208654163755 96.21505885396618,68.34735701642057 95.90525940078078,68.17789779671875 95.56852086458821,67.9745464350126 95.2587214114028,67.7711947481439 94.96239149954636,67.51700468237686 94.7334092950914,67.2289219936938 94.5178966319072,66.94083865235734 94.45054892468033,66.70359305790043 94.35626213456271,66.48329318095057 94.22156672005076,66.26299292243493 94.1003408471006,66.05963849896216 93.96564543264685,65.85628375032684 93.83095001825131,65.55125101767771 93.65584597946145,65.22927122838155 93.48074194067158,64.87339788136887 93.31910744332708,64.48363069193147 93.11706432170467,64.09386230801465 92.91502119996585,63.67019966625958 92.73991716123419,63.36516169026436 92.59175220533507,63.04317636630731 92.43011770793237,62.68729690184409 92.25501366920071,62.28057629452087 92.06644008902367,61.873854386329185 91.86439696728485,61.484078003806644 91.67582338710781,61.07735354825854 91.48724980687257,60.70452165471215 91.28520668519195,60.33168866801134 91.12357218778925,59.94190755869204 90.93499860761221,59.552125254660496 90.7868336517131,59.2301302763226 90.61172961292323,58.84034579056606 90.45009511563694,58.53529622925271 90.32886924257036,58.298034953390015 90.24805199389812,57.976036799605936 90.0998870380572,57.58624846984458 90.00560024788138,57.21340634080116 89.92478299932554,56.80666822598141 89.85743529198226,56.501613786123926 89.81702666770434,56.16266355023254 89.76314850192284,55.73897448486241 89.7362094190321,55.400022216141224 89.69580079469597,54.976330609686556 89.64192262891447,54.637376308077364 89.60151400457835,54.28147331895889 89.61498354602372,53.925569333689054 89.5745749217458,53.53576858788438 89.58804446307477,53.179862515535206 89.61498354602372,52.840903425210854 89.60151400457835,52.484995407940005 89.60151400457835,52.129086394488695 89.50722721451893,51.72233201639028 89.45334904867923,51.349472693458665 89.42640996578848,50.94271582143847 89.39947088289773,50.62069904161035 89.38600134151056,50.23088816447125 89.34559271711623,49.94276631316461 89.27824500988936,49.62074700096855 89.29171455133474,49.180087673245 89.37253180000698,48.824169408966554 89.39947088289773,48.43435302404396 89.39947088289773,48.19707290029328 89.4129404243431,47.94284370486275 89.43987950729206,47.824203239695635 89.38600134151056,47.553024617925985 89.34559271711623,47.230999253341 89.31865363422548,46.89202430433943 89.29171455133474,46.55304845153296 89.27824500988936,46.28186711863964 89.23783638555324,45.892042939245584 89.15701913688099,45.48526860828861 89.14354959549382,45.0954419865011 89.11661051260307,44.68866510690714 89.08967142965412,44.41747979752836 89.049262805318,44.027649901850964 88.9953846395947,43.72256480198121 88.9953846395947,43.50222510784806 89.00885418104008,43.14629094913835 89.00885418104008,42.80730510971625 88.9953846395947,42.4683183664456 88.95497601525858,42.18017892402713 88.90109784947708,41.82424106419785 88.87415876658633,41.48525169980712 88.8876283079735,41.112362355037476 88.91456739092246,40.80727025946544 88.87415876658633,40.41742929407337 88.82028060074663,40.0953858558496 88.79334151791409,39.72249243455008 88.79334151791409,39.41739700362086 88.82028060074663,39.298748582747066 88.83375014225021,39.07840122161724 88.79334151791409,38.84110363642685 88.77987197646871,38.536006090304 88.725993810629,38.2478577355505 88.64517656201497,37.87495889524871 88.63170702051139,37.502058961079456" stroke="#4DD2FF" stroke-dasharray="none" stroke-linecap="round" stroke-linejoin="round" stroke-width="0.5"><title>2017-11-19 11.8km</title><desc>9223370525802103807</desc></polyline><polyline fill="none" opacity="0.5" points="180.16241033002734,68.77132088103099 179.23271162132733,68.5508583697374 178.36499282624573,67.7424951987341 177.37331420346163,67.66900758887641 176.56757532269694,67.59551997069502 175.57589670014568,67.30156941624591 174.77015781914815,67.44854470988503 173.90243902429938,67.3750570670818 172.9107604015153,67.44854470988503 172.04304160689935,67.22808175714454 171.11334289819933,67.3750570670818 170.1216642751824,67.52203234424815 169.06800573854707,67.1545940900105 168.20028694393113,67.0076187311206 167.45652797678486,66.86064333951799 166.58880918216892,66.86064333951799 165.7830703011714,66.56669245840749 164.85337159223855,66.56669245840749 163.9856527976226,66.41971696855035 163.24189383047633,66.64018019085051 161.940315638436,66.05227810144424 160.88665710180067,65.90530249744188 159.89497847901657,65.8318146832753 158.77934002853,65.90530249744188 158.3454806311056,65.97879030363401 157.16786226676777,66.27274144615512 155.68034433270805,65.61135119147366 154.6266857960727,64.7294964886969 153.69698708713986,64.94996027456364 152.64332855073735,64.58252059062943 151.71362984227017,64.43554465955822 150.9698708751239,64.58252059062943 150.2261119079776,64.36205668194452 149.48235294106416,64.06810468947515 148.55265423236415,64.14159269997617 147.74691535136662,64.50903262919746 146.3833572450094,64.06810468947515 145.63959827832878,63.62717645580415 145.26771879475564,62.81880726304371 144.77187948348,62.010437081742566 144.70989956939593,60.834624144248664 144.83385939733125,59.805786107725 144.83385939733125,58.62996924802428 144.70989956939593,57.60112777992617 144.70989956939593,56.20484036859125 144.52395982760936,55.46995107247494 144.39999999990687,54.36761559621664 144.64791965554468,53.33876749302726 144.64791965554468,52.45689641562058 144.8958393111825,51.722002952126786 144.70989956939593,50.76664022792829 145.019799138885,49.737786519224755 144.95781922526658,48.63544148253277 145.14375896705315,47.97403357777512 145.2057388809044,46.65121578302933 145.14375896705315,45.47537552024005 145.2057388809044,44.446513574395794 145.26771879475564,43.63812092185253 145.4536585365422,42.68274651229149 145.63959827832878,41.65388021909166 145.4536585365422,40.62501232390059 145.4536585365422,39.89010570378741 145.32969870860688,39.00821668113349 145.4536585365422,39.89010570378741 145.4536585365422,40.62501232390059 145.63959827832878,41.65388021909166 145.4536585365422,42.68274651229149 145.26771879475564,43.63812092185253 145.2057388809044,44.446513574395794 145.14375896705315,45.47537552024005 145.2057388809044,46.65121578302933 145.14375896705315,47.97403357777512 144.95781922526658,48.63544148253277 145.019799138885,49.737786519224755 144.70989956939593,50.76664022792829 144.8958393111825,51.722002952126786 144.64791965554468,52.45689641562058 144.64791965554468,53.33876749302726 144.39999999990687,54.36761559621664 144.52395982760936,55.46995107247494 144.70989956939593,56.20484036859125 144.70989956939593,57.60112777992617 144.83385939733125,58.62996924802428 144.83385939733125,59.805786107725 144.70989956939593,60.834624144248664 144.77187948348,62.010437081742566 145.26771879475564,62.81880726304371 145.63959827832878,63.62717645580415 146.3833572450094,64.06810468947515 147.74691535136662,64.50903262919746 148.55265423236415,64.14159269997617 149.48235294106416,64.06810468947515 150.2261119079776,64.36205668194452 150.9698708751239,64.58252059062943 151.71362984227017,64.43554465955822 152.64332855073735,64.58252059062943 153.69698708713986,64.94996027456364 154.6266857960727,64.7294964886969 155.68034433270805,65.61135119147366 157.16786226676777,66.27274144615512 158.3454806311056,65.97879030363401 158.77934002853,65.90530249744188 159.89497847901657,65.8318146832753 160.88665710180067,65.90530249744188 161.940315638436,66.05227810144424 163.24189383047633,66.64018019085051 163.9856527976226,66.41971696855035 164.85337159223855,66.56669245840749 165.7830703011714,66.56669245840749 166.58880918216892,66.86064333951799 167.45652797678486,66.86064333951799 168.20028694393113,67.0076187311206 169.06800573854707,67.1545940900105 170.1216642751824,67.52203234424815 171.11334289819933,67.3750570670818 172.04304160689935,67.22808175714454 172.9107604015153,67.44854470988503 173.90243902429938,67.3750570670818 174.77015781914815,67.44854470988503 175.57589670014568,67.30156941624591 176.56757532269694,67.59551997069502 177.37331420346163,67.66900758887641 178.36499282624573,67.7424951987341 179.23271162132733,68.5508583697374 180.16241033002734,68.77132088103099 180.96814921079203,68.77132088103099 181.8358680056408,68.77132088103099 182.64160688663833,68.91829584777588 183.75724533689208,68.9917833188083 184.74892395967618,68.91829584777588 185.74060258246027,68.91829584777588 186.79426111886278,68.77132088103099 187.5999999998603,68.9917833188083" stroke="#4DD2FF" stroke-dasharray="1,0.5" stroke-linecap="round" stroke-linejoin="round" stroke-width="0.5"><title>2014-03-22 10.5km</title><desc>9223370641410674807</desc></polyline><polyline fill="none" opacity="1" points="55.600000000034925,100.52956162023474 55.461348005512264,100.46929604460456 55.31279229716165,100.43313668166957 55.18404401652515,100.51750850800454 55.08500687760534,100.51750850800454 54.95625859696884,100.50545539435552 54.80770288861822,100.50545539435552 54.66905089409556,100.48134916266281 54.57001375517575,100.3969773056524 54.46107290236978,100.3969773056524 54.3521320495056,100.3969773056524 54.203576341154985,100.43313668166957 54.06492434669053,100.43313668166957 53.93617606605403,100.43313668166957 53.80742778541753,100.42108355779783 53.65887207700871,100.3969773056524 53.530123796488624,100.40903043247818 53.39147180196596,100.42108355779783 53.24291609355714,100.40903043247818 53.1240715268068,100.42108355779783 53.01513067400083,100.42108355779783 52.86657496559201,100.43313668166957 52.757634112786036,100.42108355779783 52.62888583220774,100.38492417740053 52.50013755157124,100.36081791646575 52.37138927099295,100.38492417740053 52.24264099041466,100.40903043247818 52.143603851494845,100.40903043247818 51.98514442919986,100.37287104767165 51.86629986244952,100.36081791646575 51.75735900964355,100.36081791646575 51.63851444295142,100.34876478384103 51.4899587345426,100.36081791646575 51.341403026133776,100.36081791646575 51.22255845949985,100.38492417740053 51.08390646497719,100.34876478384103 50.97496561211301,100.34876478384103 50.83631361759035,100.34876478384103 50.71746905089822,100.33671164975385 50.5689133425476,100.31260537717026 50.4401650619111,100.28849909875862 50.27180192572996,100.31260537717026 50.12324621737935,100.31260537717026 49.984594222856686,100.33671164975385 49.826134800561704,100.3246585142042 49.70729023386957,100.3246585142042 49.59834938100539,100.31260537717026 49.4696011004271,100.33671164975385 49.350756533734966,100.3246585142042 49.222008253098466,100.31260537717026 49.08335625863401,100.3246585142042 48.97441540576983,100.3246585142042 48.83576341130538,100.3246585142042 48.70701513066888,100.36081791646575 48.588170563976746,100.34876478384103 48.46932599728461,100.36081791646575 48.33067400276195,100.34876478384103 48.1920220082975,100.34876478384103 48.07317744154716,100.34876478384103 47.934525447082706,100.34876478384103 47.825584594276734,100.34876478384103 47.70674002752639,100.34876478384103 47.58789546077605,100.34876478384103 47.43933975242544,100.3246585142042 47.31059147178894,100.28849909875862 47.181843191210646,100.31260537717026 47.043191196687985,100.30055223871022 46.89463548833737,100.28849909875862 46.76588720775908,100.30055223871022 46.63713892712258,100.30055223871022 46.50839064648608,100.33671164975385 46.379642365907785,100.3246585142042 46.240990371385124,100.31260537717026 46.10233837692067,100.30055223871022 45.97359009628417,100.30055223871022 45.84484181570588,100.27644595733727 45.6863823934691,100.28849909875862 45.57744154060492,100.26439281450439 45.4288858321961,100.27644595733727 45.28033012384549,100.27644595733727 45.15158184320899,100.30055223871022 45.00302613485837,100.26439281450439 44.85447042644955,100.22823337719456 44.70591471804073,100.22823337719456 44.56726272351807,100.20412707834475 44.43851444293978,100.19207392671524 44.299862448475324,100.20412707834475 44.200825309497304,100.20412707834475 44.06217331503285,100.22823337719456 43.94332874828251,100.26439281450439 43.82448418159038,100.28849909875862 43.675928473239765,100.28849909875862 43.547180192603264,100.28849909875862 43.41843191196676,100.26439281450439 43.29958734527463,100.26439281450439 43.19064649246866,100.28849909875862 43.03218707017368,100.27644595733727 42.913342503481545,100.26439281450439 42.784594222845044,100.28849909875862 42.65584594226675,100.26439281450439 42.52709766163025,100.24028652444395 42.37854195327964,100.24028652444395 42.2596973865293,100.22823337719456 42.140852819837164,100.2161802284827 41.98239339754218,100.18002077365963 41.85364511690568,100.22823337719456 41.69518569466891,100.20412707834475 41.56643741403241,100.19207392671524 41.447592847340275,100.20412707834475 41.29903713893145,100.20412707834475 41.160385144467,100.19207392671524 41.0316368638305,100.19207392671524 40.87317744153552,100.20412707834475 40.764236588729545,100.2161802284827 40.615680880320724,100.24028652444395 40.50674002751475,100.16796761914156 40.35818431910593,100.16796761914156 40.2393397524138,100.16796761914156 40.100687757949345,100.15591446313192 39.962035763426684,100.16796761914156 39.84319119673455,100.19207392671524 39.70453920221189,100.15591446313192 39.5757909216336,100.16796761914156 39.43713892711094,100.14386130570347 39.29848693264648,100.14386130570347 39.17964236589614,100.13180814681255 39.07070151309017,100.0835954965878 38.94195323251188,100.0835954965878 38.81320495187538,100.09564866132132 38.664649243466556,100.11975498643005 38.53590096288826,100.10770182458509 38.41705639613792,100.15591446313192 38.28830811555963,100.15591446313192 38.12984869326465,100.15591446313192 38.001100412686355,100.16796761914156 37.87235213210806,100.13180814681255 37.75350756541593,100.13180814681255 37.64456671255175,100.14386130570347 37.50591471802909,100.13180814681255 37.35735900962027,100.14386130570347 37.228610729041975,100.10770182458509 37.0701513068052,100.09564866132132 36.97111416782718,100.10770182458509 36.83246217330452,100.10770182458509 36.53535075660329,100.11975498643005 36.24814305367181,100.09564866132132 36.07977991749067,100.03538282298541 35.69353507569758,100.14386130570347 35.36671251722146,100.11975498643005 35.129023383778986,100.04743599357607 34.911141678108834,100.04743599357607 34.65364511689404,99.99922330253321 34.465474552998785,100.01127647746762 34.1782668500673,100.01127647746762 33.910866575024556,100.14386130570347 33.65337001380976,100.07154233037727 33.34635488310596,100.2161802284827 29.553232462203596,99.99922330253321 29.305639614874963,99.91485103695595 29.077854195376858,99.96306376886787 28.741127923014574,99.99922330253321 28.46382393402746,99.91485103695595 28.146905089437496,99.86663828163728 27.90921595605323,99.8304786998633 24.68060522695305,99.86663828163728 24.39339752413798,99.84253189527226 24.066574965661857,99.81842550299916 23.828885832219385,99.85458508918964 23.60110041272128,99.78226590371196 23.284181568131316,99.74610629129165 22.98707015137188,99.79431910492713 22.6998624484404,99.78226590371196 20.214030261384323,99.7581594968724 19.847592847363558,99.78226590371196 19.649518569523934,99.78226590371196 19.461348005512264,99.7702127010416 19.39202200830914,99.7581594968724 19.213755158241838,99.70994666570186 19.005777166457847,99.7581594968724 18.787895460787695,99.74610629129165 18.59972489689244,99.67378702704445 18.371939477336127,99.66173381121916 18.124346630007494,99.66173381121916 17.8668500687927,99.73405308424117 17.76781292987289,99.61352093333699 16.618982118321583,99.72199987569911 16.37138927099295,99.67378702704445 16.173314993153326,99.67378702704445 15.876203576393891,99.66173381121916 15.59889958734857,99.68584024138545 15.341403026191983,99.68584024138545 15.054195323260501,99.69789345427125 14.806602475990076,99.62557415497577 14.559009628603235,99.66173381121916 14.33122420910513,99.62557415497577 14.004401650687214,99.63762737519573 13.816231086675543,99.5894144856502 13.459697386540938,99.64968059390958 13.113067400292493,99.60146771024301 12.994222833600361,99.67378702704445 13.053645116975531,99.9389574058223 13.04374140308937,100.10770182458509 13.083356258634012,100.38492417740053 12.92489683633903,100.46929604460456 12.865474553022068,100.26439281450439 12.776341127988417,100.10770182458509 12.607977991807275,100.16796761914156 12.479229711170774,100.40903043247818 12.400000000023283,100.54161473100248 12.429711141739972,100.8549950983579 12.479229711170774,101.14426840811211 12.538651994545944,101.42148787456972 12.598074277921114,101.72281250610104 12.647592847351916,102.01208329441579 12.716918844613247,102.22903583408333 12.736726272385567,102.43393502077379 12.756533700157888,102.66293949515239 12.786244841874577,102.96426036948105 12.83576341130538,103.20531641230627 12.84566712519154,103.47047738533001 12.83576341130538,103.75974309603043 12.89518569468055,104.03695528012759 12.865474553022068,104.32621934502095" stroke="#4DD2FF" stroke-dasharray="none" stroke-linecap="round" stroke-linejoin="round" stroke-width="0.5"><title>2013-12-10 10.9km</title><desc>9223370650177580807</desc></polyline><polyline fill="none" opacity="1" points="88.2420135596767,113.09196302411146 88.2420135596767,116.01086677075364 89.4418080933392,118.34598722797818 91.84139716345817,121.84866367932409 94.72090404573828,123.01622136775404 98.56024655792862,123.60000000009313 102.15963016077876,122.43244259478524 104.07930141687393,119.80543636670336 106.71884939447045,117.47031732159667 108.39856174215674,113.38385355728678 108.39856174215674,110.17305574938655 109.59835627768189,106.08657963620499 110.07827409170568,102.87577212415636 110.79815081227571,99.08117592497729 111.7579864403233,94.70278828428127 111.7579864403233,92.07575188926421 111.51802753377706,87.69735154649243 110.31823299825191,84.19462555623613 108.87847955618054,81.85947207268327 105.51905485894531,80.98378893476911 103.11946578975767,80.4000000001397 99.28012327849865,80.6918944849167 96.16065748780966,82.44326065597124 93.04119169805199,85.36220145085827 90.64160262793303,88.57303225062788 90.40164372138679,92.36764496355318 89.92172590643167,95.87035909830593 89.4418080933392,99.37306815129705 88.72193137276918,102.58388032088988 88.72193137276918,106.37847101641819 88.2420135596767,110.17305574938655" stroke="#4DD2FF" stroke-dasharray="none" stroke-linecap="round" stroke-linejoin="round" stroke-width="0.5"><title>2013-11-30 10.3km</title><desc>9223370651086224807</desc></polyline><polyline fill="none" opacity="1" points="155.25534126441926,116.17075901036151 155.933951289393,118.37201812700368 156.83876465633512,119.47264688764699 158.874594733119,122.22421646025032 162.26764486078173,122.22421646025032 166.11310167238116,123.60000000009313 167.01791503932327,121.6739028126467 170.63716850895435,119.74780399515294 174.25642197672278,115.89560147118755 175.16123534552753,114.51981327589601 176.97086207941175,112.04339242749847 176.29225205350667,106.8153840135783 175.61364202853292,105.71474913298152 175.83984537050128,101.86252286075614 177.1970654213801,96.90965093066916 177.1970654213801,95.80901126144454 175.61364202853292,92.78224942437373 177.87567544635385,90.30580492829904 176.29225205350667,89.20516206463799 174.7088286606595,86.72871367656626 172.67299858573824,83.7019397658296 170.86337184999138,83.15161680453457 167.92272840626538,80.4000000001397 163.3986615696922,82.6012937091291 160.23181478399783,85.90323028201237 157.29117134027183,88.93000126630068 156.16015463043004,90.85612616012804 155.933951289393,95.25869122636504 157.5173746822402,99.38608824228868 155.70774794742465,102.96315960329957 154.80293457955122,105.43959032977 155.4815446054563,107.64085982413962 154.57673123851418,110.6676019039005 154.80293457955122,113.69433995871805 154.80293457955122,117.27138883504085 156.83876465633512,118.64717536675744 159.55320475902408,120.57327511627227 162.9462548866868,121.94905965286307 165.88689832948148,122.77452997583896 169.05374511517584,122.22421646025032 171.7681852169335,120.02296106843278 174.25642197672278,117.27138883504085 175.83984537050128,113.41918211965822 176.06604871153831,110.3924436995294 176.29225205350667,107.36570125445724 176.29225205350667,104.06379581429064 175.61364202853292,100.76188558526337 176.29225205350667,97.45997056690976 176.51845539640635,94.70837105903774 177.42326876241714,91.40644725854509 176.97086207941175,88.37967956834473 175.61364202853292,85.62806908367202 173.80401529371738,83.7019397658296 171.7681852169335,82.87645527347922 168.60133843217045,82.05097048147582 165.88689832948148,82.05097048147582 162.72005154378712,83.7019397658296 160.9104248099029,84.25226259441115 158.874594733119,86.45355257811025 157.29117134027183,88.37967956834473 157.06496799830347,91.40644725854509 156.16015463043004,95.25869122636504 156.61256131436676,98.28544977051206 155.933951289393,102.13768209633417 155.933951289393,104.06379581429064 155.4815446054563,108.46633533574641 154.12432455457747,112.31855043233372 154.57673123851418,116.17075901036151 155.933951289393,118.09686085442081 159.77940810006112,119.19748974777758 162.9462548866868,121.3987459379714 166.11310167238116,121.3987459379714 169.50615179911256,119.74780399515294 171.7681852169335,118.09686085442081 173.57781195174903,115.07012865296565 175.16123534552753,111.21791821252555 174.93503200262785,107.64085982413962 175.61364202853292,104.33895478351042 175.61364202853292,100.76188558526337 176.29225205350667,97.45997056690976 176.51845539640635,93.6077303243801 177.64947210531682,89.48032283014618" stroke="#4DD2FF" stroke-dasharray="none" stroke-linecap="round" stroke-linejoin="round" stroke-width="0.5"><title>2013-11-16 10.4km</title><desc>9223370652294258807</desc></polyline><polyline fill="none" opacity="1" points="22.567434517666698,160.06034860108048 22.0809423699975,163.6110163643025 23.053926666267216,166.5699022328481 24.51340311113745,168.64112021238543 28.648586370050907,170.71233643963933 33.51350785139948,171.60000000009313 37.89193718507886,171.30411218269728 38.86492148041725,169.52878452418372 41.5406282953918,167.1616789775435 41.78387437015772,163.01923876185901 41.78387437015772,160.35623777890578 42.75685866642743,155.32611690624617 44.70282725896686,150.29598569567315 44.94607333280146,146.1535169382114 45.43256548047066,142.89871513913386 45.18931940663606,138.75623386260122 45.43256548047066,135.7973143735435 44.21633510943502,132.5424988034647 40.081151850521564,129.879464663798 36.43246074113995,128.99178597261198 32.78376962989569,128.99178597261198 28.891832443885505,130.4712502779439 26.21612562984228,132.24660626379773 24.999895258806646,136.38909855671227 23.297172740101814,141.12336687929928 23.297172740101814,144.08227993012406 23.053926666267216,146.74529861821793 22.324188444763422,150.88776637450792 22.567434517666698,154.73433729959652 22.324188444763422,157.69323389837518 22.567434517666698,162.72334990650415 23.540418813936412,165.09045974630862 25.972879556007683,167.1616789775435 30.594554962590337,171.00822432967834 34.486492147669196,171.00822432967834 38.135183257982135,169.82467255694792 40.324397925287485,168.64112021238543 43.00010474026203,165.38634831481613 43.729842961765826,162.72334990650415 43.48659688793123,158.58090218016878 43.973089036531746,153.8466676226817 44.94607333280146,150.88776637450792 45.675811554305255,147.33708015549928 45.675811554305255,143.7863887862768 45.919057629071176,139.64390901243314 45.43256548047066,135.7973143735435 43.24335081502795,132.5424988034647 40.567644000053406,130.4712502779439 36.43246074113995,128.4000000001397 32.78376962989569,128.99178597261198 29.378324592486024,130.4712502779439 26.21612562984228,131.95071368920617 23.540418813936412,134.90963782859035 22.810680591501296,140.23569226590917 23.053926666267216,143.7863887862768 22.567434517666698,147.33708015549928 24.02691096253693,150.88776637450792 22.324188444763422,156.50967568787746 21.594450222328305,160.35623777890578 22.324188444763422,164.2027938242536 22.567434517666698,166.27401380729862 26.21612562984228,168.64112021238543 29.135078517720103,170.12056055432186 33.99999999906868,170.71233643963933 37.40544503647834,170.12056055432186 40.567644000053406,168.64112021238543 42.75685866642743,165.68223684746772 43.48659688793123,162.13157208892517 44.45958118420094,158.58090218016878 44.94607333280146,155.0302271207329 45.18931940663606,151.77543712500483 45.675811554305255,148.81653337273747 45.919057629071176,145.26584414974786 46.40554977674037,139.3480173314456 45.919057629071176,135.7973143735435 44.21633510943502,133.13428377383389 41.0541361477226,130.4712502779439 38.378429332748055,129.2876789055299 33.51350785139948,128.69589300476946 30.594554962590337,129.58357180282474 27.91884814761579,130.76714303181507 25.486387406475842,133.13428377383389 24.51340311113745,134.31785328662954 23.783664888702333,135.7973143735435" stroke="#4DD2FF" stroke-dasharray="none" stroke-linecap="round" stroke-linejoin="round" stroke-width="0.5"><title>2013-11-03 10.7km</title><desc>9223370653417861807</desc></polyline><polyline fill="none" opacity="1" points="103.90653194859624,130.41601742454804 100.35513926763088,130.12801503995433 97.51402512192726,130.41601742454804 94.67291097715497,132.14403100241907 92.77883488032967,135.3120526385028 91.35827780794352,138.1920686531812 91.59503732062876,143.37608870584518 90.88475878350437,145.96809450211003 90.1744802473113,149.712097896263 89.46420171111822,153.4560954067856 88.51716366223991,155.7600909504108 88.28040415141732,159.2160800890997 88.28040415141732,162.96006266516633 89.70096122287214,167.28003524802625 92.77883488032967,169.5840174248442 97.27726561017334,171.31200259411708 100.59189877938479,171.60000000009313 104.3800509730354,170.16001262003556 107.69468414224684,167.28003524802625 108.16820316575468,162.6720642137807 110.29903877526522,158.06408426584676 110.53579828795046,154.60809345706366 110.53579828795046,151.44009747868404 110.77255779877305,147.1200961722061 111.00931731145829,142.80008703446947 112.19311487209052,139.0560727783013 112.42987438477576,135.3120526385028 110.29903877526522,132.7200352489017 108.87848170287907,130.41601742454804 105.80060804635286,128.9760051521007 102.01245585177094,128.4000000001397 98.22430365905166,129.2640076763928 94.90967048984021,129.84001261997037 89.70096122287214,133.8720433257986 88.99068268761039,135.0240508459974 88.99068268761039,136.46405946207233 90.1744802473113,139.63207535468973 89.93772073462605,143.66408948926255 88.51716366223991,147.69609680003487 88.51716366223991,150.57609784416854 87.57012561522424,154.32009399705566 87.57012561522424,157.48808614653535 87.80688512697816,160.65607408294454 87.57012561522424,163.5360594613012 89.22744219843298,166.7040393569041 91.35827780794352,169.00802208902314 94.19939195271581,169.87201503990218 97.9875441454351,169.5840174248442" stroke="#4DD2FF" stroke-dasharray="none" stroke-linecap="round" stroke-linejoin="round" stroke-width="0.5"><title>2013-11-02 10.5km</title><desc>9223370653505000807</desc></polyline><polyline fill="none" opacity="1" points="156.23366068210453,149.19010429433547 156.01169842481613,151.35010403278284 156.01169842481613,152.97010246641003 155.56777391023934,155.67009724397212 155.12384939659387,158.6400877290871 156.23366068210453,162.15007139416412 157.5654342258349,164.85005507571623 160.67290582694113,167.0100396713242 164.22430194169283,168.3600289823953 167.7756980592385,168.3600289823953 169.77335837297142,167.82003335561603 172.65886771772057,165.66004954348318 174.6565280323848,162.96006684168242 175.54437706060708,159.18008557590656 175.54437706060708,155.94009654247202 175.7663393188268,152.70010280935094 175.54437706060708,149.46010437584482 175.54437706060708,146.49010168295354 176.43222609069198,142.98009340977296 176.87615060433745,140.01008210144937 176.43222609069198,137.31006839242764 175.32241480425,134.34004954481497 173.99064126145095,132.72003759886138 170.4392451448366,130.56001984444447 167.7756980592385,128.4000000001397 165.3341132281348,129.48001018329524 162.0046793706715,130.8300221778918 159.78505679685622,132.45003549358808 158.67524551134557,135.69005860155448 158.2313209977001,138.12007284793071 157.7873964831233,141.63008875912055 156.45562293939292,144.33009724435396 156.01169842481613,146.76010209089145 156.23366068210453,150.81010429398157 157.7873964831233,154.32010026299395 154.90188713837415,155.13009854895063 155.12384939659387,156.21009580790997 154.45796262472868,157.56009164638817 154.90188713837415,163.23006525845267 160.22898131329566,166.20004569296725 165.77803774364293,167.55003549298272 167.1098112873733,167.55003549298272 169.10747160110623,167.55003549298272 171.77101868763566,168.3600289823953 173.99064126145095,164.0400603134185 174.6565280323848,162.96006684168242 174.8784902896732,160.5300796192605 175.54437706060708,159.18008557590656 173.54671674594283,158.91008666879497 174.8784902896732,158.10008975397795 176.2102638334036,155.94009654247202 175.9883015761152,150.81010429398157 176.2102638334036,149.46010437584482 175.7663393188268,146.2201012421865 176.2102638334036,142.1700907170307 175.7663393188268,136.7700652598869 175.32241480425,133.26004171161912 173.54671674594283,129.75001264712773 169.55139611661434,129.48001018329524 165.77803774364293,129.21000768686645 162.6705661425367,130.56001984444447 159.78505679685622,132.72003759886138 156.67758519575,133.26004171161912 156.45562293939292,137.58006991050206 156.23366068210453,140.55008445074782 156.01169842481613,144.0600965428166 154.90188713837415,147.57010311936028 155.34581165295094,151.62010385282338 155.12384939659387,155.13009854895063 154.90188713837415,159.18008557590656 154.90188713837415,161.61007426702417 158.45328325405717,165.66004954348318 164.00233968626708,168.63002674723975 166.44392451550812,169.98001507879235 169.32943385839462,171.60000000009313 173.32475448958576,167.82003335561603 175.1004525469616,162.69006839231588 175.54437706060708,159.7200832911767 175.54437706060708,158.6400877290871 175.1004525469616,153.24010209064 174.8784902896732,148.92010417976417 175.32241480425,146.2201012421865 175.54437706060708,142.98009340977296 177.09811286255717,138.93007700890303 175.7663393188268,135.96006031497382 174.43456577509642,134.34004954481497 172.88082997407764,130.8300221778918 170.21728288847953,130.02001507859677 166.0,129.75001264712773 162.0046793706715,130.56001984444447 159.78505679685622,130.8300221778918 156.89954745396972,132.72003759886138 154.90188713837415,135.69005860155448 154.67992488108575,138.39007426798344 155.34581165295094,139.7400808769744 154.23600036650896,142.71009254432283 154.67992488108575,145.95010076928884 154.90188713837415,147.57010311936028 154.45796262472868,150.27010442432947 154.90188713837415,153.78010124200955 154.67992488108575,157.02009340864606 154.90188713837415,161.34007565444335 157.5654342258349,166.20004569296725 161.7827171124518,168.63002674723975 163.11449065618217,168.3600289823953 166.0,169.98001507879235 167.99766031466424,169.1700221770443 171.1051319167018,171.33000259427354 173.32475448958576,168.63002674723975 174.8784902896732,162.42006990942173 173.99064126145095,158.37008875748143 175.1004525469616,151.35010403278284 174.8784902896732,147.0301024664659 174.8784902896732,145.68010026379488 176.43222609069198,142.98009340977296 177.76399963349104,140.82008557626978 177.09811286255717,136.7700652598869 175.32241480425,132.1800333559513 173.10279223136604,129.75001264712773 169.9953206302598,128.6700025945902 166.0,128.94000515691005 161.1168303405866,130.56001984444447 157.1215097112581,132.1800333559513 156.67758519575,133.53004371840507 155.56777391023934,134.61005142168142 155.78973616752774,137.04006684245542 156.01169842481613,138.6600756549742 156.23366068210453,142.1700907170307 156.23366068210453,143.5200950417202 156.23366068210453,147.84010339644738 156.01169842481613,149.19010429433547 155.12384939659387,151.62010385282338 155.78973616752774,155.13009854895063 154.90188713837415,156.21009580790997 155.12384939659387,161.07007700833492 156.23366068210453,162.15007139416412 156.23366068210453,163.50006364332512 158.45328325405717,165.66004954348318 162.6705661425367,168.63002674723975 167.1098112873733,170.52001018356532 170.4392451448366,169.710017477395 171.99298094585538,168.09003118495457 175.32241480425,163.77006199466996 174.8784902896732,159.18008557590656 174.43456577509642,152.97010246641003 176.2102638334036,152.1601033960469 176.65418834704906,147.3001028096769 176.87615060433745,146.49010168295354" stroke="#4DD2FF" stroke-dasharray="none" stroke-linecap="round" stroke-linejoin="round" stroke-width="0.5"><title>2013-10-26 11.1km</title><desc>9223370654110301807</desc></polyline><polyline fill="none" opacity="1" points="27.341138722375035,181.51583090610802 24.771051913499832,184.3579543782398 22.901897870004177,187.76849800907075 24.30376340262592,190.32640248560347 25.004696168005466,193.1685153071303 25.004696168005466,196.86325683817267 24.07011914718896,199.9895720607601 23.602830636315048,203.68430287321098 23.36918638087809,206.81060902611353 24.30376340262592,208.23165590292774 23.602830636315048,212.77900013769977 25.705628934316337,215.62108581862412 28.042071488685906,217.89475188939832 30.845802552998066,218.46316806343384 34.11682212725282,217.89475188939832 38.08877446874976,216.18950254260562 41.359794043935835,213.91583482245915 42.29437106475234,209.93691102182493 42.06072680931538,206.52639954793267 42.52801532112062,202.26325324806385 42.52801532112062,198.85273064253852 42.52801532112062,195.1579922370147 43.92988085281104,191.4632480267901 45.565390639938414,189.18955639493652 46.49996766168624,186.63165068160743 46.26632340531796,184.07374218595214 43.92988085281104,181.23161837016232 40.8925055321306,179.81055517448112 37.855130213312805,177.25263925665058 34.58411063905805,176.4000000001397 31.0794468075037,177.82106525660492 28.27571574319154,180.09476788225584 25.705628934316337,182.6526807071641 25.238340424373746,185.77901482582092 25.238340424373746,189.4737679695245 24.771051913499832,192.60009301709943 24.30376340262592,196.86325683817267 21.50003233831376,199.9895720607601 21.967320849187672,203.68430287321098 21.733676593750715,207.94744659680873 22.200965103693306,211.07374708005227 22.200965103693306,213.91583482245915 24.30376340262592,216.75791912851855 27.341138722375035,219.0315841003321 30.61215829756111,219.60000000009313 34.58411063905805,219.0315841003321 37.154197447001934,217.610543750925 40.8925055321306,215.90529419737868 41.82708255480975,213.6316262029577 43.462592341937125,210.22112008789554 43.92988085281104,206.81060902611353 43.92988085281104,203.1158831268549 44.39716936368495,199.70536175812595 45.0981021290645,195.4422030900605 45.33174638450146,192.0316705906298 45.79903489537537,189.18955639493652 45.565390639938414,185.49480280443095 44.63081361912191,181.80004340759479 42.52801532112062,179.24212965508923 39.4906400013715,178.10527820512652 35.98597617074847,177.53685227409005 32.48131234012544,177.53685227409005 29.21029276587069,178.95791684417054 25.705628934316337,181.23161837016232 24.30376340262592,184.07374218595214 25.004696168005466,188.33692146651447 23.602830636315048,191.74745932617225 23.36918638087809,194.58957042940892 23.36918638087809,198.28430972713977 21.733676593750715,201.69483315735124 22.200965103693306,206.52639954793267 21.967320849187672,209.3684927856084 23.36918638087809,212.21058258996345 24.30376340262592,215.90529419737868 25.238340424373746,217.610543750925 30.845802552998066,219.0315841003321 34.81775489356369,218.46316806343384 37.38784170243889,216.18950254260562 41.59343829844147,212.77900013769977 43.22894808650017,211.9263737637084 43.92988085281104,209.08428361662664 43.462592341937125,205.95798048726283 43.462592341937125,202.26325324806385 43.462592341937125,199.13694104878232 43.92988085281104,195.72641390911303 45.33174638450146,192.31588182109408 45.565390639938414,189.18955639493652 45.565390639938414,186.34743876405992 45.565390639938414,183.78952995873988 43.22894808650017,181.23161837016232 41.359794043935835,178.10527820512652 37.855130213312805,176.96842620545067 33.6495336163789,178.10527820512652 29.67758127581328,180.09476788225584 27.341138722375035,183.22110540163703" stroke="#4DD2FF" stroke-dasharray="none" stroke-linecap="round" stroke-linejoin="round" stroke-width="0.5"><title>2013-10-20 10.7km</title><desc>9223370654628121807</desc></polyline><polyline fill="none" opacity="1" points="111.91290526092052,201.00769607233815 112.58722065296024,198.00010313512757 113.03676424827427,195.265924267238 113.26153604499996,192.53174209501594 112.81199244968593,188.7038815007545 112.58722065296024,185.96969139552675 110.33950267918408,182.68865890684538 108.76610009744763,179.4076216588728 105.84406673163176,177.49368106550537 102.69726156815886,176.4000000001397 99.77522820234299,176.4000000001397 96.1788794444874,177.2202608489897 92.80730248428881,179.4076216588728 90.33481271192431,182.68865890684538 89.43572552409023,185.69627220346592 89.43572552409023,188.7038815007545 88.76141013111919,191.98490526387468 88.53663833346218,196.08617827505805 87.41277934703976,199.3671913293656 87.86232294142246,202.3747824486345 86.73846395500004,206.20261990721337 89.2109537255019,208.6633691387251 90.11004091612995,211.9443639498204 91.90821529459208,215.49876962439157 94.15593326836824,217.41267805802636 97.75228202715516,218.77975451922975 101.57340258173645,219.60000000009313 104.49543594755232,217.95950874243863 106.96792571805418,215.22535400115885 108.99087189510465,212.76461190870032 110.56427447684109,209.75703460443765 110.33950267918408,207.5697031437885 111.0138180712238,204.56211893237196 111.23858986981213,201.5545307220891 111.46336166653782,198.54693851224147 112.13767705764621,196.08617827505805 112.58722065296024,191.71148679824546" stroke="#4DD2FF" stroke-dasharray="none" stroke-linecap="round" stroke-linejoin="round" stroke-width="0.5"><title>2013-10-19 10.2km</title><desc>9223370654714312807</desc></polyline><polyline fill="none" opacity="1" points="176.63002083823085,191.09396369801834 177.59638636745512,187.27354168030433 176.1468380726874,183.15923433192074 174.93888115882874,180.22043910529464 171.31501041911542,177.5755203643348 167.20795691385865,176.4000000001397 163.3424947904423,177.5755203643348 160.20180681534111,179.33879984519444 158.51066713687032,182.57147557032295 157.302710223943,185.51026795455255 157.06111884023994,188.15517806308344 156.5779360756278,191.9755986945238 155.61157054454088,195.5021354884375 154.8867963962257,198.73478972166777 154.64520501438528,201.96743965684436 154.64520501438528,206.08171517541632 155.12838777899742,209.90210763714276 156.81952745839953,213.72249409533106 158.0274843722582,215.7796227785293 160.92658096458763,219.0122500488069 164.55045170336962,219.0122500488069 167.44954829569906,219.60000000009313 170.83182765357196,218.13062485610135 173.48933286219835,216.36737351119518 175.18047254160047,212.84086698386818 175.66365530714393,208.43272663117386 175.90524668991566,203.73070144630037 175.90524668991566,200.79193108691834 175.90524668991566,197.26540196686983 176.87161222100258,194.32662379206158 177.59638636745512,190.80008529429324 177.35479498654604,186.39190497691743 175.18047254160047,180.22043910529464 172.52296733297408,178.16328033292666 167.6911396794021,176.69388014404103 164.79204308707267,176.9877602532506 161.8929464938119,179.63267963356338 159.23544128518552,181.6898371623829 158.51066713687032,184.62863061204553 157.06111884023994,189.33069274341688 155.61157054454088,193.73886773106642 155.61157054454088,197.26540196686983 154.16202224884182,200.79193108691834 154.40361363161355,204.6123318609316 154.64520501438528,207.8449739809148 154.16202224884182,211.37148775416426 156.09475331008434,215.48574735829607 158.75225852057338,218.13062485610135 161.40976372919977,218.42449995642528 166.48318276554346,219.0122500488069 169.38227935694158,217.54287455044687 172.52296733297408,214.89799641259015 173.48933286219835,212.25311539904214 174.697289776057,208.43272663117386 176.1468380726874,204.9062085954938 177.35479498654604,201.67356256698258 177.83797775115818,197.55927958874963 177.35479498654604,192.85723337321542 177.35479498654604,188.44905678625219 176.3884294545278,184.92250976222567 174.93888115882874,180.22043910529464 172.03978456743062,178.16328033292666 168.89909659232944,177.28164032683708 164.79204308707267,176.9877602532506" stroke="#4DD2FF" stroke-dasharray="none" stroke-linecap="round" stroke-linejoin="round" stroke-width="0.5"><title>2013-10-12 10.6km</title><desc>9223370655320152807</desc></polyline><polyline fill="none" opacity="1" points="25.239898052997887,233.32806421397254 25.476657565683126,235.63207535468973 24.05610049236566,240.24009095085785 24.05610049236566,242.83209580695257 23.345821957103908,247.44009747868404 24.05610049236566,250.60809345706366 24.292860004119575,254.92808118532412 23.81934098061174,258.6720642137807 22.635543420910835,262.41604135814123 24.76637902855873,263.28003524802625 28.317771709524095,265.5840174248442 31.632404879666865,267.60000000009313 34.710278537124395,267.60000000009313 38.97194975428283,265.8720150399022 41.57630438823253,263.8560310017783 43.943899508565664,260.6880526384339 44.890937557443976,256.9440727783367 45.12769706826657,252.33608948835172 43.943899508565664,248.59209650335833 44.180659021250904,243.40809650346637 45.36445658095181,239.37608870584518 45.60121609363705,236.2080777916126 46.54825414158404,233.32806421397254 45.837975605390966,231.0240508459974 43.23362097237259,227.28002436971292 38.97194975428283,225.84001261997037 35.42055707331747,224.9760051521007 32.57944292854518,224.9760051521007 30.21184780728072,226.12801503995433 26.1869361018762,228.14403100241907 24.76637902855873,231.0240508459974 23.81934098061174,234.48007006268017 24.05610049236566,238.5120861462783 24.05610049236566,241.96809450211003 24.292860004119575,245.13609775714576 24.05610049236566,248.88009617221542 22.398783908225596,251.47209162986837 21.6885053711012,254.3520832741633 21.451745859347284,257.2320714369416 22.398783908225596,260.1120561193675 23.582581467926502,262.41604135814123 25.239898052997887,265.296019774396 28.317771709524095,266.7360076766927 31.632404879666865,266.7360076766927 36.6043546339497,267.60000000009313 39.68222829140723,264.72002436965704 41.57630438823253,262.1280433256179 43.943899508565664,258.3840657279361 44.180659021250904,254.3520832741633 44.180659021250904,250.89609288284555 45.36445658095181,247.15209763497114 46.07473511714488,243.69609680003487 45.837975605390966,240.52809162950143 45.837975605390966,237.93608426721767 46.31149462983012,234.48007006268017 45.60121609363705,231.6000543970149 44.65417804475874,229.00803732057102 43.23362097237259,226.12801503995433 40.155747315846384,224.4000000001397 36.6043546339497,224.4000000001397 32.57944292854518,224.4000000001397 28.791290735825896,224.9760051521007 26.660455126315355,227.28002436971292 24.292860004119575,231.0240508459974 24.76637902855873,233.6160657289438 24.76637902855873,237.07208118587732 23.345821957103908,241.68009399762377 23.345821957103908,245.712097896263 24.05610049236566,247.15209763497114 23.10906244441867,250.89609288284555 22.398783908225596,252.9120878870599 22.87230293173343,256.36807535379194 23.582581467926502,259.5360594613012" stroke="#4DD2FF" stroke-dasharray="none" stroke-linecap="round" stroke-linejoin="round" stroke-width="0.5"><title>2013-10-06 10.6km</title><desc>9223370655838244807</desc></polyline><polyline fill="none" opacity="1" points="111.76110279094428,247.68321679718792 111.06927321478724,244.03646333003417 111.06927321478724,240.67022427427582 111.76110279094428,237.5845008501783 111.99171264935285,234.77929417719133 111.76110279094428,231.97408411232755 109.6856140634045,230.2909564457368 108.07134505175054,228.04678432480432 105.30402674898505,226.9246974508278 102.30609858687967,227.48574095615186 97.69390141405165,228.04678432480432 95.38780282903463,228.6078275591135 93.77353381738067,230.2909564457368 93.54292395804077,231.97408411232755 92.62048452533782,234.77929417719133 92.38987466599792,237.86502133100294 91.69804508984089,242.07282447465695 91.00621551368386,245.15854193037376 91.69804508984089,248.80529363360256 90.77560565527529,251.89100213861093 90.31438593752682,255.53774326271378 89.39194650482386,258.3429248428438 89.39194650482386,260.3065499314107 90.31438593752682,263.3922431420069 91.92865494918078,265.6363810834009 96.07963240426034,266.75844923895784 99.30817042570561,267.60000000009313 102.30609858687967,266.75844923895784 105.30402674898505,266.47793225129135 107.37951547559351,264.23379512433894 108.76317462790757,261.98965582833625 109.6856140634045,258.0624068370089 109.45500420406461,254.97670653951354 110.37744363863021,251.04944568034261 110.37744363863021,247.40269750310108 110.14683377929032,243.75594359473325 109.91622392181307,238.98710291530006 110.37744363863021,235.62085653445683 111.06927321478724,234.21825243486091 110.37744363863021,231.41304169245996 108.07134505175054,228.88834912492894 105.07341689057648,226.0831319389399 102.9979281630367,225.2415661229752 99.76939014159143,225.80261003412306 96.31024226266891,225.80261003412306 94.4653633935377,226.6441756472923 93.31231410056353,229.72991361888126 91.69804508984089,232.5351263966877 91.46743523143232,235.62085653445683 90.77560565527529,239.26762322615832 90.08377608004957,243.19490402424708 89.62255636136979,245.7195810272824 88.9307267870754,248.80529363360256 88.9307267870754,252.17152088950388 88.0082873525098,255.53774326271378 87.54706763476133,258.0624068370089 87.7776774931699,261.14810303226113 88.9307267870754,263.6727605035994 91.92865494918078,266.19741522870027 95.61841268651187,267.0389661930967 99.76939014159143,267.319483113708 103.45914787892252,266.75844923895784 105.99585632514209,264.794829609571 108.76317462790757,262.55069085536525 109.91622392181307,258.3429248428438 110.37744363863021,255.53774326271378 110.83866335544735,252.4520396075677 111.06927321478724,249.6468509058468 111.53049293160439,245.7195810272824 111.76110279094428,243.4754238263704 111.99171264935285,240.3897041331511 112.22232250776142,237.5845008501783 112.45293236616999,234.49877332313918 111.76110279094428,231.69356291904114 110.60805349703878,229.1688706574496 108.30195491109043,226.6441756472923 105.76524646673352,225.2415661229752 102.9979281630367,224.4000000001397 100.69182957615703,224.96104411478154 96.77146197948605,225.52208809531294 94.00414367672056,227.20521922083572 92.62048452533782,230.8519991368521 91.00621551368386,235.34033578261733 90.08377608004957,238.14554177806713 89.85316622070968,240.3897041331511 89.62255636136979,243.4754238263704 89.85316622070968,246.56113941781223 90.08377608004957,249.92736992868595 89.85316622070968,253.01307694031857 89.62255636136979,256.3792980927974 90.08377608004957,259.7455143611878 91.46743523143232,262.83120831870474 94.00414367672056,264.5143123844173 96.77146197948605,267.319483113708 100.69182957615703,267.319483113708 102.9979281630367,267.0389661930967 106.45707604289055,265.35586395906284 108.532564769499,263.3922431420069 109.6856140634045,260.0260321632959 110.14683377929032,257.2208526181057 111.06927321478724,254.13515119976364 111.06927321478724,250.76892679347657 111.76110279094428,247.96373605774716 111.76110279094428,244.8780223308131 111.53049293160439,241.79230450256728 112.68354222457856,238.14554177806713 111.76110279094428,235.34033578261733 110.83866335544735,231.97408411232755 110.14683377929032,229.44939215504564 107.6101253349334,227.7662626572419 104.38158731441945,226.0831319389399 101.38365915231407,226.6441756472923 97.23268169723451,226.9246974508278 94.23475353512913,228.88834912492894 92.85109438374639,230.8519991368521 90.77560565527529,234.21825243486091 90.31438593752682,236.46241858764552 89.39194650482386,240.1091839573346 89.62255636136979,243.19490402424708 88.46950706932694,246.28061998845078 88.46950706932694,249.6468509058468 87.7776774931699,253.01307694031857 87.31645777635276,256.3792980927974 88.0082873525098,259.7455143611878 89.16133664548397,262.83120831870474 92.62048452533782,264.794829609571 96.31024226266891,266.47793225129135 98.84695070702583,265.9168981728144 102.30609858687967,265.0753468009643 104.84280703123659,262.270173358731 108.07134505175054,260.3065499314107" stroke="#4DD2FF" stroke-dasharray="none" stroke-linecap="round" stroke-linejoin="round" stroke-width="0.5"><title>2013-09-29 10.5km</title><desc>9223370656443428807</desc></polyline><polyline fill="none" opacity="1" points="175.66518027801067,258.3038671386894 176.5642668157816,255.29628656315617 176.5642668157816,251.7418679993134 176.5642668157816,248.73427869705483 177.23858171794564,246.00010313582607 177.23858171794564,242.17225179541856 178.36243989039212,238.8912312053144 177.68812498729676,237.25071912514977 176.78903844952583,234.51652968092822 175.66518027801067,230.68865890661255 173.86700720340014,227.95446153078228 171.39451922569424,225.49368106527254 170.0458894195035,225.76710125035606 166.00000000093132,224.94684059894644 163.30274038854986,226.5873616025783 160.83025241084397,228.22788141667843 159.7063942393288,232.055756355403 158.35776443313807,233.6962722032331 157.6834495300427,238.6178126083687 157.00913462694734,240.80516046099365 156.78436299227178,244.9064319843892 156.78436299227178,247.09377375710756 156.55959135852754,249.28111341316253 156.55959135852754,253.38236956926994 155.2109615523368,255.56970314332284 155.6605048207566,261.0380278278608 156.55959135852754,263.4987696236931 161.95411058235914,265.4126780577935 164.2018269263208,265.95950874197297 167.5734014417976,265.95950874197297 171.61929085943848,264.86584724183194 174.5413221064955,262.1316911787726 176.5642668157816,258.0304508882109 177.23858171794564,253.65578638156876 175.66518027801067,250.92161676776595 174.09177883714437,249.55453072185628 175.88995191268623,245.17984982184134 177.4633533526212,239.98490526387468 177.91289662197232,238.07097531366162 177.23858171794564,235.06336783478037 178.36243989039212,231.235497985268 175.66518027801067,228.50130126997828 172.9679206656292,225.49368106527254 171.16974759101868,224.94684059894644 165.77522836625576,225.49368106527254 164.2018269263208,225.76710125035606 161.27979567926377,228.22788141667843 158.80730770155787,230.41523931804113 158.1329927984625,232.87601442844607 157.6834495300427,236.43046263838187 156.55959135852754,241.07857879367657 157.00913462694734,244.35959621169604 157.23390626069158,246.54693851224147 156.55959135852754,250.92161676776595 157.00913462694734,254.20261990698054 155.6605048207566,258.3038671386894 156.33481972385198,261.5848595700227 156.55959135852754,263.4987696236931 160.38070914242417,264.86584724183194 163.97705529164523,267.3265848727897 166.22477163467556,266.77975451922975 169.14680288173258,265.95950874197297 172.0688341287896,264.86584724183194 174.9908653749153,261.5848595700227 175.21563700959086,259.3975318111479 175.88995191268623,256.66336913825944 176.78903844952583,253.92920316033997 177.91289662197232,250.92161676776595 177.0138100842014,247.3671913293656 175.88995191268623,243.53934230282903 176.11472354643047,240.5317420954816 176.5642668157816,237.25071912514977 177.68812498729676,236.43046263838187 178.58721152413636,232.87601442844607 177.23858171794564,230.14181969570927 178.36243989039212,230.41523931804113 177.91289662197232,227.68104161159135 174.76609374023974,226.31394151831046 171.39451922569424,225.22026084875688 168.24771634489298,224.6734203158412 164.2018269263208,225.76710125035606 161.0550240445882,228.22788141667843 158.35776443313807,230.14181969570927 158.1329927984625,233.42285297834314 155.88527645543218,237.25071912514977 154.53664664924145,241.62541536078788 156.11004808917642,241.62541536078788 156.78436299227178,243.2659242679365 156.33481972385198,246.8203561506234 155.6605048207566,250.92161676776595 153.41278847679496,253.10895272321068 155.43573318701237,256.11653620772995 155.6605048207566,258.57728335657157 157.23390626069158,262.9519383441657 159.256850970909,265.4126780577935 161.95411058235914,266.23292403365485 165.77522836625576,266.23292403365485 169.37157451640815,267.60000000009313 172.9679206656292,266.23292403365485 174.09177883714437,264.0456007702742 174.31655047181994,260.49119595531374 175.66518027801067,259.3975318111479 175.88995191268623,255.29628656315617 177.91289662197232,248.73427869705483 177.91289662197232,244.08617827459238 175.88995191268623,241.35199709353037 176.5642668157816,238.07097531366162 177.0138100842014,235.61020585522056 177.4633533526212,232.055756355403 177.23858171794564,230.14181969570927 175.66518027801067,227.1342016728595 172.0688341287896,225.76710125035606 168.69725961331278,224.4000000001397 166.00000000093132,225.76710125035606 163.52751202322543,226.8607816544827 160.38070914242417,229.04814087809063 157.45867789536715,232.055756355403 155.6605048207566,235.61020585522056 156.78436299227178,239.16464976919815 157.00913462694734,243.53934230282903 157.00913462694734,246.8203561506234 156.33481972385198,250.64819962508045 154.761418283917,253.10895272321068 156.33481972385198,256.66336913825944 155.6605048207566,259.3975318111479 156.78436299227178,262.4051069342531" stroke="#4DD2FF" stroke-dasharray="none" stroke-linecap="round" stroke-linejoin="round" stroke-width="0.5"><title>2013-09-22 10.9km</title><desc>9223370657048162807</desc></polyline></svg>