<?xml version="1.0" encoding="utf-8" ?>
<svg baseProfile="full" height="300mm" version="1.1" viewBox="0,0,200,300" width="200mm" xmlns="http://www.w3.org/2000/svg" xmlns:ev="http://www.w3.org/2001/xml-events" xmlns:xlink="http://www.w3.org/1999/xlink"><defs /><rect fill="#222222" height="300" width="200" x="0" y="0" /><text fill="#FFFFFF" style="font-size:12px; font-family:Arial; font-weight:bold;" x="10" y="20">Over 10km Runs</text><text fill="#FFFFFF" style="font-size:4px; font-family:Arial" x="10" y="280">Runner</text><text fill="#FFFFFF" style="font-size:9px; font-family:Arial" x="10" y="290">keep</text><text fill="#FFFFFF" style="font-size:4px; font-family:Arial" x="65" y="280">SPECIAL TRACKS</text><rect fill="yellow" height="2.6" width="2.6" x="65" y="283" /><text fill="#FFFFFF" style="font-size:3px; font-family:Arial" x="70" y="285.5">Over 20.0 km</text><rect fill="red" height="2.6" width="2.6" x="65" y="287" /><text fill="#FFFFFF" style="font-size:3px; font-family:Arial" x="70" y="289.5">Over 40.0 km</text><text fill="#FFFFFF" style="font-size:4px; font-family:Arial" x="120" y="280">STATISTICS</text><text fill="#FFFFFF" style="font-size:3px; font-family:Arial" x="120" y="285">Number: 15</text><text fill="#FFFFFF" style="font-size:3px; font-family:Arial" x="120" y="290">Weekly: 1.2</text><text fill="#FFFFFF" style="font-size:3px; font-family:Arial" x="141" y="285">Total: 163.6 km</text><text fill="#FFFFFF" style="font-size:3px; font-family:Arial" x="141" y="290">Avg: 10.9 km</text><text fill="#FFFFFF" style="font-size:3px; font-family:Arial" x="167" y="285">Min: 10.2 km</text><text fill="#FFFFFF" style="font-size:3px; font-family:Arial" x="167" y="290">Max: 14.0 km</text><polyline fill="none" opacity="1" points="26.360975563933607,75.59999999999854 26.369904873659834,75.36399462124973 26.360975563933607,75.06055816289881 26.34311694459757,74.79083594917756 26.360975563933607,74.49863590991299 26.360975563933607,74.2513889313559 26.378834183327854,73.9816641272264 26.387763492995873,73.73441563155939 26.441339351120405,73.50964364221727 26.584208306099754,73.37478016079694 26.82529966760194,73.34106425669597 27.003885861311574,73.32982561901008 27.02174448070582,73.17248453386856 27.057461719436105,73.06009786457435 27.075320338772144,72.84656277992326 27.0931789582246,72.63302715402824 27.08424964849837,72.31834208734654 26.89673414506251,72.11604392377922 26.646713473892305,72.01489465984196 26.61992554483004,71.75640154472785 26.68243071262259,71.39675763043488 26.718147951411083,71.16074047730217 26.762794499809388,70.86852784785879 26.789582428871654,70.5763142048745 26.843158286996186,70.29533859234652 26.87887552572647,70.02560112267383 26.88780483539449,69.81205834668799 26.941380693519022,69.66594981966045 27.003885861311574,69.587275892467 27.02174448070582,69.42992781766225 26.986027241975535,69.28381862790411 27.0128151710378,69.21638353180606 27.066391029104125,69.03655634489405 27.119966887228657,68.82301106190425 27.182472055021208,68.58698669829027 27.227118603419513,68.36220097531623 27.30748239060631,68.06997863872675 27.36998755845707,67.81147341911128 27.44142203591764,67.56420681458258 27.53071513271425,67.31693948429893 27.66465477802558,67.28322115574701 27.825382352399174,67.36189723470306 28.021827165444847,67.3956155317428 28.227201288216747,67.27198170988413 28.432575410988647,67.11462931057031 28.48615126911318,66.90107915567933 28.6200909143663,66.64257034913317 28.75403055967763,66.38406074926752 28.89689951465698,66.11431075585278 29.03976846963633,65.87827880300028 29.16477880522143,65.65348585211177 29.289789140806533,65.41745260806056 29.432658095785882,65.17017897636106 29.566597741097212,64.90042509580235 29.71839600574458,64.61943055164738 29.888052889786195,64.2822358613339 30.084497702831868,63.96751959924586 30.27201320626773,63.61908236616 30.441670090251137,63.338083547656424 30.584539045230485,63.079563806706574 30.74526661960408,62.83228331214195 30.89706488425145,62.596242162821 31.004216600500513,62.43888102915662 31.15601486514788,62.20283877742622 31.31674243946327,61.94431555234041 31.49532863323111,61.6857915337896 31.557833800965454,61.438506947495625 31.673914826882537,61.15750085456966 31.816783781861886,60.89897442112124 32.01322859490756,60.66292785407859 32.245390646741726,60.50556310858519 32.441835459845606,60.30323657520057 32.56684579543071,60.07842874589551 32.70971475041006,59.86486075227731 32.790078537596855,59.8086585587007 32.87937163445167,59.617570820017136 32.96866473130649,59.41524215359823 33.04902851849329,59.224153522351116 33.138321615348104,59.10050770644739 33.30797849938972,59.044305002818874 33.44191814464284,59.055545546529174 33.51335262210341,59.01058336267306 33.63836295774672,58.88693723321194 33.763373293331824,58.729569169583556 33.90624224831117,58.59468202385324 34.06696982268477,58.36986963430536 34.236626706668176,58.15629730843648 34.33484911319101,58.032649924869474 34.254485326004215,57.71791031122848 34.254485326004215,57.515577081401716 34.308061184128746,57.2907618115496 34.459859448776115,57.0659459415765 34.62951633281773,56.88609281350364 34.799173216859344,56.66127586335642 34.89739562338218,56.40273562882794 35.013476649299264,56.12171273462445 35.16527491400484,55.919375670135196 35.406366275507025,55.694556139496854 35.611740398278926,55.48097702954692 35.70996280480176,55.301120516858646 35.834973140386865,55.02009394681954 35.94212485663593,54.761548674228834 36.04927657288499,54.51424375770148 36.2992972440552,54.35686752364563 36.55824722495163,54.334385180489335 36.710045489599,54.143285021331394 36.80826789612183,53.87349582315073 36.879702373582404,53.59246448936756 36.92434892203892,53.36763874712051 36.97792478010524,53.10908840154298 37.040429947956,52.805571765660716 37.12972304481082,52.49081261747051 37.20115752227139,52.27722538263333 37.19222821260337,52.1872937533044 37.26366269006394,51.939981277435436 37.29937992885243,51.70390960018267 37.370814406313,51.36666319902724 37.4511781934998,51.05189867282024 37.5315419806866,50.692166345099395 37.59404714847915,50.38864099836064 37.64762300660368,50.06263107401901 37.71012817439623,49.81531235849252 37.79049196152482,49.53426748191123 37.85299712937558,49.208254249955644 37.906572987441905,48.882239755941555 37.96014884556644,48.567465943386196 38.031583323085215,48.286416902228666 38.103017800545786,47.96039883927733 38.16552296833834,47.66810570979578 38.21909882646287,47.43202205680427 38.28160399425542,47.117242823274864 38.34410916204797,46.80246241304849 38.379826400778256,46.588860750212916 38.460190187965054,46.364016309249564 38.47804880730109,46.28532061308215 38.513766046089586,46.049233083293075 38.56734190421412,45.76817563710938 38.62984707200667,45.46463254158152 38.70128154946724,45.14984595342685 38.76378671725979,44.857543067861116 38.81736257538432,44.576481644013256 38.81736257538432,44.54275421012426 38.84415050444659,44.35163182947872 38.89772636257112,44.09305380049773 38.960231530305464,43.80074724632868 39.013807388429996,43.47471181565197 39.076312556280755,43.19364577598026 39.138817724073306,42.92382149522746 39.18346427247161,42.77766631544364 39.219181511201896,42.63151088196901 39.23704013059614,42.519083452825726 39.290615988720674,42.42914140139328 39.33526253717719,42.30547092382767 39.281686679052655,42.14807187149563 39.290615988720674,41.956944055207714 39.30847460805671,41.70960153129272 39.353121156513225,41.47350117158203 39.41562632430578,41.31610056396312 39.46027287276229,41.158699662060826 39.66564699553419,41.169942593398446 39.897809047368355,41.25988598990807 40.13890040887054,41.349829290375055 40.388921080040745,41.40604380433069 40.540719344688114,41.46225828080787 40.60322451253887,41.23740014981013 40.62108313187491,41.06875615746685 40.60322451253887,40.810168046511535 40.62108313187491,40.5628221537263 40.63894175126916,40.22553112890455 40.656800370663404,39.88823875288654 40.710376228787936,39.61840387920529 40.70144691906171,39.40478399085259 40.594295202812646,39.21364994713076 40.36213315097848,39.26986588739965 40.103183170140255,39.31483861256129 39.85316249891184,39.37105448525108 39.763869402057026,39.26986588739965 39.80851595051354,38.98878581075405 39.85316249891184,38.7189480543675 39.915667666704394,38.43786613849079 39.960314215160906,38.16802661635302 40.040678002347704,37.853212747504585 40.112112479808275,37.54964111625304 40.14782971853856,37.31352909069392 40.19247626699507,37.043685964963515 40.21926419605734,36.76259845595632 40.254981434787624,36.548971321448334 40.27284005418187,36.38031793765549 40.22819350566715,36.25663857477048 40.317486602580175,36.16668983310228 40.460355557501316,36.07674099535507 40.63894175126916,35.99803568345669 40.585365893144626,35.851868480480334 40.44249693816528,35.76191930634377 40.451426247891504,35.626995364968025 40.46928486722754,35.458340134166065 40.522860725352075,35.43585274450743 40.665729680273216,35.458340134166065 40.82645725464681,35.458340134166065 40.96039689995814,35.458340134166065 41.085407235543244,35.492071207321715 41.23720550019061,35.43585274450743 41.38007445511175,35.40212164879631 41.4782968616928,35.312171994140954 41.48722617136082,35.06480994827871 41.53187271981733,34.66003412363352 41.57651926827384,34.311475604037696 41.6033071972779,34.086598373884044 41.621165816672146,33.82798881656345 41.621165816672146,33.69306177565886 41.639024436008185,33.513158718080376 41.65688305540243,33.35574322726461 41.53187271981733,33.26579138607485 41.37114514550194,33.25454739917768 41.156841713003814,33.22081542945671 41.03183137741871,33.15335144945129 40.871103803103324,33.09713142478722 40.656800370663404,33.0633993920128 40.39785038976697,33.00717930727842 40.112112479808275,32.95095918504376 39.84423318924382,32.88349498876778 39.61207113740966,32.81603073844599 39.29954529838869,32.77105454152479 39.06738324655453,32.70359020106116 38.86200912378263,32.568661357952806 38.70128154946724,32.591149513522396 38.47804880730109,32.57990543649794 38.21016951679485,32.55741727795976 37.96014884556644,32.55741727795976 37.701198864670005,32.53492911343346 37.424390264437534,32.51244094285357 37.19222821260337,32.478708675771486 36.89756099297665,32.444976395177946 36.6296817024122,32.42248820059467 36.522529986163136,32.41124410103657 36.5046713668271,32.43373229862482 36.44216619897634,32.62488173554448 36.37073172151577,32.80478669144213 36.3439437924535,32.984691262900014 36.308226553781424,33.16459544985264 36.2992972440552,33.34449925238005 36.27250931499293,33.49067080880923 36.2189334568684,33.69306177565886 36.1385696696816,33.85047663572186 36.0582058824948,33.962915641277505 35.98677140503423,34.154061605993775 35.95105416630395,34.28898790805397 35.897478308179416,34.43515782454779 35.817114521050826,34.59257129699836 35.75460935320007,34.7274968962156 35.683174875739496,34.89615359119489 35.6028110885527,35.04232245348976 35.52244730142411,35.23346596748888 35.3974369657808,35.345903125897166 35.37064903671853,35.548289632635715 35.29028524958994,35.795650257889065 35.17420422367286,36.03176654042909 35.067052507423796,36.301612909570395 34.94204217183869,36.582701957690006 34.799173216859344,36.86379006734933 34.67416288127424,37.13363376965572 34.55808185529895,37.369746299686085 34.459859448776115,37.617101573356194 34.32591980352299,37.88694286117243 34.183050848543644,38.134296615317 34.06696982268477,38.38164964268799 33.9598181063775,38.61775867273536 33.87945431924891,38.786407574538316 33.8348077708506,38.887596753455 33.79016122239409,38.94381291143509 33.683009506203234,39.01127225146047 33.64729226741474,39.17992036497162 33.6294336480787,39.43851348293538 33.51335262210341,39.6858626786925 33.352625047788024,39.933211147770635 33.28119057032745,40.11310048704763 33.22761471220292,40.25926029220136 33.29011987999547,40.36044770097942 33.45084745436907,40.39417681020859 33.736585364327766,40.39417681020859 33.99553534516599,40.427905905933585 34.29020256479271,40.4616349881544 34.54915254568914,40.49536405685649 34.83489045558963,40.5403361274366 35.12062836554833,40.574065164611966 35.37064903671853,40.61903719316615 35.620669707946945,40.65276619879296 35.817114521050826,40.65276619879296 35.94212485663593,40.58530817400606 35.98677140503423,40.39417681020859 36.040347263158765,40.21428807148186 36.022488643822726,40.06812818827893 36.07606450194726,40.06812818827893 36.2189334568684,40.15807276182022 36.23679207620444,40.315475534320285 36.21000414720038,40.58530817400606 36.1385696696816,40.92259775754792 36.07606450194726,41.21491430365131 36.022488643822726,41.529715602999204 35.95998347597197,41.86700140332687 35.90640761790564,42.159314670694584 35.834973140386865,42.42914140139328 35.78139728226233,42.732695439859526 35.74568004353205,42.957549577608006 35.66531625634525,43.249859058974835 35.683174875739496,43.49719705830648 35.683174875739496,43.75577691712533 35.495659372303635,43.99187087734754 35.3974369657808,44.22796417555219 35.32600248832023,44.464056811826595 35.25456801080145,44.73387615692627 35.26349732052768,44.94748252530553 35.22778008173918,45.20605793048162 35.352790417382494,45.30723939460586 35.3974369657808,45.56581369500782 35.31707317865221,45.858114121932886 35.281355939863715,46.184140324206965 35.1920628430089,46.54389191004884 35.12062836554833,46.85867328689346 35.08491112681804,47.139727093272086 35.04026457836153,47.4769904226996 35.03133526869351,47.74680011368764 35.02240595896728,48.02785095586296 35.02240595896728,48.32014283670287 35.02240595896728,48.61243370294687 35.004547339631245,48.93844924151199 34.99561802990502,49.208254249955644 34.96883010090096,49.5117838512233 34.95097148150671,49.78158702282235 34.92418355244445,50.04014758440462 34.870607694319915,50.33243248073995 34.83489045558963,50.6359580300923 34.75452666840283,50.92824085849861 34.77238528779708,51.186797899565136 34.7813145974651,51.4903203696158 34.727738739398774,51.77135871833161 34.665233571548015,52.0861205554902 34.51343530690065,52.35591547956574 34.370566351979505,52.558261105376005 34.15626291948138,52.76060624507954 33.92410086770542,52.94046818330389 33.736585364327766,53.12032973741589 33.52228193182964,53.3001909073937 33.32583711872576,53.49129297962645 33.23654402187094,53.63742956579517 33.15618023468414,53.74984215182485 33.04009920876706,53.88473705699289 32.924018182908185,54.06459659447137 32.85258370538941,54.25569693217403 32.76329060853459,54.52548490603658 32.62935096322326,54.80651312645932 32.48648200830212,55.076299335858494 32.33468374359654,55.34608468101942 32.20967340801144,55.57090514185256 32.156097549945116,55.77324304347712 32.14716824021889,55.96433950424398 32.27217857580399,56.11047179934394 32.32575443392852,56.32404931295605 32.22753202740569,56.57134891527676 32.20074409834342,56.73996186417207 32.236461337073706,56.81864779146417 32.14716824021889,56.72872101142275 32.031087214301806,56.85237030925782 31.86143033026019,57.09966836031526 31.709632065612823,57.34696568523941 31.51318725256715,57.549299320155114 31.31674243946327,57.75163246896409 31.200661413546186,57.99892787964927 31.138156245753635,58.21250060458988 31.013145910168532,58.45979466213612 30.90599419391947,58.61716322981374 30.76312523894012,58.61716322981374 30.5488218065002,58.61716322981374 30.33451837406028,58.59468202385324 30.093427012499887,58.538478982722154 29.834477031661663,58.538478982722154 29.566597741097212,58.538478982722154 29.396940857055597,58.549719593946065 29.263001211802475,58.60592262759019 29.209425353677943,58.58344141863927 29.146920185885392,58.74080975529796 29.03083915996831,58.93189948311192 28.941546063113492,59.10050770644739 28.905828824383207,59.37028016171098 28.843323656532448,59.57260893614148 28.718313320947345,59.77493722456711 28.709384011279326,59.86486075227731 28.637949533760548,59.93230333508836 28.450434030382894,60.11214995856426 28.253989217279013,60.31447695091629 28.102190952631645,60.50556310858519 28.173625430092216,60.65168752488535 28.218271978548728,60.764090749507886 28.28077714634128,60.87649382419477 28.2897064560093,61.0563384316265 28.361140933528077,61.26990340425982 28.33435300446581,61.46098739439185 28.33435300446581,61.337344862033206" stroke="#4DD2FF" stroke-dasharray="none" stroke-linecap="round" stroke-linejoin="round" stroke-width="0.5"><title>2017-12-17 14.0km</title><desc>9223370523376934807</desc></polyline><polyline fill="none" opacity="1" points="100.6884053304093,32.40000000000873 100.58801288635004,32.67071961135662 100.76011421892326,32.99558243021602 100.84616488526808,33.28434872585058 100.88919021841139,33.6092100720125 100.91787377389846,34.02430954636657 100.93221555155469,34.40331230263109 100.9752408847562,34.71012328044162 101.03260799567215,35.07107648164674 101.13300043961499,35.3598383495555 101.1760257727583,35.70274226772017 101.23339288367424,36.06369282207743 101.27641821681755,36.40659495725413 101.49154488259228,36.442689868286834 101.67798799293814,36.60511684897938 101.63496265973663,36.78559104334272 101.44851954939077,36.8938754445262 101.36246888316236,37.0923966216651 101.4628613271052,37.36310684857017 101.60627910436597,37.7060056921473 101.73535510385409,38.03085642690712 101.80706399236806,38.35570638210629 101.96482354728505,38.66250840181601 102.12258310214384,38.96930972614791 102.3090262124897,39.33025157045631 102.29468443477526,39.63705138147634 102.022190658201,39.6911924524029 101.76403865922475,39.52876917463436 101.56325377116445,39.36634570201568 101.34812710538972,39.24001619966293 101.07563332875725,39.348298637443804 100.83182310755365,39.348298637443804 100.61669644183712,39.51072213174484 100.63103821955156,39.6911924524029 100.64537999720778,39.97994446508528 100.38722799840616,40.124320240385714 100.07170888851397,40.25064891749935 99.78487333416706,40.30478974308062 99.45501244673505,40.30478974308062 99.48369600210572,40.0701793426997 99.5554048907361,39.74533350171987 99.65579733473714,39.45658098865533 99.7561897787964,39.09563948116556 99.81355688965414,38.68055555780302 99.84224044508301,38.31961198117642 99.78487333416706,37.95866744211526 99.72750622330932,37.52553272477235 99.49803777982015,37.43529615095758 99.18251867010258,37.43529615095758 99.01041733747115,37.25482282275334 98.98173378204228,37.128491349867545 98.96739200426964,36.85778065379418 98.95305022661341,36.623164279269986 98.78094889398199,36.569021981194965 98.5801640059799,36.53292710383539 98.39372089563403,36.55097454373026 98.35069556243252,36.73144881032931 98.36503734020516,37.03825451130979 98.37937911786139,37.38115417773952 98.39372089563403,37.7060056921473 98.42240445112111,38.03085642690712 98.42240445112111,38.391800773461 98.42240445112111,38.73469701129943 98.42240445112111,39.04149817205325 98.43674622871913,39.40243982389802 98.42240445112111,39.74533350171987 98.43674622871913,40.05213237195858 98.45108800649177,40.32283668007585 98.46542978420621,40.575493545955396 98.45108800649177,40.79205619849381 98.43674622871913,41.08080586293363 98.40806267334847,41.35150811406493 98.39372089563403,41.58611629376537 98.36503734020516,41.78463058988564 98.35069556243252,42.0372847274557 98.30767022934742,42.28993839350005 98.32201200700365,42.50649830348266 98.32201200700365,42.81329091612133 98.32201200700365,43.15617595457297 98.32201200700365,43.51710663578706 98.30767022934742,43.85998989159998 98.32201200700365,44.18482585925085 98.33635378477629,44.52770742389839 98.33635378477629,44.83449545613257 98.35069556243252,45.19542166283645 98.35069556243252,45.4661156864604 98.35069556243252,45.79094780024025 98.32201200700365,46.00750210984552 98.32201200700365,46.278194509621244 98.29332845163299,46.53084026116994 98.35069556243252,46.83762375412334 98.39372089563403,47.126360524242045 98.43674622871913,47.433142667781794 98.47977156192064,47.79406194665353 98.53713867283659,48.19107204210013 98.6231893391232,48.570035138051026 98.73792356083868,48.91290559656045 98.83831600483973,49.18359218725527 98.96739200426964,49.54450679970614 99.0677844483871,49.85128346376587 99.21120222547324,50.103922547612456 99.26856933638919,50.24828752670146 99.38330355810467,50.50092586966639 99.49803777982015,50.75356374120747 99.54106311296346,50.952064595287084 99.56974666845053,51.15056515832839 99.71316444559488,51.29492902135826 99.84224044508301,51.43929273050162 99.95697466679849,51.61974715042743 100.07170888851397,51.800201329853735 100.20078488800209,52.03479140350828 100.31551910971757,52.251335726163234 100.51630399783608,52.413743740849895 100.71708888583817,52.68442333243729 100.90353199618403,52.9551023827953 101.07563332875725,53.207735674935975 101.24773466144688,53.46036849574011 101.31944355001906,53.6227750601829 101.44851954939077,53.857361976013635 101.63496265973663,54.128038681534235 101.82140577002428,54.3806697850232 102.022190658201,54.72352552883967 102.1512666575727,54.940065551301814 102.32336799014593,55.210740092312335 102.48112754512113,55.48141409219534 102.66757065540878,55.806222177881864 102.85401376575464,56.11298465442087 103.0404568761005,56.43779122500564 103.2412417641608,56.74455227069848 103.42768487439025,56.99717849236913 103.64281154022319,57.34002761068405 103.80057109508198,57.628741984357475 104.03003953857115,57.989634085737634 104.23082442657324,58.26030253049976 104.38858398154844,58.567059447203064 104.53200175863458,58.83772673775093 104.704103091266,59.090349054094986 104.87620442389743,59.361015298592974 105.06264753418509,59.64972536303685 105.19172353367321,59.88430183712626 105.37816664401907,60.13692220086523 105.57895153202116,60.42563061097462 105.75105286465259,60.71433840547979 105.90881241956959,60.948913035259466 106.0809137521428,61.291752147779334 106.26735686248867,61.61654629584518 106.4824835282634,61.959383718000026 106.64024308312219,62.2480882423406 106.84102797118248,62.57288009648619 107.08483819238609,62.93375902072876 107.25693952495931,63.20441758277593 107.4146990798763,63.457031752564944 107.58680041250773,63.74573308386607 107.78758530050982,64.07052134584228 107.95968663308304,64.41335255505692 108.16047152114334,64.75618289630802 108.31823107611854,65.0629250974307 108.47599063091911,65.3696666038013 108.5907248526928,65.67640741528885 108.73414262983715,66.05532157608832 108.80585151852574,66.36206083444995 108.8345350738964,66.52445192530286 108.70545907440828,66.68684282136383 108.66243374126498,66.77705990168033 108.76282618532423,66.68684282136383 108.93492751789745,66.75901649043954 109.00663640652783,66.99358064925764 109.10702885047067,67.26423109686584 109.22176307230256,67.58901092001179 109.35083907173248,67.9498764766031 109.4799150711624,68.31074107154564 109.60899107065052,68.67160470488307 109.69504173693713,68.94225179884234 109.78109240328195,69.21289835183416 109.9245101804263,69.53767350153066 110.03924440214178,69.82636186949094 110.15397862385726,70.11504962212348 110.24002929020207,70.38569383135473 110.28305462328717,70.63829460523266 110.38344706734642,70.9269806270313 110.4981812890619,71.25175166597182 110.61291551083559,71.57652192605019 110.71330795489484,71.90129140728095 110.81370039889589,72.189974736757 110.89975106512429,72.46061479924538 111.02882706461241,72.78538216033485 111.1435612863279,73.05602103300043 111.27263728581602,73.39882949528692 111.3873715075897,73.72359460647567 111.53078928479226,74.04835893880227 111.6311817287351,74.30095288116718 111.71723239507992,74.49941921961727 111.81762483913917,74.80613935248402 111.97538439399796,75.02264726329304 112.00406794936862,75.14894338474551 112.01840972714126,75.3474084805639 111.96104261628352,75.58195776422508 111.77459950593766,75.52783104256378 111.58815639565,75.27523938844388 111.40171328530414,75.00460495059087 111.17224484187318,74.71592762082582 110.91409284289693,74.39116488923901 110.61291551083559,74.08444381659501 110.31173817883246,73.81380699914007 110.05358617985621,73.56121214822633 109.79543418099638,73.29057428512897 109.565965737449,73.01993588120968 109.30781373853097,72.78538216033485 109.06400351738557,72.5508280332433 108.7484844076098,72.22606010964955 108.47599063091911,71.9734622973483 108.24652218742995,71.73890676401788 107.91666129993973,71.43217968437239 107.64416752336547,71.19762321353483 107.32864841358969,71.01719488263188 107.01312930381391,70.87285204483487 106.64024308312219,70.78263769301702 106.26735686248867,70.7285090531368 105.92315419722581,70.65633749958943 105.57895153202116,70.5661230036203 105.27777419995982,70.51199427719985 104.91922975709895,70.42177968501346 104.56068531406345,70.40373675937008 104.21648264891701,70.33156503277132 103.82925465051085,70.22330737070297 103.62846976250876,70.16917850727623 103.42768487439025,70.11504962212348 103.22689998638816,70.07896368675574 103.01177332061343,70.04287774169643 102.78230487712426,70.0248347656161 102.56717821134953,69.98874880606309 102.38073510106187,69.93461984887836 102.17995021300158,69.89853386537288 101.95048176951241,69.8624478722486 101.72101332608145,69.77223284740467 101.56325377116445,69.7361468206218 101.27641821681755,69.6278886825894 100.91787377389846,69.4655013133015 100.55932933097938,69.33919989148853 100.14341777714435,69.19485526514472 99.89960755599895,69.14072599056817 99.5554048907361,69.03246737655718 99.21120222547324,68.92420867603505 98.8239742271835,68.81594988897268 98.43674622871913,68.74377731615095 98.06386000808561,68.59943205513991 97.77702445379691,68.5092161888897 97.34677112224745,68.41900026249641 97.0455937901861,68.25661144361948 96.67270756955259,68.13030889429501 96.47192268143408,68.05813595601649 96.15640357171651,67.9498764766031 95.81220090645365,67.84161691056215 95.46799824130721,67.64314081483462 95.12379557604436,67.42662110581296 94.77959291083971,67.21010105060122 94.4927573564346,66.92140710521198 94.26328891300363,66.6146691137983 94.04816224728711,66.27184347770526 93.99079513637116,66.07336508113076 93.89040269231191,65.87488639367803 93.7183013597969,65.60423316924425 93.61790891573764,65.42379738572345 93.46014936082065,65.13509963205433 93.30238980596187,64.82835759434965 93.10160491790157,64.46748371924332 92.92950358527014,64.08856511530757 92.74306047498249,63.67355780878279 92.52793380920775,63.240505350142485 92.34149069886189,62.843539379842696 92.14070581080159,62.50070419620897 91.99728803365724,62.13982411786856 91.81084492331138,61.74285492078343 91.62440181302372,61.30979628757632 91.40927514724899,60.876736269376124 91.19414848147426,60.46171911894635 91.0077053711866,60.02865638840012 90.79257870541187,59.64972536303685 90.59179381735157,59.234704451781 90.40535070700571,58.83772673775093 90.21890759665985,58.440747859785915 90.03246448631398,58.061812390587875 89.90338848694228,57.68287586091901 89.71694537665462,57.39416160262772 89.5878693771665,57.0693573262397 89.48747693310725,56.72650752255868 89.35840093367733,56.36561205446196 89.25800848967629,55.96862592852267 89.17195782333147,55.55359373416286 89.10024893475929,55.13856026761641 89.05722360161599,54.777660566949635 88.99985649070004,54.34457965628826 88.97117293532938,53.98367783923459 88.92814760212786,53.532549215102335 88.87078049121192,53.18969045545964 88.87078049121192,52.792695017546066 88.84209693584125,52.4317890638049 88.81341338041238,51.99870064939023 88.84209693584125,51.61974715042743 88.85643871355569,51.258838070061756 88.85643871355569,50.879882500186795 88.82775515806861,50.48288028933166 88.72736271412577,50.049785640789196 88.65565382549539,49.67082668674993 88.65565382549539,49.32795814771089 88.62697027006652,48.89485980459722 88.59828671463765,48.551989300351124 88.55526138149435,48.209117927835905 88.48355249292217,47.79406194665353 88.5409196037217,47.36095869654673 88.62697027006652,46.96394616681209 88.62697027006652,46.63911686744541 88.62697027006652,46.35037905817444 88.66999560326803,46.13382529710361 88.64131204778096,45.917271189566236 88.59828671463765,45.62853184076084 88.56960315920878,45.30369933723705 88.52657782606548,44.94277341919951 88.4978942706366,44.58184653893113 88.4978942706366,44.275057934137294 88.42618538200622,43.85998989159998 88.36881827114848,43.426874055716326 88.35447649343405,43.01180341262079 88.32579293806339,42.65087138420495 88.28276760486187,42.30798506589781 88.23974227171857,41.89291099231923 88.19671693857526,41.640256585233146 88.19671693857526,41.33346131413418 88.22540049400413,40.95447796053486 88.2110587162897,40.593540446890984 88.16803338308819,40.232601970870746 88.13934982765932,39.92580350959906 88.06764093908714,39.54681621513737 88.06764093908714,39.18587494826352 88.08198271680158,38.86102698522154 88.11066627228865,38.46398952729942 88.03895738360006,38.03085642690712 88.0102738281712,37.68795840621169 87.9672484950861,37.29091750764928 87.99593205051497,37.03825451130979" stroke="#4DD2FF" stroke-dasharray="none" stroke-linecap="round" stroke-linejoin="round" stroke-width="0.5"><title>2017-11-19 11.8km</title><desc>9223370525802103807</desc></polyline><polyline fill="none" opacity="0.5" points="165.99999999953434,72.92188469867688 164.5269142021425,72.68900478316937 163.34844556357712,72.92188469867688 162.16997692501172,72.5725648063235 160.991508286912,72.10680476890411 159.5184224890545,72.22324479778763 158.2417481308803,72.80544474744238 156.0812222934328,72.10680476890411 154.90275365533307,71.40816432458814 154.3135193362832,70.12732229894027 153.52787357755005,68.84647870704066 153.42966785747558,66.98343068640679 153.62607929715887,65.35326094890479 153.62607929715887,63.490206713438965 153.42966785747558,61.86003153875936 153.42966785747558,59.64764688548166 153.13505069771782,58.48323203262407 152.9386392585002,56.7366073258454 153.33146213786677,55.10642163804732 153.33146213786677,53.70911760011222 153.72428501723334,52.54469614417758 153.42966785747558,51.03094631573185 153.92069645645097,49.4007517460268 153.82249073730782,47.6541118909372 154.11710789659992,46.6061265792232 154.2153136166744,44.51015281013679 154.11710789659992,42.64706149313133 154.2153136166744,41.01685387187172 154.3135193362832,39.735974674928 154.60813649604097,38.22220633132383 154.90275365533307,36.591991821769625 154.60813649604097,34.96177477389574 154.60813649604097,33.79733247170225 154.41172505589202,32.40000000002328 154.60813649604097,33.79733247170225 154.60813649604097,34.96177477389574 154.90275365533307,36.591991821769625 154.60813649604097,38.22220633132383 154.3135193362832,39.735974674928 154.2153136166744,41.01685387187172 154.11710789659992,42.64706149313133 154.2153136166744,44.51015281013679 154.11710789659992,46.6061265792232 153.82249073730782,47.6541118909372 153.92069645645097,49.4007517460268 153.42966785747558,51.03094631573185 153.72428501723334,52.54469614417758 153.33146213786677,53.70911760011222 153.33146213786677,55.10642163804732 152.9386392585002,56.7366073258454 153.13505069771782,58.48323203262407 153.42966785747558,59.64764688548166 153.42966785747558,61.86003153875936 153.62607929715887,63.490206713438965 153.62607929715887,65.35326094890479 153.42966785747558,66.98343068640679 153.52787357755005,68.84647870704066 154.3135193362832,70.12732229894027 154.90275365533307,71.40816432458814 156.0812222934328,72.10680476890411 158.2417481308803,72.80544474744238 159.5184224890545,72.22324479778763 160.991508286912,72.10680476890411 162.16997692501172,72.5725648063235 163.34844556357712,72.92188469867688 164.5269142021425,72.68900478316937 165.99999999953434,72.92188469867688 167.66949723707512,73.50408425950445 169.14258303539827,73.15476456168108 170.81208027293906,74.55204265448265 173.16901754960418,75.59999999997672 175.03492622682825,75.13424130936619 175.7223662659526,75.01780160400085 177.49006922310218,74.90136188617907 179.06136074103415,75.01780160400085" stroke="#4DD2FF" stroke-dasharray="1,0.5" stroke-linecap="round" stroke-linejoin="round" stroke-width="0.5"><title>2014-03-22 10.5km</title><desc>9223370641410674807</desc></polyline><polyline fill="none" opacity="1" points="55.600000000034925,102.37149524520646 55.50687425152864,102.37149524520646 55.434443113801535,102.38408823664213 55.372359281464014,102.38408823664213 55.32062275451608,102.39668122649891 55.227497006068006,102.39668122649891 55.15506586828269,102.39668122649891 55.072287425165996,102.38408823664213 55.010203592828475,102.39668122649891 54.948119760490954,102.39668122649891 54.89638323360123,102.39668122649891 54.8342994012055,102.39668122649891 54.74117365269922,102.39668122649891 54.679089820361696,102.4092742148423 54.606658682692796,102.38408823664213 54.56526946107624,102.39668122649891 54.482491018017754,102.37149524520646 54.43075449106982,102.35890225229377 54.35832335334271,102.35890225229377 54.29623952094698,102.33371626182634 54.23415568860946,102.34630925783131 54.16172455094056,102.35890225229377 54.09964071860304,102.38408823664213 54.02720958087593,102.38408823664213 53.96512574853841,102.38408823664213 53.923736526980065,102.38408823664213 53.83061077847378,102.37149524520646 53.758179640746675,102.34630925783131 53.696095808409154,102.34630925783131 53.63401197607163,102.33371626182634 53.561580838344526,102.32112326434435 53.52019161678618,102.33371626182634 53.468455089838244,102.32112326434435 53.396023952169344,102.32112326434435 53.31324550899444,102.32112326434435 53.240814371267334,102.33371626182634 53.168383233540226,102.34630925783131 53.08560479042353,102.33371626182634 53.0338682634756,102.34630925783131 52.9614371258067,102.35890225229377 52.89935329341097,102.33371626182634 52.81657485035248,102.32112326434435 52.75449101801496,102.29593726478197 52.70275449100882,102.32112326434435 52.63032335333992,102.32112326434435 52.55789221561281,102.32112326434435 52.49580838321708,102.32112326434435 52.43372455093777,102.30853026532714 52.3302514970419,102.30853026532714 52.278514970093966,102.28334426268702 52.216431137756445,102.27075125910778 52.14400000002934,102.25815825395694 52.050874251523055,102.25815825395694 51.96809580840636,102.28334426268702 51.89566467073746,102.29593726478197 51.81288622756256,102.28334426268702 51.73010778444586,102.29593726478197 51.66802395216655,102.30853026532714 51.60594011977082,102.30853026532714 51.50246706593316,102.29593726478197 51.450730538985226,102.29593726478197 51.37829940119991,102.29593726478197 51.326562874310184,102.29593726478197 51.26447904197266,102.28334426268702 51.18170059885597,102.30853026532714 51.129964071908034,102.30853026532714 51.06788023957051,102.29593726478197 51.00579640723299,102.29593726478197 50.93336526944768,102.28334426268702 50.871281437110156,102.28334426268702 50.798850299441256,102.30853026532714 50.72641916171415,102.29593726478197 50.66433532931842,102.29593726478197 50.61259880242869,102.29593726478197 50.529820359312,102.29593726478197 50.46773652697448,102.29593726478197 50.41600000002654,102.32112326434435 50.33322155690985,102.33371626182634 50.271137724630535,102.33371626182634 50.209053892293014,102.32112326434435 50.15731736528687,102.33371626182634 50.084886227559764,102.33371626182634 50.02280239522224,102.33371626182634 49.940023952163756,102.32112326434435 49.84689820359927,102.32112326434435 49.79516167670954,102.32112326434435 49.73307784437202,102.32112326434435 49.6709940120345,102.32112326434435 49.56752095813863,102.32112326434435 49.52613173658028,102.32112326434435 49.47439520963235,102.32112326434435 49.41231137729483,102.32112326434435 49.33988023950951,102.32112326434435 49.288143712619785,102.32112326434435 49.20536526950309,102.30853026532714 49.16397604794474,102.32112326434435 49.07085029943846,102.32112326434435 49.00876646710094,102.29593726478197 48.925988023984246,102.28334426268702 48.87425149703631,102.25815825395694 48.801820359309204,102.28334426268702 48.73973652697168,102.28334426268702 48.64661077852361,102.27075125910778 48.59487425151747,102.27075125910778 48.50174850306939,102.27075125910778 48.43966467073187,102.25815825395694 48.36723353294656,102.25815825395694 48.30514970066724,102.27075125910778 48.2534131736611,102.25815825395694 48.170634730602615,102.27075125910778 48.108550898265094,102.29593726478197 48.036119760537986,102.30853026532714 47.942994012031704,102.32112326434435 47.90160479047336,102.29593726478197 47.81882634735666,102.29593726478197 47.75674251501914,102.28334426268702 47.67396407190245,102.28334426268702 47.611880239564925,102.27075125910778 47.53944910177961,102.27075125910778 47.4773652695003,102.27075125910778 47.415281437162776,102.24556524728541 47.34285029943567,102.24556524728541 47.249724550929386,102.27075125910778 47.177293413260486,102.25815825395694 47.125556886254344,102.24556524728541 47.06347305391682,102.2329722391296 46.97034730541054,102.2329722391296 46.90826347307302,102.24556524728541 46.825485029956326,102.2329722391296 46.75305389222922,102.24556524728541 46.68062275450211,102.27075125910778 46.61853892216459,102.27075125910778 46.54610778443748,102.25815825395694 46.463329341378994,102.2329722391296 46.38055089820409,102.22037922944583 46.30811976053519,102.1951932054726 46.2253413174185,102.1951932054726 46.15291017969139,102.1951932054726 46.09082634735387,102.18260019117588 46.008047904178966,102.17000717538758 45.945964071841445,102.14482113921258 45.873532934172545,102.1574141580495 45.80110179644544,102.1574141580495 45.72867065871833,102.17000717538758 45.676934131770395,102.17000717538758 45.62519760482246,102.17000717538758 45.542419161705766,102.1951932054726 45.480335329368245,102.1951932054726 45.418251497030724,102.2077862182341 45.3561676646932,102.2329722391296 45.2837365270243,102.25815825395694 45.23200000001816,102.25815825395694 45.149221556901466,102.25815825395694 45.076790419232566,102.25815825395694 45.00435928144725,102.24556524728541 44.94227544916794,102.25815825395694 44.86984431144083,102.2329722391296 44.80776047910331,102.2329722391296 44.756023952155374,102.22037922944583 44.68359281437006,102.2329722391296 44.62150898203254,102.24556524728541 44.56977245514281,102.25815825395694 44.486994012026116,102.2329722391296 44.40421556890942,102.24556524728541 44.362826347351074,102.25815825395694 44.28004790423438,102.2329722391296 44.20761676650727,102.22037922944583 44.14553293411154,102.25815825395694 44.05240718566347,102.24556524728541 44.01101796410512,102.2329722391296 43.938586826378014,102.22037922944583 43.87650299404049,102.2077862182341 43.7937245509238,102.22037922944583 43.7212934132549,102.2077862182341 43.65920958085917,102.22037922944583 43.59712574852165,102.1951932054726 43.54538922163192,102.18260019117588 43.472958083846606,102.18260019117588 43.4005269461195,102.1574141580495 43.307401197671425,102.14482113921258 43.245317365333904,102.17000717538758 43.17288622754859,102.1951932054726 43.09010778443189,102.18260019117588 43.007329341373406,102.17000717538758 42.9348982036463,102.1574141580495 42.87281437130878,102.1574141580495 42.81073053897126,102.17000717538758 42.748646706633735,102.17000717538758 42.66586826351704,102.17000717538758 42.59343712578993,102.17000717538758 42.51065868267324,102.1574141580495 42.44857485033572,102.1574141580495 42.37614371260861,102.1574141580495 42.31405988027109,102.1574141580495 42.24162874254398,102.17000717538758 42.1485029940377,102.17000717538758 42.08641916170018,102.18260019117588 42.034682634752244,102.18260019117588 41.94155688624596,102.2077862182341 41.87947305390844,102.2077862182341 41.81738922157092,102.17000717538758 41.765652694622986,102.1322281188477 41.6828742515645,102.1322281188477 41.61044311377918,102.1322281188477 41.53801197611028,102.14482113921258 41.48627544916235,102.1322281188477 41.403497006045654,102.11963509693305 41.34141317370813,102.11963509693305 41.25863473053323,102.1322281188477 41.19655089825392,102.1322281188477 41.1344670659164,102.1574141580495 41.072383233578876,102.1574141580495 41.010299401241355,102.1322281188477 40.92752095812466,102.11963509693305 40.86543712584535,102.10704207352683 40.79300598806003,102.1322281188477 40.710227544943336,102.10704207352683 40.648143712605815,102.10704207352683 40.586059880268294,102.10704207352683 40.5032814371516,102.10704207352683 40.43085029942449,102.0818560221087 40.37911377247656,102.09444904859993 40.32737724558683,102.05666996459331 40.2652934131911,102.04407693356188 40.192862275463995,102.05666996459331 40.130778443126474,102.04407693356188 40.04800000006799,102.05666996459331 39.996263473061845,102.05666996459331 39.94452694617212,102.0818560221087 39.84105389221804,102.0818560221087 39.789317365328316,102.06926299409679 39.70653892221162,102.06926299409679 39.6444550898741,102.0818560221087 39.58237125753658,102.11963509693305 39.50994011980947,102.11963509693305 39.44785628747195,102.11963509693305 39.35473053896567,102.11963509693305 39.28229940123856,102.11963509693305 39.20986826351145,102.1322281188477 39.14778443117393,102.1322281188477 39.106395209615584,102.09444904859993 39.0132694611093,102.09444904859993 38.96153293416137,102.09444904859993 38.88910179649247,102.09444904859993 38.82701796415495,102.09444904859993 38.775281437148806,102.10704207352683 38.71319760486949,102.06926299409679 38.63041916169459,102.09444904859993 38.547640718577895,102.09444904859993 38.47520958085079,102.10704207352683 38.413125748571474,102.0818560221087 38.34069461078616,102.06926299409679 38.24756886227988,102.06926299409679 38.17513772461098,102.05666996459331 38.113053892273456,102.0818560221087 38.0716646706569,102.06926299409679 38.00958083837759,102.06926299409679 37.926802395202685,102.06926299409679 37.75089820363792,102.0818560221087 37.61638323357329,102.0818560221087 37.4508263473399,102.06926299409679 37.31631137727527,102.05666996459331 37.22318562876899,102.03148390098795 37.14040718565229,101.99370479410572 36.98519760480849,102.03148390098795 36.736862275516614,102.10704207352683 36.51956886233529,102.09444904859993 36.39540119760204,102.0818560221087 36.22984431142686,102.01889086690062 36.147065868310165,102.00629783125623 36.043592814414296,101.99370479410572 35.919425149739254,102.00629783125623 35.68143712577876,102.01889086690062 35.65039520961,101.9559256735738 35.50553293421399,101.96851871526451 35.45379640720785,101.96851871526451 35.33997604792239,101.9559256735738 35.15372455090983,101.96851871526451 35.029556886292994,102.00629783125623 34.87434730544919,102.10704207352683 34.729485029994976,102.04407693356188 34.605317365319934,102.03148390098795 34.46045508986572,102.1574141580495 34.28455089824274,102.18260019117588 34.243161676684394,102.1322281188477 30.3215329341474,101.9559256735738 30.155976047972217,101.90555349141505 30.062850299465936,101.86777433885436 29.91798802401172,101.90555349141505 29.82486227550544,101.91814653923939 29.65930538927205,101.86777433885436 29.473053892259486,101.9559256735738 29.317844311415683,101.9559256735738 29.183329341409262,101.86777433885436 29.048814371286426,101.88036739123345 28.852215568884276,101.81740211401484 28.76943712582579,101.82999517252028 28.6038802395924,101.77962292941083 28.396934131800663,101.82999517252028 25.2306586826453,101.81740211401484 25.044407185690943,101.79221599250013 24.930586826405488,101.79221599250013 24.79607185634086,101.81740211401484 24.589125748549122,101.76702986480814 24.464958083932288,101.79221599250013 24.34079041919904,101.8048090540251 24.22697005997179,101.75443679870659 24.10280239523854,101.72925066191965 23.957940119842533,101.65369221492438 23.771688622771762,101.69147144529416 23.63717365276534,101.74184373106254 23.461269461142365,101.74184373106254 23.295712574908976,101.75443679870659 23.161197604844347,101.72925066191965 23.05772455089027,101.76702986480814 20.564023952174466,101.70406451900635 20.377772455103695,101.72925066191965 20.181173652759753,101.72925066191965 20.02596407191595,101.72925066191965 19.974227544968016,101.72925066191965 19.850059880292974,101.72925066191965 19.777628742565867,101.71665759124153 19.674155688669998,101.75443679870659 19.70519760483876,101.70406451900635 19.622419161722064,101.69147144529416 19.518946107826196,101.65369221492438 19.46720958087826,101.70406451900635 19.301652694644872,101.70406451900635 19.11540119763231,101.71665759124153 19.07401197607396,101.69147144529416 18.98088622756768,101.64109913510038 18.877413173671812,101.61591297089035 18.701508982048836,101.61591297089035 18.639425149711315,101.60331988647522 18.473868263536133,101.64109913510038 18.38074251502985,101.60331988647522 18.25657485035481,101.64109913510038 18.111712574900594,101.67887837005401 18.1013652694528,101.60331988647522 18.008239521004725,101.55294753357884 16.994203592883423,101.6285060537557 16.807952095812652,101.66628529324953 16.67343712580623,101.64109913510038 16.54926946113119,101.61591297089035 16.425101796456147,101.55294753357884 16.342323353339452,101.61591297089035 16.18711377249565,101.60331988647522 16.031904191651847,101.60331988647522 15.814610778470524,101.59072680051031 15.742179640743416,101.6285060537557 15.56627544912044,101.6285060537557 15.473149700672366,101.6285060537557 15.32828742521815,101.67887837005401 15.17307784431614,101.64109913510038 15.048910179699305,101.61591297089035 14.914395209634677,101.56554062407668 14.759185628790874,101.59072680051031 14.655712574895006,101.60331988647522 14.51085029944079,101.57813371308293 14.417724550934508,101.56554062407668 14.179736526974011,101.55294753357884 14.07626347313635,101.57813371308293 13.983137724571861,101.55294753357884 13.879664670675993,101.5277613480066 13.755497006059159,101.56554062407668 13.507161676650867,101.59072680051031 13.25882634735899,101.59072680051031 13.145005988073535,101.54035444158217 13.051880239567254,101.47738895852672 13.020838323456701,101.61591297089035 13.03118562878808,101.76702986480814 13.082922155736014,101.89296044207731 13.06222754495684,101.99370479410572 13.072574850346427,102.06926299409679 13.103616766515188,102.18260019117588 13.113964071904775,102.35890225229377 13.010491018008906,102.39668122649891 12.948407185671385,102.44705317079206 12.886323353392072,102.42186720168684 12.886323353392072,102.2329722391296 12.907017964113038,102.09444904859993 12.793197604827583,102.06926299409679 12.689724550931714,102.10704207352683 12.617293413204607,102.1322281188477 12.513820359366946,102.29593726478197 12.482778443139978,102.38408823664213 12.44138922158163,102.44705317079206 12.400000000023283,102.52261104147328" stroke="#4DD2FF" stroke-dasharray="none" stroke-linecap="round" stroke-linejoin="round" stroke-width="0.5"><title>2013-12-10 10.9km</title><desc>9223370650177580807</desc></polyline><polyline fill="none" opacity="0.5" points="89.5072514321655,103.40269750310108 89.27664157282561,108.17152088950388 88.58481199666858,114.34292484284379 90.66030072513968,119.39224314200692 96.88676690869033,122.75844923895784 103.11323309037834,123.03896619309671 108.4172598393634,117.98965582833625 110.26213870756328,110.97670653951354 110.49274856690317,104.52477447572164 110.49274856690317,97.79230450256728 111.64579785987735,91.62085653445683 109.80091899074614,85.72991361888126 105.88055139407516,82.92469745082781 99.88469506986439,82.08313193893991 94.81127818115056,84.32730595883913 91.12152044288814,88.5351263966877 89.96847114898264,95.5481435037218 89.73786129057407,102.56113941781223 89.27664157282561,109.01307694031857 109.80091899074614,93.02345978678204 110.49274856690317,89.37668956816196 106.80299082957208,83.7662626572419 101.96018379833549,80.4000000001397 94.11944860499352,86.01043504965492 89.96847114898264,91.05981499678455 91.35213030129671,99.75594359473325 88.58481199666858,105.92736992868595 88.35420214012265,111.25722491787747 88.58481199666858,117.98965582833625 93.42761902883649,121.35586395906284 99.88469506986439,123.60000000009313 105.88055139407516,120.79482960957102 110.03152885008603,114.0624068370089 110.49274856690317,107.89100213861093 109.80091899074614,101.15854193037376 110.72335842624307,94.98710291530006 111.18457814306021,88.5351263966877 107.95604012254626,83.7662626572419 102.6520133735612,82.08313193893991 96.65615704935044,83.7662626572419 92.73578945267946,86.57147780805826 90.89091058447957,91.62085653445683 90.42969086673111,98.63386431708932 89.73786129057407,104.52477447572164 87.89298242237419,112.94033447606489 112.10701757762581,90.49877332313918 108.87847955711186,86.8519991368521 104.95811196044087,83.20521922083572 97.34798662550747,82.64417564729229 91.12152044288814,89.09616854530759 89.73786129057407,95.5481435037218 89.5072514321655,103.40269750310108 89.27664157282561,108.17152088950388 88.58481199666858,114.34292484284379 90.66030072513968,119.39224314200692 96.88676690869033,122.75844923895784 103.11323309037834,123.03896619309671 108.4172598393634,117.98965582833625 110.26213870756328,110.97670653951354 110.49274856690317,104.52477447572164 110.49274856690317,97.79230450256728 111.64579785987735,91.62085653445683 109.80091899074614,85.72991361888126 105.88055139407516,82.92469745082781 99.88469506986439,82.08313193893991 94.81127818115056,84.32730595883913 91.12152044288814,88.5351263966877 89.96847114898264,95.5481435037218 89.73786129057407,102.56113941781223 89.27664157282561,109.01307694031857 109.80091899074614,93.02345978678204 110.49274856690317,89.37668956816196 106.80299082957208,83.7662626572419 101.96018379833549,80.4000000001397 94.11944860499352,86.01043504965492 89.96847114898264,91.05981499678455 91.35213030129671,99.75594359473325 88.58481199666858,105.92736992868595 88.35420214012265,111.25722491787747 88.58481199666858,117.98965582833625 93.42761902883649,121.35586395906284 99.88469506986439,123.60000000009313 105.88055139407516,120.79482960957102 110.03152885008603,114.0624068370089 110.49274856690317,107.89100213861093 109.80091899074614,101.15854193037376 110.72335842624307,94.98710291530006 111.18457814306021,88.5351263966877 107.95604012254626,83.7662626572419 102.6520133735612,82.08313193893991 96.65615704935044,83.7662626572419 92.73578945267946,86.57147780805826 90.89091058447957,91.62085653445683 90.42969086673111,98.63386431708932 89.73786129057407,104.52477447572164 87.89298242237419,112.94033447606489 112.10701757762581,90.49877332313918 108.87847955711186,86.8519991368521 104.95811196044087,83.20521922083572 97.34798662550747,82.64417564729229 91.12152044288814,89.09616854530759 89.73786129057407,95.5481435037218 89.5072514321655,103.40269750310108 89.27664157282561,108.17152088950388 88.58481199666858,114.34292484284379 90.66030072513968,119.39224314200692 96.88676690869033,122.75844923895784 103.11323309037834,123.03896619309671 108.4172598393634,117.98965582833625 110.26213870756328,110.97670653951354 110.49274856690317,104.52477447572164 110.49274856690317,97.79230450256728 111.64579785987735,91.62085653445683 109.80091899074614,85.72991361888126 105.88055139407516,82.92469745082781 99.88469506986439,82.08313193893991 94.81127818115056,84.32730595883913 91.12152044288814,88.5351263966877 89.96847114898264,95.5481435037218 89.73786129057407,102.56113941781223 89.27664157282561,109.01307694031857 109.80091899074614,93.02345978678204 110.49274856690317,89.37668956816196 106.80299082957208,83.7662626572419 101.96018379833549,80.4000000001397 94.11944860499352,86.01043504965492 89.96847114898264,91.05981499678455 91.35213030129671,99.75594359473325 88.58481199666858,105.92736992868595 88.35420214012265,111.25722491787747 88.58481199666858,117.98965582833625 93.42761902883649,121.35586395906284 99.88469506986439,123.60000000009313 105.88055139407516,120.79482960957102 110.03152885008603,114.0624068370089 110.49274856690317,107.89100213861093 109.80091899074614,101.15854193037376 110.72335842624307,94.98710291530006 111.18457814306021,88.5351263966877 107.95604012254626,83.7662626572419 102.6520133735612,82.08313193893991 96.65615704935044,83.7662626572419 92.73578945267946,86.57147780805826 90.89091058447957,91.62085653445683 90.42969086673111,98.63386431708932 89.73786129057407,104.52477447572164 87.89298242237419,112.94033447606489 112.10701757762581,90.49877332313918 108.87847955711186,86.8519991368521 104.95811196044087,83.20521922083572 97.34798662550747,82.64417564729229 91.12152044288814,89.09616854530759 89.73786129057407,95.5481435037218 89.5072514321655,103.40269750310108 89.27664157282561,108.17152088950388 88.58481199666858,114.34292484284379 90.66030072513968,119.39224314200692 96.88676690869033,122.75844923895784 103.11323309037834,123.03896619309671 108.4172598393634,117.98965582833625 110.26213870756328,110.97670653951354 110.49274856690317,104.52477447572164 110.49274856690317,97.79230450256728 111.64579785987735,91.62085653445683 109.80091899074614,85.72991361888126 105.88055139407516,82.92469745082781 99.88469506986439,82.08313193893991 94.81127818115056,84.32730595883913 91.12152044288814,88.5351263966877 89.96847114898264,95.5481435037218 89.73786129057407,102.56113941781223 89.27664157282561,109.01307694031857 109.80091899074614,93.02345978678204 110.49274856690317,89.37668956816196 106.80299082957208,83.7662626572419 101.96018379833549,80.4000000001397 94.11944860499352,86.01043504965492 89.96847114898264,91.05981499678455 91.35213030129671,99.75594359473325 88.58481199666858,105.92736992868595 88.35420214012265,111.25722491787747 88.58481199666858,117.98965582833625 93.42761902883649,121.35586395906284 99.88469506986439,123.60000000009313 105.88055139407516,120.79482960957102 110.03152885008603,114.0624068370089 110.49274856690317,107.89100213861093 109.80091899074614,101.15854193037376 110.72335842624307,94.98710291530006 111.18457814306021,88.5351263966877 107.95604012254626,83.7662626572419 102.6520133735612,82.08313193893991 96.65615704935044,83.7662626572419 92.73578945267946,86.57147780805826 90.89091058447957,91.62085653445683 90.42969086673111,98.63386431708932 89.73786129057407,104.52477447572164 87.89298242237419,112.94033447606489 112.10701757762581,90.49877332313918 108.87847955711186,86.8519991368521 104.95811196044087,83.20521922083572 97.34798662550747,82.64417564729229 91.12152044288814,89.09616854530759 89.73786129057407,95.5481435037218 89.5072514321655,103.40269750310108 89.27664157282561,108.17152088950388 88.58481199666858,114.34292484284379 90.66030072513968,119.39224314200692 96.88676690869033,122.75844923895784 103.11323309037834,123.03896619309671 108.4172598393634,117.98965582833625 110.26213870756328,110.97670653951354 110.49274856690317,104.52477447572164 110.49274856690317,97.79230450256728 111.64579785987735,91.62085653445683 109.80091899074614,85.72991361888126 105.88055139407516,82.92469745082781 99.88469506986439,82.08313193893991 94.81127818115056,84.32730595883913 91.12152044288814,88.5351263966877 89.96847114898264,95.5481435037218 89.73786129057407,102.56113941781223 89.27664157282561,109.01307694031857 109.80091899074614,93.02345978678204 110.49274856690317,89.37668956816196 106.80299082957208,83.7662626572419 101.96018379833549,80.4000000001397 94.11944860499352,86.01043504965492 89.96847114898264,91.05981499678455 91.35213030129671,99.75594359473325 88.58481199666858,105.92736992868595 88.35420214012265,111.25722491787747 88.58481199666858,117.98965582833625 93.42761902883649,121.35586395906284 99.88469506986439,123.60000000009313 105.88055139407516,120.79482960957102 110.03152885008603,114.0624068370089 110.49274856690317,107.89100213861093 109.80091899074614,101.15854193037376 110.72335842624307,94.98710291530006 111.18457814306021,88.5351263966877 107.95604012254626,83.7662626572419 102.6520133735612,82.08313193893991 96.65615704935044,83.7662626572419 92.73578945267946,86.57147780805826 90.89091058447957,91.62085653445683 90.42969086673111,98.63386431708932 89.73786129057407,104.52477447572164 87.89298242237419,112.94033447606489 112.10701757762581,90.49877332313918 108.87847955711186,86.8519991368521 104.95811196044087,83.20521922083572 97.34798662550747,82.64417564729229 91.12152044288814,89.09616854530759 89.73786129057407,95.5481435037218 89.5072514321655,103.40269750310108 89.27664157282561,108.17152088950388 88.58481199666858,114.34292484284379 90.66030072513968,119.39224314200692 96.88676690869033,122.75844923895784 103.11323309037834,123.03896619309671 108.4172598393634,117.98965582833625 110.26213870756328,110.97670653951354 110.49274856690317,104.52477447572164 110.49274856690317,97.79230450256728 111.64579785987735,91.62085653445683 109.80091899074614,85.72991361888126 105.88055139407516,82.92469745082781 99.88469506986439,82.08313193893991 94.81127818115056,84.32730595883913 91.12152044288814,88.5351263966877 89.96847114898264,95.5481435037218 89.73786129057407,102.56113941781223 89.27664157282561,109.01307694031857 109.80091899074614,93.02345978678204 110.49274856690317,89.37668956816196 106.80299082957208,83.7662626572419 101.96018379833549,80.4000000001397 94.11944860499352,86.01043504965492 89.96847114898264,91.05981499678455 91.35213030129671,99.75594359473325 88.58481199666858,105.92736992868595 88.35420214012265,111.25722491787747 88.58481199666858,117.98965582833625 93.42761902883649,121.35586395906284 99.88469506986439,123.60000000009313 105.88055139407516,120.79482960957102 110.03152885008603,114.0624068370089 110.49274856690317,107.89100213861093 109.80091899074614,101.15854193037376 110.72335842624307,94.98710291530006 111.18457814306021,88.5351263966877 107.95604012254626,83.7662626572419 102.6520133735612,82.08313193893991 96.65615704935044,83.7662626572419 92.73578945267946,86.57147780805826 90.89091058447957,91.62085653445683 90.42969086673111,98.63386431708932 89.73786129057407,104.52477447572164 87.89298242237419,112.94033447606489 112.10701757762581,90.49877332313918 108.87847955711186,86.8519991368521 104.95811196044087,83.20521922083572 97.34798662550747,82.64417564729229 91.12152044288814,89.09616854530759 89.73786129057407,95.5481435037218 89.5072514321655,103.40269750310108 89.27664157282561,108.17152088950388 88.58481199666858,114.34292484284379 90.66030072513968,119.39224314200692 96.88676690869033,122.75844923895784 103.11323309037834,123.03896619309671 108.4172598393634,117.98965582833625 110.26213870756328,110.97670653951354 110.49274856690317,104.52477447572164 110.49274856690317,97.79230450256728 111.64579785987735,91.62085653445683 109.80091899074614,85.72991361888126 105.88055139407516,82.92469745082781 99.88469506986439,82.08313193893991 94.81127818115056,84.32730595883913 91.12152044288814,88.5351263966877 89.96847114898264,95.5481435037218 89.73786129057407,102.56113941781223 89.27664157282561,109.01307694031857 109.80091899074614,93.02345978678204" stroke="#4DD2FF" stroke-dasharray="1,0.5" stroke-linecap="round" stroke-linejoin="round" stroke-width="0.5"><title>2013-11-30 10.3km</title><desc>9223370651086224807</desc></polyline><polyline fill="none" opacity="1" points="154.62053203303367,101.6958673207555 153.62013924401253,104.43389433156699 154.37043383531272,106.86769361770712 153.37004104815423,110.21416379394941 153.62013924401253,113.56062952009961 153.62013924401253,117.51553782331757 155.8710230179131,119.03665474569425 158.87220138311386,121.16621689475141 162.6236743396148,122.68733161129057 165.8749509016052,123.60000000009313 169.3763256603852,122.99155444419011 172.37750402558595,120.55777075048536 175.12858419306576,117.51553782331757 176.8792715733871,113.25640554656275 177.1293697692454,109.90993941645138 177.37946796696633,106.56346883624792 177.37946796696633,102.91276858211495 176.62917337566614,99.26206303318031 177.37946796696633,95.61135218874551 177.6295661656186,92.56908910605125 178.6299589527771,88.91836855211295 178.12976255919784,85.57187006017193 176.62917337566614,82.52959484094754 174.62838779948652,80.4000000001397" stroke="#4DD2FF" stroke-dasharray="none" stroke-linecap="round" stroke-linejoin="round" stroke-width="0.5"><title>2013-11-16 10.4km</title><desc>9223370652294258807</desc></polyline><polyline fill="none" opacity="1" points="22.038713595829904,158.10008077835664 22.28533805720508,163.20005889236927 23.271835904568434,165.60004496737383 25.73808052483946,167.7000308786519 30.42394530121237,171.60000000009313 34.36993669252843,171.60000000009313 38.06930362153798,170.40001015365124 40.28892377950251,169.20001972699538 43.001792861148715,165.90004306309856 43.74166624620557,163.20005889236927 43.49504178483039,159.000077677425 43.98829070944339,154.2000904425513 44.97478855680674,151.20009370637126 45.714661941863596,147.60009283619002 45.714661941863596,144.00008674431592 45.961286404170096,139.80007303715684 45.46803748048842,135.90005394420587 43.248417323455215,132.6000330010429 40.53554824180901,130.50001738895662 36.34293238911778,128.4000000001397 32.6435654591769,129.00000514974818 29.19082299247384,130.50001738895662 25.98470498714596,132.0000287219882 23.271835904568434,135.00004866719246 22.531962518580258,140.40007542981766 22.77858698181808,144.00008674431592" stroke="#4DD2FF" stroke-dasharray="none" stroke-linecap="round" stroke-linejoin="round" stroke-width="0.5"><title>2013-11-03 10.7km</title><desc>9223370653417861807</desc></polyline><polyline fill="none" opacity="0.5" points="92.18246090784669,137.90950523223728 90.39559482969344,144.158586763544 90.17223657015711,150.67934896843508 88.83208701107651,155.0265132614877 88.38537049200386,157.47178948204964 94.19268524646759,166.1660833877977 101.11679129954427,167.52456377167255 105.80731475353241,168.3396516093053 108.71097213122994,162.90572711406276 109.60440516937524,159.101972151082 108.93433039076626,158.01518383715302 110.05112169031054,150.67934896843508 109.82776342984289,146.06047769379802 109.82776342984289,136.55100694834255 107.59418083168566,129.48680263455026 99.77664174046367,128.94340138346888 93.7459687255323,132.4755071690306 90.39559482969344,137.36610601702705 89.94887830968946,143.8868879280053 89.27880353014916,151.49444291344844 88.83208701107651,159.101972151082 92.40581916645169,165.62269100314006 100.44671652000397,169.96982639585622 107.37082257214934,167.79625975061208 109.60440516937524,159.64536611153744 109.15768865030259,153.12462991802022 109.38104691077024,146.06047769379802 111.16791298892349,138.72460380825214 108.48761387076229,134.10570796765387 104.2438069358468,129.75850321073085 95.97955132462084,130.30190426576883 90.84231134969741,132.4755071690306 88.60872875060886,138.18120479094796 88.16201223153621,142.52839325624518 88.83208701107651,147.4189702309668 88.83208701107651,153.6680253231898 88.83208701107651,161.27554720430635 95.7561930641532,168.61134748952463 100.0,169.96982639585622 105.13723997492343,171.32830448099412 108.93433039076626,162.36233394173905 109.15768865030259,151.2227449649945 108.93433039076626,145.51708045019768 111.83798776753247,140.62649933691137 109.38104691077024,131.9321066401899 104.02044867537916,128.4000000001397 95.0861182846129,130.30190426576883 90.61895308922976,133.29060771595687 95.97955132462084,130.57360474346206 92.62917742691934,135.46420772955753 91.73574438877404,141.4415969287511 89.94887830968946,146.60387480724603 91.73574438877404,154.21142059750855 89.05544527154416,156.11330302152783 88.83208701107651,163.17742365039885 99.77664174046367,167.52456377167255 103.12701563630253,167.52456377167255 108.04089735168964,163.99251306336373 108.93433039076626,160.46045680507086 107.59418083168566,158.83027512137778 110.27447994984686,155.84160563116893 110.27447994984686,149.32085840264335 110.27447994984686,141.98499515815638 109.38104691077024,133.01890756678768 103.5737321563065,129.21510202554055 96.64962610416114,130.30190426576883 90.61895308922976,133.01890756678768 90.17223657015711,140.3548000745941 88.83208701107651,147.4189702309668 89.05544527154416,155.0265132614877 88.83208701107651,161.54724393785 97.98977566231042,168.61134748952463 103.35037389583886,171.60000000009313 109.15768865030259,162.6340305446647 109.60440516937524,158.55857805884443 108.93433039076626,148.77746194624342 109.60440516937524,142.80009225662798 109.82776342984289,135.73590758326463 106.92410605214536,130.57360474346206 100.0,129.48680263455026 93.7459687255323,130.57360474346206 88.83208701107651,135.46420772955753 89.27880353014916,139.53970208973624 88.60872875060886,145.788779088296 88.38537049200386,150.13595284055918 88.60872875060886,156.92839499609545 91.51238612923771,166.1660833877977 97.09634262230247,168.3396516093053 102.01022433675826,169.15473914984614 107.37082257214934,168.61134748952463 108.04089735168964,158.28688096394762 108.93433039076626,146.87557331495918 110.49783820938319,142.80009225662798 111.16791298892349,136.55100694834255 107.14746431168169,129.48680263455026 100.0,128.67170070810243 91.06566960923374,131.9321066401899 99.3299252204597,129.21510202554055 93.7459687255323,132.20380692067556 92.18246090784669,137.90950523223728 90.39559482969344,144.158586763544 90.17223657015711,150.67934896843508 88.83208701107651,155.0265132614877 88.38537049200386,157.47178948204964 94.19268524646759,166.1660833877977 101.11679129954427,167.52456377167255 105.80731475353241,168.3396516093053 108.71097213122994,162.90572711406276 109.60440516937524,159.101972151082 108.93433039076626,158.01518383715302 110.05112169031054,150.67934896843508 109.82776342984289,146.06047769379802 109.82776342984289,136.55100694834255 107.59418083168566,129.48680263455026 99.77664174046367,128.94340138346888 93.7459687255323,132.4755071690306 90.39559482969344,137.36610601702705 89.94887830968946,143.8868879280053 89.27880353014916,151.49444291344844 88.83208701107651,159.101972151082 92.40581916645169,165.62269100314006 100.44671652000397,169.96982639585622 107.37082257214934,167.79625975061208 109.60440516937524,159.64536611153744 109.15768865030259,153.12462991802022 109.38104691077024,146.06047769379802 111.16791298892349,138.72460380825214 108.48761387076229,134.10570796765387 104.2438069358468,129.75850321073085 95.97955132462084,130.30190426576883 90.84231134969741,132.4755071690306 88.60872875060886,138.18120479094796 88.16201223153621,142.52839325624518 88.83208701107651,147.4189702309668 88.83208701107651,153.6680253231898 88.83208701107651,161.27554720430635 95.7561930641532,168.61134748952463 100.0,169.96982639585622 105.13723997492343,171.32830448099412 108.93433039076626,162.36233394173905 109.15768865030259,151.2227449649945 108.93433039076626,145.51708045019768 111.83798776753247,140.62649933691137 109.38104691077024,131.9321066401899 104.02044867537916,128.4000000001397 95.0861182846129,130.30190426576883 90.61895308922976,133.29060771595687 95.97955132462084,130.57360474346206 92.62917742691934,135.46420772955753 91.73574438877404,141.4415969287511 89.94887830968946,146.60387480724603 91.73574438877404,154.21142059750855 89.05544527154416,156.11330302152783 88.83208701107651,163.17742365039885 99.77664174046367,167.52456377167255 103.12701563630253,167.52456377167255 108.04089735168964,163.99251306336373 108.93433039076626,160.46045680507086 107.59418083168566,158.83027512137778 110.27447994984686,155.84160563116893 110.27447994984686,149.32085840264335 110.27447994984686,141.98499515815638 109.38104691077024,133.01890756678768 103.5737321563065,129.21510202554055 96.64962610416114,130.30190426576883 90.61895308922976,133.01890756678768 90.17223657015711,140.3548000745941 88.83208701107651,147.4189702309668 89.05544527154416,155.0265132614877 88.83208701107651,161.54724393785 97.98977566231042,168.61134748952463 103.35037389583886,171.60000000009313 109.15768865030259,162.6340305446647 109.60440516937524,158.55857805884443 108.93433039076626,148.77746194624342 109.60440516937524,142.80009225662798 109.82776342984289,135.73590758326463 106.92410605214536,130.57360474346206 100.0,129.48680263455026 93.7459687255323,130.57360474346206 88.83208701107651,135.46420772955753 89.27880353014916,139.53970208973624 88.60872875060886,145.788779088296 88.38537049200386,150.13595284055918 88.60872875060886,156.92839499609545 91.51238612923771,166.1660833877977 97.09634262230247,168.3396516093053 102.01022433675826,169.15473914984614 107.37082257214934,168.61134748952463 108.04089735168964,158.28688096394762 108.93433039076626,146.87557331495918 110.49783820938319,142.80009225662798 111.16791298892349,136.55100694834255 107.14746431168169,129.48680263455026 100.0,128.67170070810243 91.06566960923374,131.9321066401899 99.3299252204597,129.21510202554055 93.7459687255323,132.20380692067556 92.18246090784669,137.90950523223728 90.39559482969344,144.158586763544 90.17223657015711,150.67934896843508 88.83208701107651,155.0265132614877 88.38537049200386,157.47178948204964 94.19268524646759,166.1660833877977 101.11679129954427,167.52456377167255 105.80731475353241,168.3396516093053 108.71097213122994,162.90572711406276 109.60440516937524,159.101972151082 108.93433039076626,158.01518383715302 110.05112169031054,150.67934896843508 109.82776342984289,146.06047769379802 109.82776342984289,136.55100694834255 107.59418083168566,129.48680263455026 99.77664174046367,128.94340138346888 93.7459687255323,132.4755071690306 90.39559482969344,137.36610601702705 89.94887830968946,143.8868879280053 89.27880353014916,151.49444291344844 88.83208701107651,159.101972151082 92.40581916645169,165.62269100314006 100.44671652000397,169.96982639585622 107.37082257214934,167.79625975061208 109.60440516937524,159.64536611153744 109.15768865030259,153.12462991802022 109.38104691077024,146.06047769379802 111.16791298892349,138.72460380825214 108.48761387076229,134.10570796765387 104.2438069358468,129.75850321073085 95.97955132462084,130.30190426576883 90.84231134969741,132.4755071690306 88.60872875060886,138.18120479094796 88.16201223153621,142.52839325624518 88.83208701107651,147.4189702309668 88.83208701107651,153.6680253231898 88.83208701107651,161.27554720430635 95.7561930641532,168.61134748952463 100.0,169.96982639585622 105.13723997492343,171.32830448099412 108.93433039076626,162.36233394173905 109.15768865030259,151.2227449649945 108.93433039076626,145.51708045019768 111.83798776753247,140.62649933691137 109.38104691077024,131.9321066401899 104.02044867537916,128.4000000001397 95.0861182846129,130.30190426576883 90.61895308922976,133.29060771595687 95.97955132462084,130.57360474346206 92.62917742691934,135.46420772955753 91.73574438877404,141.4415969287511 89.94887830968946,146.60387480724603 91.73574438877404,154.21142059750855 89.05544527154416,156.11330302152783 88.83208701107651,163.17742365039885 99.77664174046367,167.52456377167255 103.12701563630253,167.52456377167255 108.04089735168964,163.99251306336373 108.93433039076626,160.46045680507086 107.59418083168566,158.83027512137778 110.27447994984686,155.84160563116893 110.27447994984686,149.32085840264335 110.27447994984686,141.98499515815638 109.38104691077024,133.01890756678768 103.5737321563065,129.21510202554055 96.64962610416114,130.30190426576883 90.61895308922976,133.01890756678768 90.17223657015711,140.3548000745941 88.83208701107651,147.4189702309668 89.05544527154416,155.0265132614877 88.83208701107651,161.54724393785 97.98977566231042,168.61134748952463 103.35037389583886,171.60000000009313 109.15768865030259,162.6340305446647 109.60440516937524,158.55857805884443 108.93433039076626,148.77746194624342 109.60440516937524,142.80009225662798 109.82776342984289,135.73590758326463 106.92410605214536,130.57360474346206 100.0,129.48680263455026 93.7459687255323,130.57360474346206 88.83208701107651,135.46420772955753 89.27880353014916,139.53970208973624 88.60872875060886,145.788779088296 88.38537049200386,150.13595284055918 88.60872875060886,156.92839499609545 91.51238612923771,166.1660833877977 97.09634262230247,168.3396516093053 102.01022433675826,169.15473914984614 107.37082257214934,168.61134748952463 108.04089735168964,158.28688096394762 108.93433039076626,146.87557331495918 110.49783820938319,142.80009225662798 111.16791298892349,136.55100694834255 107.14746431168169,129.48680263455026 100.0,128.67170070810243 91.06566960923374,131.9321066401899 99.3299252204597,129.21510202554055 93.7459687255323,132.20380692067556 92.18246090784669,137.90950523223728 90.39559482969344,144.158586763544 90.17223657015711,150.67934896843508 88.83208701107651,155.0265132614877 88.38537049200386,157.47178948204964 94.19268524646759,166.1660833877977 101.11679129954427,167.52456377167255 105.80731475353241,168.3396516093053 108.71097213122994,162.90572711406276 109.60440516937524,159.101972151082 108.93433039076626,158.01518383715302 110.05112169031054,150.67934896843508 109.82776342984289,146.06047769379802 109.82776342984289,136.55100694834255 107.59418083168566,129.48680263455026 99.77664174046367,128.94340138346888 93.7459687255323,132.4755071690306 90.39559482969344,137.36610601702705 89.94887830968946,143.8868879280053 89.27880353014916,151.49444291344844 88.83208701107651,159.101972151082 92.40581916645169,165.62269100314006 100.44671652000397,169.96982639585622 107.37082257214934,167.79625975061208 109.60440516937524,159.64536611153744 109.15768865030259,153.12462991802022 109.38104691077024,146.06047769379802 111.16791298892349,138.72460380825214 108.48761387076229,134.10570796765387 104.2438069358468,129.75850321073085 95.97955132462084,130.30190426576883 90.84231134969741,132.4755071690306 88.60872875060886,138.18120479094796 88.16201223153621,142.52839325624518 88.83208701107651,147.4189702309668 88.83208701107651,153.6680253231898 88.83208701107651,161.27554720430635 95.7561930641532,168.61134748952463 100.0,169.96982639585622 105.13723997492343,171.32830448099412 108.93433039076626,162.36233394173905 109.15768865030259,151.2227449649945 108.93433039076626,145.51708045019768 111.83798776753247,140.62649933691137 109.38104691077024,131.9321066401899 104.02044867537916,128.4000000001397 95.0861182846129,130.30190426576883 90.61895308922976,133.29060771595687 95.97955132462084,130.57360474346206 92.62917742691934,135.46420772955753 91.73574438877404,141.4415969287511 89.94887830968946,146.60387480724603 91.73574438877404,154.21142059750855 89.05544527154416,156.11330302152783 88.83208701107651,163.17742365039885 99.77664174046367,167.52456377167255 103.12701563630253,167.52456377167255 108.04089735168964,163.99251306336373 108.93433039076626,160.46045680507086 107.59418083168566,158.83027512137778 110.27447994984686,155.84160563116893 110.27447994984686,149.32085840264335" stroke="#4DD2FF" stroke-dasharray="1,0.5" stroke-linecap="round" stroke-linejoin="round" stroke-width="0.5"><title>2013-11-02 10.5km</title><desc>9223370653505000807</desc></polyline><polyline fill="none" opacity="1" points="158.08287346642464,137.48032282991335 157.63046623580158,141.05740975751542 156.27324454393238,143.80901126051322 155.8208373133093,146.28544976958074 156.0470409290865,150.4128412983846 157.63046623580158,153.98990790266544 154.6898192372173,154.81538401241414 154.9160228529945,155.91601836122572 154.23741200659424,157.2918105481658 154.6898192372173,163.07012865273282 160.1187060046941,166.09686085488647 165.77379638515413,167.472646887647 167.13101807702333,167.472646887647 169.16685061436146,167.472646887647 171.88129399716854,168.29811810934916 174.14333015028387,163.8956014700234 174.82194099668413,162.7949709808454 175.04814461153,160.31855043233372 175.72675545606762,158.94276007497683 173.6909229196608,158.667601903202 175.04814461153,157.84212719067 176.4053663033992,155.64085982437246 176.17916268855333,150.4128412983846 176.4053663033992,149.0370449537877 175.95295907184482,145.7351303335745 176.4053663033992,141.60773032391444 175.95295907184482,136.10451866895892 175.50055184215307,132.5274239582941 173.6909229196608,128.95032362639904 169.61925784498453,128.67516182991676 165.77379638515413,128.39999999990687 162.60694577172399,129.775808817707 159.6662987722084,131.97710119606927 156.49944815877825,132.5274239582941 156.27324454393238,136.93000126513653 156.0470409290865,139.9567682244815 155.8208373133093,143.53385126008652 154.6898192372173,147.11092867446132 155.14222646690905,151.23831870546564 154.9160228529945,154.81538401241414 154.6898192372173,158.94276007497683 154.6898192372173,161.41918212012388 158.3090770803392,165.54654620750807 163.96416746359318,168.57327511697076 166.4524072315544,169.94905965332873 169.39305422920734,171.60000000009313 173.46471930481493,167.7478039949201 175.27434822637588,162.51981327543035 175.72675545606762,159.49307631794363 175.72675545606762,158.39244369836524 175.27434822637588,152.8892726227641 175.04814461153,148.4867261829786 175.50055184215307,145.7351303335745 175.72675545606762,142.43321092473343 177.31018076371402,138.3058049271349 175.95295907184482,135.27903577289544 174.59573737997562,133.6280690834392 173.01231207326055,130.05097048124298 170.2978686913848,129.22548538981937 166.00000000093132,128.95032362639904 161.92833492625505,129.775808817707 159.6662987722084,130.05097048124298 156.72565177455544,131.97710119606927 154.6898192372173,135.00387474126182 154.4636156214401,137.75548356282525 155.14222646690905,139.13128672586754 154.01120839081705,142.15805075713433 154.4636156214401,145.45997056597844 154.6898192372173,147.11092867446132 154.23741200659424,149.86252286005765 154.6898192372173,153.43959032930434 154.4636156214401,156.74149377294816 154.6898192372173,161.14402424846776 157.4042626209557,166.09686085488647 161.70213131047785,168.57327511697076 163.05935300234705,168.29811810934916 166.00000000093132,169.94905965332873 168.03583253733814,169.1235890306998 171.2026831516996,171.32484335824847 173.46471930481493,168.57327511697076 175.04814461153,162.24465553602204 174.14333015028387,158.11728546093218 175.27434822637588,150.96315960306674 175.04814461153,146.56060943822376 175.04814461153,145.18481076532044 176.63156991824508,142.43321092473343 177.98879161011428,140.23192865704186 177.31018076371402,136.10451866895892 175.50055184215307,131.42677830089815 173.23851568903774,128.95032362639904" stroke="#4DD2FF" stroke-dasharray="none" stroke-linecap="round" stroke-linejoin="round" stroke-width="0.5"><title>2013-10-26 11.1km</title><desc>9223370654110301807</desc></polyline><polyline fill="none" opacity="1" points="34.93457702267915,176.4000000001397 31.429913191124797,177.82106525660492 28.626182126812637,180.09476788225584 26.056095317937434,182.6526807071641 25.588806807994843,185.77901482582092 25.588806807994843,189.4737679695245 25.12151829712093,192.60009301709943 24.654229786247015,196.86325683817267 21.850498721934855,199.9895720607601 22.31778723280877,203.68430287321098 22.084142977371812,207.94744659680873 22.551431487314403,211.07374708005227 22.551431487314403,213.91583482245915 24.654229786247015,216.75791912851855 27.691605105996132,219.0315841003321 30.962624681182206,219.60000000009313 34.93457702267915,219.0315841003321 37.50466383062303,217.610543750925 41.242971915751696,215.90529419737868 42.177548938430846,213.6316262029577 43.81305872555822,210.22112008789554 44.280347236432135,206.81060902611353 44.280347236432135,203.1158831268549 44.74763574730605,199.70536175812595 45.4485685126856,195.4422030900605 45.682212768122554,192.0316705906298 46.14950127899647,189.18955639493652 45.91585702355951,185.49480280443095 44.981280002743006,181.80004340759479 42.878481704741716,179.24212965508923 39.8411063849926,178.10527820512652 36.33644255436957,177.53685227409005 32.83177872374654,177.53685227409005 29.560759149491787,178.95791684417054 26.056095317937434,181.23161837016232 24.654229786247015,184.07374218595214 25.355162551626563,188.33692146651447" stroke="#4DD2FF" stroke-dasharray="none" stroke-linecap="round" stroke-linejoin="round" stroke-width="0.5"><title>2013-10-20 10.7km</title><desc>9223370654628121807</desc></polyline><polyline fill="none" opacity="0.5" points="111.06769904587418,194.1535169375129 111.55419131275266,186.164450250566 106.68926865514368,177.87946466286667 98.90539240278304,176.6958930043038 93.31073134578764,181.4301762059331 91.12151614949107,189.12336687906645 89.6620393525809,197.11242390889674 88.44580868817866,204.50967568764463 88.20256255567074,211.31512758042663 98.66214626841247,219.00822432828136 104.98654572386295,218.1205605531577 109.36497611645609,212.79457114078104 110.09471451491117,203.6220066549722 110.09471451491117,197.11242390889674 111.79743744432926,190.60282385186292 109.36497611645609,179.95071368920617 101.82434599753469,176.4000000001397 95.98643880710006,179.35892843198963 92.58099294733256,184.38909855671227 89.6620393525809,193.56173511454836 88.20256255567074,200.66310755256563 88.68905482254922,207.76445938879624 95.01345427706838,219.00822432828136 101.58109986409545,219.60000000009313 107.66225318517536,216.34523203712888 109.85146838147193,208.35623777774163 110.09471451491117,200.66310755256563 111.06769904587418,194.1535169375129 111.55419131275266,186.164450250566 106.68926865514368,177.87946466286667 98.90539240278304,176.6958930043038 93.31073134578764,181.4301762059331 91.12151614949107,189.12336687906645 89.6620393525809,197.11242390889674 88.44580868817866,204.50967568764463 88.20256255567074,211.31512758042663 98.66214626841247,219.00822432828136 104.98654572386295,218.1205605531577 109.36497611645609,212.79457114078104 110.09471451491117,203.6220066549722 110.09471451491117,197.11242390889674 111.79743744432926,190.60282385186292 109.36497611645609,179.95071368920617 101.82434599753469,176.4000000001397 95.98643880710006,179.35892843198963 92.58099294733256,184.38909855671227 89.6620393525809,193.56173511454836 88.20256255567074,200.66310755256563 88.68905482254922,207.76445938879624 95.01345427706838,219.00822432828136 101.58109986409545,219.60000000009313 107.66225318517536,216.34523203712888 109.85146838147193,208.35623777774163 110.09471451491117,200.66310755256563 111.06769904587418,194.1535169375129 111.55419131275266,186.164450250566 106.68926865514368,177.87946466286667 98.90539240278304,176.6958930043038 93.31073134578764,181.4301762059331 91.12151614949107,189.12336687906645 89.6620393525809,197.11242390889674 88.44580868817866,204.50967568764463 88.20256255567074,211.31512758042663 98.66214626841247,219.00822432828136 104.98654572386295,218.1205605531577 109.36497611645609,212.79457114078104 110.09471451491117,203.6220066549722 110.09471451491117,197.11242390889674 111.79743744432926,190.60282385186292 109.36497611645609,179.95071368920617 101.82434599753469,176.4000000001397 95.98643880710006,179.35892843198963 92.58099294733256,184.38909855671227 89.6620393525809,193.56173511454836 88.20256255567074,200.66310755256563 88.68905482254922,207.76445938879624 95.01345427706838,219.00822432828136 101.58109986409545,219.60000000009313 107.66225318517536,216.34523203712888 109.85146838147193,208.35623777774163 110.09471451491117,200.66310755256563 111.06769904587418,194.1535169375129 111.55419131275266,186.164450250566 106.68926865514368,177.87946466286667 98.90539240278304,176.6958930043038 93.31073134578764,181.4301762059331 91.12151614949107,189.12336687906645 89.6620393525809,197.11242390889674 88.44580868817866,204.50967568764463 88.20256255567074,211.31512758042663 98.66214626841247,219.00822432828136 104.98654572386295,218.1205605531577 109.36497611645609,212.79457114078104 110.09471451491117,203.6220066549722 110.09471451491117,197.11242390889674 111.79743744432926,190.60282385186292 109.36497611645609,179.95071368920617 101.82434599753469,176.4000000001397 95.98643880710006,179.35892843198963 92.58099294733256,184.38909855671227 89.6620393525809,193.56173511454836 88.20256255567074,200.66310755256563 88.68905482254922,207.76445938879624 95.01345427706838,219.00822432828136 101.58109986409545,219.60000000009313 107.66225318517536,216.34523203712888 109.85146838147193,208.35623777774163 110.09471451491117,200.66310755256563 111.06769904587418,194.1535169375129 111.55419131275266,186.164450250566 106.68926865514368,177.87946466286667 98.90539240278304,176.6958930043038 93.31073134578764,181.4301762059331 91.12151614949107,189.12336687906645 89.6620393525809,197.11242390889674 88.44580868817866,204.50967568764463 88.20256255567074,211.31512758042663 98.66214626841247,219.00822432828136 104.98654572386295,218.1205605531577 109.36497611645609,212.79457114078104 110.09471451491117,203.6220066549722 110.09471451491117,197.11242390889674 111.79743744432926,190.60282385186292 109.36497611645609,179.95071368920617 101.82434599753469,176.4000000001397 95.98643880710006,179.35892843198963 92.58099294733256,184.38909855671227 89.6620393525809,193.56173511454836 88.20256255567074,200.66310755256563 88.68905482254922,207.76445938879624 95.01345427706838,219.00822432828136 101.58109986409545,219.60000000009313 107.66225318517536,216.34523203712888 109.85146838147193,208.35623777774163 110.09471451491117,200.66310755256563 111.06769904587418,194.1535169375129 111.55419131275266,186.164450250566 106.68926865514368,177.87946466286667 98.90539240278304,176.6958930043038 93.31073134578764,181.4301762059331 91.12151614949107,189.12336687906645 89.6620393525809,197.11242390889674 88.44580868817866,204.50967568764463 88.20256255567074,211.31512758042663 98.66214626841247,219.00822432828136 104.98654572386295,218.1205605531577 109.36497611645609,212.79457114078104 110.09471451491117,203.6220066549722 110.09471451491117,197.11242390889674 111.79743744432926,190.60282385186292 109.36497611645609,179.95071368920617 101.82434599753469,176.4000000001397 95.98643880710006,179.35892843198963 92.58099294733256,184.38909855671227 89.6620393525809,193.56173511454836 88.20256255567074,200.66310755256563 88.68905482254922,207.76445938879624 95.01345427706838,219.00822432828136 101.58109986409545,219.60000000009313 107.66225318517536,216.34523203712888 109.85146838147193,208.35623777774163 110.09471451491117,200.66310755256563 111.06769904587418,194.1535169375129 111.55419131275266,186.164450250566 106.68926865514368,177.87946466286667 98.90539240278304,176.6958930043038 93.31073134578764,181.4301762059331 91.12151614949107,189.12336687906645 89.6620393525809,197.11242390889674 88.44580868817866,204.50967568764463 88.20256255567074,211.31512758042663 98.66214626841247,219.00822432828136 104.98654572386295,218.1205605531577 109.36497611645609,212.79457114078104 110.09471451491117,203.6220066549722 110.09471451491117,197.11242390889674 111.79743744432926,190.60282385186292 109.36497611645609,179.95071368920617 101.82434599753469,176.4000000001397 95.98643880710006,179.35892843198963 92.58099294733256,184.38909855671227 89.6620393525809,193.56173511454836 88.20256255567074,200.66310755256563 88.68905482254922,207.76445938879624 95.01345427706838,219.00822432828136 101.58109986409545,219.60000000009313 107.66225318517536,216.34523203712888 109.85146838147193,208.35623777774163 110.09471451491117,200.66310755256563 111.06769904587418,194.1535169375129 111.55419131275266,186.164450250566 106.68926865514368,177.87946466286667 98.90539240278304,176.6958930043038 93.31073134578764,181.4301762059331 91.12151614949107,189.12336687906645 89.6620393525809,197.11242390889674 88.44580868817866,204.50967568764463 88.20256255567074,211.31512758042663 98.66214626841247,219.00822432828136 104.98654572386295,218.1205605531577 109.36497611645609,212.79457114078104 110.09471451491117,203.6220066549722 110.09471451491117,197.11242390889674 111.79743744432926,190.60282385186292 109.36497611645609,179.95071368920617 101.82434599753469,176.4000000001397 95.98643880710006,179.35892843198963 92.58099294733256,184.38909855671227 89.6620393525809,193.56173511454836 88.20256255567074,200.66310755256563 88.68905482254922,207.76445938879624 95.01345427706838,219.00822432828136 101.58109986409545,219.60000000009313 107.66225318517536,216.34523203712888 109.85146838147193,208.35623777774163 110.09471451491117,200.66310755256563 111.06769904587418,194.1535169375129 111.55419131275266,186.164450250566 106.68926865514368,177.87946466286667 98.90539240278304,176.6958930043038 93.31073134578764,181.4301762059331 91.12151614949107,189.12336687906645 89.6620393525809,197.11242390889674 88.44580868817866,204.50967568764463 88.20256255567074,211.31512758042663 98.66214626841247,219.00822432828136 104.98654572386295,218.1205605531577 109.36497611645609,212.79457114078104 110.09471451491117,203.6220066549722 110.09471451491117,197.11242390889674 111.79743744432926,190.60282385186292 109.36497611645609,179.95071368920617 101.82434599753469,176.4000000001397 95.98643880710006,179.35892843198963 92.58099294733256,184.38909855671227 89.6620393525809,193.56173511454836 88.20256255567074,200.66310755256563 88.68905482254922,207.76445938879624 95.01345427706838,219.00822432828136 101.58109986409545,219.60000000009313 107.66225318517536,216.34523203712888 109.85146838147193,208.35623777774163 110.09471451491117,200.66310755256563 111.06769904587418,194.1535169375129 111.55419131275266,186.164450250566 106.68926865514368,177.87946466286667 98.90539240278304,176.6958930043038 93.31073134578764,181.4301762059331 91.12151614949107,189.12336687906645 89.6620393525809,197.11242390889674 88.44580868817866,204.50967568764463 88.20256255567074,211.31512758042663 98.66214626841247,219.00822432828136 104.98654572386295,218.1205605531577 109.36497611645609,212.79457114078104 110.09471451491117,203.6220066549722 110.09471451491117,197.11242390889674 111.79743744432926,190.60282385186292 109.36497611645609,179.95071368920617 101.82434599753469,176.4000000001397 95.98643880710006,179.35892843198963 92.58099294733256,184.38909855671227 89.6620393525809,193.56173511454836 88.20256255567074,200.66310755256563 88.68905482254922,207.76445938879624 95.01345427706838,219.00822432828136 101.58109986409545,219.60000000009313 107.66225318517536,216.34523203712888 109.85146838147193,208.35623777774163 110.09471451491117,200.66310755256563 111.06769904587418,194.1535169375129 111.55419131275266,186.164450250566 106.68926865514368,177.87946466286667 98.90539240278304,176.6958930043038 93.31073134578764,181.4301762059331 91.12151614949107,189.12336687906645 89.6620393525809,197.11242390889674 88.44580868817866,204.50967568764463 88.20256255567074,211.31512758042663 98.66214626841247,219.00822432828136 104.98654572386295,218.1205605531577 109.36497611645609,212.79457114078104 110.09471451491117,203.6220066549722 110.09471451491117,197.11242390889674 111.79743744432926,190.60282385186292 109.36497611645609,179.95071368920617 101.82434599753469,176.4000000001397 95.98643880710006,179.35892843198963 92.58099294733256,184.38909855671227 89.6620393525809,193.56173511454836 88.20256255567074,200.66310755256563 88.68905482254922,207.76445938879624 95.01345427706838,219.00822432828136 101.58109986409545,219.60000000009313 107.66225318517536,216.34523203712888 109.85146838147193,208.35623777774163 110.09471451491117,200.66310755256563 111.06769904587418,194.1535169375129 111.55419131275266,186.164450250566 106.68926865514368,177.87946466286667 98.90539240278304,176.6958930043038 93.31073134578764,181.4301762059331 91.12151614949107,189.12336687906645 89.6620393525809,197.11242390889674 88.44580868817866,204.50967568764463 88.20256255567074,211.31512758042663 98.66214626841247,219.00822432828136 104.98654572386295,218.1205605531577 109.36497611645609,212.79457114078104 110.09471451491117,203.6220066549722 110.09471451491117,197.11242390889674 111.79743744432926,190.60282385186292 109.36497611645609,179.95071368920617 101.82434599753469,176.4000000001397 95.98643880710006,179.35892843198963 92.58099294733256,184.38909855671227 89.6620393525809,193.56173511454836 88.20256255567074,200.66310755256563 88.68905482254922,207.76445938879624 95.01345427706838,219.00822432828136 101.58109986409545,219.60000000009313" stroke="#4DD2FF" stroke-dasharray="1,0.5" stroke-linecap="round" stroke-linejoin="round" stroke-width="0.5"><title>2013-10-19 10.2km</title><desc>9223370654714312807</desc></polyline><polyline fill="none" opacity="1" points="176.35817731916904,219.60000000009313 178.1338648572564,210.96002506790683 177.54196901246905,200.16003877436742 172.21490639075637,185.04002506705 165.70405207946897,180.00001196749508 153.8661351427436,176.39999999990687" stroke="#4DD2FF" stroke-dasharray="none" stroke-linecap="round" stroke-linejoin="round" stroke-width="0.5"><title>2013-10-12 10.6km</title><desc>9223370655320152807</desc></polyline><polyline fill="none" opacity="1" points="33.60245580319315,224.4000000001397 32.012279014103115,227.62390475836582 30.952161154709756,231.4925853246823 31.217190619558096,236.00603889254853 31.217190619558096,239.87470730068162 31.482220083475113,243.42098174453713 31.217190619558096,247.6120272797998 29.36198436655104,250.5135164859239 28.566895972006023,253.73738967813551 28.301866507157683,256.9612589732278 29.36198436655104,260.18512437236495 30.687131689861417,262.7642138849478 32.542337943799794,265.98807226959616 35.98772098496556,267.60000000009313 39.69813349284232,267.60000000009313" stroke="#4DD2FF" stroke-dasharray="none" stroke-linecap="round" stroke-linejoin="round" stroke-width="0.5"><title>2013-10-06 10.6km</title><desc>9223370655838244807</desc></polyline><polyline fill="none" opacity="1" points="107.42774715367705,264.4941443030257 108.82044974528253,262.2353375663515 109.74891814030707,258.2824205197394 109.51680104155093,255.17655243421905 110.44526943657547,251.22362344246358 110.44526943657547,247.55304053169675 110.21315233688802,243.8824518523179 109.9810352390632,239.08244256977923 110.44526943657547,235.6941947832238 111.14162073191255,234.28242342197336 110.44526943657547,231.45887813949957 108.12409844994545,228.91768446704373 105.10657616890967,226.09413269883953 103.0175222819671,225.24706650385633 99.76788290217519,225.8117773346603 96.28612642269582,225.8117773346603 94.42918963450938,226.65884332545102 93.26860414259136,229.76474933116697 91.64378445129842,232.5882966623176 91.4116673534736,235.6941947832238 90.7153160572052,239.3647963295225 90.01896476279944,243.3177453908138 89.55473056435585,245.85892339702696 88.85837926901877,248.9648038719315 88.85837926901877,252.35303240828216 87.92991087492555,255.7412560300436 87.46567667741328,258.2824205197394 87.6977937752381,261.3882844764739 88.85837926901877,263.92944282339886 91.87590155098587,266.4705984061584 95.58977512735873,267.3176496522501 99.76788290217519,267.60000000009313 103.48175647854805,267.03529927134514 106.03504456300288,265.0588456459809 108.82044974528253,262.80003945482895 109.9810352390632,258.56477195979096 110.44526943657547,255.7412560300436 110.90950363315642,252.63538456498645 111.14162073191255,249.81186146731488 111.6058549284935,245.85892339702696 111.83797202818096,243.60009863856249 112.07008912600577,240.4942110304255 112.3022062247619,237.6706732562743 112.53432332258672,234.56477776309475 111.83797202818096,231.7412328212522 110.67738653440028,229.20003945659846 108.35621554870158,226.65884332545102 105.80292746517807,225.24706650385633 103.0175222819671,224.39999999990687 100.6963512962684,224.9647110356018 96.75036062020808,225.52942193625495 93.96495543792844,227.2235538160894 92.57225284632295,230.89416867331602 90.94743315596133,235.41184057947248 90.01896476279944,238.23538108426146 89.78684766311198,240.4942110304255 89.55473056435585,243.60009863856249 89.78684766311198,246.70598211791366 90.01896476279944,250.09421393065713 89.78684766311198,253.2000887740869 89.55473056435585,256.58831116743386 90.01896476279944,259.97652864456177 91.4116673534736,263.0823903486598 93.96495543792844,264.7764949919656 96.75036062020808,267.60000000009313 100.6963512962684,267.60000000009313 103.0175222819671,267.3176496522501 106.49927876051515,265.6235468524974 108.58833264745772,263.64709203201346 109.74891814030707,260.2588798790239 110.21315233688802,257.4353659977205 111.14162073191255,254.3294967841357 111.14162073191255,250.94127111602575" stroke="#4DD2FF" stroke-dasharray="none" stroke-linecap="round" stroke-linejoin="round" stroke-width="0.5"><title>2013-09-29 10.5km</title><desc>9223370656443428807</desc></polyline><polyline fill="none" opacity="1" points="167.5935732545331,266.21539725200273 171.69133304990828,265.1077144506853 174.6508262353018,262.3385051046498 176.69970613345504,258.1846848104615 177.38266609888524,253.75393486139365 175.78909284621477,250.98471179115586 174.19551959168166,249.6000990010798 176.01674616802484,245.1693324483931 177.61031942162663,239.9077860370744 178.06562606524676,237.96931852330454 177.38266609888524,234.92315197433345 178.5209327088669,231.04620687034912 175.78909284621477,228.27695635100827 173.0572529817,225.23077691276558 171.23602640628815,224.67692567128688 165.77234667818993,225.23077691276558 164.17877342551947,225.50770248495974 161.21928023919463,228.00003111502156 158.71509369742125,230.21543206623755 158.03213373105973,232.7077555754222 157.57682708837092,236.3077736343257 156.43856047838926,241.0154810224194 156.8938671220094,244.33856276632287 157.12152044381946,246.55394791672006 156.43856047838926,250.98471179115586 156.8938671220094,254.30777907301672 155.52794719021767,258.46160639752634 156.21090715564787,261.7846628346015 156.43856047838926,263.7231101964135 160.30866695195436,265.1077144506853 163.95112010277808,267.60000000009313 166.2276533227414,267.04615900083445 169.1871465081349,266.21539725200273 172.14663969445974,265.1077144506853 175.10613287985325,261.7846628346015 175.33378620166332,259.56929241190664 176.01674616802484,256.8000763715245 176.9273594552651,254.03085698350333 178.06562606524676,250.98471179115586 177.1550127780065,247.3847167957574 176.01674616802484,243.5077927815728 176.24439948890358,240.4616335972678 176.69970613345504,237.1385462298058 177.83797274436802,236.3077736343257 178.74858603067696,232.7077555754222 177.38266609888524,229.93850706424564 178.5209327088669,230.21543206623755 178.06562606524676,227.44618054293096 174.87847955711186,226.0615535255056 171.4636797280982,224.95385130890645 168.27653322089463,224.39999999990687 164.17877342551947,225.50770248495974 160.99162691738456,228.00003111502156 158.25978705380112,229.93850706424564 158.03213373105973,233.26160487625748 155.75560051295906,237.1385462298058 154.38968058023602,241.56932831485756 155.9832538338378,241.56932831485756 156.666213799268,243.23086938727647 156.21090715564787,246.83087090961635 155.52794719021767,250.98471179115586 153.25141397025436,253.20009051519446 155.3002938684076,256.2462327624671 155.52794719021767,258.7385279517621 157.12152044381946,263.1692682595458 159.1704003419727,265.6615559181664 161.90224020462483,266.4923178681638 165.77234667818993,266.4923178681638" stroke="#4DD2FF" stroke-dasharray="none" stroke-linecap="round" stroke-linejoin="round" stroke-width="0.5"><title>2013-09-22 10.9km</title><desc>9223370657048162807</desc></polyline></svg>