<?xml version="1.0" encoding="utf-8" ?>
<svg baseProfile="full" height="300mm" version="1.1" viewBox="0,0,200,300" width="200mm" xmlns="http://www.w3.org/2000/svg" xmlns:ev="http://www.w3.org/2001/xml-events" xmlns:xlink="http://www.w3.org/1999/xlink"><defs /><rect fill="#222222" height="300" width="200" x="0" y="0" /><text fill="#FFFFFF" style="font-size:12px; font-family:Arial; font-weight:bold;" x="10" y="20">Over 10km Runs</text><text fill="#FFFFFF" style="font-size:4px; font-family:Arial" x="10" y="280">Runner</text><text fill="#FFFFFF" style="font-size:9px; font-family:Arial" x="10" y="290">keep</text><text fill="#FFFFFF" style="font-size:4px; font-family:Arial" x="65" y="280">SPECIAL TRACKS</text><rect fill="yellow" height="2.6" width="2.6" x="65" y="283" /><text fill="#FFFFFF" style="font-size:3px; font-family:Arial" x="70" y="285.5">Over 20.0 km</text><rect fill="red" height="2.6" width="2.6" x="65" y="287" /><text fill="#FFFFFF" style="font-size:3px; font-family:Arial" x="70" y="289.5">Over 40.0 km</text><text fill="#FFFFFF" style="font-size:4px; font-family:Arial" x="120" y="280">STATISTICS</text><text fill="#FFFFFF" style="font-size:3px; font-family:Arial" x="120" y="285">Number: 15</text><text fill="#FFFFFF" style="font-size:3px; font-family:Arial" x="120" y="290">Weekly: 1.2</text><text fill="#FFFFFF" style="font-size:3px; font-family:Arial" x="141" y="285">Total: 163.6 km</text><text fill="#FFFFFF" style="font-size:3px; font-family:Arial" x="141" y="290">Avg: 10.9 km</text><text fill="#FFFFFF" style="font-size:3px; font-family:Arial" x="167" y="285">Min: 10.2 km</text><text fill="#FFFFFF" style="font-size:3px; font-family:Arial" x="167" y="290">Max: 14.0 km</text><polyline fill="none" opacity="1" points="26.911947131651687,75.59999999999854 26.851623277412727,75.43731077289704 26.75682864940609,75.26377523851988 26.670651714870473,75.07939332749811 26.610327860631514,74.82993478240678 26.593092473747674,74.53709116605023 26.653416327899322,74.16832363044523 26.670651714870473,73.88632379831688 26.653416327899322,73.57178437029506 26.644798634486506,73.26808997493936 26.653416327899322,72.98608702079218 26.670651714870473,72.61731245116243 26.67926940828329,72.3461536124305 26.73097556902212,72.07499386936979 26.911947131651687,71.9339904456283 27.187713322258787,71.91229758950794 27.29112564373645,71.82552610714629 27.316978724091314,71.65198286461964 27.34283180447528,71.43505329058098 27.36006719141733,71.15304397908767 27.299743337207474,70.81680082937964 27.032594840042293,70.67579522377491 26.89471174470964,70.4371697956085 26.963653292390518,70.0358436326569 26.998124066216405,69.7538294681799 27.058447920397157,69.4067337691231 27.092918694281252,69.0921770119603 27.144624854932772,68.7776190378645 27.161860241903923,68.50644739378913 27.21356640261365,68.35459087806521 27.29112564373645,68.20273407870991 27.28250795029453,68.02918310357927 27.273890256823506,67.9641013923756 27.334214111004258,67.75800896326837 27.394537965214113,67.51937497168547 27.463479512894992,67.23735207856953 27.54103875401779,66.94448111569363 27.62721568858251,66.59737342321023 27.696157236234285,66.33704168131226 27.81680494462489,66.07670910586603 27.98915881375433,66.09840351897583 28.17874806979671,66.18518111357844 28.411425793165108,66.07670910586603 28.65272120994632,65.90315359240776 28.73889814451104,65.64281962761015 28.894016626727534,65.34994292074407 29.04051741550211,65.04621781407332 29.204253591189627,64.76418634184665 29.35937207340612,64.49300131132622 29.51449055565172,64.22181537620054 29.669609037868213,63.90723855816759 29.824727520084707,63.61435559887468 30.031552163040033,63.234690933102684 30.246994499495486,62.86587213140592 30.46243683589273,62.46450859307515 30.63479070502217,62.18246816442843 30.82437996112276,61.867883455051924 31.005351523694117,61.58584095651895 31.134616925555747,61.39058019200456 31.30697079471429,61.11938390768046 31.505177744227694,60.80479508443386 31.634443146089325,60.49020504377404 31.75509085447993,60.21900575571635 31.918827030138345,59.90441344814462 32.15150475347764,59.64406027287623 32.40141786370077,59.470491026128 32.599624813272385,59.19928833612357 32.74612560198875,58.94978106223425 32.85815561696654,58.85214757268113 32.961567938444205,58.63518384271447 33.06498025992187,58.396523070929106 33.12530411413172,58.222951160416414 33.32351106364513,58.13616506617109 33.48724723930354,58.12531679785752 33.59065956081031,58.06022715771542 33.711307269200915,57.91919942520326 33.86642575144651,57.74562649546715 34.056015007488895,57.50696311192587 34.2542219570023,57.25745064354123 34.32316350462497,57.0730278920164 34.28007503732806,56.76927185978275 34.29731042427011,56.465514692419674 34.44381121301558,56.24854459219205 34.633400469087064,56.031573912812746 34.805754338245606,55.803754076165205 34.92640204663621,55.45659881152096 35.07290283543989,55.19623139005125 35.34005133257597,54.914165742273326 35.58134674935718,54.675494045048254 35.70199445774779,54.44767040753504 35.83125985963852,54.13305576312996 35.96914295491297,53.81843990088237 36.201820678281365,53.60146273464488 36.49482225583051,53.56891610976163 36.65855843148893,53.33024046236096 36.761970752995694,53.026470442877326 36.830912300618365,52.744397265407315 36.89123615482822,52.451474083412904 36.9601777025091,52.09345542738447 37.05497233051574,51.75713343512325 37.115296184667386,51.550999913299165 37.14976695852238,51.355715041914664 37.21009081273223,51.04108842893038 37.27903236041311,50.70476208192849 37.36520929494873,50.33588642367249 37.46862161642639,49.945310372488166 37.520327777194325,49.587280676663795 37.597887018317124,49.25094831355818 37.68406395288184,48.93631355254183 37.77024088744656,48.55658032223437 37.8219470482145,48.20939410189021 37.89088859583717,47.84050711765303 37.97706553040189,47.482468149355554 38.046007078082766,47.135277340399625 38.11494862573454,46.84233394160401 38.19250786682824,46.48429057573958 38.23559633412515,46.191344830389426 38.32177326868987,45.92009782832611 38.34762634904473,45.80074886060174 38.39071481634164,45.54035050442326 38.45965636402252,45.19315139829996 38.52859791164519,44.82425072268961 38.614774846239015,44.487898647232214 38.67509870041977,44.15154517954943 38.68371639386169,44.08644434759481 38.718187167687574,43.84774085089157 38.77851102192653,43.522234952659346 38.85607026304933,43.15332669181953 38.92501181070111,42.81696770025883 38.985335664852755,42.54570943487488 39.045659519091714,42.36125329718925 39.08874798635952,42.20934792825574 39.12321876021451,42.089993510599015 39.174924920953345,41.95978849138919 39.12321876021451,41.78618147457746 39.14045414709835,41.51491976829129 39.174924920953345,41.254507678320806 39.25248416204704,41.015795862731466 39.29557262931485,40.85303740456584 39.5110149657412,40.874738551152404 39.804016543290345,40.983244197159365 40.08840042736847,41.080899154709186 40.32107815070776,41.146002394547395 40.39863739183056,40.92899139229121 40.42449047221453,40.72283040333423 40.40725508527248,40.440714518219465 40.4158727787144,40.082642945839325 40.44172585909837,39.68116688221926 40.50204971333733,39.366495067348296 40.45896124598221,39.11692689937627 40.31246045726584,38.997567939411965 40.01945887968759,39.05182203382719 39.709221915283706,39.11692689937627 39.58857420683489,39.03012040041358 39.63166267416091,38.704595203336794 39.70060422178358,38.38991960652493 39.76092807602254,38.08609373602667 39.83848731711623,37.728011787279684 39.92466425168095,37.36992826050118 39.96775271894876,37.066098575945944 40.01945887968759,36.7622677552863 40.05392965354258,36.480138118815375 40.08840042736847,36.252263466441946 40.036694266600534,36.12204909247521 40.140106588136405,36.024388175028434 40.32969584417879,35.91587590688141 40.4158727787144,35.77480974159698 40.26937198996893,35.66629714010196 40.25213660305599,35.51437925455684 40.26937198996893,35.351609776276746 40.39863739183056,35.340758466110856 40.5709912609891,35.373312392199296 40.74334513011854,35.351609776276746 40.86399283850915,35.38416369797778 41.02772901416756,35.3299071545116 41.21731827023905,35.29735321102635 41.251789044064935,35.069475241412874 41.29487751136185,34.63542019783927 41.33796597865876,34.24476867596968 41.37243675245554,33.962630297573924 41.37243675245554,33.713045530734234 41.38967213933938,33.53942089295015 41.41552521975245,33.344092731895216 41.29487751136185,33.23557688394067 41.09667056184844,33.21387369696458 40.907081305776956,33.18131890562654 40.726109743176494,33.08365445333038 40.48481432636618,33.05109960980917 40.200430442317156,32.98598988362937 39.864340397471096,32.931731738644885 39.59719190033502,32.85577027475665 39.25248416204704,32.79066039202735 38.92501181070111,32.70384713391104 38.718187167687574,32.5627753916051 38.54583329855814,32.584478752556606 38.25283172100899,32.5627753916051 37.933977063104976,32.55192370899749 37.658210872497875,32.5302203394167 37.33073852112284,32.508516963978764 37.03773694357369,32.45425850013271 36.73611767261173,32.443406802995014 36.4517337885336,32.421703404397704 36.44311609506258,32.4325551044094 36.38279224085272,32.617033783040824 36.31385069320095,32.81236369207181 36.27076222593314,33.01854475323489 36.24490914554917,33.24642847527139 36.21905606519431,33.44175687112147 36.16734990442637,33.647936335044506 36.081172969861655,33.810709226469044 35.977760648413096,33.98433328454121 35.91743679417414,34.168808439717395 35.86573063346441,34.320728841215896 35.77955369889969,34.516054654319305 35.70199445774779,34.67882580654987 35.61581752318307,34.87415075874014 35.52964058861835,35.058623893593904 35.42622826711158,35.14543463563314 35.34866902604699,35.4384202052679 35.245256704540225,35.73140471838997 35.1159913027077,36.01353695472062 34.969490513933124,36.34992411002895 34.814372031687526,36.66460760735208 34.676488936383976,36.968438793228415 34.547223534522345,37.23971567762783 34.409340439218795,37.532693695568014 34.262839650473325,37.83652163535589 34.10772116822773,38.12949750137341 33.987073459808016,38.40077050944819 33.9008965252433,38.58523563764902 33.840572671062546,38.68289347715472 33.77163112341077,38.75884949340252 33.68545418881695,38.921612146281404 33.66821880193311,39.19288250988757 33.521718013158534,39.475002727376705 33.383834917796776,39.71371906937566 33.29765798326116,39.93073331719643 33.29765798326116,40.050090906457626 33.495864932774566,40.11519497216068 33.806101897207554,40.11519497216068 34.133574248611694,40.158597653658944 34.435193519544555,40.202000311961456 34.77128356441972,40.245402947082766 35.10737360920757,40.2888055590156 35.40037518675672,40.34305879131716 35.69337676430587,40.37561071334494 35.86573063346441,40.353909433455556 35.943289874558104,40.14774698544352 35.994996035296936,39.94158401439199 35.977760648413096,39.80052483810141 36.081172969861655,39.82222626575094 36.1759675979265,39.963285404402995 36.16734990442637,40.25625360223057 36.089790663303575,40.62517501549155 36.0208491156809,40.983244197159365 35.95190756802913,41.330461290766834 35.89158371379017,41.68852736462577 35.805406779254554,42.057442275348876 35.745082925015595,42.372103669840726 35.69337676430587,42.643362514725595 35.61581752318307,42.93632105017605 35.65890599047998,43.26182929534116 35.50378750823438,43.54393538644217 35.37452210637275,43.81519031972857 35.296962865279056,44.08644434759481 35.22802131762728,44.39024778388557 35.21940362415626,44.639799756936554 35.314198252221104,44.84595080878353 35.37452210637275,45.106351389978954 35.288345171837136,45.45355086694326 35.21940362415626,45.8441485055082 35.13322668959154,46.22389440982806 35.07290283543989,46.59278873196308 35.02981436808477,46.95083161983348 35.021196674671955,47.27632378543058 35.01257898120093,47.60181464739435 35.021196674671955,47.93815383526089 34.99534359431709,48.29619079603435 34.986725900816964,48.62167757340649 34.9608728204621,48.96886203256145 34.943637433549156,49.27264721765823 34.891931272810325,49.59813008454512 34.840225112071494,49.945310372488166 34.75404817747767,50.28163986214349 34.78851895130356,50.58542014039995 34.7626658709778,50.93259621100151 34.70234201673884,51.26892161517026 34.55584122799337,51.61609476612648 34.38348735886393,51.854775447180145 34.133574248611694,52.08260635256738 33.87504344488843,52.288738526149245 33.65960110843298,52.49487017698266 33.40968799820985,52.71185029731714 33.28904028979014,52.89628294414433 33.185627968312474,53.03731939171121 33.05636256647995,53.2000534501567 32.94433255150216,53.395333890235634 32.85815561696654,53.69910253115813 32.703037134720944,54.024567672327976 32.530683265591506,54.339182736679504 32.358329396432964,54.64294785022503 32.246299381542485,54.87077094037522 32.23768168804236,55.141988072275126 32.358329396432964,55.28302062323928 32.40141786370077,55.53253915236564 32.280770155310165,55.803754076165205 32.31524092916516,55.944785478917765 32.263534768426325,55.857996952327085 32.12565167309367,55.999028260979685 31.918827030138345,56.30278717157489 31.72923777406686,56.563151048569125 31.505177744227694,56.79096875687537 31.332823875069153,57.06217948185804 31.263882327388274,57.311692549636064 31.117381538671907,57.58290153723647 31.005351523694117,57.71308152987331 30.772673800354823,57.69138487892633 30.53999607701553,57.69138487892633 30.255612192937406,57.62629489128449 29.953992921946337,57.62629489128449 29.669609037868213,57.637143226173066 29.51449055565172,57.65883989163558 29.402460540703032,57.65883989163558 29.34213668652228,57.82156469783513 29.204253591189627,58.038530599398655 29.135312043508748,58.277192422268854 29.09222357624094,58.53754997532815 28.945722787466366,58.7870585145065 28.919869707111502,58.906388414681714 28.816457385604735,59.014869990132865 28.583779662294546,59.231832706718706 28.385572712752037,59.437946751117124 28.368337325868197,59.63321220578655 28.445896566990996,59.77423696471669 28.514838114613667,59.893565415804915 28.549308888439555,60.12137379057094 28.59239735576557,60.360029498413496 28.583779662294546,60.360029498413496 28.411425793165108,60.294941647582164 28.230454230535543,60.55529273828142 28.08395344176097,60.82649090443738 27.920217266102554,61.0326009056007 27.765098783856956,61.3146453235895 27.653068768966477,61.58584095651895" stroke="#4DD2FF" stroke-dasharray="none" stroke-linecap="round" stroke-linejoin="round" stroke-width="0.5"><title>2017-12-17 14.0km</title><desc>9223370523376934807</desc></polyline><polyline fill="none" opacity="1" points="100.43166259559803,32.40000000000873 100.59104570781346,32.65071992430603 100.65745533787413,32.91815395752201 100.67073726392118,33.23573113087332 100.68401918991003,33.570022023137426 100.67073726392118,33.83745409503172 100.65745533787413,34.18845782360586 100.61760955984937,34.52274617513467 100.52463607763639,34.77346185372153 100.67073726392118,34.97403403559292 100.65745533787413,35.6927483852196 100.71058304200415,35.99360433132097 100.83012037613662,36.2443170681363 100.88324808020843,36.578599937289255 100.93637578428024,36.89616783733072 100.9496577102691,37.26387703232467 100.96293963631615,37.648299128355575 101.02934926637681,37.932436441697064 101.09575889643747,38.23328701267019 101.17545045254519,38.517423000070266 101.2020143046393,38.83498598856386 101.24186008272227,39.152548172613024 101.3481154908659,39.31968584108108 101.58719015907263,39.41996833526355 101.6270359371556,39.553678202675655 101.49421667703427,39.720815336404485 101.33483356481884,39.80438381967542 101.4012431949377,40.088516246149084 101.50749860302312,40.33922079351032 101.64031786320265,40.673492743546376 101.73329134535743,40.95762320025824 101.826264827454,41.258466511324514 101.97236601362238,41.559309100412065 102.13174912589602,41.84343754949805 102.26456838607555,42.11085197214561 102.11846719984896,42.34483912403812 101.8528286794899,42.29469905683072 101.6535997891915,42.1442787348642 101.41452512092656,41.96043142960116 101.21529623062816,41.99385823242483 100.97622156224679,42.04399841999111 100.73714689398184,42.07742520055035 100.67073726392118,42.27798569665174 100.68401918991003,42.52868586560362 100.57776378176641,42.69581903307699 100.31212526140735,42.79609882658406 100.01992288907059,42.89637853988097 99.72772051661741,42.9298050931684 99.58161933044903,42.79609882658406 99.63474703452084,42.5621125169273 99.72772051661741,42.24455896958534 99.82069399877219,41.96043142960116 99.88710362883285,41.609449461771874 99.95351325895172,41.22503951237013 99.91366748086875,40.857341936120065 99.873821702844,40.53978407049726 99.78084822068922,40.25565266680496 99.4753639222472,40.25565266680496 99.2230073279934,40.17208448435122 99.14331577182747,40.021661615523044 99.13003384578042,39.821097509615356 99.13003384578042,39.60381936618069 99.03706036374206,39.45339581546432 98.86439532547956,39.45339581546432 98.67844836117001,39.41996833526355 98.54562910104869,39.47010955227597 98.5721929530846,39.754242736365995 98.58547487907344,40.03837527651922 98.5987568051205,40.37264802867139 98.61203873110935,40.623352007882204 98.63860258314526,40.97433673645719 98.62532065715641,41.308606992970454 98.62532065715641,41.609449461771874 98.62532065715641,41.92700461787172 98.63860258314526,42.227845602683374 98.63860258314526,42.51197253660939 98.63860258314526,42.84623869328061 98.65188450919231,43.080224472651025 98.65188450919231,43.28078336454928 98.65188450919231,43.498055135365576 98.62532065715641,43.765466028649826 98.61203873110935,44.01616322310292 98.58547487907344,44.14986818852776 98.55891102703754,44.400564614334144 98.53234717500163,44.634547492765705 98.53234717500163,44.83510389813455 98.53234717500163,45.10251193957811 98.53234717500163,45.38663235869899 98.54562910104869,45.72089085094922 98.51906524901278,46.055148452025605 98.53234717500163,46.37269234760606 98.53234717500163,46.656809888227144 98.54562910104869,46.94092678499874 98.55891102703754,47.275181133372826 98.55891102703754,47.559296628896846 98.55891102703754,47.84341148051317 98.54562910104869,48.06067534441536 98.54562910104869,48.31136395032809 98.49250139697688,48.56205205494189 98.54562910104869,48.81273965835862 98.5721929530846,49.080139216181124 98.61203873110935,49.36425062152557 98.65188450919231,49.66507376074151 98.69173028721707,50.016033177569625 98.78470376931364,50.383703893996426 98.86439532547956,50.75137353212631 98.98393265961204,51.03548115050944 99.07690614176681,51.302875967885484 99.18316154991044,51.62040657293983 99.28941695805406,51.871088061481714 99.39567236619769,52.05492083459103 99.43551814422244,52.222041303510196 99.58161933044903,52.472721589234425 99.6480289605679,52.72340137379069 99.6745928125456,52.857097053929465 99.74100244260626,53.04092838137876 99.91366748086875,53.15791181306122 99.98007711098762,53.30831892200513 100.11289637116715,53.49214958792436 100.23243370529963,53.6592681412003 100.3254071874544,53.8932337416627 100.45822644757573,54.043639968542266 100.65745533787413,54.26089308888186 100.83012037613662,54.49485756670765 101.01606734038796,54.74553330850904 101.17545045254519,54.996208549142466 101.26842393475818,55.14661345303466 101.3481154908659,55.33044142379367 101.50749860302312,55.5811154951225 101.66688171523856,55.798365951588494 101.86611060553696,56.09917365449655 102.0254937177524,56.38326915571815 102.17159490392078,56.60051822240348 102.31769609008916,56.867901172314305 102.46379727631574,57.11857217007491 102.64974424056709,57.41937670590414 102.80912735278253,57.70346921606688 103.00835624308093,57.987561082540196 103.18102128134342,58.25494107481791 103.3536863195477,58.53903169189289 103.5529152097879,58.85654397289909 103.73886217403924,59.15734433956095 103.92480913834879,59.441432912266464 104.09747417649487,59.72552084126801 104.2302934366744,59.992897127754986 104.38967654888984,60.22685091078165 104.52249580912758,60.42738237735466 104.6818789212848,60.69475716733723 104.8545439595473,60.978842256983626 104.97408129373798,61.16266167796857 105.16002825798932,61.41332409043389 105.34597522218246,61.68069677821768 105.5053583344561,61.94806889584288 105.63817759463564,62.19872973840393 105.81084263283992,62.49952208815375 105.98350767110242,62.817024341246 106.18273656134261,63.151236370787956 106.31555582152214,63.35176316095749 106.52806663780939,63.70268427221163 106.71401360206073,63.97005207877373 106.87339671433438,64.22070887978771 107.01949790050276,64.4880755819031 107.2054448647541,64.77215207839618 107.39139182894723,65.07293825552915 107.56405686720973,65.39043399320508 107.71015805343632,65.67450844563427 107.84297731355764,65.9752924585191 108.00236042583128,66.29278591174807 108.12189775996376,66.59356844176364 108.21487124206033,66.94448048163031 108.25471702014329,67.12829115831119 108.20158931612968,67.2953915396356 108.1086158339167,67.42907168444071 108.13517968601082,67.37894164682075 108.26799894619035,67.34552161066676 108.38753628032282,67.51262170255359 108.4805097624776,67.76327142295486 108.57348324451596,68.03063057256804 108.67973865271779,68.34811882242502 108.81255791283911,68.68231611186638 108.91881332104094,69.01651251073054 109.02506872918457,69.3172885082895 109.09147835924523,69.55122489656787 109.22429761942476,69.83528992424544 109.33055302762659,70.11935430853919 109.43680843571201,70.38670843541331 109.54306384385563,70.65406199236168 109.5829096219386,70.85457678604871 109.64931925205747,71.1386388616811 109.75557466020109,71.42270029395877 109.86183006834472,71.72347052094119 109.95480355038308,72.00753062858712 110.04777703259606,72.29159009286377 110.15403244068148,72.59235823609924 110.24700592289446,72.84299780458969 110.36654325702693,73.14376462549262 110.47279866511235,73.41111230531533 110.57905407331418,73.69516859063879 110.69859140750486,74.01264250122767 110.80484681559028,74.26327923133795 110.92438414978096,74.5473335867282 110.97751185379457,74.73113312092028 111.09704918798525,74.96505941124633 111.19002267008182,75.09873138128023 111.22986844822299,75.2491121772182 111.19002267008182,75.46632856421638 111.05720340990229,75.60000000000582 110.89782029774506,75.41620173910633 110.73843718547141,75.19898526530596 110.55249022122007,74.9149323857855 110.32669747900218,74.6475879115169 110.04777703259606,74.33011560815794 109.76885658618994,74.07947901157604 109.52978191792499,73.8455510694912 109.29070724954363,73.5949135045521 109.06491450726753,73.34427543879428 108.85240369098028,73.12705537660804 108.57348324451596,72.85970709130925 108.32112665020395,72.62577687419252 108.06877005589195,72.35842752033204 107.81641346157994,72.12449636826932 107.57733879319858,71.87385536395595 107.27185449481476,71.62321385875111 107.0327798264916,71.43940976989688 106.7538593801437,71.30573389973142 106.40852930367691,71.17205788711726 106.06319922715193,71.10521982735372 105.74443300277926,71.07180078410602 105.41238485230133,70.98825313708221 105.13346440589521,70.92141497936973 104.80141625547549,70.85457678604871 104.48265003104461,70.78773855711916 104.1771657326608,70.77102899434976 103.83183565613581,70.67077157075983 103.51306943176314,70.5872236565483 103.36696824547835,70.55380447531934 103.18102128134342,70.50367568670481 102.98179239104502,70.47025648316776 102.76928157469956,70.4368372707977 102.58333461050643,70.42012766120024 102.39738764625508,70.4034180493909 102.22472260799259,70.35328920072061 101.99892986571649,70.28645070460334 101.77313712332398,70.2363218091632 101.61375401122496,70.16948325073463 101.37467934284359,70.11935430853919 101.12232274853159,70.00238669881946 100.77699267206481,69.86870929696306 100.41838066955097,69.7350317526143 100.17930600122781,69.66819292707078 99.82069399877219,69.56793462186761 99.51520970033016,69.4676762365707 99.18316154991044,69.36741777107818 98.8245495473966,69.26715922543372 98.46593754494097,69.20032015048491 98.16045324649895,69.0666418937326 97.82840509607922,68.99980271192908 97.46979309356539,68.86612424146733 97.16430879512336,68.74915546285047 96.97836183093023,68.66560626853607 96.65959560655756,68.56534716187161 96.36739323404618,68.46508797504066 96.0486270096153,68.31469904449477 95.71657885919558,68.13089010672411 95.41109456086997,67.93037095823092 95.10561026236974,67.71314151893603 94.85325366799952,67.41236167414172 94.66730670380639,67.12829115831119 94.54776936961571,66.86093008502212 94.4946416656021,66.67711901654548 94.33525855332846,66.45988740641042 94.20243929314893,66.20923508092528 94.09618388506351,66.05884344517835 93.96336462488398,65.7747698634339 93.80398151261033,65.45727509877179 93.6180345484172,65.12306921496929 93.45865143614355,64.738731347461 93.25942254584515,64.35439230209158 93.07347558159381,63.93663113414368 92.90081054344773,63.63584223148064 92.74142743117409,63.318342051512445 92.58204431895865,62.950709259923315 92.40937928075437,62.56636473455001 92.22343231644481,62.16530832169519 92.03748535230989,61.780961389114964 91.82497453590622,61.37990246436675 91.66559142374899,61.028974853106774 91.45308060746174,60.6446244376275 91.28041556925746,60.260272844156134 91.12103245704202,59.875920072576264 90.93508549279068,59.49156612296065 90.7889843066223,59.17405544988287 90.6428831203375,58.85654397289909 90.51006386015797,58.63929881485819 90.40380845207255,58.3217859838187 90.28427111788187,57.95413854341314 90.16473378369119,57.56977870321134 90.08504222758347,57.18541768481373 90.03191452351166,56.88461258778989 89.97878681943985,56.53367239580257 89.92565911536803,56.115885172373964 89.88581333734328,55.6980965568946 89.85924948530737,55.36386466224212 89.81940370722441,55.0296318767505 89.73971215111669,54.66197478357935 89.7662760031526,54.32774012704613 89.73971215111669,53.94336917063629 89.72643022518605,53.60913259861991 89.75299407716375,53.258183239086065 89.7662760031526,52.90723289725429 89.75299407716375,52.506145589475636 89.68658444704488,52.15519314269477 89.62017481698422,51.80423971355776 89.58032903890125,51.3864367314236 89.5670471129124,51.05219334330468 89.55376518686535,50.6678123454185 89.5139194088406,50.40041617359384 89.44750977872172,50.08288247893506 89.42094592674403,49.66507376074151 89.52720133488765,49.247263650249806 89.55376518686535,48.91301455938083 89.55376518686535,48.61218961577106 89.5670471129124,48.39492670755135 89.60689289099537,48.244513704412384 89.55376518686535,47.97711236438772 89.5139194088406,47.692997815742274 89.48735555680469,47.37545726414828 89.46079170476878,47.04120318310743 89.43422785273287,46.69023543893127 89.40766400069697,46.40611797403835 89.32797244458925,46.0050098686479 89.30140859255334,45.62061339682259 89.28812666650629,45.219502778345486 89.24828088842332,44.868529934523394 89.20843511039857,44.56769528632867 89.16858933237381,44.250146818958456 89.15530740638496,44.049589477843256 89.16858933237381,43.6986133588216 89.16858933237381,43.347636257181875 89.15530740638496,43.013371437366004 89.12874355429085,42.7292456398136 89.07561585027725,42.3782658244163 89.03577007219428,42.04399841999111 89.04905199818313,41.693016686083865 89.07561585027725,41.39217441782239 89.04905199818313,41.007763802219415 88.98264236806426,40.70691988953331 88.96936044207541,40.30579354953079 88.94279659009771,39.98823428677861 88.98264236806426,39.83781119735795 88.98264236806426,39.653960509589524 88.95607851608656,39.36982709822769 88.94279659009771,39.11912061217299 88.90295081195654,38.80155834344623 88.83654118189588,38.517423000070266 88.79669540387113,38.11628965419368 88.78341347782407,37.78201088546484 88.78341347782407,37.41430321028747" stroke="#4DD2FF" stroke-dasharray="none" stroke-linecap="round" stroke-linejoin="round" stroke-width="0.5"><title>2017-11-19 11.8km</title><desc>9223370525802103807</desc></polyline><polyline fill="none" opacity="0.5" points="185.255359566072,68.17811800987693 184.4933514248114,67.96962096903007 183.49687924026512,68.10861900402233 182.55902306665666,68.10861900402233 181.62116689281538,68.17811800987693 180.56607869756408,68.10861900402233 179.8040705563035,67.96962096903007 178.9834464045707,67.96962096903007 178.22143826354295,67.96962096903007 177.3421981006395,67.76112385862507 176.52157394844107,66.99663385830354 175.5837177745998,66.92713472119067 174.82170963380486,66.85763557621976 173.88385345996358,66.57963891886175 173.1218453189358,66.7186372630531 172.3012211669702,66.64913809474092 171.36336499336176,66.7186372630531 170.54274084139615,66.51013973512454 169.6635006784927,66.64913809474092 168.72564450465143,66.78813642339082 167.72917232010514,66.44064054382034 166.90854816813953,66.30164213792887 166.20515603781678,66.16264370107092 165.384531886084,66.16264370107092 164.62252374505624,65.88464673480485 163.7432835821528,65.88464673480485 162.9226594301872,65.74564820510568 162.21926729986444,65.95414598792559 160.98833107203245,65.39815174596151 159.99185888725333,65.25915310822893 159.05400271364488,65.18965377786662 157.99891451839358,65.25915310822893 157.58860244229436,65.32865243108245 156.47489823610522,65.60664964455646 155.0681139754597,64.98115574021358 154.07164179091342,64.14716289372882 153.19240162800997,64.35566120949807 152.19592944346368,64.00816397793824 151.3166892810259,63.869165030890144 150.61329715070315,64.00816397793824 149.9099050203804,63.7996655459865 149.20651289005764,63.52166752866469 148.3272727271542,63.59116704465123 147.56526458612643,63.938664508285 146.27571234712377,63.52166752866469 145.57232021703385,63.1046702710446 145.22062415187247,62.34017457580194 144.75169606506824,61.575677945744246 144.6930800541304,60.463681178574916 144.81031207600608,59.49068238417385 144.81031207600608,58.378681907604914 144.6930800541304,57.40567986789392 144.6930800541304,56.0851746769622 144.51723202154972,55.39017082436476 144.39999999990687,54.34766359644709 144.6344640434254,53.37465528177563 144.6344640434254,52.540646949375514 144.8689280867111,51.845639155537356 144.6930800541304,50.942127868242096 144.98616010835394,49.96911425224971 144.92754409764893,48.92659798276145 145.10339213022962,48.30108738626586 145.16200814116746,47.05006431584479 145.10339213022962,45.93804170633666 145.16200814116746,44.9650203002966 145.22062415187247,44.20050241862191 145.39647218445316,43.296980080136564 145.57232021703385,42.32395456265658 145.39647218445316,41.3509275301476 145.39647218445316,40.65590729378164 145.27924016257748,39.821881990123075 145.39647218445316,40.65590729378164 145.39647218445316,41.3509275301476 145.57232021703385,42.32395456265658 145.39647218445316,43.296980080136564 145.22062415187247,44.20050241862191 145.16200814116746,44.9650203002966 145.10339213022962,45.93804170633666 145.16200814116746,47.05006431584479 145.10339213022962,48.30108738626586 144.92754409764893,48.92659798276145 144.98616010835394,49.96911425224971 144.6930800541304,50.942127868242096 144.8689280867111,51.845639155537356 144.6344640434254,52.540646949375514 144.6344640434254,53.37465528177563 144.39999999990687,54.34766359644709 144.51723202154972,55.39017082436476 144.6930800541304,56.0851746769622 144.6930800541304,57.40567986789392 144.81031207600608,58.378681907604914 144.81031207600608,59.49068238417385 144.6930800541304,60.463681178574916 144.75169606506824,61.575677945744246 145.22062415187247,62.34017457580194 145.57232021703385,63.1046702710446 146.27571234712377,63.52166752866469 147.56526458612643,63.938664508285 148.3272727271542,63.59116704465123 149.20651289005764,63.52166752866469 149.9099050203804,63.7996655459865 150.61329715070315,64.00816397793824 151.3166892810259,63.869165030890144 152.19592944346368,64.00816397793824 153.19240162800997,64.35566120949807 154.07164179091342,64.14716289372882 155.0681139754597,64.98115574021358 156.47489823610522,65.60664964455646 157.58860244229436,65.32865243108245 157.99891451839358,65.25915310822893 159.05400271364488,65.18965377786662 159.99185888725333,65.25915310822893 160.98833107203245,65.39815174596151 162.21926729986444,65.95414598792559 162.9226594301872,65.74564820510568 163.7432835821528,65.88464673480485 164.62252374505624,65.88464673480485 165.384531886084,66.16264370107092 166.20515603781678,66.16264370107092 166.90854816813953,66.30164213792887 167.72917232010514,66.44064054382034 168.72564450465143,66.78813642339082 169.6635006784927,66.64913809474092 170.54274084139615,66.51013973512454 171.36336499336176,66.7186372630531 172.3012211669702,66.64913809474092 173.1218453189358,66.7186372630531 173.88385345996358,66.57963891886175 174.82170963380486,66.85763557621976 175.5837177745998,66.92713472119067 176.52157394844107,66.99663385830354 177.3421981006395,67.76112385862507 178.22143826354295,67.96962096903007 178.9834464045707,67.96962096903007 179.8040705563035,67.96962096903007 180.56607869756408,68.10861900402233 181.62116689281538,68.17811800987693 182.55902306665666,68.10861900402233 183.49687924026512,68.10861900402233 184.4933514248114,67.96962096903007 185.255359566072,68.17811800987693 185.95875169616193,68.10861900402233 187.07245590235107,67.90012193983421 187.36553595680743,66.92713472119067 187.5999999998603,66.0236452333047 187.5999999998603,65.53715035278583 187.5999999998603,64.425160632818 187.54138398938812,63.73016605316661 187.5999999998603,62.8266719445819" stroke="#4DD2FF" stroke-dasharray="1,0.5" stroke-linecap="round" stroke-linejoin="round" stroke-width="0.5"><title>2014-03-22 10.5km</title><desc>9223370641410674807</desc></polyline><polyline fill="none" opacity="1" points="55.600000000034925,99.86990561166749 55.45332729740767,99.88180596007442 55.326210955216084,99.95320802006609 55.18931643280666,99.98890903056599 55.05242191039724,100.0008093645447 54.915527387929615,99.94130768032483 54.76885468541877,99.90560665246448 54.64173834316898,99.98890903056599 54.54395654145628,99.98890903056599 54.41684019920649,99.97700869517575 54.27016749663744,99.97700869517575 54.13327297422802,99.95320802006609 54.03549117251532,99.86990561166749 53.927931190642994,99.86990561166749 53.82037120871246,99.86990561166749 53.67369850614341,99.90560665246448 53.53680398373399,99.90560665246448 53.4096876414842,99.90560665246448 53.282571299234405,99.8937063069825 53.135898596665356,99.86990561166749 53.00878225447377,99.88180596007442 52.87188773206435,99.8937063069825 52.725215029437095,99.88180596007442 52.60787686734693,99.8937063069825 52.500316885474604,99.8937063069825 52.353644182905555,99.90560665246448 52.24608420103323,99.8937063069825 52.118967858783435,99.85800526187086 51.99185151653364,99.83420455788291 51.86473517434206,99.85800526187086 51.73761883209227,99.88180596007442 51.63983703037957,99.88180596007442 51.48338614759268,99.84610491060448 51.36604798550252,99.83420455788291 51.25848800363019,99.83420455788291 51.141149841598235,99.82230420376436 50.99447713897098,99.83420455788291 50.84780443640193,99.83420455788291 50.730466274369974,99.85800526187086 50.59357175196055,99.82230420376436 50.48601177003002,99.82230420376436 50.3491172476206,99.82230420376436 50.23177908558864,99.81040384820517 50.08510638301959,99.78660313271394 49.9579900407698,99.7628024114747 49.79176097782329,99.78660313271394 49.64508827525424,99.78660313271394 49.50819375284482,99.81040384820517 49.35174287011614,99.79850349119079 49.23440470802598,99.79850349119079 49.12684472615365,99.78660313271394 48.99972838390386,99.81040384820517 48.8823902218719,99.79850349119079 48.7552738795639,99.78660313271394 48.61837935721269,99.79850349119079 48.51081937528215,99.79850349119079 48.37392485287273,99.79850349119079 48.24680851068115,99.83420455788291 48.129470348590985,99.82230420376436 48.01213218655903,99.83420455788291 47.87523766414961,99.82230420376436 47.73834314174019,99.82230420376436 47.621004979650024,99.82230420376436 47.484110457240604,99.82230420376436 47.376550475368276,99.82230420376436 47.25921231327811,99.82230420376436 47.14187415118795,99.82230420376436 46.9952014486189,99.79850349119079 46.868085106427316,99.7628024114747 46.740968764177524,99.78660313271394 46.6040742417681,99.77470277283282 46.457401539199054,99.7628024114747 46.33028519694926,99.77470277283282 46.20316885469947,99.77470277283282 46.07605251244968,99.81040384820517 45.948936170258094,99.79850349119079 45.81204164784867,99.78660313271394 45.67514712543925,99.77470277283282 45.54803078318946,99.77470277283282 45.42091444093967,99.75090204866865 45.26446355821099,99.7628024114747 45.156903576280456,99.7390016844729 45.01023087371141,99.75090204866865 44.86355817114236,99.75090204866865 44.736441828892566,99.77470277283282 44.58976912632352,99.7390016844729 44.44309642375447,99.70330058316904 44.29642372118542,99.70330058316904 44.15952919871779,99.67949984175357 44.03241285652621,99.66759946887032 43.89551833411679,99.67949984175357 43.79773653240409,99.67949984175357 43.66084200999467,99.70330058316904 43.5435038479045,99.7390016844729 43.42616568587255,99.7628024114747 43.2794929833035,99.7628024114747 43.152376641053706,99.7628024114747 43.025260298803914,99.7390016844729 42.90792213671375,99.7390016844729 42.80036215484142,99.7628024114747 42.643911272112746,99.75090204866865 42.52657311002258,99.7390016844729 42.39945676777279,99.7628024114747 42.272340425581206,99.7390016844729 42.145224083331414,99.71520095173037 41.998551380762365,99.71520095173037 41.8812132186722,99.70330058316904 41.76387505658204,99.69140021316707 41.60742417385336,99.65569909457554 41.48030783160357,99.70330058316904 41.32385694887489,99.67949984175357 41.1967406066251,99.66759946887032 41.07940244459314,99.67949984175357 40.932729741965886,99.67949984175357 40.79583521961467,99.66759946887032 40.66871887736488,99.66759946887032 40.512267994577996,99.67949984175357 40.40470801270567,99.69140021316707 40.25803531007841,99.71520095173037 40.150475328206085,99.64379871883284 40.003802625637036,99.64379871883284 39.88646446360508,99.64379871883284 39.74956994119566,99.63189834162768 39.61267541878624,99.64379871883284 39.495337256696075,99.66759946887032 39.358442734286655,99.63189834162768 39.23132639203686,99.64379871883284 39.09443186962744,99.61999796301825 38.95753734727623,99.61999796301825 38.840199185186066,99.60809758296091 38.73263920331374,99.56049604826694 38.605522861063946,99.56049604826694 38.478406518814154,99.57239643408684 38.3317338161869,99.59619720143382 38.20461747399531,99.5842968184661 38.08727931190515,99.63189834162768 37.960162969713565,99.63189834162768 37.80371208692668,99.63189834162768 37.676595744735096,99.64379871883284 37.549479402485304,99.60809758296091 37.43214124045335,99.60809758296091 37.32458125852281,99.61999796301825 37.187686736055184,99.60809758296091 37.04101403354434,99.61999796301825 36.91389769129455,99.5842968184661 36.757446808565874,99.57239643408684 36.65966500679497,99.5842968184661 36.522770484385546,99.5842968184661 36.22942507924745,99.59619720143382 35.94585785426898,99.57239643408684 35.779628791322466,99.51289449049364 35.398279764689505,99.61999796301825 35.07559981895611,99.59619720143382 34.84092349483399,99.52479488209792 34.625803531031124,99.52479488209792 34.37157084653154,99.47719330710243 34.18578542332398,99.48909370299953 33.9022181982873,99.48909370299953 33.638207333686296,99.61999796301825 33.38397464918671,99.54859566098457 33.080851063888986,99.69140021316707 29.335808057978284,99.47719330710243 29.091353553696536,99.39389049531746 28.866455409734044,99.4414921106727 28.533997283899225,99.47719330710243 28.260208239080384,99.39389049531746 27.947306473564822,99.34628885686834 27.712630149442703,99.31058761292661 24.52494341332931,99.34628885686834 24.24137618835084,99.3224880290436 23.91869624267565,99.29868719538354 23.68401991855353,99.33438844367629 23.45912177459104,99.2629859341614 23.146220009075478,99.22728465996624 22.85287460393738,99.2748863559973 22.56930737895891,99.2629859341614 20.11498415574897,99.23918508612405 19.753191489435267,99.2629859341614 19.55762788595166,99.2629859341614 19.37184246268589,99.2510855108776 19.303395201510284,99.23918508612405 19.127387958404142,99.19158337277622 18.922046174760908,99.23918508612405 18.706926210958045,99.22728465996624 18.521140787750483,99.15588207267865 18.29624264378799,99.14398163641454 18.051788139506243,99.14398163641454 17.79755545500666,99.2153842323678 17.69977365329396,99.09637987693714 16.565504753321875,99.20348380328505 16.321050249040127,99.15588207267865 16.12548664555652,99.15588207267865 15.832141240418423,99.14398163641454 15.558352195599582,99.1677825074803 15.304119511158206,99.1677825074803 15.020552286121529,99.17968294084858 14.77609778183978,99.10828031894926 14.531643277558032,99.14398163641454 14.306745133595541,99.10828031894926 13.98406518792035,99.12018075955712 13.79827976465458,99.07257898857642 13.446265278442297,99.13208119868068 13.10402897244785,99.08447943349893 12.986690810415894,99.15588207267865 13.045359891373664,99.41769130586181 13.035581711214036,99.5842968184661 13.074694431910757,99.85800526187086 12.91824354918208,99.94130768032483 12.859574468166102,99.7390016844729 12.77157084661303,99.5842968184661 12.605341783666518,99.64379871883284 12.478225441416726,99.88180596007442 12.400000000023283,100.01270969709003 12.429334540618584,100.32211783706589 12.478225441416726,100.6077244864864 12.536894522490911,100.88143008012412 12.59556360350689,101.1789352957785 12.644454504363239,101.46453945572284 12.712901765538845,101.67874203110114 12.73245812591631,101.8810440347952 12.752014486235566,102.10714578157058 12.78134902677266,102.40464728763618 12.830239927570801,102.64264784417901 12.840018107788637,102.90444779083919 12.830239927570801,103.19004693753232 12.888909008644987,103.46374534111237 12.859574468166102,103.74934286285861 12.91824354918208,104.0111398621957 12.859574468166102,104.29673579363589 12.898687188862823,104.55853133523487 12.800905387091916,104.82032617966615" stroke="#4DD2FF" stroke-dasharray="none" stroke-linecap="round" stroke-linejoin="round" stroke-width="0.5"><title>2013-12-10 10.9km</title><desc>9223370650177580807</desc></polyline><polyline fill="none" opacity="1" points="93.52110951114446,83.90273149451241 91.36147934850305,88.2811387181282 91.36147934850305,91.78385877958499 90.16168481484056,95.87035909830593 89.68176699988544,98.49739136477001 88.72193137276918,102.58388032088988 88.96189028024673,106.37847101641819 88.2420135596767,109.29738287813962 88.2420135596767,113.09196302411146 88.2420135596767,116.01086677075364 89.4418080933392,118.34598722797818 91.84139716345817,121.84866367932409 94.72090404573828,123.01622136775404 98.56024655792862,123.60000000009313 102.15963016077876,122.43244259478524 104.07930141687393,119.80543636670336 106.71884939447045,117.47031732159667 108.39856174215674,113.38385355728678 108.39856174215674,110.17305574938655 109.59835627768189,106.08657963620499 110.07827409170568,102.87577212415636 110.79815081227571,99.08117592497729 111.7579864403233,94.70278828428127 111.7579864403233,92.07575188926421 111.51802753377706,87.69735154649243 110.31823299825191,84.19462555623613 108.87847955618054,81.85947207268327 105.51905485894531,80.98378893476911 103.11946578975767,80.4000000001397 99.28012327849865,80.6918944849167 96.16065748780966,82.44326065597124 93.04119169805199,85.36220145085827 90.64160262793303,88.57303225062788 90.40164372138679,92.36764496355318 89.92172590643167,95.87035909830593 89.4418080933392,99.37306815129705 88.72193137276918,102.58388032088988 88.72193137276918,106.37847101641819 88.2420135596767,110.17305574938655 88.72193137276918,113.96763451839797 89.20184918586165,117.47031732159667 91.36147934850305,119.80543636670336 94.24098623264581,121.55677416943945 97.60041092988104,122.43244259478524 101.43975344114006,122.1405531547498 105.27909595239908,119.51354661001824 107.67868502158672,117.17842728225514" stroke="#4DD2FF" stroke-dasharray="none" stroke-linecap="round" stroke-linejoin="round" stroke-width="0.5"><title>2013-11-30 10.3km</title><desc>9223370651086224807</desc></polyline><polyline fill="none" opacity="1" points="156.27325630094856,88.93000126630068 157.17806966789067,92.23192865797319 156.49945964291692,95.80901126144454 156.27325630094856,100.76188558526337 156.49945964291692,104.06379581429064 153.55881619919091,107.36570125445724 154.46362956706434,109.8421271899715 155.82084961794317,112.31855043233372 155.82084961794317,116.17075901036151 156.49945964291692,118.37201812700368 157.40427300985903,119.47264688764699 159.44010308664292,122.22421646025032 162.83315321430564,122.22421646025032 166.67861002590507,123.60000000009313 167.58342339284718,121.6739028126467 171.20267686247826,119.74780399515294 174.8219303302467,115.89560147118755 175.72674369905144,114.51981327589601 177.53637043293566,112.04339242749847 176.85776040703058,106.8153840135783 176.17915038205683,105.71474913298152 176.4053537240252,101.86252286075614 177.762573774904,96.90965093066916 177.762573774904,95.80901126144454 176.17915038205683,92.78224942437373 178.44118379987776,90.30580492829904 176.85776040703058,89.20516206463799 175.2743370141834,86.72871367656626 173.23850693926215,83.7019397658296 171.4288802035153,83.15161680453457 168.4882367597893,80.4000000001397 163.9641699232161,82.6012937091291 160.79732313752174,85.90323028201237 157.85667969379574,88.93000126630068 156.72566298395395,90.85612616012804 156.49945964291692,95.25869122636504 158.0828830357641,99.38608824228868 156.27325630094856,102.96315960329957 155.36844293307513,105.43959032977 156.0470529589802,107.64085982413962 155.1422395920381,110.6676019039005 155.36844293307513,113.69433995871805 155.36844293307513,117.27138883504085 157.40427300985903,118.64717536675744 160.118713112548,120.57327511627227 163.5117632402107,121.94905965286307 166.4524066830054,122.77452997583896 169.61925346869975,122.22421646025032 172.3336935704574,120.02296106843278 174.8219303302467,117.27138883504085 176.4053537240252,113.41918211965822 176.63155706506222,110.3924436995294 176.85776040703058,107.36570125445724 176.85776040703058,104.06379581429064 176.17915038205683,100.76188558526337 176.85776040703058,97.45997056690976 177.08396374993026,94.70837105903774 177.98877711594105,91.40644725854509 177.53637043293566,88.37967956834473 176.17915038205683,85.62806908367202 174.3695236472413,83.7019397658296 172.3336935704574,82.87645527347922 169.16684678569436,82.05097048147582 166.4524066830054,82.05097048147582 163.28555989731103,83.7019397658296 161.47593316342682,84.25226259441115 159.44010308664292,86.45355257811025 157.85667969379574,88.37967956834473 157.63047635182738,91.40644725854509 156.72566298395395,95.25869122636504 157.17806966789067,98.28544977051206 156.49945964291692,102.13768209633417 156.49945964291692,104.06379581429064 156.0470529589802,108.46633533574641 154.68983290810138,112.31855043233372 155.1422395920381,116.17075901036151 156.49945964291692,118.09686085442081 160.34491645358503,119.19748974777758 163.5117632402107,121.3987459379714 166.67861002590507,121.3987459379714 170.07166015263647,119.74780399515294 172.3336935704574,118.09686085442081 174.14332030527294,115.07012865296565 175.72674369905144,111.21791821252555 175.50054035615176,107.64085982413962 176.17915038205683,104.33895478351042 176.17915038205683,100.76188558526337 176.85776040703058,97.45997056690976 177.08396374993026,93.6077303243801 178.21498045884073,89.48032283014618 177.08396374993026,87.55419677193277 175.04813367314637,85.62806908367202 172.3336935704574,83.97710119653493 168.2620334168896,82.87645527347922 164.64277994912118,83.15161680453457 161.9283398464322,84.80258529004641 159.21389974374324,87.27903577359393 158.0828830357641,90.0306442619767" stroke="#4DD2FF" stroke-dasharray="none" stroke-linecap="round" stroke-linejoin="round" stroke-width="0.5"><title>2013-11-16 10.4km</title><desc>9223370652294258807</desc></polyline><polyline fill="none" opacity="1" points="30.59455496352166,128.99178597261198 27.675602074712515,131.06303575029597 25.97287955507636,134.61374557600357 22.81068059336394,138.16445025079884 24.27015703730285,141.12336687929928 23.297172740101814,144.6740621116478 23.297172740101814,150.88776637450792 22.81068059336394,154.43844744330272 23.053926666267216,160.06034860108048 22.56743451859802,163.6110163643025 23.540418814867735,166.5699022328481 24.99989525973797,168.64112021238543 29.135078518651426,170.71233643963933 34.0,171.60000000009313 38.37842933367938,171.30411218269728 39.35141362901777,169.52878452418372 42.02712044399232,167.1616789775435 42.27036651875824,163.01923876185901 42.27036651875824,160.35623777890578 43.24335081502795,155.32611690624617 45.18931940756738,150.29598569567315 45.43256548140198,146.1535169382114 45.919057629071176,142.89871513913386 45.67581155523658,138.75623386260122 45.919057629071176,135.7973143735435 44.70282725803554,132.5424988034647 40.56764399912208,129.879464663798 36.91895288974047,128.99178597261198 33.270261778496206,128.99178597261198 29.378324592486024,130.4712502779439 26.7026177784428,132.24660626379773 25.486387407407165,136.38909855671227 23.783664888702333,141.12336687929928 23.783664888702333,144.08227993012406 23.540418814867735,146.74529861821793 22.81068059336394,150.88776637450792 23.053926666267216,154.73433729959652 22.81068059336394,157.69323389837518 23.053926666267216,162.72334990650415 24.02691096253693,165.09045974630862 26.459371704608202,167.1616789775435 31.081047111190856,171.00822432967834 34.972984296269715,171.00822432967834 38.62167540658265,169.82467255694792 40.810890073888004,168.64112021238543 43.48659688886255,165.38634831481613 44.216335110366344,162.72334990650415 43.973089036531746,158.58090218016878 44.459581185132265,153.8466676226817 45.43256548140198,150.88776637450792 46.162303702905774,147.33708015549928 46.162303702905774,143.7863887862768 46.405549777671695,139.64390901243314 45.919057629071176,135.7973143735435 43.72984296362847,132.5424988034647 41.054136148653924,130.4712502779439 36.91895288974047,128.4000000001397 33.270261778496206,128.99178597261198 29.864816741086543,130.4712502779439 26.7026177784428,131.95071368920617 24.02691096253693,134.90963782859035 23.297172740101814,140.23569226590917 23.540418814867735,143.7863887862768 23.053926666267216,147.33708015549928 24.51340311113745,150.88776637450792 22.81068059336394,156.50967568787746 22.080942370928824,160.35623777890578 22.81068059336394,164.2027938242536 23.053926666267216,166.27401380729862 26.7026177784428,168.64112021238543 29.621570666320622,170.12056055432186 34.486492147669196,170.71233643963933 37.89193718507886,170.12056055432186 41.054136148653924,168.64112021238543 43.24335081502795,165.68223684746772 43.973089036531746,162.13157208892517 44.94607333280146,158.58090218016878 45.43256548140198,155.0302271207329 45.67581155523658,151.77543712500483 46.162303702905774,148.81653337273747 46.405549777671695,145.26584414974786 46.89204192534089,139.3480173314456 46.405549777671695,135.7973143735435 44.70282725803554,133.13428377383389 41.54062829632312,130.4712502779439 38.864921481348574,129.2876789055299 34.0,128.69589300476946 31.081047111190856,129.58357180282474 28.40534029621631,130.76714303181507 25.97287955507636,133.13428377383389 24.99989525973797,134.31785328662954 24.27015703730285,135.7973143735435 25.486387407407165,139.3480173314456 25.243141333572567,140.82747537712567 24.756649184972048,144.9699531486258 23.297172740101814,149.1124239093624 22.56743451859802,152.3672174452804 22.080942370928824,157.39734439994209 21.10795807465911,159.46857014065608 21.837696296162903,160.94801602489315" stroke="#4DD2FF" stroke-dasharray="none" stroke-linecap="round" stroke-linejoin="round" stroke-width="0.5"><title>2013-11-03 10.7km</title><desc>9223370653417861807</desc></polyline><polyline fill="none" opacity="1" points="109.58876023907214,152.01609706040472 110.77255779877305,148.27209728653543 111.48283633589745,145.39209345774725 111.71959584765136,142.5120861462783 111.9563553603366,138.48007006268017 111.48283633589745,133.2960393568501 109.35200072731823,129.84001261997037 106.98440560605377,129.2640076763928 103.90653194859624,130.41601742454804 100.35513926763088,130.12801503995433 97.51402512192726,130.41601742454804 94.67291097715497,132.14403100241907 92.77883488032967,135.3120526385028 91.35827780794352,138.1920686531812 91.59503732062876,143.37608870584518 90.88475878350437,145.96809450211003 90.1744802473113,149.712097896263 89.46420171111822,153.4560954067856 88.51716366223991,155.7600909504108 88.28040415141732,159.2160800890997 88.28040415141732,162.96006266516633 89.70096122287214,167.28003524802625 92.77883488032967,169.5840174248442 97.27726561017334,171.31200259411708 100.59189877938479,171.60000000009313 104.3800509730354,170.16001262003556 107.69468414224684,167.28003524802625 108.16820316575468,162.6720642137807 110.29903877526522,158.06408426584676 110.53579828795046,154.60809345706366 110.53579828795046,151.44009747868404 110.77255779877305,147.1200961722061 111.00931731145829,142.80008703446947 112.19311487209052,139.0560727783013 112.42987438477576,135.3120526385028 110.29903877526522,132.7200352489017 108.87848170287907,130.41601742454804 105.80060804635286,128.9760051521007 102.01245585177094,128.4000000001397 98.22430365905166,129.2640076763928 94.90967048984021,129.84001261997037 89.70096122287214,133.8720433257986 88.99068268761039,135.0240508459974 88.99068268761039,136.46405946207233 90.1744802473113,139.63207535468973 89.93772073462605,143.66408948926255 88.51716366223991,147.69609680003487 88.51716366223991,150.57609784416854 87.57012561522424,154.32009399705566 87.57012561522424,157.48808614653535 87.80688512697816,160.65607408294454 87.57012561522424,163.5360594613012 89.22744219843298,166.7040393569041 91.35827780794352,169.00802208902314 94.19939195271581,169.87201503990218 97.9875441454351,169.5840174248442 102.01245585177094,168.72002436965704 106.51088658254594,166.99203731981106 108.40496267937124,164.4000543965958 110.29903877526522,160.65607408294454 109.82551975175738,156.62408870481886 110.29903877526522,152.59209650335833 110.53579828795046,149.13609775714576 110.77255779877305,145.39209345774725" stroke="#4DD2FF" stroke-dasharray="none" stroke-linecap="round" stroke-linejoin="round" stroke-width="0.5"><title>2013-11-02 10.5km</title><desc>9223370653505000807</desc></polyline><polyline fill="none" opacity="1" points="168.88550934474915,128.94000515691005 166.2219622572884,128.94000515691005 162.6705661425367,130.56001984444447 159.78505679685622,132.45003549358808 157.5654342258349,135.15005507646129 156.01169842481613,138.12007284793071 156.45562293939292,142.98009340977296 156.67758519575,145.68010026379488 156.23366068210453,149.19010429433547 156.01169842481613,151.35010403278284 156.01169842481613,152.97010246641003 155.56777391023934,155.67009724397212 155.12384939659387,158.6400877290871 156.23366068210453,162.15007139416412 157.5654342258349,164.85005507571623 160.67290582694113,167.0100396713242 164.22430194169283,168.3600289823953 167.7756980592385,168.3600289823953 169.77335837297142,167.82003335561603 172.65886771772057,165.66004954348318 174.6565280323848,162.96006684168242 175.54437706060708,159.18008557590656 175.54437706060708,155.94009654247202 175.7663393188268,152.70010280935094 175.54437706060708,149.46010437584482 175.54437706060708,146.49010168295354 176.43222609069198,142.98009340977296 176.87615060433745,140.01008210144937 176.43222609069198,137.31006839242764 175.32241480425,134.34004954481497 173.99064126145095,132.72003759886138 170.4392451448366,130.56001984444447 167.7756980592385,128.4000000001397 165.3341132281348,129.48001018329524 162.0046793706715,130.8300221778918 159.78505679685622,132.45003549358808 158.67524551134557,135.69005860155448 158.2313209977001,138.12007284793071 157.7873964831233,141.63008875912055 156.45562293939292,144.33009724435396 156.01169842481613,146.76010209089145 156.23366068210453,150.81010429398157 157.7873964831233,154.32010026299395 154.90188713837415,155.13009854895063 155.12384939659387,156.21009580790997 154.45796262472868,157.56009164638817 154.90188713837415,163.23006525845267 160.22898131329566,166.20004569296725 165.77803774364293,167.55003549298272 167.1098112873733,167.55003549298272 169.10747160110623,167.55003549298272 171.77101868763566,168.3600289823953 173.99064126145095,164.0400603134185 174.6565280323848,162.96006684168242 174.8784902896732,160.5300796192605 175.54437706060708,159.18008557590656 173.54671674594283,158.91008666879497 174.8784902896732,158.10008975397795 176.2102638334036,155.94009654247202 175.9883015761152,150.81010429398157 176.2102638334036,149.46010437584482 175.7663393188268,146.2201012421865 176.2102638334036,142.1700907170307 175.7663393188268,136.7700652598869 175.32241480425,133.26004171161912 173.54671674594283,129.75001264712773 169.55139611661434,129.48001018329524 165.77803774364293,129.21000768686645 162.6705661425367,130.56001984444447 159.78505679685622,132.72003759886138 156.67758519575,133.26004171161912 156.45562293939292,137.58006991050206 156.23366068210453,140.55008445074782 156.01169842481613,144.0600965428166 154.90188713837415,147.57010311936028 155.34581165295094,151.62010385282338 155.12384939659387,155.13009854895063 154.90188713837415,159.18008557590656 154.90188713837415,161.61007426702417 158.45328325405717,165.66004954348318 164.00233968626708,168.63002674723975 166.44392451550812,169.98001507879235 169.32943385839462,171.60000000009313 173.32475448958576,167.82003335561603 175.1004525469616,162.69006839231588 175.54437706060708,159.7200832911767 175.54437706060708,158.6400877290871 175.1004525469616,153.24010209064 174.8784902896732,148.92010417976417 175.32241480425,146.2201012421865 175.54437706060708,142.98009340977296 177.09811286255717,138.93007700890303 175.7663393188268,135.96006031497382 174.43456577509642,134.34004954481497 172.88082997407764,130.8300221778918 170.21728288847953,130.02001507859677 166.0,129.75001264712773 162.0046793706715,130.56001984444447 159.78505679685622,130.8300221778918 156.89954745396972,132.72003759886138 154.90188713837415,135.69005860155448 154.67992488108575,138.39007426798344 155.34581165295094,139.7400808769744 154.23600036650896,142.71009254432283 154.67992488108575,145.95010076928884 154.90188713837415,147.57010311936028 154.45796262472868,150.27010442432947 154.90188713837415,153.78010124200955 154.67992488108575,157.02009340864606 154.90188713837415,161.34007565444335 157.5654342258349,166.20004569296725 161.7827171124518,168.63002674723975 163.11449065618217,168.3600289823953 166.0,169.98001507879235 167.99766031466424,169.1700221770443 171.1051319167018,171.33000259427354 173.32475448958576,168.63002674723975 174.8784902896732,162.42006990942173 173.99064126145095,158.37008875748143 175.1004525469616,151.35010403278284 174.8784902896732,147.0301024664659 174.8784902896732,145.68010026379488 176.43222609069198,142.98009340977296 177.76399963349104,140.82008557626978 177.09811286255717,136.7700652598869 175.32241480425,132.1800333559513 173.10279223136604,129.75001264712773 169.9953206302598,128.6700025945902 166.0,128.94000515691005 161.1168303405866,130.56001984444447 157.1215097112581,132.1800333559513 156.67758519575,133.53004371840507 155.56777391023934,134.61005142168142 155.78973616752774,137.04006684245542 156.01169842481613,138.6600756549742 156.23366068210453,142.1700907170307 156.23366068210453,143.5200950417202 156.23366068210453,147.84010339644738 156.01169842481613,149.19010429433547 155.12384939659387,151.62010385282338 155.78973616752774,155.13009854895063 154.90188713837415,156.21009580790997 155.12384939659387,161.07007700833492 156.23366068210453,162.15007139416412 156.23366068210453,163.50006364332512 158.45328325405717,165.66004954348318 162.6705661425367,168.63002674723975 167.1098112873733,170.52001018356532 170.4392451448366,169.710017477395 171.99298094585538,168.09003118495457 175.32241480425,163.77006199466996 174.8784902896732,159.18008557590656 174.43456577509642,152.97010246641003 176.2102638334036,152.1601033960469 176.65418834704906,147.3001028096769 176.87615060433745,146.49010168295354 175.9883015761152,142.71009254432283 176.87615060433745,138.93007700890303 175.54437706060708,134.34004954481497 173.54671674594283,132.1800333559513 172.21494320314378,128.94000515691005 166.2219622572884,129.21000768686645 162.0046793706715,130.02001507859677 159.34113228321075,132.1800333559513" stroke="#4DD2FF" stroke-dasharray="none" stroke-linecap="round" stroke-linejoin="round" stroke-width="0.5"><title>2013-10-26 11.1km</title><desc>9223370654110301807</desc></polyline><polyline fill="none" opacity="1" points="44.163525108247995,191.17903669271618 43.462592341937125,189.75797950988635 43.22894808650017,187.76849800907075 42.5280153201893,183.78952995873988 41.126149787567556,180.3789805562701 36.9205531924963,178.67370399925858 33.649533617310226,178.10527820512652 29.67758127581328,180.66319319489412 27.574782977811992,181.51583090610802 25.00469616893679,184.3579543782398 23.135542125441134,187.76849800907075 24.537407658062875,190.32640248560347 25.238340423442423,193.1685153071303 25.238340423442423,196.86325683817267 24.30376340262592,199.9895720607601 23.836474891752005,203.68430287321098 23.602830636315048,206.81060902611353 24.537407658062875,208.23165590292774 23.836474891752005,212.77900013769977 25.939273189753294,215.62108581862412 28.275715744122863,217.89475188939832 31.079446808435023,218.46316806343384 34.350466382689774,217.89475188939832 38.32241872418672,216.18950254260562 41.59343829937279,213.91583482245915 42.5280153201893,209.93691102182493 42.29437106475234,206.52639954793267 42.76165957655758,202.26325324806385 42.76165957655758,198.85273064253852 42.76165957655758,195.1579922370147 44.163525108247995,191.4632480267901 45.79903489537537,189.18955639493652 46.7336119171232,186.63165068160743 46.49996766075492,184.07374218595214 44.163525108247995,181.23161837016232 41.126149787567556,179.81055517448112 38.08877446874976,177.25263925665058 34.81775489449501,176.4000000001397 31.313091062940657,177.82106525660492 28.509359998628497,180.09476788225584 25.939273189753294,182.6526807071641 25.471984679810703,185.77901482582092 25.471984679810703,189.4737679695245 25.00469616893679,192.60009301709943 24.537407658062875,196.86325683817267 21.733676593750715,199.9895720607601 22.20096510462463,203.68430287321098 21.967320849187672,207.94744659680873 22.434609359130263,211.07374708005227 22.434609359130263,213.91583482245915 24.537407658062875,216.75791912851855 27.574782977811992,219.0315841003321 30.845802552998066,219.60000000009313 34.81775489449501,219.0315841003321 37.38784170243889,217.610543750925 41.126149787567556,215.90529419737868 42.060726810246706,213.6316262029577 43.69623659737408,210.22112008789554 44.163525108247995,206.81060902611353 44.163525108247995,203.1158831268549 44.63081361912191,199.70536175812595 45.33174638450146,195.4422030900605 45.565390639938414,192.0316705906298 46.03267915081233,189.18955639493652 45.79903489537537,185.49480280443095 44.864457874558866,181.80004340759479 42.76165957655758,179.24212965508923 39.72428425680846,178.10527820512652 36.21962042618543,177.53685227409005 32.7149565955624,177.53685227409005 29.443937021307647,178.95791684417054 25.939273189753294,181.23161837016232 24.537407658062875,184.07374218595214 25.238340423442423,188.33692146651447 23.836474891752005,191.74745932617225 23.602830636315048,194.58957042940892 23.602830636315048,198.28430972713977 21.967320849187672,201.69483315735124 22.434609359130263,206.52639954793267 22.20096510462463,209.3684927856084 23.602830636315048,212.21058258996345 24.537407658062875,215.90529419737868 25.471984679810703,217.610543750925 31.079446808435023,219.0315841003321 35.051399149000645,218.46316806343384 37.62148595787585,216.18950254260562 41.82708255387843,212.77900013769977 43.462592341937125,211.9263737637084 44.163525108247995,209.08428361662664 43.69623659737408,205.95798048726283 43.69623659737408,202.26325324806385 43.69623659737408,199.13694104878232 44.163525108247995,195.72641390911303 45.565390639938414,192.31588182109408 45.79903489537537,189.18955639493652 45.79903489537537,186.34743876405992 45.79903489537537,183.78952995873988 43.462592341937125,181.23161837016232 41.59343829937279,178.10527820512652 38.08877446874976,176.96842620545067 33.88317787181586,178.10527820512652 29.91122553125024,180.09476788225584 27.574782977811992,183.22110540163703 25.471984679810703,186.34743876405992 24.07011914718896,188.33692146651447 23.836474891752005,192.0316705906298 22.9018978709355,195.4422030900605 22.434609359130263,199.13694104878232 23.135542125441134,202.26325324806385 21.733676593750715,205.38956129038706 21.2663880828768,208.51586517505348" stroke="#4DD2FF" stroke-dasharray="none" stroke-linecap="round" stroke-linejoin="round" stroke-width="0.5"><title>2013-10-20 10.7km</title><desc>9223370654628121807</desc></polyline><polyline fill="none" opacity="1" points="95.30947938002646,217.42643493087962 99.10656750109047,217.6981306800153 102.45693937223405,217.42643493087962 106.03066936973482,216.06795569579117 109.15768311638385,213.8943872116506 110.72118998877704,211.17742365039885 110.94454811420292,208.18875993951224 111.39126436412334,205.20009225560352 111.83798061311245,201.1246299177874 112.50805498752743,198.13595284009352 112.95477123744786,195.41897022980265 113.17812936194241,192.70198433613405 112.73141311202198,188.89819856663235 112.50805498752743,186.1812047897838 110.27447373978794,182.92080792272463 108.71096686646342,179.6604063261766 105.80731124430895,177.75850321003236 102.68029749765992,176.67170070740394 99.77664187457412,176.67170070740394 96.20291187800467,177.48680263385177 92.85254000686109,179.6604063261766 90.39560063369572,182.92080792272463 89.50216813571751,185.90950523177162 89.50216813571751,188.89819856663235 88.83209376130253,192.15858676331118 88.60873563587666,196.23406535829417 87.49194501247257,199.49444291344844 87.93866126146168,202.4831181843765 86.82187063805759,206.2868809637148 89.27881001029164,208.73215363710187 90.17224251013249,211.9925130638294 91.95910750795156,215.52456377237104 94.19268875569105,217.42643493087962 97.7664187522605,218.7849133447744 101.56350687332451,219.60000000009313 104.46716249547899,217.96982639585622 106.92410186771303,215.25286776060238 108.93432499095798,212.8076021813322 110.49783186521381,209.81894063809887 110.27447373978794,207.64536611060612 110.94454811420292,204.65669770352542 111.16790623962879,201.6680253231898 111.39126436412334,198.67934896820225 112.061338737607,196.23406535829417 112.50805498752743,191.88688792707399 112.50805498752743,188.62649933667853 111.16790623962879,183.19250784208998 109.3810412408784,179.6604063261766 106.47738561872393,178.03020375361666 102.01022312324494,176.4000000001397 98.43649312574416,176.67170070740394 95.53283750358969,178.03020375361666 92.40582375694066,179.9321066394914" stroke="#4DD2FF" stroke-dasharray="none" stroke-linecap="round" stroke-linejoin="round" stroke-width="0.5"><title>2013-10-19 10.2km</title><desc>9223370654714312807</desc></polyline><polyline fill="none" opacity="1" points="168.4159138277173,219.0122500488069 171.31501041911542,216.95512410113588 174.21410701051354,214.3102453246247 174.93888115882874,211.07761180168018 175.90524668991566,206.66946825268678 175.4220639243722,202.55519372876734 175.66365530714393,198.1470347265713 175.90524668991566,195.2082576181274 176.63002083823085,191.09396369801834 177.59638636745512,187.27354168030433 176.1468380726874,183.15923433192074 174.93888115882874,180.22043910529464 171.31501041911542,177.5755203643348 167.20795691385865,176.4000000001397 163.3424947904423,177.5755203643348 160.20180681534111,179.33879984519444 158.51066713687032,182.57147557032295 157.302710223943,185.51026795455255 157.06111884023994,188.15517806308344 156.5779360756278,191.9755986945238 155.61157054454088,195.5021354884375 154.8867963962257,198.73478972166777 154.64520501438528,201.96743965684436 154.64520501438528,206.08171517541632 155.12838777899742,209.90210763714276 156.81952745839953,213.72249409533106 158.0274843722582,215.7796227785293 160.92658096458763,219.0122500488069 164.55045170336962,219.0122500488069 167.44954829569906,219.60000000009313 170.83182765357196,218.13062485610135 173.48933286219835,216.36737351119518 175.18047254160047,212.84086698386818 175.66365530714393,208.43272663117386 175.90524668991566,203.73070144630037 175.90524668991566,200.79193108691834 175.90524668991566,197.26540196686983 176.87161222100258,194.32662379206158 177.59638636745512,190.80008529429324 177.35479498654604,186.39190497691743 175.18047254160047,180.22043910529464 172.52296733297408,178.16328033292666 167.6911396794021,176.69388014404103 164.79204308707267,176.9877602532506 161.8929464938119,179.63267963356338 159.23544128518552,181.6898371623829 158.51066713687032,184.62863061204553 157.06111884023994,189.33069274341688 155.61157054454088,193.73886773106642 155.61157054454088,197.26540196686983 154.16202224884182,200.79193108691834 154.40361363161355,204.6123318609316 154.64520501438528,207.8449739809148 154.16202224884182,211.37148775416426 156.09475331008434,215.48574735829607 158.75225852057338,218.13062485610135 161.40976372919977,218.42449995642528 166.48318276554346,219.0122500488069 169.38227935694158,217.54287455044687 172.52296733297408,214.89799641259015 173.48933286219835,212.25311539904214 174.697289776057,208.43272663117386 176.1468380726874,204.9062085954938 177.35479498654604,201.67356256698258 177.83797775115818,197.55927958874963 177.35479498654604,192.85723337321542 177.35479498654604,188.44905678625219 176.3884294545278,184.92250976222567 174.93888115882874,180.22043910529464 172.03978456743062,178.16328033292666 168.89909659232944,177.28164032683708 164.79204308707267,176.9877602532506 161.40976372919977,179.04492002003826 158.51066713687032,181.6898371623829 157.06111884023994,184.33475142717361 157.78589298855513,187.8612993035931 156.5779360756278,192.5633551827632 157.06111884023994,196.67764661624096 156.5779360756278,200.49805385502987 155.61157054454088,204.02457828633487" stroke="#4DD2FF" stroke-dasharray="none" stroke-linecap="round" stroke-linejoin="round" stroke-width="0.5"><title>2013-10-12 10.6km</title><desc>9223370655320152807</desc></polyline><polyline fill="none" opacity="1" points="42.58833368588239,228.63532944396138 42.58833368588239,226.65884332591668 41.19563092570752,227.2235538160894 38.64234253298491,225.81177733442746 34.00000000093132,224.4000000001397 30.98247735388577,225.2470665036235 27.96495470777154,226.65884332591668 26.34013482183218,230.6118138891179 25.411666315048933,234.0000690475572 25.643783441744745,236.25890308944508 24.251080681569874,240.77656461950392 24.251080681569874,243.31774539034814 23.55472930241376,247.83539326884784 24.251080681569874,250.94127111579292 24.483197808265686,255.17655243445188 24.018963554874063,258.8471233653836 22.858377922326326,262.51768852747045 24.94743206165731,263.3647412073333 28.42918896023184,265.6235468534287 31.678828733973205,267.60000000009313 34.696351380087435,267.60000000009313 38.874459659680724,265.90589740499854 41.42774805333465,263.92944282409735 43.748919318430126,260.8235822466668 44.677387826144695,257.1530144221615 44.90950495097786,252.63538456475362 43.748919318430126,248.96480387263 43.98103644605726,243.8824518530164 45.141622078604996,239.92950374865904 45.37373920623213,236.82361125876196 46.30220771115273,234.0000690475572 45.60585633199662,231.74123282171786 43.05256793834269,228.07061929488555 38.874459659680724,226.65884332591668 35.39270276017487,225.81177733442746 32.60729724075645,225.81177733442746 30.286125973798335,226.94119858834893 26.34013482183218,228.91768446774222 24.94743206165731,231.74123282171786 24.018963554874063,235.12948634149507 24.251080681569874,239.0824425695464 24.251080681569874,242.47068544104695 24.483197808265686,245.57657042192295 24.251080681569874,249.24715643795207 22.626260795630515,251.78832799429074 21.92990941554308,254.61184870218858 21.697792288847268,257.435365997022 22.626260795630515,260.25887987948954 23.78684642817825,262.51768852747045 25.411666315048933,265.34119626670144 28.42918896023184,266.75294885598123 31.678828733973205,266.75294885598123 36.55328839365393,267.60000000009313 39.57081103976816,264.7764949919656 41.42774805333465,262.2353375663515 43.748919318430126,258.56477195979096 43.98103644605726,254.61184870218858 43.98103644605726,251.22362344292924 45.141622078604996,247.55304053192958 45.83797345869243,244.16480503370985 45.60585633199662,241.05891817482188 45.60585633199662,238.5177349471487 46.07009058445692,235.12948634149507 45.37373920623213,232.30594208301045 44.44527069851756,229.76474933186546 43.05256793834269,226.94119858834893 40.03504529315978,225.2470665036235 36.55328839365393,225.2470665036235 32.60729724075645,225.2470665036235 28.89342321548611,225.81177733442746 26.804369075223804,228.07061929488555 24.483197808265686,231.74123282171786 24.94743206165731,234.28242342267185 24.94743206165731,237.6706732562743 23.55472930241376,242.18833205639385 23.55472930241376,246.14127633837052 24.251080681569874,247.55304053192958 23.32261217571795,251.22362344292924 22.626260795630515,253.2000887747854 23.090495048090816,256.588311167201 23.78684642817825,259.6941773761064 24.251080681569874,262.80003945552744 25.875900567509234,265.34119626670144 27.73283758200705,266.4705984070897 34.00000000093132,266.4705984070897 38.17810827959329,266.4705984070897 40.267162419855595,265.34119626670144 43.98103644605726,261.95298657077365 43.284685065969825,257.1530144221615" stroke="#4DD2FF" stroke-dasharray="none" stroke-linecap="round" stroke-linejoin="round" stroke-width="0.5"><title>2013-10-06 10.6km</title><desc>9223370655838244807</desc></polyline><polyline fill="none" opacity="1" points="95.67458635941148,267.3230795171112 97.95111985504627,267.60000000009313 102.27653349470347,266.49231786769815 106.14664043672383,264.5538728488609 108.65082728024572,260.4000565716997 109.78909402806312,256.800076372223 110.01674737781286,253.47701270505786 110.47205407731235,250.4308667758014 111.61032082512975,247.3847167957574 110.92736077588052,243.78471614304 110.92736077588052,240.46163359680213 111.61032082512975,237.41547036124393 111.83797417394817,234.64622754161246 111.61032082512975,231.8769813736435 109.5614406792447,230.21543206600472 107.96786723192781,228.00003111502156 105.23602703865618,226.89232983626425 102.27653349470347,227.44618054293096 97.72346650529653,228.00003111502156 95.44693301152438,228.55388155416586 93.8533595642075,230.21543206600472 93.62570621352643,231.8769813736435 92.71509281732142,234.64622754161246 92.48743946664035,237.69239445892163 91.80447941832244,241.84625191055238 91.12151937000453,244.89240925433114 91.80447941832244,248.49240816570818 90.89386602025479,251.5385566733312 90.43855932168663,255.1385451410897 89.5279459245503,257.90776318963617 89.5279459245503,259.84621383203194 90.43855932168663,262.8923472412862 92.03213276807219,265.10771445115097 96.12989305891097,266.21539725130424 99.31703995261341,267.0461590006016 102.27653349470347,266.21539725130424 105.23602703865618,265.9384766018484 107.2849071836099,263.7231101959478 108.65082728024572,261.50774164893664 109.5614406792447,257.6308415350504 109.33378732949495,254.58470112946816 110.2444007275626,250.7077893000096 110.2444007275626,247.1077938694507 110.01674737781286,243.50779278133996 109.78909402806312,238.80009051598608 110.2444007275626,235.47700073826127 110.92736077588052,234.09237857535481 110.2444007275626,231.32313173846342 107.96786723192781,228.83080672309734 105.00837368983775,226.06155352527276 102.9594935439527,225.23077691416256 99.77234665118158,225.78462802176364 96.35754640772939,225.78462802176364 94.5363196125254,226.61540443263948 93.39805286563933,229.66158202895895 91.80447941832244,232.4308308751788 91.57682606950402,235.47700073826127 90.89386602025479,239.07701444602571 90.2109059728682,242.95394595898688 89.7555992724374,245.4462556091603 89.0726392250508,248.49240816570818 89.0726392250508,251.81547906342894 88.16202582698315,255.1385451410897 87.70671912748367,257.6308415350504 87.93437247723341,260.67697789077647 89.0726392250508,263.1692682597786 92.03213276807219,265.6615559179336 95.67458635941148,266.49231786769815 99.77234665118158,266.76923845126294 103.41480024252087,266.21539725130424 105.91898708697408,264.2769519982394 108.65082728024572,262.0615839860402 109.78909402806312,257.90776318963617 110.2444007275626,255.1385451410897 110.69970742613077,252.09240142116323 110.92736077588052,249.3231763425283 111.38266747444868,245.4462556091603 111.61032082512975,243.23086938657798 111.83797417394817,240.18470983416773 112.06562752369791,237.41547036124393 112.29328087251633,234.36930307536386 111.61032082512975,231.6000565723516 110.47205407731235,229.1077318591997 108.19552058167756,226.61540443263948 105.69133373815566,225.23077691416256 102.9594935439527,224.4000000001397 100.68296004924923,224.95385130867362 96.81285310722888,225.50770248449408 94.08101291395724,227.16925520659424 92.71509281732142,230.76928196917288 91.12151937000453,235.20007637282833 90.2109059728682,237.9693185237702 89.98325262311846,240.18470983416773 89.7555992724374,243.23086938657798 89.98325262311846,246.27702489006333 90.2109059728682,249.6000990010798 89.98325262311846,252.64624603441916 89.7555992724374,255.96931090718135 90.2109059728682,259.2923709584866 91.57682606950402,262.3385051051155 94.08101291395724,264.00003111432306 96.81285310722888,266.76923845126294 100.68296004924923,266.76923845126294 102.9594935439527,266.49231786769815 106.37429378647357,264.83079366665334 108.4231739314273,262.8923472412862 109.5614406792447,259.56929241190664 110.01674737781286,256.800076372223 110.92736077588052,253.75393486046232 110.92736077588052,250.4308667758014 111.61032082512975,247.6616396890022 111.61032082512975,244.61548602650873 111.38266747444868,241.56932831485756 112.52093422133476,237.9693185237702 111.61032082512975,235.20007637282833 110.69970742613077,231.8769813736435 110.01674737781286,229.3846569606103 107.51256053335965,227.72310584550723 104.32541364058852,226.06155352527276 101.36592009756714,226.61540443263948 97.26815980672836,226.89232983626425 94.30866626370698,228.83080672309734 92.94274616613984,230.76928196917288 90.89386602025479,234.09237857535481 90.43855932168663,236.30777363479137 89.5279459245503,239.90778603730723 89.7555992724374,242.95394595898688 88.61733252555132,246.00010183011182 88.61733252555132,249.3231763425283 87.93437247723341,252.64624603441916 87.47906577866524,255.96931090718135 88.16202582698315,259.2923709584866 89.30029257386923,262.3385051051155 92.71509281732142,264.2769519982394 96.35754640772939,265.9384766018484 98.8617332521826,265.38463520118967 102.27653349470347,264.5538728488609 104.78072033915669,261.7846628341358 107.96786723192781,259.84621383203194 109.5614406792447,257.35391984693706 110.2444007275626,255.1385451410897 110.47205407731235,251.81547906342894 110.92736077588052,248.49240816570818 111.15501412469894,246.00010183011182 111.61032082512975,242.12317547295243 111.15501412469894,239.35393834323622 111.38266747444868,235.20007637282833" stroke="#4DD2FF" stroke-dasharray="none" stroke-linecap="round" stroke-linejoin="round" stroke-width="0.5"><title>2013-09-29 10.5km</title><desc>9223370656443428807</desc></polyline><polyline fill="none" opacity="1" points="156.33481972385198,258.57728335657157 157.6834495300427,261.8582753909286 160.38070914242417,263.22535400046036 163.752283657901,265.13926266669296 166.89908653870225,265.13926266669296 169.37157451640815,264.0456007702742 172.29360576253384,263.22535400046036 174.31655047181994,261.0380278278608 175.66518027801067,258.3038671386894 176.5642668157816,255.29628656315617 176.5642668157816,251.7418679993134 176.5642668157816,248.73427869705483 177.23858171794564,246.00010313582607 177.23858171794564,242.17225179541856 178.36243989039212,238.8912312053144 177.68812498729676,237.25071912514977 176.78903844952583,234.51652968092822 175.66518027801067,230.68865890661255 173.86700720340014,227.95446153078228 171.39451922569424,225.49368106527254 170.0458894195035,225.76710125035606 166.00000000093132,224.94684059894644 163.30274038854986,226.5873616025783 160.83025241084397,228.22788141667843 159.7063942393288,232.055756355403 158.35776443313807,233.6962722032331 157.6834495300427,238.6178126083687 157.00913462694734,240.80516046099365 156.78436299227178,244.9064319843892 156.78436299227178,247.09377375710756 156.55959135852754,249.28111341316253 156.55959135852754,253.38236956926994 155.2109615523368,255.56970314332284 155.6605048207566,261.0380278278608 156.55959135852754,263.4987696236931 161.95411058235914,265.4126780577935 164.2018269263208,265.95950874197297 167.5734014417976,265.95950874197297 171.61929085943848,264.86584724183194 174.5413221064955,262.1316911787726 176.5642668157816,258.0304508882109 177.23858171794564,253.65578638156876 175.66518027801067,250.92161676776595 174.09177883714437,249.55453072185628 175.88995191268623,245.17984982184134 177.4633533526212,239.98490526387468 177.91289662197232,238.07097531366162 177.23858171794564,235.06336783478037 178.36243989039212,231.235497985268 175.66518027801067,228.50130126997828 172.9679206656292,225.49368106527254 171.16974759101868,224.94684059894644 165.77522836625576,225.49368106527254 164.2018269263208,225.76710125035606 161.27979567926377,228.22788141667843 158.80730770155787,230.41523931804113 158.1329927984625,232.87601442844607 157.6834495300427,236.43046263838187 156.55959135852754,241.07857879367657 157.00913462694734,244.35959621169604 157.23390626069158,246.54693851224147 156.55959135852754,250.92161676776595 157.00913462694734,254.20261990698054 155.6605048207566,258.3038671386894 156.33481972385198,261.5848595700227 156.55959135852754,263.4987696236931 160.38070914242417,264.86584724183194 163.97705529164523,267.3265848727897 166.22477163467556,266.77975451922975 169.14680288173258,265.95950874197297 172.0688341287896,264.86584724183194 174.9908653749153,261.5848595700227 175.21563700959086,259.3975318111479 175.88995191268623,256.66336913825944 176.78903844952583,253.92920316033997 177.91289662197232,250.92161676776595 177.0138100842014,247.3671913293656 175.88995191268623,243.53934230282903 176.11472354643047,240.5317420954816 176.5642668157816,237.25071912514977 177.68812498729676,236.43046263838187 178.58721152413636,232.87601442844607 177.23858171794564,230.14181969570927 178.36243989039212,230.41523931804113 177.91289662197232,227.68104161159135 174.76609374023974,226.31394151831046 171.39451922569424,225.22026084875688 168.24771634489298,224.6734203158412 164.2018269263208,225.76710125035606 161.0550240445882,228.22788141667843 158.35776443313807,230.14181969570927 158.1329927984625,233.42285297834314 155.88527645543218,237.25071912514977 154.53664664924145,241.62541536078788 156.11004808917642,241.62541536078788 156.78436299227178,243.2659242679365 156.33481972385198,246.8203561506234 155.6605048207566,250.92161676776595 153.41278847679496,253.10895272321068 155.43573318701237,256.11653620772995 155.6605048207566,258.57728335657157 157.23390626069158,262.9519383441657 159.256850970909,265.4126780577935 161.95411058235914,266.23292403365485 165.77522836625576,266.23292403365485 169.37157451640815,267.60000000009313 172.9679206656292,266.23292403365485 174.09177883714437,264.0456007702742 174.31655047181994,260.49119595531374 175.66518027801067,259.3975318111479 175.88995191268623,255.29628656315617 177.91289662197232,248.73427869705483 177.91289662197232,244.08617827459238 175.88995191268623,241.35199709353037 176.5642668157816,238.07097531366162 177.0138100842014,235.61020585522056 177.4633533526212,232.055756355403 177.23858171794564,230.14181969570927 175.66518027801067,227.1342016728595 172.0688341287896,225.76710125035606 168.69725961331278,224.4000000001397 166.00000000093132,225.76710125035606 163.52751202322543,226.8607816544827 160.38070914242417,229.04814087809063 157.45867789536715,232.055756355403 155.6605048207566,235.61020585522056 156.78436299227178,239.16464976919815 157.00913462694734,243.53934230282903 157.00913462694734,246.8203561506234 156.33481972385198,250.64819962508045 154.761418283917,253.10895272321068 156.33481972385198,256.66336913825944 155.6605048207566,259.3975318111479 156.78436299227178,262.4051069342531 157.6834495300427,264.86584724183194 161.7293389486149,264.31901629362255 164.2018269263208,265.95950874197297 167.5734014417976,265.13926266669296 170.72020432259887,264.592431783909 172.5183773972094,263.4987696236931 174.9908653749153,259.6709478965495 177.23858171794564,257.4836182866711" stroke="#4DD2FF" stroke-dasharray="none" stroke-linecap="round" stroke-linejoin="round" stroke-width="0.5"><title>2013-09-22 10.9km</title><desc>9223370657048162807</desc></polyline></svg>