<?xml version="1.0" encoding="utf-8" ?>
<svg baseProfile="full" height="300mm" version="1.1" viewBox="0,0,200,300" width="200mm" xmlns="http://www.w3.org/2000/svg" xmlns:ev="http://www.w3.org/2001/xml-events" xmlns:xlink="http://www.w3.org/1999/xlink"><defs /><rect fill="#222222" height="300" width="200" x="0" y="0" /><text fill="#FFFFFF" style="font-size:12px; font-family:Arial; font-weight:bold;" x="10" y="20">Over 10km Runs</text><text fill="#FFFFFF" style="font-size:4px; font-family:Arial" x="10" y="280">Runner</text><text fill="#FFFFFF" style="font-size:9px; font-family:Arial" x="10" y="290">keep</text><text fill="#FFFFFF" style="font-size:4px; font-family:Arial" x="65" y="280">SPECIAL TRACKS</text><rect fill="yellow" height="2.6" width="2.6" x="65" y="283" /><text fill="#FFFFFF" style="font-size:3px; font-family:Arial" x="70" y="285.5">Over 20.0 km</text><rect fill="red" height="2.6" width="2.6" x="65" y="287" /><text fill="#FFFFFF" style="font-size:3px; font-family:Arial" x="70" y="289.5">Over 40.0 km</text><text fill="#FFFFFF" style="font-size:4px; font-family:Arial" x="120" y="280">STATISTICS</text><text fill="#FFFFFF" style="font-size:3px; font-family:Arial" x="120" y="285">Number: 15</text><text fill="#FFFFFF" style="font-size:3px; font-family:Arial" x="120" y="290">Weekly: 1.2</text><text fill="#FFFFFF" style="font-size:3px; font-family:Arial" x="141" y="285">Total: 163.6 km</text><text fill="#FFFFFF" style="font-size:3px; font-family:Arial" x="141" y="290">Avg: 10.9 km</text><text fill="#FFFFFF" style="font-size:3px; font-family:Arial" x="167" y="285">Min: 10.2 km</text><text fill="#FFFFFF" style="font-size:3px; font-family:Arial" x="167" y="290">Max: 14.0 km</text><polyline fill="none" opacity="1" points="26.443210268917028,75.59999999999854 26.45200234540971,75.26803353204014 26.50475480419118,74.93606573571742 26.51354688074207,74.63729358326236 26.495962727756705,74.28319186110457 26.50475480419118,73.97335161441151 26.50475480419118,73.67457599482441 26.52233895723475,73.34260182212893 26.531131033669226,73.06595566344913 26.627843874914106,72.82250628063775 26.86522993975086,72.72291314539325 27.137784310500138,72.70078132133494 27.1553684634855,72.54585838752246 27.20812092232518,72.40200111849845 27.21691299881786,72.14748380061792 27.234497151745018,71.81550351685291 27.076239775167778,71.54991833327949 26.786101251433138,71.4060593371396 26.777309174998663,71.0630099549744 26.83006163383834,70.719959154143 26.874022016243543,70.39903937871713 26.92677447508322,70.05598583204846 26.979526933922898,69.71293086669903 27.01469523983542,69.42520625339239 27.032279392762575,69.15961341685033 27.12020015757298,69.07108228235302 27.1553684634855,68.86082045928197 27.12020015757298,68.71695679955155 27.1553684634855,68.61735873512953 27.21691299881786,68.39602927493979 27.287249610584695,68.1304331430947 27.348794145975262,67.85376960153371 27.436714910669252,67.52177213352843 27.524635675479658,67.20083998473274 27.60376436379738,66.91310665767378 27.74443758733105,66.74710620728001 27.91148704040097,66.80243972763856 28.140081028745044,66.857773211108 28.38625917007448,66.7028393644141 28.562100699578878,66.45937130629318 28.676397693809122,66.21590253351314 28.83465507038636,65.90603215280134 29.001704523456283,65.59616061447014 29.159961900033522,65.31948861981073 29.327011353045236,65.03174876642879 29.476476653129794,64.76614186192455 29.62594195321435,64.45626606500446 29.81057555921143,64.12425499796518 30.012793318135664,63.75904128914408 30.241387306537945,63.338490177775384 30.461189218447544,62.95113858347759 30.637030747893732,62.65232326037949 30.821664353949018,62.36457415400946 31.006297959946096,62.08789137942949 31.138179107103497,61.87761185348063 31.314020636607893,61.60092745444126 31.533822548459284,61.27997239517572 31.62174331326969,60.992218527440855 31.762416536861565,60.66019359333586 31.955842219351325,60.36137001613679 32.20202036068076,60.12895093395491 32.4481985020102,59.92973405938392 32.615247955021914,59.65304316196125 32.755921178672,59.44275746252242 32.870218172844034,59.332080564468924 32.97572309052339,59.088590868799656 33.07243593176827,58.84510045828938 33.17794084950583,58.69015164301527 33.380158608430065,58.6348127102392 33.4944556026021,58.64588049973099 33.6263367497595,58.524134733961546 33.74942582042422,58.38025314395054 33.9340594264213,58.1920999188078 34.12748510891106,57.9264711095675 34.31211871490814,57.71618103221408 34.28574248543009,57.45055069862428 34.27695040899562,57.18491951414762 34.329702867835294,56.90821945897915 34.523128550325055,56.64258653741126 34.7253463093075,56.421225119484006 34.87481160933385,56.15559063800174 34.99790068005677,55.81247817345866 35.17374220956117,55.55790994369454 35.45508865674492,55.292272696853615 35.65730641572736,55.04877113974362 35.78918756288476,54.78313226201135 35.91227663354948,54.46215081609262 36.04415778070688,54.174373291039956 36.343088380876,54.00834734154341 36.589266522205435,53.953005284507526 36.747523898782674,53.65415753832349 36.85302881646203,53.33317172242823 36.905781275301706,53.04539027939609 36.97611788712675,52.73547068538028 37.05524657538626,52.37020681966533 37.15195941663114,52.03814736370987 37.16954356961651,51.90532320901548 37.23988018138334,51.639674261379696 37.283840563788544,51.307611879987235 37.37176132854074,50.964479355548974 37.46847416978562,50.56600109364081 37.55639493453782,50.200727671326604 37.61793946987018,49.79117676921305 37.6970681581879,49.49231402340956 37.77619684644742,49.13810492979246 37.87290968763409,48.761756109837734 37.916870070039295,48.385405581691884 37.99599875835702,48.04226096430648 38.08391952305101,47.6548379152664 38.16304821136873,47.300620971982426 38.2245927467593,47.01281859129813 38.29492935852613,46.64752951563423 38.33888974087313,46.370794295966334 38.426810505683534,46.13833599766076 38.44439465861069,45.994432914936624 38.50593919394305,45.673417445781524 38.56748372927541,45.3302616042929 38.65540449402761,44.95389549988613 38.72574110585265,44.59966701738449 38.78728564118501,44.389343139802804 38.79607771767769,44.24543702141091 38.831246023532,43.99083327699918 38.91037471179152,43.6255308867112 38.971919247182086,43.238087198740686 39.05104793549981,42.90599116796511 39.11259247077396,42.68459307504236 39.156552853179164,42.4742643391437 39.182929082599,42.363564790146484 39.24447361793136,42.24179511551483 39.26205777085852,42.12002526198921 39.226889465004206,41.89862507016369 39.25326569436584,41.61080393684824 39.29722607677104,41.33405190479971 39.36756268859608,41.15693011941039 39.4466913768556,41.0130183901565 39.728037824097555,41.07943921932019 40.01817634777399,41.19014048301324 40.31710694800131,41.26763127961749 40.492948477505706,41.28977149392449 40.53690885991091,41.04622881139949 40.52811678341823,40.78054506906483 40.54570093634538,40.48164984115283 40.56328508933075,40.10526172490063 40.58086924231611,39.71780158495676 40.65999793057563,39.4078321691195 40.554493012838066,39.17535434666934 40.34348317742115,39.153213567660714 40.03576050075935,39.208565504071885 39.74562197708292,39.27498777896835 39.71924574760487,39.06465039256 39.763206130010076,38.73253764316905 39.83354274183512,38.40042356328195 39.89508727716748,38.07937868792942 39.99180011835415,37.714050248447165 40.06213673017919,37.37086145988724 40.10609711258439,37.049812597244454 40.15005749493139,36.73983320523257 40.18522580084391,36.4852064088991 40.21160203026375,36.27486194381345 40.176433724409435,36.1641541161589 40.31710694800131,36.04237533504056 40.52811678341823,35.96487965386768 40.51053263049107,35.798817236034665 40.36985940684099,35.69917962564068 40.387443559768144,35.4999040455732 40.37865148333367,35.38919518297189 40.58086924231611,35.411336967335956 40.747918695327826,35.411336967335956 40.91496814833954,35.43347874574829 41.05564137198962,35.411336967335956 41.23148290149402,35.36705339269247 41.380948201578576,35.3116988911861 41.39853235450573,35.02385488733853 41.442492736910935,34.54780299513368 41.504037272243295,34.1713879355666 41.53041350166313,33.883539971931896 41.53041350166313,33.68426002697379 41.5479976546485,33.496050750145514 41.565581807575654,33.32998338626203 41.38974027807126,33.24141398948268 41.1523542132345,33.23034280822321 40.967720607237425,33.152844498057675 40.79187907773303,33.08641731739044 40.519324706925545,33.04213250071916 40.18522580084391,32.96463401460642 39.886295200674795,32.90927790871501 39.578572524013,32.80963682496076 39.24447361793136,32.765351860405644 38.95433509425493,32.67678186032572 38.78728564118501,32.55499795562355 38.54110749985557,32.57714049705828 38.233384823193774,32.56606922705396 37.92566214653198,32.55499795562355 37.6091473933775,32.53285540830257 37.283840563788544,32.499641576177964 37.002494116546586,32.4553564460075 36.67718728695763,32.42214258284366 36.51013783388771,32.41107129214652 36.466177451540716,32.47749901404313 36.40463291620836,32.68785311548709 36.343088380876,32.92034913284442 36.30792007496348,33.10855971687852 36.29033592197811,33.32998338626203 36.25516761606559,33.51819304016681 36.176038927806076,33.728544500605494 36.08811816305388,33.89461106595991 36.00019739830168,34.093890505231684 35.947444939462,34.25995633867569 35.88590040412964,34.43709286094236 35.78039548639208,34.614229004699155 35.71005887456704,34.79136476993881 35.63093018630752,34.96850015662494 35.52542526856996,35.18991885770811 35.40233619790524,35.322769794445776 35.34079166263109,35.62168362365628 35.23528674489353,35.876313072425546 35.09461352130165,36.186295693514694 34.95394029765157,36.51841864409653 34.786890844639856,36.8505402640003 34.64621762098977,37.16051924206113 34.51433647389058,37.43728520727018 34.364871173747815,37.74726199128054 34.206613797170576,38.04616707817331 34.08352472650586,38.322930086527776 33.951643579406664,38.599692170850176 33.88130696758162,38.75467853452574 33.81976243224926,38.81003073701868 33.71425751456991,38.90966460844356 33.670297132164706,39.1200023880956 33.6263367497595,39.42997288011975 33.45049522025511,39.71780158495676 33.33619822608307,39.9724184523584 33.265861614316236,40.1384725097887 33.33619822608307,40.23810478459927 33.599960520339664,40.27131551624916 33.91647527349414,40.282385757163865 34.25057417957578,40.32666670613253 34.56708893273026,40.37094763141067 34.901187838753685,40.42629875474813 35.226494668400846,40.4705796268463 35.507841115642805,40.51486047524668 35.79797963931924,40.52593068363785 35.93865286296932,40.45950941103365 36.00019739830168,40.23810478459927 36.0353657042142,40.03884011525952 36.0353657042142,39.950277886258846 36.176038927806076,39.9945590125717 36.22879138664575,40.19382378835871 36.18483100429876,40.53700089058839 36.114494392473716,40.90231689000939 36.04415778070688,41.24549105940241 35.96502909238916,41.64401411864674 35.9034845570568,42.00932524000382 35.8155637923046,42.341424862563144 35.771603409957606,42.66245323324256 35.69247472163988,42.961340598798415 35.67489056865452,43.27129672864976 35.6836826451472,43.58125169969571 35.4638807332376,43.857996230399294 35.375959968485404,44.112600382752134 35.288039203733206,44.43362189520849 35.252870897820685,44.69929393105849 35.23528674489353,45.009243563567 35.39354412147077,45.14207876563887 35.375959968485404,45.47416583976883 35.32320750964573,45.828390586066234 35.21770259196637,46.26009994948981 35.129781827155966,46.63646012458776 35.08582144480897,46.99067990524054 35.05065313883824,47.344898172632384 35.04186106240377,47.676976423979795 35.033068985911086,48.00905334530398 35.033068985911086,48.363267262138834 35.01548483298393,48.73961789075838 35.00669275649125,49.0716905562731 34.97152445057873,49.41483091347618 34.94514822115889,49.70262495682255 34.88360368582653,50.056831638932636 34.83085122698685,50.422105695128266 34.75172253866913,50.74310277977929 34.80447499756701,51.07516742178268 34.75172253866913,51.42936824088247 34.681385926902294,51.78356754697597 34.50554439733969,52.093490698702226 34.31211871490814,52.348069563973695 34.03956434415886,52.547304652427556 33.793386202829424,52.7686764115424 33.55600013799267,52.9789790353243 33.33619822608307,53.211418156846776 33.23948538483819,53.366377209240454 33.12518839066615,53.488130547288165 32.99330724350875,53.698431346492725 32.89659440226387,53.91980003256322 32.79108948458452,54.24078357777762 32.624040031514596,54.572834213664464 32.4481985020102,54.88274694089341 32.28994112543296,55.159453754342394 32.210812437173445,55.41402320727502 32.19322828418808,55.657523691887036 32.36906981369248,55.79034183666954 32.33390150783816,56.1002500139366 32.24598074302776,56.35481657888158 32.28994112543296,56.44336128784198 32.184436207753606,56.33268038685492 32.008594678191,56.57617817407299 31.815168995701242,56.90821945897915 31.62174331326969,57.11851158511854 31.384357248374727,57.36200706498494 31.24368402478285,57.67190936901898 31.17334741295781,57.9264711095675 31.006297959946096,58.16996421723161 30.883208889281377,58.214235614519566 30.628238671459258,58.214235614519566 30.373268453695346,58.18103206876549 30.074337853468023,58.13676065371692 29.757823100371752,58.13676065371692 29.511644959042314,58.147828509689134 29.362179658957757,58.20316776740947 29.291843047132716,58.20316776740947 29.212714358814992,58.41345660993102 29.054456982237753,58.6348127102392 29.02808075287612,58.9004392507195 28.948952064558398,59.154997220335645 28.817070917400997,59.36528364939295 28.79948676447384,59.4538251442209 28.6412293878966,59.61984019224474 28.403843323059846,59.84119307266519 28.219209717062768,60.07361296124873 28.315922558307648,60.23962676861993 28.368675017147325,60.339234893493995 28.421427475987002,60.52738324752136 28.456595781899523,60.77086871904612 28.44780370546505,61.014353475751705 28.41263539949432,60.8594087133024 28.228001793497242,60.947948613036715" stroke="#4DD2FF" stroke-dasharray="none" stroke-linecap="round" stroke-linejoin="round" stroke-width="0.5"><title>2017-12-17 14.0km</title><desc>9223370523376934807</desc></polyline><polyline fill="none" opacity="1" points="100.57153730245773,32.40000000000873 100.46001782873645,32.73330641807115 100.57153730245773,32.89118811086519 100.62729703926016,33.66305143717909 100.58547723671654,33.943727887643036 100.76669638138264,34.25948817867902 100.82245611818507,34.55770553552429 100.87821585504571,34.873464352975134 100.89215578924632,35.294474930880824 100.92003565764753,35.66285808137036 100.97579539450817,35.96107225737069 101.0315551313106,36.29436965404602 101.12913467083126,36.592582398603554 101.14307460491545,36.90833633260627 101.2127742760349,37.259173148311675 101.32429374969797,37.52230014605448 101.50551289436407,37.574925482520484 101.61703236796893,37.75034311854688 101.56127263122471,37.89067705902562 101.35217361809919,37.995927416108316 101.35217361809919,38.24151125532808 101.46369309176225,38.50463628863508 101.60309243382653,38.85546884786163 101.7146119074896,39.17121735130786 101.78431157849263,39.46942357553053 101.93765085481573,39.7851706056681 102.10493006528122,40.08337543842208 102.25826934154611,40.36403819301631 102.21644953894429,40.66224171379872 101.9097709863563,40.67978307635349 101.64491223642835,40.486827959888615 101.44975315750344,40.346496788348304 101.24065414443612,40.293872560490854 101.01761519710999,40.36403819301631 100.73881651292322,40.38157959532691 100.61335710505955,40.53945211060636 100.62729703926016,40.80257254856406 100.57153730245773,41.04815114925441 100.27879868412856,41.153398980692145 99.99999999994179,41.276188010917394 99.70726138155442,41.29372929164674 99.47028250008589,41.276188010917394 99.51210230268771,40.99552720198699 99.59574190794956,40.67978307635349 99.69332144747023,40.38157959532691 99.77696105267387,40.01320965620107 99.84666072373511,39.62729718530318 99.8327207894763,39.25892513449071 99.77696105267387,38.90809365105815 99.73514125001384,38.57480287530052 99.42846269742586,38.50463628863508 99.1496640133555,38.46955298127432 99.02420460549183,38.294136304059066 99.01026467129122,38.11871939302364 98.99632473703241,37.87313532461121 98.94056500022998,37.697717852308415 98.75934585550567,37.66263432975393 98.56418677658075,37.627550797886215 98.39690756611526,37.66263432975393 98.39690756611526,37.89067705902562 98.41084750037408,38.171344490896445 98.43872736877529,38.53971958666807 98.43872736877529,38.837927242100704 98.46660723723471,39.17121735130786 98.48054717137711,39.52204813316348 98.46660723723471,39.855336509484914 98.46660723723471,40.1710826135386 98.48054717137711,40.50436934582831 98.46660723723471,40.785031202438404 98.48054717137711,41.135857681321795 98.49448710557772,41.381435659961426 98.50842703977833,41.62701318024483 98.49448710557772,41.83750783283904 98.48054717137711,42.11816684588848 98.4526673029759,42.38128412689548 98.42478743451647,42.556695355218835 98.39690756611526,42.802270682062954 98.38296763197286,43.04784555057995 98.36902769771405,43.29341996082803 98.36902769771405,43.503911947627785 98.36902769771405,43.81964929646347 98.38296763197286,44.13538588775555 98.36902769771405,44.50374428667419 98.36902769771405,44.83702004481165 98.36902769771405,45.135213428671705 98.38296763197286,45.41586540796561 98.39690756611526,45.784220222354634 98.39690756611526,46.15257400558039 98.39690756611526,46.380602021323284 98.38296763197286,46.696332467734464 98.38296763197286,46.88927847870218 98.34114782931283,47.16992671688786 98.36902769771405,47.41549343429506 98.39690756611526,47.67860012300662 98.43872736877529,47.994327455046005 98.49448710557772,48.29251368418045 98.52236697397893,48.66086044612166 98.59206664509838,49.04674642410828 98.68964618450264,49.43263127063983 98.8011656581075,49.730814240596374 98.91268513182877,50.01145641868061 99.02420460549183,50.344718227672274 99.1357240791549,50.64289913099492 99.23330361855915,50.81829934667621 99.30300328962039,51.02877929691749 99.41452276328346,51.23925891054387 99.52604223694652,51.46727811207529 99.56786203954834,51.712836810271256 99.59574190794956,51.870695731427986 99.76302111847326,52.01101461358485 99.86060065787751,52.151333346017054 99.98606006574119,52.344271358830156 100.11151947360486,52.5196693068865 100.22303894732613,52.74768628984748 100.36243828939041,52.940623428381514 100.54365743405651,53.13356028404087 100.73881651292322,53.37911587303097 100.93397559178993,53.659750270904624 101.10125480231363,53.905304878091556 101.2267142101773,54.11577989098441 101.28247394709615,54.25609637926391 101.46369309176225,54.554268420062726 101.64491223642835,54.78228187777859 101.81219144695206,55.045373838132946 101.97947065735934,55.34354409066145 102.13280993362423,55.589095556075335 102.28614920994733,55.85218590349541 102.45342842041282,56.13281502769678 102.63464756519534,56.43098281649873 102.81586670980323,56.74668915060465 103.01102578872815,57.04485554865096 103.19224493345246,57.32548212959955 103.38740401237737,57.6061081122607 103.58256309124408,57.9393506894412 103.7916621043696,58.27259242279979 103.97288124903571,58.55321638594614 104.15410039381823,58.85137869112077 104.3074396700249,59.1320014201483 104.46077894628979,59.37754581718764 104.61411822255468,59.60555091853894 104.78139743307838,59.886172039434314 104.96261657774448,60.1667925620568 105.10201591986697,60.39479629608104 105.28323506453307,60.640338337179855 105.47839414339978,60.920957251713844 105.64567335392348,61.219114192877896 105.79901263018837,61.44711610391096 105.96629184071207,61.7628104055766 106.14751098537818,62.096042458026204 106.34267006430309,62.42927366679942 106.5238892089692,62.72742719108646 106.7051083536353,63.02558003990271 106.94208723516203,63.358808895238326 107.10936644568574,63.639422013788135 107.24876578780822,63.88495800171222 107.42998493241612,64.14803176622081 107.61120407714043,64.46371958953387 107.79242322180653,64.81448294963047 107.97364236653084,65.14770727584255 108.0991017743363,65.39324045008107 108.26638098486,65.74400133303425 108.39184039278189,66.05968532845145 108.50335986638675,66.42798236620729 108.55911960324738,66.65597525409248 108.55911960324738,66.83135412985575 108.4197202611249,67.02427062331117 108.4336601953255,66.98919491826382 108.55911960324738,66.93658134317957 108.69851894525345,67.0768841633544 108.7821585505153,67.30487592723512 108.87973808997776,67.58548063292983 108.99125756369904,67.90116021178255 109.1167169715045,68.25191441146308 109.24217637936817,68.60266767644498 109.36763578723185,68.97095759873628 109.42339552409248,69.1463333900465 109.54885493195616,69.47954674976063 109.67431433981983,69.79522178607294 109.7858338134829,70.04074629099341 109.88341335288715,70.33888257404033 109.967052958149,70.60194343951298 110.02281269500963,70.8474664396199 110.12039223441388,71.14560089554288 110.23191170807695,71.4437346761406 110.34343118174002,71.77694222016726 110.42707078700187,72.04000021172396 110.53859026066493,72.37320624632412 110.63616980006918,72.63626304628269 110.74768927379046,72.93439345071965 110.87314868165413,73.21498615578457 110.97072822105838,73.51311524948687 111.11012756312266,73.8463175551733 111.20770710258512,74.10937141130853 111.333166510507,74.40749847942789 111.41680611571064,74.61794070921314 111.51438565511489,74.88099302339833 111.63984506303677,75.05636094082729 111.6816648656386,75.17911834397819 111.66772493137978,75.40709607471945 111.61196519463556,75.60000000000582 111.41680611571064,75.49477971214219 111.22164703684393,75.23172862452338 111.02648795791902,74.95114021838526 110.80344901059289,74.67055121409066 110.52465032646433,74.33735099474143 110.23191170807695,74.05676068215689 109.98099289240781,73.82878061276278 109.73007407662226,73.56572619595681 109.49309519509552,73.33774527614878 109.22823644516757,73.02207873527368 108.97731762944022,72.81163395418844 108.72639881371288,72.5661146176426 108.44760012958432,72.26798337913351 108.19668131385697,72.02246302861022 107.93182256387081,71.77694222016726 107.62514401134104,71.4963464497414 107.36028526141308,71.2858992293477 107.0257268404821,71.09298898177803 106.71904828789411,70.9877650912531 106.3705499326461,70.90007845153741 106.03599151171511,70.86500377926859 105.6735532223247,70.7773170577857 105.3250548671349,70.68963027784775 105.03231624880573,70.63701818186382 104.69775782781653,70.54933130848804 104.37713934108615,70.54933130848804 103.98682118323632,70.44410698332649 103.6104429596453,70.33888257404033 103.48498355172342,70.30380775229423 103.27588453871431,70.25119550206 103.09466539399,70.23365808068775 102.87162644666387,70.1985832308419 102.67646736773895,70.16350837165373 102.48130828887224,70.14597093853808 102.30008914414793,70.0933586252795 102.0631102626212,70.04074629099341 101.82613138109446,70.00567138973565 101.65885217062896,69.9355215592368 101.46369309176225,69.8829091618536 101.17095447337488,69.76014681941888 100.80851618398447,69.61984685937932 100.44607789465226,69.47954674976063 100.12545940786367,69.37432156941213 99.81878085527569,69.28663385486288 99.4842224342865,69.19894608184404 99.1357240791549,69.09372067714867 98.77328578976449,68.98849518840143 98.38296763197286,68.9008072168217 98.00658940832363,68.74296872076229 97.72779072419507,68.6903558466729 97.33747256640345,68.58513003542612 97.03079401387367,68.42729116079863 96.7519953296869,68.3396028153802 96.48713657970075,68.25191441146308 96.18045802717097,68.14668824968976 95.84589960618177,68.00638656984665 95.49740125099197,67.81347151585214 95.17678276420338,67.58548063292983 94.8561642775312,67.39256496200687 94.57736559334444,67.09442200533522 94.36826658027712,66.7787404916744 94.21492730401224,66.51567198518023 94.13128769875038,66.25260295296903 94.01976822508732,66.07722330602701 93.85248901462182,65.81415339744126 93.75490947510116,65.63877316632716 93.61551013303688,65.35816431039711 93.43429098831257,65.04247863240016 93.25307184370467,64.69171587993333 93.09973256743979,64.305875772523 92.89063355425606,63.90249626907462 92.68153454113053,63.48157720822201 92.48637546226382,63.09573355325847 92.33303618599894,62.8151192755613 92.17969690973405,62.42927366679942 91.98453783075092,62.025888411837514 91.80331868614303,61.62250192051579 91.59421967307571,61.201575568004046 91.38512065989198,60.780647869280074 91.20390151516767,60.37725756134023 90.99480250210036,59.99140480553615 90.79964342323365,59.58801207858778 90.63236421270994,59.202157008854556 90.45114506798564,58.8163008078991 90.28386585752014,58.465521461723256 90.13052658125525,58.11474118058686 89.94930743653094,57.7990381281852 89.8517278971267,57.50087343889754 89.74020842346363,57.16762975146412 89.61474901559995,56.799306799366605 89.53110941039631,56.39590428810334 89.44746980507625,55.992500540363835 89.40565000253264,55.69433175813174 89.3498902656138,55.25584702769993 89.29413052881137,54.83490031196561 89.26625066035194,54.46657083113678 89.22443085775012,54.02808200985601 89.16867112094769,53.71236915385816 89.16867112094769,53.37911587303097 89.15473118674709,52.97570287770941 89.12685131834587,52.64244773139944 89.15473118674709,52.27411211420258 89.16867112094769,51.81807611210388 89.15473118674709,51.46727811207529 89.12685131834587,51.09893920553441 89.02927177888341,50.74813928845106 88.95957210782217,50.29209799821547 88.97351204202278,49.94129593024263 88.94563217362156,49.537872395987506 88.90381237101974,49.20460854357225 88.86199256835971,48.8888841153821 88.80623283155728,48.50299767439719 88.87593250261853,48.09956973073713 88.94563217362156,47.67860012300662 88.94563217362156,47.34533156182442 88.94563217362156,47.117305217834655 88.98745197628159,46.941900068937684 88.95957210782217,46.696332467734464 88.90381237101974,46.380602021323284 88.88987243676092,46.06487081738305 88.84805263421731,45.714057480028714 88.82017276575789,45.345702469247044 88.80623283155728,45.04750956238422 88.72259322635364,44.64407102452242 88.69471335789422,44.24063124983513 88.6668334894348,43.81964929646347 88.63895362109179,43.46882997316425 88.59713381843176,43.13555074975011 88.55531401582994,42.732106349780224 88.52743414742872,42.57423646518146 88.54137408162933,42.20587266466464 88.55531401582994,41.83750783283904 88.52743414742872,41.48668322474987 88.4995542789693,41.20602286484791 88.45773447636748,40.8376552338741 88.40197473956505,40.46928657166427 88.40197473956505,40.100916878102 88.42985460796626,39.7851706056681 88.42985460796626,39.39925746592053 88.34621500270441,38.978260022588074 88.3322750685038,38.662511056056246 88.30439520010259,38.311677982332185 88.34621500270441,38.08363598275173 88.34621500270441,37.94330224812438 88.3183351343032,37.68017609222443" stroke="#4DD2FF" stroke-dasharray="none" stroke-linecap="round" stroke-linejoin="round" stroke-width="0.5"><title>2017-11-19 11.8km</title><desc>9223370525802103807</desc></polyline><polyline fill="none" opacity="0.5" points="175.43724955804646,73.92993153934367 174.3104137899354,74.26394545444055 172.3384511959739,73.37324143352453 170.74210052425042,73.15056530456059 169.23965283343568,73.039227221685 167.5493991812691,73.15056530456059 166.8920783167705,73.2619033754454 165.10792168369517,73.70725553407101 162.85425014747307,72.70521289831959 161.25789947621524,71.36915449029766 159.8493547658436,71.70316925924271 158.25300409412012,71.1464779159287 156.8444593846798,70.92380129144294 155.71762361656874,71.1464779159287 154.59078784799203,70.81246296095196 153.46395207988098,70.36710951454006 152.055407369975,70.4784478948568 150.8346686209552,71.03513960994314 148.76880304608494,70.36710951454006 147.6419672779739,69.69907897384837 147.07854939391837,68.47435515781399 146.32732554897666,67.2496298441547 146.2334225680679,65.46820853248937 146.42122852941975,63.909462284646 146.42122852941975,62.12803503050236 146.2334225680679,60.56928358366713 146.2334225680679,58.453831310151145 145.95171362580732,57.3404335816158 145.76390766445547,55.67033466754947 146.13951958715916,54.11157316813478 146.13951958715916,52.77548995165853 146.51513150986284,51.6620859093382 146.2334225680679,50.21465880336473 146.70293747121468,48.655888811219484 146.6090344907716,46.98577541258419 146.89074343303218,45.98370603600051 146.98464641347528,43.979564275126904 146.89074343303218,42.19810156407766 146.98464641347528,40.639319092268124 147.07854939391837,39.41455973347183 147.36025833617896,37.967114923521876 147.6419672779739,36.40832586516626 147.36025833617896,34.84953437978402 147.36025833617896,33.736110404424835 147.17245237482712,32.399999999965075 147.36025833617896,33.736110404424835 147.36025833617896,34.84953437978402 147.6419672779739,36.40832586516626 147.36025833617896,37.967114923521876 147.07854939391837,39.41455973347183 146.98464641347528,40.639319092268124 146.89074343303218,42.19810156407766 146.98464641347528,43.979564275126904 146.89074343303218,45.98370603600051 146.6090344907716,46.98577541258419 146.70293747121468,48.655888811219484 146.2334225680679,50.21465880336473 146.51513150986284,51.6620859093382 146.13951958715916,52.77548995165853 146.13951958715916,54.11157316813478 145.76390766445547,55.67033466754947 145.95171362580732,57.3404335816158 146.2334225680679,58.453831310151145 146.2334225680679,60.56928358366713 146.42122852941975,62.12803503050236 146.42122852941975,63.909462284646 146.2334225680679,65.46820853248937 146.32732554897666,67.2496298441547 147.07854939391837,68.47435515781399 147.6419672779739,69.69907897384837 148.76880304608494,70.36710951454006 150.8346686209552,71.03513960994314 152.055407369975,70.4784478948568 153.46395207988098,70.36710951454006 154.59078784799203,70.81246296095196 155.71762361656874,71.1464779159287 156.8444593846798,70.92380129144294 158.25300409412012,71.1464779159287 159.8493547658436,71.70316925924271 161.25789947621524,71.36915449029766 162.85425014747307,72.70521289831959 165.10792168369517,73.70725553407101 166.8920783167705,73.2619033754454 167.5493991812691,73.15056530456059 169.23965283343568,73.039227221685 170.74210052425042,73.15056530456059 172.3384511959739,73.37324143352453 174.3104137899354,74.26394545444055 175.43724955804646,73.92993153934367 176.75189128750935,74.15260749531444 178.160435997881,74.15260749531444 179.38117474643514,74.59795925789513 180.69581647543237,74.59795925789513 181.82265224400908,74.82063506502891 183.13729397347197,75.04331082268618 184.7336446447298,75.59999999997672 186.2360923360102,75.37732436618535" stroke="#4DD2FF" stroke-dasharray="1,0.5" stroke-linecap="round" stroke-linejoin="round" stroke-width="0.5"><title>2014-03-22 10.5km</title><desc>9223370641410674807</desc></polyline><polyline fill="none" opacity="1" points="55.600000000034925,101.54815785828396 55.48810925357975,101.54815785828396 55.33553096302785,101.58529635563173 55.193124558543786,101.58529635563173 55.06089004006935,101.58529635563173 54.92865552153671,101.57291685802193 54.77607723098481,101.54815785828396 54.64384271251038,101.56053735893511 54.501436308026314,101.57291685802193 54.348858017416205,101.56053735893511 54.2267953849514,101.57291685802193 54.114904638554435,101.57291685802193 53.962326348002534,101.58529635563173 53.85043560160557,101.57291685802193 53.718201083131135,101.53577835618489 53.58596656459849,101.51101934742474 53.45373204618227,101.53577835618489 53.321497527707834,101.56053735893511 53.2197786673205,101.56053735893511 53.05702849070076,101.52339885256515 52.934965858235955,101.51101934742474 52.82307511183899,101.51101934742474 52.70101247943239,101.4986398408364 52.548434188822284,101.51101934742474 52.39585589827038,101.51101934742474 52.27379326586379,101.53577835618489 52.131386861321516,101.4986398408364 52.01949611486634,101.4986398408364 51.87708971038228,101.4986398408364 51.75502707797568,101.48626033274195 51.60244878742378,101.46150131201284 51.47021426889114,101.4367422853029 51.29729220626177,101.46150131201284 51.14471391570987,101.46150131201284 51.00230751122581,101.48626033274195 50.83955733460607,101.47388082314137 50.717494702141266,101.47388082314137 50.6056039557443,101.46150131201284 50.47336943726987,101.48626033274195 50.35130680480506,101.47388082314137 50.21907228633063,101.46150131201284 50.076665881846566,101.47388082314137 49.96477513539139,101.47388082314137 49.82236873084912,101.47388082314137 49.69013421237469,101.51101934742474 49.56807157996809,101.4986398408364 49.44600894750329,101.51101934742474 49.303602542961016,101.4986398408364 49.16119613847695,101.4986398408364 49.03913350601215,101.4986398408364 48.89672710146988,101.4986398408364 48.78483635507291,101.4986398408364 48.662773722666316,101.4986398408364 48.54071109020151,101.4986398408364 48.38813279964961,101.47388082314137 48.25589828117518,101.4367422853029 48.123663762642536,101.46150131201284 47.98125735815847,101.44912179942912 47.82867906760657,101.4367422853029 47.69644454913214,101.44912179942912 47.564210030657705,101.44912179942912 47.431975512125064,101.48626033274195 47.29974099365063,101.47388082314137 47.15733458916657,101.46150131201284 47.014928184624296,101.44912179942912 46.88269366614986,101.44912179942912 46.75045914767543,101.42436276967783 46.5877089711139,101.4367422853029 46.475818224658724,101.41198325259757 46.323239934048615,101.42436276967783 46.17066164355492,101.42436276967783 46.03842712502228,101.44912179942912 45.88584883452859,101.41198325259757 45.73327054391848,101.37484469230549 45.58069225336658,101.37484469230549 45.43828584882431,101.35008564461168 45.30605133040808,101.33770611849468 45.16364492586581,101.35008564461168 45.061926065478474,101.35008564461168 44.9195196609362,101.37484469230549 44.7974570284714,101.41198325259757 44.6753943960648,101.4367422853029 44.5228161055129,101.4367422853029 44.39058158703847,101.4367422853029 44.258347068564035,101.41198325259757 44.13628443609923,101.41198325259757 44.024393689702265,101.4367422853029 43.86164351308253,101.42436276967783 43.73958088067593,101.41198325259757 43.60734636214329,101.4367422853029 43.475111843668856,101.41198325259757 43.34287732519442,101.38722421392595 43.19029903464252,101.38722421392595 43.06823640217772,101.37484469230549 42.946173769712914,101.36246516919346 42.78342359315138,101.32532659091521 42.65118907461874,101.37484469230549 42.48843889805721,101.35008564461168 42.35620437958278,101.33770611849468 42.23414174717618,101.35008564461168 42.08156345656607,101.35008564461168 41.93915705208201,101.33770611849468 41.80692253354937,101.33770611849468 41.64417235698784,101.35008564461168 41.53228161059087,101.36246516919346 41.37970331998076,101.38722421392595 41.2678125735838,101.31294706182962 41.115234283031896,101.31294706182962 40.99317165056709,101.31294706182962 40.85076524608303,101.30056753122335 40.70835884154076,101.31294706182962 40.586296209075954,101.33770611849468 40.44388980459189,101.30056753122335 40.31165528611746,101.31294706182962 40.169248881575186,101.28818799914734 40.02684247709112,101.28818799914734 39.90477984462632,101.27580846557248 39.79288909822935,101.22629031622637 39.66065457969671,101.22629031622637 39.52842006122228,101.23866985579662 39.37584177067038,101.26342893046967 39.24360725219594,101.25104939386802 39.12154461973114,101.30056753122335 38.989310101256706,101.30056753122335 38.82655992463697,101.30056753122335 38.69432540622074,101.31294706182962 38.5620908876881,101.27580846557248 38.440028255281504,101.27580846557248 38.32813750882633,101.28818799914734 38.18573110428406,101.27580846557248 38.03315281373216,101.28818799914734 37.900918295257725,101.25104939386802 37.738168118696194,101.23866985579662 37.63644925830886,101.25104939386802 37.49404285376659,101.25104939386802 37.18888627272099,101.26342893046967 36.89390157762682,101.23866985579662 36.72097951499745,101.1767721428696 36.32427595957415,101.28818799914734 35.98860372026684,101.26342893046967 35.74447845539544,101.18915168846434 35.5206969625433,101.18915168846434 35.25622792559443,101.13963349718688 35.062962090887595,101.15201304724178 34.76797739579342,101.15201304724178 34.493336472834926,101.28818799914734 34.22886743588606,101.21391077514272 33.91353896871442,101.36246516919346 30.017706616432406,101.13963349718688 29.763409465551376,101.05297660468932 29.529456086689606,101.1024948379345 29.18361196143087,101.13963349718688 28.898799152404536,101.05297660468932 28.57329879916506,101.00345834740438 28.32917353429366,100.9663196387337 25.01313868613215,101.00345834740438 24.718153991096187,100.97869920981611 24.38248175184708,100.9539400661597 24.13835648697568,100.9910787793633 23.90440310811391,100.91680133951013 23.578902754932642,100.87966259936366 23.27374617382884,100.92918091655156 22.97876147873467,100.91680133951013 20.425618083390873,100.89204218089435 20.04925830004504,100.91680133951013 19.845820579270367,100.91680133951013 19.65255474456353,100.90442176096985 19.5813515423215,100.89204218089435 19.398257593624294,100.84252384570573 19.18464798683999,100.89204218089435 18.96086649398785,100.87966259936366 18.767600659339223,100.80538507861638 18.533647280477453,100.79300548656465 18.279350129538216,100.79300548656465 18.01488109258935,100.86728301633411 17.913162232202012,100.74348710339109 16.733223451883532,100.85490343176934 16.478926300944295,100.80538507861638 16.27548858022783,100.80538507861638 15.97033199906582,100.79300548656465 15.685519190039486,100.81776466914016 15.421050153090619,100.81776466914016 15.126065457996447,100.83014425817237 14.87176830705721,100.75586670141638 14.617471156117972,100.79300548656465 14.383517777256202,100.75586670141638 14.047845538065303,100.7682462979792 13.854579703358468,100.71872790282941 13.488391806022264,100.78062589299225 13.13237579469569,100.7311075038815 13.010313162289094,100.80538507861638 13.071344478463288,101.07773572429869 13.061172592453659,101.25104939386802 13.101860136608593,101.53577835618489 12.939109959988855,101.62243483952625 12.87807864381466,101.41198325259757 12.786531669436954,101.25104939386802 12.613609606807586,101.31294706182962 12.481375088333152,101.56053735893511 12.400000000023283,101.69671176678821 12.430515658168588,102.01857782810112 12.481375088333152,102.31568406241422 12.542406404565554,102.6004100602222 12.603437720797956,102.9098939412579 12.65429715096252,103.20699758586125" stroke="#4DD2FF" stroke-dasharray="none" stroke-linecap="round" stroke-linejoin="round" stroke-width="0.5"><title>2013-12-10 10.9km</title><desc>9223370650177580807</desc></polyline><polyline fill="none" opacity="0.5" points="110.49274856690317,89.37668956816196 106.80299082957208,83.7662626572419 101.96018379833549,80.4000000001397 94.11944860499352,86.01043504965492 89.96847114898264,91.05981499678455 91.35213030129671,99.75594359473325 88.58481199666858,105.92736992868595 88.35420214012265,111.25722491787747 88.58481199666858,117.98965582833625 93.42761902883649,121.35586395906284 99.88469506986439,123.60000000009313 105.88055139407516,120.79482960957102 110.03152885008603,114.0624068370089 110.49274856690317,107.89100213861093 109.80091899074614,101.15854193037376 110.72335842624307,94.98710291530006 111.18457814306021,88.5351263966877 107.95604012254626,83.7662626572419 102.6520133735612,82.08313193893991 96.65615704935044,83.7662626572419 92.73578945267946,86.57147780805826 90.89091058447957,91.62085653445683 90.42969086673111,98.63386431708932 89.73786129057407,104.52477447572164 87.89298242237419,112.94033447606489 112.10701757762581,90.49877332313918 108.87847955711186,86.8519991368521 104.95811196044087,83.20521922083572 97.34798662550747,82.64417564729229 91.12152044288814,89.09616854530759 89.73786129057407,95.5481435037218 89.5072514321655,103.40269750310108 89.27664157282561,108.17152088950388 88.58481199666858,114.34292484284379 90.66030072513968,119.39224314200692 96.88676690869033,122.75844923895784 103.11323309037834,123.03896619309671 108.4172598393634,117.98965582833625 110.26213870756328,110.97670653951354 110.49274856690317,104.52477447572164 110.49274856690317,97.79230450256728 111.64579785987735,91.62085653445683 109.80091899074614,85.72991361888126 105.88055139407516,82.92469745082781 99.88469506986439,82.08313193893991 94.81127818115056,84.32730595883913 91.12152044288814,88.5351263966877 89.96847114898264,95.5481435037218 89.73786129057407,102.56113941781223 89.27664157282561,109.01307694031857 109.80091899074614,93.02345978678204 110.49274856690317,89.37668956816196 106.80299082957208,83.7662626572419 101.96018379833549,80.4000000001397 94.11944860499352,86.01043504965492 89.96847114898264,91.05981499678455 91.35213030129671,99.75594359473325 88.58481199666858,105.92736992868595 88.35420214012265,111.25722491787747 88.58481199666858,117.98965582833625 93.42761902883649,121.35586395906284 99.88469506986439,123.60000000009313 105.88055139407516,120.79482960957102 110.03152885008603,114.0624068370089 110.49274856690317,107.89100213861093 109.80091899074614,101.15854193037376 110.72335842624307,94.98710291530006 111.18457814306021,88.5351263966877 107.95604012254626,83.7662626572419 102.6520133735612,82.08313193893991 96.65615704935044,83.7662626572419 92.73578945267946,86.57147780805826 90.89091058447957,91.62085653445683 90.42969086673111,98.63386431708932 89.73786129057407,104.52477447572164 87.89298242237419,112.94033447606489 112.10701757762581,90.49877332313918 108.87847955711186,86.8519991368521 104.95811196044087,83.20521922083572 97.34798662550747,82.64417564729229 91.12152044288814,89.09616854530759 89.73786129057407,95.5481435037218 89.5072514321655,103.40269750310108 89.27664157282561,108.17152088950388 88.58481199666858,114.34292484284379 90.66030072513968,119.39224314200692 96.88676690869033,122.75844923895784 103.11323309037834,123.03896619309671 108.4172598393634,117.98965582833625 110.26213870756328,110.97670653951354 110.49274856690317,104.52477447572164 110.49274856690317,97.79230450256728 111.64579785987735,91.62085653445683 109.80091899074614,85.72991361888126 105.88055139407516,82.92469745082781 99.88469506986439,82.08313193893991 94.81127818115056,84.32730595883913 91.12152044288814,88.5351263966877 89.96847114898264,95.5481435037218 89.73786129057407,102.56113941781223 89.27664157282561,109.01307694031857 109.80091899074614,93.02345978678204 110.49274856690317,89.37668956816196 106.80299082957208,83.7662626572419 101.96018379833549,80.4000000001397 94.11944860499352,86.01043504965492 89.96847114898264,91.05981499678455 91.35213030129671,99.75594359473325 88.58481199666858,105.92736992868595 88.35420214012265,111.25722491787747 88.58481199666858,117.98965582833625 93.42761902883649,121.35586395906284 99.88469506986439,123.60000000009313 105.88055139407516,120.79482960957102 110.03152885008603,114.0624068370089 110.49274856690317,107.89100213861093 109.80091899074614,101.15854193037376 110.72335842624307,94.98710291530006 111.18457814306021,88.5351263966877 107.95604012254626,83.7662626572419 102.6520133735612,82.08313193893991 96.65615704935044,83.7662626572419 92.73578945267946,86.57147780805826 90.89091058447957,91.62085653445683 90.42969086673111,98.63386431708932 89.73786129057407,104.52477447572164 87.89298242237419,112.94033447606489 112.10701757762581,90.49877332313918 108.87847955711186,86.8519991368521 104.95811196044087,83.20521922083572 97.34798662550747,82.64417564729229 91.12152044288814,89.09616854530759 89.73786129057407,95.5481435037218 89.5072514321655,103.40269750310108 89.27664157282561,108.17152088950388 88.58481199666858,114.34292484284379 90.66030072513968,119.39224314200692 96.88676690869033,122.75844923895784 103.11323309037834,123.03896619309671 108.4172598393634,117.98965582833625 110.26213870756328,110.97670653951354 110.49274856690317,104.52477447572164 110.49274856690317,97.79230450256728 111.64579785987735,91.62085653445683 109.80091899074614,85.72991361888126 105.88055139407516,82.92469745082781 99.88469506986439,82.08313193893991 94.81127818115056,84.32730595883913 91.12152044288814,88.5351263966877 89.96847114898264,95.5481435037218 89.73786129057407,102.56113941781223 89.27664157282561,109.01307694031857 109.80091899074614,93.02345978678204 110.49274856690317,89.37668956816196 106.80299082957208,83.7662626572419 101.96018379833549,80.4000000001397 94.11944860499352,86.01043504965492 89.96847114898264,91.05981499678455 91.35213030129671,99.75594359473325 88.58481199666858,105.92736992868595 88.35420214012265,111.25722491787747 88.58481199666858,117.98965582833625 93.42761902883649,121.35586395906284 99.88469506986439,123.60000000009313 105.88055139407516,120.79482960957102 110.03152885008603,114.0624068370089 110.49274856690317,107.89100213861093 109.80091899074614,101.15854193037376 110.72335842624307,94.98710291530006 111.18457814306021,88.5351263966877 107.95604012254626,83.7662626572419 102.6520133735612,82.08313193893991 96.65615704935044,83.7662626572419 92.73578945267946,86.57147780805826 90.89091058447957,91.62085653445683 90.42969086673111,98.63386431708932 89.73786129057407,104.52477447572164 87.89298242237419,112.94033447606489 112.10701757762581,90.49877332313918 108.87847955711186,86.8519991368521 104.95811196044087,83.20521922083572 97.34798662550747,82.64417564729229 91.12152044288814,89.09616854530759 89.73786129057407,95.5481435037218 89.5072514321655,103.40269750310108 89.27664157282561,108.17152088950388 88.58481199666858,114.34292484284379 90.66030072513968,119.39224314200692 96.88676690869033,122.75844923895784 103.11323309037834,123.03896619309671 108.4172598393634,117.98965582833625 110.26213870756328,110.97670653951354 110.49274856690317,104.52477447572164 110.49274856690317,97.79230450256728 111.64579785987735,91.62085653445683 109.80091899074614,85.72991361888126 105.88055139407516,82.92469745082781 99.88469506986439,82.08313193893991 94.81127818115056,84.32730595883913 91.12152044288814,88.5351263966877 89.96847114898264,95.5481435037218 89.73786129057407,102.56113941781223 89.27664157282561,109.01307694031857 109.80091899074614,93.02345978678204 110.49274856690317,89.37668956816196 106.80299082957208,83.7662626572419 101.96018379833549,80.4000000001397 94.11944860499352,86.01043504965492 89.96847114898264,91.05981499678455 91.35213030129671,99.75594359473325 88.58481199666858,105.92736992868595 88.35420214012265,111.25722491787747 88.58481199666858,117.98965582833625 93.42761902883649,121.35586395906284 99.88469506986439,123.60000000009313 105.88055139407516,120.79482960957102 110.03152885008603,114.0624068370089 110.49274856690317,107.89100213861093 109.80091899074614,101.15854193037376 110.72335842624307,94.98710291530006 111.18457814306021,88.5351263966877 107.95604012254626,83.7662626572419 102.6520133735612,82.08313193893991 96.65615704935044,83.7662626572419 92.73578945267946,86.57147780805826 90.89091058447957,91.62085653445683 90.42969086673111,98.63386431708932 89.73786129057407,104.52477447572164 87.89298242237419,112.94033447606489 112.10701757762581,90.49877332313918 108.87847955711186,86.8519991368521 104.95811196044087,83.20521922083572 97.34798662550747,82.64417564729229 91.12152044288814,89.09616854530759 89.73786129057407,95.5481435037218 89.5072514321655,103.40269750310108 89.27664157282561,108.17152088950388 88.58481199666858,114.34292484284379 90.66030072513968,119.39224314200692 96.88676690869033,122.75844923895784 103.11323309037834,123.03896619309671 108.4172598393634,117.98965582833625 110.26213870756328,110.97670653951354 110.49274856690317,104.52477447572164 110.49274856690317,97.79230450256728 111.64579785987735,91.62085653445683 109.80091899074614,85.72991361888126 105.88055139407516,82.92469745082781 99.88469506986439,82.08313193893991 94.81127818115056,84.32730595883913 91.12152044288814,88.5351263966877 89.96847114898264,95.5481435037218 89.73786129057407,102.56113941781223 89.27664157282561,109.01307694031857 109.80091899074614,93.02345978678204 110.49274856690317,89.37668956816196 106.80299082957208,83.7662626572419 101.96018379833549,80.4000000001397 94.11944860499352,86.01043504965492 89.96847114898264,91.05981499678455 91.35213030129671,99.75594359473325 88.58481199666858,105.92736992868595 88.35420214012265,111.25722491787747 88.58481199666858,117.98965582833625 93.42761902883649,121.35586395906284 99.88469506986439,123.60000000009313 105.88055139407516,120.79482960957102 110.03152885008603,114.0624068370089 110.49274856690317,107.89100213861093 109.80091899074614,101.15854193037376 110.72335842624307,94.98710291530006 111.18457814306021,88.5351263966877 107.95604012254626,83.7662626572419 102.6520133735612,82.08313193893991 96.65615704935044,83.7662626572419 92.73578945267946,86.57147780805826 90.89091058447957,91.62085653445683 90.42969086673111,98.63386431708932 89.73786129057407,104.52477447572164 87.89298242237419,112.94033447606489 112.10701757762581,90.49877332313918 108.87847955711186,86.8519991368521 104.95811196044087,83.20521922083572 97.34798662550747,82.64417564729229 91.12152044288814,89.09616854530759 89.73786129057407,95.5481435037218 89.5072514321655,103.40269750310108 89.27664157282561,108.17152088950388 88.58481199666858,114.34292484284379 90.66030072513968,119.39224314200692 96.88676690869033,122.75844923895784 103.11323309037834,123.03896619309671 108.4172598393634,117.98965582833625 110.26213870756328,110.97670653951354 110.49274856690317,104.52477447572164 110.49274856690317,97.79230450256728 111.64579785987735,91.62085653445683 109.80091899074614,85.72991361888126 105.88055139407516,82.92469745082781 99.88469506986439,82.08313193893991 94.81127818115056,84.32730595883913 91.12152044288814,88.5351263966877 89.96847114898264,95.5481435037218 89.73786129057407,102.56113941781223 89.27664157282561,109.01307694031857 109.80091899074614,93.02345978678204 110.49274856690317,89.37668956816196 106.80299082957208,83.7662626572419 101.96018379833549,80.4000000001397 94.11944860499352,86.01043504965492 89.96847114898264,91.05981499678455 91.35213030129671,99.75594359473325 88.58481199666858,105.92736992868595 88.35420214012265,111.25722491787747 88.58481199666858,117.98965582833625 93.42761902883649,121.35586395906284 99.88469506986439,123.60000000009313 105.88055139407516,120.79482960957102 110.03152885008603,114.0624068370089 110.49274856690317,107.89100213861093 109.80091899074614,101.15854193037376 110.72335842624307,94.98710291530006 111.18457814306021,88.5351263966877 107.95604012254626,83.7662626572419 102.6520133735612,82.08313193893991 96.65615704935044,83.7662626572419 92.73578945267946,86.57147780805826 90.89091058447957,91.62085653445683 90.42969086673111,98.63386431708932 89.73786129057407,104.52477447572164 87.89298242237419,112.94033447606489 112.10701757762581,90.49877332313918 108.87847955711186,86.8519991368521 104.95811196044087,83.20521922083572 97.34798662550747,82.64417564729229 91.12152044288814,89.09616854530759 89.73786129057407,95.5481435037218" stroke="#4DD2FF" stroke-dasharray="1,0.5" stroke-linecap="round" stroke-linejoin="round" stroke-width="0.5"><title>2013-11-30 10.3km</title><desc>9223370651086224807</desc></polyline><polyline fill="none" opacity="1" points="176.49274856690317,89.37668956816196 174.87847955711186,86.8519991368521 172.80299082957208,83.7662626572419 170.95811196044087,83.20521922083572 167.9601837983355,80.4000000001397 163.34798662550747,82.64417564729229 160.11944860499352,86.01043504965492 157.12152044288814,89.09616854530759 155.96847114898264,91.05981499678455 155.73786129057407,95.5481435037218 157.3521303012967,99.75594359473325 155.5072514321655,103.40269750310108 154.58481199666858,105.92736992868595 155.2766415728256,108.17152088950388 154.35420214012265,111.25722491787747 154.58481199666858,114.34292484284379 154.58481199666858,117.98965582833625 156.66030072513968,119.39224314200692 159.4276190288365,121.35586395906284 162.88676690869033,122.75844923895784 165.8846950698644,123.60000000009313 169.11323309037834,123.03896619309671 171.88055139407516,120.79482960957102 174.4172598393634,117.98965582833625 176.03152885008603,114.0624068370089 176.26213870756328,110.97670653951354 176.49274856690317,107.89100213861093 176.49274856690317,104.52477447572164 175.80091899074614,101.15854193037376 176.49274856690317,97.79230450256728 176.72335842624307,94.98710291530006 177.64579785987735,91.62085653445683 177.1845781430602,88.5351263966877 175.80091899074614,85.72991361888126 173.95604012254626,83.7662626572419 171.88055139407516,82.92469745082781 168.6520133735612,82.08313193893991 165.8846950698644,82.08313193893991 162.65615704935044,83.7662626572419 160.81127818115056,84.32730595883913 158.73578945267946,86.57147780805826 157.12152044288814,88.5351263966877 156.89091058447957,91.62085653445683 155.96847114898264,95.5481435037218 156.4296908667311,98.63386431708932 155.73786129057407,102.56113941781223" stroke="#4DD2FF" stroke-dasharray="none" stroke-linecap="round" stroke-linejoin="round" stroke-width="0.5"><title>2013-11-16 10.4km</title><desc>9223370652294258807</desc></polyline><polyline fill="none" opacity="1" points="40.41223600972444,129.90001260256395 36.712869081646204,129.00000514974818 33.013502151705325,129.00000514974818 29.06751076038927,130.50001738895662 26.354641679674387,132.30003087921068 25.121519369073212,136.50005727959797 23.395148135721684,141.30007874849252 23.395148135721684,144.30008745123632 23.148523674346507,147.0000921834726 22.40865028835833,151.20009370637126 22.655274749733508,155.10008875629865 22.40865028835833,158.10008077835664 22.655274749733508,163.20005889236927 23.64177259709686,165.60004496737383 26.108017217367887,167.7000308786519 30.793881993740797,171.60000000009313 34.73987338505685,171.60000000009313 38.43924031406641,170.40001015365124 40.65886047203094,169.20001972699538 43.37172955367714,165.90004306309856 44.111602938733995,163.20005889236927 43.86497847735882,159.000077677425 44.35822740197182,154.2000904425513 45.34472524933517,151.20009370637126 46.08459863439202,147.60009283619002 46.08459863439202,144.00008674431592 46.33122309669852,139.80007303715684 45.837974173016846,135.90005394420587 43.61835401598364,132.6000330010429 40.90548493433744,130.50001738895662 36.712869081646204,128.4000000001397 33.013502151705325,129.00000514974818 29.560759685002267,130.50001738895662 26.354641679674387,132.0000287219882 23.64177259709686,135.00004866719246 22.901899211108685,140.40007542981766 23.148523674346507,144.00008674431592 22.655274749733508,147.60009283619002 24.13502152170986,151.20009370637126 22.40865028835833,156.90008440450765 21.668776902370155,160.80007049744017 22.40865028835833,164.70005046087317 22.655274749733508,166.80003713420592 26.354641679674387,169.20001972699538 29.314135221764445,170.70000767009333 34.24662446137518,171.30000259238295 37.699366928078234,170.70000767009333 40.90548493433744,169.20001972699538" stroke="#4DD2FF" stroke-dasharray="none" stroke-linecap="round" stroke-linejoin="round" stroke-width="0.5"><title>2013-11-03 10.7km</title><desc>9223370653417861807</desc></polyline><polyline fill="none" opacity="1" points="98.39786922093481,171.60000000009313 98.93191281333566,166.40304427035153 101.33510898053646,161.20607848768122 101.60213077720255,157.30834755534306 101.60213077720255,153.7354225674644 101.86915257293731,148.86324447090738 102.1361743696034,143.9910575421527 103.47128335107118,139.7684883903712 103.73830514773726,135.54591260338202 101.33510898053646,132.62258701701649 99.73297820240259,130.02407271577977 96.26169485133141,128.4000000001397" stroke="#4DD2FF" stroke-dasharray="none" stroke-linecap="round" stroke-linejoin="round" stroke-width="0.5"><title>2013-11-02 10.5km</title><desc>9223370653505000807</desc></polyline><polyline fill="none" opacity="1" points="176.43222609069198,142.98009340977296 176.87615060433745,140.01008210144937 176.43222609069198,137.31006839242764 175.32241480425,134.34004954481497 173.99064126145095,132.72003759886138 170.4392451448366,130.56001984444447 167.7756980592385,128.4000000001397 165.3341132281348,129.48001018329524 162.0046793706715,130.8300221778918 159.78505679685622,132.45003549358808 158.67524551134557,135.69005860155448 158.2313209977001,138.12007284793071 157.7873964831233,141.63008875912055 156.45562293939292,144.33009724435396 156.01169842481613,146.76010209089145 156.23366068210453,150.81010429398157 157.7873964831233,154.32010026299395 154.90188713837415,155.13009854895063 155.12384939659387,156.21009580790997 154.45796262472868,157.56009164638817 154.90188713837415,163.23006525845267 160.22898131329566,166.20004569296725 165.77803774364293,167.55003549298272 167.1098112873733,167.55003549298272 169.10747160110623,167.55003549298272 171.77101868763566,168.3600289823953 173.99064126145095,164.0400603134185 174.6565280323848,162.96006684168242 174.8784902896732,160.5300796192605 175.54437706060708,159.18008557590656 173.54671674594283,158.91008666879497 174.8784902896732,158.10008975397795 176.2102638334036,155.94009654247202 175.9883015761152,150.81010429398157 176.2102638334036,149.46010437584482 175.7663393188268,146.2201012421865 176.2102638334036,142.1700907170307 175.7663393188268,136.7700652598869 175.32241480425,133.26004171161912 173.54671674594283,129.75001264712773 169.55139611661434,129.48001018329524 165.77803774364293,129.21000768686645 162.6705661425367,130.56001984444447 159.78505679685622,132.72003759886138 156.67758519575,133.26004171161912 156.45562293939292,137.58006991050206 156.23366068210453,140.55008445074782 156.01169842481613,144.0600965428166 154.90188713837415,147.57010311936028 155.34581165295094,151.62010385282338 155.12384939659387,155.13009854895063 154.90188713837415,159.18008557590656 154.90188713837415,161.61007426702417 158.45328325405717,165.66004954348318 164.00233968626708,168.63002674723975 166.44392451550812,169.98001507879235 169.32943385839462,171.60000000009313 173.32475448958576,167.82003335561603 175.1004525469616,162.69006839231588 175.54437706060708,159.7200832911767 175.54437706060708,158.6400877290871 175.1004525469616,153.24010209064 174.8784902896732,148.92010417976417 175.32241480425,146.2201012421865 175.54437706060708,142.98009340977296 177.09811286255717,138.93007700890303 175.7663393188268,135.96006031497382 174.43456577509642,134.34004954481497 172.88082997407764,130.8300221778918 170.21728288847953,130.02001507859677 166.0,129.75001264712773 162.0046793706715,130.56001984444447 159.78505679685622,130.8300221778918 156.89954745396972,132.72003759886138 154.90188713837415,135.69005860155448 154.67992488108575,138.39007426798344 155.34581165295094,139.7400808769744 154.23600036650896,142.71009254432283 154.67992488108575,145.95010076928884 154.90188713837415,147.57010311936028 154.45796262472868,150.27010442432947 154.90188713837415,153.78010124200955 154.67992488108575,157.02009340864606 154.90188713837415,161.34007565444335 157.5654342258349,166.20004569296725 161.7827171124518,168.63002674723975 163.11449065618217,168.3600289823953 166.0,169.98001507879235 167.99766031466424,169.1700221770443 171.1051319167018,171.33000259427354 173.32475448958576,168.63002674723975 174.8784902896732,162.42006990942173 173.99064126145095,158.37008875748143 175.1004525469616,151.35010403278284 174.8784902896732,147.0301024664659 174.8784902896732,145.68010026379488 176.43222609069198,142.98009340977296 177.76399963349104,140.82008557626978 177.09811286255717,136.7700652598869 175.32241480425,132.1800333559513 173.10279223136604,129.75001264712773 169.9953206302598,128.6700025945902 166.0,128.94000515691005 161.1168303405866,130.56001984444447 157.1215097112581,132.1800333559513 156.67758519575,133.53004371840507 155.56777391023934,134.61005142168142 155.78973616752774,137.04006684245542 156.01169842481613,138.6600756549742 156.23366068210453,142.1700907170307 156.23366068210453,143.5200950417202 156.23366068210453,147.84010339644738" stroke="#4DD2FF" stroke-dasharray="none" stroke-linecap="round" stroke-linejoin="round" stroke-width="0.5"><title>2013-10-26 11.1km</title><desc>9223370654110301807</desc></polyline><polyline fill="none" opacity="1" points="42.06072680931538,206.52639954793267 42.52801532112062,202.26325324806385 42.52801532112062,198.85273064253852 42.52801532112062,195.1579922370147 43.92988085281104,191.4632480267901 45.565390639938414,189.18955639493652 46.49996766168624,186.63165068160743 46.26632340531796,184.07374218595214 43.92988085281104,181.23161837016232 40.8925055321306,179.81055517448112 37.855130213312805,177.25263925665058 34.58411063905805,176.4000000001397 31.0794468075037,177.82106525660492 28.27571574319154,180.09476788225584 25.705628934316337,182.6526807071641 25.238340424373746,185.77901482582092 25.238340424373746,189.4737679695245 24.771051913499832,192.60009301709943 24.30376340262592,196.86325683817267 21.50003233831376,199.9895720607601 21.967320849187672,203.68430287321098 21.733676593750715,207.94744659680873 22.200965103693306,211.07374708005227 22.200965103693306,213.91583482245915 24.30376340262592,216.75791912851855 27.341138722375035,219.0315841003321 30.61215829756111,219.60000000009313 34.58411063905805,219.0315841003321 37.154197447001934,217.610543750925 40.8925055321306,215.90529419737868 41.82708255480975,213.6316262029577 43.462592341937125,210.22112008789554 43.92988085281104,206.81060902611353 43.92988085281104,203.1158831268549 44.39716936368495,199.70536175812595 45.0981021290645,195.4422030900605 45.33174638450146,192.0316705906298 45.79903489537537,189.18955639493652 45.565390639938414,185.49480280443095 44.63081361912191,181.80004340759479 42.52801532112062,179.24212965508923 39.4906400013715,178.10527820512652 35.98597617074847,177.53685227409005 32.48131234012544,177.53685227409005 29.21029276587069,178.95791684417054 25.705628934316337,181.23161837016232 24.30376340262592,184.07374218595214 25.004696168005466,188.33692146651447 23.602830636315048,191.74745932617225 23.36918638087809,194.58957042940892 23.36918638087809,198.28430972713977 21.733676593750715,201.69483315735124 22.200965103693306,206.52639954793267 21.967320849187672,209.3684927856084 23.36918638087809,212.21058258996345 24.30376340262592,215.90529419737868 25.238340424373746,217.610543750925 30.845802552998066,219.0315841003321 34.81775489356369,218.46316806343384" stroke="#4DD2FF" stroke-dasharray="none" stroke-linecap="round" stroke-linejoin="round" stroke-width="0.5"><title>2013-10-20 10.7km</title><desc>9223370654628121807</desc></polyline><polyline fill="none" opacity="0.5" points="92.09450068231672,215.75345557858236 98.66214626841247,219.00822432828136 104.98654572386295,218.1205605531577 109.36497611645609,212.79457114078104 110.09471451491117,203.6220066549722 110.09471451491117,197.11242390889674 111.79743744432926,190.60282385186292 109.36497611645609,179.95071368920617 101.82434599753469,176.4000000001397 95.98643880710006,179.35892843198963 92.58099294733256,184.38909855671227 89.6620393525809,193.56173511454836 88.20256255567074,200.66310755256563 88.68905482254922,207.76445938879624 95.01345427706838,219.00822432828136 101.58109986409545,219.60000000009313 107.66225318517536,216.34523203712888 109.85146838147193,208.35623777774163 110.09471451491117,200.66310755256563 111.06769904587418,194.1535169375129 111.55419131275266,186.164450250566 106.68926865514368,177.87946466286667 98.90539240278304,176.6958930043038 93.31073134578764,181.4301762059331 91.12151614949107,189.12336687906645 89.6620393525809,197.11242390889674 88.44580868817866,204.50967568764463 88.20256255567074,211.31512758042663 98.66214626841247,219.00822432828136 104.98654572386295,218.1205605531577 109.36497611645609,212.79457114078104 110.09471451491117,203.6220066549722 110.09471451491117,197.11242390889674 111.79743744432926,190.60282385186292 109.36497611645609,179.95071368920617 101.82434599753469,176.4000000001397 95.98643880710006,179.35892843198963 92.58099294733256,184.38909855671227 89.6620393525809,193.56173511454836 88.20256255567074,200.66310755256563 88.68905482254922,207.76445938879624 95.01345427706838,219.00822432828136 101.58109986409545,219.60000000009313 107.66225318517536,216.34523203712888 109.85146838147193,208.35623777774163 110.09471451491117,200.66310755256563 111.06769904587418,194.1535169375129 111.55419131275266,186.164450250566 106.68926865514368,177.87946466286667 98.90539240278304,176.6958930043038 93.31073134578764,181.4301762059331 91.12151614949107,189.12336687906645 89.6620393525809,197.11242390889674 88.44580868817866,204.50967568764463 88.20256255567074,211.31512758042663 98.66214626841247,219.00822432828136 104.98654572386295,218.1205605531577 109.36497611645609,212.79457114078104 110.09471451491117,203.6220066549722 110.09471451491117,197.11242390889674 111.79743744432926,190.60282385186292 109.36497611645609,179.95071368920617 101.82434599753469,176.4000000001397 95.98643880710006,179.35892843198963 92.58099294733256,184.38909855671227 89.6620393525809,193.56173511454836 88.20256255567074,200.66310755256563 88.68905482254922,207.76445938879624 95.01345427706838,219.00822432828136 101.58109986409545,219.60000000009313 107.66225318517536,216.34523203712888 109.85146838147193,208.35623777774163 110.09471451491117,200.66310755256563 111.06769904587418,194.1535169375129 111.55419131275266,186.164450250566 106.68926865514368,177.87946466286667 98.90539240278304,176.6958930043038 93.31073134578764,181.4301762059331 91.12151614949107,189.12336687906645 89.6620393525809,197.11242390889674 88.44580868817866,204.50967568764463 88.20256255567074,211.31512758042663 98.66214626841247,219.00822432828136 104.98654572386295,218.1205605531577 109.36497611645609,212.79457114078104 110.09471451491117,203.6220066549722 110.09471451491117,197.11242390889674 111.79743744432926,190.60282385186292 109.36497611645609,179.95071368920617 101.82434599753469,176.4000000001397 95.98643880710006,179.35892843198963 92.58099294733256,184.38909855671227 89.6620393525809,193.56173511454836 88.20256255567074,200.66310755256563 88.68905482254922,207.76445938879624 95.01345427706838,219.00822432828136 101.58109986409545,219.60000000009313 107.66225318517536,216.34523203712888 109.85146838147193,208.35623777774163 110.09471451491117,200.66310755256563 111.06769904587418,194.1535169375129 111.55419131275266,186.164450250566 106.68926865514368,177.87946466286667 98.90539240278304,176.6958930043038 93.31073134578764,181.4301762059331 91.12151614949107,189.12336687906645 89.6620393525809,197.11242390889674 88.44580868817866,204.50967568764463 88.20256255567074,211.31512758042663 98.66214626841247,219.00822432828136 104.98654572386295,218.1205605531577 109.36497611645609,212.79457114078104 110.09471451491117,203.6220066549722 110.09471451491117,197.11242390889674 111.79743744432926,190.60282385186292 109.36497611645609,179.95071368920617 101.82434599753469,176.4000000001397 95.98643880710006,179.35892843198963 92.58099294733256,184.38909855671227 89.6620393525809,193.56173511454836 88.20256255567074,200.66310755256563 88.68905482254922,207.76445938879624 95.01345427706838,219.00822432828136 101.58109986409545,219.60000000009313 107.66225318517536,216.34523203712888 109.85146838147193,208.35623777774163 110.09471451491117,200.66310755256563 111.06769904587418,194.1535169375129 111.55419131275266,186.164450250566 106.68926865514368,177.87946466286667 98.90539240278304,176.6958930043038 93.31073134578764,181.4301762059331 91.12151614949107,189.12336687906645 89.6620393525809,197.11242390889674 88.44580868817866,204.50967568764463 88.20256255567074,211.31512758042663 98.66214626841247,219.00822432828136 104.98654572386295,218.1205605531577 109.36497611645609,212.79457114078104 110.09471451491117,203.6220066549722 110.09471451491117,197.11242390889674 111.79743744432926,190.60282385186292 109.36497611645609,179.95071368920617 101.82434599753469,176.4000000001397 95.98643880710006,179.35892843198963 92.58099294733256,184.38909855671227 89.6620393525809,193.56173511454836 88.20256255567074,200.66310755256563 88.68905482254922,207.76445938879624 95.01345427706838,219.00822432828136 101.58109986409545,219.60000000009313 107.66225318517536,216.34523203712888 109.85146838147193,208.35623777774163 110.09471451491117,200.66310755256563 111.06769904587418,194.1535169375129 111.55419131275266,186.164450250566 106.68926865514368,177.87946466286667 98.90539240278304,176.6958930043038 93.31073134578764,181.4301762059331 91.12151614949107,189.12336687906645 89.6620393525809,197.11242390889674 88.44580868817866,204.50967568764463 88.20256255567074,211.31512758042663 98.66214626841247,219.00822432828136 104.98654572386295,218.1205605531577 109.36497611645609,212.79457114078104 110.09471451491117,203.6220066549722 110.09471451491117,197.11242390889674 111.79743744432926,190.60282385186292 109.36497611645609,179.95071368920617 101.82434599753469,176.4000000001397 95.98643880710006,179.35892843198963 92.58099294733256,184.38909855671227 89.6620393525809,193.56173511454836 88.20256255567074,200.66310755256563 88.68905482254922,207.76445938879624 95.01345427706838,219.00822432828136 101.58109986409545,219.60000000009313 107.66225318517536,216.34523203712888 109.85146838147193,208.35623777774163 110.09471451491117,200.66310755256563 111.06769904587418,194.1535169375129 111.55419131275266,186.164450250566 106.68926865514368,177.87946466286667 98.90539240278304,176.6958930043038 93.31073134578764,181.4301762059331 91.12151614949107,189.12336687906645 89.6620393525809,197.11242390889674 88.44580868817866,204.50967568764463 88.20256255567074,211.31512758042663 98.66214626841247,219.00822432828136 104.98654572386295,218.1205605531577 109.36497611645609,212.79457114078104 110.09471451491117,203.6220066549722 110.09471451491117,197.11242390889674 111.79743744432926,190.60282385186292 109.36497611645609,179.95071368920617 101.82434599753469,176.4000000001397 95.98643880710006,179.35892843198963 92.58099294733256,184.38909855671227 89.6620393525809,193.56173511454836 88.20256255567074,200.66310755256563 88.68905482254922,207.76445938879624 95.01345427706838,219.00822432828136 101.58109986409545,219.60000000009313 107.66225318517536,216.34523203712888 109.85146838147193,208.35623777774163 110.09471451491117,200.66310755256563 111.06769904587418,194.1535169375129 111.55419131275266,186.164450250566 106.68926865514368,177.87946466286667 98.90539240278304,176.6958930043038 93.31073134578764,181.4301762059331 91.12151614949107,189.12336687906645 89.6620393525809,197.11242390889674 88.44580868817866,204.50967568764463 88.20256255567074,211.31512758042663 98.66214626841247,219.00822432828136 104.98654572386295,218.1205605531577 109.36497611645609,212.79457114078104 110.09471451491117,203.6220066549722 110.09471451491117,197.11242390889674 111.79743744432926,190.60282385186292 109.36497611645609,179.95071368920617 101.82434599753469,176.4000000001397 95.98643880710006,179.35892843198963 92.58099294733256,184.38909855671227 89.6620393525809,193.56173511454836 88.20256255567074,200.66310755256563 88.68905482254922,207.76445938879624 95.01345427706838,219.00822432828136 101.58109986409545,219.60000000009313 107.66225318517536,216.34523203712888 109.85146838147193,208.35623777774163 110.09471451491117,200.66310755256563 111.06769904587418,194.1535169375129 111.55419131275266,186.164450250566 106.68926865514368,177.87946466286667 98.90539240278304,176.6958930043038 93.31073134578764,181.4301762059331 91.12151614949107,189.12336687906645 89.6620393525809,197.11242390889674 88.44580868817866,204.50967568764463 88.20256255567074,211.31512758042663 98.66214626841247,219.00822432828136 104.98654572386295,218.1205605531577 109.36497611645609,212.79457114078104 110.09471451491117,203.6220066549722 110.09471451491117,197.11242390889674 111.79743744432926,190.60282385186292 109.36497611645609,179.95071368920617 101.82434599753469,176.4000000001397 95.98643880710006,179.35892843198963 92.58099294733256,184.38909855671227 89.6620393525809,193.56173511454836 88.20256255567074,200.66310755256563 88.68905482254922,207.76445938879624 95.01345427706838,219.00822432828136 101.58109986409545,219.60000000009313 107.66225318517536,216.34523203712888 109.85146838147193,208.35623777774163 110.09471451491117,200.66310755256563 111.06769904587418,194.1535169375129 111.55419131275266,186.164450250566 106.68926865514368,177.87946466286667 98.90539240278304,176.6958930043038 93.31073134578764,181.4301762059331 91.12151614949107,189.12336687906645 89.6620393525809,197.11242390889674 88.44580868817866,204.50967568764463 88.20256255567074,211.31512758042663 98.66214626841247,219.00822432828136 104.98654572386295,218.1205605531577 109.36497611645609,212.79457114078104 110.09471451491117,203.6220066549722 110.09471451491117,197.11242390889674 111.79743744432926,190.60282385186292 109.36497611645609,179.95071368920617 101.82434599753469,176.4000000001397 95.98643880710006,179.35892843198963 92.58099294733256,184.38909855671227 89.6620393525809,193.56173511454836 88.20256255567074,200.66310755256563 88.68905482254922,207.76445938879624 95.01345427706838,219.00822432828136 101.58109986409545,219.60000000009313 107.66225318517536,216.34523203712888 109.85146838147193,208.35623777774163 110.09471451491117,200.66310755256563 111.06769904587418,194.1535169375129 111.55419131275266,186.164450250566 106.68926865514368,177.87946466286667 98.90539240278304,176.6958930043038 93.31073134578764,181.4301762059331 91.12151614949107,189.12336687906645 89.6620393525809,197.11242390889674 88.44580868817866,204.50967568764463 88.20256255567074,211.31512758042663 98.66214626841247,219.00822432828136 104.98654572386295,218.1205605531577 109.36497611645609,212.79457114078104 110.09471451491117,203.6220066549722 110.09471451491117,197.11242390889674 111.79743744432926,190.60282385186292 109.36497611645609,179.95071368920617 101.82434599753469,176.4000000001397 95.98643880710006,179.35892843198963 92.58099294733256,184.38909855671227 89.6620393525809,193.56173511454836 88.20256255567074,200.66310755256563 88.68905482254922,207.76445938879624 95.01345427706838,219.00822432828136 101.58109986409545,219.60000000009313 107.66225318517536,216.34523203712888 109.85146838147193,208.35623777774163 110.09471451491117,200.66310755256563 111.06769904587418,194.1535169375129 111.55419131275266,186.164450250566 106.68926865514368,177.87946466286667 98.90539240278304,176.6958930043038 93.31073134578764,181.4301762059331 91.12151614949107,189.12336687906645 89.6620393525809,197.11242390889674 88.44580868817866,204.50967568764463 88.20256255567074,211.31512758042663 98.66214626841247,219.00822432828136 104.98654572386295,218.1205605531577 109.36497611645609,212.79457114078104 110.09471451491117,203.6220066549722 110.09471451491117,197.11242390889674 111.79743744432926,190.60282385186292 110.09471451491117,181.72606860171072" stroke="#4DD2FF" stroke-dasharray="1,0.5" stroke-linecap="round" stroke-linejoin="round" stroke-width="0.5"><title>2013-10-19 10.2km</title><desc>9223370654714312807</desc></polyline><polyline fill="none" opacity="1" points="158.09450068231672,215.75345557858236 161.01345427706838,219.00822432828136 164.66214626841247,219.00822432828136 167.58109986409545,219.60000000009313 170.98654572386295,218.1205605531577 173.66225318517536,216.34523203712888 175.3649761164561,212.79457114078104 175.85146838147193,208.35623777774163 176.09471451491117,203.6220066549722 176.09471451491117,200.66310755256563 176.09471451491117,197.11242390889674 177.06769904587418,194.1535169375129 177.79743744432926,190.60282385186292 177.55419131275266,186.164450250566 175.3649761164561,179.95071368920617 172.68926865514368,177.87946466286667 167.8243459975347,176.4000000001397 164.90539240278304,176.6958930043038 161.98643880710006,179.35892843198963 159.31073134578764,181.4301762059331 158.58099294733256,184.38909855671227 157.12151614949107,189.12336687906645 155.6620393525809,193.56173511454836 155.6620393525809,197.11242390889674 154.20256255567074,200.66310755256563 154.44580868817866,204.50967568764463 154.68905482254922,207.76445938879624 154.20256255567074,211.31512758042663" stroke="#4DD2FF" stroke-dasharray="none" stroke-linecap="round" stroke-linejoin="round" stroke-width="0.5"><title>2013-10-12 10.6km</title><desc>9223370655320152807</desc></polyline><polyline fill="none" opacity="1" points="44.07827774621546,248.33523061382584 44.31823674123734,243.0811759249773 45.518031710758805,238.99468104168773 45.75799070484936,235.78385878098197 46.717826679348946,232.86492574820295 45.99794969893992,230.52977678203024 43.358400764875114,226.73515489464626 39.03913887310773,225.2756833503954 35.43975396454334,224.4000000001397 32.56024603638798,224.4000000001397 30.16065609641373,225.56757773039863 26.08135319966823,227.61083739856258 24.641599235124886,230.52977678203024 23.68176325969398,234.03249938460067 23.921722253784537,238.11900266609155 23.921722253784537,241.62171426066197 24.161681246943772,244.83252875856124 23.921722253784537,248.6271222056821 22.24200929608196,251.25414494634606 21.52213231381029,254.17305574938655 21.282173319719732,257.09196302411146 22.24200929608196,260.0108667712193 23.4418042646721,262.3459872279782 25.121517223306,265.26488462416455 28.240984144620597,266.72433199873194 31.600410060957074,266.72433199873194 36.639548934064806,267.60000000009313 39.7590158553794,264.68110542721115 41.67868780810386,262.0540972945746 44.07827774621546,258.25952494633384 44.31823674123734,254.17305574938655 44.31823674123734,250.67036236193962 45.518031710758805,246.87577212485485 46.237908692099154,243.37306815269403 45.99794969893992,240.16225171345286 45.99794969893992,237.53521690703928 46.47786768618971,234.03249938460067" stroke="#4DD2FF" stroke-dasharray="none" stroke-linecap="round" stroke-linejoin="round" stroke-width="0.5"><title>2013-10-06 10.6km</title><desc>9223370655838244807</desc></polyline><polyline fill="none" opacity="1" points="91.5827401606366,248.80529363360256 90.660300726071,251.89100213861093 90.19908100832254,255.53774326271378 89.27664157561958,258.3429248428438 89.27664157561958,260.3065499314107 90.19908100832254,263.3922431420069 91.8133500199765,265.6363810834009 95.96432747505605,266.75844923895784 99.19286549650133,267.60000000009313 102.19079365767539,266.75844923895784 105.18872181978077,266.47793225129135 107.26421054638922,264.23379512433894 108.64786969870329,261.98965582833625 109.57030913420022,258.0624068370089 109.33969927486032,254.97670653951354 110.26213870942593,251.04944568034261 110.26213870942593,247.40269750310108 110.03152885008603,243.75594359473325 109.80091899260879,238.98710291530006 110.26213870942593,235.62085653445683 110.95396828558296,234.21825243486091 110.26213870942593,231.41304169245996 107.95604012254626,228.88834912492894 104.9581119613722,226.0831319389399 102.88262323383242,225.2415661229752 99.65408521238714,225.80261003412306 96.19493733346462,225.80261003412306 94.35005846433342,226.6441756472923 93.19700917135924,229.72991361888126 91.5827401606366,232.5351263966877 91.35213030222803,235.62085653445683 90.660300726071,239.26762322615832 89.96847115084529,243.19490402424708 89.5072514321655,245.7195810272824 88.81542185787112,248.80529363360256 88.81542185787112,252.17152088950388 87.89298242330551,255.53774326271378 87.43176270555705,258.0624068370089 87.66237256396562,261.14810303226113 88.81542185787112,263.6727605035994 91.8133500199765,266.19741522870027 95.50310775730759,267.0389661930967 99.65408521238714,267.319483113708 103.34384294971824,266.75844923895784 105.8805513959378,264.794829609571 108.64786969870329,262.55069085536525 109.80091899260879,258.3429248428438 110.26213870942593,255.53774326271378 110.72335842624307,252.4520396075677 110.95396828558296,249.6468509058468 111.4151880024001,245.7195810272824 111.64579786174,243.4754238263704 111.87640772014856,240.3897041331511 112.10701757855713,237.5845008501783 112.3376274369657,234.49877332313918 111.64579786174,231.69356291904114 110.4927485678345,229.1688706574496 108.18664998188615,226.6441756472923 105.64994153752923,225.2415661229752 102.88262323383242,224.4000000001397 100.57652464695275,224.96104411478154 96.65615705028176,225.52208809531294 93.88883874751627,227.20521922083572 92.50517959613353,230.8519991368521 90.89091058447957,235.34033578261733 89.96847115084529,238.14554177806713 89.7378612915054,240.3897041331511 89.5072514321655,243.4754238263704 89.7378612915054,246.56113941781223 89.96847115084529,249.92736992868595 89.7378612915054,253.01307694031857 89.5072514321655,256.3792980927974 89.96847115084529,259.7455143611878 91.35213030222803,262.83120831870474 93.88883874751627,264.5143123844173 96.65615705028176,267.319483113708 100.57652464695275,267.319483113708 102.88262323383242,267.0389661930967 106.34177111368626,265.35586395906284 108.41725984029472,263.3922431420069 109.57030913420022,260.0260321632959 110.03152885008603,257.2208526181057 110.95396828558296,254.13515119976364 110.95396828558296,250.76892679347657 111.64579786174,247.96373605774716 111.64579786174,244.8780223308131 111.4151880024001,241.79230450256728 112.56823729537427,238.14554177806713 111.64579786174,235.34033578261733 110.72335842624307,231.97408411232755 110.03152885008603,229.44939215504564 107.49482040572912,227.7662626572419 104.26628238521516,226.0831319389399 101.26835422310978,226.6441756472923 97.11737676803023,226.9246974508278" stroke="#4DD2FF" stroke-dasharray="none" stroke-linecap="round" stroke-linejoin="round" stroke-width="0.5"><title>2013-09-29 10.5km</title><desc>9223370656443428807</desc></polyline><polyline fill="none" opacity="1" points="157.63047736417502,238.4332109261304 156.95186742115766,240.63449106365442 156.72566410526633,244.76188558503054 156.72566410526633,246.96315960399806 156.49946079216897,249.16443149279803 156.49946079216897,253.29181054909714 155.14224090520293,255.49307631724514 155.5946475332603,260.99623142788187 156.49946079216897,263.4726468878798 161.92834033910185,265.3987459379714 164.1903734849766,265.94905965332873 167.58342320099473,265.94905965332873 171.65508286189288,264.8484320899006 174.59572594985366,262.0968608537223 176.6315557807684,257.96949776401743 177.31016572378576,253.5669688861817 175.72674252279103,250.81538401311263 174.14331932086498,249.43959032977 175.9529458368197,245.03704495402053 177.53636903874576,239.8090112612117 177.98877566773444,237.88289055787027 177.31016572378576,234.8561261605937 178.4411822957918,231.0038747417275 175.72674252279103,228.25226259441115 173.01230274885893,225.2254853900522 171.2026762329042,224.67516183038242 165.77379668504,225.2254853900522 164.1903734849766,225.50064712180756 161.24973039515316,227.97710119676776 158.76149393618107,230.17839144705795 158.08288399223238,232.6548404339701 157.63047736417502,236.23192865750752 156.49946079216897,240.909650930902 156.95186742115766,244.2115667485632 157.17807073518634,246.41284129861742 156.49946079216897,250.81538401311263 156.95186742115766,254.11728546093218 155.5946475332603,258.24465553602204 156.27325747720897,261.54654620797373 156.49946079216897,263.4726468878798 160.34491713810712,264.8484320899006 163.96417016908526,267.3248433584813 166.22620331402868,266.77452997583896 169.16684640292078,265.94905965332873 172.10748949088156,264.8484320899006 175.04813257977366,261.54654620797373 175.27433589380234,259.34528629202396 175.9529458368197,256.593708404107 176.85775909479707,253.84212718973868 177.98877566773444,250.81538401311263 177.08396240975708,247.2383187059313 175.9529458368197,243.38608824275434 176.1791491517797,240.35933116311207 176.6315557807684,237.05740975774825 177.76257235370576,236.23192865750752 178.6673856107518,232.6548404339701 177.31016572378576,229.90323028177954 178.4411822957918,230.17839144705795 177.98877566773444,227.42677830229513 174.82192926388234,226.05097048194148 171.4288795478642,224.95032362709753 168.26203314494342,224.4000000001397 164.1903734849766,225.50064712180756 161.02352708112448,227.97710119676776 158.3090873081237,229.90323028177954 158.08288399223238,233.20516206533648 155.8208508491516,237.05740975774825 154.46363096125424,241.45997056690976 156.04705416224897,241.45997056690976 156.72566410526633,243.11092867492698 156.27325747720897,246.68800046737306 155.5946475332603,250.81538401311263 153.3326143892482,253.01665217778645 155.3684442192316,256.04339242796414 155.5946475332603,258.5198132751975 157.17807073518634,262.92233257344924 159.21390056516975,265.3987459379714 161.92834033910185,266.2242164602503 165.77379668504,266.2242164602503 169.39304971788079,267.60000000009313 173.01230274885893,266.2242164602503 174.14331932086498,264.0229610686656 174.36952263582498,260.4459165164735 175.72674252279103,259.34528629202396 175.9529458368197,255.21791821345687 177.98877566773444,248.61411371990107 177.98877566773444,243.93640727945603 175.9529458368197,241.1848107650876 176.6315557807684,237.88289055787027 177.08396240975708,235.40644725901075" stroke="#4DD2FF" stroke-dasharray="none" stroke-linecap="round" stroke-linejoin="round" stroke-width="0.5"><title>2013-09-22 10.9km</title><desc>9223370657048162807</desc></polyline></svg>