<?xml version="1.0" encoding="utf-8" ?>
<svg baseProfile="full" height="300mm" version="1.1" viewBox="0,0,200,300" width="200mm" xmlns="http://www.w3.org/2000/svg" xmlns:ev="http://www.w3.org/2001/xml-events" xmlns:xlink="http://www.w3.org/1999/xlink"><defs /><rect fill="#222222" height="300" width="200" x="0" y="0" /><text fill="#FFFFFF" style="font-size:12px; font-family:Arial; font-weight:bold;" x="10" y="20">Over 10km Runs</text><text fill="#FFFFFF" style="font-size:4px; font-family:Arial" x="10" y="280">Runner</text><text fill="#FFFFFF" style="font-size:9px; font-family:Arial" x="10" y="290">keep</text><text fill="#FFFFFF" style="font-size:4px; font-family:Arial" x="65" y="280">SPECIAL TRACKS</text><rect fill="yellow" height="2.6" width="2.6" x="65" y="283" /><text fill="#FFFFFF" style="font-size:3px; font-family:Arial" x="70" y="285.5">Over 20.0 km</text><rect fill="red" height="2.6" width="2.6" x="65" y="287" /><text fill="#FFFFFF" style="font-size:3px; font-family:Arial" x="70" y="289.5">Over 40.0 km</text><text fill="#FFFFFF" style="font-size:4px; font-family:Arial" x="120" y="280">STATISTICS</text><text fill="#FFFFFF" style="font-size:3px; font-family:Arial" x="120" y="285">Number: 15</text><text fill="#FFFFFF" style="font-size:3px; font-family:Arial" x="120" y="290">Weekly: 1.2</text><text fill="#FFFFFF" style="font-size:3px; font-family:Arial" x="141" y="285">Total: 163.6 km</text><text fill="#FFFFFF" style="font-size:3px; font-family:Arial" x="141" y="290">Avg: 10.9 km</text><text fill="#FFFFFF" style="font-size:3px; font-family:Arial" x="167" y="285">Min: 10.2 km</text><text fill="#FFFFFF" style="font-size:3px; font-family:Arial" x="167" y="290">Max: 14.0 km</text><polyline fill="none" opacity="1" points="26.99880810227478,75.59999999999854 26.93021099854377,75.29783125756512 26.844464618887287,75.17912179997074 26.775867515185382,74.99566138663795 26.690121135528898,74.79061690297385 26.630098669818835,74.531612601917 26.63867330775247,74.2078560596783 26.690121135528898,73.88409822191898 26.69869577352074,73.5927150602729 26.681546497595264,73.24737069499679 26.690121135528898,72.94519316624792 26.690121135528898,72.65380662320968 26.707270411483478,72.33004256676941 26.715845049417112,72.0602381967401 26.810166067036334,71.82280960681965 27.04168129208847,71.72567952830286 27.307495068962453,71.70409505058342 27.32464434488793,71.55300354524661 27.376092172664357,71.41270403764065 27.3846668106562,71.16448123584996 27.40181608655257,70.84071121948364 27.247472603223287,70.58169427348184 26.964509550394723,70.44139308147714 26.955934912431985,70.10682771867869 27.00738274017931,69.77226097230596 27.050255930051208,69.45927792474686 27.101703757827636,69.12470850044338 27.153151585604064,68.7901376925438 27.187450137455016,68.50952885125298 27.204599413380492,68.25050444155931 27.290345793036977,68.16416278734687 27.32464434488793,67.95910098931927 27.290345793036977,67.81879524906253 27.32464434488793,67.72166036326962 27.3846668106562,67.50580464396626 27.453263914358104,67.24677702046029 27.513286380126374,66.97695569744246 27.59903275972465,66.65316892182454 27.68477913941024,66.34017380690057 27.761950881103985,66.05955646736402 27.899145088507794,65.89766140560096 28.062063209799817,65.95162646217068 28.28500379686011,66.00559148276079 28.52509365984588,65.85448933442967 28.696586419129744,65.61704253105563 28.808056712703547,65.37959503069578 28.962400196061935,65.0773881131754 29.125318317383062,64.77518006666651 29.279661800770555,64.50535049961036 29.442579922062578,64.22472679514613 29.58834876745823,63.96568866540474 29.734117612824775,63.663476465626445 29.914185010071378,63.33967642728385 30.111401683243457,62.98349488800159 30.33434227030375,62.57334450598137 30.54870821943041,62.19557257746783 30.72020097868517,61.9041473128309 30.900268375931773,61.62351458421472 31.080335773178376,61.35367450383637 31.208955342677655,61.148595440754434 31.38044810196152,60.87875377609453 31.59481405102997,60.565736317301344 31.680560430686455,60.285098945088976 31.817754638119368,59.96128538262565 32.00639667332871,59.669852068029286 32.24648653631448,59.44318098627264 32.48657639930025,59.2488909820313 32.64949452065048,58.97904297969944 32.78668872808339,58.773957895806234 32.89815902162809,58.666018169118615 33.00105467715184,58.428550263321085 33.095375694771064,58.191081660363125 33.198271350353025,58.03996491363796 33.395488023525104,57.98599457850651 33.5069583170407,57.99678864840098 33.63557788651087,57.87805380026839 33.755622817989206,57.7377305731643 33.93569021526491,57.55423060114117 34.124332250474254,57.295171108387876 34.30439964774996,57.09008175483905 34.27867573380354,56.831020775440265 34.270101095869904,56.57195896619669 34.32154892364633,56.302102032605035 34.510190958855674,56.04303852922749 34.70740763205686,55.8271516425375 34.8531764774234,55.5680866178227 34.97322140893084,55.23345973275718 35.14471416824381,54.985187278194644 35.419102583051426,54.72611955651519 35.616319256223505,54.488640082621714 35.744938825722784,54.22957077038154 35.86498375720112,53.91652757751581 35.993603326700395,53.63586713305267 36.28514101746259,53.47394720281591 36.52523088044836,53.41997382068803 36.679574363835854,53.1285169348339 36.78247001938871,52.815469480068714 36.83391784716514,52.534805214512744 36.902514950867044,52.232550300788716 36.979686692531686,51.87631984505424 37.07400771015091,51.552472614515864 37.09115698610549,51.422933359201124 37.15975408980739,51.16385422609892 37.20262727965019,50.840004142475664 37.28837365927757,50.50535769361886 37.382694676867686,50.11673427322967 37.46844105649507,49.76049449724087 37.52846352226334,49.36107227620232 37.60563526395708,49.069600761678885 37.68280700565083,48.72415168037696 37.777128023211844,48.3571104145085 37.82000121305464,47.99006748269312 37.89717295471928,47.655409239960136 37.98291933434666,47.27756762386707 38.060091076011304,46.9321108870281 38.12011354180868,46.65142620163533 38.18871064551058,46.29517115942144 38.23158383532427,46.0252799309892 38.31733021498076,45.79857060297218 38.33447949090623,45.65822641469276 38.3945019566454,45.345150040026056 38.454524422384566,45.01048085077491 38.54027080204105,44.64342272792419 38.60886790577206,44.29795473723789 38.66889037148212,44.09283241938829 38.67746500947396,43.952485270514444 38.711763561324915,43.70417817962152 38.788935302960454,43.34791015207884 38.84895776875783,42.970048407478316 38.92612951042247,42.6461655066596 38.98615197619074,42.430242851987714 39.02902516597533,42.22511579597631 39.054749079892645,42.1171539785355 39.11477154563181,41.998395812828676 39.13192082152818,41.87963747265894 39.09762226973544,41.66371277099097 39.12334618359455,41.38300979674386 39.16621937340824,41.11310217172286 39.234816477110144,40.94036081882223 39.31198821880389,40.80000819784618 39.586376633669715,40.86478636088577 39.869339686469175,40.97274985061813 40.16087737723137,41.0483242076225 40.332370136573445,41.0699168680876 40.37524332635803,40.83239728586341 40.3666686884244,40.57328421858256 40.38381796432077,40.281781025267264 40.40096724027535,39.914701434950985 40.418116516200826,39.536823645255936 40.49528825786547,39.23452014186478 40.39239260231261,39.00779177255754 40.18660129114869,38.986198561353376 39.886488962423755,39.040181578522606 39.60352590959519,39.10496115154092 39.57780199567787,38.89982565894752 39.620675185491564,38.57592645298428 39.68927228922257,38.25202594943403 39.74929475496174,37.93892089581641 39.84361577258096,37.582627463300014 39.91221287631197,37.24792614179751 39.95508606615476,36.934817199500685 39.99795925593935,36.63250396665535 40.0322578077903,36.38417439394834 40.05798172170762,36.17903199774446 40.02368316985667,36.07106210638449 40.16087737723137,35.95229505941097 40.3666686884244,35.876715938633424 40.34951941246982,35.71476044197334 40.212325205036905,35.61758698822814 40.22947448093328,35.42323973034945 40.22089984302875,35.31526882963226 40.418116516200826,35.33686302132992 40.58103463749285,35.33686302132992 40.74395275878487,35.35845720722136 40.88114696627599,35.33686302132992 41.05263972555986,35.29367463217204 41.1984085708973,35.23968911335396 41.21555784685188,34.95896383418585 41.258431036694674,34.49468527166755 41.31845350243384,34.127579404375865 41.344177416322054,33.84685026334773 41.344177416322054,33.65249874852452 41.36132669224753,33.46894411104586 41.37847596817301,33.30698379064415 41.20698320888914,33.22060482043162 40.97546798386611,33.20980744265398 40.79540058661951,33.13422575790173 40.62390782733564,33.06944140044652 40.358094050432555,33.026251799979946 40.0322578077903,32.95066994363151 39.740720117028104,32.89668286010419 39.44060778830317,32.79950601890596 39.11477154563181,32.756316274208075 38.83180849283235,32.669936715610675 38.66889037148212,32.55116467176413 38.42880050849635,32.57275960181141 38.128688179771416,32.561962137478986 37.828575851017376,32.55116467176413 37.519888884271495,32.52956973598339 37.20262727965019,32.497177321441995 36.92823886475526,32.45398741523968 36.610977260104846,32.421594970415754 36.448059138754616,32.41079748591437 36.40518594897003,32.4755823712112 36.34516348320176,32.68073416545667 36.28514101746259,32.90748027968948 36.25084246558254,33.09103619205416 36.233693189686164,33.30698379064415 36.199394637777004,33.490538795886096 36.122222896141466,33.69568801443529 36.03647651648498,33.857647556047596 35.950730136886705,34.05199857769185 35.89928230908117,34.21395740549633 35.8392598433129,34.386713130814314 35.73636418773094,34.55946848698659 35.66776708402904,34.73222347400588 35.59059534233529,34.904978091828525 35.487699686782435,35.12092084498727 35.367654755275,35.25048622000031 35.307632289564935,35.54200755457714 35.20473663395387,35.790339714127185 35.067542426579166,36.092656096188875 34.930348219088046,36.416565251056454 34.76743009779602,36.74047310814785 34.63023589036311,37.04278593727213 34.50161632092204,37.31270715087885 34.355847475497285,37.61501784022403 34.201503992168,37.906530648688204 34.08145906066056,38.17644897855644 33.95283949121949,38.44636640725366 33.884242387488484,38.597519773757085 33.82421992174932,38.651503050423344 33.72132426619646,38.74867285766959 33.67845107635367,38.95380873377144 33.63557788651087,39.25611328674131 33.46408512722701,39.536823645255936 33.352614833711414,39.785143534587405 33.28401773000951,39.94709087762021 33.352614833711414,40.04425912772422 33.60985397262266,40.07664851847221 33.91854093936854,40.087444979159045 34.24437718198169,40.13063080757274 34.55306414872757,40.173816612885275 34.87890039131162,40.227798837084265 35.19616199599113,40.27098459053377 35.47055041085696,40.31417032086756 35.75351346368552,40.324966749838495 35.890707671118435,40.260188154330535 35.950730136886705,40.04425912772422 35.98502868870855,39.84992251073709 35.98502868870855,39.7635505310318 36.122222896141466,39.80673653240228 36.17367072388879,40.00107325321005 36.130797534104204,40.335763177397894 36.0622004304023,40.6920444775169 35.993603326700395,41.02673154139484 35.91643158500665,41.41539865123195 35.85640911926748,41.77167519392242 35.770662739611,42.0955615977 35.72778954979731,42.40865055481845 35.650617808132665,42.70014608022029 35.633468532178085,43.002436626200506 35.64204317014082,43.30472604203533 35.42767722104327,43.574626351233746 35.34193084141589,43.82293383997603 35.2561844617594,44.136016108495824 35.22188590990845,44.39511775880965 35.20473663395387,44.697401968136546 35.359080117341364,44.82695199761656 35.34193084141589,45.150826163298916 35.290483013610356,45.49629051017109 35.1875873580575,45.91732318740105 35.10184097837191,46.28437552758987 35.058967788587324,46.62983503162104 35.02466923670727,46.97529305982607 35.016094598773634,47.2991586209173 35.00751996078179,47.6230228848799 35.00751996078179,47.968476670117525 34.99037068488542,48.3355196999255 34.98179604689358,48.659379813332635 34.94749749501352,48.99403390124644 34.92177358115441,49.274710455487366 34.86175111538614,49.62015718493058 34.81030328760971,49.976397579113836 34.73313154591597,50.28945602395834 34.7845793737215,50.613308312276786 34.73313154591597,50.958749323712254 34.66453444221406,51.30418885954714 34.4930416829302,51.606447242993454 34.30439964774996,51.8547300700302 34.03858587084687,52.04903783769987 33.79849600789021,52.26493480983481 33.56698078280897,52.470036399514356 33.352614833711414,52.696727025017026 33.258293816121295,52.84785375568026 33.1468235225766,52.96659598881524 33.01820395310642,53.17169579905021 32.9238829354872,53.38758977413818 32.82098727993434,53.700635014385625 32.65806915864232,54.02447364298132 32.48657639930025,54.32672185973934 32.33223291597096,54.596585384475475 32.25506117430632,54.84485903195309 32.23791189835174,55.082337459876726 32.409404657635605,55.21187085391284 32.37510610581376,55.51411463323893 32.28935972612817,55.76238546415698 32.33223291597096,55.84874035711255 32.229337260418106,55.74079672649532 32.05784450113424,55.97827252372372 31.869202465895796,56.302102032605035 31.680560430686455,56.50719338426279 31.449045205663424,56.74466693121212 31.311850998201407,57.04690498254786 31.243253894528607,57.295171108387876 31.080335773178376,57.53264234179369 30.960290841729147,57.5758188547552 30.711626340751536,57.5758188547552 30.462961839773925,57.543436472195026 30.171424149011727,57.50025994191674 29.862737182324054,57.50025994191674 29.62264731930918,57.511054076639994 29.47687847391353,57.56502472867578 29.40828137018252,57.56502472867578 29.331109628488775,57.77011287792993 29.17676614515949,57.98599457850651 29.151042231271276,58.24505185861199 29.073870489606634,58.493314306775574 28.945250920107355,58.69840010225016 28.928101644210983,58.784751860570395 28.77375816082349,58.94666115893051 28.54224293580046,59.16253971925471 28.362175538553856,59.38921158746962 28.456496556143975,59.551119675867085 28.507944383949507,59.64826437330339 28.55939221175504,59.83175959467917 28.59369076360599,60.06922338080767 28.585116125643253,60.30668646979029 28.550817573763197,60.15557367565634 28.370750176516594,60.24192387833318 28.21640669318731,60.500973933209025 28.07063784779166,60.76002315845835 27.890570450515952,60.97589687907748 27.753376243112143,61.25653185459669 27.63333131163381,61.53716585642542" stroke="#4DD2FF" stroke-dasharray="none" stroke-linecap="round" stroke-linejoin="round" stroke-width="0.5"><title>2017-12-17 14.0km</title><desc>9223370523376934807</desc></polyline><polyline fill="none" opacity="1" points="100.55483546061441,32.40000000000873 100.43594214762561,32.63274498243118 100.59446656494401,32.882114124222426 100.66051840549335,33.148107325745514 100.67372877354501,33.46397351544874 100.68693914165488,33.796463376973406 100.67372877354501,34.0624546277395 100.66051840549335,34.41156728324131 100.62088730116375,34.74405461772403 100.52841472433647,34.9934195366659 100.67372877354501,35.192911112782895 100.66051840549335,35.907753305960796 100.71335987793282,36.206988355945214 100.83225319092162,36.45635034899169 100.88509466336109,36.788832230624394 100.93793613574235,37.104689196974505 100.95114650385221,37.470417316275416 100.96435687202029,37.8527682939166 101.03040871251142,38.13537478471699 101.09646055306075,38.43460448854603 101.17572276171995,38.717209660535445 101.20214349793969,39.033061741807614 101.2417746023275,39.34891302295728 101.34745754720643,39.51515021797968 101.58524417312583,39.61489242865355 101.62487527745543,39.74788191872358 101.49277159641497,39.91411858185893 101.33424717903836,39.99723683029879 101.4002990196459,40.279838460555766 101.50598196446663,40.529192308255006 101.6380856455653,40.8616633296042 101.73055822233437,41.144263000707724 101.82303079910344,41.44348548374546 101.96834484831197,41.74270724867529 102.12686926563038,42.02530492299411 102.25897294672905,42.291278619581135 102.11365889752051,42.52400513870816 101.84945153532317,42.47413520689588 101.65129601367516,42.32452529176953 101.41350938769756,42.14166848505556 101.21535386604955,42.17491519713076 100.97756724007195,42.224785248647095 100.73978061409434,42.25803193857428 100.67372877354501,42.457511891872855 100.68693914165488,42.70686138475139 100.58125619677594,42.87309410300804 100.31704883463681,42.97283362755843 100.02642073621973,43.07257307234977 99.73579263780266,43.1058195362275 99.59047858859412,42.97283362755843 99.64332006103359,42.740107946126955 99.73579263780266,42.424265255147475 99.82826521457173,42.14166848505556 99.89431705506286,41.79257747306838 99.9603688956704,41.41023857660184 99.9207377913408,41.044522013442474 99.8811066870112,40.72867502745066 99.78863411024213,40.44607441445987 99.48479564371519,40.44607441445987 99.23379864962772,40.36295646523649 99.15453644096851,40.2133440169564 99.14132607280044,40.013860473321984 99.14132607280044,39.79775294092542 99.04885349608958,39.648139814438764 98.8771187106613,39.648139814438764 98.69217355712317,39.61489242865355 98.56006987608271,39.66476350405719 98.58649061224423,39.947365887855995 98.5997009803541,40.22996763118135 98.61291134846397,40.562439450324746 98.62612171657383,40.81179273292946 98.65254245279357,41.16088649080484 98.63933208474191,41.49335582776985 98.63933208474191,41.79257747306838 98.63933208474191,42.1084217641328 98.65254245279357,42.40764193344512 98.65254245279357,42.6902381007385 98.65254245279357,43.02270335993671 98.66575282090344,43.25542851394857 98.66575282090344,43.454906871687854 98.66575282090344,43.67100806576491 98.63933208474191,43.93697825202253 98.62612171657383,44.18632478643849 98.5997009803541,44.31930940093298 98.57328024407616,44.56865517082042 98.54685950791463,44.801377439522184 98.54685950791463,45.00085332413437 98.54685950791463,45.26682067390357 98.54685950791463,45.54941036149103 98.56006987608271,45.88186799756659 98.53364913980477,46.21432474727044 98.54685950791463,46.53015783848241 98.54685950791463,46.81274466308241 98.56006987608271,47.095330847310834 98.57328024407616,47.42778436184744 98.57328024407616,47.71036915235163 98.57328024407616,47.99295330244058 98.56006987608271,48.20904663222609 98.56006987608271,48.45838462434767 98.50722840358503,48.707722117891535 98.56006987608271,48.95705911293044 98.58649061224423,49.223018024800695 98.62612171657383,49.50559874718601 98.66575282090344,49.804801167032565 98.70538392523304,50.153869749527075 98.7978565019439,50.51955959756742 98.8771187106613,50.885248373117065 98.99601202365011,51.1678253289283 99.08848460047739,51.433779525890714 99.19416754529811,51.74959939818655 99.29985049017705,51.998930311296135 99.40553343505599,52.18177266414568 99.44516453932738,52.34799275225669 99.59047858859412,52.59732246903877 99.65653042920167,52.846651687345 99.68295116536319,52.97962706658291 99.74900300591253,53.16246798155771 99.9207377913408,53.27882115149987 99.98678963189013,53.428417924806126 100.1188933129888,53.61125818180153 100.2377866259194,53.77747636460117 100.33025920274667,54.01018144840782 100.46236288378714,54.15977734440821 100.66051840549335,54.37585998848954 100.83225319092162,54.60856395569863 101.01719834445976,54.857889153048745 101.17572276171995,55.107213851908455 101.26819533854723,55.25680843203736 101.34745754720643,55.43964600839536 101.50598196446663,55.68896954425145 101.66450638178503,55.90504953882191 101.86266190343304,56.204236605539336 102.02118632080965,56.486801509483485 102.16650036995998,56.70288012176752 102.31181441916851,56.96882251520583 102.45712846837705,57.218142994039226 102.64207362191519,57.517326910747215 102.80059803923359,57.79988883974147 102.9987535608816,58.082450128524215 103.17048834630987,58.348389580263756 103.34222313173814,58.63094962637115 103.54037865338614,58.94675127333903 103.72532380692428,59.24593104333326 103.91026896046242,59.52848905608698 104.08200374583248,59.811046428614645 104.21410742693115,60.07698219451413 104.37263184424955,60.309675524549675 104.50473552540643,60.50912660470931 104.66325994266663,60.775060882180696 104.8349947280949,61.057615430647274 104.95388804114191,61.24044450330257 105.13883319462184,61.489756443101214 105.32377834815998,61.755688629695214 105.48230276547838,62.02162024920108 105.61440644657705,62.27093062756467 105.78614123206353,62.57010242383694 105.9578760174918,62.88589409692213 106.1560315390816,63.218305520611466 106.28813522018027,63.41775194957154 106.49950110993814,63.76678243286733 106.68444626347627,64.03270976453496 106.84297068079468,64.28201612312114 106.98828473000322,64.54794235629379 107.17322988354135,64.83048835789668 107.35817503707949,65.12965401481779 107.52990982250776,65.44543920758588 107.6752238717163,65.72798317612614 107.80732755275676,66.02714668045519 107.96585197013337,66.34292960110179 108.08474528306397,66.64209163053602 108.17721785983304,66.99111309132422 108.21684896416264,67.17393346678 108.16400749178138,67.3401335755334 108.0715349149541,67.47309350312571 108.09795565123204,67.42323354688415 108.23005933233071,67.38999356501154 108.34895264531951,67.5561933858844 108.44142522208858,67.805492702013 108.53389779879944,68.07141142337059 108.63958074367838,68.38718916865764 108.77168442471884,68.71958593165618 108.87736736965599,69.05198180887965 108.98305031453492,69.3511373410729 109.04910215508426,69.5838133700745 109.18120583618293,69.86634796464932 109.28688878112007,70.14888191931823 109.3925717259408,70.41479564498877 109.49825467081973,70.68070880381856 109.53788577514933,70.88014330093574 109.60393761569867,71.16267495935608 109.70962056063581,71.44520597791416 109.81530350545654,71.74435577061377 109.9077760821674,72.02688547167054 110.00024865899468,72.30941453280684 110.10593160387361,72.60856225297903 110.19840418070089,72.85785147189745 110.31729749363149,73.15699787686754 110.42298043851042,73.42290519023663 110.52866338338936,73.70543108954735 110.64755669637816,74.02119457282242 110.7532396412571,74.27048096865474 110.8721329542459,74.55300494843686 110.92497442662716,74.73581424144504 111.04386773961596,74.96848022690392 111.13634031638503,75.10143202377367 111.17597142077284,75.25100262583874 111.13634031638503,75.46704873449926 111.00423663528636,75.60000000000582 110.84571221802616,75.41719197345083 110.68718780070776,75.20114577845379 110.50224264716962,74.91862326658156 110.27766638936009,74.65271914149344 110.00024865899468,74.3369572567899 109.72283092868747,74.08767099377292 109.48504430276807,73.85500336546102 109.24725767673226,73.60571613929642 109.02268141892273,73.35642841503432 108.81131552910665,73.14037865097634 108.53389779879944,72.87447073540534 108.28290080471197,72.64180084432883 108.0319038106245,72.37589186594414 107.78090681659523,72.14322104492749 107.54312019055942,71.89393039794231 107.23928172403248,71.64463925274322 107.00149509811308,71.46182542962197 106.72407736780588,71.32886975361907 106.38060779694933,71.19591393595329 106.0371382260928,71.12943597394042 105.7200893915142,71.09619697964808 105.38983018876752,71.01309945520188 105.1124124584021,70.9466213957785 104.78215325565543,70.88014330093574 104.46510442107683,70.81366517065908 104.16126595454989,70.79704563258565 103.81779638369335,70.69732835743343 103.50074754905654,70.61423056724016 103.3554334997898,70.58099143570871 103.17048834630987,70.5311327217205 102.97233282466186,70.49789356801193 102.76096693490399,70.46465440549946 102.57602178136585,70.44803482084535 102.39107662782772,70.4314152339939 102.21934184239944,70.38155646028463 101.9947655845317,70.31507806427544 101.77018932660576,70.26521924404369 101.61166490940377,70.19874078604334 101.37387828336796,70.14888191931823 101.1228812893387,70.03254448607913 100.77941171848215,69.89958728665079 100.42273177945754,69.76662994548678 100.18494515353814,69.70015122182667 99.82826521457173,69.60043306980515 99.52442674804479,69.50071483811189 99.19416754529811,69.40099652667413 98.8374876062735,69.30127813550644 98.4808076673653,69.23479916377983 98.17696920083836,69.10184111405397 97.84670999814989,69.03536203605472 97.49003005912527,68.90240377376904 97.18619159259833,68.78606517793378 97.0012464390602,68.70296611453523 96.6841976044816,68.6032471653889 96.39356950600632,68.50352813646896 96.07652067136951,68.35394944364089 95.74626146868104,68.17113079772389 95.44242300221231,67.9716919692728 95.13858453562716,67.75563287863042 94.88758754153969,67.45647351995285 94.70264238800155,67.17393346678 94.58374907501275,66.90801283210749 94.53090760263149,66.72519206696597 94.37238318525488,66.50913081718318 94.2402795041562,66.25982890999876 94.13459655933548,66.11024752655067 94.00249287823681,65.82770442398032 93.8439684608602,65.51192019898735 93.65902330738027,65.17951488791732 93.50049889000366,64.79724768499727 93.30234336835565,64.41497931056074 93.11739821481751,63.99946887909027 92.94566342944745,63.700300511336536 92.78713901212905,63.38451090019953 92.62861459475243,63.01885877267341 92.45687980938237,62.63658494775882 92.27193465578603,62.237689272587886 92.0869895023643,61.85541305344668 91.87562361249002,61.45651487990108 91.71709919522982,61.10747793162591 91.50573330547195,60.72519824834308 91.33399852010189,60.34291739339824 91.17547410272527,59.960635366718634 90.99052894924534,59.57835216833337 90.84521490003681,59.26255212062097 90.69990085077006,58.94675127333903 90.5677971696714,58.730676548642805 90.46211422485067,58.41487435459567 90.34322091180366,58.049207657182706 90.22432759881485,57.666918599948986 90.14506539015565,57.284628370878636 90.09222391771618,56.98544389598828 90.03938244527671,56.63639443476859 89.98654097283725,56.22085808819975 89.94690986856585,55.80532035705983 89.92048913228791,55.47288917528931 89.88085802795831,55.14045710748178 89.80159581929911,54.774780809297226 89.82801655551884,54.44234688053257 89.80159581929911,54.06004676698649 89.78838545124745,53.72761093304143 89.81480618746718,53.37855235366442 89.82801655551884,53.029492797271814 89.81480618746718,52.63056639362185 89.74875434685964,52.28150474363065 89.68270250636851,51.93244211656565 89.6430714019807,51.516890096187126 89.62986103392905,51.18444748286856 89.61665066576097,50.80213738195016 89.57701956148958,50.536181837829645 89.51096772088204,50.22035889257677 89.48454698472051,49.804801167032565 89.59022992959945,49.389242056699004 89.61665066576097,49.05679377136403 89.61665066576097,48.75758955682977 89.62986103392905,48.54149717758992 89.66949213825865,48.391894541855436 89.61665066576097,48.12593385738728 89.57701956148958,47.84335000863939 89.55059882526984,47.52752024339861 89.52417808905011,47.19506699476915 89.49775735283038,46.84599012979015 89.47133661655243,46.56340338049631 89.39207440789323,46.16445629129885 89.3656536717317,45.782130799794686 89.35244330356363,45.38318121104385 89.31281219923403,45.034099273892934 89.27318109490443,44.734885407058755 89.23354999063304,44.419047768678865 89.22033962252317,44.21957095336984 89.23354999063304,43.87048575867084 89.23354999063304,43.52139958665066 89.22033962252317,43.188935657104594 89.19391888624523,42.90634062004392 89.14107741386397,42.5572517488763 89.10144630953437,42.224785248647095 89.11465667764423,41.87569446931593 89.14107741386397,41.57647302346595 89.11465667764423,41.19413346440706 89.04860483703669,40.894910382980015 89.03539446892682,40.49594515741046 89.0089737327653,40.180096781798056 89.04860483703669,40.030484114118735 89.04860483703669,39.84762394314748 89.02218410087517,39.56502133329923 89.0089737327653,39.31566555736936 88.96934262837749,38.99981419197866 88.90329078782815,38.717209660535445 88.86365968349855,38.31823746682494 88.8504493154469,37.985759663512 88.8504493154469,37.62003305586404 88.82402857916895,37.237681364495074" stroke="#4DD2FF" stroke-dasharray="none" stroke-linecap="round" stroke-linejoin="round" stroke-width="0.5"><title>2017-11-19 11.8km</title><desc>9223370525802103807</desc></polyline><polyline fill="none" opacity="0.5" points="187.5999999998603,66.0236452333047 187.36553595680743,66.92713472119067 187.07245590235107,67.90012193983421 185.95875169616193,68.10861900402233 185.255359566072,68.17811800987693 184.4933514248114,67.96962096903007 183.49687924026512,68.10861900402233 182.55902306665666,68.10861900402233 181.62116689281538,68.17811800987693 180.56607869756408,68.10861900402233 179.8040705563035,67.96962096903007 178.9834464045707,67.96962096903007 178.22143826354295,67.96962096903007 177.3421981006395,67.76112385862507 176.52157394844107,66.99663385830354 175.5837177745998,66.92713472119067 174.82170963380486,66.85763557621976 173.88385345996358,66.57963891886175 173.1218453189358,66.7186372630531 172.3012211669702,66.64913809474092 171.36336499336176,66.7186372630531 170.54274084139615,66.51013973512454 169.6635006784927,66.64913809474092 168.72564450465143,66.78813642339082 167.72917232010514,66.44064054382034 166.90854816813953,66.30164213792887 166.20515603781678,66.16264370107092 165.384531886084,66.16264370107092 164.62252374505624,65.88464673480485 163.7432835821528,65.88464673480485 162.9226594301872,65.74564820510568 162.21926729986444,65.95414598792559 160.98833107203245,65.39815174596151 159.99185888725333,65.25915310822893 159.05400271364488,65.18965377786662 157.99891451839358,65.25915310822893 157.58860244229436,65.32865243108245 156.47489823610522,65.60664964455646 155.0681139754597,64.98115574021358 154.07164179091342,64.14716289372882 153.19240162800997,64.35566120949807 152.19592944346368,64.00816397793824 151.3166892810259,63.869165030890144 150.61329715070315,64.00816397793824 149.9099050203804,63.7996655459865 149.20651289005764,63.52166752866469 148.3272727271542,63.59116704465123 147.56526458612643,63.938664508285 146.27571234712377,63.52166752866469 145.57232021703385,63.1046702710446 145.22062415187247,62.34017457580194 144.75169606506824,61.575677945744246 144.6930800541304,60.463681178574916 144.81031207600608,59.49068238417385 144.81031207600608,58.378681907604914 144.6930800541304,57.40567986789392 144.6930800541304,56.0851746769622 144.51723202154972,55.39017082436476 144.39999999990687,54.34766359644709 144.6344640434254,53.37465528177563 144.6344640434254,52.540646949375514 144.8689280867111,51.845639155537356 144.6930800541304,50.942127868242096 144.98616010835394,49.96911425224971 144.92754409764893,48.92659798276145 145.10339213022962,48.30108738626586 145.16200814116746,47.05006431584479 145.10339213022962,45.93804170633666 145.16200814116746,44.9650203002966 145.22062415187247,44.20050241862191 145.39647218445316,43.296980080136564 145.57232021703385,42.32395456265658 145.39647218445316,41.3509275301476 145.39647218445316,40.65590729378164 145.27924016257748,39.821881990123075 145.39647218445316,40.65590729378164 145.39647218445316,41.3509275301476 145.57232021703385,42.32395456265658 145.39647218445316,43.296980080136564 145.22062415187247,44.20050241862191 145.16200814116746,44.9650203002966 145.10339213022962,45.93804170633666 145.16200814116746,47.05006431584479 145.10339213022962,48.30108738626586 144.92754409764893,48.92659798276145 144.98616010835394,49.96911425224971 144.6930800541304,50.942127868242096 144.8689280867111,51.845639155537356 144.6344640434254,52.540646949375514 144.6344640434254,53.37465528177563 144.39999999990687,54.34766359644709 144.51723202154972,55.39017082436476 144.6930800541304,56.0851746769622 144.6930800541304,57.40567986789392 144.81031207600608,58.378681907604914 144.81031207600608,59.49068238417385 144.6930800541304,60.463681178574916 144.75169606506824,61.575677945744246 145.22062415187247,62.34017457580194 145.57232021703385,63.1046702710446 146.27571234712377,63.52166752866469 147.56526458612643,63.938664508285 148.3272727271542,63.59116704465123 149.20651289005764,63.52166752866469 149.9099050203804,63.7996655459865 150.61329715070315,64.00816397793824 151.3166892810259,63.869165030890144 152.19592944346368,64.00816397793824 153.19240162800997,64.35566120949807 154.07164179091342,64.14716289372882 155.0681139754597,64.98115574021358 156.47489823610522,65.60664964455646 157.58860244229436,65.32865243108245 157.99891451839358,65.25915310822893 159.05400271364488,65.18965377786662 159.99185888725333,65.25915310822893 160.98833107203245,65.39815174596151 162.21926729986444,65.95414598792559 162.9226594301872,65.74564820510568 163.7432835821528,65.88464673480485 164.62252374505624,65.88464673480485 165.384531886084,66.16264370107092 166.20515603781678,66.16264370107092 166.90854816813953,66.30164213792887 167.72917232010514,66.44064054382034 168.72564450465143,66.78813642339082 169.6635006784927,66.64913809474092 170.54274084139615,66.51013973512454 171.36336499336176,66.7186372630531 172.3012211669702,66.64913809474092 173.1218453189358,66.7186372630531 173.88385345996358,66.57963891886175 174.82170963380486,66.85763557621976 175.5837177745998,66.92713472119067 176.52157394844107,66.99663385830354 177.3421981006395,67.76112385862507 178.22143826354295,67.96962096903007 178.9834464045707,67.96962096903007 179.8040705563035,67.96962096903007 180.56607869756408,68.10861900402233 181.62116689281538,68.17811800987693 182.55902306665666,68.10861900402233 183.49687924026512,68.10861900402233 184.4933514248114,67.96962096903007 185.255359566072,68.17811800987693 185.95875169616193,68.10861900402233 187.07245590235107,67.90012193983421 187.36553595680743,66.92713472119067 187.5999999998603,66.0236452333047 187.5999999998603,65.53715035278583 187.5999999998603,64.425160632818 187.54138398938812,63.73016605316661 187.5999999998603,62.8266719445819 187.5999999998603,62.06217590958113 187.48276797845028,61.08917960344115 187.42415196751244,60.3941813147394 187.5999999998603,59.83818212756887" stroke="#4DD2FF" stroke-dasharray="1,0.5" stroke-linecap="round" stroke-linejoin="round" stroke-width="0.5"><title>2014-03-22 10.5km</title><desc>9223370641410674807</desc></polyline><polyline fill="none" opacity="1" points="55.59999999997672,99.629620009473 55.44456937263021,99.60597451299691 55.31828198785661,99.65326550020836 55.17256577470107,99.66508824346238 55.046278389927465,99.73602467274759 54.910276590962894,99.7714928680216 54.77427479199832,99.78331559694925 54.63827299303375,99.72420193810103 54.492556779878214,99.68873372557573 54.36626939510461,99.7714928680216 54.26912525302032,99.7714928680216 54.14283786818851,99.75967013770423 53.99712165503297,99.75967013770423 53.8611198560684,99.73602467274759 53.76397571398411,99.65326550020836 53.657117157650646,99.65326550020836 53.55025860131718,99.65326550020836 53.404542388161644,99.68873372557573 53.26854058919707,99.68873372557573 53.14225320442347,99.68873372557573 53.015965819649864,99.67691098522482 52.870249606494326,99.65326550020836 52.74396222172072,99.66508824346238 52.60796042281436,99.67691098522482 52.46224420960061,99.66508824346238 52.345671239017975,99.67691098522482 52.23881268274272,99.67691098522482 52.09309646952897,99.68873372557573 51.98623791319551,99.67691098522482 51.85995052848011,99.64144275556464 51.73366314370651,99.61779726192617 51.6073757589329,99.64144275556464 51.48108837421751,99.66508824346238 51.38394423207501,99.66508824346238 51.2285136046703,99.629620009473 51.11194063414587,99.61779726192617 51.0050820778124,99.61779726192617 50.88850910728797,99.60597451299691 50.74279289407423,99.61779726192617 50.59707668091869,99.61779726192617 50.48050371039426,99.64144275556464 50.34450191142969,99.60597451299691 50.23764335503802,99.60597451299691 50.101641556073446,99.60597451299691 49.98506858560722,99.59415176263428 49.83935237239348,99.57050625756528 49.71306498761987,99.54686074678466 49.547919946024194,99.57050625756528 49.40220373286866,99.57050625756528 49.266201933904085,99.59415176263428 49.11077130649937,99.58232901082374 48.99419833597494,99.58232901082374 48.88733977964148,99.57050625756528 48.761052394867875,99.59415176263428 48.644479424343444,99.58232901082374 48.51819203956984,99.57050625756528 48.382190240663476,99.58232901082374 48.275331684271805,99.58232901082374 48.139329885307234,99.58232901082374 48.01304250053363,99.61779726192617 47.89646953006741,99.60597451299691 47.77989655948477,99.61779726192617 47.6438947605202,99.60597451299691 47.507892961555626,99.60597451299691 47.391319991031196,99.60597451299691 47.255318192066625,99.60597451299691 47.14845963573316,99.60597451299691 47.03188666515052,99.60597451299691 46.91531369462609,99.60597451299691 46.769597481470555,99.58232901082374 46.64331009669695,99.54686074678466 46.517022711923346,99.57050625756528 46.381020912958775,99.55868350290984 46.23530469980324,99.54686074678466 46.10901731508784,99.55868350290984 45.982729930314235,99.55868350290984 45.85644254554063,99.59415176263428 45.730155160767026,99.58232901082374 45.594153361802455,99.57050625756528 45.45815156289609,99.55868350290984 45.33186417812249,99.55868350290984 45.20557679334888,99.53503798922611 45.05014616600238,99.54686074678466 44.94328760961071,99.52321523027786 44.79757139645517,99.53503798922611 44.65185518329963,99.53503798922611 44.525567798526026,99.55868350290984 44.37985158537049,99.52321523027786 44.23413537215674,99.48774694479653 44.088419159001205,99.48774694479653 43.952417359978426,99.46410141397064 43.82612997526303,99.4522786463931 43.690128176356666,99.46410141397064 43.59298403415596,99.46410141397064 43.45698223519139,99.48774694479653 43.34040926466696,99.52321523027786 43.22383629414253,99.54686074678466 43.07812008098699,99.54686074678466 42.95183269621339,99.54686074678466 42.82554531143978,99.52321523027786 42.70897234091535,99.52321523027786 42.60211378458189,99.54686074678466 42.446683157177176,99.53503798922611 42.330110186652746,99.52321523027786 42.20382280187914,99.54686074678466 42.077535417163745,99.52321523027786 41.95124803239014,99.49956970807398 41.8055318192346,99.49956970807398 41.688958848651964,99.48774694479653 41.572385878127534,99.47592418008571 41.41695525078103,99.44045587741857 41.29066786594922,99.48774694479653 41.13523723860271,99.46410141397064 41.00894985382911,99.4522786463931 40.89237688330468,99.46410141397064 40.74666067014914,99.46410141397064 40.61065887118457,99.4522786463931 40.484371486410964,99.4522786463931 40.32894085900625,99.46410141397064 40.22208230267279,99.47592418008571 40.07636608951725,99.49956970807398 39.96950753318379,99.42863310701068 39.82379131997004,99.42863310701068 39.70721834944561,99.42863310701068 39.57121655048104,99.41681033514033 39.43521475151647,99.42863310701068 39.31864178099204,99.4522786463931 39.18263998202747,99.41681033514033 39.05635259725386,99.42863310701068 38.92035079828929,99.40498756188026 38.78434899932472,99.40498756188026 38.66777602880029,99.39316478717228 38.560917472466826,99.34587367399945 38.43463008769322,99.34587367399945 38.308342702977825,99.35769645443361 38.16262648976408,99.38134201101639 38.03633910504868,99.36951923341985 37.919766134466045,99.41681033514033 37.79347874969244,99.41681033514033 37.63804812228773,99.41681033514033 37.51176073757233,99.42863310701068 37.385473352856934,99.39316478717228 37.268900382332504,99.39316478717228 37.16204182594083,99.40498756188026 37.02604002697626,99.39316478717228 36.88032381382072,99.40498756188026 36.75403642904712,99.36951923341985 36.598605801700614,99.35769645443361 36.50146165955812,99.36951923341985 36.365459860593546,99.36951923341985 36.07402743422426,99.38134201101639 35.792309422104154,99.35769645443361 35.627164380508475,99.29858253790007 35.24830222624587,99.40498756188026 34.92772655724548,99.38134201101639 34.69458061613841,99.31040532407496 34.48086350347148,99.31040532407496 34.22828873398248,99.26311417086254 34.04371486394666,99.27493696130114 33.76199685182655,99.27493696130114 33.499707668146584,99.40498756188026 33.247132898599375,99.33405089212465 32.945986058039125,99.47592418008571 29.225365414866246,99.26311417086254 28.98250505962642,99.18035459757084 28.759073532710318,99.22764579086652 28.42878344951896,99.26311417086254 28.156779851648025,99.18035459757084 27.8459185968386,99.13306338131224 27.612772655731533,99.09759495412436 24.445873622666113,99.13306338131224 24.164155610546004,99.1094177646446 23.843579941545613,99.08577214217803 23.610434000496753,99.1212405736951 23.38700247358065,99.05030369781161 23.076141218771227,99.01483524056675 22.78470879246015,99.06212651402166 22.502990780340042,99.05030369781161 20.064672813168727,99.02665806106234 19.705239487288054,99.05030369781161 19.510951203061268,99.05030369781161 19.326377333025448,99.03848088016821 19.258376433572266,99.02665806106234 19.08351697778562,98.97936677039979 18.87951427930966,99.02665806106234 18.665797166584525,99.01483524056675 18.481223296606913,98.94389828741987 18.25779176974902,98.93207545687619 18.014931414450984,98.93207545687619 17.762356644961983,99.00301241863053 17.665212502819486,98.88478412038967 16.538340454222634,98.99118959523184 16.2954800989246,98.94389828741987 16.101191814697813,98.94389828741987 15.809759388386738,98.93207545687619 15.537755790399387,98.95572111650836 15.285181020910386,98.95572111650836 15.003463008790277,98.96754394417076 14.760602653492242,98.89660695664497 14.517742298194207,98.93207545687619 14.294310771278106,98.89660695664497 13.973735102335922,98.90842979149602 13.789161232300103,98.86113844357897 13.439442320668604,98.92025262487732 13.09943782328628,98.87296128272283 12.98286485276185,98.94389828741987 13.041151337965857,99.20400019706722 13.03143692377489,99.36951923341985 13.070294580655172,99.64144275556464 12.91486395325046,99.72420193810103 12.856577467988245,99.52321523027786 12.769147740094922,99.36951923341985 12.604002698499244,99.42863310701068 12.47771531372564,99.66508824346238 12.400000000023283,99.79513832445082 12.42914324265439,100.10252873649733 12.47771531372564,100.38627287348208 12.536001798987854,100.65819356443535 12.59428828425007,100.95375867412076 12.642860355321318,101.23750033785473 12.7108612547745,101.45030604462954 12.73029008321464,101.65128878632822 12.749718911654782,101.87591606702335 12.77886215428589,102.17147749131254 12.82743422529893,102.40792598665575 12.837148639548104,102.66801867033791 12.82743422529893,102.95175535351154 12.885720710619353,103.22366890130797 12.856577467988245,103.50740397012851 12.91486395325046,103.76749372571794 12.856577467988245,104.05122721460793 12.89543512481032,104.31131552196166 12.798290982667822,104.5714031366806 12.846863053739071,104.81966794096661 12.856577467988245,105.04428793438274" stroke="#4DD2FF" stroke-dasharray="none" stroke-linecap="round" stroke-linejoin="round" stroke-width="0.5"><title>2013-12-10 10.9km</title><desc>9223370650177580807</desc></polyline><polyline fill="none" opacity="1" points="106.23893158044666,83.02704909676686 102.39958906918764,80.6918944849167 99.04016437195241,80.6918944849167 96.64057530183345,81.85947207268327 93.52110951114446,83.90273149451241 91.36147934850305,88.2811387181282 91.36147934850305,91.78385877958499 90.16168481484056,95.87035909830593 89.68176699988544,98.49739136477001 88.72193137276918,102.58388032088988 88.96189028024673,106.37847101641819 88.2420135596767,109.29738287813962 88.2420135596767,113.09196302411146 88.2420135596767,116.01086677075364 89.4418080933392,118.34598722797818 91.84139716345817,121.84866367932409 94.72090404573828,123.01622136775404 98.56024655792862,123.60000000009313 102.15963016077876,122.43244259478524 104.07930141687393,119.80543636670336 106.71884939447045,117.47031732159667 108.39856174215674,113.38385355728678 108.39856174215674,110.17305574938655 109.59835627768189,106.08657963620499 110.07827409170568,102.87577212415636 110.79815081227571,99.08117592497729 111.7579864403233,94.70278828428127 111.7579864403233,92.07575188926421 111.51802753377706,87.69735154649243 110.31823299825191,84.19462555623613 108.87847955618054,81.85947207268327 105.51905485894531,80.98378893476911 103.11946578975767,80.4000000001397 99.28012327849865,80.6918944849167 96.16065748780966,82.44326065597124 93.04119169805199,85.36220145085827 90.64160262793303,88.57303225062788 90.40164372138679,92.36764496355318 89.92172590643167,95.87035909830593 89.4418080933392,99.37306815129705 88.72193137276918,102.58388032088988 88.72193137276918,106.37847101641819 88.2420135596767,110.17305574938655 88.72193137276918,113.96763451839797 89.20184918586165,117.47031732159667 91.36147934850305,119.80543636670336 94.24098623264581,121.55677416943945 97.60041092988104,122.43244259478524 101.43975344114006,122.1405531547498 105.27909595239908,119.51354661001824 107.67868502158672,117.17842728225514 108.39856174215674,112.80007245577872 109.11843846272677,108.71360078873113 109.59835627768189,104.33523061382584 110.07827409170568,100.83252875739709" stroke="#4DD2FF" stroke-dasharray="none" stroke-linecap="round" stroke-linejoin="round" stroke-width="0.5"><title>2013-11-30 10.3km</title><desc>9223370651086224807</desc></polyline><polyline fill="none" opacity="1" points="165.32138997409493,82.6012937091291 162.1545431893319,82.6012937091291 162.38074653036892,83.7019397658296 160.34491645358503,85.07774658850394 156.27325630094856,88.93000126630068 157.17806966789067,92.23192865797319 156.49945964291692,95.80901126144454 156.27325630094856,100.76188558526337 156.49945964291692,104.06379581429064 153.55881619919091,107.36570125445724 154.46362956706434,109.8421271899715 155.82084961794317,112.31855043233372 155.82084961794317,116.17075901036151 156.49945964291692,118.37201812700368 157.40427300985903,119.47264688764699 159.44010308664292,122.22421646025032 162.83315321430564,122.22421646025032 166.67861002590507,123.60000000009313 167.58342339284718,121.6739028126467 171.20267686247826,119.74780399515294 174.8219303302467,115.89560147118755 175.72674369905144,114.51981327589601 177.53637043293566,112.04339242749847 176.85776040703058,106.8153840135783 176.17915038205683,105.71474913298152 176.4053537240252,101.86252286075614 177.762573774904,96.90965093066916 177.762573774904,95.80901126144454 176.17915038205683,92.78224942437373 178.44118379987776,90.30580492829904 176.85776040703058,89.20516206463799 175.2743370141834,86.72871367656626 173.23850693926215,83.7019397658296 171.4288802035153,83.15161680453457 168.4882367597893,80.4000000001397 163.9641699232161,82.6012937091291 160.79732313752174,85.90323028201237 157.85667969379574,88.93000126630068 156.72566298395395,90.85612616012804 156.49945964291692,95.25869122636504 158.0828830357641,99.38608824228868 156.27325630094856,102.96315960329957 155.36844293307513,105.43959032977 156.0470529589802,107.64085982413962 155.1422395920381,110.6676019039005 155.36844293307513,113.69433995871805 155.36844293307513,117.27138883504085 157.40427300985903,118.64717536675744 160.118713112548,120.57327511627227 163.5117632402107,121.94905965286307 166.4524066830054,122.77452997583896 169.61925346869975,122.22421646025032 172.3336935704574,120.02296106843278 174.8219303302467,117.27138883504085 176.4053537240252,113.41918211965822 176.63155706506222,110.3924436995294 176.85776040703058,107.36570125445724 176.85776040703058,104.06379581429064 176.17915038205683,100.76188558526337 176.85776040703058,97.45997056690976 177.08396374993026,94.70837105903774 177.98877711594105,91.40644725854509 177.53637043293566,88.37967956834473 176.17915038205683,85.62806908367202 174.3695236472413,83.7019397658296 172.3336935704574,82.87645527347922 169.16684678569436,82.05097048147582 166.4524066830054,82.05097048147582 163.28555989731103,83.7019397658296 161.47593316342682,84.25226259441115 159.44010308664292,86.45355257811025 157.85667969379574,88.37967956834473 157.63047635182738,91.40644725854509 156.72566298395395,95.25869122636504 157.17806966789067,98.28544977051206 156.49945964291692,102.13768209633417 156.49945964291692,104.06379581429064 156.0470529589802,108.46633533574641 154.68983290810138,112.31855043233372 155.1422395920381,116.17075901036151 156.49945964291692,118.09686085442081 160.34491645358503,119.19748974777758 163.5117632402107,121.3987459379714 166.67861002590507,121.3987459379714 170.07166015263647,119.74780399515294 172.3336935704574,118.09686085442081 174.14332030527294,115.07012865296565 175.72674369905144,111.21791821252555 175.50054035615176,107.64085982413962 176.17915038205683,104.33895478351042 176.17915038205683,100.76188558526337 176.85776040703058,97.45997056690976 177.08396374993026,93.6077303243801 178.21498045884073,89.48032283014618 177.08396374993026,87.55419677193277 175.04813367314637,85.62806908367202 172.3336935704574,83.97710119653493 168.2620334168896,82.87645527347922 164.64277994912118,83.15161680453457 161.9283398464322,84.80258529004641 159.21389974374324,87.27903577359393 158.0828830357641,90.0306442619767 157.63047635182738,92.78224942437373 156.49945964291692,96.90965093066916 156.72566298395395,100.21156674809754 156.72566298395395,102.41284129838459" stroke="#4DD2FF" stroke-dasharray="none" stroke-linecap="round" stroke-linejoin="round" stroke-width="0.5"><title>2013-11-16 10.4km</title><desc>9223370652294258807</desc></polyline><polyline fill="none" opacity="1" points="45.67581155523658,135.7973143735435 43.48659688886255,134.31785328662954 40.810890073888004,130.4712502779439 38.37842933367938,129.58357180282474 30.59455496352166,128.99178597261198 27.675602074712515,131.06303575029597 25.97287955507636,134.61374557600357 22.81068059336394,138.16445025079884 24.27015703730285,141.12336687929928 23.297172740101814,144.6740621116478 23.297172740101814,150.88776637450792 22.81068059336394,154.43844744330272 23.053926666267216,160.06034860108048 22.56743451859802,163.6110163643025 23.540418814867735,166.5699022328481 24.99989525973797,168.64112021238543 29.135078518651426,170.71233643963933 34.0,171.60000000009313 38.37842933367938,171.30411218269728 39.35141362901777,169.52878452418372 42.02712044399232,167.1616789775435 42.27036651875824,163.01923876185901 42.27036651875824,160.35623777890578 43.24335081502795,155.32611690624617 45.18931940756738,150.29598569567315 45.43256548140198,146.1535169382114 45.919057629071176,142.89871513913386 45.67581155523658,138.75623386260122 45.919057629071176,135.7973143735435 44.70282725803554,132.5424988034647 40.56764399912208,129.879464663798 36.91895288974047,128.99178597261198 33.270261778496206,128.99178597261198 29.378324592486024,130.4712502779439 26.7026177784428,132.24660626379773 25.486387407407165,136.38909855671227 23.783664888702333,141.12336687929928 23.783664888702333,144.08227993012406 23.540418814867735,146.74529861821793 22.81068059336394,150.88776637450792 23.053926666267216,154.73433729959652 22.81068059336394,157.69323389837518 23.053926666267216,162.72334990650415 24.02691096253693,165.09045974630862 26.459371704608202,167.1616789775435 31.081047111190856,171.00822432967834 34.972984296269715,171.00822432967834 38.62167540658265,169.82467255694792 40.810890073888004,168.64112021238543 43.48659688886255,165.38634831481613 44.216335110366344,162.72334990650415 43.973089036531746,158.58090218016878 44.459581185132265,153.8466676226817 45.43256548140198,150.88776637450792 46.162303702905774,147.33708015549928 46.162303702905774,143.7863887862768 46.405549777671695,139.64390901243314 45.919057629071176,135.7973143735435 43.72984296362847,132.5424988034647 41.054136148653924,130.4712502779439 36.91895288974047,128.4000000001397 33.270261778496206,128.99178597261198 29.864816741086543,130.4712502779439 26.7026177784428,131.95071368920617 24.02691096253693,134.90963782859035 23.297172740101814,140.23569226590917 23.540418814867735,143.7863887862768 23.053926666267216,147.33708015549928 24.51340311113745,150.88776637450792 22.81068059336394,156.50967568787746 22.080942370928824,160.35623777890578 22.81068059336394,164.2027938242536 23.053926666267216,166.27401380729862 26.7026177784428,168.64112021238543 29.621570666320622,170.12056055432186 34.486492147669196,170.71233643963933 37.89193718507886,170.12056055432186 41.054136148653924,168.64112021238543 43.24335081502795,165.68223684746772 43.973089036531746,162.13157208892517 44.94607333280146,158.58090218016878 45.43256548140198,155.0302271207329 45.67581155523658,151.77543712500483 46.162303702905774,148.81653337273747 46.405549777671695,145.26584414974786 46.89204192534089,139.3480173314456 46.405549777671695,135.7973143735435 44.70282725803554,133.13428377383389 41.54062829632312,130.4712502779439 38.864921481348574,129.2876789055299 34.0,128.69589300476946 31.081047111190856,129.58357180282474 28.40534029621631,130.76714303181507 25.97287955507636,133.13428377383389 24.99989525973797,134.31785328662954 24.27015703730285,135.7973143735435 25.486387407407165,139.3480173314456 25.243141333572567,140.82747537712567 24.756649184972048,144.9699531486258 23.297172740101814,149.1124239093624 22.56743451859802,152.3672174452804 22.080942370928824,157.39734439994209 21.10795807465911,159.46857014065608 21.837696296162903,160.94801602489315 23.297172740101814,163.90690511232242 25.97287955507636,165.68223684746772 28.40534029621631,168.93700835271738 31.56753925886005,169.82467255694792" stroke="#4DD2FF" stroke-dasharray="none" stroke-linecap="round" stroke-linejoin="round" stroke-width="0.5"><title>2013-11-03 10.7km</title><desc>9223370653417861807</desc></polyline><polyline fill="none" opacity="1" points="106.74764609336853,167.28003524802625 107.93144365400076,163.24806107999757 109.58876023907214,160.0800765901804 109.82551975175738,155.7600909504108 109.58876023907214,152.01609706040472 110.77255779877305,148.27209728653543 111.48283633589745,145.39209345774725 111.71959584765136,142.5120861462783 111.9563553603366,138.48007006268017 111.48283633589745,133.2960393568501 109.35200072731823,129.84001261997037 106.98440560605377,129.2640076763928 103.90653194859624,130.41601742454804 100.35513926763088,130.12801503995433 97.51402512192726,130.41601742454804 94.67291097715497,132.14403100241907 92.77883488032967,135.3120526385028 91.35827780794352,138.1920686531812 91.59503732062876,143.37608870584518 90.88475878350437,145.96809450211003 90.1744802473113,149.712097896263 89.46420171111822,153.4560954067856 88.51716366223991,155.7600909504108 88.28040415141732,159.2160800890997 88.28040415141732,162.96006266516633 89.70096122287214,167.28003524802625 92.77883488032967,169.5840174248442 97.27726561017334,171.31200259411708 100.59189877938479,171.60000000009313 104.3800509730354,170.16001262003556 107.69468414224684,167.28003524802625 108.16820316575468,162.6720642137807 110.29903877526522,158.06408426584676 110.53579828795046,154.60809345706366 110.53579828795046,151.44009747868404 110.77255779877305,147.1200961722061 111.00931731145829,142.80008703446947 112.19311487209052,139.0560727783013 112.42987438477576,135.3120526385028 110.29903877526522,132.7200352489017 108.87848170287907,130.41601742454804 105.80060804635286,128.9760051521007 102.01245585177094,128.4000000001397 98.22430365905166,129.2640076763928 94.90967048984021,129.84001261997037 89.70096122287214,133.8720433257986 88.99068268761039,135.0240508459974 88.99068268761039,136.46405946207233 90.1744802473113,139.63207535468973 89.93772073462605,143.66408948926255 88.51716366223991,147.69609680003487 88.51716366223991,150.57609784416854 87.57012561522424,154.32009399705566 87.57012561522424,157.48808614653535 87.80688512697816,160.65607408294454 87.57012561522424,163.5360594613012 89.22744219843298,166.7040393569041 91.35827780794352,169.00802208902314 94.19939195271581,169.87201503990218 97.9875441454351,169.5840174248442 102.01245585177094,168.72002436965704 106.51088658254594,166.99203731981106 108.40496267937124,164.4000543965958 110.29903877526522,160.65607408294454 109.82551975175738,156.62408870481886 110.29903877526522,152.59209650335833 110.53579828795046,149.13609775714576 110.77255779877305,145.39209345774725 111.00931731145829,141.93608426721767 112.19311487209052,139.34407408325933 111.9563553603366,135.3120526385028 109.35200072731823,132.7200352489017" stroke="#4DD2FF" stroke-dasharray="none" stroke-linecap="round" stroke-linejoin="round" stroke-width="0.5"><title>2013-11-02 10.5km</title><desc>9223370653505000807</desc></polyline><polyline fill="none" opacity="1" points="176.2102638334036,139.20007833116688 175.54437706060708,134.88005326571874 173.32475448958576,131.1000244792085 172.21494320314378,130.29001747770235 168.88550934474915,128.94000515691005 166.2219622572884,128.94000515691005 162.6705661425367,130.56001984444447 159.78505679685622,132.45003549358808 157.5654342258349,135.15005507646129 156.01169842481613,138.12007284793071 156.45562293939292,142.98009340977296 156.67758519575,145.68010026379488 156.23366068210453,149.19010429433547 156.01169842481613,151.35010403278284 156.01169842481613,152.97010246641003 155.56777391023934,155.67009724397212 155.12384939659387,158.6400877290871 156.23366068210453,162.15007139416412 157.5654342258349,164.85005507571623 160.67290582694113,167.0100396713242 164.22430194169283,168.3600289823953 167.7756980592385,168.3600289823953 169.77335837297142,167.82003335561603 172.65886771772057,165.66004954348318 174.6565280323848,162.96006684168242 175.54437706060708,159.18008557590656 175.54437706060708,155.94009654247202 175.7663393188268,152.70010280935094 175.54437706060708,149.46010437584482 175.54437706060708,146.49010168295354 176.43222609069198,142.98009340977296 176.87615060433745,140.01008210144937 176.43222609069198,137.31006839242764 175.32241480425,134.34004954481497 173.99064126145095,132.72003759886138 170.4392451448366,130.56001984444447 167.7756980592385,128.4000000001397 165.3341132281348,129.48001018329524 162.0046793706715,130.8300221778918 159.78505679685622,132.45003549358808 158.67524551134557,135.69005860155448 158.2313209977001,138.12007284793071 157.7873964831233,141.63008875912055 156.45562293939292,144.33009724435396 156.01169842481613,146.76010209089145 156.23366068210453,150.81010429398157 157.7873964831233,154.32010026299395 154.90188713837415,155.13009854895063 155.12384939659387,156.21009580790997 154.45796262472868,157.56009164638817 154.90188713837415,163.23006525845267 160.22898131329566,166.20004569296725 165.77803774364293,167.55003549298272 167.1098112873733,167.55003549298272 169.10747160110623,167.55003549298272 171.77101868763566,168.3600289823953 173.99064126145095,164.0400603134185 174.6565280323848,162.96006684168242 174.8784902896732,160.5300796192605 175.54437706060708,159.18008557590656 173.54671674594283,158.91008666879497 174.8784902896732,158.10008975397795 176.2102638334036,155.94009654247202 175.9883015761152,150.81010429398157 176.2102638334036,149.46010437584482 175.7663393188268,146.2201012421865 176.2102638334036,142.1700907170307 175.7663393188268,136.7700652598869 175.32241480425,133.26004171161912 173.54671674594283,129.75001264712773 169.55139611661434,129.48001018329524 165.77803774364293,129.21000768686645 162.6705661425367,130.56001984444447 159.78505679685622,132.72003759886138 156.67758519575,133.26004171161912 156.45562293939292,137.58006991050206 156.23366068210453,140.55008445074782 156.01169842481613,144.0600965428166 154.90188713837415,147.57010311936028 155.34581165295094,151.62010385282338 155.12384939659387,155.13009854895063 154.90188713837415,159.18008557590656 154.90188713837415,161.61007426702417 158.45328325405717,165.66004954348318 164.00233968626708,168.63002674723975 166.44392451550812,169.98001507879235 169.32943385839462,171.60000000009313 173.32475448958576,167.82003335561603 175.1004525469616,162.69006839231588 175.54437706060708,159.7200832911767 175.54437706060708,158.6400877290871 175.1004525469616,153.24010209064 174.8784902896732,148.92010417976417 175.32241480425,146.2201012421865 175.54437706060708,142.98009340977296 177.09811286255717,138.93007700890303 175.7663393188268,135.96006031497382 174.43456577509642,134.34004954481497 172.88082997407764,130.8300221778918 170.21728288847953,130.02001507859677 166.0,129.75001264712773 162.0046793706715,130.56001984444447 159.78505679685622,130.8300221778918 156.89954745396972,132.72003759886138 154.90188713837415,135.69005860155448 154.67992488108575,138.39007426798344 155.34581165295094,139.7400808769744 154.23600036650896,142.71009254432283 154.67992488108575,145.95010076928884 154.90188713837415,147.57010311936028 154.45796262472868,150.27010442432947 154.90188713837415,153.78010124200955 154.67992488108575,157.02009340864606 154.90188713837415,161.34007565444335 157.5654342258349,166.20004569296725 161.7827171124518,168.63002674723975 163.11449065618217,168.3600289823953 166.0,169.98001507879235 167.99766031466424,169.1700221770443 171.1051319167018,171.33000259427354 173.32475448958576,168.63002674723975 174.8784902896732,162.42006990942173 173.99064126145095,158.37008875748143 175.1004525469616,151.35010403278284 174.8784902896732,147.0301024664659 174.8784902896732,145.68010026379488 176.43222609069198,142.98009340977296 177.76399963349104,140.82008557626978 177.09811286255717,136.7700652598869 175.32241480425,132.1800333559513 173.10279223136604,129.75001264712773 169.9953206302598,128.6700025945902 166.0,128.94000515691005 161.1168303405866,130.56001984444447 157.1215097112581,132.1800333559513 156.67758519575,133.53004371840507 155.56777391023934,134.61005142168142 155.78973616752774,137.04006684245542 156.01169842481613,138.6600756549742 156.23366068210453,142.1700907170307 156.23366068210453,143.5200950417202 156.23366068210453,147.84010339644738 156.01169842481613,149.19010429433547 155.12384939659387,151.62010385282338 155.78973616752774,155.13009854895063 154.90188713837415,156.21009580790997 155.12384939659387,161.07007700833492 156.23366068210453,162.15007139416412 156.23366068210453,163.50006364332512 158.45328325405717,165.66004954348318 162.6705661425367,168.63002674723975 167.1098112873733,170.52001018356532 170.4392451448366,169.710017477395 171.99298094585538,168.09003118495457 175.32241480425,163.77006199466996 174.8784902896732,159.18008557590656 174.43456577509642,152.97010246641003 176.2102638334036,152.1601033960469 176.65418834704906,147.3001028096769 176.87615060433745,146.49010168295354 175.9883015761152,142.71009254432283 176.87615060433745,138.93007700890303 175.54437706060708,134.34004954481497 173.54671674594283,132.1800333559513 172.21494320314378,128.94000515691005 166.2219622572884,129.21000768686645 162.0046793706715,130.02001507859677 159.34113228321075,132.1800333559513 157.3434719676152,134.34004954481497 156.23366068210453,136.50006364448927 156.89954745396972,138.39007426798344 157.1215097112581,140.01008210144937" stroke="#4DD2FF" stroke-dasharray="none" stroke-linecap="round" stroke-linejoin="round" stroke-width="0.5"><title>2013-10-26 11.1km</title><desc>9223370654110301807</desc></polyline><polyline fill="none" opacity="1" points="44.163525108247995,202.26325324806385 44.63081361912191,199.13694104878232 43.92988085281104,197.14746748516336 44.39716936275363,193.1685153071303 44.163525108247995,191.17903669271618 43.462592341937125,189.75797950988635 43.22894808650017,187.76849800907075 42.5280153201893,183.78952995873988 41.126149787567556,180.3789805562701 36.9205531924963,178.67370399925858 33.649533617310226,178.10527820512652 29.67758127581328,180.66319319489412 27.574782977811992,181.51583090610802 25.00469616893679,184.3579543782398 23.135542125441134,187.76849800907075 24.537407658062875,190.32640248560347 25.238340423442423,193.1685153071303 25.238340423442423,196.86325683817267 24.30376340262592,199.9895720607601 23.836474891752005,203.68430287321098 23.602830636315048,206.81060902611353 24.537407658062875,208.23165590292774 23.836474891752005,212.77900013769977 25.939273189753294,215.62108581862412 28.275715744122863,217.89475188939832 31.079446808435023,218.46316806343384 34.350466382689774,217.89475188939832 38.32241872418672,216.18950254260562 41.59343829937279,213.91583482245915 42.5280153201893,209.93691102182493 42.29437106475234,206.52639954793267 42.76165957655758,202.26325324806385 42.76165957655758,198.85273064253852 42.76165957655758,195.1579922370147 44.163525108247995,191.4632480267901 45.79903489537537,189.18955639493652 46.7336119171232,186.63165068160743 46.49996766075492,184.07374218595214 44.163525108247995,181.23161837016232 41.126149787567556,179.81055517448112 38.08877446874976,177.25263925665058 34.81775489449501,176.4000000001397 31.313091062940657,177.82106525660492 28.509359998628497,180.09476788225584 25.939273189753294,182.6526807071641 25.471984679810703,185.77901482582092 25.471984679810703,189.4737679695245 25.00469616893679,192.60009301709943 24.537407658062875,196.86325683817267 21.733676593750715,199.9895720607601 22.20096510462463,203.68430287321098 21.967320849187672,207.94744659680873 22.434609359130263,211.07374708005227 22.434609359130263,213.91583482245915 24.537407658062875,216.75791912851855 27.574782977811992,219.0315841003321 30.845802552998066,219.60000000009313 34.81775489449501,219.0315841003321 37.38784170243889,217.610543750925 41.126149787567556,215.90529419737868 42.060726810246706,213.6316262029577 43.69623659737408,210.22112008789554 44.163525108247995,206.81060902611353 44.163525108247995,203.1158831268549 44.63081361912191,199.70536175812595 45.33174638450146,195.4422030900605 45.565390639938414,192.0316705906298 46.03267915081233,189.18955639493652 45.79903489537537,185.49480280443095 44.864457874558866,181.80004340759479 42.76165957655758,179.24212965508923 39.72428425680846,178.10527820512652 36.21962042618543,177.53685227409005 32.7149565955624,177.53685227409005 29.443937021307647,178.95791684417054 25.939273189753294,181.23161837016232 24.537407658062875,184.07374218595214 25.238340423442423,188.33692146651447 23.836474891752005,191.74745932617225 23.602830636315048,194.58957042940892 23.602830636315048,198.28430972713977 21.967320849187672,201.69483315735124 22.434609359130263,206.52639954793267 22.20096510462463,209.3684927856084 23.602830636315048,212.21058258996345 24.537407658062875,215.90529419737868 25.471984679810703,217.610543750925 31.079446808435023,219.0315841003321 35.051399149000645,218.46316806343384 37.62148595787585,216.18950254260562 41.82708255387843,212.77900013769977 43.462592341937125,211.9263737637084 44.163525108247995,209.08428361662664 43.69623659737408,205.95798048726283 43.69623659737408,202.26325324806385 43.69623659737408,199.13694104878232 44.163525108247995,195.72641390911303 45.565390639938414,192.31588182109408 45.79903489537537,189.18955639493652 45.79903489537537,186.34743876405992 45.79903489537537,183.78952995873988 43.462592341937125,181.23161837016232 41.59343829937279,178.10527820512652 38.08877446874976,176.96842620545067 33.88317787181586,178.10527820512652 29.91122553125024,180.09476788225584 27.574782977811992,183.22110540163703 25.471984679810703,186.34743876405992 24.07011914718896,188.33692146651447 23.836474891752005,192.0316705906298 22.9018978709355,195.4422030900605 22.434609359130263,199.13694104878232 23.135542125441134,202.26325324806385 21.733676593750715,205.38956129038706 21.2663880828768,208.51586517505348 22.434609359130263,213.6316262029577 24.537407658062875,215.90529419737868 26.873850212432444,217.89475188939832 28.97664850950241,219.31579206697643" stroke="#4DD2FF" stroke-dasharray="none" stroke-linecap="round" stroke-linejoin="round" stroke-width="0.5"><title>2013-10-20 10.7km</title><desc>9223370654628121807</desc></polyline><polyline fill="none" opacity="1" points="86.71019157581031,207.37366914795712 87.3802659502253,210.36233394150622 89.83720532245934,213.0792984876316 92.51750282011926,214.9811717160046 95.42115844320506,217.42643493087962 99.21824656426907,217.6981306800153 102.56861843541265,217.42643493087962 106.14234843291342,216.06795569579117 109.26936217956245,213.8943872116506 110.83286905195564,211.17742365039885 111.05622717738152,208.18875993951224 111.50294342730194,205.20009225560352 111.94965967629105,201.1246299177874 112.61973405070603,198.13595284009352 113.06645030062646,195.41897022980265 113.28980842512101,192.70198433613405 112.84309217520058,188.89819856663235 112.61973405070603,186.1812047897838 110.38615280296654,182.92080792272463 108.82264592964202,179.6604063261766 105.91899030748755,177.75850321003236 102.79197656083852,176.67170070740394 99.88832093775272,176.67170070740394 96.31459094118327,177.48680263385177 92.96421907003969,179.6604063261766 90.50727969687432,182.92080792272463 89.61384719889611,185.90950523177162 89.61384719889611,188.89819856663235 88.94377282448113,192.15858676331118 88.72041469905525,196.23406535829417 87.60362407565117,199.49444291344844 88.05034032464027,202.4831181843765 86.93354970123619,206.2868809637148 89.39048907347023,208.73215363710187 90.28392157331109,211.9925130638294 92.07078657113016,215.52456377237104 94.30436781886965,217.42643493087962 97.8780978154391,218.7849133447744 101.67518593650311,219.60000000009313 104.57884155865759,217.96982639585622 107.03578093089163,215.25286776060238 109.04600405413657,212.8076021813322 110.60951092839241,209.81894063809887 110.38615280296654,207.64536611060612 111.05622717738152,204.65669770352542 111.27958530280739,201.6680253231898 111.50294342730194,198.67934896820225 112.1730178007856,196.23406535829417 112.61973405070603,191.88688792707399 112.61973405070603,188.62649933667853 111.27958530280739,183.19250784208998 109.492720304057,179.6604063261766 106.58906468190253,178.03020375361666 102.12190218642354,176.4000000001397 98.54817218892276,176.67170070740394 95.64451656676829,178.03020375361666 92.51750282011926,179.9321066394914 90.95399594679475,183.19250784208998 90.7306378223002,186.72460380778648 90.28392157331109,191.07179122348316 89.61384719889611,195.69066863902844" stroke="#4DD2FF" stroke-dasharray="none" stroke-linecap="round" stroke-linejoin="round" stroke-width="0.5"><title>2013-10-19 10.2km</title><desc>9223370654714312807</desc></polyline><polyline fill="none" opacity="1" points="154.87229889724404,213.26404901687056 157.23989487532526,215.856031000847 161.5015676394105,217.87201503897086 165.0529616093263,219.60000000009313 168.36759597994387,218.16001261910424 171.20871115475893,216.14402882475406 174.049826329574,213.55204715393484 174.76010512374341,210.38406572700478 175.70714351627976,206.06408426584676 175.23362432047725,202.03209450119175 175.47038391791284,197.71209789603017 175.70714351627976,194.83209580741823 176.41742231044918,190.8000870347023 177.36446070112288,187.05607277853414 175.94390311371535,183.0240508459974 174.76010512374341,180.14403100172058 171.20871115475893,177.55201016599312 167.18379798997194,176.39999999990687 163.39564442262053,177.55201016599312 160.31776964943856,179.2800243704114 158.66045246366411,182.44804715528153 157.4766544746235,185.32806421420537 157.23989487532526,187.92007659026422 156.76637568045408,191.6640894880984 155.81933728791773,195.12009617267177 155.1090584937483,198.28809789568186 154.87229889724404,201.45609540655278 154.87229889724404,205.48808614583686 155.34581809211522,209.23207143694162 157.00313527788967,212.97605084488168 158.1869332678616,214.99203731981106 161.028048443608,218.16001261910424 164.57944241166115,218.16001261910424 167.42055758740753,218.73600767576136 170.73519195895642,217.29601977346465 173.33954753633589,215.56803314224817 174.99686472211033,212.11205611890182 175.47038391791284,207.79207779001445 175.70714351627976,203.18409227347001 175.70714351627976,200.30409679887816 175.70714351627976,196.84809763496742 176.65418190788478,193.9680945011787 177.36446070112288,190.51208614674397 177.1277011046186,186.19206865271553 174.99686472211033,180.14403100172058 172.3925091456622,178.12801503925584 167.65731718577445,176.68800259334967 164.81620201002806,176.97600515233353 161.97508683428168,179.56802661530674 159.37073125783354,181.58404135890305 158.66045246366411,184.4640594618395 157.23989487532526,189.07208118587732 155.81933728791773,193.39209345704876 155.81933728791773,196.84809763496742 154.3987797005102,200.30409679887816 154.6355392979458,204.04809023649432 154.87229889724404,207.2160800884012 154.3987797005102,210.67206421284936 156.29285648372024,214.70403935597278 158.89721206203103,217.29601977346465 161.5015676394105,217.5840174241457 166.4735191958025,218.16001261910424 169.31463437061757,216.72002436965704 172.3925091456622,214.12804332445376 173.33954753633589,211.53605946153402 174.52334552630782,207.79207779001445 175.94390311371535,204.33608948858455 177.1277011046186,201.1680958061479 177.6012202994898,197.13609775644727 177.1277011046186,192.52809162973426 177.1277011046186,188.20807779114693 176.18066271208227,184.75206108111888 174.76010512374341,180.14403100172058 171.91898994892836,178.12801503925584 168.84111517574638,177.26400767685845 164.81620201002806,176.97600515233353 161.5015676394105,178.99202208942734 158.66045246366411,181.58404135890305 157.23989487532526,184.176057808334 157.9501736694947,187.63207535399124 156.76637568045408,192.24009095085785 157.23989487532526,196.27209728676826 156.76637568045408,200.01609705970623 155.81933728791773,203.47209162893705 156.05609688628465,207.5040789565537 155.34581809211522,210.0960672076326 156.52961608115584,212.68805263726972 157.9501736694947,215.856031000847" stroke="#4DD2FF" stroke-dasharray="none" stroke-linecap="round" stroke-linejoin="round" stroke-width="0.5"><title>2013-10-12 10.6km</title><desc>9223370655320152807</desc></polyline><polyline fill="none" opacity="1" points="44.44527069851756,242.18833205639385 45.141622078604996,237.38831929140724 44.677387826144695,234.28242342267185 43.284685065969825,231.45887813949957 42.58833368588239,228.63532944396138 42.58833368588239,226.65884332591668 41.19563092570752,227.2235538160894 38.64234253298491,225.81177733442746 34.00000000093132,224.4000000001397 30.98247735388577,225.2470665036235 27.96495470777154,226.65884332591668 26.34013482183218,230.6118138891179 25.411666315048933,234.0000690475572 25.643783441744745,236.25890308944508 24.251080681569874,240.77656461950392 24.251080681569874,243.31774539034814 23.55472930241376,247.83539326884784 24.251080681569874,250.94127111579292 24.483197808265686,255.17655243445188 24.018963554874063,258.8471233653836 22.858377922326326,262.51768852747045 24.94743206165731,263.3647412073333 28.42918896023184,265.6235468534287 31.678828733973205,267.60000000009313 34.696351380087435,267.60000000009313 38.874459659680724,265.90589740499854 41.42774805333465,263.92944282409735 43.748919318430126,260.8235822466668 44.677387826144695,257.1530144221615 44.90950495097786,252.63538456475362 43.748919318430126,248.96480387263 43.98103644605726,243.8824518530164 45.141622078604996,239.92950374865904 45.37373920623213,236.82361125876196 46.30220771115273,234.0000690475572 45.60585633199662,231.74123282171786 43.05256793834269,228.07061929488555 38.874459659680724,226.65884332591668 35.39270276017487,225.81177733442746 32.60729724075645,225.81177733442746 30.286125973798335,226.94119858834893 26.34013482183218,228.91768446774222 24.94743206165731,231.74123282171786 24.018963554874063,235.12948634149507 24.251080681569874,239.0824425695464 24.251080681569874,242.47068544104695 24.483197808265686,245.57657042192295 24.251080681569874,249.24715643795207 22.626260795630515,251.78832799429074 21.92990941554308,254.61184870218858 21.697792288847268,257.435365997022 22.626260795630515,260.25887987948954 23.78684642817825,262.51768852747045 25.411666315048933,265.34119626670144 28.42918896023184,266.75294885598123 31.678828733973205,266.75294885598123 36.55328839365393,267.60000000009313 39.57081103976816,264.7764949919656 41.42774805333465,262.2353375663515 43.748919318430126,258.56477195979096 43.98103644605726,254.61184870218858 43.98103644605726,251.22362344292924 45.141622078604996,247.55304053192958 45.83797345869243,244.16480503370985 45.60585633199662,241.05891817482188 45.60585633199662,238.5177349471487 46.07009058445692,235.12948634149507 45.37373920623213,232.30594208301045 44.44527069851756,229.76474933186546 43.05256793834269,226.94119858834893 40.03504529315978,225.2470665036235 36.55328839365393,225.2470665036235 32.60729724075645,225.2470665036235 28.89342321548611,225.81177733442746 26.804369075223804,228.07061929488555 24.483197808265686,231.74123282171786 24.94743206165731,234.28242342267185 24.94743206165731,237.6706732562743 23.55472930241376,242.18833205639385 23.55472930241376,246.14127633837052 24.251080681569874,247.55304053192958 23.32261217571795,251.22362344292924 22.626260795630515,253.2000887747854 23.090495048090816,256.588311167201 23.78684642817825,259.6941773761064 24.251080681569874,262.80003945552744 25.875900567509234,265.34119626670144 27.73283758200705,266.4705984070897 34.00000000093132,266.4705984070897 38.17810827959329,266.4705984070897 40.267162419855595,265.34119626670144 43.98103644605726,261.95298657077365 43.284685065969825,257.1530144221615 43.05256793834269,252.63538456475362 44.21315357182175,249.81186146754771 43.05256793834269,246.14127633837052 44.44527069851756,243.8824518530164" stroke="#4DD2FF" stroke-dasharray="none" stroke-linecap="round" stroke-linejoin="round" stroke-width="0.5"><title>2013-10-06 10.6km</title><desc>9223370655838244807</desc></polyline><polyline fill="none" opacity="1" points="88.16202582698315,258.46160639775917 89.0726392250508,261.50774164893664 90.43855932168663,263.1692682597786 93.39805286563933,265.9384766018484 95.67458635941148,267.3230795171112 97.95111985504627,267.60000000009313 102.27653349470347,266.49231786769815 106.14664043672383,264.5538728488609 108.65082728024572,260.4000565716997 109.78909402806312,256.800076372223 110.01674737781286,253.47701270505786 110.47205407731235,250.4308667758014 111.61032082512975,247.3847167957574 110.92736077588052,243.78471614304 110.92736077588052,240.46163359680213 111.61032082512975,237.41547036124393 111.83797417394817,234.64622754161246 111.61032082512975,231.8769813736435 109.5614406792447,230.21543206600472 107.96786723192781,228.00003111502156 105.23602703865618,226.89232983626425 102.27653349470347,227.44618054293096 97.72346650529653,228.00003111502156 95.44693301152438,228.55388155416586 93.8533595642075,230.21543206600472 93.62570621352643,231.8769813736435 92.71509281732142,234.64622754161246 92.48743946664035,237.69239445892163 91.80447941832244,241.84625191055238 91.12151937000453,244.89240925433114 91.80447941832244,248.49240816570818 90.89386602025479,251.5385566733312 90.43855932168663,255.1385451410897 89.5279459245503,257.90776318963617 89.5279459245503,259.84621383203194 90.43855932168663,262.8923472412862 92.03213276807219,265.10771445115097 96.12989305891097,266.21539725130424 99.31703995261341,267.0461590006016 102.27653349470347,266.21539725130424 105.23602703865618,265.9384766018484 107.2849071836099,263.7231101959478 108.65082728024572,261.50774164893664 109.5614406792447,257.6308415350504 109.33378732949495,254.58470112946816 110.2444007275626,250.7077893000096 110.2444007275626,247.1077938694507 110.01674737781286,243.50779278133996 109.78909402806312,238.80009051598608 110.2444007275626,235.47700073826127 110.92736077588052,234.09237857535481 110.2444007275626,231.32313173846342 107.96786723192781,228.83080672309734 105.00837368983775,226.06155352527276 102.9594935439527,225.23077691416256 99.77234665118158,225.78462802176364 96.35754640772939,225.78462802176364 94.5363196125254,226.61540443263948 93.39805286563933,229.66158202895895 91.80447941832244,232.4308308751788 91.57682606950402,235.47700073826127 90.89386602025479,239.07701444602571 90.2109059728682,242.95394595898688 89.7555992724374,245.4462556091603 89.0726392250508,248.49240816570818 89.0726392250508,251.81547906342894 88.16202582698315,255.1385451410897 87.70671912748367,257.6308415350504 87.93437247723341,260.67697789077647 89.0726392250508,263.1692682597786 92.03213276807219,265.6615559179336 95.67458635941148,266.49231786769815 99.77234665118158,266.76923845126294 103.41480024252087,266.21539725130424 105.91898708697408,264.2769519982394 108.65082728024572,262.0615839860402 109.78909402806312,257.90776318963617 110.2444007275626,255.1385451410897 110.69970742613077,252.09240142116323 110.92736077588052,249.3231763425283 111.38266747444868,245.4462556091603 111.61032082512975,243.23086938657798 111.83797417394817,240.18470983416773 112.06562752369791,237.41547036124393 112.29328087251633,234.36930307536386 111.61032082512975,231.6000565723516 110.47205407731235,229.1077318591997 108.19552058167756,226.61540443263948 105.69133373815566,225.23077691416256 102.9594935439527,224.4000000001397 100.68296004924923,224.95385130867362 96.81285310722888,225.50770248449408 94.08101291395724,227.16925520659424 92.71509281732142,230.76928196917288 91.12151937000453,235.20007637282833 90.2109059728682,237.9693185237702 89.98325262311846,240.18470983416773 89.7555992724374,243.23086938657798 89.98325262311846,246.27702489006333 90.2109059728682,249.6000990010798 89.98325262311846,252.64624603441916 89.7555992724374,255.96931090718135 90.2109059728682,259.2923709584866 91.57682606950402,262.3385051051155 94.08101291395724,264.00003111432306 96.81285310722888,266.76923845126294 100.68296004924923,266.76923845126294 102.9594935439527,266.49231786769815 106.37429378647357,264.83079366665334 108.4231739314273,262.8923472412862 109.5614406792447,259.56929241190664 110.01674737781286,256.800076372223 110.92736077588052,253.75393486046232 110.92736077588052,250.4308667758014 111.61032082512975,247.6616396890022 111.61032082512975,244.61548602650873 111.38266747444868,241.56932831485756 112.52093422133476,237.9693185237702 111.61032082512975,235.20007637282833 110.69970742613077,231.8769813736435 110.01674737781286,229.3846569606103 107.51256053335965,227.72310584550723 104.32541364058852,226.06155352527276 101.36592009756714,226.61540443263948 97.26815980672836,226.89232983626425 94.30866626370698,228.83080672309734 92.94274616613984,230.76928196917288 90.89386602025479,234.09237857535481 90.43855932168663,236.30777363479137 89.5279459245503,239.90778603730723 89.7555992724374,242.95394595898688 88.61733252555132,246.00010183011182 88.61733252555132,249.3231763425283 87.93437247723341,252.64624603441916 87.47906577866524,255.96931090718135 88.16202582698315,259.2923709584866 89.30029257386923,262.3385051051155 92.71509281732142,264.2769519982394 96.35754640772939,265.9384766018484 98.8617332521826,265.38463520118967 102.27653349470347,264.5538728488609 104.78072033915669,261.7846628341358 107.96786723192781,259.84621383203194 109.5614406792447,257.35391984693706 110.2444007275626,255.1385451410897 110.47205407731235,251.81547906342894 110.92736077588052,248.49240816570818 111.15501412469894,246.00010183011182 111.61032082512975,242.12317547295243 111.15501412469894,239.35393834323622 111.38266747444868,235.20007637282833 111.61032082512975,231.8769813736435 110.92736077588052,229.9385070647113 109.10613397974521,228.55388155416586 105.91898708697408,226.61540443263948" stroke="#4DD2FF" stroke-dasharray="none" stroke-linecap="round" stroke-linejoin="round" stroke-width="0.5"><title>2013-09-29 10.5km</title><desc>9223370656443428807</desc></polyline><polyline fill="none" opacity="1" points="157.6834495300427,245.72668539732695 157.00913462694734,248.46086128987372 156.33481972385198,251.7418679993134 156.33481972385198,255.29628656315617 156.33481972385198,258.57728335657157 157.6834495300427,261.8582753909286 160.38070914242417,263.22535400046036 163.752283657901,265.13926266669296 166.89908653870225,265.13926266669296 169.37157451640815,264.0456007702742 172.29360576253384,263.22535400046036 174.31655047181994,261.0380278278608 175.66518027801067,258.3038671386894 176.5642668157816,255.29628656315617 176.5642668157816,251.7418679993134 176.5642668157816,248.73427869705483 177.23858171794564,246.00010313582607 177.23858171794564,242.17225179541856 178.36243989039212,238.8912312053144 177.68812498729676,237.25071912514977 176.78903844952583,234.51652968092822 175.66518027801067,230.68865890661255 173.86700720340014,227.95446153078228 171.39451922569424,225.49368106527254 170.0458894195035,225.76710125035606 166.00000000093132,224.94684059894644 163.30274038854986,226.5873616025783 160.83025241084397,228.22788141667843 159.7063942393288,232.055756355403 158.35776443313807,233.6962722032331 157.6834495300427,238.6178126083687 157.00913462694734,240.80516046099365 156.78436299227178,244.9064319843892 156.78436299227178,247.09377375710756 156.55959135852754,249.28111341316253 156.55959135852754,253.38236956926994 155.2109615523368,255.56970314332284 155.6605048207566,261.0380278278608 156.55959135852754,263.4987696236931 161.95411058235914,265.4126780577935 164.2018269263208,265.95950874197297 167.5734014417976,265.95950874197297 171.61929085943848,264.86584724183194 174.5413221064955,262.1316911787726 176.5642668157816,258.0304508882109 177.23858171794564,253.65578638156876 175.66518027801067,250.92161676776595 174.09177883714437,249.55453072185628 175.88995191268623,245.17984982184134 177.4633533526212,239.98490526387468 177.91289662197232,238.07097531366162 177.23858171794564,235.06336783478037 178.36243989039212,231.235497985268 175.66518027801067,228.50130126997828 172.9679206656292,225.49368106527254 171.16974759101868,224.94684059894644 165.77522836625576,225.49368106527254 164.2018269263208,225.76710125035606 161.27979567926377,228.22788141667843 158.80730770155787,230.41523931804113 158.1329927984625,232.87601442844607 157.6834495300427,236.43046263838187 156.55959135852754,241.07857879367657 157.00913462694734,244.35959621169604 157.23390626069158,246.54693851224147 156.55959135852754,250.92161676776595 157.00913462694734,254.20261990698054 155.6605048207566,258.3038671386894 156.33481972385198,261.5848595700227 156.55959135852754,263.4987696236931 160.38070914242417,264.86584724183194 163.97705529164523,267.3265848727897 166.22477163467556,266.77975451922975 169.14680288173258,265.95950874197297 172.0688341287896,264.86584724183194 174.9908653749153,261.5848595700227 175.21563700959086,259.3975318111479 175.88995191268623,256.66336913825944 176.78903844952583,253.92920316033997 177.91289662197232,250.92161676776595 177.0138100842014,247.3671913293656 175.88995191268623,243.53934230282903 176.11472354643047,240.5317420954816 176.5642668157816,237.25071912514977 177.68812498729676,236.43046263838187 178.58721152413636,232.87601442844607 177.23858171794564,230.14181969570927 178.36243989039212,230.41523931804113 177.91289662197232,227.68104161159135 174.76609374023974,226.31394151831046 171.39451922569424,225.22026084875688 168.24771634489298,224.6734203158412 164.2018269263208,225.76710125035606 161.0550240445882,228.22788141667843 158.35776443313807,230.14181969570927 158.1329927984625,233.42285297834314 155.88527645543218,237.25071912514977 154.53664664924145,241.62541536078788 156.11004808917642,241.62541536078788 156.78436299227178,243.2659242679365 156.33481972385198,246.8203561506234 155.6605048207566,250.92161676776595 153.41278847679496,253.10895272321068 155.43573318701237,256.11653620772995 155.6605048207566,258.57728335657157 157.23390626069158,262.9519383441657 159.256850970909,265.4126780577935 161.95411058235914,266.23292403365485 165.77522836625576,266.23292403365485 169.37157451640815,267.60000000009313 172.9679206656292,266.23292403365485 174.09177883714437,264.0456007702742 174.31655047181994,260.49119595531374 175.66518027801067,259.3975318111479 175.88995191268623,255.29628656315617 177.91289662197232,248.73427869705483 177.91289662197232,244.08617827459238 175.88995191268623,241.35199709353037 176.5642668157816,238.07097531366162 177.0138100842014,235.61020585522056 177.4633533526212,232.055756355403 177.23858171794564,230.14181969570927 175.66518027801067,227.1342016728595 172.0688341287896,225.76710125035606 168.69725961331278,224.4000000001397 166.00000000093132,225.76710125035606 163.52751202322543,226.8607816544827 160.38070914242417,229.04814087809063 157.45867789536715,232.055756355403 155.6605048207566,235.61020585522056 156.78436299227178,239.16464976919815 157.00913462694734,243.53934230282903 157.00913462694734,246.8203561506234 156.33481972385198,250.64819962508045 154.761418283917,253.10895272321068 156.33481972385198,256.66336913825944 155.6605048207566,259.3975318111479 156.78436299227178,262.4051069342531 157.6834495300427,264.86584724183194 161.7293389486149,264.31901629362255 164.2018269263208,265.95950874197297 167.5734014417976,265.13926266669296 170.72020432259887,264.592431783909 172.5183773972094,263.4987696236931 174.9908653749153,259.6709478965495 177.23858171794564,257.4836182866711 177.23858171794564,254.20261990698054 177.23858171794564,252.83553584385663 176.5642668157816,251.195033878088 177.68812498729676,247.91402637632564" stroke="#4DD2FF" stroke-dasharray="none" stroke-linecap="round" stroke-linejoin="round" stroke-width="0.5"><title>2013-09-22 10.9km</title><desc>9223370657048162807</desc></polyline></svg>