<?xml version="1.0" encoding="utf-8" ?>
<svg baseProfile="full" height="300mm" version="1.1" viewBox="0,0,200,300" width="200mm" xmlns="http://www.w3.org/2000/svg" xmlns:ev="http://www.w3.org/2001/xml-events" xmlns:xlink="http://www.w3.org/1999/xlink"><defs /><rect fill="#222222" height="300" width="200" x="0" y="0" /><text fill="#FFFFFF" style="font-size:12px; font-family:Arial; font-weight:bold;" x="10" y="20">Over 10km Runs</text><text fill="#FFFFFF" style="font-size:4px; font-family:Arial" x="10" y="280">Runner</text><text fill="#FFFFFF" style="font-size:9px; font-family:Arial" x="10" y="290">keep</text><text fill="#FFFFFF" style="font-size:4px; font-family:Arial" x="65" y="280">SPECIAL TRACKS</text><rect fill="yellow" height="2.6" width="2.6" x="65" y="283" /><text fill="#FFFFFF" style="font-size:3px; font-family:Arial" x="70" y="285.5">Over 20.0 km</text><rect fill="red" height="2.6" width="2.6" x="65" y="287" /><text fill="#FFFFFF" style="font-size:3px; font-family:Arial" x="70" y="289.5">Over 40.0 km</text><text fill="#FFFFFF" style="font-size:4px; font-family:Arial" x="120" y="280">STATISTICS</text><text fill="#FFFFFF" style="font-size:3px; font-family:Arial" x="120" y="285">Number: 15</text><text fill="#FFFFFF" style="font-size:3px; font-family:Arial" x="120" y="290">Weekly: 1.2</text><text fill="#FFFFFF" style="font-size:3px; font-family:Arial" x="141" y="285">Total: 163.6 km</text><text fill="#FFFFFF" style="font-size:3px; font-family:Arial" x="141" y="290">Avg: 10.9 km</text><text fill="#FFFFFF" style="font-size:3px; font-family:Arial" x="167" y="285">Min: 10.2 km</text><text fill="#FFFFFF" style="font-size:3px; font-family:Arial" x="167" y="290">Max: 14.0 km</text><polyline fill="none" opacity="1" points="26.40718996792566,75.59999999999854 26.468955999589525,75.23352192019956 26.495427156041842,74.9447804787851 26.477779718348756,74.62272153588856 26.460132280772086,74.28955580123875 26.477779718348756,73.9674943238133 26.486603437166195,73.63432596716302 26.504250874801073,73.35668465149502 26.521898312377743,73.06793670108891 26.6983726885519,72.8902451569229 26.971907971485052,72.85692795015348 27.13073491002433,72.81250498707232 27.13955862878356,72.62370712956908 27.192500941629987,72.42380304906692 27.201324660447426,72.15726352841739 27.17485350399511,71.77966441343597 26.910141939821187,71.61307602417219 26.71602012612857,71.43538137481664 26.786609876551665,71.00224907814118 26.83072847063886,70.70238693730789 26.88367078342708,70.35809944370703 26.918965658696834,70.03602275742014 26.971907971485052,69.71394482512551 26.99837912793737,69.42518424024456 27.051321440725587,69.22527247936523 27.12191119120689,69.11421018257533 27.13073491002433,68.92540393793752 27.077792597177904,68.83655379232368 27.15720606636023,68.6588532165697 27.227795816899743,68.39230164170294 27.2895618485054,68.12574921338819 27.360151598928496,67.8258767113366 27.46603622456314,67.47047086566454 27.536625975044444,67.19280899297883 27.63368688186165,66.9040396629498 27.80133753916016,66.8818265960872 28.004283071728423,66.98178535032639 28.24252347945003,66.91514619413647 28.489587605989072,66.73744151689607 28.577824794105254,66.49309696622367 28.736651732586324,66.1821119553424 28.895478671067394,65.87112578270171 29.06312932842411,65.58235186780075 29.230779985664412,65.3046836972353 29.371959486568812,65.02701460046956 29.53961014386732,64.71602411245112 29.68961336358916,64.41613932722976 29.892558896099217,64.03850509793847 30.121975585003383,63.67197611935262 30.342568555206526,63.249910447819275 30.545514087658376,62.90559213068627 30.713164745015092,62.62791503102926 30.89846283989027,62.339129864740244 31.05728977837134,62.094772403055686 31.21611671691062,61.8504142239326 31.401414811844006,61.56162636017689 31.577889187959954,61.22840834927047 31.692597532412037,60.90629633735807 31.83377703325823,60.606397826406464 32.0631937222206,60.32871305649314 32.345552723971196,60.1398868838005 32.53085081890458,59.89552296562033 32.68967775738565,59.62894332754513 32.83085725829005,59.49565318833629 32.919094446348026,59.295717579290795 33.03380279085832,59.06245876171306 33.095568822463974,58.873629716341384 33.272043198521715,58.76255360715004 33.43087013706099,58.72923074549908 33.545578481513076,58.69590787051857 33.67793426360004,58.55150859134301 33.836761202139314,58.37378605770209 34.02205929701449,58.15163235698128 34.22500482952455,57.896154868118174 34.35736061161151,57.729538692008646 34.27794714237098,57.385197537783824 34.295594580005854,57.107502020800894 34.41030292445794,56.86312919944612 34.63971961342031,56.60764775541611 34.81619398953626,56.37438140417362 34.93090233398834,56.063358585546666 35.08972927246941,55.75233460461459 35.319145961431786,55.496849750721594 35.57503380678827,55.263580286176875 35.71621330763446,55.0303101677855 35.85739280853886,54.71928232621576 35.98974859062582,54.39714512199862 36.20151784195332,54.130547872140596 36.50152428133879,54.08611491411284 36.70446981390705,53.88616630950855 36.8103544395417,53.57513419195311 36.88976790878223,53.26410091197613 36.94271022162866,52.98639164392807 37.02212369086919,52.619813991150295 37.1191845976864,52.2532347236629 37.189774348109495,52.03106468475744 37.20742178580258,51.86443676636554 37.27801153622568,51.58672282756015 37.33977756788954,51.2090303835721 37.436838474764954,50.83133622537571 37.5427231003996,50.39809669771785 37.586841694428585,50.075942766336084 37.66625516366912,49.70935229284078 37.754492351727095,49.40941343153827 37.83390582096763,49.009493268044025 37.895671852631494,48.63178912669537 37.95743788423715,48.276301309910195 38.054498791112565,47.90970290831319 38.12508854153566,47.554212006754824 38.195678292016964,47.25426537727617 38.27509176119929,46.88766247299645 38.33685779286316,46.57660419666354 38.398623824468814,46.29887261021213 38.44274241855601,46.16556111945829 38.486861012584995,45.887828161066864 38.54862704419065,45.554547387313505 38.62804051343119,45.187936994378106 38.71627770154737,44.84354394178081 38.77804373315303,44.465820890174655 38.786867451970465,44.399163703099475 38.82216232718201,44.16586312772415 38.88392835878767,43.86590428392083 38.97216554690385,43.46595747673564 39.02510785969207,43.121557296748506 39.104521328932606,42.799375192669686 39.15746364177903,42.59939946606755 39.21040595462546,42.44386245756323 39.22805339220213,42.34387422713189 39.280995705048554,42.22166622674558 39.245700829837006,42.03279896402091 39.254524548654445,41.7772719849454 39.28981942386599,41.51063430059003 39.36040917428909,41.25510571787163 39.413351487135515,41.05512627965072 39.62512073846301,41.06623626106739 39.89865602145437,41.16622602693678 40.1898387420224,41.277325625786034 40.46337402501376,41.35509525676753 40.54278749419609,41.18844595853443 40.56925865064841,40.96624637505738 40.56043493183097,40.69960609154077 40.56925865064841,40.3329743064387 40.59572980704252,39.93301051644812 40.639848401071504,39.59970588937722 40.64867211988894,39.321951013473154 40.50749261898454,39.133077168196905 40.21630989841651,39.19973857432342 39.89865602145437,39.25528970530286 39.713357926520985,39.233069257337775 39.76630023936741,38.91087209539546 39.81924255221384,38.58867368569918 39.88983230263693,38.266474028205266 39.9515983343008,37.91094192353194 40.05748295993544,37.55540829955862 40.10160155396443,37.255425622468465 40.154543866810855,36.922110268176766 40.1898387420224,36.61101473270537 40.23395733605139,36.35547110116022 40.19866246083984,36.244364929545554 40.26925221126294,36.12214796939952 40.45455030613812,36.022152141194965 40.586906088283285,35.89993485459854 40.45455030613812,35.75549601167586 40.4016079933499,35.59994620809448 40.41925543092657,35.42217464790883 40.48984518140787,35.399953176143754 40.67514327634126,35.4443961136858 40.86926509003388,35.42217464790883 41.01044459093828,35.466617573554686 41.17809524823679,35.399953176143754 41.354569624352735,35.377731698456046 41.42515937477583,35.17773813231179 41.460454250045586,34.76663873636426 41.49574912519893,34.34442643134389 41.539867719227914,34.06665400940983 41.54869143804535,33.75554779572121 41.56633887562202,33.599994252559554 41.58398631331511,33.3999964125469 41.513396562833805,33.27777527363651 41.31045103032375,33.24444220456644 41.089858060120605,33.21110912215954 40.922207402880304,33.11110979477962 40.70161443273537,33.077776658930816 40.38396055571502,33.01111034720088 40.06630667875288,32.94444398202904 39.739829082915094,32.86666648846585 39.439822643529624,32.80000000752625 39.095697610173374,32.722222378928564 38.87510463997023,32.61111135477404 38.672159107460175,32.58888913213741 38.40744754328625,32.57777801858174 38.080969947506674,32.55555578702479 37.798610945697874,32.54444466903806 37.454485912341624,32.511111306121165 37.180950629350264,32.47777792986744 36.854473033570684,32.44444454026234 36.554466594185214,32.422222273104126 36.519171718973666,32.39999999999418 36.439758249674924,32.622222463854996 36.36916849925183,32.80000000752625 36.34269734285772,32.98888823141169 36.29857874882873,33.2222201511031 36.280931311193854,33.43332941929839 36.23681271716487,33.644438151713985 36.139751810289454,33.83332445821725 36.04269090347225,33.98887756505428 35.963277434173506,34.199984887673054 35.919158840202726,34.34442643134389 35.84856908977963,34.53331114847242 35.76033190166345,34.69997377801337 35.672094713605475,34.89996849279123 35.5838575255475,35.0777411688905 35.495620337547734,35.188848898578726 35.380911993037444,35.48883902748639 35.30149852379691,35.75549601167586 35.16031902289251,36.04437344674079 35.027963240863755,36.37769231767015 34.869136302382685,36.71100985311932 34.719133082660846,37.022105014679255 34.57795358175645,37.31097805167519 34.454421518486924,37.59985008563672 34.295594580005854,37.92205232480774 34.136767641524784,38.21092223701271 34.01323557825526,38.49979114618327 33.90735095256241,38.710887022461975 33.86323235853342,38.833100179697794 33.78381888929289,38.91087209539546 33.686757982417475,39.01086445162218 33.6691105447826,39.29973058334144 33.545578481513076,39.59970588937722 33.36910410539713,39.87745983799687 33.29851435497403,40.0774421068636 33.254395760945044,40.2107633524065 33.47498873108998,40.29964406404906 33.76617145171622,40.29964406404906 34.08382532867836,40.34408438428363 34.42795036203461,40.388524680776754 34.754427957872394,40.4329649535357 35.072081834834535,40.47740520253865 35.380911993037444,40.52184542782197 35.680918432422914,40.55517558118299 35.90151140256785,40.544065531554224 35.980924871808384,40.36630453549151 36.03386718465481,40.15521285937575 36.02504346589558,39.97745103255147 36.13092809153022,39.99967128165008 36.23681271716487,40.09966232928127 36.227988998405635,40.36630453549151 36.15739924792433,40.75515622107196 36.0779857786838,41.110676171811065 36.01621974701993,41.47730452995165 35.945629996596836,41.84393127254589 35.85739280853886,42.22166622674558 35.795626776933204,42.54385056783212 35.75150818290422,42.83270443369838 35.654447276028804,43.17710580928542 35.69856587005779,43.46595747673564 35.5838575255475,43.76591776235 35.4162068683072,44.0214386342268 35.33679339900846,44.32139691733755 35.25737992976792,44.64357312806533 35.25737992976792,44.921310239544255 35.30149852379691,45.11017094580893 35.4162068683072,45.354578282313014 35.327969680249225,45.698969219803985 35.2750273674028,46.087795984545664 35.169142741768155,46.50994870044087 35.10737671004608,46.86544406325265 35.0632581160753,47.2320470654231 35.04561067849863,47.56532112042623 35.03678695962299,47.898593840625836 35.03678695962299,48.254083270985575 35.019139522046316,48.609571182663785 35.01031580322888,48.96505757572595 34.98384464677656,49.309433570822875 34.96619720919989,49.62048163184227 34.93090233398834,49.95374612127489 34.869136302382685,50.29811802491895 34.78972283308394,50.653597204851394 34.78972283308394,50.96464024166926 34.78972283308394,51.32011657443945 34.727956801478285,51.64226568948652 34.604424738150556,52.03106468475744 34.39265548688127,52.31988561966136 34.180886235495564,52.51983798745641 33.90735095256241,52.73089829889068 33.695581701234914,52.94195807506185 33.43087013706099,53.164125682247686 33.28969063615659,53.35296768199623 33.19262972928118,53.497375980943616 33.06027394719422,53.664000629854854 32.9367418839247,53.85284149541258 32.84850469592493,54.15276434223051 32.69850147620309,54.48601068219432 32.53085081890458,54.808147542404186 32.35437644284684,55.130283155696816 32.22202066070167,55.36355299389834 32.177902066730894,55.64125432971923 32.2749629735481,55.81898269835801 32.37202388042351,56.04114262545045 32.24849181715399,56.32994964411773 32.26613925473066,56.474352777629974 32.24849181715399,56.44102899981226 32.08966487867292,56.56321611987369 31.913190502498765,56.80758982181578 31.727892407623585,57.0963941808659 31.489651999843773,57.32965850849723 31.295530186151154,57.59624551099114 31.20729299809318,57.85172392043023 31.07493721600622,58.15163235698128 30.94258143391926,58.30714000973967 30.7396359014092,58.29603232989757 30.50139549362939,58.30714000973967 30.219036491937004,58.240493908415374 29.910206333675887,58.22938621967478 29.60137617547298,58.22938621967478 29.442549237050116,58.240493908415374 29.30136973608751,58.26270928147278 29.230779985664412,58.41821672669903 29.11607164121233,58.61815444364038 29.027834453154355,58.8403068991538 28.97489214030793,59.16242690645595 28.851360077038407,59.38457790928078 28.79841776419198,59.528975743145566 28.727828013768885,59.606728319165995 28.489587605989072,59.82887813614798 28.286642073479015,60.039919913098856 28.224876041873358,60.273175991358585 28.304289511113893,60.42867968037899 28.37487926153699,60.539753566125 28.401350417989306,60.75079354062473 28.463116449594963,60.984047626770916 28.454292730835732,61.07290615430975 28.295465792296454,60.93961832742934" stroke="#4DD2FF" stroke-dasharray="none" stroke-linecap="round" stroke-linejoin="round" stroke-width="0.5"><title>2017-12-17 14.0km</title><desc>9223370523376934807</desc></polyline><polyline fill="none" opacity="1" points="100.49068728042766,32.40000000000873 100.51872655353509,32.57642720642616 100.67294255597517,33.370346723808325 100.57480509986635,33.63498550442455 100.74304073886015,33.952551342445076 100.82715855835704,34.23483144759666 100.86921746807639,34.552395845996216 100.89725674130023,34.95817146815534 100.91127637785394,35.328661166946404 100.95333528763149,35.628580639488064 101.00941383396275,35.98142620745057 101.10755129001336,36.263701984338695 101.1496101997327,36.59890368737979 101.20568874612218,36.951746667939005 101.24774765589973,37.286946628039004 101.45804220461287,37.322230784920976 101.64029748016037,37.48100937467825 101.59823857044103,37.6574298064661 101.41598329483531,37.763281952691614 101.33186547539663,37.957344000809826 101.43000293138903,38.22197360776772 101.5701992972754,38.557170350206434 101.69637602654984,38.874724375564256 101.76647420943482,39.19227763886738 101.92069021181669,39.49218835453212 102.07490621425677,39.79209839044779 102.25716148980428,40.144932856594096 102.24314185325056,40.44484141319117 101.97676875820616,40.49776638201729 101.72441529971547,40.33899141200527 101.52814038749784,40.180216251537786 101.3178458387847,40.056724328314885 101.0514727436821,40.162574555244646 100.81313892180333,40.162574555244646 100.60284437309019,40.32134973691427 100.6168640096439,40.49776638201729 100.63088364619762,40.78003252502822 100.37853018776514,40.92116537068796 100.07009818288498,41.04465648721089 99.78970545122866,41.09758121619234 99.4672538099112,41.09758121619234 99.49529308301862,40.86824057121703 99.56539126596181,40.55069132971403 99.66352872201242,40.26842469755502 99.76166617812123,39.915590560645796 99.8177447244525,39.50983014018857 99.84578399761813,39.15699398062134 99.78970545122866,38.80415688024368 99.73362690489739,38.38075111784565 99.50931271957234,38.29254141356796 99.20088071480859,38.29254141356796 99.03264507575659,38.11612182846875 99.00460580264917,37.992627978979726 98.99058616603725,37.72799791340367 98.97656652948353,37.49865142846829 98.80833089048974,37.44572526005504 98.61205597833032,37.4104411360895 98.42980070278281,37.42808319926553 98.38774179294705,37.60450370165927 98.40176142955897,37.90441801591078 98.4157810661709,38.239615562721156 98.42980070278281,38.557170350206434 98.45783997594845,38.874724375564256 98.45783997594845,39.227561287771096 98.45783997594845,39.56275548298436 98.45783997594845,39.862665358989034 98.47185961244395,40.21549963700818 98.45783997594845,40.55069132971403 98.47185961244395,40.85059896665916 98.48587924911408,41.115222787775565 98.49989888566779,41.36220454341674 98.48587924911408,41.57390282418055 98.47185961244395,41.85616667171416 98.44382033933653,42.12078848203237 98.42980070278281,42.35012695621117 98.40176142955897,42.54418227786664 98.38774179294705,42.791161366490996 98.34568288328592,43.03813999418344 98.35970251983963,43.24983559400425 98.35970251983963,43.54973711389175 98.35970251983963,43.88492036127718 98.35970251983963,44.237743915087776 98.34568288328592,44.57292541989591 98.35970251983963,44.890465009826585 98.37372215645155,45.22564486144984 98.37372215645155,45.52554190381488 98.38774179294705,45.87836108362535 98.38774179294705,46.142974851245526 98.38774179294705,46.460510673889075 98.35970251983963,46.67220079911931 98.35970251983963,46.93681297937292 98.331663246674,47.1837838703359 98.38774179294705,47.48367647538544 98.42980070278281,47.7659277182247 98.47185961244395,48.065819004172226 98.5139185222215,48.418631411739625 98.56999706861097,48.80672397372837 98.65411488810787,49.17717490304494 98.7662719807704,49.51234389799356 98.8644094367628,49.77695039965329 98.99058616603725,50.12975824563182 99.08872362214606,50.42964417517942 99.22891998791602,50.676608548194054 99.28499853430549,50.817730840150034 99.39715562696801,51.06469448894495 99.50931271957234,51.311657676895265 99.55137162934989,51.50569985843322 99.57941090251552,51.69974175549578 99.71960726834368,51.84086295645102 99.84578399761813,51.98198400696856 99.95794109028066,52.15838510848698 100.07009818288498,52.33478597490466 100.19627491215942,52.56410674973449 100.30843200482195,52.775787112346734 100.50470691698138,52.934547162105446 100.7009818291408,53.19914682186209 100.88323710474651,53.463745952554746 101.0514727436821,53.71070466397214 101.2197083827341,53.95766291463224 101.28980656561907,54.116421546714264 101.41598329483531,54.34573923464632 101.59823857044103,54.610336073164945 101.78049384593032,54.85729264510155 101.97676875820616,55.19244725587487 102.1029454874224,55.404123414860805 102.27118112635799,55.6687181374873 102.42539712879807,55.93331233115168 102.60765240440378,56.25082466540334 102.78990768000949,56.55069672611717 102.972162955557,56.868207579304 103.16843786771642,57.16807824130228 103.35069314326392,57.415030041054706 103.56098769203527,57.7501781751489 103.71520369441714,58.03240752458805 103.9395178797422,58.38519336513127 104.13579279190162,58.649782128442894 104.2900087943417,58.949648754191 104.43020516011165,59.21423638921988 104.59844079910545,59.46118437136465 104.76667643815745,59.725770983844995 104.94893171364674,60.00799612085393 105.07510844292119,60.23730360159243 105.2573637185269,60.48424967499159 105.45363863062812,60.76647319483163 105.62187426968012,61.048696112877224 105.77609027206199,61.27800179072074 105.94432591099758,61.613140143759665 106.1265811866615,61.93063885346055 106.33687573537463,62.2657755541004 106.4910917377565,62.547995275454014 106.68736664997414,62.86549174274842 106.9257004718529,63.218264702140004 107.0939361108467,63.48284380471159 107.24815211322857,63.72978382330621 107.41638775222236,64.01200042333221 107.61266266438179,64.3294933791476 107.78089830331737,64.66462400640012 107.9771732154768,64.99975378518866 108.13138921797508,65.2996060259029 108.28560522035696,65.59945758746471 108.39776231301948,65.89930846974312 108.53795867878944,66.26971156308718 108.60805686179083,66.56956092713517 108.63609613489825,66.72830443318526 108.50991940568201,66.88704774883809 108.46786049590446,66.9752383974701 108.56599795201328,66.88704774883809 108.73423359100707,66.95760027246433 108.80433177395025,67.18689571454888 108.90246922994265,67.45146688494424 109.0146263227216,67.76895159149717 109.14080305193784,68.12171148348716 109.26697978109587,68.47447043543798 109.39315651037032,68.82722844737873 109.47727432986721,69.09179633946042 109.56139214942232,69.35636370274005 109.70158851525048,69.67384384079196 109.8137456078548,69.95604776866094 109.92590270051733,70.23825109501195 110.01002052001422,70.50281616717984 110.05207942973357,70.74974309075333 110.15021688584238,71.0319447251386 110.26237397850491,71.34942084478098 110.37453107116744,71.66689620306715 110.47266852727626,71.98437079998257 110.57080598332686,72.26656980255211 110.65492380276555,72.5311308211094 110.78110053204,72.8486033454974 110.89325762470253,73.11316320096375 111.01943435391877,73.44827159222041 111.1315914466395,73.76574191726104 111.27178781246766,74.08321148094547 111.36992526846007,74.33013172644132 111.45404308801517,74.52414016763214 111.55218054412398,74.8239708357869 111.70639654650586,75.03561560441449 111.73443581961328,75.15907489652454 111.74845545628341,75.35308212299424 111.69237690995215,75.58236302404839 111.51012163434643,75.52945208217716 111.32786635879893,75.28253407352895 111.14561108319322,75.01797855326731 110.92129689792637,74.73578541565803 110.66894343937747,74.41831741677015 110.37453107116744,74.11848582995299 110.0801187029574,73.8539279835386 109.82776524440851,73.60700684991025 109.57541178597603,73.34244798134023 109.35109760065097,73.07788858408458 109.09874414210208,72.8486033454974 108.86041032028152,72.61931770981755 108.55197831540136,72.30184463554178 108.28560522035696,72.05492060704273 108.06129103497369,71.82563359668711 107.73883939359803,71.52579613780836 107.47246629855363,71.29650821103132 107.16403429378988,71.12013261251559 106.85560228890972,70.9790319645399 106.4910917377565,70.89084398309933 106.1265811866615,70.83793116611196 105.7901099086157,70.76738071048749 105.45363863062812,70.67919258814072 105.15922626241809,70.62627968654851 104.80873534787679,70.53809147013817 104.45824443321908,70.52045381981588 104.12177315534791,70.44990319503995 103.74324296758277,70.34407718731381 103.54696805542335,70.29116415178578 103.35069314326392,70.23825109501195 103.1544182311045,70.20297571217816 102.94412368233316,70.16770031987107 102.71980949706631,70.15006262023235 102.50951494829496,70.11478721376625 102.32725967274746,70.0618740865757 102.13098476052983,70.02659865668102 101.90667057520477,69.99132321737125 101.68235638993792,69.90313457803859 101.52814038749784,69.86785910584149 101.24774765589973,69.76203263284697 100.89725674130023,69.60329276474658 100.54676582675893,69.47982829132525 100.14019636582816,69.3387258949806 99.9018625440076,69.28581245754322 99.56539126596181,69.1799855192512 99.22891998791602,69.07415849639801 98.8503898002673,68.96833138895454 98.47185961244395,68.89777993696043 98.10734906129073,68.75667692018033 97.82695632969262,68.66848745832976 97.40636723220814,68.58029793768947 97.11195486399811,68.42155665258178 96.74744431284489,68.29809107698384 96.55116940062726,68.22753926772566 96.24273739586351,68.12171148348716 95.90626611781772,68.01588361455651 95.56979483988835,67.8218656352401 95.23332356190076,67.61020933340478 94.89685228391318,67.39855269315012 94.61645955225686,67.11634331314417 94.39214536699001,66.81649518759514 94.18185081827687,66.4813700082741 94.1257722718874,66.28734977978456 94.02763481572038,66.09332926696516 93.859399176843,65.82875538211374 93.76126172073418,65.65237249838538 93.6070457182941,65.37015939563571 93.45282971591223,65.07030731467239 93.25655480381101,64.71753929101396 93.08831916475901,64.3471318543452 92.90606388921151,63.94144632977259 92.69576934049837,63.51812097840593 92.51351406483445,63.13007155044761 92.31723915267503,62.79493703803746 92.17704278690508,62.44216295047954 91.99478751129936,62.05411036820442 91.81253223575186,61.63077898096526 91.60223768698052,61.20744623984501 91.39194313826738,60.801751092483755 91.20968786271987,60.37841569993179 90.99939331400674,60.00799612085393 90.8031184017891,59.60229729714047 90.6208631261834,59.21423638921988 90.43860785063589,58.82617434351414 90.25635257503018,58.455750420413096 90.13017584581394,58.085325460648164 89.94792057032464,57.80309622398636 89.82174384105019,57.48558761346794 89.72360638488317,57.15043880940357 89.59742965572514,56.797649677770096 89.49929219961632,56.409580546896905 89.41517438011942,56.00387069351564 89.34507619723445,55.59815959651314 89.3030172874569,55.24536632737727 89.24693874112563,54.822013163080555 89.21889946796,54.46921782508434 89.17684055824066,54.028222330176504 89.12076201185118,53.69306477133068 89.12076201185118,53.30498653763789 89.09272273874376,52.95218715589726 89.06468346557813,52.52882665638754 89.09272273874376,52.15838510848698 89.10674237529747,51.80558267033484 89.10674237529747,51.43513909805915 89.07870310207363,51.04705424356507 88.98056564608123,50.62368764994608 88.91046746313805,50.25324076951074 88.91046746313805,49.91807365092973 88.88242818997242,49.4947034457291 88.85438891680678,49.159534406077 88.81233000708744,48.82436451766989 88.74223182420246,48.418631411739625 88.79831037041731,47.99525640979118 88.88242818997242,47.60716146818595 88.88242818997242,47.2896283967566 88.88242818997242,47.00737613812089 88.92448709974997,46.795686549085076 88.89644782658434,46.58399662138254 88.85438891680678,46.30174285778776 88.82634964364115,45.984206654160516 88.78429073392181,45.63138775655534 88.75625146075618,45.278567918299814 88.75625146075618,44.978670316239004 88.68615327781299,44.57292541989591 88.63007473148173,44.14953811484156 88.61605509492802,43.74379067635164 88.58801582176238,43.390965805607266 88.54595691198483,43.05578130710637 88.50389800226549,42.65003051517124 88.46183909254614,42.403051163084456 88.46183909254614,42.103147044443176 88.48987836565357,41.73267631250201 88.47585872909985,41.37984607974067 88.4337998192641,41.02701490621257 88.40576054615667,40.7271076690522 88.3356623632717,40.356633084767964 88.3356623632717,40.0037991830759 88.3496819998254,39.68624786716828 88.37772127299104,39.298128557318705 88.30762308998965,38.874724375564256 88.27958381688222,38.539528437540866 88.23752490716288,38.15140576432168 88.26556418032851,37.90441801591078 88.27958381688222,37.74563993423362 88.26556418032851,37.516293479900924" stroke="#4DD2FF" stroke-dasharray="none" stroke-linecap="round" stroke-linejoin="round" stroke-width="0.5"><title>2017-11-19 11.8km</title><desc>9223370525802103807</desc></polyline><polyline fill="none" opacity="0.5" points="173.07648643571883,73.8992472050013 171.54643531423062,73.78586358472239 169.82512780325487,73.8992472050013 169.15573043748736,74.01263081317302 167.33879473106936,74.4661651183851 165.0437180493027,73.44571264763363 163.41803873283789,72.08510776422918 161.98361580679193,72.42525915510487 160.35793649032712,71.85834010737017 158.92351356474683,71.63157239963766 157.77597522409633,71.85834010737017 156.62843688298017,71.51818852708675 155.480898541864,71.06465291045606 154.04647561581805,71.17803683364764 152.8033090797253,71.74495625984855 150.69948878791183,71.06465291045606 149.55195044726133,70.38434910750948 148.97818127693608,69.13712428940926 148.21315571619198,67.8898979461519 148.11752752121538,66.0757478150772 148.30878391116858,64.48836380243301 148.30878391116858,62.67420761974063 148.11752752121538,61.08681831252761 148.11752752121538,58.93250030023046 147.83064293581992,57.7986468867166 147.63938654586673,56.09786440257449 148.02189932623878,54.510464858147316 148.02189932623878,53.149834710522555 148.40441210614517,52.01597486715764 148.11752752121538,50.541955185937695 148.59566849609837,48.954546992783435 148.50004030158743,47.25374975788873 148.7869248869829,46.23327005491592 148.8825530819595,44.192307586199604 148.7869248869829,42.37811529508326 148.8825530819595,40.79069439298473 148.97818127693608,39.543433379149064 149.26506586186588,38.06939566868823 149.55195044726133,36.48196805897169 149.26506586186588,34.894537977757864 149.26506586186588,33.760657835169695 149.07380947191268,32.40000000002328 149.26506586186588,33.760657835169695 149.26506586186588,34.894537977757864 149.55195044726133,36.48196805897169 149.26506586186588,38.06939566868823 148.97818127693608,39.543433379149064 148.8825530819595,40.79069439298473 148.7869248869829,42.37811529508326 148.8825530819595,44.192307586199604 148.7869248869829,46.23327005491592 148.50004030158743,47.25374975788873 148.59566849609837,48.954546992783435 148.11752752121538,50.541955185937695 148.40441210614517,52.01597486715764 148.02189932623878,53.149834710522555 148.02189932623878,54.510464858147316 147.63938654586673,56.09786440257449 147.83064293581992,57.7986468867166 148.11752752121538,58.93250030023046 148.11752752121538,61.08681831252761 148.30878391116858,62.67420761974063 148.30878391116858,64.48836380243301 148.11752752121538,66.0757478150772 148.21315571619198,67.8898979461519 148.97818127693608,69.13712428940926 149.55195044726133,70.38434910750948 150.69948878791183,71.06465291045606 152.8033090797253,71.74495625984855 154.04647561581805,71.17803683364764 155.480898541864,71.06465291045606 156.62843688298017,71.51818852708675 157.77597522409633,71.85834010737017 158.92351356474683,71.63157239963766 160.35793649032712,71.85834010737017 161.98361580679193,72.42525915510487 163.41803873283789,72.08510776422918 165.0437180493027,73.44571264763363 167.33879473106936,74.4661651183851 169.15573043748736,74.01263081317302 169.82512780325487,73.8992472050013 171.54643531423062,73.78586358472239 173.07648643571883,73.8992472050013 174.70216575218365,74.1260144081898 176.7103578480892,75.03308271698188 177.85789618920535,74.69293219561223 179.1966909202747,74.91969922266435 180.63111384678632,74.91969922266435 181.87428038241342,75.37323312461376 183.2130751130171,75.37323312461376 184.36061345413327,75.59999999997672" stroke="#4DD2FF" stroke-dasharray="1,0.5" stroke-linecap="round" stroke-linejoin="round" stroke-width="0.5"><title>2014-03-22 10.5km</title><desc>9223370641410674807</desc></polyline><polyline fill="none" opacity="1" points="55.600000000034925,101.75752135791117 55.4671712393756,101.7948267501124 55.31390728475526,101.7948267501124 55.19129612110555,101.80726187784603 55.05846736050444,101.75752135791117 54.89498580893269,101.769956490185 54.78259224223439,101.78239162089449 54.61911069066264,101.78239162089449 54.47606433305191,101.78239162089449 54.36367076635361,101.78239162089449 54.210406811733264,101.78239162089449 54.07757805113215,101.769956490185 53.954966887424234,101.75752135791117 53.832355723774526,101.74508622418216 53.70974456006661,101.73265108891792 53.576915799465496,101.769956490185 53.444087038806174,101.769956490185 53.31125827814685,101.75752135791117 53.17842951754574,101.73265108891792 53.045600756886415,101.7077808138929 52.95364238409093,101.7077808138929 52.80037842952879,101.7077808138929 52.65733207191806,101.73265108891792 52.52450331125874,101.73265108891792 52.391674550657626,101.720215952133 52.2486281930469,101.68291053287248 52.12601702939719,101.7077808138929 51.99318826867966,101.7077808138929 51.82970671716612,101.69534567413939 51.71731315046782,101.65804024580575 51.55383159883786,101.64560509999865 51.40056764433393,101.68291053287248 51.237086092703976,101.68291053287248 51.11447492905427,101.69534567413939 50.96121097449213,101.68291053287248 50.838599810842425,101.68291053287248 50.695553453231696,101.69534567413939 50.583159886533394,101.68291053287248 50.450331125815865,101.67047539007035 50.31750236521475,101.69534567413939 50.18467360455543,101.68291053287248 50.05184484395431,101.68291053287248 49.93945127725601,101.7077808138929 49.79640491964528,101.720215952133 49.684011352888774,101.720215952133 49.55118259228766,101.720215952133 49.377483443706296,101.7077808138929 49.2650898770662,101.7077808138929 49.10160832549445,101.7077808138929 49.00964995275717,101.7077808138929 48.87682119203964,101.7077808138929 48.74399243143853,101.69534567413939 48.611163670779206,101.7077808138929 48.46811731316848,101.67047539007035 48.34550614951877,101.67047539007035 48.192242194956634,101.65804024580575 48.049195837345906,101.65804024580575 47.916367076628376,101.64560509999865 47.803973509930074,101.64560509999865 47.660927152319346,101.68291053287248 47.497445600805804,101.7077808138929 47.374834437156096,101.68291053287248 47.23178807954537,101.67047539007035 47.09895931882784,101.65804024580575 46.97634815517813,101.63316995267814 46.81286660360638,101.65804024580575 46.69025543995667,101.63316995267814 46.53699148533633,101.62073480389517 46.3939451277256,101.62073480389517 46.25089877011487,101.65804024580575 46.11807000951376,101.64560509999865 45.95458845794201,101.60829965360608 45.801324503379874,101.58342934847315 45.66849574272055,101.5709941936293 45.525449385051616,101.5336887201338 45.38240302744089,101.54612387945963 45.25979186379118,101.55855903731572 45.12696310313186,101.58342934847315 45.00435193948215,101.59586450180359 44.871523178881034,101.64560509999865 44.738694418163504,101.64560509999865 44.595648060552776,101.63316995267814 44.46281929995166,101.62073480389517 44.35042573325336,101.60829965360608 44.21759697259404,101.63316995267814 44.08476821199292,101.62073480389517 43.96215704828501,101.64560509999865 43.808893093664665,101.60829965360608 43.65562913910253,101.63316995267814 43.54323557240423,101.60829965360608 43.40018921473529,101.60829965360608 43.26736045413418,101.60829965360608 43.15496688749408,101.5709941936293 43.01192052982515,101.54612387945963 42.85865657526301,101.55855903731572 42.70539262064267,101.5709941936293 42.552128666080534,101.54612387945963 42.429517502430826,101.55855903731572 42.28647114476189,101.55855903731572 42.133207190199755,101.54612387945963 42.00037842954043,101.54612387945963 41.86754966893932,101.55855903731572 41.714285714318976,101.5709941936293 41.57123935670825,101.59586450180359 41.44862819300033,101.55855903731572 41.31579943239922,101.52125355929456 41.17275307478849,101.5336887201338 41.039924314129166,101.50881839692738 40.89687795651844,101.52125355929456 40.77426679286873,101.54612387945963 40.65165562921902,101.52125355929456 40.50860927160829,101.49638323309046 40.35534531698795,101.49638323309046 40.232734153280035,101.49638323309046 40.07947019865969,101.47151290085458 39.977294228971004,101.44664256260148 39.84446546831168,101.44664256260148 39.70141911075916,101.44664256260148 39.599243141012266,101.47151290085458 39.445979186391924,101.4590777324629 39.302932828781195,101.47151290085458 39.17010406812187,101.50881839692738 39.01684011355974,101.50881839692738 38.87379375594901,101.52125355929456 38.771617786202114,101.48394806774013 38.628571428591385,101.48394806774013 38.49574266799027,101.48394806774013 38.38334910129197,101.4590777324629 38.21986754966201,101.48394806774013 38.0870387890609,101.47151290085458 37.92355723748915,101.4590777324629 37.790728476888034,101.47151290085458 37.68855250714114,101.4590777324629 37.4331125827739,101.47151290085458 37.13680227060104,101.4590777324629 36.912015137204435,101.42177221833845 36.677010406856425,101.42177221833845 36.21721854311181,101.48394806774013 35.931125827890355,101.40933704395138 35.747209082357585,101.38446669060795 35.38959318830166,101.40933704395138 35.215894039778505,101.35959633129823 35.052412488206755,101.34716114940238 34.745884579082485,101.39690186802181 34.449574266793206,101.43420739122666 34.18391674553277,101.54612387945963 33.96934720908757,101.52125355929456 29.93339640495833,101.29742040661222 29.69839167461032,101.29742040661222 29.442951750243083,101.26011483377806 29.105771050148178,101.34716114940238 28.84011352888774,101.27255002623133 28.564238410675898,101.22280924734514 28.19640491961036,101.22280924734514 24.885903500486165,101.18550364739349 24.64068117318675,101.21037404884555 24.31371807010146,101.18550364739349 24.07871333969524,101.14819803384307 23.813055818434805,101.04871633155562 23.496310312242713,101.1357628263213 23.159129612147808,101.14819803384307 22.92412488174159,101.16063323985145 20.2777672658558,101.12332761731523 19.93036896880949,101.12332761731523 19.756669820286334,101.12332761731523 19.582970671763178,101.14819803384307 19.53188268688973,101.0860219812239 19.378618732269388,101.09845719474106 19.031220435223076,101.11089240680303 18.898391674563754,101.03628111199941 18.62251655635191,101.01141066839773 18.397729422955308,101.03628111199941 18.18315988651011,101.03628111199941 18.02989593188977,100.99897544431587 16.936613055877388,101.02384589095163 16.619867549743503,101.03628111199941 16.374645222327672,100.94923453292722 16.139640491979662,100.99897544431587 15.77180700097233,100.98654021869879 15.526584673614707,101.02384589095163 15.291579943266697,101.07358676619333 15.015704825054854,101.01141066839773 14.72961210977519,100.98654021869879 14.484389782417566,100.9741049916338 14.157426679274067,100.94923453292722 13.963292336848099,100.94923453292722 13.738505203451496,100.96166976301174 13.248060548736248,100.98654021869879 13.043708609300666,100.87462312071148 13.023273415339645,101.16063323985145 13.053926206252072,101.38446669060795 13.094796594174113,101.5709941936293 13.002838221436832,101.78239162089449 12.880227057787124,101.80726187784603 12.900662251689937,101.48394806774013 12.686092715302948,101.49638323309046 12.512393566779792,101.68291053287248 12.440870387887117,101.83213212880219 12.420435193984304,102.03109391946782 12.471523178857751,102.37927612577187 12.491958372818772,102.64041200599604 12.61456953646848,103.01346211175405" stroke="#4DD2FF" stroke-dasharray="none" stroke-linecap="round" stroke-linejoin="round" stroke-width="0.5"><title>2013-12-10 10.9km</title><desc>9223370650177580807</desc></polyline><polyline fill="none" opacity="0.5" points="104.95811196044087,83.20521922083572 97.34798662550747,82.64417564729229 91.12152044288814,89.09616854530759 89.73786129057407,95.5481435037218 89.5072514321655,103.40269750310108 89.27664157282561,108.17152088950388 88.58481199666858,114.34292484284379 90.66030072513968,119.39224314200692 96.88676690869033,122.75844923895784 103.11323309037834,123.03896619309671 108.4172598393634,117.98965582833625 110.26213870756328,110.97670653951354 110.49274856690317,104.52477447572164 110.49274856690317,97.79230450256728 111.64579785987735,91.62085653445683 109.80091899074614,85.72991361888126 105.88055139407516,82.92469745082781 99.88469506986439,82.08313193893991 94.81127818115056,84.32730595883913 91.12152044288814,88.5351263966877 89.96847114898264,95.5481435037218 89.73786129057407,102.56113941781223 89.27664157282561,109.01307694031857 109.80091899074614,93.02345978678204 110.49274856690317,89.37668956816196 106.80299082957208,83.7662626572419 101.96018379833549,80.4000000001397 94.11944860499352,86.01043504965492 89.96847114898264,91.05981499678455 91.35213030129671,99.75594359473325 88.58481199666858,105.92736992868595 88.35420214012265,111.25722491787747 88.58481199666858,117.98965582833625 93.42761902883649,121.35586395906284 99.88469506986439,123.60000000009313 105.88055139407516,120.79482960957102 110.03152885008603,114.0624068370089 110.49274856690317,107.89100213861093 109.80091899074614,101.15854193037376 110.72335842624307,94.98710291530006 111.18457814306021,88.5351263966877 107.95604012254626,83.7662626572419 102.6520133735612,82.08313193893991 96.65615704935044,83.7662626572419 92.73578945267946,86.57147780805826 90.89091058447957,91.62085653445683 90.42969086673111,98.63386431708932 89.73786129057407,104.52477447572164 87.89298242237419,112.94033447606489 112.10701757762581,90.49877332313918 108.87847955711186,86.8519991368521 104.95811196044087,83.20521922083572 97.34798662550747,82.64417564729229 91.12152044288814,89.09616854530759 89.73786129057407,95.5481435037218 89.5072514321655,103.40269750310108 89.27664157282561,108.17152088950388 88.58481199666858,114.34292484284379 90.66030072513968,119.39224314200692 96.88676690869033,122.75844923895784 103.11323309037834,123.03896619309671 108.4172598393634,117.98965582833625 110.26213870756328,110.97670653951354 110.49274856690317,104.52477447572164 110.49274856690317,97.79230450256728 111.64579785987735,91.62085653445683 109.80091899074614,85.72991361888126 105.88055139407516,82.92469745082781 99.88469506986439,82.08313193893991 94.81127818115056,84.32730595883913 91.12152044288814,88.5351263966877 89.96847114898264,95.5481435037218 89.73786129057407,102.56113941781223 89.27664157282561,109.01307694031857 109.80091899074614,93.02345978678204 110.49274856690317,89.37668956816196 106.80299082957208,83.7662626572419 101.96018379833549,80.4000000001397 94.11944860499352,86.01043504965492 89.96847114898264,91.05981499678455 91.35213030129671,99.75594359473325 88.58481199666858,105.92736992868595 88.35420214012265,111.25722491787747 88.58481199666858,117.98965582833625 93.42761902883649,121.35586395906284 99.88469506986439,123.60000000009313 105.88055139407516,120.79482960957102 110.03152885008603,114.0624068370089 110.49274856690317,107.89100213861093 109.80091899074614,101.15854193037376 110.72335842624307,94.98710291530006 111.18457814306021,88.5351263966877 107.95604012254626,83.7662626572419 102.6520133735612,82.08313193893991 96.65615704935044,83.7662626572419 92.73578945267946,86.57147780805826 90.89091058447957,91.62085653445683 90.42969086673111,98.63386431708932 89.73786129057407,104.52477447572164 87.89298242237419,112.94033447606489 112.10701757762581,90.49877332313918 108.87847955711186,86.8519991368521 104.95811196044087,83.20521922083572 97.34798662550747,82.64417564729229 91.12152044288814,89.09616854530759 89.73786129057407,95.5481435037218 89.5072514321655,103.40269750310108 89.27664157282561,108.17152088950388 88.58481199666858,114.34292484284379 90.66030072513968,119.39224314200692 96.88676690869033,122.75844923895784 103.11323309037834,123.03896619309671 108.4172598393634,117.98965582833625 110.26213870756328,110.97670653951354 110.49274856690317,104.52477447572164 110.49274856690317,97.79230450256728 111.64579785987735,91.62085653445683 109.80091899074614,85.72991361888126 105.88055139407516,82.92469745082781 99.88469506986439,82.08313193893991 94.81127818115056,84.32730595883913 91.12152044288814,88.5351263966877 89.96847114898264,95.5481435037218 89.73786129057407,102.56113941781223 89.27664157282561,109.01307694031857 109.80091899074614,93.02345978678204 110.49274856690317,89.37668956816196 106.80299082957208,83.7662626572419 101.96018379833549,80.4000000001397 94.11944860499352,86.01043504965492 89.96847114898264,91.05981499678455 91.35213030129671,99.75594359473325 88.58481199666858,105.92736992868595 88.35420214012265,111.25722491787747 88.58481199666858,117.98965582833625 93.42761902883649,121.35586395906284 99.88469506986439,123.60000000009313 105.88055139407516,120.79482960957102 110.03152885008603,114.0624068370089 110.49274856690317,107.89100213861093 109.80091899074614,101.15854193037376 110.72335842624307,94.98710291530006 111.18457814306021,88.5351263966877 107.95604012254626,83.7662626572419 102.6520133735612,82.08313193893991 96.65615704935044,83.7662626572419 92.73578945267946,86.57147780805826 90.89091058447957,91.62085653445683 90.42969086673111,98.63386431708932 89.73786129057407,104.52477447572164 87.89298242237419,112.94033447606489 112.10701757762581,90.49877332313918 108.87847955711186,86.8519991368521 104.95811196044087,83.20521922083572 97.34798662550747,82.64417564729229 91.12152044288814,89.09616854530759 89.73786129057407,95.5481435037218 89.5072514321655,103.40269750310108 89.27664157282561,108.17152088950388 88.58481199666858,114.34292484284379 90.66030072513968,119.39224314200692 96.88676690869033,122.75844923895784 103.11323309037834,123.03896619309671 108.4172598393634,117.98965582833625 110.26213870756328,110.97670653951354 110.49274856690317,104.52477447572164 110.49274856690317,97.79230450256728 111.64579785987735,91.62085653445683 109.80091899074614,85.72991361888126 105.88055139407516,82.92469745082781 99.88469506986439,82.08313193893991 94.81127818115056,84.32730595883913 91.12152044288814,88.5351263966877 89.96847114898264,95.5481435037218 89.73786129057407,102.56113941781223 89.27664157282561,109.01307694031857 109.80091899074614,93.02345978678204 110.49274856690317,89.37668956816196 106.80299082957208,83.7662626572419 101.96018379833549,80.4000000001397 94.11944860499352,86.01043504965492 89.96847114898264,91.05981499678455 91.35213030129671,99.75594359473325 88.58481199666858,105.92736992868595 88.35420214012265,111.25722491787747 88.58481199666858,117.98965582833625 93.42761902883649,121.35586395906284 99.88469506986439,123.60000000009313 105.88055139407516,120.79482960957102 110.03152885008603,114.0624068370089 110.49274856690317,107.89100213861093 109.80091899074614,101.15854193037376 110.72335842624307,94.98710291530006 111.18457814306021,88.5351263966877 107.95604012254626,83.7662626572419 102.6520133735612,82.08313193893991 96.65615704935044,83.7662626572419 92.73578945267946,86.57147780805826 90.89091058447957,91.62085653445683 90.42969086673111,98.63386431708932 89.73786129057407,104.52477447572164 87.89298242237419,112.94033447606489 112.10701757762581,90.49877332313918 108.87847955711186,86.8519991368521 104.95811196044087,83.20521922083572 97.34798662550747,82.64417564729229 91.12152044288814,89.09616854530759 89.73786129057407,95.5481435037218 89.5072514321655,103.40269750310108 89.27664157282561,108.17152088950388 88.58481199666858,114.34292484284379 90.66030072513968,119.39224314200692 96.88676690869033,122.75844923895784 103.11323309037834,123.03896619309671 108.4172598393634,117.98965582833625 110.26213870756328,110.97670653951354 110.49274856690317,104.52477447572164 110.49274856690317,97.79230450256728 111.64579785987735,91.62085653445683 109.80091899074614,85.72991361888126 105.88055139407516,82.92469745082781 99.88469506986439,82.08313193893991 94.81127818115056,84.32730595883913 91.12152044288814,88.5351263966877 89.96847114898264,95.5481435037218 89.73786129057407,102.56113941781223 89.27664157282561,109.01307694031857 109.80091899074614,93.02345978678204 110.49274856690317,89.37668956816196 106.80299082957208,83.7662626572419 101.96018379833549,80.4000000001397 94.11944860499352,86.01043504965492 89.96847114898264,91.05981499678455 91.35213030129671,99.75594359473325 88.58481199666858,105.92736992868595 88.35420214012265,111.25722491787747 88.58481199666858,117.98965582833625 93.42761902883649,121.35586395906284 99.88469506986439,123.60000000009313 105.88055139407516,120.79482960957102 110.03152885008603,114.0624068370089 110.49274856690317,107.89100213861093 109.80091899074614,101.15854193037376 110.72335842624307,94.98710291530006 111.18457814306021,88.5351263966877 107.95604012254626,83.7662626572419 102.6520133735612,82.08313193893991 96.65615704935044,83.7662626572419 92.73578945267946,86.57147780805826 90.89091058447957,91.62085653445683 90.42969086673111,98.63386431708932 89.73786129057407,104.52477447572164 87.89298242237419,112.94033447606489 112.10701757762581,90.49877332313918 108.87847955711186,86.8519991368521 104.95811196044087,83.20521922083572 97.34798662550747,82.64417564729229 91.12152044288814,89.09616854530759 89.73786129057407,95.5481435037218 89.5072514321655,103.40269750310108 89.27664157282561,108.17152088950388 88.58481199666858,114.34292484284379 90.66030072513968,119.39224314200692 96.88676690869033,122.75844923895784 103.11323309037834,123.03896619309671 108.4172598393634,117.98965582833625 110.26213870756328,110.97670653951354 110.49274856690317,104.52477447572164 110.49274856690317,97.79230450256728 111.64579785987735,91.62085653445683 109.80091899074614,85.72991361888126 105.88055139407516,82.92469745082781 99.88469506986439,82.08313193893991 94.81127818115056,84.32730595883913 91.12152044288814,88.5351263966877 89.96847114898264,95.5481435037218 89.73786129057407,102.56113941781223 89.27664157282561,109.01307694031857 109.80091899074614,93.02345978678204 110.49274856690317,89.37668956816196 106.80299082957208,83.7662626572419 101.96018379833549,80.4000000001397 94.11944860499352,86.01043504965492 89.96847114898264,91.05981499678455 91.35213030129671,99.75594359473325 88.58481199666858,105.92736992868595 88.35420214012265,111.25722491787747 88.58481199666858,117.98965582833625 93.42761902883649,121.35586395906284 99.88469506986439,123.60000000009313 105.88055139407516,120.79482960957102 110.03152885008603,114.0624068370089 110.49274856690317,107.89100213861093 109.80091899074614,101.15854193037376 110.72335842624307,94.98710291530006 111.18457814306021,88.5351263966877 107.95604012254626,83.7662626572419 102.6520133735612,82.08313193893991 96.65615704935044,83.7662626572419 92.73578945267946,86.57147780805826 90.89091058447957,91.62085653445683 90.42969086673111,98.63386431708932 89.73786129057407,104.52477447572164 87.89298242237419,112.94033447606489 112.10701757762581,90.49877332313918 108.87847955711186,86.8519991368521 104.95811196044087,83.20521922083572 97.34798662550747,82.64417564729229 91.12152044288814,89.09616854530759 89.73786129057407,95.5481435037218 89.5072514321655,103.40269750310108 89.27664157282561,108.17152088950388 88.58481199666858,114.34292484284379 90.66030072513968,119.39224314200692 96.88676690869033,122.75844923895784 103.11323309037834,123.03896619309671 108.4172598393634,117.98965582833625 110.26213870756328,110.97670653951354 110.49274856690317,104.52477447572164 110.49274856690317,97.79230450256728 111.64579785987735,91.62085653445683 109.80091899074614,85.72991361888126 105.88055139407516,82.92469745082781 99.88469506986439,82.08313193893991 94.81127818115056,84.32730595883913 91.12152044288814,88.5351263966877 89.96847114898264,95.5481435037218 89.73786129057407,102.56113941781223 89.27664157282561,109.01307694031857 109.80091899074614,93.02345978678204 110.49274856690317,89.37668956816196 106.80299082957208,83.7662626572419 101.96018379833549,80.4000000001397 94.11944860499352,86.01043504965492" stroke="#4DD2FF" stroke-dasharray="1,0.5" stroke-linecap="round" stroke-linejoin="round" stroke-width="0.5"><title>2013-11-30 10.3km</title><desc>9223370651086224807</desc></polyline><polyline fill="none" opacity="1" points="170.95811196044087,83.20521922083572 167.9601837983355,80.4000000001397 163.34798662550747,82.64417564729229 160.11944860499352,86.01043504965492 157.12152044288814,89.09616854530759 155.96847114898264,91.05981499678455 155.73786129057407,95.5481435037218 157.3521303012967,99.75594359473325 155.5072514321655,103.40269750310108 154.58481199666858,105.92736992868595 155.2766415728256,108.17152088950388 154.35420214012265,111.25722491787747 154.58481199666858,114.34292484284379 154.58481199666858,117.98965582833625 156.66030072513968,119.39224314200692 159.4276190288365,121.35586395906284 162.88676690869033,122.75844923895784 165.8846950698644,123.60000000009313 169.11323309037834,123.03896619309671 171.88055139407516,120.79482960957102 174.4172598393634,117.98965582833625 176.03152885008603,114.0624068370089 176.26213870756328,110.97670653951354 176.49274856690317,107.89100213861093 176.49274856690317,104.52477447572164 175.80091899074614,101.15854193037376 176.49274856690317,97.79230450256728 176.72335842624307,94.98710291530006 177.64579785987735,91.62085653445683 177.1845781430602,88.5351263966877 175.80091899074614,85.72991361888126 173.95604012254626,83.7662626572419 171.88055139407516,82.92469745082781 168.6520133735612,82.08313193893991 165.8846950698644,82.08313193893991 162.65615704935044,83.7662626572419 160.81127818115056,84.32730595883913 158.73578945267946,86.57147780805826 157.12152044288814,88.5351263966877 156.89091058447957,91.62085653445683" stroke="#4DD2FF" stroke-dasharray="none" stroke-linecap="round" stroke-linejoin="round" stroke-width="0.5"><title>2013-11-16 10.4km</title><desc>9223370652294258807</desc></polyline><polyline fill="none" opacity="1" points="29.06751076038927,130.50001738895662 26.354641679674387,132.30003087921068 25.121519369073212,136.50005727959797 23.395148135721684,141.30007874849252 23.395148135721684,144.30008745123632 23.148523674346507,147.0000921834726 22.40865028835833,151.20009370637126 22.655274749733508,155.10008875629865 22.40865028835833,158.10008077835664 22.655274749733508,163.20005889236927 23.64177259709686,165.60004496737383 26.108017217367887,167.7000308786519 30.793881993740797,171.60000000009313 34.73987338505685,171.60000000009313 38.43924031406641,170.40001015365124 40.65886047203094,169.20001972699538 43.37172955367714,165.90004306309856 44.111602938733995,163.20005889236927 43.86497847735882,159.000077677425 44.35822740197182,154.2000904425513 45.34472524933517,151.20009370637126 46.08459863439202,147.60009283619002 46.08459863439202,144.00008674431592 46.33122309669852,139.80007303715684 45.837974173016846,135.90005394420587 43.61835401598364,132.6000330010429 40.90548493433744,130.50001738895662 36.712869081646204,128.4000000001397 33.013502151705325,129.00000514974818 29.560759685002267,130.50001738895662 26.354641679674387,132.0000287219882 23.64177259709686,135.00004866719246 22.901899211108685,140.40007542981766 23.148523674346507,144.00008674431592 22.655274749733508,147.60009283619002 24.13502152170986,151.20009370637126 22.40865028835833,156.90008440450765 21.668776902370155,160.80007049744017 22.40865028835833,164.70005046087317 22.655274749733508,166.80003713420592 26.354641679674387,169.20001972699538 29.314135221764445,170.70000767009333" stroke="#4DD2FF" stroke-dasharray="none" stroke-linecap="round" stroke-linejoin="round" stroke-width="0.5"><title>2013-11-03 10.7km</title><desc>9223370653417861807</desc></polyline><polyline fill="none" opacity="1" points="97.87977004796267,171.60000000009313 97.87977004796267,164.50748669356108 98.40982753224671,154.83586243726313 98.93988502211869,145.16422064742073 101.59017246030271,136.7821169095114 102.12022995017469,128.39999999990687" stroke="#4DD2FF" stroke-dasharray="none" stroke-linecap="round" stroke-linejoin="round" stroke-width="0.5"><title>2013-11-02 10.5km</title><desc>9223370653505000807</desc></polyline><polyline fill="none" opacity="1" points="175.32241480425,134.34004954481497 173.99064126145095,132.72003759886138 170.4392451448366,130.56001984444447 167.7756980592385,128.4000000001397 165.3341132281348,129.48001018329524 162.0046793706715,130.8300221778918 159.78505679685622,132.45003549358808 158.67524551134557,135.69005860155448 158.2313209977001,138.12007284793071 157.7873964831233,141.63008875912055 156.45562293939292,144.33009724435396 156.01169842481613,146.76010209089145 156.23366068210453,150.81010429398157 157.7873964831233,154.32010026299395 154.90188713837415,155.13009854895063 155.12384939659387,156.21009580790997 154.45796262472868,157.56009164638817 154.90188713837415,163.23006525845267 160.22898131329566,166.20004569296725 165.77803774364293,167.55003549298272 167.1098112873733,167.55003549298272 169.10747160110623,167.55003549298272 171.77101868763566,168.3600289823953 173.99064126145095,164.0400603134185 174.6565280323848,162.96006684168242 174.8784902896732,160.5300796192605 175.54437706060708,159.18008557590656 173.54671674594283,158.91008666879497 174.8784902896732,158.10008975397795 176.2102638334036,155.94009654247202 175.9883015761152,150.81010429398157 176.2102638334036,149.46010437584482 175.7663393188268,146.2201012421865 176.2102638334036,142.1700907170307 175.7663393188268,136.7700652598869 175.32241480425,133.26004171161912 173.54671674594283,129.75001264712773 169.55139611661434,129.48001018329524 165.77803774364293,129.21000768686645 162.6705661425367,130.56001984444447 159.78505679685622,132.72003759886138 156.67758519575,133.26004171161912 156.45562293939292,137.58006991050206 156.23366068210453,140.55008445074782 156.01169842481613,144.0600965428166 154.90188713837415,147.57010311936028 155.34581165295094,151.62010385282338 155.12384939659387,155.13009854895063 154.90188713837415,159.18008557590656 154.90188713837415,161.61007426702417 158.45328325405717,165.66004954348318 164.00233968626708,168.63002674723975 166.44392451550812,169.98001507879235 169.32943385839462,171.60000000009313 173.32475448958576,167.82003335561603 175.1004525469616,162.69006839231588 175.54437706060708,159.7200832911767 175.54437706060708,158.6400877290871 175.1004525469616,153.24010209064 174.8784902896732,148.92010417976417 175.32241480425,146.2201012421865 175.54437706060708,142.98009340977296 177.09811286255717,138.93007700890303 175.7663393188268,135.96006031497382 174.43456577509642,134.34004954481497 172.88082997407764,130.8300221778918 170.21728288847953,130.02001507859677 166.0,129.75001264712773 162.0046793706715,130.56001984444447 159.78505679685622,130.8300221778918 156.89954745396972,132.72003759886138 154.90188713837415,135.69005860155448 154.67992488108575,138.39007426798344 155.34581165295094,139.7400808769744 154.23600036650896,142.71009254432283 154.67992488108575,145.95010076928884 154.90188713837415,147.57010311936028 154.45796262472868,150.27010442432947 154.90188713837415,153.78010124200955 154.67992488108575,157.02009340864606 154.90188713837415,161.34007565444335 157.5654342258349,166.20004569296725 161.7827171124518,168.63002674723975 163.11449065618217,168.3600289823953 166.0,169.98001507879235 167.99766031466424,169.1700221770443 171.1051319167018,171.33000259427354 173.32475448958576,168.63002674723975 174.8784902896732,162.42006990942173 173.99064126145095,158.37008875748143 175.1004525469616,151.35010403278284 174.8784902896732,147.0301024664659 174.8784902896732,145.68010026379488 176.43222609069198,142.98009340977296 177.76399963349104,140.82008557626978 177.09811286255717,136.7700652598869 175.32241480425,132.1800333559513 173.10279223136604,129.75001264712773 169.9953206302598,128.6700025945902 166.0,128.94000515691005 161.1168303405866,130.56001984444447 157.1215097112581,132.1800333559513 156.67758519575,133.53004371840507 155.56777391023934,134.61005142168142 155.78973616752774,137.04006684245542 156.01169842481613,138.6600756549742" stroke="#4DD2FF" stroke-dasharray="none" stroke-linecap="round" stroke-linejoin="round" stroke-width="0.5"><title>2013-10-26 11.1km</title><desc>9223370654110301807</desc></polyline><polyline fill="none" opacity="1" points="42.52801532112062,195.1579922370147 43.92988085281104,191.4632480267901 45.565390639938414,189.18955639493652 46.49996766168624,186.63165068160743 46.26632340531796,184.07374218595214 43.92988085281104,181.23161837016232 40.8925055321306,179.81055517448112 37.855130213312805,177.25263925665058 34.58411063905805,176.4000000001397 31.0794468075037,177.82106525660492 28.27571574319154,180.09476788225584 25.705628934316337,182.6526807071641 25.238340424373746,185.77901482582092 25.238340424373746,189.4737679695245 24.771051913499832,192.60009301709943 24.30376340262592,196.86325683817267 21.50003233831376,199.9895720607601 21.967320849187672,203.68430287321098 21.733676593750715,207.94744659680873 22.200965103693306,211.07374708005227 22.200965103693306,213.91583482245915 24.30376340262592,216.75791912851855 27.341138722375035,219.0315841003321 30.61215829756111,219.60000000009313 34.58411063905805,219.0315841003321 37.154197447001934,217.610543750925 40.8925055321306,215.90529419737868 41.82708255480975,213.6316262029577 43.462592341937125,210.22112008789554 43.92988085281104,206.81060902611353 43.92988085281104,203.1158831268549 44.39716936368495,199.70536175812595 45.0981021290645,195.4422030900605 45.33174638450146,192.0316705906298 45.79903489537537,189.18955639493652 45.565390639938414,185.49480280443095 44.63081361912191,181.80004340759479 42.52801532112062,179.24212965508923 39.4906400013715,178.10527820512652 35.98597617074847,177.53685227409005 32.48131234012544,177.53685227409005 29.21029276587069,178.95791684417054 25.705628934316337,181.23161837016232 24.30376340262592,184.07374218595214 25.004696168005466,188.33692146651447 23.602830636315048,191.74745932617225 23.36918638087809,194.58957042940892 23.36918638087809,198.28430972713977 21.733676593750715,201.69483315735124 22.200965103693306,206.52639954793267 21.967320849187672,209.3684927856084 23.36918638087809,212.21058258996345 24.30376340262592,215.90529419737868" stroke="#4DD2FF" stroke-dasharray="none" stroke-linecap="round" stroke-linejoin="round" stroke-width="0.5"><title>2013-10-20 10.7km</title><desc>9223370654628121807</desc></polyline><polyline fill="none" opacity="0.5" points="101.58109986409545,219.60000000009313 107.66225318517536,216.34523203712888 109.85146838147193,208.35623777774163 110.09471451491117,200.66310755256563 111.06769904587418,194.1535169375129 111.55419131275266,186.164450250566 106.68926865514368,177.87946466286667 98.90539240278304,176.6958930043038 93.31073134578764,181.4301762059331 91.12151614949107,189.12336687906645 89.6620393525809,197.11242390889674 88.44580868817866,204.50967568764463 88.20256255567074,211.31512758042663 98.66214626841247,219.00822432828136 104.98654572386295,218.1205605531577 109.36497611645609,212.79457114078104 110.09471451491117,203.6220066549722 110.09471451491117,197.11242390889674 111.79743744432926,190.60282385186292 109.36497611645609,179.95071368920617 101.82434599753469,176.4000000001397 95.98643880710006,179.35892843198963 92.58099294733256,184.38909855671227 89.6620393525809,193.56173511454836 88.20256255567074,200.66310755256563 88.68905482254922,207.76445938879624 95.01345427706838,219.00822432828136 101.58109986409545,219.60000000009313 107.66225318517536,216.34523203712888 109.85146838147193,208.35623777774163 110.09471451491117,200.66310755256563 111.06769904587418,194.1535169375129 111.55419131275266,186.164450250566 106.68926865514368,177.87946466286667 98.90539240278304,176.6958930043038 93.31073134578764,181.4301762059331 91.12151614949107,189.12336687906645 89.6620393525809,197.11242390889674 88.44580868817866,204.50967568764463 88.20256255567074,211.31512758042663 98.66214626841247,219.00822432828136 104.98654572386295,218.1205605531577 109.36497611645609,212.79457114078104 110.09471451491117,203.6220066549722 110.09471451491117,197.11242390889674 111.79743744432926,190.60282385186292 109.36497611645609,179.95071368920617 101.82434599753469,176.4000000001397 95.98643880710006,179.35892843198963 92.58099294733256,184.38909855671227 89.6620393525809,193.56173511454836 88.20256255567074,200.66310755256563 88.68905482254922,207.76445938879624 95.01345427706838,219.00822432828136 101.58109986409545,219.60000000009313 107.66225318517536,216.34523203712888 109.85146838147193,208.35623777774163 110.09471451491117,200.66310755256563 111.06769904587418,194.1535169375129 111.55419131275266,186.164450250566 106.68926865514368,177.87946466286667 98.90539240278304,176.6958930043038 93.31073134578764,181.4301762059331 91.12151614949107,189.12336687906645 89.6620393525809,197.11242390889674 88.44580868817866,204.50967568764463 88.20256255567074,211.31512758042663 98.66214626841247,219.00822432828136 104.98654572386295,218.1205605531577 109.36497611645609,212.79457114078104 110.09471451491117,203.6220066549722 110.09471451491117,197.11242390889674 111.79743744432926,190.60282385186292 109.36497611645609,179.95071368920617 101.82434599753469,176.4000000001397 95.98643880710006,179.35892843198963 92.58099294733256,184.38909855671227 89.6620393525809,193.56173511454836 88.20256255567074,200.66310755256563 88.68905482254922,207.76445938879624 95.01345427706838,219.00822432828136 101.58109986409545,219.60000000009313 107.66225318517536,216.34523203712888 109.85146838147193,208.35623777774163 110.09471451491117,200.66310755256563 111.06769904587418,194.1535169375129 111.55419131275266,186.164450250566 106.68926865514368,177.87946466286667 98.90539240278304,176.6958930043038 93.31073134578764,181.4301762059331 91.12151614949107,189.12336687906645 89.6620393525809,197.11242390889674 88.44580868817866,204.50967568764463 88.20256255567074,211.31512758042663 98.66214626841247,219.00822432828136 104.98654572386295,218.1205605531577 109.36497611645609,212.79457114078104 110.09471451491117,203.6220066549722 110.09471451491117,197.11242390889674 111.79743744432926,190.60282385186292 109.36497611645609,179.95071368920617 101.82434599753469,176.4000000001397 95.98643880710006,179.35892843198963 92.58099294733256,184.38909855671227 89.6620393525809,193.56173511454836 88.20256255567074,200.66310755256563 88.68905482254922,207.76445938879624 95.01345427706838,219.00822432828136 101.58109986409545,219.60000000009313 107.66225318517536,216.34523203712888 109.85146838147193,208.35623777774163 110.09471451491117,200.66310755256563 111.06769904587418,194.1535169375129 111.55419131275266,186.164450250566 106.68926865514368,177.87946466286667 98.90539240278304,176.6958930043038 93.31073134578764,181.4301762059331 91.12151614949107,189.12336687906645 89.6620393525809,197.11242390889674 88.44580868817866,204.50967568764463 88.20256255567074,211.31512758042663 98.66214626841247,219.00822432828136 104.98654572386295,218.1205605531577 109.36497611645609,212.79457114078104 110.09471451491117,203.6220066549722 110.09471451491117,197.11242390889674 111.79743744432926,190.60282385186292 109.36497611645609,179.95071368920617 101.82434599753469,176.4000000001397 95.98643880710006,179.35892843198963 92.58099294733256,184.38909855671227 89.6620393525809,193.56173511454836 88.20256255567074,200.66310755256563 88.68905482254922,207.76445938879624 95.01345427706838,219.00822432828136 101.58109986409545,219.60000000009313 107.66225318517536,216.34523203712888 109.85146838147193,208.35623777774163 110.09471451491117,200.66310755256563 111.06769904587418,194.1535169375129 111.55419131275266,186.164450250566 106.68926865514368,177.87946466286667 98.90539240278304,176.6958930043038 93.31073134578764,181.4301762059331 91.12151614949107,189.12336687906645 89.6620393525809,197.11242390889674 88.44580868817866,204.50967568764463 88.20256255567074,211.31512758042663 98.66214626841247,219.00822432828136 104.98654572386295,218.1205605531577 109.36497611645609,212.79457114078104 110.09471451491117,203.6220066549722 110.09471451491117,197.11242390889674 111.79743744432926,190.60282385186292 109.36497611645609,179.95071368920617 101.82434599753469,176.4000000001397 95.98643880710006,179.35892843198963 92.58099294733256,184.38909855671227 89.6620393525809,193.56173511454836 88.20256255567074,200.66310755256563 88.68905482254922,207.76445938879624 95.01345427706838,219.00822432828136 101.58109986409545,219.60000000009313 107.66225318517536,216.34523203712888 109.85146838147193,208.35623777774163 110.09471451491117,200.66310755256563 111.06769904587418,194.1535169375129 111.55419131275266,186.164450250566 106.68926865514368,177.87946466286667 98.90539240278304,176.6958930043038 93.31073134578764,181.4301762059331 91.12151614949107,189.12336687906645 89.6620393525809,197.11242390889674 88.44580868817866,204.50967568764463 88.20256255567074,211.31512758042663 98.66214626841247,219.00822432828136 104.98654572386295,218.1205605531577 109.36497611645609,212.79457114078104 110.09471451491117,203.6220066549722 110.09471451491117,197.11242390889674 111.79743744432926,190.60282385186292 109.36497611645609,179.95071368920617 101.82434599753469,176.4000000001397 95.98643880710006,179.35892843198963 92.58099294733256,184.38909855671227 89.6620393525809,193.56173511454836 88.20256255567074,200.66310755256563 88.68905482254922,207.76445938879624 95.01345427706838,219.00822432828136 101.58109986409545,219.60000000009313 107.66225318517536,216.34523203712888 109.85146838147193,208.35623777774163 110.09471451491117,200.66310755256563 111.06769904587418,194.1535169375129 111.55419131275266,186.164450250566 106.68926865514368,177.87946466286667 98.90539240278304,176.6958930043038 93.31073134578764,181.4301762059331 91.12151614949107,189.12336687906645 89.6620393525809,197.11242390889674 88.44580868817866,204.50967568764463 88.20256255567074,211.31512758042663 98.66214626841247,219.00822432828136 104.98654572386295,218.1205605531577 109.36497611645609,212.79457114078104 110.09471451491117,203.6220066549722 110.09471451491117,197.11242390889674 111.79743744432926,190.60282385186292 109.36497611645609,179.95071368920617 101.82434599753469,176.4000000001397 95.98643880710006,179.35892843198963 92.58099294733256,184.38909855671227 89.6620393525809,193.56173511454836 88.20256255567074,200.66310755256563 88.68905482254922,207.76445938879624 95.01345427706838,219.00822432828136 101.58109986409545,219.60000000009313 107.66225318517536,216.34523203712888 109.85146838147193,208.35623777774163 110.09471451491117,200.66310755256563 111.06769904587418,194.1535169375129 111.55419131275266,186.164450250566 106.68926865514368,177.87946466286667 98.90539240278304,176.6958930043038 93.31073134578764,181.4301762059331 91.12151614949107,189.12336687906645 89.6620393525809,197.11242390889674 88.44580868817866,204.50967568764463 88.20256255567074,211.31512758042663 98.66214626841247,219.00822432828136 104.98654572386295,218.1205605531577 109.36497611645609,212.79457114078104 110.09471451491117,203.6220066549722 110.09471451491117,197.11242390889674 111.79743744432926,190.60282385186292 109.36497611645609,179.95071368920617 101.82434599753469,176.4000000001397 95.98643880710006,179.35892843198963 92.58099294733256,184.38909855671227 89.6620393525809,193.56173511454836 88.20256255567074,200.66310755256563 88.68905482254922,207.76445938879624 95.01345427706838,219.00822432828136 101.58109986409545,219.60000000009313 107.66225318517536,216.34523203712888 109.85146838147193,208.35623777774163 110.09471451491117,200.66310755256563 111.06769904587418,194.1535169375129 111.55419131275266,186.164450250566 106.68926865514368,177.87946466286667 98.90539240278304,176.6958930043038 93.31073134578764,181.4301762059331 91.12151614949107,189.12336687906645 89.6620393525809,197.11242390889674 88.44580868817866,204.50967568764463 88.20256255567074,211.31512758042663 98.66214626841247,219.00822432828136 104.98654572386295,218.1205605531577 109.36497611645609,212.79457114078104 110.09471451491117,203.6220066549722 110.09471451491117,197.11242390889674 111.79743744432926,190.60282385186292 109.36497611645609,179.95071368920617 101.82434599753469,176.4000000001397 95.98643880710006,179.35892843198963 92.58099294733256,184.38909855671227 89.6620393525809,193.56173511454836 88.20256255567074,200.66310755256563 88.68905482254922,207.76445938879624 95.01345427706838,219.00822432828136 101.58109986409545,219.60000000009313 107.66225318517536,216.34523203712888 109.85146838147193,208.35623777774163 110.09471451491117,200.66310755256563 111.06769904587418,194.1535169375129 111.55419131275266,186.164450250566 106.68926865514368,177.87946466286667 98.90539240278304,176.6958930043038 93.31073134578764,181.4301762059331 91.12151614949107,189.12336687906645 89.6620393525809,197.11242390889674 88.44580868817866,204.50967568764463 88.20256255567074,211.31512758042663 98.66214626841247,219.00822432828136 104.98654572386295,218.1205605531577 109.36497611645609,212.79457114078104 110.09471451491117,203.6220066549722 110.09471451491117,197.11242390889674 111.79743744432926,190.60282385186292 109.36497611645609,179.95071368920617 101.82434599753469,176.4000000001397 95.98643880710006,179.35892843198963 92.58099294733256,184.38909855671227 89.6620393525809,193.56173511454836 88.20256255567074,200.66310755256563 88.68905482254922,207.76445938879624 95.01345427706838,219.00822432828136 101.58109986409545,219.60000000009313 107.66225318517536,216.34523203712888 109.85146838147193,208.35623777774163 110.09471451491117,200.66310755256563 111.06769904587418,194.1535169375129 111.55419131275266,186.164450250566 106.68926865514368,177.87946466286667 98.90539240278304,176.6958930043038 93.31073134578764,181.4301762059331 91.12151614949107,189.12336687906645 89.6620393525809,197.11242390889674 88.44580868817866,204.50967568764463 88.20256255567074,211.31512758042663 98.66214626841247,219.00822432828136 104.98654572386295,218.1205605531577 109.36497611645609,212.79457114078104 110.09471451491117,203.6220066549722 110.09471451491117,197.11242390889674 111.79743744432926,190.60282385186292 109.36497611645609,179.95071368920617 101.82434599753469,176.4000000001397 95.98643880710006,179.35892843198963 92.58099294733256,184.38909855671227 89.6620393525809,193.56173511454836 88.20256255567074,200.66310755256563 88.68905482254922,207.76445938879624 95.01345427706838,219.00822432828136 101.58109986409545,219.60000000009313 107.66225318517536,216.34523203712888 109.85146838147193,208.35623777774163 110.09471451491117,200.66310755256563 111.06769904587418,194.1535169375129" stroke="#4DD2FF" stroke-dasharray="1,0.5" stroke-linecap="round" stroke-linejoin="round" stroke-width="0.5"><title>2013-10-19 10.2km</title><desc>9223370654714312807</desc></polyline><polyline fill="none" opacity="1" points="167.58109986409545,219.60000000009313 170.98654572386295,218.1205605531577 173.66225318517536,216.34523203712888 175.3649761164561,212.79457114078104 175.85146838147193,208.35623777774163 176.09471451491117,203.6220066549722 176.09471451491117,200.66310755256563 176.09471451491117,197.11242390889674 177.06769904587418,194.1535169375129 177.79743744432926,190.60282385186292 177.55419131275266,186.164450250566 175.3649761164561,179.95071368920617 172.68926865514368,177.87946466286667 167.8243459975347,176.4000000001397 164.90539240278304,176.6958930043038 161.98643880710006,179.35892843198963 159.31073134578764,181.4301762059331 158.58099294733256,184.38909855671227 157.12151614949107,189.12336687906645 155.6620393525809,193.56173511454836 155.6620393525809,197.11242390889674 154.20256255567074,200.66310755256563" stroke="#4DD2FF" stroke-dasharray="none" stroke-linecap="round" stroke-linejoin="round" stroke-width="0.5"><title>2013-10-12 10.6km</title><desc>9223370655320152807</desc></polyline><polyline fill="none" opacity="1" points="45.75799070484936,235.78385878098197 46.717826679348946,232.86492574820295 45.99794969893992,230.52977678203024 43.358400764875114,226.73515489464626 39.03913887310773,225.2756833503954 35.43975396454334,224.4000000001397 32.56024603638798,224.4000000001397 30.16065609641373,225.56757773039863 26.08135319966823,227.61083739856258 24.641599235124886,230.52977678203024 23.68176325969398,234.03249938460067 23.921722253784537,238.11900266609155 23.921722253784537,241.62171426066197 24.161681246943772,244.83252875856124 23.921722253784537,248.6271222056821 22.24200929608196,251.25414494634606 21.52213231381029,254.17305574938655 21.282173319719732,257.09196302411146 22.24200929608196,260.0108667712193 23.4418042646721,262.3459872279782 25.121517223306,265.26488462416455 28.240984144620597,266.72433199873194 31.600410060957074,266.72433199873194 36.639548934064806,267.60000000009313 39.7590158553794,264.68110542721115 41.67868780810386,262.0540972945746 44.07827774621546,258.25952494633384 44.31823674123734,254.17305574938655 44.31823674123734,250.67036236193962 45.518031710758805,246.87577212485485 46.237908692099154,243.37306815269403" stroke="#4DD2FF" stroke-dasharray="none" stroke-linecap="round" stroke-linejoin="round" stroke-width="0.5"><title>2013-10-06 10.6km</title><desc>9223370655838244807</desc></polyline><polyline fill="none" opacity="1" points="89.27664157561958,258.3429248428438 89.27664157561958,260.3065499314107 90.19908100832254,263.3922431420069 91.8133500199765,265.6363810834009 95.96432747505605,266.75844923895784 99.19286549650133,267.60000000009313 102.19079365767539,266.75844923895784 105.18872181978077,266.47793225129135 107.26421054638922,264.23379512433894 108.64786969870329,261.98965582833625 109.57030913420022,258.0624068370089 109.33969927486032,254.97670653951354 110.26213870942593,251.04944568034261 110.26213870942593,247.40269750310108 110.03152885008603,243.75594359473325 109.80091899260879,238.98710291530006 110.26213870942593,235.62085653445683 110.95396828558296,234.21825243486091 110.26213870942593,231.41304169245996 107.95604012254626,228.88834912492894 104.9581119613722,226.0831319389399 102.88262323383242,225.2415661229752 99.65408521238714,225.80261003412306 96.19493733346462,225.80261003412306 94.35005846433342,226.6441756472923 93.19700917135924,229.72991361888126 91.5827401606366,232.5351263966877 91.35213030222803,235.62085653445683 90.660300726071,239.26762322615832 89.96847115084529,243.19490402424708 89.5072514321655,245.7195810272824 88.81542185787112,248.80529363360256 88.81542185787112,252.17152088950388 87.89298242330551,255.53774326271378 87.43176270555705,258.0624068370089 87.66237256396562,261.14810303226113 88.81542185787112,263.6727605035994 91.8133500199765,266.19741522870027 95.50310775730759,267.0389661930967 99.65408521238714,267.319483113708 103.34384294971824,266.75844923895784 105.8805513959378,264.794829609571 108.64786969870329,262.55069085536525 109.80091899260879,258.3429248428438 110.26213870942593,255.53774326271378 110.72335842624307,252.4520396075677 110.95396828558296,249.6468509058468 111.4151880024001,245.7195810272824 111.64579786174,243.4754238263704 111.87640772014856,240.3897041331511 112.10701757855713,237.5845008501783 112.3376274369657,234.49877332313918 111.64579786174,231.69356291904114 110.4927485678345,229.1688706574496 108.18664998188615,226.6441756472923 105.64994153752923,225.2415661229752 102.88262323383242,224.4000000001397 100.57652464695275,224.96104411478154 96.65615705028176,225.52208809531294 93.88883874751627,227.20521922083572 92.50517959613353,230.8519991368521 90.89091058447957,235.34033578261733 89.96847115084529,238.14554177806713 89.7378612915054,240.3897041331511 89.5072514321655,243.4754238263704 89.7378612915054,246.56113941781223 89.96847115084529,249.92736992868595 89.7378612915054,253.01307694031857 89.5072514321655,256.3792980927974 89.96847115084529,259.7455143611878 91.35213030222803,262.83120831870474 93.88883874751627,264.5143123844173 96.65615705028176,267.319483113708 100.57652464695275,267.319483113708 102.88262323383242,267.0389661930967 106.34177111368626,265.35586395906284 108.41725984029472,263.3922431420069 109.57030913420022,260.0260321632959 110.03152885008603,257.2208526181057 110.95396828558296,254.13515119976364 110.95396828558296,250.76892679347657 111.64579786174,247.96373605774716 111.64579786174,244.8780223308131 111.4151880024001,241.79230450256728 112.56823729537427,238.14554177806713 111.64579786174,235.34033578261733 110.72335842624307,231.97408411232755 110.03152885008603,229.44939215504564 107.49482040572912,227.7662626572419" stroke="#4DD2FF" stroke-dasharray="none" stroke-linecap="round" stroke-linejoin="round" stroke-width="0.5"><title>2013-09-29 10.5km</title><desc>9223370656443428807</desc></polyline><polyline fill="none" opacity="1" points="156.72566410526633,246.96315960399806 156.49946079216897,249.16443149279803 156.49946079216897,253.29181054909714 155.14224090520293,255.49307631724514 155.5946475332603,260.99623142788187 156.49946079216897,263.4726468878798 161.92834033910185,265.3987459379714 164.1903734849766,265.94905965332873 167.58342320099473,265.94905965332873 171.65508286189288,264.8484320899006 174.59572594985366,262.0968608537223 176.6315557807684,257.96949776401743 177.31016572378576,253.5669688861817 175.72674252279103,250.81538401311263 174.14331932086498,249.43959032977 175.9529458368197,245.03704495402053 177.53636903874576,239.8090112612117 177.98877566773444,237.88289055787027 177.31016572378576,234.8561261605937 178.4411822957918,231.0038747417275 175.72674252279103,228.25226259441115 173.01230274885893,225.2254853900522 171.2026762329042,224.67516183038242 165.77379668504,225.2254853900522 164.1903734849766,225.50064712180756 161.24973039515316,227.97710119676776 158.76149393618107,230.17839144705795 158.08288399223238,232.6548404339701 157.63047736417502,236.23192865750752 156.49946079216897,240.909650930902 156.95186742115766,244.2115667485632 157.17807073518634,246.41284129861742 156.49946079216897,250.81538401311263 156.95186742115766,254.11728546093218 155.5946475332603,258.24465553602204 156.27325747720897,261.54654620797373 156.49946079216897,263.4726468878798 160.34491713810712,264.8484320899006 163.96417016908526,267.3248433584813 166.22620331402868,266.77452997583896 169.16684640292078,265.94905965332873 172.10748949088156,264.8484320899006 175.04813257977366,261.54654620797373 175.27433589380234,259.34528629202396 175.9529458368197,256.593708404107 176.85775909479707,253.84212718973868 177.98877566773444,250.81538401311263 177.08396240975708,247.2383187059313 175.9529458368197,243.38608824275434 176.1791491517797,240.35933116311207 176.6315557807684,237.05740975774825 177.76257235370576,236.23192865750752 178.6673856107518,232.6548404339701 177.31016572378576,229.90323028177954 178.4411822957918,230.17839144705795 177.98877566773444,227.42677830229513 174.82192926388234,226.05097048194148 171.4288795478642,224.95032362709753 168.26203314494342,224.4000000001397 164.1903734849766,225.50064712180756 161.02352708112448,227.97710119676776 158.3090873081237,229.90323028177954 158.08288399223238,233.20516206533648 155.8208508491516,237.05740975774825 154.46363096125424,241.45997056690976 156.04705416224897,241.45997056690976 156.72566410526633,243.11092867492698 156.27325747720897,246.68800046737306 155.5946475332603,250.81538401311263 153.3326143892482,253.01665217778645 155.3684442192316,256.04339242796414 155.5946475332603,258.5198132751975 157.17807073518634,262.92233257344924 159.21390056516975,265.3987459379714 161.92834033910185,266.2242164602503 165.77379668504,266.2242164602503 169.39304971788079,267.60000000009313 173.01230274885893,266.2242164602503 174.14331932086498,264.0229610686656 174.36952263582498,260.4459165164735 175.72674252279103,259.34528629202396 175.9529458368197,255.21791821345687 177.98877566773444,248.61411371990107 177.98877566773444,243.93640727945603" stroke="#4DD2FF" stroke-dasharray="none" stroke-linecap="round" stroke-linejoin="round" stroke-width="0.5"><title>2013-09-22 10.9km</title><desc>9223370657048162807</desc></polyline></svg>