<?xml version="1.0" encoding="utf-8" ?>
<svg baseProfile="full" height="300mm" version="1.1" viewBox="0,0,200,300" width="200mm" xmlns="http://www.w3.org/2000/svg" xmlns:ev="http://www.w3.org/2001/xml-events" xmlns:xlink="http://www.w3.org/1999/xlink"><defs /><rect fill="#222222" height="300" width="200" x="0" y="0" /><text fill="#FFFFFF" style="font-size:12px; font-family:Arial; font-weight:bold;" x="10" y="20">Over 10km Runs</text><text fill="#FFFFFF" style="font-size:4px; font-family:Arial" x="10" y="280">Runner</text><text fill="#FFFFFF" style="font-size:9px; font-family:Arial" x="10" y="290">keep</text><text fill="#FFFFFF" style="font-size:4px; font-family:Arial" x="65" y="280">SPECIAL TRACKS</text><rect fill="yellow" height="2.6" width="2.6" x="65" y="283" /><text fill="#FFFFFF" style="font-size:3px; font-family:Arial" x="70" y="285.5">Over 20.0 km</text><rect fill="red" height="2.6" width="2.6" x="65" y="287" /><text fill="#FFFFFF" style="font-size:3px; font-family:Arial" x="70" y="289.5">Over 40.0 km</text><text fill="#FFFFFF" style="font-size:4px; font-family:Arial" x="120" y="280">STATISTICS</text><text fill="#FFFFFF" style="font-size:3px; font-family:Arial" x="120" y="285">Number: 15</text><text fill="#FFFFFF" style="font-size:3px; font-family:Arial" x="120" y="290">Weekly: 1.2</text><text fill="#FFFFFF" style="font-size:3px; font-family:Arial" x="141" y="285">Total: 163.6 km</text><text fill="#FFFFFF" style="font-size:3px; font-family:Arial" x="141" y="290">Avg: 10.9 km</text><text fill="#FFFFFF" style="font-size:3px; font-family:Arial" x="167" y="285">Min: 10.2 km</text><text fill="#FFFFFF" style="font-size:3px; font-family:Arial" x="167" y="290">Max: 14.0 km</text><polyline fill="none" opacity="1" points="26.82460105267819,75.59999999999854 26.72944808291504,75.42580846826604 26.642945383151527,75.24072955852898 26.5823934932705,74.99032801264548 26.56509295332944,74.69637739167229 26.62564484315226,74.32621584458684 26.642945383151527,74.04314999941562 26.62564484315226,73.72742155248125 26.61699457321083,73.42257913450158 26.62564484315226,73.13951015550265 26.642945383151527,72.7693415478061 26.651595653092954,72.49715767704765 26.703497272974346,72.22497289854073 26.885152942559216,72.08343645501736 27.161961581849027,72.06166159576969 27.26576482161181,71.97456210068776 27.291715631523402,71.80036283166555 27.317666441464098,71.58261322254839 27.334966981463367,71.29953786217811 27.27441509158234,70.96202364935743 27.006256722233957,70.8204850157199 26.86785240258905,70.58095753801172 26.937054562440608,70.17811428577261 26.971655642351834,69.89503405406867 27.032207532174652,69.54662626719801 27.066808612144087,69.23088042561722 27.118710231938167,68.91513336249773 27.136010771937435,68.64293663799617 27.187912391789723,68.49050607573008 27.26576482161181,68.33807522877032 27.25711455164128,68.1638681979166 27.248464281641645,68.09854046545661 27.309016171493568,67.89166896773531 27.36956806134549,67.65213289423264 27.438770221197046,67.36904390090058 27.51662265099003,67.07506583003851 27.603125350782648,66.72664600439748 27.6723275106051,66.46533015895693 27.793431290308945,66.20401347682491 27.966436689865077,66.22578989894828 28.156742629391374,66.3128955293796 28.390299918857636,66.20401347682491 28.63250747823622,66.02980189048685 28.71901017802884,65.76848381375021 28.874715037614806,65.47449997717922 29.021769627259346,65.16962673178932 29.18612475687405,64.88652912691032 29.341829616460018,64.61431896535214 29.497534476104192,64.34210789577628 29.653239335719263,64.02634191748803 29.80894419530523,63.7323518048579 30.016550674801692,63.35125193437125 30.23280742429779,62.98103892739891 30.449064173735678,62.57815815849608 30.622069573320914,62.295051563341985 30.81237551290542,61.97927766387875 30.994031182402978,61.69616899100947 31.123785232106457,61.500170103638084 31.29679063166259,61.22794864574098 31.49574684118852,60.912170616851654 31.625500890892,60.59639136595797 31.746604670595843,60.32416689296224 31.91095980015234,60.00838536658557 32.1445170895895,59.74704800675681 32.395374918938614,59.572822635214834 32.59433112849365,59.30059474742302 32.74138571807998,59.0501442885361 32.8538392278424,58.95214172580745 32.95764246757608,58.73435783164314 33.06144570733886,58.49479487671488 33.121997597190784,58.32056683133851 33.32095380668761,58.23345266913384 33.48530893627321,58.2225633923008 33.589112176036,58.15722770093271 33.71021595571074,58.01566685674334 33.86592081535491,57.84143778829457 34.05622675488121,57.60187221172964 34.25518296437804,57.351416538716876 34.32438512420049,57.16629663408821 34.28113377428963,56.861392346232606 34.298434314259794,56.55648691895476 34.445488903904334,56.338696630446066 34.63579484343063,56.12090576059563 34.80880024301587,55.89222472160327 34.92990402271971,55.54375714397611 35.076958612393355,55.282405484089395 35.345116981712636,54.999273574467225 35.58732454109122,54.75969965279364 35.708428320795065,54.53101479856559 35.838182370498544,54.21521085091081 35.976586690114345,53.89940568081511 36.21014397958061,53.681608299586514 36.504253158840584,53.64893864226906 36.668608288426185,53.409360755489615 36.77241152818897,53.10444242750964 36.84161368801142,52.82130295973184 36.90216557783424,52.52727247234725 36.971367737685796,52.16790043764922 37.066520707448944,51.830307084237575 37.12707259727176,51.623394338465005 37.16167367721209,51.42737125309213 37.222225567064015,51.11155529161624 37.29142772691557,50.77395756700571 37.37793042664998,50.403687488542346 37.481733666412765,50.01163498553069 37.53363528629416,49.65225186930911 37.611487716116244,49.31464810585021 37.69799041590886,48.99882396553585 37.78449311570148,48.61765527134412 37.83639473558287,48.26915662099054 37.90559689537622,47.898875173741544 37.99209959516884,47.53948274998402 38.061301755020395,47.19097949368006 38.13050391484285,46.896928713074885 38.20835634463583,46.53753187513212 38.25160769454669,46.243478739095735 38.33811039433931,45.971206371737935 38.3640612042218,45.85140624219639 38.40731255413266,45.59002353066171 38.476514713984216,45.24151194583101 38.54571687380667,44.8712167554404 38.632219573599286,44.53359320511663 38.69277146345121,44.19596825729968 38.70142173342174,44.130621331802104 38.736022813332966,43.89101549044426 38.79657470321399,43.564279117956175 38.874427133006975,43.19397631366883 38.94362929282943,42.85634582108469 39.004181182652246,42.58406214782735 39.06473307253327,42.39890873082186 39.10798442241503,42.24642913068237 39.14258550235536,42.126623530602956 39.19448712223675,41.99592631163978 39.14258550235536,41.82166302725818 39.15988604229642,41.54937590008194 39.19448712223675,41.2879794028413 39.27233955200063,41.04836521115067 39.31559090188239,40.88499149503332 39.531847651378484,40.90677467608475 39.82595683063846,41.01569049408863 40.11141573995701,41.11371460597002 40.344973029365065,41.17906394843885 40.42282545918715,40.961232603294775 40.44877626912785,40.75429228654684 40.43147572915768,40.47110994968534 40.44012599912821,40.11168479860498 40.46607680906891,39.70869107904582 40.526628698949935,39.392829744807386 40.48337734900997,39.14231816165557 40.336322759394534,39.02250800209731 40.042213580105454,39.076967187320406 39.730803860904416,39.14231816165557 39.60970008117147,39.05518351760111 39.65295143108233,38.72842777331971 39.72215359087568,38.41256264284311 39.782705480756704,38.10758825272205 39.86055791054969,37.74815268605016 39.947060610342305,37.388715535373194 39.99031196022406,37.08373731678148 40.042213580105454,36.778757957778 40.076814660045784,36.495561817573616 40.11141573995701,36.26682575564337 40.059514120046515,36.13611914655485 40.1633173598384,36.03808905225014 40.3536232993647,35.92916658707691 40.44012599912821,35.78756716482894 40.29307140948367,35.67864436504169 40.27577086954261,35.52615220097505 40.29307140948367,35.362767423081095 40.42282545918715,35.35187509289972 40.59583085877239,35.384552079027344 40.76883625832852,35.362767423081095 40.889940038032364,35.39544440480677 41.054295167617965,35.340982761270425 41.24460110714426,35.308305757687776 41.27920218705549,35.07956636597373 41.32245353696635,34.643870511703426 41.36570488687721,34.25174225272349 41.40030596675933,33.96853733755415 41.40030596675933,33.71800909277954 41.417606506700395,33.543728120814194 41.443557316670194,33.34766158212733 41.32245353696635,33.238735523613286 41.12349732746952,33.21695029445982 40.93319138791412,33.184272439815686 40.751535718358355,33.086238797295664 40.509328158950666,33.05356089027191 40.223869249690324,32.988205036926956 39.88650872049038,32.93374178582599 39.6183503511711,32.85749317314912 39.27233955200063,32.79213716267259 38.94362929282943,32.704995733911346 38.736022813332966,32.5633907135707 38.56301741374773,32.58517611735442 38.26890823448775,32.5633907135707 37.94884824525798,32.552498009536066 37.672039605968166,32.5307125970794 37.343329346738756,32.50892717875831 37.04922016747878,32.45446360758069 36.74646071824827,32.44357088897232 36.46100180892972,32.42178544739727 36.452351538988296,32.4326781688942 36.391799649078166,32.61785421204695 36.32259748928482,32.81392250532372 36.27934613940306,33.02088297014416 36.253395329462364,33.24962813602906 36.22744451952167,33.44569491039147 36.17554289964028,33.652653771940095 36.08904019984766,33.81604197587876 35.985236960143084,33.99032236594212 35.924685070232954,34.17549487231736 35.87278345040977,34.32798956184706 35.78628075061715,34.52405374371301 35.708428320795065,34.687440201880236 35.62192562100245,34.88350351957342 35.53542292120983,35.068673997993756 35.43161968147615,35.15581290116097 35.353767251683166,35.44990601201425 35.24996401192038,35.74399806236761 35.12020996224601,36.027196812261536 34.97315537263057,36.36485557504784 34.8174505129864,36.68072863589623 34.67904619334149,36.98570836149156 34.54929214363801,37.25801072415197 34.41088782399311,37.55209625476709 34.26383323437767,37.85707272199943 34.1081283747335,38.151156092564634 33.98702459502965,38.42345456424664 33.900521895237034,38.608617005746055 33.839970005414216,38.70664401047543 33.77076784559176,38.782887154928176 33.68426514577004,38.94626508161309 33.66696460582898,39.21856089882931 33.519910016213544,39.50174758445064 33.38150569651043,39.74136631965666 33.295002996746916,39.95920092264714 33.295002996746916,40.07900970631454 33.49395920627285,40.14435987777688 33.805368925473886,40.14435987777688 34.13407918467419,40.18792662967462 34.4368386339047,40.2314933582893 34.77419916310464,40.275060063635465 35.111559692246374,40.318626745698566 35.405668871535454,40.373085065548366 35.699778050824534,40.40576004004106 35.87278345040977,40.38397672517749 35.95063588017365,40.17703494387388 36.00253750005504,39.970092637537164 35.985236960143084,39.828500230709324 36.08904019984766,39.85028369389329 36.18419316963991,39.99187606293708 36.17554289964028,40.28595173632493 36.09769046981819,40.65626774275006 36.02848830999574,41.01569049408863 35.95928615020239,41.36422013439733 35.89873426032136,41.723639766183624 35.81223156055785,42.093949245492695 35.75167967067682,42.409800119952706 35.699778050824534,42.6820843749083 35.62192562100245,42.976150349386444 35.66517697091331,43.30288907767681 35.50947211126913,43.58606158350449 35.37971806159476,43.85834191207687 35.301865631801775,44.130621331802104 35.23266347197932,44.435573202914384 35.22401320197969,44.68606852992525 35.31916617177194,44.89299887199013 35.37971806159476,45.15438381694548 35.293215361831244,45.50289577402873 35.22401320197969,45.894969946020865 35.13751050218707,46.27615136214445 35.076958612393355,46.64644017504179 35.03370726242429,47.00583653317881 35.02505699251196,47.33255912112509 35.016406722483225,47.65928040050494 35.02505699251196,47.99689101452532 34.99910618257127,48.35628142316273 34.99045591257163,48.68299860251864 34.96450510263094,49.031495485010964 34.947204562689876,49.336429035938636 34.895302942808485,49.66314229001728 34.84340132292709,50.01163498553069 34.756898623134475,50.34923586468358 34.7914997030457,50.65416449021723 34.76554889313411,51.002652952447534 34.704997003253084,51.34024973067426 34.55794241366675,51.688735262228874 34.384937014081515,51.928318201687944 34.13407918467419,52.15701035127131 33.87457108532544,52.36392174370121 33.658314335829346,52.570832611418155 33.40745650648023,52.788632957905065 33.28635272674728,52.97376279524906 33.1825494870136,53.11533238743141 33.05279543736833,53.278681611598586 32.940341927605914,53.47470024890936 32.8538392278424,53.77961719311861 32.698134368198225,54.106312654475914 32.52512896864209,54.422117023663304 32.35212356905686,54.72703042715875 32.23967005935265,54.955714731957414 32.23101978935301,55.22795711624349 32.35212356905686,55.36952279709658 32.395374918938614,55.619984553755785 32.27427113923477,55.89222472160327 32.3088722191751,56.03378924990102 32.25697059929371,55.94667264616146 32.1185662796488,56.08823708000273 31.91095980015234,56.39314425709745 31.72065386059694,56.65449235911365 31.49574684118852,56.88317126172478 31.322741441603284,57.15540721487196 31.253539281751728,57.40586348954821 31.106484692165395,57.67809769875021 30.994031182402978,57.808769796531124 30.76047389296582,57.786991128115915 30.526916603557765,57.786991128115915 30.24145769426832,57.72165508793114 29.93869824500871,57.72165508793114 29.653239335719263,57.73254443159385 29.497534476104192,57.7543231145828 29.38508096637088,57.7543231145828 29.32452907654806,57.91766305152123 29.18612475687405,58.135449125489686 29.116922597022494,58.37501313548273 29.073671247140737,58.636354889655195 28.926616657496197,58.88680661860417 28.9006658475555,59.006587608513655 28.796862607821822,59.115479264975875 28.563305318413768,59.33326214192493 28.364349108858733,59.54015533664642 28.347048568946775,59.73615893191163 28.42490099873976,59.87771679127036 28.49410315856221,59.99749632662133 28.528704238473438,60.22616586041113 28.5719555883843,60.46572373225354 28.563305318413768,60.46572373225354 28.390299918857636,60.40038983696286 28.208644249272766,60.66172510434262 28.061589659628225,60.93394845118746 27.897234530071728,61.140837587394344 27.741529670427553,61.4239481869663" stroke="#4DD2FF" stroke-dasharray="none" stroke-linecap="round" stroke-linejoin="round" stroke-width="0.5"><title>2017-12-17 14.0km</title><desc>9223370523376934807</desc></polyline><polyline fill="none" opacity="1" points="100.64375942439074,32.40000000000873 100.67058273369912,32.67004578362685 100.67058273369912,32.973846601482364 100.68399438838242,33.243891160862404 100.65717107907403,33.59832377063867 100.65717107907403,33.95275538803253 100.54987784166588,34.27343075801036 100.57670115097426,34.44220694233081 100.7242293524323,35.201696986478055 100.63034776970744,35.45485932192241 100.79128762579057,35.75865345605416 100.87175755383214,36.028692074352875 100.91199251788203,36.33248483129137 100.93881582724862,36.720663404106745 100.9522274818737,37.075086278884555 100.9924624459236,37.361999307817314 101.04610906465678,37.69954321513069 101.13999064732343,37.96957769288565 101.18022561137332,38.29024288710207 101.2338722301065,38.627784319236525 101.27410719415639,38.948447846094496 101.4752820142312,38.9822018542618 101.64963352505583,39.13409477981622 101.60939856100595,39.302864483281155 101.43504705023952,39.40412619741983 101.35457712219795,39.589772462903056 101.4484587048646,39.842926022509346 101.58257525169756,40.16358647127345 101.70328014378902,40.46736930499901 101.77033841714729,40.77115140971728 101.91786661854712,41.05805606150534 102.06539481994696,41.34496006302652 102.2397463307716,41.68249334997381 102.2263346760883,41.969395936321234 101.9715132372803,42.02002573698701 101.7301034530974,41.868136274206336 101.54234028758947,41.716246629235684 101.34116546751466,41.5981101126672 101.08634402864845,41.69936999073252 100.85834589914884,41.69936999073252 100.65717107907403,41.85125965598854 100.67058273369912,42.02002573698701 100.68399438838242,42.29005099865026 100.44258460431593,42.425063413436874 100.14752820134163,42.54319915828819 99.87929510785034,42.593828729513916 99.57082705036737,42.593828729513916 99.59765035967575,42.37443377477757 99.66470863309223,42.070655517454725 99.7585902158171,41.80062978786009 99.85247179854196,41.4630968158599 99.90611841721693,41.074932785501005 99.93294172658352,40.73739787856175 99.87929510785034,40.399862071615644 99.82564848917536,39.99481791521248 99.61106201435905,39.9104335528973 99.31600561150117,39.9104335528973 99.15506575535983,39.741664659406524 99.12824244605144,39.62352630009991 99.11483079136815,39.37037230175338 99.10141913668485,39.1509717603185 98.94047928060172,39.10034081208869 98.752716115152,39.06658683541173 98.57836460438557,39.08346382487798 98.53812964027748,39.2522335958929 98.55154129501898,39.53914169022755 98.56495294964407,39.859802908453275 98.57836460438557,40.16358647127345 98.60518791375216,40.46736930499901 98.60518791375216,40.804904931923375 98.60518791375216,41.12556294391106 98.60518791375216,41.41246679246251 98.61859956837725,41.749999899431714 98.60518791375216,42.070655517454725 98.61859956837725,42.35755722402246 98.63201122306054,42.610705248705926 98.64542287774384,42.8469762817258 98.63201122306054,43.04949395899894 98.61859956837725,43.31951702473452 98.59177625901066,43.57266312582942 98.57836460438557,43.7920560039056 98.55154129501898,43.977695834619226 98.53812964027748,44.21396431628091 98.4978946762858,44.4502323569759 98.51130633096909,44.65274746957584 98.51130633096909,44.939643324381905 98.51130633096909,45.2602908633271 98.51130633096909,45.597813711166964 98.4978946762858,45.918459583073854 98.51130633096909,46.222228607395664 98.5247179857106,46.54287289782951 98.5247179857106,46.829764469279326 98.53812964027748,47.16728313280328 98.53812964027748,47.42042153998045 98.53812964027748,47.72418696037494 98.51130633096909,47.92669683579879 98.51130633096909,48.17983372443996 98.48448302166071,48.41609436394356 98.53812964027748,48.70298169051239 98.57836460438557,48.97299269816722 98.61859956837725,49.259878762837616 98.65883453236893,49.59739094780525 98.71248115116032,49.96865331205481 98.79295107920188,50.32303909865732 98.90024431655183,50.643673003229196 98.9941258992767,50.896804459538544 99.11483079136815,51.23431228073605 99.20871237415122,51.521193221298745 99.34282892080955,51.757447625510395 99.39647553954273,51.892449944250984 99.50376877695089,52.12870365564595 99.61106201435905,52.364956926190644 99.65129697835073,52.5505841866252 99.67812028771732,52.73621117492439 99.81223683449207,52.87121245000162 99.93294172658352,53.00621358114586 100.04023496399168,53.174964792633546 100.14752820134163,53.343715779221384 100.26823309343308,53.56309172550391 100.37552633084124,53.765592261668644 100.56328949634917,53.91746745124692 100.7510526617989,54.17059236236673 100.92540417256532,54.42371676735638 101.08634402864845,54.6599657554907 101.247283884848,54.89621430286206 101.31434215820627,55.04808813621639 101.43504705023952,55.26746112947876 101.60939856100595,55.52058334171306 101.78375007177237,55.75683028313506 101.9715132372803,56.077450427314034 102.09221812931355,56.27994694217341 102.25315798539668,56.53306713026541 102.40068618691294,56.786186812329106 102.57503769767936,57.089929762951215 102.74938920844579,57.37679743611079 102.92374071927043,57.680538969900226 103.11150388472015,57.967405304996646 103.28585539542837,58.20364768120635 103.48703021556139,58.52426162958727 103.63455841701943,58.794251693296246 103.84914489183575,59.131738463343936 104.03690805728547,59.38485295056307 104.18443625874352,59.67171542446886 104.31855280546006,59.92482883231423 104.47949266154319,60.16106755647343 104.64043251768453,60.41417998612451 104.81478402845096,60.68416602007346 104.93548892054241,60.903529248782434 105.10984043130884,61.139766146967304 105.29760359675856,61.409750633873045 105.4585434528999,61.67973454509047 105.60607165429974,61.899096049091895 105.76701151038287,62.21970064059133 105.94136302120751,62.52343055749952 106.14253784134053,62.84403356825351 106.29006604274036,63.1140144214005 106.4778292082483,63.41774219315266 106.7058273377479,63.75521664068219 106.86676719377283,64.00832188609638 107.01429539523087,64.24455299205147 107.175235251314,64.51453085923276 107.36299841676373,64.81825527179171 107.52393827284686,65.13885247253347 107.71170143829659,65.45944886161305 107.85922963981284,65.74629757431103 108.00675784121267,66.03314563729509 108.11405107862083,66.31999305046338 108.24816762533737,66.67433307557076 108.31522589881206,66.96117903634149 108.34204920812044,67.11303839963512 108.22134431602899,67.26489758079697 108.1811093519791,67.34926371384063 108.27499093476217,67.26489758079697 108.4359307908453,67.33239049173426 108.50298906426178,67.55174220386834 108.59687064692844,67.80483986112813 108.7041638843948,68.10855638215435 108.82486877642805,68.44601832896296 108.9455736684613,68.78347937649232 109.06627856055275,69.12093952478608 109.14674848865252,69.3740340458753 109.22721841669409,69.6271280610963 109.36133496346883,69.93084021176037 109.46862820081878,70.20080595633772 109.57592143822694,70.47077112545958 109.65639136626851,70.72386294892931 109.69662633026019,70.9600815277372 109.79050791304326,71.23004507829319 109.89780115045141,71.53375338480691 110.00509438785957,71.83746096296818 110.09897597058443,72.14116781279154 110.1928575533093,72.41112884564791 110.27332748135086,72.66421679129417 110.39403237344231,72.96792165846273 110.50132561079226,73.22100849146955 110.62203050288372,73.54158442051266 110.72932374035008,73.84528718370711 110.86344028706662,74.14898921856366 110.95732186973328,74.38520140890614 111.03779179789126,74.57079639220319 111.13167338061612,74.8576244678552 111.27920158201596,75.06009095364425 111.30602489132434,75.17819625418633 111.31943654606584,75.36379007544019 111.26578992733266,75.58312787713658 111.09143841656623,75.53251149512653 110.9170869057998,75.29630144462863 110.74273539497517,75.04321875883033 110.52814892021706,74.7732633365813 110.28673913603416,74.46956279866572 110.00509438785957,74.18273384419444 109.72344963968499,73.92964893311728 109.48203985550208,73.69343589314667 109.24063007137738,73.44035000425356 109.02604359656107,73.18726360959408 108.78463381237816,72.96792165846273 108.55663568293676,72.74857932746818 108.26157928002067,72.44487393426243 108.00675784121267,72.20865812497505 107.79217136639636,71.98931447890936 107.48370330885518,71.70247990702046 107.22888187004719,71.4831353842892 106.93382546718931,71.31440856982954 106.63876906433143,71.17942695642705 106.29006604274036,71.09506337491621 105.94136302120751,71.04444519910612 105.61948330898304,70.97695426648716 105.29760359675856,70.89259055018192 105.01595884858398,70.84197229343408 104.68066748173442,70.7576084871398 104.34537611476844,70.7407357191405 104.02349640260218,70.67324462468969 103.66138172638603,70.57200791554351 103.4736185609363,70.52138953066606 103.28585539542837,70.47077112545958 103.09809222997865,70.43702551085153 102.89691740984563,70.40327988717763 102.68233093502931,70.38640707200102 102.4811561148963,70.3526614347793 102.30680460418807,70.30204296222655 102.11904143868014,70.26829730259487 101.90445496386383,70.23455163395556 101.68986848904751,70.15018742307439 101.54234028758947,70.11644172297383 101.27410719415639,70.01520456872822 100.93881582724862,69.86334868561244 100.60352446039906,69.7452384284552 100.21458647475811,69.61025514249923 99.9865883453167,69.55963637314562 99.66470863309223,69.45839877377148 99.34282892080955,69.35716109350324 98.98071424465161,69.2559233323118 98.61859956837725,69.18843144652783 98.26989654678619,69.05344756705745 98.0016634532949,68.96908256933966 97.59931381302886,68.88471751537872 97.31766906491248,68.73286027669383 96.96896604332142,68.61474896514846 96.78120287781348,68.54725673759822 96.4861464749556,68.44601832896296 96.16426676273113,68.34477983930265 95.84238705056487,68.15917573151819 95.5205073383404,67.95669821269985 95.19862762611592,67.75422037011595 94.93039453262463,67.48424940985569 94.71580805786652,67.19740463385824 94.5146332377335,66.87681264478306 94.46098661900032,66.69120638538152 94.36710503621725,66.50559985394648 94.20616518019233,66.25249959997018 94.11228359740926,66.08376581623452 93.96475539600942,65.8137912946695 93.81722719460959,65.52694273479574 93.62946402915986,65.18947300895525 93.46852417301852,64.83512882888317 93.29417266219389,64.44703644643596 93.09299784211908,64.04206921390141 92.91864633129444,63.67084811312088 92.73088316584472,63.35024719570356 92.59676661912818,63.01277166894579 92.42241510830354,62.64154755063646 92.24806359753711,62.23657454398926 92.04688877740409,61.831600242177956 91.84571395727107,61.44349865424738 91.67136244650465,61.03852181599359 91.47018762637163,60.68416602007346 91.2824244608637,60.29606091522146 91.10807295009727,59.92482883231423 90.93372143933084,59.553595660981955 90.7593699285062,59.19923570942774 90.63866503647296,58.84487476617505 90.46431352576474,58.57488481036853 90.34360863367328,58.27114542199706 90.24972705089021,57.950530832706136 90.12902215885697,57.613040914264275 90.03514057613211,57.24180096501368 89.95467064803233,56.85368530881533 89.88761237467406,56.46556846292515 89.84737741068238,56.12807458642055 89.793730791891,55.723080747105996 89.76690748258261,55.38558489146817 89.72667251859093,54.96371380685014 89.67302589979954,54.64309084242268 89.67302589979954,54.27184218511684 89.64620259049116,53.93434246108518 89.61937928118277,53.52934160466248 89.64620259049116,53.174964792633546 89.65961424517445,52.83746214474377 89.65961424517445,52.483083396131406 89.63279093580786,52.111828405133565 89.53890935314121,51.70682171889348 89.47185107972473,51.3524398055888 89.47185107972473,51.03180769601022 89.44502777035814,50.62679755479621 89.41820446099155,50.30616360747081 89.37796949699987,49.98552884817764 89.3109112236416,49.59739094780525 89.36455784225836,49.19237621786306 89.44502777035814,48.82111157721374 89.44502777035814,48.51734878870775 89.44502777035814,48.247336809305125 89.48526273440802,48.04482744682173 89.45843942504143,47.84231776036904 89.41820446099155,47.572304341272684 89.39138115162496,47.26853855641093 89.35114618769148,46.93102016283956 89.32432287832489,46.59350086943596 89.32432287832489,46.30660876254842 89.25726460490841,45.918459583073854 89.20361798617523,45.51343308357173 89.19020633155014,45.12528147219564 89.16338302224176,44.78775736452371 89.12314805813367,44.4671086287417 89.08291309414199,44.07895380935224 89.0426781301503,43.84268507566594 89.0426781301503,43.55578673481068 89.06950143945869,43.20138200435031 89.0560897847754,42.863852767201024 89.01585482072551,42.52632263007399 88.98903151135892,42.23942130594514 88.92197323805885,41.88501289021224 88.92197323805885,41.54748014322831 88.93538489268394,41.243699901460786 88.96220820205053,40.872411949312664 88.89514992857585,40.46736930499901 88.86832661926746,40.14670962576929 88.82809165533399,39.7754184561054 88.85491496464238,39.53914169022755 88.86832661926746,39.38724925072165 88.85491496464238,39.167848738565226 88.82809165533399,38.914693828846794 88.82809165533399,38.61090726903058 88.74762172723422,38.32399707080913 88.69397510855924,37.95270055490255 88.66715179919265,37.5982801374339" stroke="#4DD2FF" stroke-dasharray="none" stroke-linecap="round" stroke-linejoin="round" stroke-width="0.5"><title>2017-11-19 11.8km</title><desc>9223370525802103807</desc></polyline><polyline fill="none" opacity="0.5" points="180.241758241551,68.14232232706854 179.41098901093937,68.14232232706854 178.6395604396239,68.14232232706854 177.7494505494833,67.9312476424966 176.91868131840602,67.15730652958155 175.96923076896928,67.08694819983793 175.1978021976538,67.01658986211987 174.24835164821707,66.73515643290011 173.47692307666875,66.87587316322606 172.64615384605713,66.8055148019339 171.6967032966204,66.87587316322606 170.86593406577595,66.6647980560083 169.97582417586818,66.8055148019339 169.0263736259658,66.94623151648557 168.01758241723292,66.59443967143307 167.1868131866213,66.45372287859209 166.47472527436912,66.3130060544936 165.6439560437575,66.3130060544936 164.87252747244202,66.03157231258228 163.9824175820686,66.03157231258228 163.15164835145697,65.89085539442021 162.4395604392048,66.10193075973075 161.19340659328736,65.53906296257628 160.18461538432166,65.39834593510022 159.23516483488493,65.32798740972066 158.1670329668559,65.39834593510022 157.7516483515501,65.46870445285458 156.62417582399212,65.75013844505884 155.1999999997206,65.11691178637557 154.19120879098773,64.2726085887989 153.30109890084714,64.48368449369445 152.29230769188143,64.1318912798306 151.4021978022065,63.991173939197324 150.69010988995433,64.1318912798306 149.978021977935,63.92081525735557 149.2659340656828,63.63938045135001 148.37582417577505,63.709739164682105 147.60439560422674,64.06153261347208 146.2989010985475,63.63938045135001 145.586813186761,63.2172280078521 145.2307692305185,62.443281129642855 144.75604395591654,61.66933330491884 144.69670329638757,60.54358932498144 144.81538461521268,59.5585616993485 144.81538461521268,58.43281396414386 144.69670329638757,57.44778305303771 144.69670329638757,56.11095293535618 144.51868131826632,55.40735700208461 144.39999999990687,54.351961635402404 144.63736263709143,53.36692437180318 144.63736263709143,52.522605496807955 144.87472527450882,51.819005573692266 144.69670329638757,50.904324503964745 144.9934065931011,49.91928187350277 144.9340659340378,48.86387735349126 145.1120879119262,48.23063379630912 145.17142857122235,46.96414478129009 145.1120879119262,45.83837463957025 145.17142857122235,44.85332412272692 145.2307692305185,44.07935478375293 145.40879120863974,43.164662526221946 145.586813186761,42.17960784712341 145.40879120863974,41.194551634253 145.40879120863974,40.49093911476666 145.29010988981463,39.64660305873258 145.40879120863974,40.49093911476666 145.40879120863974,41.194551634253 145.586813186761,42.17960784712341 145.40879120863974,43.164662526221946 145.2307692305185,44.07935478375293 145.17142857122235,44.85332412272692 145.1120879119262,45.83837463957025 145.17142857122235,46.96414478129009 145.1120879119262,48.23063379630912 144.9340659340378,48.86387735349126 144.9934065931011,49.91928187350277 144.69670329638757,50.904324503964745 144.87472527450882,51.819005573692266 144.63736263709143,52.522605496807955 144.63736263709143,53.36692437180318 144.39999999990687,54.351961635402404 144.51868131826632,55.40735700208461 144.69670329638757,56.11095293535618 144.69670329638757,57.44778305303771 144.81538461521268,58.43281396414386 144.81538461521268,59.5585616993485 144.69670329638757,60.54358932498144 144.75604395591654,61.66933330491884 145.2307692305185,62.443281129642855 145.586813186761,63.2172280078521 146.2989010985475,63.63938045135001 147.60439560422674,64.06153261347208 148.37582417577505,63.709739164682105 149.2659340656828,63.63938045135001 149.978021977935,63.92081525735557 150.69010988995433,64.1318912798306 151.4021978022065,63.991173939197324 152.29230769188143,64.1318912798306 153.30109890084714,64.48368449369445 154.19120879098773,64.2726085887989 155.1999999997206,65.11691178637557 156.62417582399212,65.75013844505884 157.7516483515501,65.46870445285458 158.1670329668559,65.39834593510022 159.23516483488493,65.32798740972066 160.18461538432166,65.39834593510022 161.19340659328736,65.53906296257628 162.4395604392048,66.10193075973075 163.15164835145697,65.89085539442021 163.9824175820686,66.03157231258228 164.87252747244202,66.03157231258228 165.6439560437575,66.3130060544936 166.47472527436912,66.3130060544936 167.1868131866213,66.45372287859209 168.01758241723292,66.59443967143307 169.0263736259658,66.94623151648557 169.97582417586818,66.8055148019339 170.86593406577595,66.6647980560083 171.6967032966204,66.87587316322606 172.64615384605713,66.8055148019339 173.47692307666875,66.87587316322606 174.24835164821707,66.73515643290011 175.1978021976538,67.01658986211987 175.96923076896928,67.08694819983793 176.91868131840602,67.15730652958155 177.7494505494833,67.9312476424966 178.6395604396239,68.14232232706854 179.41098901093937,68.14232232706854 180.241758241551,68.14232232706854 181.0131868130993,68.2830387444119 182.08131868112832,68.35339694126742 183.03076923056506,68.2830387444119 183.9802197800018,68.2830387444119 184.9890109889675,68.14232232706854 185.76043956028298,68.35339694126742 186.47252747230232,68.2830387444119 187.5999999998603,68.07196410658071" stroke="#4DD2FF" stroke-dasharray="1,0.5" stroke-linecap="round" stroke-linejoin="round" stroke-width="0.5"><title>2014-03-22 10.5km</title><desc>9223370641410674807</desc></polyline><polyline fill="none" opacity="1" points="55.59999999997672,100.39610375701886 55.46179159049643,100.4081183080998 55.32358318095794,100.34804553824506 55.17550274223322,100.31200185883063 55.04716636193916,100.39610375701886 54.94844606949482,100.39610375701886 54.82010968920076,100.38408920451911 54.672029250476044,100.38408920451911 54.53382084093755,100.36006009513221 54.435100548435,100.2759581663704 54.32650822668802,100.2759581663704 54.21791590494104,100.2759581663704 54.06983546615811,100.31200185883063 53.931627056677826,100.31200185883063 53.803290676441975,100.31200185883063 53.67495429614792,100.29998729614454 53.52687385736499,100.2759581663704 53.39853747718735,100.28797273201053 53.260329067648854,100.29998729614454 53.11224862886593,100.28797273201053 52.99378427787451,100.29998729614454 52.88519195612753,100.29998729614454 52.7371115173446,100.31200185883063 52.62851919559762,100.29998729614454 52.50018281536177,100.26394359931874 52.37184643506771,100.23991446078435 52.24351005483186,100.26394359931874 52.11517367459601,100.28797273201053 52.01645338209346,100.28797273201053 51.8585009140661,100.25192903079005 51.74003656307468,100.23991446078435 51.6314442413277,100.23991446078435 51.51297989033628,100.22789988937438 51.364899451553356,100.23991446078435 51.21681901277043,100.23991446078435 51.09835466183722,100.26394359931874 50.96014625229873,100.22789988937438 50.85155393049354,100.22789988937438 50.71334552101325,100.22789988937438 50.594881170021836,100.21588531650923 50.44680073129712,100.19185616636241 50.31846435100306,100.16782701041666 50.15063985373126,100.19185616636241 50.002559415006544,100.19185616636241 49.86435100546805,100.21588531650923 49.7063985374989,100.20387074217433 49.587934186449274,100.20387074217433 49.47934186470229,100.19185616636241 49.35100548446644,100.21588531650923 49.232541133475024,100.20387074217433 49.104204753180966,100.19185616636241 48.96599634370068,100.20387074217433 48.8574040219537,100.20387074217433 48.719195612415206,100.20387074217433 48.590859232179355,100.23991446078435 48.47239488118794,100.22789988937438 48.353930530138314,100.23991446078435 48.21572212065803,100.22789988937438 48.077513711177744,100.22789988937438 47.95904936012812,100.22789988937438 47.820840950647835,100.22789988937438 47.71224862890085,100.22789988937438 47.59378427785123,100.22789988937438 47.47531992685981,100.22789988937438 47.32723948813509,100.20387074217433 47.19890310784103,100.16782701041666 47.07056672760518,100.19185616636241 46.93235831806669,100.17984158913168 46.78427787934197,100.16782701041666 46.65594149910612,100.17984158913168 46.52760511881206,100.17984158913168 46.39926873857621,100.21588531650923 46.27093235834036,100.20387074217433 46.13272394880187,100.19185616636241 45.99451553932158,100.17984158913168 45.866179159027524,100.17984158913168 45.73784277879167,100.15581243023189 45.57989031082252,100.16782701041666 45.47129798901733,100.14379784864286 45.3232175502344,100.15581243023189 45.175137111509684,100.15581243023189 45.046800731273834,100.17984158913168 44.89872029249091,100.14379784864286 44.75063985376619,100.1077540950937 44.60255941498326,100.1077540950937 44.46435100544477,100.08372491877526 44.336014625267126,100.07171032841143 44.19780621572863,100.08372491877526 44.099085923226085,100.08372491877526 43.96087751368759,100.1077540950937 43.842413162696175,100.14379784864286 43.72394881170476,100.16782701041666 43.57586837298004,100.16782701041666 43.44753199268598,100.16782701041666 43.31919561245013,100.14379784864286 43.200731261400506,100.14379784864286 43.09213893965352,100.16782701041666 42.93418647162616,100.15581243023189 42.81572212069295,100.14379784864286 42.687385740398895,100.16782701041666 42.559049360163044,100.14379784864286 42.430712979868986,100.11976868108468 42.28263254114427,100.11976868108468 42.16416819015285,100.1077540950937 42.045703839103226,100.09573950764025 41.88775137113407,100.05969573662878 41.759414990840014,100.1077540950937 41.60146252287086,100.08372491877526 41.4731261425768,100.07171032841143 41.354661791585386,100.08372491877526 41.20658135286067,100.08372491877526 41.068372943322174,100.07171032841143 40.94003656308632,100.07171032841143 40.78208409505896,100.08372491877526 40.67349177331198,100.09573950764025 40.52541133452905,100.11976868108468 40.41681901278207,100.04768114339095 40.268738573999144,100.04768114339095 40.15027422300773,100.04768114339095 40.01206581352744,100.03566654866881 39.87385740404716,100.04768114339095 39.75539305299753,100.07171032841143 39.61718464351725,100.03566654866881 39.48884826322319,100.04768114339095 39.350639853742905,100.02365195253515 39.21243144426262,100.02365195253515 39.093967093212996,100.01163735493174 38.98537477146601,99.9635789499298 38.85703839123016,99.9635789499298 38.728702010936104,99.97559355335397 38.580621572211385,99.9996227558513 38.452285191975534,99.98760815530841 38.33382084092591,100.03566654866881 38.20548446069006,100.03566654866881 38.0475319926627,100.03566654866881 37.91919561242685,100.04768114339095 37.790859232190996,100.01163735493174 37.67239488119958,100.01163735493174 37.56380255939439,100.02365195253515 37.4255941498559,100.01163735493174 37.27751371113118,100.02365195253515 37.14917733089533,99.98760815530841 36.991224862926174,99.97559355335397 36.89250457036542,99.98760815530841 36.75429616088513,99.98760815530841 36.45813528337749,99.9996227558513 36.171846435114276,99.97559355335397 36.00402193784248,99.91552052163024 35.61901279713493,100.02365195253515 35.293235831777565,99.9996227558513 35.05630712979473,99.92753513088974 34.83912248624256,99.92753513088974 34.58244972577086,99.87947668520064 34.394881170010194,99.89149129879661 34.10859232174698,99.89149129879661 33.84204753203085,100.02365195253515 33.58537477150094,99.95156434504315 33.27934186474886,100.09573950764025 29.498354661802296,99.87947668520064 29.251553930575028,99.79537434917438 29.02449725777842,99.84343283560884 28.68884826329304,99.87947668520064 28.41243144427426,99.79537434917438 28.09652650821954,99.74731583942048 27.859597806236707,99.71127194186556 24.641316270572133,99.74731583942048 24.355027422308922,99.72328657586331 24.029250457067974,99.69925730641262 23.792321755026933,99.73530120836949 23.565265082288533,99.66321339140995 23.249360146233812,99.62716946330329 22.953199268784374,99.67522803118482 22.666910420521162,99.66321339140995 20.1890310785966,99.63918410743645 19.823765996377915,99.66321339140995 19.626325411372818,99.66321339140995 19.438756855553947,99.65119875016535 19.36965265084291,99.63918410743645 19.19195612432668,99.5911255220708 18.98464351001894,99.63918410743645 18.767458866524976,99.62716946330329 18.579890310764313,99.55508156781434 18.352833638025913,99.54306691346574 18.106032906798646,99.54306691346574 17.849360146268737,99.61515481770039 17.750639853766188,99.49500828153396 16.605484460655134,99.60314017061319 16.358683729427867,99.55508156781434 16.16124314442277,99.55508156781434 15.865082266915124,99.54306691346574 15.588665447896346,99.56709622068593 15.331992687366437,99.56709622068593 15.045703839103226,99.57911087210232 14.798903107875958,99.5070229416815 14.552102376590483,99.54306691346574 14.325045703852084,99.5070229416815 13.999268738611136,99.51903760041023 13.811700182850473,99.47097895685874 13.456307129818015,99.53105225764011 13.110786106029991,99.48299361994577 12.992321755038574,99.55508156781434 13.051553930563387,99.8194035952838 13.041681901318952,99.98760815530841 13.081170018296689,100.26394359931874 12.923217550269328,100.34804553824506 12.863985374802724,100.14379784864286 12.775137111544609,99.98760815530841 12.607312614272814,100.04768114339095 12.478976234036963,100.28797273201053 12.400000000023283,100.42013285773282 12.429616087814793,100.73251063706994 12.478976234036963,101.02085848376737 12.538208409561776,101.29719105065305 12.59744058502838,101.59755166371178 12.64680073125055,101.8858969970388 12.715904936019797,102.10215544723178 12.735648994566873,102.30639910635364 12.755393052997533,102.53467093387735 12.785009140789043,102.83502780175331 12.834369287011214,103.07531264151476 12.844241316313855,103.33962529332348 12.834369287011214,103.62796556528338 12.893601462536026,103.90429087310622 12.863985374802724,104.19262950451957 12.923217550269328,104.45693918073084" stroke="#4DD2FF" stroke-dasharray="none" stroke-linecap="round" stroke-linejoin="round" stroke-width="0.5"><title>2013-12-10 10.9km</title><desc>9223370650177580807</desc></polyline><polyline fill="none" opacity="1" points="88.96189028024673,106.37847101641819 88.2420135596767,109.29738287813962 88.2420135596767,113.09196302411146 88.2420135596767,116.01086677075364 89.4418080933392,118.34598722797818 91.84139716345817,121.84866367932409 94.72090404573828,123.01622136775404 98.56024655792862,123.60000000009313 102.15963016077876,122.43244259478524 104.07930141687393,119.80543636670336 106.71884939447045,117.47031732159667 108.39856174215674,113.38385355728678 108.39856174215674,110.17305574938655 109.59835627768189,106.08657963620499 110.07827409170568,102.87577212415636 110.79815081227571,99.08117592497729 111.7579864403233,94.70278828428127 111.7579864403233,92.07575188926421 111.51802753377706,87.69735154649243 110.31823299825191,84.19462555623613 108.87847955618054,81.85947207268327 105.51905485894531,80.98378893476911 103.11946578975767,80.4000000001397 99.28012327849865,80.6918944849167 96.16065748780966,82.44326065597124 93.04119169805199,85.36220145085827 90.64160262793303,88.57303225062788 90.40164372138679,92.36764496355318 89.92172590643167,95.87035909830593 89.4418080933392,99.37306815129705 88.72193137276918,102.58388032088988 88.72193137276918,106.37847101641819 88.2420135596767,110.17305574938655 88.72193137276918,113.96763451839797 89.20184918586165,117.47031732159667" stroke="#4DD2FF" stroke-dasharray="none" stroke-linecap="round" stroke-linejoin="round" stroke-width="0.5"><title>2013-11-30 10.3km</title><desc>9223370651086224807</desc></polyline><polyline fill="none" opacity="1" points="154.01122288312763,109.8421271899715 155.36844293400645,112.31855043233372 155.36844293400645,116.17075901036151 156.0470529589802,118.37201812700368 156.9518663259223,119.47264688764699 158.9876964027062,122.22421646025032 162.38074653036892,122.22421646025032 166.22620334196836,123.60000000009313 167.13101670891047,121.6739028126467 170.75027017854154,119.74780399515294 174.36952364630997,115.89560147118755 175.27433701511472,114.51981327589601 177.08396374899894,112.04339242749847 176.40535372309387,106.8153840135783 175.72674369812012,105.71474913298152 175.95294704008847,101.86252286075614 177.3101670909673,96.90965093066916 177.3101670909673,95.80901126144454 175.72674369812012,92.78224942437373 177.98877711594105,90.30580492829904 176.40535372309387,89.20516206463799 174.8219303302467,86.72871367656626 172.78610025532544,83.7019397658296 170.97647351957858,83.15161680453457 168.03583007585257,80.4000000001397 163.5117632392794,82.6012937091291 160.34491645358503,85.90323028201237 157.40427300985903,88.93000126630068 156.27325630001724,90.85612616012804 156.0470529589802,95.25869122636504 157.63047635182738,99.38608824228868 155.82084961701185,102.96315960329957 154.91603624913841,105.43959032977 155.5946462750435,107.64085982413962 154.68983290810138,110.6676019039005 154.91603624913841,113.69433995871805 154.91603624913841,117.27138883504085 156.9518663259223,118.64717536675744 159.66630642861128,120.57327511627227 163.059356556274,121.94905965286307 165.99999999906868,122.77452997583896 169.16684678476304,122.22421646025032 171.88128688652068,120.02296106843278 174.36952364630997,117.27138883504085 175.95294704008847,113.41918211965822 176.1791503811255,110.3924436995294 176.40535372309387,107.36570125445724 176.40535372309387,104.06379581429064 175.72674369812012,100.76188558526337 176.40535372309387,97.45997056690976 176.63155706599355,94.70837105903774 177.53637043200433,91.40644725854509 177.08396374899894,88.37967956834473 175.72674369812012,85.62806908367202 173.91711696330458,83.7019397658296 171.88128688652068,82.87645527347922 168.71444010175765,82.05097048147582 165.99999999906868,82.05097048147582 162.83315321337432,83.7019397658296 161.0235264794901,84.25226259441115 158.9876964027062,86.45355257811025 157.40427300985903,88.37967956834473 157.17806966789067,91.40644725854509 156.27325630001724,95.25869122636504 156.72566298395395,98.28544977051206 156.0470529589802,102.13768209633417 156.0470529589802,104.06379581429064 155.5946462750435,108.46633533574641 154.23742622416466,112.31855043233372 154.68983290810138,116.17075901036151 156.0470529589802,118.09686085442081 159.8925097696483,119.19748974777758 163.059356556274,121.3987459379714 166.22620334196836,121.3987459379714 169.61925346869975,119.74780399515294 171.88128688652068,118.09686085442081 173.69091362133622,115.07012865296565 175.27433701511472,111.21791821252555 175.04813367221504,107.64085982413962 175.72674369812012,104.33895478351042 175.72674369812012,100.76188558526337 176.40535372309387,97.45997056690976 176.63155706599355,93.6077303243801 177.762573774904,89.48032283014618 176.63155706599355,87.55419677193277 174.59572698920965,85.62806908367202" stroke="#4DD2FF" stroke-dasharray="none" stroke-linecap="round" stroke-linejoin="round" stroke-width="0.5"><title>2013-11-16 10.4km</title><desc>9223370652294258807</desc></polyline><polyline fill="none" opacity="1" points="22.810680591501296,150.88776637450792 22.324188444763422,154.43844744330272 22.567434517666698,160.06034860108048 22.0809423699975,163.6110163643025 23.053926666267216,166.5699022328481 24.51340311113745,168.64112021238543 28.648586370050907,170.71233643963933 33.51350785139948,171.60000000009313 37.89193718507886,171.30411218269728 38.86492148041725,169.52878452418372 41.5406282953918,167.1616789775435 41.78387437015772,163.01923876185901 41.78387437015772,160.35623777890578 42.75685866642743,155.32611690624617 44.70282725896686,150.29598569567315 44.94607333280146,146.1535169382114 45.43256548047066,142.89871513913386 45.18931940663606,138.75623386260122 45.43256548047066,135.7973143735435 44.21633510943502,132.5424988034647 40.081151850521564,129.879464663798 36.43246074113995,128.99178597261198 32.78376962989569,128.99178597261198 28.891832443885505,130.4712502779439 26.21612562984228,132.24660626379773 24.999895258806646,136.38909855671227 23.297172740101814,141.12336687929928 23.297172740101814,144.08227993012406 23.053926666267216,146.74529861821793 22.324188444763422,150.88776637450792 22.567434517666698,154.73433729959652 22.324188444763422,157.69323389837518 22.567434517666698,162.72334990650415 23.540418813936412,165.09045974630862 25.972879556007683,167.1616789775435 30.594554962590337,171.00822432967834 34.486492147669196,171.00822432967834 38.135183257982135,169.82467255694792 40.324397925287485,168.64112021238543 43.00010474026203,165.38634831481613 43.729842961765826,162.72334990650415 43.48659688793123,158.58090218016878 43.973089036531746,153.8466676226817 44.94607333280146,150.88776637450792 45.675811554305255,147.33708015549928 45.675811554305255,143.7863887862768 45.919057629071176,139.64390901243314 45.43256548047066,135.7973143735435 43.24335081502795,132.5424988034647 40.567644000053406,130.4712502779439 36.43246074113995,128.4000000001397 32.78376962989569,128.99178597261198 29.378324592486024,130.4712502779439 26.21612562984228,131.95071368920617 23.540418813936412,134.90963782859035 22.810680591501296,140.23569226590917 23.053926666267216,143.7863887862768 22.567434517666698,147.33708015549928 24.02691096253693,150.88776637450792 22.324188444763422,156.50967568787746 21.594450222328305,160.35623777890578 22.324188444763422,164.2027938242536 22.567434517666698,166.27401380729862 26.21612562984228,168.64112021238543 29.135078517720103,170.12056055432186 33.99999999906868,170.71233643963933 37.40544503647834,170.12056055432186 40.567644000053406,168.64112021238543 42.75685866642743,165.68223684746772 43.48659688793123,162.13157208892517 44.45958118420094,158.58090218016878 44.94607333280146,155.0302271207329 45.18931940663606,151.77543712500483 45.675811554305255,148.81653337273747 45.919057629071176,145.26584414974786 46.40554977674037,139.3480173314456 45.919057629071176,135.7973143735435 44.21633510943502,133.13428377383389 41.0541361477226,130.4712502779439 38.378429332748055,129.2876789055299 33.51350785139948,128.69589300476946 30.594554962590337,129.58357180282474 27.91884814761579,130.76714303181507 25.486387406475842,133.13428377383389 24.51340311113745,134.31785328662954 23.783664888702333,135.7973143735435 24.999895258806646,139.3480173314456 24.756649184972048,140.82747537712567" stroke="#4DD2FF" stroke-dasharray="none" stroke-linecap="round" stroke-linejoin="round" stroke-width="0.5"><title>2013-11-03 10.7km</title><desc>9223370653417861807</desc></polyline><polyline fill="none" opacity="1" points="109.35200072731823,129.84001261997037 106.98440560605377,129.2640076763928 103.90653194859624,130.41601742454804 100.35513926763088,130.12801503995433 97.51402512192726,130.41601742454804 94.67291097715497,132.14403100241907 92.77883488032967,135.3120526385028 91.35827780794352,138.1920686531812 91.59503732062876,143.37608870584518 90.88475878350437,145.96809450211003 90.1744802473113,149.712097896263 89.46420171111822,153.4560954067856 88.51716366223991,155.7600909504108 88.28040415141732,159.2160800890997 88.28040415141732,162.96006266516633 89.70096122287214,167.28003524802625 92.77883488032967,169.5840174248442 97.27726561017334,171.31200259411708 100.59189877938479,171.60000000009313 104.3800509730354,170.16001262003556 107.69468414224684,167.28003524802625 108.16820316575468,162.6720642137807 110.29903877526522,158.06408426584676 110.53579828795046,154.60809345706366 110.53579828795046,151.44009747868404 110.77255779877305,147.1200961722061 111.00931731145829,142.80008703446947 112.19311487209052,139.0560727783013 112.42987438477576,135.3120526385028 110.29903877526522,132.7200352489017 108.87848170287907,130.41601742454804 105.80060804635286,128.9760051521007 102.01245585177094,128.4000000001397 98.22430365905166,129.2640076763928 94.90967048984021,129.84001261997037 89.70096122287214,133.8720433257986 88.99068268761039,135.0240508459974 88.99068268761039,136.46405946207233 90.1744802473113,139.63207535468973 89.93772073462605,143.66408948926255 88.51716366223991,147.69609680003487 88.51716366223991,150.57609784416854 87.57012561522424,154.32009399705566 87.57012561522424,157.48808614653535 87.80688512697816,160.65607408294454 87.57012561522424,163.5360594613012 89.22744219843298,166.7040393569041 91.35827780794352,169.00802208902314 94.19939195271581,169.87201503990218 97.9875441454351,169.5840174248442 102.01245585177094,168.72002436965704 106.51088658254594,166.99203731981106" stroke="#4DD2FF" stroke-dasharray="none" stroke-linecap="round" stroke-linejoin="round" stroke-width="0.5"><title>2013-11-02 10.5km</title><desc>9223370653505000807</desc></polyline><polyline fill="none" opacity="1" points="156.45562293939292,142.98009340977296 156.67758519575,145.68010026379488 156.23366068210453,149.19010429433547 156.01169842481613,151.35010403278284 156.01169842481613,152.97010246641003 155.56777391023934,155.67009724397212 155.12384939659387,158.6400877290871 156.23366068210453,162.15007139416412 157.5654342258349,164.85005507571623 160.67290582694113,167.0100396713242 164.22430194169283,168.3600289823953 167.7756980592385,168.3600289823953 169.77335837297142,167.82003335561603 172.65886771772057,165.66004954348318 174.6565280323848,162.96006684168242 175.54437706060708,159.18008557590656 175.54437706060708,155.94009654247202 175.7663393188268,152.70010280935094 175.54437706060708,149.46010437584482 175.54437706060708,146.49010168295354 176.43222609069198,142.98009340977296 176.87615060433745,140.01008210144937 176.43222609069198,137.31006839242764 175.32241480425,134.34004954481497 173.99064126145095,132.72003759886138 170.4392451448366,130.56001984444447 167.7756980592385,128.4000000001397 165.3341132281348,129.48001018329524 162.0046793706715,130.8300221778918 159.78505679685622,132.45003549358808 158.67524551134557,135.69005860155448 158.2313209977001,138.12007284793071 157.7873964831233,141.63008875912055 156.45562293939292,144.33009724435396 156.01169842481613,146.76010209089145 156.23366068210453,150.81010429398157 157.7873964831233,154.32010026299395 154.90188713837415,155.13009854895063 155.12384939659387,156.21009580790997 154.45796262472868,157.56009164638817 154.90188713837415,163.23006525845267 160.22898131329566,166.20004569296725 165.77803774364293,167.55003549298272 167.1098112873733,167.55003549298272 169.10747160110623,167.55003549298272 171.77101868763566,168.3600289823953 173.99064126145095,164.0400603134185 174.6565280323848,162.96006684168242 174.8784902896732,160.5300796192605 175.54437706060708,159.18008557590656 173.54671674594283,158.91008666879497 174.8784902896732,158.10008975397795 176.2102638334036,155.94009654247202 175.9883015761152,150.81010429398157 176.2102638334036,149.46010437584482 175.7663393188268,146.2201012421865 176.2102638334036,142.1700907170307 175.7663393188268,136.7700652598869 175.32241480425,133.26004171161912 173.54671674594283,129.75001264712773 169.55139611661434,129.48001018329524 165.77803774364293,129.21000768686645 162.6705661425367,130.56001984444447 159.78505679685622,132.72003759886138 156.67758519575,133.26004171161912 156.45562293939292,137.58006991050206 156.23366068210453,140.55008445074782 156.01169842481613,144.0600965428166 154.90188713837415,147.57010311936028 155.34581165295094,151.62010385282338 155.12384939659387,155.13009854895063 154.90188713837415,159.18008557590656 154.90188713837415,161.61007426702417 158.45328325405717,165.66004954348318 164.00233968626708,168.63002674723975 166.44392451550812,169.98001507879235 169.32943385839462,171.60000000009313 173.32475448958576,167.82003335561603 175.1004525469616,162.69006839231588 175.54437706060708,159.7200832911767 175.54437706060708,158.6400877290871 175.1004525469616,153.24010209064 174.8784902896732,148.92010417976417 175.32241480425,146.2201012421865 175.54437706060708,142.98009340977296 177.09811286255717,138.93007700890303 175.7663393188268,135.96006031497382 174.43456577509642,134.34004954481497 172.88082997407764,130.8300221778918 170.21728288847953,130.02001507859677 166.0,129.75001264712773 162.0046793706715,130.56001984444447 159.78505679685622,130.8300221778918 156.89954745396972,132.72003759886138 154.90188713837415,135.69005860155448 154.67992488108575,138.39007426798344 155.34581165295094,139.7400808769744 154.23600036650896,142.71009254432283 154.67992488108575,145.95010076928884 154.90188713837415,147.57010311936028 154.45796262472868,150.27010442432947 154.90188713837415,153.78010124200955 154.67992488108575,157.02009340864606 154.90188713837415,161.34007565444335 157.5654342258349,166.20004569296725 161.7827171124518,168.63002674723975 163.11449065618217,168.3600289823953 166.0,169.98001507879235 167.99766031466424,169.1700221770443 171.1051319167018,171.33000259427354 173.32475448958576,168.63002674723975 174.8784902896732,162.42006990942173 173.99064126145095,158.37008875748143 175.1004525469616,151.35010403278284 174.8784902896732,147.0301024664659 174.8784902896732,145.68010026379488 176.43222609069198,142.98009340977296 177.76399963349104,140.82008557626978 177.09811286255717,136.7700652598869 175.32241480425,132.1800333559513 173.10279223136604,129.75001264712773 169.9953206302598,128.6700025945902 166.0,128.94000515691005 161.1168303405866,130.56001984444447 157.1215097112581,132.1800333559513 156.67758519575,133.53004371840507 155.56777391023934,134.61005142168142 155.78973616752774,137.04006684245542 156.01169842481613,138.6600756549742 156.23366068210453,142.1700907170307 156.23366068210453,143.5200950417202 156.23366068210453,147.84010339644738 156.01169842481613,149.19010429433547 155.12384939659387,151.62010385282338 155.78973616752774,155.13009854895063 154.90188713837415,156.21009580790997 155.12384939659387,161.07007700833492 156.23366068210453,162.15007139416412 156.23366068210453,163.50006364332512 158.45328325405717,165.66004954348318 162.6705661425367,168.63002674723975 167.1098112873733,170.52001018356532 170.4392451448366,169.710017477395 171.99298094585538,168.09003118495457 175.32241480425,163.77006199466996 174.8784902896732,159.18008557590656 174.43456577509642,152.97010246641003 176.2102638334036,152.1601033960469 176.65418834704906,147.3001028096769 176.87615060433745,146.49010168295354 175.9883015761152,142.71009254432283 176.87615060433745,138.93007700890303" stroke="#4DD2FF" stroke-dasharray="none" stroke-linecap="round" stroke-linejoin="round" stroke-width="0.5"><title>2013-10-26 11.1km</title><desc>9223370654110301807</desc></polyline><polyline fill="none" opacity="1" points="33.41588936187327,178.10527820512652 29.443937020376325,180.66319319489412 27.341138722375035,181.51583090610802 24.771051913499832,184.3579543782398 22.901897870004177,187.76849800907075 24.30376340262592,190.32640248560347 25.004696168005466,193.1685153071303 25.004696168005466,196.86325683817267 24.07011914718896,199.9895720607601 23.602830636315048,203.68430287321098 23.36918638087809,206.81060902611353 24.30376340262592,208.23165590292774 23.602830636315048,212.77900013769977 25.705628934316337,215.62108581862412 28.042071488685906,217.89475188939832 30.845802552998066,218.46316806343384 34.11682212725282,217.89475188939832 38.08877446874976,216.18950254260562 41.359794043935835,213.91583482245915 42.29437106475234,209.93691102182493 42.06072680931538,206.52639954793267 42.52801532112062,202.26325324806385 42.52801532112062,198.85273064253852 42.52801532112062,195.1579922370147 43.92988085281104,191.4632480267901 45.565390639938414,189.18955639493652 46.49996766168624,186.63165068160743 46.26632340531796,184.07374218595214 43.92988085281104,181.23161837016232 40.8925055321306,179.81055517448112 37.855130213312805,177.25263925665058 34.58411063905805,176.4000000001397 31.0794468075037,177.82106525660492 28.27571574319154,180.09476788225584 25.705628934316337,182.6526807071641 25.238340424373746,185.77901482582092 25.238340424373746,189.4737679695245 24.771051913499832,192.60009301709943 24.30376340262592,196.86325683817267 21.50003233831376,199.9895720607601 21.967320849187672,203.68430287321098 21.733676593750715,207.94744659680873 22.200965103693306,211.07374708005227 22.200965103693306,213.91583482245915 24.30376340262592,216.75791912851855 27.341138722375035,219.0315841003321 30.61215829756111,219.60000000009313 34.58411063905805,219.0315841003321 37.154197447001934,217.610543750925 40.8925055321306,215.90529419737868 41.82708255480975,213.6316262029577 43.462592341937125,210.22112008789554 43.92988085281104,206.81060902611353 43.92988085281104,203.1158831268549 44.39716936368495,199.70536175812595 45.0981021290645,195.4422030900605 45.33174638450146,192.0316705906298 45.79903489537537,189.18955639493652 45.565390639938414,185.49480280443095 44.63081361912191,181.80004340759479 42.52801532112062,179.24212965508923 39.4906400013715,178.10527820512652 35.98597617074847,177.53685227409005 32.48131234012544,177.53685227409005 29.21029276587069,178.95791684417054 25.705628934316337,181.23161837016232 24.30376340262592,184.07374218595214 25.004696168005466,188.33692146651447 23.602830636315048,191.74745932617225 23.36918638087809,194.58957042940892 23.36918638087809,198.28430972713977 21.733676593750715,201.69483315735124 22.200965103693306,206.52639954793267 21.967320849187672,209.3684927856084 23.36918638087809,212.21058258996345 24.30376340262592,215.90529419737868 25.238340424373746,217.610543750925 30.845802552998066,219.0315841003321 34.81775489356369,218.46316806343384 37.38784170243889,216.18950254260562 41.59343829844147,212.77900013769977 43.22894808650017,211.9263737637084 43.92988085281104,209.08428361662664 43.462592341937125,205.95798048726283 43.462592341937125,202.26325324806385 43.462592341937125,199.13694104878232 43.92988085281104,195.72641390911303 45.33174638450146,192.31588182109408 45.565390639938414,189.18955639493652 45.565390639938414,186.34743876405992 45.565390639938414,183.78952995873988 43.22894808650017,181.23161837016232 41.359794043935835,178.10527820512652 37.855130213312805,176.96842620545067 33.6495336163789,178.10527820512652 29.67758127581328,180.09476788225584 27.341138722375035,183.22110540163703 25.238340424373746,186.34743876405992 23.836474891752005,188.33692146651447" stroke="#4DD2FF" stroke-dasharray="none" stroke-linecap="round" stroke-linejoin="round" stroke-width="0.5"><title>2013-10-20 10.7km</title><desc>9223370654628121807</desc></polyline><polyline fill="none" opacity="1" points="111.0138180712238,208.1165362072643 111.46336166653782,205.1089527234435 111.91290526092052,201.00769607233815 112.58722065296024,198.00010313512757 113.03676424827427,195.265924267238 113.26153604499996,192.53174209501594 112.81199244968593,188.7038815007545 112.58722065296024,185.96969139552675 110.33950267918408,182.68865890684538 108.76610009744763,179.4076216588728 105.84406673163176,177.49368106550537 102.69726156815886,176.4000000001397 99.77522820234299,176.4000000001397 96.1788794444874,177.2202608489897 92.80730248428881,179.4076216588728 90.33481271192431,182.68865890684538 89.43572552409023,185.69627220346592 89.43572552409023,188.7038815007545 88.76141013111919,191.98490526387468 88.53663833346218,196.08617827505805 87.41277934703976,199.3671913293656 87.86232294142246,202.3747824486345 86.73846395500004,206.20261990721337 89.2109537255019,208.6633691387251 90.11004091612995,211.9443639498204 91.90821529459208,215.49876962439157 94.15593326836824,217.41267805802636 97.75228202715516,218.77975451922975 101.57340258173645,219.60000000009313 104.49543594755232,217.95950874243863 106.96792571805418,215.22535400115885 108.99087189510465,212.76461190870032 110.56427447684109,209.75703460443765 110.33950267918408,207.5697031437885 111.0138180712238,204.56211893237196 111.23858986981213,201.5545307220891 111.46336166653782,198.54693851224147 112.13767705764621,196.08617827505805 112.58722065296024,191.71148679824546 112.58722065296024,188.43046263884753 111.23858986981213,182.96207846258767" stroke="#4DD2FF" stroke-dasharray="none" stroke-linecap="round" stroke-linejoin="round" stroke-width="0.5"><title>2013-10-19 10.2km</title><desc>9223370654714312807</desc></polyline><polyline fill="none" opacity="1" points="175.66365530714393,198.1470347265713 175.90524668991566,195.2082576181274 176.63002083823085,191.09396369801834 177.59638636745512,187.27354168030433 176.1468380726874,183.15923433192074 174.93888115882874,180.22043910529464 171.31501041911542,177.5755203643348 167.20795691385865,176.4000000001397 163.3424947904423,177.5755203643348 160.20180681534111,179.33879984519444 158.51066713687032,182.57147557032295 157.302710223943,185.51026795455255 157.06111884023994,188.15517806308344 156.5779360756278,191.9755986945238 155.61157054454088,195.5021354884375 154.8867963962257,198.73478972166777 154.64520501438528,201.96743965684436 154.64520501438528,206.08171517541632 155.12838777899742,209.90210763714276 156.81952745839953,213.72249409533106 158.0274843722582,215.7796227785293 160.92658096458763,219.0122500488069 164.55045170336962,219.0122500488069 167.44954829569906,219.60000000009313 170.83182765357196,218.13062485610135 173.48933286219835,216.36737351119518 175.18047254160047,212.84086698386818 175.66365530714393,208.43272663117386 175.90524668991566,203.73070144630037 175.90524668991566,200.79193108691834 175.90524668991566,197.26540196686983 176.87161222100258,194.32662379206158 177.59638636745512,190.80008529429324 177.35479498654604,186.39190497691743 175.18047254160047,180.22043910529464 172.52296733297408,178.16328033292666 167.6911396794021,176.69388014404103 164.79204308707267,176.9877602532506 161.8929464938119,179.63267963356338 159.23544128518552,181.6898371623829 158.51066713687032,184.62863061204553 157.06111884023994,189.33069274341688 155.61157054454088,193.73886773106642 155.61157054454088,197.26540196686983 154.16202224884182,200.79193108691834 154.40361363161355,204.6123318609316 154.64520501438528,207.8449739809148 154.16202224884182,211.37148775416426 156.09475331008434,215.48574735829607 158.75225852057338,218.13062485610135 161.40976372919977,218.42449995642528 166.48318276554346,219.0122500488069 169.38227935694158,217.54287455044687 172.52296733297408,214.89799641259015 173.48933286219835,212.25311539904214 174.697289776057,208.43272663117386 176.1468380726874,204.9062085954938 177.35479498654604,201.67356256698258 177.83797775115818,197.55927958874963 177.35479498654604,192.85723337321542 177.35479498654604,188.44905678625219 176.3884294545278,184.92250976222567 174.93888115882874,180.22043910529464 172.03978456743062,178.16328033292666 168.89909659232944,177.28164032683708 164.79204308707267,176.9877602532506 161.40976372919977,179.04492002003826 158.51066713687032,181.6898371623829" stroke="#4DD2FF" stroke-dasharray="none" stroke-linecap="round" stroke-linejoin="round" stroke-width="0.5"><title>2013-10-12 10.6km</title><desc>9223370655320152807</desc></polyline><polyline fill="none" opacity="1" points="27.84425268601626,225.84001261997037 26.1869361018762,229.8720433257986 25.239898052997887,233.32806421397254 25.476657565683126,235.63207535468973 24.05610049236566,240.24009095085785 24.05610049236566,242.83209580695257 23.345821957103908,247.44009747868404 24.05610049236566,250.60809345706366 24.292860004119575,254.92808118532412 23.81934098061174,258.6720642137807 22.635543420910835,262.41604135814123 24.76637902855873,263.28003524802625 28.317771709524095,265.5840174248442 31.632404879666865,267.60000000009313 34.710278537124395,267.60000000009313 38.97194975428283,265.8720150399022 41.57630438823253,263.8560310017783 43.943899508565664,260.6880526384339 44.890937557443976,256.9440727783367 45.12769706826657,252.33608948835172 43.943899508565664,248.59209650335833 44.180659021250904,243.40809650346637 45.36445658095181,239.37608870584518 45.60121609363705,236.2080777916126 46.54825414158404,233.32806421397254 45.837975605390966,231.0240508459974 43.23362097237259,227.28002436971292 38.97194975428283,225.84001261997037 35.42055707331747,224.9760051521007 32.57944292854518,224.9760051521007 30.21184780728072,226.12801503995433 26.1869361018762,228.14403100241907 24.76637902855873,231.0240508459974 23.81934098061174,234.48007006268017 24.05610049236566,238.5120861462783 24.05610049236566,241.96809450211003 24.292860004119575,245.13609775714576 24.05610049236566,248.88009617221542 22.398783908225596,251.47209162986837 21.6885053711012,254.3520832741633 21.451745859347284,257.2320714369416 22.398783908225596,260.1120561193675 23.582581467926502,262.41604135814123 25.239898052997887,265.296019774396 28.317771709524095,266.7360076766927 31.632404879666865,266.7360076766927 36.6043546339497,267.60000000009313 39.68222829140723,264.72002436965704 41.57630438823253,262.1280433256179 43.943899508565664,258.3840657279361 44.180659021250904,254.3520832741633 44.180659021250904,250.89609288284555 45.36445658095181,247.15209763497114 46.07473511714488,243.69609680003487 45.837975605390966,240.52809162950143 45.837975605390966,237.93608426721767 46.31149462983012,234.48007006268017 45.60121609363705,231.6000543970149 44.65417804475874,229.00803732057102 43.23362097237259,226.12801503995433 40.155747315846384,224.4000000001397 36.6043546339497,224.4000000001397 32.57944292854518,224.4000000001397 28.791290735825896,224.9760051521007 26.660455126315355,227.28002436971292 24.292860004119575,231.0240508459974 24.76637902855873,233.6160657289438 24.76637902855873,237.07208118587732 23.345821957103908,241.68009399762377 23.345821957103908,245.712097896263 24.05610049236566,247.15209763497114 23.10906244441867,250.89609288284555 22.398783908225596,252.9120878870599 22.87230293173343,256.36807535379194 23.582581467926502,259.5360594613012 24.05610049236566,262.7040393569041 25.713417077437043,265.296019774396" stroke="#4DD2FF" stroke-dasharray="none" stroke-linecap="round" stroke-linejoin="round" stroke-width="0.5"><title>2013-10-06 10.6km</title><desc>9223370655838244807</desc></polyline><polyline fill="none" opacity="1" points="110.14683377929032,253.85463268659078 110.60805349703878,250.76892679347657 111.76110279094428,247.68321679718792 111.06927321478724,244.03646333003417 111.06927321478724,240.67022427427582 111.76110279094428,237.5845008501783 111.99171264935285,234.77929417719133 111.76110279094428,231.97408411232755 109.6856140634045,230.2909564457368 108.07134505175054,228.04678432480432 105.30402674898505,226.9246974508278 102.30609858687967,227.48574095615186 97.69390141405165,228.04678432480432 95.38780282903463,228.6078275591135 93.77353381738067,230.2909564457368 93.54292395804077,231.97408411232755 92.62048452533782,234.77929417719133 92.38987466599792,237.86502133100294 91.69804508984089,242.07282447465695 91.00621551368386,245.15854193037376 91.69804508984089,248.80529363360256 90.77560565527529,251.89100213861093 90.31438593752682,255.53774326271378 89.39194650482386,258.3429248428438 89.39194650482386,260.3065499314107 90.31438593752682,263.3922431420069 91.92865494918078,265.6363810834009 96.07963240426034,266.75844923895784 99.30817042570561,267.60000000009313 102.30609858687967,266.75844923895784 105.30402674898505,266.47793225129135 107.37951547559351,264.23379512433894 108.76317462790757,261.98965582833625 109.6856140634045,258.0624068370089 109.45500420406461,254.97670653951354 110.37744363863021,251.04944568034261 110.37744363863021,247.40269750310108 110.14683377929032,243.75594359473325 109.91622392181307,238.98710291530006 110.37744363863021,235.62085653445683 111.06927321478724,234.21825243486091 110.37744363863021,231.41304169245996 108.07134505175054,228.88834912492894 105.07341689057648,226.0831319389399 102.9979281630367,225.2415661229752 99.76939014159143,225.80261003412306 96.31024226266891,225.80261003412306 94.4653633935377,226.6441756472923 93.31231410056353,229.72991361888126 91.69804508984089,232.5351263966877 91.46743523143232,235.62085653445683 90.77560565527529,239.26762322615832 90.08377608004957,243.19490402424708 89.62255636136979,245.7195810272824 88.9307267870754,248.80529363360256 88.9307267870754,252.17152088950388 88.0082873525098,255.53774326271378 87.54706763476133,258.0624068370089 87.7776774931699,261.14810303226113 88.9307267870754,263.6727605035994 91.92865494918078,266.19741522870027 95.61841268651187,267.0389661930967 99.76939014159143,267.319483113708 103.45914787892252,266.75844923895784 105.99585632514209,264.794829609571 108.76317462790757,262.55069085536525 109.91622392181307,258.3429248428438 110.37744363863021,255.53774326271378 110.83866335544735,252.4520396075677 111.06927321478724,249.6468509058468 111.53049293160439,245.7195810272824 111.76110279094428,243.4754238263704 111.99171264935285,240.3897041331511 112.22232250776142,237.5845008501783 112.45293236616999,234.49877332313918 111.76110279094428,231.69356291904114 110.60805349703878,229.1688706574496 108.30195491109043,226.6441756472923 105.76524646673352,225.2415661229752 102.9979281630367,224.4000000001397 100.69182957615703,224.96104411478154 96.77146197948605,225.52208809531294 94.00414367672056,227.20521922083572 92.62048452533782,230.8519991368521 91.00621551368386,235.34033578261733 90.08377608004957,238.14554177806713 89.85316622070968,240.3897041331511 89.62255636136979,243.4754238263704 89.85316622070968,246.56113941781223 90.08377608004957,249.92736992868595 89.85316622070968,253.01307694031857 89.62255636136979,256.3792980927974 90.08377608004957,259.7455143611878 91.46743523143232,262.83120831870474 94.00414367672056,264.5143123844173 96.77146197948605,267.319483113708 100.69182957615703,267.319483113708 102.9979281630367,267.0389661930967 106.45707604289055,265.35586395906284 108.532564769499,263.3922431420069 109.6856140634045,260.0260321632959 110.14683377929032,257.2208526181057 111.06927321478724,254.13515119976364 111.06927321478724,250.76892679347657 111.76110279094428,247.96373605774716 111.76110279094428,244.8780223308131 111.53049293160439,241.79230450256728 112.68354222457856,238.14554177806713 111.76110279094428,235.34033578261733 110.83866335544735,231.97408411232755 110.14683377929032,229.44939215504564 107.6101253349334,227.7662626572419 104.38158731441945,226.0831319389399 101.38365915231407,226.6441756472923 97.23268169723451,226.9246974508278 94.23475353512913,228.88834912492894 92.85109438374639,230.8519991368521 90.77560565527529,234.21825243486091 90.31438593752682,236.46241858764552 89.39194650482386,240.1091839573346 89.62255636136979,243.19490402424708 88.46950706932694,246.28061998845078 88.46950706932694,249.6468509058468 87.7776774931699,253.01307694031857 87.31645777635276,256.3792980927974 88.0082873525098,259.7455143611878 89.16133664548397,262.83120831870474 92.62048452533782,264.794829609571 96.31024226266891,266.47793225129135 98.84695070702583,265.9168981728144 102.30609858687967,265.0753468009643 104.84280703123659,262.270173358731 108.07134505175054,260.3065499314107 109.6856140634045,257.7818887971807 110.37744363863021,255.53774326271378" stroke="#4DD2FF" stroke-dasharray="none" stroke-linecap="round" stroke-linejoin="round" stroke-width="0.5"><title>2013-09-29 10.5km</title><desc>9223370656443428807</desc></polyline><polyline fill="none" opacity="1" points="172.29360576253384,263.22535400046036 174.31655047181994,261.0380278278608 175.66518027801067,258.3038671386894 176.5642668157816,255.29628656315617 176.5642668157816,251.7418679993134 176.5642668157816,248.73427869705483 177.23858171794564,246.00010313582607 177.23858171794564,242.17225179541856 178.36243989039212,238.8912312053144 177.68812498729676,237.25071912514977 176.78903844952583,234.51652968092822 175.66518027801067,230.68865890661255 173.86700720340014,227.95446153078228 171.39451922569424,225.49368106527254 170.0458894195035,225.76710125035606 166.00000000093132,224.94684059894644 163.30274038854986,226.5873616025783 160.83025241084397,228.22788141667843 159.7063942393288,232.055756355403 158.35776443313807,233.6962722032331 157.6834495300427,238.6178126083687 157.00913462694734,240.80516046099365 156.78436299227178,244.9064319843892 156.78436299227178,247.09377375710756 156.55959135852754,249.28111341316253 156.55959135852754,253.38236956926994 155.2109615523368,255.56970314332284 155.6605048207566,261.0380278278608 156.55959135852754,263.4987696236931 161.95411058235914,265.4126780577935 164.2018269263208,265.95950874197297 167.5734014417976,265.95950874197297 171.61929085943848,264.86584724183194 174.5413221064955,262.1316911787726 176.5642668157816,258.0304508882109 177.23858171794564,253.65578638156876 175.66518027801067,250.92161676776595 174.09177883714437,249.55453072185628 175.88995191268623,245.17984982184134 177.4633533526212,239.98490526387468 177.91289662197232,238.07097531366162 177.23858171794564,235.06336783478037 178.36243989039212,231.235497985268 175.66518027801067,228.50130126997828 172.9679206656292,225.49368106527254 171.16974759101868,224.94684059894644 165.77522836625576,225.49368106527254 164.2018269263208,225.76710125035606 161.27979567926377,228.22788141667843 158.80730770155787,230.41523931804113 158.1329927984625,232.87601442844607 157.6834495300427,236.43046263838187 156.55959135852754,241.07857879367657 157.00913462694734,244.35959621169604 157.23390626069158,246.54693851224147 156.55959135852754,250.92161676776595 157.00913462694734,254.20261990698054 155.6605048207566,258.3038671386894 156.33481972385198,261.5848595700227 156.55959135852754,263.4987696236931 160.38070914242417,264.86584724183194 163.97705529164523,267.3265848727897 166.22477163467556,266.77975451922975 169.14680288173258,265.95950874197297 172.0688341287896,264.86584724183194 174.9908653749153,261.5848595700227 175.21563700959086,259.3975318111479 175.88995191268623,256.66336913825944 176.78903844952583,253.92920316033997 177.91289662197232,250.92161676776595 177.0138100842014,247.3671913293656 175.88995191268623,243.53934230282903 176.11472354643047,240.5317420954816 176.5642668157816,237.25071912514977 177.68812498729676,236.43046263838187 178.58721152413636,232.87601442844607 177.23858171794564,230.14181969570927 178.36243989039212,230.41523931804113 177.91289662197232,227.68104161159135 174.76609374023974,226.31394151831046 171.39451922569424,225.22026084875688 168.24771634489298,224.6734203158412 164.2018269263208,225.76710125035606 161.0550240445882,228.22788141667843 158.35776443313807,230.14181969570927 158.1329927984625,233.42285297834314 155.88527645543218,237.25071912514977 154.53664664924145,241.62541536078788 156.11004808917642,241.62541536078788 156.78436299227178,243.2659242679365 156.33481972385198,246.8203561506234 155.6605048207566,250.92161676776595 153.41278847679496,253.10895272321068 155.43573318701237,256.11653620772995 155.6605048207566,258.57728335657157 157.23390626069158,262.9519383441657 159.256850970909,265.4126780577935 161.95411058235914,266.23292403365485 165.77522836625576,266.23292403365485 169.37157451640815,267.60000000009313 172.9679206656292,266.23292403365485 174.09177883714437,264.0456007702742 174.31655047181994,260.49119595531374 175.66518027801067,259.3975318111479 175.88995191268623,255.29628656315617 177.91289662197232,248.73427869705483 177.91289662197232,244.08617827459238 175.88995191268623,241.35199709353037 176.5642668157816,238.07097531366162 177.0138100842014,235.61020585522056 177.4633533526212,232.055756355403 177.23858171794564,230.14181969570927 175.66518027801067,227.1342016728595 172.0688341287896,225.76710125035606 168.69725961331278,224.4000000001397 166.00000000093132,225.76710125035606 163.52751202322543,226.8607816544827 160.38070914242417,229.04814087809063 157.45867789536715,232.055756355403 155.6605048207566,235.61020585522056 156.78436299227178,239.16464976919815 157.00913462694734,243.53934230282903 157.00913462694734,246.8203561506234 156.33481972385198,250.64819962508045 154.761418283917,253.10895272321068 156.33481972385198,256.66336913825944 155.6605048207566,259.3975318111479 156.78436299227178,262.4051069342531 157.6834495300427,264.86584724183194 161.7293389486149,264.31901629362255" stroke="#4DD2FF" stroke-dasharray="none" stroke-linecap="round" stroke-linejoin="round" stroke-width="0.5"><title>2013-09-22 10.9km</title><desc>9223370657048162807</desc></polyline></svg>