<?xml version="1.0" encoding="utf-8" ?>
<svg baseProfile="full" height="300mm" version="1.1" viewBox="0,0,200,300" width="200mm" xmlns="http://www.w3.org/2000/svg" xmlns:ev="http://www.w3.org/2001/xml-events" xmlns:xlink="http://www.w3.org/1999/xlink"><defs /><rect fill="#222222" height="300" width="200" x="0" y="0" /><text fill="#FFFFFF" style="font-size:12px; font-family:Arial; font-weight:bold;" x="10" y="20">Over 10km Runs</text><text fill="#FFFFFF" style="font-size:4px; font-family:Arial" x="10" y="280">Runner</text><text fill="#FFFFFF" style="font-size:9px; font-family:Arial" x="10" y="290">keep</text><text fill="#FFFFFF" style="font-size:4px; font-family:Arial" x="65" y="280">SPECIAL TRACKS</text><rect fill="yellow" height="2.6" width="2.6" x="65" y="283" /><text fill="#FFFFFF" style="font-size:3px; font-family:Arial" x="70" y="285.5">Over 20.0 km</text><rect fill="red" height="2.6" width="2.6" x="65" y="287" /><text fill="#FFFFFF" style="font-size:3px; font-family:Arial" x="70" y="289.5">Over 40.0 km</text><text fill="#FFFFFF" style="font-size:4px; font-family:Arial" x="120" y="280">STATISTICS</text><text fill="#FFFFFF" style="font-size:3px; font-family:Arial" x="120" y="285">Number: 15</text><text fill="#FFFFFF" style="font-size:3px; font-family:Arial" x="120" y="290">Weekly: 1.2</text><text fill="#FFFFFF" style="font-size:3px; font-family:Arial" x="141" y="285">Total: 163.6 km</text><text fill="#FFFFFF" style="font-size:3px; font-family:Arial" x="141" y="290">Avg: 10.9 km</text><text fill="#FFFFFF" style="font-size:3px; font-family:Arial" x="167" y="285">Min: 10.2 km</text><text fill="#FFFFFF" style="font-size:3px; font-family:Arial" x="167" y="290">Max: 14.0 km</text><polyline fill="none" opacity="1" points="26.55055033363169,75.59999999999854 26.48938183201244,75.33605041343253 26.498120189411566,75.00611224205204 26.55055033363169,74.67617275041266 26.559288691089023,74.37922607912333 26.54181197634898,74.02728789870162 26.55055033363169,73.71934075860918 26.55055033363169,73.42239064136811 26.568027048488148,73.09244481231872 26.576765405770857,72.81748894620978 26.672887336986605,72.57552702553221 26.9088229862391,72.47654239878466 27.17971206502989,72.45454579892248 27.19718877982814,72.30056943558884 27.249618924048264,72.15759112643718 27.25835728144739,71.90462889515038 27.27583399618743,71.57467699237895 27.118543563352432,71.31071451943717 26.830177769821603,71.16773449372704 26.821439412480686,70.82678112411668 26.87386955670081,70.48582634451304 26.917561343638226,70.16686737098644 26.96999148791656,69.8259098623239 27.02242163219489,69.48495094364625 27.057375061733183,69.19898431165348 27.074851776473224,68.93501423251291 27.162235350289848,68.84702401830145 27.19718877982814,68.63804688321397 27.162235350289848,68.49506222241325 27.19718877982814,68.3960726965961 27.25835728144739,68.1760955470454 27.328264140465762,67.91212219272711 27.389432642201427,67.6371490499514 27.476816215959843,67.30718006792449 27.564199789776467,66.98820879662526 27.642845006193966,66.70223350412562 27.782658724230714,66.53724730720569 27.948687514464837,66.59224274285225 28.17588480631821,66.64723814182798 28.42055881296983,66.49325093228254 28.59532596054487,66.25127045038971 28.708924606558867,66.00928925821063 28.866215039335657,65.70131216821756 29.03224382956978,65.39333392767003 29.189534262462985,65.11835238344065 29.3555630526389,64.83237060449028 29.504115128074773,64.56838654333842 29.652667203568853,64.26040407022083 29.836172708543018,63.93042157225136 30.037154928257223,63.56743929878576 30.264352220110595,63.14945773121872 30.48281115462305,62.76447283352172 30.65757830219809,62.467483255357365 30.841083807172254,62.181492279945815 31.024589312146418,61.90650002165785 31.155664672900457,61.697505291871494 31.330431820475496,61.42251141904853 31.54889075498795,61.103517377261596 31.636274328746367,60.81752166958904 31.776088046841323,60.48752538928238 31.968331909214612,60.19052760744671 32.21300591586623,59.95952859286626 32.45767992245965,59.76152892227401 32.62370871269377,59.48652859077265 32.763522430788726,59.277527725214895 32.877121076744515,59.16752705682302 32.98198136524297,58.92552506959328 33.07810329645872,58.6835223718881 33.182963585015386,58.529520285221224 33.38394580472959,58.47451947022637 33.49754445068538,58.48551963614591 33.62861981138121,58.36451773020235 33.75095681467792,58.221515248667856 33.93446231971029,58.034511629222834 34.12670618202537,57.77050579716888 34.310211687057745,57.5615005804284 34.28399661486037,57.29749323333817 34.275258257461246,57.03348504056339 34.327688401797786,56.758475607275614 34.51993226411287,56.494465688017954 34.72091448388528,56.274456775987346 34.869466559321154,56.01044530634681 34.99180356267607,55.669429239795136 35.166570710309315,55.41641640769376 35.44619814638281,55.15240218958934 35.647180366155226,54.91038841338741 35.77825572685106,54.6463725743597 35.900592730147764,54.327352307140245 36.0316680909018,54.04133308669407 36.32877224177355,53.876321546471445 36.57344624842517,53.82131762630888 36.73073668126017,53.52429582316108 36.835596969816834,53.20527121267514 36.888027114095166,52.919248098180105 36.95793397311354,52.61122209556925 37.03657918953104,52.248189971658576 37.13270112074679,51.91815938043146 37.15017783548683,51.786146773905784 37.2200846945052,51.52212092649279 37.26377648144262,51.192087427698425 37.35116005525924,50.851051423822355 37.44728198641678,50.45500784183241 37.5346655601752,50.091966219719325 37.595834061852656,49.6849176507385 37.674479278270155,49.38788093961921 37.75312449474586,49.03583604376763 37.849246425845195,48.66178669408691 37.89293821278261,48.287735646634246 37.97158342920011,47.946687623691105 38.058967002958525,47.56163170783839 38.137612219376024,47.20957901029033 38.19878072111169,46.92353508606902 38.26868758013006,46.56047790624871 38.31237936700927,46.285433523320535 38.399762940825894,46.05439553222823 38.417239655565936,45.911371689297084 38.47840815724339,45.592317606722645 38.53957665886264,45.25125842825946 38.62696023267927,44.87719189972995 38.69686709175585,44.52512773346098 38.7580355933751,44.31608892302029 38.76677395077422,44.1730620629678 38.801727380312514,43.9200139332097 38.880372596671805,43.55694352012506 38.94154109834926,43.17186709144153 39.02018631482497,42.841800148860784 39.08135481644422,42.62175478591962 39.125046603323426,42.41271114684787 39.15126167546259,42.30268796590826 39.21243017714005,42.18166229718918 39.22990689188009,42.060636450667516 39.19495346240001,41.840589001636545 39.22116853448097,41.55452643936587 39.26486032141838,41.279465346779034 39.33476718043676,41.10342576559924 39.413412396854255,40.960393328969076 39.69303983304417,41.026408330581035 39.981405626575,41.13643321573909 40.27850977744674,41.21345054790436 40.45327692507999,41.23545548673428 40.496968712017406,40.99340083639254 40.48823035461828,40.72934040688415 40.50570706935832,40.43227141211537 40.52318378415657,40.05818300622923 40.540660498896614,39.673090226096974 40.61930571531411,39.365014706068905 40.51444542675745,39.13395731012133 40.30472484964412,39.11195181003859 39.99888234131504,39.166965549207816 39.71051654778421,39.23298198771954 39.68430147564504,39.023929750990646 39.72799326252425,38.6938461919417 39.79790012160083,38.36376131053112 39.85906862322008,38.04467800143175 39.95519055443583,37.68158169829985 40.025097413454205,37.34048977406928 40.06878920039162,37.021402502039564 40.11248098727083,36.71331706679484 40.14743441680912,36.460246025970264 40.173649488948286,36.25118675381236 40.138696059409995,36.14115534479788 40.27850977744674,36.02012062522408 40.48823035461828,35.943098438336165 40.47075363982003,35.77805065260327 40.33093992178328,35.67902182243415 40.348416636523325,35.48096380503557 40.33967827918241,35.370931367397134 40.540660498896614,35.392937866701686 40.70668928907253,35.392937866701686 40.87271807930665,35.41494436008361 41.01253179740161,35.392937866701686 41.187298945034854,35.34892486221361 41.33585102041252,35.29390857362887 41.35332773521077,35.00782328056084 41.397019522148184,34.534680038821534 41.458188023767434,34.160564854239055 41.4844030959066,33.87447562558373 41.4844030959066,33.67641326995363 41.50187981064664,33.48935394129512 41.51935652544489,33.324301239721535 41.344589377811644,33.23627299701184 41.10865372855915,33.22526946005382 40.92514822364319,33.148244660231285 40.750381076009944,33.08222334592574 40.47949199721916,33.038209107013245 40.14743441680912,32.96118413232034 39.850330265879165,32.90616624914401 39.544487757608294,32.80713396684587 39.21243017714005,32.76311958095175 38.92406438360922,32.675090738615836 38.7580355933751,32.554050926773925 38.51336158672348,32.576058178521635 38.207519078452606,32.56505455334991 37.901676570181735,32.554050926773925 37.58709570445353,32.532043669176346 37.26377648144262,32.49903277170961 36.98414904525271,32.45501822121878 36.660829822241794,32.422007292894705 36.49480103200767,32.4110036471684 36.451109245128464,32.47702549939277 36.38994074345101,32.68609434903192 36.32877224177355,32.91716982871003 36.29381881223526,33.10423045659263 36.27634209749522,33.324301239721535 36.241388667956926,33.51136094315734 36.16274345153943,33.720427167922026 36.07535987778101,33.88547907584143 35.987976304022595,34.08354092887748 35.935546159686055,34.24859210935392 35.8743776580086,34.42464633736381 35.76951736945193,34.60070018917759 35.69961051043356,34.77675366479525 35.62096529401606,34.952806764158595 35.516105005459394,35.17287260934245 35.39376800210448,35.30491183428239 35.33259950048523,35.60199931669922 35.227739211928565,35.855072993763315 35.08792549383361,36.1631616383529 34.94811177573865,36.49325533625961 34.78208298556274,36.82334771162277 34.64226926746778,37.131432735441194 34.51119390677195,37.40650767606712 34.36264183127787,37.714590519244666 34.20535139844287,38.01166931275657 34.083014395146165,38.286741314586834 33.951939034450334,38.56181239804573 33.88203217543196,38.71585180369584 33.8208636737545,38.77086580731702 33.71600338519784,38.86989092135627 33.67231159831863,39.078943548920506 33.62861981138121,39.387020138565276 33.453852663806174,39.673090226096974 33.340254017850384,39.92615139865666 33.27034715883201,40.09119087507861 33.340254017850384,40.190214402246056 33.60240473924205,40.223222218184674 33.91698560497025,40.23422482055321 34.24904318538029,40.27823521538812 34.56362405105028,40.32224558669259 34.89568163146032,40.37725851775758 35.21900085452944,40.42126883619494 35.498628290661145,40.4652791310873 35.78699408425018,40.476281701128755 35.92680780228693,40.410266258790216 35.987976304022595,40.190214402246056 36.02292973350268,39.9921672289056 36.02292973350268,39.90414611018059 36.16274345153943,39.94815668128285 36.21517359581776,40.14620396042301 36.17148180893855,40.48728426972957 36.10157494992018,40.850368208804866 36.0316680909018,41.19144560319546 35.9530228744261,41.587533708807314 35.89185437280685,41.95061279962829 35.804470798990224,42.280683312048495 35.760779012111016,42.59975021731225 35.68213379569352,42.89681139776803 35.66465708089527,43.20487371298077 35.67339543829439,43.512934876467625 35.45493650378194,43.787988513548044 35.36755293002352,44.041037048751605 35.2801693562069,44.36009713770909 35.24521592666861,44.62414593226276 35.227739211928565,44.93220178983029 35.38502964476356,45.064225376241666 35.36755293002352,45.39428341689927 35.31512278568698,45.74634386978141 35.21026249718852,46.175415513112966 35.12287892331369,46.54947614856792 35.079187136434484,46.901531666146184 35.04423370689619,47.253585679718526 35.035495349555276,47.58363495150115 35.02675699215615,47.9136829013878 35.02675699215615,48.26573259097495 35.00928027741611,48.63978373828286 35.000541920016985,48.96982745836431 34.965588490478694,49.3108712471585 34.939373418397736,49.59690688497358 34.87820491672028,49.94894938404468 34.825774772441946,50.31199163616111 34.74712955602445,50.631027446564985 34.79955970030278,50.96106319215323 34.74712955602445,51.31309986404085 34.677222696947865,51.665135032155376 34.502455549372826,51.97316457074339 34.310211687057745,52.22618797336327 34.03932260826696,52.42420574655989 33.794648601615336,52.64422493659367 33.55871295236284,52.85324262308859 33.340254017850384,53.08426155456982 33.244132086692844,53.238273815812136 33.130533440737054,53.35928324776614 32.99945808004122,53.56829912083049 32.903336148825474,53.78831525659916 32.79847586032702,54.10733761028678 32.632447070092894,54.43735943534557 32.45767992245965,54.74537861312274 32.30038948962465,55.02039476339269 32.22174427326536,55.273408811190166 32.20426755846711,55.51542152144975 32.37903470604215,55.6474281547853 32.344081276562065,55.955442810409295 32.25669770274544,56.208453987856046 32.30038948962465,56.29645769359195 32.19552920112619,56.186453046728275 32.020762053492945,56.42846307606669 31.828518191119656,56.758475607275614 31.636274328746367,56.96748286027287 31.40033867949387,57.20949059636041 31.260524961398914,57.51749941462913 31.19061810238054,57.77050579716888 31.024589312146418,58.01251117554057 30.90225230890792,58.05651207706251 30.648839944857173,58.05651207706251 30.395427580806427,58.02351140311657 30.09832342993468,57.979510483950435 29.783742564264685,57.979510483950435 29.539068557613064,57.99051071593567 29.39051648217719,58.045511853888456 29.32060962310061,58.045511853888456 29.24196440668311,58.25451584332768 29.084673973848112,58.47451947022637 29.058458901708946,58.7385230473883 28.979813685291447,58.99152568203135 28.848738324595615,59.2005272727547 28.831261609855574,59.28852778399596 28.673971176962368,59.45352848934999 28.43803552770987,59.67352891603514 28.254530022735707,59.904528732084145 28.350651953951456,60.06952820436709 28.40308209822979,60.168527729161724 28.45551224250812,60.35552650725731 28.490465672046412,60.597524296157644 28.481727314647287,60.839521374604374 28.446773885108996,60.68552331599494 28.263268380134832,60.773522241885075 28.105977947299834,61.03751845586521" stroke="#4DD2FF" stroke-dasharray="none" stroke-linecap="round" stroke-linejoin="round" stroke-width="0.5"><title>2017-12-17 14.0km</title><desc>9223370523376934807</desc></polyline><polyline fill="none" opacity="1" points="100.59884861059254,32.40000000000873 100.59884861059254,32.76381296587351 100.51624880224699,33.09297620008874 100.46118226327235,33.300868339356384 100.6126152453362,33.5087601460109 100.57131534116343,34.30567565675301 100.68144841893809,34.600186673749704 100.80534813151462,34.89469702322094 100.8466480357456,35.206530783252674 100.88794793986017,35.587659918062855 100.90171457460383,35.95146395842312 100.92924784403294,36.315266980134766 100.98431438294938,36.661745101431734 101.09444746078225,36.956250778152025 101.13574736495502,37.268079590648995 101.1770472691278,37.562583893042756 101.20458053867333,37.89173497050069 101.36978015536442,37.99567724275403 101.5762796762283,38.116943122047815 101.59004631103016,38.2901798960811 101.45237996370997,38.41144550051831 101.30094698170433,38.567358254120336 101.38354679004988,38.809888832387514 101.52121313737007,39.13903675030451 101.65887948463205,39.468183834454976 101.72771265823394,39.7626831503585 101.85161237081047,40.07450522790896 102.00304535275791,40.38632655724359 102.18201160425087,40.698147138231434 102.26461141259642,40.99264366654097 102.03057862218702,41.14855332308798 101.76901256240672,41.02729027305031 101.56251304148464,40.871380471013254 101.31471361644799,40.698147138231434 101.10821409552591,40.784763833435136 100.86041467037285,40.80208716560446 100.62638188002165,40.88870379157015 100.6126152453362,41.13123003713554 100.62638188002165,41.39107908366714 100.39234908967046,41.54698826215463 100.14454966463381,41.63360439163807 99.85545033536619,41.72022046333586 99.56635100604035,41.737543670722516 99.51128446712391,41.51234179425228 99.56635100604035,41.269816259955405 99.66271744918777,40.92335042578634 99.75908389227698,40.64617709335289 99.8141504311352,40.26506279583555 99.86921697005164,39.86662392600556 99.82791706587886,39.572124845712096 99.77285052696243,39.15636030181486 99.60765091021312,38.948477531041135 99.29101831151638,38.98312468260701 99.07075215590885,38.82721242783009 99.02945225173607,38.68862359983905 99.00191898224875,38.463416439131834 99.00191898224875,38.2382088881277 98.87801926973043,38.13426680980774 98.69905301817926,38.116943122047815 98.50632013205905,38.09961943193048 98.40995368902804,38.18623785939417 98.43748695839895,38.48074008074764 98.45125359314261,38.809888832387514 98.45125359314261,39.13903675030451 98.47878686262993,39.4508603244758 98.49255349737359,39.7973300848098 98.49255349737359,40.16112233890453 98.49255349737359,40.47294346035051 98.49255349737359,40.784763833435136 98.49255349737359,41.07926016548299 98.50632013205905,41.39107908366714 98.5200867668027,41.72022046333586 98.53385340148816,41.96274515695404 98.5200867668027,42.18794625288865 98.50632013205905,42.39582384118694 98.49255349737359,42.67299344162166 98.46502022788627,42.91551635703945 98.45125359314261,43.07142370643851 98.42372032365529,43.33126887321123 98.39618705422617,43.55646759743104 98.39618705422617,43.79898886398587 98.39618705422617,44.05883257588721 98.39618705422617,44.370644344293396 98.39618705422617,44.71710098726908 98.38242041954072,45.04623394248483 98.39618705422617,45.358043341635494 98.39618705422617,45.66985199265764 98.42372032365529,45.981659895478515 98.43748695839895,46.32811224335455 98.42372032365529,46.58795089807245 98.42372032365529,46.899756598009844 98.39618705422617,47.14227162516909 98.40995368902804,47.38478619973466 98.3548871500534,47.64462274167454 98.40995368902804,47.921781147117144 98.45125359314261,48.18161661540216 98.49255349737359,48.493418491547345 98.53385340148816,48.805219619578565 98.57515330571914,49.18630887125619 98.67151974880835,49.567397005375824 98.76788619183935,49.931161909145885 98.87801926973043,50.17367127932084 98.98815234750509,50.502790415033814 99.09828542533796,50.81458672208828 99.22218513785629,51.07441640653997 99.29101831151638,51.19567008150625 99.37361811986193,51.42085517774103 99.49751783243846,51.663361768078175 99.5525843713549,51.92318975554372 99.59388427552767,52.061764469821355 99.69025071861688,52.23498265487433 99.84168370056432,52.356235246988945 99.92428350896807,52.54677480614919 100.0481832215446,52.70267060124024 100.17208293406293,52.91053137053677 100.26844937709393,53.1183918073948 100.46118226327235,53.308930249055265 100.65391514956718,53.53411168367893 100.83288140100194,53.79393593104032 101.0118476524367,54.05375965908752 101.1770472691278,54.29626133652346 101.2458804427879,54.41751200555882 101.35601352062076,54.66001300429343 101.53497977205552,54.937156448781025 101.70017938880483,55.1450136443018 101.89291227498325,55.4741201907018 102.03057862218702,55.68197652748495 102.19577823899454,55.97643910221814 102.36097785568563,56.25357973955397 102.51241083769128,56.513398550319835 102.71891035861336,56.84250163170509 102.88410997536266,57.11964042231557 103.07684286154108,57.41409973980626 103.2695757477195,57.70855839014985 103.44854199909605,58.00301637341909 103.65504152007634,58.3494366761297 103.82024113682564,58.60925129718089 104.04050729237497,58.93834907164273 104.19194027438061,59.19816251550219 104.31583998695714,59.423333746701246 104.48103960370645,59.665825405638316 104.64623922045575,59.94295817610691 104.82520547189051,60.220090355709544 104.9628718192107,60.445259816537146 105.12807143596001,60.70507024815015 105.32080432208022,60.964880160434404 105.51353720825864,61.24201016106235 105.66497019026428,61.519139570897096 105.80263653746806,61.77894785589888 105.98160278901923,62.108037604775745 106.17433567513945,62.41980607196456 106.33953529194696,62.69693297056074 106.51850154332351,63.00870002522424 106.7525343336747,63.35510698668077 106.93150058516767,63.63223189114069 107.08293356717331,63.857395440965774 107.2481331838062,64.15183949453058 107.42709943535738,64.44628288106469 107.60606568673393,64.77536587670329 107.79879857297055,65.1044480392593 107.9502315549762,65.3988892678899 108.10166453698184,65.71064984185796 108.25309751898749,66.03972963652632 108.36323059676215,66.35148867353564 108.4458304051659,66.69788672648428 108.48713030933868,66.8884052621579 108.37699723156402,67.02696402177389 108.32193069258938,67.14820281535503 108.40453050099313,67.06160368860583 108.54219684819691,67.04428385637584 108.63856329134433,67.26944149578048 108.72116309968987,67.54655805499351 108.83129617752274,67.84099375193182 108.95519589004107,68.17006815336936 109.0790956026176,68.51646136012278 109.18922868045047,68.86285364384821 109.28559512353968,69.12264725088608 109.38196156657068,69.41707937783212 109.50586127914721,69.7115108378639 109.61599435698008,69.98862219112925 109.72612743475474,70.26573295358685 109.8087272431585,70.5082043861621 109.86379378207494,70.75067536647839 109.94639359047869,71.04510380599822 110.05652666825335,71.33953157860378 110.16665974602802,71.66859712358564 110.26302618917543,71.96302348407335 110.35939263220644,72.2401300376805 110.4695257100393,72.56919330291566 110.55212551838486,72.8116604390234 110.68979186570505,73.14072225753625 110.79992494353792,73.4178263007052 110.91005802131258,73.71224869944854 111.03395773388911,74.02398933599761 111.14409081166377,74.28377262869617 111.24045725481119,74.52623656687501 111.32305706321495,74.76870005279488 111.46072341041872,74.99384431341605 111.51578994933516,75.11507567684748 111.55708985356614,75.2882631427492 111.51578994933516,75.53072520748537 111.35059033264406,75.56536260832218 111.18539071589475,75.35753806453431 111.02019109908724,75.13239443380735 110.79992494353792,74.8206564552238 110.55212551838486,74.52623656687501 110.26302618917543,74.19717825547559 109.9739268599078,73.97203261512914 109.7398940694984,73.71224869944854 109.46456137497444,73.45246426461381 109.2442952193669,73.17536029519397 109.0102624289575,72.96753193056793 108.73492973449174,72.70774600747973 108.47336367459502,72.4479595652665 108.19803098001285,72.18817260387004 107.9502315549762,71.92838512333401 107.68866549519589,71.66859712358564 107.41333280061372,71.4434471038694 107.12423347134609,71.23561597031949 106.8213675073348,71.09706169666606 106.46343500440707,70.99314589449205 106.10550250147935,70.92386864696164 105.77510326803895,70.88923000932846 105.44470403459854,70.80263337488577 105.14183807058726,70.73335602573934 104.81143883714685,70.66407863971835 104.48103960370645,70.61212057597004 104.15064037026605,70.57748185527453 103.75140796322376,70.45624626013159 103.51737517275615,70.38696872642322 103.35217555606505,70.3523299456574 103.15944266994484,70.31769115576753 102.95294314896455,70.26573295358685 102.73267699335702,70.24841354828095 102.5399441071786,70.21377473058237 102.34721122094197,70.17913590375974 102.15447833476355,70.14449706769665 101.93421217915602,70.0925387962343 101.72771265823394,70.04058050405001 101.52121313737007,69.97130274881783 101.3422468858771,69.91934440817568 100.97054774826393,69.74614978933823 100.62638188002165,69.60759392814361 100.25468274246668,69.48635742842453 100.00688331731362,69.43439889396541 99.66271744918777,69.33048176266311 99.33231821568916,69.22656454828393 98.97438571276143,69.12264725088608 98.61645320995012,69.01872987036768 98.24475407227874,68.9148124067724 97.98318801244022,68.81089486010023 97.55642233591061,68.74161644955166 97.19848983298289,68.56842026153754 96.89562386891339,68.46450243794243 96.68912434804952,68.39522384278825 96.40002501878189,68.2739862123417 96.05585915059783,68.18738783561275 95.73922655190108,68.0141909091617 95.39506068371702,67.80635429281392 95.07842808496207,67.5985173441004 94.77556212095078,67.33872069096833 94.5415293306578,67.04428385637584 94.32126317499205,66.74984635473811 94.25243000133196,66.50736791157397 94.15606355824275,66.28220895210688 94.01839721092256,66.05704960263392 93.89449749840423,65.84920985696954 93.75683115114225,65.64136977896851 93.61916480388027,65.32960903883213 93.44019855244551,65.00052744633285 93.26123230095254,64.63680471696716 93.09603268420324,64.23844055976951 92.88953316333937,63.84007518172439 92.68303364241729,63.40706795126607 92.50406739098253,63.095301852110424 92.35263440897688,62.766214602888795 92.18743479222758,62.40248562116176 92.00846854079282,61.98679411005287 91.8157356546144,61.57110126937914 91.60923613369232,61.17272771631542 91.4165032475139,60.75703227210033 91.22377036133548,60.375976947078016 91.0172708404134,59.99492050478875 90.8520712236641,59.59654212067835 90.65933833748568,59.19816251550219 90.50790535548003,58.869065398932435 90.32893910404528,58.470683563908096 90.16373948735418,58.158905623917235 90.03983977477765,57.916411153477384 89.9572399664321,57.58731079143763 89.80580698442645,57.18892502761446 89.70944054127904,56.8078592413367 89.6268407330499,56.392149836581666 89.5580075593316,56.08036691043526 89.51670765515883,55.73394055974495 89.4616411163006,55.30090632283827 89.43410784681328,54.954477894483716 89.3928079425823,54.52144106045307 89.33774140372407,54.175010554361506 89.29644149955129,53.81125752910157 89.31020813423675,53.44750348571688 89.26890823012218,53.0491050319979 89.28267486474942,52.68534885547706 89.31020813423675,52.338913455052534 89.29644149955129,51.975155290725525 89.29644149955129,51.611396108259214 89.20007505652029,51.19567008150625 89.14500851754565,50.81458672208828 89.11747524805833,50.39885814640729 89.089941978571,50.06973874749383 89.07617534394376,49.671329938981216 89.03487543971278,49.37685307796346 88.96604226605268,49.047731090846355 88.97980890079634,48.59735228403588 89.06240870914189,48.23358364669548 89.089941978571,47.83516920891998 89.089941978571,47.592655474858475 89.10370861337287,47.33281882897427 89.13124188280199,47.21156154977507 89.07617534394376,46.934401629594504 89.03487543971278,46.60527345657465 89.00734217022546,46.25882184765942 88.97980890079634,45.91236931504682 88.96604226605268,45.63520662393421 88.92474236187991,45.23678421975637 88.84214255353436,44.82103780005127 88.8283759187907,44.422612899623346 88.80084264936158,44.00686387505266 88.77330937987426,43.72969711976475 88.73200947564328,43.33126887321123 88.67694293684326,43.01945461079595 88.67694293684326,42.7942549559084 88.69070957152871,42.43047007355199 88.69070957152871,42.08400733402232 88.67694293684326,41.737543670722516 88.63564303261228,41.44304883059522 88.58057649375405,41.07926016548299 88.55304322426673,40.73279382324836 88.56680985895218,40.35167977982201 88.5943431284395,40.03985836739594 88.55304322426673,39.64141880699026 88.49797668529209,39.312272161696455 88.47044341586297,38.93115395180939 88.47044341586297,38.61932913046621 88.49797668529209,38.49806372007879 88.51174332009396,38.272856229072204 88.47044341586297,38.03032464844 88.45667678117752,37.71849766524974" stroke="#4DD2FF" stroke-dasharray="none" stroke-linecap="round" stroke-linejoin="round" stroke-width="0.5"><title>2017-11-19 11.8km</title><desc>9223370525802103807</desc></polyline><polyline fill="none" opacity="0.5" points="177.52832369878888,72.60375695105176 176.3630057796836,72.40637385821901 175.3641618490219,72.20899072149768 174.19884393038228,72.20899072149768 173.1167630054988,71.81422431662213 171.8682080921717,71.81422431662213 170.7028901730664,71.61684104800224 169.70404624240473,71.91291593422648 167.95606936421245,71.12338268506574 166.54104046197608,70.92599926306866 165.20924855442718,70.82730753580108 163.71098265843466,70.92599926306866 163.12832369934767,71.02469097974245 161.5468208086677,71.4194577356684 159.54913294781,70.53123228769982 158.13410404603928,69.34693030721974 156.88554913224652,69.64300595025998 155.47052023094147,69.1495464904001 154.22196531808004,68.95216262916801 153.22312138741836,69.1495464904001 152.22427745629102,68.85347068239935 151.22543352562934,68.45870278496295 149.97687861230224,68.55739477591123 148.89479768741876,69.05085456534289 147.06358381453902,68.45870278496295 146.064739884343,67.86655060987687 145.56531791901216,66.7809372623451 144.8994219652377,65.69532258727122 144.81618497055024,64.11624432634562 144.9826589594595,62.73454854323063 144.9826589594595,61.15546501480276 144.81618497055024,59.77376462321263 144.81618497055024,57.898596365586855 144.56647398788482,56.911664112412836 144.39999999990687,55.431263675156515 144.7329479767941,54.049554372846615 144.7329479767941,52.865230401745066 145.06589595321566,51.87829255196266 144.81618497055024,50.595271706581116 145.23236994165927,49.213554876158014 145.14913294790313,47.733141599514056 145.39884393056855,46.844892448047176 145.48208092479035,45.06839147902792 145.39884393056855,43.4892765210825 145.48208092479035,42.10754862846807 145.56531791901216,41.02190377534134 145.81502890167758,39.73886723682517 146.064739884343,38.35713350586593 145.81502890167758,36.975397623493336 145.81502890167758,35.988442104833666 145.6485549127683,34.80409403395606 145.81502890167758,35.988442104833666 145.81502890167758,36.975397623493336 146.064739884343,38.35713350586593 145.81502890167758,39.73886723682517 145.56531791901216,41.02190377534134 145.48208092479035,42.10754862846807 145.39884393056855,43.4892765210825 145.48208092479035,45.06839147902792 145.39884393056855,46.844892448047176 145.14913294790313,47.733141599514056 145.23236994165927,49.213554876158014 144.81618497055024,50.595271706581116 145.06589595321566,51.87829255196266 144.7329479767941,52.865230401745066 144.7329479767941,54.049554372846615 144.39999999990687,55.431263675156515 144.56647398788482,56.911664112412836 144.81618497055024,57.898596365586855 144.81618497055024,59.77376462321263 144.9826589594595,61.15546501480276 144.9826589594595,62.73454854323063 144.81618497055024,64.11624432634562 144.8994219652377,65.69532258727122 145.56531791901216,66.7809372623451 146.064739884343,67.86655060987687 147.06358381453902,68.45870278496295 148.89479768741876,69.05085456534289 149.97687861230224,68.55739477591123 151.22543352562934,68.45870278496295 152.22427745629102,68.85347068239935 153.22312138741836,69.1495464904001 154.22196531808004,68.95216262916801 155.47052023094147,69.1495464904001 156.88554913224652,69.64300595025998 158.13410404603928,69.34693030721974 159.54913294781,70.53123228769982 161.5468208086677,71.4194577356684 163.12832369934767,71.02469097974245 163.71098265843466,70.92599926306866 165.20924855442718,70.82730753580108 166.54104046197608,70.92599926306866 167.95606936421245,71.12338268506574 169.70404624240473,71.91291593422648 170.7028901730664,71.61684104800224 171.8682080921717,71.81422431662213 173.1167630054988,71.81422431662213 174.19884393038228,72.20899072149768 175.3641618490219,72.20899072149768 176.3630057796836,72.40637385821901 177.52832369878888,72.60375695105176 178.9433526005596,73.09721449093195 180.27514450857416,72.89983150787884 181.52369942190126,72.70244848087896 182.6890173405409,72.99852300505154 184.0208092480898,72.89983150787884 185.18612716719508,72.99852300505154 186.26820809207857,72.80113999993773 187.59999999962747,73.19590596610215" stroke="#4DD2FF" stroke-dasharray="1,0.5" stroke-linecap="round" stroke-linejoin="round" stroke-width="0.5"><title>2014-03-22 10.5km</title><desc>9223370641410674807</desc></polyline><polyline fill="none" opacity="1" points="55.600000000034925,101.33084824655089 55.458757589920424,101.30629164153652 55.35787015414098,101.22034347706358 55.246893974835984,101.22034347706358 55.13591779541457,101.22034347706358 54.98458664177451,101.25717841359437 54.84334423171822,101.25717841359437 54.712190565187484,101.25717841359437 54.58103689865675,101.24490010291629 54.42970574495848,101.22034347706358 54.298552078485955,101.23262179076119 54.15730966842966,101.24490010291629 54.005978514731396,101.23262179076119 53.884913591784425,101.24490010291629 53.77393741242122,101.24490010291629 53.62260625872295,101.25717841359437 53.511630079417955,101.24490010291629 53.38047641294543,101.20806516192533 53.24932274635648,101.18350852713047 53.118169079883955,101.20806516192533 52.98701541341143,101.23262179076119 52.886127977631986,101.23262179076119 52.724708080349956,101.19578684528096 52.603643157402985,101.18350852713047 52.49266697803978,101.18350852713047 52.371602055151016,101.17123020753934 52.22027090145275,101.18350852713047 52.068939747754484,101.18350852713047 51.94787482492393,101.20806516192533 51.80663241480943,101.17123020753934 51.695656235388014,101.17123020753934 51.55441382533172,101.17123020753934 51.43334890238475,101.15895188645663 51.28201774874469,101.13439523978741 51.15086408221396,101.10983858718828 50.97935544140637,101.13439523978741 50.828024287708104,101.13439523978741 50.68678187765181,101.15895188645663 50.52536198042799,101.14667356387508 50.40429705742281,101.14667356387508 50.29332087811781,101.13439523978741 50.162167211587075,101.15895188645663 50.04110228869831,101.14667356387508 49.90994862210937,101.13439523978741 49.76870621211128,101.14667356387508 49.65773003268987,101.14667356387508 49.516487622633576,101.14667356387508 49.38533395610284,101.18350852713047 49.26426903321408,101.17123020753934 49.143204110267106,101.18350852713047 49.001961700152606,101.17123020753934 48.86071929009631,101.17123020753934 48.73965436714934,101.17123020753934 48.59841195703484,101.17123020753934 48.48743577772984,101.17123020753934 48.366370854724664,101.17123020753934 48.24530593177769,101.17123020753934 48.093974778137635,101.14667356387508 47.96282111166511,101.10983858718828 47.83166744513437,101.13439523978741 47.69042503501987,101.12211691425182 47.53909388137981,101.10983858718828 47.407940214907285,101.12211691425182 47.27678654837655,101.12211691425182 47.14563288184581,101.15895188645663 47.01447921531508,101.14667356387508 46.873236805258784,101.13439523978741 46.731994395144284,101.12211691425182 46.600840728671756,101.12211691425182 46.46968706214102,101.09756025863317 46.3082671649172,101.10983858718828 46.19729098555399,101.08528192863741 46.045959831855725,101.09756025863317 45.89462867821567,101.09756025863317 45.76347501168493,101.12211691425182 45.612143858044874,101.08528192863741 45.46081270434661,101.0484469296789 45.30948155070655,101.0484469296789 45.16823914059205,101.02389025626326 45.03708547411952,101.01161191730353 44.89584306400502,101.02389025626326 44.79495562822558,101.02389025626326 44.65371321811108,101.0484469296789 44.53264829516411,101.08528192863741 44.411583372275345,101.10983858718828 44.26025221863529,101.10983858718828 44.12909855210455,101.10983858718828 43.997944885573816,101.08528192863741 43.876879962626845,101.08528192863741 43.765903783321846,101.10983858718828 43.604483886039816,101.09756025863317 43.48341896315105,101.08528192863741 43.35226529656211,101.10983858718828 43.22111163008958,101.08528192863741 43.089957963558845,101.0607252641712 42.93862680991879,101.0607252641712 42.817561886971816,101.0484469296789 42.696496964024846,101.03616859369504 42.53507706680102,100.99933357689588 42.40392340027029,101.0484469296789 42.242503503046464,101.02389025626326 42.11134983651573,101.01161191730353 41.990284913626965,101.02389025626326 41.8389537599287,101.02389025626326 41.69771134987241,101.01161191730353 41.56655768334167,101.01161191730353 41.40513778611785,101.02389025626326 41.29416160675464,101.03616859369504 41.142830453056376,101.0607252641712 41.03185427369317,100.98705523499666 40.88052312005311,100.98705523499666 40.75945819710614,100.98705523499666 40.61821578704985,100.97477689158404 40.47697337693535,100.98705523499666 40.35590845398838,101.01161191730353 40.214666043932084,100.97477689158404 40.08351237740135,100.98705523499666 39.942269967345055,100.96249854671623 39.801027557230555,100.96249854671623 39.679962634283584,100.95022020035685 39.568986454978585,100.90110680001817 39.43783278844785,100.90110680001817 39.306679121917114,100.91338515232201 39.15534796821885,100.93794185249135 39.02419430174632,100.92566350313427 38.90312937879935,100.97477689158404 38.77197571226861,100.97477689158404 38.61055581504479,100.97477689158404 38.47940214857226,100.98705523499666 38.34824848204153,100.95022020035685 38.22718355915276,100.95022020035685 38.11620737973135,100.96249854671623 37.97496496961685,100.95022020035685 37.82363381597679,100.96249854671623 37.692480149446055,100.92566350313427 37.53106025228044,100.91338515232201 37.43017281644279,100.92566350313427 37.28893040632829,100.92566350313427 36.986268099048175,100.93794185249135 36.693694535293616,100.91338515232201 36.52218589448603,100.851993375858 36.12872489495203,100.96249854671623 35.79579635686241,100.93794185249135 35.55366651096847,100.86427173412812 35.33171415224206,100.86427173412812 35.06940681923879,100.81515829220007 34.877720691263676,100.82743665490125 34.58514712750912,100.82743665490125 34.312751050980296,100.96249854671623 34.050443717918824,100.88882844620821 33.737692666996736,101.03616859369504 29.873703876684885,100.81515829220007 29.621485287265386,100.7292097115278 29.389444185013417,100.77832319508889 29.046426903340034,100.81515829220007 28.76394208316924,100.7292097115278 28.441102288663387,100.6800962041234 28.198972442827653,100.64326105800137 24.910042036441155,100.6800962041234 24.617468472686596,100.65553944155545 24.284539934655186,100.630982672963 24.042410088761244,100.66781782358885 23.810368986509275,100.5941475090076 23.48752919200342,100.55731233165716 23.184866884665098,100.60642589846248 22.89229332091054,100.5941475090076 20.360018682898954,100.5695907255722 19.986735170532484,100.5941475090076 19.7849602989736,100.5941475090076 19.593274170940276,100.58186911805387 19.52265296591213,100.5695907255722 19.341055581520777,100.5204771409044 19.12919196637813,100.5695907255722 18.907239607651718,100.55731233165716 18.7155534796766,100.48364193683665 18.48351237742463,100.47136353248789 18.231293788005132,100.47136353248789 17.96898645494366,100.54503393625055 17.86809901916422,100.42224990022078 16.697804764145985,100.53275553931599 16.445586174726486,100.48364193683665 16.243811303167604,100.48364193683665 15.94114899582928,100.47136353248789 15.65866417560028,100.49592033967201 15.396356842597015,100.49592033967201 15.103783278842457,100.50819874103036 14.851564689422958,100.43452831049945 14.599346099945251,100.47136353248789 14.367304997693282,100.43452831049945 14.034376459661871,100.4468067193302 13.842690331628546,100.39769307518873 13.479495562845841,100.45908512661845 13.1263895376469,100.40997148847237 13.00532461469993,100.48364193683665 13.065857076144312,100.75376645626966 13.055768332618754,100.92566350313427 13.096123306895606,101.20806516192533 12.934703409613576,101.29401333678834 12.874170948227402,101.08528192863741 12.783372255973518,100.92566350313427 12.61186361516593,100.98705523499666 12.480709948635194,101.23262179076119 12.400000000023283,101.36768314296933 12.430266230774578,101.68691835137724 12.480709948635194,101.98159611343726 12.541242410137784,102.26399483195564 12.601774871582165,102.57094906893326 12.65221858950099,102.86562426244927 12.722839794529136,103.08663009571319 12.743017281696666,103.29535738490085 12.763194768805988,103.52864031746867" stroke="#4DD2FF" stroke-dasharray="none" stroke-linecap="round" stroke-linejoin="round" stroke-width="0.5"><title>2013-12-10 10.9km</title><desc>9223370650177580807</desc></polyline><polyline fill="none" opacity="1" points="99.50675310380757,123.60000000009313 100.98649379424751,115.80002781609073 102.95948138087988,106.80004467908293 102.95948138087988,101.40004696324468 102.46623448468745,92.40003771567717 100.0,85.2000185684301 97.04051861912012,80.39999999990687" stroke="#4DD2FF" stroke-dasharray="none" stroke-linecap="round" stroke-linejoin="round" stroke-width="0.5"><title>2013-11-30 10.3km</title><desc>9223370651086224807</desc></polyline><polyline fill="none" opacity="1" points="175.80091899074614,106.20788891729899 176.03152885008603,102.28061998845078 177.41518800146878,97.2312644557096 177.41518800146878,96.10918395733461 175.80091899074614,93.02345978678204 178.1070175776258,90.49877332313918 176.49274856690317,89.37668956816196 174.87847955711186,86.8519991368521 172.80299082957208,83.7662626572419 170.95811196044087,83.20521922083572 167.9601837983355,80.4000000001397 163.34798662550747,82.64417564729229 160.11944860499352,86.01043504965492 157.12152044288814,89.09616854530759 155.96847114898264,91.05981499678455 155.73786129057407,95.5481435037218 157.3521303012967,99.75594359473325 155.5072514321655,103.40269750310108 154.58481199666858,105.92736992868595 155.2766415728256,108.17152088950388 154.35420214012265,111.25722491787747 154.58481199666858,114.34292484284379 154.58481199666858,117.98965582833625 156.66030072513968,119.39224314200692 159.4276190288365,121.35586395906284 162.88676690869033,122.75844923895784 165.8846950698644,123.60000000009313 169.11323309037834,123.03896619309671 171.88055139407516,120.79482960957102 174.4172598393634,117.98965582833625 176.03152885008603,114.0624068370089 176.26213870756328,110.97670653951354 176.49274856690317,107.89100213861093 176.49274856690317,104.52477447572164 175.80091899074614,101.15854193037376 176.49274856690317,97.79230450256728 176.72335842624307,94.98710291530006 177.64579785987735,91.62085653445683 177.1845781430602,88.5351263966877 175.80091899074614,85.72991361888126 173.95604012254626,83.7662626572419 171.88055139407516,82.92469745082781 168.6520133735612,82.08313193893991 165.8846950698644,82.08313193893991 162.65615704935044,83.7662626572419 160.81127818115056,84.32730595883913 158.73578945267946,86.57147780805826 157.12152044288814,88.5351263966877 156.89091058447957,91.62085653445683 155.96847114898264,95.5481435037218 156.4296908667311,98.63386431708932 155.73786129057407,102.56113941781223 155.73786129057407,104.52477447572164 155.2766415728256,109.01307694031857 153.8929824223742,112.94033447606489 154.35420214012265,116.86758536635898 155.73786129057407,118.83120831870474 159.65822888724506,119.95327783143148" stroke="#4DD2FF" stroke-dasharray="none" stroke-linecap="round" stroke-linejoin="round" stroke-width="0.5"><title>2013-11-16 10.4km</title><desc>9223370652294258807</desc></polyline><polyline fill="none" opacity="1" points="45.09810078795999,150.60009392397478 45.34472524933517,146.4000913859345 45.837974173016846,143.1000844053924 45.59134971071035,138.90006917435676 45.837974173016846,135.90005394420587 44.60485186241567,132.6000330010429 40.41223600972444,129.90001260256395 36.712869081646204,129.00000514974818 33.013502151705325,129.00000514974818 29.06751076038927,130.50001738895662 26.354641679674387,132.30003087921068 25.121519369073212,136.50005727959797 23.395148135721684,141.30007874849252 23.395148135721684,144.30008745123632 23.148523674346507,147.0000921834726 22.40865028835833,151.20009370637126 22.655274749733508,155.10008875629865 22.40865028835833,158.10008077835664 22.655274749733508,163.20005889236927 23.64177259709686,165.60004496737383 26.108017217367887,167.7000308786519 30.793881993740797,171.60000000009313 34.73987338505685,171.60000000009313 38.43924031406641,170.40001015365124 40.65886047203094,169.20001972699538 43.37172955367714,165.90004306309856 44.111602938733995,163.20005889236927 43.86497847735882,159.000077677425 44.35822740197182,154.2000904425513 45.34472524933517,151.20009370637126 46.08459863439202,147.60009283619002 46.08459863439202,144.00008674431592 46.33122309669852,139.80007303715684 45.837974173016846,135.90005394420587 43.61835401598364,132.6000330010429 40.90548493433744,130.50001738895662 36.712869081646204,128.4000000001397 33.013502151705325,129.00000514974818 29.560759685002267,130.50001738895662 26.354641679674387,132.0000287219882 23.64177259709686,135.00004866719246 22.901899211108685,140.40007542981766 23.148523674346507,144.00008674431592 22.655274749733508,147.60009283619002 24.13502152170986,151.20009370637126 22.40865028835833,156.90008440450765 21.668776902370155,160.80007049744017 22.40865028835833,164.70005046087317 22.655274749733508,166.80003713420592 26.354641679674387,169.20001972699538 29.314135221764445,170.70000767009333 34.24662446137518,171.30000259238295 37.699366928078234,170.70000767009333 40.90548493433744,169.20001972699538 43.12510509137064,166.20004112226889 43.86497847735882,162.60006201080978 44.85147632472217,159.000077677425 45.34472524933517,155.4000881218817 45.59134971071035,152.10009310836904 46.08459863439202,149.1000938336365" stroke="#4DD2FF" stroke-dasharray="none" stroke-linecap="round" stroke-linejoin="round" stroke-width="0.5"><title>2013-11-03 10.7km</title><desc>9223370653417861807</desc></polyline><polyline fill="none" opacity="1" points="87.92526488378644,162.96006266516633 89.34582195524126,167.28003524802625 92.4236956126988,169.5840174248442 96.92212634254247,171.31200259411708 100.23675951175392,171.60000000009313 104.02491170540452,170.16001262003556 107.33954487461597,167.28003524802625 107.8130638981238,162.6720642137807 109.94389950763434,158.06408426584676 110.18065902031958,154.60809345706366 110.18065902031958,151.44009747868404 110.41741853114218,147.1200961722061 110.65417804382741,142.80008703446947 111.83797560445964,139.0560727783013 112.07473511714488,135.3120526385028 109.94389950763434,132.7200352489017 108.5233424352482,130.41601742454804 105.44546877872199,128.9760051521007 101.65731658414006,128.4000000001397 97.86916439142078,129.2640076763928 94.55453122220933,129.84001261997037 89.34582195524126,133.8720433257986 88.63554341997951,135.0240508459974 88.63554341997951,136.46405946207233" stroke="#4DD2FF" stroke-dasharray="none" stroke-linecap="round" stroke-linejoin="round" stroke-width="0.5"><title>2013-11-02 10.5km</title><desc>9223370653505000807</desc></polyline><polyline fill="none" opacity="1" points="174.6565280323848,162.96006684168242 175.54437706060708,159.18008557590656 175.54437706060708,155.94009654247202 175.7663393188268,152.70010280935094 175.54437706060708,149.46010437584482 175.54437706060708,146.49010168295354 176.43222609069198,142.98009340977296 176.87615060433745,140.01008210144937 176.43222609069198,137.31006839242764 175.32241480425,134.34004954481497 173.99064126145095,132.72003759886138 170.4392451448366,130.56001984444447 167.7756980592385,128.4000000001397 165.3341132281348,129.48001018329524 162.0046793706715,130.8300221778918 159.78505679685622,132.45003549358808 158.67524551134557,135.69005860155448 158.2313209977001,138.12007284793071 157.7873964831233,141.63008875912055 156.45562293939292,144.33009724435396 156.01169842481613,146.76010209089145 156.23366068210453,150.81010429398157 157.7873964831233,154.32010026299395 154.90188713837415,155.13009854895063 155.12384939659387,156.21009580790997 154.45796262472868,157.56009164638817 154.90188713837415,163.23006525845267 160.22898131329566,166.20004569296725 165.77803774364293,167.55003549298272 167.1098112873733,167.55003549298272 169.10747160110623,167.55003549298272 171.77101868763566,168.3600289823953 173.99064126145095,164.0400603134185 174.6565280323848,162.96006684168242 174.8784902896732,160.5300796192605 175.54437706060708,159.18008557590656 173.54671674594283,158.91008666879497 174.8784902896732,158.10008975397795 176.2102638334036,155.94009654247202 175.9883015761152,150.81010429398157 176.2102638334036,149.46010437584482 175.7663393188268,146.2201012421865 176.2102638334036,142.1700907170307 175.7663393188268,136.7700652598869 175.32241480425,133.26004171161912 173.54671674594283,129.75001264712773 169.55139611661434,129.48001018329524 165.77803774364293,129.21000768686645 162.6705661425367,130.56001984444447 159.78505679685622,132.72003759886138 156.67758519575,133.26004171161912 156.45562293939292,137.58006991050206 156.23366068210453,140.55008445074782 156.01169842481613,144.0600965428166 154.90188713837415,147.57010311936028 155.34581165295094,151.62010385282338 155.12384939659387,155.13009854895063 154.90188713837415,159.18008557590656 154.90188713837415,161.61007426702417 158.45328325405717,165.66004954348318 164.00233968626708,168.63002674723975 166.44392451550812,169.98001507879235 169.32943385839462,171.60000000009313 173.32475448958576,167.82003335561603 175.1004525469616,162.69006839231588 175.54437706060708,159.7200832911767 175.54437706060708,158.6400877290871 175.1004525469616,153.24010209064 174.8784902896732,148.92010417976417 175.32241480425,146.2201012421865 175.54437706060708,142.98009340977296 177.09811286255717,138.93007700890303 175.7663393188268,135.96006031497382 174.43456577509642,134.34004954481497 172.88082997407764,130.8300221778918 170.21728288847953,130.02001507859677 166.0,129.75001264712773 162.0046793706715,130.56001984444447 159.78505679685622,130.8300221778918 156.89954745396972,132.72003759886138 154.90188713837415,135.69005860155448 154.67992488108575,138.39007426798344 155.34581165295094,139.7400808769744 154.23600036650896,142.71009254432283 154.67992488108575,145.95010076928884 154.90188713837415,147.57010311936028 154.45796262472868,150.27010442432947 154.90188713837415,153.78010124200955 154.67992488108575,157.02009340864606 154.90188713837415,161.34007565444335 157.5654342258349,166.20004569296725 161.7827171124518,168.63002674723975 163.11449065618217,168.3600289823953 166.0,169.98001507879235 167.99766031466424,169.1700221770443 171.1051319167018,171.33000259427354 173.32475448958576,168.63002674723975 174.8784902896732,162.42006990942173 173.99064126145095,158.37008875748143 175.1004525469616,151.35010403278284 174.8784902896732,147.0301024664659 174.8784902896732,145.68010026379488 176.43222609069198,142.98009340977296 177.76399963349104,140.82008557626978 177.09811286255717,136.7700652598869 175.32241480425,132.1800333559513 173.10279223136604,129.75001264712773 169.9953206302598,128.6700025945902 166.0,128.94000515691005 161.1168303405866,130.56001984444447 157.1215097112581,132.1800333559513 156.67758519575,133.53004371840507 155.56777391023934,134.61005142168142 155.78973616752774,137.04006684245542 156.01169842481613,138.6600756549742 156.23366068210453,142.1700907170307 156.23366068210453,143.5200950417202 156.23366068210453,147.84010339644738 156.01169842481613,149.19010429433547 155.12384939659387,151.62010385282338 155.78973616752774,155.13009854895063 154.90188713837415,156.21009580790997 155.12384939659387,161.07007700833492 156.23366068210453,162.15007139416412" stroke="#4DD2FF" stroke-dasharray="none" stroke-linecap="round" stroke-linejoin="round" stroke-width="0.5"><title>2013-10-26 11.1km</title><desc>9223370654110301807</desc></polyline><polyline fill="none" opacity="1" points="28.042071488685906,217.89475188939832 30.845802552998066,218.46316806343384 34.11682212725282,217.89475188939832 38.08877446874976,216.18950254260562 41.359794043935835,213.91583482245915 42.29437106475234,209.93691102182493 42.06072680931538,206.52639954793267 42.52801532112062,202.26325324806385 42.52801532112062,198.85273064253852 42.52801532112062,195.1579922370147 43.92988085281104,191.4632480267901 45.565390639938414,189.18955639493652 46.49996766168624,186.63165068160743 46.26632340531796,184.07374218595214 43.92988085281104,181.23161837016232 40.8925055321306,179.81055517448112 37.855130213312805,177.25263925665058 34.58411063905805,176.4000000001397 31.0794468075037,177.82106525660492 28.27571574319154,180.09476788225584 25.705628934316337,182.6526807071641 25.238340424373746,185.77901482582092 25.238340424373746,189.4737679695245 24.771051913499832,192.60009301709943 24.30376340262592,196.86325683817267 21.50003233831376,199.9895720607601 21.967320849187672,203.68430287321098 21.733676593750715,207.94744659680873 22.200965103693306,211.07374708005227 22.200965103693306,213.91583482245915 24.30376340262592,216.75791912851855 27.341138722375035,219.0315841003321 30.61215829756111,219.60000000009313 34.58411063905805,219.0315841003321 37.154197447001934,217.610543750925 40.8925055321306,215.90529419737868 41.82708255480975,213.6316262029577 43.462592341937125,210.22112008789554 43.92988085281104,206.81060902611353 43.92988085281104,203.1158831268549 44.39716936368495,199.70536175812595 45.0981021290645,195.4422030900605 45.33174638450146,192.0316705906298 45.79903489537537,189.18955639493652 45.565390639938414,185.49480280443095 44.63081361912191,181.80004340759479 42.52801532112062,179.24212965508923 39.4906400013715,178.10527820512652 35.98597617074847,177.53685227409005 32.48131234012544,177.53685227409005 29.21029276587069,178.95791684417054 25.705628934316337,181.23161837016232 24.30376340262592,184.07374218595214 25.004696168005466,188.33692146651447 23.602830636315048,191.74745932617225 23.36918638087809,194.58957042940892 23.36918638087809,198.28430972713977 21.733676593750715,201.69483315735124 22.200965103693306,206.52639954793267 21.967320849187672,209.3684927856084 23.36918638087809,212.21058258996345 24.30376340262592,215.90529419737868 25.238340424373746,217.610543750925 30.845802552998066,219.0315841003321 34.81775489356369,218.46316806343384 37.38784170243889,216.18950254260562 41.59343829844147,212.77900013769977 43.22894808650017,211.9263737637084 43.92988085281104,209.08428361662664 43.462592341937125,205.95798048726283 43.462592341937125,202.26325324806385" stroke="#4DD2FF" stroke-dasharray="none" stroke-linecap="round" stroke-linejoin="round" stroke-width="0.5"><title>2013-10-20 10.7km</title><desc>9223370654628121807</desc></polyline><polyline fill="none" opacity="1" points="102.68270848505199,176.39999999990687 99.8722519762814,180.12952503026463 98.85026779212058,183.54825155553408 98.85026779212058,186.96697353525087 98.0837796535343,190.6964832372032 97.8282836060971,195.358362757368 96.5508033754304,199.08786028670147 97.06179546751082,202.5065616031643 95.78431523684412,206.85762943164445 98.59477174561471,209.65474057593383 99.61675593070686,213.38421736867167 101.66072429995984,217.42447778885253 104.21568476315588,219.60000000009313" stroke="#4DD2FF" stroke-dasharray="none" stroke-linecap="round" stroke-linejoin="round" stroke-width="0.5"><title>2013-10-19 10.2km</title><desc>9223370654714312807</desc></polyline><polyline fill="none" opacity="1" points="155.6620393525809,195.33708015549928 154.93230095412582,198.59187605278566 154.68905482254922,201.8466676226817 154.68905482254922,205.98912336095236 155.17554708756506,209.83568312670104 156.87827001698315,213.68223684793338 158.09450068231672,215.75345557858236 161.01345427706838,219.00822432828136 164.66214626841247,219.00822432828136 167.58109986409545,219.60000000009313 170.98654572386295,218.1205605531577 173.66225318517536,216.34523203712888 175.3649761164561,212.79457114078104 175.85146838147193,208.35623777774163 176.09471451491117,203.6220066549722 176.09471451491117,200.66310755256563 176.09471451491117,197.11242390889674 177.06769904587418,194.1535169375129 177.79743744432926,190.60282385186292 177.55419131275266,186.164450250566 175.3649761164561,179.95071368920617 172.68926865514368,177.87946466286667 167.8243459975347,176.4000000001397 164.90539240278304,176.6958930043038 161.98643880710006,179.35892843198963 159.31073134578764,181.4301762059331 158.58099294733256,184.38909855671227 157.12151614949107,189.12336687906645 155.6620393525809,193.56173511454836 155.6620393525809,197.11242390889674 154.20256255567074,200.66310755256563 154.44580868817866,204.50967568764463 154.68905482254922,207.76445938879624 154.20256255567074,211.31512758042663 156.14853161852807,215.4575672952924 158.8242390807718,218.1205605531577 161.49994654208422,218.41644851467572 166.60811533220112,219.00822432828136 169.52706892602146,217.52878452464938 172.68926865514368,214.86579062230885" stroke="#4DD2FF" stroke-dasharray="none" stroke-linecap="round" stroke-linejoin="round" stroke-width="0.5"><title>2013-10-12 10.6km</title><desc>9223370655320152807</desc></polyline><polyline fill="none" opacity="1" points="34.710278537124395,267.60000000009313 38.97194975428283,265.8720150399022 41.57630438823253,263.8560310017783 43.943899508565664,260.6880526384339 44.890937557443976,256.9440727783367 45.12769706826657,252.33608948835172 43.943899508565664,248.59209650335833 44.180659021250904,243.40809650346637 45.36445658095181,239.37608870584518 45.60121609363705,236.2080777916126 46.54825414158404,233.32806421397254 45.837975605390966,231.0240508459974 43.23362097237259,227.28002436971292 38.97194975428283,225.84001261997037 35.42055707331747,224.9760051521007 32.57944292854518,224.9760051521007 30.21184780728072,226.12801503995433 26.1869361018762,228.14403100241907 24.76637902855873,231.0240508459974 23.81934098061174,234.48007006268017 24.05610049236566,238.5120861462783 24.05610049236566,241.96809450211003 24.292860004119575,245.13609775714576 24.05610049236566,248.88009617221542 22.398783908225596,251.47209162986837 21.6885053711012,254.3520832741633 21.451745859347284,257.2320714369416 22.398783908225596,260.1120561193675 23.582581467926502,262.41604135814123 25.239898052997887,265.296019774396 28.317771709524095,266.7360076766927 31.632404879666865,266.7360076766927 36.6043546339497,267.60000000009313 39.68222829140723,264.72002436965704 41.57630438823253,262.1280433256179 43.943899508565664,258.3840657279361 44.180659021250904,254.3520832741633 44.180659021250904,250.89609288284555 45.36445658095181,247.15209763497114 46.07473511714488,243.69609680003487 45.837975605390966,240.52809162950143 45.837975605390966,237.93608426721767 46.31149462983012,234.48007006268017 45.60121609363705,231.6000543970149 44.65417804475874,229.00803732057102 43.23362097237259,226.12801503995433 40.155747315846384,224.4000000001397 36.6043546339497,224.4000000001397 32.57944292854518,224.4000000001397" stroke="#4DD2FF" stroke-dasharray="none" stroke-linecap="round" stroke-linejoin="round" stroke-width="0.5"><title>2013-10-06 10.6km</title><desc>9223370655838244807</desc></polyline><polyline fill="none" opacity="1" points="93.65822888817638,230.2909564457368 93.42761902883649,231.97408411232755 92.50517959613353,234.77929417719133 92.27456973679364,237.86502133100294 91.5827401606366,242.07282447465695 90.89091058447957,245.15854193037376 91.5827401606366,248.80529363360256 90.660300726071,251.89100213861093 90.19908100832254,255.53774326271378 89.27664157561958,258.3429248428438 89.27664157561958,260.3065499314107 90.19908100832254,263.3922431420069 91.8133500199765,265.6363810834009 95.96432747505605,266.75844923895784 99.19286549650133,267.60000000009313 102.19079365767539,266.75844923895784 105.18872181978077,266.47793225129135 107.26421054638922,264.23379512433894 108.64786969870329,261.98965582833625 109.57030913420022,258.0624068370089 109.33969927486032,254.97670653951354 110.26213870942593,251.04944568034261 110.26213870942593,247.40269750310108 110.03152885008603,243.75594359473325 109.80091899260879,238.98710291530006 110.26213870942593,235.62085653445683 110.95396828558296,234.21825243486091 110.26213870942593,231.41304169245996 107.95604012254626,228.88834912492894 104.9581119613722,226.0831319389399 102.88262323383242,225.2415661229752 99.65408521238714,225.80261003412306 96.19493733346462,225.80261003412306 94.35005846433342,226.6441756472923 93.19700917135924,229.72991361888126 91.5827401606366,232.5351263966877 91.35213030222803,235.62085653445683 90.660300726071,239.26762322615832 89.96847115084529,243.19490402424708 89.5072514321655,245.7195810272824 88.81542185787112,248.80529363360256 88.81542185787112,252.17152088950388 87.89298242330551,255.53774326271378 87.43176270555705,258.0624068370089 87.66237256396562,261.14810303226113 88.81542185787112,263.6727605035994 91.8133500199765,266.19741522870027 95.50310775730759,267.0389661930967 99.65408521238714,267.319483113708 103.34384294971824,266.75844923895784 105.8805513959378,264.794829609571 108.64786969870329,262.55069085536525 109.80091899260879,258.3429248428438 110.26213870942593,255.53774326271378 110.72335842624307,252.4520396075677 110.95396828558296,249.6468509058468 111.4151880024001,245.7195810272824 111.64579786174,243.4754238263704 111.87640772014856,240.3897041331511 112.10701757855713,237.5845008501783 112.3376274369657,234.49877332313918 111.64579786174,231.69356291904114 110.4927485678345,229.1688706574496 108.18664998188615,226.6441756472923 105.64994153752923,225.2415661229752 102.88262323383242,224.4000000001397 100.57652464695275,224.96104411478154 96.65615705028176,225.52208809531294 93.88883874751627,227.20521922083572 92.50517959613353,230.8519991368521 90.89091058447957,235.34033578261733 89.96847115084529,238.14554177806713 89.7378612915054,240.3897041331511 89.5072514321655,243.4754238263704 89.7378612915054,246.56113941781223 89.96847115084529,249.92736992868595 89.7378612915054,253.01307694031857 89.5072514321655,256.3792980927974 89.96847115084529,259.7455143611878 91.35213030222803,262.83120831870474 93.88883874751627,264.5143123844173 96.65615705028176,267.319483113708 100.57652464695275,267.319483113708 102.88262323383242,267.0389661930967 106.34177111368626,265.35586395906284 108.41725984029472,263.3922431420069 109.57030913420022,260.0260321632959 110.03152885008603,257.2208526181057 110.95396828558296,254.13515119976364 110.95396828558296,250.76892679347657 111.64579786174,247.96373605774716 111.64579786174,244.8780223308131 111.4151880024001,241.79230450256728 112.56823729537427,238.14554177806713 111.64579786174,235.34033578261733 110.72335842624307,231.97408411232755 110.03152885008603,229.44939215504564 107.49482040572912,227.7662626572419 104.26628238521516,226.0831319389399 101.26835422310978,226.6441756472923 97.11737676803023,226.9246974508278 94.11944860592484,228.88834912492894 92.7357894545421,230.8519991368521 90.660300726071,234.21825243486091 90.19908100832254,236.46241858764552 89.27664157561958,240.1091839573346 89.5072514321655,243.19490402424708" stroke="#4DD2FF" stroke-dasharray="none" stroke-linecap="round" stroke-linejoin="round" stroke-width="0.5"><title>2013-09-29 10.5km</title><desc>9223370656443428807</desc></polyline><polyline fill="none" opacity="1" points="170.0458894195035,225.76710125035606 166.00000000093132,224.94684059894644 163.30274038854986,226.5873616025783 160.83025241084397,228.22788141667843 159.7063942393288,232.055756355403 158.35776443313807,233.6962722032331 157.6834495300427,238.6178126083687 157.00913462694734,240.80516046099365 156.78436299227178,244.9064319843892 156.78436299227178,247.09377375710756 156.55959135852754,249.28111341316253 156.55959135852754,253.38236956926994 155.2109615523368,255.56970314332284 155.6605048207566,261.0380278278608 156.55959135852754,263.4987696236931 161.95411058235914,265.4126780577935 164.2018269263208,265.95950874197297 167.5734014417976,265.95950874197297 171.61929085943848,264.86584724183194 174.5413221064955,262.1316911787726 176.5642668157816,258.0304508882109 177.23858171794564,253.65578638156876 175.66518027801067,250.92161676776595 174.09177883714437,249.55453072185628 175.88995191268623,245.17984982184134 177.4633533526212,239.98490526387468 177.91289662197232,238.07097531366162 177.23858171794564,235.06336783478037 178.36243989039212,231.235497985268 175.66518027801067,228.50130126997828 172.9679206656292,225.49368106527254 171.16974759101868,224.94684059894644 165.77522836625576,225.49368106527254 164.2018269263208,225.76710125035606 161.27979567926377,228.22788141667843 158.80730770155787,230.41523931804113 158.1329927984625,232.87601442844607 157.6834495300427,236.43046263838187 156.55959135852754,241.07857879367657 157.00913462694734,244.35959621169604 157.23390626069158,246.54693851224147 156.55959135852754,250.92161676776595 157.00913462694734,254.20261990698054 155.6605048207566,258.3038671386894 156.33481972385198,261.5848595700227 156.55959135852754,263.4987696236931 160.38070914242417,264.86584724183194 163.97705529164523,267.3265848727897 166.22477163467556,266.77975451922975 169.14680288173258,265.95950874197297 172.0688341287896,264.86584724183194 174.9908653749153,261.5848595700227 175.21563700959086,259.3975318111479 175.88995191268623,256.66336913825944 176.78903844952583,253.92920316033997 177.91289662197232,250.92161676776595 177.0138100842014,247.3671913293656 175.88995191268623,243.53934230282903 176.11472354643047,240.5317420954816 176.5642668157816,237.25071912514977 177.68812498729676,236.43046263838187 178.58721152413636,232.87601442844607 177.23858171794564,230.14181969570927 178.36243989039212,230.41523931804113 177.91289662197232,227.68104161159135 174.76609374023974,226.31394151831046 171.39451922569424,225.22026084875688 168.24771634489298,224.6734203158412 164.2018269263208,225.76710125035606 161.0550240445882,228.22788141667843 158.35776443313807,230.14181969570927 158.1329927984625,233.42285297834314 155.88527645543218,237.25071912514977 154.53664664924145,241.62541536078788 156.11004808917642,241.62541536078788 156.78436299227178,243.2659242679365 156.33481972385198,246.8203561506234 155.6605048207566,250.92161676776595 153.41278847679496,253.10895272321068 155.43573318701237,256.11653620772995 155.6605048207566,258.57728335657157 157.23390626069158,262.9519383441657 159.256850970909,265.4126780577935 161.95411058235914,266.23292403365485 165.77522836625576,266.23292403365485 169.37157451640815,267.60000000009313 172.9679206656292,266.23292403365485 174.09177883714437,264.0456007702742 174.31655047181994,260.49119595531374 175.66518027801067,259.3975318111479 175.88995191268623,255.29628656315617 177.91289662197232,248.73427869705483 177.91289662197232,244.08617827459238 175.88995191268623,241.35199709353037 176.5642668157816,238.07097531366162 177.0138100842014,235.61020585522056 177.4633533526212,232.055756355403 177.23858171794564,230.14181969570927 175.66518027801067,227.1342016728595 172.0688341287896,225.76710125035606 168.69725961331278,224.4000000001397 166.00000000093132,225.76710125035606" stroke="#4DD2FF" stroke-dasharray="none" stroke-linecap="round" stroke-linejoin="round" stroke-width="0.5"><title>2013-09-22 10.9km</title><desc>9223370657048162807</desc></polyline></svg>