<?xml version="1.0" encoding="utf-8" ?>
<svg baseProfile="full" height="300mm" version="1.1" viewBox="0,0,200,300" width="200mm" xmlns="http://www.w3.org/2000/svg" xmlns:ev="http://www.w3.org/2001/xml-events" xmlns:xlink="http://www.w3.org/1999/xlink"><defs /><rect fill="#222222" height="300" width="200" x="0" y="0" /><text fill="#FFFFFF" style="font-size:12px; font-family:Arial; font-weight:bold;" x="10" y="20">Over 10km Runs</text><text fill="#FFFFFF" style="font-size:4px; font-family:Arial" x="10" y="280">Runner</text><text fill="#FFFFFF" style="font-size:9px; font-family:Arial" x="10" y="290">keep</text><text fill="#FFFFFF" style="font-size:4px; font-family:Arial" x="65" y="280">SPECIAL TRACKS</text><rect fill="yellow" height="2.6" width="2.6" x="65" y="283" /><text fill="#FFFFFF" style="font-size:3px; font-family:Arial" x="70" y="285.5">Over 20.0 km</text><rect fill="red" height="2.6" width="2.6" x="65" y="287" /><text fill="#FFFFFF" style="font-size:3px; font-family:Arial" x="70" y="289.5">Over 40.0 km</text><text fill="#FFFFFF" style="font-size:4px; font-family:Arial" x="120" y="280">STATISTICS</text><text fill="#FFFFFF" style="font-size:3px; font-family:Arial" x="120" y="285">Number: 15</text><text fill="#FFFFFF" style="font-size:3px; font-family:Arial" x="120" y="290">Weekly: 1.2</text><text fill="#FFFFFF" style="font-size:3px; font-family:Arial" x="141" y="285">Total: 163.6 km</text><text fill="#FFFFFF" style="font-size:3px; font-family:Arial" x="141" y="290">Avg: 10.9 km</text><text fill="#FFFFFF" style="font-size:3px; font-family:Arial" x="167" y="285">Min: 10.2 km</text><text fill="#FFFFFF" style="font-size:3px; font-family:Arial" x="167" y="290">Max: 14.0 km</text><polyline fill="none" opacity="1" points="27.120678962470265,75.59999999999854 27.052608995494666,75.26802815559495 26.984539028519066,74.96818143896962 26.899451569799567,74.85038420817 26.831381602823967,74.66833360251621 26.746294144075364,74.4648647900467 26.686732923000818,74.20785081620124 26.695241668872768,73.88658219193167 26.746294144075364,73.56531228210952 26.754802889976418,73.27616826410667 26.737785398232518,72.93347770914988 26.746294144075364,72.63362227372272 26.746294144075364,72.34447490031744 26.76331163587747,72.02319881960284 26.771820381691214,71.75546777027193 26.865416586311767,71.51986370828672 27.095152724854415,71.42348002910876 27.358923846884863,71.40206141802628 27.375941338628763,71.25213098041422 27.42699381383136,71.11290960906626 27.435502559732413,70.86659428369603 27.45252005144721,70.54531228884298 27.299362625781214,70.28828576723026 27.018574011977762,70.1490627244275 27.010065266134916,69.81706834034412 27.06111774133751,69.48507258331665 27.10366147075547,69.17449466445396 27.154713945958065,68.84249625007214 27.205766421189765,68.51049646273896 27.239801404677564,68.23204396946676 27.25681889639236,67.97501004150399 27.341906355140964,67.88933188263036 27.375941338628763,67.68584588883823 27.341906355140964,67.54661833273713 27.375941338628763,67.45022988322307 27.435502559732413,67.23603291440668 27.503572526708012,66.97899579733348 27.563133747840766,66.71124792529736 27.64822120653116,66.38994929998444 27.733308665279765,66.07935940648895 27.809887378127314,65.80089848027274 27.94602731204941,65.64024750653334 28.10769348361646,65.69379786682111 28.328920876287157,65.74734819139849 28.567165760701755,65.59740719258116 28.737340678140754,65.36178505710996 28.847954374505207,65.12616223000805 29.001111800200306,64.82627763164783 29.162777971767355,64.52639191297203 29.315935397491558,64.25863586024934 29.477601569029503,63.98016861802898 29.62225024885265,63.7231210754544 29.7668989286758,63.423231235421554 29.94558259198675,63.10191944930557 30.141283747041598,62.748474998974416 30.362511139683193,62.34147643127653 30.575229786511045,61.96660750377487 30.74540470392094,61.677421706335736 30.924088367260993,61.3989455093033 31.10277203057194,61.13117902404338 31.23040321865119,60.92767589788127 31.400578136119293,60.65990784051246 31.613296782888938,60.349295774845814 31.698384241608437,60.07081496989849 31.834524175559636,59.749489763591555 32.02171658477164,59.46029597803863 32.25996146918624,59.23536675779178 32.49820635357173,59.04256978158082 32.659872525167884,58.77479543524532 32.79601245911908,58.57128633453249 32.90662615545443,58.464176074288844 33.00873110591783,58.22853299855342 33.10232731048018,57.99288923101267 33.20443226097268,57.842933745989285 33.40013341602753,57.78937814769597 33.510747112333775,57.80008927019662 33.63837830044213,57.68226684397814 33.75750074264943,57.543021935402066 33.93618440598948,57.360932075054734 34.123376815143274,57.10386333363567 34.30206047848333,56.900349996081786 34.27653424083837,56.64327977944049 34.26802549496642,56.386208739335416 34.31907797019812,56.11842553036695 34.50627037938102,55.86135280914459 34.701971534464974,55.647124912451545 34.84662021425902,55.39005068157712 34.96574265649542,55.05799524799659 35.135917573963525,54.811630651413 35.408197441807715,54.55455374430312 35.60389859689167,54.318899189369404 35.73152978497092,54.06182070392242 35.850652227178216,53.751183101936476 35.97828341528657,53.4726794020462 36.26758077493287,53.31200375092885 36.50582565931836,53.25844512906042 36.658983085042564,52.96922795338469 36.76108803550596,52.658586122255656 36.81214051073766,52.38007863063831 36.88021047768416,52.080146404900006 36.95678919053171,51.72665341400716 37.05038539512316,51.405294798343675 37.06740288689616,51.276750991768495 37.13547285387176,51.01966276092571 37.17801658323151,50.69830131409981 37.26310404195101,50.366226467063825 37.35670024654246,49.980589436345326 37.441787705232855,49.627087196822686 37.50134892636561,49.23073434919934 37.57792763921316,48.9415026572824 37.65450635208981,48.598708190984325 37.74810255662305,48.23448746600479 37.790646286011906,47.87026508786221 37.867224998859456,47.53817853759392 37.95231245754985,47.16324045802321 38.0288911703974,46.820438395036035 38.08845239155926,46.54191064048791 38.156522358505754,46.188393252065 38.1990660878655,45.9205760117984 38.28415354661411,45.69560883919621 38.3011710383289,45.55634313051996 38.36073225943255,45.24567260171898 38.4202934805362,44.913575189042604 38.5053809392557,44.54933773661469 38.573450906260405,44.20652450625494 38.63301212730585,44.00297845771274 38.6415208732069,43.86370981120126 38.6755558566947,43.617310844449094 38.752134569513146,43.26378057047259 38.8116957906459,42.88882251708128 38.88827450352255,42.56742850524461 38.9478357246262,42.35316511543351 38.99037945395685,42.149614365138405 39.0159056915727,42.04248218389694 39.07546691267635,41.92463661928923 39.09248440439114,41.806790881550114 39.05844942096155,41.59252546047355 39.0839756585483,41.31397955761349 39.12651938790805,41.04614604676317 39.19458935488365,40.87473213056364 39.271168067731196,40.73545805399772 39.5434479356627,40.79973842707841 39.82423654940794,40.90687226776208 40.11353390905424,40.981865871101036 40.28370882652234,41.0032926020358 40.32625255588209,40.767598246980924 40.31774381001014,40.51047634272982 40.33476130172494,40.221213215452735 40.35177879349794,39.85695446051977 40.36879628524184,39.48198048533959 40.44537499808939,39.18200004332175 40.34327004762599,38.95701397574885 40.13906014667009,38.93558669830236 39.841254041180946,38.989154881172 39.560465427377494,39.053436653390236 39.534939189761644,38.84987753134919 39.577482919121394,38.52846733966726 39.64555288609699,38.20705586036638 39.70511410720064,37.89635687300324 39.79871031179209,37.54280138928152 39.866780278796796,37.21067209127796 39.909324008156545,36.8999692451107 39.951867737516295,36.599979148413695 39.985902721004095,36.35355787260778 40.011428958619945,36.14999190000526 39.977393975132145,36.04285170688672 40.11353390905424,35.924997329260805 40.31774381001014,35.84999899876857 40.30072631826624,35.689288054527424 40.16458638428594,35.59286133343994 40.18160387602984,35.400007543561514 40.173095130186994,35.2928663488492 40.36879628524184,35.314294599258574 40.53046245680889,35.314294599258574 40.692128628346836,35.33572284389811 40.82826856232714,35.314294599258574 40.99844347979524,35.27143809271365 41.14309215956018,35.21786742741824 41.16010965133319,34.93929939105146 41.20265338069294,34.478588592661254 41.262214601796586,34.11430376268254 41.287740839412436,33.83573189413437 41.287740839412436,33.642873880024126 41.304758331156336,33.46072977428412 41.321775822900236,33.30001404338691 41.15160090546124,33.2142988552514 40.92186476691859,33.20358445028978 40.74318110360764,33.12858357551886 40.57300618616864,33.06429705562914 40.30923506410909,33.021439347088744 39.985902721004095,32.94643830204586 39.6966053613578,32.8928660840611 39.39879925583955,32.79643600154668 39.07546691267635,32.7535781498882 38.7946782989311,32.66786237789347 38.63301212730585,32.55000304179703 38.39476724292035,32.57143202488078 38.096961137402104,32.56071753402648 37.79915503191296,32.55000304179703 37.492840180464555,32.5285740530162 37.17801658323151,32.49643055906927 36.90573671530001,32.45357254714327 36.59091311803786,32.421429023153905 36.42924694647081,32.41071451227617 36.386703217140166,32.47500155596208 36.32714199603652,32.67857685437775 36.26758077493287,32.9035805305175 36.23354579141596,33.085725901335536 36.21652829967206,33.30001404338691 36.18249331615516,33.48215851405257 36.105914603336714,33.68573125657713 36.020827144617215,33.84644621467305 35.93573968592682,34.03930373939511 35.88468721069512,34.20001798916928 35.825125989562366,34.3714461673444 35.72302103906986,34.542873979196884 35.65495107212337,34.71430142474128 35.578372359246714,34.88572850392666 35.47626740881242,35.10001183778513 35.357144966576016,35.228581563336775 35.29758374550147,35.51786269247532 35.19547879503807,35.76428653523908 35.059338861115975,36.06427975695988 34.92319892710657,36.385699821090384 34.76153275556862,36.707118597427325 34.625392821617424,37.0071082935101 34.497761633538175,37.274955288521596 34.35311295368592,37.57494286126894 34.199955527990824,37.86421552980755 34.08083308581263,38.132059663243126 33.95320189773338,38.39990290244168 33.885131930728676,38.54989472584566 33.825570709625026,38.60346316621872 33.72346575919073,38.69988626882696 33.68092202980188,38.903445771436964 33.63837830044213,39.203427254957205 33.46820338300313,39.48198048533959 33.35758968669688,39.72839215217391 33.289519719721284,39.889095005433774 33.35758968669688,39.985516562876 33.61285206282628,40.01765705626167 33.91916691424558,40.028370551190164 34.24249925737968,40.07122451665782 34.548814108769875,40.11407845920621 34.87214645187487,40.16764585520286 35.18697004913702,40.21049974628113 35.45924991706852,40.253353614432854 35.74003853084287,40.26406707787828 35.876178464794066,40.19978627565433 35.93573968592682,39.985516562876 35.969774669385515,39.792673332114646 35.969774669385515,39.70696508078254 36.105914603336714,39.74981921788276 36.15696707853931,39.94266255165712 36.114423349208664,40.274780539926724 36.046353382233065,40.62832398448518 35.97828341528657,40.96043913443282 35.901704702409916,41.346119518872 35.842143481306266,41.699658242556325 35.75705602258677,42.02105573043082 35.71451229325612,42.331738744993345 35.63793358040857,42.620994263284956 35.62091608863557,42.920961847456056 35.62942483450752,43.220928310169256 35.41670618770877,43.48875456141104 35.33161872898927,43.73515392295667 35.24653127026977,44.0458303003179 35.21249628678197,44.30294087533548 35.19547879503807,44.602902171543974 35.34863622076227,44.731456669498584 35.33161872898927,45.052842013319605 35.28056625375757,45.39565162787039 35.178461303323274,45.81344886541774 35.09337384454557,46.1776805796253 35.05083011521492,46.52048538854433 35.01679513169802,46.863288732980436 35.00828638585517,47.184665538341505 34.99977763998322,47.50604105654202 34.99977763998322,47.84884019061428 34.98276014823932,48.21306266598549 34.97425140233827,48.53443406552833 34.94021641885047,48.866516492911614 34.91469018126372,49.14503617878654 34.85512896016007,49.48782831128483 34.80407648489927,49.84133116425073 34.72749777205172,50.15198390100704 34.77855024728342,50.47334753558971 34.72749777205172,50.816133994019765 34.65942780507612,51.158918988192454 34.48925288763712,51.45885465698666 34.30206047848333,51.70522954633634 34.03828935645288,51.89804414947139 33.80004447203828,52.11228205410589 33.57030833346653,52.31580753376329 33.35758968669688,52.54075614757312 33.263993482105434,52.69072153982415 33.153379785770085,52.80855129429983 33.02574859766173,53.01207500817691 32.93215239304118,53.22630993879284 32.83004744260688,53.536949572429876 32.66838127106894,53.858299652252754 32.49820635357173,54.158225232487894 32.34504892790574,54.42601498193835 32.26847021505819,54.67238076227659 32.25145272328518,54.908034279273124 32.42162764072418,55.03657226962241 32.387592657265486,55.33649344651349 32.30250519851688,55.58285643193085 32.34504892790574,55.66854772782972 32.24294397744234,55.56143359364796 32.07276906000334,55.797084500176425 31.88557665082044,56.11842553036695 31.698384241608437,56.32194085067749 31.46864810306579,56.55758952421456 31.33250816911459,56.8575050171421 31.26443820213899,57.10386333363567 31.10277203057194,57.33950971140439 30.983649588393746,57.382354433008004 30.736895958107198,57.382354433008004 30.490142327791546,57.35022089394624 30.200844968145248,57.30737615516409 29.894530116784154,57.30737615516409 29.65628523234045,57.31808734199876 29.511636552517302,57.37164325475169 29.4435665855126,57.37164325475169 29.36698787266505,57.57515539726592 29.21383044696995,57.78937814769597 29.188304209383205,58.04644469347113 29.111725496535655,58.29279936054809 28.984094308427302,58.49630916737078 28.967076816712506,58.581997352717735 28.813919390988303,58.742662453667435 28.584183252445655,58.95688208797219 28.405499589134706,59.18181208863825 28.499095793726156,59.3424759889167 28.550148268957855,59.4388741746734 28.60120074421866,59.620959320891416 28.635235727677355,59.85659830860823 28.62672698183451,60.092236604548816 28.592691998317605,59.942285041739524 28.414008335006656,60.027971683390206 28.260850909311557,60.28503105945856 28.116202229488408,60.54208961227414 27.93751856617746,60.75630444406852 27.80137863222626,61.03478287073813 27.682256190048065,61.31326033119694 27.571642493654508,61.54889435083169" stroke="#4DD2FF" stroke-dasharray="none" stroke-linecap="round" stroke-linejoin="round" stroke-width="0.5"><title>2017-12-17 14.0km</title><desc>9223370523376934807</desc></polyline><polyline fill="none" opacity="1" points="100.73871028108988,32.400000000001455 100.64718865335453,32.71262095630664 100.47721991606522,32.95942641500005 100.52951798914,33.222685026805266 100.66026317165233,33.48594307695021 100.68641220813151,33.749200565456704 100.68641220813151,34.04536456861388 100.6994867263129,34.30862086365232 100.67333768989192,34.65414389844227 100.67333768989192,34.99966596581362 100.56874154385878,35.31228033584193 100.59489058033796,35.476813896799285 100.73871028108988,36.21721220587642 100.64718865335453,36.46401065507962 100.80408287234604,36.76016814252216 100.8825299818418,37.023418645825586 100.92175353661878,37.319574790701154 100.94790257309796,37.697995496993826 100.96097709133755,38.04350904151215 101.00020064611454,38.32320977373456 101.05249871913111,38.65226864703436 101.14402034686645,38.91551511386933 101.18324390164344,39.22811956393707 101.23554197466001,39.55717602427467 101.27476552943699,39.869778848893475 101.47088330314728,39.90268436328188 101.64085204043658,40.05075906958518 101.6016284856596,40.215286312617536 101.4316597483703,40.31400255320477 101.35321263893275,40.49498212245817 101.44473426660988,40.74177201643761 101.57547944918042,41.05437184032053 101.69315011345316,41.3505183114321 101.75852270470932,41.64666407185723 101.90234240546124,41.926356637522986 102.04616210621316,42.20604856927093 102.21613084344426,42.53509708918136 102.20305632520467,42.81478764133499 101.95464047847781,42.86414473177865 101.71929914993234,42.716073401184985 101.53625589440344,42.56800189297792 101.34013812063495,42.45283504150575 101.09172227384988,42.551549492185586 100.86945546360221,42.551549492185586 100.67333768989192,42.69962102016143 100.68641220813151,42.86414473177865 100.6994867263129,43.12738221419568 100.46414539788384,43.25900074477977 100.1765059963218,43.374166843925195 99.91501563129714,43.42352371070592 99.61430171155371,43.42352371070592 99.64045074803289,43.20964381226804 99.70582333928905,42.91350180251902 99.79734496708261,42.650263863935834 99.88886659481796,42.321215651070816 99.94116466783453,41.94280912166141 99.96731370431371,41.613759022497106 99.91501563129714,41.284708045939624 99.86271755828056,40.88984571585752 99.65352526627248,40.80758257146954 99.36588586476864,40.80758257146954 99.20899164571892,40.64305611805321 99.18284260929795,40.52788747017621 99.16976809100015,40.28109714848688 99.15669357276056,40.067211803791 98.99979935376905,40.017853594625194 98.81675609829836,39.98494811094133 98.64678736100905,40.00140085389285 98.60756380617386,40.165928162772616 98.62063832447166,40.44562408443744 98.63371284271125,40.75822465845704 98.64678736100905,41.05437184032053 98.67293639754644,41.3505183114321 98.67293639754644,41.67956911249348 98.67293639754644,41.99216656087083 98.67293639754644,42.27185834348347 98.68601091572782,42.600906687948736 98.67293639754644,42.91350180251902 98.68601091572782,43.19319149701914 98.69908543402562,43.43997599519935 98.712159952207,43.67030774829618 98.69908543402562,43.86773462303245 98.68601091572782,44.130969964717224 98.65986187924864,44.37775258766487 98.64678736100905,44.59163046164031 98.62063832447166,44.77260375789774 98.60756380617386,45.00293302376667 98.56834025151329,45.23326185975748 98.58141476975288,45.43068623429281 98.58141476975288,45.71037022411474 98.58141476975288,46.022957462701015 98.58141476975288,46.351995805918705 98.56834025151329,46.66458141938347 98.58141476975288,46.96071442822722 98.59448928799247,47.27329849996022 98.59448928799247,47.5529783141028 98.60756380617386,47.882012578178546 98.60756380617386,48.12878770061798 98.60756380617386,48.42491719612735 98.58141476975288,48.6223364651305 98.58141476975288,48.86911010721087 98.5552657332737,49.099431728056516 98.60756380617386,49.37910740402003 98.64678736100905,49.64233099073317 98.68601091572782,49.92200543652143 98.7252344704466,50.251033384905895 98.77753254352137,50.612963115025195 98.85597965301713,50.958440503673046 98.96057579899207,51.27101445062726 99.05209742672741,51.51778279693099 99.16976809100015,51.84680649123766 99.2612897187937,52.12647594171722 99.39203490124783,52.35679148401687 99.4443329743226,52.48840017236216 99.54892912029754,52.71871503926377 99.65352526627248,52.94902947638184 99.69274882104946,53.12999051834777 99.71889785752865,53.31095129500318 99.84964304004097,53.44255896590039 99.96731370431371,53.574166496502585 100.07190985028865,53.73867571238952 100.1765059963218,53.903184709037305 100.29417666059453,54.117046076848055 100.39877280656947,54.31445624135813 100.58181606209837,54.462513657534146 100.76485931762727,54.70927562317229 100.93482805485837,54.956037095413194 101.09172227384988,55.18634735777596 101.24861649295781,55.41665719044977 101.31398908415576,55.56471328451153 101.4316597483703,55.77857177352416 101.6016284856596,56.025331108117825 101.7715972228907,56.25563937523111 101.95464047847781,56.568199907706 102.07231114269234,56.76560615198832 102.22920536168385,57.01236351332773 102.37302506249398,57.25912038135721 102.54299379972508,57.5552279719268 102.71296253701439,57.83488448851858 102.8829312743037,58.13099069785676 103.0659745297744,58.41064591003669 103.2359432670055,58.64094972667954 103.43206104077399,58.95350421909825 103.5758807415259,59.21670738834655 103.78507303353399,59.5457105606838 103.96811628906289,59.79246236445033 104.11193598987302,60.072113812479074 104.24268117232714,60.31886456401844 104.39957539131865,60.54916482041881 104.55646961036837,60.79591461834207 104.72643834759947,61.059113859133504 104.8441090118722,61.27296282905445 105.01407774916152,61.50326130538451 105.19712100463221,61.766459038015455 105.35401522368193,62.02965620942996 105.49783492443385,62.24350349800807 105.65472914336715,62.556048868747894 105.82469788071467,62.85214375323994 106.02081565442495,63.1646875829756 106.16463535517687,63.42788177319744 106.34767861076398,63.72397456645558 106.56994542101165,64.05296572601947 106.72683964000316,64.29970852030965 106.87065934075508,64.53000135000912 107.0275535597466,64.79319262932404 107.2105968152755,65.08928214782645 107.367491034267,65.40182031360018 107.5505342897377,65.7143576881208 107.69435399060603,65.99399572086259 107.83817369129974,66.27363312023226 107.94276983733289,66.55326988612796 108.07351501978701,66.89870266360958 108.13888761110138,67.17833801361121 108.16503664758056,67.32638000135194 108.04736598330783,67.47442181152292 108.00814242853085,67.55666718488646 108.09966405638261,67.47442181152292 108.25655827531591,67.5402181146128 108.32193086663028,67.75405585745466 108.41345249430742,68.0007912543224 108.51804864039877,68.29687307967106 108.6357193046133,68.62585205275536 108.75338996882783,68.95483014916681 108.87106063310057,69.28380736894906 108.94950774265453,69.5305397084885 109.02795485215029,69.7772715548781 109.15870003466262,70.07334911971702 109.26329618063755,70.33652858115966 109.36789232661249,70.59970748162596 109.44633943616645,70.84643719135056 109.48556299088523,71.07671780881356 109.57708461867878,71.33989513138658 109.68168076465372,71.63596894871444 109.78627691068687,71.93204205600341 109.87779853842221,72.22811445324623 109.96932016621577,72.4912893214132 110.04776727565331,72.73801525079762 110.16543793992605,73.03408571524051 110.27003408590099,73.28081055994699 110.38770475017373,73.59332798875403 110.49230089620687,73.88939640209719 110.6230460787192,74.1854641054233 110.71456770645455,74.41573849500855 110.79301481600851,74.59666807119356 110.88453644374385,74.87628598566516 111.02835614449577,75.07366295573593 111.05450518097496,75.18879937588645 111.06757969927276,75.36972781923396 111.01528162625618,75.58355200131336 110.84531288896687,75.53420799221931 110.67534415173577,75.30393568868021 110.50537541444646,75.05721488692507 110.29618312249659,74.79404548833554 110.06084179395111,74.49797924431914 109.78627691068687,74.21836047311808 109.51171202742262,73.97163750202162 109.27637069887714,73.74136228417774 109.04102937038988,73.49463835983624 108.8318370783818,73.24791394245403 108.59649574983632,73.03408571524051 108.37422893958865,72.82025711771712 108.08658953808481,72.52418614045746 107.83817369129974,72.29390822289861 107.62898139923345,72.08007834336604 107.32826747949002,71.80045409595914 107.07985163276317,71.58662336177804 106.79221223125933,71.42213792964321 106.50457282969728,71.29054942616494 106.16463535517687,71.20830654019665 105.82469788071467,71.15896078237711 105.51090944267344,71.09316640788165 105.19712100463221,71.01092339050228 104.92255612136796,70.96157755378954 104.59569316514535,70.87933444868395 104.26883020880632,70.8628858210941 103.9550417708233,70.79709128884133 103.6020297780633,70.69839942467661 103.4189865225344,70.64905346305022 103.2359432670055,70.59970748162596 103.0529000114766,70.56681014980131 102.8567822377081,70.53391280914366 102.64758994575823,70.51746413556975 102.45147217193153,70.48456678170623 102.28150343475863,70.4352207346019 102.09846017917152,70.40232335889596 101.88926788716344,70.36942597440793 101.68007559515536,70.28718247488723 101.53625589440344,70.25428505973105 101.27476552943699,70.15559276165004 100.94790257309796,70.00755416662287 100.62103961687535,69.89241291445796 100.24187858757796,69.76082278047397 100.01961177738849,69.7114764440339 99.70582333928905,69.61278371202934 99.39203490124783,69.51409090116067 99.03902290854603,69.41539801139879 98.68601091572782,69.34960270769807 98.3460734411492,69.2180119951081 98.08458307618275,69.13576772853412 97.69234752870398,69.05352340712852 97.41778264543973,68.90548349059827 97.07784517091932,68.79034121055156 96.89480191533221,68.72454557368474 96.60716251382837,68.62585205275536 96.29337407578714,68.52715845284547 95.97958563780412,68.34621998154034 95.66579719976289,68.14883225576341 95.35200876177987,67.95144421437726 95.09051839675521,67.68825966834993 94.88132610474713,67.40862547334837 94.68520833103685,67.0960923882376 94.63291025796207,66.9151518193903 94.54138863016851,66.73421098537074 94.38449441123521,66.48747305705183 94.29297278344166,66.32298083081696 94.14915308268974,66.05979281301552 94.00533338193782,65.78015492925624 93.82229012646712,65.4511683726887 93.6653959074174,65.1057315446742 93.4954271701863,64.72739486212959 93.29930939641781,64.3326075222576 93.1293406591285,63.97071801833954 92.9462974035996,63.658176229320816 92.81555222114548,63.32918401763891 92.64558348385617,62.967291572043905 92.47561474662507,62.57249860320735 92.27949697279837,62.17770437175204 92.08337919908809,61.79935871512862 91.91341046179878,61.40456201098277 91.71729268808849,61.059113859133504 91.53424943250138,60.68076477399154 91.36428069527028,60.31886456401844 91.19431195798097,59.95696329296334 91.02434322074987,59.61151108993363 90.90667255653534,59.26605792013288 90.73670381930424,59.00285485605855 90.6190331550315,58.70675073820166 90.52751152723795,58.39419562098192 90.40984086296521,58.065189379412914 90.31831923522986,57.70328150082787 90.23987212573411,57.32492212957732 90.17449953447795,56.946561598546396 90.13527597975917,56.617551498398825 90.08297790668439,56.22273822056013 90.05682887020521,55.89372619103233 90.01760531548643,55.4824599208514 89.96530724241165,55.16989663903223 89.96530724241165,54.807980271289125 89.93915820593247,54.47896447061066 89.91300916945329,54.08414435206214 89.93915820593247,53.73867571238952 89.95223272417206,53.409657061354665 89.95223272417206,53.0641865337675 89.92608368763467,52.70226399155217 89.83456205995753,52.30743818973133 89.76918946870137,51.96196457701444 89.76918946870137,51.64939237992803 89.74304043216398,51.25456320999365 89.7168913956848,50.941989221348194 89.67766784090782,50.62941444115131 89.61229524970986,50.251033384905895 89.66459332266822,49.85619974158908 89.74304043216398,49.494267792273604 89.74304043216398,49.19814086249971 89.74304043216398,48.93491632845689 89.78226398699917,48.73749755950848 89.75611495046178,48.54007847471803 89.7168913956848,48.276852537179366 89.69074235914741,47.98072268637043 89.65151880448684,47.651688685458794 89.62536976794945,47.32265380732861 89.62536976794945,47.0429734712161 89.55999717663508,46.66458141938347 89.50769910367671,46.26973630236898 89.49462458543712,45.89134187976015 89.46847554895794,45.56230230839719 89.42925199412275,45.24971390304563 89.39002843946218,44.87131635307014 89.3508048846852,44.640986841506674 89.3508048846852,44.36130042812874 89.37695392116439,44.015804571827175 89.3638794029248,43.686759999909555 89.3246558480896,43.35771455064969 89.29850681166863,43.078025228991464 89.23313422041247,42.73252578004758 89.23313422041247,42.40347778653086 89.24620873865206,42.107333842235676 89.27235777518945,41.74537916742702 89.20698518381687,41.3505183114321 89.1808361473959,41.03791923772951 89.14161259267712,40.675961426291906 89.1677616291563,40.44562408443744 89.1808361473959,40.29754985195177 89.1677616291563,40.083664535792195 89.14161259267712,39.83687332565751 89.14161259267712,39.54072322212596 89.06316548312316,39.26102524944872 89.01086741016479,38.899062226155365 88.9847183736274,38.553551077173324 88.9847183736274,38.2244919406221 88.9716438553296,37.84607284879894 88.95856933709001,37.51701182570105 88.91934578242945,37.17149680707371" stroke="#4DD2FF" stroke-dasharray="none" stroke-linecap="round" stroke-linejoin="round" stroke-width="0.5"><title>2017-11-19 11.8km</title><desc>9223370525802103807</desc></polyline><polyline fill="none" opacity="0.5" points="187.48276797845028,61.08917960344115 187.5999999998603,62.06217590958113 187.5999999998603,62.8266719445819 187.54138398938812,63.73016605316661 187.5999999998603,64.425160632818 187.5999999998603,65.53715035278583 187.5999999998603,66.0236452333047 187.36553595680743,66.92713472119067 187.07245590235107,67.90012193983421 185.95875169616193,68.10861900402233 185.255359566072,68.17811800987693 184.4933514248114,67.96962096903007 183.49687924026512,68.10861900402233 182.55902306665666,68.10861900402233 181.62116689281538,68.17811800987693 180.56607869756408,68.10861900402233 179.8040705563035,67.96962096903007 178.9834464045707,67.96962096903007 178.22143826354295,67.96962096903007 177.3421981006395,67.76112385862507 176.52157394844107,66.99663385830354 175.5837177745998,66.92713472119067 174.82170963380486,66.85763557621976 173.88385345996358,66.57963891886175 173.1218453189358,66.7186372630531 172.3012211669702,66.64913809474092 171.36336499336176,66.7186372630531 170.54274084139615,66.51013973512454 169.6635006784927,66.64913809474092 168.72564450465143,66.78813642339082 167.72917232010514,66.44064054382034 166.90854816813953,66.30164213792887 166.20515603781678,66.16264370107092 165.384531886084,66.16264370107092 164.62252374505624,65.88464673480485 163.7432835821528,65.88464673480485 162.9226594301872,65.74564820510568 162.21926729986444,65.95414598792559 160.98833107203245,65.39815174596151 159.99185888725333,65.25915310822893 159.05400271364488,65.18965377786662 157.99891451839358,65.25915310822893 157.58860244229436,65.32865243108245 156.47489823610522,65.60664964455646 155.0681139754597,64.98115574021358 154.07164179091342,64.14716289372882 153.19240162800997,64.35566120949807 152.19592944346368,64.00816397793824 151.3166892810259,63.869165030890144 150.61329715070315,64.00816397793824 149.9099050203804,63.7996655459865 149.20651289005764,63.52166752866469 148.3272727271542,63.59116704465123 147.56526458612643,63.938664508285 146.27571234712377,63.52166752866469 145.57232021703385,63.1046702710446 145.22062415187247,62.34017457580194 144.75169606506824,61.575677945744246 144.6930800541304,60.463681178574916 144.81031207600608,59.49068238417385 144.81031207600608,58.378681907604914 144.6930800541304,57.40567986789392 144.6930800541304,56.0851746769622 144.51723202154972,55.39017082436476 144.39999999990687,54.34766359644709 144.6344640434254,53.37465528177563 144.6344640434254,52.540646949375514 144.8689280867111,51.845639155537356 144.6930800541304,50.942127868242096 144.98616010835394,49.96911425224971 144.92754409764893,48.92659798276145 145.10339213022962,48.30108738626586 145.16200814116746,47.05006431584479 145.10339213022962,45.93804170633666 145.16200814116746,44.9650203002966 145.22062415187247,44.20050241862191 145.39647218445316,43.296980080136564 145.57232021703385,42.32395456265658 145.39647218445316,41.3509275301476 145.39647218445316,40.65590729378164 145.27924016257748,39.821881990123075 145.39647218445316,40.65590729378164 145.39647218445316,41.3509275301476 145.57232021703385,42.32395456265658 145.39647218445316,43.296980080136564 145.22062415187247,44.20050241862191 145.16200814116746,44.9650203002966 145.10339213022962,45.93804170633666 145.16200814116746,47.05006431584479 145.10339213022962,48.30108738626586 144.92754409764893,48.92659798276145 144.98616010835394,49.96911425224971 144.6930800541304,50.942127868242096 144.8689280867111,51.845639155537356 144.6344640434254,52.540646949375514 144.6344640434254,53.37465528177563 144.39999999990687,54.34766359644709 144.51723202154972,55.39017082436476 144.6930800541304,56.0851746769622 144.6930800541304,57.40567986789392 144.81031207600608,58.378681907604914 144.81031207600608,59.49068238417385 144.6930800541304,60.463681178574916 144.75169606506824,61.575677945744246 145.22062415187247,62.34017457580194 145.57232021703385,63.1046702710446 146.27571234712377,63.52166752866469 147.56526458612643,63.938664508285 148.3272727271542,63.59116704465123 149.20651289005764,63.52166752866469 149.9099050203804,63.7996655459865 150.61329715070315,64.00816397793824 151.3166892810259,63.869165030890144 152.19592944346368,64.00816397793824 153.19240162800997,64.35566120949807 154.07164179091342,64.14716289372882 155.0681139754597,64.98115574021358 156.47489823610522,65.60664964455646 157.58860244229436,65.32865243108245 157.99891451839358,65.25915310822893 159.05400271364488,65.18965377786662 159.99185888725333,65.25915310822893 160.98833107203245,65.39815174596151 162.21926729986444,65.95414598792559 162.9226594301872,65.74564820510568 163.7432835821528,65.88464673480485 164.62252374505624,65.88464673480485 165.384531886084,66.16264370107092 166.20515603781678,66.16264370107092 166.90854816813953,66.30164213792887 167.72917232010514,66.44064054382034 168.72564450465143,66.78813642339082 169.6635006784927,66.64913809474092 170.54274084139615,66.51013973512454 171.36336499336176,66.7186372630531 172.3012211669702,66.64913809474092 173.1218453189358,66.7186372630531 173.88385345996358,66.57963891886175 174.82170963380486,66.85763557621976 175.5837177745998,66.92713472119067 176.52157394844107,66.99663385830354 177.3421981006395,67.76112385862507 178.22143826354295,67.96962096903007 178.9834464045707,67.96962096903007 179.8040705563035,67.96962096903007 180.56607869756408,68.10861900402233 181.62116689281538,68.17811800987693 182.55902306665666,68.10861900402233 183.49687924026512,68.10861900402233 184.4933514248114,67.96962096903007 185.255359566072,68.17811800987693 185.95875169616193,68.10861900402233 187.07245590235107,67.90012193983421 187.36553595680743,66.92713472119067 187.5999999998603,66.0236452333047 187.5999999998603,65.53715035278583 187.5999999998603,64.425160632818 187.54138398938812,63.73016605316661 187.5999999998603,62.8266719445819 187.5999999998603,62.06217590958113 187.48276797845028,61.08917960344115 187.42415196751244,60.3941813147394 187.5999999998603,59.83818212756887 187.36553595680743,59.00418241909938 187.42415196751244,58.309181812102906 187.42415196751244,57.127679006778635 187.42415196751244,56.36317600152688 187.42415196751244,55.04266860813368 187.36553595680743,54.55616518104216" stroke="#4DD2FF" stroke-dasharray="1,0.5" stroke-linecap="round" stroke-linejoin="round" stroke-width="0.5"><title>2014-03-22 10.5km</title><desc>9223370641410674807</desc></polyline><polyline fill="none" opacity="1" points="55.600000000034925,99.3408533296606 55.465240641729906,99.32913858993561 55.34010695194593,99.32913858993561 55.2053475935827,99.32913858993561 55.051336898468435,99.30570910624374 54.92620320862625,99.35256806794496 54.7818181818584,99.36428280485416 54.65668449201621,99.43457119634695 54.52192513371119,99.46971537290665 54.38716577546438,99.48143009562045 54.252406417101156,99.42285646797245 54.10802139044972,99.38771227432153 53.98288770054933,99.46971537290665 53.886631016095635,99.46971537290665 53.76149732619524,99.45800064881041 53.6171122994856,99.45800064881041 53.48235294123879,99.43457119634695 53.38609625672689,99.35256806794496 53.28021390381036,99.35256806794496 53.17433155083563,99.35256806794496 53.02994652412599,99.38771227432153 52.89518716582097,99.38771227432153 52.770053475978784,99.38771227432153 52.6449197861366,99.37599754028633 52.50053475936875,99.35256806794496 52.37540106958477,99.36428280485416 52.24064171127975,99.37599754028633 52.0962566845119,99.36428280485416 51.980748663132545,99.37599754028633 51.87486631021602,99.37599754028633 51.73048128344817,99.38771227432153 51.62459893053165,99.37599754028633 51.49946524068946,99.3408533296606 51.37433155084727,99.31742384877725 51.24919786100509,99.3408533296606 51.1240641711629,99.36428280485416 51.027807486651,99.36428280485416 50.873796791478526,99.32913858993561 50.75828877009917,99.31742384877725 50.65240641712444,99.31742384877725 50.53689839580329,99.30570910624374 50.39251336903544,99.31742384877725 50.24812834226759,99.31742384877725 50.132620320946444,99.3408533296606 49.99786096258322,99.30570910624374 49.891978609666694,99.30570910624374 49.757219251361676,99.30570910624374 49.64171122998232,99.29399436228414 49.49732620327268,99.2705648700794 49.37219251337228,99.24713537220669 49.20855614973698,99.2705648700794 49.064171123027336,99.2705648700794 48.929411764780525,99.29399436228414 48.775401069549844,99.28227961690573 48.65989304817049,99.28227961690573 48.55401069519576,99.2705648700794 48.42887700535357,99.29399436228414 48.31336898403242,99.28227961690573 48.18823529413203,99.2705648700794 48.05347593588522,99.28227961690573 47.947593582910486,99.28227961690573 47.81283422460547,99.28227961690573 47.68770053476328,99.31742384877725 47.57219251344213,99.30570910624374 47.45668449200457,99.31742384877725 47.32192513375776,99.30570910624374 47.18716577545274,99.30570910624374 47.07165775401518,99.30570910624374 46.93689839576837,99.30570910624374 46.83101604285184,99.30570910624374 46.71550802141428,99.30570910624374 46.600000000034925,99.30570910624374 46.45561497332528,99.28227961690573 46.33048128342489,99.24713537220669 46.2053475935827,99.2705648700794 46.07058823533589,99.25885012187064 45.92620320862625,99.24713537220669 45.80106951878406,99.25885012187064 45.675935828941874,99.25885012187064 45.55080213909969,99.29399436228414 45.4256684492575,99.28227961690573 45.29090909095248,99.2705648700794 45.156149732647464,99.25885012187064 45.03101604280528,99.25885012187064 44.90588235296309,99.23542062112392 44.751871657848824,99.24713537220669 44.64598930487409,99.223705868666 44.50160427810624,99.23542062112392 44.3572192513966,99.23542062112392 44.23208556155441,99.25885012187064 44.08770053478656,99.223705868666 43.94331550807692,99.18856160272117 43.79893048130907,99.18856160272117 43.66417112300405,99.16513208499236 43.539037433220074,99.1534173239852 43.404278074915055,99.16513208499236 43.308021390403155,99.16513208499236 43.17326203209814,99.18856160272117 43.05775401071878,99.223705868666 42.942245989339426,99.24713537220669 42.797860962629784,99.24713537220669 42.6727272727876,99.24713537220669 42.54759358294541,99.223705868666 42.43208556150785,99.223705868666 42.32620320859132,99.24713537220669 42.17219251341885,99.23542062112392 42.056684492039494,99.223705868666 41.9315508021391,99.24713537220669 41.80641711235512,99.223705868666 41.681283422512934,99.2002763594719 41.53689839580329,99.2002763594719 41.42139037436573,99.18856160272117 41.30588235298637,99.17684684455162 41.1518716578139,99.14170256158832 41.026737967913505,99.18856160272117 40.87272727274103,99.16513208499236 40.747593582898844,99.1534173239852 40.632085561577696,99.16513208499236 40.487700534809846,99.16513208499236 40.35294117650483,99.1534173239852 40.22780748666264,99.1534173239852 40.07379679149017,99.16513208499236 39.967914438515436,99.17684684455162 39.823529411805794,99.2002763594719 39.71764705883106,99.12998779776535 39.57326203212142,99.12998779776535 39.457754010742065,99.12998779776535 39.322994652437046,99.11827303250902 39.188235294190235,99.12998779776535 39.07272727275267,99.1534173239852 38.937967914447654,99.11827303250902 38.81283422460547,99.12998779776535 38.678074866358656,99.10655826586299 38.54331550805364,99.10655826586299 38.42780748667428,99.09484349779086 38.32192513375776,99.04798441127787 38.196791443857364,99.04798441127787 38.07165775401518,99.05969918501796 37.927272727305535,99.0831287282781 37.80213903746335,99.07141395733925 37.68663101608399,99.11827303250902 37.561497326241806,99.11827303250902 37.407486631011125,99.11827303250902 37.282352941227145,99.12998779776535 37.15721925138496,99.09484349779086 37.0417112300056,99.09484349779086 36.93582887703087,99.10655826586299 36.80106951872585,99.09484349779086 36.65668449201621,99.10655826586299 36.531550802174024,99.07141395733925 36.37754010700155,99.05969918501796 36.28128342248965,99.07141395733925 36.14652406418463,99.07141395733925 35.85775401076535,99.0831287282781 35.57860962569248,99.05969918501796 35.414973262057174,99.00112530204206 35.03957219258882,99.10655826586299 34.721925133722834,99.0831287282781 34.490909090964124,99.01284008147923 34.27914438501466,99.01284008147923 34.02887700533029,98.96598095529043 33.845989304827526,98.97769573895494 33.566844919812866,98.97769573895494 33.30695187172387,99.10655826586299 33.056684492039494,99.03626963609713 32.75828877009917,99.17684684455162 29.071657754015177,98.96598095529043 28.831016042851843,98.8839774297885 28.609625668497756,98.93083659570402 28.282352941227145,98.96598095529043 28.012834224675316,98.8839774297885 27.70481283427216,98.83711824113561 27.47379679151345,98.80197383477935 24.335828877054155,98.83711824113561 24.056684492039494,98.81368863834359 23.739037433173507,98.79025902980356 23.508021390414797,98.82540344044537 23.28663101606071,98.75511460643611 22.978609625715762,98.71997017029935 22.68983957223827,98.76682941563195 22.41069518722361,98.75511460643611 19.99465240648715,98.73168498374434 19.638502673828043,98.75511460643611 19.44598930486245,98.75511460643611 19.263101604301482,98.74339979582146 19.195721925178077,98.73168498374434 19.02245989307994,98.68482572136418 18.820320855651516,98.73168498374434 18.60855614976026,98.71997017029935 18.425668449199293,98.64968125973246 18.204278074903414,98.63796643632668 17.96363636368187,98.63796643632668 17.713368983997498,98.70825535542826 17.617112299485598,98.59110712854454 16.500534759368747,98.69654053910199 16.259893048147205,98.64968125973246 16.067379679181613,98.64968125973246 15.77860962570412,98.63796643632668 15.509090909094084,98.66139608169033 15.258823529467918,98.66139608169033 14.97967914439505,98.67311090223666 14.739037433173507,98.60282195759646 14.498395721951965,98.63796643632668 14.277005347597878,98.60282195759646 13.9593582887901,98.61453678527323 13.776470588287339,98.56767746615515 13.429946524091065,98.62625161148026 13.093048128357623,98.57939229808107 12.977540107036475,98.64968125973246 13.035294117697049,98.90740701556933 13.025668449234217,99.07141395733925 13.064171123027336,99.3408533296606 12.910160427854862,99.42285646797245 12.852406417194288,99.223705868666 12.765775401087012,99.07141395733925 12.602139037509914,99.12998779776535 12.47700534760952,99.36428280485416 12.400000000023283,99.49314481691545 12.428877005411778,99.79772707235679 12.47700534760952,100.07887907261465 12.534759358328301,100.34831563961052 12.592513369047083,100.64118062239868 12.640641711244825,100.92233017200488 12.708021390426438,101.13319179812243 12.727272727352101,101.33233846753865 12.746524064219557,101.5549136719128 12.775401069549844,101.84777500297787 12.823529411805794,102.08206342962512 12.833155080268625,102.3397800437815 12.823529411805794,102.6209246583312 12.881283422466367,102.89035414742102 12.852406417194288,103.171497162366 12.910160427854862,103.42921087516879 12.852406417194288,103.71035232461873 12.890909090987407,103.96806460242078 12.794652406417299,104.22577619392541 12.842780748673249,104.47177298194583 12.852406417194288,104.69434096562327 12.81390374340117,104.94033656259853 12.833155080268625,105.16290346862661 12.833155080268625,105.37375585482368" stroke="#4DD2FF" stroke-dasharray="none" stroke-linecap="round" stroke-linejoin="round" stroke-width="0.5"><title>2013-12-10 10.9km</title><desc>9223370650177580807</desc></polyline><polyline fill="none" opacity="1" points="110.55819190572947,101.12442077323794 110.31823299825191,96.45414429320954 110.55819190572947,94.11900266655721 110.79815081134439,90.90817924076691 110.55819190572947,88.2811387181282 109.1184384636581,85.07030752976425 105.99897267390043,83.02704909676686 102.1596301626414,80.6918944849167 98.80020546540618,80.6918944849167 96.40061639528722,81.85947207268327 93.28115060459822,83.90273149451241 91.12152044195682,88.2811387181282 91.12152044195682,91.78385877958499 89.92172590829432,95.87035909830593 89.4418080933392,98.49739136477001 88.48197246622294,102.58388032088988 88.7219313737005,106.37847101641819 88.00205465313047,109.29738287813962 88.00205465313047,113.09196302411146 88.00205465313047,116.01086677075364 89.20184918679297,118.34598722797818 91.60143825691193,121.84866367932409 94.48094513919204,123.01622136775404 98.32028765138239,123.60000000009313 101.91967125423253,122.43244259478524 103.8393425103277,119.80543636670336 106.47889048792422,117.47031732159667 108.15860283561051,113.38385355728678 108.15860283561051,110.17305574938655 109.35839737113565,106.08657963620499 109.83831518515944,102.87577212415636 110.55819190572947,99.08117592497729 111.51802753377706,94.70278828428127 111.51802753377706,92.07575188926421 111.27806862723082,87.69735154649243 110.07827409170568,84.19462555623613 108.6385206496343,81.85947207268327 105.27909595239908,80.98378893476911 102.87950688321143,80.4000000001397 99.04016437195241,80.6918944849167 95.92069858126342,82.44326065597124 92.80123279150575,85.36220145085827 90.40164372138679,88.57303225062788 90.16168481484056,92.36764496355318 89.68176699988544,95.87035909830593 89.20184918679297,99.37306815129705 88.48197246622294,102.58388032088988 88.48197246622294,106.37847101641819 88.00205465313047,110.17305574938655 88.48197246622294,113.96763451839797 88.96189027931541,117.47031732159667 91.12152044195682,119.80543636670336 94.00102732609957,121.55677416943945 97.3604520233348,122.43244259478524 101.19979453459382,122.1405531547498 105.03913704585284,119.51354661001824 107.43872611504048,117.17842728225514 108.15860283561051,112.80007245577872 108.87847955618054,108.71360078873113 109.35839737113565,104.33523061382584 109.83831518515944,100.83252875739709 110.55819190572947,97.62171426019631 111.99794534686953,93.53521690587513 111.51802753377706,90.03249938436784 111.51802753377706,86.52977678109892 110.07827409170568,83.61083739693277 107.67868502251804,81.27568334899843" stroke="#4DD2FF" stroke-dasharray="none" stroke-linecap="round" stroke-linejoin="round" stroke-width="0.5"><title>2013-11-30 10.3km</title><desc>9223370651086224807</desc></polyline><polyline fill="none" opacity="1" points="177.762573774904,89.48032283014618 175.72674369905144,86.45355257811025 174.8219303302467,83.42677830182947 173.01230359636247,82.6012937091291 170.2978634936735,83.15161680453457 168.2620334168896,83.15161680453457 165.32138997409493,82.6012937091291 162.1545431893319,82.6012937091291 162.38074653036892,83.7019397658296 160.34491645358503,85.07774658850394 156.27325630094856,88.93000126630068 157.17806966789067,92.23192865797319 156.49945964291692,95.80901126144454 156.27325630094856,100.76188558526337 156.49945964291692,104.06379581429064 153.55881619919091,107.36570125445724 154.46362956706434,109.8421271899715 155.82084961794317,112.31855043233372 155.82084961794317,116.17075901036151 156.49945964291692,118.37201812700368 157.40427300985903,119.47264688764699 159.44010308664292,122.22421646025032 162.83315321430564,122.22421646025032 166.67861002590507,123.60000000009313 167.58342339284718,121.6739028126467 171.20267686247826,119.74780399515294 174.8219303302467,115.89560147118755 175.72674369905144,114.51981327589601 177.53637043293566,112.04339242749847 176.85776040703058,106.8153840135783 176.17915038205683,105.71474913298152 176.4053537240252,101.86252286075614 177.762573774904,96.90965093066916 177.762573774904,95.80901126144454 176.17915038205683,92.78224942437373 178.44118379987776,90.30580492829904 176.85776040703058,89.20516206463799 175.2743370141834,86.72871367656626 173.23850693926215,83.7019397658296 171.4288802035153,83.15161680453457 168.4882367597893,80.4000000001397 163.9641699232161,82.6012937091291 160.79732313752174,85.90323028201237 157.85667969379574,88.93000126630068 156.72566298395395,90.85612616012804 156.49945964291692,95.25869122636504 158.0828830357641,99.38608824228868 156.27325630094856,102.96315960329957 155.36844293307513,105.43959032977 156.0470529589802,107.64085982413962 155.1422395920381,110.6676019039005 155.36844293307513,113.69433995871805 155.36844293307513,117.27138883504085 157.40427300985903,118.64717536675744 160.118713112548,120.57327511627227 163.5117632402107,121.94905965286307 166.4524066830054,122.77452997583896 169.61925346869975,122.22421646025032 172.3336935704574,120.02296106843278 174.8219303302467,117.27138883504085 176.4053537240252,113.41918211965822 176.63155706506222,110.3924436995294 176.85776040703058,107.36570125445724 176.85776040703058,104.06379581429064 176.17915038205683,100.76188558526337 176.85776040703058,97.45997056690976 177.08396374993026,94.70837105903774 177.98877711594105,91.40644725854509 177.53637043293566,88.37967956834473 176.17915038205683,85.62806908367202 174.3695236472413,83.7019397658296 172.3336935704574,82.87645527347922 169.16684678569436,82.05097048147582 166.4524066830054,82.05097048147582 163.28555989731103,83.7019397658296 161.47593316342682,84.25226259441115 159.44010308664292,86.45355257811025 157.85667969379574,88.37967956834473 157.63047635182738,91.40644725854509 156.72566298395395,95.25869122636504 157.17806966789067,98.28544977051206 156.49945964291692,102.13768209633417 156.49945964291692,104.06379581429064 156.0470529589802,108.46633533574641 154.68983290810138,112.31855043233372 155.1422395920381,116.17075901036151 156.49945964291692,118.09686085442081 160.34491645358503,119.19748974777758 163.5117632402107,121.3987459379714 166.67861002590507,121.3987459379714 170.07166015263647,119.74780399515294 172.3336935704574,118.09686085442081 174.14332030527294,115.07012865296565 175.72674369905144,111.21791821252555 175.50054035615176,107.64085982413962 176.17915038205683,104.33895478351042 176.17915038205683,100.76188558526337 176.85776040703058,97.45997056690976 177.08396374993026,93.6077303243801 178.21498045884073,89.48032283014618 177.08396374993026,87.55419677193277 175.04813367314637,85.62806908367202 172.3336935704574,83.97710119653493 168.2620334168896,82.87645527347922 164.64277994912118,83.15161680453457 161.9283398464322,84.80258529004641 159.21389974374324,87.27903577359393 158.0828830357641,90.0306442619767 157.63047635182738,92.78224942437373 156.49945964291692,96.90965093066916 156.72566298395395,100.21156674809754 156.72566298395395,102.41284129838459 156.27325630094856,105.9899079024326 156.27325630094856,110.11728546163067 155.5946462759748,113.41918211965822 156.72566298395395,116.17075901036151 158.0828830357641,119.19748974777758 161.02352648042142,121.6739028126467" stroke="#4DD2FF" stroke-dasharray="none" stroke-linecap="round" stroke-linejoin="round" stroke-width="0.5"><title>2013-11-16 10.4km</title><desc>9223370652294258807</desc></polyline><polyline fill="none" opacity="1" points="44.459581185132265,157.69323389837518 45.18931940756738,154.73433729959652 45.43256548140198,150.88776637450792 46.162303702905774,147.04118940443732 46.162303702905774,144.08227993012406 45.43256548140198,139.3480173314456 45.67581155523658,135.7973143735435 43.48659688886255,134.31785328662954 40.810890073888004,130.4712502779439 38.37842933367938,129.58357180282474 30.59455496352166,128.99178597261198 27.675602074712515,131.06303575029597 25.97287955507636,134.61374557600357 22.81068059336394,138.16445025079884 24.27015703730285,141.12336687929928 23.297172740101814,144.6740621116478 23.297172740101814,150.88776637450792 22.81068059336394,154.43844744330272 23.053926666267216,160.06034860108048 22.56743451859802,163.6110163643025 23.540418814867735,166.5699022328481 24.99989525973797,168.64112021238543 29.135078518651426,170.71233643963933 34.0,171.60000000009313 38.37842933367938,171.30411218269728 39.35141362901777,169.52878452418372 42.02712044399232,167.1616789775435 42.27036651875824,163.01923876185901 42.27036651875824,160.35623777890578 43.24335081502795,155.32611690624617 45.18931940756738,150.29598569567315 45.43256548140198,146.1535169382114 45.919057629071176,142.89871513913386 45.67581155523658,138.75623386260122 45.919057629071176,135.7973143735435 44.70282725803554,132.5424988034647 40.56764399912208,129.879464663798 36.91895288974047,128.99178597261198 33.270261778496206,128.99178597261198 29.378324592486024,130.4712502779439 26.7026177784428,132.24660626379773 25.486387407407165,136.38909855671227 23.783664888702333,141.12336687929928 23.783664888702333,144.08227993012406 23.540418814867735,146.74529861821793 22.81068059336394,150.88776637450792 23.053926666267216,154.73433729959652 22.81068059336394,157.69323389837518 23.053926666267216,162.72334990650415 24.02691096253693,165.09045974630862 26.459371704608202,167.1616789775435 31.081047111190856,171.00822432967834 34.972984296269715,171.00822432967834 38.62167540658265,169.82467255694792 40.810890073888004,168.64112021238543 43.48659688886255,165.38634831481613 44.216335110366344,162.72334990650415 43.973089036531746,158.58090218016878 44.459581185132265,153.8466676226817 45.43256548140198,150.88776637450792 46.162303702905774,147.33708015549928 46.162303702905774,143.7863887862768 46.405549777671695,139.64390901243314 45.919057629071176,135.7973143735435 43.72984296362847,132.5424988034647 41.054136148653924,130.4712502779439 36.91895288974047,128.4000000001397 33.270261778496206,128.99178597261198 29.864816741086543,130.4712502779439 26.7026177784428,131.95071368920617 24.02691096253693,134.90963782859035 23.297172740101814,140.23569226590917 23.540418814867735,143.7863887862768 23.053926666267216,147.33708015549928 24.51340311113745,150.88776637450792 22.81068059336394,156.50967568787746 22.080942370928824,160.35623777890578 22.81068059336394,164.2027938242536 23.053926666267216,166.27401380729862 26.7026177784428,168.64112021238543 29.621570666320622,170.12056055432186 34.486492147669196,170.71233643963933 37.89193718507886,170.12056055432186 41.054136148653924,168.64112021238543 43.24335081502795,165.68223684746772 43.973089036531746,162.13157208892517 44.94607333280146,158.58090218016878 45.43256548140198,155.0302271207329 45.67581155523658,151.77543712500483 46.162303702905774,148.81653337273747 46.405549777671695,145.26584414974786 46.89204192534089,139.3480173314456 46.405549777671695,135.7973143735435 44.70282725803554,133.13428377383389 41.54062829632312,130.4712502779439 38.864921481348574,129.2876789055299 34.0,128.69589300476946 31.081047111190856,129.58357180282474 28.40534029621631,130.76714303181507 25.97287955507636,133.13428377383389 24.99989525973797,134.31785328662954 24.27015703730285,135.7973143735435 25.486387407407165,139.3480173314456 25.243141333572567,140.82747537712567 24.756649184972048,144.9699531486258 23.297172740101814,149.1124239093624 22.56743451859802,152.3672174452804 22.080942370928824,157.39734439994209 21.10795807465911,159.46857014065608 21.837696296162903,160.94801602489315 23.297172740101814,163.90690511232242 25.97287955507636,165.68223684746772 28.40534029621631,168.93700835271738 31.56753925886005,169.82467255694792 32.78376962989569,170.41644851467572 37.64869111124426,171.60000000009313 40.56764399912208,170.71233643963933 42.513612592592835,168.04934382555075 43.973089036531746,166.27401380729862 44.459581185132265,163.31512758182362" stroke="#4DD2FF" stroke-dasharray="none" stroke-linecap="round" stroke-linejoin="round" stroke-width="0.5"><title>2013-11-03 10.7km</title><desc>9223370653417861807</desc></polyline><polyline fill="none" opacity="1" points="88.99068268761039,164.68805263843387 91.1215182961896,167.85603100177832 93.48911341652274,169.5840174248442 97.27726561017334,170.73600767669268 102.01245585177094,170.73600767669268 105.09032951015979,169.5840174248442 106.74764609336853,167.28003524802625 107.93144365400076,163.24806107999757 109.58876023907214,160.0800765901804 109.82551975175738,155.7600909504108 109.58876023907214,152.01609706040472 110.77255779877305,148.27209728653543 111.48283633589745,145.39209345774725 111.71959584765136,142.5120861462783 111.9563553603366,138.48007006268017 111.48283633589745,133.2960393568501 109.35200072731823,129.84001261997037 106.98440560605377,129.2640076763928 103.90653194859624,130.41601742454804 100.35513926763088,130.12801503995433 97.51402512192726,130.41601742454804 94.67291097715497,132.14403100241907 92.77883488032967,135.3120526385028 91.35827780794352,138.1920686531812 91.59503732062876,143.37608870584518 90.88475878350437,145.96809450211003 90.1744802473113,149.712097896263 89.46420171111822,153.4560954067856 88.51716366223991,155.7600909504108 88.28040415141732,159.2160800890997 88.28040415141732,162.96006266516633 89.70096122287214,167.28003524802625 92.77883488032967,169.5840174248442 97.27726561017334,171.31200259411708 100.59189877938479,171.60000000009313 104.3800509730354,170.16001262003556 107.69468414224684,167.28003524802625 108.16820316575468,162.6720642137807 110.29903877526522,158.06408426584676 110.53579828795046,154.60809345706366 110.53579828795046,151.44009747868404 110.77255779877305,147.1200961722061 111.00931731145829,142.80008703446947 112.19311487209052,139.0560727783013 112.42987438477576,135.3120526385028 110.29903877526522,132.7200352489017 108.87848170287907,130.41601742454804 105.80060804635286,128.9760051521007 102.01245585177094,128.4000000001397 98.22430365905166,129.2640076763928 94.90967048984021,129.84001261997037 89.70096122287214,133.8720433257986 88.99068268761039,135.0240508459974 88.99068268761039,136.46405946207233 90.1744802473113,139.63207535468973 89.93772073462605,143.66408948926255 88.51716366223991,147.69609680003487 88.51716366223991,150.57609784416854 87.57012561522424,154.32009399705566 87.57012561522424,157.48808614653535 87.80688512697816,160.65607408294454 87.57012561522424,163.5360594613012 89.22744219843298,166.7040393569041 91.35827780794352,169.00802208902314 94.19939195271581,169.87201503990218 97.9875441454351,169.5840174248442 102.01245585177094,168.72002436965704 106.51088658254594,166.99203731981106 108.40496267937124,164.4000543965958 110.29903877526522,160.65607408294454 109.82551975175738,156.62408870481886 110.29903877526522,152.59209650335833 110.53579828795046,149.13609775714576 110.77255779877305,145.39209345774725 111.00931731145829,141.93608426721767 112.19311487209052,139.34407408325933 111.9563553603366,135.3120526385028 109.35200072731823,132.7200352489017 106.74764609336853,130.70401977421716 102.72273438796401,129.55201016529463 99.6448607314378,129.2640076763928 95.8567085377872,130.41601742454804 92.77883488032967,131.56802661553957 91.59503732062876,135.6000543970149" stroke="#4DD2FF" stroke-dasharray="none" stroke-linecap="round" stroke-linejoin="round" stroke-width="0.5"><title>2013-11-02 10.5km</title><desc>9223370653505000807</desc></polyline><polyline fill="none" opacity="1" points="175.54437706060708,157.83009071601555 175.54437706060708,152.97010246641003 175.54437706060708,150.540104374988 176.65418834704906,147.0301024664659 176.65418834704906,144.33009724435396 176.87615060433745,142.4400916469749 176.2102638334036,139.20007833116688 175.54437706060708,134.88005326571874 173.32475448958576,131.1000244792085 172.21494320314378,130.29001747770235 168.88550934474915,128.94000515691005 166.2219622572884,128.94000515691005 162.6705661425367,130.56001984444447 159.78505679685622,132.45003549358808 157.5654342258349,135.15005507646129 156.01169842481613,138.12007284793071 156.45562293939292,142.98009340977296 156.67758519575,145.68010026379488 156.23366068210453,149.19010429433547 156.01169842481613,151.35010403278284 156.01169842481613,152.97010246641003 155.56777391023934,155.67009724397212 155.12384939659387,158.6400877290871 156.23366068210453,162.15007139416412 157.5654342258349,164.85005507571623 160.67290582694113,167.0100396713242 164.22430194169283,168.3600289823953 167.7756980592385,168.3600289823953 169.77335837297142,167.82003335561603 172.65886771772057,165.66004954348318 174.6565280323848,162.96006684168242 175.54437706060708,159.18008557590656 175.54437706060708,155.94009654247202 175.7663393188268,152.70010280935094 175.54437706060708,149.46010437584482 175.54437706060708,146.49010168295354 176.43222609069198,142.98009340977296 176.87615060433745,140.01008210144937 176.43222609069198,137.31006839242764 175.32241480425,134.34004954481497 173.99064126145095,132.72003759886138 170.4392451448366,130.56001984444447 167.7756980592385,128.4000000001397 165.3341132281348,129.48001018329524 162.0046793706715,130.8300221778918 159.78505679685622,132.45003549358808 158.67524551134557,135.69005860155448 158.2313209977001,138.12007284793071 157.7873964831233,141.63008875912055 156.45562293939292,144.33009724435396 156.01169842481613,146.76010209089145 156.23366068210453,150.81010429398157 157.7873964831233,154.32010026299395 154.90188713837415,155.13009854895063 155.12384939659387,156.21009580790997 154.45796262472868,157.56009164638817 154.90188713837415,163.23006525845267 160.22898131329566,166.20004569296725 165.77803774364293,167.55003549298272 167.1098112873733,167.55003549298272 169.10747160110623,167.55003549298272 171.77101868763566,168.3600289823953 173.99064126145095,164.0400603134185 174.6565280323848,162.96006684168242 174.8784902896732,160.5300796192605 175.54437706060708,159.18008557590656 173.54671674594283,158.91008666879497 174.8784902896732,158.10008975397795 176.2102638334036,155.94009654247202 175.9883015761152,150.81010429398157 176.2102638334036,149.46010437584482 175.7663393188268,146.2201012421865 176.2102638334036,142.1700907170307 175.7663393188268,136.7700652598869 175.32241480425,133.26004171161912 173.54671674594283,129.75001264712773 169.55139611661434,129.48001018329524 165.77803774364293,129.21000768686645 162.6705661425367,130.56001984444447 159.78505679685622,132.72003759886138 156.67758519575,133.26004171161912 156.45562293939292,137.58006991050206 156.23366068210453,140.55008445074782 156.01169842481613,144.0600965428166 154.90188713837415,147.57010311936028 155.34581165295094,151.62010385282338 155.12384939659387,155.13009854895063 154.90188713837415,159.18008557590656 154.90188713837415,161.61007426702417 158.45328325405717,165.66004954348318 164.00233968626708,168.63002674723975 166.44392451550812,169.98001507879235 169.32943385839462,171.60000000009313 173.32475448958576,167.82003335561603 175.1004525469616,162.69006839231588 175.54437706060708,159.7200832911767 175.54437706060708,158.6400877290871 175.1004525469616,153.24010209064 174.8784902896732,148.92010417976417 175.32241480425,146.2201012421865 175.54437706060708,142.98009340977296 177.09811286255717,138.93007700890303 175.7663393188268,135.96006031497382 174.43456577509642,134.34004954481497 172.88082997407764,130.8300221778918 170.21728288847953,130.02001507859677 166.0,129.75001264712773 162.0046793706715,130.56001984444447 159.78505679685622,130.8300221778918 156.89954745396972,132.72003759886138 154.90188713837415,135.69005860155448 154.67992488108575,138.39007426798344 155.34581165295094,139.7400808769744 154.23600036650896,142.71009254432283 154.67992488108575,145.95010076928884 154.90188713837415,147.57010311936028 154.45796262472868,150.27010442432947 154.90188713837415,153.78010124200955 154.67992488108575,157.02009340864606 154.90188713837415,161.34007565444335 157.5654342258349,166.20004569296725 161.7827171124518,168.63002674723975 163.11449065618217,168.3600289823953 166.0,169.98001507879235 167.99766031466424,169.1700221770443 171.1051319167018,171.33000259427354 173.32475448958576,168.63002674723975 174.8784902896732,162.42006990942173 173.99064126145095,158.37008875748143 175.1004525469616,151.35010403278284 174.8784902896732,147.0301024664659 174.8784902896732,145.68010026379488 176.43222609069198,142.98009340977296 177.76399963349104,140.82008557626978 177.09811286255717,136.7700652598869 175.32241480425,132.1800333559513 173.10279223136604,129.75001264712773 169.9953206302598,128.6700025945902 166.0,128.94000515691005 161.1168303405866,130.56001984444447 157.1215097112581,132.1800333559513 156.67758519575,133.53004371840507 155.56777391023934,134.61005142168142 155.78973616752774,137.04006684245542 156.01169842481613,138.6600756549742 156.23366068210453,142.1700907170307 156.23366068210453,143.5200950417202 156.23366068210453,147.84010339644738 156.01169842481613,149.19010429433547 155.12384939659387,151.62010385282338 155.78973616752774,155.13009854895063 154.90188713837415,156.21009580790997 155.12384939659387,161.07007700833492 156.23366068210453,162.15007139416412 156.23366068210453,163.50006364332512 158.45328325405717,165.66004954348318 162.6705661425367,168.63002674723975 167.1098112873733,170.52001018356532 170.4392451448366,169.710017477395 171.99298094585538,168.09003118495457 175.32241480425,163.77006199466996 174.8784902896732,159.18008557590656 174.43456577509642,152.97010246641003 176.2102638334036,152.1601033960469 176.65418834704906,147.3001028096769 176.87615060433745,146.49010168295354 175.9883015761152,142.71009254432283 176.87615060433745,138.93007700890303 175.54437706060708,134.34004954481497 173.54671674594283,132.1800333559513 172.21494320314378,128.94000515691005 166.2219622572884,129.21000768686645 162.0046793706715,130.02001507859677 159.34113228321075,132.1800333559513 157.3434719676152,134.34004954481497 156.23366068210453,136.50006364448927 156.89954745396972,138.39007426798344 157.1215097112581,140.01008210144937 156.89954745396972,143.5200950417202 156.01169842481613,144.6000979137607 155.56777391023934,147.0301024664659 156.23366068210453,148.65010403259657 156.23366068210453,150.540104374988 154.90188713837415,152.43010311899707" stroke="#4DD2FF" stroke-dasharray="none" stroke-linecap="round" stroke-linejoin="round" stroke-width="0.5"><title>2013-10-26 11.1km</title><desc>9223370654110301807</desc></polyline><polyline fill="none" opacity="1" points="32.24766808561981,219.31579206697643 35.51868766080588,218.7473760987632 37.855130213312805,216.47371085267514 40.19157276768237,213.6316262029577 42.5280153201893,209.6527019208297 43.462592341937125,206.52639954793267 44.163525108247995,202.26325324806385 44.63081361912191,199.13694104878232 43.92988085281104,197.14746748516336 44.39716936275363,193.1685153071303 44.163525108247995,191.17903669271618 43.462592341937125,189.75797950988635 43.22894808650017,187.76849800907075 42.5280153201893,183.78952995873988 41.126149787567556,180.3789805562701 36.9205531924963,178.67370399925858 33.649533617310226,178.10527820512652 29.67758127581328,180.66319319489412 27.574782977811992,181.51583090610802 25.00469616893679,184.3579543782398 23.135542125441134,187.76849800907075 24.537407658062875,190.32640248560347 25.238340423442423,193.1685153071303 25.238340423442423,196.86325683817267 24.30376340262592,199.9895720607601 23.836474891752005,203.68430287321098 23.602830636315048,206.81060902611353 24.537407658062875,208.23165590292774 23.836474891752005,212.77900013769977 25.939273189753294,215.62108581862412 28.275715744122863,217.89475188939832 31.079446808435023,218.46316806343384 34.350466382689774,217.89475188939832 38.32241872418672,216.18950254260562 41.59343829937279,213.91583482245915 42.5280153201893,209.93691102182493 42.29437106475234,206.52639954793267 42.76165957655758,202.26325324806385 42.76165957655758,198.85273064253852 42.76165957655758,195.1579922370147 44.163525108247995,191.4632480267901 45.79903489537537,189.18955639493652 46.7336119171232,186.63165068160743 46.49996766075492,184.07374218595214 44.163525108247995,181.23161837016232 41.126149787567556,179.81055517448112 38.08877446874976,177.25263925665058 34.81775489449501,176.4000000001397 31.313091062940657,177.82106525660492 28.509359998628497,180.09476788225584 25.939273189753294,182.6526807071641 25.471984679810703,185.77901482582092 25.471984679810703,189.4737679695245 25.00469616893679,192.60009301709943 24.537407658062875,196.86325683817267 21.733676593750715,199.9895720607601 22.20096510462463,203.68430287321098 21.967320849187672,207.94744659680873 22.434609359130263,211.07374708005227 22.434609359130263,213.91583482245915 24.537407658062875,216.75791912851855 27.574782977811992,219.0315841003321 30.845802552998066,219.60000000009313 34.81775489449501,219.0315841003321 37.38784170243889,217.610543750925 41.126149787567556,215.90529419737868 42.060726810246706,213.6316262029577 43.69623659737408,210.22112008789554 44.163525108247995,206.81060902611353 44.163525108247995,203.1158831268549 44.63081361912191,199.70536175812595 45.33174638450146,195.4422030900605 45.565390639938414,192.0316705906298 46.03267915081233,189.18955639493652 45.79903489537537,185.49480280443095 44.864457874558866,181.80004340759479 42.76165957655758,179.24212965508923 39.72428425680846,178.10527820512652 36.21962042618543,177.53685227409005 32.7149565955624,177.53685227409005 29.443937021307647,178.95791684417054 25.939273189753294,181.23161837016232 24.537407658062875,184.07374218595214 25.238340423442423,188.33692146651447 23.836474891752005,191.74745932617225 23.602830636315048,194.58957042940892 23.602830636315048,198.28430972713977 21.967320849187672,201.69483315735124 22.434609359130263,206.52639954793267 22.20096510462463,209.3684927856084 23.602830636315048,212.21058258996345 24.537407658062875,215.90529419737868 25.471984679810703,217.610543750925 31.079446808435023,219.0315841003321 35.051399149000645,218.46316806343384 37.62148595787585,216.18950254260562 41.82708255387843,212.77900013769977 43.462592341937125,211.9263737637084 44.163525108247995,209.08428361662664 43.69623659737408,205.95798048726283 43.69623659737408,202.26325324806385 43.69623659737408,199.13694104878232 44.163525108247995,195.72641390911303 45.565390639938414,192.31588182109408 45.79903489537537,189.18955639493652 45.79903489537537,186.34743876405992 45.79903489537537,183.78952995873988 43.462592341937125,181.23161837016232 41.59343829937279,178.10527820512652 38.08877446874976,176.96842620545067 33.88317787181586,178.10527820512652 29.91122553125024,180.09476788225584 27.574782977811992,183.22110540163703 25.471984679810703,186.34743876405992 24.07011914718896,188.33692146651447 23.836474891752005,192.0316705906298 22.9018978709355,195.4422030900605 22.434609359130263,199.13694104878232 23.135542125441134,202.26325324806385 21.733676593750715,205.38956129038706 21.2663880828768,208.51586517505348 22.434609359130263,213.6316262029577 24.537407658062875,215.90529419737868 26.873850212432444,217.89475188939832 28.97664850950241,219.31579206697643 33.18224510550499,219.60000000009313 36.9205531924963,217.89475188939832 39.25699574500322,215.62108581862412 41.126149787567556,213.6316262029577 42.29437106475234,209.6527019208297 42.060726810246706,206.52639954793267" stroke="#4DD2FF" stroke-dasharray="none" stroke-linecap="round" stroke-linejoin="round" stroke-width="0.5"><title>2013-10-20 10.7km</title><desc>9223370654628121807</desc></polyline><polyline fill="none" opacity="1" points="90.06056344788522,187.53970208903775 88.94377282448113,191.3434901572764 88.27369845006615,195.14727178867906 88.05034032464027,198.13595284009352 87.3802659502253,200.58123438083567 86.71019157581031,203.84160563116893 86.71019157581031,207.37366914795712 87.3802659502253,210.36233394150622 89.83720532245934,213.0792984876316 92.51750282011926,214.9811717160046 95.42115844320506,217.42643493087962 99.21824656426907,217.6981306800153 102.56861843541265,217.42643493087962 106.14234843291342,216.06795569579117 109.26936217956245,213.8943872116506 110.83286905195564,211.17742365039885 111.05622717738152,208.18875993951224 111.50294342730194,205.20009225560352 111.94965967629105,201.1246299177874 112.61973405070603,198.13595284009352 113.06645030062646,195.41897022980265 113.28980842512101,192.70198433613405 112.84309217520058,188.89819856663235 112.61973405070603,186.1812047897838 110.38615280296654,182.92080792272463 108.82264592964202,179.6604063261766 105.91899030748755,177.75850321003236 102.79197656083852,176.67170070740394 99.88832093775272,176.67170070740394 96.31459094118327,177.48680263385177 92.96421907003969,179.6604063261766 90.50727969687432,182.92080792272463 89.61384719889611,185.90950523177162 89.61384719889611,188.89819856663235 88.94377282448113,192.15858676331118 88.72041469905525,196.23406535829417 87.60362407565117,199.49444291344844 88.05034032464027,202.4831181843765 86.93354970123619,206.2868809637148 89.39048907347023,208.73215363710187 90.28392157331109,211.9925130638294 92.07078657113016,215.52456377237104 94.30436781886965,217.42643493087962 97.8780978154391,218.7849133447744 101.67518593650311,219.60000000009313 104.57884155865759,217.96982639585622 107.03578093089163,215.25286776060238 109.04600405413657,212.8076021813322 110.60951092839241,209.81894063809887 110.38615280296654,207.64536611060612 111.05622717738152,204.65669770352542 111.27958530280739,201.6680253231898 111.50294342730194,198.67934896820225 112.1730178007856,196.23406535829417 112.61973405070603,191.88688792707399 112.61973405070603,188.62649933667853 111.27958530280739,183.19250784208998 109.492720304057,179.6604063261766 106.58906468190253,178.03020375361666 102.12190218642354,176.4000000001397 98.54817218892276,176.67170070740394 95.64451656676829,178.03020375361666 92.51750282011926,179.9321066394914 90.95399594679475,183.19250784208998 90.7306378223002,186.72460380778648 90.28392157331109,191.07179122348316 89.61384719889611,195.69066863902844 86.93354970123619,198.40765092079528 87.3802659502253,201.1246299177874 87.3802659502253,204.3850003783591 86.93354970123619,207.64536611060612 88.05034032464027,210.36233394150622 90.95399594679475,214.16608338686638" stroke="#4DD2FF" stroke-dasharray="none" stroke-linecap="round" stroke-linejoin="round" stroke-width="0.5"><title>2013-10-19 10.2km</title><desc>9223370654714312807</desc></polyline><polyline fill="none" opacity="1" points="155.1090584937483,193.10409288294613 155.1090584937483,195.98409706004895 155.81933728791773,199.72809728630818 155.1090584937483,203.47209162893705 155.1090584937483,206.64008224592544 154.3987797005102,210.38406572700478 154.87229889724404,213.26404901687056 157.23989487532526,215.856031000847 161.5015676394105,217.87201503897086 165.0529616093263,219.60000000009313 168.36759597994387,218.16001261910424 171.20871115475893,216.14402882475406 174.049826329574,213.55204715393484 174.76010512374341,210.38406572700478 175.70714351627976,206.06408426584676 175.23362432047725,202.03209450119175 175.47038391791284,197.71209789603017 175.70714351627976,194.83209580741823 176.41742231044918,190.8000870347023 177.36446070112288,187.05607277853414 175.94390311371535,183.0240508459974 174.76010512374341,180.14403100172058 171.20871115475893,177.55201016599312 167.18379798997194,176.39999999990687 163.39564442262053,177.55201016599312 160.31776964943856,179.2800243704114 158.66045246366411,182.44804715528153 157.4766544746235,185.32806421420537 157.23989487532526,187.92007659026422 156.76637568045408,191.6640894880984 155.81933728791773,195.12009617267177 155.1090584937483,198.28809789568186 154.87229889724404,201.45609540655278 154.87229889724404,205.48808614583686 155.34581809211522,209.23207143694162 157.00313527788967,212.97605084488168 158.1869332678616,214.99203731981106 161.028048443608,218.16001261910424 164.57944241166115,218.16001261910424 167.42055758740753,218.73600767576136 170.73519195895642,217.29601977346465 173.33954753633589,215.56803314224817 174.99686472211033,212.11205611890182 175.47038391791284,207.79207779001445 175.70714351627976,203.18409227347001 175.70714351627976,200.30409679887816 175.70714351627976,196.84809763496742 176.65418190788478,193.9680945011787 177.36446070112288,190.51208614674397 177.1277011046186,186.19206865271553 174.99686472211033,180.14403100172058 172.3925091456622,178.12801503925584 167.65731718577445,176.68800259334967 164.81620201002806,176.97600515233353 161.97508683428168,179.56802661530674 159.37073125783354,181.58404135890305 158.66045246366411,184.4640594618395 157.23989487532526,189.07208118587732 155.81933728791773,193.39209345704876 155.81933728791773,196.84809763496742 154.3987797005102,200.30409679887816 154.6355392979458,204.04809023649432 154.87229889724404,207.2160800884012 154.3987797005102,210.67206421284936 156.29285648372024,214.70403935597278 158.89721206203103,217.29601977346465 161.5015676394105,217.5840174241457 166.4735191958025,218.16001261910424 169.31463437061757,216.72002436965704 172.3925091456622,214.12804332445376 173.33954753633589,211.53605946153402 174.52334552630782,207.79207779001445 175.94390311371535,204.33608948858455 177.1277011046186,201.1680958061479 177.6012202994898,197.13609775644727 177.1277011046186,192.52809162973426 177.1277011046186,188.20807779114693 176.18066271208227,184.75206108111888 174.76010512374341,180.14403100172058 171.91898994892836,178.12801503925584 168.84111517574638,177.26400767685845 164.81620201002806,176.97600515233353 161.5015676394105,178.99202208942734 158.66045246366411,181.58404135890305 157.23989487532526,184.176057808334 157.9501736694947,187.63207535399124 156.76637568045408,192.24009095085785 157.23989487532526,196.27209728676826 156.76637568045408,200.01609705970623 155.81933728791773,203.47209162893705 156.05609688628465,207.5040789565537 155.34581809211522,210.0960672076326 156.52961608115584,212.68805263726972 157.9501736694947,215.856031000847 161.7383272368461,217.87201503897086 163.86916361842304,217.87201503897086 168.84111517574638,218.44801016524434 171.91898994892836,216.72002436965704 174.52334552630782,213.84004525723867 175.70714351627976,209.8080686519388" stroke="#4DD2FF" stroke-dasharray="none" stroke-linecap="round" stroke-linejoin="round" stroke-width="0.5"><title>2013-10-12 10.6km</title><desc>9223370655320152807</desc></polyline><polyline fill="none" opacity="1" points="41.42774805333465,261.95298657077365 43.05256793834269,256.30595948919654 43.748919318430126,252.35303240921348 43.98103644605726,249.24715643795207 43.748919318430126,247.27068776125088 43.516802191734314,243.8824518530164 44.44527069851756,242.18833205639385 45.141622078604996,237.38831929140724 44.677387826144695,234.28242342267185 43.284685065969825,231.45887813949957 42.58833368588239,228.63532944396138 42.58833368588239,226.65884332591668 41.19563092570752,227.2235538160894 38.64234253298491,225.81177733442746 34.00000000093132,224.4000000001397 30.98247735388577,225.2470665036235 27.96495470777154,226.65884332591668 26.34013482183218,230.6118138891179 25.411666315048933,234.0000690475572 25.643783441744745,236.25890308944508 24.251080681569874,240.77656461950392 24.251080681569874,243.31774539034814 23.55472930241376,247.83539326884784 24.251080681569874,250.94127111579292 24.483197808265686,255.17655243445188 24.018963554874063,258.8471233653836 22.858377922326326,262.51768852747045 24.94743206165731,263.3647412073333 28.42918896023184,265.6235468534287 31.678828733973205,267.60000000009313 34.696351380087435,267.60000000009313 38.874459659680724,265.90589740499854 41.42774805333465,263.92944282409735 43.748919318430126,260.8235822466668 44.677387826144695,257.1530144221615 44.90950495097786,252.63538456475362 43.748919318430126,248.96480387263 43.98103644605726,243.8824518530164 45.141622078604996,239.92950374865904 45.37373920623213,236.82361125876196 46.30220771115273,234.0000690475572 45.60585633199662,231.74123282171786 43.05256793834269,228.07061929488555 38.874459659680724,226.65884332591668 35.39270276017487,225.81177733442746 32.60729724075645,225.81177733442746 30.286125973798335,226.94119858834893 26.34013482183218,228.91768446774222 24.94743206165731,231.74123282171786 24.018963554874063,235.12948634149507 24.251080681569874,239.0824425695464 24.251080681569874,242.47068544104695 24.483197808265686,245.57657042192295 24.251080681569874,249.24715643795207 22.626260795630515,251.78832799429074 21.92990941554308,254.61184870218858 21.697792288847268,257.435365997022 22.626260795630515,260.25887987948954 23.78684642817825,262.51768852747045 25.411666315048933,265.34119626670144 28.42918896023184,266.75294885598123 31.678828733973205,266.75294885598123 36.55328839365393,267.60000000009313 39.57081103976816,264.7764949919656 41.42774805333465,262.2353375663515 43.748919318430126,258.56477195979096 43.98103644605726,254.61184870218858 43.98103644605726,251.22362344292924 45.141622078604996,247.55304053192958 45.83797345869243,244.16480503370985 45.60585633199662,241.05891817482188 45.60585633199662,238.5177349471487 46.07009058445692,235.12948634149507 45.37373920623213,232.30594208301045 44.44527069851756,229.76474933186546 43.05256793834269,226.94119858834893 40.03504529315978,225.2470665036235 36.55328839365393,225.2470665036235 32.60729724075645,225.2470665036235 28.89342321548611,225.81177733442746 26.804369075223804,228.07061929488555 24.483197808265686,231.74123282171786 24.94743206165731,234.28242342267185 24.94743206165731,237.6706732562743 23.55472930241376,242.18833205639385 23.55472930241376,246.14127633837052 24.251080681569874,247.55304053192958 23.32261217571795,251.22362344292924 22.626260795630515,253.2000887747854 23.090495048090816,256.588311167201 23.78684642817825,259.6941773761064 24.251080681569874,262.80003945552744 25.875900567509234,265.34119626670144 27.73283758200705,266.4705984070897 34.00000000093132,266.4705984070897 38.17810827959329,266.4705984070897 40.267162419855595,265.34119626670144 43.98103644605726,261.95298657077365 43.284685065969825,257.1530144221615 43.05256793834269,252.63538456475362 44.21315357182175,249.81186146754771 43.05256793834269,246.14127633837052 44.44527069851756,243.8824518530164 45.37373920623213,241.9059786372818 46.07009058445692,237.6706732562743 46.30220771115273,234.0000690475572 45.60585633199662,230.6118138891179 43.05256793834269,227.78826416935772 38.64234253298491,225.2470665036235" stroke="#4DD2FF" stroke-dasharray="none" stroke-linecap="round" stroke-linejoin="round" stroke-width="0.5"><title>2013-10-06 10.6km</title><desc>9223370655838244807</desc></polyline><polyline fill="none" opacity="1" points="90.2109059728682,238.80009051598608 90.43855932168663,241.01548102218658 89.5279459245503,244.3385627658572 89.98325262311846,247.6616396890022 89.7555992724374,251.261634249473 88.84498587623239,255.69238901790231 88.16202582698315,258.46160639775917 89.0726392250508,261.50774164893664 90.43855932168663,263.1692682597786 93.39805286563933,265.9384766018484 95.67458635941148,267.3230795171112 97.95111985504627,267.60000000009313 102.27653349470347,266.49231786769815 106.14664043672383,264.5538728488609 108.65082728024572,260.4000565716997 109.78909402806312,256.800076372223 110.01674737781286,253.47701270505786 110.47205407731235,250.4308667758014 111.61032082512975,247.3847167957574 110.92736077588052,243.78471614304 110.92736077588052,240.46163359680213 111.61032082512975,237.41547036124393 111.83797417394817,234.64622754161246 111.61032082512975,231.8769813736435 109.5614406792447,230.21543206600472 107.96786723192781,228.00003111502156 105.23602703865618,226.89232983626425 102.27653349470347,227.44618054293096 97.72346650529653,228.00003111502156 95.44693301152438,228.55388155416586 93.8533595642075,230.21543206600472 93.62570621352643,231.8769813736435 92.71509281732142,234.64622754161246 92.48743946664035,237.69239445892163 91.80447941832244,241.84625191055238 91.12151937000453,244.89240925433114 91.80447941832244,248.49240816570818 90.89386602025479,251.5385566733312 90.43855932168663,255.1385451410897 89.5279459245503,257.90776318963617 89.5279459245503,259.84621383203194 90.43855932168663,262.8923472412862 92.03213276807219,265.10771445115097 96.12989305891097,266.21539725130424 99.31703995261341,267.0461590006016 102.27653349470347,266.21539725130424 105.23602703865618,265.9384766018484 107.2849071836099,263.7231101959478 108.65082728024572,261.50774164893664 109.5614406792447,257.6308415350504 109.33378732949495,254.58470112946816 110.2444007275626,250.7077893000096 110.2444007275626,247.1077938694507 110.01674737781286,243.50779278133996 109.78909402806312,238.80009051598608 110.2444007275626,235.47700073826127 110.92736077588052,234.09237857535481 110.2444007275626,231.32313173846342 107.96786723192781,228.83080672309734 105.00837368983775,226.06155352527276 102.9594935439527,225.23077691416256 99.77234665118158,225.78462802176364 96.35754640772939,225.78462802176364 94.5363196125254,226.61540443263948 93.39805286563933,229.66158202895895 91.80447941832244,232.4308308751788 91.57682606950402,235.47700073826127 90.89386602025479,239.07701444602571 90.2109059728682,242.95394595898688 89.7555992724374,245.4462556091603 89.0726392250508,248.49240816570818 89.0726392250508,251.81547906342894 88.16202582698315,255.1385451410897 87.70671912748367,257.6308415350504 87.93437247723341,260.67697789077647 89.0726392250508,263.1692682597786 92.03213276807219,265.6615559179336 95.67458635941148,266.49231786769815 99.77234665118158,266.76923845126294 103.41480024252087,266.21539725130424 105.91898708697408,264.2769519982394 108.65082728024572,262.0615839860402 109.78909402806312,257.90776318963617 110.2444007275626,255.1385451410897 110.69970742613077,252.09240142116323 110.92736077588052,249.3231763425283 111.38266747444868,245.4462556091603 111.61032082512975,243.23086938657798 111.83797417394817,240.18470983416773 112.06562752369791,237.41547036124393 112.29328087251633,234.36930307536386 111.61032082512975,231.6000565723516 110.47205407731235,229.1077318591997 108.19552058167756,226.61540443263948 105.69133373815566,225.23077691416256 102.9594935439527,224.4000000001397 100.68296004924923,224.95385130867362 96.81285310722888,225.50770248449408 94.08101291395724,227.16925520659424 92.71509281732142,230.76928196917288 91.12151937000453,235.20007637282833 90.2109059728682,237.9693185237702 89.98325262311846,240.18470983416773 89.7555992724374,243.23086938657798 89.98325262311846,246.27702489006333 90.2109059728682,249.6000990010798 89.98325262311846,252.64624603441916 89.7555992724374,255.96931090718135 90.2109059728682,259.2923709584866 91.57682606950402,262.3385051051155 94.08101291395724,264.00003111432306 96.81285310722888,266.76923845126294 100.68296004924923,266.76923845126294 102.9594935439527,266.49231786769815 106.37429378647357,264.83079366665334 108.4231739314273,262.8923472412862 109.5614406792447,259.56929241190664 110.01674737781286,256.800076372223 110.92736077588052,253.75393486046232 110.92736077588052,250.4308667758014 111.61032082512975,247.6616396890022 111.61032082512975,244.61548602650873 111.38266747444868,241.56932831485756 112.52093422133476,237.9693185237702 111.61032082512975,235.20007637282833 110.69970742613077,231.8769813736435 110.01674737781286,229.3846569606103 107.51256053335965,227.72310584550723 104.32541364058852,226.06155352527276 101.36592009756714,226.61540443263948 97.26815980672836,226.89232983626425 94.30866626370698,228.83080672309734 92.94274616613984,230.76928196917288 90.89386602025479,234.09237857535481 90.43855932168663,236.30777363479137 89.5279459245503,239.90778603730723 89.7555992724374,242.95394595898688 88.61733252555132,246.00010183011182 88.61733252555132,249.3231763425283 87.93437247723341,252.64624603441916 87.47906577866524,255.96931090718135 88.16202582698315,259.2923709584866 89.30029257386923,262.3385051051155 92.71509281732142,264.2769519982394 96.35754640772939,265.9384766018484 98.8617332521826,265.38463520118967 102.27653349470347,264.5538728488609 104.78072033915669,261.7846628341358 107.96786723192781,259.84621383203194 109.5614406792447,257.35391984693706 110.2444007275626,255.1385451410897 110.47205407731235,251.81547906342894 110.92736077588052,248.49240816570818 111.15501412469894,246.00010183011182 111.61032082512975,242.12317547295243 111.15501412469894,239.35393834323622 111.38266747444868,235.20007637282833 111.61032082512975,231.8769813736435 110.92736077588052,229.9385070647113 109.10613397974521,228.55388155416586 105.91898708697408,226.61540443263948 102.73184019327164,226.06155352527276 99.54469330050051,226.89232983626425 95.67458635941148,228.83080672309734 94.30866626370698,231.32313173846342 93.8533595642075,234.64622754161246 92.94274616613984,238.523166552186" stroke="#4DD2FF" stroke-dasharray="none" stroke-linecap="round" stroke-linejoin="round" stroke-width="0.5"><title>2013-09-29 10.5km</title><desc>9223370656443428807</desc></polyline><polyline fill="none" opacity="1" points="163.30274038854986,227.40762165863998 160.83025240991265,229.3215606319718 159.70639423839748,232.3291757463012 158.80730770155787,235.88362481584772 158.35776443220675,239.43806830001995 157.90822116378695,242.7190880975686 157.23390626069158,245.72668539732695 156.55959135759622,248.46086128987372 155.88527645450085,251.7418679993134 155.88527645450085,255.29628656315617 155.88527645450085,258.57728335657157 157.23390626069158,261.8582753909286 159.93116587307304,263.22535400046036 163.30274038854986,265.13926266669296 166.44954326935112,265.13926266669296 168.92203124705702,264.0456007702742 171.84406249318272,263.22535400046036 173.8670072024688,261.0380278278608 175.21563700865954,258.3038671386894 176.11472354643047,255.29628656315617 176.11472354643047,251.7418679993134 176.11472354643047,248.73427869705483 176.7890384485945,246.00010313582607 176.7890384485945,242.17225179541856 177.912896621041,238.8912312053144 177.23858171794564,237.25071912514977 176.3394951801747,234.51652968092822 175.21563700865954,230.68865890661255 173.417463934049,227.95446153078228 170.94497595634311,225.49368106527254 169.59634615015239,225.76710125035606 165.5504567315802,224.94684059894644 162.85319711919874,226.5873616025783 160.38070914149284,228.22788141667843 159.25685096997768,232.055756355403 157.90822116378695,233.6962722032331 157.23390626069158,238.6178126083687 156.55959135759622,240.80516046099365 156.33481972292066,244.9064319843892 156.33481972292066,247.09377375710756 156.11004808917642,249.28111341316253 156.11004808917642,253.38236956926994 154.7614182829857,255.56970314332284 155.2109615514055,261.0380278278608 156.11004808917642,263.4987696236931 161.504567313008,265.4126780577935 163.75228365696967,265.95950874197297 167.1238581724465,265.95950874197297 171.16974759008735,264.86584724183194 174.09177883714437,262.1316911787726 176.11472354643047,258.0304508882109 176.7890384485945,253.65578638156876 175.21563700865954,250.92161676776595 173.64223556779325,249.55453072185628 175.4404086433351,245.17984982184134 177.01381008327007,239.98490526387468 177.4633533526212,238.07097531366162 176.7890384485945,235.06336783478037 177.912896621041,231.235497985268 175.21563700865954,228.50130126997828 172.51837739627808,225.49368106527254 170.72020432166755,224.94684059894644 165.32568509690464,225.49368106527254 163.75228365696967,225.76710125035606 160.83025240991265,228.22788141667843 158.35776443220675,230.41523931804113 157.68344952911139,232.87601442844607 157.23390626069158,236.43046263838187 156.11004808917642,241.07857879367657 156.55959135759622,244.35959621169604 156.78436299134046,246.54693851224147 156.11004808917642,250.92161676776595 156.55959135759622,254.20261990698054 155.2109615514055,258.3038671386894 155.88527645450085,261.5848595700227 156.11004808917642,263.4987696236931 159.93116587307304,264.86584724183194 163.5275120222941,267.3265848727897 165.77522836532444,266.77975451922975 168.69725961238146,265.95950874197297 171.61929085943848,264.86584724183194 174.54132210556418,261.5848595700227 174.76609374023974,259.3975318111479 175.4404086433351,256.66336913825944 176.3394951801747,253.92920316033997 177.4633533526212,250.92161676776595 176.56426681485027,247.3671913293656 175.4404086433351,243.53934230282903 175.66518027707934,240.5317420954816 176.11472354643047,237.25071912514977 177.23858171794564,236.43046263838187 178.13766825478524,232.87601442844607 176.7890384485945,230.14181969570927 177.912896621041,230.41523931804113 177.4633533526212,227.68104161159135 174.31655047088861,226.31394151831046 170.94497595634311,225.22026084875688 167.79817307554185,224.6734203158412 163.75228365696967,225.76710125035606 160.60548077523708,228.22788141667843 157.90822116378695,230.14181969570927 157.68344952911139,233.42285297834314 155.43573318608105,237.25071912514977 154.08710337989032,241.62541536078788 155.6605048198253,241.62541536078788 156.33481972292066,243.2659242679365 155.88527645450085,246.8203561506234 155.2109615514055,250.92161676776595 152.96324520744383,253.10895272321068 154.98618991766125,256.11653620772995 155.2109615514055,258.57728335657157 156.78436299134046,262.9519383441657 158.80730770155787,265.4126780577935 161.504567313008,266.23292403365485 165.32568509690464,266.23292403365485 168.92203124705702,267.60000000009313 172.51837739627808,266.23292403365485 173.64223556779325,264.0456007702742 173.8670072024688,260.49119595531374 175.21563700865954,259.3975318111479 175.4404086433351,255.29628656315617 177.4633533526212,248.73427869705483 177.4633533526212,244.08617827459238 175.4404086433351,241.35199709353037 176.11472354643047,238.07097531366162 176.56426681485027,235.61020585522056 177.01381008327007,232.055756355403 176.7890384485945,230.14181969570927 175.21563700865954,227.1342016728595 171.61929085943848,225.76710125035606 168.24771634396166,224.4000000001397 165.5504567315802,225.76710125035606 163.0779687538743,226.8607816544827 159.93116587307304,229.04814087809063 157.00913462601602,232.055756355403 155.2109615514055,235.61020585522056 156.33481972292066,239.16464976919815 156.55959135759622,243.53934230282903 156.55959135759622,246.8203561506234 155.88527645450085,250.64819962508045 154.31187501456589,253.10895272321068 155.88527645450085,256.66336913825944 155.2109615514055,259.3975318111479 156.33481972292066,262.4051069342531 157.23390626069158,264.86584724183194 161.27979567926377,264.31901629362255 163.75228365696967,265.95950874197297 167.1238581724465,265.13926266669296 170.27066105324775,264.592431783909 172.06883412785828,263.4987696236931 174.54132210556418,259.6709478965495 176.7890384485945,257.4836182866711 176.7890384485945,254.20261990698054 176.7890384485945,252.83553584385663 176.11472354643047,251.195033878088 177.23858171794564,247.91402637632564 177.4633533526212,243.53934230282903 179.03675479255617,240.25832369620912 177.68812498636544,239.98490526387468 177.4633533526212,236.43046263838187 178.8119831578806,233.6962722032331 177.4633533526212,231.235497985268" stroke="#4DD2FF" stroke-dasharray="none" stroke-linecap="round" stroke-linejoin="round" stroke-width="0.5"><title>2013-09-22 10.9km</title><desc>9223370657048162807</desc></polyline></svg>