<?xml version="1.0" encoding="utf-8" ?>
<svg baseProfile="full" height="300mm" version="1.1" viewBox="0,0,200,300" width="200mm" xmlns="http://www.w3.org/2000/svg" xmlns:ev="http://www.w3.org/2001/xml-events" xmlns:xlink="http://www.w3.org/1999/xlink"><defs /><rect fill="#222222" height="300" width="200" x="0" y="0" /><text fill="#FFFFFF" style="font-size:12px; font-family:Arial; font-weight:bold;" x="10" y="20">Over 10km Runs</text><text fill="#FFFFFF" style="font-size:4px; font-family:Arial" x="10" y="280">Runner</text><text fill="#FFFFFF" style="font-size:9px; font-family:Arial" x="10" y="290">keep</text><text fill="#FFFFFF" style="font-size:4px; font-family:Arial" x="65" y="280">SPECIAL TRACKS</text><rect fill="yellow" height="2.6" width="2.6" x="65" y="283" /><text fill="#FFFFFF" style="font-size:3px; font-family:Arial" x="70" y="285.5">Over 20.0 km</text><rect fill="red" height="2.6" width="2.6" x="65" y="287" /><text fill="#FFFFFF" style="font-size:3px; font-family:Arial" x="70" y="289.5">Over 40.0 km</text><text fill="#FFFFFF" style="font-size:4px; font-family:Arial" x="120" y="280">STATISTICS</text><text fill="#FFFFFF" style="font-size:3px; font-family:Arial" x="120" y="285">Number: 15</text><text fill="#FFFFFF" style="font-size:3px; font-family:Arial" x="120" y="290">Weekly: 1.2</text><text fill="#FFFFFF" style="font-size:3px; font-family:Arial" x="141" y="285">Total: 163.6 km</text><text fill="#FFFFFF" style="font-size:3px; font-family:Arial" x="141" y="290">Avg: 10.9 km</text><text fill="#FFFFFF" style="font-size:3px; font-family:Arial" x="167" y="285">Min: 10.2 km</text><text fill="#FFFFFF" style="font-size:3px; font-family:Arial" x="167" y="290">Max: 14.0 km</text><polyline fill="none" opacity="1" points="26.604331687267404,75.59999999999854 26.534602345491294,75.35866096922837 26.49973767454503,75.0734412017191 26.56075084861368,74.71143007232604 26.586899351794273,74.42620806022023 26.56946701632114,74.10807464904065 26.552034680906218,73.77896982523816 26.56946701632114,73.46083391041611 26.57818318408681,73.13172649658372 26.595615519501735,72.85746931233734 26.613047854974866,72.57224087058421 26.78737120941514,72.39671518396062 27.05757240881212,72.3638040759979 27.214463427837472,72.31992257824459 27.223179595544934,72.13342595159338 27.27547660190612,71.93595847416145 27.284192769613583,71.67266776669567 27.25804426643299,71.29967115486943 26.996559234743472,71.13511328833556 26.804803544888273,70.95958453437925 26.874532886664383,70.53173162708845 26.9181137252599,70.23552446423128 26.97041073156288,69.89543344305275 27.00527540250914,69.57728250475338 27.05757240881212,69.2591303356312 27.083720911992714,68.97388941340614 27.136017918295693,68.77641434920224 27.20574726013001,68.66670577532204 27.214463427837472,68.48020086376346 27.162166421476286,68.39243370023178 27.240611930959858,68.21689909210545 27.310341272794176,67.95359647735313 27.371354446862824,67.69029301955743 27.441083788638934,67.39407562177803 27.5456778013031,67.04300176857942 27.61540714307921,66.76872427788476 27.711284987977706,66.48347471709712 27.876892174768727,66.46153240222338 28.077364032389596,66.56027277309477 28.31270056089852,66.49444587231847 28.556753257114906,66.31890721269883 28.643914934364147,66.0775409438138 28.8008059533895,65.77034648602421 28.957696972356644,65.4631508806342 29.123304159147665,65.17789679086854 29.28891134588048,64.9036130790555 29.42837002937449,64.62932845233445 29.593977216165513,64.32212858417188 29.742152067483403,64.0258990529328 29.94262392510427,63.652867754797626 30.169244285847526,63.29080634700949 30.387148478941526,62.87388517531508 30.587620336504187,62.53376370631304 30.75322752329521,62.25947117424221 30.936267045442946,61.97420597022574 31.093158064468298,61.73282694768568 31.25004908349365,61.49144721646735 31.433088605699595,61.206179347864236 31.60741196013987,60.87702288499713 31.720722140511498,60.55883705164888 31.86018082406372,60.26259396198293 32.08680118486518,59.988293853151845 32.36571855196962,59.801769256439 32.548758074175566,59.56038385611464 32.70564909320092,59.29705352021119 32.84510777675314,59.165388035988144 32.93226945394417,58.96788941430714 33.04557963437401,58.7374737560458 33.10659280838445,58.550946321680385 33.28091616288293,58.441224103749846 33.43780718190828,58.40830740983074 33.55111736227991,58.37539070274215 33.68185987812467,58.23275148632092 33.83875089715002,58.057195187953766 34.02179041929776,57.83774928782077 34.22226227691863,57.58538577858417 34.353004792763386,57.4208004638931 34.274559283279814,57.08065643615555 34.29199161869474,56.8063457112512 34.40530179912457,56.564951516265864 34.631922159926035,56.31258410006558 34.80624551436631,56.08216099996935 34.91955569473794,55.7749291952714 35.07644671376329,55.46769624242734 35.30306707456475,55.21532545792434 35.55583593854681,54.98489928247727 35.69529462209903,54.754472461158 35.83475330565125,54.4472356947299 35.965495821496006,54.12902497613686 36.17468384682434,53.86567724312772 36.47103354940191,53.82178587225644 36.671505407080986,53.624274413406965 36.77609941968694,53.317033423125395 36.854544929170515,53.00979128458857 36.90684193558991,52.73546697622078 36.98528744507348,52.3733574875223 37.08116528997198,52.01124640380294 37.15089463174809,51.79178436463553 37.16832696727943,51.627187450794736 37.23805630899733,51.352858528603974 37.29906948306598,50.979769725337974 37.39494732802268,50.60667922876746 37.49954134068685,50.17872039752547 37.54312217928236,49.860493155654694 37.62156768882414,49.4983710025117 37.708729366073385,49.20208805431321 37.78717487555696,48.80704246214009 37.848188049625605,48.43394210409315 37.909201223694254,48.082787278923206 38.00507906859275,47.72065729431051 38.07480841036886,47.369499421962246 38.14453775220318,47.073208800276916 38.22298326168675,46.71107436786406 38.2839964357554,46.40380753765203 38.34500960976584,46.12946118292166 38.38859044841956,45.99777460740734 38.43217128701508,45.72342689746438 38.49318446108373,45.394208436751796 38.5716299705673,45.03206660696742 38.65879164781654,44.6918713134437 38.71980482188519,44.318752275634324 38.72852098959265,44.25290756375034 38.76338566048071,44.022450656673755 38.824398834549356,43.7261479695444 38.9115605117986,43.33107605842815 38.96385751810158,42.990873724396806 39.04230302758515,42.672618653217796 39.09460003400454,42.475080402960884 39.14689704030752,42.321439213446865 39.164329375722446,42.222669725662854 39.21662638208363,42.10195130162174 39.18176171119558,41.91538611572469 39.19047787890304,41.662973719488946 39.225342549791094,41.39958604482672 39.295071891567204,41.14717206450587 39.34736889792839,40.949630147872085 39.55655692325672,40.96060471126839 39.82675812271191,41.059375715776696 40.11439165752381,41.16912113704893 40.384592856979,41.24594284480554 40.46303836640436,41.081324811711966 40.489186869584955,40.86183358808921 40.48047070187749,40.59844334594527 40.489186869584955,40.23628038474271 40.51533537276555,39.84119169781479 40.558916211361066,39.51194967453921 40.567632379126735,39.23758031422767 40.428173695574515,39.051008626011026 40.140540160704404,39.116857505519874 39.82675812271191,39.17173153148178 39.64371860050596,39.14978192547278 39.69601560680894,38.831511979973584 39.74831261317013,38.513240801934444 39.81804195494624,38.19496839129715 39.87905512901489,37.8437698180569 39.98364914167905,37.492569744026696 40.02722998027457,37.19624351411767 40.079526986635756,36.86699089437025 40.11439165752381,36.559687259163184 40.157972496177536,36.30725841343519 40.12310782528948,36.19750649951311 40.19283716700738,36.07677922491712 40.37587668921333,35.978002231968276 40.50661920505809,35.857274634894566 40.37587668921333,35.71459633696941 40.32357968291035,35.56094250833121 40.34101201832527,35.38533778099372 40.41074136010138,35.36338716366299 40.59378088230733,35.4072883924091 40.78553657216253,35.38533778099372 40.924995255772956,35.42923899798916 41.09060244250577,35.36338716366299 41.264925796946045,35.341436540475115 41.334655138722155,35.14388066812535 41.36951980961021,34.73779210559587 41.404384480498265,34.32072608770977 41.44796531909378,34.04633939523774 41.456681486801244,33.73902521196578 41.474113822274376,33.58536768933118 41.49154615774751,33.38780759520159 41.4218168159714,33.26707619277295 41.22134495835053,33.23414941585361 41.00344076519832,33.20122262575751 40.837833578523714,33.10244217628497 40.61992938548792,33.06951533339452 40.30614734743722,33.00366160808335 39.992365309386514,32.93780782997783 39.669867103686556,32.86097835547116 39.373517401108984,32.79512446300214 39.033586859935895,32.71829485511989 38.81568266678369,32.60853814780421 38.615210809221026,32.58658678874781 38.35372577753151,32.57561110700772 38.03122757177334,32.553659739147406 37.7523102046689,32.54268405303446 37.41237966349581,32.50975698584807 37.14217846409883,32.476829905492195 36.81968025834067,32.44390281193773 36.523330555763096,32.42195140890544 36.48846588487504,32.39999999999418 36.41002037533326,32.61951382512052 36.34029103355715,32.79512446300214 36.31414253037656,32.98171035457926 36.27056169178104,33.2121982239114 36.25312935630791,33.42073431056633 36.20954851771239,33.62926986797538 36.11367067275569,33.81585386552615 36.017792827798985,33.96951095715485 35.93934731831541,34.178045121945615 35.895766479719896,34.32072608770977 35.826037137943786,34.50730851526896 35.738875460694544,34.67193971716915 35.6517137834453,34.86949672415358 35.56455210619606,35.04510255379864 35.47739042900503,35.15485600680404 35.3640802486334,35.4511895977048 35.28563473909162,35.71459633696941 35.1461760555394,35.99995268510975 35.01543353969464,36.329208778632164 34.8585425207275,36.65846355294343 34.71036766940961,36.96576681880106 34.57090898579918,37.25111882248166 34.44888263772009,37.53646983535873 34.29199161869474,37.85474479619006 34.13510059972759,38.140093713169335 34.0130742515903,38.425441639337805 33.90848023892613,38.63396449730499 33.864899400330614,38.75468801535317 33.786453890788835,38.831511979973584 33.69057604589034,38.93028554326156 33.67314371041721,39.21563072583376 33.55111736227991,39.51194967453921 33.37679400778143,39.78631811886589 33.307064666063525,39.98386283164291 33.2634838274098,40.115559043042595 33.4813880205038,40.20335640004487 33.76902155537391,40.20335640004487 34.08280359336641,40.24725504338858 34.422734134539496,40.291153663281875 34.74523234029766,40.33505225972476 35.05901437829016,40.37895083270996 35.3640802486334,40.42284938226658 35.66042995121097,40.45577327901265 35.878334144246764,40.4447986482337 35.956779653788544,40.26920435625652 36.00907666009152,40.060685647251375 36.00036049238406,39.88509053464077 36.10495450504823,39.907039944213466 36.20954851771239,40.005812214854814 36.20083235000493,40.26920435625652 36.13110300822882,40.65331638266798 36.05265749874525,41.004502950119786 35.9916443246766,41.36666252613213 35.92191498290049,41.72882050629414 35.83475330565125,42.10195130162174 35.7737401315826,42.42020858253818 35.73015929298708,42.705541648763756 35.63428144803038,43.04574516382854 35.6778622866841,43.33107605842815 35.56455210619606,43.62738016979711 35.398944919521455,43.87978653326718 35.320499409979675,44.176088666543365 35.2420539004961,44.49433791619231 35.2420539004961,44.76868972860393 35.28563473909162,44.95524843796011 35.398944919521455,45.196676727391605 35.31178324227221,45.53686993159499 35.259486235969234,45.92095734092436 35.15489222330507,46.33796449600777 35.09387904917821,46.68912677523622 35.050298210582696,47.05126130433928 35.03286587516777,47.380473128192534 35.0241497074021,47.70968363350403 35.0241497074021,48.060840052581625 35.00671737198718,48.411994971495005 34.99800120427972,48.7631483902951 34.971852701099124,49.10332683423621 34.9544203656842,49.41058357365546 34.91955569473794,49.739785948520876 34.8585425207275,50.07996035087854 34.78009701118572,50.43110664447158 34.78009701118572,50.738358420931036 34.78009701118572,51.089501902060874 34.719083837175276,51.407724386306654 34.59705748897977,51.79178436463553 34.38786946370965,52.07708490129153 34.17868143832311,52.27460007744958 33.90848023892613,52.483087804073875 33.6992922135978,52.691575001954334 33.43780718190828,52.9110346390371 33.298348498297855,53.097574869891105 33.20247065334115,53.24022299614444 33.07172813749639,53.40481668036227 32.949701789417304,53.5913557908425 32.86254011216806,53.88762291974854 32.71436526090838,54.21680736637063 32.548758074175566,54.53501774514007 32.37443471973529,54.85322689219902 32.24369220389053,55.08365343675541 32.200111365295015,55.35796990957169 32.29598921019351,55.53353197181423 32.391867055150215,55.752984022423334 32.269840707071126,56.038270812459814 32.28727304248605,56.180913836244144 32.269840707071126,56.14799623732688 32.112949688045774,56.26869403554883 31.93862633354729,56.510089100396726 31.755586811399553,56.79537326323771 31.52025028289063,57.025794364381 31.328494592977222,57.289131974939664 31.241332915786188,57.54149639354728 31.110590399883222,57.83774928782077 30.97984788409667,57.991361479405896 30.779376026475802,57.98038918952807 30.54403949790867,57.991361479405896 30.26512213080423,57.92552771815099 29.960056260519195,57.914555419483804 29.654990390175954,57.914555419483804 29.49809937120881,57.92552771815099 29.35864068759838,57.947472311112506 29.28891134588048,58.10108429769025 29.175601165450644,58.29858500158298 29.088439488201402,58.51802967167896 29.036142481898423,58.83622340296279 28.914116133761127,59.055666638079856 28.86181912739994,59.19830442680541 28.792089785682037,59.27510928748234 28.556753257114906,59.49455135120661 28.356281399494037,59.70302076925873 28.295268225483596,59.93343372158415 28.37371373496717,60.087041997743654 28.44344307674328,60.1967620193318 28.469591579923872,60.40522965689888 28.53060475399252,60.63564064139791 28.52188858628506,60.723416084685596 28.3649975672015,60.591752884611196 28.199390380526893,60.84410716621642 28.04249936150154,61.1074325473528" stroke="#4DD2FF" stroke-dasharray="none" stroke-linecap="round" stroke-linejoin="round" stroke-width="0.5"><title>2017-12-17 14.0km</title><desc>9223370523376934807</desc></polyline><polyline fill="none" opacity="1" points="100.65658550558146,32.40000000000873 100.62922777619679,32.76149422508024 100.62922777619679,33.12298743800784 100.51979685859988,33.45005185357877 100.54715458798455,33.6221906869614 100.69762209965847,34.39681259646022 100.6018700467539,34.655018866833416 100.76601642312016,34.964865709567675 100.8480896113324,35.24028450110927 100.88912620540941,35.550129939219914 100.9164839348523,35.94604247238021 100.93016279954463,36.30752676850534 100.97119939362165,36.60015617165482 101.0259148524492,36.94442520853772 101.12166690529557,37.21983977704076 101.16270349943079,37.54689381411299 101.21741895825835,37.89116032648599 101.25845555233536,38.21821266297775 101.46363852277864,38.25263917648408 101.64146376389544,38.407558373815846 101.60042716981843,38.57969059723837 101.42260192870162,38.682969821195 101.3405287405476,38.8723148504796 101.43628079339396,39.13051217018801 101.57306944043376,39.45756136723503 101.696179222723,39.76739668443042 101.76457354618469,40.077231258081156 101.91504105785862,40.36985211719002 102.06550856953254,40.6624723130808 102.24333381064935,41.00673051799822 102.22965494595701,41.29934927052818 101.96975651674438,41.35098780505359 101.72353695210768,41.196072139486205 101.53203284629853,41.04115628807631 101.32684987579705,40.9206660528871 101.06695144652622,41.023943404186866 100.83441074664006,41.023943404186866 100.62922777619679,41.178859276275034 100.64290664088912,41.35098780505359 100.65658550558146,41.6263929738343 100.41036594106117,41.76409533787228 100.10943091759691,41.884584785977495 99.83585362363374,41.936223086493555 99.52123973559355,41.936223086493555 99.54859746497823,41.712456968583865 99.61699178849813,41.40262631897349 99.71274384134449,41.12722067293362 99.80849589424906,40.78296278924972 99.86321135301841,40.38706508827454 99.8905690824613,40.04280523110356 99.83585362363374,39.69854445598321 99.78113816480618,39.28543031409208 99.56227632961236,39.19936470154789 99.26134130632272,39.19936470154789 99.09719492989825,39.02723330425215 99.06983720051358,38.90674118961033 99.05615833576303,38.64854342243052 99.0424794711289,38.424771606514696 98.87833309476264,38.37313190154964 98.6868289889535,38.33870542017394 98.5090037478949,38.35591866202594 98.46796715370147,38.52805095433723 98.48164601845201,38.82067532457586 98.49532488314435,39.14772530643677 98.5090037478949,39.45756136723503 98.53636147727957,39.76739668443042 98.53636147727957,40.111657275934704 98.53636147727957,40.43870398767467 98.53636147727957,40.731324027554365 98.5500403419137,41.07558204891393 98.53636147727957,41.40262631897349 98.5500403419137,41.69524417420325 98.56371920666425,41.95343584869988 98.57739807135658,42.19441427910351 98.56371920666425,42.40096686143079 98.5500403419137,42.676369790540775 98.52268261258723,42.93455950311909 98.5090037478949,43.15832350299752 98.48164601845201,43.34766196932469 98.46796715370147,43.58863779754029 98.42693055968266,43.82961317601439 98.440609424375,44.036163142562145 98.440609424375,44.32877502942574 98.440609424375,44.65581105944875 98.440609424375,45.000058617282775 98.42693055968266,45.32709294706001 98.440609424375,45.63691417971859 98.45428828906734,45.96394689650333 98.45428828906734,46.25655441467825 98.46796715370147,46.600797704813886 98.46796715370147,46.8589795701846 98.46796715370147,47.16879712710215 98.440609424375,47.375341752151144 98.440609424375,47.63352206873242 98.41325169499032,47.87448989854602 98.46796715370147,48.16709308726422 98.5090037478949,48.44248371804133 98.5500403419137,48.73508561971539 98.59107693604892,49.07932230223378 98.64579239487648,49.45798159306287 98.72786558308871,49.819428062066436 98.83729650062742,50.146450186075526 98.93304855347378,50.40462496210239 99.05615833576303,50.74885719390295 99.15191038872581,51.04145386937307 99.28869903564919,51.28241533966502 99.34341449447675,51.4201074065204 99.45284541207366,51.66106817020045 99.56227632961236,51.90202848422632 99.60331292374758,52.09135412983596 99.63067065313226,52.28067949786782 99.76745930017205,52.4183705002506 99.8905690824613,52.556061355848215 100.0,52.72817471885355 100.10943091759691,52.90028785247705 100.23254069988616,53.12403458321933 100.34197161748307,53.330569682919304 100.53347572329221,53.48547079091077 100.72497982910136,53.74363889134838 100.90280507015996,54.001806475556805 101.06695144652622,54.242762421868974 101.2310978230089,54.48371791862883 101.29949214647058,54.63861764338799 101.42260192870162,54.86236136226216 101.60042716981843,55.12052671003039 101.77825241081882,55.36148056885577 101.96975651674438,55.688488658328424 102.09286629897542,55.8950196566002 102.25701267534168,56.15318293990276 102.40748018707382,56.41134570709255 102.58530542813241,56.721140346548054 102.76313066924922,57.01372349029407 102.94095591030782,57.32351668467163 103.13246001611697,57.61609846369538 103.31028525711736,57.85704766634444 103.51546822761884,58.1840494365606 103.66593573929276,58.459418706115684 103.88479757448658,58.80362946735113 104.07630168029573,59.06178693618858 104.22676919202786,59.35436477707117 104.36355783895124,59.61252114504168 104.5277042153757,59.85346662288066 104.69185059174197,60.111621993171866 104.86967583280057,60.38698715266946 104.99278561508982,60.610720912445686 105.17061085620662,60.85166452793055 105.36211496195756,61.12702810957853 105.52626133838203,61.40239110405673 105.67672885005595,61.62612310476834 105.84087522642221,61.95311533167842 106.01870046753902,62.262896677755634 106.2238834380405,62.58988729242992 106.37435094971443,62.86524716790882 106.56585505552357,63.17502632609103 106.79839575540973,63.51922451927385 106.96254213171778,63.777372562195524 107.1130096433917,64.01831027003936 107.27715601981618,64.29366710006434 107.46866012562532,64.60344283211452 107.63280650193337,64.93042752103065 107.82431060774252,65.25741138210287 107.97477811953286,65.54997518760501 108.12524563114857,65.84253833045659 108.23467654874548,66.13510081055574 108.37146519566886,66.49650060632848 108.43985951924697,66.78906160507177 108.46721724863164,66.94394657148223 108.3441074663424,67.09883135212294 108.30307087220717,67.18487837219436 108.39882292516995,67.09883135212294 108.56296930153621,67.16766897277557 108.63136362505611,67.39139098652231 108.72711567784427,67.64953129008063 108.83654659555759,67.95929897337919 108.95965637778863,68.30348441678507 109.08276616007788,68.64766894301283 109.20587594236713,68.99185255207703 109.28794913057936,69.24998965699342 109.3700223187916,69.5081262459571 109.50681096577318,69.81788947181485 109.61624188331189,70.09323393770319 109.7256728009088,70.36857781668368 109.80774598912103,70.6267121702258 109.84878258313984,70.8676371013571 109.94453463610262,71.14297932951013 110.05396555364132,71.45273863461625 110.16339647129644,71.76249719687621 110.25914852420101,72.07225501627545 110.35490057704737,72.3475946765684 110.4369737652014,72.60572507503093 110.56008354749065,72.91548087228148 110.66951446508756,73.17361013592745 110.7926242473768,73.50057312933495 110.90205516503192,73.81032678068732 111.03884381201351,74.12007968917897 111.13459586485988,74.36099810455926 111.21666905307211,74.5502908299386 111.31242110597668,74.84283358723042 111.4628886176506,75.04933395814442 111.49024634703528,75.16979235537292 111.50392521178583,75.35908389555698 111.44920975295827,75.58279172171024 111.27138451189967,75.53116687320289 111.09355927078286,75.2902506403043 110.91573402972426,75.03212560647808 110.69687219458865,74.75679166858026 110.45065262995195,74.4470402868319 110.16339647129644,74.15449663321488 109.87614031264093,73.89636932978465 109.62992074800422,73.6554500478669 109.38370118342573,73.39732174712117 109.16483934823191,73.13919293055369 108.91861978365341,72.91548087228148 108.68607908382546,72.69176842657907 108.3851440604194,72.38201209281397 108.12524563114857,72.14108998638403 107.90638379595475,71.91737619941705 107.59176990785636,71.62482681646361 107.33187147858553,71.40111213533964 107.03093645529589,71.22902365543996 106.73000143188983,71.09135270646948 106.37435094971443,71.00530828876072 106.01870046753902,70.95368161069928 105.69040771474829,70.88484600777156 105.36211496195756,70.79880145259085 105.07485880330205,70.7471746919764 104.73288718587719,70.66113004501676 104.39091556833591,70.64392110875633 104.06262281560339,70.57508534078079 103.69329346873565,70.47183162000147 103.50178936298471,70.42020472871081 103.31028525711736,70.36857781668368 103.11878115136642,70.33415986396722 102.91359818086494,70.29974190201028 102.69473634572932,70.28253291762667 102.48955337522784,70.24811494185997 102.31172813416924,70.19648796113324 102.1202240283601,70.16206996250548 101.90136219316628,70.12765195468091 101.68250035797246,70.04160689507262 101.53203284629853,70.00718885516108 101.25845555233536,69.9039346804202 100.9164839348523,69.74905326354201 100.57451231742743,69.6285898109345 100.1778252411168,69.49091715608665 99.94528454128886,69.43928987265099 99.61699178849813,69.33603524391947 99.28869903564919,69.23278053267859 98.91936968883965,69.12952573889925 98.5500403419137,69.06068916381628 98.1943898597383,68.92301590362331 97.92081256583333,68.83697004149144 97.51044662483037,68.75092412201047 97.22319046617486,68.59604132255481 96.86753998399945,68.47557679456077 96.6760358781903,68.40673987091577 96.37510085484246,68.30348441678507 96.04680810199352,68.20022888002859 95.7185153493192,68.01092684837931 95.39022259647027,67.80441522460023 95.06192984373774,67.59790327062365 94.78835254977457,67.32255348512263 94.56949071458075,67.02999369475583 94.36430774413748,66.70301432134875 94.30959228530992,66.5137100951979 94.21384023234714,66.32440559161478 94.04969385609729,66.06626263959333 93.95394180313451,65.89416705156327 93.80347429146059,65.61881363380235 93.65300677978666,65.32624998416577 93.46150267403573,64.98205660673557 93.29735629761126,64.62065257319773 93.11953105649445,64.22482794763346 92.91434808605118,63.81179226223321 92.73652284493437,63.4331750569836 92.54501873912523,63.106186577366316 92.40823009220185,62.76198728341842 92.23040485102683,62.38336700052605 92.05257961002644,61.97032542598026 91.84739663952496,61.557282530440716 91.64221366902348,61.16144851598074 91.46438842796488,60.74840303347446 91.2592054575216,60.38698715266946 91.06770135165425,59.99114955122059 90.88987611059565,59.61252114504168 90.71205086947884,59.23389162875537 90.53422562842024,58.87247150951589 90.411115846131,58.511050378816435 90.2332906051306,58.235681219317485 90.11018082278315,57.92589021308231 90.01442876987858,57.59888778917957 89.89131898758933,57.2546738168312 89.79556693474296,56.8760373875848 89.71349374653073,56.48018902457261 89.64509942306904,56.08433944816352 89.60406282893382,55.74012143888103 89.54934737010626,55.327058616589056 89.52198964072159,54.9828385887522 89.48095304664457,54.55256226367783 89.42623758781701,54.225551297786296 89.42623758781701,53.846905986982165 89.39887985843234,53.502682013684534 89.37152212904766,53.08961203448416 89.39887985843234,52.72817471885355 89.41255872312468,52.383947763431934 89.41255872312468,52.022508472626214 89.38520099368179,51.643856701950426 89.28944894083543,51.23078077676473 89.22105461731553,50.8693382582278 89.22105461731553,50.54231796496606 89.19369688793086,50.12923851599044 89.16633915854618,49.802216348354705 89.12530256446917,49.47519335259858 89.05690824100748,49.07932230223378 89.11162369971862,48.66623817308573 89.19369688793086,48.28757656048401 89.19369688793086,47.977761687900056 89.19369688793086,47.70237006600655 89.23473348206608,47.49582596414257 89.2073757526814,47.289281531833694 89.16633915854618,47.01388844156463 89.1389814291615,46.704070512918406 89.09794483508449,46.359827498105005 89.07058710564161,46.01558356554597 89.07058710564161,45.722975501266774 89.00219278212171,45.32709294706001 88.94747732335236,44.91399681387702 88.93379845866002,44.51811177931086 88.90644072933355,44.17386293657182 88.86540413514012,43.84682568584685 88.82436754112132,43.45093737935531 88.7833309469861,43.20996129409468 88.7833309469861,42.91734687164717 88.81068867637077,42.55588108133816 88.79700981167844,42.21162700690911 88.75597321754321,41.86737201457436 88.72861548815854,41.57475454942323 88.66022116469685,41.213285000412725 88.66022116469685,40.869027346227085 88.67390002938919,40.559194672634476 88.70125775877386,40.180509284095024 88.63286343519576,39.76739668443042 88.60550570586929,39.4403482722264 88.56446911179228,39.061659602069994 88.59182684117695,38.82067532457586 88.60550570586929,38.66575662296964 88.59182684117695,38.441984836914344 88.56446911179228,38.1837861402164 88.56446911179228,37.87394702270103 88.48239592358004,37.58132050665154" stroke="#4DD2FF" stroke-dasharray="none" stroke-linecap="round" stroke-linejoin="round" stroke-width="0.5"><title>2017-11-19 11.8km</title><desc>9223370525802103807</desc></polyline><polyline fill="none" opacity="0.5" points="178.6832740213722,70.67906642257003 177.53024911042303,70.86134718952235 176.30035587167367,71.04362791584572 174.9935943055898,70.58792602404719 173.9174377224408,70.40564519632608 172.9950177934952,70.22336432809243 171.91886120988056,70.22336432809243 170.91957295360044,69.85880247020395 169.76654804265127,69.85880247020395 168.69039145903662,69.67652148014167 167.76797153009102,69.94994294981007 166.1537366551347,69.22081882826751 164.84697508905083,69.03853769652778 163.61708185030147,68.94739711564034 162.23345195734873,69.03853769652778 161.6953736655414,69.12967826763634 160.23487544478849,69.49424044968328 158.39003558689728,68.67397531180177 157.08327402127907,67.58028718392598 155.9302491103299,67.85370935255196 154.62348754424602,67.39800568763167 153.4704626337625,67.21572415030096 152.5480427048169,67.39800568763167 151.6256227758713,67.12458336667623 150.7032028469257,66.76002013048856 149.55017793597654,66.85116095485864 148.5508896796964,67.30686492408859 146.85978647693992,66.76002013048856 145.93736654799432,66.21317497233395 145.47615658352152,65.2106245677569 144.86120996437967,64.20807293721009 144.78434163704515,62.74981383152772 144.9380782917142,61.4738349855179 144.9380782917142,60.01557101536309 144.78434163704515,58.739587913500145 144.78434163704515,57.00789338373579 144.5537366545759,56.09647374070482 144.39999999990687,54.72934237605659 144.70747330971062,53.453351045260206 144.70747330971062,52.359642609313596 145.01494661904871,51.44821779784979 144.78434163704515,50.26336402783636 145.16868327371776,48.987365744949784 145.0918149468489,47.62022252328461 145.32241992885247,46.7999354955391 145.399288256187,45.15935897786403 145.32241992885247,43.70106598286657 145.399288256187,42.425057484186254 145.47615658352152,41.422477984568104 145.70676156599075,40.23760972218588 145.93736654799432,38.961595831788145 145.70676156599075,37.685579954704735 145.70676156599075,36.774138826236594 145.55302491085604,35.68040813441621 145.70676156599075,36.774138826236594 145.70676156599075,37.685579954704735 145.93736654799432,38.961595831788145 145.70676156599075,40.23760972218588 145.47615658352152,41.422477984568104 145.399288256187,42.425057484186254 145.32241992885247,43.70106598286657 145.399288256187,45.15935897786403 145.32241992885247,46.7999354955391 145.0918149468489,47.62022252328461 145.16868327371776,48.987365744949784 144.78434163704515,50.26336402783636 145.01494661904871,51.44821779784979 144.70747330971062,52.359642609313596 144.70747330971062,53.453351045260206 144.39999999990687,54.72934237605659 144.5537366545759,56.09647374070482 144.78434163704515,57.00789338373579 144.78434163704515,58.739587913500145 144.9380782917142,60.01557101536309 144.9380782917142,61.4738349855179 144.78434163704515,62.74981383152772 144.86120996437967,64.20807293721009 145.47615658352152,65.2106245677569 145.93736654799432,66.21317497233395 146.85978647693992,66.76002013048856 148.5508896796964,67.30686492408859 149.55017793597654,66.85116095485864 150.7032028469257,66.76002013048856 151.6256227758713,67.12458336667623 152.5480427048169,67.39800568763167 153.4704626337625,67.21572415030096 154.62348754424602,67.39800568763167 155.9302491103299,67.85370935255196 157.08327402127907,67.58028718392598 158.39003558689728,68.67397531180177 160.23487544478849,69.49424044968328 161.6953736655414,69.12967826763634 162.23345195734873,69.03853769652778 163.61708185030147,68.94739711564034 164.84697508905083,69.03853769652778 166.1537366551347,69.22081882826751 167.76797153009102,69.94994294981007 168.69039145903662,69.67652148014167 169.76654804265127,69.85880247020395 170.91957295360044,69.85880247020395 171.91886120988056,70.22336432809243 172.9950177934952,70.22336432809243 173.9174377224408,70.40564519632608 174.9935943055898,70.58792602404719 176.30035587167367,71.04362791584572 177.53024911042303,70.86134718952235 178.6832740213722,70.67906642257003 179.75943060498685,70.95248755789362 180.98932384327054,70.86134718952235 182.0654804268852,70.95248755789362 183.0647686831653,70.77020681119757 184.29466192191467,71.13476826396072 185.29395017772913,71.22590860177297 186.52384341601282,71.31704892928246 187.60000000009313,72.31959186558379" stroke="#4DD2FF" stroke-dasharray="1,0.5" stroke-linecap="round" stroke-linejoin="round" stroke-width="0.5"><title>2014-03-22 10.5km</title><desc>9223370641410674807</desc></polyline><polyline fill="none" opacity="1" points="55.600000000034925,101.1078719238867 55.47949790797429,101.08342947957135 55.33891213394236,101.1078719238867 55.19832635985222,101.08342947957135 55.09790794982109,101.01010211106768 54.98744769877521,100.9978808778178 54.856903765699826,101.01010211106768 54.72635983262444,101.04676580195519 54.57573221757775,101.04676580195519 54.45523012551712,101.05898702931154 54.32468619249994,101.01010211106768 54.16401673638029,101.02232334287692 54.05355648539262,101.03454457315092 53.89288702927297,101.03454457315092 53.752301255241036,101.03454457315092 53.64184100419516,101.03454457315092 53.49121338914847,101.03454457315092 53.36066945613129,101.02232334287692 53.24016736401245,101.01010211106768 53.11966527195182,100.9978808778178 52.999163179891184,100.98565964306908 52.868619246874005,101.02232334287692 52.73807531379862,101.02232334287692 52.60753138078144,101.01010211106768 52.47698744770605,100.98565964306908 52.346443514630664,100.96121716914786 52.25606694561429,100.96121716914786 52.105439330567606,100.96121716914786 51.964853556477465,100.98565964306908 51.834309623460285,100.98565964306908 51.7037656903849,100.97343840682879 51.563179916352965,100.93677468934038 51.44267782429233,100.96121716914786 51.312133891216945,100.96121716914786 51.1514644351555,100.94899592998263 51.041004184109624,100.91233220358117 50.880334727989975,100.90011095847149 50.729707113001496,100.93677468934038 50.56903765688185,100.93677468934038 50.44853556487942,100.94899592998263 50.297907949832734,100.93677468934038 50.1774058577721,100.93677468934038 50.03682008368196,100.94899592998263 49.92635983269429,100.93677468934038 49.795815899560694,100.92455344718473 49.665271966543514,100.94899592998263 49.53472803346813,100.93677468934038 49.40418410045095,100.93677468934038 49.29372384940507,100.96121716914786 49.153138075373136,100.97343840682879 49.04267782426905,100.97343840682879 48.91213389119366,100.97343840682879 48.741422594175674,100.96121716914786 48.630962343129795,100.96121716914786 48.470292887068354,100.96121716914786 48.37991631805198,100.96121716914786 48.24937238491839,100.96121716914786 48.11882845190121,100.94899592998263 47.98828451882582,100.96121716914786 47.84769874473568,100.92455344718473 47.727196652733255,100.92455344718473 47.57656903768657,100.91233220358117 47.435983263654634,100.91233220358117 47.30543933052104,100.90011095847149 47.19497907953337,100.90011095847149 47.05439330544323,100.93677468934038 46.89372384943999,100.96121716914786 46.77322175737936,100.93677468934038 46.63263598328922,100.92455344718473 46.50209205021383,100.91233220358117 46.3815899581532,100.88788971187023 46.22092050209176,100.91233220358117 46.10041841008933,100.88788971187023 45.94979079498444,100.87566846383561 45.809205020952504,100.87566846383561 45.66861924686236,100.91233220358117 45.538075313845184,100.90011095847149 45.377405857725535,100.8634472143167 45.22677824267885,100.83900471080415 45.09623430966167,100.82678345681052 44.95564853557153,100.79011968602572 44.815062761481386,100.8023409444213 44.69456066947896,100.81456220137625 44.56401673640357,100.83900471080415 44.44351464434294,100.85122596331348 44.31297071132576,100.90011095847149 44.182426778250374,100.90011095847149 44.04184100416023,100.88788971187023 43.91129707114305,100.87566846383561 43.800836820097174,100.8634472143167 43.67029288702179,100.88788971187023 43.53974895400461,100.87566846383561 43.419246861943975,100.90011095847149 43.26861924683908,100.8634472143167 43.11799163179239,100.88788971187023 43.00753138080472,100.8634472143167 42.86694560671458,100.8634472143167 42.73640167363919,100.8634472143167 42.62594142265152,100.82678345681052 42.48535564856138,100.8023409444213 42.33472803351469,100.81456220137625 42.1841004184098,100.82678345681052 42.03347280336311,100.8023409444213 41.912970711360686,100.81456220137625 41.772384937270544,100.81456220137625 41.62175732222386,100.8023409444213 41.49121338909026,100.8023409444213 41.36066945607308,100.81456220137625 41.210041841026396,100.82678345681052 41.069456066936255,100.85122596331348 40.94895397487562,100.81456220137625 40.81841004185844,100.77789842613856 40.67782426782651,100.79011968602572 40.54728033475112,100.76567716475256 40.40669456066098,100.77789842613856 40.286192468658555,100.8023409444213 40.16569037659792,100.77789842613856 40.02510460256599,100.75345590191864 39.874476987461094,100.75345590191864 39.75397489540046,100.75345590191864 39.60334728035377,100.72901337177609 39.50292887032265,100.70457083571091 39.37238493724726,100.70457083571091 39.23179916321533,100.70457083571091 39.1313807531842,100.72901337177609 38.98075313807931,100.71679210446746 38.840167364047375,100.72901337177609 38.70962343097199,100.76567716475256 38.5589958159253,100.76567716475256 38.41841004189337,100.77789842613856 38.317991631804034,100.74123463760043 38.1774058577721,100.74123463760043 38.04686192475492,100.74123463760043 37.93640167370904,100.71679210446746 37.77573221758939,100.74123463760043 37.645188284572214,100.72901337177609 37.484518828452565,100.71679210446746 37.353974895435385,100.72901337177609 37.25355648540426,100.71679210446746 37.00251046026824,100.72901337177609 36.71129707113141,100.71679210446746 36.490376569039654,100.68012829373765 36.25941422593314,100.68012829373765 35.80753138079308,100.74123463760043 35.526359832671005,100.66790702054277 35.345606694580056,100.64346446964919 34.99414225947112,100.66790702054277 34.82343096239492,100.61902191289846 34.662761506275274,100.60680063231848 34.36150627624011,100.65568574582721 34.07029288704507,100.69234956547734 33.809205020952504,100.8023409444213 33.59832635981729,100.77789842613856 29.63179916323861,100.55791549505375 29.4008368201321,100.55791549505375 29.14979079499608,100.52125162663287 28.818410041858442,100.60680063231848 28.557322175765876,100.53347291758837 28.286192468658555,100.48458774484607 27.924686192476656,100.48458774484607 24.671129707130603,100.44792384977336 24.430125523067545,100.47236644794611 24.108786610944662,100.44792384977336 23.87782426783815,100.411259941342 23.616736401687376,100.31348945382342 23.305439330579247,100.39903863557265 22.97405857744161,100.411259941342 22.7430962343351,100.42348124561249 20.142259414249565,100.38681732834812 19.800836820097174,100.38681732834812 19.63012552302098,100.38681732834812 19.459414225944784,100.411259941342 19.40920502098743,100.35015339776146 19.258577405882534,100.36237470941705 18.917154811730143,100.37459601963928 18.786610878654756,100.30126813623792 18.515481171547435,100.27682549663587 18.294560669513885,100.30126813623792 18.083682008378673,100.30126813623792 17.93305439327378,100.26460417459748 16.85857740591746,100.2890468171754 16.54728033475112,100.30126813623792 16.306276150629856,100.21571887163009 16.075313807523344,100.26460417459748 15.713807531399652,100.2523828510457 15.472803347278386,100.2890468171754 15.241841004230082,100.33793208462157 14.970711297122762,100.27682549663587 14.68953974894248,100.2523828510457 14.448535564879421,100.2401615260751 14.12719665269833,100.21571887163009 13.936401673650835,100.21571887163009 13.715481171617284,100.22794019957655 13.233472803374752,100.2523828510457 13.032635983312503,100.14239087283204 13.012552301282994,100.42348124561249 13.042677824269049,100.64346446964919 13.082845188328065,100.82678345681052 12.992468619253486,101.03454457315092 12.871966527251061,101.05898702931154 12.892050209222361,100.74123463760043 12.681171548145358,100.75345590191864 12.510460251069162,100.93677468934038 12.440167364024092,101.08342947957135 12.420083682052791,101.27896886844974 12.470292887068354,101.62116188756772 12.490376569039654,101.87780589072645 12.610878661158495,102.24443904906366 12.620920502115041,102.48886041488004 12.681171548145358,102.76994425393787 12.71129707118962,103.01436434739298 12.771548117219936,103.18545806068869 12.80167364020599,103.42987714810442 12.80167364020599,103.71095836705354" stroke="#4DD2FF" stroke-dasharray="none" stroke-linecap="round" stroke-linejoin="round" stroke-width="0.5"><title>2013-12-10 10.9km</title><desc>9223370650177580807</desc></polyline><polyline fill="none" opacity="1" points="103.77138156630099,123.60000000009313 103.77138156630099,119.39471619180404 105.34279055520892,114.0425287107937 105.97135414928198,109.8372321925126 106.91419954225421,104.8673290994484 108.17132673040032,99.13281582505442 108.17132673040032,95.6921028692741 107.8570449333638,89.95757295796648 106.28563594631851,85.36994154262356 104.39994516223669,82.31151690147817 100.0,81.16460689902306 96.85718202590942,80.4000000001397 91.82867326773703,80.7823034725152" stroke="#4DD2FF" stroke-dasharray="none" stroke-linecap="round" stroke-linejoin="round" stroke-width="0.5"><title>2013-11-30 10.3km</title><desc>9223370651086224807</desc></polyline><polyline fill="none" opacity="1" points="175.339699273929,115.18447865638882 177.1845781430602,112.65981630119495 176.49274856690317,107.32996453368105 175.80091899074614,106.20788891729899 176.03152885008603,102.28061998845078 177.41518800146878,97.2312644557096 177.41518800146878,96.10918395733461 175.80091899074614,93.02345978678204 178.1070175776258,90.49877332313918 176.49274856690317,89.37668956816196 174.87847955711186,86.8519991368521 172.80299082957208,83.7662626572419 170.95811196044087,83.20521922083572 167.9601837983355,80.4000000001397 163.34798662550747,82.64417564729229 160.11944860499352,86.01043504965492 157.12152044288814,89.09616854530759 155.96847114898264,91.05981499678455 155.73786129057407,95.5481435037218 157.3521303012967,99.75594359473325 155.5072514321655,103.40269750310108 154.58481199666858,105.92736992868595 155.2766415728256,108.17152088950388 154.35420214012265,111.25722491787747 154.58481199666858,114.34292484284379 154.58481199666858,117.98965582833625 156.66030072513968,119.39224314200692 159.4276190288365,121.35586395906284 162.88676690869033,122.75844923895784 165.8846950698644,123.60000000009313 169.11323309037834,123.03896619309671 171.88055139407516,120.79482960957102 174.4172598393634,117.98965582833625 176.03152885008603,114.0624068370089 176.26213870756328,110.97670653951354 176.49274856690317,107.89100213861093 176.49274856690317,104.52477447572164 175.80091899074614,101.15854193037376 176.49274856690317,97.79230450256728 176.72335842624307,94.98710291530006 177.64579785987735,91.62085653445683 177.1845781430602,88.5351263966877 175.80091899074614,85.72991361888126 173.95604012254626,83.7662626572419 171.88055139407516,82.92469745082781 168.6520133735612,82.08313193893991 165.8846950698644,82.08313193893991 162.65615704935044,83.7662626572419 160.81127818115056,84.32730595883913 158.73578945267946,86.57147780805826 157.12152044288814,88.5351263966877 156.89091058447957,91.62085653445683 155.96847114898264,95.5481435037218 156.4296908667311,98.63386431708932 155.73786129057407,102.56113941781223 155.73786129057407,104.52477447572164 155.2766415728256,109.01307694031857 153.8929824223742,112.94033447606489 154.35420214012265,116.86758536635898 155.73786129057407,118.83120831870474 159.65822888724506,119.95327783143148 162.88676690869033,122.19741522870027 166.11530492920429,122.19741522870027 169.5744528081268,120.51431238441728" stroke="#4DD2FF" stroke-dasharray="none" stroke-linecap="round" stroke-linejoin="round" stroke-width="0.5"><title>2013-11-16 10.4km</title><desc>9223370652294258807</desc></polyline><polyline fill="none" opacity="1" points="41.89198278263211,163.50005727889948 41.89198278263211,160.80007049744017 42.878480629995465,155.70008745137602 44.851476326584816,150.60009392397478 45.09810078795999,146.4000913859345 45.59134971164167,143.1000844053924 45.34472524933517,138.90006917435676 45.59134971164167,135.90005394420587 44.358227401040494,132.6000330010429 40.16561154834926,129.90001260256395 36.46624462027103,129.00000514974818 32.76687769033015,129.00000514974818 28.82088629901409,130.50001738895662 26.10801721829921,132.30003087921068 24.874894907698035,136.50005727959797 23.148523674346507,141.30007874849252 23.148523674346507,144.30008745123632 22.90189921297133,147.0000921834726 22.162025826983154,151.20009370637126 22.40865028835833,155.10008875629865 22.162025826983154,158.10008077835664 22.40865028835833,163.20005889236927 23.395148135721684,165.60004496737383 25.86139275599271,167.7000308786519 30.54725753236562,171.60000000009313 34.493248923681676,171.60000000009313 38.19261585269123,170.40001015365124 40.41223601065576,169.20001972699538 43.125105092301965,165.90004306309856 43.86497847735882,163.20005889236927 43.61835401598364,159.000077677425 44.11160294059664,154.2000904425513 45.09810078795999,151.20009370637126 45.837974173016846,147.60009283619002 45.837974173016846,144.00008674431592 46.084598635323346,139.80007303715684 45.59134971164167,135.90005394420587 43.371729554608464,132.6000330010429 40.65886047296226,130.50001738895662 36.46624462027103,128.4000000001397 32.76687769033015,129.00000514974818 29.31413522362709,130.50001738895662 26.10801721829921,132.0000287219882 23.395148135721684,135.00004866719246 22.655274749733508,140.40007542981766 22.90189921297133,144.00008674431592 22.40865028835833,147.60009283619002 23.888397060334682,151.20009370637126 22.162025826983154,156.90008440450765 21.422152440994978,160.80007049744017 22.162025826983154,164.70005046087317 22.40865028835833,166.80003713420592 26.10801721829921,169.20001972699538 29.06751076038927,170.70000767009333 34.0,171.30000259238295 37.45274246670306,170.70000767009333 40.65886047296226,169.20001972699538 42.878480629995465,166.20004112226889 43.61835401598364,162.60006201080978 44.604851863346994,159.000077677425 45.09810078795999,155.4000881218817 45.34472524933517,152.10009310836904 45.837974173016846,149.1000938336365 46.084598635323346,145.50008991756476 46.57784755900502,139.50007178564556 46.084598635323346,135.90005394420587" stroke="#4DD2FF" stroke-dasharray="none" stroke-linecap="round" stroke-linejoin="round" stroke-width="0.5"><title>2013-11-03 10.7km</title><desc>9223370653417861807</desc></polyline><polyline fill="none" opacity="1" points="89.10906244348735,153.4560954067856 88.16202439460903,155.7600909504108 87.92526488378644,159.2160800890997 87.92526488378644,162.96006266516633 89.34582195524126,167.28003524802625 92.4236956126988,169.5840174248442 96.92212634254247,171.31200259411708 100.23675951175392,171.60000000009313 104.02491170540452,170.16001262003556 107.33954487461597,167.28003524802625 107.8130638981238,162.6720642137807 109.94389950763434,158.06408426584676 110.18065902031958,154.60809345706366 110.18065902031958,151.44009747868404 110.41741853114218,147.1200961722061 110.65417804382741,142.80008703446947 111.83797560445964,139.0560727783013 112.07473511714488,135.3120526385028 109.94389950763434,132.7200352489017 108.5233424352482,130.41601742454804 105.44546877872199,128.9760051521007 101.65731658414006,128.4000000001397 97.86916439142078,129.2640076763928 94.55453122220933,129.84001261997037 89.34582195524126,133.8720433257986 88.63554341997951,135.0240508459974 88.63554341997951,136.46405946207233 89.81934097968042,139.63207535468973 89.58258146699518,143.66408948926255 88.16202439460903,147.69609680003487" stroke="#4DD2FF" stroke-dasharray="none" stroke-linecap="round" stroke-linejoin="round" stroke-width="0.5"><title>2013-11-02 10.5km</title><desc>9223370653505000807</desc></polyline><polyline fill="none" opacity="1" points="167.7756980592385,168.3600289823953 169.77335837297142,167.82003335561603 172.65886771772057,165.66004954348318 174.6565280323848,162.96006684168242 175.54437706060708,159.18008557590656 175.54437706060708,155.94009654247202 175.7663393188268,152.70010280935094 175.54437706060708,149.46010437584482 175.54437706060708,146.49010168295354 176.43222609069198,142.98009340977296 176.87615060433745,140.01008210144937 176.43222609069198,137.31006839242764 175.32241480425,134.34004954481497 173.99064126145095,132.72003759886138 170.4392451448366,130.56001984444447 167.7756980592385,128.4000000001397 165.3341132281348,129.48001018329524 162.0046793706715,130.8300221778918 159.78505679685622,132.45003549358808 158.67524551134557,135.69005860155448 158.2313209977001,138.12007284793071 157.7873964831233,141.63008875912055 156.45562293939292,144.33009724435396 156.01169842481613,146.76010209089145 156.23366068210453,150.81010429398157 157.7873964831233,154.32010026299395 154.90188713837415,155.13009854895063 155.12384939659387,156.21009580790997 154.45796262472868,157.56009164638817 154.90188713837415,163.23006525845267 160.22898131329566,166.20004569296725 165.77803774364293,167.55003549298272 167.1098112873733,167.55003549298272 169.10747160110623,167.55003549298272 171.77101868763566,168.3600289823953 173.99064126145095,164.0400603134185 174.6565280323848,162.96006684168242 174.8784902896732,160.5300796192605 175.54437706060708,159.18008557590656 173.54671674594283,158.91008666879497 174.8784902896732,158.10008975397795 176.2102638334036,155.94009654247202 175.9883015761152,150.81010429398157 176.2102638334036,149.46010437584482 175.7663393188268,146.2201012421865 176.2102638334036,142.1700907170307 175.7663393188268,136.7700652598869 175.32241480425,133.26004171161912 173.54671674594283,129.75001264712773 169.55139611661434,129.48001018329524 165.77803774364293,129.21000768686645 162.6705661425367,130.56001984444447 159.78505679685622,132.72003759886138 156.67758519575,133.26004171161912 156.45562293939292,137.58006991050206 156.23366068210453,140.55008445074782 156.01169842481613,144.0600965428166 154.90188713837415,147.57010311936028 155.34581165295094,151.62010385282338 155.12384939659387,155.13009854895063 154.90188713837415,159.18008557590656 154.90188713837415,161.61007426702417 158.45328325405717,165.66004954348318 164.00233968626708,168.63002674723975 166.44392451550812,169.98001507879235 169.32943385839462,171.60000000009313 173.32475448958576,167.82003335561603 175.1004525469616,162.69006839231588 175.54437706060708,159.7200832911767 175.54437706060708,158.6400877290871 175.1004525469616,153.24010209064 174.8784902896732,148.92010417976417 175.32241480425,146.2201012421865 175.54437706060708,142.98009340977296 177.09811286255717,138.93007700890303 175.7663393188268,135.96006031497382 174.43456577509642,134.34004954481497 172.88082997407764,130.8300221778918 170.21728288847953,130.02001507859677 166.0,129.75001264712773 162.0046793706715,130.56001984444447 159.78505679685622,130.8300221778918 156.89954745396972,132.72003759886138 154.90188713837415,135.69005860155448 154.67992488108575,138.39007426798344 155.34581165295094,139.7400808769744 154.23600036650896,142.71009254432283 154.67992488108575,145.95010076928884 154.90188713837415,147.57010311936028 154.45796262472868,150.27010442432947 154.90188713837415,153.78010124200955 154.67992488108575,157.02009340864606 154.90188713837415,161.34007565444335 157.5654342258349,166.20004569296725 161.7827171124518,168.63002674723975 163.11449065618217,168.3600289823953 166.0,169.98001507879235 167.99766031466424,169.1700221770443 171.1051319167018,171.33000259427354 173.32475448958576,168.63002674723975 174.8784902896732,162.42006990942173 173.99064126145095,158.37008875748143 175.1004525469616,151.35010403278284 174.8784902896732,147.0301024664659 174.8784902896732,145.68010026379488 176.43222609069198,142.98009340977296 177.76399963349104,140.82008557626978 177.09811286255717,136.7700652598869 175.32241480425,132.1800333559513 173.10279223136604,129.75001264712773 169.9953206302598,128.6700025945902 166.0,128.94000515691005 161.1168303405866,130.56001984444447 157.1215097112581,132.1800333559513 156.67758519575,133.53004371840507 155.56777391023934,134.61005142168142 155.78973616752774,137.04006684245542 156.01169842481613,138.6600756549742 156.23366068210453,142.1700907170307 156.23366068210453,143.5200950417202 156.23366068210453,147.84010339644738 156.01169842481613,149.19010429433547 155.12384939659387,151.62010385282338 155.78973616752774,155.13009854895063 154.90188713837415,156.21009580790997 155.12384939659387,161.07007700833492 156.23366068210453,162.15007139416412 156.23366068210453,163.50006364332512 158.45328325405717,165.66004954348318 162.6705661425367,168.63002674723975" stroke="#4DD2FF" stroke-dasharray="none" stroke-linecap="round" stroke-linejoin="round" stroke-width="0.5"><title>2013-10-26 11.1km</title><desc>9223370654110301807</desc></polyline><polyline fill="none" opacity="1" points="24.30376340262592,208.23165590292774 23.602830636315048,212.77900013769977 25.705628934316337,215.62108581862412 28.042071488685906,217.89475188939832 30.845802552998066,218.46316806343384 34.11682212725282,217.89475188939832 38.08877446874976,216.18950254260562 41.359794043935835,213.91583482245915 42.29437106475234,209.93691102182493 42.06072680931538,206.52639954793267 42.52801532112062,202.26325324806385 42.52801532112062,198.85273064253852 42.52801532112062,195.1579922370147 43.92988085281104,191.4632480267901 45.565390639938414,189.18955639493652 46.49996766168624,186.63165068160743 46.26632340531796,184.07374218595214 43.92988085281104,181.23161837016232 40.8925055321306,179.81055517448112 37.855130213312805,177.25263925665058 34.58411063905805,176.4000000001397 31.0794468075037,177.82106525660492 28.27571574319154,180.09476788225584 25.705628934316337,182.6526807071641 25.238340424373746,185.77901482582092 25.238340424373746,189.4737679695245 24.771051913499832,192.60009301709943 24.30376340262592,196.86325683817267 21.50003233831376,199.9895720607601 21.967320849187672,203.68430287321098 21.733676593750715,207.94744659680873 22.200965103693306,211.07374708005227 22.200965103693306,213.91583482245915 24.30376340262592,216.75791912851855 27.341138722375035,219.0315841003321 30.61215829756111,219.60000000009313 34.58411063905805,219.0315841003321 37.154197447001934,217.610543750925 40.8925055321306,215.90529419737868 41.82708255480975,213.6316262029577 43.462592341937125,210.22112008789554 43.92988085281104,206.81060902611353 43.92988085281104,203.1158831268549 44.39716936368495,199.70536175812595 45.0981021290645,195.4422030900605 45.33174638450146,192.0316705906298 45.79903489537537,189.18955639493652 45.565390639938414,185.49480280443095 44.63081361912191,181.80004340759479 42.52801532112062,179.24212965508923 39.4906400013715,178.10527820512652 35.98597617074847,177.53685227409005 32.48131234012544,177.53685227409005 29.21029276587069,178.95791684417054 25.705628934316337,181.23161837016232 24.30376340262592,184.07374218595214 25.004696168005466,188.33692146651447 23.602830636315048,191.74745932617225 23.36918638087809,194.58957042940892 23.36918638087809,198.28430972713977 21.733676593750715,201.69483315735124 22.200965103693306,206.52639954793267 21.967320849187672,209.3684927856084 23.36918638087809,212.21058258996345 24.30376340262592,215.90529419737868 25.238340424373746,217.610543750925 30.845802552998066,219.0315841003321 34.81775489356369,218.46316806343384 37.38784170243889,216.18950254260562 41.59343829844147,212.77900013769977 43.22894808650017,211.9263737637084 43.92988085281104,209.08428361662664 43.462592341937125,205.95798048726283 43.462592341937125,202.26325324806385 43.462592341937125,199.13694104878232 43.92988085281104,195.72641390911303 45.33174638450146,192.31588182109408" stroke="#4DD2FF" stroke-dasharray="none" stroke-linecap="round" stroke-linejoin="round" stroke-width="0.5"><title>2013-10-20 10.7km</title><desc>9223370654628121807</desc></polyline><polyline fill="none" opacity="1" points="107.08031161688268,176.4000000001397 104.1582782510668,176.4000000001397 100.56192949321121,177.2202608489897 97.19035253301263,179.4076216588728 94.71786276064813,182.68865890684538 93.81877557281405,185.69627220346592 93.81877557281405,188.7038815007545 93.14446017984301,191.98490526387468 92.919688382186,196.08617827505805 91.79582939576358,199.3671913293656 92.24537299014628,202.3747824486345 91.12151400372386,206.20261990721337 93.59400377422571,208.6633691387251 94.49309096485376,211.9443639498204 96.2912653433159,215.49876962439157 98.53898331709206,217.41267805802636 102.13533207587898,218.77975451922975 105.95645263046026,219.60000000009313 108.87848599627614,217.95950874243863" stroke="#4DD2FF" stroke-dasharray="none" stroke-linecap="round" stroke-linejoin="round" stroke-width="0.5"><title>2013-10-19 10.2km</title><desc>9223370654714312807</desc></polyline><polyline fill="none" opacity="1" points="157.36476228386164,185.27677456499077 157.12151614949107,187.93980065686628 156.63502388447523,191.7863887855783 155.6620393525809,195.33708015549928 154.93230095412582,198.59187605278566 154.68905482254922,201.8466676226817 154.68905482254922,205.98912336095236 155.17554708756506,209.83568312670104 156.87827001698315,213.68223684793338 158.09450068231672,215.75345557858236 161.01345427706838,219.00822432828136 164.66214626841247,219.00822432828136 167.58109986409545,219.60000000009313 170.98654572386295,218.1205605531577 173.66225318517536,216.34523203712888 175.3649761164561,212.79457114078104 175.85146838147193,208.35623777774163 176.09471451491117,203.6220066549722 176.09471451491117,200.66310755256563 176.09471451491117,197.11242390889674 177.06769904587418,194.1535169375129 177.79743744432926,190.60282385186292 177.55419131275266,186.164450250566 175.3649761164561,179.95071368920617 172.68926865514368,177.87946466286667 167.8243459975347,176.4000000001397 164.90539240278304,176.6958930043038 161.98643880710006,179.35892843198963 159.31073134578764,181.4301762059331 158.58099294733256,184.38909855671227 157.12151614949107,189.12336687906645 155.6620393525809,193.56173511454836 155.6620393525809,197.11242390889674 154.20256255567074,200.66310755256563 154.44580868817866,204.50967568764463 154.68905482254922,207.76445938879624 154.20256255567074,211.31512758042663 156.14853161852807,215.4575672952924 158.8242390807718,218.1205605531577 161.49994654208422,218.41644851467572 166.60811533220112,219.00822432828136 169.52706892602146,217.52878452464938 172.68926865514368,214.86579062230885 173.66225318517536,212.20279382448643 174.8784838495776,208.35623777774163 176.3379606474191,204.80556529434398" stroke="#4DD2FF" stroke-dasharray="none" stroke-linecap="round" stroke-linejoin="round" stroke-width="0.5"><title>2013-10-12 10.6km</title><desc>9223370655320152807</desc></polyline><polyline fill="none" opacity="1" points="24.76637902855873,263.28003524802625 28.317771709524095,265.5840174248442 31.632404879666865,267.60000000009313 34.710278537124395,267.60000000009313 38.97194975428283,265.8720150399022 41.57630438823253,263.8560310017783 43.943899508565664,260.6880526384339 44.890937557443976,256.9440727783367 45.12769706826657,252.33608948835172 43.943899508565664,248.59209650335833 44.180659021250904,243.40809650346637 45.36445658095181,239.37608870584518 45.60121609363705,236.2080777916126 46.54825414158404,233.32806421397254 45.837975605390966,231.0240508459974 43.23362097237259,227.28002436971292 38.97194975428283,225.84001261997037 35.42055707331747,224.9760051521007 32.57944292854518,224.9760051521007 30.21184780728072,226.12801503995433 26.1869361018762,228.14403100241907 24.76637902855873,231.0240508459974 23.81934098061174,234.48007006268017 24.05610049236566,238.5120861462783 24.05610049236566,241.96809450211003 24.292860004119575,245.13609775714576 24.05610049236566,248.88009617221542 22.398783908225596,251.47209162986837 21.6885053711012,254.3520832741633 21.451745859347284,257.2320714369416 22.398783908225596,260.1120561193675 23.582581467926502,262.41604135814123 25.239898052997887,265.296019774396 28.317771709524095,266.7360076766927 31.632404879666865,266.7360076766927 36.6043546339497,267.60000000009313 39.68222829140723,264.72002436965704 41.57630438823253,262.1280433256179 43.943899508565664,258.3840657279361 44.180659021250904,254.3520832741633 44.180659021250904,250.89609288284555 45.36445658095181,247.15209763497114 46.07473511714488,243.69609680003487 45.837975605390966,240.52809162950143 45.837975605390966,237.93608426721767 46.31149462983012,234.48007006268017 45.60121609363705,231.6000543970149 44.65417804475874,229.00803732057102 43.23362097237259,226.12801503995433 40.155747315846384,224.4000000001397 36.6043546339497,224.4000000001397 32.57944292854518,224.4000000001397 28.791290735825896,224.9760051521007 26.660455126315355,227.28002436971292 24.292860004119575,231.0240508459974" stroke="#4DD2FF" stroke-dasharray="none" stroke-linecap="round" stroke-linejoin="round" stroke-width="0.5"><title>2013-10-06 10.6km</title><desc>9223370655838244807</desc></polyline><polyline fill="none" opacity="1" points="102.19079365767539,227.48574095615186 97.57859648484737,228.04678432480432 95.27249789983034,228.6078275591135 93.65822888817638,230.2909564457368 93.42761902883649,231.97408411232755 92.50517959613353,234.77929417719133 92.27456973679364,237.86502133100294 91.5827401606366,242.07282447465695 90.89091058447957,245.15854193037376 91.5827401606366,248.80529363360256 90.660300726071,251.89100213861093 90.19908100832254,255.53774326271378 89.27664157561958,258.3429248428438 89.27664157561958,260.3065499314107 90.19908100832254,263.3922431420069 91.8133500199765,265.6363810834009 95.96432747505605,266.75844923895784 99.19286549650133,267.60000000009313 102.19079365767539,266.75844923895784 105.18872181978077,266.47793225129135 107.26421054638922,264.23379512433894 108.64786969870329,261.98965582833625 109.57030913420022,258.0624068370089 109.33969927486032,254.97670653951354 110.26213870942593,251.04944568034261 110.26213870942593,247.40269750310108 110.03152885008603,243.75594359473325 109.80091899260879,238.98710291530006 110.26213870942593,235.62085653445683 110.95396828558296,234.21825243486091 110.26213870942593,231.41304169245996 107.95604012254626,228.88834912492894 104.9581119613722,226.0831319389399 102.88262323383242,225.2415661229752 99.65408521238714,225.80261003412306 96.19493733346462,225.80261003412306 94.35005846433342,226.6441756472923 93.19700917135924,229.72991361888126 91.5827401606366,232.5351263966877 91.35213030222803,235.62085653445683 90.660300726071,239.26762322615832 89.96847115084529,243.19490402424708 89.5072514321655,245.7195810272824 88.81542185787112,248.80529363360256 88.81542185787112,252.17152088950388 87.89298242330551,255.53774326271378 87.43176270555705,258.0624068370089 87.66237256396562,261.14810303226113 88.81542185787112,263.6727605035994 91.8133500199765,266.19741522870027 95.50310775730759,267.0389661930967 99.65408521238714,267.319483113708 103.34384294971824,266.75844923895784 105.8805513959378,264.794829609571 108.64786969870329,262.55069085536525 109.80091899260879,258.3429248428438 110.26213870942593,255.53774326271378 110.72335842624307,252.4520396075677 110.95396828558296,249.6468509058468 111.4151880024001,245.7195810272824 111.64579786174,243.4754238263704 111.87640772014856,240.3897041331511 112.10701757855713,237.5845008501783 112.3376274369657,234.49877332313918 111.64579786174,231.69356291904114 110.4927485678345,229.1688706574496 108.18664998188615,226.6441756472923 105.64994153752923,225.2415661229752 102.88262323383242,224.4000000001397 100.57652464695275,224.96104411478154 96.65615705028176,225.52208809531294 93.88883874751627,227.20521922083572 92.50517959613353,230.8519991368521 90.89091058447957,235.34033578261733 89.96847115084529,238.14554177806713 89.7378612915054,240.3897041331511 89.5072514321655,243.4754238263704 89.7378612915054,246.56113941781223 89.96847115084529,249.92736992868595 89.7378612915054,253.01307694031857 89.5072514321655,256.3792980927974 89.96847115084529,259.7455143611878 91.35213030222803,262.83120831870474 93.88883874751627,264.5143123844173 96.65615705028176,267.319483113708 100.57652464695275,267.319483113708 102.88262323383242,267.0389661930967 106.34177111368626,265.35586395906284 108.41725984029472,263.3922431420069 109.57030913420022,260.0260321632959 110.03152885008603,257.2208526181057 110.95396828558296,254.13515119976364 110.95396828558296,250.76892679347657 111.64579786174,247.96373605774716 111.64579786174,244.8780223308131 111.4151880024001,241.79230450256728 112.56823729537427,238.14554177806713 111.64579786174,235.34033578261733 110.72335842624307,231.97408411232755 110.03152885008603,229.44939215504564 107.49482040572912,227.7662626572419 104.26628238521516,226.0831319389399 101.26835422310978,226.6441756472923 97.11737676803023,226.9246974508278 94.11944860592484,228.88834912492894 92.7357894545421,230.8519991368521 90.660300726071,234.21825243486091 90.19908100832254,236.46241858764552 89.27664157561958,240.1091839573346 89.5072514321655,243.19490402424708 88.35420214012265,246.28061998845078 88.35420214012265,249.6468509058468 87.66237256396562,253.01307694031857" stroke="#4DD2FF" stroke-dasharray="none" stroke-linecap="round" stroke-linejoin="round" stroke-width="0.5"><title>2013-09-29 10.5km</title><desc>9223370656443428807</desc></polyline><polyline fill="none" opacity="1" points="175.66518027801067,230.68865890661255 173.86700720340014,227.95446153078228 171.39451922569424,225.49368106527254 170.0458894195035,225.76710125035606 166.00000000093132,224.94684059894644 163.30274038854986,226.5873616025783 160.83025241084397,228.22788141667843 159.7063942393288,232.055756355403 158.35776443313807,233.6962722032331 157.6834495300427,238.6178126083687 157.00913462694734,240.80516046099365 156.78436299227178,244.9064319843892 156.78436299227178,247.09377375710756 156.55959135852754,249.28111341316253 156.55959135852754,253.38236956926994 155.2109615523368,255.56970314332284 155.6605048207566,261.0380278278608 156.55959135852754,263.4987696236931 161.95411058235914,265.4126780577935 164.2018269263208,265.95950874197297 167.5734014417976,265.95950874197297 171.61929085943848,264.86584724183194 174.5413221064955,262.1316911787726 176.5642668157816,258.0304508882109 177.23858171794564,253.65578638156876 175.66518027801067,250.92161676776595 174.09177883714437,249.55453072185628 175.88995191268623,245.17984982184134 177.4633533526212,239.98490526387468 177.91289662197232,238.07097531366162 177.23858171794564,235.06336783478037 178.36243989039212,231.235497985268 175.66518027801067,228.50130126997828 172.9679206656292,225.49368106527254 171.16974759101868,224.94684059894644 165.77522836625576,225.49368106527254 164.2018269263208,225.76710125035606 161.27979567926377,228.22788141667843 158.80730770155787,230.41523931804113 158.1329927984625,232.87601442844607 157.6834495300427,236.43046263838187 156.55959135852754,241.07857879367657 157.00913462694734,244.35959621169604 157.23390626069158,246.54693851224147 156.55959135852754,250.92161676776595 157.00913462694734,254.20261990698054 155.6605048207566,258.3038671386894 156.33481972385198,261.5848595700227 156.55959135852754,263.4987696236931 160.38070914242417,264.86584724183194 163.97705529164523,267.3265848727897 166.22477163467556,266.77975451922975 169.14680288173258,265.95950874197297 172.0688341287896,264.86584724183194 174.9908653749153,261.5848595700227 175.21563700959086,259.3975318111479 175.88995191268623,256.66336913825944 176.78903844952583,253.92920316033997 177.91289662197232,250.92161676776595 177.0138100842014,247.3671913293656 175.88995191268623,243.53934230282903 176.11472354643047,240.5317420954816 176.5642668157816,237.25071912514977 177.68812498729676,236.43046263838187 178.58721152413636,232.87601442844607 177.23858171794564,230.14181969570927 178.36243989039212,230.41523931804113 177.91289662197232,227.68104161159135 174.76609374023974,226.31394151831046 171.39451922569424,225.22026084875688 168.24771634489298,224.6734203158412 164.2018269263208,225.76710125035606 161.0550240445882,228.22788141667843 158.35776443313807,230.14181969570927 158.1329927984625,233.42285297834314 155.88527645543218,237.25071912514977 154.53664664924145,241.62541536078788 156.11004808917642,241.62541536078788 156.78436299227178,243.2659242679365 156.33481972385198,246.8203561506234 155.6605048207566,250.92161676776595 153.41278847679496,253.10895272321068 155.43573318701237,256.11653620772995 155.6605048207566,258.57728335657157 157.23390626069158,262.9519383441657 159.256850970909,265.4126780577935 161.95411058235914,266.23292403365485 165.77522836625576,266.23292403365485 169.37157451640815,267.60000000009313 172.9679206656292,266.23292403365485 174.09177883714437,264.0456007702742 174.31655047181994,260.49119595531374 175.66518027801067,259.3975318111479 175.88995191268623,255.29628656315617 177.91289662197232,248.73427869705483 177.91289662197232,244.08617827459238 175.88995191268623,241.35199709353037 176.5642668157816,238.07097531366162 177.0138100842014,235.61020585522056 177.4633533526212,232.055756355403 177.23858171794564,230.14181969570927 175.66518027801067,227.1342016728595 172.0688341287896,225.76710125035606 168.69725961331278,224.4000000001397 166.00000000093132,225.76710125035606 163.52751202322543,226.8607816544827 160.38070914242417,229.04814087809063 157.45867789536715,232.055756355403" stroke="#4DD2FF" stroke-dasharray="none" stroke-linecap="round" stroke-linejoin="round" stroke-width="0.5"><title>2013-09-22 10.9km</title><desc>9223370657048162807</desc></polyline></svg>