<?xml version="1.0" encoding="utf-8" ?>
<svg baseProfile="full" height="300mm" version="1.1" viewBox="0,0,200,300" width="200mm" xmlns="http://www.w3.org/2000/svg" xmlns:ev="http://www.w3.org/2001/xml-events" xmlns:xlink="http://www.w3.org/1999/xlink"><defs /><rect fill="#222222" height="300" width="200" x="0" y="0" /><text fill="#FFFFFF" style="font-size:12px; font-family:Arial; font-weight:bold;" x="10" y="20">Over 10km Runs</text><text fill="#FFFFFF" style="font-size:4px; font-family:Arial" x="10" y="280">Runner</text><text fill="#FFFFFF" style="font-size:9px; font-family:Arial" x="10" y="290">keep</text><text fill="#FFFFFF" style="font-size:4px; font-family:Arial" x="65" y="280">SPECIAL TRACKS</text><rect fill="yellow" height="2.6" width="2.6" x="65" y="283" /><text fill="#FFFFFF" style="font-size:3px; font-family:Arial" x="70" y="285.5">Over 20.0 km</text><rect fill="red" height="2.6" width="2.6" x="65" y="287" /><text fill="#FFFFFF" style="font-size:3px; font-family:Arial" x="70" y="289.5">Over 40.0 km</text><text fill="#FFFFFF" style="font-size:4px; font-family:Arial" x="120" y="280">STATISTICS</text><text fill="#FFFFFF" style="font-size:3px; font-family:Arial" x="120" y="285">Number: 15</text><text fill="#FFFFFF" style="font-size:3px; font-family:Arial" x="120" y="290">Weekly: 1.2</text><text fill="#FFFFFF" style="font-size:3px; font-family:Arial" x="141" y="285">Total: 163.6 km</text><text fill="#FFFFFF" style="font-size:3px; font-family:Arial" x="141" y="290">Avg: 10.9 km</text><text fill="#FFFFFF" style="font-size:3px; font-family:Arial" x="167" y="285">Min: 10.2 km</text><text fill="#FFFFFF" style="font-size:3px; font-family:Arial" x="167" y="290">Max: 14.0 km</text><polyline fill="none" opacity="1" points="26.50907890801318,75.59999999999854 26.46529795479728,75.32449108821311 26.50907890801318,74.97183834056341 26.54410367057426,74.67428641391598 26.535347479919437,74.35469241023384 26.517835098668,74.03509717027191 26.535347479919437,73.6824389190806 26.54410367057426,73.3738617144918 26.561616051825695,73.09834537933784 26.561616051825695,72.80078670538933 26.710471292724833,72.61343439792836 26.990669393155258,72.54730995264981 27.174549396615475,72.52526845912507 27.174549396615475,72.34893629934959 27.244598921737634,72.16158296723006 27.244598921737634,71.87504175511276 27.244598921737634,71.54441604470048 27.016937965119723,71.32399816932593 26.78052081784699,71.20276808721246 26.841814152314328,70.77295090810367 26.868082724220585,70.48640487969533 26.92937605868792,70.12271041239 26.964400821249,69.77003546051856 27.025694155774545,69.45042248486425 27.051962727680802,69.1969354525645 27.095743680896703,68.94344764242851 27.165793205960654,68.86629902409913 27.183305587270297,68.65689526833012 27.130768443399575,68.5687251070849 27.209574159176555,68.39238450234552 27.27086749364389,68.17195821704081 27.34091701876605,67.88540316685248 27.393454162578564,67.60986852736823 27.49852845032001,67.25718284786853 27.56857797538396,66.9706246245114 27.65613988181576,66.68406540714204 27.813751313311514,66.60691467877041 28.006387507310137,66.6950869338907 28.242804654641077,66.67304387893091 28.496734183165245,66.50772077929287 28.601808470848482,66.28728946509364 28.750663711689413,65.97868463708437 28.908275143185165,65.67007865614141 29.083398956048768,65.36147152228659 29.24101038754452,65.0969502042426 29.38986562838545,64.82140626385808 29.547477059881203,64.53483959085133 29.68757611012552,64.2372500705169 29.888968494837172,63.86250618650956 30.10787326080026,63.48776060240925 30.33553421741817,63.0799472997096 30.536926602129824,62.738264333849656 30.71205041493522,62.44066834098339 30.895930418395437,62.143071275953844 31.079810421797447,61.87853965137765 31.20239709073212,61.66911818108929 31.39503328478895,61.371518336258305 31.605181860155426,61.0518728641473 31.683987575932406,60.75427079541987 31.8153304355219,60.445645295258146 32.03423520148499,60.159063441133185 32.3056771113188,59.96066003656597 32.53333806793671,59.70714388162742 32.67343711812282,59.46464944010222 32.82229235902196,59.28828939908999 32.90985426545376,59.13397405431169 33.014928553137,58.89147792998847 33.09373426885577,58.68204888601758 33.25134570035152,58.56080024943367 33.417713322502095,58.527732408569136 33.531543800840154,58.50568717400165 33.67164285108447,58.37341564281087 33.80298571061576,58.20807593096106 33.9956219047308,58.00966783984768 34.18825809878763,57.734100255940575 34.3546257209382,57.5467137737287 34.27582000516122,57.227053499278554 34.284576195816044,56.97352895365475 34.38089429284446,56.708980771953065 34.59979905880755,56.46647752771969 34.783679062267765,56.23499649394216 34.90626573120244,55.93737706865795 35.03760859085014,55.639756570868485 35.265269547409844,55.36418107963982 35.51919907599222,55.132696956337895 35.69432288873941,54.87916598163429 35.8256657483289,54.58154167041357 35.957008607976604,54.27289310366905 36.13213242072379,53.99731305150635 36.43859909311868,53.90912724057853 36.64874766842695,53.776848347661144 36.78009052807465,53.45717348171456 36.858896243793424,53.170567377484986 36.92018957831897,52.850890164714656 36.99023910338292,52.531211714485835 37.07780100981472,52.16743817966926 37.16536291613011,51.89185110166727 37.16536291613011,51.781616013009625 37.25292482256191,51.461933423619485 37.29670577577781,51.12020239065896 37.393023872806225,50.75642264036287 37.48934196983464,50.337522760957654 37.55063530430198,50.006810828905145 37.620684829424135,49.632002371465205 37.71700292645255,49.29026376589172 37.78705245157471,48.948523746024875 37.85710197669687,48.56268654001906 37.90963912056759,48.23196750000352 38.01471340819262,47.85715098673245 38.076006742659956,47.504380949554616 38.16356864909176,47.16263353887916 38.224861983559094,46.83190889151592 38.294911508623045,46.51220713998191 38.35620484314859,46.2035284122685 38.40874198701931,46.07123717570357 38.44376674952218,45.86177561772638 38.50506008404773,45.50899705585471 38.57510960911168,45.15621698680479 38.65391532488866,44.814459857581824 38.73272104066564,44.42860333422868 38.758989612571895,44.31835828207841 38.77650199382333,44.11991681724612 38.83779532829067,43.83327830388589 38.91660104406765,43.44741719534068 38.977894378534984,43.11667766707251 39.056700094311964,42.74183793345583 39.10923723812448,42.576466921796964 39.1617743819952,42.40007081093063 39.18804295384325,42.27879826609569 39.24058009771397,42.16855034347827 39.205555335152894,41.981128537234326 39.214311525807716,41.77165660323226 39.24058009771397,41.48500993761991 39.30187343218131,41.22041213225748 39.363166766648646,41.03298817374889 39.50326581689296,40.98888835693651 39.80973248928785,41.088112911565986 40.08993058971828,41.198362276867556 40.37888488086173,41.27553674497176 40.48395916848676,41.165287482741405 40.51898393104784,40.95581347893312 40.501471549796406,40.647113978280686 40.51898393104784,40.32738827868161 40.536496312357485,39.94151078546565 40.58027726551518,39.55563148876536 40.60654583747964,39.26897712938808 40.492715359141584,39.08154874091997 40.21251725865295,39.14769998544216 39.90605058631627,39.19180078568024 39.67838962969836,39.246926752828585 39.71341439225944,38.92719563093851 39.76595153607195,38.5964379949437 39.83600106119411,38.26567903382238 39.88853820506483,37.934918747610936 39.99361249268986,37.571080902234826 40.0549058271572,37.21826691481692 40.0986867803731,36.95365543477965 40.142467733589,36.63391543152102 40.1862486868049,36.36930207847763 40.17749249615008,36.21494389756117 40.20376106805634,36.12673909318255 40.36137249955209,36.00545733326726 40.536496312357485,35.9172523050438 40.44017821532907,35.74084196588956 40.343860118300654,35.60853396415041 40.37012869020691,35.43212296528509 40.422665834019426,35.376994450860366 40.61530202807626,35.421097265360004 40.78166965028504,35.3990458610715 40.94803727243561,35.443148663769534 41.08813632262172,35.376994450860366 41.26326013542712,35.34391732452059 41.368334423110355,35.20058295722265 41.403359185671434,34.79262993440352 41.42962775757769,34.40672657082905 41.482164901390206,34.064924942365906 41.49967728269985,33.80030335478659 41.49967728269985,33.63491443185194 41.52594585460611,33.42542132044764 41.49092109204503,33.28208362209989 41.27201632608194,33.23797966483835 41.04435536940582,33.2049016814417 40.90425631921971,33.12771966862783 40.6765953626018,33.072589615265315 40.39639726211317,33.01745952512283 40.07241820846684,32.95130336832517 39.75719534541713,32.87412111841695 39.468241054331884,32.79693879631668 39.10923723812448,32.741808522099745 38.83779532829067,32.620521789154736 38.680183896794915,32.576417478449 38.417498177615926,32.576417478449 38.10227531462442,32.55436531425221 37.81332102348097,32.54333922996011 37.48058577923803,32.521287056930305 37.16536291613011,32.477182693211944 36.86765243439004,32.44410440496722 36.58745433401782,32.4220522054311 36.49989242758602,32.400000000001455 36.43859909311868,32.53231314419827 36.368549567996524,32.75283457990008 36.32476861478062,32.973355426503986 36.28098766162293,33.1718236847737 36.26347528031329,33.403369383057 36.22845051775221,33.60183660747862 36.13213242072379,33.78927743694658 36.04457051429199,33.9326142546488 35.96576479857322,34.153131949700764 35.92198384535732,34.29646813564614 35.85193432023516,34.48390738785383 35.75561622326495,34.649294609938806 35.67681050748797,34.84775883905968 35.580492410459556,35.02417108663212 35.5104428853374,35.189557226374745 35.3791000257479,35.3990458610715 35.309050500625744,35.68571365759999 35.17770764103625,35.961354830935306 35.046364781446755,36.292123024097236 34.888753349951,36.62288989206718 34.73989810911007,36.93160443985107 34.60855524946237,37.21826691481692 34.477212389872875,37.51595381611696 34.3108447677223,37.83569040335715 34.16198952688137,38.12234973914747 34.0394028579467,38.409008079674095 33.916816189012025,38.65156435962854 33.8642790451413,38.76181697856373 33.81174190127058,38.83899372424639 33.69791142299073,38.92719563093851 33.67164285108447,39.19180078568024 33.57532475399785,39.50050572770124 33.39144475059584,39.787159283208894 33.312639034877066,39.98561116169003 33.25134570035152,40.13996229296026 33.40895713190548,40.22816280982806 33.69791142299073,40.22816280982806 34.021890476637054,40.27226303291536 34.363381911534816,40.31636323245766 34.68736096523935,40.36046340849862 35.011340018885676,40.40456356090726 35.32656288187718,40.44866368979274 35.615517173020635,40.49276379510411 35.843178129638545,40.49276379510411 35.957008607976604,40.349438366691174 36.0007895611343,40.13996229296026 36.027058133040555,39.93048568772792 36.06208289565984,39.919460588549555 36.219694327097386,40.00766134096921 36.22845051775221,40.23918786779541 36.14964480197523,40.62506396977551 36.07959527691128,40.977863399049966 36.00954575178912,41.352711140949395 35.93949622666696,41.70550746101799 35.86069051094819,42.0913767100792 35.79064098576782,42.41109557888558 35.74686003255192,42.697739029426884 35.65929812617833,43.03950491985597 35.67681050748797,43.33717083311058 35.60676098236581,43.6458602763887 35.422880978905596,43.866352029304835 35.344075263128616,44.17503949422098 35.25651335681323,44.494750294834375 35.25651335681323,44.77036206044431 35.24775716615841,44.99085081057274 35.41412478830898,45.200314577865356 35.32656288187718,45.54207011006656 35.28278192871949,45.91689713186497 35.17770764103625,46.34684367933369 35.11641430656891,46.67757026943582 35.05512097210158,47.05239213688765 35.046364781446755,47.394140003867506 35.02885240013711,47.724862399394624 35.02885240013711,48.07763149467792 35.0200962095405,48.419375118661264 35.002583828230854,48.77214124700549 34.98507144697942,49.124905868360656 34.95880287507316,49.44459750482201 34.923778112453874,49.75326411738206 34.862484778044745,50.10602454760374 34.79243525292259,50.48083085355756 34.75741049036151,50.778469943543314 34.79243525292259,51.12020239065896 34.73114191839704,51.461933423619485 34.634823821426835,51.825710066121246 34.43343143671518,52.112320837637526 34.2232828612905,52.33278998509195 33.951840951514896,52.542235129927576 33.74169237614842,52.74065635613806 33.47025046637282,52.972147184169444 33.303882844164036,53.170567377484986 33.20756474719383,53.33591717438685 33.08497807820095,53.46819677354506 32.962391409266274,53.655592509690905 32.87482950289268,53.94219693069317 32.743486643303186,54.26186991926079 32.56836283049779,54.59256481218472 32.393239017692395,54.901212184246106 32.2618961581029,55.132696956337895 32.19184663303895,55.40827322000405 32.244383776793256,55.628733568883035 32.393239017692395,55.80510142431012 32.288164730067365,56.10272132622049 32.27065234875772,56.279088169452734 32.27065234875772,56.26806525277061 32.14806567982305,56.312156910622434 31.946673295053188,56.58772923886136 31.780305672902614,56.86330064757931 31.552644716284703,57.10580272674997 31.342496140976436,57.34830409388087 31.24617804394802,57.59080474895745 31.13234756560996,57.91046361556073 30.992248515423853,58.10887194497627 30.817124702618457,58.10887194497627 30.571951364690904,58.10887194497627 30.29175326426048,58.05375856795581 29.985286591865588,58.031713206837594 29.678819919470698,58.031713206837594 29.494939916068688,58.04273588812066 29.337328484572936,58.08682659857004 29.284791340702213,58.15296262012271 29.188473243673798,58.36239300566376 29.065886574739125,58.58284546935465 29.022105621523224,58.90250049652241 28.917031333839986,59.12295151863509 28.838225618121214,59.32135693544842 28.768176092999056,59.39851446884859 28.58429608953884,59.57487427451997 28.347878942324314,59.81736839241785 28.242804654641077,60.01577214118879 28.347878942324314,60.21417541336996 28.409172276733443,60.29133211274166 28.426684658043087,60.50075707630458 28.505490373820066,60.75427079541987 28.47922180191381,60.897560814184544 28.36539132357575,60.71018150888267 28.199023701425176,60.930627706351515 28.041412269929424,61.195162366690056" stroke="#4DD2FF" stroke-dasharray="none" stroke-linecap="round" stroke-linejoin="round" stroke-width="0.5"><title>2017-12-17 14.0km</title><desc>9223370523376934807</desc></polyline><polyline fill="none" opacity="1" points="100.59434880246408,32.40000000000873 100.56670467206277,32.765277347760275 100.45612815063214,33.09576549535268 100.56670467206277,33.25231222041475 100.62199293274898,34.01764906087192 100.58052673732163,34.29595225324738 100.76021358458092,34.60904263499833 100.81550184520893,34.904738416706095 100.87079010595335,35.2178273373429 100.8846121710958,35.63527806274942 100.91225630149711,36.0005463516718 100.96754456218332,36.29623897942656 101.02283282286953,36.62671818192757 101.11958727915771,36.92240939036128 101.13340934424195,37.235493468819186 101.20251967018703,37.5833637858741 101.31309619155945,37.8442659148277 101.49278303881874,37.89644627805683 101.60335956019117,38.07038067129906 101.54807129956316,38.20952801895328 101.34074032190256,38.31388843226887 101.34074032190256,38.55739573876781 101.45131684333319,38.81829591988935 101.58953749510692,39.16616201646684 101.70011401647935,39.479240710279555 101.76922434230801,39.77492545351561 101.9212670592824,40.0880026864761 102.08713184134103,40.38368605001597 102.23917455825722,40.66197566232586 102.19770836277166,40.95765772498271 101.89362292888109,40.975050766646746 101.63100369053427,40.783727181042195 101.43749477813253,40.64458257891238 101.23016380053014,40.59240331489127 101.00901075772708,40.66197566232586 100.73256945417961,40.67936874341103 100.60817086760653,40.83590636856388 100.62199293274898,41.09680199318973 100.56670467206277,41.34030410545529 100.27644130343106,41.44466201447358 99.99999999994179,41.56641280277108 99.70973663119366,41.58380576329364 99.47476152330637,41.56641280277108 99.51622771879192,41.2881251196668 99.59916010982124,40.975050766646746 99.69591456610942,40.67936874341103 99.77884695719695,40.314113554151845 99.84795728302561,39.93146416389209 99.83413521782495,39.566206880816026 99.77884695719695,39.21834185093758 99.73738076159498,38.8878692133876 99.4332953277044,38.81829591988935 99.15685402427334,38.783509259228595 99.03245543770026,38.60957581670664 99.01863337249961,38.43564214234357 99.00481130729895,38.19213460858737 98.94952304667095,38.0182003776863 98.76983619935345,37.98341350365081 98.5763272868935,37.948626620389405 98.41046250477666,37.98341350365081 98.41046250477666,38.20952801895328 98.42428456997732,38.48782226900221 98.45192870037863,38.85308257129509 98.45192870037863,39.14876873364847 98.47957283072174,39.479240710279555 98.49339489580598,39.827105044503696 98.47957283072174,40.15757530290284 98.47957283072174,40.470651617622934 98.49339489580598,40.801120245901984 98.47957283072174,41.079408967809286 98.49339489580598,41.42726903545554 98.50721696106484,41.67077053092362 98.52103902620729,41.914271571920835 98.50721696106484,42.12298638821812 98.49339489580598,42.40127229060454 98.46575076552108,42.66216478498245 98.43810663511977,42.836092824698426 98.41046250477666,43.07959169081005 98.39664043969242,43.323090102450806 98.38281837443355,43.56658805970801 98.38281837443355,43.77530023273721 98.38281837443355,44.08836786626489 98.39664043969242,44.40143474865181 98.38281837443355,44.76667849528894 98.38281837443355,45.097136242184206 98.38281837443355,45.392808253644034 98.39664043969242,45.67108718176314 98.41046250477666,46.03632737416774 98.41046250477666,46.40156654412567 98.41046250477666,46.62766647031822 98.39664043969242,46.940727259774576 98.39664043969242,47.13204181687615 98.35517424414866,47.410317035522894 98.38281837443355,47.65380736498628 98.41046250477666,47.91468935662124 98.45192870037863,48.22774705804477 98.50721696106484,48.5234119752713 98.53486109134974,48.8886441833165 98.60397141729482,49.27126730467717 98.70072587346658,49.65388930414338 98.811302394839,49.94955098972423 98.92187891626963,50.22782019950682 99.03245543770026,50.55826411522867 99.1430319591309,50.853923751652474 99.23978641524445,51.02784087184409 99.30889674118953,51.23654111010546 99.41947326262016,51.445241014575004 99.53004978399258,51.67133220107644 99.57151597953634,51.91481457914051 99.59916010982124,52.07133872510167 99.76502489193808,52.210471141777816 99.86177934816806,52.349603409995325 99.98617793474114,52.540910036550486 100.11057652131421,52.71482490829658 100.22115304274485,52.940913894970436 100.35937369446037,53.132219654668006 100.53906054177787,53.32352513386286 100.73256945417961,53.56700442900183 100.92607836658135,53.8452659243776 101.09194314869819,54.08874424600799 101.21634173532948,54.297439588670386 101.2716299960739,54.43656963169633 101.45131684333319,54.73222048053867 101.63100369053427,54.958305971798836 101.79686847270932,55.21917335961189 101.96273325476795,55.51482243531791 102.11477597168414,55.75829764174705 102.26681868860032,56.01916343027551 102.43268347071717,56.297419696551515 102.61237031803466,56.59306632935477 102.79205716523575,56.90610321040731 102.9855660776957,57.20174846421287 103.16525292501319,57.48000220874383 103.35876183747314,57.75825536005141 103.55227074993309,58.088680206565186 103.75960172753548,58.419104216387495 103.93928857479477,58.69735536524968 104.11897542211227,58.992996560788015 104.27101813897025,59.271246485979646 104.42306085594464,59.51471468379896 104.57510357286083,59.74079188935866 104.74096835497767,60.01904021999508 104.92065520217875,60.29728795742267 105.0588758540107,60.523363807209535 105.23856270121178,60.766829669024446 105.43207161367172,61.04507581195503 105.59793639578857,61.34071168885566 105.74997911270475,61.566785731047275 105.91584389482159,61.87981068139197 106.09553074208088,62.21022509215982 106.28903965454083,62.54063866639626 106.46872650180012,62.83627115529089 106.64841334905941,63.13190297444817 106.88338845700491,63.462314215139486 107.04925323912175,63.74055461109674 107.1874738909537,63.98401447091601 107.36716073815478,64.24486381675524 107.54684758547228,64.55788234350621 107.72653443273157,64.90567982607172 107.90622127999086,65.23608657592558 108.03061986656394,65.47954364585166 108.19648464868078,65.8273386721994 108.32088323525386,66.14035340343253 108.43145975662628,66.50553630775539 108.4867480173707,66.73160140309483 108.4867480173707,66.90549736379762 108.34852736559696,67.09678265298135 108.36234943073941,67.06200353034365 108.4867480173707,67.00983482903393 108.62496866908623,67.14895131954108 108.70790106017375,67.37501530039299 108.80465551634552,67.65324735462491 108.91523203777615,67.96625770666287 109.03963062434923,68.31404610625759 109.16402921092231,68.66183357904083 109.28842779749539,69.02700942804222 109.3437160582398,69.20090233036899 109.46811464481289,69.53129820647882 109.59251323132776,69.84430405436433 109.70308975275839,70.0877525282558 109.79984420893015,70.38336792170594 109.88277660001768,70.64420447757584 109.9380648607621,70.88765145938669 110.03481931693386,71.18326504115248 110.1453958383645,71.4788779533119 110.25597235973692,71.80926806289062 110.33890475076623,72.07010176914628 110.44948127219686,72.40049038206053 110.54623572836863,72.66132290678797 110.65681224985747,72.9569324713375 110.78121083643055,73.23515262641013 110.87796529260231,73.530760891299 111.01618594431784,73.86114580683352 111.11294040060602,74.12197541263595 111.2373389871791,74.41758166906948 111.32027137820842,74.62624450580915 111.41702583443839,74.8870725826855 111.54142442101147,75.06095767770603 111.58289061655523,75.18267710634973 111.56906855129637,75.40872717273305 111.51378029066836,75.60000000000582 111.32027137820842,75.49566940165823 111.12676246580668,75.2348425409873 110.93325355328852,74.95662664847623 110.71210051048547,74.67841016287275 110.43565920705441,74.34802731602394 110.1453958383645,74.06980953318998 109.89659866521833,73.84375714794442 109.64780149201397,73.58292698622972 109.41282638406847,73.35687375774432 109.15020714577986,73.04387633346778 108.9014099725755,72.8352109670086 108.65261279948754,72.59176761776325 108.37617149594007,72.29615722619928 108.12737432285212,72.05271287157666 107.8647550844471,71.80926806289062 107.56066965061473,71.53104486835946 107.29805041232612,71.3223770832119 106.96632084815064,71.13109798711957 106.66223541426007,71.02676381658239 106.31668378488394,70.9398186107428 105.98495422065025,70.90504051216703 105.62558052613167,70.81809522524418 105.28002889675554,70.73114988034649 104.98976552812383,70.67898264565156 104.65803596389014,70.59203720811638 104.34012846485712,70.59203720811638 103.95311063993722,70.48770260660967 103.57991488021798,70.38336792170594 103.4555162936449,70.34858967490436 103.24818531610072,70.29642228725425 103.06849846872501,70.27903315343428 102.84734542592196,70.24425487879489 102.65383651352022,70.20947659487138 102.46032760106027,70.19208744942443 102.28064075380098,70.13991999925929 102.04566564579727,70.0877525282558 101.81069053785177,70.0529742026265 101.64482575573493,69.98341752361739 101.45131684333319,69.93124999004067 101.16105347464327,69.80952566387714 100.80167978006648,69.67041200933454 100.4423060855479,69.53129820647882 100.12439858651487,69.42696275701746 99.8203131526243,69.34001648543926 99.48858358844882,69.25307015587168 99.1430319591309,69.14873448396975 98.7836582645541,69.04439872872899 98.39664043969242,68.957452202274 98.02344467991497,68.80094830869348 97.7470033763675,68.74878030247055 97.35998555150582,68.64444422745146 97.05590011767345,68.48793995850428 96.77945881418418,68.40099306136835 96.51683957577916,68.31404610625759 96.21275414194679,68.209709683666 95.88102457777131,68.07059432385722 95.53547294839518,67.87931046198355 95.21756544936216,67.65324735462491 94.89965795038734,67.46196288103238 94.62321664689807,67.16634087040438 94.41588566929568,66.85332859992923 94.26384295237949,66.59248446766287 94.18091056129197,66.3316398141178 94.07033403986134,66.15774308875552 93.9044692578027,65.89689756624284 93.80771480151452,65.72300026164157 93.669494149799,65.44476409225899 93.4898073024815,65.13174769267789 93.31012045528041,64.78395081260533 93.15807773836423,64.4013731739833 92.95074676070362,64.00140444356657 92.74341578304302,63.58404446137138 92.54990687064128,63.20146330517309 92.3978641537251,62.92322175986192 92.24582143680891,62.54063866639626 92.05231252429076,62.140664233098505 91.87262567708967,61.74068857390375 91.66529469948728,61.323321361705894 91.45796372182667,60.9059528146754 91.27827687450917,60.50597337113868 91.07094589690678,60.12338319105038 90.87743698450504,59.723401348965126 90.7115722023882,59.34080887452001 90.5318853550707,58.95821527841326 90.36602057295386,58.61040194495581 90.21397785609588,58.262587684439495 90.03429100877838,57.94955405735527 89.93753655254841,57.653910497858305 89.82696003117599,57.323484550463036 89.7025614446029,56.958275950935786 89.61962905357359,56.55828440726327 89.53669666248607,56.158291637548245 89.49523046700051,55.8626440197113 89.43994220625609,55.427866894358885 89.38465394556988,55.010479491131264 89.35700981522677,54.64526441806811 89.31554361968301,54.21048323645664 89.2602553589968,53.89743988866394 89.2602553589968,53.56700442900183 89.24643329379614,53.16700248992129 89.21878916351125,52.83656518055068 89.24643329379614,52.471344023011625 89.2602553589968,52.01916403067298 89.24643329379614,51.67133220107644 89.21878916351125,51.306107782016625 89.12203470722307,50.958274051590706 89.0529243813944,50.50608881581866 89.06674644653685,50.158252952678595 89.03910231619375,49.75824056376587 88.9976361207082,49.427794621908106 88.95616992510622,49.11473979977018 88.90088166447822,48.73211621932569 88.96999199030688,48.33209945830458 89.03910231619375,47.91468935662124 89.03910231619375,47.58423874582513 89.03910231619375,47.35814047724125 89.08056851173751,47.18421846556885 89.0529243813944,46.940727259774576 88.9976361207082,46.62766647031822 88.98381405544933,46.3146049297211 88.94234786002198,45.96675789250003 88.91470372962067,45.6015175053617 88.90088166447822,45.30584596686822 88.8179492733907,44.90581870122696 88.79030514304759,44.50579020919395 88.76266101264628,44.08836786626489 88.73501688236138,43.7405148937105 88.69355068681762,43.41005371081701 88.65208449127385,43.01002063261694 88.62444036098896,42.85348561590945 88.6382624261314,42.488236513352604 88.65208449127385,42.12298638821812 88.62444036098896,41.77512817554816 88.59679623052943,41.49684093768883 88.55533003504388,41.13158803706756 88.50004177435767,40.76633411392686 88.50004177435767,40.40107916815032 88.52768590475898,40.0880026864761 88.52768590475898,39.70535263304191 88.44475351361325,39.287914931133855 88.4309314484708,38.97483577813546 88.4032873181859,38.626969171426026 88.44475351361325,38.40085537963023 88.44475351361325,38.261708236081176 88.41710938332835,38.000806941854535 88.4032873181859,37.722511652929825" stroke="#4DD2FF" stroke-dasharray="none" stroke-linecap="round" stroke-linejoin="round" stroke-width="0.5"><title>2017-11-19 11.8km</title><desc>9223370525802103807</desc></polyline><polyline fill="none" opacity="0.5" points="177.19673469336703,73.3389318822301 175.96244897972792,73.3389318822301 174.81632653065026,72.9208017513738 173.49387755058706,72.9208017513738 172.2595918364823,72.71173661580542 171.2016326528974,73.02533430146286 169.35020408174023,72.1890735742636 167.85142857115716,71.98000827623764 166.44081632606685,71.8754756100243 164.85387755092233,71.98000827623764 164.23673469386995,72.08454093127511 162.561632652767,72.50267143396195 160.4457142855972,71.5618775410694 158.9469387754798,70.30748421890894 157.6244897954166,70.62108270620229 156.12571428529918,70.09841850277735 154.8032653061673,69.88935273955576 153.7453061225824,70.09841850277735 152.68734693853185,69.78481984080281 151.62938775494695,69.36668812902644 150.3069387753494,69.47122107457835 149.16081632627174,69.99388562701643 147.22122448962182,69.36668812902644 146.16326530603692,68.73949021298904 145.63428571401164,67.58962627960136 144.92897959193215,66.43976094003301 144.84081632643938,64.76722702698316 145.01714285695925,63.30375741177704 145.01714285695925,61.63121791940648 144.84081632643938,60.16774342296412 144.84081632643938,58.18159581947839 144.57632653042674,57.1362532901112 144.39999999990687,55.568237316736486 144.7526530609466,54.104753382271156 144.7526530609466,52.85033676796593 145.10530612198636,51.80498831078876 144.84081632643938,50.44603357859887 145.28163265250623,48.982541670498904 145.1934693879448,47.41451209789375 145.45795918349177,46.47369309864007 145.54612244898453,44.592052276362665 145.45795918349177,42.919479494332336 145.54612244898453,41.455975869321264 145.63428571401164,40.30607856565621 145.89877551002428,38.94710721162846 146.16326530603692,37.483597402693704 145.89877551002428,36.020085315045435 145.89877551002428,34.97471814323217 145.7224489795044,33.72027600283036 145.89877551002428,34.97471814323217 145.89877551002428,36.020085315045435 146.16326530603692,37.483597402693704 145.89877551002428,38.94710721162846 145.63428571401164,40.30607856565621 145.54612244898453,41.455975869321264 145.45795918349177,42.919479494332336 145.54612244898453,44.592052276362665 145.45795918349177,46.47369309864007 145.1934693879448,47.41451209789375 145.28163265250623,48.982541670498904 144.84081632643938,50.44603357859887 145.10530612198636,51.80498831078876 144.7526530609466,52.85033676796593 144.7526530609466,54.104753382271156 144.39999999990687,55.568237316736486 144.57632653042674,57.1362532901112 144.84081632643938,58.18159581947839 144.84081632643938,60.16774342296412 145.01714285695925,61.63121791940648 145.01714285695925,63.30375741177704 144.84081632643938,64.76722702698316 144.92897959193215,66.43976094003301 145.63428571401164,67.58962627960136 146.16326530603692,68.73949021298904 147.22122448962182,69.36668812902644 149.16081632627174,69.99388562701643 150.3069387753494,69.47122107457835 151.62938775494695,69.36668812902644 152.68734693853185,69.78481984080281 153.7453061225824,70.09841850277735 154.8032653061673,69.88935273955576 156.12571428529918,70.09841850277735 157.6244897954166,70.62108270620229 158.9469387754798,70.30748421890894 160.4457142855972,71.5618775410694 162.561632652767,72.50267143396195 164.23673469386995,72.08454093127511 164.85387755092233,71.98000827623764 166.44081632606685,71.8754756100243 167.85142857115716,71.98000827623764 169.35020408174023,72.1890735742636 171.2016326528974,73.02533430146286 172.2595918364823,72.71173661580542 173.49387755058706,72.9208017513738 174.81632653065026,72.9208017513738 175.96244897972792,73.3389318822301 177.19673469336703,73.3389318822301 178.2546938774176,73.54799687804189 179.48897959152237,73.75706182740396 180.98775510163978,74.27972399716964 182.39836734719574,74.07065916416468 183.72081632632762,73.86159428453539 184.9551020404324,74.17519158666255 186.3657142855227,74.07065916416468 187.59999999962747,74.17519158666255" stroke="#4DD2FF" stroke-dasharray="1,0.5" stroke-linecap="round" stroke-linejoin="round" stroke-width="0.5"><title>2014-03-22 10.5km</title><desc>9223370641410674807</desc></polyline><polyline fill="none" opacity="1" points="55.600000000034925,101.42719921885873 55.49878163076937,101.34096912507084 55.387441424594726,101.34096912507084 55.27610121842008,101.34096912507084 55.124273664550856,101.37792488847481 54.982567947590724,101.37792488847481 54.850984067539684,101.37792488847481 54.719400187488645,101.36560630217718 54.56757263356121,101.34096912507084 54.43598875356838,101.35328771439526 54.29428303660825,101.36560630217718 54.142455482680816,101.35328771439526 54.02099343959708,101.36560630217718 53.90965323342243,101.36560630217718 53.757825679495,101.37792488847481 53.646485473320354,101.36560630217718 53.51490159332752,101.3286505342985 53.383317713218275,101.30401334821363 53.251733833225444,101.3286505342985 53.120149953174405,101.35328771439526 53.01893158390885,101.35328771439526 52.856982193130534,101.31633194201277 52.73552014998859,101.30401334821363 52.62417994381394,101.30401334821363 52.502717900730204,101.29169475297385 52.35089034680277,101.30401334821363 52.19906279287534,101.30401334821363 52.07760074984981,101.3286505342985 51.93589503283147,101.29169475297385 51.82455482665682,101.29169475297385 51.68284910969669,101.29169475297385 51.56138706661295,101.27937615623523 51.409559512743726,101.25473895824689 51.27797563263448,101.23010175429954 51.10590440488886,101.25473895824689 50.954076851019636,101.25473895824689 50.812371134059504,101.27937615623523 50.65042174322298,101.26705755799776 50.52895970013924,101.26705755799776 50.417619493964594,101.25473895824689 50.286035613913555,101.27937615623523 50.164573570829816,101.26705755799776 50.03298969072057,101.25473895824689 49.891283973818645,101.26705755799776 49.77994376758579,101.26705755799776 49.63823805062566,101.26705755799776 49.50665417063283,101.30401334821363 49.38519212749088,101.29169475297385 49.26373008440714,101.30401334821363 49.12202436744701,101.29169475297385 48.98031865048688,101.29169475297385 48.85885660734493,101.29169475297385 48.7171508903848,101.29169475297385 48.605810684210155,101.29169475297385 48.48434864106821,101.29169475297385 48.36288659798447,101.29169475297385 48.211059044115245,101.26705755799776 48.079475164064206,101.23010175429954 47.94789128401317,101.25473895824689 47.806185567053035,101.24242035703355 47.65435801318381,101.23010175429954 47.52277413313277,101.24242035703355 47.39119025308173,101.24242035703355 47.25960637303069,101.27937615623523 47.12802249303786,101.26705755799776 46.98631677607773,101.25473895824689 46.8446110591176,101.24242035703355 46.71302717906656,101.24242035703355 46.58144329901552,101.21778315006668 46.4194939082372,101.23010175429954 46.30815370200435,101.2054645443859 46.156326148076914,101.21778315006668 46.00449859420769,101.21778315006668 45.87291471421486,101.24242035703355 45.72108716034563,101.2054645443859 45.5692596064182,101.16850871834322 45.417432052548975,101.16850871834322 45.275726335530635,101.14387149351387 45.1441424555378,101.13155287884001 45.00243673857767,101.14387149351387 44.90121836931212,101.14387149351387 44.75951265235199,101.16850871834322 44.63805060921004,101.2054645443859 44.5165885661263,101.23010175429954 44.36476101225708,101.23010175429954 44.23317713220604,101.23010175429954 44.101593252155,101.2054645443859 43.98013120901305,101.2054645443859 43.86879100283841,101.23010175429954 43.70684161206009,101.21778315006668 43.58537956891814,101.2054645443859 43.4537956888671,101.23010175429954 43.32221180887427,101.2054645443859 43.19062792882323,101.18082732853509 43.03880037495401,101.18082732853509 42.91733833181206,101.16850871834322 42.795876288670115,101.15619010665978 42.6339268978918,101.11923426271824 42.50234301784076,101.16850871834322 42.34039362706244,101.14387149351387 42.2088097470114,101.13155287884001 42.08734770392766,101.14387149351387 41.93552015000023,101.14387149351387 41.7938144330401,101.13155287884001 41.66223055298906,101.13155287884001 41.50028116215253,101.14387149351387 41.38894095597789,101.15619010665978 41.23711340210866,101.18082732853509 41.125773195934016,101.10691564509034 40.97394564200658,101.10691564509034 40.852483598922845,101.10691564509034 40.71077788196271,101.09459702594904 40.56907216500258,101.10691564509034 40.447610121860635,101.13155287884001 40.3059044049005,101.09459702594904 40.17432052484946,101.10691564509034 40.03261480794754,101.08227840535255 39.89090909098741,101.08227840535255 39.76944704784546,101.06995978325722 39.658106841670815,101.0206852799165 39.526522961619776,101.0206852799165 39.39493908156874,101.03300390797813 39.243111527641304,101.05764115964848 39.11152764764847,101.0453225345409 38.990065604564734,101.09459702594904 38.858481724513695,101.09459702594904 38.69653233367717,101.09459702594904 38.56494845368434,101.10691564509034 38.4333645736333,101.06995978325722 38.31190253054956,101.06995978325722 38.20056232431671,101.08227840535255 38.058856607356574,101.06995978325722 37.90702905342914,101.08227840535255 37.77544517343631,101.0453225345409 37.61349578265799,101.03300390797813 37.51227741333423,101.0453225345409 37.3705716963741,101.0453225345409 37.06691658863565,101.05764115964848 36.773383317748085,101.03300390797813 36.601312090002466,100.97141075268155 36.206560449965764,101.08227840535255 35.87253983132541,101.05764115964848 35.62961574509973,100.98372938673128 35.406935332750436,100.98372938673128 35.14376757264836,100.93445484166296 34.95145267108455,100.94677348015102 34.65791940019699,100.94677348015102 34.384629803244025,101.08227840535255 34.121462043200154,101.00836665034876 33.8076850984944,101.15619010665978 29.93102155579254,100.93445484166296 29.677975632657763,100.84822433031513 29.44517338339938,100.89749891714746 29.10103092790814,100.93445484166296 28.817619493987877,100.84822433031513 28.493720712314826,100.79894971955946 28.25079662614735,100.76199374586577 24.951077788253315,100.79894971955946 24.657544517423958,100.77431240527949 24.323523898841813,100.74967508496775 24.08059981261613,100.78663106316526 23.847797563299537,100.71271909338247 23.523898781684693,100.67576308837306 23.220243673946243,100.7250377587261 22.926710403058678,100.71271909338247 20.386129334627185,100.68808175818413 20.01162136840867,100.71271909338247 19.809184629877564,100.71271909338247 19.61686972825555,100.70040042654728 19.546016869775485,100.68808175818413 19.363823805120774,100.6388070699104 19.151265229680575,100.68808175818413 18.928584817273077,100.67576308837306 18.736269915709272,100.6018510380818 18.50346766639268,100.58953235780064 18.250421743257903,100.58953235780064 17.987253983214032,100.66344441706315 17.88603561394848,100.54025762178208 16.711902530514635,100.65112574423256 16.458856607379857,100.6018510380818 16.256419868848752,100.6018510380818 15.952764761052094,100.58953235780064 15.66935332713183,100.6141697168423 15.40618556708796,100.6141697168423 15.112652296200395,100.6264883941185 14.859606373065617,100.5525763080077 14.60656044993084,100.58953235780064 14.373758200614247,100.5525763080077 14.03973758209031,100.56489499277814 13.847422680468298,100.51562024484156 13.483036551100668,100.57721367600607 13.128772258758545,100.52793893407943 13.007310215674806,100.6018510380818 13.068041237187572,100.87286162669625 13.057919400278479,101.0453225345409 13.098406747973058,101.3286505342985 12.936457357136533,101.41488063850557 12.875726335623767,101.2054645443859 12.784629803267308,101.0453225345409 12.612558575521689,101.10691564509034 12.48097469547065,101.35328771439526 12.400000000023283,101.4887920982219 12.430365510866977,101.80907446991478 12.48097469547065,102.1047188413213 12.541705717041623,102.38804389115103 12.602436738612596,102.6960050070702 12.653045923216268,102.99164680149988 12.723898781696334,103.21337758361187 12.744142455572728,103.42278954525682" stroke="#4DD2FF" stroke-dasharray="none" stroke-linecap="round" stroke-linejoin="round" stroke-width="0.5"><title>2013-12-10 10.9km</title><desc>9223370650177580807</desc></polyline><polyline fill="none" opacity="1" points="100.73986998200417,123.59999999962747 100.73986998200417,107.40001468732953 99.26013001054525,80.3999999994412" stroke="#4DD2FF" stroke-dasharray="none" stroke-linecap="round" stroke-linejoin="round" stroke-width="0.5"><title>2013-11-30 10.3km</title><desc>9223370651086224807</desc></polyline><polyline fill="none" opacity="1" points="177.41518800146878,97.2312644557096 177.41518800146878,96.10918395733461 175.80091899074614,93.02345978678204 178.1070175776258,90.49877332313918 176.49274856690317,89.37668956816196 174.87847955711186,86.8519991368521 172.80299082957208,83.7662626572419 170.95811196044087,83.20521922083572 167.9601837983355,80.4000000001397 163.34798662550747,82.64417564729229 160.11944860499352,86.01043504965492 157.12152044288814,89.09616854530759 155.96847114898264,91.05981499678455 155.73786129057407,95.5481435037218 157.3521303012967,99.75594359473325 155.5072514321655,103.40269750310108 154.58481199666858,105.92736992868595 155.2766415728256,108.17152088950388 154.35420214012265,111.25722491787747 154.58481199666858,114.34292484284379 154.58481199666858,117.98965582833625 156.66030072513968,119.39224314200692 159.4276190288365,121.35586395906284 162.88676690869033,122.75844923895784 165.8846950698644,123.60000000009313 169.11323309037834,123.03896619309671 171.88055139407516,120.79482960957102 174.4172598393634,117.98965582833625 176.03152885008603,114.0624068370089 176.26213870756328,110.97670653951354 176.49274856690317,107.89100213861093 176.49274856690317,104.52477447572164 175.80091899074614,101.15854193037376 176.49274856690317,97.79230450256728 176.72335842624307,94.98710291530006 177.64579785987735,91.62085653445683 177.1845781430602,88.5351263966877 175.80091899074614,85.72991361888126 173.95604012254626,83.7662626572419 171.88055139407516,82.92469745082781 168.6520133735612,82.08313193893991 165.8846950698644,82.08313193893991 162.65615704935044,83.7662626572419 160.81127818115056,84.32730595883913 158.73578945267946,86.57147780805826 157.12152044288814,88.5351263966877 156.89091058447957,91.62085653445683 155.96847114898264,95.5481435037218 156.4296908667311,98.63386431708932 155.73786129057407,102.56113941781223 155.73786129057407,104.52477447572164 155.2766415728256,109.01307694031857 153.8929824223742,112.94033447606489 154.35420214012265,116.86758536635898" stroke="#4DD2FF" stroke-dasharray="none" stroke-linecap="round" stroke-linejoin="round" stroke-width="0.5"><title>2013-11-16 10.4km</title><desc>9223370652294258807</desc></polyline><polyline fill="none" opacity="1" points="45.837974173016846,143.1000844053924 45.59134971071035,138.90006917435676 45.837974173016846,135.90005394420587 44.60485186241567,132.6000330010429 40.41223600972444,129.90001260256395 36.712869081646204,129.00000514974818 33.013502151705325,129.00000514974818 29.06751076038927,130.50001738895662 26.354641679674387,132.30003087921068 25.121519369073212,136.50005727959797 23.395148135721684,141.30007874849252 23.395148135721684,144.30008745123632 23.148523674346507,147.0000921834726 22.40865028835833,151.20009370637126 22.655274749733508,155.10008875629865 22.40865028835833,158.10008077835664 22.655274749733508,163.20005889236927 23.64177259709686,165.60004496737383 26.108017217367887,167.7000308786519 30.793881993740797,171.60000000009313 34.73987338505685,171.60000000009313 38.43924031406641,170.40001015365124 40.65886047203094,169.20001972699538 43.37172955367714,165.90004306309856 44.111602938733995,163.20005889236927 43.86497847735882,159.000077677425 44.35822740197182,154.2000904425513 45.34472524933517,151.20009370637126 46.08459863439202,147.60009283619002 46.08459863439202,144.00008674431592 46.33122309669852,139.80007303715684 45.837974173016846,135.90005394420587 43.61835401598364,132.6000330010429 40.90548493433744,130.50001738895662 36.712869081646204,128.4000000001397 33.013502151705325,129.00000514974818 29.560759685002267,130.50001738895662 26.354641679674387,132.0000287219882 23.64177259709686,135.00004866719246 22.901899211108685,140.40007542981766 23.148523674346507,144.00008674431592 22.655274749733508,147.60009283619002 24.13502152170986,151.20009370637126 22.40865028835833,156.90008440450765 21.668776902370155,160.80007049744017 22.40865028835833,164.70005046087317 22.655274749733508,166.80003713420592 26.354641679674387,169.20001972699538 29.314135221764445,170.70000767009333 34.24662446137518,171.30000259238295 37.699366928078234,170.70000767009333 40.90548493433744,169.20001972699538 43.12510509137064,166.20004112226889 43.86497847735882,162.60006201080978 44.85147632472217,159.000077677425 45.34472524933517,155.4000881218817" stroke="#4DD2FF" stroke-dasharray="none" stroke-linecap="round" stroke-linejoin="round" stroke-width="0.5"><title>2013-11-03 10.7km</title><desc>9223370653417861807</desc></polyline><polyline fill="none" opacity="1" points="91.71341707650572,169.5840174248442 96.2118478063494,171.31200259411708 99.52648097556084,171.60000000009313 103.31463316921145,170.16001262003556 106.6292663384229,167.28003524802625 107.10278536193073,162.6720642137807 109.23362097144127,158.06408426584676 109.47038048412651,154.60809345706366 109.47038048412651,151.44009747868404 109.7071399949491,147.1200961722061 109.94389950763434,142.80008703446947 111.12769706826657,139.0560727783013 111.36445658095181,135.3120526385028 109.23362097144127,132.7200352489017 107.81306389905512,130.41601742454804 104.73519024252892,128.9760051521007 100.94703804794699,128.4000000001397 97.15888585522771,129.2640076763928 93.84425268601626,129.84001261997037 88.63554341904819,133.8720433257986" stroke="#4DD2FF" stroke-dasharray="none" stroke-linecap="round" stroke-linejoin="round" stroke-width="0.5"><title>2013-11-02 10.5km</title><desc>9223370653505000807</desc></polyline><polyline fill="none" opacity="1" points="175.54437706060708,155.94009654247202 175.7663393188268,152.70010280935094 175.54437706060708,149.46010437584482 175.54437706060708,146.49010168295354 176.43222609069198,142.98009340977296 176.87615060433745,140.01008210144937 176.43222609069198,137.31006839242764 175.32241480425,134.34004954481497 173.99064126145095,132.72003759886138 170.4392451448366,130.56001984444447 167.7756980592385,128.4000000001397 165.3341132281348,129.48001018329524 162.0046793706715,130.8300221778918 159.78505679685622,132.45003549358808 158.67524551134557,135.69005860155448 158.2313209977001,138.12007284793071 157.7873964831233,141.63008875912055 156.45562293939292,144.33009724435396 156.01169842481613,146.76010209089145 156.23366068210453,150.81010429398157 157.7873964831233,154.32010026299395 154.90188713837415,155.13009854895063 155.12384939659387,156.21009580790997 154.45796262472868,157.56009164638817 154.90188713837415,163.23006525845267 160.22898131329566,166.20004569296725 165.77803774364293,167.55003549298272 167.1098112873733,167.55003549298272 169.10747160110623,167.55003549298272 171.77101868763566,168.3600289823953 173.99064126145095,164.0400603134185 174.6565280323848,162.96006684168242 174.8784902896732,160.5300796192605 175.54437706060708,159.18008557590656 173.54671674594283,158.91008666879497 174.8784902896732,158.10008975397795 176.2102638334036,155.94009654247202 175.9883015761152,150.81010429398157 176.2102638334036,149.46010437584482 175.7663393188268,146.2201012421865 176.2102638334036,142.1700907170307 175.7663393188268,136.7700652598869 175.32241480425,133.26004171161912 173.54671674594283,129.75001264712773 169.55139611661434,129.48001018329524 165.77803774364293,129.21000768686645 162.6705661425367,130.56001984444447 159.78505679685622,132.72003759886138 156.67758519575,133.26004171161912 156.45562293939292,137.58006991050206 156.23366068210453,140.55008445074782 156.01169842481613,144.0600965428166 154.90188713837415,147.57010311936028 155.34581165295094,151.62010385282338 155.12384939659387,155.13009854895063 154.90188713837415,159.18008557590656 154.90188713837415,161.61007426702417 158.45328325405717,165.66004954348318 164.00233968626708,168.63002674723975 166.44392451550812,169.98001507879235 169.32943385839462,171.60000000009313 173.32475448958576,167.82003335561603 175.1004525469616,162.69006839231588 175.54437706060708,159.7200832911767 175.54437706060708,158.6400877290871 175.1004525469616,153.24010209064 174.8784902896732,148.92010417976417 175.32241480425,146.2201012421865 175.54437706060708,142.98009340977296 177.09811286255717,138.93007700890303 175.7663393188268,135.96006031497382 174.43456577509642,134.34004954481497 172.88082997407764,130.8300221778918 170.21728288847953,130.02001507859677 166.0,129.75001264712773 162.0046793706715,130.56001984444447 159.78505679685622,130.8300221778918 156.89954745396972,132.72003759886138 154.90188713837415,135.69005860155448 154.67992488108575,138.39007426798344 155.34581165295094,139.7400808769744 154.23600036650896,142.71009254432283 154.67992488108575,145.95010076928884 154.90188713837415,147.57010311936028 154.45796262472868,150.27010442432947 154.90188713837415,153.78010124200955 154.67992488108575,157.02009340864606 154.90188713837415,161.34007565444335 157.5654342258349,166.20004569296725 161.7827171124518,168.63002674723975 163.11449065618217,168.3600289823953 166.0,169.98001507879235 167.99766031466424,169.1700221770443 171.1051319167018,171.33000259427354 173.32475448958576,168.63002674723975 174.8784902896732,162.42006990942173 173.99064126145095,158.37008875748143 175.1004525469616,151.35010403278284 174.8784902896732,147.0301024664659 174.8784902896732,145.68010026379488 176.43222609069198,142.98009340977296 177.76399963349104,140.82008557626978 177.09811286255717,136.7700652598869 175.32241480425,132.1800333559513 173.10279223136604,129.75001264712773 169.9953206302598,128.6700025945902 166.0,128.94000515691005 161.1168303405866,130.56001984444447 157.1215097112581,132.1800333559513 156.67758519575,133.53004371840507 155.56777391023934,134.61005142168142 155.78973616752774,137.04006684245542 156.01169842481613,138.6600756549742 156.23366068210453,142.1700907170307 156.23366068210453,143.5200950417202 156.23366068210453,147.84010339644738 156.01169842481613,149.19010429433547 155.12384939659387,151.62010385282338 155.78973616752774,155.13009854895063 154.90188713837415,156.21009580790997" stroke="#4DD2FF" stroke-dasharray="none" stroke-linecap="round" stroke-linejoin="round" stroke-width="0.5"><title>2013-10-26 11.1km</title><desc>9223370654110301807</desc></polyline><polyline fill="none" opacity="1" points="34.11682212725282,217.89475188939832 38.08877446874976,216.18950254260562 41.359794043935835,213.91583482245915 42.29437106475234,209.93691102182493 42.06072680931538,206.52639954793267 42.52801532112062,202.26325324806385 42.52801532112062,198.85273064253852 42.52801532112062,195.1579922370147 43.92988085281104,191.4632480267901 45.565390639938414,189.18955639493652 46.49996766168624,186.63165068160743 46.26632340531796,184.07374218595214 43.92988085281104,181.23161837016232 40.8925055321306,179.81055517448112 37.855130213312805,177.25263925665058 34.58411063905805,176.4000000001397 31.0794468075037,177.82106525660492 28.27571574319154,180.09476788225584 25.705628934316337,182.6526807071641 25.238340424373746,185.77901482582092 25.238340424373746,189.4737679695245 24.771051913499832,192.60009301709943 24.30376340262592,196.86325683817267 21.50003233831376,199.9895720607601 21.967320849187672,203.68430287321098 21.733676593750715,207.94744659680873 22.200965103693306,211.07374708005227 22.200965103693306,213.91583482245915 24.30376340262592,216.75791912851855 27.341138722375035,219.0315841003321 30.61215829756111,219.60000000009313 34.58411063905805,219.0315841003321 37.154197447001934,217.610543750925 40.8925055321306,215.90529419737868 41.82708255480975,213.6316262029577 43.462592341937125,210.22112008789554 43.92988085281104,206.81060902611353 43.92988085281104,203.1158831268549 44.39716936368495,199.70536175812595 45.0981021290645,195.4422030900605 45.33174638450146,192.0316705906298 45.79903489537537,189.18955639493652 45.565390639938414,185.49480280443095 44.63081361912191,181.80004340759479 42.52801532112062,179.24212965508923 39.4906400013715,178.10527820512652 35.98597617074847,177.53685227409005 32.48131234012544,177.53685227409005 29.21029276587069,178.95791684417054 25.705628934316337,181.23161837016232 24.30376340262592,184.07374218595214 25.004696168005466,188.33692146651447 23.602830636315048,191.74745932617225 23.36918638087809,194.58957042940892 23.36918638087809,198.28430972713977 21.733676593750715,201.69483315735124 22.200965103693306,206.52639954793267 21.967320849187672,209.3684927856084 23.36918638087809,212.21058258996345 24.30376340262592,215.90529419737868 25.238340424373746,217.610543750925 30.845802552998066,219.0315841003321 34.81775489356369,218.46316806343384 37.38784170243889,216.18950254260562 41.59343829844147,212.77900013769977 43.22894808650017,211.9263737637084 43.92988085281104,209.08428361662664" stroke="#4DD2FF" stroke-dasharray="none" stroke-linecap="round" stroke-linejoin="round" stroke-width="0.5"><title>2013-10-20 10.7km</title><desc>9223370654628121807</desc></polyline><polyline fill="none" opacity="1" points="101.66471672803164,176.4000000001397 101.66471672803164,181.35002543055452 100.55490557663143,186.75004566577263 100.18496852368116,193.50005994481035 98.33528327196836,198.9000625552144 99.07515737228096,203.85005806735717 97.22547211870551,210.1500428360887 101.29477967694402,214.20002741506323 102.77452788129449,219.60000000009313" stroke="#4DD2FF" stroke-dasharray="none" stroke-linecap="round" stroke-linejoin="round" stroke-width="0.5"><title>2013-10-19 10.2km</title><desc>9223370654714312807</desc></polyline><polyline fill="none" opacity="1" points="154.68905482254922,201.8466676226817 154.68905482254922,205.98912336095236 155.17554708756506,209.83568312670104 156.87827001698315,213.68223684793338 158.09450068231672,215.75345557858236 161.01345427706838,219.00822432828136 164.66214626841247,219.00822432828136 167.58109986409545,219.60000000009313 170.98654572386295,218.1205605531577 173.66225318517536,216.34523203712888 175.3649761164561,212.79457114078104 175.85146838147193,208.35623777774163 176.09471451491117,203.6220066549722 176.09471451491117,200.66310755256563 176.09471451491117,197.11242390889674 177.06769904587418,194.1535169375129 177.79743744432926,190.60282385186292 177.55419131275266,186.164450250566 175.3649761164561,179.95071368920617 172.68926865514368,177.87946466286667 167.8243459975347,176.4000000001397 164.90539240278304,176.6958930043038 161.98643880710006,179.35892843198963 159.31073134578764,181.4301762059331 158.58099294733256,184.38909855671227 157.12151614949107,189.12336687906645 155.6620393525809,193.56173511454836 155.6620393525809,197.11242390889674 154.20256255567074,200.66310755256563 154.44580868817866,204.50967568764463 154.68905482254922,207.76445938879624 154.20256255567074,211.31512758042663 156.14853161852807,215.4575672952924 158.8242390807718,218.1205605531577 161.49994654208422,218.41644851467572 166.60811533220112,219.00822432828136" stroke="#4DD2FF" stroke-dasharray="none" stroke-linecap="round" stroke-linejoin="round" stroke-width="0.5"><title>2013-10-12 10.6km</title><desc>9223370655320152807</desc></polyline><polyline fill="none" opacity="1" points="41.57630438823253,263.8560310017783 43.943899508565664,260.6880526384339 44.890937557443976,256.9440727783367 45.12769706826657,252.33608948835172 43.943899508565664,248.59209650335833 44.180659021250904,243.40809650346637 45.36445658095181,239.37608870584518 45.60121609363705,236.2080777916126 46.54825414158404,233.32806421397254 45.837975605390966,231.0240508459974 43.23362097237259,227.28002436971292 38.97194975428283,225.84001261997037 35.42055707331747,224.9760051521007 32.57944292854518,224.9760051521007 30.21184780728072,226.12801503995433 26.1869361018762,228.14403100241907 24.76637902855873,231.0240508459974 23.81934098061174,234.48007006268017 24.05610049236566,238.5120861462783 24.05610049236566,241.96809450211003 24.292860004119575,245.13609775714576 24.05610049236566,248.88009617221542 22.398783908225596,251.47209162986837 21.6885053711012,254.3520832741633 21.451745859347284,257.2320714369416 22.398783908225596,260.1120561193675 23.582581467926502,262.41604135814123 25.239898052997887,265.296019774396 28.317771709524095,266.7360076766927 31.632404879666865,266.7360076766927 36.6043546339497,267.60000000009313 39.68222829140723,264.72002436965704 41.57630438823253,262.1280433256179 43.943899508565664,258.3840657279361 44.180659021250904,254.3520832741633 44.180659021250904,250.89609288284555 45.36445658095181,247.15209763497114 46.07473511714488,243.69609680003487 45.837975605390966,240.52809162950143 45.837975605390966,237.93608426721767 46.31149462983012,234.48007006268017 45.60121609363705,231.6000543970149 44.65417804475874,229.00803732057102 43.23362097237259,226.12801503995433 40.155747315846384,224.4000000001397" stroke="#4DD2FF" stroke-dasharray="none" stroke-linecap="round" stroke-linejoin="round" stroke-width="0.5"><title>2013-10-06 10.6km</title><desc>9223370655838244807</desc></polyline><polyline fill="none" opacity="1" points="92.50517959613353,234.77929417719133 92.27456973679364,237.86502133100294 91.5827401606366,242.07282447465695 90.89091058447957,245.15854193037376 91.5827401606366,248.80529363360256 90.660300726071,251.89100213861093 90.19908100832254,255.53774326271378 89.27664157561958,258.3429248428438 89.27664157561958,260.3065499314107 90.19908100832254,263.3922431420069 91.8133500199765,265.6363810834009 95.96432747505605,266.75844923895784 99.19286549650133,267.60000000009313 102.19079365767539,266.75844923895784 105.18872181978077,266.47793225129135 107.26421054638922,264.23379512433894 108.64786969870329,261.98965582833625 109.57030913420022,258.0624068370089 109.33969927486032,254.97670653951354 110.26213870942593,251.04944568034261 110.26213870942593,247.40269750310108 110.03152885008603,243.75594359473325 109.80091899260879,238.98710291530006 110.26213870942593,235.62085653445683 110.95396828558296,234.21825243486091 110.26213870942593,231.41304169245996 107.95604012254626,228.88834912492894 104.9581119613722,226.0831319389399 102.88262323383242,225.2415661229752 99.65408521238714,225.80261003412306 96.19493733346462,225.80261003412306 94.35005846433342,226.6441756472923 93.19700917135924,229.72991361888126 91.5827401606366,232.5351263966877 91.35213030222803,235.62085653445683 90.660300726071,239.26762322615832 89.96847115084529,243.19490402424708 89.5072514321655,245.7195810272824 88.81542185787112,248.80529363360256 88.81542185787112,252.17152088950388 87.89298242330551,255.53774326271378 87.43176270555705,258.0624068370089 87.66237256396562,261.14810303226113 88.81542185787112,263.6727605035994 91.8133500199765,266.19741522870027 95.50310775730759,267.0389661930967 99.65408521238714,267.319483113708 103.34384294971824,266.75844923895784 105.8805513959378,264.794829609571 108.64786969870329,262.55069085536525 109.80091899260879,258.3429248428438 110.26213870942593,255.53774326271378 110.72335842624307,252.4520396075677 110.95396828558296,249.6468509058468 111.4151880024001,245.7195810272824 111.64579786174,243.4754238263704 111.87640772014856,240.3897041331511 112.10701757855713,237.5845008501783 112.3376274369657,234.49877332313918 111.64579786174,231.69356291904114 110.4927485678345,229.1688706574496 108.18664998188615,226.6441756472923 105.64994153752923,225.2415661229752 102.88262323383242,224.4000000001397 100.57652464695275,224.96104411478154 96.65615705028176,225.52208809531294 93.88883874751627,227.20521922083572 92.50517959613353,230.8519991368521 90.89091058447957,235.34033578261733 89.96847115084529,238.14554177806713 89.7378612915054,240.3897041331511 89.5072514321655,243.4754238263704 89.7378612915054,246.56113941781223 89.96847115084529,249.92736992868595 89.7378612915054,253.01307694031857 89.5072514321655,256.3792980927974 89.96847115084529,259.7455143611878 91.35213030222803,262.83120831870474 93.88883874751627,264.5143123844173 96.65615705028176,267.319483113708 100.57652464695275,267.319483113708 102.88262323383242,267.0389661930967 106.34177111368626,265.35586395906284 108.41725984029472,263.3922431420069 109.57030913420022,260.0260321632959 110.03152885008603,257.2208526181057 110.95396828558296,254.13515119976364 110.95396828558296,250.76892679347657 111.64579786174,247.96373605774716 111.64579786174,244.8780223308131 111.4151880024001,241.79230450256728 112.56823729537427,238.14554177806713 111.64579786174,235.34033578261733 110.72335842624307,231.97408411232755 110.03152885008603,229.44939215504564 107.49482040572912,227.7662626572419 104.26628238521516,226.0831319389399 101.26835422310978,226.6441756472923 97.11737676803023,226.9246974508278 94.11944860592484,228.88834912492894 92.7357894545421,230.8519991368521 90.660300726071,234.21825243486091 90.19908100832254,236.46241858764552" stroke="#4DD2FF" stroke-dasharray="none" stroke-linecap="round" stroke-linejoin="round" stroke-width="0.5"><title>2013-09-29 10.5km</title><desc>9223370656443428807</desc></polyline><polyline fill="none" opacity="1" points="163.2855602260679,226.32613211218268 160.7973237670958,227.97710119676776 159.66630719508976,231.82935773720965 158.3090873081237,233.480322830379 157.63047736417502,238.4332109261304 156.95186742115766,240.63449106365442 156.72566410526633,244.76188558503054 156.72566410526633,246.96315960399806 156.49946079216897,249.16443149279803 156.49946079216897,253.29181054909714 155.14224090520293,255.49307631724514 155.5946475332603,260.99623142788187 156.49946079216897,263.4726468878798 161.92834033910185,265.3987459379714 164.1903734849766,265.94905965332873 167.58342320099473,265.94905965332873 171.65508286189288,264.8484320899006 174.59572594985366,262.0968608537223 176.6315557807684,257.96949776401743 177.31016572378576,253.5669688861817 175.72674252279103,250.81538401311263 174.14331932086498,249.43959032977 175.9529458368197,245.03704495402053 177.53636903874576,239.8090112612117 177.98877566773444,237.88289055787027 177.31016572378576,234.8561261605937 178.4411822957918,231.0038747417275 175.72674252279103,228.25226259441115 173.01230274885893,225.2254853900522 171.2026762329042,224.67516183038242 165.77379668504,225.2254853900522 164.1903734849766,225.50064712180756 161.24973039515316,227.97710119676776 158.76149393618107,230.17839144705795 158.08288399223238,232.6548404339701 157.63047736417502,236.23192865750752 156.49946079216897,240.909650930902 156.95186742115766,244.2115667485632 157.17807073518634,246.41284129861742 156.49946079216897,250.81538401311263 156.95186742115766,254.11728546093218 155.5946475332603,258.24465553602204 156.27325747720897,261.54654620797373 156.49946079216897,263.4726468878798 160.34491713810712,264.8484320899006 163.96417016908526,267.3248433584813 166.22620331402868,266.77452997583896 169.16684640292078,265.94905965332873 172.10748949088156,264.8484320899006 175.04813257977366,261.54654620797373 175.27433589380234,259.34528629202396 175.9529458368197,256.593708404107 176.85775909479707,253.84212718973868 177.98877566773444,250.81538401311263 177.08396240975708,247.2383187059313 175.9529458368197,243.38608824275434 176.1791491517797,240.35933116311207 176.6315557807684,237.05740975774825 177.76257235370576,236.23192865750752 178.6673856107518,232.6548404339701 177.31016572378576,229.90323028177954 178.4411822957918,230.17839144705795 177.98877566773444,227.42677830229513 174.82192926388234,226.05097048194148 171.4288795478642,224.95032362709753 168.26203314494342,224.4000000001397 164.1903734849766,225.50064712180756 161.02352708112448,227.97710119676776 158.3090873081237,229.90323028177954 158.08288399223238,233.20516206533648 155.8208508491516,237.05740975774825 154.46363096125424,241.45997056690976 156.04705416224897,241.45997056690976 156.72566410526633,243.11092867492698 156.27325747720897,246.68800046737306 155.5946475332603,250.81538401311263 153.3326143892482,253.01665217778645 155.3684442192316,256.04339242796414 155.5946475332603,258.5198132751975 157.17807073518634,262.92233257344924 159.21390056516975,265.3987459379714 161.92834033910185,266.2242164602503 165.77379668504,266.2242164602503 169.39304971788079,267.60000000009313 173.01230274885893,266.2242164602503 174.14331932086498,264.0229610686656 174.36952263582498,260.4459165164735 175.72674252279103,259.34528629202396 175.9529458368197,255.21791821345687 177.98877566773444,248.61411371990107 177.98877566773444,243.93640727945603 175.9529458368197,241.1848107650876 176.6315557807684,237.88289055787027 177.08396240975708,235.40644725901075 177.53636903874576,231.82935773720965 177.31016572378576,229.90323028177954 175.72674252279103,226.87645527347922 172.10748949088156,225.50064712180756" stroke="#4DD2FF" stroke-dasharray="none" stroke-linecap="round" stroke-linejoin="round" stroke-width="0.5"><title>2013-09-22 10.9km</title><desc>9223370657048162807</desc></polyline></svg>