<?xml version="1.0" encoding="utf-8" ?>
<svg baseProfile="full" height="300mm" version="1.1" viewBox="0,0,200,300" width="200mm" xmlns="http://www.w3.org/2000/svg" xmlns:ev="http://www.w3.org/2001/xml-events" xmlns:xlink="http://www.w3.org/1999/xlink"><defs /><rect fill="#222222" height="300" width="200" x="0" y="0" /><text fill="#FFFFFF" style="font-size:12px; font-family:Arial; font-weight:bold;" x="10" y="20">Over 10km Runs</text><text fill="#FFFFFF" style="font-size:4px; font-family:Arial" x="10" y="280">Runner</text><text fill="#FFFFFF" style="font-size:9px; font-family:Arial" x="10" y="290">keep</text><text fill="#FFFFFF" style="font-size:4px; font-family:Arial" x="65" y="280">SPECIAL TRACKS</text><rect fill="yellow" height="2.6" width="2.6" x="65" y="283" /><text fill="#FFFFFF" style="font-size:3px; font-family:Arial" x="70" y="285.5">Over 20.0 km</text><rect fill="red" height="2.6" width="2.6" x="65" y="287" /><text fill="#FFFFFF" style="font-size:3px; font-family:Arial" x="70" y="289.5">Over 40.0 km</text><text fill="#FFFFFF" style="font-size:4px; font-family:Arial" x="120" y="280">STATISTICS</text><text fill="#FFFFFF" style="font-size:3px; font-family:Arial" x="120" y="285">Number: 15</text><text fill="#FFFFFF" style="font-size:3px; font-family:Arial" x="120" y="290">Weekly: 1.2</text><text fill="#FFFFFF" style="font-size:3px; font-family:Arial" x="141" y="285">Total: 163.6 km</text><text fill="#FFFFFF" style="font-size:3px; font-family:Arial" x="141" y="290">Avg: 10.9 km</text><text fill="#FFFFFF" style="font-size:3px; font-family:Arial" x="167" y="285">Min: 10.2 km</text><text fill="#FFFFFF" style="font-size:3px; font-family:Arial" x="167" y="290">Max: 14.0 km</text><polyline fill="none" opacity="1" points="26.88041199496365,75.59999999999854 26.79406162496889,75.48045436288521 26.724981328996364,75.29570166971826 26.638630959001603,75.08921286983241 26.578185700025642,74.82838416410232 26.586820737022208,74.50234710780205 26.638630959001603,74.1763087468571 26.64726599599817,73.88287310654414 26.62999592203414,73.53509616438532 26.638630959001603,73.23079012234666 26.638630959001603,72.93735107682733 26.655901033023838,72.61130645340018 26.6645360699913,72.33960160391143 26.759521476982627,72.100500586821 26.99266747594811,72.00268633214 27.260353622870753,71.98094981515897 27.277623696892988,71.82879403387051 27.32943391884328,71.68750626825204 27.33806895586895,71.43753500575986 27.35533902986208,71.11148438043165 27.199908363894792,70.85064294068434 26.914952142949915,70.70935347879276 26.90631710595335,70.37243146550463 26.958127327932743,70.03550805889972 27.00130251297378,69.72032038488396 27.05311273492407,69.38339428148174 27.10492295693257,69.04646678474091 27.139463104918832,68.76388135819434 27.15673317888286,68.50303240217909 27.243083548906725,68.41608256456675 27.277623696892988,68.20957632835052 27.243083548906725,68.06828228617087 27.277623696892988,67.97046319034416 27.33806895586895,67.75308700137975 27.407149251841474,67.49223480890942 27.467594510875642,67.22051288702642 27.553944880812196,66.89444538437965 27.64029525083606,66.57924555800128 27.718010583834257,66.29665157334239 27.85617117577931,66.13361613628513 28.02023687871406,66.18796131821 28.244747840682976,66.24230646389333 28.48652887661592,66.09013996464637 28.65922961657634,65.85102060581266 28.771485097589903,65.61190054508188 28.92691576355719,65.30756490726344 29.090981466521043,65.00322813249659 29.246412132517435,64.73149790849857 29.410477835452184,64.44889751408482 29.557273464422906,64.18803474138258 29.704069093393628,63.8836937840897 29.885404870350612,63.55761292530951 30.08401072130073,63.198922472998674 30.308521683240542,62.78588302592834 30.524397608212894,62.40545010348433 30.69709834814421,62.111972063612484 30.878434125130298,61.829362581476744 31.059769902087282,61.55762177010183 31.189295457064873,61.351098147213634 31.36199619702529,61.079355740388564 31.57787212196854,60.764133412754745 31.6642224919633,60.481519254310115 31.802383083937457,60.15542477615236 31.99235389792011,59.86193862961227 32.234134933853056,59.633670895673276 32.475915969786,59.438012328864716 32.63998167277896,59.1662635397297 32.778142264753114,58.95973385362595 32.89039774573757,58.85103380851069 32.99401818969636,58.61189319861296 33.089003596658586,58.37275188663625 33.19262404064648,58.22057068616414 33.3912298916257,58.16622018849739 33.50348537255195,58.177090290919296 33.633010927558644,58.05751908442471 33.753901445510564,57.91620743222302 33.93523722249665,57.73141490171838 34.1252080364502,57.470530615522875 34.30654381343629,57.2639966296847 34.28063870241749,57.0031108463736 34.272003665420925,56.74222422737512 34.32381388740032,56.470466444065096 34.51378470135387,56.20957811900007 34.712390552362194,55.99217054309702 34.85918618127471,55.731280685977254 34.98007669928484,55.39429671705875 35.15277743927436,55.14427545205399 35.429098623164464,54.88338287896477 35.627704474143684,54.644230619487644 35.757230029121274,54.38333644464001 35.8781205471023,54.068088201653154 36.00764610207989,53.78545080844924 36.30123736002133,53.62239032774232 36.54301839595428,53.568036761615076 36.69844906195067,53.27452687777986 36.80206950590946,52.959274342880235 36.853879727917956,52.67663310166972 36.92296002389048,52.37224912956299 37.00067535683047,52.01350941623241 37.0956607638509,51.68738103283977 37.11293083784403,51.556929313825094 37.18201113381656,51.296025248928345 37.22518631882849,50.96989399235463 37.31153668882325,50.63289032184548 37.406522095785476,50.24152947052062 37.492872465751134,49.88278037128475 37.5533177247562,49.480544653466495 37.631033057754394,49.18702003793442 37.70874839075259,48.83913764213503 37.80373379768571,48.46951096822886 37.84690898269764,48.09988261663966 37.92462431569584,47.76286706918472 38.01097468563239,47.382363968281425 38.08869001863059,47.03447386303014 38.14913527763565,46.751812058144424 38.21821557360818,46.39304758515209 38.261390758591006,46.121255265439686 38.34774112861487,45.89294901584071 38.3650112025789,45.75161625481269 38.42545646158396,45.436334596292 38.48590172055992,45.0993080252083 38.572252090554684,44.729664375583525 38.641332386556314,44.38176293721335 38.70177764550317,44.17519575487677 38.71041268252884,44.03386001240142 38.7449528305151,43.783803867088864 38.82266816345509,43.42502631730167 38.88311342248926,43.044502946111606 38.960828755487455,42.71833864117798 39.021274014463415,42.50089504534844 39.064449199446244,42.294323091475235 39.09035431043594,42.185600800010434 39.1507995694119,42.06600611170143 39.16806964340503,41.946411247692595 39.133529495447874,41.7289655904533 39.15943460640847,41.44628536788514 39.2026097914204,41.17447653608542 39.271690087392926,41.00051840751257 39.34940542039112,40.859177154394274 39.625726604339434,40.92441160940507 39.91068282525521,41.03313558494847 40.20427408319665,41.10924228141812 40.376974823186174,41.130987038777675 40.420150008169,40.89179438843712 40.41151497117244,40.63085615033924 40.42878504516557,40.33729963286896 40.4460551191587,39.9676343645624 40.463325193180935,39.58709483526036 40.54104052612092,39.28266193121817 40.437420082162134,39.05433650621126 40.23017919418635,39.03259119422728 39.92795289927744,39.08695446326601 39.642996678332565,39.15219033818721 39.617091567313764,38.945609888309264 39.66026675229659,38.61942916337284 39.72934704829822,38.29324713171809 39.78979230727418,37.9779365922368 39.88477771426551,37.61913345852372 39.95385801026714,37.282074528855446 39.99703319527907,36.966760073300975 40.0402083802328,36.66231737128692 40.07474852821906,36.41223858579906 40.10065363923786,36.20565118367813 40.0661134912516,36.096920761418005 40.20427408319665,35.977317129276344 40.41151497117244,35.901205635484075 40.394244897179306,35.73810933782079 40.256084305176046,35.64025140237936 40.27335437916918,35.44453517864167 40.264719342201715,35.33580373991572 40.463325193180935,35.357550039298076 40.627390896115685,35.357550039298076 40.791456599050434,35.37929633283056 40.9296171910828,35.357550039298076 41.10231793104322,35.31405743472715 41.249113559984835,35.259691646417195 41.266383633977966,34.976988961825555 41.3095588189899,34.509440059860935 41.37000407796586,34.13974832948588 41.39590918898466,33.857041755829414 41.39590918898466,33.661321245155705 41.41317926294869,33.476473664130026 41.43044933697092,33.31337250876095 41.2577485969814,33.226385092282726 41.02460259804502,33.21551165868004 40.84326682108804,33.139397582854144 40.67056608112762,33.074156889786536 40.40287993414677,33.03066306538676 40.07474852821906,32.95454881674959 39.78115727030672,32.90018145270733 39.47893097536871,32.802320105955005 39.1507995694119,32.75882613630529 38.86584334849613,32.67183812730218 38.70177764550317,32.55222946309368 38.459996609570226,32.5739765060207 38.15777031463222,32.56310298525932 37.85554401972331,32.55222946309368 37.54468268773053,32.53048241438955 37.22518631882849,32.49786183038668 36.94886513488018,32.45436769808293 36.62936876594904,32.421747083586524 36.46530306295608,32.410873542503396 36.42212787800236,32.47611476713064 36.36168261899729,32.68271163348254 36.30123736002133,32.91105492841598 36.266697212005965,33.095903793306206 36.24942713804194,33.31337250876095 36.21488698999747,33.49822046013287 36.13717165705748,33.704814732656814 36.05082128706272,33.867915103757696 35.964470917126164,34.06363511777454 35.912660695117665,34.22673477003991 35.8522154361126,34.40070737226779 35.74859499212471,34.574679602745164 35.67951469615218,34.748651461472036 35.60179936315399,34.922622948397475 35.4981789191952,35.14008678428945 35.37728840118507,35.27056480698229 35.31684314223821,35.564139593509026 35.21322269825032,35.814220984066196 35.07506210630527,36.118666857481 34.936901514272904,36.44485760139651 34.772835811338155,36.77104703839723 34.634675219364,37.07548933385988 34.50514966441551,37.34731184995326 34.35835403538658,37.651751990561024 34.2029233694484,37.945318190912076 34.082032851467375,38.217137802967045 33.95250729651889,38.4889565074991 33.88342700051726,38.64117458569672 33.8229817415413,38.69553811605874 33.71936129758251,38.79339237931708 33.676186112570576,38.99997321541014 33.633010927558644,39.30440717640886 33.460310187598225,39.58709483526036 33.34805470664287,39.83716386916058 33.278974410670344,40.00025195576018 33.34805470664287,40.09810465091141 33.60710581653984,40.13072218981688 33.917967148532625,40.141594699874986 34.24609855446033,40.18508472565736 34.55695988639491,40.2285747281785 34.88509129229351,40.282937198659056 35.20458766122465,40.326427148946095 35.48090884517296,40.36991707596462 35.76586506611784,40.380789554081275 35.904025658091996,40.315554663553485 35.964470917126164,40.09810465091141 35.99901106508332,39.90239914301492 35.99901106508332,39.8154187662949 36.13717165705748,39.85890896625642 36.18898187900777,40.05461457869387 36.14580669402494,40.39166203077184 36.076726398052415,40.75045294662414 36.00764610207989,41.08749751824507 35.9299307691108,41.47890236676176 35.86948551010573,41.83768849167973 35.783135140140075,42.16385632424499 35.739959955157246,42.47915065383859 35.66224462215905,42.77269944939326 35.64497454816592,43.07711930474761 35.65360958513338,43.3815380219894 35.43773366019013,43.65333948643092 35.351383290224476,43.90339603240136 35.265032920229714,44.218683626284474 35.23049277224345,44.479610366994166 35.21322269825032,44.784023841057206 35.36865336421761,44.91448641013267 35.351383290224476,45.24064191839716 35.29957306821598,45.588539687290904 35.19595262425719,46.012538083559775 35.10960225423332,46.38217590979184 35.0664270692796,46.73006880173489 35.03188692126423,47.07796020744718 35.02325188429677,47.40410705051909 35.0146168472711,47.730252587323776 35.0146168472711,48.0781397201863 34.99734677330707,48.44776817045931 34.9887117362814,48.77390952746646 34.954171588266036,49.110920890838315 34.92826647730544,49.39357450729585 34.86782121830038,49.7414545346619 34.81601099632098,50.100204256450525 34.73829566332279,50.41546785884566 34.79010588530218,50.74160133564874 34.73829566332279,51.08947560472734 34.66921536735026,51.43734838782257 34.49651462738984,51.74173585409153 34.30654381343629,51.991767564635666 34.03885766651365,52.18744402000448 33.7970766305516,52.40486175238766 33.56393063158612,52.61140806054755 33.34805470664287,52.8396954758864 33.25306929968065,52.99188673062599 33.14081381869619,53.11146537413879 33.011288263689494,53.318009890317626 32.91630285669817,53.535424604539 32.81268241273938,53.85067490932852 32.64861670980463,54.17679463019158 32.475915969786,54.48117185816227 32.32048530384782,54.752936279037385 32.242769970878726,55.00295874536096 32.22549989682739,55.24210995150497 32.398200636787806,55.37255576796451 32.36366048883065,55.67692852723849 32.277310118835885,55.92694815716095 32.32048530384782,56.013911326779635 32.21686485988903,55.90520735023165 32.044164119899506,56.14435590715584 31.854193305945955,56.470466444065096 31.6642224919633,56.677002442083904 31.431076492997818,56.91614873287472 31.29291590102366,57.22051572382043 31.223835605051136,57.470530615522875 31.059769902087282,57.709674576472025 30.93887938413536,57.753155221187626 30.688463311176747,57.753155221187626 30.438047238218132,57.7205447398228 30.144455980305793,57.677064077674004 29.833594648371218,57.677064077674004 29.59181361240917,57.687934245383076 29.445017983438447,57.742285062187875 29.375937687436817,57.742285062187875 29.29822235443862,57.948817835240334 29.142791688500438,58.16622018849739 29.11688657751074,58.42710224645998 29.03917124454165,58.67711343457631 28.909645689534955,58.88364383728185 28.892375615570927,58.970603850175394 28.736944949574536,59.13365362412151 28.503798950609053,59.351052815 28.32246317368117,59.57932134093426 28.417448580643395,59.7423698963903 28.46925880262279,59.84019887296017 28.521069024631288,60.02498661936261 28.55560917261755,60.26412308057479 28.546974135620985,60.5032588397371 28.51243398760562,60.35108161970129 28.331098210648634,60.438040065993846 28.17566754471045,60.698914847831475 28.028871915739728,60.95978879419272 27.84753613875364,61.17718311128556 27.709375546808587,61.45979485614225" stroke="#4DD2FF" stroke-dasharray="none" stroke-linecap="round" stroke-linejoin="round" stroke-width="0.5"><title>2017-12-17 14.0km</title><desc>9223370523376934807</desc></polyline><polyline fill="none" opacity="1" points="100.50647685379954,32.40000000000873 100.63976023637224,32.66836876695743 100.6664169128635,32.93673696137557 100.6664169128635,33.23865049565211 100.67974525113823,33.50701747342828 100.65308857464697,33.85924826275732 100.65308857464697,34.211478065888514 100.54646186856553,34.53016132352059 100.57311854505679,34.697889029674116 100.71973026590422,35.45266093942337 100.62643189809751,35.704250569688156 100.78637195716146,36.00615746174299 100.86634198669344,36.27451853535604 100.90632700151764,36.57642405877414 100.9329836780671,36.96219117315195 100.94631201628363,37.31441228797485 100.98629703104962,37.599542944313725 101.03961038414855,37.934989947869326 101.13290875189705,38.20334690665186 101.17289376666304,38.522020051736035 101.22620711976197,38.85746459547954 101.26619213452796,39.176136083566234 101.4661172083579,39.20968040374282 101.6393856057548,39.36062973397202 101.5994005909306,39.52835099954973 101.42613219359191,39.62898365162255 101.34616216405993,39.81347663793713 101.43946053180844,40.065057546889875 101.57274391443934,40.383725975989364 101.69269895879552,40.68562163786555 101.75934065005276,40.987516575245536 101.9059523709002,41.27263890647737 102.05256409174763,41.55776059148775 102.22583248908632,41.8931970406702 102.21250415086979,42.178317319310736 101.95926572399912,42.228632595491945 101.71935563528677,42.077686706514214 101.53275889961515,41.92674063645245 101.3328338257852,41.809338012273656 101.07959539885633,41.909968839681824 100.85301364847692,41.909968839681824 100.65308857464697,42.06091492989799 100.6664169128635,42.228632595491945 100.67974525113823,42.49698039543 100.4398351625423,42.631154080692795 100.14661172078922,42.748555937942 99.88004495564383,42.7988709861238 99.57349317573244,42.7988709861238 99.6001498522237,42.580838965499424 99.66679154353915,42.27894785160606 99.76008991134586,42.010599586647004 99.85338827915257,41.67516345047625 99.90670163213508,41.28941078821663 99.93335830868455,40.95397272912669 99.88004495564383,40.618533775617834 99.8267316026031,40.21600585069973 99.61347819044022,40.13214570430864 99.32025474880356,40.13214570430864 99.1603146896814,39.96442524367012 99.13365801319014,39.847020788205555 99.12032967491541,39.595439443248324 99.10700133664068,39.37740187061718 98.94706127757672,39.32708545400237 98.76046454202151,39.29354116512695 98.58719614462461,39.310313310692436 98.54721112980042,39.47803464338358 98.56053946807515,39.763160395785235 98.57386780634988,40.08182958957332 98.58719614462461,40.383725975989364 98.61385282117408,40.68562163786555 98.61385282117408,41.02106041245861 98.61385282117408,41.33972641993023 98.61385282117408,41.624847952931304 98.6271811593324,41.960284223241615 98.61385282117408,42.27894785160606 98.6271811593324,42.564067255938426 98.64050949766533,42.815642664339975 98.65383783588186,43.05044592500781 98.64050949766533,43.25170551385963 98.6271811593324,43.52005113150517 98.60052448289935,43.771624628279824 98.58719614462461,43.989654585151584 98.56053946807515,44.174141176685225 98.54721112980042,44.4089419018419 98.50722611509264,44.643742188767646 98.52055445330916,44.844999228895176 98.52055445330916,45.130112817802 98.52055445330916,45.44876841727819 98.52055445330916,45.78419449219655 98.50722611509264,46.102848434995394 98.52055445330916,46.40473037325137 98.53388279158389,46.723382744399714 98.53388279158389,47.00849207655119 98.54721112980042,47.34391399314336 98.54721112980042,47.59547984378878 98.54721112980042,47.897358200498275 98.52055445330916,48.09861003597325 98.52055445330916,48.350174377526855 98.4938977768179,48.584967309230706 98.54721112980042,48.87007242288382 98.58719614462461,49.13840605736186 98.6271811593324,49.42350991696003 98.66716617415659,49.75892539524648 98.72047952719731,50.12788138858741 98.8004495567875,50.48006564563548 98.90707626281073,50.798707695445046 99.00037463055924,51.05026663841272 99.12032967491541,51.38567778002471 99.21362804278033,51.67077654734021 99.34691142529482,51.90556328250386 99.40022477839375,52.039726934439386 99.50685148441698,52.27451298109372 99.61347819044022,52.50929858961899 99.65346320526442,52.693772688973695 99.68011988175567,52.8782465178665 99.81340326438658,53.012409132614266 99.93335830868455,53.14657160434581 100.03998501476599,53.31427449280454 100.14661172078922,53.48197715777496 100.2665667651454,53.699990288034314 100.37319347116863,53.90123284228321 100.55979020684026,54.05216454672336 100.74638694245368,54.303716985145 100.91965533979237,54.555268920594244 101.07959539885633,54.790050273324596 101.2395354580367,55.024831188013195 101.30617714929394,55.175761544684065 101.42613219359191,55.39377174025867 101.5994005909306,55.64532149655861 101.77266898826929,55.88010081530956 101.95926572399912,56.198729190204176 102.07922076823888,56.3999677481188 102.23916082730284,56.65151549286384 102.38577254820848,56.90306273472379 102.55904094554717,57.20491876124288 102.73230934294406,57.49000434357731 102.90557774028275,57.791858962053084 103.09217447589617,58.076943214648054 103.26544287317665,58.31171799651929 103.46536794712301,58.63034021410567 103.61197966791224,58.89865303474653 103.82523308007512,59.234043256001314 104.01182981568854,59.4855853352783 104.15844153653597,59.77066575064964 104.29172491910867,60.02220675727585 104.45166497823084,60.25697790978302 104.611605037353,60.508517944283085 104.78487343463348,60.77682676020777 104.90482847898966,60.99482725189591 105.07809687632835,61.2295965897647 105.26469361194177,61.49790386825043 105.42463367106393,61.76621057462762 105.57124539191136,61.98420935231843 105.73118545097532,62.30282227115822 105.90445384837221,62.604665344944806 106.10437892220216,62.92327669284714 106.25099064304959,63.191580360144144 106.43758737872122,63.49342130210425 106.66416912910063,63.8287992773694 106.82410918816458,64.08033217227785 106.97072090895381,64.31509575390373 107.13066096807597,64.58339645377418 107.31725770368939,64.88523405739397 107.47719776275335,65.20383963140193 107.66379449836677,65.52244439878268 107.81040621933062,65.80751113842416 107.95701794006163,66.09257723241171 108.06364464614308,66.37764268061437 108.19692802871577,66.72978146045352 108.26356972008944,67.01484546526626 108.29022639658069,67.1657614417636 108.17027135222452,67.31667723724968 108.13028633745853,67.4005192676268 108.22358470526524,67.31667723724968 108.3835247643874,67.38375086603628 108.45016645570286,67.60173991268675 108.54346482345136,67.8532652665599 108.65009152959101,68.15509502767236 108.77004657388898,68.49046057988016 108.89000161812874,68.82582523839665 109.00995666248491,69.16118900328001 109.0899266920751,69.41271124046762 109.16989672160707,69.6642329749302 109.30318010417977,69.96605839283438 109.40980681026122,70.23434704540705 109.51643351628445,70.5026351261331 109.59640354581643,70.75415468245046 109.63638856058242,70.98890581476735 109.72968692844734,71.2571922869538 109.83631363447057,71.55901388458733 109.94294034055201,71.86083475839405 110.03623870835872,72.16265490837395 110.12953707616543,72.4309388785041 110.20950710569741,72.6824545811105 110.32946214999538,72.98427276076109 110.43608885607682,73.23578735761112 110.55604390037479,73.55437179206638 110.66267060651444,73.85618788081047 110.79595398908714,74.1580032457423 110.88925235683564,74.39274802927685 110.96922238642583,74.57719005200488 111.06252075423254,74.86223628281732 111.20913247507997,75.06344499820261 111.23578915157123,75.18081660028838 111.24911748984596,75.36525746817642 111.19580413680524,75.58323269081302 111.02253573946655,75.53293074991961 110.84926734212786,75.2981880929292 110.67599894473096,75.04667761751625 110.46274553262629,74.77839922312705 110.22283544397214,74.47658534583752 109.94294034055201,74.19153824166278 109.66304523713188,73.94002555478073 109.42313514847774,73.70527992691495 109.1832250598818,73.45376626828511 108.96997164771892,73.20225210706121 108.73006155900657,72.98427276076109 108.50347980868537,72.76629303696973 108.2102563669905,72.46447433454159 107.95701794006163,72.22972595454485 107.74376452795696,72.01174492384598 107.43721274798736,71.72669223714911 107.1839743211167,71.50871033522708 106.89075087948004,71.34103169223818 106.59752743778517,71.20688861700182 106.25099064304959,71.12304912231048 105.90445384837221,71.07274539874925 105.58457373012789,71.00567373599915 105.26469361194177,70.92183410734287 104.98479850852164,70.87153030335321 104.65159005211899,70.78769058527541 104.31838159554172,70.77092263495433 103.99850147741381,70.70385081139102 103.6386363444617,70.603243008969 103.45203960884828,70.55293907763553 103.26544287317665,70.5026351261331 103.07884613762144,70.4690991473617 102.87892106367508,70.43556315961177 102.66566765162861,70.41879516241897 102.46574257768225,70.38525916119397 102.29247418040177,70.33495514272363 102.10587744473014,70.3014191192342 101.89262403262546,70.26788308679534 101.67937062052079,70.18404296663357 101.53275889961515,70.15050690292264 101.26619213452796,70.04989865816606 100.9329836780671,69.89898614023696 100.59977522160625,69.78160961232788 100.21325341210468,69.64746487495722 99.98667166178348,69.59716056153411 99.66679154353915,69.4965518744284 99.34691142529482,69.39594310692337 98.98704629240092,69.2953342589899 98.6271811593324,69.22826164899743 98.28064436465502,69.09411632177944 98.01407759950962,69.0102754196705 97.61422745179152,68.92643446168222 97.33433234837139,68.77552059660957 96.9877955536358,68.65814302086073 96.80119881796418,68.59107007122657 96.50797537632752,68.49046057988016 96.1880952580832,68.38985100801801 95.86821513995528,68.20539991749683 95.54833502171095,68.00418023760722 95.22845490352483,67.80296023597475 94.96188813837944,67.5346664000972 94.74863472627476,67.24960357269447 94.54870965244481,66.93100317798962 94.49539629934588,66.74654994921002 94.40209793148097,66.56209645009949 94.24215787247522,66.31056851563335 94.1488595046103,66.14288294664584 94.00224778382108,65.87458557159698 93.85563606297364,65.58951898381929 93.66903932736022,65.25414570090652 93.50909926823806,64.90200279191777 93.33583087089937,64.5163213324704 93.13590579706943,64.11386985357967 92.96263739961432,63.74495486736123 92.7760406640009,63.426345599771594 92.64275728148641,63.09096655197209 92.46948888408951,62.722048566967715 92.29622048675083,62.31959134982026 92.09629541286267,61.9171328455559 91.89637033903273,61.53144223782874 91.72310194169404,61.128981212867075 91.52317686780589,60.77682676020777 91.33658013213426,60.39113265738706 91.16331173479557,60.02220675727585 90.99004333745688,59.65327977549168 90.81677494005999,59.30112119298428 90.69681989576202,58.948961624948424 90.52355149848154,58.68064891154063 90.40359645412536,58.37879642513872 90.31029808626045,58.06017357061501 90.19034304202069,57.72478022053838 90.09704467421398,57.355846502949134 90.01707464462379,56.970141914338456 89.95043295336654,56.58443614344287 89.91044793860056,56.24903885988169 89.85713458550163,55.84656093947706 89.83047790901037,55.51116168909357 89.79049289424438,55.09191136888694 89.73717954114545,54.77328019126435 89.73717954114545,54.404337819709326 89.7105228647124,54.068934724942665 89.68386618822115,53.66644983102742 89.7105228647124,53.31427449280454 89.72385120292893,52.97886849236966 89.72385120292893,52.62669122956868 89.69719452637946,52.257742563670035 89.60389615863096,51.855251876157126 89.5372544673155,51.50307146833802 89.5372544673155,51.18443120237498 89.51059779076604,50.781937081352226 89.48394111427478,50.463294989051064 89.4439560995088,50.1446520898171 89.37731440825155,49.75892539524648 89.43062776123406,49.35642671400274 89.51059779076604,48.98746845837741 89.51059779076604,48.685592717214604 89.51059779076604,48.41725811701326 89.55058280564845,48.21600679130643 89.52392612909898,48.014755143609364 89.48394111427478,47.74641911267827 89.45728443778353,47.444540393771604 89.41729942301754,47.109118745458545 89.39064274652628,46.77369620290119 89.39064274652628,46.48858633862983 89.32400105521083,46.102848434995394 89.27068770217011,45.70033805731509 89.25735936389538,45.314597736884025 89.23070268740412,44.97917040997709 89.19071767257992,44.660513621085556 89.15073265787214,44.274770112577244 89.11074764310615,44.03996913696756 89.11074764310615,43.754853077451116 89.13740431959741,43.40264999422652 89.12407598132268,43.06721756969637 89.08409096649848,42.73178425079095 89.05743429000722,42.44666522652551 88.99079259874998,42.09445848091855 88.99079259874998,41.75902256835252 89.0041209369665,41.4571294823545 89.03077761351597,41.08814806006558 88.9641359221423,40.68562163786555 88.93747924565105,40.366953973512864 88.89749423094327,39.99796935368795 88.92415090743452,39.763160395785235 88.93747924565105,39.61221154856321 88.92415090743452,39.39417400503589 88.89749423094327,39.14259175438201 88.89749423094327,38.840692389567266 88.81752420141129,38.55556454634643 88.76421084837057,38.18657461350085 88.7375541718211,37.83435594072216 88.7375541718211,37.49890866880014" stroke="#4DD2FF" stroke-dasharray="none" stroke-linecap="round" stroke-linejoin="round" stroke-width="0.5"><title>2017-11-19 11.8km</title><desc>9223370525802103807</desc></polyline><polyline fill="none" opacity="0.5" points="183.49687924026512,68.10861900402233 182.55902306665666,68.10861900402233 181.62116689281538,68.17811800987693 180.56607869756408,68.10861900402233 179.8040705563035,67.96962096903007 178.9834464045707,67.96962096903007 178.22143826354295,67.96962096903007 177.3421981006395,67.76112385862507 176.52157394844107,66.99663385830354 175.5837177745998,66.92713472119067 174.82170963380486,66.85763557621976 173.88385345996358,66.57963891886175 173.1218453189358,66.7186372630531 172.3012211669702,66.64913809474092 171.36336499336176,66.7186372630531 170.54274084139615,66.51013973512454 169.6635006784927,66.64913809474092 168.72564450465143,66.78813642339082 167.72917232010514,66.44064054382034 166.90854816813953,66.30164213792887 166.20515603781678,66.16264370107092 165.384531886084,66.16264370107092 164.62252374505624,65.88464673480485 163.7432835821528,65.88464673480485 162.9226594301872,65.74564820510568 162.21926729986444,65.95414598792559 160.98833107203245,65.39815174596151 159.99185888725333,65.25915310822893 159.05400271364488,65.18965377786662 157.99891451839358,65.25915310822893 157.58860244229436,65.32865243108245 156.47489823610522,65.60664964455646 155.0681139754597,64.98115574021358 154.07164179091342,64.14716289372882 153.19240162800997,64.35566120949807 152.19592944346368,64.00816397793824 151.3166892810259,63.869165030890144 150.61329715070315,64.00816397793824 149.9099050203804,63.7996655459865 149.20651289005764,63.52166752866469 148.3272727271542,63.59116704465123 147.56526458612643,63.938664508285 146.27571234712377,63.52166752866469 145.57232021703385,63.1046702710446 145.22062415187247,62.34017457580194 144.75169606506824,61.575677945744246 144.6930800541304,60.463681178574916 144.81031207600608,59.49068238417385 144.81031207600608,58.378681907604914 144.6930800541304,57.40567986789392 144.6930800541304,56.0851746769622 144.51723202154972,55.39017082436476 144.39999999990687,54.34766359644709 144.6344640434254,53.37465528177563 144.6344640434254,52.540646949375514 144.8689280867111,51.845639155537356 144.6930800541304,50.942127868242096 144.98616010835394,49.96911425224971 144.92754409764893,48.92659798276145 145.10339213022962,48.30108738626586 145.16200814116746,47.05006431584479 145.10339213022962,45.93804170633666 145.16200814116746,44.9650203002966 145.22062415187247,44.20050241862191 145.39647218445316,43.296980080136564 145.57232021703385,42.32395456265658 145.39647218445316,41.3509275301476 145.39647218445316,40.65590729378164 145.27924016257748,39.821881990123075 145.39647218445316,40.65590729378164 145.39647218445316,41.3509275301476 145.57232021703385,42.32395456265658 145.39647218445316,43.296980080136564 145.22062415187247,44.20050241862191 145.16200814116746,44.9650203002966 145.10339213022962,45.93804170633666 145.16200814116746,47.05006431584479 145.10339213022962,48.30108738626586 144.92754409764893,48.92659798276145 144.98616010835394,49.96911425224971 144.6930800541304,50.942127868242096 144.8689280867111,51.845639155537356 144.6344640434254,52.540646949375514 144.6344640434254,53.37465528177563 144.39999999990687,54.34766359644709 144.51723202154972,55.39017082436476 144.6930800541304,56.0851746769622 144.6930800541304,57.40567986789392 144.81031207600608,58.378681907604914 144.81031207600608,59.49068238417385 144.6930800541304,60.463681178574916 144.75169606506824,61.575677945744246 145.22062415187247,62.34017457580194 145.57232021703385,63.1046702710446 146.27571234712377,63.52166752866469 147.56526458612643,63.938664508285 148.3272727271542,63.59116704465123 149.20651289005764,63.52166752866469 149.9099050203804,63.7996655459865 150.61329715070315,64.00816397793824 151.3166892810259,63.869165030890144 152.19592944346368,64.00816397793824 153.19240162800997,64.35566120949807 154.07164179091342,64.14716289372882 155.0681139754597,64.98115574021358 156.47489823610522,65.60664964455646 157.58860244229436,65.32865243108245 157.99891451839358,65.25915310822893 159.05400271364488,65.18965377786662 159.99185888725333,65.25915310822893 160.98833107203245,65.39815174596151 162.21926729986444,65.95414598792559 162.9226594301872,65.74564820510568 163.7432835821528,65.88464673480485 164.62252374505624,65.88464673480485 165.384531886084,66.16264370107092 166.20515603781678,66.16264370107092 166.90854816813953,66.30164213792887 167.72917232010514,66.44064054382034 168.72564450465143,66.78813642339082 169.6635006784927,66.64913809474092 170.54274084139615,66.51013973512454 171.36336499336176,66.7186372630531 172.3012211669702,66.64913809474092 173.1218453189358,66.7186372630531 173.88385345996358,66.57963891886175 174.82170963380486,66.85763557621976 175.5837177745998,66.92713472119067 176.52157394844107,66.99663385830354 177.3421981006395,67.76112385862507 178.22143826354295,67.96962096903007 178.9834464045707,67.96962096903007 179.8040705563035,67.96962096903007 180.56607869756408,68.10861900402233 181.62116689281538,68.17811800987693 182.55902306665666,68.10861900402233 183.49687924026512,68.10861900402233 184.4933514248114,67.96962096903007 185.255359566072,68.17811800987693 185.95875169616193,68.10861900402233 187.07245590235107,67.90012193983421 187.36553595680743,66.92713472119067 187.5999999998603,66.0236452333047 187.5999999998603,65.53715035278583 187.5999999998603,64.425160632818" stroke="#4DD2FF" stroke-dasharray="1,0.5" stroke-linecap="round" stroke-linejoin="round" stroke-width="0.5"><title>2014-03-22 10.5km</title><desc>9223370641410674807</desc></polyline><polyline fill="none" opacity="1" points="55.600000000034925,100.02981352763163 55.47245060186833,100.10145883788937 55.33508971158881,100.13728147345682 55.19772882130928,100.149222349115 55.06036793097155,100.08951795645407 54.91319554852089,100.0536953034607 54.785646150354296,100.13728147345682 54.687531228759326,100.13728147345682 54.55998183059273,100.12534059637983 54.41280944814207,100.12534059637983 54.275448557862546,100.10145883788937 54.17733363620937,100.01787263750157 54.06940722238505,100.01787263750157 53.96148080856074,100.01787263750157 53.814308426110074,100.0536953034607 53.67694753583055,100.0536953034607 53.54939813766396,100.0536953034607 53.42184873955557,100.04175441626285 53.2746763570467,100.01787263750157 53.147126958938316,100.02981352763163 53.00976606865879,100.04175441626285 52.86259368614992,100.02981352763163 52.74485578015447,100.04175441626285 52.63692936638836,100.04175441626285 52.48975698387949,100.0536953034607 52.38183057011338,100.04175441626285 52.254281172004994,100.00593174597452 52.12673177378019,99.9820499585112 51.99918237567181,100.00593174597452 51.87163297756342,100.02981352763163 51.773518055910245,100.02981352763163 51.61653418128844,99.99399085297046 51.49879627529299,99.9820499585112 51.39086986146867,99.9820499585112 51.273131955531426,99.9701090626404 51.125959573022556,99.9820499585112 50.97878719057189,99.9820499585112 50.861049284634646,100.00593174597452 50.723688394296914,99.9701090626404 50.6157619804726,99.9701090626404 50.478401090193074,99.9701090626404 50.36066318425583,99.95816816532897 50.213490801805165,99.9342863663187 50.085941403580364,99.91040456154587 49.919146036787424,99.9342863663187 49.77197365433676,99.9342863663187 49.63461276405724,99.95816816532897 49.47762888943544,99.94622726656235 49.35989098343998,99.94622726656235 49.251964569615666,99.9342863663187 49.12441517150728,99.95816816532897 49.00667726557003,99.94622726656235 48.87912786734523,99.9342863663187 48.741766977123916,99.94622726656235 48.6338405632996,99.94622726656235 48.49647967296187,99.94622726656235 48.36893027485348,99.9820499585112 48.25119236885803,99.9701090626404 48.13345446292078,99.9820499585112 47.99609357258305,99.9701090626404 47.858732682303526,99.9701090626404 47.74099477630807,99.9701090626404 47.60363388602855,99.9701090626404 47.49570747220423,99.9701090626404 47.377969566208776,99.9701090626404 47.26023166027153,99.9701090626404 47.11305927782087,99.94622726656235 46.98550987965427,99.91040456154587 46.85796048148768,99.9342863663187 46.720599591208156,99.9223454646708 46.573427208757494,99.91040456154587 46.44587781064911,99.9223454646708 46.318328412482515,99.9223454646708 46.19077901431592,99.95816816532897 46.063229616207536,99.94622726656235 45.92586872592801,99.9342863663187 45.78850783559028,99.9223454646708 45.660958437481895,99.9223454646708 45.5334090393153,99.89846365696576 45.3764251646935,99.91040456154587 45.268498750869185,99.88652275098138 45.12132636841852,99.89846365696576 44.97415398596786,99.89846365696576 44.84660458780127,99.9223454646708 44.699432205350604,99.88652275098138 44.55225982289994,99.85070002430439 44.40508744044928,99.85070002430439 44.26772655011155,99.82681819928257 44.14017715200316,99.81487728458887 44.00281626166543,99.82681819928257 43.90470134001225,99.82681819928257 43.76734044973273,99.85070002430439 43.649602543737274,99.88652275098138 43.53186463780003,99.91040456154587 43.384692255349364,99.91040456154587 43.25714285718277,99.91040456154587 43.12959345901618,99.88652275098138 43.01185555307893,99.88652275098138 42.903929139254615,99.91040456154587 42.746945264632814,99.89846365696576 42.62920735863736,99.88652275098138 42.501657960470766,99.91040456154587 42.37410856236238,99.88652275098138 42.246559164253995,99.86264093466161 42.09938678180333,99.86264093466161 41.98164887580788,99.85070002430439 41.86391096981242,99.83875911249925 41.70692709519062,99.80293636847637 41.57937769702403,99.85070002430439 41.42239382240223,99.82681819928257 41.29484442429384,99.81487728458887 41.177106518356595,99.82681819928257 41.029934135847725,99.82681819928257 40.8925732455682,99.81487728458887 40.76502384740161,99.81487728458887 40.60803997277981,99.82681819928257 40.50011355895549,99.83875911249925 40.35294117650483,99.86264093466161 40.24501476268051,99.79099545091594 40.09784238017164,99.79099545091594 39.980104474234395,99.79099545091594 39.84274358395487,99.77905453188578 39.70538269367535,99.79099545091594 39.58764478767989,99.81487728458887 39.45028389740037,99.77905453188578 39.322734499233775,99.79099545091594 39.18537360895425,99.76711361144407 39.04801271861652,99.76711361144407 38.93027481267927,99.75517268954718 38.822348398854956,99.7074089874659 38.69479900068836,99.7074089874659 38.56724960257998,99.7193499151399 38.42007722007111,99.74323176618054 38.29252782196272,99.73129084136599 38.17478991596727,99.77905453188578 38.04724051785888,99.77905453188578 37.89025664323708,99.77905453188578 37.762707245128695,99.79099545091594 37.6351578469621,99.75517268954718 37.517419941024855,99.75517268954718 37.40949352720054,99.76711361144407 37.27213263686281,99.75517268954718 37.124960254412144,99.76711361144407 36.99741085624555,99.73129084136599 36.84042698162375,99.7193499151399 36.74231205997057,99.73129084136599 36.60495116969105,99.73129084136599 36.31060640478972,99.74323176618054 36.02607313200133,99.7193499151399 35.85927776520839,99.65964526222524 35.476629570825025,99.76711361144407 35.15285032935208,99.74323176618054 34.917374517419375,99.67158619570546 34.70152168977074,99.67158619570546 34.446422893495765,99.62382245317713 34.26000454236055,99.63576339096471 33.97547126963036,99.63576339096471 33.710560981184244,99.76711361144407 33.455462184909265,99.69546805832215 33.1513059278368,99.83875911249925 29.393504428851884,99.62382245317713 29.148217124748044,99.54023584803508 28.922552804928273,99.58799963104684 28.588962071342394,99.62382245317713 28.314240290783346,99.54023584803508 28.000272541481536,99.49247204183484 27.764796729548834,99.45664917203976 24.56625028391136,99.49247204183484 24.281717011181172,99.46859013011272 23.95793776976643,99.44470821253344 23.722461957775522,99.48053108670138 23.49679763801396,99.40888532539248 23.18282988871215,99.37306242523482 22.88848512386903,99.42082628920616 22.603951851080637,99.40888532539248 20.141267317754682,99.3850033933777 19.778242107713595,99.40888532539248 19.58201226440724,99.40888532539248 19.395593913272023,99.3969443601236 19.32691346813226,99.3850033933777 19.150306609168183,99.33723951203865 18.94426527369069,99.3850033933777 18.728412446042057,99.37306242523482 18.541994094965048,99.30141658589127 18.316329775203485,99.28947560759116 18.071042471099645,99.28947560759116 17.815943674824666,99.36112145563675 17.71782875317149,99.24171167996974 16.57969566207612,99.34918048455438 16.33440835797228,99.30141658589127 16.138178514665924,99.30141658589127 15.843833749764599,99.28947560759116 15.569111969147343,99.31335756271437 15.314013172872365,99.31335756271437 15.02947990008397,99.32529853809683 14.78419259598013,99.25365266402514 14.53890529187629,99.28947560759116 14.31324097205652,99.25365266402514 13.989461730699986,99.26559364667628 13.80304337956477,99.21782970749337 13.449829661636613,99.27753462782857 13.106427435879596,99.2297706944737 12.988689529942349,99.30141658589127 13.047558482910972,99.5641177424186 13.037746990739834,99.73129084136599 13.07699295936618,100.00593174597452 12.920009084744379,100.08951795645407 12.861140131775755,99.88652275098138 12.772836702293716,99.73129084136599 12.606041335500777,99.79099545091594 12.478491937392391,100.02981352763163 12.400000000023283,100.16116322333255 12.429434476536699,100.47162544509047 12.478491937392391,100.75820509014011 12.537360890361015,101.03284313526092 12.596229843329638,101.33136188219942 12.645287304127123,101.61793902928912 12.713967749325093,101.83287134316924 12.73359073366737,102.03586254287802 12.75321371795144,102.2627345658766 12.782648194464855,102.56124959058798 12.83170565526234,102.80006095983845 12.841517147433478,103.06275279820693 12.83170565526234,103.34932491496147 12.890574608230963,103.62395574554102 12.861140131775755,103.91052623181895 12.920009084744379,104.17321511282353 12.861140131775755,104.4597840033748 12.90038610046031,104.72247142167907" stroke="#4DD2FF" stroke-dasharray="none" stroke-linecap="round" stroke-linejoin="round" stroke-width="0.5"><title>2013-12-10 10.9km</title><desc>9223370650177580807</desc></polyline><polyline fill="none" opacity="1" points="91.36147934850305,91.78385877958499 90.16168481484056,95.87035909830593 89.68176699988544,98.49739136477001 88.72193137276918,102.58388032088988 88.96189028024673,106.37847101641819 88.2420135596767,109.29738287813962 88.2420135596767,113.09196302411146 88.2420135596767,116.01086677075364 89.4418080933392,118.34598722797818 91.84139716345817,121.84866367932409 94.72090404573828,123.01622136775404 98.56024655792862,123.60000000009313 102.15963016077876,122.43244259478524 104.07930141687393,119.80543636670336 106.71884939447045,117.47031732159667 108.39856174215674,113.38385355728678 108.39856174215674,110.17305574938655 109.59835627768189,106.08657963620499 110.07827409170568,102.87577212415636 110.79815081227571,99.08117592497729 111.7579864403233,94.70278828428127 111.7579864403233,92.07575188926421 111.51802753377706,87.69735154649243 110.31823299825191,84.19462555623613 108.87847955618054,81.85947207268327 105.51905485894531,80.98378893476911 103.11946578975767,80.4000000001397 99.28012327849865,80.6918944849167 96.16065748780966,82.44326065597124 93.04119169805199,85.36220145085827 90.64160262793303,88.57303225062788 90.40164372138679,92.36764496355318 89.92172590643167,95.87035909830593 89.4418080933392,99.37306815129705 88.72193137276918,102.58388032088988 88.72193137276918,106.37847101641819 88.2420135596767,110.17305574938655 88.72193137276918,113.96763451839797 89.20184918586165,117.47031732159667 91.36147934850305,119.80543636670336 94.24098623264581,121.55677416943945 97.60041092988104,122.43244259478524 101.43975344114006,122.1405531547498" stroke="#4DD2FF" stroke-dasharray="none" stroke-linecap="round" stroke-linejoin="round" stroke-width="0.5"><title>2013-11-30 10.3km</title><desc>9223370651086224807</desc></polyline><polyline fill="none" opacity="1" points="156.49945964291692,95.80901126144454 156.27325630094856,100.76188558526337 156.49945964291692,104.06379581429064 153.55881619919091,107.36570125445724 154.46362956706434,109.8421271899715 155.82084961794317,112.31855043233372 155.82084961794317,116.17075901036151 156.49945964291692,118.37201812700368 157.40427300985903,119.47264688764699 159.44010308664292,122.22421646025032 162.83315321430564,122.22421646025032 166.67861002590507,123.60000000009313 167.58342339284718,121.6739028126467 171.20267686247826,119.74780399515294 174.8219303302467,115.89560147118755 175.72674369905144,114.51981327589601 177.53637043293566,112.04339242749847 176.85776040703058,106.8153840135783 176.17915038205683,105.71474913298152 176.4053537240252,101.86252286075614 177.762573774904,96.90965093066916 177.762573774904,95.80901126144454 176.17915038205683,92.78224942437373 178.44118379987776,90.30580492829904 176.85776040703058,89.20516206463799 175.2743370141834,86.72871367656626 173.23850693926215,83.7019397658296 171.4288802035153,83.15161680453457 168.4882367597893,80.4000000001397 163.9641699232161,82.6012937091291 160.79732313752174,85.90323028201237 157.85667969379574,88.93000126630068 156.72566298395395,90.85612616012804 156.49945964291692,95.25869122636504 158.0828830357641,99.38608824228868 156.27325630094856,102.96315960329957 155.36844293307513,105.43959032977 156.0470529589802,107.64085982413962 155.1422395920381,110.6676019039005 155.36844293307513,113.69433995871805 155.36844293307513,117.27138883504085 157.40427300985903,118.64717536675744 160.118713112548,120.57327511627227 163.5117632402107,121.94905965286307 166.4524066830054,122.77452997583896 169.61925346869975,122.22421646025032 172.3336935704574,120.02296106843278 174.8219303302467,117.27138883504085 176.4053537240252,113.41918211965822 176.63155706506222,110.3924436995294 176.85776040703058,107.36570125445724 176.85776040703058,104.06379581429064 176.17915038205683,100.76188558526337 176.85776040703058,97.45997056690976 177.08396374993026,94.70837105903774 177.98877711594105,91.40644725854509 177.53637043293566,88.37967956834473 176.17915038205683,85.62806908367202 174.3695236472413,83.7019397658296 172.3336935704574,82.87645527347922 169.16684678569436,82.05097048147582 166.4524066830054,82.05097048147582 163.28555989731103,83.7019397658296 161.47593316342682,84.25226259441115 159.44010308664292,86.45355257811025 157.85667969379574,88.37967956834473 157.63047635182738,91.40644725854509 156.72566298395395,95.25869122636504 157.17806966789067,98.28544977051206 156.49945964291692,102.13768209633417 156.49945964291692,104.06379581429064 156.0470529589802,108.46633533574641 154.68983290810138,112.31855043233372 155.1422395920381,116.17075901036151 156.49945964291692,118.09686085442081 160.34491645358503,119.19748974777758 163.5117632402107,121.3987459379714 166.67861002590507,121.3987459379714 170.07166015263647,119.74780399515294 172.3336935704574,118.09686085442081 174.14332030527294,115.07012865296565 175.72674369905144,111.21791821252555 175.50054035615176,107.64085982413962 176.17915038205683,104.33895478351042 176.17915038205683,100.76188558526337 176.85776040703058,97.45997056690976 177.08396374993026,93.6077303243801 178.21498045884073,89.48032283014618 177.08396374993026,87.55419677193277 175.04813367314637,85.62806908367202 172.3336935704574,83.97710119653493 168.2620334168896,82.87645527347922 164.64277994912118,83.15161680453457 161.9283398464322,84.80258529004641" stroke="#4DD2FF" stroke-dasharray="none" stroke-linecap="round" stroke-linejoin="round" stroke-width="0.5"><title>2013-11-16 10.4km</title><desc>9223370652294258807</desc></polyline><polyline fill="none" opacity="1" points="25.486387406475842,134.61374557600357 22.324188444763422,138.16445025079884 23.783664888702333,141.12336687929928 22.810680591501296,144.6740621116478 22.810680591501296,150.88776637450792 22.324188444763422,154.43844744330272 22.567434517666698,160.06034860108048 22.0809423699975,163.6110163643025 23.053926666267216,166.5699022328481 24.51340311113745,168.64112021238543 28.648586370050907,170.71233643963933 33.51350785139948,171.60000000009313 37.89193718507886,171.30411218269728 38.86492148041725,169.52878452418372 41.5406282953918,167.1616789775435 41.78387437015772,163.01923876185901 41.78387437015772,160.35623777890578 42.75685866642743,155.32611690624617 44.70282725896686,150.29598569567315 44.94607333280146,146.1535169382114 45.43256548047066,142.89871513913386 45.18931940663606,138.75623386260122 45.43256548047066,135.7973143735435 44.21633510943502,132.5424988034647 40.081151850521564,129.879464663798 36.43246074113995,128.99178597261198 32.78376962989569,128.99178597261198 28.891832443885505,130.4712502779439 26.21612562984228,132.24660626379773 24.999895258806646,136.38909855671227 23.297172740101814,141.12336687929928 23.297172740101814,144.08227993012406 23.053926666267216,146.74529861821793 22.324188444763422,150.88776637450792 22.567434517666698,154.73433729959652 22.324188444763422,157.69323389837518 22.567434517666698,162.72334990650415 23.540418813936412,165.09045974630862 25.972879556007683,167.1616789775435 30.594554962590337,171.00822432967834 34.486492147669196,171.00822432967834 38.135183257982135,169.82467255694792 40.324397925287485,168.64112021238543 43.00010474026203,165.38634831481613 43.729842961765826,162.72334990650415 43.48659688793123,158.58090218016878 43.973089036531746,153.8466676226817 44.94607333280146,150.88776637450792 45.675811554305255,147.33708015549928 45.675811554305255,143.7863887862768 45.919057629071176,139.64390901243314 45.43256548047066,135.7973143735435 43.24335081502795,132.5424988034647 40.567644000053406,130.4712502779439 36.43246074113995,128.4000000001397 32.78376962989569,128.99178597261198 29.378324592486024,130.4712502779439 26.21612562984228,131.95071368920617 23.540418813936412,134.90963782859035 22.810680591501296,140.23569226590917 23.053926666267216,143.7863887862768 22.567434517666698,147.33708015549928 24.02691096253693,150.88776637450792 22.324188444763422,156.50967568787746 21.594450222328305,160.35623777890578 22.324188444763422,164.2027938242536 22.567434517666698,166.27401380729862 26.21612562984228,168.64112021238543 29.135078517720103,170.12056055432186 33.99999999906868,170.71233643963933 37.40544503647834,170.12056055432186 40.567644000053406,168.64112021238543 42.75685866642743,165.68223684746772 43.48659688793123,162.13157208892517 44.45958118420094,158.58090218016878 44.94607333280146,155.0302271207329 45.18931940663606,151.77543712500483 45.675811554305255,148.81653337273747 45.919057629071176,145.26584414974786 46.40554977674037,139.3480173314456 45.919057629071176,135.7973143735435 44.21633510943502,133.13428377383389 41.0541361477226,130.4712502779439 38.378429332748055,129.2876789055299 33.51350785139948,128.69589300476946 30.594554962590337,129.58357180282474 27.91884814761579,130.76714303181507 25.486387406475842,133.13428377383389 24.51340311113745,134.31785328662954 23.783664888702333,135.7973143735435 24.999895258806646,139.3480173314456 24.756649184972048,140.82747537712567 24.27015703637153,144.9699531486258 22.810680591501296,149.1124239093624 22.0809423699975,152.3672174452804 21.594450222328305,157.39734439994209" stroke="#4DD2FF" stroke-dasharray="none" stroke-linecap="round" stroke-linejoin="round" stroke-width="0.5"><title>2013-11-03 10.7km</title><desc>9223370653417861807</desc></polyline><polyline fill="none" opacity="1" points="111.48283633589745,145.39209345774725 111.71959584765136,142.5120861462783 111.9563553603366,138.48007006268017 111.48283633589745,133.2960393568501 109.35200072731823,129.84001261997037 106.98440560605377,129.2640076763928 103.90653194859624,130.41601742454804 100.35513926763088,130.12801503995433 97.51402512192726,130.41601742454804 94.67291097715497,132.14403100241907 92.77883488032967,135.3120526385028 91.35827780794352,138.1920686531812 91.59503732062876,143.37608870584518 90.88475878350437,145.96809450211003 90.1744802473113,149.712097896263 89.46420171111822,153.4560954067856 88.51716366223991,155.7600909504108 88.28040415141732,159.2160800890997 88.28040415141732,162.96006266516633 89.70096122287214,167.28003524802625 92.77883488032967,169.5840174248442 97.27726561017334,171.31200259411708 100.59189877938479,171.60000000009313 104.3800509730354,170.16001262003556 107.69468414224684,167.28003524802625 108.16820316575468,162.6720642137807 110.29903877526522,158.06408426584676 110.53579828795046,154.60809345706366 110.53579828795046,151.44009747868404 110.77255779877305,147.1200961722061 111.00931731145829,142.80008703446947 112.19311487209052,139.0560727783013 112.42987438477576,135.3120526385028 110.29903877526522,132.7200352489017 108.87848170287907,130.41601742454804 105.80060804635286,128.9760051521007 102.01245585177094,128.4000000001397 98.22430365905166,129.2640076763928 94.90967048984021,129.84001261997037 89.70096122287214,133.8720433257986 88.99068268761039,135.0240508459974 88.99068268761039,136.46405946207233 90.1744802473113,139.63207535468973 89.93772073462605,143.66408948926255 88.51716366223991,147.69609680003487 88.51716366223991,150.57609784416854 87.57012561522424,154.32009399705566 87.57012561522424,157.48808614653535 87.80688512697816,160.65607408294454 87.57012561522424,163.5360594613012 89.22744219843298,166.7040393569041 91.35827780794352,169.00802208902314 94.19939195271581,169.87201503990218 97.9875441454351,169.5840174248442 102.01245585177094,168.72002436965704 106.51088658254594,166.99203731981106 108.40496267937124,164.4000543965958 110.29903877526522,160.65607408294454 109.82551975175738,156.62408870481886 110.29903877526522,152.59209650335833" stroke="#4DD2FF" stroke-dasharray="none" stroke-linecap="round" stroke-linejoin="round" stroke-width="0.5"><title>2013-11-02 10.5km</title><desc>9223370653505000807</desc></polyline><polyline fill="none" opacity="1" points="162.6705661425367,130.56001984444447 159.78505679685622,132.45003549358808 157.5654342258349,135.15005507646129 156.01169842481613,138.12007284793071 156.45562293939292,142.98009340977296 156.67758519575,145.68010026379488 156.23366068210453,149.19010429433547 156.01169842481613,151.35010403278284 156.01169842481613,152.97010246641003 155.56777391023934,155.67009724397212 155.12384939659387,158.6400877290871 156.23366068210453,162.15007139416412 157.5654342258349,164.85005507571623 160.67290582694113,167.0100396713242 164.22430194169283,168.3600289823953 167.7756980592385,168.3600289823953 169.77335837297142,167.82003335561603 172.65886771772057,165.66004954348318 174.6565280323848,162.96006684168242 175.54437706060708,159.18008557590656 175.54437706060708,155.94009654247202 175.7663393188268,152.70010280935094 175.54437706060708,149.46010437584482 175.54437706060708,146.49010168295354 176.43222609069198,142.98009340977296 176.87615060433745,140.01008210144937 176.43222609069198,137.31006839242764 175.32241480425,134.34004954481497 173.99064126145095,132.72003759886138 170.4392451448366,130.56001984444447 167.7756980592385,128.4000000001397 165.3341132281348,129.48001018329524 162.0046793706715,130.8300221778918 159.78505679685622,132.45003549358808 158.67524551134557,135.69005860155448 158.2313209977001,138.12007284793071 157.7873964831233,141.63008875912055 156.45562293939292,144.33009724435396 156.01169842481613,146.76010209089145 156.23366068210453,150.81010429398157 157.7873964831233,154.32010026299395 154.90188713837415,155.13009854895063 155.12384939659387,156.21009580790997 154.45796262472868,157.56009164638817 154.90188713837415,163.23006525845267 160.22898131329566,166.20004569296725 165.77803774364293,167.55003549298272 167.1098112873733,167.55003549298272 169.10747160110623,167.55003549298272 171.77101868763566,168.3600289823953 173.99064126145095,164.0400603134185 174.6565280323848,162.96006684168242 174.8784902896732,160.5300796192605 175.54437706060708,159.18008557590656 173.54671674594283,158.91008666879497 174.8784902896732,158.10008975397795 176.2102638334036,155.94009654247202 175.9883015761152,150.81010429398157 176.2102638334036,149.46010437584482 175.7663393188268,146.2201012421865 176.2102638334036,142.1700907170307 175.7663393188268,136.7700652598869 175.32241480425,133.26004171161912 173.54671674594283,129.75001264712773 169.55139611661434,129.48001018329524 165.77803774364293,129.21000768686645 162.6705661425367,130.56001984444447 159.78505679685622,132.72003759886138 156.67758519575,133.26004171161912 156.45562293939292,137.58006991050206 156.23366068210453,140.55008445074782 156.01169842481613,144.0600965428166 154.90188713837415,147.57010311936028 155.34581165295094,151.62010385282338 155.12384939659387,155.13009854895063 154.90188713837415,159.18008557590656 154.90188713837415,161.61007426702417 158.45328325405717,165.66004954348318 164.00233968626708,168.63002674723975 166.44392451550812,169.98001507879235 169.32943385839462,171.60000000009313 173.32475448958576,167.82003335561603 175.1004525469616,162.69006839231588 175.54437706060708,159.7200832911767 175.54437706060708,158.6400877290871 175.1004525469616,153.24010209064 174.8784902896732,148.92010417976417 175.32241480425,146.2201012421865 175.54437706060708,142.98009340977296 177.09811286255717,138.93007700890303 175.7663393188268,135.96006031497382 174.43456577509642,134.34004954481497 172.88082997407764,130.8300221778918 170.21728288847953,130.02001507859677 166.0,129.75001264712773 162.0046793706715,130.56001984444447 159.78505679685622,130.8300221778918 156.89954745396972,132.72003759886138 154.90188713837415,135.69005860155448 154.67992488108575,138.39007426798344 155.34581165295094,139.7400808769744 154.23600036650896,142.71009254432283 154.67992488108575,145.95010076928884 154.90188713837415,147.57010311936028 154.45796262472868,150.27010442432947 154.90188713837415,153.78010124200955 154.67992488108575,157.02009340864606 154.90188713837415,161.34007565444335 157.5654342258349,166.20004569296725 161.7827171124518,168.63002674723975 163.11449065618217,168.3600289823953 166.0,169.98001507879235 167.99766031466424,169.1700221770443 171.1051319167018,171.33000259427354 173.32475448958576,168.63002674723975 174.8784902896732,162.42006990942173 173.99064126145095,158.37008875748143 175.1004525469616,151.35010403278284 174.8784902896732,147.0301024664659 174.8784902896732,145.68010026379488 176.43222609069198,142.98009340977296 177.76399963349104,140.82008557626978 177.09811286255717,136.7700652598869 175.32241480425,132.1800333559513 173.10279223136604,129.75001264712773 169.9953206302598,128.6700025945902 166.0,128.94000515691005 161.1168303405866,130.56001984444447 157.1215097112581,132.1800333559513 156.67758519575,133.53004371840507 155.56777391023934,134.61005142168142 155.78973616752774,137.04006684245542 156.01169842481613,138.6600756549742 156.23366068210453,142.1700907170307 156.23366068210453,143.5200950417202 156.23366068210453,147.84010339644738 156.01169842481613,149.19010429433547 155.12384939659387,151.62010385282338 155.78973616752774,155.13009854895063 154.90188713837415,156.21009580790997 155.12384939659387,161.07007700833492 156.23366068210453,162.15007139416412 156.23366068210453,163.50006364332512 158.45328325405717,165.66004954348318 162.6705661425367,168.63002674723975 167.1098112873733,170.52001018356532 170.4392451448366,169.710017477395 171.99298094585538,168.09003118495457 175.32241480425,163.77006199466996 174.8784902896732,159.18008557590656 174.43456577509642,152.97010246641003 176.2102638334036,152.1601033960469 176.65418834704906,147.3001028096769 176.87615060433745,146.49010168295354 175.9883015761152,142.71009254432283 176.87615060433745,138.93007700890303 175.54437706060708,134.34004954481497 173.54671674594283,132.1800333559513 172.21494320314378,128.94000515691005 166.2219622572884,129.21000768686645" stroke="#4DD2FF" stroke-dasharray="none" stroke-linecap="round" stroke-linejoin="round" stroke-width="0.5"><title>2013-10-26 11.1km</title><desc>9223370654110301807</desc></polyline><polyline fill="none" opacity="1" points="42.99530383106321,187.76849800907075 42.29437106475234,183.78952995873988 40.8925055321306,180.3789805562701 36.68690893705934,178.67370399925858 33.41588936187327,178.10527820512652 29.443937020376325,180.66319319489412 27.341138722375035,181.51583090610802 24.771051913499832,184.3579543782398 22.901897870004177,187.76849800907075 24.30376340262592,190.32640248560347 25.004696168005466,193.1685153071303 25.004696168005466,196.86325683817267 24.07011914718896,199.9895720607601 23.602830636315048,203.68430287321098 23.36918638087809,206.81060902611353 24.30376340262592,208.23165590292774 23.602830636315048,212.77900013769977 25.705628934316337,215.62108581862412 28.042071488685906,217.89475188939832 30.845802552998066,218.46316806343384 34.11682212725282,217.89475188939832 38.08877446874976,216.18950254260562 41.359794043935835,213.91583482245915 42.29437106475234,209.93691102182493 42.06072680931538,206.52639954793267 42.52801532112062,202.26325324806385 42.52801532112062,198.85273064253852 42.52801532112062,195.1579922370147 43.92988085281104,191.4632480267901 45.565390639938414,189.18955639493652 46.49996766168624,186.63165068160743 46.26632340531796,184.07374218595214 43.92988085281104,181.23161837016232 40.8925055321306,179.81055517448112 37.855130213312805,177.25263925665058 34.58411063905805,176.4000000001397 31.0794468075037,177.82106525660492 28.27571574319154,180.09476788225584 25.705628934316337,182.6526807071641 25.238340424373746,185.77901482582092 25.238340424373746,189.4737679695245 24.771051913499832,192.60009301709943 24.30376340262592,196.86325683817267 21.50003233831376,199.9895720607601 21.967320849187672,203.68430287321098 21.733676593750715,207.94744659680873 22.200965103693306,211.07374708005227 22.200965103693306,213.91583482245915 24.30376340262592,216.75791912851855 27.341138722375035,219.0315841003321 30.61215829756111,219.60000000009313 34.58411063905805,219.0315841003321 37.154197447001934,217.610543750925 40.8925055321306,215.90529419737868 41.82708255480975,213.6316262029577 43.462592341937125,210.22112008789554 43.92988085281104,206.81060902611353 43.92988085281104,203.1158831268549 44.39716936368495,199.70536175812595 45.0981021290645,195.4422030900605 45.33174638450146,192.0316705906298 45.79903489537537,189.18955639493652 45.565390639938414,185.49480280443095 44.63081361912191,181.80004340759479 42.52801532112062,179.24212965508923 39.4906400013715,178.10527820512652 35.98597617074847,177.53685227409005 32.48131234012544,177.53685227409005 29.21029276587069,178.95791684417054 25.705628934316337,181.23161837016232 24.30376340262592,184.07374218595214 25.004696168005466,188.33692146651447 23.602830636315048,191.74745932617225 23.36918638087809,194.58957042940892 23.36918638087809,198.28430972713977 21.733676593750715,201.69483315735124 22.200965103693306,206.52639954793267 21.967320849187672,209.3684927856084 23.36918638087809,212.21058258996345 24.30376340262592,215.90529419737868 25.238340424373746,217.610543750925 30.845802552998066,219.0315841003321 34.81775489356369,218.46316806343384 37.38784170243889,216.18950254260562 41.59343829844147,212.77900013769977 43.22894808650017,211.9263737637084 43.92988085281104,209.08428361662664 43.462592341937125,205.95798048726283 43.462592341937125,202.26325324806385 43.462592341937125,199.13694104878232 43.92988085281104,195.72641390911303 45.33174638450146,192.31588182109408 45.565390639938414,189.18955639493652 45.565390639938414,186.34743876405992 45.565390639938414,183.78952995873988 43.22894808650017,181.23161837016232 41.359794043935835,178.10527820512652 37.855130213312805,176.96842620545067 33.6495336163789,178.10527820512652 29.67758127581328,180.09476788225584 27.341138722375035,183.22110540163703 25.238340424373746,186.34743876405992 23.836474891752005,188.33692146651447 23.602830636315048,192.0316705906298 22.668253615498543,195.4422030900605 22.200965103693306,199.13694104878232 22.901897870004177,202.26325324806385" stroke="#4DD2FF" stroke-dasharray="none" stroke-linecap="round" stroke-linejoin="round" stroke-width="0.5"><title>2013-10-20 10.7km</title><desc>9223370654628121807</desc></polyline><polyline fill="none" opacity="1" points="102.45693937223405,217.42643493087962 106.03066936973482,216.06795569579117 109.15768311638385,213.8943872116506 110.72118998877704,211.17742365039885 110.94454811420292,208.18875993951224 111.39126436412334,205.20009225560352 111.83798061311245,201.1246299177874 112.50805498752743,198.13595284009352 112.95477123744786,195.41897022980265 113.17812936194241,192.70198433613405 112.73141311202198,188.89819856663235 112.50805498752743,186.1812047897838 110.27447373978794,182.92080792272463 108.71096686646342,179.6604063261766 105.80731124430895,177.75850321003236 102.68029749765992,176.67170070740394 99.77664187457412,176.67170070740394 96.20291187800467,177.48680263385177 92.85254000686109,179.6604063261766 90.39560063369572,182.92080792272463 89.50216813571751,185.90950523177162 89.50216813571751,188.89819856663235 88.83209376130253,192.15858676331118 88.60873563587666,196.23406535829417 87.49194501247257,199.49444291344844 87.93866126146168,202.4831181843765 86.82187063805759,206.2868809637148 89.27881001029164,208.73215363710187 90.17224251013249,211.9925130638294 91.95910750795156,215.52456377237104 94.19268875569105,217.42643493087962 97.7664187522605,218.7849133447744 101.56350687332451,219.60000000009313 104.46716249547899,217.96982639585622 106.92410186771303,215.25286776060238 108.93432499095798,212.8076021813322 110.49783186521381,209.81894063809887 110.27447373978794,207.64536611060612 110.94454811420292,204.65669770352542 111.16790623962879,201.6680253231898 111.39126436412334,198.67934896820225 112.061338737607,196.23406535829417 112.50805498752743,191.88688792707399 112.50805498752743,188.62649933667853 111.16790623962879,183.19250784208998 109.3810412408784,179.6604063261766 106.47738561872393,178.03020375361666 102.01022312324494,176.4000000001397 98.43649312574416,176.67170070740394" stroke="#4DD2FF" stroke-dasharray="none" stroke-linecap="round" stroke-linejoin="round" stroke-width="0.5"><title>2013-10-19 10.2km</title><desc>9223370654714312807</desc></polyline><polyline fill="none" opacity="1" points="174.21410701051354,214.3102453246247 174.93888115882874,211.07761180168018 175.90524668991566,206.66946825268678 175.4220639243722,202.55519372876734 175.66365530714393,198.1470347265713 175.90524668991566,195.2082576181274 176.63002083823085,191.09396369801834 177.59638636745512,187.27354168030433 176.1468380726874,183.15923433192074 174.93888115882874,180.22043910529464 171.31501041911542,177.5755203643348 167.20795691385865,176.4000000001397 163.3424947904423,177.5755203643348 160.20180681534111,179.33879984519444 158.51066713687032,182.57147557032295 157.302710223943,185.51026795455255 157.06111884023994,188.15517806308344 156.5779360756278,191.9755986945238 155.61157054454088,195.5021354884375 154.8867963962257,198.73478972166777 154.64520501438528,201.96743965684436 154.64520501438528,206.08171517541632 155.12838777899742,209.90210763714276 156.81952745839953,213.72249409533106 158.0274843722582,215.7796227785293 160.92658096458763,219.0122500488069 164.55045170336962,219.0122500488069 167.44954829569906,219.60000000009313 170.83182765357196,218.13062485610135 173.48933286219835,216.36737351119518 175.18047254160047,212.84086698386818 175.66365530714393,208.43272663117386 175.90524668991566,203.73070144630037 175.90524668991566,200.79193108691834 175.90524668991566,197.26540196686983 176.87161222100258,194.32662379206158 177.59638636745512,190.80008529429324 177.35479498654604,186.39190497691743 175.18047254160047,180.22043910529464 172.52296733297408,178.16328033292666 167.6911396794021,176.69388014404103 164.79204308707267,176.9877602532506 161.8929464938119,179.63267963356338 159.23544128518552,181.6898371623829 158.51066713687032,184.62863061204553 157.06111884023994,189.33069274341688 155.61157054454088,193.73886773106642 155.61157054454088,197.26540196686983 154.16202224884182,200.79193108691834 154.40361363161355,204.6123318609316 154.64520501438528,207.8449739809148 154.16202224884182,211.37148775416426 156.09475331008434,215.48574735829607 158.75225852057338,218.13062485610135 161.40976372919977,218.42449995642528 166.48318276554346,219.0122500488069 169.38227935694158,217.54287455044687 172.52296733297408,214.89799641259015 173.48933286219835,212.25311539904214 174.697289776057,208.43272663117386 176.1468380726874,204.9062085954938 177.35479498654604,201.67356256698258 177.83797775115818,197.55927958874963 177.35479498654604,192.85723337321542 177.35479498654604,188.44905678625219 176.3884294545278,184.92250976222567 174.93888115882874,180.22043910529464 172.03978456743062,178.16328033292666 168.89909659232944,177.28164032683708 164.79204308707267,176.9877602532506 161.40976372919977,179.04492002003826 158.51066713687032,181.6898371623829 157.06111884023994,184.33475142717361 157.78589298855513,187.8612993035931 156.5779360756278,192.5633551827632 157.06111884023994,196.67764661624096" stroke="#4DD2FF" stroke-dasharray="none" stroke-linecap="round" stroke-linejoin="round" stroke-width="0.5"><title>2013-10-12 10.6km</title><desc>9223370655320152807</desc></polyline><polyline fill="none" opacity="1" points="41.19563092570752,227.2235538160894 38.64234253298491,225.81177733442746 34.00000000093132,224.4000000001397 30.98247735388577,225.2470665036235 27.96495470777154,226.65884332591668 26.34013482183218,230.6118138891179 25.411666315048933,234.0000690475572 25.643783441744745,236.25890308944508 24.251080681569874,240.77656461950392 24.251080681569874,243.31774539034814 23.55472930241376,247.83539326884784 24.251080681569874,250.94127111579292 24.483197808265686,255.17655243445188 24.018963554874063,258.8471233653836 22.858377922326326,262.51768852747045 24.94743206165731,263.3647412073333 28.42918896023184,265.6235468534287 31.678828733973205,267.60000000009313 34.696351380087435,267.60000000009313 38.874459659680724,265.90589740499854 41.42774805333465,263.92944282409735 43.748919318430126,260.8235822466668 44.677387826144695,257.1530144221615 44.90950495097786,252.63538456475362 43.748919318430126,248.96480387263 43.98103644605726,243.8824518530164 45.141622078604996,239.92950374865904 45.37373920623213,236.82361125876196 46.30220771115273,234.0000690475572 45.60585633199662,231.74123282171786 43.05256793834269,228.07061929488555 38.874459659680724,226.65884332591668 35.39270276017487,225.81177733442746 32.60729724075645,225.81177733442746 30.286125973798335,226.94119858834893 26.34013482183218,228.91768446774222 24.94743206165731,231.74123282171786 24.018963554874063,235.12948634149507 24.251080681569874,239.0824425695464 24.251080681569874,242.47068544104695 24.483197808265686,245.57657042192295 24.251080681569874,249.24715643795207 22.626260795630515,251.78832799429074 21.92990941554308,254.61184870218858 21.697792288847268,257.435365997022 22.626260795630515,260.25887987948954 23.78684642817825,262.51768852747045 25.411666315048933,265.34119626670144 28.42918896023184,266.75294885598123 31.678828733973205,266.75294885598123 36.55328839365393,267.60000000009313 39.57081103976816,264.7764949919656 41.42774805333465,262.2353375663515 43.748919318430126,258.56477195979096 43.98103644605726,254.61184870218858 43.98103644605726,251.22362344292924 45.141622078604996,247.55304053192958 45.83797345869243,244.16480503370985 45.60585633199662,241.05891817482188 45.60585633199662,238.5177349471487 46.07009058445692,235.12948634149507 45.37373920623213,232.30594208301045 44.44527069851756,229.76474933186546 43.05256793834269,226.94119858834893 40.03504529315978,225.2470665036235 36.55328839365393,225.2470665036235 32.60729724075645,225.2470665036235 28.89342321548611,225.81177733442746 26.804369075223804,228.07061929488555 24.483197808265686,231.74123282171786 24.94743206165731,234.28242342267185 24.94743206165731,237.6706732562743 23.55472930241376,242.18833205639385 23.55472930241376,246.14127633837052 24.251080681569874,247.55304053192958 23.32261217571795,251.22362344292924 22.626260795630515,253.2000887747854 23.090495048090816,256.588311167201 23.78684642817825,259.6941773761064 24.251080681569874,262.80003945552744 25.875900567509234,265.34119626670144 27.73283758200705,266.4705984070897 34.00000000093132,266.4705984070897 38.17810827959329,266.4705984070897 40.267162419855595,265.34119626670144" stroke="#4DD2FF" stroke-dasharray="none" stroke-linecap="round" stroke-linejoin="round" stroke-width="0.5"><title>2013-10-06 10.6km</title><desc>9223370655838244807</desc></polyline><polyline fill="none" opacity="1" points="102.30609858687967,267.0389661930967 106.22646618355066,265.0753468009643 108.76317462790757,260.867585366359 109.91622392181307,257.2208526181057 110.14683377929032,253.85463268659078 110.60805349703878,250.76892679347657 111.76110279094428,247.68321679718792 111.06927321478724,244.03646333003417 111.06927321478724,240.67022427427582 111.76110279094428,237.5845008501783 111.99171264935285,234.77929417719133 111.76110279094428,231.97408411232755 109.6856140634045,230.2909564457368 108.07134505175054,228.04678432480432 105.30402674898505,226.9246974508278 102.30609858687967,227.48574095615186 97.69390141405165,228.04678432480432 95.38780282903463,228.6078275591135 93.77353381738067,230.2909564457368 93.54292395804077,231.97408411232755 92.62048452533782,234.77929417719133 92.38987466599792,237.86502133100294 91.69804508984089,242.07282447465695 91.00621551368386,245.15854193037376 91.69804508984089,248.80529363360256 90.77560565527529,251.89100213861093 90.31438593752682,255.53774326271378 89.39194650482386,258.3429248428438 89.39194650482386,260.3065499314107 90.31438593752682,263.3922431420069 91.92865494918078,265.6363810834009 96.07963240426034,266.75844923895784 99.30817042570561,267.60000000009313 102.30609858687967,266.75844923895784 105.30402674898505,266.47793225129135 107.37951547559351,264.23379512433894 108.76317462790757,261.98965582833625 109.6856140634045,258.0624068370089 109.45500420406461,254.97670653951354 110.37744363863021,251.04944568034261 110.37744363863021,247.40269750310108 110.14683377929032,243.75594359473325 109.91622392181307,238.98710291530006 110.37744363863021,235.62085653445683 111.06927321478724,234.21825243486091 110.37744363863021,231.41304169245996 108.07134505175054,228.88834912492894 105.07341689057648,226.0831319389399 102.9979281630367,225.2415661229752 99.76939014159143,225.80261003412306 96.31024226266891,225.80261003412306 94.4653633935377,226.6441756472923 93.31231410056353,229.72991361888126 91.69804508984089,232.5351263966877 91.46743523143232,235.62085653445683 90.77560565527529,239.26762322615832 90.08377608004957,243.19490402424708 89.62255636136979,245.7195810272824 88.9307267870754,248.80529363360256 88.9307267870754,252.17152088950388 88.0082873525098,255.53774326271378 87.54706763476133,258.0624068370089 87.7776774931699,261.14810303226113 88.9307267870754,263.6727605035994 91.92865494918078,266.19741522870027 95.61841268651187,267.0389661930967 99.76939014159143,267.319483113708 103.45914787892252,266.75844923895784 105.99585632514209,264.794829609571 108.76317462790757,262.55069085536525 109.91622392181307,258.3429248428438 110.37744363863021,255.53774326271378 110.83866335544735,252.4520396075677 111.06927321478724,249.6468509058468 111.53049293160439,245.7195810272824 111.76110279094428,243.4754238263704 111.99171264935285,240.3897041331511 112.22232250776142,237.5845008501783 112.45293236616999,234.49877332313918 111.76110279094428,231.69356291904114 110.60805349703878,229.1688706574496 108.30195491109043,226.6441756472923 105.76524646673352,225.2415661229752 102.9979281630367,224.4000000001397 100.69182957615703,224.96104411478154 96.77146197948605,225.52208809531294 94.00414367672056,227.20521922083572 92.62048452533782,230.8519991368521 91.00621551368386,235.34033578261733 90.08377608004957,238.14554177806713 89.85316622070968,240.3897041331511 89.62255636136979,243.4754238263704 89.85316622070968,246.56113941781223 90.08377608004957,249.92736992868595 89.85316622070968,253.01307694031857 89.62255636136979,256.3792980927974 90.08377608004957,259.7455143611878 91.46743523143232,262.83120831870474 94.00414367672056,264.5143123844173 96.77146197948605,267.319483113708 100.69182957615703,267.319483113708 102.9979281630367,267.0389661930967 106.45707604289055,265.35586395906284 108.532564769499,263.3922431420069 109.6856140634045,260.0260321632959 110.14683377929032,257.2208526181057 111.06927321478724,254.13515119976364 111.06927321478724,250.76892679347657 111.76110279094428,247.96373605774716 111.76110279094428,244.8780223308131 111.53049293160439,241.79230450256728 112.68354222457856,238.14554177806713 111.76110279094428,235.34033578261733 110.83866335544735,231.97408411232755 110.14683377929032,229.44939215504564 107.6101253349334,227.7662626572419 104.38158731441945,226.0831319389399 101.38365915231407,226.6441756472923 97.23268169723451,226.9246974508278 94.23475353512913,228.88834912492894 92.85109438374639,230.8519991368521 90.77560565527529,234.21825243486091 90.31438593752682,236.46241858764552 89.39194650482386,240.1091839573346 89.62255636136979,243.19490402424708 88.46950706932694,246.28061998845078 88.46950706932694,249.6468509058468 87.7776774931699,253.01307694031857 87.31645777635276,256.3792980927974 88.0082873525098,259.7455143611878 89.16133664548397,262.83120831870474 92.62048452533782,264.794829609571 96.31024226266891,266.47793225129135 98.84695070702583,265.9168981728144 102.30609858687967,265.0753468009643 104.84280703123659,262.270173358731 108.07134505175054,260.3065499314107 109.6856140634045,257.7818887971807 110.37744363863021,255.53774326271378 110.60805349703878,252.17152088950388 111.06927321478724,248.80529363360256 111.29988307226449,246.28061998845078 111.76110279094428,242.3533444129862" stroke="#4DD2FF" stroke-dasharray="none" stroke-linecap="round" stroke-linejoin="round" stroke-width="0.5"><title>2013-09-29 10.5km</title><desc>9223370656443428807</desc></polyline><polyline fill="none" opacity="1" points="160.38070914242417,263.22535400046036 163.752283657901,265.13926266669296 166.89908653870225,265.13926266669296 169.37157451640815,264.0456007702742 172.29360576253384,263.22535400046036 174.31655047181994,261.0380278278608 175.66518027801067,258.3038671386894 176.5642668157816,255.29628656315617 176.5642668157816,251.7418679993134 176.5642668157816,248.73427869705483 177.23858171794564,246.00010313582607 177.23858171794564,242.17225179541856 178.36243989039212,238.8912312053144 177.68812498729676,237.25071912514977 176.78903844952583,234.51652968092822 175.66518027801067,230.68865890661255 173.86700720340014,227.95446153078228 171.39451922569424,225.49368106527254 170.0458894195035,225.76710125035606 166.00000000093132,224.94684059894644 163.30274038854986,226.5873616025783 160.83025241084397,228.22788141667843 159.7063942393288,232.055756355403 158.35776443313807,233.6962722032331 157.6834495300427,238.6178126083687 157.00913462694734,240.80516046099365 156.78436299227178,244.9064319843892 156.78436299227178,247.09377375710756 156.55959135852754,249.28111341316253 156.55959135852754,253.38236956926994 155.2109615523368,255.56970314332284 155.6605048207566,261.0380278278608 156.55959135852754,263.4987696236931 161.95411058235914,265.4126780577935 164.2018269263208,265.95950874197297 167.5734014417976,265.95950874197297 171.61929085943848,264.86584724183194 174.5413221064955,262.1316911787726 176.5642668157816,258.0304508882109 177.23858171794564,253.65578638156876 175.66518027801067,250.92161676776595 174.09177883714437,249.55453072185628 175.88995191268623,245.17984982184134 177.4633533526212,239.98490526387468 177.91289662197232,238.07097531366162 177.23858171794564,235.06336783478037 178.36243989039212,231.235497985268 175.66518027801067,228.50130126997828 172.9679206656292,225.49368106527254 171.16974759101868,224.94684059894644 165.77522836625576,225.49368106527254 164.2018269263208,225.76710125035606 161.27979567926377,228.22788141667843 158.80730770155787,230.41523931804113 158.1329927984625,232.87601442844607 157.6834495300427,236.43046263838187 156.55959135852754,241.07857879367657 157.00913462694734,244.35959621169604 157.23390626069158,246.54693851224147 156.55959135852754,250.92161676776595 157.00913462694734,254.20261990698054 155.6605048207566,258.3038671386894 156.33481972385198,261.5848595700227 156.55959135852754,263.4987696236931 160.38070914242417,264.86584724183194 163.97705529164523,267.3265848727897 166.22477163467556,266.77975451922975 169.14680288173258,265.95950874197297 172.0688341287896,264.86584724183194 174.9908653749153,261.5848595700227 175.21563700959086,259.3975318111479 175.88995191268623,256.66336913825944 176.78903844952583,253.92920316033997 177.91289662197232,250.92161676776595 177.0138100842014,247.3671913293656 175.88995191268623,243.53934230282903 176.11472354643047,240.5317420954816 176.5642668157816,237.25071912514977 177.68812498729676,236.43046263838187 178.58721152413636,232.87601442844607 177.23858171794564,230.14181969570927 178.36243989039212,230.41523931804113 177.91289662197232,227.68104161159135 174.76609374023974,226.31394151831046 171.39451922569424,225.22026084875688 168.24771634489298,224.6734203158412 164.2018269263208,225.76710125035606 161.0550240445882,228.22788141667843 158.35776443313807,230.14181969570927 158.1329927984625,233.42285297834314 155.88527645543218,237.25071912514977 154.53664664924145,241.62541536078788 156.11004808917642,241.62541536078788 156.78436299227178,243.2659242679365 156.33481972385198,246.8203561506234 155.6605048207566,250.92161676776595 153.41278847679496,253.10895272321068 155.43573318701237,256.11653620772995 155.6605048207566,258.57728335657157 157.23390626069158,262.9519383441657 159.256850970909,265.4126780577935 161.95411058235914,266.23292403365485 165.77522836625576,266.23292403365485 169.37157451640815,267.60000000009313 172.9679206656292,266.23292403365485 174.09177883714437,264.0456007702742 174.31655047181994,260.49119595531374 175.66518027801067,259.3975318111479 175.88995191268623,255.29628656315617 177.91289662197232,248.73427869705483 177.91289662197232,244.08617827459238 175.88995191268623,241.35199709353037 176.5642668157816,238.07097531366162 177.0138100842014,235.61020585522056 177.4633533526212,232.055756355403 177.23858171794564,230.14181969570927 175.66518027801067,227.1342016728595 172.0688341287896,225.76710125035606 168.69725961331278,224.4000000001397 166.00000000093132,225.76710125035606 163.52751202322543,226.8607816544827 160.38070914242417,229.04814087809063 157.45867789536715,232.055756355403 155.6605048207566,235.61020585522056 156.78436299227178,239.16464976919815 157.00913462694734,243.53934230282903 157.00913462694734,246.8203561506234 156.33481972385198,250.64819962508045 154.761418283917,253.10895272321068 156.33481972385198,256.66336913825944 155.6605048207566,259.3975318111479 156.78436299227178,262.4051069342531 157.6834495300427,264.86584724183194 161.7293389486149,264.31901629362255 164.2018269263208,265.95950874197297 167.5734014417976,265.13926266669296 170.72020432259887,264.592431783909 172.5183773972094,263.4987696236931" stroke="#4DD2FF" stroke-dasharray="none" stroke-linecap="round" stroke-linejoin="round" stroke-width="0.5"><title>2013-09-22 10.9km</title><desc>9223370657048162807</desc></polyline></svg>