<?xml version="1.0" encoding="utf-8" ?>
<svg baseProfile="full" height="200mm" version="1.1" viewBox="0,0,200,200" width="200mm" xmlns="http://www.w3.org/2000/svg" xmlns:ev="http://www.w3.org/2001/xml-events" xmlns:xlink="http://www.w3.org/1999/xlink"><defs /><rect fill="#1a1a1a" height="200" width="200" x="0" y="0" /><rect fill="#1a1a1a" height="200" width="180" x="10" y="0" /><text alignment-baseline="middle" fill="#e1ed5e" style="dominant-baseline: central; font-size:9.0px; font-family:Arial;" text-anchor="middle" x="100.0" y="100.0">2019</text><line stroke="#e1ed5e" stroke-width="0.3" x1="100.0" x2="100.0" y1="15.0" y2="10.0" /><path d="M 100.0 14.0 a86.0,86.0 0 0,1 42.46469731375804,11.215312516191453" fill="none" id="id73" stroke="none" /><text fill="#e1ed5e" style="font-size:6.75px; font-family:Arial;" text-anchor="middle"><textPath startOffset="22.20632615414155" xlink:href="#id73">January</textPath></text><path d="M 107.76421540070413 80.48803036053334 l 9.869312647489146 -24.802213591697676 a47.693690849751036,47.693690849751036 0 0,0 0.760183221251257,0.3100978230123495 l -10.29477973832879 24.62865488250175" fill="red" stroke="none" /><path d="M 108.09893153111575 80.62456947434976 l 12.539992352025932 -29.99997588266947 a53.51538037836277,53.51538037836277 0 0,0 0.8468585765599721,0.3625806467373455 l -13.054534686376218 29.779675707969332" fill="red" stroke="none" /><path d="M 108.76106565485865 80.91482961587045 l 13.484085072143356 -29.37383090300626 a53.32092963005868,53.32092963005868 0 0,0 0.8308461889864793,0.3900934261602499 l -13.987709472429433 29.13737249420601" fill="red" stroke="none" /><path d="M 109.08828744355905 81.06846463323043 l 27.264862330677165 -56.79460610030869 a84.0,84.0 0 0,0 1.2981149319582728,0.6369793594606721 l -28.23844852964587 56.31687158071319" fill="red" stroke="none" /><path d="M 109.41281617654863 81.2277094730956 l 14.440290679716517 -28.7987491573413 a53.21629941415019,53.21629941415019 0 0,0 0.8153231536114036,0.41764018660285473 l -14.933874320916676 28.545916445425945" fill="red" stroke="none" /><line stroke="#e1ed5e" stroke-width="0.3" x1="143.23703022742887" x2="145.7803849466894" y1="26.81831364943548" y2="22.513508569990506" /><path d="M 143.74570117128098 25.957352633546492 a86.0,86.0 0 0,1 28.547481713284135,27.462654790039103" fill="none" id="id74" stroke="none" /><text fill="#e1ed5e" style="font-size:6.75px; font-family:Arial;" text-anchor="middle"><textPath startOffset="19.985693538727396" xlink:href="#id74">February</textPath></text><line stroke="#e1ed5e" stroke-width="0.3" x1="172.23445277983987" x2="176.4835382374775" y1="55.19839476539836" y2="52.563006222186495" /><path d="M 173.08426987136738 54.67131705675599 a86.0,86.0 0 0,1 12.851231095245387,41.99856678651699" fill="none" id="id75" stroke="none" /><text fill="#e1ed5e" style="font-size:6.75px; font-family:Arial;" text-anchor="middle"><textPath startOffset="22.20632615414155" xlink:href="#id75">March</textPath></text><path d="M 120.87857604477298 97.74499172005257 l 31.8757311861131 -3.4427653303520627 a53.06111151799353,53.06111151799353 0 0,0 0.09026168656754911,0.9089228657639532 l -31.930269998362878 2.8935669338836743" fill="red" stroke="none" /><line stroke="#e1ed5e" stroke-width="0.3" x1="184.98032266829074" x2="189.97916517819016" y1="98.17113171792111" y2="98.06355123074" /><path d="M 185.9800911702706 98.14961562048488 a86.0,86.0 0 0,1 -9.607161424134198,41.387399972396054" fill="none" id="id76" stroke="none" /><text fill="#e1ed5e" style="font-size:6.75px; font-family:Arial;" text-anchor="middle"><textPath startOffset="21.466115282336823" xlink:href="#id76">April</textPath></text><line stroke="#e1ed5e" stroke-width="0.3" x1="174.80103733775053" x2="179.2010983576182" y1="140.37084112569926" y2="142.7455964860345" /><path d="M 175.68104954172406 140.8457921977663 a86.0,86.0 0 0,1 -30.038265399797805,32.042727171017184" fill="none" id="id77" stroke="none" /><text fill="#e1ed5e" style="font-size:6.75px; font-family:Arial;" text-anchor="middle"><textPath startOffset="22.206326154141568" xlink:href="#id77">May</textPath></text><path d="M 118.30583269289576 110.29060199501025 l 23.877211782408168 13.422546099128752 a48.3913487489245,48.3913487489245 0 0,0 -0.4144327369518151,0.7225984095148464 l -23.64262704930397 -13.831564354501914" fill="red" stroke="none" /><path d="M 111.45004920935366 117.60387380957326 l 8.29811001738888 12.757926095613302 a36.21917567156055,36.21917567156055 0 0,0 -0.5255543781896946,0.33543366990544093 l -8.077273837152255 -12.89887419434255" fill="red" stroke="none" /><line stroke="#e1ed5e" stroke-width="0.3" x1="143.8653032363475" x2="146.44561519142675" y1="172.8068346515853" y2="177.08958963109032" /><path d="M 144.38136562736335 173.6633856474863 a86.0,86.0 0 0,1 -40.68145358897372,12.25698825130547" fill="none" id="id78" stroke="none" /><text fill="#e1ed5e" style="font-size:6.75px; font-family:Arial;" text-anchor="middle"><textPath startOffset="21.466115282336833" xlink:href="#id78">June</textPath></text><path d="M 107.93186726928326 119.44442032107085 l 5.9387637073706 14.558465717249645 a36.72316248126678,36.72316248126678 0 0,0 -0.5873588713594093,0.233722216619522 l -5.687283759969325 -14.658534778275236" fill="red" stroke="none" /><path d="M 105.88484417918355 120.15858648285463 l 8.993059515028998 30.805805975362652 a53.091631327069415,53.091631327069415 0 0,0 -0.8794725606270741,0.24854773044717515 l -8.461455786297318 -30.956042499148346" fill="red" stroke="none" /><line stroke="#e1ed5e" stroke-width="0.3" x1="102.19456741930631" x2="102.32365962044197" y1="184.97166512339345" y2="189.96999836594603" /><path d="M 102.22038585953345 185.97133177190398 a86.0,86.0 0 0,1 -42.740103519485714,-10.115201625700543" fill="none" id="id79" stroke="none" /><text fill="#e1ed5e" style="font-size:6.75px; font-family:Arial;" text-anchor="middle"><textPath startOffset="22.20632615414155" xlink:href="#id79">July</textPath></text><path d="M 91.07499286063937 119.00905698771935 l -12.461772798094824 26.541889052647335 a50.32179489312304,50.32179489312304 0 0,0 -0.7809159751980435,-0.37488712428072674 l 12.916801441293108 -26.323447651867045" fill="red" stroke="none" /><line stroke="#e1ed5e" stroke-width="0.3" x1="58.666819895761336" x2="56.23545636021788" y1="174.27360380694188" y2="178.64263932499728" /><path d="M 58.180547188652646 175.14741091055294 a86.0,86.0 0 0,1 -31.652253787137756,-30.449443065178592" fill="none" id="id80" stroke="none" /><text fill="#e1ed5e" style="font-size:6.75px; font-family:Arial;" text-anchor="middle"><textPath startOffset="22.20632615414155" xlink:href="#id80">August</textPath></text><line stroke="#e1ed5e" stroke-width="0.3" x1="26.63291911575756" x2="22.317208475507996" y1="142.92168965132927" y2="145.44649492493687" /><path d="M 25.769776987707644 143.4266507060508 a86.0,86.0 0 0,1 -11.730757126820373,-40.83630448921669" fill="none" id="id81" stroke="none" /><text fill="#e1ed5e" style="font-size:6.75px; font-family:Arial;" text-anchor="middle"><textPath startOffset="21.46611528233685" xlink:href="#id81">September</textPath></text><path d="M 81.18737489456691 109.33194174019688 l -26.109385177271577 12.951475936034672 a50.14516637895234,50.14516637895234 0 0,0 -0.37691672425860534,-0.7765600910187425 l 26.3284551581449 -12.500126889050646" fill="red" stroke="none" /><path d="M 81.02952815118164 109.00673069616217 l -23.260891274430907 11.043720215876295 a46.74942366515124,46.74942366515124 0 0,0 -0.3388785204735677,-0.7299141850515903 l 23.447544411744303 -10.641685963545877" fill="red" stroke="none" /><path d="M 79.23777060512086 103.15116336523772 l -32.263199475023235 4.896709804011968 a53.63268005037047,53.63268005037047 0 0,0 -0.13067461768096778,-0.9139379717072147 l 32.342708143720806 -4.340626360324352" fill="red" stroke="none" /><path d="M 79.18660465613746 102.79330883721812 l -31.879158314745883 4.278414606193212 a53.16497421729293,53.16497421729293 0 0,0 -0.1139211238432578,-0.9080634450243166 l 31.948080947835987 -3.729033406881486" fill="red" stroke="none" /><path d="M 79.1416061653843 102.43462659150553 l -37.87729984267134 4.4211017464996 a59.13444616124026,59.13444616124026 0 0,0 -0.10930776676139545,-1.0120541644598133 l 37.947789910933786 -3.7684512601550053" fill="red" stroke="none" /><path d="M 79.10278846688536 102.07522291339032 l -32.08548151603818 3.1862876213762323 a53.243302450620085,53.243302450620085 0 0,0 -0.0827182970472983,-0.912789515112427 l 32.135574409362555 -2.633516717715239" fill="red" stroke="none" /><path d="M 79.07016306316243 101.71520430193888 l -22.992361178402412 1.884228573970298 a44.06943843870224,44.06943843870224 0 0,0 -0.055450772441939696,-0.7565817341264006 l 23.021388509508686 -1.4881737033471367" fill="red" stroke="none" /><line stroke="#e1ed5e" stroke-width="0.3" x1="15.007084014347285" x2="10.007500721073583" y1="101.09737516637583" y2="101.16192664675087" /><path d="M 14.007167355692545 101.11028546245083 a86.0,86.0 0 0,1 10.666146001902534,-42.60595125391555" fill="none" id="id82" stroke="none" /><text fill="#e1ed5e" style="font-size:6.75px; font-family:Arial;" text-anchor="middle"><textPath startOffset="22.20632615414155" xlink:href="#id82">October</textPath></text><path d="M 80.2630227832202 92.82701384747504 l -15.769384830702386 -5.73104877115121 a37.77851060005328,37.77851060005328 0 0,0 0.22738239967092183,-0.6092717837014199 l 15.668397842529837 6.001643691881972" fill="red" stroke="none" /><path d="M 81.26839172434947 90.50648371742162 l -28.57548829424244 -14.482571886614856 a53.035970715827446,53.035970715827446 0 0,0 0.419718001722236,-0.8107615857706024 l 28.32196085936009 14.972306194645794" fill="red" stroke="none" /><line stroke="#e1ed5e" stroke-width="0.3" x1="26.266209847984243" x2="21.928928074336255" y1="57.711370442889674" y2="55.22380399835377" /><path d="M 25.398753493254645 57.213857153982495 a86.0,86.0 0 0,1 29.58750427330803,-30.492523968695096" fill="none" id="id83" stroke="none" /><text fill="#e1ed5e" style="font-size:6.75px; font-family:Arial;" text-anchor="middle"><textPath startOffset="21.46611528233685" xlink:href="#id83">November</textPath></text><path d="M 82.54541684631803 88.32363383020206 l -27.871123035819963 -18.64458379007897 a54.53237247769817,54.53237247769817 0 0,0 0.5286408031189849,-0.7757151477281892 l 27.546057767032238 19.121576961077572" fill="red" stroke="none" /><path d="M 82.7489923806493 88.02491185347247 l -27.51655408201702 -19.10109646298143 a54.49645704603233,54.49645704603233 0 0,0 0.5415582309955699,-0.7659957117045645 l 27.18368323121757 19.57191867501778" fill="red" stroke="none" /><path d="M 82.95767976084542 87.72973835380427 l -27.43852044003224 -19.75539834125232 a54.810474228552636,54.810474228552636 0 0,0 0.5578594080237936,-0.7609196056094487 l 27.094398419494812 20.22478039053327" fill="red" stroke="none" /><path d="M 83.17141714833178 87.43820079747576 l -30.276119287434835 -22.599795507007066 a58.7808702396533,58.7808702396533 0 0,0 0.6122281226655633,-0.8056204448540052 l 29.882615224545162 23.117600727742097" fill="red" stroke="none" /><path d="M 83.39014120810768 87.1503855733568 l -25.697789453148605 -19.880162151119542 a53.48995583150524,53.48995583150524 0 0,0 0.5696576357583272,-0.7234073477744295 l 25.351777736796304 20.31956189284702" fill="red" stroke="none" /><path d="M 83.6137871275137 86.86637796730984 l -25.71423535514692 -20.610073275759607 a53.95446889773932,53.95446889773932 0 0,0 0.5870798810643244,-0.7196905170783405 l 25.355656982006202 21.049647962446027" fill="red" stroke="none" /><path d="M 83.84228863543731 86.58626213691792 l -25.224490527739956 -20.940756771468564 a53.783993297733716,53.783993297733716 0 0,0 0.5974873714590915,-0.7072365905893704 l 24.86029254279374 21.37185231168705" fill="red" stroke="none" /><path d="M 84.07557802195018 86.31012108654704 l -25.100441189495605 -21.578302875425546 a54.100684326625725,54.100684326625725 0 0,0 0.6131620502735027,-0.7009502192404815 l 24.72528727564426 22.00716865086897" fill="red" stroke="none" /><path d="M 84.31358615837235 86.03803664274999 l -25.019367018953346 -22.268919401655292 a54.49438008601607,54.49438008601607 0 0,0 0.6296860894551504,-0.6953151073105437 l 24.63233728888215 22.696287296235393" fill="red" stroke="none" /><line stroke="#e1ed5e" stroke-width="0.3" x1="56.762969772571076" x2="54.21961505331055" y1="26.818313649435495" y2="22.513508569990535" /><path d="M 56.25429882871897 25.957352633546506 a86.0,86.0 0 0,1 42.265352541879196,-11.944610805530505" fill="none" id="id84" stroke="none" /><text fill="#e1ed5e" style="font-size:6.75px; font-family:Arial;" text-anchor="middle"><textPath startOffset="22.20632615414155" xlink:href="#id84">December</textPath></text></svg>