<?xml version="1.0" encoding="utf-8" ?>
<svg baseProfile="full" height="200mm" version="1.1" viewBox="0,0,200,200" width="200mm" xmlns="http://www.w3.org/2000/svg" xmlns:ev="http://www.w3.org/2001/xml-events" xmlns:xlink="http://www.w3.org/1999/xlink"><defs /><rect fill="#1a1a1a" height="200" width="200" x="0" y="0" /><rect fill="#1a1a1a" height="200" width="180" x="10" y="0" /><text alignment-baseline="middle" fill="#e1ed5e" style="dominant-baseline: central; font-size:9.0px; font-family:Arial;" text-anchor="middle" x="100.0" y="100.0">2017</text><line stroke="#e1ed5e" stroke-width="0.3" x1="100.0" x2="100.0" y1="15.0" y2="10.0" /><path d="M 100.0 14.0 a86.0,86.0 0 0,1 42.46469731375804,11.215312516191453" fill="none" id="id49" stroke="none" /><text fill="#e1ed5e" style="font-size:6.75px; font-family:Arial;" text-anchor="middle"><textPath startOffset="22.20632615414155" xlink:href="#id49">January</textPath></text><path d="M 100.36148047927253 79.00311137660856 l 0.11768927226815379 -6.836077419603594 a27.837090408325835,27.837090408325835 0 0,0 0.4790277632019704,0.012371873853944367 l -0.235343670664992 6.83303875360729" fill="red" stroke="none" /><path d="M 101.44485096284872 79.0497635885617 l 1.6140939535419332 -23.404247764284648 a44.459840423644906,44.459840423644906 0 0,0 0.763036317526971,0.05922630376162727 l -2.0167204604312454 23.372996198334555" fill="red" stroke="none" /><line stroke="#e1ed5e" stroke-width="0.3" x1="143.23703022742887" x2="145.7803849466894" y1="26.81831364943548" y2="22.513508569990506" /><path d="M 143.74570117128098 25.957352633546492 a86.0,86.0 0 0,1 28.547481713284135,27.462654790039103" fill="none" id="id50" stroke="none" /><text fill="#e1ed5e" style="font-size:6.75px; font-family:Arial;" text-anchor="middle"><textPath startOffset="19.985693538727396" xlink:href="#id50">February</textPath></text><path d="M 116.15771136456269 86.58626213691792 l 11.086055906016236 -9.203373206982603 a35.408425102637786,35.408425102637786 0 0,0 0.38527992995963195,0.4723076381187976 l -11.242834328052277 9.011181399255703" fill="red" stroke="none" /><line stroke="#e1ed5e" stroke-width="0.3" x1="172.23445277983987" x2="176.4835382374775" y1="55.19839476539836" y2="52.563006222186495" /><path d="M 173.08426987136738 54.67131705675599 a86.0,86.0 0 0,1 12.851231095245387,41.99856678651699" fill="none" id="id51" stroke="none" /><text fill="#e1ed5e" style="font-size:6.75px; font-family:Arial;" text-anchor="middle"><textPath startOffset="22.20632615414155" xlink:href="#id51">March</textPath></text><path d="M 119.97218684219823 93.5106431181261 l 21.48618283577992 -6.981284000206299 a43.591909594899235,43.591909594899235 0 0,0 0.22573243431035278,0.7156335037140997 l -21.60317075385848 6.610400330065779" fill="red" stroke="none" /><path d="M 120.94382443527127 98.46500227214037 l 29.076028496154752 -2.131016606576201 a50.15401627369215,50.15401627369215 0 0,0 0.05569342944082989,0.8615527029542954 l -29.108402516599998 1.6302048393688704" fill="red" stroke="none" /><line stroke="#e1ed5e" stroke-width="0.3" x1="184.98032266829074" x2="189.97916517819016" y1="98.17113171792111" y2="98.06355123074" /><path d="M 185.9800911702706 98.14961562048488 a86.0,86.0 0 0,1 -9.607161424134198,41.387399972396054" fill="none" id="id52" stroke="none" /><text fill="#e1ed5e" style="font-size:6.75px; font-family:Arial;" text-anchor="middle"><textPath startOffset="21.466115282336823" xlink:href="#id52">April</textPath></text><line stroke="#e1ed5e" stroke-width="0.3" x1="174.80103733775053" x2="179.2010983576182" y1="140.37084112569926" y2="142.7455964860345" /><path d="M 175.68104954172406 140.8457921977663 a86.0,86.0 0 0,1 -30.038265399797805,32.042727171017184" fill="none" id="id53" stroke="none" /><text fill="#e1ed5e" style="font-size:6.75px; font-family:Arial;" text-anchor="middle"><textPath startOffset="22.206326154141568" xlink:href="#id53">May</textPath></text><line stroke="#e1ed5e" stroke-width="0.3" x1="143.8653032363475" x2="146.44561519142675" y1="172.8068346515853" y2="177.08958963109032" /><path d="M 144.38136562736335 173.6633856474863 a86.0,86.0 0 0,1 -40.68145358897372,12.25698825130547" fill="none" id="id54" stroke="none" /><text fill="#e1ed5e" style="font-size:6.75px; font-family:Arial;" text-anchor="middle"><textPath startOffset="21.466115282336833" xlink:href="#id54">June</textPath></text><path d="M 100.90346689309514 120.98055641714683 l 0.9749355451654425 22.640221091390142 a43.66120275678796,43.66120275678796 0 0,0 -0.7511382846397169,0.025870721279138205 l -0.5850769088510733 -22.653648611095377" fill="red" stroke="none" /><line stroke="#e1ed5e" stroke-width="0.3" x1="102.19456741930631" x2="102.32365962044197" y1="184.97166512339345" y2="189.96999836594603" /><path d="M 102.22038585953345 185.97133177190398 a86.0,86.0 0 0,1 -42.740103519485714,-10.115201625700543" fill="none" id="id55" stroke="none" /><text fill="#e1ed5e" style="font-size:6.75px; font-family:Arial;" text-anchor="middle"><textPath startOffset="22.20632615414155" xlink:href="#id55">July</textPath></text><path d="M 98.73552117531835 120.96189622390904 l -1.3777254445294282 22.839241930789726 a43.88075827794279,43.88075827794279 0 0,0 -0.7535731200135428,-0.05197081439300767 l 1.770661325321901 -22.812142771880435" fill="red" stroke="none" /><line stroke="#e1ed5e" stroke-width="0.3" x1="58.666819895761336" x2="56.23545636021788" y1="174.27360380694188" y2="178.64263932499728" /><path d="M 58.180547188652646 175.14741091055294 a86.0,86.0 0 0,1 -31.652253787137756,-30.449443065178592" fill="none" id="id56" stroke="none" /><text fill="#e1ed5e" style="font-size:6.75px; font-family:Arial;" text-anchor="middle"><textPath startOffset="22.20632615414155" xlink:href="#id56">August</textPath></text><line stroke="#e1ed5e" stroke-width="0.3" x1="26.63291911575756" x2="22.317208475507996" y1="142.92168965132927" y2="145.44649492493687" /><path d="M 25.769776987707644 143.4266507060508 a86.0,86.0 0 0,1 -11.730757126820373,-40.83630448921669" fill="none" id="id57" stroke="none" /><text fill="#e1ed5e" style="font-size:6.75px; font-family:Arial;" text-anchor="middle"><textPath startOffset="21.46611528233685" xlink:href="#id57">September</textPath></text><path d="M 80.0844068197444 106.66101706037122 l -23.354214433648675 7.811106571926128 a45.6258546590942,45.6258546590942 0 0,0 -0.24270292949653272,-0.7469628105356881 l 23.48520961416146 -7.407944861412637" fill="red" stroke="none" /><path d="M 79.97269907076064 106.31721596034903 l -23.96037361761698 7.557825948086186 a46.12409673913394,46.12409673913394 0 0,0 -0.23231878939703166,-0.7592312456246976 l 24.086919179520144 -7.144267729909441" fill="red" stroke="none" /><path d="M 79.86692584326677 105.97154293290107 l -26.940563998703816 7.99066914979926 a49.10061889051217,49.10061889051217 0 0,0 -0.23336206184392222,-0.8123639515050607 l 27.07411869743384 -7.525747722789602" fill="red" stroke="none" /><path d="M 79.76711848015287 105.62410040840567 l -23.01152727578377 6.3964759454960545 a44.88399656852785,44.88399656852785 0 0,0 -0.20050733616965583,-0.7461623884471938 l 23.118222688295198 -5.999422623873322" fill="red" stroke="none" /><path d="M 79.67330655649465 105.27499134158121 l -18.50927994404132 4.803353369552432 a40.12238603416637,40.12238603416637 0 0,0 -0.16772816844217925,-0.6699906571015729 l 18.589219426778556 -4.484034873053467" fill="red" stroke="none" /><path d="M 79.58551787078972 104.9243191809786 l -22.017737917313394 5.31105165743337 a43.64923956126178,43.64923956126178 0 0,0 -0.16989829234757908,-0.7319173967819448 l 22.10589677559153 -4.931265603302851" fill="red" stroke="none" /><path d="M 79.50377843672027 104.57218783832718 l -22.35667033673214 4.987206832415796 a43.906176907869494,43.906176907869494 0 0,0 -0.1582001467461289,-0.7390584180571912 l 22.43920452220271 -4.601634594942441" fill="red" stroke="none" /><path d="M 79.4281124754447 104.21870165774334 l -23.090344980031965 4.7351647498973115 a44.57086796249891,44.57086796249891 0 0,0 -0.14765706054684619,-0.7529001705887219 l 23.16843197355448 -4.337000852240635" fill="red" stroke="none" /><path d="M 79.35854240842038 103.8639653848113 l -22.455557621538137 4.203554761639234 a43.845610972970704,43.845610972970704 0 0,0 -0.13248380971651888,-0.7430395622822061 l 22.524587873593845 -3.8163964486238138" fill="red" stroke="none" /><path d="M 79.29508885075956 103.50808413554451 l -22.596225597895277 3.8285342048458477 a43.91826968662016,43.91826968662016 0 0,0 -0.11987229380594153,-0.74644488795665 l 22.65877964606251 -3.4390100871959843" fill="red" stroke="none" /><path d="M 79.23777060512086 103.15116336523772 l -22.533227722133564 3.4199545890798912 a43.791279932660586,43.791279932660586 0 0,0 -0.10669630452154015,-0.7462337053179242 l 22.588758077671702 -3.0315754117815668" fill="red" stroke="none" /><path d="M 79.18660465613746 102.79330883721812 l -36.35492306230429 4.879094745887521 a57.68086689822654,57.68086689822654 0 0,0 -0.12359771217874434,-0.985195374938332 l 36.43352228372988 -4.2525816166617805" fill="red" stroke="none" /><path d="M 79.1416061653843 102.43462659150553 l -23.02603994215748 2.6876378682240936 a44.18236210416324,44.18236210416324 0 0,0 -0.08166941005384569,-0.7561573070502232 l 23.06889165371238 -2.2908842392890882" fill="red" stroke="none" /><path d="M 79.10278846688536 102.07522291339032 l -23.700511042164322 2.353607968021028 a44.817088279781075,44.817088279781075 0 0,0 -0.06962740946732442,-0.7683326615134815 l 23.73751304790872 -1.9452939179589805" fill="red" stroke="none" /><path d="M 79.07016306316243 101.71520430193888 l -23.77480282707991 1.9483498227825964 a44.854503065426954,44.854503065426954 0 0,0 -0.05643858716141426,-0.7700596811511816 l 23.80481797290566 -1.5388170051346541" fill="red" stroke="none" /><path d="M 79.04373962182676 101.35467743843564 l -23.243828840383717 1.502552933810813 a44.2923430440125,44.2923430440125 0 0,0 -0.042633803840987985,-0.7612552073503548 l 23.26624899511224 -1.1022260101250207" fill="red" stroke="none" /><path d="M 79.0235259727143 100.99374915477108 l -22.86149529693211 1.0830510217578735 a43.88713539802174,43.88713539802174 0 0,0 -0.02925363289727944,-0.7549062794829945 l 22.87675106268059 -0.6893674952608821" fill="red" stroke="none" /><path d="M 79.0095281055655 100.63252640178507 l -23.35405625968852 0.7037505991918038 a44.36465725591881,44.36465725591881 0 0,0 -0.01643169157798408,-0.7635161405366387 l 23.36271001395151 -0.3016446428650362" fill="red" stroke="none" /><line stroke="#e1ed5e" stroke-width="0.3" x1="15.007084014347285" x2="10.007500721073583" y1="101.09737516637583" y2="101.16192664675087" /><path d="M 14.007167355692545 101.11028546245083 a86.0,86.0 0 0,1 10.666146001902534,-42.60595125391555" fill="none" id="id58" stroke="none" /><text fill="#e1ed5e" style="font-size:6.75px; font-family:Arial;" text-anchor="middle"><textPath startOffset="22.20632615414155" xlink:href="#id58">October</textPath></text><path d="M 79.16333360222342 97.38593545837743 l -22.87428110918172 -2.869693549876063 a44.0535870816684,44.0535870816684 0 0,0 0.10087012965432102,-0.7515996294104312 l 22.821494980469566 3.263011521351154" fill="red" stroke="none" /><path d="M 79.26566170972629 96.67025291283419 l -22.826783159920573 -3.6657747969591816 a44.119254622328434,44.119254622328434 0 0,0 0.1268704598932243,-0.7487966360147834 l 22.760300838507128 4.058157221289793" fill="red" stroke="none" /><path d="M 79.32604984820605 96.31383870115002 l -22.6602262719901 -4.040313945506223 a44.01760177507732,44.01760177507732 0 0,0 0.1394189960615837,-0.7447818518193974 l 22.587321552018658 4.429773874788193" fill="red" stroke="none" /><path d="M 79.3925641242962 95.95851677861259 l -23.097905621569257 -4.529908455462994 a44.53791228460578,44.53791228460578 0 0,0 0.1540178356468707,-0.7510456649351409 l 23.01650849000739 4.926829776561537" fill="red" stroke="none" /><path d="M 79.46518482838121 95.60439243477599 l -22.6284244505152 -4.843757923921138 a44.14103679479861,44.14103679479861 0 0,0 0.1654355885381066,-0.741615304757307 l 22.54169447497506 5.232551398228404" fill="red" stroke="none" /><path d="M 79.54389044137918 95.25157060432595 l -25.996903441887106 -6.03460106361883 a47.68811343208491,47.68811343208491 0 0,0 0.19249465888011733,-0.7980146349684061 l 25.889175982746174 6.481200930246632" fill="red" stroke="none" /><path d="M 79.62865764111835 94.90015583598534 l -24.20619812494831 -6.059877452635238 a45.95319904150985,45.95319904150985 0 0,0 0.19870090644109384,-0.7656756477185153 l 24.098300886636906 6.475649525902617" fill="red" stroke="none" /><path d="M 79.71946130924805 94.55025226153421 l -24.416964262898624 -6.561280141567973 a46.28316714558923,46.28316714558923 0 0,0 0.21337251808482877,-0.7676144742276426 l 24.300404974247435 6.980605919214558" fill="red" stroke="none" /><path d="M 79.81627453868168 94.20196356495316 l -23.433186073690404 -6.731486063109336 a45.38087599291775,45.38087599291775 0 0,0 0.2221374493322312,-0.7489370487068934 l 23.313842727246467 7.133852498562769" fill="red" stroke="none" /><path d="M 79.91906864156998 93.8553929516997 l -23.96045824569059 -7.331711761226109 a46.05708595773226,46.05708595773226 0 0,0 0.23849788245332604,-0.7561034628005961 l 23.83070487946906 7.743065390453119" fill="red" stroke="none" /><path d="M 80.02781315780177 93.51064311812611 l -24.126734413053494 -7.839251216581344 a46.36834982955517,46.36834982955517 0 0,0 0.25317716546637964,-0.7569674997466034 l 23.988219953815346 8.25339181925027" fill="red" stroke="none" /><path d="M 80.14247586403 93.16781622104843 l -27.99706545590707 -9.632676015214114 a50.60783884981182,50.60783884981182 0 0,0 0.29050566953421175,-0.8212986476874016 l 27.827106705563047 10.113172289328128" fill="red" stroke="none" /><path d="M 80.2630227832202 92.82701384747504 l -24.918746108743463 -9.056190257155533 a47.51336435848563,47.51336435848563 0 0,0 0.2859748209410901,-0.7662703423863719 l 24.759166699300746 9.483783736571247" fill="red" stroke="none" /><path d="M 80.38941819471856 92.48833698450439 l -22.632262910806993 -8.669091715488872 a45.23576851753308,45.23576851753308 0 0,0 0.2847838273369812,-0.724743777715662 l 22.479685533588324 9.057384498100296" fill="red" stroke="none" /><path d="M 80.52162464483688 92.15188598940014 l -22.606903805462913 -9.108642546253611 a45.37292491074625,45.37292491074625 0 0,0 0.2981180781058997,-0.7219165726472735 l 22.446764040470814 9.496433689354197" fill="red" stroke="none" /><path d="M 80.65960295795068 91.81776055985345 l -22.381849243919177 -9.46897052986274 a45.30243976379603,45.30243976379603 0 0,0 0.31001816480237343,-0.7155646677126287 l 22.215540369274123 9.852834342161966" fill="red" stroke="none" /><path d="M 80.803312248108 91.48605970444005 l -22.97069308901931 -10.187752805859255 a46.12853056235507,46.12853056235507 0 0,0 0.32816645656671756,-0.7230712869325322 l 22.79192431548924 10.581646101633858" fill="red" stroke="none" /><path d="M 80.95270993114464 91.15688171328213 l -21.460573794216245 -9.963537693658735 a44.66069126103376,44.66069126103376 0 0,0 0.3297273446374561,-0.694489878763199 l 21.28588825573704 10.331469988062466" fill="red" stroke="none" /><path d="M 81.43458229118936 90.18545643968196 l -22.2149969134038 -11.743880925203282 a46.12816800023221,46.12816800023221 0 0,0 0.3771348973109301,-0.6987736878527795 l 22.0095539168744 12.124535596388535" fill="red" stroke="none" /><path d="M 81.6062741919709 89.86733742301443 l -21.792655333418967 -12.00505136668339 a45.88053626427495,45.88053626427495 0 0,0 0.3870184006010398,-0.6884625499956264 l 21.582779291525497 12.3783974266138" fill="red" stroke="none" /><line stroke="#e1ed5e" stroke-width="0.3" x1="26.266209847984243" x2="21.928928074336255" y1="57.711370442889674" y2="55.22380399835377" /><path d="M 25.398753493254645 57.213857153982495 a86.0,86.0 0 0,1 29.58750427330803,-30.492523968695096" fill="none" id="id59" stroke="none" /><text fill="#e1ed5e" style="font-size:6.75px; font-family:Arial;" text-anchor="middle"><textPath startOffset="21.46611528233685" xlink:href="#id59">November</textPath></text><path d="M 81.78341655067845 89.55222093294921 l -21.194654378884923 -12.155795677555409 a45.433107514085485,45.433107514085485 0 0,0 0.3949225826402804,-0.6750507097682746 l 20.98227212177432 12.518825799677575" fill="red" stroke="none" /><path d="M 81.96595687620814 89.24020034530311 l -21.225143977226654 -12.663732434783935 a45.715923127283745,45.715923127283745 0 0,0 0.4090142724942085,-0.6723119209187258 l 21.00401390644623 13.027212128909735" fill="red" stroke="none" /><path d="M 82.15384107792192 88.93136811851018 l -20.8315620260581 -12.920253181069958 a45.512994894717664,45.512994894717664 0 0,0 0.41865974408846857,-0.6622191737929468 l 20.60607468572367 13.276920002577121" fill="red" stroke="none" /><path d="M 82.34701348167596 88.62581576622439 l -21.12410118635267 -13.610695188436816 a46.129239432259055,46.129239432259055 0 0,0 0.4358188719876332,-0.6637820418513232 l 20.886685679007115 13.972295294265807" fill="red" stroke="none" /><path d="M 82.54541684631803 88.32363383020206 l -26.25014029870078 -17.56021598668446 a52.582131834321814,52.582131834321814 0 0,0 0.5097350278308953,-0.7479732553430577 l 25.943980805201146 18.009467265297936" fill="red" stroke="none" /><path d="M 82.7489923806493 88.02491185347247 l -20.956295719782297 -14.547178576838157 a46.510522041725935,46.510522041725935 0 0,0 0.4621980474496077,-0.6537463601167544 l 20.70278505252881 14.905751437286698" fill="red" stroke="none" /><path d="M 82.95767976084542 87.72973835380427 l -19.271919970193007 -13.875546119331903 a44.74737205349743,44.74737205349743 0 0,0 0.45543744759976157,-0.621216166695182 l 19.030219910079612 14.205224729698585" fill="red" stroke="none" /><path d="M 83.17141714833178 87.43820079747576 l -19.173532955499716 -14.312201634143698 a44.9262090940462,44.9262090940462 0 0,0 0.4679258496852546,-0.6157355685342271 l 18.924331165590353 14.64012197855895" fill="red" stroke="none" /><path d="M 83.39014120810768 87.1503855733568 l -14.820274904908262 -11.465167802503133 a39.73741233459434,39.73741233459434 0 0,0 0.42319571982794413,-0.5374155879832748 l 14.620725104486347 11.718575784439457" fill="red" stroke="none" /><path d="M 83.6137871275137 86.86637796730984 l -19.0769999920998 -15.290299800423362 a45.44841910401166,45.44841910401166 0 0,0 0.4945253475243216,-0.6062296027295299 l 18.810976152499087 15.616413572760974" fill="red" stroke="none" /><path d="M 83.84228863543731 86.58626213691792 l -18.237566409677484 -15.140382790628331 a44.703164759039055,44.703164759039055 0 0,0 0.4966082800866776,-0.5878275653077969 l 17.974247516103684 15.452069305565244" fill="red" stroke="none" /><path d="M 84.07557802195018 86.31012108654704 l -29.169836213707974 -25.07667319048409 a59.46711430607829,59.46711430607829 0 0,0 0.6739836692568121,-0.7704798438183483 l 28.73386068087332 25.57506859050538" fill="red" stroke="none" /><path d="M 84.31358615837235 86.03803664274999 l -17.924925887155794 -15.954389635810042 a44.996781382328564,44.996781382328564 0 0,0 0.5199407216300751,-0.5741315311064796 l 17.647641524909673 16.260573954186075" fill="red" stroke="none" /><path d="M 84.5562425177563 85.77008943001954 l -17.317132467090204 -15.956042214371665 a44.547364184331975,44.547364184331975 0 0,0 0.5244554355452281,-0.5594524920418922 l 17.03990970957452 16.251764123291608" fill="red" stroke="none" /><path d="M 84.80347519578584 85.50635884689758 l -17.825954081291176 -17.001451647304844 a45.63359488633249,45.63359488633249 0 0,0 0.5470288861230724,-0.5637613523464492 l 17.530660931464986 17.305777195201415" fill="red" stroke="none" /><path d="M 85.05521093208273 85.24692304244772 l -17.484632845432817 -17.260339558553923 a45.56891750599056,45.56891750599056 0 0,0 0.5558631090554184,-0.5534760562124201 l 17.184933936210086 17.558751465416453" fill="red" stroke="none" /><path d="M 85.31137513191541 84.99185889309783 l -16.724439191667166 -17.088239748550187 a44.910558420490794,44.910558420490794 0 0,0 0.5571406193933733,-0.5359688344344852 l 16.427815328661364 17.373591669746986" fill="red" stroke="none" /><path d="M 85.83668400450813 84.49514656593479 l -35.86704589833766 -39.26434247062087 a74.18019905118504,74.18019905118504 0 0,0 0.9501742134625012,-0.8530757905025426 l 35.18586069727919 39.87591726989269" fill="red" stroke="none" /><path d="M 86.10567301691215 84.25364557470407 l -15.75970378319072 -17.860374360690933 a44.81934582724601,44.81934582724601 0 0,0 0.5828781564769401,-0.5054661935200676 l 15.449931828067006 18.12900554763068" fill="red" stroke="none" /><path d="M 86.37877921826538 84.01681056812374 l -15.516405150856448 -18.207005583555112 a44.92182854894524,44.92182854894524 0 0,0 0.5928450575407256,-0.496490686379228 l 15.200702556356612 18.471397427328153" fill="red" stroke="none" /><path d="M 86.65592168130627 83.78471172551755 l -15.100545903618702 -18.349690333142615 a44.76420884249091,44.76420884249091 0 0,0 0.5991936653130062,-0.48450627289014797 l 14.782448839741194 18.606902703296896" fill="red" stroke="none" /><path d="M 86.93701828274178 83.55741782278169 l -12.971366023922949 -16.327264051617785 a41.85271895791609,41.85271895791609 0 0,0 0.5679363038603816,-0.4432832936194048 l 12.688397164903142 16.548125734460413" fill="red" stroke="none" /><path d="M 87.22198572758235 83.33499621200491 l -13.815856956535287 -18.018551521894352 a43.70564032108775,43.70564032108775 0 0,0 0.6009605592936421,-0.4526310340409815 l 13.503650243483255 18.25369914544119" fill="red" stroke="none" /><path d="M 87.51073957382395 83.11751280151077 l -13.441604110353461 -18.16982764204263 a43.60131318310968,43.60131318310968 0 0,0 0.6072099168345728,-0.4411638280069168 l 13.126848877165106 18.398510704866215" fill="red" stroke="none" /><path d="M 87.80319425747018 82.90503203632743 l -23.223072782875143 -32.54931607682905 a60.98461062143832,60.98461062143832 0 0,0 0.8597925795058786,-0.6023396476678746 l 22.659349063785605 32.94424056726086" fill="red" stroke="none" /><path d="M 88.09926311788651 82.69761687909137 l -13.08888258066211 -19.029818344743017 a44.096597875970346,44.096597875970346 0 0,0 0.6291016055372989,-0.4247722123078463 l 12.759376280718271 19.252302469349527" fill="red" stroke="none" /><path d="M 88.39885842347998 82.49532879139004 l -12.797732096962244 -19.31017659732737 a44.16602829674494,44.16602829674494 0 0,0 0.6373220435265692,-0.4145319853756594 l 12.463443027651389 19.527607506862566" fill="red" stroke="none" /><path d="M 88.70189139769569 82.29822771554957 l -12.32023184657946 -19.3032255500981 a43.899839069116425,43.899839069116425 0 0,0 0.6404795192722879,-0.40106821621060446 l 11.986133174934931 19.512438107631638" fill="red" stroke="none" /><line stroke="#e1ed5e" stroke-width="0.3" x1="56.762969772571076" x2="54.21961505331055" y1="26.818313649435495" y2="22.513508569990535" /><path d="M 56.25429882871897 25.957352633546506 a86.0,86.0 0 0,1 42.265352541879196,-11.944610805530505" fill="none" id="id60" stroke="none" /><text fill="#e1ed5e" style="font-size:6.75px; font-family:Arial;" text-anchor="middle"><textPath startOffset="22.20632615414155" xlink:href="#id60">December</textPath></text><path d="M 89.3179101791058 81.91981866633112 l -11.788472213785903 -19.952810624683945 a44.17504539282939,44.17504539282939 0 0,0 0.6580046924938018,-0.3811587891565064 l 11.44327078882678 20.152773571230497" fill="red" stroke="none" /><path d="M 89.63071344664047 81.73862282372117 l -11.769097265539926 -20.72658741605563 a44.83491297154523,44.83491297154523 0 0,0 0.6743937607744004,-0.3752993977203239 l 11.41057941569348 20.92610221133614" fill="red" stroke="none" /><path d="M 89.94658935756843 81.56283822128135 l -16.45850446449354 -30.18359840658383 a55.37923765847177,55.37923765847177 0 0,0 0.8408544879471399,-0.4491553468263422 l 15.936504930018096 30.46243247991192" fill="red" stroke="none" /><path d="M 90.26544431104013 81.39251694778311 l -10.647895827137061 -20.35332145358489 a43.970315185876785,43.970315185876785 0 0,0 0.6736660842129703,-0.3450779336665503 l 10.295969255335327 20.533591912563942" fill="red" stroke="none" /><path d="M 90.58718382345135 81.22770947309562 l -9.661017802437808 -19.267287235971104 a42.55373801484177,42.55373801484177 0 0,0 0.6576147943774701,-0.32268872361132805 l 9.327931741049913 19.43073111971726" fill="red" stroke="none" /><path d="M 90.91171255644093 81.06846463323043 l -10.215979452037704 -21.28059631735238 a44.605719980262585,44.605719980262585 0 0,0 0.695045879914777,-0.32633336016774295 l 9.84815536082332 21.45329466016013" fill="red" stroke="none" /><path d="M 91.23893434514133 80.91482961587045 l -9.809834946219434 -21.36981718484866 a44.513867146556755,44.513867146556755 0 0,0 0.6991175886251809,-0.3136736832275529 l 9.44053523912748 21.53551119859274" fill="red" stroke="none" /><path d="M 91.90106846888425 80.62456947434976 l -8.140080354237298 -19.473872667127864 a42.10669620828778,42.10669620828778 0 0,0 0.6711328771074142,-0.273771951715093 l 7.8036636075415045 19.611105505026536" fill="red" stroke="none" /><path d="M 92.23578459929587 80.48803036053334 l -11.725156914428101 -29.4660688717569 a52.71322310051569,52.71322310051569 0 0,0 0.8459639815238926,-0.3282208819922644 l 11.216209767904532 29.663532457639718" fill="red" stroke="none" /><path d="M 92.57280143429618 80.3572730644239 l -7.269444901064019 -19.225515502463942 a41.55396009301096,41.55396009301096 0 0,0 0.6712303665566972,-0.24721980874891797 l 6.937432208734752 19.34779857901918" fill="red" stroke="none" /><path d="M 93.94186890950719 79.89281104454417 l -6.3197051872393635 -20.975364257470925 a42.90672452438312,42.90672452438312 0 0,0 0.7090025302574917,-0.2069772807116694 l 5.95771243925845 21.081039867101293" fill="red" stroke="none" /><path d="M 94.63758080256005 79.69619591428918 l -16.08725759231985 -60.91141225713247 a84.0,84.0 0 0,0 1.4011644452600023,-0.35718801532454725 l 15.036384258374849 61.17930326862588" fill="red" stroke="none" /><path d="M 94.98787191387505 79.60689891045804 l -4.939706379875564 -20.098435200872967 a41.696564851275994,41.696564851275994 0 0,0 0.6984697071290221,-0.16530521302628584 l 4.593012985784008 20.180486326040125" fill="red" stroke="none" /><path d="M 95.692805502759 79.44645832069477 l -3.6099417793733117 -17.226314917922082 a38.60050014351552,38.60050014351552 0 0,0 0.6514911362966914,-0.13068299303071504 l 3.3128842336094837 17.285901867030006" fill="red" stroke="none" /><path d="M 97.11714578562143 79.19881850522333 l -3.3966575019245835 -24.508519654143658 a45.74277304230321,45.74277304230321 0 0,0 0.7808624006130244,-0.10137835050052932 l 2.9742803728037015 24.563356327808325" fill="red" stroke="none" /><path d="M 97.47563105711357 79.15227682838746 l -2.2064103658565917 -18.22183426870978 a39.35493096742359,39.35493096742359 0 0,0 0.6732191230750029,-0.07564401260621287 l 1.8924245392718706 18.25711423478659" fill="red" stroke="none" /><path d="M 97.83486435360386 79.11191278185805 l -2.075360536045175 -20.021984284521743 a41.12925671862251,41.12925671862251 0 0,0 0.704827906404158,-0.0669319025168703 l 1.7304075025507806 20.054741731553793" fill="red" stroke="none" /><path d="M 98.19473922651362 79.07773832637324 l -1.91749022179028 -22.222956797227233 a43.30552795972535,43.30552795972535 0 0,0 0.7432255776918456,-0.05768860906969222 l 1.5346744547361002 22.252670668485386" fill="red" stroke="none" /><path d="M 98.55514903715128 79.0497635885617 l -1.4913989928427518 -21.625179542554793 a42.67654633938679,42.67654633938679 0 0,0 0.7333008354145342,-0.044234708949919176 l 1.1189361085885947 21.64764752088502" fill="red" stroke="none" /></svg>