<?xml version="1.0" encoding="utf-8" ?>
<svg baseProfile="full" height="200mm" version="1.1" viewBox="0,0,200,200" width="200mm" xmlns="http://www.w3.org/2000/svg" xmlns:ev="http://www.w3.org/2001/xml-events" xmlns:xlink="http://www.w3.org/1999/xlink"><defs /><rect fill="#1a1a1a" height="200" width="200" x="0" y="0" /><rect fill="#1a1a1a" height="200" width="180" x="10" y="0" /><text alignment-baseline="middle" fill="#e1ed5e" style="dominant-baseline: central; font-size:9.0px; font-family:Arial;" text-anchor="middle" x="100.0" y="100.0">2016</text><line stroke="#e1ed5e" stroke-width="0.3" x1="100.0" x2="100.0" y1="15.0" y2="10.0" /><path d="M 100.0 14.0 a86.0,86.0 0 0,1 42.35913384403234,11.155469271406648" fill="none" id="id37" stroke="none" /><text fill="#e1ed5e" style="font-size:6.75px; font-family:Arial;" text-anchor="middle"><textPath startOffset="22.145653131862478" xlink:href="#id37">January</textPath></text><line stroke="#e1ed5e" stroke-width="0.3" x1="143.13028292997686" x2="145.6673583964461" y1="26.7553504044142" y2="22.446841604673864" /><path d="M 143.63769802327073 25.89364864446614 a86.0,86.0 0 0,1 29.32050498858742,28.57503671076993" fill="none" id="id38" stroke="none" /><text fill="#e1ed5e" style="font-size:6.75px; font-family:Arial;" text-anchor="middle"><textPath startOffset="20.669276256404974" xlink:href="#id38">February</textPath></text><line stroke="#e1ed5e" stroke-width="0.3" x1="172.87174338648825" x2="177.1583165268699" y1="56.24261187166439" y2="53.66864786411523" /><path d="M 173.72905801456457 55.72781907015455 a86.0,86.0 0 0,1 12.242430191666344,42.057860355516425" fill="none" id="id39" stroke="none" /><text fill="#e1ed5e" style="font-size:6.75px; font-family:Arial;" text-anchor="middle"><textPath startOffset="22.145653131862474" xlink:href="#id39">March</textPath></text><line stroke="#e1ed5e" stroke-width="0.3" x1="184.99686870605535" x2="189.99668451229388" y1="99.2704041080226" y2="99.22748670261217" /><path d="M 185.99683186730306 99.26182062694052 a86.0,86.0 0 0,1 -10.086455211305974,41.156179273409016" fill="none" id="id40" stroke="none" /><text fill="#e1ed5e" style="font-size:6.75px; font-family:Arial;" text-anchor="middle"><textPath startOffset="21.40746469413373" xlink:href="#id40">April</textPath></text><path d="M 120.99922638620191 100.18025310272382 l 28.117010818446964 0.2413507215044177 a49.118046652202466,49.118046652202466 0 0,0 -0.014474780545093026,0.8430833998743535 l -28.108724606303202 -0.7239810373478424" fill="red" stroke="none" /><line stroke="#e1ed5e" stroke-width="0.3" x1="174.33088141563837" x2="178.70328620479359" y1="141.23008692659167" y2="143.65538615756765" /><path d="M 175.20536237346943 141.71514677278685 a86.0,86.0 0 0,1 -30.301960400862466,31.631185727798858" fill="none" id="id41" stroke="none" /><text fill="#e1ed5e" style="font-size:6.75px; font-family:Arial;" text-anchor="middle"><textPath startOffset="22.145653131862474" xlink:href="#id41">May</textPath></text><line stroke="#e1ed5e" stroke-width="0.3" x1="143.1302829299769" x2="145.66735839644613" y1="173.24464959558577" y2="177.55315839532614" /><path d="M 143.63769802327073 174.10635135553383 a86.0,86.0 0 0,1 -40.68552437913181,11.842963189579606" fill="none" id="id42" stroke="none" /><text fill="#e1ed5e" style="font-size:6.75px; font-family:Arial;" text-anchor="middle"><textPath startOffset="21.407464694133747" xlink:href="#id42">June</textPath></text><line stroke="#e1ed5e" stroke-width="0.3" x1="101.45913802915013" x2="101.54496967792366" y1="184.9874750549273" y2="189.98673829345242" /><path d="M 101.47630435890484 185.9873277026323 a86.0,86.0 0 0,1 -42.54439059252881,-10.42667462771756" fill="none" id="id43" stroke="none" /><text fill="#e1ed5e" style="font-size:6.75px; font-family:Arial;" text-anchor="middle"><textPath startOffset="22.145653131862474" xlink:href="#id43">July</textPath></text><path d="M 97.48249496171623 120.84855314841334 l -5.515472974353271 45.676028327964005 a67.00782548597348,67.00782548597348 0 0,0 -1.1407992246717524,-0.147699299229908 l 6.298750020915818 -45.5746174325337" fill="red" stroke="none" /><path d="M 93.27111125876986 119.89276391827306 l -16.53935275226287 48.89565756167593 a72.61720176309892,72.61720176309892 0 0,0 -1.1774160976465355,-0.409566438062112 l 17.37627462195443 -48.60453269104523" fill="red" stroke="none" /><path d="M 92.93061703081489 119.77432235084164 l -6.881482814563804 19.24873217650102 a41.44183201500792,41.44183201500792 0 0,0 -0.667826929962206,-0.2452352990489666 l 7.210898896180129 -19.127766028443332" fill="red" stroke="none" /><path d="M 91.26138138417905 119.09545874513695 l -20.07324910215347 43.863671932891535 a69.2385431470877,69.2385431470877 0 0,0 -1.0765317034580926,-0.5038711944906968 l 20.823269519483052 -43.512624506830306" fill="red" stroke="none" /><path d="M 90.93487009805054 118.94263497670748 l -20.72087265747964 43.2986544478603 a69.00133373858168,69.00133373858168 0 0,0 -1.0640654627850976,-0.520487738848515 l 21.461098369526805 -42.93657295891457" fill="red" stroke="none" /><path d="M 90.6110303473126 118.78422872680471 l -22.440693656039034 44.8964197368066 a71.19236233679092,71.19236233679092 0 0,0 -1.0884728365831802,-0.5557819860353871 l 23.208093714335796 -44.50457979909837" fill="red" stroke="none" /><line stroke="#e1ed5e" stroke-width="0.3" x1="58.13341422392154" x2="55.67067388415222" y1="173.97424548756322" y2="178.32567169271397" /><path d="M 57.64086615596768 174.84453072859336 a86.0,86.0 0 0,1 -31.369924170532247,-30.572349798747897" fill="none" id="id44" stroke="none" /><text fill="#e1ed5e" style="font-size:6.75px; font-family:Arial;" text-anchor="middle"><textPath startOffset="22.145653131862474" xlink:href="#id44">August</textPath></text><line stroke="#e1ed5e" stroke-width="0.3" x1="26.387840678322732" x2="22.057713659400548" y1="142.50000000000003" y2="145.00000000000006" /><path d="M 25.521815274538298 143.00000000000003 a86.0,86.0 0 0,1 -11.493303480769221,-40.785679425670985" fill="none" id="id45" stroke="none" /><text fill="#e1ed5e" style="font-size:6.75px; font-family:Arial;" text-anchor="middle"><textPath startOffset="21.40746469413373" xlink:href="#id45">September</textPath></text><line stroke="#e1ed5e" stroke-width="0.3" x1="15.003131293944662" x2="10.003315487706104" y1="100.72959589197737" y2="100.7725132973878" /><path d="M 14.003168132696942 100.73817937305945 a86.0,86.0 0 0,1 10.791469493833604,-42.45332614584628" fill="none" id="id46" stroke="none" /><text fill="#e1ed5e" style="font-size:6.75px; font-family:Arial;" text-anchor="middle"><textPath startOffset="22.145653131862435" xlink:href="#id46">October</textPath></text><line stroke="#e1ed5e" stroke-width="0.3" x1="26.387840678322718" x2="22.05771365940052" y1="57.49999999999999" y2="54.99999999999999" /><path d="M 25.521815274538284 56.99999999999999 a86.0,86.0 0 0,1 29.574782752854787,-30.34633250058573" fill="none" id="id47" stroke="none" /><text fill="#e1ed5e" style="font-size:6.75px; font-family:Arial;" text-anchor="middle"><textPath startOffset="21.40746469413373" xlink:href="#id47">November</textPath></text><line stroke="#e1ed5e" stroke-width="0.3" x1="56.869717070023135" x2="54.33264160355391" y1="26.7553504044142" y2="22.446841604673864" /><path d="M 56.362301976729285 25.89364864446614 a86.0,86.0 0 0,1 42.16139366436587,-11.88097634709845" fill="none" id="id48" stroke="none" /><text fill="#e1ed5e" style="font-size:6.75px; font-family:Arial;" text-anchor="middle"><textPath startOffset="22.145653131862474" xlink:href="#id48">December</textPath></text><path d="M 97.12497278360702 79.19773525538626 l -8.62508164917895 -62.406794233841204 a84.0,84.0 0 0,0 1.4300887124368238,-0.18515361519842122 l 7.5525151148513325 62.54565944524002" fill="red" stroke="none" /><path d="M 97.48249496171623 79.15144685158666 l -5.749407958921891 -47.61334558647351 a68.95921569224282,68.95921569224282 0 0,0 1.1764576779189233,-0.1318245366667071 l 4.931214379402168 47.70502588364718" fill="red" stroke="none" /><path d="M 97.84075906011542 79.11130261209362 l -4.984228368774995 -48.217888140415 a69.47481066650673,69.47481066650673 0 0,0 1.187359041997745,-0.11244413576972867 l 4.155769763392234 48.296344031689905" fill="red" stroke="none" /><path d="M 98.1996594967304 79.07731436759882 l -4.221442408559243 -49.05955971615745 a70.24084661692974,70.24084661692974 0 0,0 1.2022256241601355,-0.09305986671623415 l 3.3786477896238902 49.12479734986874" fill="red" stroke="none" /><path d="M 98.9189461498227 79.02784411241856 l -2.5036285640850067 -48.56972529350074 a69.63420988432965,69.63420988432965 0 0,0 1.1943070752976803,-0.05128868460035044 l 1.6694957281865064 48.60554654652692" fill="red" stroke="none" /><path d="M 99.27912038922189 79.0123766808444 l -1.654244266158359 -48.161516870382165 a69.18991835797425,69.18991835797425 0 0,0 1.187386922702197,-0.03058287517742954 l 0.8272440293854182 48.18281746290964" fill="red" stroke="none" /></svg>