<?xml version="1.0" encoding="utf-8" ?>
<svg baseProfile="full" height="200mm" version="1.1" viewBox="0,0,200,200" width="200mm" xmlns="http://www.w3.org/2000/svg" xmlns:ev="http://www.w3.org/2001/xml-events" xmlns:xlink="http://www.w3.org/1999/xlink"><defs /><rect fill="#1a1a1a" height="200" width="200" x="0" y="0" /><rect fill="#1a1a1a" height="200" width="180" x="10" y="0" /><text alignment-baseline="middle" fill="#e1ed5e" style="dominant-baseline: central; font-size:9.0px; font-family:Arial;" text-anchor="middle" x="100.0" y="100.0">2026</text><line stroke="#e1ed5e" stroke-width="0.3" x1="100.0" x2="100.0" y1="15.0" y2="10.0" /><path d="M 100.0 14.0 a86.0,86.0 0 0,1 42.46469731375804,11.215312516191453" fill="none" id="id157" stroke="none" /><text fill="#e1ed5e" style="font-size:6.75px; font-family:Arial;" text-anchor="middle"><textPath startOffset="22.20632615414155" xlink:href="#id157">January</textPath></text><path d="M 103.59715602781102 79.31037775812273 l 3.7074018219300493 -21.32371868263309 a42.64360891176251,42.64360891176251 0 0,0 0.7221083515620269,0.1319606856475354 l -4.073905294594978 21.256742515634816" fill="red" stroke="none" /><path d="M 104.66035177308747 79.52364482259891 l 5.669076453899718 -24.908425082467108 a46.54541187628488,46.54541187628488 0 0,0 0.7796939704119173,0.1845283718946513 l -6.096994111274159 24.807150798431586" fill="red" stroke="none" /><path d="M 105.36241919743992 79.69619591428918 l 7.5085687413968385 -28.42980063218409 a50.40462835218321,50.40462835218321 0 0,0 0.8369619190143178,0.22877330888626937 l -7.996828549634866 28.29634078247153" fill="red" stroke="none" /><line stroke="#e1ed5e" stroke-width="0.3" x1="143.23703022742887" x2="145.7803849466894" y1="26.81831364943548" y2="22.513508569990506" /><path d="M 143.74570117128098 25.957352633546492 a86.0,86.0 0 0,1 28.547481713284135,27.462654790039103" fill="none" id="id158" stroke="none" /><text fill="#e1ed5e" style="font-size:6.75px; font-family:Arial;" text-anchor="middle"><textPath startOffset="19.985693538727396" xlink:href="#id158">February</textPath></text><line stroke="#e1ed5e" stroke-width="0.3" x1="172.23445277983987" x2="176.4835382374775" y1="55.19839476539836" y2="52.563006222186495" /><path d="M 173.08426987136738 54.67131705675599 a86.0,86.0 0 0,1 12.851231095245387,41.99856678651699" fill="none" id="id159" stroke="none" /><text fill="#e1ed5e" style="font-size:6.75px; font-family:Arial;" text-anchor="middle"><textPath startOffset="22.20632615414155" xlink:href="#id159">March</textPath></text><path d="M 119.97218684219823 93.5106431181261 l 23.28775831706954 -7.566651358327573 a45.48619815758914,45.48619815758914 0 0,0 0.23554164827954965,0.7467313926058942 l -23.414555449117294 7.164669799295259" fill="red" stroke="none" /><path d="M 120.18372546131832 94.20196356495316 l 8.345316194819054 -2.3973001145045783 a29.682819255893378,29.682819255893378 0 0,0 0.13684236146942766,0.4922947823564734 l -8.385345326854845 2.253294028729153" fill="red" stroke="none" /><path d="M 120.53481517161879 95.60439243477599 l 22.490934512872965 -4.814327329830501 a44.00043223291887,44.00043223291887 0 0,0 0.15215916041900157,0.7419821044289838 l -22.570472969206964 4.4264695692381055" fill="red" stroke="none" /><path d="M 120.67395015179393 96.31383870115 l 13.125293678314108 -2.340237314969229 a34.33229330731839,34.33229330731839 0 0,0 0.09872682297955539,0.5826912978303485 l -13.163632362813887 2.113960228823043" fill="red" stroke="none" /><path d="M 120.73433829027371 96.67025291283417 l 14.150903093030117 -2.272506973462762 a35.332213586629464,35.332213586629464 0 0,0 0.09126496946754976,0.6013221189054241 l -14.187923955936967 2.0285857421652556" fill="red" stroke="none" /><path d="M 120.96714384426684 98.82574320788733 l 24.580820532734073 -1.3766393592114363 a45.619339430370815,45.619339430370815 0 0,0 0.03716106154404881,0.7844112757858261 l -24.60087520251162 0.9533169768026104" fill="red" stroke="none" /><line stroke="#e1ed5e" stroke-width="0.3" x1="184.98032266829074" x2="189.97916517819016" y1="98.17113171792111" y2="98.06355123074" /><path d="M 185.9800911702706 98.14961562048488 a86.0,86.0 0 0,1 -9.607161424134198,41.387399972396054" fill="none" id="id160" stroke="none" /><text fill="#e1ed5e" style="font-size:6.75px; font-family:Arial;" text-anchor="middle"><textPath startOffset="21.466115282336823" xlink:href="#id160">April</textPath></text><path d="M 120.99513854157772 99.54816195383933 l 19.31682492837332 -0.4157189254254853 a40.321297770553144,40.321297770553144 0 0,0 0.008960914747602064,0.6940327224763077 l -19.32111885023864 0.08314994488871486" fill="red" stroke="none" /><path d="M 120.99980553446 99.90962569577887 l 10.847095029664791 -0.0466813211445123 a31.84719547755651,31.84719547755651 0 0,0 -0.0023592746821981926,0.5482123481395789 l -10.84629145769309 -0.14004050519875125" fill="red" stroke="none" /><path d="M 120.99824983174949 100.27111621757518 l 17.516771712439148 0.22616555802778668 a38.518231705436094,38.518231705436094 0 0,0 -0.0142663043661543,0.6628991055286046 l -17.510283345387986 -0.5276544793465061" fill="red" stroke="none" /><path d="M 120.81339534386255 102.79330883721812 l 13.148767841784231 1.7646601529536483 a34.266654484554934,34.266654484554934 0 0,0 -0.08348980453278507,0.5839274984467046 l -13.116443986234845 -1.9907331233807624" fill="red" stroke="none" /><path d="M 120.76222939487914 103.15116336523771 l 26.448298601289586 4.014159945935636 a47.75118649657489,47.75118649657489 0 0,0 -0.13033401129288602,0.8115900127343305 l -26.375282835635414 -4.468829188363172" fill="red" stroke="none" /><path d="M 120.70491114924044 103.5080841355445 l 39.353032004387515 6.667681221381687 a60.91389608655504,60.91389608655504 0 0,0 -0.18405730560347083,1.032291116047149 l -39.232428256444855 -7.344091088162054" fill="red" stroke="none" /><path d="M 120.64145759157962 103.86396538481128 l 58.85719207793486 11.017737086992467 a80.87954233139234,80.87954233139234 0 0,0 -0.26794262766155125,1.3662336858613569 l -58.65881951729765 -12.029234499921769" fill="red" stroke="none" /><path d="M 120.5718875245553 104.21870165774334 l 33.53702248319595 6.87747743986816 a55.234946662354915,55.234946662354915 0 0,0 -0.19901930167672374,0.9297519204965458 l -33.41366914279478 -7.453743179780876" fill="red" stroke="none" /><path d="M 120.49622156327973 104.57218783832717 l 20.63209361057637 4.602497450286635 a42.139211658325415,42.139211658325415 0 0,0 -0.16402072919448427,0.7065970085485302 l -20.54981231545133 -4.95696311618373" fill="red" stroke="none" /><path d="M 120.41448212921028 104.9243191809786 l 61.24344638763086 14.772957542935806 a84.0,84.0 0 0,0 -0.35115474281975656,1.4026886424104164 l -60.980080330516046 -15.82497402474362" fill="red" stroke="none" /><path d="M 120.32669344350535 105.2749913415812 l 21.88609173516356 5.679671645804609 a43.61105219674997,43.61105219674997 0 0,0 -0.19482079520648934,0.7250006540780874 l -21.785082863615294 -6.055563233058245" fill="red" stroke="none" /><path d="M 120.23288151984713 105.62410040840565 l 12.374234320844172 3.4396453233465505 a33.84339655144143,33.84339655144143 0 0,0 -0.16084857945797362,0.5599350064443969 l -12.3131931045001 -3.6521378052955296" fill="red" stroke="none" /><path d="M 120.13307415673323 105.97154293290107 l 10.145232457123681 3.009112801668915 a31.582083984841717,31.582083984841717 0 0,0 -0.15907328352662314,0.5198606944835918 l -10.091932401090926 -3.1833004687045636" fill="red" stroke="none" /><path d="M 120.02730092923936 106.31721596034902 l 35.04930184399867 11.055609030408077 a57.75159929560847,57.75159929560847 0 0,0 -0.30720481702495805,0.9454792078986561 l -34.853804775957464 -11.657287138284527" fill="red" stroke="none" /><path d="M 119.9155931802556 106.66101706037122 l 25.663868335316522 8.583598955322213 a48.06126953707587,48.06126953707587 0 0,0 -0.26916409400328134,0.7823168500931047 l -25.512313410370012 -9.024088508504619" fill="red" stroke="none" /><path d="M 119.79798401119884 107.00284435728193 l 26.42489396116147 9.346881958436708 a49.02925655816753,49.02925655816753 0 0,0 -0.2882820802801938,0.7932284727042387 l -26.26008761987605 -9.800358228147077" fill="red" stroke="none" /><path d="M 119.67450827220406 107.3425965602758 l 34.96340287825245 13.048466480460279 a58.31892305947061,58.31892305947061 0 0,0 -0.3590938266445571,0.9374806682165908 l -34.73361477201439 -13.648370715510014" fill="red" stroke="none" /><path d="M 119.54520255179757 107.68017299344265 l 43.45576070193027 17.075686929720586 a67.69027974113303,67.69027974113303 0 0,0 -0.4354657063434696,1.0807901708618426 l -43.1553923813294 -17.82117646842524" fill="red" stroke="none" /><path d="M 119.12269723197855 108.67885076344098 l 21.896318841469427 9.937661052126172 a45.04591204330238,45.04591204330238 0 0,0 -0.32653005812337904,0.7033166957200808 l -21.722014166506213 -10.313097815125083" fill="red" stroke="none" /><path d="M 118.97047184881838 109.00673069616215 l 8.990438718422949 4.26844735452526 a30.952267639491623,30.952267639491623 0 0,0 -0.23265307844207225,0.47933425115625194 l -8.915632383366162 -4.422570561646787" fill="red" stroke="none" /><path d="M 118.64920377521936 109.65438752849418 l 27.007875912002348 13.981535271893234 a51.41231148461608,51.41231148461608 0 0,0 -0.4136181462707815,0.782409656676095 l -26.763205257506673 -14.444359943655463" fill="red" stroke="none" /><line stroke="#e1ed5e" stroke-width="0.3" x1="174.80103733775053" x2="179.2010983576182" y1="140.37084112569926" y2="142.7455964860345" /><path d="M 175.68104954172406 140.8457921977663 a86.0,86.0 0 0,1 -30.038265399797805,32.042727171017184" fill="none" id="id161" stroke="none" /><text fill="#e1ed5e" style="font-size:6.75px; font-family:Arial;" text-anchor="middle"><textPath startOffset="22.206326154141568" xlink:href="#id161">May</textPath></text><path d="M 118.48025628344425 109.97397251340804 l 32.60716794643804 17.598402957712647 a58.05308608131374,58.05308608131374 0 0,0 -0.48218227222492077,0.8753008833968556 l -32.299409264761614 -18.157074359507305" fill="red" stroke="none" /><path d="M 117.75023020441432 111.22182372390056 l 21.691540845681352 13.713548774679479 a46.662898594184085,46.662898594184085 0 0,0 -0.4350651716891009,0.6752308079918163 l -21.4522708106152 -14.084901182592748" fill="red" stroke="none" /><path d="M 117.35343817320211 111.8261652097733 l 21.033490339558014 14.334077732095002 a46.45335931255484,46.45335931255484 0 0,0 -0.45599301656958985,0.6568919499347212 l -20.78363641582629 -14.694010944216743" fill="red" stroke="none" /><line stroke="#e1ed5e" stroke-width="0.3" x1="143.8653032363475" x2="146.44561519142675" y1="172.8068346515853" y2="177.08958963109032" /><path d="M 144.38136562736335 173.6633856474863 a86.0,86.0 0 0,1 -40.68145358897372,12.25698825130547" fill="none" id="id162" stroke="none" /><text fill="#e1ed5e" style="font-size:6.75px; font-family:Arial;" text-anchor="middle"><textPath startOffset="21.466115282336833" xlink:href="#id162">June</textPath></text><line stroke="#e1ed5e" stroke-width="0.3" x1="102.19456741930631" x2="102.32365962044197" y1="184.97166512339345" y2="189.96999836594603" /><path d="M 102.22038585953345 185.97133177190398 a86.0,86.0 0 0,1 -42.740103519485714,-10.115201625700543" fill="none" id="id163" stroke="none" /><text fill="#e1ed5e" style="font-size:6.75px; font-family:Arial;" text-anchor="middle"><textPath startOffset="22.20632615414155" xlink:href="#id163">July</textPath></text><line stroke="#e1ed5e" stroke-width="0.3" x1="58.666819895761336" x2="56.23545636021788" y1="174.27360380694188" y2="178.64263932499728" /><path d="M 58.180547188652646 175.14741091055294 a86.0,86.0 0 0,1 -31.652253787137756,-30.449443065178592" fill="none" id="id164" stroke="none" /><text fill="#e1ed5e" style="font-size:6.75px; font-family:Arial;" text-anchor="middle"><textPath startOffset="22.20632615414155" xlink:href="#id164">August</textPath></text><line stroke="#e1ed5e" stroke-width="0.3" x1="26.63291911575756" x2="22.317208475507996" y1="142.92168965132927" y2="145.44649492493687" /><path d="M 25.769776987707644 143.4266507060508 a86.0,86.0 0 0,1 -11.730757126820373,-40.83630448921669" fill="none" id="id165" stroke="none" /><text fill="#e1ed5e" style="font-size:6.75px; font-family:Arial;" text-anchor="middle"><textPath startOffset="21.46611528233685" xlink:href="#id165">September</textPath></text><line stroke="#e1ed5e" stroke-width="0.3" x1="15.007084014347285" x2="10.007500721073583" y1="101.09737516637583" y2="101.16192664675087" /><path d="M 14.007167355692545 101.11028546245083 a86.0,86.0 0 0,1 10.666146001902534,-42.60595125391555" fill="none" id="id166" stroke="none" /><text fill="#e1ed5e" style="font-size:6.75px; font-family:Arial;" text-anchor="middle"><textPath startOffset="22.20632615414155" xlink:href="#id166">October</textPath></text><line stroke="#e1ed5e" stroke-width="0.3" x1="26.266209847984243" x2="21.928928074336255" y1="57.711370442889674" y2="55.22380399835377" /><path d="M 25.398753493254645 57.213857153982495 a86.0,86.0 0 0,1 29.58750427330803,-30.492523968695096" fill="none" id="id167" stroke="none" /><text fill="#e1ed5e" style="font-size:6.75px; font-family:Arial;" text-anchor="middle"><textPath startOffset="21.46611528233685" xlink:href="#id167">November</textPath></text><line stroke="#e1ed5e" stroke-width="0.3" x1="56.762969772571076" x2="54.21961505331055" y1="26.818313649435495" y2="22.513508569990535" /><path d="M 56.25429882871897 25.957352633546506 a86.0,86.0 0 0,1 42.265352541879196,-11.944610805530505" fill="none" id="id168" stroke="none" /><text fill="#e1ed5e" style="font-size:6.75px; font-family:Arial;" text-anchor="middle"><textPath startOffset="22.20632615414155" xlink:href="#id168">December</textPath></text></svg>