<?xml version="1.0" encoding="utf-8" ?>
<svg baseProfile="full" height="200mm" version="1.1" viewBox="0,0,200,200" width="200mm" xmlns="http://www.w3.org/2000/svg" xmlns:ev="http://www.w3.org/2001/xml-events" xmlns:xlink="http://www.w3.org/1999/xlink"><defs /><rect fill="#1a1a1a" height="200" width="200" x="0" y="0" /><rect fill="#1a1a1a" height="200" width="180" x="10" y="0" /><text alignment-baseline="middle" fill="#e1ed5e" style="dominant-baseline: central; font-size:9.0px; font-family:Arial;" text-anchor="middle" x="100.0" y="100.0">2023</text><line stroke="#e1ed5e" stroke-width="0.3" x1="100.0" x2="100.0" y1="15.0" y2="10.0" /><path d="M 100.0 14.0 a86.0,86.0 0 0,1 42.46469731375804,11.215312516191453" fill="none" id="id121" stroke="none" /><text fill="#e1ed5e" style="font-size:6.75px; font-family:Arial;" text-anchor="middle"><textPath startOffset="22.20632615414155" xlink:href="#id121">January</textPath></text><line stroke="#e1ed5e" stroke-width="0.3" x1="143.23703022742887" x2="145.7803849466894" y1="26.81831364943548" y2="22.513508569990506" /><path d="M 143.74570117128098 25.957352633546492 a86.0,86.0 0 0,1 28.547481713284135,27.462654790039103" fill="none" id="id122" stroke="none" /><text fill="#e1ed5e" style="font-size:6.75px; font-family:Arial;" text-anchor="middle"><textPath startOffset="19.985693538727396" xlink:href="#id122">February</textPath></text><line stroke="#e1ed5e" stroke-width="0.3" x1="172.23445277983987" x2="176.4835382374775" y1="55.19839476539836" y2="52.563006222186495" /><path d="M 173.08426987136738 54.67131705675599 a86.0,86.0 0 0,1 12.851231095245387,41.99856678651699" fill="none" id="id123" stroke="none" /><text fill="#e1ed5e" style="font-size:6.75px; font-family:Arial;" text-anchor="middle"><textPath startOffset="22.20632615414155" xlink:href="#id123">March</textPath></text><path d="M 118.3937258080291 89.86733742301442 l 2.5145702906187357 -1.3852164888654692 a23.87086893944798,23.87086893944798 0 0,0 0.1951635648343206,0.36160844542937837 l -2.538041954671521 1.3417270601036322" fill="red" stroke="none" /><path d="M 118.73160827565052 90.50648371742162 l 2.876989175547312 -1.4581099060439142 a24.225391637355035,24.225391637355035 0 0,0 0.18531269518206325,0.37357908555310254 l -2.9016618836827828 1.4083712319918618" fill="red" stroke="none" /><path d="M 119.47837535516314 92.15188598940014 l 3.1123989472678986 -1.2540297298539687 a24.35553539249878,24.35553539249878 0 0,0 0.15333137499870808,0.39021162471915033 l -3.133523872148307 1.200269100239034" fill="red" stroke="none" /><line stroke="#e1ed5e" stroke-width="0.3" x1="184.98032266829074" x2="189.97916517819016" y1="98.17113171792111" y2="98.06355123074" /><path d="M 185.9800911702706 98.14961562048488 a86.0,86.0 0 0,1 -9.607161424134198,41.387399972396054" fill="none" id="id124" stroke="none" /><text fill="#e1ed5e" style="font-size:6.75px; font-family:Arial;" text-anchor="middle"><textPath startOffset="21.466115282336823" xlink:href="#id124">April</textPath></text><line stroke="#e1ed5e" stroke-width="0.3" x1="174.80103733775053" x2="179.2010983576182" y1="140.37084112569926" y2="142.7455964860345" /><path d="M 175.68104954172406 140.8457921977663 a86.0,86.0 0 0,1 -30.038265399797805,32.042727171017184" fill="none" id="id125" stroke="none" /><text fill="#e1ed5e" style="font-size:6.75px; font-family:Arial;" text-anchor="middle"><textPath startOffset="22.206326154141568" xlink:href="#id125">May</textPath></text><path d="M 112.92097659922987 116.55440617244103 l 4.2333050980851175 5.423727185586211 a27.880238995641093,27.880238995641093 0 0,0 -0.38085902907546854,0.29202646283292377 l -4.139317340516155 -5.495792990246506" fill="red" stroke="none" /><line stroke="#e1ed5e" stroke-width="0.3" x1="143.8653032363475" x2="146.44561519142675" y1="172.8068346515853" y2="177.08958963109032" /><path d="M 144.38136562736335 173.6633856474863 a86.0,86.0 0 0,1 -40.68145358897372,12.25698825130547" fill="none" id="id126" stroke="none" /><text fill="#e1ed5e" style="font-size:6.75px; font-family:Arial;" text-anchor="middle"><textPath startOffset="21.466115282336833" xlink:href="#id126">June</textPath></text><line stroke="#e1ed5e" stroke-width="0.3" x1="102.19456741930631" x2="102.32365962044197" y1="184.97166512339345" y2="189.96999836594603" /><path d="M 102.22038585953345 185.97133177190398 a86.0,86.0 0 0,1 -42.740103519485714,-10.115201625700543" fill="none" id="id127" stroke="none" /><text fill="#e1ed5e" style="font-size:6.75px; font-family:Arial;" text-anchor="middle"><textPath startOffset="22.20632615414155" xlink:href="#id127">July</textPath></text><path d="M 100.54218724476979 120.99299961872073 l 0.1204903990128178 4.665279246120158 a25.666834942499438,25.666834942499438 0 0,0 -0.4417632752900335,0.007605355409607691 l -0.04016743383011636 -4.666662078808925" fill="red" stroke="none" /><path d="M 98.73552117531835 120.96189622390904 l -0.21969983047304184 3.6420736803922127 a24.64869411007768,24.64869411007768 0 0,0 -0.4232969997268125,-0.02919303942996777 l 0.2823595909787844 -3.6377522964459597" fill="red" stroke="none" /><path d="M 95.86986931433489 120.58985236759428 l -0.6795546250435895 3.38776917009593 a24.455253165582892,24.455253165582892 0 0,0 -0.41202273251853555,-0.08634336962125204 l 0.7377688189915118 -3.3755698197481365" fill="red" stroke="none" /><path d="M 90.10565033884886 118.52300852407294 l -5.950851716856909 11.140467120302919 a33.630227385703286,33.630227385703286 0 0,0 -0.5082603335187024,-0.27714405869241354 l 6.141734862244252 -11.03638240985074" fill="red" stroke="none" /><line stroke="#e1ed5e" stroke-width="0.3" x1="58.666819895761336" x2="56.23545636021788" y1="174.27360380694188" y2="178.64263932499728" /><path d="M 58.180547188652646 175.14741091055294 a86.0,86.0 0 0,1 -31.652253787137756,-30.449443065178592" fill="none" id="id128" stroke="none" /><text fill="#e1ed5e" style="font-size:6.75px; font-family:Arial;" text-anchor="middle"><textPath startOffset="22.20632615414155" xlink:href="#id128">August</textPath></text><path d="M 89.7882731507175 118.34994917583269 l -6.669066744609983 11.98397074461777 a34.714663905904416,34.714663905904416 0 0,0 -0.5196474954636625,-0.29506940989082164 l 6.874363006994853 -11.867398168932315" fill="red" stroke="none" /><path d="M 89.4739219176387 118.17145234162733 l -4.928557480384427 8.508301635901027 a30.832694216995126,30.832694216995126 0 0,0 -0.4569583363374421,-0.2699790396500627 l 5.074283687750252 -8.422204023957216" fill="red" stroke="none" /><path d="M 89.1626897886671 117.98757091392108 l -7.049361590230759 11.70040250112502 a34.65990181217103,34.65990181217103 0 0,0 -0.5083795564977401,-0.31228824578375025 l 7.249720346660808 -11.57732578851289" fill="red" stroke="none" /><path d="M 88.8546689885994 117.79835938074946 l -5.7377922115494755 9.162876161215896 a31.811131254808462,31.811131254808462 0 0,0 -0.46159193289590594,-0.2946098110405885 l 5.894665946492305 -9.062751921351504" fill="red" stroke="none" /><path d="M 88.54995079064634 117.60387380957326 l -5.278720183353088 8.115766341675018 a30.68145392422049,30.68145392422049 0 0,0 -0.44024277841960574,-0.29176890783154125 l 5.417637660512655 -8.023699412752158" fill="red" stroke="none" /><path d="M 88.24862548938628 117.40417183066458 l -3.0636120966264064 4.537310193291079 a26.474751397893677,26.474751397893677 0 0,0 -0.37549154453253064,-0.2582665082441754 l 3.1412605257818274 -4.483902895681802" fill="red" stroke="none" /><path d="M 87.95078237400918 117.19931262002967 l -3.3414473821943402 4.769653923900671 a26.823647410494086,26.823647410494086 0 0,0 -0.37587935239644665,-0.2681799377190801 l 3.4230540624396735 -4.711429724337372" fill="red" stroke="none" /><path d="M 87.65650970185807 116.9893568818739 l -3.1622712782751234 4.352493015043149 a26.379977238186346,26.379977238186346 0 0,0 -0.3650675174015774,-0.27006822184197476 l 3.236723766095265 -4.297414844461407" fill="red" stroke="none" /><path d="M 87.36589467227662 116.77436683061367 l -3.793333198489926 5.0364280597367115 a27.305155379185283,27.305155379185283 0 0,0 -0.3730030782052282,-0.2860028547005529 l 3.8794650051886412 -4.970385863208792" fill="red" stroke="none" /><path d="M 87.07902340077011 116.55440617244103 l -6.394594016126044 8.192779070362288 a31.392904383609107,31.392904383609107 0 0,0 -0.4231203032200458,-0.336152358893017 l 6.534671812063449 -8.081492797464142" fill="red" stroke="none" /><path d="M 86.79598089348748 116.32954008644616 l -8.928393188284499 11.041831528684657 a35.19993832495267,35.19993832495267 0 0,0 -0.4678740123751867,-0.385028459484182 l 9.117137329204375 -10.886507950343294" fill="red" stroke="none" /><path d="M 86.51685102203217 116.09983520530335 l -4.18282269106133 4.9945866599213895 a27.51474493501643,27.51474493501643 0 0,0 -0.3604883921333139,-0.30721602840466355 l 4.2681765597717005 -4.921846241293775" fill="red" stroke="none" /><path d="M 86.24171649860922 115.8653595955263 l -5.682390340215233 6.552646345784805 a29.673334659258707,29.673334659258707 0 0,0 -0.3830087749597174,-0.33796071223528323 l 5.794341468081537 -6.453862491777233" fill="red" stroke="none" /><path d="M 85.97065885151581 115.62618273729859 l -3.887577788237807 4.330067982631571 a26.819170885427837,26.819170885427837 0 0,0 -0.3408594662974336,-0.3113670407627624 l 3.9615368040020953 -4.262508175282233" fill="red" stroke="none" /><path d="M 85.70375840098266 115.38237550388516 l -4.44178512941335 4.7792425928857885 a27.524616072806985,27.524616072806985 0 0,0 -0.34427287211795027,-0.32553148901673806 l 4.523393835922117 -4.70207646712312" fill="red" stroke="none" /><path d="M 85.44109423537348 115.13401014063109 l -7.016117977558795 7.293267937637674 a31.12016149501565,31.12016149501565 0 0,0 -0.38285215258620325,-0.3747014110022723 l 7.140620082520793 -7.171416423712833" fill="red" stroke="none" /><path d="M 85.18274418774928 114.88116024355367 l -5.673664156746395 5.698133753946772 a29.041094032618716,29.041094032618716 0 0,0 -0.35120276610606344,-0.3557665478615504 l 5.770907547907991 -5.599626712104557" fill="red" stroke="none" /><path d="M 84.9287848128048 114.62390073753433 l -9.932558608602957 9.63775975313267 a34.83987476722375,34.83987476722375 0 0,0 -0.4139200240571378,-0.43399349039345986 l 10.09698518403905 -9.46535914615671" fill="red" stroke="none" /><path d="M 84.67929136418377 114.36230785411682 l -22.109367805025634 20.72629631069019 a51.30517288346057,51.30517288346057 0 0,0 -0.598446970771609,-0.6494959920603856 l 22.462861183792974 -20.34264906382846" fill="red" stroke="none" /><path d="M 84.43433777217949 114.09645910891817 l -8.369598535952514 7.57961349753866 a32.291621691550276,32.291621691550276 0 0,0 -0.36957169066989837,-0.4152177122702278 l 8.498829076270752 -7.434421615527569" fill="red" stroke="none" /><path d="M 84.19399662182784 113.82643327865904 l -6.429372004975938 5.624146782939512 a29.542122184470156,29.542122184470156 0 0,0 -0.3315153512355076,-0.3856272490538794 l 6.525229865782224 -5.5126424347241025" fill="red" stroke="none" /><path d="M 83.95833913139862 113.55231037782056 l -6.870186205184368 5.804068329877206 a29.99370155563265,29.99370155563265 0 0,0 -0.3297936031997638,-0.3972576402470806 l 6.969075808277668 -5.684949432516364" fill="red" stroke="none" /><path d="M 83.72743513129214 113.27417163493432 l -4.790908210787801 3.9081323927924383 a27.182742133049665,27.182742133049665 0 0,0 -0.2926443379768653,-0.3651188077501352 l 4.857470460819528 -3.8250857514640435" fill="red" stroke="none" /><path d="M 83.50135304334701 112.99209946851258 l -5.644782046451262 4.445065708615326 a28.18485723628844,28.18485723628844 0 0,0 -0.2968713465880474,-0.38374623412529507 l 5.720460210257378 -4.347241480376778" fill="red" stroke="none" /><path d="M 83.28015986056508 112.70617746262583 l -4.830941502314395 3.6712551990969877 a27.067628081522493,27.067628081522493 0 0,0 -0.2787176004722366,-0.3733877732118688 l 4.893420369481716 -3.587554546375811" fill="red" stroke="none" /><path d="M 83.06392112726016 112.41649034213515 l -13.742910360973937 10.075455780057831 a38.0406101523879,38.0406101523879 0 0,0 -0.3826164559307593,-0.5314207927068985 l 13.914306609280304 -9.837401381899795" fill="red" stroke="none" /><path d="M 82.85270091963577 112.12312394758628 l -10.149320659750192 7.175559938932155 a33.42969711182216,33.42969711182216 0 0,0 -0.32815083030836445,-0.47272574570462755 l 10.27133239722069 -6.999792931040515" fill="red" stroke="none" /><path d="M 82.6465618267979 111.8261652097733 l -7.794201167693947 5.311656962001791 a30.432034325873914,30.432034325873914 0 0,0 -0.29127354264451016,-0.43541442574030753 l 7.884477815749188 -5.176705622055662" fill="red" stroke="none" /><path d="M 82.44556493220864 111.52570212397912 l -5.496767535240958 3.6090084933685733 a27.575666935124183,27.575666935124183 0 0,0 -0.2571038797634154,-0.39903093092116937 l 5.558076278381419 -3.513855962525956" fill="red" stroke="none" /><path d="M 82.24976979558568 111.22182372390057 l -7.709175145462592 4.87379620110742 a30.120595969197808,30.120595969197808 0 0,0 -0.27328755268604854,-0.44062655158105724 l 7.791927337816596 -4.740373318161099" fill="red" stroke="none" /><path d="M 82.05923443525364 110.91462005526583 l -4.94022840066351 3.0054857907195487 a26.78262928856238,26.78262928856238 0 0,0 -0.23622167349173384,-0.39592111221741993 l 4.991230949853476 -2.9200025846160176" fill="red" stroke="none" /><line stroke="#e1ed5e" stroke-width="0.3" x1="26.63291911575756" x2="22.317208475507996" y1="142.92168965132927" y2="145.44649492493687" /><path d="M 25.769776987707644 143.4266507060508 a86.0,86.0 0 0,1 -11.730757126820373,-40.83630448921669" fill="none" id="id129" stroke="none" /><text fill="#e1ed5e" style="font-size:6.75px; font-family:Arial;" text-anchor="middle"><textPath startOffset="21.46611528233685" xlink:href="#id129">September</textPath></text><path d="M 81.87401531095188 110.60418214915194 l -8.976498720001901 5.251490008487264 a31.399792141165,31.399792141165 0 0,0 -0.26891380656279995,-0.4688738885544592 l 9.065564522717077 -5.096196274074498" fill="red" stroke="none" /><path d="M 81.69416730710424 110.29060199501025 l -5.992971620445518 3.3689418420900474 a27.874989307544446,27.874989307544446 0 0,0 -0.2315264629296422,-0.420287781624478 l 6.050074492826677 -3.265283542067747" fill="red" stroke="none" /><path d="M 81.51974371655577 109.97397251340807 l -20.60912375725874 11.12294281678727 a44.41913403496223,44.41913403496223 0 0,0 -0.35735720390616493,-0.6759851562119401 l 20.79753346938979 -10.766542645489205" fill="red" stroke="none" /><path d="M 81.35079622478065 109.6543875284942 l -15.907516803629802 8.235061061552964 a38.91271396369825,38.91271396369825 0 0,0 -0.30281749896067056,-0.597487653752982 l 16.04691297237674 -7.960019196097297" fill="red" stroke="none" /><path d="M 81.02952815118164 109.00673069616217 l -14.839207950722843 7.045304451129614 a37.4267588834165,37.4267588834165 0 0,0 -0.2713001291176903,-0.58435634212696 l 14.95828269668036 -6.788828041723828" fill="red" stroke="none" /><path d="M 80.87730276802145 108.67885076344099 l -2.4519582536716977 1.1128231286440908 a23.692670531905822,23.692670531905822 0 0,0 -0.16535105204644227,-0.3728229709618459 l 2.4707503904494197 -1.0704518211895493" fill="red" stroke="none" /><path d="M 80.58989483394504 108.01547362559985 l -10.20869956112467 4.215719666834692 a32.04490104250119,32.04490104250119 0 0,0 -0.2061515408201247,-0.511651217950733 l 10.279753716202181 -4.039369081041154" fill="red" stroke="none" /><path d="M 80.32549172779594 107.34259656027581 l -7.742282236897925 2.8894473058646213 a29.263887703082215,29.263887703082215 0 0,0 -0.1720657219046763,-0.47345096739465625 l 7.7908722198078255 -2.7557485414638476" fill="red" stroke="none" /><path d="M 79.86692584326677 105.97154293290107 l -2.637818496513696 0.7823865485472381 a23.751402393670805,23.751402393670805 0 0,0 -0.11288404015092186,-0.3929641527601508 l 2.650895173550722 -0.7368649202824913" fill="red" stroke="none" /><path d="M 79.76711848015287 105.62410040840567 l -21.65566891897312 6.019590254211849 a43.47673159417936,43.47673159417936 0 0,0 -0.19422075358201418,-0.7227676759724534 l 21.75607774889691 -5.645931645063857" fill="red" stroke="none" /><path d="M 79.67330655649465 105.27499134158121 l -12.573151704706957 3.262865480952458 a33.989627975287306,33.989627975287306 0 0,0 -0.14209070321668493,-0.5675817276272787 l 12.6274537222187 -3.0459559139277874" fill="red" stroke="none" /><path d="M 79.50377843672027 104.57218783832718 l -5.3003777603664775 1.18238001378287 a26.430656212611947,26.430656212611947 0 0,0 -0.09523338140338643,-0.444898653091459 l 5.3199451804943045 -1.0909675412752473" fill="red" stroke="none" /><path d="M 79.35854240842038 103.8639653848113 l -2.65496004574821 0.4969936676861895 a23.701076739050468,23.701076739050468 0 0,0 -0.07161512568974533,-0.401655657088631 l 2.663121613777144 -0.45121925986434486" fill="red" stroke="none" /><path d="M 79.29508885075956 103.50808413554451 l -3.0426220751224857 0.5155189585339649 a24.085985886006384,24.085985886006384 0 0,0 -0.06574125978402846,-0.4093708874300848 l 3.051045089267805 -0.46306884141066634" fill="red" stroke="none" /><path d="M 79.18660465613746 102.79330883721812 l -30.08622035651366 4.0377893088511945 a51.355961487710616,51.355961487710616 0 0,0 -0.11004479800590333,-0.8771653141495904 l 30.151266663766414 -3.5193062404141955" fill="red" stroke="none" /><path d="M 79.04373962182676 101.35467743843564 l -3.9881833416627734 0.2578084971172885 a24.996507423726662,24.996507423726662 0 0,0 -0.024060506195258163,-0.42961650105019794 l 3.9920301987455633 -0.18912027973165296" fill="red" stroke="none" /><path d="M 79.0235259727143 100.99374915477108 l -23.388397052139357 1.1080127085124494 a44.41462809507651,44.41462809507651 0 0,0 -0.029605241120866793,-0.7639797253977629 l 23.404004426111428 -0.7052557361006896" fill="red" stroke="none" /><path d="M 79.0095281055655 100.63252640178507 l -30.55733286138408 0.9208139721758665 a51.57120360687125,51.57120360687125 0 0,0 -0.019100837567283906,-0.8875408664516243 l 30.56865576163637 -0.3946832899341132" fill="red" stroke="none" /><line stroke="#e1ed5e" stroke-width="0.3" x1="15.007084014347285" x2="10.007500721073583" y1="101.09737516637583" y2="101.16192664675087" /><path d="M 14.007167355692545 101.11028546245083 a86.0,86.0 0 0,1 10.666146001902534,-42.60595125391555" fill="none" id="id130" stroke="none" /><text fill="#e1ed5e" style="font-size:6.75px; font-family:Arial;" text-anchor="middle"><textPath startOffset="22.20632615414155" xlink:href="#id130">October</textPath></text><path d="M 79.00175016825051 100.2711162175752 l -22.280864023896576 0.2876765267042734 a43.28272109584881,43.28272109584881 0 0,0 -0.003206430786976052,-0.7450615920811035 l 22.282514751973057 0.09589454358050542" fill="red" stroke="none" /><path d="M 79.00019446554 99.90962569577889 l -12.639772083929568 -0.05439624694258142 a33.639889132637464,33.639889132637464 0 0,0 0.007476053482993191,-0.5790285811578096 l 12.636963023328859 0.27196108616086295" fill="red" stroke="none" /><path d="M 79.08570108090925 98.10471618934814 l -5.001395083702875 -0.4532336068010992 a26.02188943383078,26.02188943383078 0 0,0 0.04426555646455612,-0.44574811269775094 l 4.992852401556091 0.5392572502032804" fill="red" stroke="none" /><path d="M 79.12142395522702 97.74499172005258 l -8.922047764289255 -0.9636333215164641 a29.973935897174425,29.973935897174425 0 0,0 0.05981890821636355,-0.5124918748061752 l 8.904138503069303 1.1170689346475011" fill="red" stroke="none" /><path d="M 79.16333360222342 97.38593545837743 l -7.203547079044947 -0.9037211919488969 a28.26001394714876,28.26001394714876 0 0,0 0.06470735891715854,-0.48214498334572886 l 7.186923721069954 1.0275845173592852" fill="red" stroke="none" /><path d="M 79.21141760316559 97.0276538004421 l -23.501021132382736 -3.360169996930849 a44.740023940025296,44.740023940025296 0 0,0 0.11556583933956675,-0.7614344889411472 l 23.439699399603864 3.7642035982640882" fill="red" stroke="none" /><path d="M 79.26566170972629 96.67025291283419 l -18.395334724498582 -2.9541242820887077 a39.631027612570634,39.631027612570634 0 0,0 0.11396399921732288,-0.6726219745127627 l 18.341758863761033 3.2703320449172986" fill="red" stroke="none" /><path d="M 79.32604984820605 96.31383870115002 l -8.579373919161949 -1.529700704363626 a29.714679632076376,29.714679632076376 0 0,0 0.09411668595133045,-0.5027750997358624 l 8.551771509300757 1.677153881562061" fill="red" stroke="none" /><path d="M 79.3925641242962 95.95851677861259 l -6.94168384648365 -1.3613871693186352 a28.07392038754448,28.07392038754448 0 0,0 0.09708323166523183,-0.4734123160076222 l 6.917221318903423 1.48067514148966" fill="red" stroke="none" /><path d="M 79.46518482838121 95.60439243477599 l -12.18798303042249 -2.6089151504704597 a33.46408314366608,33.46408314366608 0 0,0 0.12541957986842953,-0.5622313842419344 l 12.141269063552024 2.8183247042623534" fill="red" stroke="none" /><path d="M 79.54389044137918 95.25157060432595 l -6.471627858272987 -1.5022440054900832 a27.64369657555234,27.64369657555234 0 0,0 0.11158470234044171,-0.46259062991312627 l 6.444810355671731 1.6134198670626063" fill="red" stroke="none" /><path d="M 79.62865764111835 94.90015583598534 l -12.328259250855305 -3.0863062377194104 a33.70870813061993,33.70870813061993 0 0,0 0.14575592124635642,-0.5616570221444758 l 12.273306997738642 3.29805968541275" fill="red" stroke="none" /><path d="M 79.71946130924805 94.55025226153421 l -6.537602737530308 -1.7567721586256604 a27.769527160081864,27.769527160081864 0 0,0 0.12802179067679437,-0.4605624961551041 l 6.506394176287152 1.869045958199707" fill="red" stroke="none" /><path d="M 79.81627453868168 94.20196356495316 l -22.130543489885444 -6.357285117044178 a44.025551659343634,44.025551659343634 0 0,0 0.2155031946183062,-0.726569639876221 l 22.01783439815543 6.737284143666939" fill="red" stroke="none" /><path d="M 79.91906864156998 93.8553929516997 l -13.613902684686739 -4.165747140810939 a35.236986884495444,35.236986884495444 0 0,0 0.1824680520105049,-0.5784735887649723 l 13.54017914890803 4.399470896002326" fill="red" stroke="none" /><path d="M 80.02781315780177 93.51064311812611 l -16.318495964001006 -5.302200751601111 a38.15828206253168,38.15828206253168 0 0,0 0.2083491374433294,-0.622937401776788 l 16.224809532785905 5.582311256300221" fill="red" stroke="none" /><path d="M 80.14247586403 93.16781622104843 l -32.90490605417301 -11.321268646176295 a55.798045436386886,55.798045436386886 0 0,0 0.32029916543765263,-0.9055288726417359 l 32.70515380792555 11.88599514524464" fill="red" stroke="none" /><path d="M 80.2630227832202 92.82701384747504 l -42.062690130049596 -15.286793439893344 a65.75439592543438,65.75439592543438 0 0,0 0.3957644728962943,-1.0604520256455605 l 41.79332106865167 16.008568602568246" fill="red" stroke="none" /><path d="M 80.38941819471856 92.48833698450439 l -7.452287821384869 -2.854534116557882 a28.980285633694706,28.980285633694706 0 0,0 0.18244669938311442,-0.46430694951721885 l 7.402047572120063 2.9823900709708644" fill="red" stroke="none" /><path d="M 80.65960295795068 91.81776055985345 l -16.407847331121978 -6.941581151034315 a38.8158076695333,38.8158076695333 0 0,0 0.26562819843198376,-0.6131065051212493 l 16.285928422847313 7.222986800742164" fill="red" stroke="none" /><path d="M 80.803312248108 91.48605970444005 l -18.85997493138899 -8.36460448890602 a41.63165680861447,41.63165680861447 0 0,0 0.29617490800875756,-0.6525821503255254 l 18.71319770641688 8.688008648073616" fill="red" stroke="none" /><path d="M 80.95270993114464 91.15688171328213 l -12.377628426751969 -5.74658294650453 a34.64657103567761,34.64657103567761 0 0,0 0.25579366431245304,-0.538766692559504 l 12.276876568597764 5.958792054704566" fill="red" stroke="none" /><path d="M 81.10775173730289 90.83032412892265 l -25.431327915329938 -12.343530040048535 a49.26862524755352,49.26862524755352 0 0,0 0.3768814915033408,-0.7597700892503898 l 25.215086410873184 12.779459717797886" fill="red" stroke="none" /><path d="M 81.26839172434947 90.50648371742162 l -18.792090615036855 -9.524169820989117 a42.06780673119051,42.06780673119051 0 0,0 0.33291774506511057,-0.6430911178758296 l 18.62536343681163 9.846233661125282" fill="red" stroke="none" /><path d="M 81.43458229118936 90.18545643968196 l -11.867509772652706 -6.273717803878155 a34.42375965542833,34.42375965542833 0 0,0 0.28144193939461776,-0.521469170075436 l 11.757759734039617 6.477067957286063" fill="red" stroke="none" /><path d="M 81.6062741919709 89.86733742301443 l -11.619947700138791 -6.4011506117118655 a34.266420531092024,34.266420531092024 0 0,0 0.28904926463538677,-0.5141863888026835 l 11.508040794210974 6.600220510449334" fill="red" stroke="none" /><line stroke="#e1ed5e" stroke-width="0.3" x1="26.266209847984243" x2="21.928928074336255" y1="57.711370442889674" y2="55.22380399835377" /><path d="M 25.398753493254645 57.213857153982495 a86.0,86.0 0 0,1 29.58750427330803,-30.492523968695096" fill="none" id="id131" stroke="none" /><text fill="#e1ed5e" style="font-size:6.75px; font-family:Arial;" text-anchor="middle"><textPath startOffset="21.46611528233685" xlink:href="#id131">November</textPath></text><path d="M 81.78341655067845 89.55222093294921 l -14.791653731267374 -8.483474996863619 a38.05175557319909,38.05175557319909 0 0,0 0.3307609452051137,-0.5653776730912216 l 14.643433111591934 8.736832082308732" fill="red" stroke="none" /><path d="M 81.96595687620814 89.24020034530311 l -17.111750249654612 -10.209524462353624 a40.926022843356165,40.926022843356165 0 0,0 0.3661596729163821,-0.6018702270710392 l 16.933474778452013 10.502562462631737" fill="red" stroke="none" /><path d="M 82.15384107792192 88.93136811851018 l -4.584538929086908 -2.843445134271708 a26.394736084733598,26.394736084733598 0 0,0 0.2427968864734008,-0.3840463666025156 l 4.534914446367545 2.921939148588439" fill="red" stroke="none" /><path d="M 82.34701348167596 88.62581576622439 l -4.696173421479455 -3.0258416406890696 a26.58656982764361,26.58656982764361 0 0,0 0.25118404324267096,-0.3825705306052519 l 4.643392742878864 3.106230235271988" fill="red" stroke="none" /><path d="M 82.54541684631803 88.32363383020206 l -18.235948931574484 -12.19906630275972 a42.94007867110144,42.94007867110144 0 0,0 0.4162642599855143,-0.6108164372169181 l 18.02326020592023 12.511160763247053" fill="red" stroke="none" /><path d="M 82.7489923806493 88.02491185347247 l -8.389090310038775 -5.823433514643323 a31.212209071961734,31.212209071961734 0 0,0 0.31017114958863423,-0.4387150944831865 l 8.287606540646262 5.9669751094582955" fill="red" stroke="none" /><path d="M 82.95767976084542 87.72973835380427 l -7.777706697237155 -5.5998534731913345 a30.583896931283263,30.583896931283263 0 0,0 0.31128201091641855,-0.42458831306423866 l 7.680162073807104 5.732904229927074" fill="red" stroke="none" /><path d="M 83.17141714833178 87.43820079747576 l -13.416671736793248 -10.014957160048192 a37.74235489441277,37.74235489441277 0 0,0 0.3931029089527827,-0.5172773491768212 l 13.242292887616355 10.24441928510604" fill="red" stroke="none" /><path d="M 83.39014120810768 87.1503855733568 l -18.92820322311432 -14.643117455332362 a44.93110457263046,44.93110457263046 0 0,0 0.4785075329559224,-0.6076559736532404 l 18.673341609564424 14.96676582293865" fill="red" stroke="none" /><path d="M 83.6137871275137 86.86637796730984 l -12.765396176728286 -10.231521449608676 a37.35968736628642,37.35968736628642 0 0,0 0.4065116618452855,-0.4983352309423696 l 12.587386022806609 10.44974085015913" fill="red" stroke="none" /><path d="M 83.84228863543731 86.58626213691792 l -14.621920468711233 -12.138761721681188 a40.00394944028922,40.00394944028922 0 0,0 0.44440461061986536,-0.5260348865440574 l 14.410805244604243 12.388655557854362" fill="red" stroke="none" /><path d="M 84.07557802195018 86.31012108654704 l -7.538819608866828 -6.4809591040736025 a30.941661430752383,30.941661430752383 0 0,0 0.35068415118755664,-0.400892606692529 l 7.426143594101428 6.609767266969075" fill="red" stroke="none" /><path d="M 84.31358615837235 86.03803664274999 l -3.6563390314166946 -3.2543876563329204 a25.894880400005015,25.894880400005015 0 0,0 0.29921701926419764,-0.3304029060556927 l 3.599778371536452 3.316843349658169" fill="red" stroke="none" /><path d="M 84.5562425177563 85.77008943001954 l -9.763141885937817 -8.995779432476667 a34.2756539229796,34.2756539229796 0 0,0 0.4035267481234331,-0.43045419980921706 l 9.606847815843928 9.162503049163934" fill="red" stroke="none" /><path d="M 84.80347519578584 85.50635884689758 l -11.928124562735398 -11.376413967609983 a37.48341440195456,37.48341440195456 0 0,0 0.44932928206653183,-0.46307332232853154 l 11.730531016965749 11.580051485488637" fill="red" stroke="none" /><path d="M 85.05521093208273 85.24692304244772 l -9.461145293400033 -9.339777496074522 a34.294536996037344,34.294536996037344 0 0,0 0.4183348870582086,-0.41653842410679137 l 9.29897460617451 9.501251770831423" fill="red" stroke="none" /><path d="M 85.31137513191541 84.99185889309783 l -5.64290068370509 -5.765648620878991 a29.067529494560475,29.067529494560475 0 0,0 0.36059897619633274,-0.346895929398674 l 5.54281846389633 5.8619276370399795" fill="red" stroke="none" /><path d="M 85.57189188830299 84.74124197986013 l -7.9399156319257775 -8.397029630631971 a32.556485921758856,32.556485921758856 0 0,0 0.41050956206788103,-0.381523898993817 l 7.79419818606304 8.532458115700436" fill="red" stroke="none" /><path d="M 85.83668400450813 84.49514656593479 l -17.369465596803042 -19.01468684255791 a46.753769643278815,46.753769643278815 0 0,0 0.5988690629767153,-0.5376705577440304 l 17.039585546230356 19.31085640907122" fill="red" stroke="none" /><path d="M 86.37877921826538 84.01681056812374 l -7.254043214811367 -8.511920385639751 a32.18364572104376,32.18364572104376 0 0,0 0.4247359449888312,-0.3557041391762781 l 7.1064497328634255 8.635525682209842" fill="red" stroke="none" /><path d="M 86.93701828274178 83.55741782278169 l -12.459813479780514 -15.683364754574866 a41.03034902281938,41.03034902281938 0 0,0 0.5567768439023711,-0.4345731581137569 l 12.188004080718716 15.895516301911844" fill="red" stroke="none" /><path d="M 87.22198572758235 83.33499621200491 l -5.268315917515766 -6.870903635729278 a29.658202433428535,29.658202433428535 0 0,0 0.40780571548879846,-0.30715081020703844 l 5.149264048268578 6.960571035442172" fill="red" stroke="none" /><path d="M 87.51073957382395 83.11751280151077 l -4.332355306404269 -5.8563061785774 a28.284615608127382,28.284615608127382 0 0,0 0.3939032528442753,-0.2861874651110155 l 4.230906737206212 5.930012878505083" fill="red" stroke="none" /><path d="M 87.80319425747018 82.90503203632743 l -23.82873397742898 -33.39820708454874 a62.027415217504014,62.027415217504014 0 0,0 0.8744945780008354,-0.6126393371564198 l 23.250308259844484 33.803431264469104" fill="red" stroke="none" /><path d="M 88.09926311788651 82.69761687909137 l -8.78096012776002 -12.7665654492602 a36.494852504478885,36.494852504478885 0 0,0 0.5206517375556009,-0.3515463773368235 l 8.559903695797878 12.91582373889569" fill="red" stroke="none" /><path d="M 88.70189139769569 82.29822771554957 l -7.176784743520582 -11.244520099444644 a34.339620366473866,34.339620366473866 0 0,0 0.501000095004556,-0.31372621353001734 l 6.982165496143783 11.366390654297591" fill="red" stroke="none" /><path d="M 89.00827224532344 82.1063720568725 l -1.4564063110416638 -2.370909582682728 a23.78250455383253,23.78250455383253 0 0,0 0.35066502715324066,-0.21127175524206127 l 1.415379217670774 2.3956279473834083" fill="red" stroke="none" /><line stroke="#e1ed5e" stroke-width="0.3" x1="56.762969772571076" x2="54.21961505331055" y1="26.818313649435495" y2="22.513508569990535" /><path d="M 56.25429882871897 25.957352633546506 a86.0,86.0 0 0,1 42.265352541879196,-11.944610805530505" fill="none" id="id132" stroke="none" /><text fill="#e1ed5e" style="font-size:6.75px; font-family:Arial;" text-anchor="middle"><textPath startOffset="22.20632615414155" xlink:href="#id132">December</textPath></text><path d="M 89.3179101791058 81.91981866633112 l -4.14379023946679 -7.01365371331198 a29.14630811834141,29.14630811834141 0 0,0 0.43414573409475044,-0.2514852313558181 l 4.02244777290672 7.0839431020578445" fill="red" stroke="none" /><path d="M 89.63071344664047 81.73862282372117 l -12.815491196436701 -22.569394454779435 a46.954082157945315,46.954082157945315 0 0,0 0.7062696892108089,-0.39303831738384987 l 12.425097418153847 22.78664816972347" fill="red" stroke="none" /><path d="M 89.94658935756843 81.56283822128135 l -9.117324962459433 -16.720454510486153 a40.04466364912551,40.04466364912551 0 0,0 0.6080209221253132,-0.32478371950134083 l 8.828158993805813 16.874916956489244" fill="red" stroke="none" /><path d="M 90.26544431104013 81.39251694778311 l -5.271171767053853 -10.075779774110966 a32.37130554748087,32.37130554748087 0 0,0 0.4959584791886497,-0.25404919617226734 l 5.09695280027644 10.16502149559574" fill="red" stroke="none" /><path d="M 90.58718382345135 81.22770947309562 l -5.454162832004793 -10.877417272689105 a33.16824139809109,33.16824139809109 0 0,0 0.5125736836388018,-0.2515176804784919 l 5.266117881355565 10.969690113302427" fill="red" stroke="none" /><path d="M 90.91171255644093 81.06846463323043 l -5.109351221099947 -10.64313424770171 a32.80600595100462,32.80600595100462 0 0,0 0.5111828546382582,-0.24000720446640997 l 4.925390155162082 10.729506434808126" fill="red" stroke="none" /><path d="M 91.23893434514133 80.91482961587045 l -8.092474039840113 -17.62870545249728 a40.397406837420135,40.397406837420135 0 0,0 0.6344660544073215,-0.28466642437098794 l 7.787825866966016 17.765392207384796" fill="red" stroke="none" /><path d="M 91.56875222667455 80.76684994638697 l -1.1440268474575803 -2.609725228586776 a23.849467177636203,23.849467177636203 0 0,0 0.3774078719607355,-0.16158635466048177 l 1.0989352177065366 2.6290311112100437" fill="red" stroke="none" /><path d="M 91.90106846888425 80.62456947434976 l -4.3718385043352415 -10.458941760980721 a32.33589143682907,32.33589143682907 0 0,0 0.5153973550069357,-0.21024352196422397 l 4.191157279739925 10.532646169128522" fill="red" stroke="none" /><path d="M 92.23578459929587 80.48803036053334 l -2.86082046251841 -7.189424703951651 a28.737707754403388,28.737707754403388 0 0,0 0.4611948244072994,-0.178936426778539 l 2.7366424731114343 7.2376038346207405" fill="red" stroke="none" /><path d="M 92.57280143429618 80.3572730644239 l -1.829483740144968 -4.8384393150176574 a26.172765774763377,26.172765774763377 0 0,0 0.42277451115307274,-0.15571142039854588 l 1.7459269032193259 4.869214003222526" fill="red" stroke="none" /><path d="M 93.25333710446033 80.11325718540243 l -2.25638581568637 -6.651016228590071 a28.023339221638032,28.023339221638032 0 0,0 0.4581377968055413,-0.15104082858654042 l 2.1415651966384193 6.688870781435845" fill="red" stroke="none" /><path d="M 93.59665428221793 80.00007090966166 l -3.4304919388519037 -10.714648020875504 a32.250420310094164,32.250420310094164 0 0,0 0.5301579441557858,-0.1647226539258366 l 3.2455486219853893 10.772110809683866" fill="red" stroke="none" /><path d="M 93.94186890950719 79.89281104454417 l -0.7743263062571328 -2.570021202995427 a23.684136772299034,23.684136772299034 0 0,0 0.39136319736972375,-0.11424964919771365 l 0.7299728911639877 2.5829691811118396" fill="red" stroke="none" /><path d="M 94.28887869178378 79.79150937346287 l -5.814661062262853 -20.574860387605757 a42.38071942752311,42.38071942752311 0 0,0 0.7037260152664048,-0.19235490337654426 l 5.459637157772725 20.671901831808597" fill="red" stroke="none" /><path d="M 94.63758080256005 79.69619591428918 l -7.1072014629632205 -26.910097996548604 a48.83281672448902,48.83281672448902 0 0,0 0.8145572209077622,-0.20764877248247132 l 6.642935353370459 27.02844976519994" fill="red" stroke="none" /><path d="M 94.98787191387505 79.60689891045804 l -2.453816183462864 -9.98396701453825 a31.281089981593006,31.281089981593006 0 0,0 0.5239974524532381,-0.12401326731699355 l 2.2815950440470916 10.024726193996115" fill="red" stroke="none" /><path d="M 95.692805502759 79.44645832069477 l -1.7016555737619066 -8.12014613724568 a29.296529695115957,29.296529695115957 0 0,0 0.49446067666631466,-0.09918416009472697 l 1.5616284876284556 8.148234253417616" fill="red" stroke="none" /><path d="M 96.40284397218896 79.31037775812273 l -4.507958363182228 -25.928248565049802 a47.31721418112471,47.31721418112471 0 0,0 0.8036508735846728,-0.13260928008786982 l 4.060978283458669 26.002004108077298" fill="red" stroke="none" /><path d="M 96.75951476605007 79.25152402106235 l -9.72145570184976 -62.24542793681294 a84.0,84.0 0 0,0 1.430524078285405,-0.2108220633561242 l 8.648562643135705 62.403544484330034" fill="red" stroke="none" /><path d="M 97.11714578562143 79.19881850522333 l -2.600972468985639 -18.767268951874573 a39.94664724156801,39.94664724156801 0 0,0 0.6819183181711591,-0.08853256888539468 l 2.2775394223066217 18.809259843924107" fill="red" stroke="none" /><path d="M 97.47563105711357 79.15227682838746 l -0.33204773433623097 -2.7422454489903516 a23.76227547510854,23.76227547510854 0 0,0 0.40648574052540115,-0.045673409186749406 l 0.28479529030111184 2.7475548116476993" fill="red" stroke="none" /><path d="M 97.83486435360386 79.11191278185805 l -0.8228452955735457 -7.938377592917458 a28.980909295824723,28.980909295824723 0 0,0 0.4966429071259196,-0.04716222831617868 l 0.6860772613573898 7.951365365748817" fill="red" stroke="none" /><path d="M 98.19473922651362 79.07773832637324 l -0.4123760307446974 -4.779275853044621 a25.79703363238451,25.79703363238451 0 0,0 0.4427382860219618,-0.03436501200863712 l 0.3300475553604014 4.78566612724172" fill="red" stroke="none" /><path d="M 98.91598698831166 79.02799685794201 l -0.392436003910878 -7.59231579172396 a28.60245125590599,28.60245125590599 0 0,0 0.49190654700990183,-0.021182530667157404 l 0.26168862451165203 7.5979460489153094" fill="red" stroke="none" /><path d="M 99.27714615592234 79.0124445844662 l -0.7363957061776832 -21.380733903249197 a42.39341162315227,42.39341162315227 0 0,0 0.7295166573250981,-0.01884126297492318 l 0.36825241365770617 21.39024195836648" fill="red" stroke="none" /><path d="M 99.63851952072746 79.00311137660856 l -0.05010998449871532 -2.910679341680628 a23.911110654137495,23.911110654137495 0 0,0 0.41159046377125036,-0.0035426890654260074 l 7.130164689106482e-16 2.911110654137495" fill="red" stroke="none" /></svg>