<?xml version="1.0" encoding="utf-8" ?>
<svg baseProfile="full" height="200mm" version="1.1" viewBox="0,0,200,200" width="200mm" xmlns="http://www.w3.org/2000/svg" xmlns:ev="http://www.w3.org/2001/xml-events" xmlns:xlink="http://www.w3.org/1999/xlink"><defs /><rect fill="#1a1a1a" height="200" width="200" x="0" y="0" /><rect fill="#1a1a1a" height="200" width="180" x="10" y="0" /><text alignment-baseline="middle" fill="#e1ed5e" style="dominant-baseline: central; font-size:9.0px; font-family:Arial;" text-anchor="middle" x="100.0" y="100.0">2026</text><line stroke="#e1ed5e" stroke-width="0.3" x1="100.0" x2="100.0" y1="15.0" y2="10.0" /><path d="M 100.0 14.0 a86.0,86.0 0 0,1 42.46469731375804,11.215312516191453" fill="none" id="id157" stroke="none" /><text fill="#e1ed5e" style="font-size:6.75px; font-family:Arial;" text-anchor="middle"><textPath startOffset="22.20632615414155" xlink:href="#id157">January</textPath></text><path d="M 103.59715602781102 79.31037775812273 l 2.9066936270424764 -16.71831653990746 a37.96911829677761,37.96911829677761 0 0,0 0.6429525577978682,0.11749547028823616 l -3.1940413059432453 16.665805588268483" fill="red" stroke="none" /><path d="M 104.66035177308747 79.52364482259891 l 4.444694476410543 -19.528813957689792 a41.02822717023886,41.02822717023886 0 0,0 0.6872742135433639,0.16265560140645077 l -4.78019237691643 19.44941244414247" fill="red" stroke="none" /><path d="M 105.36241919743992 79.69619591428918 l 5.886901381913474 -22.289658441349506 a44.05394719592283,44.05394719592283 0 0,0 0.7315097321545465,0.19994924273805748 l -6.269709003291731 22.185022657785154" fill="red" stroke="none" /><line stroke="#e1ed5e" stroke-width="0.3" x1="143.23703022742887" x2="145.7803849466894" y1="26.81831364943548" y2="22.513508569990506" /><path d="M 143.74570117128098 25.957352633546492 a86.0,86.0 0 0,1 28.547481713284135,27.462654790039103" fill="none" id="id158" stroke="none" /><text fill="#e1ed5e" style="font-size:6.75px; font-family:Arial;" text-anchor="middle"><textPath startOffset="19.985693538727396" xlink:href="#id158">February</textPath></text><line stroke="#e1ed5e" stroke-width="0.3" x1="172.23445277983987" x2="176.4835382374775" y1="55.19839476539836" y2="52.563006222186495" /><path d="M 173.08426987136738 54.67131705675599 a86.0,86.0 0 0,1 12.851231095245387,41.99856678651699" fill="none" id="id159" stroke="none" /><text fill="#e1ed5e" style="font-size:6.75px; font-family:Arial;" text-anchor="middle"><textPath startOffset="22.20632615414155" xlink:href="#id159">March</textPath></text><path d="M 119.97218684219823 93.5106431181261 l 18.2581716090036 -5.932439572965725 a40.19777773052691,40.19777773052691 0 0,0 0.2081565663285392,0.6599131991727117 l -18.357583659100346 5.6172762073665945" fill="red" stroke="none" /><path d="M 120.18372546131832 94.20196356495316 l 6.5429318331905915 -1.8795418731576956 a27.807542480714456,27.807542480714456 0 0,0 0.12819704715100064,0.4611929869395316 l -6.574315650907955 1.766637582799212" fill="red" stroke="none" /><path d="M 120.53481517161879 95.60439243477599 l 17.63344227434299 -3.774550275435123 a39.03290093757446,39.03290093757446 0 0,0 0.13498079755080167,0.6582143063122431 l -17.69580236780879 3.470460312959468" fill="red" stroke="none" /><path d="M 120.67395015179393 96.31383870115 l 10.290550989683462 -1.8348032438649438 a31.452843757321382,31.452843757321382 0 0,0 0.09044660401904345,0.5338209768090867 l -10.320609455222728 1.6573964787400193" fill="red" stroke="none" /><path d="M 120.73433829027371 96.67025291283417 l 11.094653833879029 -1.7817010009816057 a32.236805691588046,32.236805691588046 0 0,0 0.08326936776719457,0.5486410937055974 l -11.123679095085524 1.590460794883926" fill="red" stroke="none" /><path d="M 120.96714384426684 98.82574320788733 l 19.271963984949746 -1.0793188988812068 a40.3021637419923,40.3021637419923 0 0,0 0.03282974295277591,0.6929839860140315 l -19.28768733613602 0.7474238062441755" fill="red" stroke="none" /><line stroke="#e1ed5e" stroke-width="0.3" x1="184.98032266829074" x2="189.97916517819016" y1="98.17113171792111" y2="98.06355123074" /><path d="M 185.9800911702706 98.14961562048488 a86.0,86.0 0 0,1 -9.607161424134198,41.387399972396054" fill="none" id="id160" stroke="none" /><text fill="#e1ed5e" style="font-size:6.75px; font-family:Arial;" text-anchor="middle"><textPath startOffset="21.466115282336823" xlink:href="#id160">April</textPath></text><path d="M 120.99513854157772 99.54816195383933 l 15.144862793633644 -0.3259337965546277 a36.14836961120652,36.14836961120652 0 0,0 0.00803353255627087,0.6222059497466745 l -15.14822933330763 0.06519158874749045" fill="red" stroke="none" /><path d="M 120.99980553446 99.90962569577887 l 8.504387576266787 -0.036599296539709475 a29.504466329868563,29.504466329868563 0 0,0 -0.0021857227733877906,0.5078849966145715 l -8.503757556203896 -0.10979517827854678" fill="red" stroke="none" /><path d="M 120.99824983174949 100.27111621757518 l 13.733577084017918 0.1773193243546603 a34.734721754205715,34.734721754205715 0 0,0 -0.01286497564085333,0.5977848660793615 l -13.728490045692059 -0.4136940062241367" fill="red" stroke="none" /><path d="M 120.81339534386255 102.79330883721812 l 10.308955307487683 1.383536683330397 a31.401381316243498,31.401381316243498 0 0,0 -0.07650864163976964,0.5351012614327385 l -10.283612614831311 -1.560783416743545" fill="red" stroke="none" /><path d="M 120.76222939487914 103.15116336523771 l 20.736112426697566 3.1471994925832014 a41.9735839383439,41.9735839383439 0 0,0 -0.11456439021500354,0.7133925672290774 l -20.678866282121277 -3.503671289505484" fill="red" stroke="none" /><path d="M 120.70491114924044 103.5080841355445 l 30.853738770728278 5.227625017255717 a52.29346991711496,52.29346991711496 0 0,0 -0.1580098432699788,0.8862031144094161 l -30.75918248511911 -5.75794688239835" fill="red" stroke="none" /><path d="M 120.64145759157962 103.86396538481128 l 46.145476896131306 8.638175119231732 a67.9470244782553,67.9470244782553 0 0,0 -0.22509900224078153,1.1477749628685427 l -45.98994796091486 -9.43121380916822" fill="red" stroke="none" /><path d="M 120.5718875245553 104.21870165774334 l 26.293845178923036 5.39211037938859 a47.8410347907208,47.8410347907208 0 0,0 -0.172377994564631,0.80529260301667 l -26.19713314563396 -5.843916801821429" fill="red" stroke="none" /><path d="M 120.49622156327973 104.57218783832717 l 16.176065582010622 3.6084704733361996 a37.57365852400875,37.57365852400875 0 0,0 -0.14624998017481594,0.6300410868755114 l -16.111555035905255 -3.886380217560276" fill="red" stroke="none" /><path d="M 120.41448212921028 104.9243191809786 l 48.01635858839015 11.58235972389582 a70.39353954580085,70.39353954580085 0 0,0 -0.29427411042116736,1.1754787907138493 l -47.80987316367391 -12.407166354007066" fill="red" stroke="none" /><path d="M 120.32669344350535 105.2749913415812 l 17.15923075593376 4.453001365781173 a38.72761747384662,38.72761747384662 0 0,0 -0.17300534732958825,0.6438172569823298 l -17.080037332262393 -4.747709555939051" fill="red" stroke="none" /><path d="M 120.23288151984713 105.62410040840565 l 9.701702099613055 2.696765988924551 a31.069536753428956,31.069536753428956 0 0,0 -0.14766516840619828,0.5140418230721205 l -9.653844294320757 -2.863365287501254" fill="red" stroke="none" /><path d="M 120.13307415673323 105.97154293290107 l 7.954110167813983 2.3592179709049073 a29.296612440988337,29.296612440988337 0 0,0 -0.14756177392953918,0.48224041506883364 l -7.912321621378311 -2.495785358525798" fill="red" stroke="none" /><path d="M 120.02730092923936 106.31721596034902 l 27.4795091537184 8.667867648355148 a49.81415195522324,49.81415195522324 0 0,0 -0.26498222773583846,0.8155314399466196 l -27.326234674966315 -9.139597988279563" fill="red" stroke="none" /><path d="M 119.9155931802556 106.66101706037122 l 20.121099928867984 6.729751340396867 a42.21669661966878,42.21669661966878 0 0,0 -0.2364319337981411,0.6871818709524024 l -20.002277164126614 -7.075105914438571" fill="red" stroke="none" /><path d="M 119.79798401119884 107.00284435728193 l 20.717762616892433 7.328183867364698 a42.97562209913089,42.97562209913089 0 0,0 -0.2526879379738236,0.6952886801529388 l -20.588550417913382 -7.683720344523769" fill="red" stroke="none" /><path d="M 119.67450827220406 107.3425965602758 l 27.41216226544016 10.230316589121774 a50.25894764991526,50.25894764991526 0 0,0 -0.3094652110830725,0.807916013446578 l -27.23200277476358 -10.700656169401496" fill="red" stroke="none" /><path d="M 119.54520255179757 107.68017299344265 l 34.070378328946845 13.387755835474104 a57.60632029838347,57.60632029838347 0 0,0 -0.3705934892649007,0.9197826482046353 l -33.83488222542455 -13.972237851521552" fill="red" stroke="none" /><path d="M 119.12269723197855 108.67885076344098 l 17.167249057199747 7.791369113824743 a39.85258265755087,39.85258265755087 0 0,0 -0.28888450785561776,0.6222315295486962 l -17.0305899325043 -8.08572071065227" fill="red" stroke="none" /><path d="M 118.97047184881838 109.00673069616215 l 7.048723656706714 3.3465670349986096 a28.802821035263865,28.802821035263865 0 0,0 -0.21649673812979067,0.44604740476302324 l -6.990073661962208 -3.467403395726908" fill="red" stroke="none" /><path d="M 118.64920377521936 109.65438752849418 l 21.174834712818576 10.961865323226476 a44.84399539673965,44.84399539673965 0 0,0 -0.3607752639739812,0.6824508377306906 l -20.9830069406197 -11.3247311760433" fill="red" stroke="none" /><line stroke="#e1ed5e" stroke-width="0.3" x1="174.80103733775053" x2="179.2010983576182" y1="140.37084112569926" y2="142.7455964860345" /><path d="M 175.68104954172406 140.8457921977663 a86.0,86.0 0 0,1 -30.038265399797805,32.042727171017184" fill="none" id="id161" stroke="none" /><text fill="#e1ed5e" style="font-size:6.75px; font-family:Arial;" text-anchor="middle"><textPath startOffset="22.206326154141568" xlink:href="#id161">May</textPath></text><path d="M 118.48025628344425 109.97397251340804 l 25.564816499031075 13.79757797515426 a50.05052496271958,50.05052496271958 0 0,0 -0.415713917754019,0.7546415129935056 l -25.323526171825545 -14.235590006545571" fill="red" stroke="none" /><path d="M 117.94076556474637 110.91462005526583 l 13.586032672635435 8.26533205314418 a36.902704101210276,36.902704101210276 0 0,0 -0.33482238205479253,0.5398402896396934 l -13.44174565091268 -8.497968674149146" fill="red" stroke="none" /><path d="M 117.75023020441432 111.22182372390056 l 32.02410285422944 20.24586909621326 a58.88717961368026,58.88717961368026 0 0,0 -0.5490392084667002,0.8521210441020567 l -31.670858782385686 -20.79411174023677" fill="red" stroke="none" /><path d="M 117.55443506779139 111.5257021239791 l 6.045316240672566 3.969168701024539 a28.23188416852291,28.23188416852291 0 0,0 -0.2702152879179682,0.40393519214564866 l -5.976097847343877 -4.072640807375994" fill="red" stroke="none" /><path d="M 117.35343817320211 111.8261652097733 l 16.490770426558395 11.238267227187583 a40.956055710764375,40.956055710764375 0 0,0 -0.40203067478257043,0.5791551718888904 l -16.294878844613688 -11.520463661263493" fill="red" stroke="none" /><path d="M 117.14729908036423 112.12312394758627 l 39.70527424764785 28.071590681493813 a69.62636122999805,69.62636122999805 0 0,0 -0.7003092607205461,0.9726683123619844 l -39.2161851945517 -28.750892599306926" fill="red" stroke="none" /><path d="M 116.93607887273984 112.41649034213515 l 45.57018104889802 33.40925116933256 a77.50503928434077,77.50503928434077 0 0,0 -0.7980757866472846,1.0691529358951475 l -44.98834399555564 -34.18871698473703" fill="red" stroke="none" /><path d="M 116.498646956653 112.99209946851258 l 11.678417526611327 9.196339708291756 a35.86465942953845,35.86465942953845 0 0,0 -0.3861122422510297,0.48173438967943544 l -11.518387372305442 -9.396001931549442" fill="red" stroke="none" /><path d="M 116.0416608686014 113.55231037782055 l 10.553553706749069 8.915849586547935 a34.81556620957621,34.81556620957621 0 0,0 -0.3906928076581488,0.4544640001763294 l -10.398518389520142 -9.096190685885793" fill="red" stroke="none" /><path d="M 115.80600337817218 113.82643327865902 l 5.00342945624824 4.376791645940639 a27.647601931195062,27.647601931195062 0 0,0 -0.31642173583848787,0.3555031745783319 l -4.9273488707614135 -4.462268990259837" fill="red" stroke="none" /><path d="M 115.56566222782051 114.09645910891815 l 26.895922395539184 24.35728494530236 a57.28591974049327,57.28591974049327 0 0,0 -0.6682091338906002,0.7252090419315038 l -26.472666853652864 -24.816645242035197" fill="red" stroke="none" /><path d="M 115.32070863581623 114.36230785411682 l 21.752684540911243 20.391925690675503 a50.81626935266098,50.81626935266098 0 0,0 -0.6037298231833725,0.6330083059277409 l -21.398448166348906 -20.76334111318575" fill="red" stroke="none" /><path d="M 115.07121518719521 114.62390073753431 l 14.327721857636595 13.902474328619283 a40.96402780221756,40.96402780221756 0 0,0 -0.4953904236123254,0.5018278836648004 l -14.086290808968734 -14.147042706264747" fill="red" stroke="none" /><path d="M 114.81725581225074 114.88116024355365 l 14.398144779351718 14.460241652456975 a41.40600798134277,41.40600798134277 0 0,0 -0.5093925778051499,0.4985478503080801 l -14.147102249170773 -14.705939605687627" fill="red" stroke="none" /><path d="M 114.55890576462653 115.13401014063108 l 5.606362481638881 5.827824427253785 a29.08670747773307,29.08670747773307 0 0,0 -0.36381122618844824,0.3440062223129665 l -5.505215421059624 -5.923465286312672" fill="red" stroke="none" /><path d="M 114.29624159901734 115.38237550388516 l 11.774752868963859 12.669320733100985 a38.296140984721276,38.296140984721276 0 0,0 -0.4867265372620288,0.4446131516140508 l -11.554926782234967 -12.870126651301618" fill="red" stroke="none" /><path d="M 114.0293411484842 115.62618273729858 l 13.990952621448184 15.583424767973309 a41.94253763885102,41.94253763885102 0 0,0 -0.541373598357802,0.47769925612180525 l -13.720636670183794 -15.821947165867403" fill="red" stroke="none" /><path d="M 113.75828350139079 115.86535959552629 l 14.861069403937408 17.137036756344383 a43.683240787350975,43.683240787350975 0 0,0 -0.5723222683618049,0.4877454533643791 l -14.563881658998556 -17.39030659993171" fill="red" stroke="none" /><path d="M 113.48314897796784 116.09983520530334 l 15.312923996975336 18.284716223598036 a44.84987397691343,44.84987397691343 0 0,0 -0.5961399789506023,0.4905826176732108 l -14.995913889480041 -18.545593960128425" fill="red" stroke="none" /><path d="M 113.20401910651253 116.32954008644616 l 39.612057319537584 48.98862025933848 a84.0,84.0 0 0,0 -1.1321700291305956,0.899464343979496 l -38.762929797689644 -49.6632185173231" fill="red" stroke="none" /><path d="M 112.92097659922987 116.55440617244103 l 20.5050712673498 26.27117816890023 a54.326157145119424,54.326157145119424 0 0,0 -0.7421244655372704,0.5690293943633389 l -20.049818073319035 -26.620246905090944" fill="red" stroke="none" /><path d="M 112.63410532772338 116.77436683061366 l 10.451948162392677 13.877105503134674 a38.37288915334678,38.37288915334678 0 0,0 -0.5310351579250013,0.39284711457529453 l -10.211528034049111 -14.054962566449738" fill="red" stroke="none" /><path d="M 112.34349029814194 116.9893568818739 l 11.142922224186885 15.33691669058726 a39.957471594816965,39.957471594816965 0 0,0 -0.5599234256480514,0.39949049731087793 l -10.87727147068995 -15.526451449742359" fill="red" stroke="none" /><path d="M 112.04921762599082 117.19931262002967 l 5.1825430281664335 7.397673481796704 a30.03240417508399,30.03240417508399 0 0,0 -0.425949753417702,0.29297212441791226 l -5.054436390125848 -7.48578639557971" fill="red" stroke="none" /><path d="M 111.7513745106137 117.40417183066458 l 11.309006195237975 16.74900981823045 a41.209476762526805,41.209476762526805 0 0,0 -0.5913075238208018,0.3918863837746634 l -11.01902397267721 -16.94119422309643" fill="red" stroke="none" /><path d="M 111.1453310114006 117.79835938074945 l 7.555202520391291 12.065160695067574 a35.235490427868314,35.235490427868314 0 0,0 -0.516822092969975,0.3174743412338557 l -7.346401227489007 -12.193423503129807" fill="red" stroke="none" /><line stroke="#e1ed5e" stroke-width="0.3" x1="143.8653032363475" x2="146.44561519142675" y1="172.8068346515853" y2="177.08958963109032" /><path d="M 144.38136562736335 173.6633856474863 a86.0,86.0 0 0,1 -40.68145358897372,12.25698825130547" fill="none" id="id162" stroke="none" /><text fill="#e1ed5e" style="font-size:6.75px; font-family:Arial;" text-anchor="middle"><textPath startOffset="21.466115282336833" xlink:href="#id162">June</textPath></text><path d="M 110.8373102113329 117.98757091392108 l 19.395844733797745 32.19287127351496 a58.58430195933795,58.58430195933795 0 0,0 -0.8682531915771845,0.5129792897836738 l -18.838823671192177 -32.521969135592386" fill="red" stroke="none" /><path d="M 110.21172684928248 118.3499491758327 l 4.892080674341083 8.790817955000405 a31.060364488537132,31.060364488537132 0 0,0 -0.4694214830336568,0.2559660206900098 l -4.740036379438777 -8.873724627450185" fill="red" stroke="none" /><path d="M 109.89434966115114 118.52300852407294 l 10.465827280132334 19.592860022172705 a43.21291751450078,43.21291751450078 0 0,0 -0.6591186003936541,0.3448196998570915 l -10.127017777212185 -19.77010914097451" fill="red" stroke="none" /><path d="M 109.57404056367764 118.69057910512821 l 9.168828382914917 17.899518082508322 a41.1111949297248,41.1111949297248 0 0,0 -0.6326153329539467,0.31720646082199344 l -8.85935914227821 -18.05469238423962" fill="red" stroke="none" /><path d="M 109.2508944713604 118.85261126421891 l 13.440242301621433 27.390179857074752 a51.51003221448968,51.51003221448968 0 0,0 -0.7993555699810526,0.38373925034889556 l -12.966774063640148 -27.61747338392321" fill="red" stroke="none" /><path d="M 108.92500713936063 119.00905698771935 l 2.9402404402419693 6.262314103892197 a27.918207266499135,27.918207266499135 0 0,0 -0.43676307561159783,0.20049650613720324 l -2.832009368862952 -6.311997680363475" fill="red" stroke="none" /><path d="M 108.59647513512805 119.15986991738527 l 11.166547309501992 24.888060572887333 a48.27833092209007,48.27833092209007 0 0,0 -0.7611408204921564,0.33366176783693763 l -10.736485814352083 -25.076586894018728" fill="red" stroke="none" /><path d="M 108.2653958097858 119.30500536409082 l 11.498358549541587 26.856048831240713 a50.214031015246796,50.214031015246796 0 0,0 -0.7975148798697373,0.3333612844659221 l -11.034372210174388 -27.049995158726606" fill="red" stroke="none" /><path d="M 107.93186726928326 119.44442032107085 l 5.774917555298161 14.156808283920647 a36.2893719150976,36.2893719150976 0 0,0 -0.5804207233314047,0.2309613843321225 l -5.53037575592489 -14.254116512658838" fill="red" stroke="none" /><path d="M 107.59598834532513 119.57807347666477 l 14.201269454322782 36.60267554382957 a60.261073738260656,60.261073738260656 0 0,0 -0.9702887409460418,0.36688017751857027 l -13.569110492616465 -36.84170397145477" fill="red" stroke="none" /><path d="M 107.2578585660854 119.70592522655815 l 6.698519256716948 18.187254325723213 a40.381599008883285,40.381599008883285 0 0,0 -0.6543365834865081,0.23462181865772183 l -6.384463112600706 -18.299863685420895" fill="red" stroke="none" /><path d="M 106.2309692047433 120.05430185196036 l 3.25854324459356 10.487583500653434 a31.98214513472047,31.98214513472047 0 0,0 -0.5271343239148043,0.15882124764673516 l -3.07753394623851 -10.542120117405895" fill="red" stroke="none" /><path d="M 105.88484417918355 120.15858648285463 l 13.624766722796338 46.67176053050821 a69.61982619536728,69.61982619536728 0 0,0 -1.1532651245401326,0.3259242438490066 l -12.8193704301516 -46.89937356769573" fill="red" stroke="none" /><path d="M 105.53697534728816 120.25689768951611 l 5.753953952261003 21.050708953982287 a42.822931369319065,42.822931369319065 0 0,0 -0.7127154181144925,0.18823461969367 l -5.390748091335013 -21.14663492297954" fill="red" stroke="none" /><path d="M 105.18746579009965 120.34920634021253 l 1.742550669122664 6.835615801443443 a28.054227542360902,28.054227542360902 0 0,0 -0.4689687822767777,0.11526111672984679 l -1.624628602102675 -6.86459817648732" fill="red" stroke="none" /><path d="M 104.83641907484287 120.43548508189849 l 1.7932887390438 7.577243557095347 a28.786559216054563,28.786559216054563 0 0,0 -0.483175337712783,0.10996913377958616 l -1.662593251938155 -7.6069894244526175" fill="red" stroke="none" /><path d="M 103.7750983002368 120.6578951692458 l 3.295739360780222 18.03477229079947 a39.33343692587902,39.33343692587902 0 0,0 -0.6670782865090983,0.11598011076689399 l -2.984812102799074 -18.08883098008737" fill="red" stroke="none" /><path d="M 103.41894727170886 120.7198165907248 l 3.335016616937873 20.211172369275577 a41.48447764469039,41.48447764469039 0 0,0 -0.7055603634103628,0.11019401818295146 l -2.9866203899189934 -20.265584694805632" fill="red" stroke="none" /><path d="M 103.06178313531738 120.77559828337769 l 4.782023545879957 32.448215885987956 a53.798696062146,53.798696062146 0 0,0 -0.917322613870673,0.12713255561978123 l -4.222772340822454 -32.52572300710034" fill="red" stroke="none" /><path d="M 102.70371172650421 120.8252237178851 l 3.497026801390728 26.935699088217376 a48.16175770859904,48.16175770859904 0 0,0 -0.8230444809171422,0.0996592246135679 l -3.0328548974222054 -26.991903841556294" fill="red" stroke="none" /><path d="M 102.34483914955558 120.86867818915974 l 2.211205056365893 19.679356999941074 a40.803194685010496,40.803194685010496 0 0,0 -0.698642798242157,0.07241718261585633 l -1.8721296615181333 -19.71450355101269" fill="red" stroke="none" /><path d="M 101.62511606390274 120.93702456842531 l 4.215819056718447 54.314094314332465 a75.47746296869185,75.47746296869185 0 0,0 -1.296189708020931,0.0893928312258166 l -3.280266587918585 -54.378615490074566" fill="red" stroke="none" /><path d="M 101.26447882468166 120.96189622390904 l 1.6585424244057925 27.494485083288943 a48.544463562915,48.544463562915 0 0,0 -0.8345300266037811,0.04313567003377348 l -1.1850243293885319 -27.51896056008492" fill="red" stroke="none" /><path d="M 100.90346689309514 120.98055641714683 l 1.2828948722537312 29.791737196233182 a50.819346478799275,50.819346478799275 0 0,0 -0.8742855059040285,0.03011216057570859 l -0.7698890146750504 -29.809406155234985" fill="red" stroke="none" /><line stroke="#e1ed5e" stroke-width="0.3" x1="102.19456741930631" x2="102.32365962044197" y1="184.97166512339345" y2="189.96999836594603" /><path d="M 102.22038585953345 185.97133177190398 a86.0,86.0 0 0,1 -42.740103519485714,-10.115201625700543" fill="none" id="id163" stroke="none" /><text fill="#e1ed5e" style="font-size:6.75px; font-family:Arial;" text-anchor="middle"><textPath startOffset="22.20632615414155" xlink:href="#id163">July</textPath></text><path d="M 100.54218724476979 120.99299961872073 l 1.0458419121210236 40.4940526989357 a61.5075559530482,61.5075559530482 0 0,0 -1.0586338141720866,0.01822534116291433 l -0.3486484080562692 -40.506055517377774" fill="red" stroke="none" /><path d="M 100.18074693466247 120.99922214144158 l 0.13305199117123073 15.458012188054276 a36.4585847876961,36.4585847876961 0 0,0 -0.6275978516673617,0.0 l 0.1330519911712201 -15.458012188054276" fill="red" stroke="none" /><path d="M 99.81925306533755 120.99922214144158 l -0.18675715694462433 21.697491205083296 a42.698294929103,42.698294929103 0 0,0 -0.7348992838204434,-0.012651957635118347 l 0.5602161306577357 -21.691061770169018" fill="red" stroke="none" /><path d="M 99.45781275523022 120.99299961872073 l -0.5217742080561832 20.20262530416556 a41.20936212513159,41.20936212513159 0 0,0 -0.7089573264895155,-0.02441792379310041 l 0.8694518862203418 -20.190650581946365" fill="red" stroke="none" /><path d="M 98.73552117531835 120.96189622390904 l -1.200345453991759 19.898725346983188 a40.93489652954311,40.93489652954311 0 0,0 -0.7029832415340278,-0.0484818401783005 l 1.542691456304717 -19.875115162288605" fill="red" stroke="none" /><path d="M 97.2962882734958 120.8252237178851 l -2.5215163276296875 19.421871465225834 a40.5848700736629,40.5848700736629 0 0,0 -0.692013409703614,-0.09590675294436654 l 2.8554583285201325 -19.375590146788863" fill="red" stroke="none" /><path d="M 96.93821686468263 120.77559828337769 l -3.331383334030246 22.604958880792143 a43.84911991566761,43.84911991566761 0 0,0 -0.7457777641050473,-0.11647514905884161 l 3.7199969617438104 -22.544265424386197" fill="red" stroke="none" /><path d="M 96.58105272829116 120.7198165907248 l -2.35163581347136 14.25159818827879 a35.444315211160145,35.444315211160145 0 0,0 -0.6011204437106453,-0.10451249434402662 l 2.596605228654055 -14.209007115413756" fill="red" stroke="none" /><path d="M 96.22490169976321 120.6578951692458 l -2.6732378219803024 14.628351978402295 a35.870604629835746,35.870604629835746 0 0,0 -0.6064393489755326,-0.11622554456897306 l 2.92464478552753 -14.580169235484853" fill="red" stroke="none" /><path d="M 95.86986931433489 120.58985236759428 l -3.3498736600891976 16.700053669178764 a38.03271693218702,38.03271693218702 0 0,0 -0.6407761902689003,-0.13428088082105133 l 3.6368413117874847 -16.63991680763117" fill="red" stroke="none" /><line stroke="#e1ed5e" stroke-width="0.3" x1="58.666819895761336" x2="56.23545636021788" y1="174.27360380694188" y2="178.64263932499728" /><path d="M 58.180547188652646 175.14741091055294 a86.0,86.0 0 0,1 -31.652253787137756,-30.449443065178592" fill="none" id="id164" stroke="none" /><text fill="#e1ed5e" style="font-size:6.75px; font-family:Arial;" text-anchor="middle"><textPath startOffset="22.20632615414155" xlink:href="#id164">August</textPath></text><line stroke="#e1ed5e" stroke-width="0.3" x1="26.63291911575756" x2="22.317208475507996" y1="142.92168965132927" y2="145.44649492493687" /><path d="M 25.769776987707644 143.4266507060508 a86.0,86.0 0 0,1 -11.730757126820373,-40.83630448921669" fill="none" id="id165" stroke="none" /><text fill="#e1ed5e" style="font-size:6.75px; font-family:Arial;" text-anchor="middle"><textPath startOffset="21.46611528233685" xlink:href="#id165">September</textPath></text><line stroke="#e1ed5e" stroke-width="0.3" x1="15.007084014347285" x2="10.007500721073583" y1="101.09737516637583" y2="101.16192664675087" /><path d="M 14.007167355692545 101.11028546245083 a86.0,86.0 0 0,1 10.666146001902534,-42.60595125391555" fill="none" id="id166" stroke="none" /><text fill="#e1ed5e" style="font-size:6.75px; font-family:Arial;" text-anchor="middle"><textPath startOffset="22.20632615414155" xlink:href="#id166">October</textPath></text><line stroke="#e1ed5e" stroke-width="0.3" x1="26.266209847984243" x2="21.928928074336255" y1="57.711370442889674" y2="55.22380399835377" /><path d="M 25.398753493254645 57.213857153982495 a86.0,86.0 0 0,1 29.58750427330803,-30.492523968695096" fill="none" id="id167" stroke="none" /><text fill="#e1ed5e" style="font-size:6.75px; font-family:Arial;" text-anchor="middle"><textPath startOffset="21.46611528233685" xlink:href="#id167">November</textPath></text><line stroke="#e1ed5e" stroke-width="0.3" x1="56.762969772571076" x2="54.21961505331055" y1="26.818313649435495" y2="22.513508569990535" /><path d="M 56.25429882871897 25.957352633546506 a86.0,86.0 0 0,1 42.265352541879196,-11.944610805530505" fill="none" id="id168" stroke="none" /><text fill="#e1ed5e" style="font-size:6.75px; font-family:Arial;" text-anchor="middle"><textPath startOffset="22.20632615414155" xlink:href="#id168">December</textPath></text></svg>