<?xml version="1.0" encoding="utf-8" ?>
<svg baseProfile="full" height="200mm" version="1.1" viewBox="0,0,200,200" width="200mm" xmlns="http://www.w3.org/2000/svg" xmlns:ev="http://www.w3.org/2001/xml-events" xmlns:xlink="http://www.w3.org/1999/xlink"><defs /><rect fill="#1a1a1a" height="200" width="200" x="0" y="0" /><rect fill="#1a1a1a" height="200" width="180" x="10" y="0" /><text alignment-baseline="middle" fill="#e1ed5e" style="dominant-baseline: central; font-size:9.0px; font-family:Arial;" text-anchor="middle" x="100.0" y="100.0">2018</text><line stroke="#e1ed5e" stroke-width="0.3" x1="100.0" x2="100.0" y1="15.0" y2="10.0" /><path d="M 100.0 14.0 a86.0,86.0 0 0,1 42.46469731375804,11.215312516191453" fill="none" id="id61" stroke="none" /><text fill="#e1ed5e" style="font-size:6.75px; font-family:Arial;" text-anchor="middle"><textPath startOffset="22.20632615414155" xlink:href="#id61">January</textPath></text><path d="M 100.72285384407766 79.0124445844662 l 1.2223329642712941 -35.48958206981789 a56.51062564030496,56.51062564030496 0 0,0 0.9718728817814589,0.04185089067842257 l -1.8330466784420845 35.46328345261528" fill="red" stroke="none" /><path d="M 101.08401301168833 79.027996857942 l 1.8457191443582592 -35.708453014369624 a56.7561224944665,56.7561224944665 0 0,0 0.9752268074624433,0.05882834425502458 l -2.4601080006603144 35.671391400734294" fill="red" stroke="none" /><path d="M 101.44485096284872 79.0497635885617 l 2.4581335777833737 -35.642762409155466 a56.72742549977163,56.72742549977163 0 0,0 0.9735771753492662,0.07556832643235825 l -3.071300942494981 35.59516882053464" fill="red" stroke="none" /><path d="M 102.16513564639614 79.11191278185805 l 6.4954069391883955 -62.66426165442583 a84.0,84.0 0 0,0 1.436933185961099,0.1614561861175967 l -7.57310682865922 62.54316951483763" fill="red" stroke="none" /><path d="M 102.52436894288641 79.15227682838746 l 4.3078119830245685 -35.57644454093283 a56.8363035238731,56.8363035238731 0 0,0 0.9702370333031481,0.1259646129120543 l -4.919563744835563 35.49702160485664" fill="red" stroke="none" /><path d="M 102.88285421437855 79.19881850522331 l 4.928952262005315 -35.56476427760117 a56.90469368372976,56.90469368372976 0 0,0 0.9690896962146336,0.14281863020300137 l -5.540410938648605 35.474651163237205" fill="red" stroke="none" /><path d="M 104.66035177308747 79.52364482259891 l 8.535551030897901 -37.50295751337844 a59.462026125144924,59.462026125144924 0 0,0 0.9960634436210278,0.23573603558594186 l -9.179838161481454 37.35047556565163" fill="red" stroke="none" /><path d="M 105.71112130821622 79.79150937346287 l 9.807556421006161 -34.703502395931515 a57.062740349225315,57.062740349225315 0 0,0 0.9429204335566327,0.2752643311359357 l -10.40346707228622 34.529539735876874" fill="red" stroke="none" /><path d="M 106.0581310904928 79.89281104454417 l 10.457115393522532 -34.70760074448304 a57.248707725819486,57.248707725819486 0 0,0 0.9410995857315142,0.2924042223248286 l -11.053000351964764 34.52245638727569" fill="red" stroke="none" /><path d="M 106.74666289553966 80.11325718540242 l 11.462963408725077 -33.78870542845231 a56.680192609352495,56.680192609352495 0 0,0 0.9212366547967544,0.32140137990269746 l -12.042882067585106 33.5863831953774" fill="red" stroke="none" /><path d="M 107.08798089147638 80.2323363322302 l 9.621884110869303 -26.834464125411134 a49.50735201208587,49.50735201208587 0 0,0 0.7997032765094345,0.29453746571199924 l -10.082369713151314 26.66486339189281" fill="red" stroke="none" /><path d="M 110.05341064243156 81.56283822128135 l 17.670566553785093 -32.4064246315271 a57.911045497663636,57.911045497663636 0 0,0 0.871081154731682,0.48475571950862545 l -18.225771797588813 32.097453514458294" fill="red" stroke="none" /><line stroke="#e1ed5e" stroke-width="0.3" x1="143.23703022742887" x2="145.7803849466894" y1="26.81831364943548" y2="22.513508569990506" /><path d="M 143.74570117128098 25.957352633546492 a86.0,86.0 0 0,1 28.547481713284135,27.462654790039103" fill="none" id="id62" stroke="none" /><text fill="#e1ed5e" style="font-size:6.75px; font-family:Arial;" text-anchor="middle"><textPath startOffset="19.985693538727396" xlink:href="#id62">February</textPath></text><line stroke="#e1ed5e" stroke-width="0.3" x1="172.23445277983987" x2="176.4835382374775" y1="55.19839476539836" y2="52.563006222186495" /><path d="M 173.08426987136738 54.67131705675599 a86.0,86.0 0 0,1 12.851231095245387,41.99856678651699" fill="none" id="id63" stroke="none" /><text fill="#e1ed5e" style="font-size:6.75px; font-family:Arial;" text-anchor="middle"><textPath startOffset="22.20632615414155" xlink:href="#id63">March</textPath></text><path d="M 118.21658344932153 89.55222093294921 l 31.609659828794758 -18.12912630925742 a57.43948154446123,57.43948154446123 0 0,0 0.4845221544631251,0.8619108483550384 l -31.917039624550316 17.582331950967585" fill="red" stroke="none" /><path d="M 120.6074358757038 95.95851677861258 l 36.95621346686307 -7.24776811405404 a58.66021583107895,58.66021583107895 0 0,0 0.18579722815693467,0.992536222169523 l -37.07549641892986 6.610553814421954" fill="red" stroke="none" /><path d="M 120.67395015179393 96.31383870115 l 36.11737264035051 -6.439720530691672 a57.68698143695324,57.68698143695324 0 0,0 0.1658861630235741,0.9790695244424087 l -36.22287066489431 5.8170652179334255" fill="red" stroke="none" /><line stroke="#e1ed5e" stroke-width="0.3" x1="184.98032266829074" x2="189.97916517819016" y1="98.17113171792111" y2="98.06355123074" /><path d="M 185.9800911702706 98.14961562048488 a86.0,86.0 0 0,1 -9.607161424134198,41.387399972396054" fill="none" id="id64" stroke="none" /><text fill="#e1ed5e" style="font-size:6.75px; font-family:Arial;" text-anchor="middle"><textPath startOffset="21.466115282336823" xlink:href="#id64">April</textPath></text><path d="M 120.99513854157772 99.54816195383933 l 53.719715952154786 -1.1561062789873666 a74.73215483961636,74.73215483961636 0 0,0 0.016608306414965184,1.286331634834887 l -53.73165726568747 0.23123838609201688" fill="red" stroke="none" /><path d="M 120.9904718944345 100.63252640178507 l 37.849076144536795 1.1405431981231777 a58.86625679654288,58.86625679654288 0 0,0 -0.0392381924849983,1.0125633970489376 l -37.823835819200596 -1.7918838421861214" fill="red" stroke="none" /><path d="M 120.9764740272857 100.99374915477107 l 35.910004558985364 1.7012171174191553 a56.95027909637072,56.95027909637072 0 0,0 -0.05481775992911013,0.9788079280224621 l -35.875400448168726 -2.3190967617770406" fill="red" stroke="none" /><path d="M 120.8583938346157 102.4346265915055 l 37.329552164784204 4.357167722020343 a58.58297986298001,58.58297986298001 0 0,0 -0.12553074655506613,1.0006035608471424 l -37.24901990898229 -4.99908903715488" fill="red" stroke="none" /><path d="M 120.81339534386255 102.79330883721812 l 36.805813093545694 4.939607463205946 a58.13579943084004,58.13579943084004 0 0,0 -0.14164634989464087,0.990674241255469 l -36.71533269263445 -5.572427176441825" fill="red" stroke="none" /><path d="M 120.70491114924044 103.5080841355445 l 35.66825440115831 6.043360268747593 a57.17660259565049,57.17660259565049 0 0,0 -0.17276470712630482,0.968956226693829 l -35.55894325169282 -6.656435246174641" fill="red" stroke="none" /><path d="M 119.54520255179757 107.68017299344265 l 35.355292024104706 13.892655154593639 a58.98687327688578,58.98687327688578 0 0,0 -0.3794748748970356,0.9418255189864596 l -35.110914534950275 -14.499180041422912" fill="red" stroke="none" /><path d="M 119.41010516605496 108.01547362559984 l 35.52957346166027 14.672066770086007 a59.439824839265015,59.439824839265015 0 0,0 -0.3986686193672143,0.9423348513777363 l -35.27175386110075 -15.281476147129906" fill="red" stroke="none" /><path d="M 119.26925614724726 108.34839909993367 l 32.98179364622022 14.289351612030842 a56.94418286196114,56.94418286196114 0 0,0 -0.3974132224339555,0.8960619025618878 l -32.73093933905499 -14.854961851085417" fill="red" stroke="none" /><line stroke="#e1ed5e" stroke-width="0.3" x1="174.80103733775053" x2="179.2010983576182" y1="140.37084112569926" y2="142.7455964860345" /><path d="M 175.68104954172406 140.8457921977663 a86.0,86.0 0 0,1 -30.038265399797805,32.042727171017184" fill="none" id="id65" stroke="none" /><text fill="#e1ed5e" style="font-size:6.75px; font-family:Arial;" text-anchor="middle"><textPath startOffset="22.206326154141568" xlink:href="#id65">May</textPath></text><line stroke="#e1ed5e" stroke-width="0.3" x1="143.8653032363475" x2="146.44561519142675" y1="172.8068346515853" y2="177.08958963109032" /><path d="M 144.38136562736335 173.6633856474863 a86.0,86.0 0 0,1 -40.68145358897372,12.25698825130547" fill="none" id="id66" stroke="none" /><text fill="#e1ed5e" style="font-size:6.75px; font-family:Arial;" text-anchor="middle"><textPath startOffset="21.466115282336833" xlink:href="#id66">June</textPath></text><path d="M 110.8373102113329 117.98757091392108 l 18.393979848194626 30.529994108929575 a56.64293807961213,56.64293807961213 0 0,0 -0.8394810576059624,0.4959802058836105 l -17.86573091956028 -30.842092887106933" fill="red" stroke="none" /><path d="M 110.21172684928248 118.3499491758327 l 22.121117815472598 39.750513661168945 a66.49117705371887,66.49117705371887 0 0,0 -1.0048944194691962,0.5479485602210615 l -21.43360058413475 -40.12540287314978" fill="red" stroke="none" /><line stroke="#e1ed5e" stroke-width="0.3" x1="102.19456741930631" x2="102.32365962044197" y1="184.97166512339345" y2="189.96999836594603" /><path d="M 102.22038585953345 185.97133177190398 a86.0,86.0 0 0,1 -42.740103519485714,-10.115201625700543" fill="none" id="id67" stroke="none" /><text fill="#e1ed5e" style="font-size:6.75px; font-family:Arial;" text-anchor="middle"><textPath startOffset="22.20632615414155" xlink:href="#id67">July</textPath></text><path d="M 93.76903079525671 120.05430185196036 l -11.073271026623688 35.639193897384594 a58.31982680673155,58.31982680673155 0 0,0 -0.9561081679786122,-0.3061156424859502 l 11.685100539693241 -35.443305408238935" fill="red" stroke="none" /><path d="M 92.40401165467489 119.57807347666478 l -13.348963087232423 34.405921688909125 a57.904772899553805,57.904772899553805 0 0,0 -0.9261425149306052,-0.3685312200940688 l 13.939226678204886 -34.17104362440899" fill="red" stroke="none" /><path d="M 91.7346041902142 119.30500536409082 l -14.064124449572875 32.84875935630257 a56.73290623195025,56.73290623195025 0 0,0 -0.8944329676180762,-0.3920931280418122 l 14.627478091848694 -32.6018016749663" fill="red" stroke="none" /><line stroke="#e1ed5e" stroke-width="0.3" x1="58.666819895761336" x2="56.23545636021788" y1="174.27360380694188" y2="178.64263932499728" /><path d="M 58.180547188652646 175.14741091055294 a86.0,86.0 0 0,1 -31.652253787137756,-30.449443065178592" fill="none" id="id68" stroke="none" /><text fill="#e1ed5e" style="font-size:6.75px; font-family:Arial;" text-anchor="middle"><textPath startOffset="22.20632615414155" xlink:href="#id68">August</textPath></text><path d="M 89.7882731507175 118.34994917583269 l -17.37445328017172 31.221001046598893 a56.729854927449665,56.729854927449665 0 0,0 -0.8491952308964205,-0.48219521473711896 l 17.90929727798935 -30.91730266606714" fill="red" stroke="none" /><path d="M 89.4739219176387 118.17145234162733 l -18.37259944470518 31.717113685553787 a57.65416362294909,57.65416362294909 0 0,0 -0.8544680042118311,-0.5048347581046501 l 18.915835319945394 -31.396160355155388" fill="red" stroke="none" /><path d="M 89.1626897886671 117.98757091392108 l -18.80599376858082 31.213847340584735 a57.44131813512279,57.44131813512279 0 0,0 -0.8425295604249193,-0.5175504700831177 l 19.340502528938046 -30.88550840367324" fill="red" stroke="none" /><path d="M 87.95078237400918 117.19931262002967 l -20.958641546352354 29.91681611503919 a57.527805052173,57.527805052173 0 0,0 -0.8061362340805358,-0.5751567987719445 l 21.470505108281777 -29.551615054423024" fill="red" stroke="none" /><path d="M 87.65650970185807 116.9893568818739 l -21.941913944209695 30.20045365334457 a58.32981366686575,58.32981366686575 0 0,0 -0.8072152630607535,-0.5971585538209202 l 22.45851417768901 -29.818285150783886" fill="red" stroke="none" /><path d="M 87.36589467227662 116.77436683061367 l -21.505881951254356 28.553470428540418 a56.74637928538805,56.74637928538805 0 0,0 -0.7751859989995302,-0.5943795684060874 l 21.99419667874737 -28.179051518306963" fill="red" stroke="none" /><line stroke="#e1ed5e" stroke-width="0.3" x1="26.63291911575756" x2="22.317208475507996" y1="142.92168965132927" y2="145.44649492493687" /><path d="M 25.769776987707644 143.4266507060508 a86.0,86.0 0 0,1 -11.730757126820373,-40.83630448921669" fill="none" id="id69" stroke="none" /><text fill="#e1ed5e" style="font-size:6.75px; font-family:Arial;" text-anchor="middle"><textPath startOffset="21.46611528233685" xlink:href="#id69">September</textPath></text><path d="M 80.87730276802145 108.67885076344099 l -32.25497964428701 14.638947179609257 a56.421497517478834,56.421497517478834 0 0,0 -0.3937654035237373,-0.8878370339154339 l 32.50218613254203 -14.081561809201128" fill="red" stroke="none" /><path d="M 80.73074385275274 108.34839909993369 l -49.32129963541042 21.368437387378954 a74.75128569722096,74.75128569722096 0 0,0 -0.5013640592889114,-1.185076535610084 l 49.68181467589164 -20.516286326102712" fill="red" stroke="none" /><line stroke="#e1ed5e" stroke-width="0.3" x1="15.007084014347285" x2="10.007500721073583" y1="101.09737516637583" y2="101.16192664675087" /><path d="M 14.007167355692545 101.11028546245083 a86.0,86.0 0 0,1 10.666146001902534,-42.60595125391555" fill="none" id="id70" stroke="none" /><text fill="#e1ed5e" style="font-size:6.75px; font-family:Arial;" text-anchor="middle"><textPath startOffset="22.20632615414155" xlink:href="#id70">October</textPath></text><path d="M 80.02781315780177 93.51064311812611 l -33.445256606707 -10.867022617082835 a56.16642390190774,56.16642390190774 0 0,0 0.3066759125597404,-0.9169219441066928 l 33.25324340037549 11.44111766411185" fill="red" stroke="none" /><path d="M 80.38941819471856 92.48833698450439 l -50.90540485574585 -19.49887314616821 a75.51207478621367,75.51207478621367 0 0,0 0.47538968326445563,-1.2098148906765298 l 50.5622216225997 20.372237041740505" fill="red" stroke="none" /><path d="M 81.43458229118936 90.18545643968196 l -18.506120039904513 -9.783196053699418 a41.93292631135158,41.93292631135158 0 0,0 0.3428354201775099,-0.6352219659123356 l 18.33497652050853 10.100299002944226" fill="red" stroke="none" /><line stroke="#e1ed5e" stroke-width="0.3" x1="26.266209847984243" x2="21.928928074336255" y1="57.711370442889674" y2="55.22380399835377" /><path d="M 25.398753493254645 57.213857153982495 a86.0,86.0 0 0,1 29.58750427330803,-30.492523968695096" fill="none" id="id71" stroke="none" /><text fill="#e1ed5e" style="font-size:6.75px; font-family:Arial;" text-anchor="middle"><textPath startOffset="21.46611528233685" xlink:href="#id71">November</textPath></text><line stroke="#e1ed5e" stroke-width="0.3" x1="56.762969772571076" x2="54.21961505331055" y1="26.818313649435495" y2="22.513508569990535" /><path d="M 56.25429882871897 25.957352633546506 a86.0,86.0 0 0,1 42.265352541879196,-11.944610805530505" fill="none" id="id72" stroke="none" /><text fill="#e1ed5e" style="font-size:6.75px; font-family:Arial;" text-anchor="middle"><textPath startOffset="22.20632615414155" xlink:href="#id72">December</textPath></text></svg>