<?xml version="1.0" encoding="utf-8" ?>
<svg baseProfile="full" height="200mm" version="1.1" viewBox="0,0,200,200" width="200mm" xmlns="http://www.w3.org/2000/svg" xmlns:ev="http://www.w3.org/2001/xml-events" xmlns:xlink="http://www.w3.org/1999/xlink"><defs /><rect fill="#1a1a1a" height="200" width="200" x="0" y="0" /><rect fill="#1a1a1a" height="200" width="180" x="10" y="0" /><text alignment-baseline="middle" fill="#e1ed5e" style="dominant-baseline: central; font-size:9.0px; font-family:Arial;" text-anchor="middle" x="100.0" y="100.0">2015</text><line stroke="#e1ed5e" stroke-width="0.3" x1="100.0" x2="100.0" y1="15.0" y2="10.0" /><path d="M 100.0 14.0 a86.0,86.0 0 0,1 42.46469731375804,11.215312516191453" fill="none" id="id25" stroke="none" /><text fill="#e1ed5e" style="font-size:6.75px; font-family:Arial;" text-anchor="middle"><textPath startOffset="22.20632615414155" xlink:href="#id25">January</textPath></text><path d="M 102.16513564639614 79.11191278185805 l 5.869215970220143 -56.62310132491335 a77.92647274999999,77.92647274999999 0 0,0 1.3330373185639077,0.1497822748549027 l -6.843019992293776 56.51368309658785" fill="red" stroke="none" /><path d="M 102.52436894288641 79.15227682838746 l 3.217332842680276 -26.570626549715833 a47.76470485294118,47.76470485294118 0 0,0 0.8153782469975819,0.10585949797266571 l -3.674225818185704 26.51130872857903" fill="red" stroke="none" /><path d="M 102.88285421437855 79.19881850522331 l 3.5894360731408708 -25.899509884649763 a47.14705841176471,47.14705841176471 0 0,0 0.8029166937899588,0.11832904923261843 l -4.034721747359486 25.833886351256176" fill="red" stroke="none" /><path d="M 103.2404852339499 79.25152402106235 l 3.987067600396768 -25.52876200963173 a46.838235191176466,46.838235191176466 0 0,0 0.7955157394614755,0.1312669132530247 l -4.425912545997119 25.45634883343908" fill="red" stroke="none" /><path d="M 103.59715602781102 79.31037775812273 l 2.309938323825042 -13.285982301706808 a34.4852935,34.4852935 0 0,0 0.5839589818475438,0.10671477136076216 l -2.5382924267754867 13.244252048995307" fill="red" stroke="none" /><path d="M 107.4271985657038 80.35727306442388 l 8.373802122430794 -22.146211259651334 a44.676470073529416,44.676470073529416 0 0,0 0.7169867877699037,0.2781797345966481 l -8.753772075200365 21.99878882116414" fill="red" stroke="none" /><path d="M 107.76421540070413 80.48803036053334 l 8.71571223384503 -21.903142006813667 a44.57352900000001,44.57352900000001 0 0,0 0.7104513878890378,0.28981095949193 l -9.091447491322455 21.74987016113816" fill="red" stroke="none" /><path d="M 108.76106565485865 80.91482961587045 l 22.546860141180357 -49.11624731209814 a75.04411764705883,75.04411764705883 0 0,0 1.1693366860911425,0.5490192532129308 l -23.388975038571097 48.72086307624521" fill="red" stroke="none" /><path d="M 109.08828744355905 81.06846463323043 l 10.60300250754028 -22.08679228204924 a45.50000113235294,45.50000113235294 0 0,0 0.7031456056431628,0.34503049496126226 l -10.981619380193875 21.901006626953148" fill="red" stroke="none" /><path d="M 109.41281617654863 81.2277094730956 l 16.149439518588323 -32.20736119812029 a57.029411764705884,57.029411764705884 0 0,0 0.8737435778226932,0.4475653969454642 l -16.701443583999772 31.924603275862324" fill="red" stroke="none" /><path d="M 109.73455568895987 81.39251694778311 l 24.288671527935822 -46.427495846522774 a73.39706036764706,73.39706036764706 0 0,0 1.1144293461183257,0.5952895615640609 l -25.08424592058246 46.00252755845696" fill="red" stroke="none" /><path d="M 110.05341064243156 81.56283822128135 l 23.11298848833757 -42.3873969845197 a69.27941238235294,69.27941238235294 0 0,0 1.0420808330871365,0.5799168553760125 l -23.83919341049674 41.98326473158351" fill="red" stroke="none" /><line stroke="#e1ed5e" stroke-width="0.3" x1="143.23703022742887" x2="145.7803849466894" y1="26.81831364943548" y2="22.513508569990506" /><path d="M 143.74570117128098 25.957352633546492 a86.0,86.0 0 0,1 28.547481713284135,27.462654790039103" fill="none" id="id26" stroke="none" /><text fill="#e1ed5e" style="font-size:6.75px; font-family:Arial;" text-anchor="middle"><textPath startOffset="19.985693538727396" xlink:href="#id26">February</textPath></text><path d="M 113.06298171725822 83.55741782278167 l 7.492003964055316 -9.430304161589287 a33.04411723529412,33.04411723529412 0 0,0 0.44231376439417613,0.35765363661293514 l -7.653221127013983 9.299944427712221" fill="red" stroke="none" /><path d="M 114.68862486808459 84.99185889309783 l 17.712753805408376 -18.09805280554167 a46.32352982352941,46.32352982352941 0 0,0 0.5650680928890277,0.5626415109201137 l -18.021657698464725 17.790475443971438" fill="red" stroke="none" /><line stroke="#e1ed5e" stroke-width="0.3" x1="172.23445277983987" x2="176.4835382374775" y1="55.19839476539836" y2="52.563006222186495" /><path d="M 173.08426987136738 54.67131705675599 a86.0,86.0 0 0,1 12.851231095245387,41.99856678651699" fill="none" id="id27" stroke="none" /><text fill="#e1ed5e" style="font-size:6.75px; font-family:Arial;" text-anchor="middle"><textPath startOffset="22.20632615414155" xlink:href="#id27">March</textPath></text><path d="M 119.7369772167798 92.82701384747503 l 48.761943325044676 -17.72149505970902 a72.88235252941178,72.88235252941178 0 0,0 0.4183687171787607,1.182784701601703 l -49.05976512303325 16.879512731680702" fill="red" stroke="none" /><path d="M 119.85752413597 93.16781622104841 l 49.44912795202238 -17.013476985538894 a73.29411682352942,73.29411682352942 0 0,0 0.40019532312351996,1.1965330783171435 l -49.73466056891767 16.159770804299438" fill="red" stroke="none" /><path d="M 119.97218684219823 93.5106431181261 l 9.79028766774423 -3.1810572950362244 a31.294117647058826,31.294117647058826 0 0,0 0.16205065163953591,0.5137448500312186 l -9.843593803151972 3.0120622785785867" fill="red" stroke="none" /><path d="M 120.45610955862082 95.25157060432595 l 58.56062886802064 -13.593543325000436 a81.11764860294119,81.11764860294119 0 0,0 0.30401972658322834,1.3628608219948821 l -58.785942981605906 12.58350433345559" fill="red" stroke="none" /><path d="M 120.78858239683441 97.02765380044208 l 52.17526450247458 -7.460005987636485 a73.70588122058824,73.70588122058824 0 0,0 0.16876541247875135,1.2574983487284417 l -52.29594591401117 6.56078929684338" fill="red" stroke="none" /><line stroke="#e1ed5e" stroke-width="0.3" x1="184.98032266829074" x2="189.97916517819016" y1="98.17113171792111" y2="98.06355123074" /><path d="M 185.9800911702706 98.14961562048488 a86.0,86.0 0 0,1 -9.607161424134198,41.387399972396054" fill="none" id="id28" stroke="none" /><text fill="#e1ed5e" style="font-size:6.75px; font-family:Arial;" text-anchor="middle"><textPath startOffset="21.466115282336823" xlink:href="#id28">April</textPath></text><path d="M 120.70491114924044 103.5080841355445 l 44.657652513308356 7.5664561505903 a66.29411867647059,66.29411867647059 0 0,0 -0.20031417533381396,1.1234682749344111 l -44.520791895635355 -8.334043176257929" fill="red" stroke="none" /><path d="M 120.64145759157962 103.86396538481128 l 50.692993765367234 9.489444836576741 a72.57353177941175,72.57353177941175 0 0,0 -0.2404259747660212,1.2259268655687894 l -50.522137857625545 -10.360635429213476" fill="red" stroke="none" /><path d="M 120.5718875245553 104.21870165774334 l 54.051627355863594 11.084432075458576 a76.17647192647058,76.17647192647058 0 0,0 -0.27447457023318433,1.2822538148399767 l -53.85281874690597 -12.013199709714723" fill="red" stroke="none" /><path d="M 120.49622156327973 104.57218783832717 l 53.24998930375719 11.878723731298859 a75.55882548529411,75.55882548529411 0 0,0 -0.2941016968628601,1.2669824127286706 l -53.03762704096378 -12.793574801376094" fill="red" stroke="none" /><path d="M 120.23288151984713 105.62410040840565 l 45.72234629253423 12.70936451660938 a68.45588369117647,68.45588369117647 0 0,0 -0.32535244004039027,1.1325945260108128 l -45.496801215607746 -13.494516518124774" fill="red" stroke="none" /><path d="M 119.9155931802556 106.66101706037122 l 54.27975396187312 18.15453669395294 a78.23529411764706,78.23529411764706 0 0,0 -0.4381518062899245,1.2734742433928026 l -53.95921132463996 -19.086183640435046" fill="red" stroke="none" /><path d="M 119.67450827220406 107.3425965602758 l 48.41472133650216 18.068546437541414 a72.6764705882353,72.6764705882353 0 0,0 -0.4474992088577659,1.1682792245872573 l -48.09652784805089 -18.899249228961814" fill="red" stroke="none" /><path d="M 118.97047184881838 109.00673069616215 l 46.58924704048041 22.119470974398226 a72.5735294117647,72.5735294117647 0 0,0 -0.5454997749344431,1.1238911080611804 l -46.20159400893125 -22.91815103842468" fill="red" stroke="none" /><line stroke="#e1ed5e" stroke-width="0.3" x1="174.80103733775053" x2="179.2010983576182" y1="140.37084112569926" y2="142.7455964860345" /><path d="M 175.68104954172406 140.8457921977663 a86.0,86.0 0 0,1 -30.038265399797805,32.042727171017184" fill="none" id="id29" stroke="none" /><text fill="#e1ed5e" style="font-size:6.75px; font-family:Arial;" text-anchor="middle"><textPath startOffset="22.206326154141568" xlink:href="#id29">May</textPath></text><path d="M 117.35343817320211 111.8261652097733 l 42.95826606601501 29.275556033997606 a72.98529411764706,72.98529411764706 0 0,0 -0.7164343961864972,1.0320771819088388 l -42.44797076266637 -30.010674478093467" fill="red" stroke="none" /><path d="M 114.55890576462653 115.13401014063108 l 37.753240928859974 39.244565511734514 a75.45588235294117,75.45588235294117 0 0,0 -0.9437883989781275,0.892410839535488 l -37.07211669549104 -39.88861098801592" fill="red" stroke="none" /><path d="M 114.29624159901734 115.38237550388516 l 35.17996707209169 37.85270834779584 a72.6764705882353,72.6764705882353 0 0,0 -0.9236848925313436,0.8437642489699629 l -34.52318263009349 -38.45266536335238" fill="red" stroke="none" /><path d="M 114.0293411484842 115.62618273729858 l 35.48598055204828 39.52505045316699 a74.11764705882354,74.11764705882354 0 0,0 -0.9566740485649846,0.8441536172742748 l -34.80036415057671 -40.13002721221355" fill="red" stroke="none" /><path d="M 113.75828350139079 115.86535959552629 l 35.07013441530986 40.44111269447877 a74.52941176470588,74.52941176470588 0 0,0 -0.9764578184226362,0.8321585366597377 l -34.36881112031018 -41.03879562136145" fill="red" stroke="none" /><path d="M 113.20401910651253 116.32954008644616 l 34.498736194956756 42.66492581409708 a75.86764705882354,75.86764705882354 0 0,0 -1.022560430722119,0.8123838498932459 l -33.75921827151729 -43.25244357799545" fill="red" stroke="none" /><path d="M 112.92097659922987 116.55440617244103 l 35.469347527297714 45.44346792434794 a78.64705882352942,78.64705882352942 0 0,0 -1.0743610364263274,0.823774229626903 l -34.681857762377895 -46.04728149580222" fill="red" stroke="none" /><path d="M 112.63410532772338 116.77436683061366 l 25.33014378294591 33.630962594158454 a63.10294323529411,63.10294323529411 0 0,0 -0.873269700714317,0.6460240476584441 l -24.74748911181303 -34.06199659055667" fill="red" stroke="none" /><path d="M 112.34349029814194 116.9893568818739 l 30.73771113458875 42.30682988231342 a73.29411764705883,73.29411764705883 0 0,0 -1.027069326331344,0.73278669395547 l -30.00491448040852 -42.829660838113114" fill="red" stroke="none" /><path d="M 112.04921762599082 117.19931262002967 l 15.2977812016256 21.83638219895924 a47.66176470588235,47.66176470588235 0 0,0 -0.6759870706843384,0.4649500711958892 l -14.919637246318379 -22.096473059520225" fill="red" stroke="none" /><path d="M 111.7513745106137 117.40417183066458 l 35.25412353184112 52.21251549199374 a84.0,84.0 0 0,0 -1.2053012050401435,0.7988079156347263 l -34.35014762806101 -52.81162142871979" fill="red" stroke="none" /><line stroke="#e1ed5e" stroke-width="0.3" x1="143.8653032363475" x2="146.44561519142675" y1="172.8068346515853" y2="177.08958963109032" /><path d="M 144.38136562736335 173.6633856474863 a86.0,86.0 0 0,1 -40.68145358897372,12.25698825130547" fill="none" id="id30" stroke="none" /><text fill="#e1ed5e" style="font-size:6.75px; font-family:Arial;" text-anchor="middle"><textPath startOffset="21.466115282336833" xlink:href="#id30">June</textPath></text><line stroke="#e1ed5e" stroke-width="0.3" x1="102.19456741930631" x2="102.32365962044197" y1="184.97166512339345" y2="189.96999836594603" /><path d="M 102.22038585953345 185.97133177190398 a86.0,86.0 0 0,1 -42.740103519485714,-10.115201625700543" fill="none" id="id31" stroke="none" /><text fill="#e1ed5e" style="font-size:6.75px; font-family:Arial;" text-anchor="middle"><textPath startOffset="22.20632615414155" xlink:href="#id31">July</textPath></text><path d="M 98.01472825383883 120.90594882070398 l -2.763809685832226 29.104360122940836 a50.23529411764706,50.23529411764706 0 0,0 -0.860141631649365,-0.08915719702739588 l 3.264383914087184 -29.052473557457677" fill="red" stroke="none" /><path d="M 97.65516085044442 120.86867818915974 l -4.9885303475839375 44.39708987301632 a65.6764705882353,65.6764705882353 0 0,0 -1.1223563926137923,-0.13590172879033138 l 5.75201416324912 -44.30464261550064" fill="red" stroke="none" /><path d="M 97.2962882734958 120.8252237178851 l -3.0350489478895124 23.377334467625914 a44.57352941176471,44.57352941176471 0 0,0 -0.760024117725991,-0.1053324173612847 l 3.4370016568023343 -23.321627484772023" fill="red" stroke="none" /><line stroke="#e1ed5e" stroke-width="0.3" x1="58.666819895761336" x2="56.23545636021788" y1="174.27360380694188" y2="178.64263932499728" /><path d="M 58.180547188652646 175.14741091055294 a86.0,86.0 0 0,1 -31.652253787137756,-30.449443065178592" fill="none" id="id32" stroke="none" /><text fill="#e1ed5e" style="font-size:6.75px; font-family:Arial;" text-anchor="middle"><textPath startOffset="22.20632615414155" xlink:href="#id32">August</textPath></text><line stroke="#e1ed5e" stroke-width="0.3" x1="26.63291911575756" x2="22.317208475507996" y1="142.92168965132927" y2="145.44649492493687" /><path d="M 25.769776987707644 143.4266507060508 a86.0,86.0 0 0,1 -11.730757126820373,-40.83630448921669" fill="none" id="id33" stroke="none" /><text fill="#e1ed5e" style="font-size:6.75px; font-family:Arial;" text-anchor="middle"><textPath startOffset="21.46611528233685" xlink:href="#id33">September</textPath></text><line stroke="#e1ed5e" stroke-width="0.3" x1="15.007084014347285" x2="10.007500721073583" y1="101.09737516637583" y2="101.16192664675087" /><path d="M 14.007167355692545 101.11028546245083 a86.0,86.0 0 0,1 10.666146001902534,-42.60595125391555" fill="none" id="id34" stroke="none" /><text fill="#e1ed5e" style="font-size:6.75px; font-family:Arial;" text-anchor="middle"><textPath startOffset="22.20632615414155" xlink:href="#id34">October</textPath></text><path d="M 81.10775173730289 90.83032412892265 l -37.321453077019115 -18.114605683518064 a62.485296176470584,62.485296176470584 0 0,0 0.4779827223043048,-0.9635840012644048 l 37.004110341761404 18.75434927328143" fill="red" stroke="none" /><line stroke="#e1ed5e" stroke-width="0.3" x1="26.266209847984243" x2="21.928928074336255" y1="57.711370442889674" y2="55.22380399835377" /><path d="M 25.398753493254645 57.213857153982495 a86.0,86.0 0 0,1 29.58750427330803,-30.492523968695096" fill="none" id="id35" stroke="none" /><text fill="#e1ed5e" style="font-size:6.75px; font-family:Arial;" text-anchor="middle"><textPath startOffset="21.46611528233685" xlink:href="#id35">November</textPath></text><path d="M 85.05521093208273 85.24692304244772 l -32.60015262364308 -32.18195708877828 a66.80882352941177,66.80882352941177 0 0,0 0.814953753389283,-0.8114540829807796 l 32.04136307008648 32.738347022409165" fill="red" stroke="none" /><path d="M 87.22198572758235 83.33499621200491 l -32.07031033077372 -41.82589186006611 a73.70588235294117,73.70588235294117 0 0,0 1.0134693819068274,-0.763324127028472 l 31.345594795108504 42.37173257660044" fill="red" stroke="none" /><line stroke="#e1ed5e" stroke-width="0.3" x1="56.762969772571076" x2="54.21961505331055" y1="26.818313649435495" y2="22.513508569990535" /><path d="M 56.25429882871897 25.957352633546506 a86.0,86.0 0 0,1 42.265352541879196,-11.944610805530505" fill="none" id="id36" stroke="none" /><text fill="#e1ed5e" style="font-size:6.75px; font-family:Arial;" text-anchor="middle"><textPath startOffset="22.20632615414155" xlink:href="#id36">December</textPath></text></svg>