<?xml version="1.0" encoding="utf-8" ?>
<svg baseProfile="full" height="200mm" version="1.1" viewBox="0,0,200,200" width="200mm" xmlns="http://www.w3.org/2000/svg" xmlns:ev="http://www.w3.org/2001/xml-events" xmlns:xlink="http://www.w3.org/1999/xlink"><defs /><rect fill="#1a1a1a" height="200" width="200" x="0" y="0" /><rect fill="#1a1a1a" height="200" width="180" x="10" y="0" /><text alignment-baseline="middle" fill="#e1ed5e" style="dominant-baseline: central; font-size:9.0px; font-family:Arial;" text-anchor="middle" x="100.0" y="100.0">2013</text><line stroke="#e1ed5e" stroke-width="0.3" x1="100.0" x2="100.0" y1="15.0" y2="10.0" /><path d="M 100.0 14.0 a86.0,86.0 0 0,1 42.46469731375804,11.215312516191453" fill="none" id="id1" stroke="none" /><text fill="#e1ed5e" style="font-size:6.75px; font-family:Arial;" text-anchor="middle"><textPath startOffset="22.20632615414155" xlink:href="#id1">January</textPath></text><line stroke="#e1ed5e" stroke-width="0.3" x1="143.23703022742887" x2="145.7803849466894" y1="26.81831364943548" y2="22.513508569990506" /><path d="M 143.74570117128098 25.957352633546492 a86.0,86.0 0 0,1 28.547481713284135,27.462654790039103" fill="none" id="id2" stroke="none" /><text fill="#e1ed5e" style="font-size:6.75px; font-family:Arial;" text-anchor="middle"><textPath startOffset="19.985693538727396" xlink:href="#id2">February</textPath></text><line stroke="#e1ed5e" stroke-width="0.3" x1="172.23445277983987" x2="176.4835382374775" y1="55.19839476539836" y2="52.563006222186495" /><path d="M 173.08426987136738 54.67131705675599 a86.0,86.0 0 0,1 12.851231095245387,41.99856678651699" fill="none" id="id3" stroke="none" /><text fill="#e1ed5e" style="font-size:6.75px; font-family:Arial;" text-anchor="middle"><textPath startOffset="22.20632615414155" xlink:href="#id3">March</textPath></text><line stroke="#e1ed5e" stroke-width="0.3" x1="184.98032266829074" x2="189.97916517819016" y1="98.17113171792111" y2="98.06355123074" /><path d="M 185.9800911702706 98.14961562048488 a86.0,86.0 0 0,1 -9.607161424134198,41.387399972396054" fill="none" id="id4" stroke="none" /><text fill="#e1ed5e" style="font-size:6.75px; font-family:Arial;" text-anchor="middle"><textPath startOffset="21.466115282336823" xlink:href="#id4">April</textPath></text><line stroke="#e1ed5e" stroke-width="0.3" x1="174.80103733775053" x2="179.2010983576182" y1="140.37084112569926" y2="142.7455964860345" /><path d="M 175.68104954172406 140.8457921977663 a86.0,86.0 0 0,1 -30.038265399797805,32.042727171017184" fill="none" id="id5" stroke="none" /><text fill="#e1ed5e" style="font-size:6.75px; font-family:Arial;" text-anchor="middle"><textPath startOffset="22.206326154141568" xlink:href="#id5">May</textPath></text><line stroke="#e1ed5e" stroke-width="0.3" x1="143.8653032363475" x2="146.44561519142675" y1="172.8068346515853" y2="177.08958963109032" /><path d="M 144.38136562736335 173.6633856474863 a86.0,86.0 0 0,1 -40.68145358897372,12.25698825130547" fill="none" id="id6" stroke="none" /><text fill="#e1ed5e" style="font-size:6.75px; font-family:Arial;" text-anchor="middle"><textPath startOffset="21.466115282336833" xlink:href="#id6">June</textPath></text><line stroke="#e1ed5e" stroke-width="0.3" x1="102.19456741930631" x2="102.32365962044197" y1="184.97166512339345" y2="189.96999836594603" /><path d="M 102.22038585953345 185.97133177190398 a86.0,86.0 0 0,1 -42.740103519485714,-10.115201625700543" fill="none" id="id7" stroke="none" /><text fill="#e1ed5e" style="font-size:6.75px; font-family:Arial;" text-anchor="middle"><textPath startOffset="22.20632615414155" xlink:href="#id7">July</textPath></text><line stroke="#e1ed5e" stroke-width="0.3" x1="58.666819895761336" x2="56.23545636021788" y1="174.27360380694188" y2="178.64263932499728" /><path d="M 58.180547188652646 175.14741091055294 a86.0,86.0 0 0,1 -31.652253787137756,-30.449443065178592" fill="none" id="id8" stroke="none" /><text fill="#e1ed5e" style="font-size:6.75px; font-family:Arial;" text-anchor="middle"><textPath startOffset="22.20632615414155" xlink:href="#id8">August</textPath></text><line stroke="#e1ed5e" stroke-width="0.3" x1="26.63291911575756" x2="22.317208475507996" y1="142.92168965132927" y2="145.44649492493687" /><path d="M 25.769776987707644 143.4266507060508 a86.0,86.0 0 0,1 -11.730757126820373,-40.83630448921669" fill="none" id="id9" stroke="none" /><text fill="#e1ed5e" style="font-size:6.75px; font-family:Arial;" text-anchor="middle"><textPath startOffset="21.46611528233685" xlink:href="#id9">September</textPath></text><path d="M 80.87730276802145 108.67885076344099 l -10.044594055574738 4.558746694054101 a32.03068634137679,32.03068634137679 0 0,0 -0.22354203073832343,-0.5040282659423165 l 10.121577171044342 -4.385170091619088" fill="red" stroke="none" /><path d="M 80.58989483394504 108.01547362559985 l -11.667085116083241 4.817965293621376 a33.622743944027036,33.622743944027036 0 0,0 -0.21630213373006185,-0.536844157109131 l 11.74828986407069 -4.61642176866944" fill="red" stroke="none" /><path d="M 80.45479744820244 107.68017299344265 l -13.812177908121695 5.427414500793973 a35.840252246139,35.840252246139 0 0,0 -0.22068331601130275,-0.5761345008119766 l 13.903555503726507 -5.188856433148839" fill="red" stroke="none" /><path d="M 80.32549172779594 107.34259656027581 l -17.1530463043719 6.401577973395693 a39.30866456269794,39.30866456269794 0 0,0 -0.23112697170366076,-0.6359621610440096 l 17.260697537080787 -6.105368015345566" fill="red" stroke="none" /><path d="M 80.20201598880116 107.00284435728193 l -18.440000003105506 6.522505013489337 a40.55956726938315,40.55956726938315 0 0,0 -0.22715128589782765,-0.6602079639790986 l 18.54954211994656 -6.204124346420942" fill="red" stroke="none" /><path d="M 80.0844068197444 106.66101706037122 l -13.750386817838208 4.5989873538453345 a35.49909729331478,35.49909729331478 0 0,0 -0.18883448807577863,-0.581172795201743 l 13.827513556930237 -4.361615658665788" fill="red" stroke="none" /><path d="M 79.97269907076064 106.31721596034903 l -26.733192479077797 8.432456814655103 a49.03158768344107,49.03158768344107 0 0,0 -0.24696329897267755,-0.8070903502435619 l 26.874382550556604 -7.971039491859493" fill="red" stroke="none" /><path d="M 79.67330655649465 105.27499134158121 l -18.27200937639606 4.741779154669946 a39.877256055972964,39.877256055972964 0 0,0 -0.1667034237463469,-0.6658973114310228 l 18.350924114437465 -4.426554003841531" fill="red" stroke="none" /><path d="M 79.58551787078972 104.9243191809786 l -18.295650300731353 4.413221022905934 a39.82039690664546,39.82039690664546 0 0,0 -0.15499508131285106,-0.667714753697607 l 18.368905947974756 -4.097637611859753" fill="red" stroke="none" /><path d="M 79.50377843672027 104.57218783832718 l -29.19046865940294 6.511654130374079 a50.907943761970714,50.907943761970714 0 0,0 -0.18342850006245828,-0.856916885799798 l 29.298231198189836 -6.008223425158117" fill="red" stroke="none" /><path d="M 79.4281124754447 104.21870165774334 l -19.49501990680795 3.997867123297332 a40.90072216534817,40.90072216534817 0 0,0 -0.13549838011366272,-0.6909033210078428 l 19.56094821989728 -3.6617000752215345" fill="red" stroke="none" /><path d="M 79.35854240842038 103.8639653848113 l -37.10991246776992 6.946768006699996 a58.75451216880514,58.75451216880514 0 0,0 -0.1775325155112436,-0.995696628128332 l 37.22399142562035 -6.30695262783845" fill="red" stroke="none" /><path d="M 79.29508885075956 103.50808413554451 l -61.10564764124688 10.353280510952347 a82.97653258286306,82.97653258286306 0 0,0 -0.2264794893729955,-1.4102879965172208 l 61.27480888498117 -9.299913284741912" fill="red" stroke="none" /><path d="M 79.23777060512086 103.15116336523772 l -31.93035928289101 4.8461933686148875 a53.29602814744425,53.29602814744425 0 0,0 -0.12985437415285883,-0.908201190382045 l 32.009047708060464 -4.295846706252442" fill="red" stroke="none" /><path d="M 79.18660465613746 102.79330883721812 l -31.558216431184974 4.235341874196677 a52.84115489596502,52.84115489596502 0 0,0 -0.11322724857009275,-0.9025325763872203 l 31.626445189001913 -3.691491543522048" fill="red" stroke="none" /><path d="M 79.1416061653843 102.43462659150553 l -29.875695852202124 3.487141154693944 a51.07851984533227,51.07851984533227 0 0,0 -0.09441669443469744,-0.8741813288139796 l 29.931294848137874 -2.972363503995182" fill="red" stroke="none" /><path d="M 79.10278846688536 102.07522291339032 l -32.02478745401845 3.180260324001629 a53.18230984878924,53.18230984878924 0 0,0 -0.08262353951116291,-0.9117438735971912 l 32.074785589806694 -2.628535061855872" fill="red" stroke="none" /><path d="M 79.07016306316243 101.71520430193888 l -33.77486368630192 2.767856800173307 a54.888087114715425,54.888087114715425 0 0,0 -0.06906343570964447,-0.9423157091029009 l 33.8175036806759 -2.1860679545736454" fill="red" stroke="none" /><path d="M 79.04373962182676 101.35467743843564 l -34.61187377280162 2.2374184924153866 a55.68411520530047,55.68411520530047 0 0,0 -0.05359900789991468,-0.9570462918299457 l 34.64525913158907 -1.6413004842500032" fill="red" stroke="none" /><path d="M 79.0235259727143 100.99374915477108 l -59.52168946137758 2.8198079675282965 a80.58844546814763,80.58844546814763 0 0,0 -0.05371744539958925,-1.3862085776603181 l 59.56140903962837 -1.7948221428539815" fill="red" stroke="none" /><path d="M 79.0095281055655 100.63252640178507 l -29.951205937516033 0.9025489572630303 a50.964801546677265,50.964801546677265 0 0,0 -0.01887623960481385,-0.8771046816763884 l 29.962304239805853 -0.386854459796513" fill="red" stroke="none" /><line stroke="#e1ed5e" stroke-width="0.3" x1="15.007084014347285" x2="10.007500721073583" y1="101.09737516637583" y2="101.16192664675087" /><path d="M 14.007167355692545 101.11028546245083 a86.0,86.0 0 0,1 10.666146001902534,-42.60595125391555" fill="none" id="id10" stroke="none" /><text fill="#e1ed5e" style="font-size:6.75px; font-family:Arial;" text-anchor="middle"><textPath startOffset="22.20632615414155" xlink:href="#id10">October</textPath></text><path d="M 79.05617556472873 98.46500227214037 l -59.99611799175826 -4.397186630472945 a81.15703969066455,81.15703969066455 0 0,0 0.1141049280261159,-1.3923691391029707 l 59.91153857991265 5.429269686783694" fill="red" stroke="none" /><path d="M 79.08570108090925 98.10471618934814 l -31.031685737115975 -2.812135937346967 a52.15884510403499,52.15884510403499 0 0,0 0.08872685086721638,-0.8934672797199433 l 30.978681760566527 3.3458787477713408" fill="red" stroke="none" /><path d="M 79.12142395522702 97.74499172005258 l -31.37439580832223 -3.3886181784809373 a52.55686051394845,52.55686051394845 0 0,0 0.10488759387519982,-0.8986128505485722 l 31.31141786144344 3.9281747673543714" fill="red" stroke="none" /><path d="M 79.16333360222342 97.38593545837743 l -32.609008219608874 -4.090964000530055 a53.86462236996117,53.86462236996117 0 0,0 0.12333459775174457,-0.9189860098462249 l 32.5337576227993 4.6516683524409395" fill="red" stroke="none" /><path d="M 79.21141760316559 97.0276538004421 l -33.88463894858174 -4.844817019247321 a55.229242010680444,55.229242010680444 0 0,0 0.14266004232828175,-0.9399514341204357 l 33.79622301281415 5.427367565759848" fill="red" stroke="none" /><path d="M 79.26566170972629 96.67025291283419 l -32.61728477226288 -5.238040753518851 a54.03519845332273,54.03519845332273 0 0,0 0.1553850022372135,-0.9170910790447053 l 32.52228790850544 5.798717620879383" fill="red" stroke="none" /><path d="M 79.32604984820605 96.31383870115002 l -59.27900815596495 -10.569435647002834 a81.213900204613,81.213900204613 0 0,0 0.2572325609793607,-1.374146626545993 l 59.08828987107573 11.5882603510114" fill="red" stroke="none" /><path d="M 79.62865764111835 94.90015583598534 l -30.6121718714818 -7.6635748060325914 a52.55686051394845,52.55686051394845 0 0,0 0.22725503428795824,-0.875706350274302 l 30.475720505323533 8.189377581855757" fill="red" stroke="none" /><path d="M 79.71946130924805 94.55025226153421 l -29.212762652030413 -7.8499979524625605 a51.24909865793573,51.24909865793573 0 0,0 0.23626622603037833,-0.8499753225012598 l 29.073309655433672 8.351684578382763" fill="red" stroke="none" /><path d="M 79.81627453868168 94.20196356495316 l -30.056992104360244 -8.634260096481384 a52.27256340268998,52.27256340268998 0 0,0 0.2558719647929017,-0.862673064514318 l 29.903914242455635 9.150362547742242" fill="red" stroke="none" /><path d="M 79.91906864156998 93.8553929516997 l -55.403795194723465 -16.95312554878931 a78.93952871616989,78.93952871616989 0 0,0 0.40877337437170835,-1.2959233041560403 l 55.10376633658355 17.904299019371763" fill="red" stroke="none" /><path d="M 80.02781315780177 93.51064311812611 l -58.02388732226121 -18.85310384300148 a82.00992562281536,82.00992562281536 0 0,0 0.4477847623565559,-1.3388194443257588 l 57.69076526613288 19.849096390249564" fill="red" stroke="none" /><path d="M 80.14247586403 93.16781622104843 l -28.92603325104886 -9.952296863094109 a51.590253553900745,51.590253553900745 0 0,0 0.29614505362683374,-0.8372419459248732 l 28.750435116612216 10.448736435445593" fill="red" stroke="none" /><path d="M 80.2630227832202 92.82701384747504 l -29.765785355551603 -10.817743965012138 a52.67057881260345,52.67057881260345 0 0,0 0.31701521347030803,-0.8494431620524463 l 29.575165553579666 11.328510264093927" fill="red" stroke="none" /><path d="M 80.38941819471856 92.48833698450439 l -30.477816569843885 -11.674262895101814 a53.637183043409266,53.637183043409266 0 0,0 0.3376753125959567,-0.859346838549673 l 30.272347707366237 12.19715873854725" fill="red" stroke="none" /><path d="M 80.803312248108 91.48605970444005 l -57.59006325567602 -25.54182088667983 a84.0,84.0 0 0,0 0.5975907321465934,-1.3167119646317162 l 57.141870206566075 26.529354860153617" fill="red" stroke="none" /><path d="M 80.95270993114464 91.15688171328213 l -25.786042698169112 -11.971730618998782 a49.42960309335453,49.42960309335453 0 0,0 0.3649359495847158,-0.7686481800958634 l 25.576148554742645 12.413821214735178" fill="red" stroke="none" /><path d="M 81.10775173730289 90.83032412892265 l -29.207961854125287 -14.176583926538143 a53.4666069600477,53.4666069600477 0 0,0 0.408994049975573,-0.8245070475955303 l 28.9596077911963 14.677250562632635" fill="red" stroke="none" /><path d="M 81.26839172434947 90.50648371742162 l -27.64095549107814 -14.008933838408568 a51.98826629143153,51.98826629143153 0 0,0 0.41142664019028297,-0.7947453143782394 l 27.395719417727744 14.482651875047143" fill="red" stroke="none" /><line stroke="#e1ed5e" stroke-width="0.3" x1="26.266209847984243" x2="21.928928074336255" y1="57.711370442889674" y2="55.22380399835377" /><path d="M 25.398753493254645 57.213857153982495 a86.0,86.0 0 0,1 29.58750427330803,-30.492523968695096" fill="none" id="id11" stroke="none" /><text fill="#e1ed5e" style="font-size:6.75px; font-family:Arial;" text-anchor="middle"><textPath startOffset="21.46611528233685" xlink:href="#id11">November</textPath></text><path d="M 81.96595687620814 89.24020034530311 l -51.318898577812185 -30.6188170565307 a80.75902700999296,80.75902700999296 0 0,0 0.7225402533787796,-1.1876661973869593 l 50.78424252614719 31.497651027124732" fill="red" stroke="none" /><path d="M 82.15384107792192 88.93136811851018 l -51.70231907604526 -32.067064950547675 a81.83934953945379,81.83934953945379 0 0,0 0.7528144701049122,-1.1907717029199352 l 51.14267700969438 32.95228430118183" fill="red" stroke="none" /><path d="M 82.34701348167596 88.62581576622439 l -27.578808463837063 -17.769596554672596 a53.80776185601272,53.80776185601272 0 0,0 0.5083638569567943,-0.7742730309846936 l 27.268847971522348 18.241687649634954" fill="red" stroke="none" /><path d="M 82.54541684631803 88.32363383020206 l -25.09490148952354 -16.78741085975885 a51.192238143987275,51.192238143987275 0 0,0 0.4962612968464429,-0.7282022176944524 l 24.802215727008356 17.216891100723718" fill="red" stroke="none" /><path d="M 82.7489923806493 88.02491185347247 l -27.184350542114192 -18.87049157538852 a54.092058967271186,54.092058967271186 0 0,0 0.5375395273949505,-0.7603115404585155 l 26.855498394915365 19.33562961617882" fill="red" stroke="none" /><path d="M 82.95767976084542 87.72973835380427 l -25.42505120455147 -18.30572517532076 a52.32942391663843,52.32942391663843 0 0,0 0.532607350314709,-0.7264758272730903 l 25.106181241723124 18.740663446265348" fill="red" stroke="none" /><path d="M 83.39014120810768 87.1503855733568 l -26.398881764971208 -20.422536773160385 a54.376353406146954,54.376353406146954 0 0,0 0.5790975976888043,-0.7353951407829923 l 26.04343008668843 20.873924307896424" fill="red" stroke="none" /><path d="M 83.6137871275137 86.86637796730984 l -24.845521058623433 -19.913794927997444 a52.84115489596502,52.84115489596502 0 0,0 0.5749658844834724,-0.7048401896452949 l 24.499056682063568 20.338519287250822" fill="red" stroke="none" /><path d="M 83.84228863543731 86.58626213691792 l -23.449098097437123 -19.46686928042122 a51.47653525524574,51.47653525524574 0 0,0 0.571853777595462,-0.6768945007065431 l 23.110533706354538 19.86762273075688" fill="red" stroke="none" /><path d="M 84.07557802195018 86.31012108654704 l -23.067416048354346 -19.830555418808732 a51.419674741297285,51.419674741297285 0 0,0 0.5827762362195046,-0.6662139810576879 l 22.722647948556997 20.224684956069364" fill="red" stroke="none" /><path d="M 84.31358615837235 86.03803664274999 l -24.16670478641471 -21.5099926662645 a53.3528886613927,53.3528886613927 0 0,0 0.6164960821519545,-0.6807503718065657 l 23.79286506364671 21.922795825340618" fill="red" stroke="none" /><path d="M 84.5562425177563 85.77008943001954 l -22.663853987445187 -20.88252264924753 a51.81769020806996,51.81769020806996 0 0,0 0.6100488723545914,-0.6507576026003258 l 22.30103779312014 21.269549668725908" fill="red" stroke="none" /><path d="M 84.80347519578584 85.50635884689758 l -23.288536660668154 -22.211373829824037 a53.18230984878924,53.18230984878924 0 0,0 0.6375184727501837,-0.6570188256249151 l 22.902753924214853 22.608956850999075" fill="red" stroke="none" /><path d="M 85.05521093208273 85.24692304244772 l -42.24465506825878 -41.70273962616245 a80.36100887083761,80.36100887083761 0 0,0 0.9802673111974076,-0.9760577318352005 l 41.52055195689406 42.423733208647754" fill="red" stroke="none" /><path d="M 85.57189188830299 84.74124197986013 l -20.62646599540669 -21.81396555930959 a51.021662060625715,51.021662060625715 0 0,0 0.6433397080636564,-0.5979141449509113 l 20.247918403548177 22.165784290335147" fill="red" stroke="none" /><path d="M 85.83668400450813 84.49514656593479 l -21.283323204033906 -23.29926176704813 a52.55686051394845,52.55686051394845 0 0,0 0.6732008573668229,-0.6044063766711096 l 20.87911135907111 23.662167152488518" fill="red" stroke="none" /><path d="M 88.39885842347998 82.49532879139004 l -17.65300041191254 -26.636169037140426 a52.95487325147923,52.95487325147923 0 0,0 0.7641463209815165,-0.49702202327914374 l 17.191887065146737 26.936089984579105" fill="red" stroke="none" /><path d="M 88.70189139769569 82.29822771554957 l -15.295273489006005 -23.96449333789854 a49.42960309335453,49.42960309335453 0 0,0 0.7211563663640761,-0.45158805045817424 l 14.880497970269687 24.22422572967964" fill="red" stroke="none" /><path d="M 89.00827224532344 82.1063720568725 l -30.653826384214486 -49.90190592366065 a79.56498345263526,79.56498345263526 0 0,0 1.1731589084619485,-0.7068151157837126 l 29.790305409534888 50.422167648902985" fill="red" stroke="none" /><line stroke="#e1ed5e" stroke-width="0.3" x1="56.762969772571076" x2="54.21961505331055" y1="26.818313649435495" y2="22.513508569990535" /><path d="M 56.25429882871897 25.957352633546506 a86.0,86.0 0 0,1 42.265352541879196,-11.944610805530505" fill="none" id="id12" stroke="none" /><text fill="#e1ed5e" style="font-size:6.75px; font-family:Arial;" text-anchor="middle"><textPath startOffset="22.20632615414155" xlink:href="#id12">December</textPath></text><path d="M 89.94658935756843 81.56283822128135 l -16.49557806763883 -30.25158846918257 a55.456678607990455,55.456678607990455 0 0,0 0.8420303179640725,-0.44978343449981534 l 15.972402703146454 30.531050630184133" fill="red" stroke="none" /><path d="M 90.26544431104013 81.39251694778311 l -15.339832899011686 -29.321901256974318 a54.092058967271186,54.092058967271186 0 0,0 0.8287406036880797,-0.4245131256687153 l 14.832831807734841 29.58160690795554" fill="red" stroke="none" /><path d="M 90.58718382345135 81.22770947309562 l -14.526999315508707 -28.971675056642013 a53.409746446099255,53.409746446099255 0 0,0 0.8253808258784283,-0.4050107866689727 l 14.026147222619853 29.217441003445813" fill="red" stroke="none" /><path d="M 90.91171255644093 81.06846463323043 l -13.878503710367108 -28.909889290183507 a53.06859155013423,53.06859155013423 0 0,0 0.826914259564067,-0.38824733257501043 l 13.378811239503433 29.144501605398524" fill="red" stroke="none" /><path d="M 91.23893434514133 80.91482961587045 l -13.54486072226045 -29.506225029860797 a53.4666069600477,53.4666069600477 0 0,0 0.8397258590634546,-0.3767605155405006 l 13.034952744730221 29.735005875917828" fill="red" stroke="none" /><path d="M 91.56875222667455 80.76684994638697 l -11.984851388868586 -27.339541112957438 a50.85108324802226,50.85108324802226 0 0,0 0.8046971855845222,-0.34452933943486974 l 11.512470445493754 27.541789980355095" fill="red" stroke="none" /><path d="M 91.90106846888425 80.62456947434976 l -9.188047972831821 -21.980971746703855 a44.82400773338634,44.82400773338634 0 0,0 0.7144437341933135,-0.2914395377912887 l 8.808320369050127 22.13587217067872" fill="red" stroke="none" /><path d="M 92.23578459929587 80.48803036053334 l -22.809135556755958 -57.320815757576746 a82.69224087322917,82.69224087322917 0 0,0 1.3270798713419092,-0.5148863726578413 l 21.819072520414373 57.704944834125136" fill="red" stroke="none" /><path d="M 92.57280143429618 80.3572730644239 l -10.356518131480591 -27.389904263417087 a50.282491754747234,50.282491754747234 0 0,0 0.8122242813050148,-0.29914905744731707 l 9.883511524403007 27.564116588670725" fill="red" stroke="none" /><path d="M 92.91201910852362 80.23233633223022 l -9.883511524403007 -27.564116588670725 a50.282491754747234,50.282491754747234 0 0,0 0.817253300782605,-0.2851236294538427 l 9.407576219557116 27.730161071296777" fill="red" stroke="none" /><path d="M 93.25333710446033 80.11325718540243 l -7.982739076962585 -23.530252131693985 a45.8474724781406,45.8474724781406 0 0,0 0.7495345170720973,-0.24710974580609563 l 7.576521737648078 23.664175601759315" fill="red" stroke="none" /><path d="M 93.94186890950719 79.89281104454417 l -9.120002367198248 -30.269667019790823 a52.613718298655,52.613718298655 0 0,0 0.8694035681703579,-0.2538027421645041 l 8.597608581304469 30.422168090874028" fill="red" stroke="none" /><path d="M 94.28887869178378 79.79150937346287 l -4.840020880507407 -17.12614937022359 a38.796932161891206,38.796932161891206 0 0,0 0.6442177207855005,-0.17608903855606584 l 4.544505270498185 17.206924949605952" fill="red" stroke="none" /><path d="M 94.63758080256005 79.69619591428918 l -7.753245358875114 -29.35622318937699 a51.362816956590734,51.362816956590734 0 0,0 0.8567589634282441,-0.21840693631193628 l 7.2467775067618705 29.48533312185779" fill="red" stroke="none" /><path d="M 94.98787191387505 79.60689891045804 l -6.8396549285132 -27.828852730416113 a49.65703969066455,49.65703969066455 0 0,0 0.8318176351779564,-0.19686435929670681 l 6.35961360637271 27.94246300185369" fill="red" stroke="none" /><path d="M 96.04723909329186 79.375362276772 l -3.831466741507234 -19.991751425712625 a41.3555953599682,41.3555953599682 0 0,0 0.7002976895094876,-0.1279749265676791 l 3.4867739308948535 20.05474183363104" fill="red" stroke="none" /><path d="M 96.40284397218896 79.31037775812273 l -4.957452577616509 -28.5135869336537 a49.941336801923015,49.941336801923015 0 0,0 0.8482198211251032,-0.13996353831351938 l 4.46590355035252 28.594696734906847" fill="red" stroke="none" /><path d="M 96.75951476605007 79.25152402106235 l -2.9918921532121 -19.15676140786657 a40.38898982140065,40.38898982140065 0 0,0 0.6878264575849734,-0.10136774013115693 l 2.661696715198478 19.20542363215869" fill="red" stroke="none" /><path d="M 97.11714578562143 79.19881850522333 l -3.00514129527324 -21.68354167499995 a42.89079381329093,42.89079381329093 0 0,0 0.732177041174814,-0.09505759356627767 l 2.6314495255905683 21.732057591730367" fill="red" stroke="none" /><path d="M 98.19473922651362 79.07773832637324 l -2.0186987130621126 -23.39592336753211 a44.48285278056211,44.48285278056211 0 0,0 0.7634312641555028,-0.059256959221212414 l 1.6156772595442757 23.427205588941785" fill="red" stroke="none" /></svg>