<?xml version="1.0" encoding="utf-8" ?>
<svg baseProfile="full" height="200mm" version="1.1" viewBox="0,0,200,200" width="200mm" xmlns="http://www.w3.org/2000/svg" xmlns:ev="http://www.w3.org/2001/xml-events" xmlns:xlink="http://www.w3.org/1999/xlink"><defs /><rect fill="#1a1a1a" height="200" width="200" x="0" y="0" /><rect fill="#1a1a1a" height="200" width="180" x="10" y="0" /><text alignment-baseline="middle" fill="#e1ed5e" style="dominant-baseline: central; font-size:9.0px; font-family:Arial;" text-anchor="middle" x="100.0" y="100.0">2014</text><line stroke="#e1ed5e" stroke-width="0.3" x1="100.0" x2="100.0" y1="15.0" y2="10.0" /><path d="M 100.0 14.0 a86.0,86.0 0 0,1 42.46469731375804,11.215312516191453" fill="none" id="id13" stroke="none" /><text fill="#e1ed5e" style="font-size:6.75px; font-family:Arial;" text-anchor="middle"><textPath startOffset="22.20632615414155" xlink:href="#id13">January</textPath></text><path d="M 100.36148047927253 79.00311137660856 l 0.5618065942614955 -32.63299448793214 a53.63783013465762,53.63783013465762 0 0,0 0.9230134836479686,0.023838715127598345 l -1.123446713104332 32.61848898066218" fill="red" stroke="none" /><path d="M 102.52436894288641 79.15227682838746 l 1.7277049763639276 -14.268403662211174 a35.372623544543075,35.372623544543075 0 0,0 0.603836407369299,0.07839529589746538 l -1.9730561122410726 14.236550043149572" fill="red" stroke="none" /><path d="M 106.74666289553966 80.11325718540242 l 9.889119265116735 -29.149577284834546 a51.78136669682237,51.78136669682237 0 0,0 0.8416148718011501,0.2936229032302227 l -10.389416140981158 28.975033528432117" fill="red" stroke="none" /><path d="M 107.08798089147638 80.2323363322302 l 10.611757999937671 -29.59512254311957 a52.44011269368329,52.44011269368329 0 0,0 0.8470768125797732,0.31198553884842195 l -11.119617138290021 29.40807373646482" fill="red" stroke="none" /><path d="M 107.4271985657038 80.35727306442388 l 11.056076024143678 -29.24002642450493 a52.260453649257734,52.260453649257734 0 0,0 0.8386977468835449,0.3254016958395403 l -11.557756936026891 29.04538202477484" fill="red" stroke="none" /><path d="M 107.76421540070413 80.48803036053334 l 11.491333640732767 -28.87845603750577 a52.08079747935677,52.08079747935677 0 0,0 0.8301087143352933,0.3386221873658976 l -11.986726224656447 28.676372963956293" fill="red" stroke="none" /><path d="M 108.09893153111575 80.62456947434976 l 11.825055152639273 -28.289600139437226 a51.661594958713536,51.661594958713536 0 0,0 0.8175231953923084,0.3500207674724223 l -12.310262105821897 28.081859844002015" fill="red" stroke="none" /><path d="M 108.43124777332544 80.76684994638697 l 12.262175167481391 -27.972165131477038 a51.541823160718764,51.541823160718764 0 0,0 0.8094959488203859,0.3631972359951694 l -12.741853234768557 27.756947564965337" fill="red" stroke="none" /><path d="M 108.76106565485865 80.91482961587045 l 12.616933827103274 -27.48482220105435 a51.24239525270895,51.24239525270895 0 0,0 0.798458487232591,0.374886965915132 l -13.088170525635464 27.263570252499214" fill="red" stroke="none" /><path d="M 109.08828744355905 81.06846463323043 l 13.37325849666026 -27.85742834068298 a51.90113843493121,51.90113843493121 0 0,0 0.8020671760478288,0.3935708799471685 l -13.85079693971852 27.62310230060098" fill="red" stroke="none" /><path d="M 109.41281617654863 81.2277094730956 l 13.555528916775053 -27.034239519682227 a51.24239525270895,51.24239525270895 0 0,0 0.7850811077805164,0.4021490361208416 l -14.018870512144325 26.796897958248884" fill="red" stroke="none" /><path d="M 109.73455568895987 81.39251694778311 l 14.10215017837129 -26.956086012375483 a51.422051422609925,51.422051422609925 0 0,0 0.7807702768464323,0.4170604421043433 l -14.564065501746033 26.709346843769385" fill="red" stroke="none" /><path d="M 110.05341064243156 81.56283822128135 l 14.592735581873223 -26.76192550829571 a51.481938728926636,51.481938728926636 0 0,0 0.7743763948732084,0.43093962534740693 l -15.051236065818467 26.506770485388124" fill="red" stroke="none" /><path d="M 110.36928655335952 81.73862282372117 l 15.051236065818467 -26.506770485388124 a51.481938728926636,51.481938728926636 0 0,0 0.766843745401334,0.44420539367531925 l -15.505276543685127 26.243760934322758" fill="red" stroke="none" /><line stroke="#e1ed5e" stroke-width="0.3" x1="143.23703022742887" x2="145.7803849466894" y1="26.81831364943548" y2="22.513508569990506" /><path d="M 143.74570117128098 25.957352633546492 a86.0,86.0 0 0,1 28.547481713284135,27.462654790039103" fill="none" id="id14" stroke="none" /><text fill="#e1ed5e" style="font-size:6.75px; font-family:Arial;" text-anchor="middle"><textPath startOffset="19.985693538727396" xlink:href="#id14">February</textPath></text><path d="M 110.68208982089419 81.91981866633111 l 8.986358591587658 -15.21003807208929 a38.66634933683264,38.66634933683264 0 0,0 0.5701223102649466,0.34349231279256087 l -9.246842968070242 15.053099149838115" fill="red" stroke="none" /><path d="M 110.99172775467656 82.1063720568725 l 16.36220933334887 -26.636329853961907 a52.260453649257734,52.260453649257734 0 0,0 0.7624572422128397,0.4774506551257184 l -16.818285727933972 26.350734857513245" fill="red" stroke="none" /><line stroke="#e1ed5e" stroke-width="0.3" x1="172.23445277983987" x2="176.4835382374775" y1="55.19839476539836" y2="52.563006222186495" /><path d="M 173.08426987136738 54.67131705675599 a86.0,86.0 0 0,1 12.851231095245387,41.99856678651699" fill="none" id="id15" stroke="none" /><text fill="#e1ed5e" style="font-size:6.75px; font-family:Arial;" text-anchor="middle"><textPath startOffset="22.20632615414155" xlink:href="#id15">March</textPath></text><path d="M 118.73160827565052 90.50648371742162 l 13.300865804435302 -6.741118233341416 a35.91159636603286,35.91159636603286 0 0,0 0.27470658928866454,0.5537917211826523 l -13.414932406677375 6.511166923659814" fill="red" stroke="none" /><path d="M 118.89224826269711 90.83032412892265 l 27.422493047390667 -13.30997609839507 a51.481938728926636,51.481938728926636 0 0,0 0.3800882269076585,0.8005627404504758 l -27.64753946814008 12.835970942304055" fill="red" stroke="none" /><path d="M 120.45610955862082 95.25157060432595 l 31.209176608632152 -7.24451397752503 a53.03897138422749,53.03897138422749 0 0,0 0.1987840359798577,0.8911098556652489 l -31.329255031614046 6.7062259523098176" fill="red" stroke="none" /><path d="M 120.53481517161879 95.60439243477599 l 30.80222275742819 -6.593411347836026 a52.5,52.5 0 0,0 0.18155176021250774,0.8853108595914705 l -30.911153813555693 6.062224832081144" fill="red" stroke="none" /><path d="M 120.6074358757038 95.95851677861258 l 61.822307627111385 -12.124449664162288 a84.0,84.0 0 0,0 0.26605710436056285,1.4212876901497489 l -62.02185045538181 11.058483896549978" fill="red" stroke="none" /><path d="M 120.73433829027371 96.67025291283417 l 30.805864619239642 -4.947143069989141 a52.200569217465606,52.200569217465606 0 0,0 0.13483682091244792,0.8884061796171792 l -30.88645733359139 4.4161377779798805" fill="red" stroke="none" /><path d="M 120.78858239683441 97.02765380044208 l 31.24215514023249 -4.466995359491631 a52.55988443179213,52.55988443179213 0 0,0 0.12034712059706254,0.8967258350053391 l -31.31441825988739 3.9285511824216277" fill="red" stroke="none" /><path d="M 120.83666639777658 97.38593545837742 l 30.839057545438674 -3.868914791244709 a52.08079747935677,52.08079747935677 0 0,0 0.10393751607863898,0.890473164190394 l -30.9010854145209 3.3374978887294624" fill="red" stroke="none" /><path d="M 120.87857604477298 97.74499172005257 l 32.86589381467823 -3.549708683247428 a54.05703265530085,54.05703265530085 0 0,0 0.09195583731128441,0.925982732553387 l -32.92212677767174 2.9834504199896057" fill="red" stroke="none" /><path d="M 120.91429891909075 98.10471618934814 l 30.775030769921706 -2.7888774955446296 a51.90113843493121,51.90113843493121 0 0,0 0.07297180488796212,0.8904408504370801 l -30.81847705862916 2.2587227278997806" fill="red" stroke="none" /><path d="M 120.94382443527127 98.46500227214037 l 32.96860420398334 -2.4163080959842147 a54.05703265530085,54.05703265530085 0 0,0 0.06002752636079177,0.9285992639894028 l -33.00531232134855 1.8484497677417764" fill="red" stroke="none" /><line stroke="#e1ed5e" stroke-width="0.3" x1="184.98032266829074" x2="189.97916517819016" y1="98.17113171792111" y2="98.06355123074" /><path d="M 185.9800911702706 98.14961562048488 a86.0,86.0 0 0,1 -9.607161424134198,41.387399972396054" fill="none" id="id16" stroke="none" /><text fill="#e1ed5e" style="font-size:6.75px; font-family:Arial;" text-anchor="middle"><textPath startOffset="21.466115282336823" xlink:href="#id16">April</textPath></text><path d="M 120.9904718944345 100.63252640178507 l 30.40824835034928 0.9163214629173256 a51.422051422609925,51.422051422609925 0 0,0 -0.03427614496820436,0.884514999002976 l -30.38797007252987 -1.439613708934308" fill="red" stroke="none" /><path d="M 120.9764740272857 100.99374915477107 l 14.117245563337226 0.6687969020919974 a35.1330786310631,35.1330786310631 0 0,0 -0.03381751065186438,0.6038343700077248 l -14.103641701797832 -0.9117029884351454" fill="red" stroke="none" /><path d="M 120.95626037817324 101.35467743843564 l 40.39856999485083 2.6114884206195397 a61.48288934105237,61.48288934105237 0 0,0 -0.07736140569763408,1.055534916821227 l -40.34763203048886 -3.306496473937537" fill="red" stroke="none" /><path d="M 120.92983693683757 101.71520430193887 l 36.527735974404294 2.9934552319953274 a57.650187852748445,57.650187852748445 0 0,0 -0.08956479301896977,0.9883400276505029 l -36.470796585108246 -3.6217766481944005" fill="red" stroke="none" /><path d="M 120.89721153311464 102.0752229133903 l 30.034773959793927 2.9826396225684757 a51.18250794639224,51.18250794639224 0 0,0 -0.09460891247062239,0.8759610290997268 l -29.978982745822254 -3.499196973552994" fill="red" stroke="none" /><path d="M 120.81339534386255 102.79330883721812 l 31.16073786424865 4.1819973633523295 a52.44011269368329,52.44011269368329 0 0,0 -0.12776895860803217,0.8936157989186752 l -31.084134854624015 -4.717758634251414" fill="red" stroke="none" /><path d="M 120.13307415673323 105.97154293290107 l 30.831160060715227 9.144634075275238 a53.15874318222226,53.15874318222226 0 0,0 -0.267751039804822,0.875025890053641 l -30.669182248404272 -9.673986937880937" fill="red" stroke="none" /><path d="M 119.54520255179757 107.68017299344265 l 30.15386071763854 11.848783153712555 a53.398286658439936,53.398286658439936 0 0,0 -0.34352233003283783,0.8525942510802651 l -29.94543577334831 -12.366076772635633" fill="red" stroke="none" /><path d="M 119.12269723197855 108.67885076344098 l 31.08346934111215 14.107256332562546 a55.13497835816635,55.13497835816635 0 0,0 -0.3996639621952133,0.860840618793272 l -30.836030762077105 -14.64021701863465" fill="red" stroke="none" /><path d="M 118.64920377521936 109.65438752849418 l 27.22925392658511 14.096139046340195 a51.661594958713536,51.661594958713536 0 0,0 -0.4156236613988648,0.7862033355003193 l -26.98257775696135 -14.562757396926648" fill="red" stroke="none" /><line stroke="#e1ed5e" stroke-width="0.3" x1="174.80103733775053" x2="179.2010983576182" y1="140.37084112569926" y2="142.7455964860345" /><path d="M 175.68104954172406 140.8457921977663 a86.0,86.0 0 0,1 -30.038265399797805,32.042727171017184" fill="none" id="id17" stroke="none" /><text fill="#e1ed5e" style="font-size:6.75px; font-family:Arial;" text-anchor="middle"><textPath startOffset="22.206326154141568" xlink:href="#id17">May</textPath></text><path d="M 118.48025628344425 109.97397251340804 l 29.45949549791896 15.899573785583334 a54.47623517594409,54.47623517594409 0 0,0 -0.4524733589977211,0.8213705763523064 l -29.181445729469733 -16.404314880333445" fill="red" stroke="none" /><path d="M 118.30583269289576 110.29060199501025 l 28.032979633693472 15.758706035618975 a53.15874318222226,53.15874318222226 0 0,0 -0.4552616118271894,0.7937869943361665 l -27.757566025713903 -16.238912875813455" fill="red" stroke="none" /><path d="M 118.12598468904814 110.60418214915192 l 28.01601734855429 16.390113759578114 a53.458173964756654,53.458173964756654 0 0,0 -0.4714988651678122,0.7902592185853066 l -27.72973760768825 -16.869935072049525" fill="red" stroke="none" /><path d="M 117.94076556474637 110.91462005526583 l 27.525090254174668 16.74543380141782 a53.21863042865304,53.21863042865304 0 0,0 -0.4828586154809963,0.7785218336856143 l -27.232766999025706 -17.21675196646871" fill="red" stroke="none" /><path d="M 117.75023020441432 111.22182372390056 l 27.840188742048444 17.600768379087988 a53.93726091719201,53.93726091719201 0 0,0 -0.5028882557309188,0.7804937405778788 l -27.533095622940476 -18.07738371958732" fill="red" stroke="none" /><path d="M 117.55443506779139 111.5257021239791 l 28.53429814899501 18.734742503080877 a55.13497835816635,55.13497835816635 0 0,0 -0.5277123539637398,0.7888583682233675 l -28.207582689620548 -19.223137785510055" fill="red" stroke="none" /><path d="M 116.0416608686014 113.55231037782055 l 23.422043238957183 19.787402455214465 a51.661594958713536,51.661594958713536 0 0,0 -0.5797353247400637,0.6743631558107017 l -23.07796540464634 -20.187642710186694" fill="red" stroke="none" /><path d="M 115.32070863581623 114.36230785411682 l 23.461654018517578 21.99398903735984 a53.15874318222226,53.15874318222226 0 0,0 -0.6315599124234567,0.6621880432327386 l -23.079587554715154 -22.394584197175085" fill="red" stroke="none" /><path d="M 114.29624159901734 115.38237550388516 l 22.178199169896853 23.863152092698048 a53.5779457028655,53.5779457028655 0 0,0 -0.6809513260349858,0.622032891132853 l -21.764148294395003 -24.241377750417485" fill="red" stroke="none" /><line stroke="#e1ed5e" stroke-width="0.3" x1="143.8653032363475" x2="146.44561519142675" y1="172.8068346515853" y2="177.08958963109032" /><path d="M 144.38136562736335 173.6633856474863 a86.0,86.0 0 0,1 -40.68145358897372,12.25698825130547" fill="none" id="id18" stroke="none" /><text fill="#e1ed5e" style="font-size:6.75px; font-family:Arial;" text-anchor="middle"><textPath startOffset="21.466115282336833" xlink:href="#id18">June</textPath></text><line stroke="#e1ed5e" stroke-width="0.3" x1="102.19456741930631" x2="102.32365962044197" y1="184.97166512339345" y2="189.96999836594603" /><path d="M 102.22038585953345 185.97133177190398 a86.0,86.0 0 0,1 -42.740103519485714,-10.115201625700543" fill="none" id="id19" stroke="none" /><text fill="#e1ed5e" style="font-size:6.75px; font-family:Arial;" text-anchor="middle"><textPath startOffset="22.20632615414155" xlink:href="#id19">July</textPath></text><path d="M 100.54218724476979 120.99299961872073 l 0.7777191546961365 30.112582093184212 a51.122623514600114,51.122623514600114 0 0,0 -0.8798941379341644,0.015148175541360278 l -0.2592653268693042 -30.121507746004735" fill="red" stroke="none" /><path d="M 100.18074693466247 120.99922214144158 l 0.2809137024225484 32.636621200586255 a53.63783013465762,53.63783013465762 0 0,0 -0.9233212741699851,0.0 l 0.2809137024225259 -32.636621200586255" fill="red" stroke="none" /><path d="M 99.81925306533755 120.99922214144158 l -0.27885195246801475 32.39708659727062 a53.398286658439936,53.398286658439936 0 0,0 -0.9190615851917496,-0.015822478666004194 l 0.8364732275524323 -32.38748664132546" fill="red" stroke="none" /><path d="M 94.46302465271185 120.25689768951611 l -8.005455719924012 29.287776684047593 a51.3621669908178,51.3621669908178 0 0,0 -0.8508236683195973,-0.24045126731503166 l 8.508410556348222 -29.14563662339404" fill="red" stroke="none" /><path d="M 92.7421414339146 119.70592522655815 l -8.40310952120487 22.815413994041943 a45.313686790466164,45.313686790466164 0 0,0 -0.7296146148094289,-0.27587781668004946 l 8.794594356774581 -22.66738792725526" fill="red" stroke="none" /><path d="M 92.06813273071674 119.44442032107085 l -9.432286796913477 23.12259432004409 a45.972432847213014,45.972432847213014 0 0,0 -0.730148496708661,-0.3052021308410178 l 9.8289067531196 -22.9568071461831" fill="red" stroke="none" /><path d="M 90.10565033884886 118.52300852407294 l -12.612473091336389 23.611551499715677 a47.76900897873155,47.76900897873155 0 0,0 -0.7219425594995944,-0.39366064571148457 l 13.017038462704624 -23.39095020224443" fill="red" stroke="none" /><line stroke="#e1ed5e" stroke-width="0.3" x1="58.666819895761336" x2="56.23545636021788" y1="174.27360380694188" y2="178.64263932499728" /><path d="M 58.180547188652646 175.14741091055294 a86.0,86.0 0 0,1 -31.652253787137756,-30.449443065178592" fill="none" id="id20" stroke="none" /><text fill="#e1ed5e" style="font-size:6.75px; font-family:Arial;" text-anchor="middle"><textPath startOffset="22.20632615414155" xlink:href="#id20">August</textPath></text><path d="M 89.7882731507175 118.34994917583269 l -7.163739741234956 12.872872737463661 a35.731938758869596,35.731938758869596 0 0,0 -0.5348751909117412,-0.3037160927846795 l 7.384263699067905 -12.747653478884349" fill="red" stroke="none" /><path d="M 88.54995079064634 117.60387380957326 l -13.648631650893481 20.98408354956223 a46.03231727900514,46.03231727900514 0 0,0 -0.660509612942566,-0.4377497549699821 l 14.007815962576009 -20.746035773500928" fill="red" stroke="none" /><path d="M 83.95833913139862 113.55231037782056 l -21.912419646111186 18.512042774473823 a49.68535972288352,49.68535972288352 0 0,0 -0.5463118241305894,-0.6580677853892088 l 22.227827470135313 -18.132113731970854" fill="red" stroke="none" /><path d="M 83.72743513129214 113.27417163493432 l -19.35073968741545 15.785159988370344 a45.972432847213014,45.972432847213014 0 0,0 -0.49493064790550534,-0.6175020823281596 l 19.61958824737582 -15.449730072463923" fill="red" stroke="none" /><path d="M 83.50135304334701 112.99209946851258 l -24.606821332762976 19.376999289645322 a52.32034095557445,52.32034095557445 0 0,0 -0.5510906066761599,-0.7123588968903041 l 24.936718756657203 -18.950562398641765" fill="red" stroke="none" /><path d="M 83.28015986056508 112.70617746262583 l -12.492198881368799 9.493397936904703 a36.69011272362625,36.69011272362625 0 0,0 -0.3778011190557849,-0.5061263383517233 l 12.653761267119668 -9.276958719043671" fill="red" stroke="none" /><line stroke="#e1ed5e" stroke-width="0.3" x1="26.63291911575756" x2="22.317208475507996" y1="142.92168965132927" y2="145.44649492493687" /><path d="M 25.769776987707644 143.4266507060508 a86.0,86.0 0 0,1 -11.730757126820373,-40.83630448921669" fill="none" id="id21" stroke="none" /><text fill="#e1ed5e" style="font-size:6.75px; font-family:Arial;" text-anchor="middle"><textPath startOffset="21.46611528233685" xlink:href="#id21">September</textPath></text><line stroke="#e1ed5e" stroke-width="0.3" x1="15.007084014347285" x2="10.007500721073583" y1="101.09737516637583" y2="101.16192664675087" /><path d="M 14.007167355692545 101.11028546245083 a86.0,86.0 0 0,1 10.666146001902534,-42.60595125391555" fill="none" id="id22" stroke="none" /><text fill="#e1ed5e" style="font-size:6.75px; font-family:Arial;" text-anchor="middle"><textPath startOffset="22.20632615414155" xlink:href="#id22">October</textPath></text><path d="M 79.00175016825051 100.2711162175752 l -25.149992808179142 0.32472091611594195 a46.15208901711398,46.15208901711398 0 0,0 -0.0034189966656677346,-0.7944544162279502 l 25.15185610213431 0.10824297831568362" fill="red" stroke="none" /><path d="M 79.00019446554 99.90962569577889 l -31.200280291963633 -0.13427284449196936 a52.200569217465606,52.200569217465606 0 0,0 0.011600937380433746,-0.8985053847961171 l 31.193346347465486 0.6713144873485584" fill="red" stroke="none" /><path d="M 79.03285615573316 98.82574320788736 l -29.955909949329033 -1.6776691657758953 a51.00285177649127,51.00285177649127 0 0,0 0.05663601716749009,-0.8761341178864953 l 29.922593341157132 2.1930623479154026" fill="red" stroke="none" /><path d="M 80.2630227832202 92.82701384747504 l -18.85519072568024 -6.852519536960171 a41.06178559615766,41.06178559615766 0 0,0 0.24714387082306138,-0.662222701603831 l 18.734442266355554 7.1760653755933435" fill="red" stroke="none" /><line stroke="#e1ed5e" stroke-width="0.3" x1="26.266209847984243" x2="21.928928074336255" y1="57.711370442889674" y2="55.22380399835377" /><path d="M 25.398753493254645 57.213857153982495 a86.0,86.0 0 0,1 29.58750427330803,-30.492523968695096" fill="none" id="id23" stroke="none" /><text fill="#e1ed5e" style="font-size:6.75px; font-family:Arial;" text-anchor="middle"><textPath startOffset="21.46611528233685" xlink:href="#id23">November</textPath></text><path d="M 85.83668400450813 84.49514656593479 l -17.004056549505158 -18.614666556091205 a46.21197632343069,46.21197632343069 0 0,0 0.5919292320227607,-0.5314399089923396 l 16.681116329886425 18.904605473852826" fill="red" stroke="none" /><path d="M 86.10567301691215 84.25364557470407 l -21.832055567945073 -24.742132902447274 a53.99714822350873,53.99714822350873 0 0,0 0.7022360016775996,-0.6089721407063415 l 21.402925767620697 25.114270036573295" fill="red" stroke="none" /><path d="M 86.37877921826538 84.01681056812374 l -11.886197609967029 -13.947307004932389 a39.325093896431255,39.325093896431255 0 0,0 0.5189834943700578,-0.4346337513686356 l 11.644356578637861 14.149841913694837" fill="red" stroke="none" /><path d="M 86.65592168130627 83.78471172551755 l -20.168331140296825 -24.507897484158974 a52.73954347621768,52.73954347621768 0 0,0 0.7059479253535506,-0.5708274602484468 l 19.743479816378777 24.851431041671553" fill="red" stroke="none" /><path d="M 86.93701828274178 83.55741782278169 l -20.265005195350632 -25.50788330401534 a53.5779457028655,53.5779457028655 0 0,0 0.7270462041310767,-0.5674710945401004 l 19.82292643606013 25.852932787778663" fill="red" stroke="none" /><path d="M 87.22198572758235 83.33499621200491 l -18.401798008152902 -23.99950625925902 a51.24239525270895,51.24239525270895 0 0,0 0.7045923199929776,-0.5306843276880077 l 17.985959534401534 24.312707176452882" fill="red" stroke="none" /><path d="M 87.51073957382395 83.11751280151077 l -17.950342955124793 -24.264562096346033 a51.18250794639224,51.18250794639224 0 0,0 0.7127887699848665,-0.5178713548786381 l 17.530008868786144 24.56995268604134" fill="red" stroke="none" /><path d="M 87.80319425747018 82.90503203632743 l -17.14740901367272 -24.03370308068253 a50.52376194953132,50.52376194953132 0 0,0 0.7123101249687698,-0.4990187632818654 l 16.731167749120292 24.325306686728336" fill="red" stroke="none" /><path d="M 88.09926311788651 82.69761687909137 l -18.360165950161022 -26.69369372501668 a53.398286658439936,53.398286658439936 0 0,0 0.7618036195048817,-0.5143732045077858 l 17.8979576362496 27.00577884182313" fill="red" stroke="none" /><path d="M 88.39885842347998 82.49532879139004 l -16.44230095377719 -24.8093750266273 a50.76330542574901,50.76330542574901 0 0,0 0.7325216868659693,-0.47645248155396397 l 16.01281224112693 25.0887264323408" fill="red" stroke="none" /><path d="M 88.70189139769569 82.29822771554957 l -16.17390755064819 -25.34112907650168 a51.0627362082834,51.0627362082834 0 0,0 0.7449830667469745,-0.4665083280520796 l 15.735305331528973 25.615781745876692" fill="red" stroke="none" /><path d="M 89.00827224532344 82.1063720568725 l -16.04875734811154 -26.12605582543303 a51.661594958713536,51.661594958713536 0 0,0 0.761732834234132,-0.4589355095392149 l 15.596662447659758 26.398437944430867" fill="red" stroke="none" /><line stroke="#e1ed5e" stroke-width="0.3" x1="56.762969772571076" x2="54.21961505331055" y1="26.818313649435495" y2="22.513508569990535" /><path d="M 56.25429882871897 25.957352633546506 a86.0,86.0 0 0,1 42.265352541879196,-11.944610805530505" fill="none" id="id24" stroke="none" /><text fill="#e1ed5e" style="font-size:6.75px; font-family:Arial;" text-anchor="middle"><textPath startOffset="22.20632615414155" xlink:href="#id24">December</textPath></text><path d="M 89.3179101791058 81.91981866633112 l -6.2142952056507585 -10.518127638221777 a33.21672926428751,33.21672926428751 0 0,0 0.49477625955637883,-0.28660634513282157 l 6.03232221362906 10.623538140744646" fill="red" stroke="none" /><path d="M 89.63071344664047 81.73862282372117 l -16.056622174890148 -28.27735854379229 a53.51805839654878,53.51805839654878 0 0,0 0.8050031165288241,-0.447983362789912 l 15.567494969289276 28.549557304142386" fill="red" stroke="none" /><path d="M 89.94658935756843 81.56283822128135 l -15.825520185905216 -29.02275519000795 a54.05703265530085,54.05703265530085 0 0,0 0.8207786967678016,-0.43843155444701704 l 15.323596442609109 29.290865470956717" fill="red" stroke="none" /><path d="M 90.58718382345135 81.22770947309562 l -8.213844774528612 -16.381142216981424 a39.325093896431255,39.325093896431255 0 0,0 0.6077201379478507,-0.2982056323914278 l 7.930653369570336 16.520103009507682" fill="red" stroke="none" /><path d="M 90.91171255644093 81.06846463323043 l -14.073021991155938 -29.315084409187673 a53.51805839654878,53.51805839654878 0 0,0 0.8339178474424143,-0.3915356109917552 l 13.566325932413916 29.552985002819433" fill="red" stroke="none" /><path d="M 91.23893434514133 80.91482961587045 l -13.416421923675617 -29.22643299867507 a53.15874318222226,53.15874318222226 0 0,0 0.8348906695871117,-0.3745911069648558 l 12.911349135621732 29.453044436156453" fill="red" stroke="none" /><path d="M 91.56875222667455 80.76684994638697 l -2.7169133746951637 -6.197754356538133 a27.76710997025945,27.76710997025945 0 0,0 0.4394029353495184,-0.1881294054132258 l 2.609826681555337 6.2436032899141445" fill="red" stroke="none" /><path d="M 91.90106846888425 80.62456947434976 l -12.725792580203578 -30.444473949960788 a53.99714822350873,53.99714822350873 0 0,0 0.8606531669826427,-0.35108203652628206 l 12.199855543632555 30.659016872670648" fill="red" stroke="none" /><path d="M 92.23578459929587 80.48803036053334 l -11.867735856673768 -29.82437886816329 a53.098858690544205,53.098858690544205 0 0,0 0.852152823715078,-0.330622056613012 l 11.352599867959015 30.024243628666852" fill="red" stroke="none" /><path d="M 92.57280143429618 80.3572730644239 l -11.310239464078357 -29.912212983606317 a52.97908695243537,52.97908695243537 0 0,0 0.8557829837475208,-0.31519209516390373 l 10.793674154558266 30.102468346576543" fill="red" stroke="none" /><path d="M 92.91201910852362 80.23233633223022 l -10.87452556323011 -30.32795476903747 a53.21863042865304,53.21863042865304 0 0,0 0.86497506116212,-0.3017728146089276 l 10.350868498004704 30.510648436818606" fill="red" stroke="none" /><path d="M 93.25333710446033 80.11325718540243 l -10.793377775492146 -31.815007099867273 a54.596006914052936,54.596006914052936 0 0,0 0.8925593814555506,-0.29426279490089374 l 10.244135571794187 31.9960836190274" fill="red" stroke="none" /><path d="M 93.59665428221793 80.00007090966166 l -11.321503944196557 -35.36108872758867 a58.129274805183805,58.129274805183805 0 0,0 0.955575044593674,-0.2969018178562209 l 10.711143526892155 35.55073068032742" fill="red" stroke="none" /><path d="M 96.04723909329186 79.375362276772 l -6.639285230597423 -34.642331234824894 a56.27281136734855,56.27281136734855 0 0,0 0.9528993462612244,-0.17413626474990315 l 6.041990763233305 34.75148298092553" fill="red" stroke="none" /><path d="M 96.40284397218896 79.31037775812273 l -2.7594152588015306 -15.871221284726214 a37.10931524426948,37.10931524426948 0 0,0 0.6302766156102833,-0.10400104199412988 l 2.485809437052362 15.916368589659971" fill="red" stroke="none" /><path d="M 97.11714578562143 79.19881850522333 l -4.751776778298975 -34.28635783768511 a55.6140681851263,55.6140681851263 0 0,0 0.9493725872441672,-0.12325580899999118 l 4.16088946254695 34.36307196984924" fill="red" stroke="none" /></svg>