<?xml version="1.0" encoding="utf-8" ?>
<svg baseProfile="full" height="200mm" version="1.1" viewBox="0,0,200,200" width="200mm" xmlns="http://www.w3.org/2000/svg" xmlns:ev="http://www.w3.org/2001/xml-events" xmlns:xlink="http://www.w3.org/1999/xlink"><defs /><rect fill="#1a1a1a" height="200" width="200" x="0" y="0" /><rect fill="#1a1a1a" height="200" width="180" x="10" y="0" /><text alignment-baseline="middle" fill="#e1ed5e" style="dominant-baseline: central; font-size:9.0px; font-family:Arial;" text-anchor="middle" x="100.0" y="100.0">2024</text><line stroke="#e1ed5e" stroke-width="0.3" x1="100.0" x2="100.0" y1="15.0" y2="10.0" /><path d="M 100.0 14.0 a86.0,86.0 0 0,1 42.35913384403234,11.155469271406648" fill="none" id="id133" stroke="none" /><text fill="#e1ed5e" style="font-size:6.75px; font-family:Arial;" text-anchor="middle"><textPath startOffset="22.145653131862478" xlink:href="#id133">January</textPath></text><path d="M 100.0 79.0 l 0.0 -5.832754134189777 a26.832754134189777,26.832754134189777 0 0,0 0.4606199056944892,0.003953867902121559 l -0.1001269808456344 5.831894664482091" fill="red" stroke="none" /><path d="M 101.44090949804482 79.04949213459386 l 1.8499469882352686 -26.897823201386075 a47.961364891865244,47.961364891865244 0 0,0 0.8208953140492833,0.06354248901222516 l -2.3114112970597853 26.862102945378798" fill="red" stroke="none" /><path d="M 102.15924093988457 79.11130261209362 l 1.8906504510568214 -18.290328054147544 a39.38778560502645,39.38778560502645 0 0,0 0.6719633094155201,0.07529489040134608 l -2.204349662073138 18.255177403239227" fill="red" stroke="none" /><path d="M 102.51750503828377 79.15144685158666 l 0.6544222193047007 -5.4195547628289376 a26.45892317846858,26.45892317846858 0 0,0 0.45045961167572873,0.058321015247029914 l -0.7473596528712211 5.407522151381511" fill="red" stroke="none" /><line stroke="#e1ed5e" stroke-width="0.3" x1="143.13028292997686" x2="145.6673583964461" y1="26.7553504044142" y2="22.446841604673864" /><path d="M 143.63769802327073 25.89364864446614 a86.0,86.0 0 0,1 29.32050498858742,28.57503671076993" fill="none" id="id134" stroke="none" /><text fill="#e1ed5e" style="font-size:6.75px; font-family:Arial;" text-anchor="middle"><textPath startOffset="20.669276256404974" xlink:href="#id134">February</textPath></text><path d="M 113.31354834802062 83.75963576809568 l 14.335722781837516 -17.487250837922854 a43.612317208683606,43.612317208683606 0 0,0 0.5749051785731707,0.47960634717695966 l -14.63380229457258 17.238582306834026" fill="red" stroke="none" /><path d="M 113.59037401385872 83.9905735841838 l 21.344091876085397 -25.14328656107297 a53.981132744449624,53.981132744449624 0 0,0 0.7012933675395642,0.6057605079728755 l -21.77256472338782 24.773181920635373" fill="red" stroke="none" /><path d="M 114.13192950727249 84.46653392183569 l 29.40822706567733 -32.32479310829922 a64.70052709797429,64.70052709797429 0 0,0 0.8151349166865746,0.754476709627395 l -29.95879175367787 31.815198652539447" fill="red" stroke="none" /><line stroke="#e1ed5e" stroke-width="0.3" x1="172.87174338648825" x2="177.1583165268699" y1="56.24261187166439" y2="53.66864786411523" /><path d="M 173.72905801456457 55.72781907015455 a86.0,86.0 0 0,1 12.242430191666344,42.057860355516425" fill="none" id="id135" stroke="none" /><text fill="#e1ed5e" style="font-size:6.75px; font-family:Arial;" text-anchor="middle"><textPath startOffset="22.145653131862474" xlink:href="#id135">March</textPath></text><path d="M 120.86939407059847 97.66154086499901 l 4.586328223387013 -0.5139076435957413 a25.61503062165165,25.61503062165165 0 0,0 0.04521370960254707,0.4374016258337387 l -4.594474325471226 0.43510149547907107" fill="red" stroke="none" /><path d="M 120.9064616781168 98.02013634271609 l 14.326375446085349 -1.3567226498206748 a35.39047357701384,35.39047357701384 0 0,0 0.05208530139413451,0.6053101539176734 l -14.347554370177225 1.1105914485273394" fill="red" stroke="none" /><path d="M 120.93736805541906 98.37931529534042 l 4.032636523797545 -0.3121515711177785 a25.044699733777186,25.044699733777186 0 0,0 0.029500317391617695,0.4289281404444363 l -4.037400802354228 0.2428800065190081" fill="red" stroke="none" /><path d="M 120.98066250479742 99.09900007780936 l 12.831027816415487 -0.5510195429516509 a33.842853941486005,33.842853941486005 0 0,0 0.019943614783135295,0.5806365840185185 l -12.83859611819547 0.3306766943690124" fill="red" stroke="none" /><path d="M 120.99303781780057 99.45929381324524 l 17.578386026385576 -0.45275686921169656 a38.58421576514705,38.58421576514705 0 0,0 0.011370526594021005,0.6622761698791535 l -17.583567984578263 0.15093378336347665" fill="red" stroke="none" /><line stroke="#e1ed5e" stroke-width="0.3" x1="184.99686870605535" x2="189.99668451229388" y1="99.2704041080226" y2="99.22748670261217" /><path d="M 185.99683186730306 99.26182062694052 a86.0,86.0 0 0,1 -10.086455211305974,41.156179273409016" fill="none" id="id136" stroke="none" /><text fill="#e1ed5e" style="font-size:6.75px; font-family:Arial;" text-anchor="middle"><textPath startOffset="21.40746469413373" xlink:href="#id136">April</textPath></text><path d="M 120.99922638620191 99.81974689727618 l 24.937162706097286 -0.2140555498680908 a45.93808139390035,45.93808139390035 0 0,0 0.0,0.7886173051838323 l -24.937162706097286 -0.21405554986808778" fill="red" stroke="none" /><path d="M 120.99922638620191 100.18025310272382 l 20.497854622686987 0.1759494291346374 a41.49860976589444,41.49860976589444 0 0,0 -0.012229380242686046,0.7123000891958419 l -20.49181381084563 -0.5277964342995504" fill="red" stroke="none" /><path d="M 120.99303781780057 100.54070618675476 l 25.277466411235405 0.6510578694071271 a46.285849491770115,46.285849491770115 0 0,0 -0.027276279765597183,0.7941191243434863 l -25.262565444472962 -1.084883258314724" fill="red" stroke="none" /><path d="M 120.98066250479742 100.90099992219065 l 60.25031294362286 2.587407678940227 a81.30584456171331,81.30584456171331 0 0,0 -0.07185272585506494,1.3939236859782829 l -60.19701862831122 -3.62130315829524" fill="red" stroke="none" /><path d="M 120.96210409425399 101.26102812881392 l 28.492245211355385 1.7140227194287927 a49.54375432676511,49.54375432676511 0 0,0 -0.05835791576453748,0.8485112874144176 l -28.45862333442578 -2.2028774309975536" fill="red" stroke="none" /><path d="M 120.93736805541906 101.62068470465957 l 14.952994947536688 1.1574563782887797 a35.997725266476216,35.997725266476216 0 0,0 -0.05297901329089443,0.6156964408605602 l -14.930922311548052 -1.4139738665249972" fill="red" stroke="none" /><path d="M 120.9064616781168 101.97986365728391 l 10.228289008979228 0.9686296034623195 a31.274051749913898,31.274051749913898 0 0,0 -0.055202584560660614,0.5340349298766047 l -10.2101540319369 -1.1440690556218558" fill="red" stroke="none" /><path d="M 120.86939407059847 102.33845913500097 l 21.99540432919782 2.464630933109682 a43.133057114672056,43.133057114672056 0 0,0 -0.08876765436851894,0.7351235178554708 l -21.94985458856964 -2.8418481278885617" fill="red" stroke="none" /><path d="M 120.82617615685814 102.69636545807757 l 20.481953583361335 2.6517989543624063 a41.65290440314209,41.65290440314209 0 0,0 -0.09789520160460434,0.7083209123707713 l -20.433413865201523 -3.0030081749332624" fill="red" stroke="none" /><path d="M 120.77682067341334 103.0534771498775 l 23.306959313883624 3.4253203999173825 a44.55731674663133,44.55731674663133 0 0,0 -0.11771302130598525,0.7558020384082748 l -23.24472480043937 -3.824910620257108" fill="red" stroke="none" /><path d="M 120.7213421655516 103.40968896794604 l 25.453333127800345 4.1883362800503185 a46.7956261430027,46.7956261430027 0 0,0 -0.13723415126580915,0.7915301159446682 l -25.377684159042303 -4.6246594289155745" fill="red" stroke="none" /><path d="M 120.65975698304385 103.76489593502545 l 16.697800087980973 3.0428954090168125 a37.97279412025,37.97279412025 0 0,0 -0.12236951288207336,0.6402889998332648 l -16.64310428281674 -3.329086973883392" fill="red" stroke="none" /><path d="M 120.592083275326 104.11899336999214 l 20.41890681630863 4.0843532280990615 a41.82339301999024,41.82339301999024 0 0,0 -0.14686441630411318,0.7027993975323432 l -20.345784689180153 -4.434269076916814" fill="red" stroke="none" /><path d="M 120.51834098615036 104.47187691870673 l 51.34227475447487 11.189809818611062 a73.54751203188094,73.54751203188094 0 0,0 -0.2794425056952912,1.2312752406960186 l -51.142621387221915 -12.069519393246098" fill="red" stroke="none" /><path d="M 120.43855184770803 104.8234425847677 l 4.871434233775551 1.149645214943308 a26.005252802231116,26.005252802231116 0 0,0 -0.10626547935849906,0.43359941896643434 l -4.850981227900756 -1.233100458517842" fill="red" stroke="none" /><path d="M 120.35273937422433 105.17358676015961 l 19.891834929585965 5.056426652685348 a41.52443780861934,41.52443780861934 0 0,0 -0.18154191402385855,0.6893442173830369 l -19.80210353475738 -5.397151374441188" fill="red" stroke="none" /><path d="M 120.26092885502905 105.52220625578681 l 24.423940825784676 6.656853680508196 a46.314868879477274,46.314868879477274 0 0,0 -0.21565417706682896,0.7652805955547506 l -24.306068156643267 -7.075142199965955" fill="red" stroke="none" /><path d="M 120.16314734710363 105.8691983318838 l 24.701294841148457 7.1901869277299975 a46.72649907945204,46.72649907945204 0 0,0 -0.23079259227941792,0.7682334784755935 l -24.574225928865406 -7.613158009796314" fill="red" stroke="none" /><path d="M 120.05942366710727 106.21446072829308 l 30.070656720858725 9.31596631922114 a52.4806547594644,52.4806547594644 0 0,0 -0.27398721432141154,0.8582610465024644 l -29.906304790760057 -9.830796399414988" fill="red" stroke="none" /><path d="M 119.94978838288452 106.5578916946017 l 33.292217892269036 10.94381328866072 a56.04481162002994,56.04481162002994 0 0,0 -0.30828537082590374,0.9113909201262542 l -33.099447099870765 -11.513705883261135" fill="red" stroke="none" /><path d="M 119.83427380445688 106.89939002012753 l 23.38233981775288 8.133591558546716 a45.75659764576171,45.75659764576171 0 0,0 -0.26442918617415945,0.7396554959847202 l -23.239270461534776 -8.533782010912358" fill="red" stroke="none" /><path d="M 119.71291397450082 107.23885506374661 l 19.317595851703267 7.093688773328785 a41.57887095791686,41.57887095791686 0 0,0 -0.25178840892790005,0.667898668943773 l -19.192976758960924 -7.424255722466717" fill="red" stroke="none" /><path d="M 119.58574465831526 107.57618678355244 l 19.086812966999386 7.38318928707799 a41.465041248090344,41.465041248090344 0 0,0 -0.2624960726716874,0.661661578258699 l -18.957258219361574 -7.709751882550253" fill="red" stroke="none" /><path d="M 119.4528033332814 107.91128576633889 l 21.012968005051768 8.545791156099574 a43.68425380886484,43.68425380886484 0 0,0 -0.28847033352372126,0.6922237865193454 l -20.86317182699156 -8.905247452060197" fill="red" stroke="none" /><path d="M 119.31412917781788 108.2440532568976 l 44.96709448361687 19.193778726334852 a69.89213360136813,69.89213360136813 0 0,0 -0.4804788574086243,1.0994296548964804 l -44.630981744191274 -19.962870451007177" fill="red" stroke="none" /><path d="M 119.16976305983485 108.57439118712176 l 55.45160624812465 24.80279815882932 a81.74585938156348,81.74585938156348 0 0,0 -0.5839594686194561,1.2760568268383452 l -55.01766231465013 -25.751043967882353" fill="red" stroke="none" /><path d="M 119.0197475246899 108.90220220490707 l 14.729410289978007 6.894107747235252 a37.26297171863123,37.26297171863123 0 0,0 -0.27613768140343836,0.5770215494666904 l -14.608893350614657 -7.145941798767046" fill="red" stroke="none" /><path d="M 118.8641267826498 109.22738970284198 l 42.21757992894135 20.65073389315403 a67.9976261675248,67.9976261675248 0 0,0 -0.5218982517656109,1.0441461093101538 l -41.856861763964005 -21.37241185862793" fill="red" stroke="none" /><path d="M 118.70294669586154 109.54985784667822 l 27.031173892539176 13.802309994269995 a51.351081087609,51.351081087609 0 0,0 -0.4076100412722623,0.7816459995380728 l -26.790255782291965 -14.26430223691257" fill="red" stroke="none" /><path d="M 118.5362547648365 109.86951160357373 l 26.66259292916969 14.196328958263758 a51.206449933711966,51.206449933711966 0 0,0 -0.4197823088465635,0.7723521672108564 l -26.414965270707786 -14.651935958949217" fill="red" stroke="none" /><line stroke="#e1ed5e" stroke-width="0.3" x1="174.33088141563837" x2="178.70328620479359" y1="141.23008692659167" y2="143.65538615756765" /><path d="M 175.20536237346943 141.71514677278685 a86.0,86.0 0 0,1 -30.301960400862466,31.631185727798858" fill="none" id="id137" stroke="none" /><text fill="#e1ed5e" style="font-size:6.75px; font-family:Arial;" text-anchor="middle"><textPath startOffset="22.145653131862474" xlink:href="#id137">May</textPath></text><path d="M 118.36410011445183 110.18625677009912 l 55.092300343355504 30.558770310297355 a84.0,84.0 0 0,0 -0.7102665399144867,1.254972919603509 l -54.559600438419636 -31.499999999999986" fill="red" stroke="none" /><path d="M 118.18653347947321 110.5 l 25.902422286957986 14.954770480038547 a50.90954096007711,50.90954096007711 0 0,0 -0.44346159270588803,0.7530947343790306 l -25.641886984122333 -15.397216382711129" fill="red" stroke="none" /><path d="M 118.00360718960297 110.81064883170644 l 19.49409546271052 11.705644214501039 a43.73855457995852,43.73855457995852 0 0,0 -0.39204748382685595,0.640380101318929 l -19.29028001442826 -12.038561431944524" fill="red" stroke="none" /><path d="M 117.81537515405839 111.11811171558189 l 6.271108041813872 3.9136352272372767 a28.39211314604797,28.39211314604797 0 0,0 -0.2615891233864894,0.41126155076208104 l -6.203001226801494 -4.0207104526780295" fill="red" stroke="none" /><path d="M 117.62189284568427 111.42229804090321 l 3.534399238360024 2.290954884904811 a25.211941625994967,25.211941625994967 0 0,0 -0.2385236499258303,0.3611552070114427 l -3.494551149513467 -2.3512899702553147" fill="red" stroke="none" /><path d="M 117.21940702142032 112.02048342749411 l 16.916105805933636 11.80875562352495 a41.630107731509156,41.630107731509156 0 0,0 -0.414090521508734,0.5824701764787685 l -16.710900185894943 -12.097403026713224" fill="red" stroke="none" /><path d="M 117.01052211995028 112.31430620078461 l 31.764898600428968 22.995336947582185 a60.214720506824634,60.214720506824634 0 0,0 -0.6133241479873353,0.8320919990580218 l -31.365472432857803 -23.537235255909085" fill="red" stroke="none" /><path d="M 116.79662413953412 112.60449989151573 l 4.9339072218184485 3.702495961422655 a27.168623575633653,27.168623575633653 0 0,0 -0.2831333117872692,0.3706305938309476 l -4.869621932676875 -3.78664746849448" fill="red" stroke="none" /><path d="M 116.57777611688842 112.89097897827486 l 3.3751462714882443 2.6245341550989756 a25.275487327220382,25.275487327220382 0 0,0 -0.26928452366633293,0.3402321988210657 l -3.32959531718035 -2.6820862978347244" fill="red" stroke="none" /><path d="M 116.35404254752997 113.17365903436017 l 4.161275541628422 3.3520290150960177 a26.34343640847353,26.34343640847353 0 0,0 -0.28670838968293194,0.3497376172811081 l -4.103120332706863 -3.4229689140756188" fill="red" stroke="none" /><path d="M 115.6541949942343 113.99807769240083 l 8.029718222671653 7.180223548412645 a31.771814375521178,31.771814375521178 0 0,0 -0.3670435817107834,0.403445192871814 l -7.9052769401189895 -7.317006316842131" fill="red" stroke="none" /><path d="M 115.41159269507618 114.26474011684316 l 20.18736725436216 18.685125750743982 a48.50752117119261,48.50752117119261 0 0,0 -0.5708738513035769,0.606248247062029 l -19.863637569322325 -19.028915457750507" fill="red" stroke="none" /><path d="M 115.16444852881244 114.52719865689866 l 15.113134695105842 14.478041164973614 a41.92893968377477,41.92893968377477 0 0,0 -0.5023749827709255,0.5154809891433899 l -14.862372911184108 -14.735344846184741" fill="red" stroke="none" /><path d="M 114.91283532996324 114.78537596483092 l 14.596905025351662 14.472145903007569 a41.55511234114461,41.55511234114461 0 0,0 -0.5065925961542872,0.5022627709226731 l -14.346320509067409 -14.720588684158903" fill="red" stroke="none" /><path d="M 114.65682725009322 115.03919595460226 l 29.69047879883417 30.465046836025937 a63.53990608858082,63.53990608858082 0 0,0 -0.7876755143043698,0.7545753247626033 l -29.16313079866449 -30.970234291094123" fill="red" stroke="none" /><path d="M 114.39649973595853 115.28858382429668 l 25.745621682736136 27.34095804009922 a58.55482688524924,58.55482688524924 0 0,0 -0.7377078066524501,0.6828113324994367 l -25.27248410476972 -27.778887118731035" fill="red" stroke="none" /><path d="M 114.13192950727249 115.5334660781643 l 27.208375582023525 29.906770970504734 a61.43155514811023,61.43155514811023 0 0,0 -0.7861336821393134,0.7029655861098153 l -26.690976873060833 -30.369432086497934" fill="red" stroke="none" /><path d="M 113.86319453409587 115.77377054828091 l 22.62580576038503 25.74401359344136 a55.27362429341207,55.27362429341207 0 0,0 -0.7180847111962451,0.6202644706992038 l -22.18054156942593 -26.128622196605278" fill="red" stroke="none" /><path d="M 113.59037401385872 116.0094264158162 l 7.898686131000142 9.304632401354395 a33.20513935686062,33.20513935686062 0 0,0 -0.43771594341476217,0.3651582079035904 l -7.737795853423485 -9.438852793169856" fill="red" stroke="none" /><path d="M 113.31354834802062 116.24036423190432 l 12.918955530957339 15.759025154981705 a41.377592739236874,41.377592739236874 0 0,0 -0.5531774898140404,0.4456006284142902 l -12.646527270788045 -15.978474077189398" fill="red" stroke="none" /><path d="M 113.03279911837588 116.46651593811092 l 12.953618607021209 16.36647394863753 a41.872414918441926,41.872414918441926 0 0,0 -0.5674510895188563,0.4412533994070957 l -12.670757572867123 -16.58642839966542" fill="red" stroke="none" /><path d="M 112.45986205192187 116.90419585922612 l 16.974808025450898 23.029587192799248 a49.609543753294204,49.609543753294204 0 0,0 -0.6898537544116861,0.4994009181895228 l -16.576973260665245 -23.317588882361846" fill="red" stroke="none" /><path d="M 112.16784306229584 117.11559508785304 l 2.5667252196109955 3.61042046118842 a25.42980973175543,25.42980973175543 0 0,0 -0.3579607898678207,0.24988443196367105 l -2.504369338569416 -3.653949708957213" fill="red" stroke="none" /><path d="M 111.5731344415666 117.5232005979908 l 8.916649217181513 13.500943386037314 a37.179681874970484,37.179681874970484 0 0,0 -0.5355899026329626,0.3471629040730619 l -8.683573682291541 -13.65202013181427" fill="red" stroke="none" /><path d="M 111.27062007382361 117.71928675628689 l 2.582298973653504 4.059802895042373 a25.81147249144442,25.81147249144442 0 0,0 -0.37590829412577204,0.23459457759170718 l -2.5122265507380166 -4.103533269475628" fill="red" stroke="none" /><line stroke="#e1ed5e" stroke-width="0.3" x1="143.1302829299769" x2="145.66735839644613" y1="173.24464959558577" y2="177.55315839532614" /><path d="M 143.63769802327073 174.10635135553383 a86.0,86.0 0 0,1 -40.68552437913181,11.842963189579606" fill="none" id="id138" stroke="none" /><text fill="#e1ed5e" style="font-size:6.75px; font-family:Arial;" text-anchor="middle"><textPath startOffset="21.407464694133747" xlink:href="#id138">June</textPath></text><path d="M 110.65571695917076 118.09573695890943 l 6.561691720834036 11.143187064806085 a33.93160532186641,33.93160532186641 0 0,0 -0.5044620361464227,0.291251292365085 l -6.369437216827214 -11.254185254447341" fill="red" stroke="none" /><path d="M 110.34350942703117 118.27599006163325 l 11.632728242347923 20.55391617773702 a44.61744771565629,44.61744771565629 0 0,0 -0.6698052239048682,0.37152966680242655 l -11.278178830286961 -20.75057875997259" fill="red" stroke="none" /><path d="M 110.02825361518725 118.45085714620011 l 9.75213338222943 17.9428270176277 a41.42178118796948,41.42178118796948 0 0,0 -0.6276606687644771,0.33419395298932286 l -9.442683897678398 -18.10759143833959" fill="red" stroke="none" /><path d="M 109.71004243097381 118.62028667847754 l 9.437910385332161 18.098437599004487 a41.411457467966855,41.411457467966855 0 0,0 -0.6331472239109494,0.3232894838815099 l -9.12583593970763 -18.257785034558832" fill="red" stroke="none" /><path d="M 109.3889696526874 118.78422872680471 l 9.088753751871412 18.183595818513545 a41.328516956561785,41.328516956561785 0 0,0 -0.6373246014086337,0.3117473992920125 l -8.77526890120071 -18.336936967902783" fill="red" stroke="none" /><path d="M 109.06512990194946 118.94263497670748 l 9.009604708665615 18.82660867815871 a41.871372051854436,41.871372051854436 0 0,0 -0.651022644791222,0.3047114698226969 l -8.685093350002887 -18.978496379551938" fill="red" stroke="none" /><path d="M 108.73861861582097 119.09545874513695 l 18.315089917554037 40.02177681732712 a65.013465420301,65.013465420301 0 0,0 -1.0188123858919154,0.4557018214390696 l -17.625364128806492 -40.33028238967604" fill="red" stroke="none" /><path d="M 108.4095320186766 119.2426549942271 l 8.44319182861123 19.319675226542643 a42.084054143210054,42.084054143210054 0 0,0 -0.6644569642150927,0.2836171669700199 l -8.110299789225706 -19.461767043172067" fill="red" stroke="none" /><path d="M 108.07796709384702 119.3841803445677 l 11.837909066587864 28.406672320331406 a51.77458567362826,51.77458567362826 0 0,0 -0.8233281861629271,0.3348404057050465 l -11.348526419234497 -28.605699982615743" fill="red" stroke="none" /><path d="M 107.74402155503746 119.51999308798841 l 5.914147223792693 14.907514410866156 a37.037802944757644,37.037802944757644 0 0,0 -0.5930065088726837,0.2293876568626852 l -5.657368452426479 -15.006841955866882" fill="red" stroke="none" /><path d="M 107.407793817531 119.65005319985036 l 7.219217236395515 19.1498314141429 a41.46541327939322,41.46541327939322 0 0,0 -0.6682069373757946,0.24537484303488877 l -6.889421147365593 -19.27093710618651" fill="red" stroke="none" /><path d="M 107.06938296918513 119.77432235084164 l 6.907306978477961 19.320966959070464 a41.51854414739074,41.51854414739074 0 0,0 -0.673182125489547,0.23416768791843498 l -6.574619080943392 -19.43669307955749" fill="red" stroke="none" /><path d="M 106.72888874123015 119.89276391827305 l 6.560717424128996 19.395595301348266 a41.47515885684291,41.47515885684291 0 0,0 -0.6763951838531852,0.2223445318480122 l -6.226799502628077 -19.505360754598296" fill="red" stroke="none" /><path d="M 106.38641147887787 120.00534299687104 l 8.503560869160951 26.637283307687195 a48.9616775152979,48.9616775152979 0 0,0 -0.8028767753672194,0.24873327733536565 l -8.045043460922107 -26.779333172829205" fill="red" stroke="none" /><path d="M 106.0420521117495 120.11202640906438 l 8.51023843738062 28.327815952993213 a50.57852793713249,50.57852793713249 0 0,0 -0.8336786206626474,0.24267169631249244 l -8.022699804336366 -28.469731343608224" fill="red" stroke="none" /><path d="M 105.69591212413111 120.21278271476187 l 3.9063440218925574 13.862236846862874 a35.402122552453804,35.402122552453804 0 0,0 -0.5863579366729865,0.15981446305814975 l -3.6678046842848757 -13.927251804065166" fill="red" stroke="none" /><path d="M 105.3480935250658 120.30758222061773 l 6.454183975527849 24.50758782278634 a46.34321115568321,46.34321115568321 0 0,0 -0.7710510796539728,0.19599816927624442 l -6.032527602648479 -24.614771223897854" fill="red" stroke="none" /><path d="M 104.9986988182912 120.39639698878246 l 4.846416161517982 19.775031782563676 a41.36024635440412,41.36024635440412 0 0,0 -0.691046693293228,0.1630851379946104 l -4.506237314484875 -19.85531306420451" fill="red" stroke="none" /><path d="M 104.64783097203109 120.47920084513623 l 5.582441139168614 24.59726568869309 a46.22278986219487,46.22278986219487 0 0,0 -0.7753049427705252,0.1689741037482013 l -5.159373779778953 -24.689471250575007" fill="red" stroke="none" /><path d="M 104.29559338865022 120.5559693870025 l 4.218533978928317 20.18721221566289 a41.623277284941445,41.623277284941445 0 0,0 -0.7006654668545818,0.1401527166517725 l -3.871372026542777 -20.256654328977522" fill="red" stroke="none" /><path d="M 103.94208987418118 120.62667999033965 l 0.7838785678970772 4.101583902791466 a25.175818018166794,25.175818018166794 0 0,0 -0.4251899145468201,0.07748376625170467 l -0.7133539197992 -4.114435842974535" fill="red" stroke="none" /><path d="M 103.58742460773223 120.69131181640829 l 0.7432158033952584 4.286671252069842 a25.35062296156981,25.35062296156981 0 0,0 -0.429418423764273,0.07066063821753392 l -0.6695198765779131 -4.298797888783046" fill="red" stroke="none" /><path d="M 103.2317021107853 120.74984581791261 l 3.1121808135088505 19.982433350604275 a41.223335828376946,41.223335828376946 0 0,0 -0.7001585215754886,0.10289919138872598 l -2.768697186325676 -20.032913615291886" fill="red" stroke="none" /><path d="M 102.875027216393 120.80226474461374 l 2.8372559128950083 20.52897040825613 a41.72410787315858,41.72410787315858 0 0,0 -0.7103473298321858,0.09196868349576454 l -2.484430761172047 -20.574650687952285" fill="red" stroke="none" /><path d="M 102.51750503828377 120.84855314841334 l 2.4593264056555135 20.36675061137492 a41.51469758089295,41.51469758089295 0 0,0 -0.7082488428159092,0.0793607601032402 l -2.109341661238805 -20.40596713198513" fill="red" stroke="none" /><path d="M 102.15924093988457 120.88869738790638 l 2.0826416427020993 20.14766867294676 a41.255022813286516,41.255022813286516 0 0,0 -0.7050688428690327,0.06677075247700982 l -1.7364732364480513 -20.180451180928955" fill="red" stroke="none" /><path d="M 101.80034050326958 120.92268563240118 l 1.7701382902761267 20.571690136428483 a41.64770749104923,41.64770749104923 0 0,0 -0.712832255657846,0.055177724854181966 l -1.4167370398430448 -20.599045628277718" fill="red" stroke="none" /><path d="M 101.44090949804482 120.95050786540614 l 0.8673107387287591 12.610507792574017 a33.64029804648942,33.64029804648942 0 0,0 -0.5764595832369722,0.03467837705211343 l -0.6507068033593217 -12.623538147450823" fill="red" stroke="none" /><path d="M 101.08105385017728 120.97215588758144 l 1.7586944366896962 34.118202232784256 a55.16349996295473,55.16349996295473 0 0,0 -0.9461176972263518,0.04063036481279432 l -1.172750978862515 -34.14336516602288" fill="red" stroke="none" /><path d="M 100.72087961077811 120.9876233191556 l 0.914516449927054 26.625148614653043 a47.64084981920712,47.64084981920712 0 0,0 -0.8175775229141646,0.021057896843139676 l -0.45732561294214563 -26.636924228846226" fill="red" stroke="none" /><line stroke="#e1ed5e" stroke-width="0.3" x1="101.45913802915013" x2="101.54496967792366" y1="184.9874750549273" y2="189.98673829345242" /><path d="M 101.47630435890484 185.9873277026323 a86.0,86.0 0 0,1 -42.54439059252881,-10.42667462771756" fill="none" id="id139" stroke="none" /><text fill="#e1ed5e" style="font-size:6.75px; font-family:Arial;" text-anchor="middle"><textPath startOffset="22.145653131862474" xlink:href="#id139">July</textPath></text><path d="M 100.0 121.0 l 2.498933069629764e-15 20.40533704386945 a41.40533704386945,41.40533704386945 0 0,0 -0.7107776692998583,-0.0061011714375485025 l 0.35028474445100366 -20.402330270626337" fill="red" stroke="none" /><path d="M 98.55909050195518 120.95050786540614 l -0.3817810343881394 5.551012450584043 a26.564125805978648,26.564125805978648 0 0,0 -0.4546652591123808,-0.035193966559364104 l 0.4770152882757563 -5.543640717029625" fill="red" stroke="none" /><path d="M 98.19965949673042 120.92268563240118 l -0.5209954814162102 6.054757227189157 a27.077131014866755,27.077131014866755 0 0,0 -0.46276162588175346,-0.0438240071024507 l 0.6248566706829789 -6.044921464581522" fill="red" stroke="none" /><path d="M 96.76829788921471 120.74984581791261 l -3.1250243766625094 20.064898239401398 a41.30679489019053,41.30679489019053 0 0,0 -0.6997026771054063,-0.11513580924959671 l 3.4690045568209795 -20.008296431656134" fill="red" stroke="none" /><path d="M 95.70440661134978 120.55596938700252 l -1.1619947793442684 5.560565666007579 a26.680679747460303,26.680679747460303 0 0,0 -0.44752086462876983,-0.09753508953398801 l 1.2572780605921745 -5.539799118339873" fill="red" stroke="none" /><path d="M 94.30408787586889 120.21278271476187 l -5.783140913545111 20.522326915668202 a42.32159986632051,42.32159986632051 0 0,0 -0.697580859700894,-0.2030556216065519 l 6.134581785627613 -20.420027599759134" fill="red" stroke="none" /><path d="M 93.95794788825049 120.11202640906438 l -5.880907511532214 19.575628444381838 a41.439919328404585,41.439919328404585 0 0,0 -0.6795344949419028,-0.2105215235700666 l 6.216082639345751 -19.47179033300512" fill="red" stroke="none" /><path d="M 91.59046798132341 119.24265499422711 l -7.208395588322601 16.494219780594776 a39.00056257810607,39.00056257810607 0 0,0 -0.6111696393116565,-0.2733684059001281 l 7.490478630489892 -16.36804762378479" fill="red" stroke="none" /><path d="M 90.93487009805054 118.94263497670748 l -5.474146591946194 11.438860978475818 a33.68123895347031,33.68123895347031 0 0,0 -0.5193963822493574,-0.2540627978427918 l 5.669703223457621 -11.343204430535804" fill="red" stroke="none" /><line stroke="#e1ed5e" stroke-width="0.3" x1="58.13341422392154" x2="55.67067388415222" y1="173.97424548756322" y2="178.32567169271397" /><path d="M 57.64086615596768 174.84453072859336 a86.0,86.0 0 0,1 -31.369924170532247,-30.572349798747897" fill="none" id="id140" stroke="none" /><text fill="#e1ed5e" style="font-size:6.75px; font-family:Arial;" text-anchor="middle"><textPath startOffset="22.145653131862474" xlink:href="#id140">August</textPath></text><path d="M 89.65649057296885 118.27599006163327 l -8.00846295707594 14.15018668905374 a37.259251590092674,37.259251590092674 0 0,0 -0.5539342375386339,-0.3198140811562828 l 8.250189662474975 -14.010625710621285" fill="red" stroke="none" /><path d="M 89.03521579738668 117.91015095944536 l -2.676830229884117 4.372401008914052 a26.126725140123476,26.126725140123476 0 0,0 -0.3804995116714944,-0.23745983690521766 l 2.7514938703453238 -4.3258053751672865" fill="red" stroke="none" /><path d="M 88.1277618465304 117.32195027204791 l -9.473418891100456 13.822001278669154 a37.75689066723868,37.75689066723868 0 0,0 -0.5314820106310094,-0.3710157203935068 l 9.709295992905231 -13.657340742470518" fill="red" stroke="none" /><path d="M 87.83215693770417 117.11559508785305 l -10.34116604565061 14.546145102911511 a38.8474102473909,38.8474102473909 0 0,0 -0.5401991185729333,-0.391062502878691 l 10.589346174597496 -14.366481828659756" fill="red" stroke="none" /><path d="M 82.78059297857968 112.02048342749411 l -3.790577681407631 2.646117612720855 a25.62281489778005,25.62281489778005 0 0,0 -0.24867584037375062,-0.36282548287282895 l 3.835443258596707 -2.580657394777975" fill="red" stroke="none" /><path d="M 82.576782715395 111.72311816256416 l -13.600396948782684 9.150954033571942 a37.39239936339412,37.39239936339412 0 0,0 -0.35375980588678996,-0.535637434556697 l 13.755481193590201 -8.916136720676183" fill="red" stroke="none" /><path d="M 82.37810715431573 111.42229804090323 l -21.92301029307021 14.21023040567203 a47.125639293467025,47.125639293467025 0 0,0 -0.4341894035288412,-0.6826178592903867 l 22.163717388224942 -13.83179887170297" fill="red" stroke="none" /><path d="M 82.18462484594161 111.11811171558189 l -26.399826824431198 16.47544446119497 a52.11898337918315,52.11898337918315 0 0,0 -0.4671648729513608,-0.7630787111628539 l 26.678759661837965 -16.01982863390756" fill="red" stroke="none" /><path d="M 81.99639281039703 110.81064883170644 l -4.331009510547466 2.6006467710731034 a26.051832044748277,26.051832044748277 0 0,0 -0.22693166572705567,-0.38537958040540377 l 4.3750148864042915 -2.525916022374141" fill="red" stroke="none" /><line stroke="#e1ed5e" stroke-width="0.3" x1="26.387840678322732" x2="22.057713659400548" y1="142.50000000000003" y2="145.00000000000006" /><path d="M 25.521815274538298 143.00000000000003 a86.0,86.0 0 0,1 -11.493303480769221,-40.785679425670985" fill="none" id="id141" stroke="none" /><text fill="#e1ed5e" style="font-size:6.75px; font-family:Arial;" text-anchor="middle"><textPath startOffset="21.40746469413373" xlink:href="#id141">September</textPath></text><path d="M 81.63589988554817 110.18625677009913 l -14.32579722721726 7.946278232167278 a37.3820573780695,37.3820573780695 0 0,0 -0.3064521437419639,-0.5638374280609127 l 14.460094720574553 -7.6991859706317785" fill="red" stroke="none" /><path d="M 81.1358732173502 109.22738970284198 l -18.229048558050017 8.91674111901454 a41.293015633839886,41.293015633839886 0 0,0 -0.3060023682862437,-0.6394272588645195 l 18.379430184296172 -8.602501358084917" fill="red" stroke="none" /><path d="M 80.9802524753101 108.90220220490708 l -3.7529686546246976 1.7565788288607604 a25.14371124773401,25.14371124773401 0 0,0 -0.17961653801708397,-0.39249455119141247 l 3.7825696574968375 -1.691895295454659" fill="red" stroke="none" /><path d="M 80.68587082218212 108.24405325689762 l -3.94738519859439 1.684904015246842 a25.29194028927209,25.29194028927209 0 0,0 -0.16701611712611633,-0.40077788102009654 l 3.9757271602569917 -1.616893624785464" fill="red" stroke="none" /><path d="M 80.5471966667186 107.91128576633889 l -22.015236255364023 8.95340492810451 a44.76623838949068,44.76623838949068 0 0,0 -0.2833944308705352,-0.7143390927377795 l 22.16568936120068 -8.574164818153166" fill="red" stroke="none" /><path d="M 80.41425534168474 107.57618678355246 l -3.9519848653967817 1.5287126442397894 a25.237351380872706,25.237351380872706 0 0,0 -0.15282936749716106,-0.40539805450735533 l 3.9776449167083787 -1.4606463095382891" fill="red" stroke="none" /><path d="M 80.28708602549918 107.23885506374661 l -15.398686534216532 5.654610989397505 a37.40409011254439,37.40409011254439 0 0,0 -0.21615971503425768,-0.6046371943612774 l 15.493486419294733 -5.389438838655306" fill="red" stroke="none" /><line stroke="#e1ed5e" stroke-width="0.3" x1="15.003131293944662" x2="10.003315487706104" y1="100.72959589197737" y2="100.7725132973878" /><path d="M 14.003168132696942 100.73817937305945 a86.0,86.0 0 0,1 10.791469493833604,-42.45332614584628" fill="none" id="id142" stroke="none" /><text fill="#e1ed5e" style="font-size:6.75px; font-family:Arial;" text-anchor="middle"><textPath startOffset="22.145653131862435" xlink:href="#id142">October</textPath></text><line stroke="#e1ed5e" stroke-width="0.3" x1="26.387840678322718" x2="22.05771365940052" y1="57.49999999999999" y2="54.99999999999999" /><path d="M 25.521815274538284 56.99999999999999 a86.0,86.0 0 0,1 29.574782752854787,-30.34633250058573" fill="none" id="id143" stroke="none" /><text fill="#e1ed5e" style="font-size:6.75px; font-family:Arial;" text-anchor="middle"><textPath startOffset="21.40746469413373" xlink:href="#id143">November</textPath></text><line stroke="#e1ed5e" stroke-width="0.3" x1="56.869717070023135" x2="54.33264160355391" y1="26.7553504044142" y2="22.446841604673864" /><path d="M 56.362301976729285 25.89364864446614 a86.0,86.0 0 0,1 42.16139366436587,-11.88097634709845" fill="none" id="id144" stroke="none" /><text fill="#e1ed5e" style="font-size:6.75px; font-family:Arial;" text-anchor="middle"><textPath startOffset="22.145653131862474" xlink:href="#id144">December</textPath></text></svg>