<?xml version="1.0" encoding="utf-8" ?>
<svg baseProfile="full" height="200mm" version="1.1" viewBox="0,0,200,200" width="200mm" xmlns="http://www.w3.org/2000/svg" xmlns:ev="http://www.w3.org/2001/xml-events" xmlns:xlink="http://www.w3.org/1999/xlink"><defs /><rect fill="#1a1a1a" height="200" width="200" x="0" y="0" /><rect fill="#1a1a1a" height="200" width="180" x="10" y="0" /><text alignment-baseline="middle" fill="#e1ed5e" style="dominant-baseline: central; font-size:9.0px; font-family:Arial;" text-anchor="middle" x="100.0" y="100.0">2025</text><line stroke="#e1ed5e" stroke-width="0.3" x1="100.0" x2="100.0" y1="15.0" y2="10.0" /><path d="M 100.0 14.0 a86.0,86.0 0 0,1 42.46469731375804,11.215312516191453" fill="none" id="id145" stroke="none" /><text fill="#e1ed5e" style="font-size:6.75px; font-family:Arial;" text-anchor="middle"><textPath startOffset="22.20632615414155" xlink:href="#id145">January</textPath></text><line stroke="#e1ed5e" stroke-width="0.3" x1="143.23703022742887" x2="145.7803849466894" y1="26.81831364943548" y2="22.513508569990506" /><path d="M 143.74570117128098 25.957352633546492 a86.0,86.0 0 0,1 28.547481713284135,27.462654790039103" fill="none" id="id146" stroke="none" /><text fill="#e1ed5e" style="font-size:6.75px; font-family:Arial;" text-anchor="middle"><textPath startOffset="19.985693538727396" xlink:href="#id146">February</textPath></text><line stroke="#e1ed5e" stroke-width="0.3" x1="172.23445277983987" x2="176.4835382374775" y1="55.19839476539836" y2="52.563006222186495" /><path d="M 173.08426987136738 54.67131705675599 a86.0,86.0 0 0,1 12.851231095245387,41.99856678651699" fill="none" id="id147" stroke="none" /><text fill="#e1ed5e" style="font-size:6.75px; font-family:Arial;" text-anchor="middle"><textPath startOffset="22.20632615414155" xlink:href="#id147">March</textPath></text><line stroke="#e1ed5e" stroke-width="0.3" x1="184.98032266829074" x2="189.97916517819016" y1="98.17113171792111" y2="98.06355123074" /><path d="M 185.9800911702706 98.14961562048488 a86.0,86.0 0 0,1 -9.607161424134198,41.387399972396054" fill="none" id="id148" stroke="none" /><text fill="#e1ed5e" style="font-size:6.75px; font-family:Arial;" text-anchor="middle"><textPath startOffset="21.466115282336823" xlink:href="#id148">April</textPath></text><line stroke="#e1ed5e" stroke-width="0.3" x1="174.80103733775053" x2="179.2010983576182" y1="140.37084112569926" y2="142.7455964860345" /><path d="M 175.68104954172406 140.8457921977663 a86.0,86.0 0 0,1 -30.038265399797805,32.042727171017184" fill="none" id="id149" stroke="none" /><text fill="#e1ed5e" style="font-size:6.75px; font-family:Arial;" text-anchor="middle"><textPath startOffset="22.206326154141568" xlink:href="#id149">May</textPath></text><path d="M 117.35343817320211 111.8261652097733 l 16.12459710023762 10.988724386785563 a40.51293661378848,40.51293661378848 0 0,0 -0.3976809524649636,0.5728890724727576 l -15.93305524061052 -11.26465472144534" fill="red" stroke="none" /><path d="M 116.27256486870786 113.27417163493432 l 9.080614022697382 7.407414262005514 a32.71867471509347,32.71867471509347 0 0,0 -0.35975585094747914,0.433349097817122 l -8.95176217185636 -7.562624616936407" fill="red" stroke="none" /><path d="M 116.0416608686014 113.55231037782055 l 9.091306847389173 7.680514701378631 a32.9013514472718,32.9013514472718 0 0,0 -0.36921190065685233,0.4294768523920098 l -8.957752437161544 -7.835868652932169" fill="red" stroke="none" /><path d="M 115.80600337817218 113.82643327865902 l 7.791368243123181 6.81556435143968 a31.351682787284577,31.351682787284577 0 0,0 -0.3588142622169698,0.40313162736464303 l -7.6728951312578735 -6.948670148545189" fill="red" stroke="none" /><path d="M 115.56566222782051 114.09645910891815 l 8.426014667250447 7.630704654232471 a32.36773401750959,32.36773401750959 0 0,0 -0.37755203393466835,0.4097581654037655 l -8.293416225320057 -7.7746140744375705" fill="red" stroke="none" /><path d="M 115.32070863581623 114.36230785411682 l 7.488868879763331 7.020395915553917 a31.264945976935962,31.264945976935962 0 0,0 -0.3714475806064821,0.3894613032380391 l -7.366914747777884 -7.1482643353744635" fill="red" stroke="none" /><path d="M 115.07121518719521 114.62390073753431 l 8.970953040016797 8.704694687774694 a33.49998832213693,33.49998832213693 0 0,0 -0.4051255283303215,0.41039002130506896 l -8.81978688663094 -8.857825203060427" fill="red" stroke="none" /><path d="M 114.81725581225074 114.88116024355365 l 8.113322223978363 8.148313672413233 a32.49873963589652,32.49873963589652 0 0,0 -0.39981194917431095,0.3913001415277412 l -7.971860322428259 -8.286763916863546" fill="red" stroke="none" /><path d="M 114.55890576462653 115.13401014063108 l 15.28826903222048 15.892184639898042 a43.052045316254976,43.052045316254976 0 0,0 -0.5384871219411073,0.509173184466796 l -15.012446075888565 -16.15299246111076" fill="red" stroke="none" /><path d="M 114.29624159901734 115.38237550388516 l 13.86748326782557 14.92104294979176 a41.37018936811714,41.37018936811714 0 0,0 -0.5257962943329343,0.48030244836332375 l -13.608587424025771 -15.157538164741666" fill="red" stroke="none" /><path d="M 114.0293411484842 115.62618273729858 l 7.868755447083095 8.764389519782902 a32.77844794276734,32.77844794276734 0 0,0 -0.42308804641621034,0.37332600935865123 l -7.716725047760297 -8.898538670913844" fill="red" stroke="none" /><path d="M 113.75828350139079 115.86535959552629 l 7.80200240530398 8.99687622462467 a32.90861131003887,32.90861131003887 0 0,0 -0.4311569090142256,0.3674412716113044 l -7.645980019712707 -9.129841886458921" fill="red" stroke="none" /><path d="M 113.48314897796784 116.09983520530334 l 11.31299861137085 13.508521905269914 a38.61999153365392,38.61999153365392 0 0,0 -0.5133330129711399,0.4224381221416548 l -11.07879546985502 -13.701255146268748" fill="red" stroke="none" /><path d="M 112.92097659922987 116.55440617244103 l 20.42122117496869 26.163749099881077 a54.18987859632086,54.18987859632086 0 0,0 -0.7402628274147511,0.567601969635313 l -19.967829619060446 -26.51139041134376" fill="red" stroke="none" /><path d="M 112.63410532772338 116.77436683061366 l 6.966528389535163 9.249495687321826 a32.579537480917985,32.579537480917985 0 0,0 -0.4508620594650702,0.33353697300272256 l -6.8062813596515275 -9.368042609064316" fill="red" stroke="none" /><path d="M 112.34349029814194 116.9893568818739 l 5.556687032399854 7.648123569111774 a30.453600631740464,30.453600631740464 0 0,0 -0.42674583021548396,0.30447181905421045 l -5.424213874335485 -7.7426396500102035" fill="red" stroke="none" /><path d="M 112.04921762599082 117.19931262002967 l 6.743816182890763 9.626268392012342 a32.75347182170763,32.75347182170763 0 0,0 -0.46454267079971456,0.31951668490226937 l -6.577116627468165 -9.740925866279705" fill="red" stroke="none" /><path d="M 111.7513745106137 117.40417183066458 l 6.674862017713373 9.885690001398238 a32.92814527742087,32.92814527742087 0 0,0 -0.4724801569358605,0.31313408446159546 l -6.503707162037548 -9.999122106951152" fill="red" stroke="none" /><path d="M 111.45004920935366 117.60387380957326 l 5.362545464205937 8.244643487895502 a30.835193953256507,30.835193953256507 0 0,0 -0.44743070166522425,0.28557144325370126 l -5.219832960493782 -8.335729359973012" fill="red" stroke="none" /><line stroke="#e1ed5e" stroke-width="0.3" x1="143.8653032363475" x2="146.44561519142675" y1="172.8068346515853" y2="177.08958963109032" /><path d="M 144.38136562736335 173.6633856474863 a86.0,86.0 0 0,1 -40.68145358897372,12.25698825130547" fill="none" id="id150" stroke="none" /><text fill="#e1ed5e" style="font-size:6.75px; font-family:Arial;" text-anchor="middle"><textPath startOffset="21.466115282336833" xlink:href="#id150">June</textPath></text><path d="M 110.21172684928248 118.3499491758327 l 7.415633069625097 13.32551212372136 a36.249947120654625,36.249947120654625 0 0,0 -0.547852680336359,0.2987329629734892 l -7.18515757742009 -13.451185738454619" fill="red" stroke="none" /><path d="M 109.89434966115114 118.52300852407294 l 5.49366420762887 10.284575786304377 a32.65988188321052,32.65988188321052 0 0,0 -0.49815510902868654,0.26061120877935734 l -5.315818196073688 -10.37761641402845" fill="red" stroke="none" /><path d="M 109.57404056367764 118.69057910512821 l 5.383052808501717 10.50887278732566 a32.80735638486922,32.80735638486922 0 0,0 -0.5048366197633108,0.25313556138563587 l -5.201362281055646 -10.599976189620598" fill="red" stroke="none" /><path d="M 109.2508944713604 118.85261126421891 l 5.166961653554386 10.529870357202528 a32.729265214359934,32.729265214359934 0 0,0 -0.5079072818581214,0.24382636076658676 l -4.984941703696032 -10.617250994468675" fill="red" stroke="none" /><path d="M 108.59647513512805 119.15986991738527 l 5.234698103439623 11.667123226919289 a33.78764359161898,33.78764359161898 0 0,0 -0.532685249772261,0.2335135593236848 l -5.033092179009609 -11.755501339537428" fill="red" stroke="none" /><path d="M 108.2653958097858 119.30500536409082 l 4.84546724075031 11.317276658845842 a33.31094243971766,33.31094243971766 0 0,0 -0.5290547626039577,0.22114493367606602 l -4.649941018648891 -11.39900663554188" fill="red" stroke="none" /><path d="M 107.93186726928326 119.44442032107085 l 4.6307932411530475 11.35206719225526 a33.260247778074756,33.260247778074756 0 0,0 -0.5319722016324122,0.2116827176845584 l -4.434699963478769 -11.430096754345888" fill="red" stroke="none" /><path d="M 107.59598834532513 119.57807347666477 l 4.151145607228718 10.69925729423686 a32.47632852878894,32.47632852878894 0 0,0 -0.5229149426645807,0.19772168726274342 l -3.9663604438038624 -10.769127231606234" fill="red" stroke="none" /><path d="M 107.2578585660854 119.70592522655815 l 3.9791695832652754 10.803905526353207 a32.51339069061538,32.51339069061538 0 0,0 -0.5268414699818901,0.18890660701383102 l -3.7926085526536504 -10.870799674406998" fill="red" stroke="none" /><path d="M 106.91757812671514 119.82793768551818 l 3.8269934266080723 10.969357453676551 a32.61777438384094,32.61777438384094 0 0,0 -0.5317167340863593,0.18038718528429531 l -3.637606959584486 -11.03360762585897" fill="red" stroke="none" /><path d="M 106.57524785965236 119.94407469862006 l 1.9100621131242403 5.7936099560462795 a27.100348645675197,27.100348645675197 0 0,0 -0.44428912282379107,0.1422473469401073 l -1.8100516452095088 -5.825630149646093" fill="red" stroke="none" /><path d="M 105.88484417918355 120.15858648285463 l 3.2746274413215906 11.217265651402274 a32.68547104628588,32.68547104628588 0 0,0 -0.5414407920391524,0.15301657613615544 l -3.081055481177833 -11.271971020876949" fill="red" stroke="none" /><path d="M 105.53697534728816 120.25689768951611 l 3.253509866862263 11.902891447248148 a33.339536103871296,33.339536103871296 0 0,0 -0.5548803095492453,0.14654893298060984 l -3.04813911450152 -11.957131729532342" fill="red" stroke="none" /><path d="M 105.18746579009965 120.34920634021253 l 2.8663845152587255 11.244151250637806 a32.603753596855405,32.603753596855405 0 0,0 -0.5450209812008479,0.1339528968845764 l -2.6724102493146664 -11.291825405836413" fill="red" stroke="none" /><path d="M 104.83641907484287 120.43548508189849 l 2.679402571667689 11.321370301951037 a32.63411464852218,32.63411464852218 0 0,0 -0.5477556121908242,0.12466739399546603 l -2.484126810084003 -11.365814429524187" fill="red" stroke="none" /><path d="M 104.48393922423573 120.51570834832081 l 3.7384611739212827 17.10486589584917 a38.50864155963851,38.50864155963851 0 0,0 -0.6487945805978866,0.13596121247583595 l -3.443475131894018 -17.166683089051546" fill="red" stroke="none" /><path d="M 104.13013068566511 120.58985236759428 l 4.173401933418673 20.805571595583803 a42.22001633168142,42.22001633168142 0 0,0 -0.7137844338599264,0.13679848557052549 l -3.814649884987042 -20.874327279502793" fill="red" stroke="none" /><path d="M 103.7750983002368 120.6578951692458 l 2.122619705417076 11.615288363731018 a32.80764321049929,32.80764321049929 0 0,0 -0.5564036129998734,0.09673790014141793 l -1.9223671209451527 -11.650104842393441" fill="red" stroke="none" /><path d="M 103.41894727170886 120.7198165907248 l 1.8983669609598826 11.504656880338649 a32.66022843055776,32.66022843055776 0 0,0 -0.5554791562737484,0.08675442020412814 l -1.700051941077617 -11.535629607889883" fill="red" stroke="none" /><path d="M 103.06178313531738 120.77559828337769 l 1.6815635546986714 11.410177454245751 a32.53342124115255,32.53342124115255 0 0,0 -0.5547279989205613,0.07688024595735182 l -1.4849069645912796 -11.437432265695707" fill="red" stroke="none" /><path d="M 102.70371172650421 120.8252237178851 l 1.5775471865477444 12.150989605631631 a33.252967131350374,33.252967131350374 0 0,0 -0.5682656193150218,0.0688090526193388 l -1.368154144181342 -12.176344186976321" fill="red" stroke="none" /><path d="M 102.34483914955558 120.86867818915974 l 1.3979022578830969 12.441097448066365 a33.519386424057615,33.519386424057615 0 0,0 -0.5739275590415148,0.05948993814286215 l -1.1835421022359793 -12.463316754664985" fill="red" stroke="none" /><path d="M 101.98527174616119 120.90594882070398 l 1.1169711378660494 11.76228971554363 a32.815205621368136,32.815205621368136 0 0,0 -0.5627896556674018,0.04855985958635345 l -0.9143371644571059 -11.779773827408647" fill="red" stroke="none" /><path d="M 101.62511606390274 120.93702456842531 l 0.8803675932957972 11.342130165038348 a32.37624559246144,32.37624559246144 0 0,0 -0.5560038012766009,0.03834527743961152 l -0.6850010312402659 -11.355603786994246" fill="red" stroke="none" /><path d="M 101.26447882468166 120.96189622390904 l 1.5595554283580593 25.853528273125313 a46.90052388086795,46.90052388086795 0 0,0 -0.8062689866024698,0.041674897074807656 l -1.11429837334211 -25.876542976962323" fill="red" stroke="none" /><path d="M 100.90346689309514 120.98055641714683 l 0.49627849888000597 11.524715652499749 a32.53539610153996,32.53539610153996 0 0,0 -0.5597322124614402,0.019278309141825913 l -0.2978259347439134 -11.531550760067669" fill="red" stroke="none" /><line stroke="#e1ed5e" stroke-width="0.3" x1="102.19456741930631" x2="102.32365962044197" y1="184.97166512339345" y2="189.96999836594603" /><path d="M 102.22038585953345 185.97133177190398 a86.0,86.0 0 0,1 -42.740103519485714,-10.115201625700543" fill="none" id="id151" stroke="none" /><text fill="#e1ed5e" style="font-size:6.75px; font-family:Arial;" text-anchor="middle"><textPath startOffset="22.20632615414155" xlink:href="#id151">July</textPath></text><path d="M 100.54218724476979 120.99299961872073 l 0.5732167160971053 22.19443267718362 a43.20183369151407,43.20183369151407 0 0,0 -0.7435659126983919,0.012801161510829143 l -0.1910911135060455 -22.20101131597361" fill="red" stroke="none" /><path d="M 100.18074693466247 120.99922214144158 l 0.10113556018553192 11.749953595070187 a32.75038883985704,32.75038883985704 0 0,0 -0.5637649896959667,0.0 l 0.10113556018552383 -11.749953595070187" fill="red" stroke="none" /><path d="M 99.81925306533755 120.99922214144158 l -0.10875587807873587 12.635283952272683 a33.635751991693105,33.635751991693105 0 0,0 -0.5789198395509937,-0.00996663004766005 l 0.3262354075223975 -12.631539844945864" fill="red" stroke="none" /><path d="M 99.45781275523022 120.99299961872073 l -0.3007270806439725 11.643880504748074 a32.64776330399467,32.64776330399467 0 0,0 -0.5616653545274614,-0.019344890463275432 l 0.501112786846077 -11.636978815858704" fill="red" stroke="none" /><path d="M 99.09653310690486 120.98055641714683 l -1.3910372418705554 32.30304901537138 a53.33298563847386,53.33298563847386 0 0,0 -0.9168497220295763,-0.04739065799822064 l 1.9468750323136208 -32.27431855061096" fill="red" stroke="none" /><path d="M 98.73552117531835 120.96189622390904 l -1.2431589772806138 20.608466478778602 a41.645927803073775,41.645927803073775 0 0,0 -0.7151939251285965,-0.04932396041036724 l 1.5977156631881404 -20.58401417385195" fill="red" stroke="none" /><path d="M 98.37488393609728 120.93702456842531 l -1.0557371647720484 13.601486963059916 a34.642398197068204,34.642398197068204 0 0,0 -0.5941265027492517,-0.05126373461115129 l 1.289707985262842 -13.581298976170102" fill="red" stroke="none" /><path d="M 98.01472825383883 120.90594882070398 l -1.1696613644452876 12.317145332839857 a33.37255740975869,33.37255740975869 0 0,0 -0.571413514878938,-0.05922934718609943 l 1.381507475929819 -12.295186617197997" fill="red" stroke="none" /><path d="M 97.65516085044442 120.86867818915974 l -2.100811677960537 18.696874304446997 a39.814529450999984,39.814529450999984 0 0,0 -0.6803972754322246,-0.08238663458772577 l 2.422336376444151 -18.657942141133923" fill="red" stroke="none" /><path d="M 97.2962882734958 120.8252237178851 l -2.5693738453625676 19.79049194484276 a40.95658421113492,40.95658421113492 0 0,0 -0.6983515146979177,-0.09678515654363275 l 2.9096539512473165 -19.743332222806522" fill="red" stroke="none" /><path d="M 96.93821686468263 120.77559828337769 l -1.8496412388086787 12.550661378528712 a33.68622377820894,33.68622377820894 0 0,0 -0.5729290963825825,-0.08947974197298422 l 2.0654061987997783 -12.516963329208622" fill="red" stroke="none" /><path d="M 96.58105272829116 120.7198165907248 l -2.8373748519362367 17.19531828341699 a38.42784171716093,38.42784171716093 0 0,0 -0.6517197786512444,-0.1133098373093516 l 3.1329436020595307 -17.143929867586635" fill="red" stroke="none" /><path d="M 96.22490169976321 120.6578951692458 l -2.144237840736073 11.733585991410429 a32.92789990465495,32.92789990465495 0 0,0 -0.556689088109243,-0.10669078866733009 l 2.3458945434170113 -11.694938004394631" fill="red" stroke="none" /><path d="M 95.86986931433489 120.58985236759428 l -2.280959403739619 11.371218238318678 a32.59773167584849,32.59773167584849 0 0,0 -0.549207419283283,-0.11509175455453094 l 2.4763582844522887 -11.330270503037605" fill="red" stroke="none" /><path d="M 95.51606077576429 120.51570834832081 l -2.589045483610854 11.845856820539563 a33.12548886968808,33.12548886968808 0 0,0 -0.5560032080036211,-0.12654451995058852 l 2.792568841007338 -11.799535567011286" fill="red" stroke="none" /><path d="M 95.16358092515715 120.4354850818985 l -2.6924250521470023 11.37639462913326 a32.69065898139198,32.69065898139198 0 0,0 -0.5464737359522627,-0.13430994865712645 l 2.8878520728424757 -11.328363422162104" fill="red" stroke="none" /><path d="M 94.81253420990036 120.34920634021253 l -2.926579725740278 11.48028288183229 a32.84743701979485,32.84743701979485 0 0,0 -0.5466901508364759,-0.14438583762537355 l 3.1237603193882433 -11.428205694903335" fill="red" stroke="none" /><path d="M 94.46302465271185 120.25689768951611 l -3.2325759869739277 11.826305326388816 a33.260140504273714,33.260140504273714 0 0,0 -0.5509602964713388,-0.15570688317645093 l 3.43566745154988 -11.768909649873843" fill="red" stroke="none" /><path d="M 94.11515582081647 120.15858648285463 l -3.3985649493727608 11.641814696108808 a33.12774064422719,33.12774064422719 0 0,0 -0.5460161941533354,-0.1645102002592612 l 3.5984561179663417 -11.581589126743822" fill="red" stroke="none" /><path d="M 93.76903079525671 120.05430185196036 l -3.5158176533269954 11.315618190280448 a32.849227350323375,32.849227350323375 0 0,0 -0.5385375146176773,-0.17242270572639312 l 3.710076513035613 -11.25342263789435" fill="red" stroke="none" /><path d="M 93.42475214034765 119.94407469862007 l -3.810248462995621 11.557264697593443 a33.16915611864685,33.16915611864685 0 0,0 -0.5407050510639633,-0.1834365104156901 l 4.00862324699681 -11.489965200279629" fill="red" stroke="none" /><path d="M 93.08242187328487 119.8279376855182 l -4.329760869762262 12.410445844810129 a34.144047902236565,34.144047902236565 0 0,0 -0.5532643629548913,-0.19838091635244542 l 4.54274479334688 -12.334077387417725" fill="red" stroke="none" /><path d="M 92.7421414339146 119.70592522655815 l -10.527634910371754 28.58374608258355 a51.460821343484625,51.460821343484625 0 0,0 -0.8285921981127131,-0.31330266951021085 l 11.01809732924475 -28.398295162966704" fill="red" stroke="none" /><path d="M 92.40401165467489 119.57807347666478 l -4.418269685589962 11.387748981663101 a33.21482434928854,33.21482434928854 0 0,0 -0.5312456886617964,-0.21139362318003 l 4.613636450293616 -11.310008514077005" fill="red" stroke="none" /><path d="M 92.06813273071674 119.44442032107085 l -5.438082445509005 13.331080465831965 a35.39758476518335,35.39758476518335 0 0,0 -0.5621954659069747,-0.23499775034451856 l 5.666749370913442 -13.235497672467472" fill="red" stroke="none" /><path d="M 91.7346041902142 119.30500536409082 l -5.193390514450609 12.129900859749108 a34.19491568381275,34.19491568381275 0 0,0 -0.5391061721300989,-0.23632830299184313 l 5.401417361238452 -12.038708003462814" fill="red" stroke="none" /><path d="M 91.40352486487194 119.15986991738527 l -5.543420962719873 12.355206392560255 a34.541810845403354,34.541810845403354 0 0,0 -0.5403852546125263,-0.24806436616959635 l 5.755274213099819 -12.257954956056585" fill="red" stroke="none" /><path d="M 91.07499286063937 119.00905698771935 l -4.999540896379048 10.648345298523873 a32.76361622848867,32.76361622848867 0 0,0 -0.5084403561602926,-0.24408226882650427 l 5.182093920539582 -10.560708753197806" fill="red" stroke="none" /><path d="M 90.7491055286396 118.85261126421891 l -5.411519176617862 11.028259775472263 a33.28442320478265,33.28442320478265 0 0,0 -0.5121776806504172,-0.2568165217123552 l 5.6005507649510395 -10.933475412850605" fill="red" stroke="none" /><path d="M 90.42595943632237 118.69057910512821 l -22.503587128850512 43.931825082988844 a70.36007180695844,70.36007180695844 0 0,0 -1.0731890999360867,-0.5614418150373085 l 23.256467131313094 -43.53795384900682" fill="red" stroke="none" /><path d="M 90.10565033884886 118.52300852407294 l -5.517873915576361 10.329898282682027 a32.71126513570396,32.71126513570396 0 0,0 -0.4943718737613855,-0.2695709630713535 l 5.694868601206387 -10.233386667850908" fill="red" stroke="none" /><line stroke="#e1ed5e" stroke-width="0.3" x1="58.666819895761336" x2="56.23545636021788" y1="174.27360380694188" y2="178.64263932499728" /><path d="M 58.180547188652646 175.14741091055294 a86.0,86.0 0 0,1 -31.652253787137756,-30.449443065178592" fill="none" id="id152" stroke="none" /><text fill="#e1ed5e" style="font-size:6.75px; font-family:Arial;" text-anchor="middle"><textPath startOffset="22.20632615414155" xlink:href="#id152">August</textPath></text><path d="M 89.7882731507175 118.34994917583269 l -5.890937806406164 10.585712969118418 a33.114473463733674,33.114473463733674 0 0,0 -0.495694074575221,-0.28146803236448054 l 6.072280647902593 -10.482741770959304" fill="red" stroke="none" /><path d="M 89.4739219176387 118.17145234162733 l -5.841822753191219 10.084896094940904 a32.65469958108989,32.65469958108989 0 0,0 -0.48396150816910505,-0.28593298953759566 l 6.014552132388706 -9.982844533109558" fill="red" stroke="none" /><path d="M 89.1626897886671 117.98757091392108 l -13.049346599984206 21.659068788313416 a46.28637394850064,46.28637394850064 0 0,0 -0.6789126636118814,-0.417043608559563 l 13.420238463528396 -21.431236712925475" fill="red" stroke="none" /><path d="M 88.8546689885994 117.79835938074946 l -10.961246469069227 17.50438849397157 a41.65314844529925,41.65314844529925 0 0,0 -0.60440344444398,-0.38575887460337605 l 11.26093171556013 -17.31311519054439" fill="red" stroke="none" /><path d="M 88.54995079064634 117.60387380957326 l -6.520787342528989 10.025382023962722 a32.959471238013876,32.959471238013876 0 0,0 -0.47292964762695694,-0.3134319823816735 l 6.692391688895908 -9.91165202048973" fill="red" stroke="none" /><path d="M 88.24862548938628 117.40417183066458 l -10.831676834254456 16.04206934834113 a40.35647726262996,40.35647726262996 0 0,0 -0.5723761387403429,-0.39368552742988655 l 11.106209857617689 -15.853243031546143" fill="red" stroke="none" /><path d="M 87.95078237400918 117.19931262002967 l -7.715170089918603 11.01279986901231 a34.44639767637757,34.44639767637757 0 0,0 -0.4826968328670248,-0.34439137385482965 l 7.903594250634514 -10.878364233313262" fill="red" stroke="none" /><path d="M 87.65650970185807 116.9893568818739 l -6.86776316047268 9.452665048152566 a32.68413656805289,32.68413656805289 0 0,0 -0.45230958645563696,-0.3346078188648646 l 7.02945771734688 -9.333047280547934" fill="red" stroke="none" /><path d="M 87.36589467227662 116.77436683061367 l -7.766014636093272 10.310977701910415 a33.908417583007946,33.908417583007946 0 0,0 -0.46320718413387146,-0.35516751662623414 l 7.94235054872063 -10.175770843456814" fill="red" stroke="none" /><path d="M 86.79598089348748 116.32954008644616 l -13.579723834089425 16.794177812288922 a42.59753013195986,42.59753013195986 0 0,0 -0.5662020528594143,-0.4659457426637858 l 13.866796015493527 -16.557936950767957" fill="red" stroke="none" /><path d="M 86.51685102203217 116.09983520530335 l -6.110452248814506 7.296312930795494 a30.51702732312647,30.51702732312647 0 0,0 -0.3998232270873021,-0.3407380281034728 l 6.235140952478865 -7.19005051246907" fill="red" stroke="none" /><path d="M 86.24171649860922 115.8653595955263 l -7.8953919579043 9.104568353102746 a33.051156752165326,33.051156752165326 0 0,0 -0.4266080372836895,-0.3764319920368812 l 8.050942348094576 -8.967313219293576" fill="red" stroke="none" /><path d="M 85.44109423537348 115.13401014063109 l -8.968469236906726 9.322740772665908 a33.93626437452751,33.93626437452751 0 0,0 -0.41749692939746763,-0.40860861687103556 l 9.127616118679988 -9.166982052872303" fill="red" stroke="none" /><path d="M 85.18274418774928 114.88116024355367 l -18.208861920951062 18.287393801649912 a46.80680965390502,46.80680965390502 0 0,0 -0.5660489582309691,-0.5734046061859362 l 18.520951504237566 -17.97124870148331" fill="red" stroke="none" /><path d="M 84.9287848128048 114.62390073753433 l -4.596425237298456 4.460003097484785 a27.40458840142347,27.40458840142347 0 0,0 -0.32558406039577925,-0.3413735856570542 l 4.672515849073194 -4.38022239524523" fill="red" stroke="none" /><path d="M 84.67929136418377 114.36230785411682 l -8.607000765714904 8.068582050364855 a32.797562395871736,32.797562395871736 0 0,0 -0.38256574846918984,-0.41519956231033917 l 8.744612922179822 -7.919231233253171" fill="red" stroke="none" /><path d="M 84.43433777217949 114.09645910891817 l -8.997283241108093 8.14805264583938 a33.138445849452665,33.138445849452665 0 0,0 -0.3792634379201763,-0.4261064930474224 l 9.136205528676607 -7.991971983051093" fill="red" stroke="none" /><path d="M 84.19399662182784 113.82643327865904 l -8.783239756967337 7.6832122304796 a32.66949231144881,32.66949231144881 0 0,0 -0.36661002722441743,-0.42645028577783006 l 8.914192293762532 -7.53088484554024" fill="red" stroke="none" /><path d="M 83.95833913139862 113.55231037782056 l -8.807186097021948 7.440483907479205 a32.529411421448785,32.529411421448785 0 0,0 -0.3576748199200671,-0.4308423618852869 l 8.93395691683555 -7.287780288480157" fill="red" stroke="none" /><path d="M 83.50135304334701 112.99209946851258 l -23.97516135796155 18.879589456920282 a51.51634414870412,51.51634414870412 0 0,0 -0.5426221013114858,-0.7014122121404515 l 24.296590276491106 -18.464099250666578" fill="red" stroke="none" /><path d="M 83.28015986056508 112.70617746262583 l -9.30155975054903 7.068684143154017 a32.68269272508315,32.68269272508315 0 0,0 -0.3365363845650352,-0.4508454831148298 l 9.42185740180915 -6.907525780529879" fill="red" stroke="none" /><path d="M 83.06392112726016 112.41649034213515 l -10.149220216224084 7.440783415208704 a33.58459092817309,33.58459092817309 0 0,0 -0.3377973461347148,-0.46917096919031204 l 10.275797354734404 -7.264978840567253" fill="red" stroke="none" /><path d="M 82.85270091963577 112.12312394758628 l -29.138954076606385 20.601212489391084 a56.68597204381042,56.68597204381042 0 0,0 -0.5564378501782724,-0.8015902242777254 l 29.489252833946793 -20.096581002926346" fill="red" stroke="none" /><path d="M 82.44556493220864 111.52570212397912 l -28.90306990642134 18.976866696278723 a55.576132224756016,55.576132224756016 0 0,0 -0.518168400091499,-0.8042088639529952 l 29.225443169889882 -18.476536232404282" fill="red" stroke="none" /><line stroke="#e1ed5e" stroke-width="0.3" x1="26.63291911575756" x2="22.317208475507996" y1="142.92168965132927" y2="145.44649492493687" /><path d="M 25.769776987707644 143.4266507060508 a86.0,86.0 0 0,1 -11.730757126820373,-40.83630448921669" fill="none" id="id153" stroke="none" /><text fill="#e1ed5e" style="font-size:6.75px; font-family:Arial;" text-anchor="middle"><textPath startOffset="21.46611528233685" xlink:href="#id153">September</textPath></text><path d="M 81.87401531095188 110.60418214915194 l -23.86830645481292 13.96359279678431 a48.65281137272069,48.65281137272069 0 0,0 -0.41667195271232077,-0.7265026709373558 l 24.10513040367762 -13.550670279988648" fill="red" stroke="none" /><path d="M 81.18737489456691 109.33194174019688 l -15.345991329340102 7.612329285699202 a38.1302950072115,38.1302950072115 0 0,0 -0.286606804343256,-0.5904949070784258 l 15.474751390298076 -7.3470454226554915" fill="red" stroke="none" /><path d="M 81.02952815118164 109.00673069616217 l -15.826317380846396 7.513960627719062 a38.519472770440125,38.519472770440125 0 0,0 -0.2792210238861005,-0.6014172447822361 l 15.953313021572322 -7.240423315657998" fill="red" stroke="none" /><path d="M 80.87730276802145 108.67885076344099 l -40.68114647975372 18.463169442072232 a65.67487330428423,65.67487330428423 0 0,0 -0.4583446758041201,-1.0334462444777222 l 40.99293224028912 -17.760174861101813" fill="red" stroke="none" /><path d="M 80.73074385275274 108.34839909993369 l -16.573974499912538 7.1806691830789875 a39.06263105531892,39.06263105531892 0 0,0 -0.26199682172326677,-0.6192830939438041 l 16.69512230282811 -6.894311563469025" fill="red" stroke="none" /><path d="M 80.58989483394504 108.01547362559985 l -16.056169091801973 6.630453507721391 a38.37134075489258,38.37134075489258 0 0,0 -0.24685084873452093,-0.6126635624683147 l 16.16792255479388 -6.353090577410271" fill="red" stroke="none" /><path d="M 80.45479744820244 107.68017299344265 l -16.077461250431817 6.317544337105423 a38.274146193384766,38.274146193384766 0 0,0 -0.23566981173709375,-0.6152595121175761 l 16.183825341762418 -6.039861258154689" fill="red" stroke="none" /><path d="M 80.20201598880116 107.00284435728193 l -16.442162164409194 5.8158397576953655 a38.440432584311644,38.440432584311644 0 0,0 -0.21528320640113036,-0.6257137696368268 l 16.539836201753552 -5.531953284969242" fill="red" stroke="none" /><path d="M 79.97269907076064 106.31721596034903 l -11.725118690721784 3.6984567811568585 a33.29459193603425,33.29459193603425 0 0,0 -0.1676988784364623,-0.5480496377225302 l 11.787044341664377 -3.496080170882281" fill="red" stroke="none" /><path d="M 79.86692584326677 105.97154293290107 l -17.530175288951643 5.199513673089351 a39.28502086676452,39.28502086676452 0 0,0 -0.1867111591707688,-0.6499660392763471 l 17.617079085008516 -4.896990158308408" fill="red" stroke="none" /><path d="M 79.67330655649465 105.27499134158121 l -16.84008539412516 4.370179778250223 a38.397900660012255,38.397900660012255 0 0,0 -0.1605191063224467,-0.64119403747861 l 16.912815814742668 -4.079657901374221" fill="red" stroke="none" /><path d="M 79.58551787078972 104.9243191809786 l -14.24187722715557 3.4353822330117314 a35.65035556019939,35.65035556019939 0 0,0 -0.13876380418405637,-0.5977908366387491 l 14.29890159727018 -3.189722739024408" fill="red" stroke="none" /><path d="M 79.50377843672027 104.57218783832718 l -30.423010290732513 6.78660294665216 a52.17078014271578,52.17078014271578 0 0,0 -0.1879786776187832,-0.8781738005108403 l 30.53532300707574 -6.2619153267251555" fill="red" stroke="none" /><path d="M 79.4281124754447 104.21870165774334 l -45.40583834493824 9.311429749378721 a67.3507592147559,67.3507592147559 0 0,0 -0.22312365870049133,-1.1377027287136239 l 45.5593919366144 -8.528463293597142" fill="red" stroke="none" /><path d="M 79.35854240842038 103.8639653848113 l -61.92437277473888 11.591896154433886 a84.0,84.0 0 0,0 -0.25381423064324515,-1.4235249970671453 l 62.11473344772131 -10.524252406633527" fill="red" stroke="none" /><path d="M 79.29508885075956 103.50808413554451 l -17.81312284992449 3.0181213154647106 a39.06699759067246,39.06699759067246 0 0,0 -0.10663103639376315,-0.6639915654112466 l 17.862435640679543 -2.71105052036025" fill="red" stroke="none" /><path d="M 79.18660465613746 102.79330883721812 l -17.247125011531633 2.3146894543337133 a38.401755900868274,38.401755900868274 0 0,0 -0.08228671703857221,-0.6559060974204852 l 17.284413237817056 -2.0174656026258195" fill="red" stroke="none" /><path d="M 79.1416061653843 102.43462659150553 l -17.186910502524263 2.006084920394458 a38.303591226378785,38.303591226378785 0 0,0 -0.0708027264596441,-0.6555453129420155 l 17.21889553048496 -1.7099432855676602" fill="red" stroke="none" /><path d="M 79.10278846688536 102.07522291339032 l -12.089660656145222 1.2005784010459586 a33.149126852486305,33.149126852486305 0 0,0 -0.051500173648800406,-0.5683001247742647 l 12.108535426071096 -0.9922968877231276" fill="red" stroke="none" /><path d="M 79.04373962182676 101.35467743843564 l -13.499861261173159 0.8726727547043757 a34.528037988109254,34.528037988109254 0 0,0 -0.03323512592541041,-0.593435499493004 l 13.512882737986102 -0.6401655388759341" fill="red" stroke="none" /><path d="M 79.0235259727143 100.99374915477108 l -34.723734065887655 1.6450181919795528 a55.76267815244434,55.76267815244434 0 0,0 -0.03716945526853142,-0.9591784817189714 l 34.74690565400739 -1.0470624632465846" fill="red" stroke="none" /><path d="M 79.0095281055655 100.63252640178507 l -11.676589361061986 0.35186207774741446 a32.68188966000889,32.68188966000889 0 0,0 -0.012104651862431056,-0.562455607730976 l 11.680916075609423 -0.15081665422630955" fill="red" stroke="none" /><line stroke="#e1ed5e" stroke-width="0.3" x1="15.007084014347285" x2="10.007500721073583" y1="101.09737516637583" y2="101.16192664675087" /><path d="M 14.007167355692545 101.11028546245083 a86.0,86.0 0 0,1 10.666146001902534,-42.60595125391555" fill="none" id="id154" stroke="none" /><text fill="#e1ed5e" style="font-size:6.75px; font-family:Arial;" text-anchor="middle"><textPath startOffset="22.20632615414155" xlink:href="#id154">October</textPath></text><path d="M 79.00486145842228 99.54816195383935 l -7.296592126155708 -0.1570305393976989 a28.2982816639111,28.2982816639111 0 0,0 0.014672397006518139,-0.48690542579747537 l 7.292808034693544 0.28260611262016866" fill="red" stroke="none" /><path d="M 79.01574976396665 99.18683210126434 l -8.998882593798916 -0.348718794689305 a30.0056367201185,30.0056367201185 0 0,0 0.024442294139888618,-0.515938198016171 l 8.99154669142553 0.5035680993284851" fill="red" stroke="none" /><path d="M 79.16333360222342 97.38593545837743 l -19.732513741171818 -2.4755430404827807 a40.88719215703457,40.88719215703457 0 0,0 0.09361998981911325,-0.6975776663972952 l 19.68697775229487 2.814839048944735" fill="red" stroke="none" /><path d="M 79.26566170972629 96.67025291283419 l -5.821716101339911 -0.934914920329824 a26.896307681325297,26.896307681325297 0 0,0 0.07734371204069339,-0.45648696664069033 l 5.804760527778995 1.0349876752863423" fill="red" stroke="none" /><path d="M 79.54389044137918 95.25157060432595 l -16.68081898455271 -3.8720799271818174 a38.12433137257915,38.12433137257915 0 0,0 0.1538901339229668,-0.6379739560683473 l 16.61169605036893 4.158639114909561" fill="red" stroke="none" /><path d="M 79.62865764111835 94.90015583598534 l -6.463392269109125 -1.618071738359571 a27.66285192502862,27.66285192502862 0 0,0 0.11961373455814896,-0.4609205127657146 l 6.434582202680669 1.7290886766741493" fill="red" stroke="none" /><path d="M 79.91906864156998 93.8553929516997 l -6.07148579187162 -1.8578268967952027 a27.349366936896516,27.349366936896516 0 0,0 0.14162350841898533,-0.44898522380180933 l 6.038606799684431 1.9620622870234266" fill="red" stroke="none" /><path d="M 80.65960295795068 91.81776055985345 l -10.691814418804254 -4.523329352239496 a32.60928094220232,32.60928094220232 0 0,0 0.22315507698783305,-0.515072684902115 l 10.612368631973741 4.70670118172821" fill="red" stroke="none" /><path d="M 80.803312248108 91.48605970444005 l -5.389202039763806 -2.390169856398101 a26.895456773467895,26.895456773467895 0 0,0 0.19133899648421113,-0.4215901158078609 l 5.347260726316243 2.4825819810480327" fill="red" stroke="none" /><path d="M 81.10775173730289 90.83032412892265 l -10.736968131580246 -5.211371152637081 a32.934859611621235,32.934859611621235 0 0,0 0.25193597244723825,-0.5078875471122073 l 10.645672146179596 5.39541828824825" fill="red" stroke="none" /><path d="M 81.26839172434947 90.50648371742162 l -8.754775974474375 -4.437078068306554 a30.814976523022395,30.814976523022395 0 0,0 0.24386468645327955,-0.4710689536570263 l 8.677101854860982 4.587119744223916" fill="red" stroke="none" /><path d="M 81.43458229118936 90.18545643968196 l -8.25403898654416 -4.36346902895463 a30.336435163274963,30.336435163274963 0 0,0 0.248024772196108,-0.4595522344447252 l 8.17770611512958 4.504902246731827" fill="red" stroke="none" /><line stroke="#e1ed5e" stroke-width="0.3" x1="26.266209847984243" x2="21.928928074336255" y1="57.711370442889674" y2="55.22380399835377" /><path d="M 25.398753493254645 57.213857153982495 a86.0,86.0 0 0,1 29.58750427330803,-30.492523968695096" fill="none" id="id155" stroke="none" /><text fill="#e1ed5e" style="font-size:6.75px; font-family:Arial;" text-anchor="middle"><textPath startOffset="21.46611528233685" xlink:href="#id155">November</textPath></text><path d="M 82.15384107792192 88.93136811851018 l -16.13845916517884 -10.009473994587715 a39.99050904727076,39.99050904727076 0 0,0 0.3678601314289938,-0.5818663861190251 l 15.963771437503885 10.285788028420956" fill="red" stroke="none" /><path d="M 82.54541684631803 88.32363383020206 l -8.86060190292322 -5.927361965187669 a31.660388639652872,31.660388639652872 0 0,0 0.30691812068822266,-0.45036447040304656 l 8.757259316566257 6.079004458861132" fill="red" stroke="none" /><path d="M 82.7489923806493 88.02491185347247 l -8.43494624148795 -5.855265210116522 a31.268030423483978,31.268030423483978 0 0,0 0.3107258739509287,-0.43949971275390226 l 8.332907747733143 5.99959142320221" fill="red" stroke="none" /><path d="M 87.22198572758235 83.33499621200491 l -8.442938573686444 -11.011226025628247 a34.87552919158456,34.87552919158456 0 0,0 0.4795449139895996,-0.3611832872082831 l 8.252147505938455 11.154925902342384" fill="red" stroke="none" /><path d="M 87.51073957382395 83.11751280151077 l -5.794517221052094 -7.832798698056268 a30.743159922188553,30.743159922188553 0 0,0 0.42814195758708334,-0.3110633402104845 l 5.658829947111228 7.931381273083421" fill="red" stroke="none" /><path d="M 88.09926311788651 82.69761687909137 l -3.313876520108212 -4.818017718925732 a26.847655284847665,26.847655284847665 0 0,0 0.3830205471205629,-0.25861718318268867 l 3.2304512785811097 4.874346814407086" fill="red" stroke="none" /><path d="M 88.39885842347998 82.49532879139004 l -4.025146874612969 -6.0734430436629 a28.286186778200502,28.286186778200502 0 0,0 0.4081736813628224,-0.2654875164479836 l 3.9200061674658593 6.141829484270419" fill="red" stroke="none" /><path d="M 88.70189139769569 82.29822771554957 l -3.129258623710871 -4.902893530761847 a26.81640993294448,26.81640993294448 0 0,0 0.3912397335994739,-0.2449942852875895 l 3.044399737739155 4.956032157372366" fill="red" stroke="none" /><line stroke="#e1ed5e" stroke-width="0.3" x1="56.762969772571076" x2="54.21961505331055" y1="26.818313649435495" y2="22.513508569990535" /><path d="M 56.25429882871897 25.957352633546506 a86.0,86.0 0 0,1 42.265352541879196,-11.944610805530505" fill="none" id="id156" stroke="none" /><text fill="#e1ed5e" style="font-size:6.75px; font-family:Arial;" text-anchor="middle"><textPath startOffset="22.20632615414155" xlink:href="#id156">December</textPath></text><path d="M 89.3179101791058 81.91981866633112 l -3.0016228084314758 -5.080455751791698 a26.900912652294508,26.900912652294508 0 0,0 0.4006996846334635,-0.2321111207147259 l 2.913726391332692 5.131371029896472" fill="red" stroke="none" /><path d="M 89.63071344664047 81.73862282372117 l -9.590612675051176 -16.890052609643373 a40.42302058484656,40.42302058484656 0 0,0 0.6080313547475171,-0.3383687906154156 l 9.298457231231614 17.052636797818973" fill="red" stroke="none" /><path d="M 89.94658935756843 81.56283822128135 l -5.771790049334743 -10.585007484250632 a33.05636528209234,33.05636528209234 0 0,0 0.5019136101888045,-0.26810486819377727 l 5.588731392617633 10.682791078946158" fill="red" stroke="none" /><path d="M 90.26544431104013 81.39251694778311 l -5.437225384210892 -10.393189213815868 a32.72952692621854,32.72952692621854 0 0,0 0.501446763556761,-0.2568605085917353 l 5.257518133065367 10.485242247720107" fill="red" stroke="none" /><path d="M 90.58718382345135 81.22770947309562 l -10.24671436709113 -20.435361260371465 a43.86042749299852,43.86042749299852 0 0,0 0.6778080458420899,-0.33259746440668875 l 9.893435054238614 20.608713884912984" fill="red" stroke="none" /><path d="M 91.56875222667455 80.76684994638697 l -4.586447751147006 -10.462489086128933 a32.423623805578,32.423623805578 0 0,0 0.5130903248519232,-0.21967850001022296 l 4.405673668504774 10.539887114101942" fill="red" stroke="none" /><path d="M 91.90106846888425 80.62456947434976 l -4.543106932386404 -10.868674762944433 a32.77997927425013,32.77997927425013 0 0,0 0.5224756103642901,-0.2131309200488965 l 4.355347452433734 10.945266569176908" fill="red" stroke="none" /><path d="M 92.23578459929587 80.48803036053334 l -4.298089486476296 -10.801373640436443 a32.625112720058816,32.625112720058816 0 0,0 0.5235815347830011,-0.20314150116861268 l 4.111524786693619 10.873757845495607" fill="red" stroke="none" /><path d="M 92.57280143429618 80.3572730644239 l -4.48628463171089 -11.864885958871355 a33.684725799706825,33.684725799706825 0 0,0 0.544116873465013,-0.20040283648835405 l 4.281385432473307 11.940352063166031" fill="red" stroke="none" /><path d="M 93.25333710446033 80.11325718540243 l -4.334396526405741 -12.776246614322819 a34.49145917972231,34.49145917972231 0 0,0 0.563881448682067,-0.1859028480674966 l 4.113832255481265 12.84896318664955" fill="red" stroke="none" /><path d="M 93.59665428221793 80.00007090966166 l -3.776183223563782 -11.794365013538561 a33.384127171928874,33.384127171928874 0 0,0 0.5487947151921457,-0.17051318940598645 l 3.572603135660908 11.857618337827073" fill="red" stroke="none" /><path d="M 93.94186890950719 79.89281104454417 l -3.3863667267442987 -11.239491953875355 a32.73855438242843,32.73855438242843 0 0,0 0.5409808870617344,-0.15792715560600268 l 3.1923956219591427 11.296117438400056" fill="red" stroke="none" /><path d="M 94.28887869178378 79.79150937346287 l -3.1389723140344357 -11.107081982983992 a32.54211494332829,32.54211494332829 0 0,0 0.540357341422039,-0.1477000735274717 l 2.947317083388674 11.15946859733776" fill="red" stroke="none" /><path d="M 94.98787191387505 79.60689891045804 l -3.090211132604763 -12.573299590984528 a33.94748112370611,33.94748112370611 0 0,0 0.5686628450764909,-0.13458412266995964 l 2.8733246005657382 12.624629625795357" fill="red" stroke="none" /><path d="M 96.40284397218896 79.31037775812273 l -1.173985406771879 -6.752366145865379 a27.853662546634624,27.853662546634624 0 0,0 0.4730756158308457,-0.07806153008038065 l 1.0575805848021478 6.771573938885386" fill="red" stroke="none" /><path d="M 98.19473922651362 79.07773832637324 l -1.188511720563064 -13.774382950652637 a34.8255627654409,34.8255627654409 0 0,0 0.5976892610306048,-0.046392189881069655 l 0.9512322701701249 13.792800402722168" fill="red" stroke="none" /><path d="M 98.55514903715128 79.0497635885617 l -1.3933891042912243 -20.20404311491605 a41.25203425301627,41.25203425301627 0 0,0 0.7088237867169564,-0.04275818652856085 l 1.0454032687346448 20.22503457082492" fill="red" stroke="none" /><path d="M 98.91598698831166 79.02799685794201 l -0.8970628439221889 -17.355146643542845 a38.37831513020817,38.37831513020817 0 0,0 0.660032397463152,-0.028422383449796224 l 0.5981896140697128 17.368016753516834" fill="red" stroke="none" /><path d="M 99.27714615592234 79.0124445844662 l -0.44690299500257763 -12.975515658981431 a33.98320949932699,33.98320949932699 0 0,0 0.5847917506499593,-0.015103445615569385 l 0.22348460915773932 12.98128589673936" fill="red" stroke="none" /></svg>