<?xml version="1.0" encoding="utf-8" ?>
<svg baseProfile="full" height="200mm" version="1.1" viewBox="0,0,200,200" width="200mm" xmlns="http://www.w3.org/2000/svg" xmlns:ev="http://www.w3.org/2001/xml-events" xmlns:xlink="http://www.w3.org/1999/xlink"><defs /><rect fill="#1a1a1a" height="200" width="200" x="0" y="0" /><rect fill="#1a1a1a" height="200" width="180" x="10" y="0" /><text alignment-baseline="middle" fill="#e1ed5e" style="dominant-baseline: central; font-size:9.0px; font-family:Arial;" text-anchor="middle" x="100.0" y="100.0">2026</text><line stroke="#e1ed5e" stroke-width="0.3" x1="100.0" x2="100.0" y1="15.0" y2="10.0" /><path d="M 100.0 14.0 a86.0,86.0 0 0,1 42.46469731375804,11.215312516191453" fill="none" id="id157" stroke="none" /><text fill="#e1ed5e" style="font-size:6.75px; font-family:Arial;" text-anchor="middle"><textPath startOffset="22.20632615414155" xlink:href="#id157">January</textPath></text><path d="M 103.59715602781102 79.31037775812273 l 3.2408029588685636 -18.640000172622795 a39.91963028850165,39.91963028850165 0 0,0 0.6759816806837905,0.12353133137879803 l -3.561179760655255 18.58145335989326" fill="red" stroke="none" /><path d="M 104.66035177308747 79.52364482259891 l 4.955589015782969 -21.773549667726968 a43.33036783455037,43.33036783455037 0 0,0 0.7258379542569425,0.17178239288886363 l -5.329650657002436 21.685021362697235" fill="red" stroke="none" /><path d="M 105.36241919743992 79.69619591428918 l 6.563570112645324 -24.851738881883733 a46.70387865822866,46.70387865822866 0 0,0 0.7755114795030484,0.21197658246403875 l -6.9903794813720825 24.735075758593403" fill="red" stroke="none" /><line stroke="#e1ed5e" stroke-width="0.3" x1="143.23703022742887" x2="145.7803849466894" y1="26.81831364943548" y2="22.513508569990506" /><path d="M 143.74570117128098 25.957352633546492 a86.0,86.0 0 0,1 28.547481713284135,27.462654790039103" fill="none" id="id158" stroke="none" /><text fill="#e1ed5e" style="font-size:6.75px; font-family:Arial;" text-anchor="middle"><textPath startOffset="19.985693538727396" xlink:href="#id158">February</textPath></text><line stroke="#e1ed5e" stroke-width="0.3" x1="172.23445277983987" x2="176.4835382374775" y1="55.19839476539836" y2="52.563006222186495" /><path d="M 173.08426987136738 54.67131705675599 a86.0,86.0 0 0,1 12.851231095245387,41.99856678651699" fill="none" id="id159" stroke="none" /><text fill="#e1ed5e" style="font-size:6.75px; font-family:Arial;" text-anchor="middle"><textPath startOffset="22.20632615414155" xlink:href="#id159">March</textPath></text><path d="M 119.97218684219823 93.5106431181261 l 20.356853582190144 -6.614342682182973 a42.40446254602239,42.40446254602239 0 0,0 0.21958346503030593,0.6961395907389696 l -20.467692530988657 6.262952925017585" fill="red" stroke="none" /><path d="M 120.18372546131832 94.20196356495316 l 7.295007856144284 -2.095585447044368 a28.59003412291875,28.59003412291875 0 0,0 0.13180445395512574,0.4741707485656695 l -7.3299990806657735 1.9697033950597467" fill="red" stroke="none" /><path d="M 120.53481517161879 95.60439243477599 l 19.660314856049908 -4.208415220380412 a41.10568921738686,41.10568921738686 0 0,0 0.14214876632695017,0.69316786771704 l -19.729842918291855 3.86937169649996" fill="red" stroke="none" /><path d="M 120.67395015179393 96.31383870115 l 11.473396365370238 -2.0457043447366576 a32.65434384351884,32.65434384351884 0 0,0 0.09390166847565087,0.5542129628119685 l -11.506909895366112 1.8479055936088513" fill="red" stroke="none" /><path d="M 120.73433829027371 96.67025291283417 l 12.369926654100782 -1.986498274906043 a33.52841812935846,33.52841812935846 0 0,0 0.08660567075336331,0.5706231618820056 l -12.402288218293446 1.7732760006319552" fill="red" stroke="none" /><path d="M 120.96714384426684 98.82574320788733 l 21.487176124985133 -1.2033809991237374 a42.520847187208574,42.520847187208574 0 0,0 0.03463706048704854,0.7311336026800799 l -21.50470679370568 0.8333362898206578" fill="red" stroke="none" /><line stroke="#e1ed5e" stroke-width="0.3" x1="184.98032266829074" x2="189.97916517819016" y1="98.17113171792111" y2="98.06355123074" /><path d="M 185.9800911702706 98.14961562048488 a86.0,86.0 0 0,1 -9.607161424134198,41.387399972396054" fill="none" id="id160" stroke="none" /><text fill="#e1ed5e" style="font-size:6.75px; font-family:Arial;" text-anchor="middle"><textPath startOffset="21.466115282336823" xlink:href="#id160">April</textPath></text><path d="M 120.99513854157772 99.54816195383933 l 16.885686092485145 -0.3633981932056118 a37.88959600051971,37.88959600051971 0 0,0 0.008420498802240895,0.6521769119488181 l -16.8894395984051 0.07268502319633094" fill="red" stroke="none" /><path d="M 120.99980553446 99.90962569577887 l 9.48192274690246 -0.040806195539460355 a30.482010552821627,30.482010552821627 0 0,0 -0.002258140306591541,0.5247122809590609 l -9.481220309306366 -0.12241556362328528" fill="red" stroke="none" /><path d="M 120.99824983174949 100.27111621757518 l 15.312180422338116 0.19770125949526504 a36.31345666641731,36.31345666641731 0 0,0 -0.013449704268671045,0.6249549077670268 l -15.30650865538444 -0.46124598305240666" fill="red" stroke="none" /><path d="M 120.81339534386255 102.79330883721812 l 11.493916163893548 1.5425670374495335 a32.596966062192266,32.596966062192266 0 0,0 -0.07942165250246223,0.5554748526217347 l -11.465660460374483 -1.7401873620516777" fill="red" stroke="none" /><path d="M 120.76222939487914 103.15116336523771 l 23.119620823694966 3.508953724197998 a44.38438845191366,44.38438845191366 0 0,0 -0.12114453713384668,0.7543671483739544 l -23.05579453219983 -3.9064001022651573" fill="red" stroke="none" /><path d="M 120.70491114924044 103.5080841355445 l 34.40021575375778 5.828513354885502 a55.890491710968526,55.890491710968526 0 0,0 -0.1688785970701446,0.9471608577254373 l -34.294790714348444 -6.4197929633441575" fill="red" stroke="none" /><path d="M 120.64145759157962 103.86396538481128 l 51.449659734365234 9.631088472889793 a73.34334104692395,73.34334104692395 0 0,0 -0.24297624535348686,1.2389306403509721 l -51.27625355603608 -10.515282840308709" fill="red" stroke="none" /><path d="M 120.5718875245553 104.21870165774334 l 29.316186082737943 6.011905454875475 a50.92627229769988,50.92627229769988 0 0,0 -0.18349454036124885,0.8572254040898137 l -29.208357503652252 -6.515644678381458" fill="red" stroke="none" /><path d="M 120.49622156327973 104.57218783832717 l 18.035420284170833 4.023245407833589 a39.4787144693113,39.4787144693113 0 0,0 -0.15366513231003814,0.6619853682014869 l -17.963494585930242 -4.333099433383641" fill="red" stroke="none" /><path d="M 120.41448212921028 104.9243191809786 l 53.53558955770704 12.913691802487701 a76.07107031156113,76.07107031156113 0 0,0 -0.3180085372771413,1.2702860278813215 l -53.30536970613484 -13.833305669766418" fill="red" stroke="none" /><path d="M 120.32669344350535 105.2749913415812 l 19.13159518718206 4.9648507389315215 a40.76531500548566,40.76531500548566 0 0,0 -0.18210821996181067,0.6776924323985676 l -19.04329889087847 -5.2934341045056374" fill="red" stroke="none" /><path d="M 120.23288151984713 105.62410040840565 l 10.816862354522893 3.0067452293468304 a32.226977690852266,32.226977690852266 0 0,0 -0.1531661744978317,0.5331915469412966 l -10.763503543138961 -3.192494251792709" fill="red" stroke="none" /><path d="M 120.13307415673323 105.97154293290107 l 8.868393809101434 2.6303978202559923 a30.2502649392391,30.2502649392391 0 0,0 -0.15236515024609024,0.49793812679281624 l -8.821801886349212 -2.782662919600866" fill="red" stroke="none" /><path d="M 120.02730092923936 106.31721596034902 l 30.63813597177746 9.664194003979894 a53.126189029694835,53.126189029694835 0 0,0 -0.2826003327901221,0.869754391828413 l -30.467243387971088 -10.190147295786103" fill="red" stroke="none" /><path d="M 119.9155931802556 106.66101706037122 l 22.433915834299423 7.503301295155433 a44.65544567295893,44.65544567295893 0 0,0 -0.25008999330744763,0.7268785850823881 l -22.301435010048746 -7.888352583327122" fill="red" stroke="none" /><path d="M 119.79798401119884 107.00284435728193 l 23.09916179858208 8.170520532173496 a45.50160569358144,45.50160569358144 0 0,0 -0.26754020897446434,0.7361557511501268 l -22.95509732860239 -8.566924080329754" fill="red" stroke="none" /><path d="M 119.67450827220406 107.3425965602758 l 30.563047908566347 11.406238333388519 a53.62211167872772,53.62211167872772 0 0,0 -0.3301736085873963,0.8619791047323678 l -30.36218002038544 -11.930641004954031" fill="red" stroke="none" /><path d="M 119.54520255179757 107.68017299344265 l 37.986591318386935 14.926608817854728 a61.81402664270469,61.81402664270469 0 0,0 -0.3976625429358712,0.9869658194990499 l -37.72402616119367 -15.57827400519659" fill="red" stroke="none" /><path d="M 119.12269723197855 108.67885076344098 l 19.140535150522588 8.68694651641433 a42.01958909273523,42.01958909273523 0 0,0 -0.30459276427973636,0.6560657164141529 l -18.98816776940302 -9.015132300107313" fill="red" stroke="none" /><path d="M 118.97047184881838 109.00673069616215 l 7.858937822127804 3.731237529877105 a29.69971477672885,29.69971477672885 0 0,0 -0.22323825033230937,0.4599369166701679 l -7.79354631518078 -3.8659634025125484" fill="red" stroke="none" /><path d="M 118.64920377521936 109.65438752849418 l 23.608771957393643 12.221874794000069 a47.58473879533953,47.58473879533953 0 0,0 -0.3828248698212494,0.7241603823828011 l -23.3948945793475 -12.626450191469004" fill="red" stroke="none" /><line stroke="#e1ed5e" stroke-width="0.3" x1="174.80103733775053" x2="179.2010983576182" y1="140.37084112569926" y2="142.7455964860345" /><path d="M 175.68104954172406 140.8457921977663 a86.0,86.0 0 0,1 -30.038265399797805,32.042727171017184" fill="none" id="id161" stroke="none" /><text fill="#e1ed5e" style="font-size:6.75px; font-family:Arial;" text-anchor="middle"><textPath startOffset="22.206326154141568" xlink:href="#id161">May</textPath></text><path d="M 118.48025628344425 109.97397251340804 l 28.503359343478923 15.38353788341871 a53.38973188641835,53.38973188641835 0 0,0 -0.44344898733572946,0.8049887204798486 l -28.234333946691685 -15.871897122296362" fill="red" stroke="none" /><path d="M 117.94076556474637 110.91462005526583 l 15.14767654737714 9.215389033317411 a38.73063732129633,38.73063732129633 0 0,0 -0.35140742561441146,0.5665806606506327 l -14.986804482094765 -9.474766025333317" fill="red" stroke="none" /><path d="M 117.75023020441432 111.22182372390056 l 35.705107108483496 22.573026569241087 a63.2421140820857,63.2421140820857 0 0,0 -0.5896427793821971,0.9151386878499597 l -35.31125946572425 -23.184286857012502" fill="red" stroke="none" /><path d="M 117.55443506779139 111.5257021239791 l 6.74019393643565 4.42540402292658 a29.06315168323768,29.06315168323768 0 0,0 -0.27817158263371183,0.41582877322144246 l -6.663019248391217 -4.540769710353829" fill="red" stroke="none" /><path d="M 117.35343817320211 111.8261652097733 l 18.38629881567208 12.530047660882326 a43.2499006407482,43.2499006407482 0 0,0 -0.4245473944481704,0.6115921859434952 l -18.167890514061774 -12.844681109012841" fill="red" stroke="none" /><path d="M 117.14729908036423 112.12312394758627 l 44.26918924902042 31.298274195240094 a75.215708833935,75.215708833935 0 0,0 -0.7565275065009502,1.0507505387642386 l -43.72388195014387 -32.05565833945546" fill="red" stroke="none" /><path d="M 116.93607887273984 112.41649034213515 l 50.80823661821952 37.24947102640542 a84.0,84.0 0 0,0 -0.8649549332196318,1.15874848196274 l -50.159520418304794 -38.11853238787748" fill="red" stroke="none" /><line stroke="#e1ed5e" stroke-width="0.3" x1="143.8653032363475" x2="146.44561519142675" y1="172.8068346515853" y2="177.08958963109032" /><path d="M 144.38136562736335 173.6633856474863 a86.0,86.0 0 0,1 -40.68145358897372,12.25698825130547" fill="none" id="id162" stroke="none" /><text fill="#e1ed5e" style="font-size:6.75px; font-family:Arial;" text-anchor="middle"><textPath startOffset="21.466115282336833" xlink:href="#id162">June</textPath></text><line stroke="#e1ed5e" stroke-width="0.3" x1="102.19456741930631" x2="102.32365962044197" y1="184.97166512339345" y2="189.96999836594603" /><path d="M 102.22038585953345 185.97133177190398 a86.0,86.0 0 0,1 -42.740103519485714,-10.115201625700543" fill="none" id="id163" stroke="none" /><text fill="#e1ed5e" style="font-size:6.75px; font-family:Arial;" text-anchor="middle"><textPath startOffset="22.20632615414155" xlink:href="#id163">July</textPath></text><line stroke="#e1ed5e" stroke-width="0.3" x1="58.666819895761336" x2="56.23545636021788" y1="174.27360380694188" y2="178.64263932499728" /><path d="M 58.180547188652646 175.14741091055294 a86.0,86.0 0 0,1 -31.652253787137756,-30.449443065178592" fill="none" id="id164" stroke="none" /><text fill="#e1ed5e" style="font-size:6.75px; font-family:Arial;" text-anchor="middle"><textPath startOffset="22.20632615414155" xlink:href="#id164">August</textPath></text><line stroke="#e1ed5e" stroke-width="0.3" x1="26.63291911575756" x2="22.317208475507996" y1="142.92168965132927" y2="145.44649492493687" /><path d="M 25.769776987707644 143.4266507060508 a86.0,86.0 0 0,1 -11.730757126820373,-40.83630448921669" fill="none" id="id165" stroke="none" /><text fill="#e1ed5e" style="font-size:6.75px; font-family:Arial;" text-anchor="middle"><textPath startOffset="21.46611528233685" xlink:href="#id165">September</textPath></text><line stroke="#e1ed5e" stroke-width="0.3" x1="15.007084014347285" x2="10.007500721073583" y1="101.09737516637583" y2="101.16192664675087" /><path d="M 14.007167355692545 101.11028546245083 a86.0,86.0 0 0,1 10.666146001902534,-42.60595125391555" fill="none" id="id166" stroke="none" /><text fill="#e1ed5e" style="font-size:6.75px; font-family:Arial;" text-anchor="middle"><textPath startOffset="22.20632615414155" xlink:href="#id166">October</textPath></text><line stroke="#e1ed5e" stroke-width="0.3" x1="26.266209847984243" x2="21.928928074336255" y1="57.711370442889674" y2="55.22380399835377" /><path d="M 25.398753493254645 57.213857153982495 a86.0,86.0 0 0,1 29.58750427330803,-30.492523968695096" fill="none" id="id167" stroke="none" /><text fill="#e1ed5e" style="font-size:6.75px; font-family:Arial;" text-anchor="middle"><textPath startOffset="21.46611528233685" xlink:href="#id167">November</textPath></text><line stroke="#e1ed5e" stroke-width="0.3" x1="56.762969772571076" x2="54.21961505331055" y1="26.818313649435495" y2="22.513508569990535" /><path d="M 56.25429882871897 25.957352633546506 a86.0,86.0 0 0,1 42.265352541879196,-11.944610805530505" fill="none" id="id168" stroke="none" /><text fill="#e1ed5e" style="font-size:6.75px; font-family:Arial;" text-anchor="middle"><textPath startOffset="22.20632615414155" xlink:href="#id168">December</textPath></text></svg>